<?xml version="1.0" encoding="UTF-8" standalone="no"?>
<!DOCTYPE svg PUBLIC "-//W3C//DTD SVG 1.1//EN" "http://www.w3.org/Graphics/SVG/1.1/DTD/svg11.dtd">
<svg width="100%" height="100%" viewBox="0 0 481 344" version="1.1" xmlns="http://www.w3.org/2000/svg" xmlns:xlink="http://www.w3.org/1999/xlink" xml:space="preserve" xmlns:serif="http://www.serif.com/" style="fill-rule:evenodd;clip-rule:evenodd;stroke-linejoin:round;stroke-miterlimit:2;">
    <g transform="matrix(1,0,0,1,-18.422704,-140.321091)">
        <g>
            <path d="M263.35,140.79C269.26,143.34 274.71,146.96 280.68,149.46C287.65,152.47 294.26,154.85 300.2,159.81C305.31,163.69 307.79,170.42 310.98,175.9C315.45,183.57 319.17,191.62 321.61,200.17C323.21,205.92 325.5,211.44 327.2,217.15C328.09,221.66 327.87,226.47 327.77,231.06C327.63,235.85 325.54,240.23 325.47,244.95C325.41,250.1 325.51,255.26 325.46,260.41C330.95,262.05 336.48,263.52 342.01,264.98C345.11,265.82 348.03,266.5 350.73,268.35C354.74,271.11 357.74,275.44 361.65,278.31C367.33,283.03 377.84,277.61 382.92,283.05C387.81,287.33 392.87,291.36 398.1,295.22C405.78,290.5 413.16,285.47 421.21,281.35C428.75,277.66 436.64,275.04 444.67,272.64C459.05,267.86 473.91,264.34 488.91,262.17C481.44,273.78 473.32,284.89 464.64,295.62C459.21,302.36 452.43,308.26 446.47,314.59C454.62,314.9 462.88,315.01 471,314.28C476.78,313.5 484.28,311.97 489.36,315.67C496.84,321.37 499.9,331.49 497.82,340.55C497.32,344.94 495.21,348.41 493.35,352.28C492.92,365.11 495.61,378.16 495.68,391.04C496.85,401.71 496.9,412.29 496.59,423C496.42,427.96 496.62,432.75 495.82,437.67C494.84,447.16 493.77,456.61 492.04,466C491.13,469.77 492.1,473.59 490.94,477.24C490.35,479.34 489.68,481.42 489.09,483.52C484.61,483.49 480.13,483.4 475.65,483.27C477.02,473.68 480.14,464.51 481.56,454.93C483.14,444.07 484.69,432.98 484.53,422C484.49,413.67 484.66,405.32 484.28,397C483.51,385.71 482.24,374.48 481.32,363.2C480.78,358.07 479.98,352.68 478.16,347.84C477.02,344.76 475.2,342.17 473.77,339.26C472.27,336.19 472.96,332.66 471.59,329.41C464.63,328 457.16,328.96 450.07,328.48C443.36,328.43 436.74,326.82 430.06,326.73C425.15,327.85 420.65,332.04 416.84,335.19C424.87,336.81 432.89,338.08 441.07,338.58C450.24,339.03 459.54,338.59 468.72,338.85C470.46,347.21 471.04,355.67 471.93,364.15C472.67,370.09 472.68,376.03 472.64,382C470.36,370.74 466.47,360.05 462.62,349.27C454.03,348.35 445.43,349.07 436.85,348.13C429.89,347.34 423.32,347.11 416.51,345.47C412.83,344.68 408.91,343.38 405.14,343.43C402.55,343.72 400.01,345.47 397.8,346.77C372.54,363.25 347.43,379.96 322.21,396.5C323.35,409.18 326.13,421.3 329.49,433.54C332.3,442.78 335.23,451.85 339.45,460.56C343.06,468.46 347.68,475.33 350.15,483.75C347.12,483.68 344.08,483.69 341.05,483.77C328.89,465.4 321.5,445.03 316.56,423.66C315.07,417.25 314.34,410.63 312.54,404.31L311.93,403.61C308.39,405.26 305.3,407.55 302.32,410.04C305.43,421.77 308.02,433.78 311.74,445.31C314.78,454.59 318.59,463.45 322.73,472.29C324.38,475.78 325.87,479.33 327.17,482.97C325.71,483.21 324.24,483.43 322.76,483.63C319.36,483.73 315.95,483.68 312.54,483.72C311.02,481.67 309.49,479.15 307.37,477.67C303.53,475.45 298.1,474.78 294.49,471.52C291.09,468.47 288.73,464.08 287.08,459.87C284.31,453.21 286.26,444.3 283.07,437.91C280.65,436.27 277.2,435.93 274.41,435.25C273.87,444.57 274.46,453.72 276.4,462.85C277.72,469.95 280.31,476.52 281.1,483.7C268.43,483.58 255.74,483.71 243.06,483.81C243.17,479.67 243.51,475.59 244.68,471.59C247.13,462.8 248.92,453.86 249.52,444.74C245.28,446.6 241.37,448.92 237.57,451.56C230.7,456.34 223.63,460.65 217.01,465.76C220.55,471.08 223.75,476.49 226.52,482.26C225.25,482.8 223.98,483.34 222.68,483.84L221.75,483.92C219.24,478.2 218.08,472.2 216.36,466.23C211.2,468.86 206.68,471.84 202.38,475.71C204.66,478.14 206.93,480.57 209.07,483.13C207.97,483.3 206.88,483.46 205.78,483.61C201.6,483.76 197.42,483.69 193.24,483.68C190.87,480.48 187.97,477.49 185.99,474.04C183.55,469.77 183.04,464.57 180.56,460.41C177.71,456.08 173.09,453.26 170.34,448.68C166.05,441.53 164.45,433.3 163.31,425.16C159.9,425.41 156.49,425.69 153.09,426.09C153.81,433.96 157.07,440.63 160.34,447.67C164.27,455.84 168.93,463.56 173.85,471.17C176.5,475.18 179.28,478.87 180.71,483.53C179.62,483.5 178.53,483.5 177.43,483.53C175.17,483.31 171.43,484.16 169.84,482.23C165.34,477.66 162.97,470.95 158.78,466.17C157.51,464.53 154.72,465.53 153.11,466.07C144.5,469.42 137.06,476.46 129.77,481.79C126.51,484.46 122.56,483.22 118.66,483.17C121.52,478.19 125.4,474.37 129.97,470.96C136.59,465.46 144.11,462.32 151.37,457.83C144.75,454.09 137.84,450.58 130.01,450.85C122.01,451.44 115.06,457.19 110.02,463.02C107.28,466.07 105.95,469.72 104.83,473.59C109.04,476.51 113.12,478.81 115.37,483.68C90.92,483.57 66.45,483.67 42,483.52C38.03,477.68 34,471.87 29.71,466.26C25.23,460.36 20.36,453.37 18.77,446.05C17.47,438.72 20.06,431.5 22.56,424.72C25.49,416.64 30.37,409.48 36.48,403.48C39.51,400.54 41.33,396.96 43.49,393.41C49.27,384.85 57.09,379.07 63.89,371.87C67.3,368.47 68.37,363.39 69.19,358.82C70.28,351.02 67.1,343.69 64.58,336.54C61.8,328.18 65.76,320.13 70.52,313.43C75.07,306.28 79.89,299.8 88.65,297.82C96.39,297.09 105.21,296.96 112.28,293.28C118.37,290.17 123.98,286.05 130.15,283.07C136.61,280.12 143.95,279 150.99,279.99C153.55,280.26 156.3,280.77 158.87,280.41C163.65,276.92 167.28,271.65 172.29,268.28C174.87,266.56 177.9,265.77 180.84,264.93C186.2,263.48 191.54,261.96 196.88,260.47C197.51,255.34 197.31,250.1 197.3,244.94C197.19,239.61 194.28,235.3 194.43,230.07C194.61,224.75 193.87,218.77 195.78,213.84C197.18,209.91 198.71,206.05 199.78,202.01C203.44,188.83 210.31,176.63 219.6,166.59C226.55,159.75 234.61,154.78 243.03,149.97C247.69,147.35 252.1,144.29 256.8,141.74C258.93,140.65 260.99,139.73 263.35,140.79Z" style="fill:rgb(2,2,2);fill-rule:nonzero;"/>
            <path d="M261.24,151.09C261.54,177.65 261.41,204.23 261.37,230.79C259.44,230.75 257.51,230.73 255.59,230.7C255.47,226.95 254.92,223.26 254.62,219.53C254.19,210.36 254.61,201.16 254.21,192C253.12,182.13 253.33,171.95 253.16,161.99C253.24,159.81 252.94,157.29 253.71,155.23C256,153.57 258.7,152.32 261.24,151.09Z" style="fill:rgb(3,76,178);fill-rule:nonzero;"/>
            <path d="M248.47,159.21C248.68,163.48 248.57,167.74 248.75,172.01C249.64,182.96 249.65,194.03 249.18,205C248.36,212.88 248.68,220.61 248.54,228.52C240.8,228.06 231.45,226.67 225.06,221.97C221.86,218.17 222.85,210.6 223.17,205.95C223.6,195.66 227.63,187.21 231.85,178.07C225.62,183.86 220.79,191.01 217.75,198.96C215.46,204.91 214.44,211.15 212.44,217.26C211.37,216.08 208.67,214.63 208.69,212.98C210.65,189.24 226.72,168.47 248.47,159.21Z" style="fill:rgb(3,76,178);fill-rule:nonzero;"/>
            <path d="M274.93,161.14C281.81,161.57 286.13,165.81 291.25,169.83C304.74,181.22 312.67,197.65 314.51,215.11C311.98,216.35 309.43,217.56 306.84,218.69C306.28,203.31 300.53,187.37 290,175.99C285.37,170.81 278.04,167.22 274.93,161.14Z" style="fill:rgb(3,76,178);fill-rule:nonzero;"/>
            <path d="M318.2,220.78C318.28,224.11 318.59,227.55 318.17,230.86C316.36,233.69 313.58,234.71 310.57,235.77C311.26,233.06 312.01,230.38 312.77,227.69C308.92,228.2 305.21,229.02 301.62,230.55C291.81,234.59 281.62,237.42 270.99,237.95C268.76,238.25 266.13,238.16 264.08,239.14C262.27,240.39 260.48,242.53 260.21,244.77C261.13,246.51 262.44,248.09 263.63,249.66C246.87,250.64 231.68,245.86 216.38,239.6C212.82,237.97 208.58,236.05 206.07,232.95C203.66,229.86 204.7,224.6 204.71,220.95C208.74,222.61 212.54,224.74 216.54,226.47C225.82,230.58 235.63,233.28 245.65,234.83C253.78,236.33 261.76,237.27 270,235.94C281.27,234.06 292.3,232.1 303,228.04C308.41,226.21 313.12,223.31 318.2,220.78Z" style="fill:rgb(3,76,178);fill-rule:nonzero;"/>
            <path d="M210,227.66C211.48,229.01 211.5,230.7 212,232.51C210.98,232.44 209.96,232.36 208.93,232.28C209.27,230.73 209.54,229.18 210,227.66Z" style="fill:rgb(2,2,2);fill-rule:nonzero;"/>
            <path d="M297.39,235.55C298.29,235.54 299.2,235.57 300.1,235.64C300.22,236.78 300.3,237.92 300.39,239.07C299.31,239.19 298.24,239.31 297.16,239.43C297.21,238.12 297.24,236.84 297.39,235.55Z" style="fill:rgb(3,76,178);fill-rule:nonzero;"/>
            <path d="M282.5,239.45C282.65,240.92 282.78,242.38 282.89,243.85C281.62,243.7 280.34,243.54 279.07,243.38C279.75,240.73 279.83,240.33 282.5,239.45Z" style="fill:rgb(3,76,178);fill-rule:nonzero;"/>
            <path d="M207.37,243.4C209.11,244.02 210.84,244.66 212.57,245.29C213.39,251.21 213.24,257.1 213.37,263.05C213.37,269.82 217.86,275.99 222.12,280.89C224.38,283.7 227.2,285.99 227.25,289.89C227.57,298.94 227.14,308.2 228.1,317.22C228.41,320.02 228.12,322.78 227.75,325.57C223.53,322.74 219.95,319.23 216.72,315.33C213.32,311.18 209.3,306.98 206.78,302.24C204.84,298.83 205.63,294.08 206.02,290.33C208.21,274.85 206.96,259.19 207.37,243.4Z" style="fill:rgb(3,76,178);fill-rule:nonzero;"/>
            <path d="M315.22,243.21C315.58,256.49 315.24,269.78 315.45,283.06C315.57,288.39 317.08,294.41 316.51,299.72C315.65,302.89 313.43,305.83 311.42,308.37C306.18,314.63 300.87,320.68 294.46,325.79C294.1,314.85 294.48,303.89 294.83,292.96C295.17,290.32 294.9,286.76 296.7,284.66C300.74,279.38 306.53,274.22 308.13,267.48C309.1,261.42 308,255.04 308.86,248.97C309.27,245.69 312.81,244.73 315.22,243.21Z" style="fill:rgb(3,76,178);fill-rule:nonzero;"/>
            <path d="M227.66,251.8C226.47,253.64 225.23,255.45 223.98,257.26C226.44,259.53 228.97,261.72 231.5,263.91C231.5,261.82 231.47,259.72 231.47,257.63C233.86,259.14 236.32,261.36 239.08,262.08C241.76,262.62 244.49,262.84 247.19,263.28C244.73,265.48 242.22,267.6 239.89,269.94C244.25,269.29 248.29,267.77 252.35,266.11C252.89,267.45 253.43,268.78 253.96,270.11C255.13,266.58 256.29,263.04 257.44,259.49C259.62,259.55 261.79,259.61 263.96,259.67C264.5,267.73 264.66,275.71 265.64,283.76C267.31,283.06 268.98,282.37 270.66,281.68C271.47,282.43 272.29,283.17 273.11,283.92C270.1,287 266.17,290.82 261.86,291.77C257.84,291.67 253.74,288.45 250.17,286.72C250.3,284.44 250.44,282.17 250.54,279.89C248.25,281.49 245.95,282.94 244.2,285.16C241.83,288.14 240.55,292.25 239.17,295.77C241.21,293.12 243.28,290.5 245.31,287.83C248.8,290.29 252.09,292.98 255.66,295.32C257.65,296.63 259.59,298.14 261.18,299.92C258.67,300.56 256.04,300.78 253.48,301.1C249.42,301.71 245.37,303.79 241.6,305.42C241.5,306.29 241.4,307.15 241.3,308.02C246.39,307.07 250.73,305.47 255.94,305.57C260.28,305.72 264.62,305.46 268.96,305.57C272.89,305.67 276.25,307.07 279.8,308.6C279.77,310.65 279.74,312.71 279.72,314.76C278.4,314.76 277.07,314.76 275.75,314.75C274.43,313.44 273.17,312.01 271.7,310.85C265.51,310.49 259.16,310.72 252.97,311.23C252.74,313 252.53,314.76 252.32,316.53C256.13,316.48 260.09,316.2 263.88,316.52C266.64,316.66 269.26,318.41 271.21,320.25C271.78,323.05 270.45,326.35 269.96,329.14C262.67,329.57 256.64,331.68 249.49,328.77C244.58,326.43 242.49,322.11 240.74,317.24C239.58,317.33 238.41,317.42 237.25,317.51C236,313.4 234.71,309.38 234.58,305.04C234.42,298.69 234.58,292.34 234.45,285.99C234.36,284.64 234.48,283.44 233.56,282.34C230.92,279.04 227.54,276.39 224.97,273C221.25,268.37 219.63,261.91 220.78,256.1C222.03,253.52 225.22,252.8 227.66,251.8Z" style="fill:white;fill-rule:nonzero;"/>
            <path d="M291.54,257.23C291,259.47 290.47,261.71 290.03,263.97C293.18,262.39 296.27,260.72 299.43,259.16C299.89,262.48 300.85,265.37 299.62,268.65C297.76,274.04 291.32,277.85 288.64,282.55C286.28,290.12 288.33,299.18 286.61,306.74C285.93,310.04 283.88,312.23 281.64,314.61C281.38,311.57 281.28,308.53 281.23,305.49C278.92,304.11 276.59,302.66 274.01,301.88C270.44,300.79 266.53,300.84 262.95,299.94C266.36,295.63 272.14,293.2 276.67,290.17C278.9,292.46 281.15,294.72 283.49,296.88C282.61,293.15 281.81,289.59 279.68,286.32C277.5,282.8 274.18,280.5 271.7,277.35C271.06,274.26 271.44,270.91 271.4,267.77C275.63,268.89 279.8,270.15 284.13,270.86C281.47,268.12 278.66,265.55 275.9,262.92C278.51,262.66 281.25,262.66 283.79,261.99C286.59,260.98 289.1,258.9 291.54,257.23Z" style="fill:white;fill-rule:nonzero;"/>
            <path d="M196.87,273.29C197.15,279.91 192.7,284.35 192.06,290.76C191.74,292.41 191.43,294.07 191.07,295.72C189.68,293.88 188.36,291.98 186.97,290.13C187.8,293.29 188.76,296.4 190.03,299.41C194.21,309.4 201.88,318.5 207.02,328.07C194.71,321.16 185,310.75 174.97,301.03C171.91,298.13 169.39,294.81 167.09,291.29C170.72,287.07 173.77,282.48 178.48,279.43C183.91,276.11 190.75,274.84 196.87,273.29Z" style="fill:rgb(3,76,178);fill-rule:nonzero;"/>
            <path d="M325.06,273.6C331.27,274.64 337.8,275.5 343.3,278.78C348.82,282.27 352.37,288.79 357.53,292.6C361.25,293.19 365.21,292.05 368.99,292.24C372.69,292.19 375.83,293.57 379.18,294.95C374.53,299.37 369.02,302.99 363.98,306.98C352.4,315.75 340.61,325.63 326.84,330.71C331.82,324.76 337.58,319.52 342.56,313.55C347.11,308.48 350.98,302.93 354.74,297.26C349.38,300.68 344.01,304.03 339.12,308.12C330.49,314.9 323.34,322.09 313.94,327.77C318.93,320.59 324.76,313.77 329.07,306.17C332.07,301.05 334.01,293.68 331.83,287.99C329.16,283.21 325.95,279.23 325.06,273.6Z" style="fill:rgb(3,76,178);fill-rule:nonzero;"/>
            <path d="M309.93,275.41C309.28,279.99 308.08,284.32 308.28,289C308.23,292.38 309.09,295.63 309.25,298.97C307.71,305.81 303.15,312.2 299.56,318.16C299.36,310.76 299.55,303.36 299.48,295.96C299.56,292.7 299.21,289.8 300.99,286.9C303.58,282.82 306.78,279.07 309.93,275.41Z" style="fill:rgb(2,2,2);fill-rule:nonzero;"/>
            <path d="M213.04,276.68C216.84,280.89 221.48,286.22 222.51,291.93C222.82,299.67 222.73,307.51 222.44,315.25C219.29,312.64 215.11,309.46 213.64,305.49C211.1,298.75 215.55,291.18 214.08,284.23C213.64,281.72 213.28,279.22 213.04,276.68Z" style="fill:rgb(2,2,2);fill-rule:nonzero;"/>
            <path d="M463.99,278.2C462.31,281.03 460.52,283.8 458.41,286.34C452.57,293.23 446.63,299.83 439.97,305.95C432.08,312.83 423.05,318.43 414.45,324.39C343.17,370.78 271.92,417.16 200.83,463.85C198.28,465.53 195.68,467.1 192.99,468.55C192.46,465.71 191.89,462.87 191.32,460.04C203.64,451.37 216.17,443.07 228.83,434.91C260.68,413.75 292.52,392.55 324.35,371.35C348.55,355.24 372.79,339.22 396.64,322.6C404.71,317.01 413.01,311.74 421,306.04C413,310.02 405.7,315.48 397.94,319.97C385.8,327.02 374.05,334.66 362.22,342.22C327.51,364.17 292.9,386.24 258.16,408.15C242.52,418.19 226.6,427.84 211.06,438.06C206,441.39 200.76,444.42 195.65,447.67C193.32,449.09 190.67,450.86 187.96,451.32C185.55,450.96 183.22,449.59 181.08,448.49C185.09,445.28 189.25,442.34 193.6,439.61C224.09,420.12 254.54,400.59 284.82,380.78C310.32,363.86 336.16,347.5 361.79,330.78C380.91,318.63 399.55,305.85 418.92,294.04C432.87,286.45 448.5,281.49 463.99,278.2Z" style="fill:white;fill-rule:nonzero;"/>
            <path d="M186.97,290.13C188.36,291.98 189.68,293.88 191.07,295.72C191.43,294.07 191.74,292.41 192.06,290.76C191.59,293.7 190.96,296.58 190.03,299.41C188.76,296.4 187.8,293.29 186.97,290.13Z" style="fill:rgb(2,2,2);fill-rule:nonzero;"/>
            <path d="M147.97,292.27C152.8,292.51 157.95,291.52 161.52,295.46C170.66,304.66 179.39,314.27 188.55,323.45C193.07,327.98 197.46,332.53 200.95,337.93C195.22,335.54 189.78,332.8 184.52,329.49C176.88,325.04 169.97,319.52 162.1,315.81C167.68,321.9 173.99,327.34 180.04,332.95C186.16,338.65 192.84,342.28 198.03,348.84C188.99,347.52 180.24,342.78 171.87,339.03C158.44,332.82 144.61,324.2 129.94,321.38C117.43,318.89 104.27,320.97 94.13,329.04C95,330.09 95.89,331.12 96.77,332.17C92.08,336.67 88.16,341.83 83.54,346.38C84.48,339.18 85.6,332.32 88.38,325.55C90.04,321.67 92.17,318.18 95.79,315.85C103.57,310.86 112.79,308.69 121.99,309.29C133.07,309.67 141.78,314.28 152.32,316.58C144.62,308.65 135.11,305.26 125.61,300.24C131.7,294.73 139.8,292.07 147.97,292.27Z" style="fill:rgb(3,76,178);fill-rule:nonzero;"/>
            <path d="M430.06,326.73C436.74,326.82 443.36,328.43 450.07,328.48C457.16,328.96 464.63,328 471.59,329.41C472.96,332.66 472.27,336.19 473.77,339.26C475.2,342.17 477.02,344.76 478.16,347.84C479.98,352.68 480.78,358.07 481.32,363.2C482.24,374.48 483.51,385.71 484.28,397C484.66,405.32 484.49,413.67 484.53,422C484.69,432.98 483.14,444.07 481.56,454.93C480.14,464.51 477.02,473.68 475.65,483.27C480.13,483.4 484.61,483.49 489.09,483.52C481.06,483.93 473.05,484.37 465,484.2C455.06,484.11 445.1,484.41 435.16,484.01C434.86,482.08 434.58,480.11 434.15,478.2C431.44,464.87 429.22,451.28 427.27,437.81C437.01,434.6 447.7,433.01 457.92,434.11C463.44,434.69 467.46,437.64 471.74,440.86C471.69,436.76 471.93,432.51 471.29,428.46C470.37,423.4 466.73,419.86 463.55,416.09C464.97,412.44 466.64,409.03 466.65,405.03C466.72,399.71 465.14,394.07 463.93,388.9C460.89,393.63 458.32,398.25 454.13,402.13C449.4,406.68 443.48,409.03 437.54,411.52C432.97,413.43 428.26,414.91 423.44,416.05C421.99,406.85 420.15,397.27 420.3,388C420.35,383.89 420.27,379.71 421.53,375.76C423.1,370.53 426.32,366.05 428.94,361.2C422.79,362.16 417.01,363.41 411.59,366.61C408.63,368.44 406.27,371.53 403.97,374.12C400.16,372.59 396.29,370.71 392.08,370.9C386.4,371.23 381.31,372.96 375.99,374.82C380.09,377.18 384.69,379.56 387.89,383.1C391.34,386.93 393.74,391.65 395.57,396.43C398.69,404.65 401.06,413.11 402.07,421.86C396.11,423.25 390.12,424.52 384.04,425.29C377.25,426.11 371.13,427.35 364.31,425.68C358.65,424.4 354.39,421.41 349.39,418.69C349.5,424.26 349.97,429.53 352.4,434.63C354.05,438.08 357.08,440.7 359.77,443.33C358.47,447.35 356.64,451.76 356.49,455.99C356.31,460.87 357.91,465.55 359.42,470.12C364.38,464.65 367.43,458.87 374.12,455.13C384.07,449.61 395.07,445.15 406.41,443.65C407.37,450.79 408.61,457.92 409.29,465.1C409.7,471.32 410.26,477.53 410.95,483.73C400.63,484.47 390.33,484.14 380,484.2C370.03,484.14 360.1,484.47 350.15,483.75C347.68,475.33 343.06,468.46 339.45,460.56C335.23,451.85 332.3,442.78 329.49,433.54C326.13,421.3 323.35,409.18 322.21,396.5C347.43,379.96 372.54,363.25 397.8,346.77C400.01,345.47 402.55,343.72 405.14,343.43C408.91,343.38 412.83,344.68 416.51,345.47C423.32,347.11 429.89,347.34 436.85,348.13C445.43,349.07 454.03,348.35 462.62,349.27C466.47,360.05 470.36,370.74 472.64,382C472.68,376.03 472.67,370.09 471.93,364.15C471.04,355.67 470.46,347.21 468.72,338.85C459.54,338.59 450.24,339.03 441.07,338.58C432.89,338.08 424.87,336.81 416.84,335.19C420.65,332.04 425.15,327.85 430.06,326.73Z" style="fill:white;fill-rule:nonzero;"/>
            <path d="M117.7,334.19C117.64,334.92 117.59,335.65 117.53,336.38C114.85,337.55 112.65,338.88 110.39,340.74C111.87,342.02 113.13,343.52 114.55,344.86C112.77,344.46 110.98,344.1 109.23,343.56C107.67,346.24 106.18,347.71 103.59,349.4C103.6,351.11 103.62,352.83 103.63,354.54C101.89,355.19 100.14,355.81 98.4,356.45C98.34,358.43 98.3,360.41 98.22,362.39C96.71,363.08 94.5,363.33 93.61,364.82C91.82,367.5 90.63,370.63 89.76,373.72C89.08,375.86 90.28,378.46 90.67,380.6C89.05,379.99 87.45,379.3 85.86,378.6C83.14,382.04 80.16,385.24 77.05,388.33C88.43,388.03 99.29,392.71 107.18,400.82C110.69,404.5 112.7,408.81 114.72,413.39C108.73,408.44 103.16,403.37 96.12,399.86C88.8,395.98 80.52,394.97 72.35,396C78.78,399.59 85.59,401.62 91.25,406.59C84.8,406.78 77.63,406.77 71.33,408.42C67.63,409.37 64.53,411.35 61.49,413.57C65.68,413.54 69.81,413.2 74.01,413.38C79.41,413.55 84.67,414.92 89.91,416.13C85.36,417.81 80.79,419.28 76.48,421.47C67.7,425.99 60.13,432.84 55.92,441.89C53.24,447.31 52.8,452.88 50.86,458.53C49.86,455.04 49.3,451.62 49.48,447.98C49.45,441.33 52.47,435.23 54.54,428.98C50.96,430.75 47.49,432.69 44.05,434.71C44.48,430.09 45.35,425.54 45.63,420.9C42.68,424.41 40.14,428.19 38.4,432.45C35.86,438.34 35.32,444.17 33.98,450.4C30.78,444.89 30.41,438.36 32.49,432.38C36.01,423.31 40.02,415.04 48.23,409.3C53.88,405.08 59.81,404.24 63.86,398.89C60.75,398.69 57.64,398.68 54.53,398.6C61.69,390.34 69.2,382.58 77.78,375.78C81.32,373.07 83.4,370.25 85.21,366.2C89.13,357.7 94.52,349.75 100.98,342.98C105.56,338.13 110.8,334.46 117.7,334.19Z" style="fill:rgb(3,76,178);fill-rule:nonzero;"/>
            <path d="M121.75,338.48C123.47,338.33 125.18,338.29 126.9,338.26C126.42,339.57 125.92,340.86 125.42,342.16C124.11,341.02 122.86,339.82 121.75,338.48Z" style="fill:rgb(3,76,178);fill-rule:nonzero;"/>
            <path d="M120.92,341.81C119.44,342.27 117.94,342.69 116.44,343.1C116.52,341.81 116.63,340.52 116.77,339.24C119.17,339.88 120.26,338.81 120.92,341.81Z" style="fill:rgb(3,76,178);fill-rule:nonzero;"/>
            <path d="M215.28,339.19C220.47,337.72 227.73,339.22 230.83,343.97C232.39,347.49 233.04,352 231.43,355.63C229.41,360.62 224.24,363.36 219.01,363.4C214.33,363.13 210.1,360.12 208.25,355.82C205.48,349.45 208.57,341.4 215.28,339.19Z" style="fill:white;fill-rule:nonzero;"/>
            <path d="M146.53,340.67C158.95,353.27 164.64,371.98 170.31,388.27C170.64,382.93 170.63,377.54 170.21,372.2C169.3,364.7 167.69,357.37 167.25,349.76C176.82,353.61 186,358.16 195.91,361.18C202.96,363.25 206.33,369.56 213.16,371.82C218.79,373.72 224.22,372.77 229.67,370.83C233.22,369.36 237,372.24 239.73,374.26C244.98,378.62 246.89,387.02 247.77,393.48C241.14,397.58 234.65,401.95 227.96,405.93C226.24,407.03 224.6,406.83 222.75,406.22C214.94,403.51 208.76,397.78 201.52,394.04C201.71,403.02 204.13,411.91 204.33,420.82C201.06,424.26 196.56,426.71 192.41,428.97C188.23,417.8 185.42,406.18 181.57,394.92C180.66,398.58 180.41,402.24 180.46,406C180.55,413.47 180.32,420.64 181.12,428.03C181.45,431.23 180.89,434.26 180.47,437.41C178.93,437.18 177.39,436.93 175.86,436.67C175.17,430.19 174.33,423.72 173.52,417.26C170.83,416.15 167.72,415.31 165.37,413.56C164.78,411.73 164.66,409.92 164.51,408.01C164.2,399.96 161.82,391.8 160.35,383.8C157.44,368.76 151.98,354.9 146.53,340.67Z" style="fill:rgb(3,76,178);fill-rule:nonzero;"/>
            <path d="M125.83,343.46C128.07,343.34 130.36,344.46 132.42,345.23C129.64,346 126.86,346.6 124,346.96C124.58,345.78 125.16,344.58 125.83,343.46Z" style="fill:rgb(3,76,178);fill-rule:nonzero;"/>
            <path d="M119.34,345.6C120.11,345.77 120.87,345.96 121.63,346.17C122.66,349 123.78,351.75 125.01,354.5C121.89,355.49 118.81,356.52 115.82,357.84C115.52,356.69 115.23,355.55 114.94,354.41C116.97,354.54 118.98,354.73 121,354.89C120.72,351.73 119.99,348.7 119.34,345.6Z" style="fill:rgb(3,76,178);fill-rule:nonzero;"/>
            <path d="M213.37,346.37L214.33,346.22C214.37,348.23 214.39,350.24 214.44,352.25C217.6,354.39 221.05,355.91 224.39,357.7C220.78,358.34 216.02,360.31 213.56,356.4C212.92,353.17 213.38,349.66 213.37,346.37Z" style="fill:rgb(2,2,2);fill-rule:nonzero;"/>
            <path d="M280.95,346.51C277.73,348.47 274.6,350.46 271.15,352.03C265.07,354.88 258.56,355.58 252.02,357.71C261.85,362.85 273.34,362.39 283.94,360.38C283.8,361.5 283.66,362.61 283.51,363.72C278.88,366.09 274.35,368.19 269.06,368.54C258.78,369.51 249.4,366.7 240.07,362.73C240.36,357.64 241.32,352.64 241.66,347.55C254.88,350.12 268.1,351.58 280.95,346.51Z" style="fill:rgb(3,76,178);fill-rule:nonzero;"/>
            <path d="M116.59,347.13C116.57,348.24 116.54,349.34 116.52,350.44C115,350.48 113.49,350.51 111.97,350.54C112.23,349.6 112.5,348.67 112.79,347.74C114.05,347.5 115.32,347.32 116.59,347.13Z" style="fill:rgb(3,76,178);fill-rule:nonzero;"/>
            <path d="M134.18,348.63C134.55,349.51 134.89,350.4 135.24,351.29C132.27,351.94 129.33,352.72 126.35,353.35C126.4,352.44 126.46,351.52 126.51,350.61C129.1,350.07 131.64,349.39 134.18,348.63Z" style="fill:rgb(3,76,178);fill-rule:nonzero;"/>
            <path d="M315.93,348.4C309.58,353.61 303.37,358.52 295.43,361.11C295.35,358.28 295.32,355.46 295.32,352.63C302.15,350.82 308.84,348.88 315.93,348.4Z" style="fill:rgb(3,76,178);fill-rule:nonzero;"/>
            <path d="M109.36,349.4C109.54,350.65 109.73,351.9 109.92,353.15C108.54,352.76 107.15,352.39 105.76,352.05C107.33,351.46 108.26,350.66 109.36,349.4Z" style="fill:rgb(3,76,178);fill-rule:nonzero;"/>
            <path d="M138.29,354.13C138.43,355.46 138.55,356.78 138.65,358.11C137.18,357.66 135.72,357.26 134.32,356.67C133.8,354.34 136.79,354.63 138.29,354.13Z" style="fill:rgb(3,76,178);fill-rule:nonzero;"/>
            <path d="M111.21,355.7C111.84,356.76 112.47,357.82 113.09,358.88C111.11,358.73 109.13,358.54 107.15,358.32C108.58,357.53 109.9,356.68 111.21,355.7Z" style="fill:rgb(3,76,178);fill-rule:nonzero;"/>
            <path d="M129.62,355.08C131.19,356.21 132.8,357.26 134.48,358.23C132.7,358.51 130.92,358.77 129.14,359.05C129.3,357.72 129.46,356.4 129.62,355.08Z" style="fill:rgb(3,76,178);fill-rule:nonzero;"/>
            <path d="M105.41,357.5C105.57,358.65 105.72,359.81 105.87,360.97C104.42,360.78 102.97,360.58 101.51,360.37C102.7,359.08 103.84,358.27 105.41,357.5Z" style="fill:rgb(3,76,178);fill-rule:nonzero;"/>
            <path d="M123.2,357.92C124.41,357.78 125.63,357.71 126.86,357.69C126.48,359.52 126.76,360.87 124.91,361.89C123.57,360.75 123.43,359.56 123.2,357.92Z" style="fill:rgb(3,76,178);fill-rule:nonzero;"/>
            <path d="M121.81,360.06C120.41,361.58 119.23,363.36 117.17,363.97C115.02,364.61 112.66,364.67 110.44,364.9C110.48,364.05 110.51,363.19 110.54,362.34C114.32,361.66 118.02,360.66 121.81,360.06Z" style="fill:rgb(3,76,178);fill-rule:nonzero;"/>
            <path d="M138.8,360.48C139.45,360.54 140.1,360.6 140.74,360.68C140.57,361.48 140.39,362.28 140.22,363.08C137.19,363.23 134.46,364.13 131.6,365.03C131.51,363.99 131.42,362.94 131.35,361.89C133.89,361.63 136.32,361.03 138.8,360.48Z" style="fill:rgb(3,76,178);fill-rule:nonzero;"/>
            <path d="M428.94,361.2C426.32,366.05 423.1,370.53 421.53,375.76C420.27,379.71 420.35,383.89 420.3,388C420.15,397.27 421.99,406.85 423.44,416.05C428.26,414.91 432.97,413.43 437.54,411.52C443.48,409.03 449.4,406.68 454.13,402.13C458.32,398.25 460.89,393.63 463.93,388.9C465.14,394.07 466.72,399.71 466.65,405.03C466.64,409.03 464.97,412.44 463.55,416.09C466.73,419.86 470.37,423.4 471.29,428.46C471.93,432.51 471.69,436.76 471.74,440.86C467.46,437.64 463.44,434.69 457.92,434.11C447.7,433.01 437.01,434.6 427.27,437.81C429.22,451.28 431.44,464.87 434.15,478.2C434.45,480.01 434.66,481.83 434.9,483.64C426.92,483.84 418.93,483.55 410.95,483.73C410.26,477.53 409.7,471.32 409.29,465.1C408.61,457.92 407.37,450.79 406.41,443.65C395.07,445.15 384.07,449.61 374.12,455.13C367.43,458.87 364.38,464.65 359.42,470.12C357.91,465.55 356.31,460.87 356.49,455.99C356.64,451.76 358.47,447.35 359.77,443.33C357.08,440.7 354.05,438.08 352.4,434.63C349.97,429.53 349.5,424.26 349.39,418.69C354.39,421.41 358.65,424.4 364.31,425.68C371.13,427.35 377.25,426.11 384.04,425.29C390.12,424.52 396.11,423.25 402.07,421.86C401.06,413.11 398.69,404.65 395.57,396.43C393.74,391.65 391.34,386.93 387.89,383.1C384.69,379.56 380.09,377.18 375.99,374.82C381.31,372.96 386.4,371.23 392.08,370.9C396.29,370.71 400.16,372.59 403.97,374.12C406.27,371.53 408.63,368.44 411.59,366.61C417.01,363.41 422.79,362.16 428.94,361.2Z" style="fill:rgb(2,2,2);fill-rule:nonzero;"/>
            <path d="M125.54,362.94C128.36,363.04 128.9,364.4 130.38,366.46C128.68,366.96 126.98,367.44 125.28,367.9C125.34,366.24 125.38,364.6 125.54,362.94Z" style="fill:rgb(3,76,178);fill-rule:nonzero;"/>
            <path d="M107.42,363.68C107.39,364.84 107.36,366 107.33,367.16C104.63,367.43 102.05,368.39 99.36,368.62C98.48,368.11 97.61,367.59 96.75,367.04C100.33,365.98 103.88,364.88 107.42,363.68Z" style="fill:rgb(3,76,178);fill-rule:nonzero;"/>
            <path d="M121.71,365.24C122.19,366.51 122.7,367.77 123.22,369.02C121.93,368.54 120.68,368.13 119.48,367.45C118.89,365.71 120.6,365.92 121.71,365.24Z" style="fill:rgb(3,76,178);fill-rule:nonzero;"/>
            <path d="M136.52,367.21C136.53,368.34 136.55,369.46 136.56,370.59C135.8,370.57 135.05,370.55 134.3,370.52C133.91,369.64 133.54,368.75 133.16,367.86C134.28,367.64 135.4,367.42 136.52,367.21Z" style="fill:rgb(3,76,178);fill-rule:nonzero;"/>
            <path d="M93.89,368.3C95.25,370.64 96.61,372.97 98.12,375.22C96.71,375.82 95.31,376.42 93.89,376.98C93.69,374.54 93.37,372.13 93.36,369.72L93.89,368.3Z" style="fill:rgb(3,76,178);fill-rule:nonzero;"/>
            <path d="M106.67,370.1C108.24,370.3 109.81,370.59 111.37,370.85C109.66,371.71 108.05,372.7 106.24,373.36C106.37,372.27 106.51,371.18 106.67,370.1Z" style="fill:rgb(3,76,178);fill-rule:nonzero;"/>
            <path d="M132.04,370.12C131.14,371.16 130.23,372.19 129.31,373.2C128.5,372.35 127.69,371.5 126.88,370.64C128.59,370.44 130.31,370.27 132.04,370.12Z" style="fill:rgb(3,76,178);fill-rule:nonzero;"/>
            <path d="M99.25,372.56C100.54,372.41 101.83,372.31 103.12,372.25C102.34,373.44 101.62,374.65 101.02,375.94C99.71,374.92 99.49,374.14 99.25,372.56Z" style="fill:rgb(3,76,178);fill-rule:nonzero;"/>
            <path d="M135.14,373.61C136.3,373.31 137.46,373.03 138.63,372.78C138.61,374.41 138.57,376.05 138.5,377.68C136.69,376.53 135.48,375.9 135.14,373.61Z" style="fill:rgb(3,76,178);fill-rule:nonzero;"/>
            <path d="M124.81,374.79C127.33,375.41 130.28,375.55 132.59,376.72C134.8,378.41 137.33,380.04 139.08,382.21C140.23,385.98 140.41,389.77 140.3,393.69C136.95,390.21 134.51,386.16 131.68,382.29C129.67,379.49 127.19,377.24 124.81,374.79Z" style="fill:rgb(3,76,178);fill-rule:nonzero;"/>
            <path d="M110.43,375C110.61,376.2 110.76,377.41 110.88,378.61C109.52,378.7 108.15,378.75 106.79,378.77C107.97,377.49 109.2,376.24 110.43,375Z" style="fill:rgb(3,76,178);fill-rule:nonzero;"/>
            <path d="M105.39,376.52C105.39,377.85 105.38,379.17 105.37,380.49C104.13,380.52 102.88,380.55 101.64,380.58C102.51,378.06 102.89,377.5 105.39,376.52Z" style="fill:rgb(3,76,178);fill-rule:nonzero;"/>
            <path d="M97.07,380.35C98.27,380.55 99.38,381.41 100.44,381.99C96.56,383 92.95,384.19 89.36,386C89.34,385.02 89.32,384.04 89.3,383.06C91.78,382.05 94.4,380.67 97.07,380.35Z" style="fill:rgb(3,76,178);fill-rule:nonzero;"/>
            <path d="M119.48,379.28C119.51,380.45 119.53,381.63 119.56,382.81C118.25,382.72 116.93,382.64 115.62,382.56C116.66,380.84 117.72,380.14 119.48,379.28Z" style="fill:rgb(3,76,178);fill-rule:nonzero;"/>
            <path d="M109.89,381.85C111.1,381.49 112.37,381.31 113.6,381.08C113.55,382.21 113.5,383.35 113.45,384.48C111.94,384.5 110.42,384.51 108.9,384.51C109.2,383.61 109.53,382.72 109.89,381.85Z" style="fill:rgb(3,76,178);fill-rule:nonzero;"/>
            <path d="M106.61,384.44C107.86,386.63 108.43,389.12 108.99,391.56C106.39,389.58 104.56,387.18 102.87,384.41C104.11,384.38 105.38,384.33 106.61,384.44Z" style="fill:rgb(3,76,178);fill-rule:nonzero;"/>
            <path d="M82.48,385.15C83.8,383.66 85.51,385.34 84.7,386.91C83.39,388.39 81.65,386.72 82.48,385.15Z" style="fill:rgb(3,76,178);fill-rule:nonzero;"/>
            <path d="M99.92,384.27C100.76,385.42 101.55,386.61 102.32,387.8C100.97,387.76 99.62,387.66 98.27,387.52C96.63,385.39 98.6,385.59 99.92,384.27Z" style="fill:rgb(3,76,178);fill-rule:nonzero;"/>
            <path d="M121.62,385.97C121.44,387.15 121.23,388.32 121.01,389.49C119.9,389.47 118.8,389.45 117.69,389.44C117.7,388.44 117.68,387.43 117.79,386.44C118.49,384.91 120.37,385.86 121.62,385.97Z" style="fill:rgb(3,76,178);fill-rule:nonzero;"/>
            <path d="M114,386.91C115.03,389.95 116.14,392.8 117.71,395.61C116.43,395.64 115.15,395.66 113.87,395.68C113.5,393.2 112.76,390.83 112.16,388.4C112.77,387.89 113.38,387.4 114,386.91Z" style="fill:rgb(3,76,178);fill-rule:nonzero;"/>
            <path d="M120.37,391.2C122.8,391.27 122.52,392.84 123.45,394.62C121.86,394.6 120.28,394.56 118.69,394.5C119.2,393.36 119.62,392.22 120.37,391.2Z" style="fill:rgb(3,76,178);fill-rule:nonzero;"/>
            <path d="M123.44,398.05C123.53,399.08 123.63,400.11 123.73,401.14C122.16,400.49 120.58,399.84 119.01,399.18C120.48,398.78 121.96,398.43 123.44,398.05Z" style="fill:rgb(3,76,178);fill-rule:nonzero;"/>
            <path d="M311.93,403.61L312.54,404.31C314.34,410.63 315.07,417.25 316.56,423.66C321.5,445.03 328.89,465.4 341.05,483.77C334.91,484.3 328.9,483.99 322.76,483.63C324.24,483.43 325.71,483.21 327.17,482.97C325.87,479.33 324.38,475.78 322.73,472.29C318.59,463.45 314.78,454.59 311.74,445.31C308.02,433.78 305.43,421.77 302.32,410.04C305.3,407.55 308.39,405.26 311.93,403.61Z" style="fill:white;fill-rule:nonzero;"/>
            <path d="M101.02,424.39C104.4,424.11 106.47,426.12 108.88,428.11C114.88,433.68 121.18,438.91 127.05,444.64C119.64,447.02 112.79,448.37 106.83,453.82C100.39,459.29 97.85,466.22 93.55,473.18C92.85,466.61 94.53,460.92 96.83,454.89C94.53,455.76 92.25,456.7 89.98,457.65C85.07,454.36 80,451.32 75.05,448.09C76.24,445.26 77.43,442.42 78.52,439.55C71.01,444.3 67.91,451.47 64.36,459.2C64.33,455.13 64.01,451.36 65.5,447.47C67.47,442.34 70.99,437.72 74.95,433.95C81.54,427.47 92.08,424.97 101.02,424.39Z" style="fill:rgb(3,76,178);fill-rule:nonzero;"/>
            <path d="M163.31,425.16C164.45,433.3 166.05,441.53 170.34,448.68C173.09,453.26 177.71,456.08 180.56,460.41C183.04,464.57 183.55,469.77 185.99,474.04C187.97,477.49 190.87,480.48 193.24,483.68C189.05,483.79 184.89,483.76 180.71,483.53C179.28,478.87 176.5,475.18 173.85,471.17C168.93,463.56 164.27,455.84 160.34,447.67C157.07,440.63 153.81,433.96 153.09,426.09C156.49,425.69 159.9,425.41 163.31,425.16Z" style="fill:white;fill-rule:nonzero;"/>
            <path d="M274.41,435.25C277.2,435.93 280.65,436.27 283.07,437.91C286.26,444.3 284.31,453.21 287.08,459.87C288.73,464.08 291.09,468.47 294.49,471.52C298.1,474.78 303.53,475.45 307.37,477.67C309.49,479.15 311.02,481.67 312.54,483.72C302.06,484.32 291.58,484.52 281.1,483.7C280.31,476.52 277.72,469.95 276.4,462.85C274.46,453.72 273.87,444.57 274.41,435.25Z" style="fill:rgb(3,76,178);fill-rule:nonzero;"/>
            <path d="M249.52,444.74C248.92,453.86 247.13,462.8 244.68,471.59C243.51,475.59 243.17,479.67 243.06,483.81C236.24,484.42 229.51,483.97 222.68,483.84C223.98,483.34 225.25,482.8 226.52,482.26C223.75,476.49 220.55,471.08 217.01,465.76C223.63,460.65 230.7,456.34 237.57,451.56C241.37,448.92 245.28,446.6 249.52,444.74Z" style="fill:rgb(3,76,178);fill-rule:nonzero;"/>
            <path d="M130.01,450.85C137.84,450.58 144.75,454.09 151.37,457.83C144.11,462.32 136.59,465.46 129.97,470.96C125.4,474.37 121.52,478.19 118.66,483.17C122.56,483.22 126.51,484.46 129.77,481.79C137.06,476.46 144.5,469.42 153.11,466.07C154.72,465.53 157.51,464.53 158.78,466.17C162.97,470.95 165.34,477.66 169.84,482.23C171.43,484.16 175.17,483.31 177.43,483.53C168.26,484.6 159.19,484.04 150,483.93C138.48,484.47 126.91,483.92 115.37,483.68C113.12,478.81 109.04,476.51 104.83,473.59C105.95,469.72 107.28,466.07 110.02,463.02C115.06,457.19 122.01,451.44 130.01,450.85Z" style="fill:rgb(3,76,178);fill-rule:nonzero;"/>
            <path d="M216.36,466.23C218.08,472.2 219.24,478.2 221.75,483.92C216.38,484.5 211.14,483.9 205.78,483.61C206.88,483.46 207.97,483.3 209.07,483.13C206.93,480.57 204.66,478.14 202.38,475.71C206.68,471.84 211.2,468.86 216.36,466.23Z" style="fill:rgb(3,76,178);fill-rule:nonzero;"/>
            <path d="M149.39,477.06L151.02,476.89C152.86,478.54 154.05,481.07 155.24,483.2C153.43,483.21 151.63,483.2 149.82,483.18C149.6,481.12 149.37,479.13 149.39,477.06Z" style="fill:rgb(2,2,2);fill-rule:nonzero;"/>
        </g>
    </g>
</svg>
