<?xml version="1.0" encoding="UTF-8" standalone="no"?>
<!DOCTYPE svg PUBLIC "-//W3C//DTD SVG 1.1//EN" "http://www.w3.org/Graphics/SVG/1.1/DTD/svg11.dtd">
<svg width="100%" height="100%" viewBox="0 0 842 756" version="1.1" xmlns="http://www.w3.org/2000/svg" xmlns:xlink="http://www.w3.org/1999/xlink" xml:space="preserve" xmlns:serif="http://www.serif.com/" style="fill-rule:evenodd;clip-rule:evenodd;stroke-linejoin:round;stroke-miterlimit:2;">
    <g transform="matrix(1,0,0,1,-91.377338,-134.08)">
        <g>
            <path d="M342.03,134.08C365.71,134.57 388.74,144.08 406.87,159.14C414.72,165.01 421.22,172.04 427.51,179.52C428.42,180.55 429.37,181.7 430.51,182.47C433.44,182.84 436.66,182.08 439.55,181.54C448.3,179.7 457.12,178.18 465.97,176.86C475.63,175.39 485.25,174.91 494.96,173.88C508.08,173.12 521.5,174.03 534.53,175.65C545.06,176.97 554.72,180.08 564.96,183.11C574.33,185.83 583.17,190.66 593.08,190.78C603.34,189.82 613.76,190.03 624.03,190.79C625.55,190.78 626.89,191.24 628.14,190.13C632.29,186.61 636.05,182.68 640.4,179.38C648.1,173.38 656.21,167.22 665.14,163.15C674.62,158.37 685.36,155.49 696.01,155.58C705.13,155.73 714.13,159.24 721.51,164.48C728.43,169.3 735.05,175.22 739.73,182.28C745.13,190.3 749.18,199.07 751.42,208.5C755.44,223.88 754.34,239.19 752.17,254.74C755.46,257.47 758.67,260.31 761.99,263.01C771.78,270.74 780.68,279.72 789.9,288.12C796.37,293.95 802.36,300.35 808.28,306.73C814.77,314.21 819.11,323.98 822.97,333.02C824.37,336.32 826.15,340.14 825.85,343.8C825.16,352.27 820.99,359.33 820.65,367.96C820.63,370.93 820.74,374.34 821.97,377.09C824.89,379.26 828.42,380.69 831.65,382.35C849.3,390.94 866.7,400.02 884.33,408.67C897.42,415.3 910.29,418.86 922.27,427.73C927.83,431.83 931.35,438.57 932.6,445.27C934.38,453.53 932.85,462.32 930.33,470.27C928.95,474.72 926.15,478.63 924.88,483.07C924.55,489.37 925.24,495.71 924.82,502.03C923.96,517.85 918.72,532.46 911.36,546.35C908.22,552.54 904.5,558.66 898.57,562.56C895.32,564.8 890.89,566.39 889.34,570.33C886.74,576.07 884.59,581.91 881.41,587.4C872.44,603.54 858.89,616.95 842.19,624.98C842.1,618.34 842.93,611.77 842.53,605.13C842.26,599.52 842.31,593.89 842.12,588.28C832.04,588.19 821.53,588.39 811.71,590.77C801.17,593.55 794.54,604.35 788.84,612.84C782.02,622.29 776.52,632.43 773.99,643.89C771.53,652.85 771.36,662.21 772.7,671.37C775.69,685.77 782.59,697.15 789.8,709.67C794.77,704.68 800.05,700.02 804.94,694.94C807.85,692.08 810.65,689.11 813.74,686.44C815.75,697.16 816.63,708.14 816.15,719.05C815.88,725.06 814.62,731.04 812.7,736.73C810.68,742.49 807.12,747.75 807.13,753.99C806.69,762.03 808.93,768.82 806.18,776.2C803.3,783.35 797.61,789.8 792.25,795.25C782.89,804.7 772.17,812.66 759.89,817.89C748.47,822.61 736.36,824.86 724,824.31C707.99,823.71 692.98,820.04 677.77,815.29C671.54,813.34 664.27,811.8 658.83,808.17C655.93,806.34 653.88,803.9 651.65,801.36C648.5,797.69 645.18,794.16 641.9,790.6C627.65,792.8 615.43,799.11 602.97,805.97C585.39,816.13 569.94,830.45 557.04,846.04C551.72,853.15 546.6,860.51 542.25,868.26C538.54,875.3 535.17,882.49 532.01,889.78L531.12,889.53C519.07,877.04 506.48,865.07 494.49,852.52C486.33,843.35 477.93,834.29 470.46,824.54C464.73,817.25 458.83,810.11 453.64,802.41C448.01,794.29 442.18,786.38 437.16,777.85C433.91,772.11 429.9,767.45 427.96,761.02C434.25,762.66 439.2,766.22 444.91,769.12C450.93,772.22 456.41,775.94 462.87,778.17C458.91,769.61 452.11,762.13 446.17,754.87C439.46,746.54 431.66,739.41 424.38,731.6C408.46,715.98 391.27,702.1 375.87,686.14C371.23,681.39 366.48,676.86 362.29,671.69C354.61,662.23 346.91,652.9 340.31,642.72C334.8,633.99 329.85,624.94 325.42,615.62C323.67,611.87 321.69,608.33 319.36,604.91C317.55,617.28 319.33,629.04 318.45,641.29C316.46,639.28 314.67,637.17 313.38,634.62C307.97,624.15 303.15,613.37 298.66,602.47C291.66,584.05 284.92,564.41 282.34,544.82C281.31,537.97 280.29,531.14 279.87,524.22C279.64,520.2 279.11,516.34 278.18,512.42C270.5,518.33 265.12,525.78 258.85,533.02C257.68,516.6 258.54,499.92 260.93,483.64C263.19,470.95 265.76,457.95 269.88,445.72C273.98,433.54 278.69,421.56 283.96,409.84C287.55,402.57 291.79,395.66 295.28,388.33C295.76,387.91 296.23,387.5 296.71,387.1C292.72,403.78 288.51,419.75 286.71,436.92C285.83,448.06 285.48,459.1 286.9,470.21C292.16,465.78 295.61,460.24 300.21,455.2C310.98,442.73 322.66,431.14 335.29,420.55C334.54,423.24 333.75,425.86 332.3,428.28C326.66,437.9 321.61,448.01 317.15,458.24C313.32,467.96 311.31,478.52 309.59,488.8C308.43,495.47 308.11,502.07 308.46,508.83C317.13,500.37 323.26,489.46 332.37,481.73C334.68,488.19 333.2,494.99 333.25,501.96C332.95,522.68 336.06,543.69 342.65,563.35C347.35,576.13 352.47,589.03 359.05,600.97C362.7,606.95 365.57,612.69 370.91,617.34C371.81,613.41 372.33,609.44 372.66,605.43C373.52,595.72 375.96,586.79 378.33,577.39C379.09,574.35 380.29,571.5 381.74,568.72C385.02,577.86 386.12,587.65 389.05,596.93C399.53,630.44 418.72,662.23 444.87,685.81C444.49,678.12 442.56,670.71 441.83,663.06C441.27,658.05 441.21,653.06 441.2,648.03C444.25,650.92 447.04,654.04 449.79,657.22C458.71,667.05 469.27,674.69 480.7,681.33C496.57,691.63 513.38,697.73 530.79,706.19C548.01,713.95 565.06,722.3 581.56,731.5C590.26,736.33 598.78,742 607.85,745.85C603.75,735 598.59,724.82 593.64,714.37C590.84,708.63 587.79,703.17 586.14,696.95C589.44,698.89 592.48,701.09 595.29,703.7C612.44,719.21 627.87,736.74 641.89,755.11C646.84,761.21 651.83,767.24 656.24,773.75C659.1,777.8 661.62,782.38 665.02,785.99C668.46,789.67 674.12,791.38 678.68,793.3C690.08,798.01 701.51,801.91 713.82,803.37C726.47,805.04 738.76,805.74 750.86,800.88C761.64,796.4 772.63,790.2 780.67,781.62C782.87,779.35 784.51,776.71 786.04,773.97C778.98,774.7 772.43,777.33 765.42,778.3C759.91,779.07 754.31,779.47 748.75,779.35C739.7,778.31 730.73,775.3 721.93,772.97C714.06,770.89 706.55,767.63 699.62,763.37C686.36,754.77 675.62,742.83 667.96,729.05C661.96,718.67 657.6,707.34 652.53,696.47C644.99,677.41 636.47,658.7 629.63,639.38C625.98,628.89 621.54,618.71 617.73,608.29C616.86,605.64 615.6,602.45 616.74,599.72C618,596.56 619.99,593.63 621.77,590.74C627.83,581.44 633.42,571.84 639.95,562.93C647.85,552.13 656.1,541.07 665.61,531.62C672.02,525.55 679.29,519.02 688.15,517.12C696.29,515.39 705.12,516.41 712.94,519.12C721.16,521.78 727.62,525.96 736.22,526.84C735.4,527.11 734.59,527.39 733.78,527.69C746.56,533.69 760.99,535.9 775,536.25C784.87,536.24 794.76,535.44 804.59,534.62C820.76,533.47 836.95,531.92 853.06,530.21C859.18,529.62 861.48,525.03 864.43,520.4C865.87,517.8 867.92,514.4 867.62,511.34C866.83,509.43 865.05,507.82 863.54,506.46C856.21,500.29 848.36,494.92 840.5,489.48C832.79,483.5 824.27,477.09 819.66,468.33C814,457.89 812.23,445.53 813.6,433.8C821.76,424.91 831.6,417.91 843.16,414.18C846.99,412.98 851,412.18 854.93,411.3C845.67,405.86 835.92,401.22 826.11,396.86C810.95,389.79 795.53,383.01 779.83,377.24C776.03,375.88 772.44,374.09 768.79,372.41C766.14,358.36 758.98,346.66 760.38,331.83C767.62,339.08 768.5,349.16 775.94,356.04C778.23,358.19 780.97,360.74 784.04,361.62C786.35,361.73 787.82,359.89 789.07,358.22C791.3,355.04 793.22,351.65 795.5,348.5C797.66,345.32 800.31,342.15 801.82,338.61C802.74,336.76 801.65,334.88 800.98,333.13C797.75,326.4 793.37,320.17 788.41,314.6C779.3,304.76 768.59,296.37 758.94,287.06C754.53,282.74 749.52,279.17 745,274.99C736.67,266.96 727.15,260.06 718.03,252.95C705.67,244.15 693.61,235.29 679.79,229.14C668.47,224.04 656.53,218.96 644.34,216.44C638.13,215.05 632.09,213.56 625.66,213.77C630.83,221.18 637.82,225.62 644.1,231.9C647.77,235.56 651.31,239.35 655.04,242.96C660.18,247.85 664.52,253.44 669.72,258.27C670.42,259.58 671.06,260.91 671.71,262.26C665.6,259.59 660.54,255.63 655.04,251.96C646.21,245.99 637.88,239.6 628.52,234.43C616.24,227.77 604.34,220.79 591.26,215.75C569.59,206.78 548.56,199.05 525,196.78C503.69,195.06 483.62,199.05 462.75,202.75C455.24,204.23 447.7,205.31 440.27,207.17C439.91,216.82 441.91,226.47 440.7,236.02C436.67,230.73 433.44,224.92 429.32,219.68C424.37,213.34 419.94,206.35 414.43,200.57C405.19,190.9 395,181.55 383.83,174.15C375.5,169 366.11,164.78 356.66,162.21C346.63,159.51 336.94,160.81 326.97,162.98C315.98,165.57 305.52,169.68 296.32,176.33C289.73,181.15 283,186.47 277.76,192.77C266.7,205.66 259.9,222.2 257.96,239.02C256.45,255.82 259.51,272.53 265.91,288.08C273.35,307.43 284.35,323.93 296.27,340.74C301.28,347.75 306.68,353.25 310.2,361.1C307.66,361.61 305.34,362.1 302.81,361.19C293.68,358.17 285.07,352.32 277.44,346.55C272.78,342.9 267.79,339.19 263.8,334.82C259.92,330.34 256.71,325.59 251.99,321.87C247.97,324.91 244.78,328.76 240.64,331.67C231.47,337.9 223.52,346.75 215.52,354.52C209.84,360.29 203.35,364.83 198.13,371.07C194.01,376.13 189.18,380.01 186.01,385.8C191.69,385.92 197.34,385.56 203.02,385.42C199.51,392.16 194.03,396.57 189.23,402.28C182.81,409.6 177.52,417.77 171.02,425.02C163.23,433.8 157.33,443.94 149.96,452.98C145.75,457.98 142.56,463.56 138.74,468.82C133.49,475.94 128.76,483.41 123.41,490.46C119.21,496.04 115.95,502.21 111.8,507.83C107.32,513.86 104.3,520.72 99.62,526.62C95.91,531.35 92.96,536.44 91.67,542.38C91.06,539.77 91.45,537.78 92.41,535.33C96.73,523.85 102.16,512.51 107.48,501.48C119.09,477.08 132.39,453.44 146.3,430.29C152.02,421.19 158.07,412.3 163.85,403.23C158.34,403.69 152.86,404.18 147.33,404.32C155.44,390.95 165.01,378.8 174.21,366.21C185.17,351.85 196.25,337.8 208.48,324.48C214.82,317.81 221.08,311.08 227.25,304.24C230.29,300.79 234.17,297.78 236.73,293.97C234.98,287.41 232.57,281.09 231.51,274.33C229.7,265.59 229.46,256.87 229.25,247.97C229.01,237.43 231.38,227.34 234.28,217.28C237.88,205.2 243.68,194.14 250.73,183.74C257.51,173.53 266.05,164.18 275.98,156.98C294.85,143.16 318.51,134.15 342.03,134.08Z" style="fill:rgb(1,1,1);fill-rule:nonzero;"/>
            <path d="M356.66,162.21C366.11,164.78 375.5,169 383.83,174.15C395,181.55 405.19,190.9 414.43,200.57C419.94,206.35 424.37,213.34 429.32,219.68C433.44,224.92 436.67,230.73 440.7,236.02C441.91,226.47 439.91,216.82 440.27,207.17C447.7,205.31 455.24,204.23 462.75,202.75C483.62,199.05 503.69,195.06 525,196.78C548.56,199.05 569.59,206.78 591.26,215.75C604.34,220.79 616.24,227.77 628.52,234.43C637.88,239.6 646.21,245.99 655.04,251.96C660.54,255.63 665.6,259.59 671.71,262.26C671.06,260.91 670.42,259.58 669.72,258.27C665.83,250.37 659.92,243.41 653.07,237.93C647.9,233.76 643.05,229.31 638.6,224.38C636.84,222.48 635.72,220.23 634.6,217.92C642.1,217.1 648.6,219.28 655.76,221.05C662.18,222.73 667.22,226.1 673.17,228.84C678.12,231.26 683.1,233.57 688.19,235.67C692.33,237.37 695.85,239.94 699.4,242.6C704.42,246.38 710.03,249.11 715,252.94C717.47,254.82 719.74,256.89 722.09,258.92C728.43,264.51 735.84,268.11 741.74,274.28C746.46,279.3 752.1,283.2 756.99,288.02C759.87,290.82 762.99,293.32 766.09,295.86C775.25,303.48 782.98,312.32 790.75,321.3C794.43,325.56 799.57,331.14 800.14,336.94C799.16,339.87 796.63,342.39 794.32,344.35C791.56,346.61 787.91,348.77 784.21,347.92C780.41,347.04 777.38,343.95 774.97,341.06C767.75,332.13 760.93,321.27 751.17,314.98C753,326.2 754.53,336.77 752.06,348.09C751.59,349.97 750.33,351.09 749.23,352.62C745.93,350.58 742.75,348.79 739.92,346.08C736.71,343.05 734.44,339.5 732.29,335.68C728.47,327.26 722.82,319.54 716.57,312.75C720.42,325.94 723.48,339.02 722.01,352.92C721.39,356.48 720.57,361.36 717.91,363.97C713.3,365.97 707.37,365.47 702.57,364.4C691.26,361.68 682.5,355.46 673.3,348.72C661.74,340.53 651.93,331.8 639.74,325.26C630.32,320.11 619.78,316.72 609.04,315.99C602.39,315.39 596.03,316 589.41,316.54C585.12,316.9 581.03,318.07 577.01,319.54C590.71,323.96 603.87,326.72 615.79,335.58C604.36,338.53 592.9,341.02 581.63,344.62C569.8,348.18 558.67,353.13 547.66,358.66C540.85,361.92 534.16,365.31 528,369.71C534.36,369.8 540.64,369.59 546.96,368.97C556.31,368.31 565.83,368.33 575.11,369.71C576.77,370.11 578.5,369.99 579.44,371.63C582.49,376.69 584.3,382.4 587.7,387.32C595.13,398.28 605.23,407.84 618.15,411.77C627.05,414.66 635.21,413.51 644.33,413.59C641.98,416.84 639.34,419.69 636.38,422.38C624.53,433.94 610.58,443.68 596.9,452.93C588.01,458.46 578.85,463.6 569.73,468.74C560.83,473.76 550.77,477.43 542.82,483.54C552.51,482.87 561.8,480.63 571.16,478.13C584.4,474.92 597.84,470.92 610.22,465.17C614.64,462.94 619.03,460.85 623.89,459.76C620,470.87 614.83,481.53 610.51,492.48C607.45,500.84 604.79,509.36 601.83,517.75C597.54,529.81 594.26,542.29 590.65,554.62C587.09,566.5 585.14,578.7 582.04,590.7C582.93,589.47 583.81,588.23 584.71,587C588.17,583.34 590.89,579.52 592.97,574.92C596.25,567.9 599.55,560.91 603.08,554.02C606.97,546.34 612.01,539.45 615.52,531.56C618.57,524.78 622.03,518.28 626.11,512.06C630.21,505.83 632.76,498.95 636.49,492.53C638.38,489.15 640.63,486.03 642.8,482.84C646.17,477.9 648.22,472.53 651.17,467.17C655.57,458.73 660.76,450.81 665.68,442.67C668.59,437.7 671.98,433.09 675.44,428.5C681.93,419.22 690.86,410.91 701.26,406.26C709.07,402.71 717.88,402.02 726.23,403.83C743.71,408.03 760.97,413.37 777.46,420.58C779.94,421.64 782.38,421.44 784.99,421.35L783.97,420.08C783.52,419.52 783.08,418.96 782.63,418.4C778.86,412.89 771.96,409.27 766.42,405.68C761.12,402.8 756.51,398.85 751.16,396.08C743.13,392.31 735.28,388.12 727.56,383.76C730.51,380.81 733.95,378.63 737.4,376.34C741.56,373.55 744.51,369.97 749.84,369.58C756.15,369.17 762.73,370.78 768.79,372.41C772.44,374.09 776.03,375.88 779.83,377.24C795.53,383.01 810.95,389.79 826.11,396.86C835.92,401.22 845.67,405.86 854.93,411.3C851,412.18 846.99,412.98 843.16,414.18C831.6,417.91 821.76,424.91 813.6,433.8C808.04,439.72 806.44,447.74 805.53,455.54C804.67,463.24 805.59,470.97 809.01,477.97C812.52,485.75 818.8,491.32 825.03,496.96C828.82,500.44 833.82,502.1 837.65,505.41C840.12,508.54 838.54,514.19 835.28,516.29C831.4,519.09 826.19,520.43 821.62,521.66C810.85,524.32 799.91,526.31 788.95,527.98C774.51,530.01 759.66,529.94 745.25,527.78C742.25,527.35 739.24,527.02 736.22,526.84C727.62,525.96 721.16,521.78 712.94,519.12C705.12,516.41 696.29,515.39 688.15,517.12C679.29,519.02 672.02,525.55 665.61,531.62C656.1,541.07 647.85,552.13 639.95,562.93C633.42,571.84 627.83,581.44 621.77,590.74C619.99,593.63 618,596.56 616.74,599.72C615.6,602.45 616.86,605.64 617.73,608.29C621.54,618.71 625.98,628.89 629.63,639.38C636.47,658.7 644.99,677.41 652.53,696.47C657.6,707.34 661.96,718.67 667.96,729.05C675.62,742.83 686.36,754.77 699.62,763.37C706.55,767.63 714.06,770.89 721.93,772.97C730.73,775.3 739.7,778.31 748.75,779.35C751.44,779.66 754.13,779.98 756.83,780.3C749.14,785.45 740.9,789.4 731.61,790.55C719.81,792.15 707.32,790.56 696.51,785.47C688.15,781.63 679.18,777.77 671.97,772.02C666.6,767.81 662.74,762.26 657.75,757.25C651.4,750.83 645.53,744.15 640.06,736.96C633.57,728.43 626,721.11 618.86,713.13C611.75,705.76 604.51,697.77 596.28,691.71C591.69,688.26 586.99,684.93 582.1,681.92C571.55,675.58 560.86,669.48 549.65,664.35C540.34,659.86 531.15,656.98 522.31,651.72C516.73,648.39 511.35,644.72 506.04,640.98C500.65,637.27 496.57,632.27 490.9,628.93C492.11,632.63 493.64,635.95 495.71,639.25C499.85,645.97 503.29,652.83 508.12,658.87C515.37,667.58 522.82,675.99 530.83,684.01C514.23,679.82 502.25,670.14 488.82,660.2C482.12,655.04 476.35,648.59 470.38,642.62C458.73,630.63 449.98,616.8 441.46,602.52C434.94,591.61 431.24,579.07 426.26,567.96C424.16,575.15 422.75,582.63 422.34,590.12C421.79,601.2 423.95,611.88 423.81,622.96C419.58,617.63 416.33,611.74 413.39,605.63C410.03,598.57 406.36,591.65 403.53,584.44C400.22,576.18 397.77,567.33 395.29,558.76C392.17,547.98 391.14,537.42 389.58,526.3C388.07,514.82 388.39,503.38 387.84,491.86C379.87,499.65 376.72,509.52 372.57,519.54C369.93,525.66 368.49,532.16 365.85,538.28C364.04,534.76 362.6,531.13 361.68,527.27C357.23,509.44 354.21,491.42 355.06,472.99C355.23,463.9 356.39,454.94 357.54,445.94C351.05,449.09 345.68,453.59 340.23,458.24C333.09,464.41 328.64,472.18 321.98,478.88C322.27,472.27 323.41,465.83 325.62,459.58C329.88,447.94 334.58,436.75 341.33,426.29C346.49,418.52 353.08,411.73 357.97,403.8C349.64,407.87 341.2,413.32 335.29,420.55C322.66,431.14 310.98,442.73 300.21,455.2C295.61,460.24 292.16,465.78 286.9,470.21C285.48,459.1 285.83,448.06 286.71,436.92C288.51,419.75 292.72,403.78 296.71,387.1C296.23,387.5 295.76,387.91 295.28,388.33C289.83,392.29 286.88,399.66 283.66,405.45C279.46,415.66 275.14,425.83 271.16,436.13C269.59,439.96 267.98,443.72 266.89,447.72C261.43,469.76 256.64,491.15 256.37,514C256.48,521.29 255.61,527.95 257.99,535C260.95,533.34 263.71,531.57 265.77,528.81C269.08,525 270.73,520.76 276.02,519.39C276.46,524.28 276.37,529.14 275.9,534.03C275.1,542.69 275.26,551.33 274.96,560C274.36,571.87 275.86,584.04 277.28,595.83C281.13,623.57 290,650.34 302.78,675.22C307.86,683.98 312.85,693.68 319.83,700.96C319.61,691.69 318.18,683.19 319.84,673.9C320.49,669.31 322.16,665.13 324.43,661.12C326.88,665.94 328.85,670.71 331.89,675.1C345.61,695 363.9,710.05 377.1,730.91C380.29,736.25 382.93,741.94 385.37,747.65C390.44,759.58 392.85,771.71 398.66,783.34C402.56,791.39 407.52,798.8 411.06,806.99C404.66,802.83 398.96,797.79 393.71,792.28C386.82,785.03 379.28,778.86 372.75,771.25C363.15,760.06 353.03,749.59 344.94,737.18C345.15,749.37 349.24,759.72 352.83,771.11C346.8,767.56 341.98,762.81 336.59,758.42C331.46,754.18 327,749.37 322.33,744.66C316.25,738.47 309.89,732.31 304.28,725.73C299.97,720.7 295.71,715.62 291.46,710.53C286.35,704.44 282.13,697.99 277.44,691.55C271.15,682.67 265.27,673.45 260.18,663.83C255.66,655.34 251.2,647.2 247.81,638.17C245.16,631.06 242.47,623.77 240.64,616.41C239.69,612.6 238.74,608.79 237.61,605.03C233.23,613.41 231.8,622.98 230.32,632.26C227.43,650.38 229.71,668.77 231.96,686.83C224.85,677.21 218.8,667.13 213.7,656.32C210.32,648.98 206.3,642.14 203.39,634.59C195.56,613.84 188.93,593.48 186.69,571.27C184.07,548.92 184.9,525.5 190.76,503.7C194.38,491.17 198.35,479.09 204.5,467.53C207.75,461.12 211.97,455.39 214.91,448.82C210.76,450.89 207,453.49 203.4,456.4C186.18,469.81 171.31,486.09 159.4,504.37C155.01,511.06 151.4,518.19 147.12,524.93C148.77,506.63 153.08,488.46 159.08,471.11C163.47,459.09 169.06,447.22 174.8,435.79C177.26,430.99 180.33,426.57 182.93,421.83C185.6,417.14 187.87,412.22 190.62,407.57C193.78,402.25 198.02,397.92 202.01,393.01C205.51,388.83 208.74,384.43 212.3,380.31C216.07,375.92 220.39,372.53 224.52,368.53C228.46,364.79 232.12,360.79 235.92,356.92C241.12,351.57 247.06,347.63 252.67,342.69C256.12,339.62 259.72,337 263.8,334.82C267.79,339.19 272.78,342.9 277.44,346.55C285.07,352.32 293.68,358.17 302.81,361.19C305.34,362.1 307.66,361.61 310.2,361.1C306.68,353.25 301.28,347.75 296.27,340.74C284.35,323.93 273.35,307.43 265.91,288.08C259.51,272.53 256.45,255.82 257.96,239.02C259.9,222.2 266.7,205.66 277.76,192.77C283,186.47 289.73,181.15 296.32,176.33C305.52,169.68 315.98,165.57 326.97,162.98C336.94,160.81 346.63,159.51 356.66,162.21Z" style="fill:rgb(204,0,34);fill-rule:nonzero;"/>
            <path d="M690.3,174.11C697.68,172.66 705.22,174.46 711.59,178.32C718.27,182.53 724,188.17 728.01,194.99C720.21,193.37 713.76,189.64 705.8,192.98C696.67,196.65 694.16,204.9 688.92,212.31C682.67,210.12 677.13,206.62 671.06,204.04C664.85,201.13 658.33,199.19 651.97,196.69C661.61,185.11 675.56,177.06 690.3,174.11Z" style="fill:white;fill-rule:nonzero;"/>
            <path d="M701.93,175.71C709.7,177.22 715.53,182.59 719.39,189.29C713.19,189.81 705.84,190.36 700.29,193.4C694.91,196.49 692.96,202.86 689.1,207.2C687.83,209.02 685.53,207.72 683.77,207.47C674.47,204.76 666.04,199.43 657.02,195.83C659.23,192.42 661.52,189.2 664.76,186.68C669.64,182.61 675.97,181.05 681.83,178.73C688.41,176.23 694.83,174.36 701.93,175.71Z" style="fill:rgb(204,0,34);fill-rule:nonzero;"/>
            <path d="M343.61,194.42C352.62,195.72 363.43,199.56 368.99,207.19C361.76,203.14 355.34,198.58 347.17,196.83C336.86,194.38 325.73,196.31 315.92,199.9C307.25,203.08 301.45,209.6 295.48,216.3C295.65,216.73 295.82,217.16 295.99,217.59C301.33,216.4 306.3,215.13 311.84,215.34C316.76,215.46 321.12,216.89 325.77,218.29C320.95,220.37 315.58,222.3 311.26,225.27C304.47,230.01 298.75,235.88 295.73,243.74C291.55,254.41 292.39,265.22 294.83,276.18C297.16,285.62 300.89,294.66 306.11,302.88C311.1,311.35 316.9,319.22 323.69,326.33C325.39,328.06 327.44,329.17 329.58,330.27C329.22,330.85 328.87,331.42 328.52,332C316.25,323.58 309.23,310.89 301.29,298.71C298.16,293.71 296.91,288.39 295.09,282.87C293.37,277.57 291.63,272.57 291.15,266.97C290.73,261.79 290.76,256.4 291.27,251.23C291.87,244.07 296.38,237.27 300.91,231.91C305.82,226.18 311.94,222.47 318.17,218.38C310.21,215.27 303.36,218.03 295.32,219.08C294.73,218.32 294.14,217.56 293.56,216.79C297.15,211.32 301.84,206.97 306.85,202.84C311.37,199.21 316.64,197.43 322.23,196.19C329.43,194.67 336.22,193.24 343.61,194.42Z" style="fill:rgb(204,0,34);fill-rule:nonzero;"/>
            <path d="M347.17,196.83C355.34,198.58 361.76,203.14 368.99,207.19C372.21,210.61 375.71,213.65 378.8,217.19C384.64,223.92 389.62,231.36 393.69,239.29C396.76,245.37 399.98,251.28 402.07,257.79C395.23,263.52 387.57,268.05 380.57,273.57C360.05,289.1 343.31,308.59 329.58,330.27C327.44,329.17 325.39,328.06 323.69,326.33C316.9,319.22 311.1,311.35 306.11,302.88C300.89,294.66 297.16,285.62 294.83,276.18C292.39,265.22 291.55,254.41 295.73,243.74C298.75,235.88 304.47,230.01 311.26,225.27C315.58,222.3 320.95,220.37 325.77,218.29C321.12,216.89 316.76,215.46 311.84,215.34C306.3,215.13 301.33,216.4 295.99,217.59C295.82,217.16 295.65,216.73 295.48,216.3C301.45,209.6 307.25,203.08 315.92,199.9C325.73,196.31 336.86,194.38 347.17,196.83Z" style="fill:rgb(1,1,1);fill-rule:nonzero;"/>
            <path d="M625.66,213.77C632.09,213.56 638.13,215.05 644.34,216.44C656.53,218.96 668.47,224.04 679.79,229.14C693.61,235.29 705.67,244.15 718.03,252.95C727.15,260.06 736.67,266.96 745,274.99C749.52,279.17 754.53,282.74 758.94,287.06C768.59,296.37 779.3,304.76 788.41,314.6C793.37,320.17 797.75,326.4 800.98,333.13C801.65,334.88 802.74,336.76 801.82,338.61C800.31,342.15 797.66,345.32 795.5,348.5C793.22,351.65 791.3,355.04 789.07,358.22C787.82,359.89 786.35,361.73 784.04,361.62C780.97,360.74 778.23,358.19 775.94,356.04C768.5,349.16 767.62,339.08 760.38,331.83C758.98,346.66 766.14,358.36 768.79,372.41C762.73,370.78 756.15,369.17 749.84,369.58C744.51,369.97 741.56,373.55 737.4,376.34C733.95,378.63 730.51,380.81 727.56,383.76C735.28,388.12 743.13,392.31 751.16,396.08C756.51,398.85 761.12,402.8 766.42,405.68C771.96,409.27 778.86,412.89 782.63,418.4C774.98,414.21 768.57,408.37 761.09,403.94C755.63,400.72 750.07,397.64 744.54,394.51C737.09,390.29 729.15,387.44 721.94,382.78C727.89,378.24 735.3,374.71 740.39,369.31C742.31,367.44 741.8,365.25 741.55,362.86C740.46,356.52 738.45,350.34 735.39,344.67C733.83,341.84 733.05,338.8 732.29,335.68C734.44,339.5 736.71,343.05 739.92,346.08C742.75,348.79 745.93,350.58 749.23,352.62C750.33,351.09 751.59,349.97 752.06,348.09C754.53,336.77 753,326.2 751.17,314.98C760.93,321.27 767.75,332.13 774.97,341.06C777.38,343.95 780.41,347.04 784.21,347.92C787.91,348.77 791.56,346.61 794.32,344.35C796.63,342.39 799.16,339.87 800.14,336.94C799.57,331.14 794.43,325.56 790.75,321.3C782.98,312.32 775.25,303.48 766.09,295.86C762.99,293.32 759.87,290.82 756.99,288.02C752.1,283.2 746.46,279.3 741.74,274.28C735.84,268.11 728.43,264.51 722.09,258.92C719.74,256.89 717.47,254.82 715,252.94C710.03,249.11 704.42,246.38 699.4,242.6C695.85,239.94 692.33,237.37 688.19,235.67C683.1,233.57 678.12,231.26 673.17,228.84C667.22,226.1 662.18,222.73 655.76,221.05C648.6,219.28 642.1,217.1 634.6,217.92C635.72,220.23 636.84,222.48 638.6,224.38C643.05,229.31 647.9,233.76 653.07,237.93C659.92,243.41 665.83,250.37 669.72,258.27C664.52,253.44 660.18,247.85 655.04,242.96C651.31,239.35 647.77,235.56 644.1,231.9C637.82,225.62 630.83,221.18 625.66,213.77Z" style="fill:white;fill-rule:nonzero;"/>
            <path d="M716.57,312.75C722.82,319.54 728.47,327.26 732.29,335.68C733.05,338.8 733.83,341.84 735.39,344.67C738.45,350.34 740.46,356.52 741.55,362.86C741.8,365.25 742.31,367.44 740.39,369.31C735.3,374.71 727.89,378.24 721.94,382.78C729.15,387.44 737.09,390.29 744.54,394.51C750.07,397.64 755.63,400.72 761.09,403.94C768.57,408.37 774.98,414.21 782.63,418.4C783.08,418.96 783.52,419.52 783.97,420.08C774.55,417.66 765.67,413.59 756.39,410.67C744.91,407.01 732.84,402.89 720.97,401.02C713.39,399.72 705.88,401.87 699.06,405.08C688.73,410.33 680.33,418.21 673.54,427.54C662.57,442.63 653.68,458.49 644.76,474.73C631.68,497.77 618.77,520.94 606.43,544.39C602.39,551.75 598.26,559.03 594.65,566.62C591.3,573.44 587.29,579.81 584.71,587C583.81,588.23 582.93,589.47 582.04,590.7C585.14,578.7 587.09,566.5 590.65,554.62C594.26,542.29 597.54,529.81 601.83,517.75C604.79,509.36 607.45,500.84 610.51,492.48C614.83,481.53 620,470.87 623.89,459.76C619.03,460.85 614.64,462.94 610.22,465.17C597.84,470.92 584.4,474.92 571.16,478.13C561.8,480.63 552.51,482.87 542.82,483.54C550.77,477.43 560.83,473.76 569.73,468.74C578.85,463.6 588.01,458.46 596.9,452.93C610.58,443.68 624.53,433.94 636.38,422.38C639.34,419.69 641.98,416.84 644.33,413.59C635.21,413.51 627.05,414.66 618.15,411.77C605.23,407.84 595.13,398.28 587.7,387.32C584.3,382.4 582.49,376.69 579.44,371.63C578.5,369.99 576.77,370.11 575.11,369.71C565.83,368.33 556.31,368.31 546.96,368.97C540.64,369.59 534.36,369.8 528,369.71C534.16,365.31 540.85,361.92 547.66,358.66C558.67,353.13 569.8,348.18 581.63,344.62C592.9,341.02 604.36,338.53 615.79,335.58C603.87,326.72 590.71,323.96 577.01,319.54C581.03,318.07 585.12,316.9 589.41,316.54C596.03,316 602.39,315.39 609.04,315.99C619.78,316.72 630.32,320.11 639.74,325.26C651.93,331.8 661.74,340.53 673.3,348.72C682.5,355.46 691.26,361.68 702.57,364.4C707.37,365.47 713.3,365.97 717.91,363.97C720.57,361.36 721.39,356.48 722.01,352.92C723.48,339.02 720.42,325.94 716.57,312.75Z" style="fill:rgb(1,1,1);fill-rule:nonzero;"/>
            <path d="M251.99,321.87C256.71,325.59 259.92,330.34 263.8,334.82C259.72,337 256.12,339.62 252.67,342.69C247.06,347.63 241.12,351.57 235.92,356.92C232.12,360.79 228.46,364.79 224.52,368.53C220.39,372.53 216.07,375.92 212.3,380.31C208.74,384.43 205.51,388.83 202.01,393.01C198.02,397.92 193.78,402.25 190.62,407.57C187.87,412.22 185.6,417.14 182.93,421.83C180.33,426.57 177.26,430.99 174.8,435.79C169.06,447.22 163.47,459.09 159.08,471.11C153.08,488.46 148.77,506.63 147.12,524.93C151.4,518.19 155.01,511.06 159.4,504.37C171.31,486.09 186.18,469.81 203.4,456.4C207,453.49 210.76,450.89 214.91,448.82C211.97,455.39 207.75,461.12 204.5,467.53C198.35,479.09 194.38,491.17 190.76,503.7C184.9,525.5 184.07,548.92 186.69,571.27C188.93,593.48 195.56,613.84 203.39,634.59C206.3,642.14 210.32,648.98 213.7,656.32C218.8,667.13 224.85,677.21 231.96,686.83C229.71,668.77 227.43,650.38 230.32,632.26C231.8,622.98 233.23,613.41 237.61,605.03C238.74,608.79 239.69,612.6 240.64,616.41C242.47,623.77 245.16,631.06 247.81,638.17C251.2,647.2 255.66,655.34 260.18,663.83C265.27,673.45 271.15,682.67 277.44,691.55C282.13,697.99 286.35,704.44 291.46,710.53C295.71,715.62 299.97,720.7 304.28,725.73C309.89,732.31 316.25,738.47 322.33,744.66C327,749.37 331.46,754.18 336.59,758.42C341.98,762.81 346.8,767.56 352.83,771.11C349.24,759.72 345.15,749.37 344.94,737.18C353.03,749.59 363.15,760.06 372.75,771.25C379.28,778.86 386.82,785.03 393.71,792.28C398.96,797.79 404.66,802.83 411.06,806.99C407.52,798.8 402.56,791.39 398.66,783.34C392.85,771.71 390.44,759.58 385.37,747.65C382.93,741.94 380.29,736.25 377.1,730.91C363.9,710.05 345.61,695 331.89,675.1C328.85,670.71 326.88,665.94 324.43,661.12C322.16,665.13 320.49,669.31 319.84,673.9C318.18,683.19 319.61,691.69 319.83,700.96C312.85,693.68 307.86,683.98 302.78,675.22C290,650.34 281.13,623.57 277.28,595.83C275.86,584.04 274.36,571.87 274.96,560C275.26,551.33 275.1,542.69 275.9,534.03C276.37,529.14 276.46,524.28 276.02,519.39C270.73,520.76 269.08,525 265.77,528.81C263.71,531.57 260.95,533.34 257.99,535C255.61,527.95 256.48,521.29 256.37,514C256.64,491.15 261.43,469.76 266.89,447.72C267.98,443.72 269.59,439.96 271.16,436.13C275.14,425.83 279.46,415.66 283.66,405.45C286.88,399.66 289.83,392.29 295.28,388.33C291.79,395.66 287.55,402.57 283.96,409.84C278.69,421.56 273.98,433.54 269.88,445.72C265.76,457.95 263.19,470.95 260.93,483.64C258.54,499.92 257.68,516.6 258.85,533.02C265.12,525.78 270.5,518.33 278.18,512.42C279.11,516.34 279.64,520.2 279.87,524.22C280.29,531.14 281.31,537.97 282.34,544.82C284.92,564.41 291.66,584.05 298.66,602.47C303.15,613.37 307.97,624.15 313.38,634.62C314.67,637.17 316.46,639.28 318.45,641.29C319.33,629.04 317.55,617.28 319.36,604.91C321.69,608.33 323.67,611.87 325.42,615.62C329.85,624.94 334.8,633.99 340.31,642.72C346.91,652.9 354.61,662.23 362.29,671.69C366.48,676.86 371.23,681.39 375.87,686.14C391.27,702.1 408.46,715.98 424.38,731.6C431.66,739.41 439.46,746.54 446.17,754.87C452.11,762.13 458.91,769.61 462.87,778.17C456.41,775.94 450.93,772.22 444.91,769.12C439.2,766.22 434.25,762.66 427.96,761.02C429.9,767.45 433.91,772.11 437.16,777.85C442.18,786.38 448.01,794.29 453.64,802.41C458.83,810.11 464.73,817.25 470.46,824.54C477.93,834.29 486.33,843.35 494.49,852.52C506.48,865.07 519.07,877.04 531.12,889.53C495.3,882.02 460.4,869.6 427.6,853.39C415.65,847.19 403.82,840.7 392.34,833.67C374.88,822.42 357.68,810.55 341.64,797.35C318.56,779.19 297.44,757.92 278.33,735.65C272.84,729.13 267.82,722.2 262.25,715.75C265.13,729.21 269.59,742 274.06,754.99C278.19,767.22 283.6,779.07 289.06,790.76C276.78,785.46 265.01,778.39 253.64,771.37C230.83,756.36 209.91,738.68 190.99,719.01C175.65,703.2 161.41,686.16 149.17,667.83C135.66,647.18 122.97,625.45 113.23,602.75C105.51,586.53 99.96,569.75 94.57,552.65C93.55,549.26 92.37,545.86 91.67,542.38C92.96,536.44 95.91,531.35 99.62,526.62C104.3,520.72 107.32,513.86 111.8,507.83C115.95,502.21 119.21,496.04 123.41,490.46C128.76,483.41 133.49,475.94 138.74,468.82C142.56,463.56 145.75,457.98 149.96,452.98C157.33,443.94 163.23,433.8 171.02,425.02C177.52,417.77 182.81,409.6 189.23,402.28C194.03,396.57 199.51,392.16 203.02,385.42C197.34,385.56 191.69,385.92 186.01,385.8C189.18,380.01 194.01,376.13 198.13,371.07C203.35,364.83 209.84,360.29 215.52,354.52C223.52,346.75 231.47,337.9 240.64,331.67C244.78,328.76 247.97,324.91 251.99,321.87Z" style="fill:white;fill-rule:nonzero;"/>
            <path d="M640.05,356.65C643.29,356.93 645.71,358.86 648.25,360.7C652.43,363.91 656.74,366.92 661.04,369.97C665.77,373.4 670.97,375.93 675.38,379.83C669.44,383.4 662.59,385.61 655.83,386.99C645.99,388.76 635.58,385.67 629.09,377.9C624.4,372.19 620.18,365.62 618.1,358.48C625.19,357.2 632.83,356.07 640.05,356.65Z" style="fill:white;fill-rule:nonzero;"/>
            <path d="M640.26,358.58C646.79,360.74 652.77,365.6 657.86,370.11C662.13,373.85 666.82,375.95 671.62,379.01C668.16,381.53 664.57,383.66 660.34,384.56C651.95,386.65 641.6,386.02 634.67,380.38C628.54,375.15 623.48,368.92 621.58,360.92C627.35,359.04 634.21,357.46 640.26,358.58Z" style="fill:white;fill-rule:nonzero;"/>
            <path d="M720.97,401.02C732.84,402.89 744.91,407.01 756.39,410.67C765.67,413.59 774.55,417.66 783.97,420.08L784.99,421.35C782.38,421.44 779.94,421.64 777.46,420.58C760.97,413.37 743.71,408.03 726.23,403.83C717.88,402.02 709.07,402.71 701.26,406.26C690.86,410.91 681.93,419.22 675.44,428.5C671.98,433.09 668.59,437.7 665.68,442.67C660.76,450.81 655.57,458.73 651.17,467.17C648.22,472.53 646.17,477.9 642.8,482.84C640.63,486.03 638.38,489.15 636.49,492.53C632.76,498.95 630.21,505.83 626.11,512.06C622.03,518.28 618.57,524.78 615.52,531.56C612.01,539.45 606.97,546.34 603.08,554.02C599.55,560.91 596.25,567.9 592.97,574.92C590.89,579.52 588.17,583.34 584.71,587C587.29,579.81 591.3,573.44 594.65,566.62C598.26,559.03 602.39,551.75 606.43,544.39C618.77,520.94 631.68,497.77 644.76,474.73C653.68,458.49 662.57,442.63 673.54,427.54C680.33,418.21 688.73,410.33 699.06,405.08C705.88,401.87 713.39,399.72 720.97,401.02Z" style="fill:rgb(204,0,34);fill-rule:nonzero;"/>
            <path d="M357.97,403.8C353.08,411.73 346.49,418.52 341.33,426.29C334.58,436.75 329.88,447.94 325.62,459.58C323.41,465.83 322.27,472.27 321.98,478.88C328.64,472.18 333.09,464.41 340.23,458.24C345.68,453.59 351.05,449.09 357.54,445.94C356.39,454.94 355.23,463.9 355.06,472.99C354.21,491.42 357.23,509.44 361.68,527.27C362.6,531.13 364.04,534.76 365.85,538.28C368.49,532.16 369.93,525.66 372.57,519.54C376.72,509.52 379.87,499.65 387.84,491.86C388.39,503.38 388.07,514.82 389.58,526.3C391.14,537.42 392.17,547.98 395.29,558.76C397.77,567.33 400.22,576.18 403.53,584.44C406.36,591.65 410.03,598.57 413.39,605.63C416.33,611.74 419.58,617.63 423.81,622.96C423.95,611.88 421.79,601.2 422.34,590.12C422.75,582.63 424.16,575.15 426.26,567.96C431.24,579.07 434.94,591.61 441.46,602.52C449.98,616.8 458.73,630.63 470.38,642.62C476.35,648.59 482.12,655.04 488.82,660.2C502.25,670.14 514.23,679.82 530.83,684.01C522.82,675.99 515.37,667.58 508.12,658.87C503.29,652.83 499.85,645.97 495.71,639.25C493.64,635.95 492.11,632.63 490.9,628.93C496.57,632.27 500.65,637.27 506.04,640.98C511.35,644.72 516.73,648.39 522.31,651.72C531.15,656.98 540.34,659.86 549.65,664.35C560.86,669.48 571.55,675.58 582.1,681.92C586.99,684.93 591.69,688.26 596.28,691.71C604.51,697.77 611.75,705.76 618.86,713.13C626,721.11 633.57,728.43 640.06,736.96C645.53,744.15 651.4,750.83 657.75,757.25C662.74,762.26 666.6,767.81 671.97,772.02C679.18,777.77 688.15,781.63 696.51,785.47C707.32,790.56 719.81,792.15 731.61,790.55C740.9,789.4 749.14,785.45 756.83,780.3C754.13,779.98 751.44,779.66 748.75,779.35C754.31,779.47 759.91,779.07 765.42,778.3C772.43,777.33 778.98,774.7 786.04,773.97C784.51,776.71 782.87,779.35 780.67,781.62C772.63,790.2 761.64,796.4 750.86,800.88C738.76,805.74 726.47,805.04 713.82,803.37C701.51,801.91 690.08,798.01 678.68,793.3C674.12,791.38 668.46,789.67 665.02,785.99C661.62,782.38 659.1,777.8 656.24,773.75C651.83,767.24 646.84,761.21 641.89,755.11C627.87,736.74 612.44,719.21 595.29,703.7C592.48,701.09 589.44,698.89 586.14,696.95C587.79,703.17 590.84,708.63 593.64,714.37C598.59,724.82 603.75,735 607.85,745.85C598.78,742 590.26,736.33 581.56,731.5C565.06,722.3 548.01,713.95 530.79,706.19C513.38,697.73 496.57,691.63 480.7,681.33C469.27,674.69 458.71,667.05 449.79,657.22C447.04,654.04 444.25,650.92 441.2,648.03C441.21,653.06 441.27,658.05 441.83,663.06C442.56,670.71 444.49,678.12 444.87,685.81C418.72,662.23 399.53,630.44 389.05,596.93C386.12,587.65 385.02,577.86 381.74,568.72C380.29,571.5 379.09,574.35 378.33,577.39C375.96,586.79 373.52,595.72 372.66,605.43C372.33,609.44 371.81,613.41 370.91,617.34C365.57,612.69 362.7,606.95 359.05,600.97C352.47,589.03 347.35,576.13 342.65,563.35C336.06,543.69 332.95,522.68 333.25,501.96C333.2,494.99 334.68,488.19 332.37,481.73C323.26,489.46 317.13,500.37 308.46,508.83C308.11,502.07 308.43,495.47 309.59,488.8C311.31,478.52 313.32,467.96 317.15,458.24C321.61,448.01 326.66,437.9 332.3,428.28C333.75,425.86 334.54,423.24 335.29,420.55C341.2,413.32 349.64,407.87 357.97,403.8Z" style="fill:white;fill-rule:nonzero;"/>
            <path d="M892.88,424.12C900.11,426.82 907.51,429.35 913.19,434.74C906.03,433.88 899.22,431.65 892.04,430.94C877.63,429.62 863.23,431.76 851.15,440.17C848.51,441.91 845.83,443.57 843.11,445.19C844.21,439.7 845.48,434.67 849.85,430.81C854.14,427.2 859.9,425.2 864.91,422.72C874.22,420.69 883.86,420.86 892.88,424.12Z" style="fill:rgb(204,0,34);fill-rule:nonzero;"/>
            <path d="M864.91,422.72C859.9,425.2 854.14,427.2 849.85,430.81C845.48,434.67 844.21,439.7 843.11,445.19C845.83,443.57 848.51,441.91 851.15,440.17C847.75,443.88 844.73,447.85 840.89,451.15C841.19,444.64 842.04,437.52 846.23,432.24C850.99,426.74 857.85,423.88 864.91,422.72Z" style="fill:white;fill-rule:nonzero;"/>
            <path d="M813.6,433.8C812.23,445.53 814,457.89 819.66,468.33C824.27,477.09 832.79,483.5 840.5,489.48C848.36,494.92 856.21,500.29 863.54,506.46C865.05,507.82 866.83,509.43 867.62,511.34C867.92,514.4 865.87,517.8 864.43,520.4C861.48,525.03 859.18,529.62 853.06,530.21C836.95,531.92 820.76,533.47 804.59,534.62C794.76,535.44 784.87,536.24 775,536.25C760.99,535.9 746.56,533.69 733.78,527.69C734.59,527.39 735.4,527.11 736.22,526.84C739.24,527.02 742.25,527.35 745.25,527.78C759.66,529.94 774.51,530.01 788.95,527.98C799.91,526.31 810.85,524.32 821.62,521.66C826.19,520.43 831.4,519.09 835.28,516.29C838.54,514.19 840.12,508.54 837.65,505.41C833.82,502.1 828.82,500.44 825.03,496.96C818.8,491.32 812.52,485.75 809.01,477.97C805.59,470.97 804.67,463.24 805.53,455.54C806.44,447.74 808.04,439.72 813.6,433.8Z" style="fill:white;fill-rule:nonzero;"/>
            <path d="M910.16,496.92C910.86,504.34 908.77,510.99 907.18,518.12C905.17,527.37 900.9,536.19 895.76,544.1C890.87,541.68 884.33,538.47 881.53,533.62C880.93,528.18 883.91,522.05 886.18,517.2C888.54,512.12 892.68,509.19 897.16,506.14C901.5,503.04 905.48,499.56 910.16,496.92Z" style="fill:white;fill-rule:nonzero;"/>
            <path d="M840.02,548.76C846.73,549.39 853.85,549.74 860.3,551.51C866.73,553.26 873.06,555.33 879.14,558.07C878.41,561.79 877.53,565.47 876.21,569.03C873.23,576.94 870.45,584.44 865.34,591.28C868.05,583.49 870.86,575.8 874.5,568.4C875.67,565.68 877.56,561.28 875.58,558.59C872.53,556.28 868.2,555.41 864.58,554.32C855.47,551.62 845.48,551 836,550.65C828.07,550.59 819.8,550.27 811.96,551.59C809.98,552 807.25,552.47 805.99,554.21C804.89,559.71 805.69,565.75 808.59,570.61C812.4,567.21 816.26,563.93 820.67,561.31C822.46,564.18 824.35,566.75 826.63,569.25C829.27,567.98 831.94,566.8 834.64,565.66C836.5,567.39 838.32,569.16 840.19,570.88C842.75,569.52 845.28,568.12 847.8,566.7C849.33,567.86 850.78,569.12 852.3,570.28C856.04,567.15 858.79,563.74 863.8,562.66C863.8,566.3 863.65,569.76 861.99,573.07C858.59,580.01 855.62,587.86 856.9,595.71C857.91,596.81 859.9,596.57 861.28,596.76C859.32,598.77 857.18,600.51 854.98,602.25C853.98,595.52 854.58,588.83 855.69,582.15C856.52,577.82 858.62,573.69 859.99,569.49C857.38,571.2 854.85,573.35 851.97,574.58C850.05,574.33 848.26,571.8 846.81,570.55C844.98,571.25 843.03,572.2 841.07,572.38C838.55,571.99 836.11,570.45 833.83,569.35C830.85,570.76 827.91,571.9 824.73,572.76C823.1,570.34 821.46,567.92 819.77,565.54C817.44,567.29 815.32,569.2 813.21,571.2C811.09,573.24 808.55,573.48 805.84,574.29C804.4,567.11 803.08,559.43 803.77,552.11C806.14,550.43 809.86,550.59 812.66,550.29C822.18,549.88 830.6,547.92 840.02,548.76Z" style="fill:white;fill-rule:nonzero;"/>
            <path d="M836,550.65C845.48,551 855.47,551.62 864.58,554.32C868.2,555.41 872.53,556.28 875.58,558.59C877.56,561.28 875.67,565.68 874.5,568.4C870.86,575.8 868.05,583.49 865.34,591.28C864.06,593.15 862.71,594.99 861.28,596.76C859.9,596.57 857.91,596.81 856.9,595.71C855.62,587.86 858.59,580.01 861.99,573.07C863.65,569.76 863.8,566.3 863.8,562.66C858.79,563.74 856.04,567.15 852.3,570.28C850.78,569.12 849.33,567.86 847.8,566.7C845.28,568.12 842.75,569.52 840.19,570.88C838.32,569.16 836.5,567.39 834.64,565.66C831.94,566.8 829.27,567.98 826.63,569.25C824.35,566.75 822.46,564.18 820.67,561.31C816.26,563.93 812.4,567.21 808.59,570.61C805.69,565.75 804.89,559.71 805.99,554.21C807.25,552.47 809.98,552 811.96,551.59C819.8,550.27 828.07,550.59 836,550.65Z" style="fill:white;fill-rule:nonzero;"/>
            <path d="M792.36,552.5C792.32,559.11 789.85,564.47 787.75,570.59C784.94,578.62 780.1,586.17 775.08,593C770.77,598.46 766.01,603.83 759.84,607.21C760.42,598.07 762.59,589.26 762.58,580.02C762.81,570.72 760.36,562.15 759.78,552.9C770.61,552.24 781.51,552.65 792.36,552.5Z" style="fill:white;fill-rule:nonzero;"/>
            <path d="M764.09,553.98C770.05,554.11 775.82,555.17 781.82,554.33C783.98,554.37 787.67,553.16 789.09,555.23C789.76,560.73 786.77,566.85 785.26,572.11C782.11,581.84 775.53,587.68 770.07,595.97C767.85,599.14 766.05,601.83 761.96,602.59C762.71,593.98 764.44,584.88 764.5,576.03C764.53,569.5 762.14,563.31 761.96,556.93C761.78,555.56 762.49,553.84 764.09,553.98Z" style="fill:white;fill-rule:nonzero;"/>
            <path d="M667.75,608.23C678.62,613.02 687.05,621.47 694.54,630.48C698.81,635.59 701.63,641.25 705.24,646.78C709.02,652.54 712.77,658.3 716.84,663.86C715.71,657.84 714.48,651.84 713.16,645.86C710.79,633.98 704.36,622.59 698.48,612.09C707.1,613.79 715.1,616.17 721.65,622.34C727.77,627.76 730.91,634.66 734.07,642.01C731.24,638.54 728.43,634.9 725.08,631.92C722.41,629.64 718.89,628.35 715.4,629.18C713.22,630.3 714.39,633.65 714.52,635.61C716.54,645.07 719.81,654.26 722.01,663.68C722.96,667.51 722.7,671.28 721.88,675.11C717.52,670.37 715.14,664.74 711.51,659.5C707.91,654.22 703.67,649.35 699.4,644.6C693.81,638.5 687.8,633.02 679.92,630.05C676.45,628.69 672.3,628.95 669.32,631.32C667.84,633.6 667.96,636.4 669.32,638.71C671.86,643.12 675.01,647.11 677.21,651.74C681.38,659.64 683.11,668.17 686.74,676.26C689.71,683.25 693.4,689.78 698.83,695.16C704.17,700.69 710.3,704.26 716.58,708.56C715.11,709.85 712.86,713.37 710.58,712.34C699.22,708.89 691.25,700.83 684.76,691.23C681.43,686.05 679.48,680.44 677.22,674.76C674.46,667.64 671.21,660.77 668.21,653.75C665.19,646.82 661.72,640.11 656.16,634.85C652.59,631.41 648.17,628.75 645.49,624.56C642.02,618.92 640.06,612.67 639.09,606.14C648.56,603.54 658.78,604.16 667.75,608.23Z" style="fill:white;fill-rule:nonzero;"/>
            <path d="M679.92,630.05C687.8,633.02 693.81,638.5 699.4,644.6C703.67,649.35 707.91,654.22 711.51,659.5C715.14,664.74 717.52,670.37 721.88,675.11C722.7,671.28 722.96,667.51 722.01,663.68C719.81,654.26 716.54,645.07 714.52,635.61C714.39,633.65 713.22,630.3 715.4,629.18C718.89,628.35 722.41,629.64 725.08,631.92C728.43,634.9 731.24,638.54 734.07,642.01C737.87,649.24 740.58,656.85 743.64,664.4C746.89,672.15 749.23,679.91 754.08,686.9C755.75,690.35 757.43,693.95 758.31,697.7C759.38,701.91 757.1,706.22 754.06,709.02C751.84,711.03 748.72,711.6 745.93,712.41C744.03,702.53 741.73,692.9 736.75,684.1C729.38,691.75 724.15,701.04 716.58,708.56C710.3,704.26 704.17,700.69 698.83,695.16C693.4,689.78 689.71,683.25 686.74,676.26C683.11,668.17 681.38,659.64 677.21,651.74C675.01,647.11 671.86,643.12 669.32,638.71C667.96,636.4 667.84,633.6 669.32,631.32C672.3,628.95 676.45,628.69 679.92,630.05Z" style="fill:rgb(204,0,34);fill-rule:nonzero;"/>
            <path d="M754.08,686.9C757.39,691.64 761.9,696.95 763.29,702.63C764.07,707.3 763.05,713.17 759.7,716.69C755.93,720.37 751.44,720.58 746.49,720.95C746.37,718.09 746.29,715.24 745.93,712.41C748.72,711.6 751.84,711.03 754.06,709.02C757.1,706.22 759.38,701.91 758.31,697.7C757.43,693.95 755.75,690.35 754.08,686.9Z" style="fill:white;fill-rule:nonzero;"/>
            <path d="M734.83,702.93C736.88,708.98 737.64,715.01 736.73,721.37C735.85,729.16 733.98,736.85 731.47,744.27C730.49,746.89 729.17,750.39 726.68,751.92C724.68,753 721.77,752.16 719.79,751.35C713.21,748.36 707.93,742.85 705.36,736.07C710.64,729.78 717.02,724.63 722.39,718.44C726.93,713.4 729.92,707.62 734.83,702.93Z" style="fill:white;fill-rule:nonzero;"/>
            <path d="M733,708.65C734.51,712.29 735.56,716.03 735.46,720C735.54,727.91 731.79,735.59 729.56,743.29C728.65,745.71 727.75,749.47 724.91,750.26C719.3,749.8 713.68,746.07 710.12,741.83C709.04,740.3 706.84,737.41 708.42,735.64C710.45,732.77 713.64,730.61 716.13,728.13C722.66,721.92 725.84,714.26 733,708.65Z" style="fill:white;fill-rule:nonzero;"/>
            <path d="M806.15,708.71C807.08,715.33 805.41,722.38 803.87,728.82C802.23,735.05 799.71,741.58 795.6,746.6C793.94,748.59 791.1,749.88 788.9,747.9C788.42,744.79 788.7,741.53 788.25,738.41C787.72,735.38 785.56,732.47 783.97,729.89C789.03,725.18 794.27,721.75 798.59,716.59C800.96,713.79 803.27,711.01 806.15,708.71Z" style="fill:white;fill-rule:nonzero;"/>
            <path d="M747.58,737.53C748.89,739.51 750.15,741.52 751.45,743.52C752.19,743.2 752.94,742.87 753.69,742.55C756.36,742 758.41,741.97 760.96,743.01C767.47,745.57 775,744.96 781.28,742.04C781.16,745.22 781.98,748.99 779.38,751.42C775.45,755.34 768.3,756.01 763.04,756.35C754.22,756.56 745.23,755.56 736.58,753.92C737.54,750.3 738.85,746.93 740.67,743.67C742.66,741.15 744.92,739.29 747.58,737.53Z" style="fill:white;fill-rule:nonzero;"/>
            <path d="M781.99,737.96C783.51,742.41 784.56,749.38 781.35,753.29C776.59,756.1 770.48,757.03 765.04,757.34C754.37,757.64 744.26,757.67 734.06,754.13C735.51,749.93 737.68,746.88 740.67,743.67C738.85,746.93 737.54,750.3 736.58,753.92C745.23,755.56 754.22,756.56 763.04,756.35C768.3,756.01 775.45,755.34 779.38,751.42C781.98,748.99 781.16,745.22 781.28,742.04C775,744.96 767.47,745.57 760.96,743.01C758.41,741.97 756.36,742 753.69,742.55C755.51,741.45 757.19,740.17 758.88,738.89C760.87,740.46 762.84,742.05 764.83,743.63C766.6,742.47 768.35,741.28 770.12,740.13C771.56,741.11 772.95,742.15 774.38,743.15C776.85,741.3 779.3,739.48 781.99,737.96Z" style="fill:white;fill-rule:nonzero;"/>
        </g>
    </g>
</svg>
