<?xml version="1.0" encoding="UTF-8" standalone="no"?>
<!DOCTYPE svg PUBLIC "-//W3C//DTD SVG 1.1//EN" "http://www.w3.org/Graphics/SVG/1.1/DTD/svg11.dtd">
<svg width="100%" height="100%" viewBox="0 0 489 314" version="1.1" xmlns="http://www.w3.org/2000/svg" xmlns:xlink="http://www.w3.org/1999/xlink" xml:space="preserve" xmlns:serif="http://www.serif.com/" style="fill-rule:evenodd;clip-rule:evenodd;stroke-linejoin:round;stroke-miterlimit:2;">
    <g transform="matrix(1,0,0,1,-11.937993,-166.155883)">
        <g transform="matrix(1,0,0,1,-2516,-1291)">
            <g id="Farmer" transform="matrix(1,0,0,1,-3021,1291.647578)">
                <g transform="matrix(1.393238,0,0,1.393238,5078.798962,47.883469)">
                    <g>
                        <g transform="matrix(0.717752,0,0,0.717752,328.874922,-34.833278)">
                            <path d="M57,384L109.816,412.05L107,479.415L11.938,479.415L22,456L57,384Z" style="fill:white;"/>
                        </g>
                        <g transform="matrix(0.717752,0,0,0.717752,328.874922,-34.833278)">
                            <path d="M307.469,479.415L307.469,441L319,413L363,424.699L382,440L390.49,479.355L307.469,479.415Z" style="fill:white;"/>
                        </g>
                        <g transform="matrix(0.717752,0,0,0.717752,328.874922,-34.833278)">
                            <path d="M109,470L110,399L171.389,372L174.371,361L193.57,345L214,378.631L242,407.968L265,432.215L276,448L276,415.865L284,400.07L292,392L309,407.968L312,423L305,443L306,466L306,479.415L108,479.415L109,470Z" style="fill:rgb(143,0,24);"/>
                        </g>
                        <path d="M538.05,84.54C540.18,84.48 542.39,84.3 544.51,84.57C546.76,85.6 548.95,86.48 550.81,88.18C554.42,92.45 556.03,97.36 559.09,101.97C561.41,106.18 563.75,110.73 565.89,115.03C567.58,117.08 568.47,121.38 570.95,122.41C578.56,122.49 586.39,122.12 593.9,123.3C600.5,124.2 607.58,124.51 614.02,126.18C616.6,126.79 618.83,127.21 621.48,128.43C622.87,128.69 624.01,128.89 624.96,130.04C626.42,131.16 625.87,132.86 627.36,133.98C627.54,137.01 626.14,140.06 624.45,142.49C616.25,152.5 605.44,156.94 594.33,162.47C594.37,161.22 595.26,160.89 596.02,160.07C597.57,158.77 598.33,156.98 599.59,155.37C598.03,155.23 597.42,156.41 596.28,157.25C593.02,159.59 590.55,162.4 587.16,164.29C583.49,166.56 579.23,167.48 575.32,169.35C574.06,170.24 573.86,171.1 574.53,172.5C576.16,175.44 576.65,178.95 578.14,181.93C578.95,184.9 580.56,187.8 579.92,190.98C578.87,193.86 574.7,194.48 573.54,196.95C573.65,199.69 573.65,202.33 573.45,205.07C574.22,206.49 575.43,207.18 574.97,209.02C574.23,211.75 572.58,213.87 572.69,217.01C573.64,220.3 574.21,223.64 575.34,226.89C576.46,229.93 573.08,233.3 572,236.04C571.53,237.84 569.84,239.58 568.01,239.97C563.63,240.38 559.48,241.49 555.04,241.51C552.44,242.12 550.12,242.63 547.52,241.57C545.22,241.53 542.12,240.44 540.84,243.03C541.17,244.64 542.8,245.91 543.78,247.19C546.2,249.63 548.29,252.93 551.24,254.72C552.85,255.83 555,256.27 556.49,257.53C557.1,258.29 557.96,258.62 559.05,258.49C559.99,259.24 560.99,259.58 562.06,259.5C564.34,261.62 567.67,259.24 569.49,262.5C571.73,262.42 573.79,262.41 575.99,262.88C576.67,262.91 577.23,262.51 577.66,261.7C584.19,249.37 590.83,237.34 597.87,223.93C607.59,205.69 617.07,188.92 626.27,171.24C627.13,169.71 628.83,167.92 627.74,166.1C626.93,164.39 627.65,162.96 628.6,161.52C633.12,154.34 636.38,146.2 641.27,139.32C645.47,138.67 644.66,134.73 647.84,132.7C651.48,129.65 656.76,132.44 659.48,135.49C662.1,138.42 661.33,142.23 658.92,144.99C657.8,146.29 658.45,147.69 659.28,148.93C667.24,160.08 673.56,172.52 678.69,185.2C681.38,192.28 683.16,199.31 685.38,206.51C685.64,210.36 686.46,214.2 687.15,217.99C687.75,221.72 687.17,225.38 688.22,229C688.1,234.87 688.96,241.36 687.58,247.05C687.29,250.55 687.95,253.78 686.76,256.92C686.22,258.53 686.33,260.27 685.76,261.91C683.18,277.04 677.2,291.03 669.13,304.02C668.35,305.24 667.6,306.76 666.43,307.64C666.62,305.6 666.59,303.58 666.64,301.54C668.27,299.15 666.97,295.78 667.94,293C668.88,283.34 669.01,273.7 668.86,264C667.99,255.8 668.08,247.97 666.05,240C665.27,236.33 665.02,232.58 663.7,229.05C661.27,220.4 658.68,211.52 654.57,203.5C652.05,197.1 648.77,190.86 645.23,184.96C646.14,181.16 649.82,178.36 650.02,174.01C650.35,172.6 651.04,168.71 648.47,169.41C647.53,171.7 646.4,173.85 644.82,175.77C644.05,175.99 643.29,176.24 642.53,176.51C636.92,186.68 632.33,195.88 626.99,205.99C621.38,216.95 613.15,232.07 607.97,242.99C606.28,245.99 604.05,249.07 603.33,252.48C599.92,256.42 598.25,262.39 595.46,266.46C594.9,267.68 593.41,269.22 594.43,270.56C598.22,273.04 602.25,274.48 604.24,278.9C605.03,282.15 605.25,285.62 605.54,288.95C606.7,294.16 608.97,298.5 609.83,303.99C610.33,305.32 611.51,307.5 610.92,308.82C609.29,309.04 607.62,308.71 605.98,308.85C607.22,307.86 608.74,307.81 609.15,305.99C609.15,304.71 608.19,303.5 607.55,302.43C606.17,301.84 605.55,302.63 604.31,302.83C602.24,300.36 601.32,297.48 600.45,294.44C599.57,291.59 600.22,288.89 599.66,285.96C599.58,282.77 600.09,280.79 597.12,278.78C590.34,275.03 582.96,272.35 575.99,268.95C572.01,267.04 567.86,269.24 566,272.91L565.4,273.42C564.82,274.51 564.56,276.73 566.01,277.25C568.06,277.44 569.89,276.67 571.95,277.38C574.6,277.97 576.07,280.02 578.95,279.86C582.18,281.42 585.51,282.83 588.62,284.61C580.34,284.63 573.22,280.68 564.99,280.87C561.9,280.92 560.16,284.3 560.37,287.06C560.94,288.77 563.57,288.28 565,288.97C570.55,291.15 577.83,292.35 582.63,295.65C574.36,296.23 567.07,291.87 558.96,292.55C556.28,293.48 554.79,296.99 555.32,299.65C559.74,300.82 564.26,301.89 568.51,303.59C571.06,304.61 574.27,305.09 576.47,306.6C572.91,306.9 570.02,305.39 566.5,305.38C563.38,304.39 560.24,304.01 557,303.67C553.9,303.86 551.98,306.13 551.05,308.9C549.44,309.33 546.82,309.39 545.26,308.77C544.69,305.17 544.24,301.83 542.6,298.51C542.15,295.07 541.03,291.78 540.57,288.38C538.89,289.58 538.47,292.45 538.4,294.37L537.35,295.06C535.39,299.58 533.51,304.18 531.78,308.79C530.77,309.29 529.67,309.22 528.48,308.57C528.58,299.21 523.71,292.78 520.41,284.5C517.12,279.36 515.07,273.76 511.05,268.98C507.68,265.15 503.48,262.65 499.99,259.01C488.57,248.47 477.65,236.93 468.94,224.03C467.28,221.98 466.59,219.08 464.91,217.09L464.05,217.09C461.14,220.46 458.52,224.14 455.48,227.47C454.88,229.75 458.72,231.13 458.96,233.04C459.31,235.45 460.54,237.36 461.47,239.56C463.5,243.63 465.18,248.31 467.95,251.95C473.19,262.35 478.24,272.99 481.8,284.12C482.21,285.19 482.83,286.34 483.77,284.98C485.98,282.67 487.62,280.21 490.07,278.07C493.87,275.7 496.12,271.34 499.93,268.83C501.17,267.9 502.55,268.42 503.59,269.38C505.87,270.61 508.12,272.49 509.25,274.87C512.2,280.16 515.4,285.53 517.9,291.01C518.79,292.75 520.56,294.63 520.64,296.62C515.77,292.03 511.53,286.93 506.14,282.83C504.94,281.69 503.62,281.26 502,281.2C499.97,283.59 503.06,286.12 503.61,288.49C505.59,290.59 505.65,293.4 507.44,295.5C507.73,297.36 508.38,298.93 509.36,300.53C509.36,301.99 509.73,302.52 510.56,303.65C508.91,303.98 508.72,300.46 507.61,299.48C507.77,296.66 504.7,294.86 502.97,293.01C501.29,291.11 499.09,289.22 496.39,289.37C498.27,291.8 497.2,295.08 497.84,297.93C496.77,298.2 495.43,299.1 497.02,299.83C497.68,300.31 499.78,300.81 499.64,301.84L497.98,302.4L496.77,301.13C493.77,302.74 493.06,298.82 491.58,302C491.82,302.79 492.49,303.29 493.58,303.52C489.67,304.46 492.97,306.51 492.19,308.91L491.05,309.2C468.03,309.27 445.02,309.18 422,309.21C420.38,309.12 418.54,309.44 417.01,308.86C417.28,306.49 419.25,304.26 420.09,302L421.5,301.43C421.55,298.82 421.73,296.1 421.4,293.51C420.5,290.84 419.87,287.99 418.58,285.5C418.14,284.44 417.41,283.58 417.43,282.43C418.85,282.26 419.48,283.61 420.77,284.28C427.1,288.24 433.24,292.51 437.28,298.94C437.38,299.45 437.79,299.65 438.52,299.56C439.02,291.64 437.08,283.79 433.04,276.97C432.07,273.83 429.36,271.44 428.3,268.52C429.12,268.19 430.8,269.96 431.55,270.44C440.39,277.17 447.1,285.92 452.55,295.5C453.16,296.53 453.59,298.03 454.64,298.66C454.85,296.27 454.59,294.67 453.63,292.48C453.51,290.86 453.74,289.83 452.64,288.45C452.73,285.94 451.88,283.82 451.34,281.44C453.02,281.87 454.74,284.72 456.02,285.98C458.49,288.57 459.95,292.39 462.63,294.62C461.85,288.98 459,283.43 457.29,278C456.48,275.32 455.64,272.31 454.02,269.99C449.81,259.34 441.52,250.71 430.92,246.22C426.44,243.83 422.57,248.28 418.52,249.61C416.24,251.55 412.17,253.23 410.62,255.96C410.55,259.26 410.24,262.76 410.7,266.02C416.14,270.49 421.7,274.32 425.73,280.28C426.32,281.37 427.86,282.39 427.72,283.68C426.74,283.51 425.83,282.45 425.03,281.88C421,278.39 416.57,276.12 411.99,273.68L410.89,273.88C409.98,275.93 410.6,278.77 410.49,281.02C412.58,285.35 414.16,289.84 415.43,294.48C415.69,298.57 416.89,304.85 416.03,308.84C410.98,309.46 405.16,309.34 400.09,308.9C399.96,305.94 401.81,303.04 401.58,299.98C401.31,298.13 402.66,296.9 402.46,295C402.55,287.14 402.69,279.12 402.57,271.28L401.92,271.3C400.83,270.68 399.9,269.86 398.89,269.14C398.36,269.16 397.84,269.29 397.33,269.53C398.56,266.38 396.73,264.42 394.28,262.69C394.37,262.25 394.44,261.81 394.51,261.36C393.67,260.13 392.57,260.36 391.32,259.85C391.97,258.15 390.22,254.93 388.18,255.23C382.67,252.52 377.15,250.7 372.26,246.73C371.28,246.16 370.64,245.19 369.44,245.38C366.73,250.7 364.65,256.56 362.31,262.06C360.64,267.12 358.12,271.78 356.78,276.99C356.17,282.94 355.58,288.61 356.43,294.61L357.48,294.58C357.62,291.66 359.32,289.36 359.63,286.52C360.89,285.26 360.95,283.48 361.87,281.96C363.84,277.04 365.99,271.87 368.06,267C368.55,265.56 369.25,263.18 370.62,262.38C370.51,265.35 369.1,267.99 368.99,271.01C366.31,283.43 365.81,295.89 365.57,308.58C364.86,309.04 364,309.24 363,309.17C357.33,309.16 351.65,309.21 345.98,309.18C343.79,309.22 345.36,307.15 343.61,307.47C343.27,310.76 339.6,307.95 337.45,308.54C337.57,305.89 337.07,303.52 338.25,301.02C338.46,297.34 338.7,293.68 338.56,289.99C338.29,288.37 339.57,287.63 340.45,286.52C340.66,285.05 340.11,283.21 341.02,282C341.9,281.53 343.61,281.29 343.46,279.95C343.42,279.1 343.74,278.28 344.41,277.48C344.43,274.79 346.45,273.78 348.05,271.96C349.6,271.5 350.6,270.96 351.43,269.51C354.01,262.07 357.73,255.15 360.88,247.96C362.45,245.53 363.71,243.09 364.6,240.33C362.73,237 358.68,235.13 357.09,232C358.22,229.67 360.1,227.68 361.43,225.42C364.84,219.72 369.81,213.93 371.48,207.46C371.84,206.23 373.48,205.24 373.5,204.01C371.28,195.96 372.11,186.37 371.92,178C371.7,174.94 372.8,171.95 374.44,169.41C377.04,166.17 381.21,164.73 384.06,162.01C386.32,157.68 389.88,154.35 395.02,154.3C397.47,152.28 399.62,148.95 403.05,147.54C405.09,147.17 407.02,147.51 409.04,147.43C410.93,146.79 412.28,145.05 413.99,143.97C418.31,140.5 422.15,137.18 428.09,138.74C435.01,141.62 442.62,145.08 447.97,150.43L449.01,150.46C453.55,148.49 457.88,146.22 462.53,144.5C462.72,141.03 463.05,137.47 462.8,134C462.48,132.33 463.55,130.81 462.55,129.35C461.49,127.94 463.69,127.35 462.37,125.68C461.76,124.18 458.53,121.51 461.68,120.93C461.56,120.17 461.14,119.41 460.41,118.65C461.14,116.44 459.28,115.68 461.71,113.91C461.6,113.26 461.42,112.62 461.18,112C461.71,110.77 462.77,109.74 463.52,108.64C463.04,106.95 462.85,107.3 464.56,106.61C464.46,106.16 464.35,105.71 464.24,105.27C466.4,104.22 468.52,103.93 469.41,101.4C470.16,100.15 470.74,100.55 471.93,100.74C472.41,98.62 474.01,99.67 475.7,99.34C478.78,102.31 480.95,99.19 484.1,98.16C487.94,95.75 491.98,94.09 496.06,92.14C499.17,90.24 502.6,89.99 505.52,87.64C507.29,87.68 508.26,86.45 510,86.34C516.46,84 522.52,84.08 528.99,86.33C531.91,86.72 535.21,85.14 538.05,84.54Z" style="fill-rule:nonzero;"/>
                        <path d="M517.05,90.33C521.31,89.45 525.94,91.35 530.05,92.45C533.84,93 538.67,94.93 542.82,93.79C542.88,92.13 538.8,92.04 538.33,90.33C541.83,89.83 545.02,89.61 547.23,92.84C551.8,100.29 555.7,108.36 559.87,116.01L559.76,116.75C554.15,117.1 548.14,116.95 542.48,117.59C535.95,118.55 529.15,119.96 522.11,121.03C522.3,119.65 522.27,118.31 522.03,117.02C520.18,114.29 517.12,111.69 516.6,108.35C515.77,107.14 513.48,106.5 513.33,104.95C512.88,102.97 510.94,99.21 508.39,100.55C508.09,99.15 507.29,98.52 505.99,98.66C500.96,97.73 496.41,99.54 492.15,102.14C490.31,102.56 488.8,103.42 486.99,103.85C489.68,101.3 493.83,99.97 496.97,97.92C503.59,94.9 509.98,92.22 517.05,90.33Z" style="fill:rgb(246,246,241);fill-rule:nonzero;"/>
                        <path d="M505.99,98.66C507.29,98.52 508.09,99.15 508.39,100.55C510.94,99.21 512.88,102.97 513.33,104.95C513.48,106.5 515.77,107.14 516.6,108.35C517.12,111.69 520.18,114.29 522.03,117.02C522.27,118.31 522.3,119.65 522.11,121.03C521.61,121.58 520.91,121.89 520.01,121.97C508.56,124.51 497.12,128.19 486.16,132.29C484.51,132.98 483.19,133.89 481.31,133.7C481.59,132.62 483.61,132.06 484.48,131.5C491.58,127.55 498.53,124.18 506.05,121.12C507.69,120.58 508.73,119.42 510.56,119.53C509.85,119.18 507.78,119.43 506.88,119.69C500.88,121.44 494.8,122.63 489.05,125.15C486.43,125.68 483.95,128.04 481.33,127.73C482.99,125.63 487.15,123.97 489.61,122.58C494.54,119.62 499.69,117.81 504.62,115.36C501.64,115.05 498.42,116.78 495.52,117.47C492.36,118.12 489.48,119.52 486.39,120.43C484.41,121.06 482.37,122.66 480.28,122.68C482.3,119.91 487.11,118.03 490.02,116.06C493.24,114.63 496.19,112.52 499.54,111.46C500.01,111.16 500.36,110.79 500.59,110.37C494.96,111.5 489.54,113.33 484.12,115.28C482.44,115.94 481.32,117.05 479.39,116.64C483.86,112.64 492.33,108.66 497.45,105.4C496.78,105.38 496.13,105.42 495.49,105.53C491.4,107.31 487.33,108.93 483.06,110.23C481.3,110.75 479.18,112.33 477.35,111.72C477.52,111.26 477.9,110.84 478.47,110.49C481.29,108.46 483.73,105.07 486.99,103.85C488.8,103.42 490.31,102.56 492.15,102.14C496.41,99.54 500.96,97.73 505.99,98.66Z" style="fill:rgb(143,0,24);fill-rule:nonzero;"/>
                        <path d="M549.53,120.64C553.58,120.67 557.72,120.05 561.73,120.34C562.52,121.22 563.68,122.24 563.55,123.5C555.33,123.17 547.89,124.65 539.96,124.62C536.69,126.56 531.78,124.42 528.47,126.38C526.61,126.69 525.07,126.09 523.45,127.36C522.11,127.5 520.74,127.37 519.39,127.55C519.74,127.2 520.1,126.89 520.48,126.59C523.27,127.01 524.31,125.14 527.04,125.47C528.45,124.46 529.37,124.49 531.05,124.47C533.17,122.8 535.55,123.98 537.93,122.87C539.5,122.17 541.29,122.49 542.91,121.79C545.09,121.08 547.38,121.75 549.53,120.64Z" style="fill:rgb(246,246,241);fill-rule:nonzero;"/>
                        <path d="M627.74,127.34C627.44,128.2 627.2,129.07 627.01,129.94C628.23,131.42 628.05,132.31 627.36,133.98C625.87,132.86 626.42,131.16 624.96,130.04C624.01,128.89 622.87,128.69 621.48,128.43C618.83,127.21 616.6,126.79 614.02,126.18C618.86,125.27 623.27,124.69 627.74,127.34Z" style="fill:rgb(143,0,24);fill-rule:nonzero;"/>
                        <path d="M586,128.14C589.93,128.82 594.05,128.24 598,129.09C600.38,129.81 602.78,129.17 605.13,130.08C605.78,130.66 606.05,131.3 605.95,132C603.22,133.1 599.44,132.11 596.46,132.55L595.82,133.31C592.66,133.98 588.96,132.06 585.92,133.2C584.9,133.35 583.93,133.61 583.01,134C582.76,134.83 582.38,135.58 581.87,136.24C576.72,135.3 571.23,135.83 565.99,135.75C563.84,136.52 562.17,136.58 560.01,137.05C559.36,136.42 558.53,136.54 557.53,137.43C556.78,137.09 556.21,137.1 555.45,137.44C554.48,136.51 553.5,136.51 552.5,137.44C544.16,137.87 535.03,136.81 526.99,138.65C524.57,140.61 521.85,138.44 519.51,140.45C516.03,140.65 512.47,140.41 508.97,140.6C507.62,141.65 506.59,141.55 504.97,141.58C503.38,142.9 501.87,142.44 499.97,142.57C498.41,143.92 496.86,143.39 494.99,143.69C493.42,144.91 491.82,144.43 490,144.8C486.07,146.96 480.99,145.9 477.05,149.02C471.18,150.98 464.39,153.13 458.89,155.87C455.36,157.2 452.31,158.46 448.41,158.66C448.64,157.61 450.09,156.55 450.99,156C470.44,146.22 490.85,139.99 511.99,135.07C518.07,134.02 524,132.67 530.05,131.52C533.88,131.22 537.81,130.57 541.53,129.66C556.6,128.55 570.82,127.29 586,128.14Z" style="fill:rgb(246,246,241);fill-rule:nonzero;"/>
                        <path d="M605.13,130.08C607.55,129.85 609.92,131.05 612.27,131.64C613.66,132.27 615.92,132.53 615.58,134.57C612.76,134.25 610.39,132.74 607.34,133.39C609.41,134.5 615.11,137.79 613.76,140.64C608.16,135.53 602.42,135.83 595.82,133.31L596.46,132.55C599.44,132.11 603.22,133.1 605.95,132C606.05,131.3 605.78,130.66 605.13,130.08Z" style="fill:rgb(143,0,24);fill-rule:nonzero;"/>
                        <path d="M585.92,133.2C586.92,134.1 587.55,134.72 588.98,134.78C594.4,135.72 599.94,137.48 604.61,140.41C605.16,140.77 605.5,141.2 605.65,141.69C603.43,141.54 601.33,140.01 599.06,139.68C593.21,137.72 587.36,138.28 581.87,136.24C582.38,135.58 582.76,134.83 583.01,134C583.93,133.61 584.9,133.35 585.92,133.2Z" style="fill:rgb(143,0,24);fill-rule:nonzero;"/>
                        <path d="M650.56,136.53C652.89,136.1 654.26,137.77 655.48,139.49C655.74,140.38 654.87,141.66 653.94,141.57C652.38,141.61 650.95,140.75 649.39,140.58C648.63,138.91 649.84,137.92 650.56,136.53Z" style="fill:rgb(246,246,241);fill-rule:nonzero;"/>
                        <path d="M555.45,137.44C556.21,137.1 556.78,137.09 557.53,137.43C558.53,136.54 559.36,136.42 560.01,137.05C560.47,137.5 561.13,137.67 561.98,137.55C572.65,137.32 583.57,138.9 593.59,142.5C592.23,142.88 590.28,142.75 588.89,142.33C583.67,141.46 578.3,140.93 573,140.81C561.51,140.71 550.43,140.68 539.05,142.36C533.03,143.8 526.92,143.89 520.95,145.58C514.17,146.54 507.75,148.67 501.13,150.32C486.85,154.89 473.41,159.52 460.62,167.54L460.34,167.46C460.3,166.06 461.52,166.23 462.36,165.34C472.88,157.09 484.55,152.6 496.63,147.39C493.11,147.42 489.53,149.46 486.02,150.11C478.67,152.9 471.03,155.39 463.94,158.82C462.5,159.46 461.01,160.53 459.43,160.65C460.14,159.3 462.46,158.57 463.69,157.68C468.28,154.6 474.19,152.03 478.56,149.26L477.05,149.02C480.99,145.9 486.07,146.96 490,144.8C491.82,144.43 493.42,144.91 494.99,143.69C496.86,143.39 498.41,143.92 499.97,142.57C501.87,142.44 503.38,142.9 504.97,141.58C506.59,141.55 507.62,141.65 508.97,140.6C512.47,140.41 516.03,140.65 519.51,140.45C521.85,138.44 524.57,140.61 526.99,138.65C535.03,136.81 544.16,137.87 552.5,137.44C553.5,136.51 554.48,136.51 555.45,137.44Z" style="fill:rgb(143,0,24);fill-rule:nonzero;"/>
                        <path d="M424.99,143.55C430.48,144.48 435.86,147.49 440.49,150.51C441.25,151.16 442.73,151.92 442.78,153.02C442.48,154.18 443.01,156.34 441.93,157.06C441.52,156.46 441.23,155.76 441.04,154.98C439.38,154.05 437.7,155.08 436.1,153.79C433.77,152.96 431.53,152.04 429.51,150.6C426.43,149.85 424.82,147.76 421.46,148.53C420.37,149.42 419.63,150.39 418.06,150.32C416.68,150.12 415.94,149.68 415.84,148.99C418.5,146.93 421.67,144.39 424.99,143.55Z" style="fill:rgb(246,246,241);fill-rule:nonzero;"/>
                        <path d="M648.56,145.46C650.16,146.46 652.54,147.14 651.61,149.55C646.71,149.49 644.22,153.94 643.33,158.26C641.47,160.7 641.88,163.25 640.7,165.85C638.52,166.47 636.21,164.29 634.22,163.67C633.98,163.03 634.07,162.32 634.49,161.53C637.25,156.05 640.24,150.54 643.22,145.18C644.4,143.06 647.01,144.77 648.56,145.46Z" style="fill:rgb(246,246,241);fill-rule:nonzero;"/>
                        <path d="M421.46,148.53C424.82,147.76 426.43,149.85 429.51,150.6C431.53,152.04 433.77,152.96 436.1,153.79C437.7,155.08 439.38,154.05 441.04,154.98C441.23,155.76 441.52,156.46 441.93,157.06C439.09,159.22 434.15,158.37 431.22,156.67C427.79,155.03 426.21,151.98 422.21,151.61C420.89,150.9 419.47,150.75 418.06,150.32C419.63,150.39 420.37,149.42 421.46,148.53Z" style="fill:rgb(143,0,24);fill-rule:nonzero;"/>
                        <path d="M552.43,148.45C556.44,148.06 560.32,148.11 564.05,149.78C566.43,150.96 569.22,150.24 571.44,151.55C572.54,153.98 573.62,156.46 574.46,158.99C574.77,160.66 571.86,162.99 570.3,162.67C569.31,161.63 568.71,158.55 567.29,158.31C567.11,160.31 567.88,162 567,163.99C566.58,165.17 565.8,165.95 566.71,167.15C568.25,168.8 569.48,170.43 570.42,172.5C571.68,177.76 573.55,182.77 574.9,188C575.3,189.98 573.86,190.49 572.52,191.45C568.45,192.28 566.13,188.84 562,189.21C560.19,189.13 558.74,190.03 557.01,190.2C555.05,189.42 555.27,186.73 556.29,185.26C557.55,184.13 559.02,183.98 560.6,183.59C558.97,182.34 557.43,182.54 555.49,182.57C551.19,184.87 549.75,188.84 546.14,192.09C545.08,193.83 542.83,195.55 542.36,197.45C545.46,196.52 548.83,191.58 551.86,191.1C553.96,193.52 556.87,194.46 560.01,194.17C562.55,193.69 563.36,197.92 564.53,199.51C566.41,199.99 565.97,196.4 568.57,197.41C568.81,199 569.7,201.34 568.89,202.8C566.67,203.19 564.64,203.58 562.52,202.55C559.71,201.52 557.36,202.5 554.5,202.61C552.28,203.49 548.38,205.73 546.15,205.02C546.31,204.45 546.43,203.89 546.5,203.32C545.06,203.26 544,205.09 543.04,206C542,207.48 540.24,209.75 541.46,211.56C543.21,212.47 542.8,210.58 543.49,209.54C546.78,208.36 550.22,207.77 553.51,206.6C558.23,205.93 562.79,206.78 567.52,206.55C570.46,207.39 570.96,210.97 567.99,212.03C564.26,212.19 557.62,211.3 554.37,212.61C557.28,215.52 552.47,216.51 552.35,219.45L552.62,219.57C555.02,217.1 557.77,217.03 561,216.55C563.94,216.47 567.04,216.79 568.09,220C568.41,223.88 571.03,225.63 569.52,229.53C568.67,230.9 567.25,234.08 565.26,233.7C564.42,231.8 565.74,229.34 564.68,227.25C563.77,227.16 563.37,227.42 563.48,228.04C563.11,230.15 561.37,233.23 559.61,234.56C554.97,236.18 550.1,236.59 545.54,234.5C539.74,232.01 533.49,229.46 529.22,224.77C527.97,223.83 526.69,221.57 525.21,221.26C524.96,224.09 528.56,225.32 528.57,227.57C523.96,226.13 519,223.67 514.74,221.28C511.24,218.38 508.87,212.87 508.46,208.46L507.48,208.46C507.28,211.91 507.88,215.26 508.59,218.59L507.56,218.51C506.05,215.76 504.45,213.13 504.04,210C502.98,207.25 503.63,204.3 502.63,201.49C502.4,198.71 502.48,195.79 501.88,193.06C500.34,192.66 499.9,195.01 498.69,195.68C496.96,197.36 494.41,196.84 492.82,195.24C489.62,192.85 489.1,189.26 486.54,186.47C481.62,181.76 480.17,172.21 484.82,166.87C487.04,164.3 490.87,163.4 493.81,165.27C497.69,166.98 499.88,171.12 501.11,174.98C501.54,176.91 501.76,179.18 503.42,180.52C505.7,180.91 508.4,182.17 510.68,181.71C510.23,180.46 507.9,179.48 508.05,177.95C509.22,177.81 510.45,177.75 511.76,177.78C511.65,174.2 511.06,170.93 512.54,167.49C514.67,164.15 517.73,162.2 520.6,159.63C521.87,157.7 520.11,153.73 522.3,152.35C525.04,150.65 528.5,150.1 531.6,149.41C531.93,151.42 527.13,152.25 527.42,154.58C528.09,154.61 528.62,154.42 529.01,154.01C531.11,152.39 534.12,151.85 536.47,150.51C539.22,149.98 542.53,148.37 545.18,149.66C550.74,151.01 556.08,154.14 561.57,155.63C559.8,152.9 555.6,150.27 552.48,149.44L552.43,148.45Z" style="fill:rgb(246,246,241);fill-rule:nonzero;"/>
                        <path d="M404.49,152.55C407.54,151.63 411.37,153.27 414.5,153.59C417.78,155.1 422.7,154.88 424.11,158.8C421.38,158.51 418.74,158.53 416,158.56C415.05,158.37 414.29,158.81 413.72,159.87C409.63,158.78 405.65,157.48 401.45,156.47C401.09,154.93 403.53,153.54 404.49,152.55Z" style="fill:rgb(246,246,241);fill-rule:nonzero;"/>
                        <path d="M542.14,154.64C546.75,156.81 551.21,159.72 556,161.43C558.09,161.32 558.79,163.21 560.68,161.7C561.98,160.92 561.89,158.8 563.59,159.39C563.57,160.94 563.23,162.52 562.79,164C562.23,164.15 561.78,164.36 561.44,164.64C562.57,166.18 561.15,166.55 560.77,167.98C562.44,171.61 565.28,175.62 565.58,179.61C564.3,178.53 563.72,176.77 562.61,175.48C561.79,173.79 560.27,171.11 557.99,172.06C554.4,170.68 552.24,175.53 549,176.53C547.84,175.69 543.7,176.46 544.46,174.55C546.23,174.68 549.99,173.48 549.8,171.22C545.9,170.11 541.91,169.72 538.01,168.81C534.01,168.09 529.38,172.62 525.36,171.61C526.3,170.7 527.71,170.29 528.85,169.66C529.39,167.22 524.52,169.03 525.44,166.48C527.87,166.19 529.73,166.95 532.03,167.46C535.22,165.86 538.25,163.86 541.57,162.49C542.17,160.79 540.09,161.24 539.07,160.61C535.33,159.05 531.05,161.8 527.22,161.82L527.28,161.23C529.95,159.06 532.66,157.06 535.96,155.94C538.13,155.18 539.73,153.62 542.14,154.64Z" style="fill-rule:nonzero;"/>
                        <path d="M509.6,155.42C509.76,157.36 506.36,158.93 505.39,160.63C507.95,160.71 510.16,158.27 512.63,158.38C510.96,160.44 508.89,162.21 507.35,164.39C506.43,165.43 506,166.93 504.35,166.69C504.46,165.54 506.21,164.29 505.62,163.29L505,163.06C504.16,162.45 503.66,161.63 503.51,160.6L503.37,160.37C502.5,161.25 501.32,161.58 499.82,161.34C499.06,161.06 498.61,160.77 498.46,160.46C501.57,158.81 504.85,157.59 507.92,155.88C508.43,155.54 508.99,155.38 509.6,155.42Z" style="fill:rgb(246,246,241);fill-rule:nonzero;"/>
                        <path d="M657.31,155.68C661.13,161.12 664.59,166.88 667.37,172.93C677.06,191.06 682.24,211.22 683.46,231.66C683.33,236.08 683.7,240.63 683.12,245.01C682.09,247.09 682.82,249.67 682.45,252C681.46,257.86 680.95,263.63 678.77,269.18C677.82,268.94 677.43,267.99 677.57,266.31C674.46,268.88 675.63,272.47 675.41,276C675.53,277.26 675.12,277.99 674.17,278.2C673.96,269.55 674.01,260.64 672.81,252.01C671.82,247.05 672.04,241.74 670.44,236.94C668.29,225.01 664.53,213.27 659.77,202.14C657.17,196.35 654,190.8 651.51,184.99C652.78,182.51 654.32,179.61 655.99,177.44C659.23,181.27 661.94,186.53 664.13,190.97C667.33,198.76 670.74,206.22 672.63,214.5C675.17,221.14 675.82,228.03 677.3,234.9C677.62,238.09 677.53,241.29 677.62,244.49C678.51,246.15 678.44,247.76 678.49,249.58L679.51,249.57C679.6,247.25 679.23,244.53 680.38,242.48C680.43,238.5 680.41,234.49 680.39,230.51C678.77,228.11 680.35,224.22 679.05,222.03C679.24,218.95 678.17,216.07 677.86,213C677.31,208.17 675.43,203.79 674.52,199.05C672.48,191.27 668.82,184.43 665.86,177.04C662.8,170.66 659.03,164.71 655.42,158.63C654.72,157.78 655.91,153.9 657.31,155.68Z" style="fill:rgb(246,246,241);fill-rule:nonzero;"/>
                        <path d="M416,158.56C418.74,158.53 421.38,158.51 424.11,158.8C426.38,164.43 428.71,170.85 427.87,176.98C427.4,179.3 423.1,182.53 421.43,179.59C420.13,173.78 420.02,168.4 417.11,162.98C416.28,161.63 414.82,161.08 413.72,159.87C414.29,158.81 415.05,158.37 416,158.56Z" style="fill:rgb(143,0,24);fill-rule:nonzero;"/>
                        <path d="M398.01,159.59C400.97,160.55 404.07,161.07 407.01,162.04C409.65,163.41 412.15,162.72 413.13,166.03L412.72,166.53C410.46,165.04 408.27,166 405.85,165.33C403.94,164.69 402.14,164.91 400.51,163.55C398.24,163.43 395.79,163.41 393.52,163.58C392.18,164.69 390.28,165.19 389.67,163.08C391.79,160.21 394.38,158.91 398.01,159.59Z" style="fill:rgb(246,246,241);fill-rule:nonzero;"/>
                        <path d="M503.37,160.37L503.51,160.6C503.66,161.63 504.16,162.45 505,163.06C504.98,163.76 504.57,164.32 503.76,164.75C502.69,164.96 502.07,163.09 501.68,162.37C500.93,162.16 500.31,161.82 499.82,161.34C501.32,161.58 502.5,161.25 503.37,160.37Z" style="fill-rule:nonzero;"/>
                        <path d="M389.67,163.08C390.28,165.19 392.18,164.69 393.52,163.58C395.79,163.41 398.24,163.43 400.51,163.55C402.14,164.91 403.94,164.69 405.85,165.33C408.27,166 410.46,165.04 412.72,166.53L413.13,166.03C414.1,167.41 414.4,169.39 414.93,171C415.8,175.13 417.26,178.75 416.98,183C416.99,185.08 415.86,187.01 413.84,187.69C411.78,188.47 409.67,187.05 409.28,184.96C408.74,181.95 407.79,179.03 407.25,176.02C406.83,173.79 405.9,171.37 404.22,169.79C399.84,166.63 393.78,166.52 389.43,164.54C389.3,163.96 389.38,163.47 389.67,163.08Z" style="fill:rgb(143,0,24);fill-rule:nonzero;"/>
                        <path d="M445,162.98C446.93,162.9 449.46,162.39 450.4,164.59C451.49,166.07 450.63,167.42 449.73,168.7C446.27,172.8 441.43,175.99 438.37,180.35C437.51,181.56 437.04,183.15 435.94,184.1C433.35,187.41 431.78,191.08 429.59,194.66C427.98,197.07 427.73,199.63 424.95,200.95C424.23,202.27 423.45,203.47 423.31,205.01C423.03,206.41 421.3,207.64 421.94,209.02C421.27,210.56 420.09,210.97 418.68,211.64C416.64,212.48 415.7,214.06 413.26,213.72C413.66,211.78 416.86,211.26 416.58,209.43C413.35,210 410.39,213.31 407.03,214.11C402.11,216.2 397.56,215.26 392.34,215.41C393.51,217.63 398.73,217.06 398.83,219.69C396.62,220.19 394.19,220.01 391.97,219.64C390.66,215.79 387.36,213.85 385.66,210.22C383.7,207.67 384.03,204.08 382.65,201.14C381.09,194.21 381.77,187.97 381.5,181C381.35,177.69 383.94,174.14 386.85,172.75C390.24,171.7 394.71,173.3 397.94,172.04L398.24,171.17C401.36,171.5 402.8,174.81 403.49,177.46C404.34,181.13 406,185.17 405.6,188.96C405.32,191.27 403.55,194.08 401.01,194.21C398.84,194.47 396.92,192.87 396.12,190.97C395.28,188.6 396.77,186.55 395.57,184.43C394.71,182.82 394.14,181.14 393.52,179.44C391.61,179.09 392.8,180.99 390.99,181.3C388.66,181.35 386.5,178.79 384.4,179.38C385.19,181.07 386.6,181.86 387.83,183.17C388.61,185.7 384.28,184.16 383.02,185.1C383.03,186.97 387.28,187.41 388.6,188.4C387.68,190.12 385.02,191.72 384.43,193.66C386.74,194.15 388.37,191.71 390.21,193.82C392.83,197.26 395.68,200.06 399.99,201.22C401.74,201.49 403.06,200.49 404.69,200.36C406.65,201.86 405.96,205.39 406.39,207.61C409.99,204.54 410.58,198.47 414.17,195.2C416.83,192.77 420.19,191.35 422.74,188.72C424,187.42 425.03,186.57 426.97,187.16C427.84,187.18 429.07,188.82 429.67,188.44C429.64,187.02 429.05,185.81 429.45,184.41C430.21,182.25 431.73,180.86 432.87,178.95C434.96,175.91 432.26,172.28 434.89,168.95C437.37,166.15 441.09,163.11 445,162.98Z" style="fill:rgb(143,0,24);fill-rule:nonzero;"/>
                        <path d="M540.43,166.45C541.63,166.28 543.9,165.37 544.4,167C543.8,168.77 541.68,167.86 540.37,167.6L540.43,166.45Z" style="fill:rgb(246,246,241);fill-rule:nonzero;"/>
                        <path d="M388.1,167.74C391.48,168.91 394.95,169.75 398.24,171.17L397.94,172.04C394.71,173.3 390.24,171.7 386.85,172.75C383.94,174.14 381.35,177.69 381.5,181C381.77,187.97 381.09,194.21 382.65,201.14C384.03,204.08 383.7,207.67 385.66,210.22C387.36,213.85 390.66,215.79 391.97,219.64C389.23,219.58 385.49,216.03 383.07,216.98C382.52,218.53 385.21,218.69 386.13,219.54C383.85,219.19 382.43,219.8 381.55,221.96C381.52,225.65 381.48,229.35 381.55,233.04C382.67,234.33 382.37,235.56 382.99,237.03L384.83,237.5C387.08,239.04 389.48,240.05 391.89,241.28C394.78,241.98 397.55,242.33 400.49,242.63C403.84,243.72 407.01,242.1 410.66,242.4C409.58,244.11 407.39,243.47 405.5,244.44C399.29,245.48 393.08,245.55 386.91,244.23C383.98,242.95 379.75,242.71 377.39,240.63C377.17,235.86 377.52,230.94 377.78,226.17C374.7,227.45 372.76,233.39 370,235.43C368.53,235.21 365.68,232.36 365.13,230.99C368.04,225.34 372.19,220.03 375.48,214.55C375.65,213.06 375.6,211.71 376.37,210.37C377.53,210.23 378.73,210.14 379.97,210.08C380.27,207.84 378.88,205.34 378.76,203.01C377.98,200.09 379.06,196.74 377.83,194.01C377.51,189.03 377.57,184 377.5,179C377.53,176.72 377.25,174.7 378.71,172.76C380.34,170.72 382.75,169.22 384.96,167.87C385.86,167.2 387.11,167.36 388.1,167.74Z" style="fill:rgb(246,246,241);fill-rule:nonzero;"/>
                        <path d="M488.97,168.7C491.09,168.07 492.99,169.04 494.4,170.58C496.29,173.21 498,175.53 497.78,178.96C497.12,180.12 496.08,180.45 496.1,182C495.71,184.36 499.56,185.45 498.05,187.95C496.76,188.06 494.36,187.27 493.4,186.4C494.84,183.82 491.67,184.42 491,181.98C490.1,179.48 493.87,176.89 493.14,174.86C492.37,174.46 491.51,174.34 490.55,174.51C490.4,173.29 489.89,172.62 489.01,172.48C486.73,173.62 487.25,175.6 486.64,177.72L485.5,177.56C485.48,175.86 485.43,174.16 485.53,172.47C486.35,171.09 487.43,169.31 488.97,168.7Z" style="fill-rule:nonzero;"/>
                        <path d="M633.6,171.4C633.61,171.97 633.46,172.53 633.15,173.09C628.95,181.7 623.7,191.68 620.35,200.58C622.79,197.71 624.91,192.6 627.43,189.45C629.14,187.46 629.82,184.14 631.64,182.41C630.1,186.31 628.03,190.35 625.87,193.97C620.12,205.36 614.18,215.99 608.04,227.11C607.33,229.43 605.15,229.99 604.31,232.23C601.23,237.48 598.64,243.13 594.95,247.98C591.39,253.58 588.67,259.59 585.31,265.3C584.57,267.07 581.65,265.7 582.18,264.06C589.02,250.83 596.02,238.14 602.92,224.99C608.35,214.88 614.25,204.58 619.5,194.48C623.85,187.08 627.41,179.28 631.85,171.94C632.16,171.22 632.75,171.04 633.6,171.4Z" style="fill:rgb(246,246,241);fill-rule:nonzero;"/>
                        <path d="M473.64,174.38C473.69,176 473.55,177.49 472.92,179C472.54,182.1 472.48,185.64 473.32,188.66C475.3,188.18 474.66,182.7 476.75,182.12C477.02,185.12 476.75,188.62 478.57,191.01C477.65,193.75 475.15,197.54 473.29,199.64C472.69,196.75 472.76,193.86 472.1,190.99C471.47,189.25 470.69,187.64 470.36,185.8C469.33,184.65 468.41,183.65 468.67,181.97C469.61,179.21 471.7,176.47 473.64,174.38Z" style="fill:rgb(246,246,241);fill-rule:nonzero;"/>
                        <path d="M515.49,179.34C516.95,179.27 516.87,180.42 517.64,181.38C520.12,184.7 524.17,186.98 527.5,189.43C532.18,191.18 534.33,188.15 538.65,188.37C536.61,191.11 533.29,191.44 531.68,194.72C529.62,198.51 528.38,204.42 527.5,208.6L526.51,208.55C526.42,204.42 526.56,200.08 525.66,196.05C524.77,192.71 521.56,191.14 519.52,188.51C517.25,185.89 516.31,182.65 515.49,179.34Z" style="fill-rule:nonzero;"/>
                        <path d="M435.94,184.1C435.46,186.04 436.12,189.06 434.58,190.47C433.62,195.69 432.05,200.36 428.14,204.13C426.19,205.74 424.4,208.3 421.94,209.02C421.3,207.64 423.03,206.41 423.31,205.01C423.45,203.47 424.23,202.27 424.95,200.95C427.73,199.63 427.98,197.07 429.59,194.66C431.78,191.08 433.35,187.41 435.94,184.1Z" style="fill:rgb(246,246,241);fill-rule:nonzero;"/>
                        <path d="M439.27,196.36C444.05,196.56 448.84,196.19 453.62,196.49C454.35,197.18 455.13,197.8 455.96,198.34C457.86,198.51 459.44,197.95 460.98,199.33C462.62,199.09 464.13,200.08 465.62,199.47C466.2,199.94 466.5,200.47 466.52,201.05C466.59,203.46 467.5,205.64 467.81,208C466.42,209 464.54,208 463.03,209.11C458.63,212.51 455.88,217.93 451.99,221.98C450.36,224.37 447.69,225.68 447.62,228.64C445.57,229.37 443.63,229.51 441.48,229.53C439.59,231.87 436.96,232.79 434,232.74C430.24,236.31 423.64,237.11 419.32,239.55C418.6,237.35 418.89,235.28 418.86,233C419.03,227.8 419.11,221.95 420.95,217.02C425.37,213.88 430.67,210.77 434.1,206.05C435.25,204.57 436.17,202.94 437.35,201.48C437.64,199.77 438.08,197.7 439.27,196.36Z" style="fill:rgb(246,246,241);fill-rule:nonzero;"/>
                        <path d="M487.48,199.41L488.45,199.5C489.5,201.36 491.19,202.87 493.03,203.92C494.48,204.75 496.19,204.49 497.53,205.43C497.65,214.72 500.49,223.17 502.88,232.01C505,238.54 506.49,245.5 509.62,251.63C509.17,246.61 508.71,241.25 507.37,236.41C509.12,237.73 509.53,240.82 510.62,242.62C511.5,238.78 509.06,236.2 509.38,232.38C514.27,237.17 519.39,241.95 523.63,247.34C524.37,248.68 525.76,250.46 525.37,252.03C523.26,254.42 521.45,256.94 519.57,259.5C518.3,262.62 520.37,266.32 519.69,269.69C518.26,269.14 517.5,266.64 516.48,265.49C512.62,261.08 508.29,257.84 504,253.94C502.89,252.98 501.86,252.07 501.36,250.64C498.63,249.41 496.47,246.69 494.44,244.54C492.4,242.6 494.2,240.42 492.86,238.01C492.3,231.81 492.59,225.59 491.6,219.35C490.42,220.8 490.58,222.27 490.34,224C489.67,227.01 488.82,229.92 488.61,233.02C488.6,234.38 488.2,235.42 487.6,236.62C486.47,236.34 485.62,234.95 484.79,234.18C481.3,229.93 478.05,225.46 474.87,220.97C474.03,219.59 475.64,217.43 476.19,216.07C476.97,213.67 478.33,210.89 480.5,209.47C483.59,206.98 486.74,203.41 487.48,199.41Z" style="fill:rgb(246,246,241);fill-rule:nonzero;"/>
                        <path d="M537.64,202.42C537.52,204.39 536.05,205.99 535.75,207.99C534.75,211.69 536.73,214.36 537.48,217.67C536.84,217.65 536.34,217.43 535.97,217.04C533.76,214.46 532.8,211.18 533.85,207.89C534.86,206.2 536.09,203.56 537.64,202.42Z" style="fill-rule:nonzero;"/>
                        <path d="M386.13,219.54C387.74,219.94 388.95,220.74 390.3,221.65C394.91,223.5 399.62,224.95 404.6,225.38C402.9,226.69 399.38,226.69 397.42,227.43C397.09,229.34 396.62,231.05 396.96,232.98C397.28,234.68 400.39,235.29 400.63,236.73L399.58,237.5C396.41,237.7 393.18,237.94 390,237.81C388.26,237.45 386.6,237.14 384.83,237.5L382.99,237.03C382.37,235.56 382.67,234.33 381.55,233.04C381.48,229.35 381.52,225.65 381.55,221.96C382.43,219.8 383.85,219.19 386.13,219.54Z" style="fill:rgb(143,0,24);fill-rule:nonzero;"/>
                        <path d="M679.05,222.03C680.35,224.22 678.77,228.11 680.39,230.51C680.41,234.49 680.43,238.5 680.38,242.48C679.23,244.53 679.6,247.25 679.51,249.57L678.49,249.58C678.44,247.76 678.51,246.15 677.62,244.49C677.53,241.29 677.62,238.09 677.3,234.9C679.27,235.85 677.21,241.19 678.81,241.74C679.52,235.25 678.38,228.5 679.05,222.03Z" style="fill-rule:nonzero;"/>
                        <path d="M458.96,233.04C460.21,234.75 461.2,236.11 463.43,236.58C463.84,238.89 465.78,240.13 467.16,241.9C469.15,244.51 471.22,247.03 473.4,249.48C474.07,252.25 476.55,254.9 476.66,257.73C474.05,256.63 471.85,253.29 469.55,251.49C468.71,251.23 468.18,251.38 467.95,251.95C465.18,248.31 463.5,243.63 461.47,239.56C460.54,237.36 459.31,235.45 458.96,233.04Z" style="fill:rgb(143,0,24);fill-rule:nonzero;"/>
                        <path d="M446.99,236.93C450.49,238.48 453.55,241.14 455.75,244.26C462.09,252.69 465.7,261.52 470.09,270.91C470.71,272.51 471.77,273.56 471.59,275.39C470.63,273.59 469.07,272 468.32,269.92C466.81,266.4 464.21,263.52 462.66,260.07C462.5,259.33 461.99,258.87 461.15,258.69C461.81,254.96 458.77,256.83 458.53,253.46C457.04,253.52 456.27,252.67 454.94,252.37C453.17,252.1 452.95,252.92 451.89,254.05C450.89,253.53 450.16,252.44 449.37,251.63C445.66,247.49 441.52,243.88 436.45,241.49L436.47,240.54C439.87,239.53 443.51,237.35 446.99,236.93Z" style="fill:rgb(246,246,241);fill-rule:nonzero;"/>
                        <path d="M539.52,251.48C541.96,254.44 544.58,257.2 547.17,260.02C548.24,263.15 548.28,266.39 549.36,269.52C549.62,271.18 549.55,272.92 549.56,274.6L548.52,274.55C547.8,272.13 546.33,270.03 545.36,267.69C544.79,266.99 544.31,264.72 543.15,265.15C539.58,271.63 536.33,278.39 533.28,285.13C532.68,286.3 532.61,287.88 531.39,288.61C532.87,279.06 534.29,269.66 532.65,259.96C534.08,257 536.49,254.86 538.04,251.98C538.25,251.42 538.74,251.25 539.52,251.48Z" style="fill:rgb(246,246,241);fill-rule:nonzero;"/>
                        <path d="M454.94,252.37C456.27,252.67 457.04,253.52 458.53,253.46C458.77,256.83 461.81,254.96 461.15,258.69C459.54,258.87 459.46,260.8 458.89,262C459.11,262.55 459.33,263.1 459.54,263.65C458.82,263.69 458.38,263.47 458.2,262.99C456.46,259.92 452.98,257.35 451.89,254.05C452.95,252.92 453.17,252.1 454.94,252.37Z" style="fill:rgb(143,0,24);fill-rule:nonzero;"/>
                        <path d="M388.18,255.23C390.22,254.93 391.97,258.15 391.32,259.85C392.57,260.36 393.67,260.13 394.51,261.36C394.44,261.81 394.37,262.25 394.28,262.69C396.73,264.42 398.56,266.38 397.33,269.53C397.84,269.29 398.36,269.16 398.89,269.14C399.9,269.86 400.83,270.68 401.92,271.3C401.14,271.86 400.11,272.95 399.12,272.85C397.99,271.98 397.72,271.79 396.43,272.57C396.18,271.02 395.31,270.69 394.3,269.69C393.69,268.19 393.49,267.69 392,266.94C390.52,266.25 390.83,264.68 390.68,263.32C388.77,262.41 389.2,261.94 389.12,260.01C388.4,258.22 385.82,256.96 388.18,255.23Z" style="fill:rgb(143,0,24);fill-rule:nonzero;"/>
                        <path d="M677.57,266.31C677.43,267.99 677.82,268.94 678.77,269.18C678.97,271.66 677.54,274.56 676.76,276.93C675.72,278.69 675.38,282.84 673.3,283.67C672.99,281.93 672.93,279.62 674.17,278.2C675.12,277.99 675.53,277.26 675.41,276C675.63,272.47 674.46,268.88 677.57,266.31Z" style="fill:rgb(143,0,24);fill-rule:nonzero;"/>
                        <path d="M561.05,270.97C561.81,272.64 560.68,275.27 560.04,276.94C558.1,278.75 556.56,280.49 555.73,283.07C553.65,283.26 554.07,287.38 551.19,286.19C549.76,281.59 553.82,279.15 554.93,275.03C556.05,272.66 558.14,270.01 561.05,270.97Z" style="fill:rgb(246,246,241);fill-rule:nonzero;"/>
                        <path d="M565.4,273.42L566,272.91C568.48,272.75 570.9,272.19 572.8,274.22C574.77,276.26 577.02,277.81 578.95,279.86C576.07,280.02 574.6,277.97 571.95,277.38C569.89,276.67 568.06,277.44 566.01,277.25C564.56,276.73 564.82,274.51 565.4,273.42Z" style="fill:rgb(143,0,24);fill-rule:nonzero;"/>
                        <path d="M555.73,283.07C555.79,284.91 556.49,287.42 554.54,288.52C552.94,288.84 551.73,287.58 551.19,286.19C554.07,287.38 553.65,283.26 555.73,283.07Z" style="fill:rgb(143,0,24);fill-rule:nonzero;"/>
                        <path d="M596.1,284.1C597.54,283.76 598.18,285.99 599.66,285.96C600.22,288.89 599.57,291.59 600.45,294.44C601.32,297.48 602.24,300.36 604.31,302.83C605.55,302.63 606.17,301.84 607.55,302.43C608.19,303.5 609.15,304.71 609.15,305.99C608.74,307.81 607.22,307.86 605.98,308.85C603.3,309.57 600.08,309.14 597.4,308.51C596.34,307.35 596.26,306.7 596.55,305.23C595.03,302.51 595.08,301.99 596.27,299.13C596.98,295.16 596.99,290.04 594.21,286.87C593.93,285.75 595.33,284.71 596.1,284.1Z" style="fill:rgb(143,0,24);fill-rule:nonzero;"/>
                        <path d="M496.77,301.13L497.98,302.4C498.47,304.59 496.42,305.45 494.52,305.3C494.03,306.52 493.32,308.17 492.19,308.91C492.97,306.51 489.67,304.46 493.58,303.52C492.49,303.29 491.82,302.79 491.58,302C493.06,298.82 493.77,302.74 496.77,301.13Z" style="fill:rgb(143,0,24);fill-rule:nonzero;"/>
                    </g>
                </g>
            </g>
        </g>
    </g>
</svg>
