<?xml version="1.0" encoding="UTF-8" standalone="no"?>
<!DOCTYPE svg PUBLIC "-//W3C//DTD SVG 1.1//EN" "http://www.w3.org/Graphics/SVG/1.1/DTD/svg11.dtd">
<svg width="100%" height="100%" viewBox="0 0 493 308" version="1.1" xmlns="http://www.w3.org/2000/svg" xmlns:xlink="http://www.w3.org/1999/xlink" xml:space="preserve" xmlns:serif="http://www.serif.com/" style="fill-rule:evenodd;clip-rule:evenodd;stroke-linejoin:round;stroke-miterlimit:2;">
    <g transform="matrix(1,0,0,1,-10.14,-182.23996)">
        <g>
            <path d="M250.09,182.95C256.64,182.19 263.39,181.9 269.94,182.79C277.04,184.1 284.08,186.44 290.73,189.23C297.25,192.06 303.64,196.35 308.01,202.03C312.22,207.69 311.82,214.36 315.87,220.05C321.42,228.03 327.42,234.46 330.09,244.18C331.36,248.4 331.39,253.63 333.67,257.41C336.79,261.39 340.29,264.11 341.33,269.39C342.11,275.49 341.01,281.85 341.26,288.01C341.28,293.94 343.16,299.01 342.41,305C341.68,308.89 338.9,312.06 336.43,314.99C336.9,316 337.37,317.03 337.84,318.05C342.62,311.67 346.17,304.66 349.57,297.49C351.55,293.3 353.48,289.04 356.33,285.36C358.8,282.06 361.74,279.3 364.47,276.25C365.04,275.53 366,274.74 365.24,273.79C362.62,271.39 359.7,269.29 356.96,267.02C368.7,253.02 380.94,239.43 392.77,225.51C393.5,224.69 394.17,223.94 395.3,224.67C397.85,226.72 400.15,229.06 402.75,231.06C405.29,228.93 407.59,226.18 411.17,226.15C415.67,225.88 420.27,229.71 423.61,232.37C428.91,237.15 435.16,241.88 438.99,247.96C441.72,252.23 440.59,256.41 439.19,260.87C445.22,265.66 451.63,269.89 458.34,273.66C465.25,277.5 472.03,281.51 479.23,284.79C486.83,288.6 494.83,291.3 502.59,294.76C501.12,299.73 499.86,304.75 498.45,309.74C492.34,327.04 482.49,342.61 467.39,353.4C459.48,359.72 450.85,364.64 441.5,368.52C438.77,369.58 435.93,371.34 433,371.58C429.82,362.51 427.56,353.28 423.68,344.42C419.93,335.24 414.66,327.03 409.21,318.8C406.52,314.86 403.52,311.17 400.38,307.59C391,318.14 381.82,328.84 372.1,339.09C359.3,353.26 345.52,366.39 331.46,379.29C331.91,388.86 330.65,397.2 327.3,406.15C344.25,421.5 360.78,436.98 375.11,454.9C378.28,458.94 382.16,462.9 384.41,467.55C386.59,472.05 385.58,477.55 382.13,481.12C377.3,486.41 369.62,488.54 362.8,489.75C356.69,491.01 349.89,489.77 344.69,486.29C340.92,483.77 339,478.78 337.41,474.72C331.5,457.96 320.81,443.2 307.28,431.74C303.48,435.11 299.66,438.52 295.66,441.67C295.58,439.78 295.5,437.88 295.41,435.99C291.93,439.07 288.56,442.07 284.58,444.52C275.38,449.95 265.72,454.58 256.8,460.34C248.23,455.55 239.71,450.66 231.14,445.87C226.11,443.11 222.09,439.48 217.66,435.89C217.58,437.79 217.5,439.68 217.42,441.58C213.34,438.46 209.72,434.87 205.99,431.34C194.41,441.66 184.41,452.99 178.27,467.41C175.65,472.84 174.18,479.77 170.28,484.32C166.15,488.94 159.93,490.11 153.99,490.12C146.68,489.72 138.68,487.75 132.79,483.21C129.52,480.74 127.1,477.26 127.28,473.01C127.11,469.18 128.84,466.1 131.04,463.13C136.31,456.19 142.48,449.75 148.11,443.09C151.68,439 155.38,435.06 159.27,431.27C165.96,424.7 172.1,418.21 179.24,412.25C181.4,410.38 183.7,408.57 185.62,406.45C185.68,403.57 184.04,400.64 183.52,397.79C181.83,391.63 182.69,385.47 181.28,379.25C179.95,377.75 178.39,376.43 176.9,375.09C160.22,360.22 145.42,344.06 130.41,327.58C124.13,321.12 118.44,314.15 112.29,307.57C106.54,314.27 101.61,321.54 97.02,329.06C88.75,342.68 84.27,357.07 79.51,372.11C70.98,368.53 62.08,364.71 54.28,359.7C41.39,351.43 29.92,341.14 22.36,327.65C16,317.46 12.86,306.38 10.14,294.8C21.05,290.89 31.47,285.98 41.82,280.8C52.9,274.66 63.83,268.85 73.75,260.87C72.66,257.28 71.14,252.68 73.28,249.19C77.16,242.19 84.4,236.54 90.48,231.47C93.75,229.02 97.52,225.65 101.88,226.14C105.28,226.23 107.8,229.03 110.22,231.09C113.04,228.88 115.64,226.44 118.21,223.94C131.14,237.87 143.35,252.5 155.89,266.78C152.98,269.35 149.98,271.8 146.99,274.27C150.73,278.9 155.17,283.17 158.65,288.24C161.47,292.9 163.36,298.09 165.99,302.87C168.88,308.6 172.39,313.91 176.18,319.07C176.4,317.55 176.62,316.02 176.82,314.49C174.63,312.01 172.43,309.91 171.43,306.65C169.19,300.64 172.43,293.28 172.41,286.94C172.67,280.69 170.22,274.3 172.44,268.23C173.79,264.12 176.59,261.47 179.48,258.43C181.34,256.64 181.39,254.03 181.96,251.66C183.6,243.32 186.39,235.35 191.3,228.36C193.95,224.43 197.85,220.87 199.57,216.48C201.3,212.08 202.14,207.68 204.59,203.54C207.2,198.86 211.28,195.41 216,192.97C226.41,187.42 238.45,184.46 250.09,182.95Z" style="fill:rgb(2,2,2);fill-rule:nonzero;"/>
            <path d="M256.61,191.02C255.61,194.36 254.74,197.72 254.19,201.16C257.4,198.05 260.16,193.76 264.02,191.49C269.15,190.74 274.89,192.62 279.73,194.25C286.04,196.66 292.98,199.41 298.12,203.89C301.64,206.99 302.74,210.91 304.43,215.1C299.98,213.31 295.66,211.27 291.06,209.85C299.94,217.35 308.49,224.1 315.33,233.72C319.24,239.23 321.59,245.54 322.85,252.14C319.59,250.75 316.46,249.11 313.29,247.53C279.23,232.3 239.2,231.43 204.68,245.74C199.99,247.63 195.51,249.96 190.86,251.92C192.41,244.3 195.52,237.46 200.16,231.23C206.55,222.74 214.66,217.01 222.26,209.92C217.72,211.26 213.51,213.31 209.22,215.27C210.39,211.82 211.39,208.56 213.66,205.65C215.77,202.94 218.75,201.31 221.77,199.81C232.71,194.56 244.54,191.87 256.61,191.02Z" style="fill:rgb(143,0,24);fill-rule:nonzero;"/>
            <path d="M99.63,234.69C101.14,233.7 102.1,234.72 103.42,235.46C103.89,237.07 102.55,237.51 101.65,238.57C96.38,243.42 90.88,247.85 85.33,252.35C83.7,253.68 81.91,254.74 80.03,255.69C80.4,253.34 80.73,251.25 82.45,249.48C87.46,243.9 93.16,238.54 99.63,234.69Z" style="fill:white;fill-rule:nonzero;"/>
            <path d="M411.99,234.22C418.44,237.63 424.2,242.58 429.12,247.92C431.35,250.27 432.31,252.75 432.8,255.91C424.14,250.28 416.21,243.2 408.76,236.07C409.83,235.45 410.9,234.81 411.99,234.22Z" style="fill:white;fill-rule:nonzero;"/>
            <path d="M117.23,235.26C126.93,244.97 135.6,255.79 144.69,266.07C131.44,277.59 117.23,289.5 105.99,303C96.38,314.23 88.38,326.91 82.53,340.49C79.36,347.25 77.24,354.33 74.6,361.29C53.33,352.79 34.24,336.19 24.6,315.23C22.16,310.26 20.89,304.99 19.38,299.7C21.92,298.53 24.49,297.46 27.09,296.43C32.47,311.47 40.02,325.19 52.12,335.87C57.49,340.4 63.36,345 70.02,347.38C66.3,343.95 62.43,340.72 58.94,337.06C46.75,324.96 38.53,310.03 33.25,293.78C39.32,290.66 45.56,287.94 51.5,284.55C64.95,277.03 77.65,268.33 89.58,258.59C99.38,251.45 108.04,243.14 117.23,235.26Z" style="fill:rgb(143,0,24);fill-rule:nonzero;"/>
            <path d="M395.46,235.39C414.62,251.75 432.51,267.77 454.51,280.49C462.56,285.57 471.21,289.35 479.59,293.81C477.42,300.36 475.2,306.79 471.82,312.85C466.96,322 460.61,330 453.43,337.43C449.81,341.22 445.68,344.39 441.89,347.98C451.59,343.8 460.28,337.15 467.29,329.29C475.81,319.73 481.32,308.51 485.73,296.59C488.16,297.52 490.6,298.46 493.03,299.41C491.67,309.06 486.82,318.54 481.7,326.73C471.26,342.89 455.77,353.74 438.36,361.37C434.05,349.35 429.89,337.59 423.37,326.53C414.48,310.97 402.33,296.94 389.36,284.65C382.41,278.32 375.24,272.23 368.14,266.08C377.19,255.85 385.79,245.03 395.46,235.39Z" style="fill:rgb(143,0,24);fill-rule:nonzero;"/>
            <path d="M284.32,246.32C286.33,251.68 286.57,256.99 286.85,262.63C289.36,257.69 289.71,252.62 289.49,247.17C294.18,248.61 299.56,249.74 303.71,252.41C307.74,260.27 306.35,270.68 306.65,279.24C307.88,276.22 309.05,273.22 309.76,270.03C310.93,265.25 310.53,259.86 310.73,254.95C314.61,256.8 319.95,259.1 321.37,263.57C323.24,269.19 323.04,275.82 323.71,281.68C325.98,276.05 326.59,270.21 326.75,264.19C330.41,266.93 333.29,270.09 333.35,274.94C333.17,280.21 331.91,285.16 332.76,290.51C333.7,295.73 333.97,300.78 333.21,306.05C329.83,305.64 327.26,303.99 324.53,302.1C325.7,297.09 325.42,293.86 323.94,288.96C322.81,291.76 322.14,295.08 320.38,297.56C319.68,298.31 318.99,298.49 318.32,298.11C315.27,297.07 312.36,295.66 309.31,294.6C302.17,291.97 295,290.72 287.42,288.79C287.64,284.13 287.31,280.17 286.05,275.66C284.74,279.38 284.08,284.17 280.61,286.52C279,287.97 276.42,287.46 274.43,287.39C262.7,286.04 250.69,286.4 238.94,287.35C236.38,287.36 233.23,287.89 231.44,285.58C229.38,282.75 228.8,278.71 227.68,275.43C226.15,279.85 226.28,284.28 226.44,288.87C214.75,290.31 204.88,294.95 193.84,298.61C191.9,295.45 191.13,291.92 189.61,288.58C188.06,293.26 188.7,297.73 188.55,302.5C187.18,303.81 185.54,305.1 183.72,305.71C181.43,306.26 179.36,304.06 179.59,301.85C179.66,296.58 181.36,291.34 181.29,286.07C180.99,281.65 179.95,277.01 180.55,272.28C181.19,268.82 184.66,266.16 187.17,264.01C187.26,270.4 187.52,276.33 190.08,282.29C190.82,275.04 189.76,268.07 193.2,261.08C195.51,258.33 199.51,256.73 202.6,255.02C202.49,263.1 203.36,271.04 206.48,278.56C206.84,270.24 206.35,259.86 209.86,252.1C214.34,249.84 219.42,248.51 224.25,247.2C224.38,251.82 223.86,256 226.07,260.28C227.21,255.61 227.86,250.9 229.46,246.34C247.41,242.22 266.36,242.15 284.32,246.32Z" style="fill:white;fill-rule:nonzero;"/>
            <path d="M262.39,252.42C267.58,253.19 271.52,256.29 274.74,260.27C272.22,260.33 269.57,260.56 267.08,260.14C263.2,259.18 260.22,257.02 256.03,257.71C252.08,258.29 247.8,260.43 247.54,264.92C249.14,269.94 256.07,271.97 260.74,270.78C264.34,270.18 265.94,267.67 268.69,265.68C270.81,265.16 273.19,265.48 275.36,265.47C274.19,268.25 273.28,270.84 270.78,272.74C265.38,277 257.38,277.7 250.94,275.83C245.25,274.25 242.23,268.82 238.36,264.81C241.67,261.47 244.15,256.53 248.09,254.09C252.29,251.87 257.78,251.82 262.39,252.42Z" style="fill:rgb(2,2,2);fill-rule:nonzero;"/>
            <path d="M141.46,280.47C143.14,281.77 144.5,283.52 145.97,285.05C152.33,291.71 155.84,300.88 160.11,308.91C163.66,315.89 168.59,322.44 173.44,328.57C176.82,332.16 175.85,338.06 177.41,342.73C178.73,348.56 182.05,352.91 185.47,357.6C185.57,361.57 183.56,365.78 182.56,369.61C159.02,348.53 138.45,325.06 117.6,301.43C118.75,300.3 119.91,299.16 121.06,298.03C127.31,304.77 132.96,312.03 139.34,318.65C147.09,327.46 155.54,335.75 164.1,343.81C160.84,339.46 157.45,335.21 153.94,331.06C144.02,318.85 134.36,306.34 125.63,293.25C129.95,289.28 134.3,285.34 138.69,281.46C139.48,280.87 140.4,279.88 141.46,280.47Z" style="fill:white;fill-rule:nonzero;"/>
            <path d="M372.07,279.6C377.26,283.99 381.99,288.9 387.25,293.23C375.65,311.1 361.64,327.51 348.37,344.17C353.58,339.45 358.67,334.61 363.51,329.51C373.54,319.57 382.1,308.22 391.87,298.04C392.93,299.29 393.99,300.54 395.03,301.8C383.78,314.29 372.85,327.05 361.07,339.06C351.49,349.74 341.27,359.79 330.61,369.39C329.61,365.84 328.14,361.9 328.22,358.19C328.25,356.78 329.57,355.46 330.28,354.29C333.71,349.75 336.01,344.62 336.83,338.98C337.69,335.28 336.9,331.94 339.14,329.12C343.3,323.53 347.51,318.2 350.98,312.1C353.59,307.27 355.99,302.32 358.42,297.4C361.58,290.73 366.91,284.8 372.07,279.6Z" style="fill:white;fill-rule:nonzero;"/>
            <path d="M277.28,295.69C274.27,298.15 271.24,300.6 268.21,303.05C274.01,301.79 279.37,299.25 285.1,297.81C288.29,296.9 291.98,298.13 295.14,298.86C299.36,300.05 304.6,301.12 308.02,303.98C312.21,307.15 314.22,313.04 313.29,318.14C312.13,319.29 310.69,320.24 309.36,321.2C310.77,324.45 312.95,327.72 313.67,331.18C313.54,337.65 308.91,344.05 304.17,348.16C302,350.26 298.66,352.5 297.74,355.47C297.1,361.49 298,366.99 298.45,372.82C294.13,368.45 288.82,365.13 286.59,359.51C283.87,353.46 279.74,347.04 272.91,345.3C271.51,344.67 268.11,344.61 268.63,342.38C269.84,337.22 269.6,332.13 269.27,326.9C274.94,330.73 281,333.4 288.02,332.85C293.25,332.47 300.39,331.18 302.25,325.42C297.72,326.97 295.58,330.57 291.06,330.51C285.2,330.81 280.28,328.83 275.7,325.33C280.59,324.95 285.97,325.88 290.3,323.34C292.69,322.01 295.04,320.97 297.71,320.3C297.03,321.94 296.29,323.56 295.5,325.15C298.33,323.38 301.22,321.71 303.95,319.78C301.04,316.97 297.63,315.03 294.12,313.07C296.77,312.15 299.03,311.02 301.92,311.23C305.04,311.49 308.14,312.79 311.14,313.65C308.36,310.03 305.78,306.64 301.83,304.2C299.77,302.97 297.66,301.83 295.23,302.85C287.49,305.92 280.27,310.33 272.59,313.56C270.75,314.32 267.79,315.21 265.99,314.01C264.01,312.49 263.33,309.3 262.32,307.11C261.71,308.38 261.1,309.64 260.48,310.9C259.3,309.94 258.12,308.98 256.93,308.03C258.15,313.45 260.34,316.65 264.26,320.45C263.01,320.4 261.76,320.35 260.51,320.3C264.91,331.26 262.89,341.3 263.69,352.69C265.22,350.56 266.44,348.31 267.57,345.94C267.88,345.06 268.57,344.51 269.63,344.29C271.73,347.46 273.67,350.48 274.02,354.37C270.69,355.89 267.53,356.59 264.79,358.76C262.21,360.66 260.37,362.75 256.91,362.77C253.53,363.07 251.13,360.16 248.56,358.42C245.81,356.22 242.54,355.81 239.16,354.22C239.98,350.46 241.88,347.4 243.91,344.21C240.06,345.48 236.51,346.61 233.51,349.5C230.31,352.74 228.1,357.13 226.1,361.19C224.16,366.26 218.72,368.4 215.32,372.82C215.2,367.82 216.36,362.92 216.28,357.96C215.9,353.48 212.52,351.28 209.58,348.4C204.46,343.79 200.69,337.92 199.54,331.05C200.66,327.51 202.63,324.19 204.28,320.86C202.95,320.13 201.62,319.38 200.3,318.61C199.91,313.39 201.05,308.48 204.51,304.46C206.85,302.35 210.53,301.59 213.41,300.43C218.16,298.8 223.93,296.77 228.97,297.59C234.4,299.06 239.59,301.33 245.01,302.84C242.45,300.48 239.69,298.31 237.25,295.82C250.59,294.05 263.92,294.36 277.28,295.69Z" style="fill:white;fill-rule:nonzero;"/>
            <path d="M215.1,302.57C217.41,302.1 219.82,303.21 221.87,304.16C228.29,307.41 234.69,310.83 241.31,313.65C243.34,314.46 245.97,315.3 248.01,314.09C249.89,312.52 250.37,309.29 251.14,307.06C251.82,308.33 252.49,309.61 253.14,310.89C254.1,310.07 255.07,309.26 256.04,308.45C255.17,313.23 253.08,316.28 249.72,319.66C250.77,319.96 251.82,320.25 252.87,320.55C249.93,325.61 248.56,330.21 247.91,336.03C246.75,332.8 245.85,329.59 245.14,326.24C239.74,329.76 234.72,332.93 228.01,332.88C222.27,333.23 217.31,331.39 212.42,328.58C212.45,327.59 212.48,326.6 212.51,325.61C215.6,327.52 217.8,329.81 221.58,330.29C227.7,331.12 232.79,328.67 237.7,325.32C233.06,325.01 228.35,325.93 224.16,323.77C221.5,322.49 218.87,321.26 216.02,320.46C216.46,322 216.94,323.51 217.46,325.02C214.9,323.22 212.23,321.62 209.58,319.95C212.57,317.19 215.77,315.03 219.3,313.03C216.49,312.16 214.03,311 211.02,311.31C208.2,311.68 205.45,312.73 202.71,313.46C205.69,308.6 209.67,304.57 215.1,302.57Z" style="fill:rgb(2,2,2);fill-rule:nonzero;"/>
            <path d="M184.77,320.28C185.76,321.58 187.02,322.87 187.69,324.39C187.98,327.63 187.11,331.05 187.57,334.32C188.55,335.42 189.77,336.34 190.88,337.32C190.85,341.38 190.87,345.41 190.22,349.44C183.72,340.68 183.83,330.66 184.77,320.28Z" style="fill:white;fill-rule:nonzero;"/>
            <path d="M329.14,320.57C329.9,330.22 329.83,341.99 322.86,349.57C322.25,344.08 322.41,338.59 322.5,333.07C323.54,334.02 324.58,334.96 325.64,335.89C325.95,332.1 325.41,328.33 325.57,324.55C326.48,323.06 327.91,321.8 329.14,320.57Z" style="fill:white;fill-rule:nonzero;"/>
            <path d="M197.62,350.51C198.92,354.89 199.12,359.53 200.31,363.95C201.25,368.22 202.91,372.18 204.58,376.2C205.63,374.79 206.66,373.38 207.74,372C209.83,378.78 211.27,385.67 213.94,392.27C215.71,385.53 218.18,379.17 222.94,373.94C226.81,369.72 233.52,367.85 238.7,365.58C240.59,364.97 243.46,363.34 245.33,364.57C249.51,366.75 252.71,369.96 257.82,369.49C262.47,369.25 265.88,364.96 270.01,364.15C276.05,365.62 282.25,368.34 287.71,371.33C294.45,375.93 297.44,385 299.86,392.37C302.27,385.52 303.77,378.44 306.03,371.55C307,373.32 307.96,375.1 308.92,376.88C312.62,368.02 314.61,359.07 315.88,349.58C317.71,355.96 319.13,362.45 320.68,368.91C322.67,377.57 321.44,386.35 318.12,394.52C316.82,391.48 315.66,388.57 313.63,385.91C313.12,391.69 312.58,397.33 310.67,402.85C308.61,409.35 304.97,414.96 300.67,420.2C300.36,416.24 299.78,412.38 298.45,408.62C296.8,413.61 295.79,418.57 293.08,423.16C289.82,429.2 284.76,433.23 279.07,436.83C280.52,431.94 281.8,427.25 281.79,422.08C279.68,425.44 277.74,429.11 275.1,432.09C270.18,437.88 262.86,441.74 256.77,446.48C252.04,443.56 247.44,440.38 243.15,436.83C238.08,432.48 235.21,427.24 231.32,422C231.9,427.14 233.1,432.1 234.53,437.05C229.08,433.03 223.32,428.96 220.27,422.71C217.77,418.05 216.6,413.06 214.95,408.1C213.84,412.23 213.33,416.14 213.19,420.41C211.15,417.93 209.13,415.38 207.4,412.68C202.28,404.29 200.3,394.81 200.23,385.06C198.18,388.14 196.78,391.51 195.28,394.88C193.62,389.66 192.01,384.61 192.22,379.04C191.74,371.13 194.05,364.05 195.75,356.45C196.23,354.42 196.76,352.42 197.62,350.51Z" style="fill:rgb(143,0,24);fill-rule:nonzero;"/>
            <path d="M205.46,352.85C207.4,354.61 209.35,355.99 210.4,358.48C211.5,360.82 211.42,363.2 211.55,365.72C209.89,364.68 208.03,363.73 206.61,362.38C205.34,359.23 205.47,356.18 205.46,352.85Z" style="fill:white;fill-rule:nonzero;"/>
            <path d="M308.38,352.82C308.03,355.91 307.81,359.13 306.98,362.14C305.71,363.52 303.88,364.47 302.31,365.48C302.36,363.49 302.28,361.41 302.66,359.46C303.49,356.7 306.32,354.63 308.38,352.82Z" style="fill:white;fill-rule:nonzero;"/>
            <path d="M234.33,355.04C235.23,356.68 236.05,358.35 236.88,360.02C234.02,361.09 231.15,362.11 228.22,362.97C230.03,360.15 232.04,357.49 234.33,355.04Z" style="fill:white;fill-rule:nonzero;"/>
            <path d="M278.87,354.89C281.4,357.28 283.32,359.99 285.31,362.82C282.41,362.09 279.59,361.1 276.79,360.05C277.48,358.33 278.13,356.59 278.87,354.89Z" style="fill:white;fill-rule:nonzero;"/>
            <path d="M273.8,378.3C276.11,379.28 278.31,378.09 280.56,378.61C284.29,380.24 287,382.88 289.67,385.88C288.87,386.53 288.08,387.2 287.31,387.88C287.65,391.61 288.77,395.28 289.54,398.94C285.19,401.67 281.23,403.46 276.17,404.5C276.28,406.28 276.4,408.06 276.5,409.84C273.79,408.05 271.17,406.48 268.99,404.03C266.58,401.43 264.97,398.02 262.39,395.62C258.95,395.03 255.06,394.84 251.65,395.63C249.61,397.15 248.3,399.76 246.73,401.75C244.21,405.25 240.8,407.17 237.27,409.52C237.4,407.88 237.54,406.24 237.68,404.59C232.58,403.52 228.59,401.77 224.21,399C224.91,395.12 225.79,391.27 226.74,387.44C225.63,387.09 224.52,386.75 223.41,386.41C226.22,383.62 229.44,379.94 233.25,378.6C235.93,378.2 238.33,379.28 241.02,378.07C251.23,373.8 263.56,374.44 273.8,378.3Z" style="fill:rgb(2,2,2);fill-rule:nonzero;"/>
            <path d="M247.98,381.65C252.63,381.15 257.38,381.4 262.05,381.36C269.05,381.31 274.69,384.16 281.02,386.64C281.4,389.11 282.85,392.39 282.1,394.76C280.12,396.85 276.6,399.22 273.58,398.37C271.29,397.25 269.54,394.73 267.89,392.85C269.58,391.9 271.26,390.93 272.92,389.93C269.97,389.32 267.09,388.71 264.07,388.6C256.12,388.43 248.49,388.03 240.69,389.95C242.32,390.98 243.98,391.97 245.65,392.94C244.34,394.49 243.03,396.18 241.51,397.52C240.01,399.2 237.18,398.52 235.4,397.72C233.64,396.78 231.14,395.3 231.39,393C231.51,390.51 231.82,386.52 234.7,385.72C238.91,383.84 243.45,382.49 247.98,381.65Z" style="fill:white;fill-rule:nonzero;"/>
            <path d="M193.88,410.52C195.97,415.58 198.28,420.44 201.15,425.11C195.56,430.24 190.04,435.37 185.2,441.24C178.33,449.97 172.24,459.36 168.63,469.95C167.46,473.05 166.29,476.61 164.16,479.19C161.96,481.88 158.18,481.8 155.02,481.95C148.85,481.87 141.55,480.27 136.83,476.07C134.79,474.44 135.12,471.53 136.38,469.53C138.59,465.86 141.63,462.66 144.39,459.4C159.66,441.6 174.95,424.56 193.88,410.52Z" style="fill:white;fill-rule:nonzero;"/>
            <path d="M319.58,410.74C325.72,415.44 331.51,420.56 337.04,425.96C348.05,436.3 358.48,447.26 368.07,458.94C371.2,462.81 375.23,466.61 377.26,471.19C378.36,474.71 375.74,476.53 373.11,478.13C367.26,481.32 359.85,483.05 353.26,481.65C349,480.79 346.91,477.28 345.53,473.49C343.23,467.04 340.83,460.7 337.25,454.83C330.56,443.26 321.67,434.4 312.15,425.25C315.14,420.64 317.1,415.61 319.58,410.74Z" style="fill:white;fill-rule:nonzero;"/>
        </g>
    </g>
</svg>
