<?xml version="1.0" encoding="UTF-8" standalone="no"?>
<!DOCTYPE svg PUBLIC "-//W3C//DTD SVG 1.1//EN" "http://www.w3.org/Graphics/SVG/1.1/DTD/svg11.dtd">
<svg width="100%" height="100%" viewBox="0 0 950 927" version="1.1" xmlns="http://www.w3.org/2000/svg" xmlns:xlink="http://www.w3.org/1999/xlink" xml:space="preserve" xmlns:serif="http://www.serif.com/" style="fill-rule:evenodd;clip-rule:evenodd;stroke-linejoin:round;stroke-miterlimit:2;">
    <g transform="matrix(1,0,0,1,-49.815,-61.601247)">
        <g transform="matrix(1.310467,0,0,1.310467,-146.512595,-146.953004)">
            <g transform="matrix(0.763087,0,0,0.763087,111.80183,112.1379)">
                <path d="M374,138L485,124L573,129L641,126L726,167L812.179,234L915,390.855L948,524.795L915,651L848,737L751,825L673,888L616.318,939.95L547,964L462,962L377,894L323.114,773L323.114,615L350,418L298,341L323.114,271L374,138Z" style="fill:white;"/>
            </g>
            <g transform="matrix(0.5,0,0,0.5,0,0)">
                <path d="M1350.41,423.865C1414.34,402.121 1480.5,377.481 1544.07,354.271C1565.45,346.438 1586.86,338.715 1608.31,331.103C1619.78,327.004 1634.45,321.334 1645.88,318.29C1651.95,324.327 1659.4,335.07 1664.22,342.296C1754.41,477.461 1740.34,621.562 1637.93,743.096C1640.49,749.725 1648.95,763.159 1652.47,770.085C1662.43,789.668 1673.31,809.677 1681.94,829.885C1717.67,914.666 1739.42,1004.68 1746.33,1096.42C1747.86,1115.69 1748.08,1138.11 1749.06,1157.74C1732.03,1146.65 1717.09,1134.59 1700.68,1123.57C1700.06,1124.42 1696.63,1128.52 1696.65,1128.99C1697.16,1141.85 1696.59,1153.76 1694.74,1166.5C1693.95,1171.93 1693.73,1178.21 1692.82,1183.52C1691.12,1193.46 1689.89,1196.81 1691.06,1207.5C1689.76,1221.54 1682.9,1253.66 1679.41,1268.27C1673.61,1292.54 1667.24,1323.74 1660.02,1347.25C1649.59,1323.4 1641.28,1302.85 1628.92,1279.75C1622.98,1294.58 1618.41,1308.23 1611.98,1323.07C1589.99,1373.75 1563.13,1422.18 1531.79,1467.68C1524.27,1478.6 1513.04,1495.54 1504.79,1505.26C1507.45,1479.16 1507.73,1464.29 1505.41,1438.26C1498.53,1447.01 1485.32,1460.42 1477.23,1469.01C1446.68,1501.71 1413.29,1531.64 1377.45,1558.44C1358.35,1572.81 1337.99,1586.08 1318.34,1600.73C1332.51,1584.84 1348.52,1558.57 1352.62,1537.39C1324.5,1555.16 1283.37,1582.36 1257.64,1603.44C1236.43,1622.54 1218.18,1645.15 1197,1664.26C1134.8,1720.38 1050.72,1744.01 969.769,1726.38C887.132,1708.38 839.984,1657.49 783.236,1600.58C776.639,1593.96 699.098,1538.85 696.077,1539.96C697.439,1559.51 717.1,1584.29 729.203,1599.56L728.056,1598.62C716.356,1589.21 702.343,1581.35 690.181,1572.67C640.244,1537.02 593.024,1496.49 553.697,1449.23C549.848,1444.6 545.416,1440.14 541.317,1435.66C538.366,1462.11 541.398,1474.52 542.279,1499.58L542.458,1503.07C540.175,1502.4 540.001,1501.35 538.147,1499.1C532.749,1489.43 523.688,1478.89 517.579,1469.1C493.195,1430.04 469.224,1391.59 449.914,1349.66C439.346,1326.71 430.233,1303.91 421.171,1280.45C408.776,1301.63 398.337,1327.73 387.001,1349.78C377.713,1311.88 369.349,1273.76 361.918,1235.46C359.28,1221.26 354.866,1198.74 353.998,1184.63C352.922,1180.69 352.56,1172.24 352.232,1167.84C351.186,1153.97 352.081,1140.06 350.75,1125.68C334.876,1136.71 316.264,1147.57 299.63,1157.72C301.887,1130.24 302.99,1103.53 305.855,1075.81C314.842,988.831 333.922,902.285 370.208,822.409C381.822,796.841 396.583,766.1 412.129,742.755C401.786,729.911 391.144,719.469 381.57,705.578C320.838,617.47 305.131,505.989 349.436,407.17C363.728,375.291 380.406,345.463 403.896,318.971C417.187,322.159 455.325,337.105 470.358,342.326C519.802,359.546 569.06,377.298 618.123,395.578C643.899,405.003 672.596,416.125 698.602,424.427C701.411,422.635 704.262,420.909 707.153,419.252C806.398,362.669 912.394,352.805 1021.96,383.322C1029.67,381.085 1037.42,379.015 1045.21,377.114C1149.15,352.487 1258.6,369.252 1350.41,423.865ZM983.143,1515.92L982.885,1514.61C982.227,1511.02 977.163,1513.65 981.6,1518.79L983.143,1515.92ZM1022.55,689.214L1025.63,697.181C1057.26,661.817 1099.51,628.595 1145.27,613.445C1109.39,646.426 1090.5,693.609 1087.64,741.731C1087.12,750.494 1088.48,785.993 1100.88,784.347C1118.36,782.026 1143.25,767.93 1159.65,760.421L1301.19,694.701C1314.37,688.684 1333.99,678.114 1346.21,673.447C1388.51,698.078 1456.87,755.956 1484.24,797.084C1460.81,790.026 1450.35,787.94 1425.5,787.039C1415.18,788.339 1407.66,789.333 1397.68,792.327C1379.54,799.499 1371.21,805.408 1357.41,819.466C1381.17,827.575 1390.59,832.78 1403.66,854.579C1372.16,845.314 1354.69,844.59 1328.33,866.026C1360.61,878.457 1374.81,905.115 1389.97,935.578C1366,923.623 1345.23,911.821 1317.97,910.104L1318.35,911.52C1322.33,926.003 1329.75,942.532 1334.7,957.004C1341.38,976.585 1348.26,997.363 1353.02,1017.46C1362.99,1059.61 1367.96,1102.47 1368.44,1145.76C1368.72,1171.81 1369.13,1197.81 1367.23,1223.9C1361.78,1298.86 1343.63,1370.65 1324.71,1443C1375.77,1389.49 1410.54,1338.75 1436.54,1269.93C1444.41,1268.32 1437.12,1284.3 1438.98,1288.37C1439.42,1289.33 1440.79,1289.26 1441.5,1289.6C1441.69,1300.35 1441.71,1310.07 1439.46,1320.48C1438.18,1326.37 1435.28,1350.41 1442.71,1353.31C1444.24,1354.06 1443.39,1353.94 1445.3,1353.32C1462.19,1320.39 1477.54,1288.42 1489.08,1253.11C1494.07,1237.85 1497.51,1222.75 1501.84,1207.36C1507.15,1201.32 1507.32,1178.4 1510.44,1176C1511.68,1181.15 1512.32,1180.85 1512.26,1186.49C1512.21,1191.18 1515.98,1199.71 1516.1,1205C1514.99,1213.91 1519.79,1221.14 1517.73,1229.51C1517.39,1230.87 1517.69,1231.91 1518.2,1232.98C1518.38,1239.57 1516.21,1246.63 1520.2,1253.39C1520.34,1253.43 1520.48,1253.48 1520.62,1253.53C1520.71,1253.4 1520.79,1253.27 1520.87,1253.15C1521.29,1253.05 1521.7,1252.95 1522.12,1252.85L1522.34,1252.99C1523.67,1252.72 1523.62,1252.75 1524.95,1253.06C1525.05,1252.98 1525.14,1252.91 1525.23,1252.83C1526.01,1253.58 1526.61,1256.22 1527.02,1257.35C1551.31,1201.77 1557.36,1132.61 1559.95,1072.59C1561.93,1064.9 1561.03,1049.46 1561.33,1040.67L1561.98,1041.74C1565.27,1047.1 1569.11,1054.53 1571.84,1060.39C1577.31,1072.11 1582.16,1084.8 1586.6,1096.98C1587.57,1099.64 1588.92,1107.95 1593.37,1107.73C1596.33,1109.17 1593.93,1111.48 1597.57,1109.18L1598.15,1110.53L1599.12,1110.47C1602.2,1064.3 1601.71,1024.88 1594.29,978.782C1592.11,965.296 1588.2,951.133 1586.31,938.3L1586.2,937.482C1583.79,928.842 1581.32,920.223 1578.78,911.623C1587.77,923.519 1600.91,940.167 1607.81,953.163C1617.39,965.231 1634.74,995.715 1642.3,1008.92C1639.85,995.147 1639.07,981.085 1636.33,966.496C1624.89,903.814 1604.73,843.043 1576.44,785.952C1508.01,646.201 1379.56,513.483 1230.17,462.485C1221.74,459.903 1213.29,457.394 1204.82,454.957C1155.08,444.024 1117.14,443.556 1066.66,450.235C1053.86,451.928 1034.74,456.183 1023.1,457.213C1023.39,502.405 1021.74,547.411 1024.05,592.495C1025.17,614.447 1023.37,637.722 1023.55,659.725C1023.28,667.678 1023.44,682.096 1022.55,689.214ZM1337.95,728.185C1285.83,758.621 1236.43,797.017 1174.46,805.772C1178.51,808.37 1183.41,811.765 1187.7,813.724C1210.74,822.789 1238.62,821.838 1262.84,819.071C1301.84,814.618 1337.44,767.997 1339.03,729.937L1337.95,728.185ZM708.351,730.404C710.674,756.798 727.382,780.711 746.657,798.053C774.621,823.211 828.329,827.373 862.34,813.659C865.47,812.057 868.785,810.274 871.95,808.796C819.766,789.989 756.6,758.113 708.351,730.404ZM788.968,1151.01C794.898,1146.72 822.896,1133 830.74,1129.16C882.512,1103.77 961.26,1061.94 1017.74,1055.6C1014.53,1048.44 1010.9,1042.38 1008.09,1034.92C966.5,1011.02 923.559,981.733 885.825,952.169C849.368,923.605 874.7,910.643 899.532,891.411C938.409,861.304 975.269,855.971 1023.06,851.944L1022.99,831.001C1040.32,824.433 1065.86,820.44 1084.29,820.813C1100.09,821.132 1118.2,829.298 1134.07,831.211C1124.44,824.705 1096.08,816.332 1084.69,813.626L1081.79,812.351C890.492,771.527 772.941,915.117 741.314,1085.6C738.777,1099.27 735.811,1118.67 735.817,1132.32C736.043,1147.89 737.914,1184.08 740.592,1199.95C747.882,1230.24 751.745,1262.42 759.194,1293.43C765.874,1321.25 774.369,1347.96 781.228,1375.22C794.831,1429.29 809.907,1482.33 825.389,1535.87C830.66,1554.94 832.476,1569.27 848.111,1582.52C865.583,1600.4 877.055,1612.48 898.974,1625.91C937.273,1649.3 981.705,1660.67 1026.53,1658.54C1023.06,1637.96 1023.15,1626.25 1022.89,1605.42C964.88,1602.33 931.761,1588.61 887.07,1551.61C887.462,1526.61 862.193,1467.66 854.409,1440.52C842.386,1398.58 829.478,1356.07 818.597,1313.66C806.011,1264.6 790.074,1201.83 788.968,1151.01ZM687.253,916.646C681.648,912.912 674.396,917.905 675.883,921.328C680.222,919.783 683.102,918.585 687.253,916.646ZM651.688,849.759L650.643,850.415C646.26,852.967 652.392,853.598 654.151,854.005C656.85,850.492 655.773,851.109 651.688,849.759Z" style="fill-rule:nonzero;"/>
            </g>
            <g transform="matrix(0.5,0,0,0.5,0,0)">
                <path d="M1022.99,831.001C1040.32,824.433 1065.86,820.44 1084.29,820.813C1100.09,821.132 1118.2,829.298 1134.07,831.211C1141.94,833.322 1152.72,840.816 1159.65,845.308C1276.94,921.325 1321.64,1085.4 1300.45,1217.77C1297.81,1234.27 1293.71,1251.68 1290.29,1268.1C1280.47,1315.58 1269.13,1362.72 1256.29,1409.47C1247.98,1440.27 1238.09,1471.86 1228.87,1502.41C1226.03,1511.83 1212.59,1561.95 1208.17,1567.5C1169.74,1615.67 1110.7,1653.07 1048.27,1657.55C1041.31,1658.08 1033.39,1659.35 1026.53,1658.54C1023.06,1637.96 1023.15,1626.25 1022.89,1605.42C964.88,1602.33 931.761,1588.61 887.07,1551.61C887.462,1526.61 862.193,1467.66 854.409,1440.52C842.386,1398.58 829.478,1356.07 818.597,1313.66C806.011,1264.6 790.074,1201.83 788.968,1151.01C794.898,1146.72 822.896,1133 830.74,1129.16C882.512,1103.77 961.26,1061.94 1017.74,1055.6C1014.53,1048.44 1010.9,1042.38 1008.09,1034.92C966.5,1011.02 923.559,981.733 885.825,952.169C849.368,923.605 874.7,910.643 899.532,891.411C938.409,861.304 975.269,855.971 1023.06,851.944L1022.99,831.001ZM983.143,1515.92L982.885,1514.61C982.227,1511.02 977.163,1513.65 981.6,1518.79L983.143,1515.92Z" style="fill-rule:nonzero;"/>
            </g>
            <g transform="matrix(0.5,0,0,0.5,0,0)">
                <path d="M1022.99,831.001C1040.32,824.433 1065.86,820.44 1084.29,820.813C1100.09,821.132 1118.2,829.298 1134.07,831.211C1141.94,833.322 1152.72,840.816 1159.65,845.308C1276.94,921.325 1321.64,1085.4 1300.45,1217.77C1297.81,1234.27 1293.71,1251.68 1290.29,1268.1C1280.47,1315.58 1269.13,1362.72 1256.29,1409.47C1247.98,1440.27 1238.09,1471.86 1228.87,1502.41C1226.03,1511.83 1212.59,1561.95 1208.17,1567.5C1169.74,1615.67 1110.7,1653.07 1048.27,1657.55C1041.31,1658.08 1033.39,1659.35 1026.53,1658.54C1023.06,1637.96 1023.15,1626.25 1022.89,1605.42C1028.45,1605.46 1034.01,1605.33 1039.56,1605C1078.64,1602.36 1138.32,1584.58 1164.75,1554.07C1167.76,1531.73 1174.9,1512.58 1181.02,1490.96L1211.3,1385.19C1221.64,1349.62 1231.22,1311.36 1239.95,1275.41C1249.51,1235.97 1254.77,1193.07 1259.94,1152.82C1247.43,1144.33 1228.63,1134.34 1215.16,1126.69C1157.68,1094.05 1096.45,1064.23 1029.61,1058.38C1031.12,1053.54 1033.77,1044.11 1037.16,1040.5C1045.97,1031.16 1057.72,1025 1068.46,1018.03C1078.78,1011.33 1089.62,1004.91 1100.01,998.132C1120.33,984.868 1140.49,970.997 1159.29,955.592C1167.34,948.985 1179.5,938.725 1180.5,927.618C1180.88,921.203 1177.65,913.883 1173.09,909.606C1167.82,904.677 1160.33,899.269 1154.45,894.848C1145.9,888.424 1132.62,878.42 1123.52,873.812C1096.89,860.314 1053.13,851.73 1023.06,851.944L1022.99,831.001Z" style="fill:rgb(3,76,178);fill-rule:nonzero;"/>
            </g>
            <g transform="matrix(0.5,0,0,0.5,0,0)">
                <path d="M1018.63,1122.42C1079.97,1116.78 1156.4,1149.84 1206.17,1184.96C1198.9,1202.88 1193.51,1222.46 1187.23,1240.86C1176.39,1272.63 1165.61,1305.48 1153.52,1336.75C1148.79,1289.66 1131.36,1207.72 1109.77,1166C1095.48,1185.49 1083.03,1210.65 1071.38,1232.17C1056.53,1208.34 1043.3,1182.77 1027.87,1157.92L1025.41,1154.53C1019.24,1158.67 981.321,1222 976.363,1232.19C966.238,1209.66 955.007,1182.81 941.068,1162.85C914.717,1201.06 898.31,1287.58 894.398,1334.58C891.616,1328.44 889.483,1322.12 887.132,1315.81C871.099,1272.8 859.22,1228.58 844.157,1185.23C893.849,1154.49 960.16,1126.84 1018.63,1122.42Z" style="fill:white;fill-rule:nonzero;"/>
            </g>
            <g transform="matrix(0.5,0,0,0.5,0,0)">
                <path d="M909.201,1509.62C918.77,1483.89 928.787,1460.35 938.568,1435.12L978.228,1526.18C979.218,1524.13 980.969,1520.84 981.6,1518.79L983.143,1515.92C997.963,1489.58 1009.72,1468.06 1026.8,1443.02C1037.78,1472.95 1047.12,1499.15 1060.06,1528.11C1070.43,1510.58 1081.51,1493.22 1092.31,1475.92C1099,1465.2 1106.19,1450.63 1112.89,1440.7C1122.18,1463.68 1130.99,1486.85 1139.32,1510.2C1101.29,1531.81 1077.63,1546.42 1032.03,1548.64C981.284,1551.12 951.412,1534.46 909.201,1509.62Z" style="fill:white;fill-rule:nonzero;"/>
            </g>
            <g transform="matrix(0.5,0,0,0.5,0,0)">
                <path d="M981.6,1518.79C977.163,1513.65 982.227,1511.02 982.885,1514.61L983.143,1515.92L981.6,1518.79Z" style="fill-rule:nonzero;"/>
            </g>
            <g transform="matrix(0.5,0,0,0.5,0,0)">
                <path d="M409.045,1004.46C409.806,988.705 418.291,940.439 422.2,924.428C462.879,757.78 566.945,605.894 712.604,514.157C786.731,467.472 871.868,438.891 960.023,445.531C980.981,447.11 1002.7,452.495 1023.1,457.213C1023.39,502.405 1021.74,547.411 1024.05,592.495C1025.17,614.447 1023.37,637.722 1023.55,659.725C1023.28,667.678 1023.44,682.096 1022.55,689.214C999.557,660.525 941.502,627.079 905.726,616.517C942.193,652.654 961.149,692.766 963.729,744.467C964.08,751.509 961.303,791.352 949.437,788.501C934.081,784.811 916.478,773.471 901.547,767.447C881.978,758.897 862.533,750.545 843.485,741.664C796.7,719.589 750.379,696.544 704.553,672.542C652.625,696.492 597.123,752.92 560.68,796.039C603.994,785.303 650.531,783.465 683.834,818.74C663.781,824.804 646.949,838.57 637.025,857.021C671.101,849.218 690.638,851.427 722.695,866.963C694.488,881.96 675.175,891.739 664.737,925.871C666.797,925.038 674.344,922.179 675.883,921.328C680.222,919.783 683.102,918.585 687.253,916.646C700.154,913.371 738.186,895.678 728.17,926.286C725.113,935.627 718.639,947.046 714.879,956.461C650.536,1117.55 677.46,1285.61 722.689,1447.35C676.564,1394.47 638.534,1348.89 615.133,1281.01C610.462,1267.46 609.488,1258.57 606.145,1245.54C599.604,1280.85 597.7,1316.71 602.903,1352.31C593.212,1336.6 587.7,1322.76 580.514,1306.1C559.827,1258.14 548.131,1213.52 542.948,1161.59L539.762,1162.51C531.481,1195.83 525.45,1223.89 521.858,1258.22C518.102,1249.95 514.752,1235.35 512.29,1226.41C496.118,1167.7 489.308,1080.59 499.188,1020.23C484.635,1040.11 464.733,1084.54 456.414,1108.3C455.019,1111.22 453.54,1115.5 452.808,1109.45C442.888,1036.76 456.313,981.531 476.494,911.597C454.244,943.598 432.125,973.125 409.045,1004.46Z" style="fill:rgb(3,76,178);fill-rule:nonzero;"/>
            </g>
            <g transform="matrix(0.5,0,0,0.5,0,0)">
                <path d="M539.762,1162.51L540.265,1160.63L540.728,1158.79C542.309,1152.65 543.032,1159.03 542.948,1161.59L539.762,1162.51Z" style="fill-rule:nonzero;"/>
            </g>
            <g transform="matrix(0.5,0,0,0.5,0,0)">
                <path d="M452.808,1109.45L456.414,1108.3C455.019,1111.22 453.54,1115.5 452.808,1109.45Z" style="fill:rgb(234,46,221);fill-rule:nonzero;"/>
            </g>
            <g transform="matrix(0.5,0,0,0.5,0,0)">
                <path d="M1625.02,447.187C1626.38,447.27 1625.54,447.098 1627.34,448.27C1663.92,513.856 1644.39,598.277 1599.96,655.291C1597.04,659.032 1593.38,662.536 1588.5,662.953C1585.31,661.836 1582.05,658.903 1582.86,655.176C1589.15,626.387 1595.6,596.415 1597.26,566.926C1591.7,570.94 1573.65,584.856 1567.33,584.624L1567.04,582.774C1575.45,556.472 1583.1,529.934 1589.98,503.192C1537.77,513.869 1515.99,516.527 1463.13,515.964C1474.78,508.205 1494.68,499.169 1507.9,493.068C1542.66,477.026 1587.89,456.634 1625.02,447.187Z" style="fill:rgb(3,76,178);fill-rule:nonzero;"/>
            </g>
            <g transform="matrix(0.5,0,0,0.5,0,0)">
                <path d="M421.257,445.677C438.15,452.601 460.094,457.581 476.524,464.583C512.821,480.053 552.031,497.986 587.232,515.695C559.947,516.679 536.596,515.811 509.546,511.603C493.624,509.126 477.022,505.471 461.249,503.487C466.674,527.245 472.783,550.841 479.569,574.247C480.899,577.906 481.474,579.523 482.269,583.302C476.709,583.726 459.295,572.256 453.585,568.838C455.314,589.42 458.59,610.747 461.311,631.261C462.585,640.872 465.423,650.925 466.156,660.472C464.589,663.544 464.738,663.345 461.881,665.289C453.7,662.512 435.091,631.305 430.794,622.917C399.238,561.316 401.159,509.282 421.257,445.677Z" style="fill:rgb(3,76,178);fill-rule:nonzero;"/>
            </g>
            <g transform="matrix(0.5,0,0,0.5,0,0)">
                <path d="M1509.41,1162.79C1514.36,1169.56 1512.63,1188.41 1518,1189.89C1518.71,1202.4 1522.51,1216.93 1523.46,1229.64C1524.16,1239.1 1526.72,1248.12 1527.02,1257.35C1526.61,1256.22 1526.01,1253.58 1525.23,1252.83C1525.14,1252.91 1525.05,1252.98 1524.95,1253.06C1523.62,1252.75 1523.67,1252.72 1522.34,1252.99L1522.12,1252.85C1521.7,1252.95 1521.29,1253.05 1520.87,1253.15C1520.79,1253.27 1520.71,1253.4 1520.62,1253.53C1520.48,1253.48 1520.34,1253.43 1520.2,1253.39C1516.21,1246.63 1518.38,1239.57 1518.2,1232.98C1517.69,1231.91 1517.39,1230.87 1517.73,1229.51C1519.79,1221.14 1514.99,1213.91 1516.1,1205C1515.98,1199.71 1512.21,1191.18 1512.26,1186.49C1512.32,1180.85 1511.68,1181.15 1510.44,1176C1507.32,1178.4 1507.15,1201.32 1501.84,1207.36C1504.18,1192.6 1506.91,1177.56 1509.41,1162.79Z" style="fill-rule:nonzero;"/>
            </g>
            <g transform="matrix(0.5,0,0,0.5,0,0)">
                <path d="M1436.54,1269.93C1438.15,1264.56 1439.84,1259.22 1441.59,1253.9C1445.56,1282.25 1445.39,1324.47 1442.71,1353.31C1435.28,1350.41 1438.18,1326.37 1439.46,1320.48C1441.71,1310.07 1441.69,1300.35 1441.5,1289.6C1440.79,1289.26 1439.42,1289.33 1438.98,1288.37C1437.12,1284.3 1444.41,1268.32 1436.54,1269.93Z" style="fill-rule:nonzero;"/>
            </g>
            <g transform="matrix(0.5,0,0,0.5,0,0)">
                <path d="M1557.67,1026.44C1569.48,1047.32 1579.75,1067.46 1588.38,1089.84C1590.95,1096.52 1593.86,1103.05 1597.57,1109.18C1593.93,1111.48 1596.33,1109.17 1593.37,1107.73C1588.92,1107.95 1587.57,1099.64 1586.6,1096.98C1582.16,1084.8 1577.31,1072.11 1571.84,1060.39C1569.11,1054.53 1565.27,1047.1 1561.98,1041.74L1561.33,1040.67C1561.03,1049.46 1561.93,1064.9 1559.95,1072.59C1558.97,1058.48 1558.55,1041.33 1557.67,1026.44Z" style="fill-rule:nonzero;"/>
            </g>
            <g transform="matrix(0.5,0,0,0.5,0,0)">
                <path d="M1509.41,1162.79C1509.45,1161.74 1509.34,1158.45 1510.44,1157.69C1511.67,1158.1 1517.49,1186.93 1518,1189.89C1512.63,1188.41 1514.36,1169.56 1509.41,1162.79Z" style="fill-rule:nonzero;"/>
            </g>
            <g transform="matrix(0.5,0,0,0.5,0,0)">
                <path d="M675.883,921.328C674.396,917.905 681.648,912.912 687.253,916.646C683.102,918.585 680.222,919.783 675.883,921.328Z" style="fill-rule:nonzero;"/>
            </g>
            <g transform="matrix(0.5,0,0,0.5,0,0)">
                <path d="M651.688,849.759C655.773,851.109 656.85,850.492 654.151,854.005C652.392,853.598 646.26,852.967 650.643,850.415L651.688,849.759Z" style="fill-rule:nonzero;"/>
            </g>
            <g transform="matrix(0.5,0,0,0.5,0,0)">
                <path d="M1691.06,1207.5C1689.89,1196.81 1691.12,1193.46 1692.82,1183.52C1693.73,1178.21 1693.95,1171.93 1694.74,1166.5C1696.59,1153.76 1697.16,1141.85 1696.65,1128.99C1696.63,1128.52 1700.06,1124.42 1700.68,1123.57C1699.74,1148.09 1696.53,1183.77 1691.06,1207.5Z" style="fill-rule:nonzero;"/>
            </g>
        </g>
    </g>
</svg>
