<?xml version="1.0" encoding="UTF-8" standalone="no"?>
<!DOCTYPE svg PUBLIC "-//W3C//DTD SVG 1.1//EN" "http://www.w3.org/Graphics/SVG/1.1/DTD/svg11.dtd">
<svg width="100%" height="100%" viewBox="0 0 975 890" version="1.1" xmlns="http://www.w3.org/2000/svg" xmlns:xlink="http://www.w3.org/1999/xlink" xml:space="preserve" xmlns:serif="http://www.serif.com/" style="fill-rule:evenodd;clip-rule:evenodd;stroke-linejoin:round;stroke-miterlimit:2;">
    <g transform="matrix(1,0,0,1,-23.85902,-89.63)">
        <g>
            <path d="M270.29,89.63C275.41,116.67 281.38,143.13 290.97,169C293.89,176.7 297.45,184.13 302.05,190.98C307.74,199.36 313.91,207.26 321.72,213.79C327.05,209.38 332,204.59 337.56,200.58C349.04,192.1 360.78,184.08 373.46,177.47C388.39,168.97 404.13,163.19 420.22,157.36C429.14,154.07 438.55,151.97 447.8,149.82C468.53,145.53 489.81,142.9 511,143.1C538.57,142.85 566.27,147.13 592.82,154.43C619.29,162.12 644.69,173.04 667.72,188.27C679.5,195.98 690.74,204.15 701.05,213.76C708.65,207.25 714.97,198.95 720.71,190.79C729.39,178.26 733.8,164.18 738.41,149.78C743.95,130.03 748.75,110.03 752.27,89.82C758.21,95.94 763.03,103.22 767.66,110.36C780.76,131.41 790.98,154.19 797.95,178C801.39,189.3 803.39,201.15 805.05,212.84C807.79,234.42 806.6,256.67 801.17,277.75C796.5,294.1 790.21,310.12 782.47,325.26C780.07,329.98 780.85,335.83 780.81,341C781.42,359.83 779.29,379.2 777.36,398.03C776.56,407.01 774.71,415.85 774.19,424.84C782.11,418.24 789.62,411.16 797.5,404.51C804.06,399.06 809.74,392.7 816.38,387.33C826.65,378.78 836.53,369.75 846.91,361.33C847.24,414.19 833.51,467.18 820.34,518.04C813.77,544.08 806.72,569.99 800.21,596.05C797.35,605.75 796.4,614.81 791.97,623.97C788.8,631.06 784.24,637.16 779.42,643.19C775.31,648.25 770.6,652.53 765.21,656.18C758.42,660.77 751.35,664.49 743.27,666.19C740.64,666.81 737.75,667.1 735.28,668.22C733.85,669.51 733.02,671.58 732.29,673.33C729.06,681.83 726.86,690.62 725.45,699.6C721.9,721.78 721.18,744.82 718.28,767.09C717.5,773.08 714.71,778.34 710.95,782.98C698.37,798.46 683.56,809.85 669.5,823.48C665.49,827.17 661.54,830.92 657.81,834.9C651.09,842.01 644.03,848.8 637.21,855.82C633.05,859.79 628.98,863.84 624.97,867.97C604.31,888.99 583.27,909.6 562.26,930.25C545.19,946.54 528.51,963.31 511.25,979.39C495.91,964.88 480.87,949.99 465.77,935.22C458.93,929.07 452.69,922.31 446,916.01C430.77,900.92 415.45,885.87 400.47,870.54C395.08,865.3 390.2,859.66 384.59,854.64C373.92,843.91 363.5,832.96 352.08,822.89C345.71,817.57 339.67,811.91 333.09,806.84C323.39,798.9 312.53,789.66 306.52,778.52C301.42,768.91 301.98,758.68 300.81,748.23C299.65,732.5 298.88,716.65 296.9,701C295.38,692.35 293.83,683.5 290.87,675.21C289.42,671.94 288.63,668.31 284.68,667.38C278.24,665.43 272.13,662.98 266.2,659.8C257.86,655.3 249.99,650.21 243.44,643.28C237.61,636.43 232.4,629.26 229.11,620.82C225.9,613.42 224.85,605.76 222.69,598.06C210.55,550.85 197.9,503.7 186.88,456.22C180.12,425.05 176.57,393.3 175.65,361.43C181.06,365.64 186.11,370.27 191.39,374.64C197.01,379.4 202.77,383.8 208.11,388.87C221.41,401.07 234.77,413.23 248.52,424.92C248.03,417.89 246.72,411 246,404C243.66,382.27 241.5,359.85 241.9,338C241.86,334.2 241.97,330.06 240.47,326.51C236.14,316.28 230.96,306.47 226.75,296.18C222.52,286.39 218.68,276.63 217.02,266.02C213.46,244.45 215.03,222.5 219.49,201.19C223.61,182.4 228.85,163.95 236.37,146.22C244.96,126.02 256.08,106.42 270.29,89.63Z" style="fill:rgb(1,1,1);fill-rule:nonzero;"/>
            <path d="M258.95,157.82C262.24,172.53 265.61,186.94 272.42,200.51C280.75,219.02 293.79,235.62 308.65,249.35C318.02,258.66 329.09,266.38 339.56,274.41C349.3,281.96 360.6,287.7 369.93,295.73C368.87,310.44 365.35,324.71 360.51,338.61C358.45,343.54 353.71,347.51 349.11,350.03C340.26,355.03 330.58,358.62 320.78,361.24C318.66,361.57 316.92,362.62 315.16,360.85C309.02,355.52 303.37,349.09 298.04,342.97C278.8,320.19 263.4,294.86 254.63,266.22C249.61,248.95 247.22,230.98 248.37,213.01C249.78,194.39 253.78,175.74 258.95,157.82Z" style="fill:rgb(102,139,103);fill-rule:nonzero;"/>
            <path d="M763.7,158.04C768.5,173.98 772.17,190.45 773.89,207.02C775.36,221.04 774.72,235.16 772.13,249.01C767.24,278.73 752.19,307.3 734.21,331.18C726.04,342.41 716.83,352.76 706.46,361.99C696.58,359.97 687.52,356.91 678.44,352.54C671.31,348.95 664.58,345.28 661.78,337.27C657.33,323.86 653.72,309.84 652.67,295.71C661.03,288.92 670.62,283.59 679.39,277.35C688.05,271.06 696.56,264.55 704.93,257.86C716.89,247.85 727.51,236.38 736.93,223.96C743.46,215.05 748.63,205.09 753.07,194.99C758.3,183.03 760.65,170.63 763.7,158.04Z" style="fill:rgb(102,139,103);fill-rule:nonzero;"/>
            <path d="M188.15,262.63C188.87,278.08 192.47,293.32 198.65,307.49C197.18,308.77 195.7,310.02 194.07,311.1C153.26,335.92 111.79,359.98 71.57,385.73C71.58,419.15 71.93,452.57 71.56,486C71.34,495.76 71.89,505.65 71.35,515.38C69.22,518.41 65.89,520.72 63.2,523.26C58.55,527.61 53.93,531.95 49,535.99C40.95,542.62 33.45,550.1 24.97,556.18C24.21,501.27 25.33,446.38 24.02,391.48C23.64,382.71 23.97,373.76 24.62,365.01C25.09,360.07 27.18,356.15 31.47,353.52C43.95,345.85 57.01,339.2 69.48,331.49C109.02,308.51 148.38,285.19 188.15,262.63Z" style="fill:white;fill-rule:nonzero;"/>
            <path d="M834.29,262.68C843.54,267.7 852.61,273.02 861.76,278.23C878.77,288.26 896.04,297.83 912.99,307.97C929.13,317.07 945.01,326.61 961,335.96C971.19,342.18 981.93,347.61 991.98,354.05C996.27,356.92 998.01,360.88 998.08,365.98C998.48,380.97 998.19,396.01 998.13,411C997.44,428.01 997.65,444.98 997.55,462C997.75,493.5 997.71,524.99 997.48,556.48C990.75,551.2 984.36,545.7 978.09,539.9C968.65,532 959.82,523.45 950.63,515.27C950.54,502.51 950.58,489.76 950.58,477C950.91,448.67 950.61,420.33 950.83,392C950.8,389.87 950.95,387.64 950.52,385.55C948.44,383.6 945.71,382.23 943.29,380.73C920.09,366.18 896.7,351.89 873.15,337.91C856.9,327.68 840.03,318.34 823.91,307.91C826.03,301.98 828.39,296.3 829.94,290.18C832.39,281.15 833.38,271.96 834.29,262.68Z" style="fill:white;fill-rule:nonzero;"/>
            <path d="M397.86,288.21C407.36,289.22 417.02,291.22 425.8,295.08C439.66,300.67 452.22,309.72 462.79,320.21C482.98,341.51 498.24,368.45 509.99,395.2L510.87,396.85C512.2,395.93 512.91,394.04 513.64,392.64C519.72,378.89 527.02,365.65 534.77,352.78C543.06,339.69 552.6,326.56 564.15,316.15C581.15,301.37 601.84,291.05 624.36,288.38C624.76,306.24 627.99,323.84 633.13,340.92C635.46,347.73 637.87,355.09 641.93,361.07C644.83,365.42 649.22,368.58 653.52,371.46C660.48,375.85 667.85,379.39 675.47,382.47C683.63,386.26 692.12,389.16 700.41,392.61C703.23,393.72 704.56,395.66 705.58,398.41C709.47,408.82 712.67,419.52 715.79,430.18C718.41,439.45 721.83,448.51 724.4,457.8C726.8,466.35 724.49,475.65 721.91,483.9C718.84,493.2 715.99,502.6 712.39,511.71C705.04,509.96 697.62,508.5 690.28,506.68C678.66,504.19 667.85,500.36 655.98,498.7C648.88,497.5 641.68,497.5 634.58,496.27C639,491.15 644.4,486.97 649.3,482.28C655.82,476.75 661.93,470.7 668.68,465.45C683.09,469.88 697.72,473.23 712.42,476.63C706.24,470.13 699.65,464.01 693.06,457.92C682.89,449.22 673.85,440.71 662.26,433.75C659.93,432.38 658.28,434.2 656.45,435.46C652.23,438.89 648.15,442.5 643.95,445.95C627.45,459.13 611.33,472.75 594.59,485.61C583.22,494.26 572.68,503.19 560,510C556.14,511.98 552.29,514.87 548.06,515.91C544.22,513.36 541.7,508.8 538.45,505.53C533.4,500.32 529.4,494.3 524.5,488.96C522.91,496.88 522.17,504.98 521.36,513C521.38,515.88 520.57,518.85 523.11,520.87C528.36,525.6 533.23,530.65 538,535.86C535.43,538.68 532.81,541.42 530.1,544.11C528.19,546.17 526.16,547.96 525.83,550.93C525.27,555.86 526.18,561.03 526.24,566C526.41,576.34 526.55,586.68 527.22,597.01C527.53,611.94 527.43,626.89 527.84,641.82C529.01,641.77 530.18,641.72 531.35,641.68C536.06,638.01 540.52,633.71 545.66,630.67C548.52,629.1 552.33,627.74 555.33,629.7C558.82,631.66 560.42,636.63 561.89,640.13C562.99,643.31 564.8,646.96 564.59,650.37C561.28,652.9 557.22,654.52 553.63,656.61C547.51,660.11 541.04,664.07 536.1,669.13C531.8,673.47 528.19,678.59 523.97,683C522.22,684.71 520.63,686.42 518.01,686.51C513.38,686.79 508.58,686.85 504,686.06C501.83,685.73 500.61,684.31 499.17,682.82C493.98,677.07 488.91,671.02 483.1,665.88C475.24,659.07 466.31,655.27 457.41,650.24C459.17,644.69 460.89,638.8 463.65,633.65C465.01,631.2 466.98,628.91 469.97,628.72C473.73,628.81 477.56,631.29 480.56,633.4C485.29,636.9 489.81,640.68 494.52,644.21C494.77,636.8 494.53,629.39 495.07,621.98C495.61,609.66 495.33,597.31 495.89,585C496.37,578.33 496.56,571.67 496.65,565C496.69,560.65 497.36,556.29 497.15,551.96C497.03,549.14 495.37,547.4 493.6,545.42C490.58,542.21 487.59,538.96 484.58,535.74C489.27,530.65 494.1,525.82 499.3,521.25C502.09,518.98 501.35,516.18 501.18,513C500.21,504.91 499.03,496.86 498.26,488.74C490.52,497.83 483.09,507.37 474.86,516.05C460.69,510.29 447.58,500.84 435.73,491.28C421.92,480.44 408.07,469.64 394.53,458.48C386,451.58 377.29,445.16 369.03,437.96C367.08,436.33 365.04,434.43 362.71,433.38C361.37,432.98 359.9,434.13 358.79,434.76C354.84,437.45 350.97,440.3 347.16,443.18C334.22,453.64 321.79,464.66 310.28,476.69C323.59,473.68 336.84,470.49 349.96,466.73C352.9,466.01 354.64,465.77 356.94,468.05C367.39,477.41 378.15,486.49 388.21,496.26C381.87,497.26 375.48,497.52 369.13,498.4C360.9,499.53 352.7,501.39 344.71,503.67C333.89,506.72 322.91,508.72 311.92,511.17C309.65,511.94 309.56,509.59 308.79,508.13C305.13,497.09 301.12,486.74 298.45,475.45C297.04,468.91 296.72,462.31 298.77,455.87C300.49,450.55 302.17,445.22 303.87,439.89C307.91,428.04 310.77,415.96 315.2,404.24C316.36,401.21 317.13,397.68 318.98,394.99C320.85,392.84 324.05,391.66 326.64,390.63C342.53,384.73 359.75,378.56 373.34,368.2C377.67,365.01 380.96,361.2 383.31,356.35C390.17,342.52 393.75,326.68 396.38,311.55C397.89,303.79 397.72,296.06 397.86,288.21Z" style="fill:rgb(102,139,103);fill-rule:nonzero;"/>
            <path d="M142.81,367.63C144.29,388.37 148.14,408.63 150.96,429.18C151.23,432.72 152.32,437.89 149.91,440.85C147.12,444.56 143.06,447.55 139.59,450.62C135.16,454.53 130.62,458.3 126.07,462.06C114.84,471.72 103.94,481.8 92.45,491.15C90,462.38 88.35,432.72 91.56,403.96C91.99,401.17 91.97,398.37 94.51,396.57C100.93,391.81 108.46,388.29 115.32,384.21C124.3,378.4 133.41,372.72 142.81,367.63Z" style="fill:rgb(1,1,1);fill-rule:nonzero;"/>
            <path d="M879.68,367.48C890.7,373.63 901.39,380.32 912.21,386.8C917.57,390.08 923.49,392.76 928.44,396.62C930.81,398.44 930.65,401.12 931.07,403.82C933.85,432.83 932.52,462.49 930.88,491.54C928.98,489.97 927,488.47 925.16,486.83C916.44,478.84 907.18,471.51 898.37,463.61C890.52,457.14 882.4,451.05 874.93,444.06C872.35,441.54 870.31,438.85 870.98,435C873.73,412.42 878.32,390.28 879.68,367.48Z" style="fill:rgb(1,1,1);fill-rule:nonzero;"/>
            <path d="M420.52,405.38C426.76,407.61 432.82,410.22 438.69,413.31C453.73,420.66 469.11,427.34 483.95,435.06C485.57,435.96 487.46,436.9 488.68,438.33C489.84,439.95 490.35,442.13 490.88,444.03C493.17,453.42 495.5,462.66 496.76,472.28C489.41,466.99 483.31,460.35 476.15,454.83C464.11,444.21 451.81,433.9 439.93,423.08C433.45,417.12 426.61,411.81 420.52,405.38Z" style="fill:rgb(1,1,1);fill-rule:nonzero;"/>
            <path d="M602.36,405.44C583.26,423.62 562.79,440.57 542.87,457.86C537.41,462.78 531.89,467.62 526.23,472.31C527.64,462.77 529.62,453.29 531.89,443.92C532.35,442.14 532.8,440.18 533.69,438.56C535.07,437 537.21,436.01 539.02,435.03C553.3,427.84 567.84,421.15 582.31,414.35C588.85,410.98 595.49,408.06 602.36,405.44Z" style="fill:rgb(1,1,1);fill-rule:nonzero;"/>
            <path d="M213,433.24C218.81,438.66 224.85,443.93 230.2,449.81C234.53,454.48 239.36,458.64 243.6,463.4C250.81,471.26 258.94,479.61 264,489.01C267.23,494.74 268.14,501.56 269.02,508C269.8,514.8 270.53,521.67 270.6,528.52C264.58,521.09 259.01,513.34 253.57,505.48C247.6,497.7 242.05,489.63 236.15,481.8C237.26,490.4 239.75,498.83 241.69,507.26C245.61,525.36 250.26,543.31 254.77,561.26C256.26,567.27 258.67,572.72 262.21,577.8C266.65,584.55 272.8,588.94 277.75,595.27C281.37,599.96 284.73,605.16 285.72,611.1C286.94,618.42 287.96,625.78 288.49,633.18C280.77,630.76 273.9,626.48 267.86,621.15C261.71,615.58 257.71,608.19 255.8,600.15C251.08,580.87 245.35,561.86 240.37,542.64C235.23,522.52 229.23,502.61 224.56,482.37C220.37,466.12 215.82,449.79 213,433.24Z" style="fill:rgb(102,139,103);fill-rule:nonzero;"/>
            <path d="M808.99,433.48C808.6,437.95 807.67,442.3 806.61,446.64C803.7,459.83 800.65,472.98 797.04,486.01C787.83,522.78 777.56,559.28 767.98,595.96C766.43,602.43 765.19,608.59 761.06,614.02C756.53,620.98 750.07,624.98 743.17,629.26C740.39,630.92 737.41,631.92 734.35,632.93C734.59,625.37 735.84,617.79 737.41,610.4C739.22,601.46 746.03,593.6 752.39,587.41C759.62,580.26 765.27,571.77 767.76,561.82C771.8,546.3 775.38,530.66 779.14,515.07C781.7,503.64 785.05,492.48 786.86,480.88C775.74,496.92 764.14,512.6 752.15,528C752.35,519.65 753.07,511.33 754.27,503.07C755.12,497.81 756.29,492.67 759.04,488.05C763.78,480.15 769.76,473.64 775.88,466.88C781.67,460.32 787.92,454.25 794.13,447.97C799.03,443.04 803.68,437.99 808.99,433.48Z" style="fill:rgb(102,139,103);fill-rule:nonzero;"/>
            <path d="M159.25,468.59C162.13,483.3 164.9,498.04 167.65,512.77C168.93,518.92 170.29,525 170.69,531.29C166.75,535.58 162.15,539.03 157.47,542.46C113.24,576.21 69.44,610.58 26.46,645.9C24.93,635.1 25.4,623.89 25.42,613C25.57,604.13 25.45,594.97 26.68,586.16C26.78,585.33 27.19,584.59 27.89,583.93C44.42,569.01 61.17,554.54 77.96,539.92C99.09,521.75 119.78,503.1 140.7,484.7C147.14,479.61 152.93,473.82 159.25,468.59Z" style="fill-rule:nonzero;"/>
            <path d="M863.29,468.79C872.4,476.66 881.54,484.47 890.48,492.54C906.44,506.22 922.14,520.21 938.01,533.98C954.84,548.46 971.58,563.02 988.03,577.93C990.59,580.45 994.42,582.73 996.02,585.97C996.83,591.22 996.44,596.69 996.57,602C996.44,616.75 996.85,631.52 996.28,646.25C989.65,641.1 983.44,635.38 976.8,630.23C970.54,625.5 964.86,620.09 958.54,615.44C924.85,588.37 890.75,561.73 856.12,535.86C854.53,534.53 852.73,533.03 851.74,531.18C851.85,527.45 852.78,523.69 853.45,520.03C856.91,502.99 859.87,485.84 863.29,468.79Z" style="fill-rule:nonzero;"/>
            <path d="M387.04,516.89C393.12,517.06 399.81,517.19 405.53,519.33C415.87,522.98 424.33,528.76 433.63,534.37C438.48,537.36 443.18,540.6 447.53,544.29C433.04,545.04 418.5,545.19 404,545.67C399.96,545.65 395.62,546.19 392.06,543.89C381.6,537.04 372.4,528.47 365.69,517.85C372.78,517.22 379.93,517 387.04,516.89Z" style="fill:white;fill-rule:nonzero;"/>
            <path d="M657.17,517.88C651.48,525.9 644.82,534.04 636.75,539.75C633.36,542.14 629.28,545.3 625.04,545.6C620.09,546.01 614.97,545.44 610,545.35C598.32,545.2 586.64,544.67 574.97,544.23C584.05,537.03 593.72,531.5 603.7,525.71C608.66,522.88 614,520.34 619.52,518.83C631.49,515.96 644.98,516.92 657.17,517.88Z" style="fill:white;fill-rule:nonzero;"/>
            <path d="M318.01,528.27C323.8,528.23 330.39,528.11 335.93,530.03C340.39,531.56 343.7,534.77 347.01,537.99C352.7,543.65 357.96,549.76 362.84,556.14C366.11,560.42 369.67,564.76 373.86,568.17C377.45,571.38 383.57,569.8 388,569.82C412.35,569.64 436.71,569.47 461.06,569.21C463.93,582.73 468.41,596.23 469.8,610C463.89,612.07 458.33,614.42 453.58,618.63C448.83,622.7 445.88,628.07 444.01,633.97C441.1,643.14 438.25,652.63 437.35,662.24C446.08,667.08 454.24,672.76 462.2,678.76C467.05,682.46 470.45,687.15 474.08,691.96C464.64,691.07 455.29,687.33 446.07,684.92C429.8,679.93 413.37,675.44 397.14,670.35C407.02,659.48 417.64,649.55 426.8,638C411.33,644.05 396.88,652.11 381.66,658.7C370.5,663.87 359.24,668.84 348.13,674.14C350.01,681.26 352.88,688.01 355.06,695.03C358.29,705.43 362.06,715.65 366.39,725.64C369.58,732.93 371.71,740.39 375.44,747.43C374.97,736.96 374.15,726.48 373.73,716C373.73,706.31 373.63,696.64 372.67,686.99C376.43,688.32 380.17,689.63 384,690.77C387.98,696.51 392.39,701.91 396.48,707.57C394.97,707.53 393.47,707.5 391.97,707.48C395.74,717.17 400.21,725.91 409.02,731.97C416.36,736.68 424.57,740.22 432.71,743.31C443.79,747.63 454.91,751.94 466.21,755.67C477.05,759.5 488.12,763.2 499.4,765.53C507,767.16 515.01,767.34 522.6,765.52C536.45,762.83 549.97,757.82 563.63,753.58C577.35,748.73 590.86,743.21 604.04,737.03C610.04,734.2 616.41,730.87 620.67,725.65C625.18,719.99 628.88,714 629.86,706.69C628.87,706.63 627.89,706.59 626.9,706.55C630.73,701.24 634.89,696.2 638.73,690.9L637.41,691.27C641.39,689.81 645.36,688.37 649.4,687.1C649.47,692.08 649.43,697.06 648.96,702.03C648.13,711.36 648.71,720.67 647.92,730.01C647.43,735.74 647.35,741.48 647.47,747.23C650.68,740.34 653,733.11 656.11,726.18C659.59,718.11 662.67,709.87 665.42,701.52C668.48,692.34 672.09,683.4 674.64,674.05C654.67,664.73 634.53,655.81 614.6,646.42C608.61,643.79 602.97,640.71 596.62,639C601.79,645.94 608.04,651.77 613.9,658.1C617.67,662.41 621.82,666.32 625.35,670.86C610.97,674.91 596.78,679.55 582.35,683.4C570.86,686.4 560.38,690.99 548.48,692.57C553.49,683.71 561.03,677.86 569.3,672.24C574.26,668.68 579.44,665.55 584.81,662.64C584.46,654.18 582.56,645.99 579.96,637.96C578.08,631.6 575.9,625.69 571.14,620.88C566.16,615.47 559.84,612.42 553.06,609.9C554.02,597.86 558.06,585.72 560.66,573.94C561.15,572.34 561.39,569.88 562.8,568.8C566.87,568.76 570.92,569.35 575,569.37C592.67,569.4 610.33,569.62 628,569.74C633.57,569.78 639.54,570.78 645.03,569.95C646.67,569.7 647.82,569.19 649.06,568.1C653.29,564.38 656.97,559.89 660.44,555.47C666.3,548.12 672.59,540.85 679.49,534.45C684.31,529.79 690.52,528.67 696.97,528.33C704.21,528.2 711.41,528.29 718.57,529.46C723.58,543.52 727.19,558.11 731.52,572.38C729.78,574.68 728.04,576.95 725.93,578.94C717.29,587.38 709.37,596.34 701.32,605.34C692.91,615.23 683.71,624.37 675.15,634.12C669.97,640.22 664.2,645.74 659.12,651.92C665.57,651.51 671.63,649.66 677.98,648.63C684.28,647.58 690.52,646.25 696.85,645.31C696.42,653.6 694.99,661.76 694.24,670.02C693.15,681.06 691.32,691.98 690.16,703.01C688.52,719.73 685.93,736.32 684.17,753.03C683.82,756.84 682.65,759.25 680.12,762.07C672.91,770.2 664.97,777.63 657.88,785.88C646.75,797.17 635.76,808.68 624.16,819.5C624.34,807.66 626.15,795.79 627.27,784.01C627.52,779.66 627.74,775.33 628.61,771.04C622.54,780.51 617.67,790.58 612.63,800.61C606.97,810.99 601.68,821.55 595.89,831.86C591.65,839.37 585.83,845.87 578.64,850.68C570.18,856.34 561.22,861.53 551.91,865.66C549.5,863.67 548.5,859.73 546.98,857.01C541,845.52 535.56,833.77 529.68,822.24C528.3,819.54 527.54,816.69 526.75,813.79C534.31,813.86 542.08,814.86 549.61,814.17C551.95,812.11 553.42,808.84 555.28,806.32C561.86,797.21 567.28,787.38 573.57,778.06C553.18,784.9 533.69,791.12 512,792.39C500.54,792.15 488.6,789.44 477.54,786.53C467.92,784.42 458.68,781.2 449.33,778.15C456.82,790.37 464.33,802.7 472.66,814.37C480.62,814.79 488.46,813.42 496.41,813.81C495.24,817.08 494.03,820.33 492.5,823.45C485.51,837.64 478.76,851.93 471.26,865.86C460.47,860.33 449.45,854.59 439.8,847.2C427.09,837.26 421.45,820.12 413.5,806.47C406.73,794.77 401.13,782.46 394.36,770.78C394.86,787.08 398.03,803.27 398.73,819.56C395.23,816.63 391.79,813.66 388.66,810.34C379.08,799.96 368.66,790.28 359.27,779.73C353.67,773.01 346.8,767.41 341.44,760.51C339.39,758.02 338.86,755.13 338.58,752C337.77,742.78 336.39,733.65 335.25,724.48C333.35,709.66 331.84,694.8 329.82,680C328.2,668.44 327.18,656.82 325.43,645.28C338.22,646.57 350.62,650.39 363.36,651.81C359.63,646.86 355.32,642.45 351.1,637.92C345.95,632.06 340.57,626.42 335.43,620.54C321.55,605.79 308.49,590.15 294.07,575.92C293.18,574.84 291.7,573.51 291.67,572.05C292.03,567.87 293.63,563.75 294.62,559.68C296.73,551.36 299.69,543.33 302.07,535.1C302.65,533.21 303.28,531.25 304.25,529.52C308.6,528.27 313.51,528.43 318.01,528.27Z" style="fill:rgb(102,139,103);fill-rule:nonzero;"/>
            <path d="M177.07,555.08C182.3,572.54 187.88,589.87 194.24,606.96C194.55,608.36 195.85,610.54 195.27,611.85C192.8,614.22 189.76,615.99 187.06,618.09C166.4,633.77 145.43,649.04 124.82,664.79C109.52,676.62 93.76,687.83 78.41,699.59C87.92,710.12 98.5,719.61 108.1,730.04C101.07,737.71 92.67,743.17 84.78,749.82C78.55,755 72.05,759.76 65.64,764.72C59.23,769.63 52.96,774.68 46.4,779.38C39.66,784.21 33.27,789.39 26.26,793.83C25.92,773.55 26.23,753.26 26.04,732.98C25.71,725.65 26.19,718.34 26.11,711C26.23,702.99 25.79,695.01 26.21,687C26.43,683.79 25.99,680.05 27.07,677C28.83,674.32 31.95,672.4 34.38,670.35C43.52,662.8 52.85,655.52 61.93,647.9C85.8,628.78 109.3,609.2 133.28,590.23C147.73,578.31 162.44,566.76 177.07,555.08Z" style="fill:white;fill-rule:nonzero;"/>
            <path d="M845.61,555.13C851.16,559.31 856.46,563.79 862.06,567.92C868.19,572.43 873.86,577.48 879.84,582.19C898.52,597.51 917.45,612.52 936.14,627.83C955.13,642.8 973.49,658.55 992.39,673.64C994.16,675.15 995.78,676.52 996.01,679.02C996.59,686.95 996.14,695.04 996.18,703C996.3,733.2 996.11,763.4 996.23,793.6C991.05,790.24 986.08,786.62 981.17,782.88C963.52,769.95 946.33,756.38 929.16,742.83C923.94,738.98 919.16,734.64 914.59,730.05C916.34,727.98 918.12,725.95 920.06,724.06C928.27,715.91 936.51,707.78 944.66,699.57C930.87,689.28 917.02,679.06 903.25,668.75C890.89,659.05 878.17,649.78 865.6,640.36C852.71,630.85 840.04,621 826.99,611.72C829.72,603.36 832.82,595.13 835.53,586.76C838.94,577.22 841.48,567.42 844.68,557.81C844.99,556.92 845.3,556.02 845.61,555.13Z" style="fill:white;fill-rule:nonzero;"/>
            <path d="M243.44,643.28C249.99,650.21 257.86,655.3 266.2,659.8C272.13,662.98 278.24,665.43 284.68,667.38C288.63,668.31 289.42,671.94 290.87,675.21C293.83,683.5 295.38,692.35 296.9,701C298.88,716.65 299.65,732.5 300.81,748.23C301.98,758.68 301.42,768.91 306.52,778.52C312.53,789.66 323.39,798.9 333.09,806.84C339.67,811.91 345.71,817.57 352.08,822.89C363.5,832.96 373.92,843.91 384.59,854.64C384.9,857.17 385.34,859.69 385.89,862.18C389.31,876.76 392.65,891.37 395.82,906.01C400.01,923.91 404.07,941.86 407.87,959.86C390.01,942.81 372.59,925.32 354.76,908.24C321.67,876.28 288.73,844.29 255.67,812.33C217.39,775.27 178.94,738.37 140.95,701.01C169.15,684.79 197.43,668.73 225.78,652.78C231.7,649.7 237.32,645.89 243.44,643.28Z" style="fill:white;fill-rule:nonzero;"/>
            <path d="M779.42,643.19C783.56,645.14 787.27,647.51 791.23,649.77C809.26,659.66 827.02,670.02 844.99,680.01C857.07,687.14 869.35,693.92 881.46,701C866.76,715.46 851.83,729.69 837.04,744.05C776.79,802.23 716.76,860.33 656.64,918.64C642.51,932.15 628.9,946.22 614.6,959.54C621.72,927.29 628.92,895.22 636.24,863.02C636.8,860.65 637.06,858.25 637.21,855.82C644.03,848.8 651.09,842.01 657.81,834.9C661.54,830.92 665.49,827.17 669.5,823.48C683.56,809.85 698.37,798.46 710.95,782.98C714.71,778.34 717.5,773.08 718.28,767.09C721.18,744.82 721.9,721.78 725.45,699.6C726.86,690.62 729.06,681.83 732.29,673.33C733.02,671.58 733.85,669.51 735.28,668.22C737.75,667.1 740.64,666.81 743.27,666.19C751.35,664.49 758.42,660.77 765.21,656.18C770.6,652.53 775.31,648.25 779.42,643.19Z" style="fill:white;fill-rule:nonzero;"/>
            <path d="M384,690.77C403.59,696.75 422.54,704.33 441.81,711.21C457.71,716.57 473.44,722.55 489.5,727.36C491.09,727.63 493.71,728.61 494.69,726.82C497.86,722.9 500.13,718.11 503,713.98C503.82,712.95 504.67,711.49 506.13,711.39C509.97,711 513.89,711.15 517.74,711.25C521.06,715.74 523.72,720.61 526.73,725.29C527.53,726.36 528.35,727.99 529.82,728.13C533.07,727.74 536.39,726.48 539.51,725.47C559.22,719.13 578.82,712.44 598.24,705.28C611.23,700.39 624.2,695.52 637.41,691.27L638.73,690.9C634.89,696.2 630.73,701.24 626.9,706.55C625.44,708.6 623.33,709.18 621.14,710.14C607.37,716.16 593.53,722 579.5,727.38C559.93,734.71 541.51,742.1 520.81,745.9C515.28,746.79 509.53,746.81 503.98,746.1C488.58,743.64 474.29,738.85 459.75,733.39C440.46,726.36 421.39,718.69 402.49,710.66C400.33,709.7 398.16,709.16 396.48,707.57C392.39,701.91 387.98,696.51 384,690.77Z" style="fill:white;fill-rule:nonzero;"/>
            <path d="M629.86,706.69C628.88,714 625.18,719.99 620.67,725.65C616.41,730.87 610.04,734.2 604.04,737.03C590.86,743.21 577.35,748.73 563.63,753.58C549.97,757.82 536.45,762.83 522.6,765.52C515.01,767.34 507,767.16 499.4,765.53C488.12,763.2 477.05,759.5 466.21,755.67C454.91,751.94 443.79,747.63 432.71,743.31C424.57,740.22 416.36,736.68 409.02,731.97C400.21,725.91 395.74,717.17 391.97,707.48C393.47,707.5 394.97,707.53 396.48,707.57C398.16,709.16 400.33,709.7 402.49,710.66C421.39,718.69 440.46,726.36 459.75,733.39C474.29,738.85 488.58,743.64 503.98,746.1C509.53,746.81 515.28,746.79 520.81,745.9C541.51,742.1 559.93,734.71 579.5,727.38C593.53,722 607.37,716.16 621.14,710.14C623.33,709.18 625.44,708.6 626.9,706.55C627.89,706.59 628.87,706.63 629.86,706.69Z" style="fill:rgb(1,1,1);fill-rule:nonzero;"/>
        </g>
    </g>
</svg>
