<?xml version="1.0" encoding="UTF-8" standalone="no"?>
<!DOCTYPE svg PUBLIC "-//W3C//DTD SVG 1.1//EN" "http://www.w3.org/Graphics/SVG/1.1/DTD/svg11.dtd">
<svg width="100%" height="100%" viewBox="0 0 807 628" version="1.1" xmlns="http://www.w3.org/2000/svg" xmlns:xlink="http://www.w3.org/1999/xlink" xml:space="preserve" xmlns:serif="http://www.serif.com/" style="fill-rule:evenodd;clip-rule:evenodd;stroke-linejoin:round;stroke-miterlimit:2;">
    <g transform="matrix(1,0,0,1,-97.649214,-196.857)">
        <g>
            <g transform="matrix(0.5,0,0,0.5,0,0)">
                <path d="M1025.4,399.83C1028.71,396.846 1028.51,396.975 1032.77,395.672C1039.29,396.611 1039.81,406.517 1050.07,398.048C1051.82,396.619 1053.55,395.174 1055.27,393.714L1057.22,393.905L1056.64,397.627C1061.56,402.44 1064.57,396.811 1066.3,405.73L1068.79,406.276L1070.07,402.026C1072.66,402.992 1071.46,402.221 1073.11,405.588L1074.67,404.39C1074.04,400.913 1073.6,400.55 1071.91,397.51L1072.66,396.428C1075.24,398.036 1075.51,397.839 1076.71,400.52L1077.8,400.035L1076.61,396.51L1077.99,395.506L1079.93,396.006C1080.56,398.39 1081,399.679 1082.16,401.85C1087.19,400.68 1086.57,396.551 1092.01,395.544L1093.38,396.532L1093.25,398.717L1097.45,399.569C1099.48,403.159 1098.87,401.2 1098.66,405.822C1103.49,401.34 1109.79,404.66 1114.73,408.035L1116.36,411.099C1136.38,415.734 1155.28,418.514 1175.77,424.171C1240.56,442.057 1288.42,469.385 1342.82,506.944C1382.8,507.248 1407.68,516.331 1436.31,545.311C1438.02,547.046 1439.71,548.799 1441.38,550.571C1462.8,551.857 1477.04,554.193 1497.49,561.288C1502.15,562.901 1515.91,568.71 1518.82,569.498C1532,565.252 1575.25,582.676 1588.6,572.524C1591.37,573.888 1591.73,574.325 1594.08,576.235L1595.89,576.075L1598.03,572.928C1600.76,573.747 1599.63,573.476 1602.03,576.295C1605.7,575.833 1604.57,576.7 1606.54,574.681C1612.53,573.278 1621.34,581.195 1630.58,578.18C1631.87,576.085 1631.54,576.983 1631.6,574.39L1632.97,573.375C1635.24,574.07 1635.11,574.115 1636.99,575.629C1641.2,575.436 1653.65,573.901 1656.32,574.707C1657.63,577.198 1657.92,577.966 1658.83,580.64C1662.45,582.308 1668.01,580.168 1671.55,581.474C1682.87,585.657 1670.52,592.454 1689.44,590.974C1689.84,593.129 1689.8,593.281 1689.7,595.486C1691.85,595.961 1692.77,596.273 1694.68,597.377C1696.02,600.532 1695.36,602.208 1694.79,605.61C1696.62,611.201 1704.86,613.805 1708.55,618.081C1704.53,619.86 1703.66,625.658 1702.48,629.925C1704.36,633.158 1704.74,634.747 1707.56,636.89L1708.22,635.65L1707.82,636.761L1708.63,635.616L1708.32,637.266L1705.26,638.947L1706.56,640.838L1710.31,640.474C1714.47,646.768 1701.3,649.74 1705.54,656.09C1707.14,658.483 1709.23,663.134 1710.7,665.886C1706.83,673.237 1697.28,678.781 1699.15,685.9C1703.57,686.133 1702.63,682.094 1705.19,684.517C1703.92,686.157 1702.87,687.429 1701.5,688.986C1702.83,691.879 1703.76,693.386 1705.39,696.041C1700.1,698.974 1699.5,691.568 1699.45,705.639C1715.38,732.21 1723.03,744.487 1718.76,776.226C1719.67,780.498 1720.47,786.666 1723.85,789.41C1727.22,789.535 1726.12,789.53 1729.52,786.794C1731.01,789.025 1731.13,790.572 1731.69,793.175C1739.09,794.784 1737.31,798.174 1742.64,799.368L1743.78,798.675L1743.46,795.624C1746.03,799.17 1751.44,805.898 1753.53,809.298C1754.35,810.633 1755.5,821.489 1756.91,823.784C1759.93,828.692 1764.48,828.928 1766.98,833.434C1768.51,838.074 1769.13,837.617 1768.37,841.795L1765.1,845.146C1764.08,853.786 1770.83,846.622 1764.54,858.716C1763.74,860.236 1763.94,859.91 1764.06,861.956C1766.16,863.744 1767.8,864.866 1769.25,867.232C1767.31,871.825 1765.82,875.734 1764.14,880.415L1763.23,878.287C1759.89,879.492 1759.6,879.607 1759.32,883.503C1757.55,883.703 1757.16,883.766 1755.46,884.508C1754.03,888.998 1754.1,888.674 1757.36,892.577L1757.21,894.526C1755.91,894.919 1754.71,895.34 1753.46,895.9C1755.07,897.868 1755.6,898.069 1757.71,899.563L1757.69,901.639C1752.72,902.908 1753.08,899.345 1750.53,901.845C1751.51,906.375 1752.49,908.249 1754.37,912.564C1752.03,913.95 1749.67,915.297 1747.28,916.603L1746.96,917.978L1749.78,920.64L1749.59,922.488C1744.31,925.27 1746.68,919.119 1744.26,922.207C1743.57,923.098 1738.32,933.443 1737.71,934.657C1738.41,937.09 1738.45,936.911 1740.31,938.689L1739.88,940.485C1734.54,940.421 1739.23,937.118 1734.67,939.033C1731.9,948.975 1729.63,950.178 1720.94,955.286L1715.35,955.114C1708.22,960.216 1701.93,964.436 1695.75,970.717C1686.48,980.146 1677.1,992.404 1666.27,999.979C1695.8,1039.22 1723.01,1077.75 1746.52,1120.93C1751.35,1129.8 1756.45,1138.59 1761.86,1147.12C1756.64,1146.79 1752.23,1146.6 1747.05,1145.72C1762.14,1185.58 1768.62,1215.85 1772.87,1257.76C1773.4,1262.91 1788.24,1301.6 1791.48,1305.24C1793.86,1301.67 1795.19,1298.96 1798.79,1296.66C1805.15,1296.57 1806.09,1301.14 1806.74,1306.51C1803.3,1307.93 1802.35,1307.66 1800.32,1310.18C1803.16,1312.08 1804.03,1311.86 1807.4,1312.02L1808.48,1312.95C1805.92,1315.49 1805.67,1315.34 1805.27,1318.93C1804.38,1317.57 1802.06,1313.64 1801,1312.86C1798.94,1315.71 1799.71,1314.06 1799.83,1318.52C1801.93,1320.66 1802.15,1320.57 1804.89,1321.94C1805.65,1325.12 1805.88,1323.69 1804.44,1326.43L1802.57,1327.5C1799.24,1323.15 1800.12,1322.76 1795.97,1321.67C1794.97,1324.85 1793.93,1325.89 1794.94,1328.17L1796.74,1327.3L1797.07,1328.07C1800.49,1329.57 1802.15,1329.9 1804.3,1332.95C1806.84,1341.13 1801.65,1356.61 1793.31,1359.89C1790.87,1358.88 1790.55,1357.95 1788.54,1356.85C1783.58,1367.18 1782.3,1385.76 1775.14,1397.98C1768.44,1409.42 1762.89,1412.53 1754.97,1422.11C1748.5,1429.95 1743.48,1437.48 1736.13,1444.95C1708.2,1473.35 1670.67,1480.9 1633.84,1491.38C1636.32,1480.98 1638.61,1470.54 1640.72,1460.06L1586.81,1471.84C1590.99,1460.15 1595.05,1448.41 1599.01,1436.64C1583.03,1437.6 1566.74,1439.07 1550.58,1440.06C1555.36,1427.9 1559.84,1416.7 1565.19,1404.78C1549.35,1406.62 1528.83,1406.9 1512.88,1406.21C1519,1390.63 1526.76,1373.2 1533.44,1357.86C1511.37,1336.81 1508.16,1319.93 1501.29,1291.3C1495.6,1287.4 1413.55,1244.86 1412.21,1244.83C1410.88,1247.06 1410.21,1248.15 1408.33,1249.93C1407.29,1249.42 1406.69,1249.39 1405.53,1249.13C1403.03,1251.81 1401.57,1254.16 1398.12,1254.75C1387.85,1252.61 1374.32,1231.95 1367.34,1223.95C1358.02,1213.27 1348.57,1201.91 1339.76,1190.76C1323.68,1167.92 1311.4,1150.67 1284.7,1138.75C1264.61,1154.49 1245.33,1166.98 1222.6,1178.59C1217.49,1181.19 1215.15,1183.98 1210.91,1187.55L1208.41,1185.96C1205.23,1187.98 1205.44,1189.46 1204.26,1193.56L1202.65,1194.05C1202.07,1191.74 1202.09,1192.59 1202.61,1190.29C1199.85,1192.53 1199.9,1192.36 1198.05,1195.35C1203.47,1200.24 1222.69,1206.51 1234.29,1216.16C1262.62,1239.77 1266.72,1253.43 1281.05,1284.5C1292.23,1308.72 1299.57,1317.68 1300.99,1347.56C1302.56,1380.57 1294.44,1413.64 1288.86,1446.31C1280.01,1438.05 1271.23,1429.73 1262.52,1421.32C1259.11,1437.91 1254.19,1463.46 1249.59,1479.59C1238.87,1466.81 1227.82,1453.23 1216.53,1441.06C1212.49,1458.63 1206.39,1480.39 1203.17,1497.56L1165.09,1455.42C1161.72,1473.32 1158.03,1491.16 1154.02,1508.92C1139.69,1494.28 1125.46,1479.53 1111.34,1464.68C1102.53,1455.28 1093.55,1444.89 1084.21,1436.49C1080.01,1432.71 1066.5,1438.74 1061.49,1439.44C1061.39,1439.45 1058.57,1437 1058.51,1436.95C1054.59,1437.43 1052.4,1437.86 1048.55,1438.76L1046.68,1436.27L1043.97,1439.08C1041.53,1438.48 1042.67,1438.87 1040.52,1437.94C1034.23,1442.12 1030.75,1457.84 1026.7,1464.01C1021.04,1472.65 1012.42,1482.9 1005.91,1491.1L1005.8,1492.39C1008.91,1495.28 1012.92,1495.81 1017.15,1496.81C1020.18,1499.85 1020.58,1501.57 1022.34,1505.61L1023.62,1505.62L1025,1504.16C1030.44,1506.38 1031.26,1512.1 1035.32,1512.47L1037.08,1511.48L1037.9,1512.47L1036.49,1515.32C1039.78,1521.8 1045.1,1516.84 1048.24,1522.91C1056.04,1538.04 1065.2,1552.6 1071.33,1568.54C1079.6,1590.27 1084.61,1613.22 1091.8,1635.32C1078.78,1635.28 990.646,1635.5 987.95,1637.52L987.295,1639.87L985.938,1639.98C985.349,1637.96 985.428,1639.06 985.946,1636.68C982.149,1635.13 959.967,1637.53 954.693,1638.21L953.521,1635.76L951.773,1636.01L950.52,1637.88C945.321,1637.19 925.088,1635.26 920.321,1636.81L918.844,1639.67L917.567,1639.18L916.565,1636.43L914.49,1636.09C912.416,1637.62 913.35,1636.77 911.67,1638.6C910.575,1637.64 909.245,1636.1 907.623,1636.12C898.126,1636.24 888.622,1636.15 879.122,1636.03L766.581,1635.28C754.231,1620.17 741.795,1605.12 729.273,1590.15C724.451,1584.33 717.191,1574.65 712.324,1569.43C714.478,1560.81 716.856,1549.23 719.254,1541.06C714.37,1531.28 721.528,1490.12 721.604,1476.79C721.625,1473.12 726.377,1473.58 727.568,1470.13C725.67,1468.15 724.03,1466.53 722.038,1464.64C737.357,1466.68 731.13,1460 734.337,1456.44C735.148,1458.87 734.547,1459 733.705,1461.99L734.565,1462.34C736.022,1459.76 737.55,1457.22 739.148,1454.73C743.988,1435.76 748.309,1408.67 752.123,1388.8C752.597,1386.33 746.515,1381.81 743.979,1379.44C741.736,1379.15 742.866,1379.14 740.553,1380.1C737.083,1374.73 730.017,1366.65 725.246,1362.47C722.966,1363.41 724.057,1363.26 722.025,1363.19C716.218,1355.83 711.388,1347.9 706.476,1341.76C705.132,1341.59 703.786,1341.43 702.439,1341.3L702.866,1343.85C699.365,1344.29 699.618,1344.26 696.422,1342.71C691.442,1337.19 692.078,1330.15 691.621,1322.57C689.979,1323.63 689.238,1324 687.502,1324.88C686.054,1322.96 686.511,1324.09 686.89,1321.11C691.303,1317.97 692.019,1318.18 690.775,1312.94C687.312,1309.23 686.338,1309.02 686.004,1304.08C687.884,1301.48 689.175,1301.93 693.088,1300.75C690.71,1295.75 690.651,1295.08 690.868,1289.54C680.535,1285.22 666.611,1278.74 656.544,1275.02C623.213,1321.49 574.901,1355.22 532.269,1392.54C526.877,1397.27 491.071,1425.28 491.476,1429.94L492.546,1431.24C473.578,1457.26 474.219,1468.5 464.443,1497.32C472.067,1504.26 482.817,1513.55 488.608,1521.74C510.482,1552.67 515.283,1598.76 521.672,1635.59L389.458,1635.71C390.187,1623.8 390.642,1614.6 390.468,1602.62C394.204,1602.56 400.748,1602.64 404.23,1602.15C396.597,1601.27 387.696,1601.98 380.038,1602.88C380.222,1613.62 380.715,1625.4 380.703,1636.03C370.445,1636.02 328.512,1637.11 321.234,1636.04C317.17,1641.78 319.944,1643.07 311.457,1646.37C310.317,1645.18 309.146,1644.02 307.947,1642.89L306.074,1643.64L304.531,1647.56C301.228,1648.83 301.019,1643.91 299.816,1644.03C289.01,1645.1 287.656,1646.93 277.584,1643.37L276.3,1642.9C275.014,1643.35 273.72,1643.77 272.417,1644.17C258.44,1626.99 266.425,1639.15 256.579,1641.22L255.822,1639.85L256.502,1641.17C257.671,1633.99 257.657,1641.19 259.53,1635.1C256.822,1631.56 254.294,1631.34 249.756,1629.39L249.399,1627.29L247.039,1625.84C246.412,1623.5 246.775,1623.72 247.368,1621.31C242.529,1617.83 238.157,1621.48 234.679,1617.02C235.176,1611.14 237.35,1610.78 241.771,1608.6C237.063,1608.41 234.466,1611.77 228.344,1612.21L227.347,1610.97C226.456,1604.46 223.865,1594.06 227.194,1588.56C221.997,1582.52 216.069,1576.15 212.762,1568.94C213.556,1567.72 214.108,1566.9 215.008,1565.74L215.706,1564.86C212.2,1559.77 215.228,1566.72 210.461,1561.78C209.741,1558.05 209.855,1556.87 207.167,1554.16C206.816,1554.56 204.686,1555.95 204.159,1556.31C200.039,1556.1 201.577,1556.91 198.987,1554.71C199.258,1548.86 198.669,1549.12 195.441,1545.15C195.244,1541.91 194.934,1543.49 196.998,1540.42C200.309,1538.72 201.52,1539.01 205.071,1539.17C207.075,1535.62 206.836,1525.97 204.67,1521.63C203.99,1523.01 204.449,1522.17 203.159,1524.25L201.416,1523.58C201.383,1521.34 201.38,1521.5 202.336,1519.45C208.515,1516.48 202.778,1521.2 209.047,1519.87L209.866,1518.24C208.247,1515.53 207.893,1513.01 207.163,1509.94C198.817,1504.24 197.746,1498.3 204.143,1489.91L205.635,1490.06C206.886,1492.02 208.115,1493.02 209.873,1494.52C211.45,1491.23 212.021,1488.32 211.273,1484.75C209.091,1483.01 207.052,1483.43 204.241,1483.5L204.613,1480.74C219.898,1474.93 209.285,1467.95 212.007,1459.33L213.276,1459.7L214.26,1463.04L215.538,1463.33C217.806,1462.1 217.974,1462.3 219.067,1460.04C212.884,1452.82 217.766,1457.27 220.477,1452.65C219.093,1449.96 218.037,1448.65 218.392,1445.67C223.127,1444.2 226.421,1437.53 227.194,1432.16C227.322,1431.27 224.004,1431.15 223.523,1426.92L224.91,1425.38C227.87,1426.23 226.848,1426.41 229.499,1425.81L229.55,1420.96C234.152,1412.99 233.103,1414.81 231.493,1405.49C238.085,1402.29 231.255,1407.74 238.191,1406.9C239.028,1404.84 236.685,1400.37 235.718,1396.95C239.881,1392.48 248.088,1382.03 252.195,1379.65C252.869,1378.09 256.429,1364.33 257.122,1361.82C261.019,1347.47 265.122,1333.17 269.429,1318.93C273.27,1306.27 277.79,1293.83 282.969,1281.65C291.137,1262.5 296.772,1254.19 298.096,1233.02C303.463,1147.2 327.74,1068.93 363.551,991.34C361.149,989.321 361.78,990.298 360.592,987.54L363.547,984.31C353.23,983.177 358.151,970.493 355.603,964.065C354.974,962.478 353.712,962.724 351.943,962.232L351.161,960.591C356.272,953.681 349.88,956.721 347.745,948.964L348.53,947.87L351.018,949.208L351.647,948.487C352.145,943.926 353.039,939.981 351.743,935.679L349.2,932.918C340.421,923.337 349.97,925.11 352.624,921.517C351.691,918.209 351.255,918.718 348.199,915.956C348.27,911.862 356.268,901.547 357.995,894.51C355.694,889.549 355.287,889.807 356.023,885.101L359.505,883.429C361.05,880.495 359.842,874.424 359.46,870.773L356.379,869.632L356.1,868.023L357.322,867.255C359.827,868.149 361.724,868.811 364.304,869.54C364.429,866.745 362.462,861.275 362.824,859.407C363.783,854.446 369.994,852.373 371.73,846.97L369.623,844.392C369.831,841.432 372.542,840.025 375.327,837.483L375.097,833.992C378.588,829.584 375.789,834.626 380.377,831.511C379.516,828.859 377.696,827.701 375.509,825.529L377.074,824.593L379.942,826.502L381.91,826.074L383.024,821.195L384.635,820.241C386.113,820.696 387.595,821.139 389.081,821.569L391.025,820.021C392.086,816.906 392.473,814.787 394.771,812.444C397.342,812.35 397.394,812.504 399.711,811.5L398.271,808.979L398.662,807.607C401.905,808.365 403.054,808.826 406.433,808.514L406.652,803.436C411.509,801.581 407.065,804.817 412.11,805.265C413.089,803.149 413.304,802.664 414.527,800.648L417.487,800.46C417.484,796.722 416.778,797.986 418.487,795.593C428.634,799.988 424.812,795.579 432.435,791.641L435.371,794.399C438.36,794.117 437.031,794.602 439.5,792.872C439.677,790.479 439.495,789.387 439.004,787.032L440.543,786.719C442.052,788.761 441.398,788.229 443.416,789.633C446.179,787.719 446.319,786.907 447.77,783.914L448.219,782.968L449.552,782.645L450.915,784.605C453.498,784.434 455.691,780.88 459.139,778.149C461.974,778.319 462.08,779.317 464.802,781.701C473.847,776.626 493.64,769.269 499.49,765.067C510.13,757.423 526.911,738.352 537.068,728.484C555.753,710.665 575.196,693.66 595.346,677.516C642.907,639.425 694.355,606.458 748.834,579.161C771.59,567.721 791.896,559.098 814.675,548.592C816.903,542.885 817.502,540.599 822.858,537.469C826.073,535.591 820.975,536.363 820.058,531.938C823.209,525.839 824.217,525.624 823.429,518.515C818.9,517.472 810.736,514.653 806.022,513.19C811.155,510.196 817.108,507.163 822.397,504.324C827.329,493.935 828.913,484.532 840.37,480.113C842.795,480.413 844.834,480.594 847.253,480.773L850.082,477.82C853.189,474.47 852.079,475.486 855.262,474.131C866.204,469.473 860.558,471.571 869.872,472.606C873.714,469.649 877.656,466.782 881.306,463.587L883.815,465.439C885.546,464.417 886.544,463.71 888.184,462.56C887.918,465.843 887.676,464.241 889.371,467.437L890.372,467.314C890.601,467.137 898.52,459.969 896.638,460.948C903.953,457.144 913.63,456.295 921.325,453.406C928.805,450.597 935.939,445.445 943.611,442.849C948.635,440.909 954.811,442.253 959.12,440.14L959.547,437.115C962.174,434.381 970.473,439.388 976.316,435.851C976.93,433.109 976.532,433.982 977.941,431.593C983.881,433.005 984.496,432.815 990.39,430.521L992.833,431.837L992.847,430.004C990.137,428.776 990.528,428.798 987.601,429.3L986.038,428.005L986.043,425.908C988.811,425.382 986.699,425.601 989.524,425.47C993.524,425.285 989.822,422.618 996.399,420.763L997.053,422.383L998.697,421.505C999.082,416.081 1000.31,407.261 1005.48,404.855C1008.64,404.786 1008.58,404.715 1011.62,403.725C1016.39,397.386 1017.95,399.265 1025.4,399.83Z" style="fill-rule:nonzero;"/>
            </g>
            <g transform="matrix(0.5,0,0,0.5,0,0)">
                <path d="M1025.4,399.83C1028.71,396.846 1028.51,396.975 1032.77,395.672C1039.29,396.611 1039.81,406.517 1050.07,398.048C1051.82,396.619 1053.55,395.174 1055.27,393.714L1057.22,393.905L1056.64,397.627C1061.56,402.44 1064.57,396.811 1066.3,405.73L1068.79,406.276L1070.07,402.026C1072.66,402.992 1071.46,402.221 1073.11,405.588L1074.67,404.39C1074.04,400.913 1073.6,400.55 1071.91,397.51L1072.66,396.428C1075.24,398.036 1075.51,397.839 1076.71,400.52L1077.8,400.035L1076.61,396.51L1077.99,395.506L1079.93,396.006C1080.56,398.39 1081,399.679 1082.16,401.85C1087.19,400.68 1086.57,396.551 1092.01,395.544L1093.38,396.532L1093.25,398.717L1097.45,399.569C1099.48,403.159 1098.87,401.2 1098.66,405.822C1103.49,401.34 1109.79,404.66 1114.73,408.035L1116.36,411.099C1136.38,415.734 1155.28,418.514 1175.77,424.171C1240.56,442.057 1288.42,469.385 1342.82,506.944C1382.8,507.248 1407.68,516.331 1436.31,545.311C1438.02,547.046 1439.71,548.799 1441.38,550.571C1462.8,551.857 1477.04,554.193 1497.49,561.288C1502.15,562.901 1515.91,568.71 1518.82,569.498C1532,565.252 1575.25,582.676 1588.6,572.524C1591.37,573.888 1591.73,574.325 1594.08,576.235L1595.89,576.075L1598.03,572.928C1600.76,573.747 1599.63,573.476 1602.03,576.295C1605.7,575.833 1604.57,576.7 1606.54,574.681C1612.53,573.278 1621.34,581.195 1630.58,578.18C1631.87,576.085 1631.54,576.983 1631.6,574.39L1632.97,573.375C1635.24,574.07 1635.11,574.115 1636.99,575.629C1641.2,575.436 1653.65,573.901 1656.32,574.707C1657.63,577.198 1657.92,577.966 1658.83,580.64C1662.45,582.308 1668.01,580.168 1671.55,581.474C1682.87,585.657 1670.52,592.454 1689.44,590.974C1689.84,593.129 1689.8,593.281 1689.7,595.486C1691.85,595.961 1692.77,596.273 1694.68,597.377C1696.02,600.532 1695.36,602.208 1694.79,605.61C1696.62,611.201 1704.86,613.805 1708.55,618.081C1704.53,619.86 1703.66,625.658 1702.48,629.925C1704.36,633.158 1704.74,634.747 1707.56,636.89L1708.22,635.65L1707.82,636.761L1708.63,635.616L1708.32,637.266L1705.26,638.947L1706.56,640.838L1710.31,640.474C1714.47,646.768 1701.3,649.74 1705.54,656.09C1707.14,658.483 1709.23,663.134 1710.7,665.886C1706.83,673.237 1697.28,678.781 1699.15,685.9C1703.57,686.133 1702.63,682.094 1705.19,684.517C1703.92,686.157 1702.87,687.429 1701.5,688.986C1702.83,691.879 1703.76,693.386 1705.39,696.041C1700.1,698.974 1699.5,691.568 1699.45,705.639C1715.38,732.21 1723.03,744.487 1718.76,776.226C1719.67,780.498 1720.47,786.666 1723.85,789.41C1727.22,789.535 1726.12,789.53 1729.52,786.794C1731.01,789.025 1731.13,790.572 1731.69,793.175C1739.09,794.784 1737.31,798.174 1742.64,799.368L1743.78,798.675L1743.46,795.624C1746.03,799.17 1751.44,805.898 1753.53,809.298C1754.35,810.633 1755.5,821.489 1756.91,823.784C1759.93,828.692 1764.48,828.928 1766.98,833.434C1768.51,838.074 1769.13,837.617 1768.37,841.795L1765.1,845.146C1764.08,853.786 1770.83,846.622 1764.54,858.716C1763.74,860.236 1763.94,859.91 1764.06,861.956C1766.16,863.744 1767.8,864.866 1769.25,867.232C1767.31,871.825 1765.82,875.734 1764.14,880.415L1763.23,878.287C1759.89,879.492 1759.6,879.607 1759.32,883.503C1757.55,883.703 1757.16,883.766 1755.46,884.508C1754.03,888.998 1754.1,888.674 1757.36,892.577L1757.21,894.526C1755.91,894.919 1754.71,895.34 1753.46,895.9C1755.07,897.868 1755.6,898.069 1757.71,899.563L1757.69,901.639C1752.72,902.908 1753.08,899.345 1750.53,901.845C1751.51,906.375 1752.49,908.249 1754.37,912.564C1752.03,913.95 1749.67,915.297 1747.28,916.603L1746.96,917.978L1749.78,920.64L1749.59,922.488C1744.31,925.27 1746.68,919.119 1744.26,922.207C1743.57,923.098 1738.32,933.443 1737.71,934.657C1738.41,937.09 1738.45,936.911 1740.31,938.689L1739.88,940.485C1734.54,940.421 1739.23,937.118 1734.67,939.033C1731.9,948.975 1729.63,950.178 1720.94,955.286L1715.35,955.114C1708.22,960.216 1701.93,964.436 1695.75,970.717C1686.48,980.146 1677.1,992.404 1666.27,999.979C1695.8,1039.22 1723.01,1077.75 1746.52,1120.93C1751.35,1129.8 1756.45,1138.59 1761.86,1147.12C1756.64,1146.79 1752.23,1146.6 1747.05,1145.72C1762.14,1185.58 1768.62,1215.85 1772.87,1257.76C1773.4,1262.91 1788.24,1301.6 1791.48,1305.24C1793.86,1301.67 1795.19,1298.96 1798.79,1296.66C1805.15,1296.57 1806.09,1301.14 1806.74,1306.51C1803.3,1307.93 1802.35,1307.66 1800.32,1310.18C1803.16,1312.08 1804.03,1311.86 1807.4,1312.02L1808.48,1312.95C1805.92,1315.49 1805.67,1315.34 1805.27,1318.93C1804.38,1317.57 1802.06,1313.64 1801,1312.86C1798.94,1315.71 1799.71,1314.06 1799.83,1318.52C1801.93,1320.66 1802.15,1320.57 1804.89,1321.94C1805.65,1325.12 1805.88,1323.69 1804.44,1326.43L1802.57,1327.5C1799.24,1323.15 1800.12,1322.76 1795.97,1321.67C1794.97,1324.85 1793.93,1325.89 1794.94,1328.17L1796.74,1327.3L1797.07,1328.07C1800.49,1329.57 1802.15,1329.9 1804.3,1332.95C1806.84,1341.13 1801.65,1356.61 1793.31,1359.89C1790.87,1358.88 1790.55,1357.95 1788.54,1356.85C1783.58,1367.18 1782.3,1385.76 1775.14,1397.98C1768.44,1409.42 1762.89,1412.53 1754.97,1422.11C1748.5,1429.95 1743.48,1437.48 1736.13,1444.95C1708.2,1473.35 1670.67,1480.9 1633.84,1491.38C1636.32,1480.98 1638.61,1470.54 1640.72,1460.06L1586.81,1471.84C1590.99,1460.15 1595.05,1448.41 1599.01,1436.64C1583.03,1437.6 1566.74,1439.07 1550.58,1440.06C1555.36,1427.9 1559.84,1416.7 1565.19,1404.78C1549.35,1406.62 1528.83,1406.9 1512.88,1406.21C1519,1390.63 1526.76,1373.2 1533.44,1357.86C1511.37,1336.81 1508.16,1319.93 1501.29,1291.3C1495.6,1287.4 1413.55,1244.86 1412.21,1244.83C1410.88,1247.06 1410.21,1248.15 1408.33,1249.93C1407.29,1249.42 1406.69,1249.39 1405.53,1249.13C1403.03,1251.81 1401.57,1254.16 1398.12,1254.75C1387.85,1252.61 1374.32,1231.95 1367.34,1223.95C1358.02,1213.27 1348.57,1201.91 1339.76,1190.76C1323.68,1167.92 1311.4,1150.67 1284.7,1138.75C1264.61,1154.49 1245.33,1166.98 1222.6,1178.59C1217.49,1181.19 1215.15,1183.98 1210.91,1187.55L1208.41,1185.96C1205.23,1187.98 1205.44,1189.46 1204.26,1193.56L1202.65,1194.05C1202.07,1191.74 1202.09,1192.59 1202.61,1190.29C1199.85,1192.53 1199.9,1192.36 1198.05,1195.35C1203.47,1200.24 1222.69,1206.51 1234.29,1216.16C1262.62,1239.77 1266.72,1253.43 1281.05,1284.5C1292.23,1308.72 1299.57,1317.68 1300.99,1347.56C1302.56,1380.57 1294.44,1413.64 1288.86,1446.31C1280.01,1438.05 1271.23,1429.73 1262.52,1421.32C1259.11,1437.91 1254.19,1463.46 1249.59,1479.59C1238.87,1466.81 1227.82,1453.23 1216.53,1441.06C1212.49,1458.63 1206.39,1480.39 1203.17,1497.56L1165.09,1455.42C1161.72,1473.32 1158.03,1491.16 1154.02,1508.92C1139.69,1494.28 1125.46,1479.53 1111.34,1464.68C1102.53,1455.28 1093.55,1444.89 1084.21,1436.49C1080.01,1432.71 1066.5,1438.74 1061.49,1439.44C1061.39,1439.45 1058.57,1437 1058.51,1436.95C1054.59,1437.43 1052.4,1437.86 1048.55,1438.76L1046.68,1436.27L1043.97,1439.08C1041.53,1438.48 1042.67,1438.87 1040.52,1437.94C1034.23,1442.12 1030.75,1457.84 1026.7,1464.01C1021.04,1472.65 1012.42,1482.9 1005.91,1491.1L1005.8,1492.39C1008.91,1495.28 1012.92,1495.81 1017.15,1496.81C1020.18,1499.85 1020.58,1501.57 1022.34,1505.61L1023.62,1505.62L1025,1504.16C1030.44,1506.38 1031.26,1512.1 1035.32,1512.47L1037.08,1511.48L1037.9,1512.47L1036.49,1515.32C1039.78,1521.8 1045.1,1516.84 1048.24,1522.91C1056.04,1538.04 1065.2,1552.6 1071.33,1568.54C1079.6,1590.27 1084.61,1613.22 1091.8,1635.32C1078.78,1635.28 990.646,1635.5 987.95,1637.52L987.295,1639.87L985.938,1639.98C985.349,1637.96 985.428,1639.06 985.946,1636.68C982.149,1635.13 959.967,1637.53 954.693,1638.21L953.521,1635.76L951.773,1636.01L950.52,1637.88C945.321,1637.19 925.088,1635.26 920.321,1636.81L918.844,1639.67L917.567,1639.18L916.565,1636.43L914.49,1636.09C912.416,1637.62 913.35,1636.77 911.67,1638.6C910.575,1637.64 909.245,1636.1 907.623,1636.12C898.126,1636.24 888.622,1636.15 879.122,1636.03L766.581,1635.28C754.231,1620.17 741.795,1605.12 729.273,1590.15C724.451,1584.33 717.191,1574.65 712.324,1569.43C714.478,1560.81 716.856,1549.23 719.254,1541.06C714.37,1531.28 721.528,1490.12 721.604,1476.79C721.625,1473.12 726.377,1473.58 727.568,1470.13C725.67,1468.15 724.03,1466.53 722.038,1464.64C737.357,1466.68 731.13,1460 734.337,1456.44C735.148,1458.87 734.547,1459 733.705,1461.99L734.565,1462.34C736.022,1459.76 737.55,1457.22 739.148,1454.73C743.988,1435.76 748.309,1408.67 752.123,1388.8C752.597,1386.33 746.515,1381.81 743.979,1379.44C741.736,1379.15 742.866,1379.14 740.553,1380.1C737.083,1374.73 730.017,1366.65 725.246,1362.47C722.966,1363.41 724.057,1363.26 722.025,1363.19C716.218,1355.83 711.388,1347.9 706.476,1341.76C705.132,1341.59 703.786,1341.43 702.439,1341.3L702.866,1343.85C699.365,1344.29 699.618,1344.26 696.422,1342.71C691.442,1337.19 692.078,1330.15 691.621,1322.57C689.979,1323.63 689.238,1324 687.502,1324.88C686.054,1322.96 686.511,1324.09 686.89,1321.11C691.303,1317.97 692.019,1318.18 690.775,1312.94C687.312,1309.23 686.338,1309.02 686.004,1304.08C687.884,1301.48 689.175,1301.93 693.088,1300.75C690.71,1295.75 690.651,1295.08 690.868,1289.54C680.535,1285.22 666.611,1278.74 656.544,1275.02C623.213,1321.49 574.901,1355.22 532.269,1392.54C526.877,1397.27 491.071,1425.28 491.476,1429.94L492.546,1431.24C473.578,1457.26 474.219,1468.5 464.443,1497.32C472.067,1504.26 482.817,1513.55 488.608,1521.74C510.482,1552.67 515.283,1598.76 521.672,1635.59L379.028,1635.97C379.757,1624.06 380.212,1614.86 380.038,1602.88C383.774,1602.82 385.384,1602.034 404.23,1602.15C430.303,1602.31 457.281,1602.77 483.277,1602.48C473.954,1548.16 466.839,1539.17 425.364,1509.22C434.868,1483.64 446.568,1433.24 459.06,1412.21C462.758,1405.98 520.074,1360.2 528.2,1353.57C575.786,1314.71 611.737,1283.44 648.42,1233.72C676.665,1249.3 696.649,1258.06 727.532,1267.76C730.182,1278.54 738.103,1312.11 741.768,1321.16C747.566,1335.5 775.949,1365.03 787.752,1378.18C774.344,1440.44 763.363,1497.85 748.075,1560.29C758.082,1573.73 770.614,1589.87 781.735,1602.4C828.283,1602.82 874.834,1602.96 921.384,1602.82C963.302,1602.82 1006.78,1603.36 1048.55,1602.71C1030.84,1539.05 999.353,1528.09 939.97,1511.58C958.543,1491.99 991.666,1462.7 1002.54,1439.74C1007.8,1428.64 1014.91,1401.81 1019.67,1388.71C1044.67,1401.81 1059.34,1405.89 1087.07,1400.08C1103.89,1416.51 1123.15,1439.59 1138.56,1457.34C1143.31,1432.68 1144.07,1420.69 1142.68,1395.52C1163.69,1414.6 1171.81,1423.56 1189.25,1445.83C1193.38,1425.27 1198.05,1404.36 1195.18,1383.25C1203.48,1390.81 1210.85,1397.62 1218.42,1406.01C1224.4,1412.63 1230.25,1420.45 1236.25,1426.8C1239.53,1403.7 1242.89,1387.44 1238.19,1364.16C1253.73,1375.76 1259.9,1384.25 1272.74,1398.35C1277.8,1356.16 1278.9,1326.72 1252.34,1295.92C1246.9,1289.61 1242.71,1272.09 1236.45,1264.89C1217.4,1232.55 1163.87,1215.3 1128.33,1210.45C1118.85,1200.03 1106.96,1187.91 1098.01,1177.45C1143.97,1165.6 1177.98,1153.32 1214.95,1121.07C1211.48,1131.51 1208.2,1140.21 1204.15,1150.4C1225.59,1141.84 1239.82,1133.29 1258.42,1119.01C1265.53,1113.55 1276.76,1103.37 1283.88,1099.17C1303.96,1109.68 1333.69,1127.43 1346.67,1146.02C1361.51,1167.29 1376.82,1184.99 1393.04,1204.96L1393.08,1172.93C1430.84,1222.77 1443.11,1226.07 1498.69,1252.49C1509.02,1257.4 1522.09,1268.22 1531.91,1274.1C1535.69,1303.37 1540.52,1326.18 1564.5,1346.02C1559.46,1358.7 1555.03,1370.06 1548.99,1382.28C1572.5,1380.13 1587.57,1376.93 1607.35,1363.04C1602.39,1381.86 1596.36,1396.43 1587.17,1413.56C1609.38,1410.94 1620.51,1408.23 1640.23,1397.54C1636.25,1414.16 1631.83,1423.36 1624.95,1438.91C1647.32,1433.55 1655.43,1430.61 1675.32,1419.16C1672.46,1430.62 1668.9,1445.42 1664.34,1456.1C1688.26,1448.09 1708.6,1440.22 1724.82,1419.54C1728.41,1414.97 1730.99,1408.01 1734.22,1404C1739.13,1397.89 1745.76,1394.22 1749.48,1386.37C1761.53,1360.9 1762.46,1319.18 1753.9,1292.6C1751.05,1283.77 1744.76,1272.83 1742.63,1264.48C1740.1,1254.56 1741.05,1242.08 1739.39,1231.43C1735,1203.23 1728.73,1173.81 1714.66,1148.74C1709.92,1140.28 1703.29,1132.21 1697.87,1124.04C1703.6,1124.8 1709.61,1125.52 1715.3,1126.41C1698.61,1100.11 1685.1,1075.97 1666.77,1050.15C1653.46,1031.41 1635.67,1010.88 1623.5,992.354C1638.68,983.907 1649.76,977.945 1661.22,964.343C1664.11,960.92 1675.14,946.907 1677.55,944.88C1692.82,932.009 1703.61,929.813 1710.09,907.55C1711.67,902.121 1712.62,890.783 1714.33,886.16C1720.11,870.509 1732.69,855.518 1721.81,837.964C1711.46,821.263 1690.28,811.993 1678.12,796.134C1704.46,745.143 1679.13,740.064 1658.41,698.953C1670.84,666.747 1671.12,653.64 1654.22,623.353C1655.77,619.332 1656.35,619.762 1655.61,616.275L1654.35,615.816L1652.73,618.77C1649.42,616.445 1642.43,610.807 1639.01,610.875L1638.3,613.615L1636.43,613.547C1636,610.599 1636.69,611.634 1635.07,609.719C1629.2,613.253 1629.91,611.873 1622.51,611.025C1605.09,609.028 1592.97,609.791 1578.96,621.159C1559.97,613.498 1545.59,610.076 1525.37,606.657C1519.05,605.588 1505.09,595.701 1497.78,593.936C1471.68,583.246 1451.44,581.948 1424.29,579.833C1401.5,546.121 1374.02,534.527 1333.82,539.304C1244.55,474.874 1176.36,446.119 1065.45,439.206C1072.03,448.48 1078.69,456.473 1085.9,465.239C1015.35,456.857 950.472,476.49 887.081,505.238C898.934,508.547 909.097,511.89 920.743,515.881C904.48,525.854 888.724,536.629 873.531,548.167C868.979,551.635 848.622,568.387 845.188,570.023C824.823,579.729 803.473,587.894 782.753,597.732C736.066,620.15 691.367,646.493 649.138,676.476C616.75,699.963 585.978,725.601 557.029,753.217C545.375,764.2 534.549,776.686 523.322,787.555C517.209,793.474 493.3,802.989 484.108,807.454C411.166,842.892 386.094,908.449 402.404,985.925C354.626,1073.95 334.959,1158.06 328.271,1255.56C327.904,1260.92 316.851,1283.69 314.174,1289.85C309.179,1301.49 304.822,1313.39 301.121,1325.5C281.157,1390.61 268.83,1457.81 258.134,1525.04C256.838,1533.19 255.49,1541.3 254.616,1549.51C266.274,1572.36 272.605,1581.9 288.427,1602.15C311.685,1602.12 358.871,1600.86 380.038,1602.88C380.222,1613.62 380.715,1625.4 380.703,1636.03C370.445,1636.02 328.512,1637.11 321.234,1636.04C317.17,1641.78 319.944,1643.07 311.457,1646.37C310.317,1645.18 309.146,1644.02 307.947,1642.89L306.074,1643.64L304.531,1647.56C301.228,1648.83 301.019,1643.91 299.816,1644.03C289.01,1645.1 287.656,1646.93 277.584,1643.37L276.3,1642.9C275.014,1643.35 273.72,1643.77 272.417,1644.17C258.44,1626.99 266.425,1639.15 256.579,1641.22L255.822,1639.85L256.502,1641.17C257.671,1633.99 257.657,1641.19 259.53,1635.1C256.822,1631.56 254.294,1631.34 249.756,1629.39L249.399,1627.29L247.039,1625.84C246.412,1623.5 246.775,1623.72 247.368,1621.31C242.529,1617.83 238.157,1621.48 234.679,1617.02C235.176,1611.14 237.35,1610.78 241.771,1608.6C237.063,1608.41 234.466,1611.77 228.344,1612.21L227.347,1610.97C226.456,1604.46 223.865,1594.06 227.194,1588.56C221.997,1582.52 216.069,1576.15 212.762,1568.94C213.556,1567.72 214.108,1566.9 215.008,1565.74L215.706,1564.86C212.2,1559.77 215.228,1566.72 210.461,1561.78C209.741,1558.05 209.855,1556.87 207.167,1554.16C206.816,1554.56 204.686,1555.95 204.159,1556.31C200.039,1556.1 201.577,1556.91 198.987,1554.71C199.258,1548.86 198.669,1549.12 195.441,1545.15C195.244,1541.91 194.934,1543.49 196.998,1540.42C200.309,1538.72 201.52,1539.01 205.071,1539.17C207.075,1535.62 206.836,1525.97 204.67,1521.63C203.99,1523.01 204.449,1522.17 203.159,1524.25L201.416,1523.58C201.383,1521.34 201.38,1521.5 202.336,1519.45C208.515,1516.48 202.778,1521.2 209.047,1519.87L209.866,1518.24C208.247,1515.53 207.893,1513.01 207.163,1509.94C198.817,1504.24 197.746,1498.3 204.143,1489.91L205.635,1490.06C206.886,1492.02 208.115,1493.02 209.873,1494.52C211.45,1491.23 212.021,1488.32 211.273,1484.75C209.091,1483.01 207.052,1483.43 204.241,1483.5L204.613,1480.74C219.898,1474.93 209.285,1467.95 212.007,1459.33L213.276,1459.7L214.26,1463.04L215.538,1463.33C217.806,1462.1 217.974,1462.3 219.067,1460.04C212.884,1452.82 217.766,1457.27 220.477,1452.65C219.093,1449.96 218.037,1448.65 218.392,1445.67C223.127,1444.2 226.421,1437.53 227.194,1432.16C227.322,1431.27 224.004,1431.15 223.523,1426.92L224.91,1425.38C227.87,1426.23 226.848,1426.41 229.499,1425.81L229.55,1420.96C234.152,1412.99 233.103,1414.81 231.493,1405.49C238.085,1402.29 231.255,1407.74 238.191,1406.9C239.028,1404.84 236.685,1400.37 235.718,1396.95C239.881,1392.48 248.088,1382.03 252.195,1379.65C252.869,1378.09 256.429,1364.33 257.122,1361.82C261.019,1347.47 265.122,1333.17 269.429,1318.93C273.27,1306.27 277.79,1293.83 282.969,1281.65C291.137,1262.5 296.772,1254.19 298.096,1233.02C303.463,1147.2 327.74,1068.93 363.551,991.34C361.149,989.321 361.78,990.298 360.592,987.54L363.547,984.31C353.23,983.177 358.151,970.493 355.603,964.065C354.974,962.478 353.712,962.724 351.943,962.232L351.161,960.591C356.272,953.681 349.88,956.721 347.745,948.964L348.53,947.87L351.018,949.208L351.647,948.487C352.145,943.926 353.039,939.981 351.743,935.679L349.2,932.918C340.421,923.337 349.97,925.11 352.624,921.517C351.691,918.209 351.255,918.718 348.199,915.956C348.27,911.862 356.268,901.547 357.995,894.51C355.694,889.549 355.287,889.807 356.023,885.101L359.505,883.429C361.05,880.495 359.842,874.424 359.46,870.773L356.379,869.632L356.1,868.023L357.322,867.255C359.827,868.149 361.724,868.811 364.304,869.54C364.429,866.745 362.462,861.275 362.824,859.407C363.783,854.446 369.994,852.373 371.73,846.97L369.623,844.392C369.831,841.432 372.542,840.025 375.327,837.483L375.097,833.992C378.588,829.584 375.789,834.626 380.377,831.511C379.516,828.859 377.696,827.701 375.509,825.529L377.074,824.593L379.942,826.502L381.91,826.074L383.024,821.195L384.635,820.241C386.113,820.696 387.595,821.139 389.081,821.569L391.025,820.021C392.086,816.906 392.473,814.787 394.771,812.444C397.342,812.35 397.394,812.504 399.711,811.5L398.271,808.979L398.662,807.607C401.905,808.365 403.054,808.826 406.433,808.514L406.652,803.436C411.509,801.581 407.065,804.817 412.11,805.265C413.089,803.149 413.304,802.664 414.527,800.648L417.487,800.46C417.484,796.722 416.778,797.986 418.487,795.593C428.634,799.988 424.812,795.579 432.435,791.641L435.371,794.399C438.36,794.117 437.031,794.602 439.5,792.872C439.677,790.479 439.495,789.387 439.004,787.032L440.543,786.719C442.052,788.761 441.398,788.229 443.416,789.633C446.179,787.719 446.319,786.907 447.77,783.914L448.219,782.968L449.552,782.645L450.915,784.605C453.498,784.434 455.691,780.88 459.139,778.149C461.974,778.319 462.08,779.317 464.802,781.701C473.847,776.626 493.64,769.269 499.49,765.067C510.13,757.423 526.911,738.352 537.068,728.484C555.753,710.665 575.196,693.66 595.346,677.516C642.907,639.425 694.355,606.458 748.834,579.161C771.59,567.721 791.896,559.098 814.675,548.592C816.903,542.885 817.502,540.599 822.858,537.469C826.073,535.591 820.975,536.363 820.058,531.938C823.209,525.839 824.217,525.624 823.429,518.515C818.9,517.472 810.736,514.653 806.022,513.19C811.155,510.196 817.108,507.163 822.397,504.324C827.329,493.935 828.913,484.532 840.37,480.113C842.795,480.413 844.834,480.594 847.253,480.773L850.082,477.82C853.189,474.47 852.079,475.486 855.262,474.131C866.204,469.473 860.558,471.571 869.872,472.606C873.714,469.649 877.656,466.782 881.306,463.587L883.815,465.439C885.546,464.417 886.544,463.71 888.184,462.56C887.918,465.843 887.676,464.241 889.371,467.437L890.372,467.314C890.601,467.137 898.52,459.969 896.638,460.948C903.953,457.144 913.63,456.295 921.325,453.406C928.805,450.597 935.939,445.445 943.611,442.849C948.635,440.909 954.811,442.253 959.12,440.14L959.547,437.115C962.174,434.381 970.473,439.388 976.316,435.851C976.93,433.109 976.532,433.982 977.941,431.593C983.881,433.005 984.496,432.815 990.39,430.521L992.833,431.837L992.847,430.004C990.137,428.776 990.528,428.798 987.601,429.3L986.038,428.005L986.043,425.908C988.811,425.382 986.699,425.601 989.524,425.47C993.524,425.285 989.822,422.618 996.399,420.763L997.053,422.383L998.697,421.505C999.082,416.081 1000.31,407.261 1005.48,404.855C1008.64,404.786 1008.58,404.715 1011.62,403.725C1016.39,397.386 1017.95,399.265 1025.4,399.83Z" style="fill:white;fill-rule:nonzero;"/>
            </g>
            <g transform="matrix(0.5,0,0,0.5,0,0)">
                <path d="M1141.06,488.373C1197,503.006 1250.16,526.715 1298.42,558.557C1264.59,598.592 1264.3,635.229 1284.61,682.305C1256.24,702.021 1228.71,736.771 1218.08,769.896C1216.8,773.903 1214.76,778.899 1214.71,783.067L1217.35,781.262L1218.09,782.075C1215.2,797.738 1211.95,810.867 1212.41,826.995C1213.82,876.04 1227.94,923.08 1255.84,963.239L1250.84,963.423C1231.53,947.96 1209.7,920.843 1196.63,899.69C1160.28,840.848 1151.92,778.321 1166.88,711.714C1142.92,741.906 1131.4,779.593 1129.43,817.636C1125.29,806.946 1122.25,795.186 1117.68,784.654C1099.1,741.842 1079.96,721.145 1042.27,696.305C1087.01,766.711 1103.12,853.188 1073.63,933.229C1071.64,938.626 1069.39,943.474 1066.69,948.536C1069.93,909.213 1070.31,889.963 1056.54,852.314C1041.01,914.24 1043.69,939.757 993.84,989.695C943.66,949.092 877.523,950.989 819.334,970.585C880.437,972.626 954.714,995.107 990.817,1047.46C1003.18,1065.38 1020.55,1097.75 1030.14,1117.65C1019.71,1110.13 1000.27,1095.29 988.86,1090.68C1015.89,1139.32 1046.09,1174.73 1082.71,1216.89L1059.49,1217C1030.8,1185.51 1003.14,1153.11 978.761,1118.16C956.991,1086.95 951.175,1054.4 918.51,1031.94C880.591,1005.87 841.583,985.825 797.264,972.912C798.336,971.863 799.429,970.837 800.543,969.833C844.302,930.06 903.736,915.166 961.733,918.272C985.227,880.634 1010.23,843.625 1034.19,806.266C1023.93,769.236 1007.52,718.154 994.883,681.936C1018.38,646.761 1060.54,590.14 1086.95,559.185C995.624,575.876 911.995,608.834 848.641,679.886C886.518,660.769 912.536,650.475 953.254,639.973C896.889,717.206 836.575,791.867 783.327,871.593C768.446,893.873 752.68,916.149 739.016,939.177L769.081,1025.45C770.602,1029.88 779.992,1060.47 781.833,1062.62C822.938,1110.66 863.991,1159.06 907.31,1205.26C858.929,1187.12 820.229,1157.3 781.674,1123.56C770.452,1113.74 738.894,1081.78 733.515,1070.07C722.728,1046.6 720.691,1002.46 719.386,976.904C711.441,1006.75 706.195,1037.66 701.445,1068.12L692.204,1077.8C702.31,1093.75 731.045,1124.45 744.372,1138.14L727.735,1142.78C766.187,1190.29 837.76,1235.36 888.635,1268.03C811.779,1242.4 736.18,1194.09 679.025,1137.04C675.701,1133.73 672.629,1130.56 669.672,1126.89C679.93,1126.47 690.194,1126.23 700.461,1126.18C691.739,1116.62 676.306,1104.6 666.271,1095.95C655.254,1086.44 645.256,1077.26 634.589,1067.36C645.961,1065.5 655.576,1063.7 666.819,1061.18C667.851,1043.65 671.625,1026.45 675.012,1009.57C689.166,939.042 716.101,863.802 773.852,817.297C776.404,815.242 782.249,810.207 783.624,807.411C797.487,779.234 810.191,752.278 827.077,725.692C811.276,738.604 795.495,752.928 780.024,766.392C762.409,781.723 741.911,797.834 725.637,814.19C671.521,868.582 641.055,936.805 622.502,1010.19C586.903,991.94 575.107,946.919 571.194,910.257C550.704,968.694 551.385,1035.93 569.831,1094.76C532.244,1124.85 497.644,1184.14 484.944,1230.69C480.201,1213.24 479.875,1196.85 479.143,1178.96C410.736,1262.7 368.962,1331.34 317.928,1426.53C321.58,1413.15 324.469,1397.77 327.759,1384.04C332.708,1363.24 338.773,1342.72 345.925,1322.56C349.89,1311.3 354.5,1300.27 359.732,1289.54C374.266,1258.98 372.746,1260.68 374.891,1227.06C375.938,1210.66 390.482,1177.74 397.02,1160.93C391.567,1164.22 385.907,1167.28 380.331,1170.38C385.492,1148.48 390.6,1124.23 398.027,1103.14C423.015,1032.17 457.1,958.799 493.742,893.416C469.796,903.903 456.672,911.019 434.236,924.049C435.365,915.456 437.613,907.048 440.922,899.038C454.159,867.047 480.933,848.157 512.066,835.292C507.859,849.067 505.355,862.82 502.558,876.926C581.692,767.437 690.305,685.789 812.191,628.709C797.931,658.917 791.989,679.114 784.944,711.611C848.863,622.979 916.332,537.348 1035.45,530.766C1020.72,521.018 1006.82,515.661 990.621,509.163C1027.91,500.381 1075.38,500.172 1112.95,507.321C1128.82,510.34 1146.01,515.605 1161.58,520.157C1154.95,508.447 1148.7,499.3 1141.06,488.373Z" style="fill:rgb(0,130,75);fill-rule:nonzero;"/>
            </g>
            <g transform="matrix(0.5,0,0,0.5,0,0)">
                <path d="M1343.85,568.189C1384.26,565.23 1403.09,594.116 1416.47,626.997C1424.07,626.46 1431.78,626.065 1439.4,625.609C1438.81,620.784 1437.81,615.197 1437.05,610.332C1492.75,616.22 1509.74,625.315 1552.14,656.619L1543.71,638.844C1547.72,639.553 1551.7,640.468 1555.62,641.585C1595.69,653.429 1625.62,690.399 1644.54,725.914C1638.45,726.216 1631.4,727.014 1625.25,727.565C1642.41,734.985 1652.74,738.639 1663.26,754.566C1661.14,756.129 1658.99,757.658 1656.82,759.153C1625.16,780.834 1630.78,770.289 1615.26,744.147C1616.65,759.01 1615.86,764.37 1607.88,776.437C1629.66,788.83 1643.77,799.955 1661.88,816.723C1597.34,810.743 1613.94,869.195 1629.36,872.979C1633.34,870.975 1635.62,867.541 1638.55,864.049C1645.24,874.62 1648.85,880.84 1656.83,890.658L1651.87,901.249C1637.01,901.112 1616.89,898.943 1602.59,896.966C1557.83,890.778 1548.23,836.984 1499.55,870.424C1469.88,890.8 1459.4,901.822 1439.27,931.624C1447.11,926.795 1453.28,923.428 1461.69,919.809C1457.6,951.543 1458.83,1024.49 1477.01,1051.92C1488.63,1069.45 1513.38,1081.26 1534.04,1080.56C1538.09,1080.43 1551.01,1079.86 1554.06,1080.45L1553.51,1082.13C1534.21,1097.66 1507.13,1101.43 1484.69,1091.05C1466.95,1082.83 1455.29,1069.71 1443.27,1054.84C1440.74,1010.67 1429.03,967.577 1403.72,930.789C1406.69,955.242 1407.29,971.061 1407.11,995.505C1402.38,987.062 1395.54,975.444 1389.09,968.249C1369.49,946.408 1348.66,926.939 1331.66,902.701C1330.08,900.45 1326.3,897.566 1323.73,896.298C1316.56,899.045 1312.54,918.825 1310.49,926.269C1293.86,867.01 1291.78,817.593 1319.06,761.475C1287.22,790.59 1277.93,810.438 1261.58,848.593C1257.99,797.234 1267.68,759.893 1297.95,717.956L1284.73,722.926C1286,720.834 1287.32,718.771 1288.68,716.738C1311.11,683.212 1343.93,646.018 1384.88,637.818C1375.86,606.912 1358.14,576.131 1321.85,599.267L1335.9,602.755C1317.93,619.537 1315.73,628.713 1310.37,652.119C1309.58,638.606 1310.56,628.644 1311.95,615.334C1308.73,620.163 1305.08,625.176 1301.72,629.951C1303.26,601.425 1313.36,576.009 1343.85,568.189Z" style="fill:rgb(0,130,75);fill-rule:nonzero;"/>
            </g>
            <g transform="matrix(0.5,0,0,0.5,0,0)">
                <path d="M1483.48,713.168C1529.32,710.346 1523.57,749.267 1563.23,760.85C1579.95,765.733 1585.87,755.298 1589.53,740.976C1601.12,765.733 1597.08,770.544 1573.55,781.641C1583.47,793.858 1591.81,802.052 1600.92,815.414C1567.71,796.779 1550.6,789.471 1515.95,811.863C1498.76,824.183 1489.68,840.752 1481.1,859.562C1480.91,843.411 1482.79,839.337 1487.06,824.431C1493.29,802.75 1497.18,797 1515.71,784.706C1486.63,776.454 1483.13,768.588 1470.55,743.112C1479.04,740.404 1483.78,738.423 1491.9,734.676C1472.31,727.86 1461.12,729.548 1440.95,732.699C1457.14,721.237 1464.26,717.269 1483.48,713.168Z" style="fill-rule:nonzero;"/>
            </g>
            <g transform="matrix(0.5,0,0,0.5,0,0)">
                <path d="M1502.5,740.704C1506.49,741.091 1508.73,741.402 1511.87,744.058C1516.52,747.982 1535.83,764.34 1536.44,769.77L1534.85,770.755C1514.29,774.439 1493.43,763.605 1502.5,740.704Z" style="fill:white;fill-rule:nonzero;"/>
            </g>
            <g transform="matrix(0.5,0,0,0.5,0,0)">
                <path d="M1524.37,667.028C1533.57,668.176 1556.89,674.466 1564.24,679.91C1576.05,688.661 1578.65,705.867 1580.88,719.438C1577.12,716.55 1570.09,704.637 1566.02,700.245C1553.1,686.32 1540.03,677.127 1524.37,667.028Z" style="fill-rule:nonzero;"/>
            </g>
            <g transform="matrix(0.5,0,0,0.5,0,0)">
                <path d="M1596.12,1014.46C1607.74,1022.96 1653.79,1087.68 1662.42,1101.93C1649.08,1096.43 1639.68,1092.7 1626.07,1088.38C1643.58,1105.83 1666.87,1140.01 1683.94,1159.41C1695.74,1172.82 1702.45,1221.13 1705.15,1240.82C1688.99,1233.39 1677.69,1228.67 1660.54,1223.46C1680.2,1238.68 1703.64,1267.89 1715.45,1289.23C1726.31,1308.88 1730.72,1333.97 1724.03,1355.58C1723.26,1358.09 1722.28,1359.4 1719.93,1360.6C1715.6,1359.2 1716.23,1352.25 1716.41,1347.87C1716.68,1341.27 1714.24,1314.2 1707.64,1312.27C1706.5,1314.8 1706.6,1317.35 1706.33,1320.25C1705.68,1328.97 1704.18,1334.86 1701.83,1343.19C1699.04,1342.44 1695.57,1341.23 1692.76,1340.33C1693.63,1317.43 1693.55,1301.86 1677.97,1283.87C1679.14,1295.94 1678.26,1303.82 1675.95,1315.61C1669.19,1310.91 1666.65,1309.97 1658.57,1308.54C1660.69,1284.84 1660.76,1269.55 1648.41,1248.76C1647.61,1260.52 1646.64,1270.77 1644.28,1282.33L1643.74,1281.65L1642.83,1280.54C1638.93,1275.72 1638.45,1274.83 1633.3,1271.38C1616.5,1268.88 1607.56,1272.52 1591.66,1277.09C1576.98,1242.76 1586.11,1222.86 1612.25,1199.17C1587.95,1165.51 1574.57,1147.97 1544.14,1119.27C1575.88,1105.67 1572.32,1098.03 1581.83,1070.25C1590.23,1045.68 1594.39,1041.97 1596.12,1014.46Z" style="fill:rgb(0,130,75);fill-rule:nonzero;"/>
            </g>
            <g transform="matrix(0.5,0,0,0.5,0,0)">
                <path d="M1131.84,918.129C1160.33,973.712 1192.13,1016.15 1257.42,1027.06C1202.92,1034.35 1171.39,1027.31 1130.92,987.606C1118.84,997.609 1112.49,1000.64 1098.9,1008.02C1093.66,1008.15 1092.23,1008.68 1087.58,1006.62C1112.71,981.847 1127.92,953.615 1131.84,918.129Z" style="fill:rgb(0,130,75);fill-rule:nonzero;"/>
            </g>
            <g transform="matrix(0.5,0,0,0.5,0,0)">
                <path d="M1490.84,930.315C1514.8,931.635 1516.3,951.316 1522,970.419C1522.62,965.287 1522.84,962.63 1522.66,957.591C1522.51,953.465 1519.42,939.725 1519.94,936.937C1536.86,939.742 1541.33,955.566 1543.53,970.394C1545.56,984.119 1548.38,997.073 1551.83,1010.5C1553.91,1027.06 1538.53,1032.37 1526.42,1023.56C1520.16,1019 1520.28,1012.91 1519.54,1005.74C1515.78,1008.48 1511.46,1012.36 1506.72,1010.99C1487.64,1005.46 1489.29,967.084 1484.52,952.175C1481.71,943.374 1480.05,941.695 1474.95,934.812C1481.62,932.097 1483.77,931.394 1490.84,930.315Z" style="fill:rgb(0,130,75);fill-rule:nonzero;"/>
            </g>
            <g transform="matrix(0.5,0,0,0.5,0,0)">
                <path d="M1534.37,883.981C1544.86,883.167 1561.17,894.893 1570.41,900.853C1603.7,922.334 1628.07,906.432 1662.11,927.139C1655.06,944.834 1645.24,955.649 1629.08,965.118C1633.56,954.904 1634.43,951.171 1636.04,940.178C1635.75,937.707 1636.3,938.673 1634.56,937.18C1632.28,937.863 1630.27,938.568 1628.03,939.357C1624.39,938.26 1624.94,937.63 1622.04,933.879C1617.46,933.477 1615.91,935.611 1610.73,935.749C1607.59,934.237 1606.74,932.005 1604.9,928.968C1599.96,930.88 1594.87,933.824 1590.16,936.344C1589.63,931.697 1589.29,926.686 1588.89,921.996C1576.7,938.445 1572.43,943.978 1554.78,954.164C1557.46,943.121 1562.62,922.968 1560.84,911.944C1557.41,908.712 1557.85,913.17 1551.5,907.285C1543.71,900.062 1537.56,892.769 1527.16,890.196L1525.4,889.777L1525.32,888.951C1528.28,886.234 1530.6,885.593 1534.37,883.981Z" style="fill:rgb(254,254,254);fill-rule:nonzero;"/>
            </g>
            <g transform="matrix(0.5,0,0,0.5,0,0)">
                <path d="M1082.51,1330.77C1104.5,1341.28 1118.69,1366.84 1121.83,1390.25C1122.65,1396.33 1124.33,1402.97 1122.99,1409.08L1121.8,1409.24L1119.69,1406.5C1103.52,1385.11 1094.19,1379.17 1071.92,1365.2C1072.03,1350.48 1072.42,1342.13 1082.51,1330.77Z" style="fill:rgb(0,130,75);fill-rule:nonzero;"/>
            </g>
            <g transform="matrix(0.5,0,0,0.5,0,0)">
                <path d="M1084.49,1233C1093.36,1233.09 1107.88,1238.8 1117.2,1240.64C1154.63,1248.04 1183.95,1251.86 1209.87,1282.07L1202.05,1288.19C1190.56,1276.01 1188.16,1273.41 1172.38,1267.82C1166.01,1265.91 1159.17,1264.93 1152.59,1263.79C1168.25,1272.61 1175.78,1276.02 1188.32,1288.59C1184.96,1289.2 1181.49,1290.06 1178.14,1290.82C1161.51,1273.63 1107.86,1245.94 1084.49,1233Z" style="fill:rgb(0,130,75);fill-rule:nonzero;"/>
            </g>
            <g transform="matrix(0.5,0,0,0.5,0,0)">
                <path d="M1136.41,1319.57C1159.24,1326.31 1178.79,1375.14 1174.84,1396.21L1173.79,1396.92L1171.29,1393.98C1158.12,1377.82 1146.06,1368.24 1129.32,1356.14C1119.15,1348.8 1129.45,1326.74 1136.41,1319.57Z" style="fill:rgb(0,130,75);fill-rule:nonzero;"/>
            </g>
            <g transform="matrix(0.5,0,0,0.5,0,0)">
                <path d="M1516.47,1013.75C1519.41,1022.04 1511.82,1035.78 1513.85,1040.38C1516.39,1039.45 1517.82,1038.76 1520.55,1038.56C1522.17,1040.59 1522.59,1041.09 1524.51,1042.82C1548.18,1046.81 1560.48,1048.53 1576.79,1027.5C1572.9,1041.26 1569.75,1049.52 1560.44,1060.48C1557.73,1061.9 1559.87,1061.13 1556.89,1061.51C1534.49,1064.36 1516.83,1060.49 1496.68,1050.28C1488.45,1046.12 1486.87,1034.17 1485.01,1025.56C1488.14,1027.88 1491.27,1029.5 1494.66,1031.39C1505.23,1025.57 1508.09,1022.67 1516.47,1013.75Z" style="fill:rgb(254,254,254);fill-rule:nonzero;"/>
            </g>
            <g transform="matrix(0.5,0,0,0.5,0,0)">
                <path d="M1625.58,1289.18C1628.55,1289.1 1627.28,1288.61 1629.63,1290.16C1635.69,1317.76 1604.84,1345.51 1583.63,1357.8C1582.08,1358.28 1583.02,1358.07 1580.75,1358.17C1581.28,1353.64 1586.56,1347.38 1588.61,1341.98C1594.04,1327.61 1595.63,1316.38 1597.56,1301.46C1606.69,1292.83 1613.7,1291.71 1625.58,1289.18Z" style="fill:rgb(0,130,75);fill-rule:nonzero;"/>
            </g>
            <g transform="matrix(0.5,0,0,0.5,0,0)">
                <path d="M1184.41,1308.94C1185.22,1309.34 1186.02,1309.74 1186.82,1310.17C1201.16,1317.87 1213.18,1337.97 1217.76,1353.21C1219.27,1358.23 1223.42,1377.05 1221.08,1381.38L1219.1,1379.34C1203.66,1357.22 1195.68,1355.82 1176.48,1340.58L1175.64,1339.9C1175.26,1326.92 1175.3,1318.79 1184.41,1308.94Z" style="fill:rgb(0,130,75);fill-rule:nonzero;"/>
            </g>
            <g transform="matrix(0.5,0,0,0.5,0,0)">
                <path d="M1651.94,1328.23C1657.78,1327.67 1661.64,1326.47 1666.2,1329.9C1676.21,1346.1 1641.42,1377 1628.9,1384.97C1624.56,1387.5 1620.2,1389.56 1615.7,1391.77C1621.98,1381.01 1627.05,1371.8 1631.06,1359.79C1633.64,1352.05 1633.37,1341.65 1636.32,1334.69C1637.91,1330.93 1647.87,1329.1 1651.94,1328.23Z" style="fill:rgb(0,130,75);fill-rule:nonzero;"/>
            </g>
            <g transform="matrix(0.5,0,0,0.5,0,0)">
                <path d="M1679.26,1357.28C1684.97,1357 1691.82,1356.16 1696.86,1358.6C1704.75,1371.78 1675.91,1398.79 1665.92,1405.99C1661,1408.9 1656.01,1411.36 1650.93,1413.94C1660.69,1396.43 1664.77,1382.33 1669.3,1363.08C1670.09,1359.74 1676.34,1358.15 1679.26,1357.28Z" style="fill:rgb(0,130,75);fill-rule:nonzero;"/>
            </g>
            <g transform="matrix(0.5,0,0,0.5,0,0)">
                <path d="M1222.93,1300.38C1244.39,1306.35 1258.51,1338.3 1257.33,1358.57L1255.83,1358.44C1252.2,1353.82 1247.42,1348.3 1243.15,1344.33C1227.74,1330.01 1209.33,1325.12 1222.93,1300.38Z" style="fill:rgb(0,130,75);fill-rule:nonzero;"/>
            </g>
            <g transform="matrix(0.5,0,0,0.5,0,0)">
                <path d="M1609.53,633.217C1630.24,631.612 1644.42,633.438 1643.39,658.727C1643.17,664.151 1643.54,670.471 1641.47,675.559L1640.14,675.033C1626.51,655.518 1621.78,649.32 1603.09,636.294C1604.64,634.192 1606.45,634.244 1609.53,633.217Z" style="fill:rgb(0,130,75);fill-rule:nonzero;"/>
            </g>
            <g transform="matrix(0.5,0,0,0.5,0,0)">
                <path d="M1714.19,1380.36C1718.62,1380.21 1719.09,1379.43 1722.24,1381.3C1726.91,1393.39 1704.7,1415.39 1695.91,1422.31C1693.11,1424.37 1692.54,1425.4 1689.39,1425.87C1690.8,1421.3 1692.23,1416.63 1693.76,1412.08C1698.94,1396.61 1694.27,1382.34 1714.19,1380.36Z" style="fill:rgb(0,130,75);fill-rule:nonzero;"/>
            </g>
            <g transform="matrix(0.5,0,0,0.5,0,0)">
                <path d="M1647.7,828.223C1664.03,826.684 1677.64,828.184 1691.77,837.761C1694.79,839.812 1698.74,842.766 1699.46,846.465L1698.22,847.785C1693.94,848.124 1690.09,845.658 1686.01,843.744C1674.06,839.956 1660.49,837.995 1648,839.971C1646.05,840.28 1638.33,845.231 1636.23,846.505L1634.49,846.025C1631.78,839.788 1642.25,830.707 1647.7,828.223Z" style="fill:rgb(0,130,75);fill-rule:nonzero;"/>
            </g>
            <g transform="matrix(0.5,0,0,0.5,0,0)">
                <path d="M1040.19,1285.3C1050.66,1284.19 1066.17,1285.57 1076.15,1289.17C1091.19,1294.58 1095.76,1302.03 1101.98,1315.35C1096.35,1315.16 1090.6,1314.34 1084.99,1313.67C1070.7,1295.43 1060.44,1294.71 1040.19,1285.3Z" style="fill:rgb(0,130,75);fill-rule:nonzero;"/>
            </g>
            <g transform="matrix(0.5,0,0,0.5,0,0)">
                <path d="M1096.38,1274.33C1118.43,1272.7 1149.74,1276.09 1154.1,1302.61C1148.09,1301.68 1143.79,1301.29 1137.73,1300.88C1125.05,1283.7 1115.25,1282.46 1096.38,1274.33Z" style="fill:rgb(0,130,75);fill-rule:nonzero;"/>
            </g>
            <g transform="matrix(0.5,0,0,0.5,0,0)">
                <path d="M1688.01,890.175L1688.78,890.768C1690.76,899.837 1683.46,916.145 1671.86,913.511C1661.25,898.477 1676.32,893.214 1688.01,890.175Z" style="fill:rgb(0,130,75);fill-rule:nonzero;"/>
            </g>
            <g transform="matrix(0.5,0,0,0.5,0,0)">
                <path d="M1657.91,772.781C1666.61,778.265 1659.11,792.589 1651.3,791.026C1647.69,788.661 1644.98,786.216 1641.71,783.436L1657.91,772.781Z" style="fill:white;fill-rule:nonzero;"/>
            </g>
            <g transform="matrix(0.5,0,0,0.5,0,0)">
                <path d="M1077.45,1014.95C1080.8,1012.14 1084.17,1009.37 1087.58,1006.62C1092.23,1008.68 1093.66,1008.15 1098.9,1008.02C1091.96,1011.52 1084.96,1013.19 1077.45,1014.95Z" style="fill:rgb(0,130,75);fill-rule:nonzero;"/>
            </g>
            <g transform="matrix(0.5,0,0,0.5,0,0)">
                <path d="M1255.84,963.239L1265.04,975.614C1259.79,971.526 1255.37,968.32 1250.84,963.423L1255.84,963.239Z" style="fill:rgb(0,130,75);fill-rule:nonzero;"/>
            </g>
        </g>
    </g>
</svg>
