<?xml version="1.0" encoding="UTF-8" standalone="no"?>
<!DOCTYPE svg PUBLIC "-//W3C//DTD SVG 1.1//EN" "http://www.w3.org/Graphics/SVG/1.1/DTD/svg11.dtd">
<svg width="100%" height="100%" viewBox="0 0 497 483" version="1.1" xmlns="http://www.w3.org/2000/svg" xmlns:xlink="http://www.w3.org/1999/xlink" xml:space="preserve" xmlns:serif="http://www.serif.com/" style="fill-rule:evenodd;clip-rule:evenodd;stroke-linejoin:round;stroke-miterlimit:2;">
    <g transform="matrix(1,0,0,1,-8.463708,-15.343598)">
        <g transform="matrix(1,0,0,1,-5027.981929,0.647578)">
            <g transform="matrix(1.998496,0,0,1.998496,4260.415026,-183.503684)">
                <path d="M587.54,99.52C591.13,100.63 594.89,101.86 597.99,104.04C603.07,107.32 607.78,112.08 612.93,115.22C618.41,118.09 623.8,119.48 628.92,123.2C631.98,125.33 633.79,128.24 635.46,131.49C636.61,135.25 636.77,139.11 636.52,143C636.22,151.13 630.83,158.15 631.53,167C631.52,170.33 633,173.47 632.76,176.72C630.3,178.06 627.51,178.55 624.78,178.93C622.61,178.71 620.53,179.39 618.34,179.38C618.9,180.42 619.83,179.99 619.68,181.57C619.22,181.46 618.77,181.35 618.31,181.24C617.76,183.86 617.96,186.04 616.6,188.52C616.18,188.49 615.75,188.45 615.33,188.42C615.37,189.56 615.93,190.66 615.78,191.78C615.02,193.15 613.85,193.95 612.43,194.52C613.04,197.81 614.67,200.01 616.16,202.93C617.7,206.04 617.63,209.63 619.49,212.48C624.71,215.22 630.78,218.07 635.96,221.19C636.54,221.42 636.77,221.9 636.65,222.63C631.25,227.12 626.58,230.86 621.21,235.19C620.46,240.34 619.92,245.83 619.47,251.03C622.53,256.19 626.7,260.97 630.05,266.03L629.91,266.9C624.2,269.4 618.95,269.71 613.09,271.27C609.87,272.37 609.9,276.03 607.66,278.61C606.07,281.61 603.83,284.26 601.82,287.01C601.44,289.57 602.84,292.46 603.23,295C603.73,298.33 603.82,301.69 604.41,305.02L604.05,305.83C601.41,306.09 597.75,303.41 595.54,305.44C594.71,304.74 593.88,304.42 593.05,304.48C591.87,304.62 591.23,303.2 589.96,303.34C588.49,303.35 587.59,302.18 586.07,302.41C582,303.38 581,307.35 577.06,308.35C575.42,309.16 574.51,310.38 572.49,310.6C570.81,312.08 568.71,312.65 567.09,314.22L566.55,314.56C566.84,317.74 565.25,319.89 564.77,322.88C563.64,323.09 563.19,323.79 563.42,324.99C563.65,326.78 561.8,328.79 559.97,328.42C558.06,327.27 556.35,325.23 553.89,325.19C551.53,323.99 549.43,322.01 547.02,321.01C542.09,323.12 537.07,323.3 531.94,324.56C529.17,325.13 525.44,324.88 522.93,325.9C519.37,330.63 516.75,336.34 512.67,340.66C508.64,336.72 505.22,329.91 501.57,325.52C493.7,324.62 485.5,323.57 477.96,321.06L477.08,321.2C473.01,324.01 467.08,328.18 463,330.73L462.35,330.72C459.78,325.28 460.57,319.44 457.97,314.06C455.21,311.85 451.35,310.62 448.74,308.12C447.98,306.45 446.74,305.65 445.14,304.9C443.39,303.53 442.34,301.94 439.95,301.45C438.17,301.44 436.27,301.27 434.51,301.58C433.17,302.49 432.02,302.46 430.47,302.55C428.37,304.72 422.71,305.7 421.59,302.02C423.13,299.15 421.89,296.23 423.44,293.51C423.74,290.9 423.84,288.11 423.54,285.49L422.01,285.17C421.27,284.4 420.57,283.6 419.92,282.76C419.54,280.98 418.19,280.23 417.05,278.96C415.1,277.02 415.1,274.39 412.78,272.8L412.46,271.54C409.41,271.72 407.11,270.11 404.13,269.67C400.87,269.14 398.09,267.61 394.89,266.96L394.69,266.04C398.43,261.34 401.5,256.03 405.46,251.51C406.26,249.68 404.78,246.91 404.63,245.01C404.42,241.85 404.38,238.67 404.43,235.51C398.99,231.34 393.6,227.06 388.33,222.68C388.22,222.19 388.51,221.72 389.2,221.28C394.69,217.71 401.24,215.38 406.47,211.57C407.07,207.81 408.72,204.59 409.98,201.01C410.46,199.43 412.2,197.63 411.8,195.99C413.03,194.5 414.47,193.32 413.65,191.18C412.44,190.28 411.74,189.92 410.26,190.52C409.64,189.93 409.19,189.12 408.91,188.09C408.08,187.47 407.45,187.71 407.01,188.81L406.09,188.79C406,187.24 407.06,185.37 405.05,184.69C403.21,182.89 401.83,181.8 400.96,179.15C399.98,179.27 399.36,179.72 398.5,179.03C396.76,177.71 394.21,177.83 392.31,176.65C391.89,174.87 392.98,174.09 391.48,172.45L392.79,172.11C393.6,168.26 393.53,164.41 393.39,160.49C392.1,155.52 389.86,151.03 388.67,146.01C388.08,139 387.8,132.28 392.56,126.56C399.26,118.44 410.17,118.43 418.01,111C424.22,105.86 429.78,101.07 437.99,99.53C442.67,99.36 447.99,98.94 452.44,100.54C456.98,101.97 462.28,103.33 466.13,106.18C466.9,106.68 467.86,106.89 469.02,106.81C472.99,106.08 476.99,104.9 480.99,104.45C481.88,103.95 482.88,103.7 484,103.72C489.76,104.47 495.37,104.69 501.03,106.35C503.55,106.57 501.43,104.1 503.55,104.48C503.34,105.25 503.15,106.04 502.97,106.82C505.47,107.3 507.8,107.75 510.19,108.66C513.61,110 516.65,107.6 519.98,107.32C522.81,107.13 525.35,106.09 528.06,105.43C535.16,104.19 542.86,104.01 549.94,105.41C552.04,105.92 553.79,107.08 556,107.32C557.55,107.3 559.02,106.07 560.36,105.37C563.83,103.6 567.28,102.04 571.09,101.18C576.04,98.78 582.19,98.98 587.54,99.52Z" style="fill:rgb(147,149,152);fill-rule:nonzero;"/>
                <path d="M441,105.07C451.34,104.67 459.26,109.13 468.07,113.74C471.11,113.47 473.73,111.23 477,111.32C483.26,109.74 489.83,109.83 496.06,111.5C500.89,111.86 505.33,113.71 509.98,114.68C514.85,115.68 518.29,113.59 522.88,112.67C531.84,110.87 540.01,108.86 549.06,111.55C551.92,111.77 554.24,113.48 556.96,113.86C560.55,112.16 563.85,109.97 567.6,108.57C571.66,106.48 576.53,105.89 581,105.09C584.63,104.72 588.52,106.02 591.91,107.2C597.94,110.43 602.49,115.24 607.97,119.12C612.1,121.77 616.59,122.97 620.94,125.2C625.73,127.3 629.58,130.79 630.88,136.01C632.88,148.07 623.57,156.61 625.83,169.07C626.27,170.17 626.3,171.17 625.92,172.05C620.5,174.9 612.82,171.05 608.88,167.09C607.03,165.79 605.97,162.92 604,162.11C602.24,162.89 601.18,165.32 599.51,166.49C599.23,170.11 598.95,174.35 599.32,177.95C602.1,183.42 604.34,189.12 605.74,195.11C609.07,201.7 612.34,208.15 613.52,215.54C617.64,218.17 622.34,220.03 626.64,222.41C627,223.11 626.86,223.71 626.2,224.19C622.73,227.05 618.77,229.43 615.44,232.41C614.95,236.07 615.49,239.79 614.56,243.47C614.22,246.38 613.15,249.07 613.1,251.99C614.15,254.52 617.12,256.53 617.66,259.35C619.02,260.14 620.94,262.04 620.81,263.72C616.56,265.3 611.13,265.02 607.34,267.3C604.38,272.94 601.21,278.13 597.11,283.05C596.47,283.97 595.36,284.91 595.19,286.04C596.1,290.19 597.22,294.58 597.75,298.76C593.21,297.97 588.51,296.33 584.01,295.69C578.82,299.39 573.99,303.4 568.26,306.29C566.06,308.2 561.09,308.58 561.05,311.98C560.61,315.19 559.49,318.35 559.48,321.59L558.11,321.64C555.5,319.24 552.33,317.68 549.68,315.33C548.93,314.92 548.03,314.83 546.98,315.06C543.64,316.12 540.27,316.71 536.96,317.98C534.21,318.22 531.63,318.13 528.98,318.98C526.11,319.06 523.29,318.96 520.44,319.46C517.77,322.39 515.03,328.55 512.25,330.94C509.98,328.13 508.21,324.8 506.29,321.73C505.52,320.64 504.3,319.56 502.96,319.31C497.86,318.64 491.62,319.55 486.92,317.28C484.39,317.09 482.71,315.71 480.08,315.82C478.25,314.84 476.69,314.37 474.94,315.82C472.86,317.85 470.31,319.02 468.08,320.86C467.23,321.59 466.37,321.83 465.51,321.57C464.66,317.8 464.9,314.03 463.56,310.38C461.68,308.55 458.75,307.92 456.61,306.36C452.1,303.72 447.56,300.84 443.58,297.44C442.55,296.73 441.31,295.66 440.01,295.73C435.85,296.94 431.55,297.96 427.3,298.71C427.05,294.15 430.27,289.3 429.33,285C425.44,280.56 422.34,275.63 419.51,270.47C418.75,268.96 418.18,267.31 416.54,266.53C412.49,265.01 408.18,265.33 404.13,263.76L403.99,262.99C406.43,259.3 409.98,255.87 411.98,252C410.83,245.46 409.91,239.02 409.6,232.38C406.05,229.31 401.87,226.83 398.39,223.6C397.65,221.82 400.95,221.74 401.94,220.77C404.77,218.66 409.03,217.93 411.46,215.54C412.9,208.45 415.67,202.34 418.99,195.99C420.9,189.54 423.16,183.07 426.09,176.99C426.03,173.71 425.73,170.38 425.71,167.05C424.45,165.52 422.66,162.97 421.01,162.08C417.72,164.99 415.25,168.92 410.97,170.95C407.32,172.66 402.92,174.21 399.14,171.98C398.59,169.78 399.52,167.28 399.45,165C399.25,160.24 398.41,155.18 396.24,150.9C394.57,144.65 392.44,138.76 395.53,132.48C398.38,127.15 403.17,125.79 408.23,123.32C412.67,121.89 416.94,119.52 420.57,116.59C426.76,111.1 432.38,106.03 441,105.07Z" style="fill:rgb(11,2,5);fill-rule:nonzero;"/>
                <path d="M438.49,113.51C442.18,112.57 446.36,112.81 449.88,114.31C455.08,115.86 459.99,118.6 464.59,121.44C464.86,123.24 462.26,123.38 462.28,125.48C466.61,123.55 471.23,121.2 476,120.03C482.04,117.83 488.77,117.79 494.93,119.45C499.67,120.62 504.42,121.15 508.99,123.02C514.73,124.69 518.48,121.74 523.89,120.74C526.92,120.14 529.97,119.84 532.91,118.81C543.48,116.82 553.55,120.88 562.71,125.5C562.6,124.05 561.39,123.29 560.61,122C562.34,119.4 566.84,118.2 569.49,116.51C575.11,114.07 580.27,112.08 586.52,113.51C595.24,116.84 601.16,125.24 606.48,132.48C607.06,133.22 607.7,135.01 608.83,134.87C608.54,132.6 606.48,129.65 607.27,127.31C609.81,128.62 612.42,129.85 615.02,131.04C618.07,131.78 621.66,133.97 622.74,137.04C623.58,141.9 622.45,146.36 620.63,150.83C619.4,154.97 618.62,159.45 618.76,163.78C617.14,164.35 616.01,163.07 614.83,162.2C609.21,158.2 605.86,150.8 603.5,144.52C600.7,138.81 598.92,133.31 594.4,128.59C591.26,124.97 586.91,122 581.99,121.83C577.73,122.29 574.2,126.76 571.85,130.01C573.04,132.44 576.09,133.99 577.72,136.28C578.85,137.94 581.47,139.66 581.69,141.67C580.36,141.86 579.02,140.76 577.84,140.22C575.54,138.86 573.03,138.08 570.48,137.31L570.5,137.65C575.13,141.31 579.42,145.35 583.13,149.95C586.61,154.6 588.92,159.89 590.44,165.47C591.09,170 590.8,174.47 590.23,178.98C591.71,183.39 595.37,187.09 596.18,191.96C599.19,199.71 599.44,208.76 598.55,216.94C597.05,223.07 595,228.84 592.58,234.66C590.69,235.47 591.2,232.63 590.47,231.56C589.02,228.84 590.82,227.11 591.38,224.5C591.55,219.89 592.39,215.54 591.5,210.95C591.45,205.95 589.42,201.77 587.37,197.33C587.81,204.63 587.88,211.32 583.67,217.65C582.79,217.4 582.07,216.22 581.51,215.52C577.21,208.96 571.54,203.36 565.28,198.67C564.6,196.88 567.5,197.33 568.47,196.48C573.78,194.11 575.73,188.82 575.65,183.3C573.71,186.56 571.7,189.41 567.94,190.72C564.28,192.38 560.69,191.38 557.3,189.62C557.15,188.75 557.4,188.33 558.05,188.35C565.47,186.96 570.33,179.21 570.03,172C570.05,169.88 568.62,168.44 568.41,166.49C570.53,166.36 572.99,166.14 575.02,166.89C576.29,167.1 577.64,168.35 578.88,167.92C576.82,162.31 569.9,158.69 563.99,160.2C560.4,160.5 557.54,162.99 554.24,163.78C553.9,161.28 554.91,159.45 555.72,157.2C552.68,157.12 550.28,161.7 548.99,164C545.74,168.86 540.16,172.92 534.49,174.42C530.4,175.38 526.14,175.14 523.28,171.7C520.57,168.95 521.07,165.51 520.85,162C520.22,162.01 519.67,162.41 519.2,163.21C517.71,166.27 516.38,169.32 516.67,172.78C514.78,173.79 511.08,173.1 508.87,173.09L508.5,172.05C508.94,168.25 506.39,164.33 504.36,161.29C503.98,162.79 504.66,164.44 504.43,166.01C504.06,169.4 502.18,172.54 498.95,173.89C495.13,175.82 490.68,174.61 486.93,173.15C482.11,170.7 478,167.4 475.37,162.6C474.05,160.77 472.1,157.21 469.53,157.27C470.28,159.4 471.28,161.25 470.78,163.83C466.06,162.14 462.51,159.31 457,159.99C452.39,160.18 447.69,163.67 446.14,167.9C447.58,168.2 449.1,166.91 450.51,166.61C452.5,166.29 454.59,166.36 456.61,166.41C457.31,168.76 454.55,170.41 455,173C455.34,179.8 460.51,187.4 467.57,188.54C468.09,189.32 467.92,189.87 467.06,190.19C462.18,192.3 457.67,191.78 453.45,188.55C451.69,187.06 450.67,185.14 449.37,183.29C448.83,189.39 452.66,195.89 458.95,197.34C459.7,197.41 459.99,197.88 459.8,198.76C453.18,203.84 446.51,210.18 442.5,217.56C441,217.95 441.13,216.55 440.36,215.62C437.02,209.96 437.45,203.5 437.61,197.32C432.6,206.87 431.6,218.83 435.38,228.99C435.26,230.98 434.2,232.89 433.74,234.83C432.78,234.9 432.04,233.2 431.59,232.5C429.14,226.42 427.17,220.5 426.19,214C424.76,208.22 426.39,201.58 427.7,195.89C428.84,189.65 431.99,184.42 434.91,178.95C432.88,169.53 435.03,159.51 440.72,151.74C444.47,145.82 449.98,141.92 454.63,137.41C450.72,137.57 447.18,140.88 443.45,141.77C444.78,137.28 450.96,133.83 453.01,130.01C450.91,126.59 447.25,122.38 443.01,121.87C437.88,121.47 433.92,125.2 430.6,128.59C425.99,133.32 424.39,138.7 421.6,144.51C419.08,150.95 415.42,159.45 409.14,163.03C408.44,162.14 407.95,160.53 406.84,160.13C406.06,154.28 403.38,148.71 402,143.01C401.12,139.32 401.91,135.4 405.29,133.29C409,130.87 413.61,129.77 417.38,127.36L417.74,127.57C418.11,129.88 416.34,132.34 416.2,134.77C417.17,134.77 417.83,133.12 418.5,132.49C423.57,125.23 429.95,116.79 438.49,113.51Z" style="fill:white;fill-rule:nonzero;"/>
                <path d="M406.84,160.13C407.95,160.53 408.44,162.14 409.14,163.03C408.56,163.92 407.85,164.21 407,163.9C406.52,162.85 406.47,161.59 406.84,160.13Z" style="fill:white;fill-rule:nonzero;"/>
                <path d="M462.46,169.43C464.11,169.23 464.52,170.85 466.05,171.02C467.99,171.61 470.42,172.66 471.7,174.27C471.31,176.06 469.85,176.61 468.13,176.05C469.6,172.84 465.59,170.54 463.06,172.07C461.1,175.34 463.62,177.7 463.97,180.92C460.96,177.71 460.21,173.33 462.46,169.43Z" style="fill:rgb(247,217,125);fill-rule:nonzero;"/>
                <path d="M561.97,169.83C564.45,170.73 563.58,174.92 563.58,176.95C562.35,180.41 559.64,183.06 556.12,184.24C551.33,185.38 546.98,183.83 543.46,180.56L543.42,179.44C546.2,178.34 547.29,181.19 549.99,181.26C553.76,181.77 556.82,179.8 558.69,176.64C557.28,175.91 553.47,177.3 553.95,174.02C555.9,171.96 559.46,171.24 561.97,169.83Z" style="fill:rgb(247,217,125);fill-rule:nonzero;"/>
                <path d="M463.06,172.07C465.59,170.54 469.6,172.84 468.13,176.05L467.26,176.35C466.69,179.41 472.49,181.99 475.01,181.28C477.87,181.24 478.79,178.42 481.56,179.45C481.78,181.17 480.43,181.47 479.27,182.3C474.88,185.56 467.6,185.36 463.97,180.92C463.62,177.7 461.1,175.34 463.06,172.07Z" style="fill:rgb(247,217,125);fill-rule:nonzero;"/>
                <path d="M536,184.95C550.11,190.55 561.86,202.19 567.97,216.02C570.77,222.31 573.03,228.3 574.51,235.06C574.95,238.63 575.75,242.16 576.58,245.62C577.51,236.96 576.24,227.94 574.33,219.49C574.72,219.48 575.11,219.8 575.49,220.47C578.56,224.54 580.02,229.09 582.41,233.51C583.48,237.24 585.18,240.58 585.58,244.51C586.4,247.1 586.87,249.27 587.03,252C587.95,255.18 586.88,257.79 586.55,260.94C585.39,265.43 584.3,269.55 581,273C578.38,275.68 574.78,277.3 570.98,276.79C566.8,276.25 563.71,272.65 561.72,269.21C556.61,259.04 555.09,248.67 548.55,239.04C549.69,231.13 548.86,222.94 542.97,217.03C541.56,216.68 541.05,218.58 540.46,219.5C538.71,223.21 536.16,226.71 533.02,229.35C530.23,228.92 527.86,227.15 525.01,226.79C522.55,226.59 520.52,225.85 518.44,224.53C516.12,223.05 515.35,219.55 515.11,216.99C515.1,213.23 518.51,212.07 520.72,209.75C520.25,208.34 518.4,206.84 518.39,204.93C518.46,201.82 519.54,199.78 522.33,198.33C523.28,199.19 524.21,199.75 523.07,201.02C521.3,202.61 521.26,206.25 524.04,206.7C526.34,206.75 528.77,206.71 530.99,206.07C533.65,205.03 534.23,201.76 535.96,200.4C540.19,201.17 544.06,204.17 547.73,206.3C550.25,207.64 552.65,210.91 554.68,212.51C550.79,204.16 543,198.52 535.59,193.4C531.71,191.1 527.77,187.94 523.48,186.47C518.18,184.17 511.62,184.43 505.98,185.02C500.79,186.26 496.25,188.79 491.99,191.93C487.02,194.84 482.43,198.31 478.18,202.18C475.09,204.98 472.97,208.41 470.43,211.64C471.1,211.61 471.61,211.39 471.97,210.98C474.61,208.08 477.77,206.11 480.99,203.95C484.12,202.61 486.09,200.74 489.57,200.37C490.38,201.86 491.23,203.38 492.23,204.76C494.39,206.81 497.22,206.69 500.02,206.99C502.55,206.85 503.42,205.37 503.22,202.93C504.07,203.84 504.59,204.91 505.19,205.99C504.46,207.03 504.36,207.8 504.9,208.28C504.67,208.75 504.47,209.23 504.28,209.72C505.76,211.61 508.08,212.48 509.62,214.37C510.15,216.93 510.15,220.23 508.4,222.39C506.9,225.71 502.19,226.54 498.99,227.08C496.58,227.38 494.33,229.36 491.99,229.26C487.47,225.81 485.48,220.63 482.63,216.39C477.39,221.24 475.27,230.08 476.04,237C476.6,239.83 474.91,241.41 473.69,243.71C471.5,247.83 470.31,252.25 468.48,256.51C466.58,262.04 464.68,268.28 460.83,272.75C458.77,275.31 455.37,277.29 452,276.86C449.24,276.83 446.6,275.22 444.67,273.34C440.56,269.29 438.49,263.71 438.24,258C437.46,249.93 439.53,242.54 442.14,235.05C444.65,229.48 446.26,224.05 450.59,219.37C450.5,222.28 449.19,225.09 448.85,227.99C448.33,233.57 447.91,240.12 448.52,245.63C449.82,241.1 449.63,236.55 451.38,232.07C452.77,226.19 455.08,220.36 457.69,214.92C465.52,197.96 481.4,185.47 499.63,181.57C511.77,177.6 524.48,180.41 536,184.95Z" style="fill:white;fill-rule:nonzero;"/>
                <path d="M518.99,189.07C520.96,190.13 523.34,189.62 524.75,191.27C524.87,192.23 524.61,192.68 523.96,192.61C521.98,192.88 520,193 518,193.08C512.32,194.12 506.27,193.04 500.43,192.51C499.19,190.42 502.66,190.01 503.94,189.8C508.54,188.09 514.19,188.33 518.99,189.07Z" style="fill:white;fill-rule:nonzero;"/>
                <path d="M501.45,198.43C503.62,197.93 505.78,200.72 506.55,202.46C507.68,204.49 506.5,206.94 504.9,208.28C504.36,207.8 504.46,207.03 505.19,205.99C504.59,204.91 504.07,203.84 503.22,202.93C502.2,201.62 500.12,200.26 501.45,198.43Z" style="fill:white;fill-rule:nonzero;"/>
                <path d="M415.66,220.31C416.42,222.96 415.56,226.3 414.84,228.92C413.6,229.61 412.11,227.76 411.03,227.19C412.7,227.46 413.93,227.44 414.85,225.84C415.31,224.51 414.71,222.83 414.52,221.45L412.99,220.89C413.88,220.15 414.77,219.96 415.66,220.31Z" style="fill:rgb(247,217,125);fill-rule:nonzero;"/>
                <path d="M609.43,220.42C611.15,219.24 612.48,221.13 614.09,221.74C612.99,221.6 611.97,221.69 611.02,222.03C610.2,224.06 609.86,227.71 613.13,227.5C612.1,228.44 610.75,230.15 609.76,228.07C609.32,226.6 608.92,221.79 609.43,220.42Z" style="fill:rgb(247,217,125);fill-rule:nonzero;"/>
                <path d="M412.99,220.89L414.52,221.45C414.71,222.83 415.31,224.51 414.85,225.84C413.93,227.44 412.7,227.46 411.03,227.19C410.36,226.75 409.69,226.32 409,225.91C408.57,224.06 409.14,223.54 410.09,222.11C411.07,221.73 412.04,221.32 412.99,220.89Z" style="fill:rgb(247,217,125);fill-rule:nonzero;"/>
                <path d="M410.09,222.11C409.14,223.54 408.57,224.06 409,225.91C408.13,225.48 407.28,225.01 406.46,224.51C405.44,222.73 409.06,222.53 410.09,222.11Z" style="fill:rgb(247,217,125);fill-rule:nonzero;"/>
                <path d="M611.02,222.03C611.97,221.69 612.99,221.6 614.09,221.74L615.04,222.11C615.56,222.69 616,223.31 616.37,223.98C615.8,224.86 615.29,225.76 614.85,226.69L613.13,227.5C609.86,227.71 610.2,224.06 611.02,222.03Z" style="fill:rgb(247,217,125);fill-rule:nonzero;"/>
                <path d="M615.04,222.11C616.35,222.33 617.56,222.79 618.78,223.28C619.3,224.83 615.92,226.02 614.85,226.69C615.29,225.76 615.8,224.86 616.37,223.98C616,223.31 615.56,222.69 615.04,222.11Z" style="fill:rgb(247,217,125);fill-rule:nonzero;"/>
                <path d="M481.36,224.35C482.25,223.9 482.87,224.09 483.21,224.92C484.49,227.15 485.89,229.5 487.82,231.24C488.1,232.01 487.82,232.55 486.99,232.87C484.92,233.6 483.27,235.62 481.13,235.91C480.86,232.24 480.66,227.93 481.36,224.35Z" style="fill:white;fill-rule:nonzero;"/>
                <path d="M542.25,224.24C543.69,223.97 544.08,225.91 544.06,226.99C544.3,229.81 544.75,233.16 543.83,235.88C541.52,235.5 539.57,233.49 537.42,232.54C536.32,231.18 538.57,230.23 539.24,229.27C540.28,227.62 541.18,225.88 542.25,224.24Z" style="fill:white;fill-rule:nonzero;"/>
                <path d="M483,227.61C483.74,227.94 484.27,228.57 484.62,229.5C485.57,230.86 486.82,231.6 484.89,232.93C481.11,235.57 480.36,228.43 483,227.61Z" style="fill:white;fill-rule:nonzero;"/>
                <path d="M542.11,228.13C544.28,227.44 544.05,234.85 540.98,233.41C537.92,232.06 540.33,229.31 542.11,228.13Z" style="fill:white;fill-rule:nonzero;"/>
                <path d="M420.41,230.39L421.56,230.39C423.92,236.9 426.36,243.05 429.89,249.03C430.1,252.61 430.15,256.43 430.05,259.99C428.32,260.26 427.97,257.03 427.18,255.95C425.24,253.12 424.98,249.87 423.24,246.94C422.67,243.81 422.06,241.05 421.06,238.02C421.09,235.13 419.62,233.06 420.41,230.39Z" style="fill:white;fill-rule:nonzero;"/>
                <path d="M603.23,231.18L603.86,231.09C604.18,233.81 604.25,237.38 603.15,239.93C602.4,239.25 601.41,238.99 600.17,239.15C601.31,236.58 601.73,233.55 603.23,231.18Z" style="fill:white;fill-rule:nonzero;"/>
                <path d="M541.01,241.97C544.99,245.34 545.49,249.89 547.45,254.49C548.15,258.45 549.55,262.19 550.55,266.07C550.97,268.92 552.2,271.29 553.15,274.02C553.29,274.79 552.98,275.52 552.2,276.19C549.23,279.48 543.57,282.66 539.15,281.9C540.65,277.37 541.61,271.87 540.27,267.33C539.39,268.49 539.64,269.7 539.21,271.02C536.53,277.63 531.14,282.98 524.48,285.53C522.74,286.01 521.14,286.66 519.5,287.4C514.03,288.33 508.69,288.64 503.44,286.53C497.42,284.61 491.79,281.02 488.37,275.59C486.41,273.1 485.65,269.52 484.34,267.35C483.81,270.13 483.9,273.18 484.1,276C484.33,278.12 486.46,280.57 485.56,282.59C480.75,281.77 473.84,278.89 472.06,274.01C473.67,268.9 475.73,263.79 476.56,258.49C477.44,255.41 478.96,252.69 479.58,249.5C480.76,247.01 481.39,244.19 483.39,242.4C499.51,228.81 524.71,228.56 541.01,241.97Z" style="fill:white;fill-rule:nonzero;"/>
                <path d="M600.17,239.15C601.41,238.99 602.4,239.25 603.15,239.93C602.18,243.11 601.47,246.36 600.51,249.53C598.88,252.62 598.1,256.35 595.88,258.94L595.17,259.01C594.96,256.04 595.12,253 595.14,250.03C596.52,246.22 598.85,242.96 600.17,239.15Z" style="fill:white;fill-rule:nonzero;"/>
                <path d="M419.01,252.15C422,253.29 423.79,258.83 422.85,261.85C419.6,262.24 415.19,261.93 412.06,260.84C411.71,260.1 411.93,259.41 412.74,258.75C415,256.87 416.72,253.78 419.01,252.15Z" style="fill:rgb(247,217,125);fill-rule:nonzero;"/>
                <path d="M606.61,252.37C608.57,255.52 611.5,257.5 613.65,260.36C610.83,262.34 605.52,262.05 602.17,261.83C601.53,258.92 601.96,256.17 603.74,253.76C604.4,253.05 605.53,251.53 606.61,252.37Z" style="fill:rgb(247,217,125);fill-rule:nonzero;"/>
                <path d="M419,254.51C421.32,255.45 422.14,257.8 421.01,260.01C419.59,260.61 414.89,261.14 414.56,258.99C415.47,257.32 417.34,255.44 419,254.51Z" style="fill:rgb(247,217,125);fill-rule:nonzero;"/>
                <path d="M606,254.54C607.68,255.46 609.52,257.31 610.46,258.99C610.05,261.17 606.58,260.29 604.97,260.44C602.23,259.54 603.54,255.18 606,254.54Z" style="fill:rgb(247,217,125);fill-rule:nonzero;"/>
                <path d="M612.46,277.47C612.52,277.53 612.52,277.53 612.46,277.47Z" style="fill:rgb(147,149,152);fill-rule:nonzero;"/>
                <path d="M436.41,281.41C439.59,279.87 440.08,282.43 442.59,283.4C443.77,284.46 444.09,286.54 444.46,288C441.64,290.33 436.84,292.08 433.29,292.72C433.06,289.04 435.88,285.19 436.41,281.41Z" style="fill:rgb(247,217,125);fill-rule:nonzero;"/>
                <path d="M588.66,282.23C589.89,285.25 591.39,289.69 591.78,292.79C588.2,292.27 584.48,289.92 581.04,288.78C579.03,286.5 582.52,283.76 584.02,282.24C585.28,280.84 587.7,280.14 588.66,282.23Z" style="fill:rgb(247,217,125);fill-rule:nonzero;"/>
                <path d="M439,282.55C440.26,283.33 443.03,285.3 442.9,286.89C441.83,288.57 437.89,291.36 436.02,289.98C434.54,287.98 436.82,283.33 439,282.55Z" style="fill:rgb(247,217,125);fill-rule:nonzero;"/>
                <path d="M586,282.58C587.92,283.45 588.36,284.48 588.62,286.5C589.5,287.95 590.09,289.69 588.02,290.42C586.21,290.21 583.2,288.92 582.54,287.04C582.18,285.19 584.54,283.34 586,282.58Z" style="fill:rgb(247,217,125);fill-rule:nonzero;"/>
                <path d="M465.86,285.29C469.59,287.24 473.18,289.24 477.14,290.73C495.53,297.41 515.35,299.27 534.48,294.59C540.49,293.81 546.36,291.24 551.98,289.06C554.57,288.1 557.2,285.65 559.94,285.25C561.16,285.98 563.35,285.89 564.12,286.99L563.81,287.71C558.14,291.3 552.2,294.16 545.94,296.52C542.82,296.98 540.12,298.58 537.01,299.03C531.56,299.78 526.62,301.68 521,301.65C511.48,301.85 502.15,302.3 493,299.92C482.5,298.15 472.11,294.44 463.06,288.8C462.23,288.23 460.29,287.78 461.41,286.48C462.89,286.17 464.36,285.3 465.86,285.29Z" style="fill:white;fill-rule:nonzero;"/>
                <path d="M609.38,292.35C609.68,292.67 609.68,292.67 609.38,292.35Z" style="fill:rgb(147,149,152);fill-rule:nonzero;"/>
                <path d="M468.26,300.25C472.36,298.59 478.45,300.13 479.05,304.99C477.99,307.14 475.27,308.99 473.39,310.51C472.29,311.42 470.16,314.56 468.53,313.56C468.54,309.3 467.47,304.41 468.26,300.25Z" style="fill:rgb(247,217,125);fill-rule:nonzero;"/>
                <path d="M549.46,300.5C551.77,299.54 554.34,299.38 556.68,300.33C557.42,304.6 555.89,309.41 555.78,313.78C553.26,312.86 551.09,309.8 548.95,308.09C548.1,307.04 545.8,305.71 546.27,304.17C547.14,302.84 548.29,301.58 549.46,300.5Z" style="fill:rgb(247,217,125);fill-rule:nonzero;"/>
                <path d="M470,302C472.52,300.72 476.72,301.52 476.48,305.04C475.42,306.92 473.5,308.47 471.91,309.93C468.71,310.41 469.27,303.7 470,302Z" style="fill:rgb(247,217,125);fill-rule:nonzero;"/>
                <path d="M516.89,308.28C518.67,309.13 519.06,309.51 518.53,311.54C516.5,315.2 515.04,319.22 512.62,322.6C510.85,320.92 509.87,317.68 508.51,315.52C508.03,313.42 505.72,311.46 506.4,309.39C509.52,306.91 513.33,306.18 516.89,308.28Z" style="fill:rgb(247,217,125);fill-rule:nonzero;"/>
                <path d="M480.08,315.82C482.71,315.71 484.39,317.09 486.92,317.28C491.62,319.55 497.86,318.64 502.96,319.31C504.3,319.56 505.52,320.64 506.29,321.73C508.21,324.8 509.98,328.13 512.25,330.94C515.03,328.55 517.77,322.39 520.44,319.46C523.29,318.96 526.11,319.06 528.98,318.98C531.63,318.13 534.21,318.22 536.96,317.98C540.27,316.71 543.64,316.12 546.98,315.06C548.03,314.83 548.93,314.92 549.68,315.33C552.33,317.68 555.5,319.24 558.11,321.64C557.2,321.67 556.32,321.61 555.44,321.46C552.66,318.86 550.3,315.86 545.99,316.63C544.4,317.83 542.85,317.49 541,317.68C539.67,318.57 538.53,318.56 536.99,318.66C534.74,320.2 532.61,319.25 530,319.69C527.48,321.57 523.53,319.68 521.1,321.05C518.16,323.43 516.74,327.58 514.56,330.56C513.58,332.02 511.43,331.98 510.44,330.56C508.51,328.02 507.03,325.29 505.47,322.53C503.04,319.21 499.93,321.11 496.5,320.42C494.28,318.91 491.96,319.96 489.5,319.41C488.04,318.54 486.44,318.59 485,317.67C480.7,318.05 479.31,315.21 475.14,317.09C473.71,318.44 471.91,319.04 470.54,320.47C469.72,320.6 468.9,320.73 468.08,320.86C470.31,319.02 472.86,317.85 474.94,315.82C476.69,314.37 478.25,314.84 480.08,315.82Z" style="fill:rgb(147,149,152);fill-rule:nonzero;"/>
                <path d="M564.77,322.88C563.96,325.54 563.95,327.84 563.54,330.56C562.69,331.08 561.95,331.11 561.34,330.66C559.1,328.47 556.15,327.32 553.89,325.19C556.35,325.23 558.06,327.27 559.97,328.42C561.8,328.79 563.65,326.78 563.42,324.99C563.19,323.79 563.64,323.09 564.77,322.88Z" style="fill:rgb(147,149,152);fill-rule:nonzero;"/>
            </g>
        </g>
    </g>
</svg>
