<?xml version="1.0" encoding="UTF-8" standalone="no"?>
<!DOCTYPE svg PUBLIC "-//W3C//DTD SVG 1.1//EN" "http://www.w3.org/Graphics/SVG/1.1/DTD/svg11.dtd">
<svg width="100%" height="100%" viewBox="0 0 513 513" version="1.1" xmlns="http://www.w3.org/2000/svg" xmlns:xlink="http://www.w3.org/1999/xlink" xml:space="preserve" xmlns:serif="http://www.serif.com/" style="fill-rule:evenodd;clip-rule:evenodd;stroke-linejoin:round;stroke-miterlimit:2;">
    <g transform="matrix(1,0,0,1,-3062,-7609)">
        <g id="Cougar-2" serif:id="Cougar 2" transform="matrix(1,0,0,1,-2475,7609.647578)">
            <rect x="5537.404" y="0" width="512" height="512" style="fill:none;"/>
            <g transform="matrix(1.879587,0,0,1.879587,4829.397721,-122.346768)">
                <path d="M393,324.31L638.594,324.31L622.847,270L616,243L611,210.408L617,185.029L622.847,156L627,136L628,119L622.847,109L614,103L609,96.53L603,96.53L598,99L563,118L503,115L475,117L463,115L422.1,96.53L416,96.53L411,102L402.842,109.997L399,123.82L402.842,148L406,169L413,181L413,196L416,210.408L408,247L405,275L396,292L393,324.31Z" style="fill:rgb(0,130,75);"/>
                <path d="M416.6,96.36C417.08,98.21 418.06,101.96 416.38,103.36C412.07,105.26 408.19,107.5 405.63,111.61C402.54,116.72 401.16,123.05 401.44,129C401.3,136.82 404.78,143.99 408.28,150.77C409.21,155.99 408.83,161.59 409.41,166.87C410.01,169.49 411.46,171.98 412.74,174.32C414.13,176.7 416.64,178.42 417.46,180.96C417.23,184.01 416.03,186.99 415.57,189.99C415.03,196.3 418.47,202.49 418.43,209C419.13,219.05 415.24,229.35 414.3,239.27C411.09,242.63 412.35,249.53 410.51,253.34C409.2,259.83 409.28,266.35 408.59,272.88C407.68,275.18 406.03,277.06 405.41,279.54C404.97,281.31 404.01,281.78 402.54,282.61C402.37,284.07 402.53,285.64 402.06,287.02C399.89,294.59 397.59,302.04 396.41,309.85C394.99,314.32 394.55,318.9 394.47,323.57C392.16,324.51 389.59,324.54 387.24,323.74C386.94,321.18 387.72,318.6 387.6,316C387.67,314.07 387.2,311.89 388.03,310.16C388.92,308.18 388.34,306.12 388.22,304.05L389.48,303.55C386.92,299.92 391.33,299.24 390.38,295.18C392.06,293.76 392.31,293.17 392.72,291C394.95,286.26 396.12,281.23 398.66,276.62C399.85,274.53 400.88,272.44 401.33,270.06C402.37,260.05 403.15,249.69 405.84,239.96C407.47,231.64 410.83,223.14 411.3,214C411.56,208.11 410.13,202.7 408.83,197.03C407.98,193.68 408.28,190.4 408.22,186.99C407.25,185.04 406.01,181.48 403.21,182.43C401.95,179.8 399.32,179.45 398.55,176.58C397.9,174.74 396.21,174.13 396.41,172.03C396.47,168.94 396.16,165.64 396.5,162.6C398.9,161.62 398.55,158.71 398.62,156.56C397.48,154.31 397.03,154.27 398.36,151.92C397.85,151.23 397.18,150.59 396.33,150C397.19,149.4 397.94,148.75 398.56,148.05C395.23,139.26 393.15,130.41 394.75,120.96C396.33,114.13 399.18,107.25 404.22,102.23C406.8,99.63 409.87,98.67 413.09,97.11C414.2,96.53 415.37,96.4 416.6,96.36Z" style="fill:rgb(200,136,10);fill-rule:nonzero;"/>
                <path d="M422.25,96.26C430.62,95.51 439.22,99.82 446.52,103.52C450.71,106.04 454.83,108.57 459.3,110.59C462.22,110.57 464.86,111.67 466.16,108.35C469.89,108.81 473.3,107.76 475.64,111.47C478.92,112.13 482.41,111.06 485.84,111.53C488.88,110.33 491.83,110.88 495,110.75C501.73,110.42 508.22,112.26 515,111.74C519.03,111.65 522.97,110.71 527,110.67C533.63,110.44 540.45,111.9 546.89,113.36C550.76,114.28 555.12,116.45 559.13,115.36C562.1,114.18 564.58,111.91 567.41,110.41C573.71,106.25 580.39,102.81 587.16,99.51C589.76,98.87 592.02,97.63 594.49,96.69C597.44,96.29 600.56,95.95 603.52,96.41C603.57,98.42 603.59,100.45 603.47,102.46C601.29,104.16 597.75,103.1 595.18,104.23C582.83,108.15 571.31,116.59 560.26,123.26C558.99,123.98 557.78,123.92 556.41,123.56C550.79,122.22 545.56,120 539.8,119.21C530.83,116.41 522.97,118.48 513.99,118.81C506.44,119.24 499.53,117.01 492,118.06C487.94,118.37 484.14,119.68 480.12,120.34C477.27,120.77 474.87,122.35 472.01,122.81C468.89,123.57 466.39,124.78 463.59,122.36C456.03,118.28 449.42,112.62 441.53,109.23C435.54,105.91 429.5,102.96 422.46,103.48C422.09,101.1 421.98,98.65 422.25,96.26Z" style="fill:rgb(200,136,10);fill-rule:nonzero;"/>
                <path d="M609,96.53C612.17,96.98 615.24,98.49 618.07,99.93C621.92,102.74 624.86,106.43 627.28,110.5C628.21,113.29 629.31,116.01 630.25,118.79C631.58,127.58 631.39,136.6 627.81,144.87C626.27,149.25 622.78,153.08 623.98,158.01C623.75,163.72 624.34,169.35 626.54,174.64C625.71,174.65 624.89,174.76 624.09,174.96C624.16,176.21 625.21,176.84 625.54,177.96C625.15,180.78 622.49,182.06 621.18,184.22C619.08,189.53 618.19,195.41 615.73,200.51C614.92,205.04 613.89,209.34 614.23,214C614.11,220.13 616.21,225.39 617.7,231.22C619.1,236.04 620.06,240.94 621.21,245.82C621.75,248.24 622.53,250.47 622.54,252.98C622.67,258.37 623.82,263.56 625.4,268.69C625.28,271.42 627.26,273.18 627.49,275.86C627.73,277.38 628.25,278.8 628.85,280.21C631.23,285.26 631.71,291.1 633.74,296.31C635.14,299.85 635.5,303.49 636.34,307.16C636.99,312.95 638.94,317.91 638.54,323.61C636.68,324.3 633.17,324.86 631.71,323.19C629.68,311.16 627.67,298.87 623.74,287.28C621.2,282.44 619.17,277.38 616.65,272.52C616.09,263.88 616.09,254.55 613.72,246.12C612.63,242.1 611.93,238 610.76,233.99C609.75,230.23 609.57,226.74 607.77,223.45C607.21,218.03 606.97,212.45 607.17,206.99C607.3,201.31 610.12,196.69 610.22,191C610.13,187.15 607.55,183.75 608.25,180.11C610.45,176.43 613.94,173.55 615.38,169.15C617.17,163.35 615.65,156.61 616.7,150.66C619.56,147.32 620.89,142.59 622.46,138.54C625.19,129.38 624.37,118.23 618.73,110.28C616.05,106.51 612.33,104.63 608.23,102.81C607.36,101.59 607.26,97.08 609,96.53Z" style="fill:rgb(200,136,10);fill-rule:nonzero;"/>
                <path d="M416.82,112.7C426.86,114.17 434.5,120.61 441.16,127.83C444.86,131.77 449.47,136.93 451.41,141.94C449.5,143.96 445.71,145.52 444.68,148.06C446.4,148.36 448.19,148.12 449.94,148.16L449.84,148.96C446.95,152.6 443.36,155.86 440.12,159.21C438.83,160.29 437.62,161.97 435.99,162.47C433.82,161.17 432.28,159.19 430.2,157.76C429.27,156.94 427.74,156.37 427.91,154.9C430.44,154.56 433.03,154.14 435.58,154.25C436.13,152.98 434.09,152.51 433.41,151.63C432.22,150.22 429.39,148.81 429.04,147.05C431.37,145.5 435.08,145 437.84,144.57C437.72,143.95 437.39,143.57 436.87,143.45C432.15,140.86 426.25,137.45 423.11,133.07C425.68,133.04 428.32,134.24 430.83,133.88C428.67,131.53 424.73,130.2 422.29,127.69C421.17,126.45 417.91,125.05 418.1,123.23C420.61,122.99 423.1,122.76 425.59,122.39C423.45,120.32 418.13,116.13 415.56,114.38C414.8,113.17 415.17,112.1 416.82,112.7Z" style="fill:rgb(254,254,253);fill-rule:nonzero;"/>
                <path d="M429.24,112.25C431.83,112.21 433.66,112.96 435.9,114.14C448.53,119.13 457.21,129.93 468.44,136.53C470.18,137.01 471.58,133.77 472.92,132.89C478.13,128.93 485.75,128.3 492.13,126.53C497.42,126.48 503.58,125.62 508.59,127.51C509.37,129.47 507.61,131.96 506.53,133.52C502.65,138.25 497.79,142.18 493.76,146.78C492.97,147.65 492.51,148.48 492.17,149.6C495.54,147.16 499.54,145.87 503.68,145.64C504.34,145.11 504.84,143.49 505.71,143.45C507.6,147.18 507.4,150.81 508.37,154.79C509.05,157.94 508.85,161.35 508.71,164.57C506.15,163.33 504.3,159.24 501.48,158.15C502.29,160.99 503.38,163.72 504.49,166.45C506.45,172.14 507.86,178.33 509.67,184.12C511.01,189.93 511.87,196.47 510.41,202.32C509.76,204.59 508.46,206.76 507.57,208.99C510.89,212.03 512.33,216.41 512.4,220.82C514.08,218.01 513.1,214.29 515.43,211.44C516.03,210.65 517.48,210 517.63,209.01C516.59,205.77 514.54,202.83 513.63,199.52C512.8,193.31 514.6,187.92 516.08,182C518,173.89 520.69,166.09 523.75,158.34C521.07,159.62 519.15,162.95 516.43,163.68C516.06,157.12 517.12,150.76 518.64,144.4C518.88,143.82 519.2,143.52 519.6,143.49C520.69,144.72 520.98,146.4 522.98,146.18C527.32,145.81 529.98,148.17 533.64,149.8C529.7,144.1 524.55,140.06 519.87,135.08C518.22,133.08 515.67,130.3 516.38,127.5C517.87,126.94 519.37,126.48 520.98,126.48C526.36,126.36 531.92,126.29 537.28,126.7C539.26,128.36 541.51,128.21 543.91,129.1C547.55,130.4 550.97,131.48 553.86,134.19C554.95,135.01 556.27,136.75 557.75,135.7C562.5,132.91 566.82,129.58 570.96,125.95C577.86,120.54 586.79,113.21 595.76,112.29C585.66,119.83 574.77,128.03 567.6,138.55C565.25,138.9 562.72,138.24 560.31,138.45C560.24,140.38 562.92,141.63 564.15,142.84C568.42,145.99 570.53,150.28 573.48,154.49C579.69,164.7 589.99,172.13 596.93,182.04C598.49,184.64 600.07,187.89 599.9,190.99C599.62,198.76 596.47,204.46 594.63,211.9C594.62,212.46 594.25,212.71 593.53,212.65C593.27,208.25 592.15,203.66 590.37,199.63C587.87,195.44 583.39,193.9 580.02,190.91C579.47,190.54 579.32,190.07 579.57,189.5C581.24,187.23 583.89,185.66 582.52,182.44C578.84,175.69 573.64,168.97 566.85,165.13C564.83,164.02 562.52,162.43 560.18,162.32C559.78,164.08 563.04,166.2 563.77,167.92C563.6,169.67 563.57,170.42 564.57,171.96C565.57,176.34 561.89,179.44 558.83,181.87C556.9,182.99 554.61,184.56 552.34,184.67C554.08,179.27 553.38,172.78 549.68,168.33C547.01,165.07 543.73,162.28 540.49,159.6C540.05,159.48 539.59,159.55 539.1,159.82C537.82,161.44 537.58,164.01 537.03,165.98C535.68,170.44 539.21,174.53 540.22,178.8C541.09,181.77 542.2,186.45 540.07,189.07C536.03,191.93 530.71,193.25 526.9,196.91C524.57,199.68 523.6,204.21 525.69,207.39C526.9,209.11 527.18,212.02 528.93,213.17C529.59,212.88 530.23,212.56 530.86,212.2C530.93,215.41 529.7,219.37 532.13,221.85C533.07,223.05 533.73,224.27 534.28,225.68C535.19,228.12 537.49,229.35 538.17,231.91C538.66,233.6 539.45,234.23 541.09,234.76C543.82,235.62 545.09,238.13 547.84,238.74C546.38,232.4 539.51,225.32 540.44,218.31C542.33,218.05 543.8,220.62 545.32,221.54C545.86,221.44 546.38,221.32 546.9,221.16C549.73,220.38 550.49,217.45 553.68,217.21C561.23,219.88 570.66,217.99 575.7,211.51C574.05,211.12 572.57,210.59 571.03,209.86C573.92,206.38 576.72,202.44 579.03,198.57C582.38,199.78 584.91,203.76 585.89,207.08C587.6,211.58 586.44,216.53 584.83,220.87C581.19,229.61 574.76,237.04 565.86,240.63C562.24,241.04 559.96,235.19 556.27,235.23C556.8,238.32 558.82,241.12 559.73,244.14C561.08,247.3 560.78,250.35 560.63,253.69C559.19,252.61 557.83,250.35 555.99,250.12C555.46,252.49 557.08,255.12 556.72,257.7C552.26,257.66 547.66,255.29 543.87,253.11C543.06,251.17 543.28,248.81 542.19,246.9C540.5,243.91 538.32,241.01 536,238.5C533.68,239.2 534.91,243.14 534.61,245C534.15,248.23 536.04,250.69 535.61,253.87C533.22,253.8 531.19,252.74 528.88,252.33C522.59,251.53 516.56,257.67 510.46,256.41C506.02,254.89 500.78,251.89 495.99,252.51C493.84,252.67 491.47,253.97 489.33,253.63C488.13,252.58 488.59,251.44 488.48,250.02C488.6,247.22 488.02,244.42 489.29,241.97C489.65,240.84 489.56,239.87 489.02,239.09L488.13,239.14C484.48,243.37 482.71,248.11 481.4,253.48C477.49,255.45 472.6,257.77 468.17,257.81C467.8,254.71 468.92,252.18 469.73,249.29C467.68,250.3 466.54,253 464.52,253.65C464,249.65 464.69,245.83 466.03,242.07C467.35,239.99 468.33,237.74 468.69,235.29C465.38,235.65 462.32,241.05 458.97,240.23C449.83,236.88 442.88,227.7 439.5,218.85C437.89,214.31 437.74,208.55 440.32,204.32C441.61,201.87 443.11,199.71 445.86,198.8C448.54,202.53 450.96,206.38 453.97,209.87C452.45,210.48 450.91,211.02 449.33,211.45C453.23,216.2 459.87,218.95 466,218.28C467.68,218.1 470.01,218.27 471.33,217.1C473.16,218.08 476.4,219.29 476.64,221.58C477.79,222.22 478.76,220.67 479.58,220.05C480.77,222.35 482.78,217.86 484.62,218.29C484.68,220.59 484.34,222.69 483.65,224.87C482.42,229.19 478.42,233.29 478.22,237.8C481.5,237.11 484.5,232.96 486.42,230.41C489.19,226.97 489.86,222.48 492.38,219.03C492.52,216.27 492.93,213.46 491.36,211.05C492.52,209.48 493.37,207.73 494.31,206.01C497.55,206.4 493.69,212.35 495.96,213.38C499.21,209.7 501.74,203.98 499.96,199.07C497.12,193.64 488.86,192.78 484.68,188.36C483.42,186.32 484.12,183.33 484.35,181.07C484.93,176.74 487.77,173.14 488.47,169.01C488.44,166.11 487.21,163.21 486.65,160.36C485.87,160.67 485.65,162.21 485.17,162.91C485.77,161.65 485.76,160.68 485.14,159.99C483.26,159.92 481.71,162.27 480.35,163.36C477.99,165.81 474.83,168.33 473.53,171.51C471.62,175.56 471.95,180.71 472.83,184.99C470.75,184.7 468.84,182.98 466.96,182.06C463.82,180.34 460.25,176.85 460.57,172.98C460.38,171.58 461.61,170.81 461.58,169.43L460.03,169.16C461.71,166.75 464.75,164.9 465.78,162.18C464.47,162.25 463.26,162.43 462.09,163.06C456.51,165.94 451.53,169.77 447.81,174.87C445.87,177.55 443.1,180.69 442.49,184C442.12,186.58 445.94,188.26 445.54,190.55C443.26,192.64 440.15,192.55 438.1,195.1C434.05,199.82 432.02,206.45 432.46,212.64C431.09,212.61 431.04,211.6 430.6,210.54C428.49,204.34 425.66,197.6 425.49,191C425.19,186.18 427.84,182.32 430.84,178.84C434.95,173.62 439.55,168.94 444.26,164.27C448.84,159.1 453.05,153.28 456.06,147.07C458.99,144.64 462.45,142.31 464.75,139.27C462.45,138.33 459.62,139.39 457.53,138.48C455.95,136.05 454.53,133.61 452.41,131.59C445.27,124.55 437.64,117.74 429.24,112.25Z" style="fill:rgb(200,136,10);fill-rule:nonzero;"/>
                <path d="M609.1,112.49L610,112.97L610,113.97C607.77,115.74 605.55,117.48 603.39,119.35C602.36,120.25 600.52,121.07 600.27,122.5C602.51,122.86 604.71,123.05 606.97,123.17L607.12,124C603.71,127.58 599.34,130.63 595.13,133.22C594.7,133.46 594.38,133.85 594.17,134.37C596.53,134.08 599.5,132.67 601.71,133.56L601.03,134.82C598.01,137.07 595.05,139.7 591.81,141.67C590.36,142.59 588.35,143.26 587.23,144.58C590.56,144.55 593.34,146.05 596.6,146.64C595.55,149.67 590.93,151.21 589.75,154C592.37,154.34 594.97,154.64 597.61,154.67L597.67,155.62C594.95,158.12 592.04,160.65 588.97,162.68C584.19,159.07 580.36,154.11 575.98,149.99C575.42,149.55 575.14,148.96 575.14,148.23C576.91,148.17 578.67,148.29 580.43,148.15L580.44,147.1C578.74,145.96 577.32,144.48 575.6,143.36C574.76,142.57 573.34,141.64 574.35,140.38C577.46,134.8 581.96,129.95 586.43,125.42C592.47,119.15 600.27,113.61 609.1,112.49Z" style="fill:rgb(254,254,253);fill-rule:nonzero;"/>
                <path d="M419.22,153.38C420.93,153.91 421.94,157.6 422.73,159.15C423.58,161.15 424.79,162.68 424.61,164.97C424.56,167.4 425.07,170.93 422.03,171.68C419.61,170.58 416.37,167.1 415.47,164.58C414.17,160.88 417.6,156.62 419.22,153.38Z" style="fill:rgb(200,136,10);fill-rule:nonzero;"/>
                <path d="M606.42,153.45C607.71,157.26 610.41,159.07 610.03,163.02C609.73,166.72 607.23,169.33 604.3,171.29C602.77,172.12 601.72,171.49 601.32,169.89C599.39,164.39 602.88,158.91 605.01,153.98C605.19,153.3 605.66,153.12 606.42,153.45Z" style="fill:rgb(200,136,10);fill-rule:nonzero;"/>
                <path d="M540.49,159.6C543.73,162.28 547.01,165.07 549.68,168.33C553.38,172.78 554.08,179.27 552.34,184.67C554.61,184.56 556.9,182.99 558.83,181.87C561.89,179.44 565.57,176.34 564.57,171.96C563.57,170.42 563.6,169.67 563.77,167.92C568.28,172.12 572.65,177.17 575.21,182.82C575.97,183.09 576.58,183.49 577.03,184C576.02,185.96 573.31,187.28 571.53,188.5C567.27,190.48 563.83,187.82 559.48,189.2C554.32,189.39 550.06,191.56 545.47,193.6C546.9,187.15 549.36,182.08 547.73,175.22C546.35,171.42 544.32,168.36 541.62,165.39C539.92,163.76 540.27,161.7 539.1,159.82C539.59,159.55 540.05,159.48 540.49,159.6Z" style="fill:rgb(254,254,253);fill-rule:nonzero;"/>
                <path d="M485.14,159.99C485.76,160.68 485.77,161.65 485.17,162.91C483.26,166.1 480.7,168.67 478.84,171.88C477.78,174.13 477.25,176.53 476.91,178.98C476.75,183.74 478.85,188.69 479.36,193.2C475.52,192.13 472.01,189.92 467.98,189.49C465.95,189.27 464.07,188.61 462,188.75C459.93,188.75 458.06,189.54 455.95,189.19C453.26,188.64 451.13,186.34 448.77,184.92L448.46,184.06C449.62,183.13 450.73,182.68 451.16,181.15C453.02,176.58 456.76,172.77 460.03,169.16L461.58,169.43C461.61,170.81 460.38,171.58 460.57,172.98C460.25,176.85 463.82,180.34 466.96,182.06C468.84,182.98 470.75,184.7 472.83,184.99C471.95,180.71 471.62,175.56 473.53,171.51C474.83,168.33 477.99,165.81 480.35,163.36C481.71,162.27 483.26,159.92 485.14,159.99Z" style="fill:rgb(254,254,253);fill-rule:nonzero;"/>
                <path d="M482.4,190.34C484.28,190.64 485.63,192.78 487.26,193.75C490.87,196.46 495.76,201.02 494.31,206.01C493.37,207.73 492.52,209.48 491.36,211.05C490.34,209.15 489.77,207.11 489.01,205.12C487.8,202.48 486.01,200.04 484.6,197.52C484.07,195.07 482.83,192.77 482.4,190.34Z" style="fill:rgb(254,254,253);fill-rule:nonzero;"/>
                <path d="M542.51,190.4C541.97,194.7 540.02,199.02 537.62,202.61C536.26,205.34 534.67,207.61 534.36,210.6C533.62,210.93 533.11,210.77 532.83,210.13C531.35,207.44 529.68,205.24 530.83,201.99C533.01,196.86 537.16,194.65 541.09,191.08C541.48,190.73 541.95,190.51 542.51,190.4Z" style="fill:rgb(254,254,253);fill-rule:nonzero;"/>
                <path d="M563.72,195.32C564.41,199.68 562.66,203.6 559.06,206.08C554.57,209.06 548.84,208.1 544.65,205.01L544.4,204.01C545.26,203.05 546.41,200.92 547.92,201.08C549.59,202.14 550.85,203.41 553.02,203.25C554.93,203.34 557.47,201.38 557.71,199.45C556.72,199.17 555.95,198.71 555.38,198.07C556.57,195.48 561.27,195.62 563.72,195.32Z" style="fill:rgb(254,254,253);fill-rule:nonzero;"/>
                <path d="M461.45,195.46C463.4,195.55 469.9,195.66 469.81,198.61C468.57,198.76 467.77,199.21 467.41,199.96C468.73,201.94 470.48,203.46 473.02,203.26C475.29,203.41 475.99,201.29 477.94,201.02C478.91,201.71 481.4,203.44 480.76,204.82C477.35,207.84 473.56,208.14 469.13,207.6C464.06,205.81 460.82,200.74 461.45,195.46Z" style="fill:rgb(254,254,253);fill-rule:nonzero;"/>
                <path d="M453.86,197.19C455.83,200.07 456.81,203.83 459.44,206.52C464.09,212.22 471.2,213.45 478.17,212.26C480.09,214.61 480.82,217.16 479.58,220.05C478.76,220.67 477.79,222.22 476.64,221.58C476.4,219.29 473.16,218.08 471.33,217.1C464.89,216.53 458.81,214.21 453.97,209.87C450.96,206.38 448.54,202.53 445.86,198.8C448.84,198.57 450.76,196.76 453.86,197.19Z" style="fill:rgb(254,254,253);fill-rule:nonzero;"/>
                <path d="M570.7,197.52C573.01,196.37 576.56,198.5 579.03,198.57C576.72,202.44 573.92,206.38 571.03,209.86C568.93,211.63 566.95,213.39 564.3,214.27C561.05,216.41 557.1,216.09 553.68,217.21C550.49,217.45 549.73,220.38 546.9,221.16C544.28,218.88 544.95,215.04 546.77,212.51C549.5,212.16 552.21,213.08 555.02,212.43C563.18,211.42 568.27,204.91 570.7,197.52Z" style="fill:rgb(254,254,253);fill-rule:nonzero;"/>
                <path d="M453.97,209.87C458.81,214.21 464.89,216.53 471.33,217.1C470.01,218.27 467.68,218.1 466,218.28C459.87,218.95 453.23,216.2 449.33,211.45C450.91,211.02 452.45,210.48 453.97,209.87Z" style="fill:rgb(0,130,75);fill-rule:nonzero;"/>
                <path d="M571.03,209.86C572.57,210.59 574.05,211.12 575.7,211.51C570.66,217.99 561.23,219.88 553.68,217.21C557.1,216.09 561.05,216.41 564.3,214.27C566.95,213.39 568.93,211.63 571.03,209.86Z" style="fill:rgb(0,130,75);fill-rule:nonzero;"/>
                <path d="M429.28,219.45C430.38,219.74 430.46,222.1 430.95,222.97C432.52,226.22 433.2,229.65 434.12,233.11C435.8,240.16 440.65,246.69 445.77,251.7C444.91,246.91 440.3,240.68 441.82,235.65C444.35,237.98 446.49,240.65 449.07,242.92C452.16,246.06 455.93,248.1 457.41,252.49C458.41,255.2 460.07,258.74 459.65,261.64C458.96,262.08 458.26,262.52 457.55,262.94C456.87,265.94 460.12,269.39 459.62,272.69C458.17,272.45 457.68,271.29 456.59,270.42C452.84,267.47 448.9,264.68 445.05,261.87C438.09,256.25 432.19,250.07 429.87,241.16C427.86,235.06 428.47,229.28 428.5,222.98C428.67,221.68 428.41,220.53 429.28,219.45Z" style="fill:rgb(254,254,253);fill-rule:nonzero;"/>
                <path d="M595.57,219.51L595.97,219.42L596.28,219.5C596.8,225.81 597.51,232.78 595.98,238.98C595.3,245.08 591.34,250.96 587.37,255.46C582.61,260.96 576.79,263.75 571.45,268.42C569.51,269.39 567.97,271.79 565.83,272.05C565.34,269.26 568.46,265.72 567.42,262.56C566.78,262.17 566.13,261.8 565.47,261.44C565.23,260.89 565.26,260.25 565.57,259.53C566.85,255.7 567.02,251.92 569.88,248.89C573.51,245.19 577.37,241.72 581,238.01C582.12,236.83 583.3,235.9 584.66,235.03C583.63,238.53 583.21,242.11 581.81,245.53C581.14,247.65 579.85,249.5 579.23,251.62C583.35,248.23 586.7,243.55 589.21,238.87L590.03,238.12C591.26,231.71 593.45,225.68 595.57,219.51Z" style="fill:rgb(254,254,253);fill-rule:nonzero;"/>
                <path d="M590.73,230.32L590.99,230.95C590.19,233.51 590.42,236.5 589.21,238.87C586.7,243.55 583.35,248.23 579.23,251.62C579.85,249.5 581.14,247.65 581.81,245.53C583.21,242.11 583.63,238.53 584.66,235.03C585.76,232.76 588.2,230.68 590.73,230.32Z" style="fill:rgb(200,136,10);fill-rule:nonzero;"/>
                <path d="M436.04,230.65C438.47,231.85 439.93,233.79 441.82,235.65C440.3,240.68 444.91,246.91 445.77,251.7C440.65,246.69 435.8,240.16 434.12,233.11C434.52,231.89 435.16,231.07 436.04,230.65Z" style="fill:rgb(200,136,10);fill-rule:nonzero;"/>
                <path d="M421.45,250.26C423.4,252.46 424.34,255.57 425.93,258.05C429.33,263.8 434,267.67 438.81,272.2C442.62,275.21 445.31,280 447.96,284.03C449.43,286.21 450.03,288.62 451,291.01C453.65,299.42 455.2,307.85 456.69,316.55C456.9,316.96 457.15,317.35 457.45,317.7C457.57,316.32 459.01,311.89 460.79,312.25C462.41,315.56 464.49,320.07 464.81,323.74C460.27,324.42 455.59,324.13 451,324.27C449.42,324.18 447.03,324.53 446.05,322.98C441.53,316.09 436.82,308.89 433.74,301.22C432.79,298.03 430.94,295.44 430.44,292.17C430.25,291.1 429.9,290.19 429.38,289.25C429.57,291.87 429.5,294.41 429.13,297.01C428.47,300.86 428.86,304.89 428.69,308.87C426.4,305.44 426.22,301.82 425.18,297.96C421.45,282.32 420.57,266.28 421.45,250.26Z" style="fill:rgb(200,136,10);fill-rule:nonzero;"/>
                <path d="M603.65,250.27C605.88,261.34 604.28,273.67 603.43,284.86C602.73,288.75 601.69,292.54 601.29,296.49C600.06,300.58 598.58,304.6 597.44,308.73C597.01,302.28 596.32,295.68 596.64,289.22C595.35,291.6 595.1,294.43 593.87,296.89C590.46,306.5 585.17,315.09 579.47,323.49C577.8,324.68 574.98,324.17 573,324.31C569.09,324.09 564.91,324.7 561.11,323.76C560.51,322.62 561.48,321.03 561.76,319.85C562.67,317.74 563.5,314.85 565.1,313.21C566.66,313.26 567.22,316.74 568.53,317.75C569.18,315.58 569.75,313.39 570.25,311.19C571.33,302.07 573.35,293.08 576.66,284.49C577.52,282.38 578.92,280.97 580.17,279.1C584.45,272.85 590.69,269.6 595.68,263.67C599.04,259.78 601.23,254.78 603.65,250.27Z" style="fill:rgb(200,136,10);fill-rule:nonzero;"/>
                <path d="M494.32,257.41C500.33,255.92 504.52,258.68 509.98,260.02C517.07,261.51 522.19,256.13 529.02,257.14C530.83,257.39 532.5,257.82 533.76,259.25C534.35,260.8 532.32,262.52 530.88,262.48C526.9,262.36 522.66,264.36 520.82,268.01C520.04,270.17 521.11,271.83 521.09,273.99C520.47,275.3 519.66,276.49 518.58,277.47C517.22,277.47 515.24,278.17 514.57,276.57C513.83,274.8 513.54,272.72 512.43,271.2C511.59,273.2 511.21,276.04 509.6,277.55C507.82,277.85 505.92,276.42 504.85,275.12C503.43,273.57 505.19,271.03 504.69,269.2C503.22,265.18 499.28,262.49 494.98,262.57C493.18,262.59 492.38,262.11 491.38,260.63C490.7,258.92 493.02,257.78 494.32,257.41Z" style="fill:rgb(200,136,10);fill-rule:nonzero;"/>
                <path d="M544.21,259.79C545.71,260.38 547.7,260.97 548.76,262.23C549.43,264.99 544.07,265.18 544.04,267.09L546.05,267.21C544.74,267.54 543.37,267.9 542.02,267.96C542.11,266.12 543.77,260.77 541.06,260.36C541.34,258.75 543.12,259.64 544.21,259.79Z" style="fill:rgb(200,136,10);fill-rule:nonzero;"/>
                <path d="M482.2,260.22C482.5,262.15 482.34,264.03 482.29,266.04C480.23,266.39 477.07,264.95 476.29,262.96C476.74,260.43 480.04,260.02 482.2,260.22Z" style="fill:rgb(200,136,10);fill-rule:nonzero;"/>
                <path d="M482.2,260.22L483.74,260.23C486.47,265.22 489.77,267.91 494.82,270.39C496.74,271.37 499.33,272.82 499.71,275.14C500.93,279.99 507.78,281.87 509.35,285.93C510.13,290.55 505.73,292.87 502.02,293.99C495.65,296.46 488.55,297.94 481.82,296.17C480.96,295.75 478.75,295.3 479.01,294.03C480.37,292.35 485.36,292.77 485.17,289.99C482,289.75 479.03,290.2 475.99,288.95C474.42,288.64 470.72,287.11 471.04,285.13C476.67,285.67 481.34,285.39 486.89,284.35C487.46,284.44 487.68,284.16 487.55,283.5C483.65,282.64 479.76,282.47 475.95,281.09C472.99,280.54 467.27,278.72 467.04,275.1C472.57,275.81 477.83,276.9 483.46,276.16L483.4,275C478.35,273.55 472.6,271.84 468.41,268.59C467.14,267.51 467.13,267.03 467.43,265.45C472.48,264.74 477.99,267.19 483,267.97C482.92,267.3 482.69,266.65 482.29,266.04C482.34,264.03 482.5,262.15 482.2,260.22Z" style="fill:rgb(254,254,253);fill-rule:nonzero;"/>
                <path d="M541.06,260.36C543.77,260.77 542.11,266.12 542.02,267.96C543.37,267.9 544.74,267.54 546.05,267.21C549.71,266.56 554,264.84 557.69,265.39C558.63,266.09 558.63,266.83 557.69,267.62C554.02,271.39 549.71,272.35 545,274.09C543.97,274.78 541.56,274.42 541.85,276.09C547.24,276.86 551.8,275.93 557.06,275.21C557.86,275.02 558.4,275.16 558.67,275.65C556.71,278.99 552.78,280.42 549.17,281.18C545.52,282.53 541.87,282.72 538.07,283.27C538.18,285.22 539.66,283.96 541.01,284.64C545.17,285.97 550.47,285.14 554.74,285.23C551.54,290.06 545.08,289.8 539.96,290.01C539.64,292.65 545.28,292.46 546.72,294.17L546.6,294.73C541.8,297.68 535.86,297.03 530.53,296.27C525.99,294.83 520.01,293.71 516.61,290.21C515.96,288.46 515.7,286.18 516.5,284.46C519.62,281.23 523.98,279.91 525.42,275.17C526.41,272.27 529.01,270.76 531.75,269.78C535.32,267.54 539.43,264.37 541.06,260.36Z" style="fill:rgb(254,254,253);fill-rule:nonzero;"/>
                <path d="M416.47,291.36C417.33,291.76 417.52,293.22 417.9,293.99C419.36,297.96 420.74,301.95 422.08,305.95C424.26,311.98 427.2,317.81 429.58,323.72C428.51,324.77 427.38,324.38 426.02,324.47C420.84,324.46 415.65,324.48 410.47,324.5C410.42,322.33 410.52,320.15 410.58,317.98C412.26,308.76 413.76,300.45 416.47,291.36Z" style="fill:rgb(200,136,10);fill-rule:nonzero;"/>
                <path d="M609.38,292.4C610.21,296.32 611.89,299.88 612.31,303.91C612.76,308.07 614.66,311.82 614.57,316C614.46,318.75 615.74,321.98 614.59,324.49C608.52,324.47 602.46,324.47 596.39,324.49C596.33,323.45 596.41,322.45 596.62,321.48C601.1,313.22 604.51,304.07 607.44,295.15C607.87,294.17 607.89,292.16 609.38,292.4Z" style="fill:rgb(200,136,10);fill-rule:nonzero;"/>
                <path d="M512,299.21C516.39,299.41 520.8,300.71 524.98,302.02C529.65,302.97 534.16,304.44 538.89,305.17L538.88,305.96C536.96,310.28 533.89,315.18 529.65,317.51C528.49,315.72 530.24,314.92 530.4,313.18C528.71,314.08 527.56,315.85 526.01,316.98C518.87,321.94 508.56,322.29 501.09,317.87C499.17,317.08 498.5,315.04 496.18,315.1L496.47,317.78C492,315.97 488.52,310.16 486.5,305.95L486.85,305.08C491.56,304.04 496.26,302.82 501.02,302C504.61,300.93 508.27,299.66 512,299.21Z" style="fill:rgb(254,254,253);fill-rule:nonzero;"/>
            </g>
        </g>
    </g>
</svg>
