<?xml version="1.0" encoding="UTF-8" standalone="no"?>
<!DOCTYPE svg PUBLIC "-//W3C//DTD SVG 1.1//EN" "http://www.w3.org/Graphics/SVG/1.1/DTD/svg11.dtd">
<svg width="100%" height="100%" viewBox="0 0 978 804" version="1.1" xmlns="http://www.w3.org/2000/svg" xmlns:xlink="http://www.w3.org/1999/xlink" xml:space="preserve" xmlns:serif="http://www.serif.com/" style="fill-rule:evenodd;clip-rule:evenodd;stroke-linejoin:round;stroke-miterlimit:2;">
    <g transform="matrix(1,0,0,1,-23.462983,-110.441435)">
        <g transform="matrix(3.391746,0,0,3.391746,-1229.807501,-155.166216)">
            <path d="M529.32,78.31C529.7,78.7 529.7,78.7 529.32,78.31Z" style="fill:white;fill-rule:nonzero;"/>
            <path d="M572.48,78.49C572.52,78.54 572.52,78.54 572.48,78.49Z" style="fill:white;fill-rule:nonzero;"/>
            <path d="M436.76,87.33C443.37,90.62 449.71,94.45 456.05,98.21L456.48,98.98C454.77,101.33 451.08,103.76 450.38,106.54C460.35,100.41 471.14,96.33 483,96.28C492.78,96.01 501.56,98.82 510.91,101.26C513.32,102.37 515.11,101.09 517.45,100.49C522.24,99.27 527.67,98.04 532.54,96.73C541.17,95.71 550.79,95.95 558.97,99.06C562.7,99.59 566.26,101.88 569.73,103.32C571.45,103.99 573.12,105.7 574.89,105.89C574.49,103.26 570.03,100.99 569.31,98.28C573.04,96.39 576.38,94 579.94,91.89C585.37,89.25 590.65,85.28 597.01,85.68C602.98,85.9 607.54,90.48 612,93.96C617.75,99.43 624.69,102.96 632.08,105.66C635.62,107.18 638.78,108.59 640.85,112.05C643.04,116.28 642.63,120.63 641.44,125.07C639.32,132.42 637.71,139.28 638.94,147C639.5,149.78 636.94,150.09 634.98,149.15C628.5,145.63 623.08,139.68 619.92,133.02C616.19,125.17 613.87,116.78 609.65,109.37C606.11,103.79 600.89,98.29 594.34,96.45C594.25,98.01 595.65,98.29 596.49,99.5C597.36,100.7 598.76,102.34 598.8,103.84C596.16,105.34 592.4,105.85 590.02,108.03C587.9,109.52 584.51,112.16 584.16,114.86C586.9,118.06 590.28,120.68 592.9,124.03C599.33,132.03 603.92,141.87 605.7,151.99C606.83,155.78 606.16,159.36 608.21,162.89C611.78,169.87 615.34,176.56 617.67,184.11C622.4,197.6 621.79,212 617.44,225.51C616.96,226.34 616.65,228.52 615.28,227.92C610.31,216.47 602.73,205.81 593.02,197.9C591.3,196.76 589.31,194.51 587.26,194.19C588.15,196.61 590.72,198.67 592.07,201C601.04,214.46 608.16,229.68 611.6,245.53C612.28,250.09 613.67,254.4 613.58,259C613.92,269.03 611.92,279.39 605,287C601.08,291.13 596.21,293.94 590.33,292.61C584.94,290.79 581.68,284.63 579.15,279.91C573.84,268.79 570.96,255.13 563.8,245.15C563.02,244.04 561.97,243.33 561.6,242.04C563.1,236.48 562.59,230.22 562.36,224.5C561.24,219.51 560.02,214.31 556.76,210.24C555.95,209.22 554.56,206.62 553.05,206.97C550.46,214.97 545.93,223.78 538.72,228.69C536.89,229.2 534.96,227.3 533.01,227.17C528.72,226.47 524.61,225.54 520.82,223.22C516.52,220.07 515.94,214.89 516.46,209.94C517.71,207.31 520.47,205.37 522.85,203.82C523.2,202.04 521.56,199.99 521.89,197.99C521.8,194.69 525.08,190.9 528.52,191.49C530.23,195.04 525.26,197.47 527.44,200.53C533,200.58 538.37,198.18 542.42,194.47C542.12,185.07 533.94,177.46 525.07,175.55C517.67,172.91 508.92,172.7 501.47,175.32C495.22,176.77 488.45,180.61 485.59,186.63C484.16,188.91 482.56,191.79 483.49,194.55C487.33,198.2 493.21,200.68 498.54,200.53C499.55,197.62 495.91,194.72 497,191.88C500.1,190.12 504.06,194.97 503.7,198C503.94,200.04 502.36,201.63 502.51,203.52C504.52,205.39 506.98,206.03 508.37,208.63C510.58,211.24 509.23,215.53 508.41,218.48C506.41,224.07 501.01,225.04 495.94,226.53C492.84,226.7 489.91,228.63 486.92,228.61C479.48,223.39 475.12,214.9 472.59,206.4C465.07,212.23 462.67,223.96 462.96,233C462.67,236.05 464.44,239.88 463.68,242.69C454.17,254.74 452.49,268.74 445.09,283C442.46,286.86 439.69,291.3 434.97,292.78C431.92,292.91 429.23,293.16 426.53,291.47C418.69,287.13 414.27,278.45 412.54,269.94C411.9,262.37 411.78,254.35 413.68,246.95C417.97,228.03 426.37,209.41 438.66,194.32C436.61,194.17 435.45,195.8 433.96,196.87C423.64,204.76 416.19,215.18 410.87,226.94C410.54,227.85 410.01,228.19 409.27,227.95C404.6,214.89 402.57,201.53 406.84,188C409.18,179.59 412.7,171.63 416.95,163.99C419.46,159.2 419.86,154.34 420.52,148.99C423.4,137.13 429.61,125.94 438.77,117.77C439.8,116.9 441.49,115.87 441.57,114.38C438.65,108.67 432.7,106.11 427.06,103.93C426.29,101.6 430.5,98.94 430.87,97.11C429.31,96.71 427.35,98.16 425.94,98.79C419.81,103 415.36,108.9 412.67,115.84C410.25,120.89 408.81,126.25 406.27,131.23C403.18,138.72 397.54,145.93 390.05,149.41C388.07,149.99 386.21,149.4 386.56,147C388.05,138.85 385.97,131.76 383.86,124.01C382.65,118.11 382.98,112.07 388.31,108.3C393.26,105.33 399,103.9 404,100.92C410.94,97.65 415.81,90.83 422.52,87.49C426.86,84.92 432.29,85.38 436.76,87.33Z" style="fill:white;fill-rule:nonzero;"/>
            <path d="M470.44,122.53C473.3,122.56 476.13,122.18 479,122.4C487.16,122.64 495.34,126.48 498.38,134.51C498.73,136.05 500.21,138.06 499.6,139.62C492.28,130.74 481.56,125.41 470.36,123.53L470.44,122.53Z" style="fill:rgb(65,105,225);fill-rule:nonzero;"/>
            <path d="M555.55,122.52L555.6,123.53C551.64,123.98 547.64,125.34 543.92,126.72C537.31,129.85 530.79,133.33 526.42,139.42L525.47,139.52C526.78,134.71 529.29,129.44 533.51,126.52C535.59,124.84 538.56,124.26 541.04,123.15C545.96,121.89 550.63,122.5 555.55,122.52Z" style="fill:rgb(65,105,225);fill-rule:nonzero;"/>
            <path d="M456.52,143.55C462.52,145.98 467.44,149.58 472.62,153.36C477.49,156.48 482.17,160.33 487.99,161.47C494.07,162.44 500.44,158.05 502.46,152.4C503.12,151.1 502.62,149.48 503.39,148.33C506.43,152.18 506.06,157.29 505.25,161.75C509.61,160.88 514.74,160.4 519.07,161.55L520.23,161.2C519.66,157.12 519.63,153.22 521.4,149.34C523.3,148.61 522.76,152.01 523.76,153.08C525.61,157.96 529.8,161.15 535,161.63C537.64,161.89 540.44,160.64 542.88,159.68C551.7,155.07 558.93,148.2 568.01,143.99C571.75,142.99 575.04,141.8 579.01,142.58C584.92,143.2 589.93,148.41 591.72,153.82C588.77,153.35 586.32,150.46 583.01,150.44C580.74,150.38 577.17,149.82 575.33,151.35C575.28,151.94 575.49,152.49 575.97,153C578.51,155.78 578.51,160.54 577.81,164.01C576.45,170.51 571.37,174.74 565.08,176.25C564.86,176.91 565.49,177.36 566.97,177.61C573.01,177.88 578.3,178.46 583.2,174.21C584.27,173.55 584.15,172.37 585.55,172.45C584.9,176.19 580.63,179.6 577.48,181.42C573.45,183.37 569.68,183.18 565.36,183.39C578.36,196.19 584.78,213.79 586.53,231.61C584.33,228.21 583.69,223.47 581.56,219.91C576.83,208.81 569.8,198.3 561.15,189.85C548.69,177.65 532.52,169.65 515,168.74C501.48,168.12 487.56,173.04 476.32,180.33C462.89,189.18 453.06,201.72 445.88,215.96C443.28,220.59 442.03,226.16 439.35,230.67C439.37,224.29 441.64,218.61 442.75,212.56C443.88,211.14 443.86,209.45 444.69,207.89C447.62,199.67 452.09,192.4 457.98,185.98C458.67,185.12 460.1,184.49 459.84,183.22C453.68,183.58 448.27,182.65 443.78,178.16C442.47,176.64 440.01,174.6 440.38,172.39C444.02,176.54 450.07,178.63 455.49,178.34C456.73,177.66 460.87,178.12 460.83,176.29C455.23,175.01 449.93,171.24 448.39,165.52C446.69,161.04 447.37,155.89 450.11,151.98C449.95,151.08 449.25,150.58 448.02,150.47C443.86,149.87 440.36,150.84 436.68,152.66C435.41,153.34 434.87,154.57 433.47,154.53C434.79,150.55 437.76,146.64 441.41,144.42C446.11,141.86 451.51,141.99 456.52,143.55Z" style="fill:rgb(65,105,225);fill-rule:nonzero;"/>
            <path d="M456.21,155.25C458.09,155.54 460.02,157.36 460.85,159.04C462.31,162.19 465.62,164.13 469.01,164.4C471.36,164.81 473.71,165.54 476.01,166.22L476.04,167.02C472.44,169.24 468.33,171.08 463.98,170.28C460.2,169.33 456.64,166.71 455.31,162.96C454.89,160.67 454.63,157.15 456.21,155.25Z" style="fill:white;fill-rule:nonzero;"/>
            <path d="M569.12,155.66C572.94,159.5 569.35,166.97 565,168.99C560.52,171.49 556.27,170.28 551.9,168.34C551.24,167.9 549.09,167.29 549.28,166.27C554.02,164.56 560.47,164.87 563.87,160.87C565.08,158.4 565.83,155.68 569.12,155.66Z" style="fill:white;fill-rule:nonzero;"/>
            <path d="M517.87,178.39C520.49,179.33 524.82,179.39 526.66,181.61C523.8,181.95 520.88,181.88 518,182.04C511.9,183.26 505.65,181.62 499.34,181.6C500.65,179.71 503.91,179.25 506.02,178.95C509.69,177.74 514.07,178.03 517.87,178.39Z" style="fill:white;fill-rule:nonzero;"/>
            <path d="M470.27,218.14C471.93,217.12 472.2,220.14 472.73,221.12C474.1,223.89 476.01,226.69 478.08,229C478.66,229.91 480.25,230.69 479.9,231.87C476.74,233.3 473.76,234.75 470.99,236.9L470.23,236.86C468.94,235 469.37,233.12 468.89,231.01C468.35,226.73 468.97,222.23 470.27,218.14Z" style="fill:white;fill-rule:nonzero;"/>
            <path d="M555,218.13C557.42,224.28 557.01,230.33 555.63,236.66C555,236.89 554.4,236.75 553.84,236.21C551.26,234.28 548.1,233.23 545.43,231.64C548.56,227.95 550.71,225.57 552.97,220.98C553.56,220.23 553.75,217.7 555,218.13Z" style="fill:white;fill-rule:nonzero;"/>
            <path d="M395.63,228.51C396.68,229.36 396.81,230.65 397.32,231.87C398.39,235.74 400.53,239.23 401.93,243C401.22,247.27 399.62,251.64 399.55,256C397.98,269.5 400.71,283.91 409.26,294.76C413.65,300.23 419.31,304.11 426.02,305.97C432.27,307.64 438.11,306.96 444.05,304.36C445.39,304.45 446.3,305.9 447.26,306.73C450.48,309.72 453.74,312.58 457.67,314.61C455.74,315.48 454,314.92 452,314.9C424.36,314.82 397.28,314.89 369.93,314.87C369.04,313.03 369.74,309.48 370.31,307.48C370.08,300.36 371.91,293.21 372.54,286.06C373.87,280.96 374.82,275.45 376.51,270.54C380.04,258.43 385.57,246.58 391.49,235.45C392.98,233.34 394.12,230.12 395.63,228.51Z" style="fill:white;fill-rule:nonzero;"/>
            <path d="M629.44,228.38C630.23,228.3 630.64,228.53 630.68,229.07C633.1,234.16 636.39,238.9 638.7,244.12C642.63,251.77 645.65,260.21 648.56,268.3C649.29,270.36 649.45,273.37 651.71,274.33C650.55,276.56 651.83,279.24 652.55,281.45C653.11,283.08 656.23,282.47 657.58,282.4C657.16,283.12 656.8,283.86 656.51,284.62C656.39,284.11 656.25,283.61 656.09,283.11C652.6,282.65 654.5,287.13 656.54,287.53C656.67,288.36 656.31,289.2 655.49,290.05C656.72,291.81 656.77,291.14 655.6,292.95C655.93,293.98 656.36,295 656.89,296C655.08,297.88 654.55,299.34 656.57,301.41C656.37,301.96 656.09,302.48 655.75,302.97C655.7,306.44 656.87,311.57 656.01,314.83C628.94,315 601.14,314.83 574,314.91C572,314.94 570.25,315.42 568.3,314.67C569.25,313.17 571.39,313.06 572.63,311.65C575.93,309.65 578.58,305.83 581.97,304.34C589.14,307.98 597.97,307.58 605.04,303.92C614.15,299.63 619.75,291.64 623.35,282.49C627.85,270.08 627.31,255.45 623.55,242.98C625.76,238.25 627.98,233.4 629.44,228.38Z" style="fill:white;fill-rule:nonzero;"/>
            <path d="M534.4,237.58C542.31,239.63 550.27,244.13 555.28,250.72C563.21,262.33 563.73,275.78 569.77,288.1C570.31,289.58 567.98,291.44 566.71,291.7C566.28,293.56 564.52,294.06 563.14,295.23C559.15,298.11 554.66,299.58 549.92,300.73L548.6,300.34L548.45,299.06C550.79,294.56 552.23,289.49 552.48,284.45C550.88,283.94 550.61,286.8 549.68,287.74C543.76,296.62 534.33,303.31 524.1,306.24C514.95,308.25 505.32,308 496.57,304.47C488.06,300.89 480.03,294.7 475.37,286.61C474.78,285.99 474.25,284.21 473.28,284.24C473.69,288.64 474.2,292.89 476.14,296.89C477.11,298.06 477.95,299.18 477.83,300.79C469.72,300.2 460.87,295.48 455.89,288.97C457.19,285.02 459.11,281.05 460.14,277.01C460.76,273.4 462.51,270.07 463.34,266.49C465.95,257.74 469.3,249.58 477.13,244.24C484.77,238.66 494.73,235.83 504.01,234.67C514.25,233.11 524.59,234.61 534.4,237.58Z" style="fill:white;fill-rule:nonzero;"/>
            <path d="M522.94,247.59C528.63,249.17 534.84,252.01 538.68,256.65C537.22,257.21 535.4,255.83 533.93,255.51C518.46,252.06 502.32,252.42 487.13,256.89L487.14,256.16C496.7,246.81 510.23,244.97 522.94,247.59Z" style="fill:rgb(65,105,225);fill-rule:nonzero;"/>
        </g>
    </g>
</svg>
