<?xml version="1.0" encoding="UTF-8" standalone="no"?>
<!DOCTYPE svg PUBLIC "-//W3C//DTD SVG 1.1//EN" "http://www.w3.org/Graphics/SVG/1.1/DTD/svg11.dtd">
<svg width="100%" height="100%" viewBox="0 0 501 249" version="1.1" xmlns="http://www.w3.org/2000/svg" xmlns:xlink="http://www.w3.org/1999/xlink" xml:space="preserve" xmlns:serif="http://www.serif.com/" style="fill-rule:evenodd;clip-rule:evenodd;stroke-linejoin:round;stroke-miterlimit:2;">
    <g transform="matrix(1,0,0,1,-6.010299,-236.115425)">
        <g transform="matrix(1,0,0,1,-7768,0.647578)">
            <g transform="matrix(1.072838,0,0,1.072838,7487.233332,153.481567)">
                <path d="M360.42,76.42C360.59,76.6 360.59,76.6 360.42,76.42Z" style="fill-rule:nonzero;"/>
                <path d="M418.32,93.67C423.44,98.27 425.45,106.27 427.45,112.59C431.4,127.07 436.39,140.6 445.02,152.97C448.14,153.49 451.66,151.54 454.94,151.52C460.23,149.61 465.78,149.26 471.06,147.45C475.55,146.41 480.12,146.01 484.5,144.59C487.56,144.24 491.44,145.1 493.72,147.26C493.96,148.36 493.12,149.65 492.32,150.33C489.58,152.26 486.38,152.88 483.61,154.58C474.48,158.38 466.29,163.04 457.42,166.45C457.15,167.19 457.29,167.75 457.85,168.14C459.55,169.78 461.15,171.56 463,173.02C469.54,176.13 476.32,178.21 482.87,181.33C485.26,182.53 487.5,181.64 489.96,182.17C492.35,183.16 494.03,184.31 495.48,186.48C497.63,187.4 501.89,187.24 501.44,190.5C501.7,190.17 501.89,189.76 502.01,189.29C504.37,188.7 506.88,190.96 509.06,191.64C512.16,192.49 514.94,194.03 517.95,195.09C527.99,199.54 538.12,203.44 547.99,208.02C549.58,208.57 551.31,209.77 553.01,209.04C556.27,207.97 559.53,206.87 562.74,205.64C564,204.44 562.2,201.86 562.27,200.29C567.83,199.68 574.37,201.74 580.02,201.76C580.57,201.99 581.11,202.25 581.64,202.53C582.03,200.61 579.32,201.73 578.21,200.84C578.1,200.27 578.52,199.83 579.47,199.52C590.37,194.91 601.16,190.67 612.11,186.24C619.67,182.71 627.25,180.34 634.94,176.83C640.59,174.65 646.15,171.74 651.98,169.98C655.98,169.8 658.79,172.23 662.79,170.74C662.81,168.97 656.57,169.56 657.44,167.48C662.69,165.46 667.82,163.19 673.03,161.08C679.88,157.98 687.4,155.53 694.26,152.35C698.03,151.18 701.49,147.99 705.6,149.47C710.22,150.77 714.89,151.49 719.59,152.46L719.56,153.53C710.86,158.16 702.31,162.81 694.05,168.2C687.8,171.02 681.85,174.33 675.99,177.88C673.65,179.43 671.18,180.23 669.04,182.08L669.07,182.79C671.16,183.8 673.14,184.93 675.31,183.35C691.86,173.22 709.87,162.34 726.55,152.51L726.59,151.47C720.03,149.88 712.97,149.6 706.38,147.58C708.43,146.05 710.57,146.47 713,146.27C719.23,146.41 724.95,146.27 731.02,147.99C732.12,148.4 733.85,148.6 734.08,150.01C734.24,151.49 733.06,153.94 731.84,154.8C715.76,165.01 699.4,175.11 683.47,185.47C682.79,186.03 681.01,186.84 681.22,187.87C684.98,190.34 688.57,192.37 690.25,196.9C691.55,201.43 691.41,206.51 689.78,210.95C687.69,215.18 683.96,219.3 679.01,219.84C674.46,220.09 669.76,219.15 665.5,217.59C658.14,216.28 652.37,212.68 646,209.85C643.7,211.16 640.13,212.78 638.74,214.99C639.54,216.23 641.28,216.66 642.37,217.67C647.95,221.31 650.7,228.65 649.35,235.11C648.24,241.03 645,246.88 639.24,249.33L638.87,250C641.31,252.88 645.48,254.94 648.18,257.83C652.81,261.84 656.03,266.89 658.61,272.39C661.47,278.38 662.54,285.1 660.52,291.54C658.39,297.96 653.57,303.87 646.91,305.84C641.24,308.52 635.1,308.19 629,307.86C620.5,306.84 612.34,303.98 604.56,300.45C602.76,299.61 601.32,299.8 599.49,300.4C593.81,300.93 587.54,298.17 585.48,292.54C584.78,290.35 582.89,289.87 581.03,288.96C566.58,281.25 550.99,273.14 536.74,265.37C535.12,264.99 534.07,263.26 532.44,263.44C533.37,266.92 534.99,270.12 534.51,273.95C533.68,279.03 531.8,284.28 527.99,287.9C523.6,291.9 516.97,292.74 511.57,290.47C500.33,287.37 490.48,281.72 480.95,275.13C479.29,273.94 478.29,272.58 476,272.96C471.04,273.9 465.78,274.42 460.98,275.97L460.69,276.98C463.08,283.25 462.56,291.09 458.67,296.69C455.83,301.02 451.37,304.21 446,303.99C441.61,303.35 437.46,302.69 433.51,300.52C424.46,296.93 417.76,290.85 410.74,284.32C408.76,284.15 406.93,284.6 405.09,285.26C401.07,285.97 396.89,286.48 392.95,287.47C390.87,287.27 388.21,288.67 386.39,287.64C386.18,285.56 385.67,283.53 385.43,281.47C390.62,280.31 396.04,280.11 401.06,278.36C405.3,277.8 409.33,277.23 413.54,276.48C414.27,275.04 413.15,270.66 411.02,270.97C405,272.16 399.16,273.76 393.05,274.46C389.56,275.95 385.72,276.04 381.98,276.92C378.22,276.67 374.29,272.3 370.39,273.36C371.34,275.17 376.87,276.08 376.57,278.48C372.27,278.91 368.18,279.85 364.01,280.95C358.87,281.38 354.05,283.11 349,284C345.24,284.37 341.77,285.53 338.1,286.3C327.62,288.33 317.03,291 306.49,292.58C302.01,294.55 296.61,294.49 291.9,295.72C290.66,295.98 288.67,297.24 287.49,296.46C283.8,293.5 279.82,290.82 276.2,287.76C276.05,286.82 276.33,286.34 277.05,286.33C279.85,285.65 282.73,285.25 285.51,284.46C293.08,281.84 301.4,280.74 309,278.08C312.29,277.66 315.36,276.59 318.49,275.55C325.73,274.09 332.79,271.57 340,269.94C344.04,269.49 348,267.03 352.02,266.97C354.52,267.76 356.99,268.65 359.49,269.44C361.82,269.76 364.27,269.53 366.62,269.55L366.63,268.44C363.57,267.35 360.68,266.12 357.45,265.62L357.45,265.4C369.67,261.86 382.68,258.55 395.13,255.33C397.71,254.41 400.27,253.5 403,253.11C413.07,250.62 423.07,247.71 433.1,245.24C435.54,243.93 438.43,244.19 440.91,242.79C445.09,241.97 449.48,240.97 453.5,239.49C454.16,237.99 453.42,235.88 453.28,234.27C457.74,233.65 459.85,235.7 464.01,235.9C467.22,236.39 470.38,237.78 473.62,237.58C472.76,236.31 471.57,236.29 470.24,235.78L470.28,235.23C473.07,233.78 476.47,233.17 479.56,232.53C479.94,231.68 479.76,231.14 479.02,230.92C472.22,227.11 466.58,222.39 459.99,218.01C452.71,212.63 445.73,206.94 438.41,201.63C437.24,200.65 436.08,199.77 434.58,199.38C434.15,198.52 433.63,198.16 433.02,198.27C432.08,200.05 430.9,202.17 428.53,201.39C427.56,200.74 426.53,200.44 425.45,200.5C425.42,199.81 425.41,199.11 425.42,198.41C427.56,198.67 429.84,198.46 431.9,197.9C431.96,197.26 431.62,196.69 430.88,196.18C427.33,192.94 423.28,190.46 419.63,187.34C416.22,185.19 413.34,182.34 409.92,180.26C407.09,179.8 403.76,181.08 400.95,181.52C393.79,182.62 386.65,183.02 379.54,184.47C375.37,185.28 371.12,185.08 367,186.18C360.84,187.01 353.57,189.12 347.47,187.51C345.72,186.86 341.78,184.79 342.49,182.46C346.01,179.19 352.59,178.83 356.99,177.03C369.19,173.92 381.59,169.73 393.91,166.7L394.36,165.99C393.34,163.99 393.58,160.52 391.51,159.45C390.62,158.6 389.17,157.88 389.43,156.45C391.86,154.87 394.09,157.79 396.7,155.7C400.13,154.24 399.11,150.15 400.28,147.3C403.51,148.96 406.75,150.28 410,151.99C411.6,152.51 413.34,154.17 415.02,153.89L415.51,153.04C414.82,137 413.74,123.04 413.49,106.45C411.18,104.21 407.35,103 404.48,101.51C404.31,98.81 406.4,95.11 407.97,92.97C411.02,89.5 415.38,91 418.32,93.67Z" style="fill-rule:nonzero;"/>
                <path d="M404.38,104.35C406.49,104.7 408.51,106.65 410.68,107.32C411.15,109.12 410.92,111.15 411.01,113C410.92,119.67 411.66,126.28 411.55,132.95C412.38,138.44 412.57,144.03 412.54,149.59L411.46,149.54C408.2,147.74 404.77,146.27 401.49,144.51C402.06,138.14 402.6,131.41 402.52,125C402.48,123.55 402.54,122.37 403.01,121C403.59,115.62 403.38,109.77 404.38,104.35Z" style="fill-rule:nonzero;"/>
                <path d="M420.41,106.38C422.2,107.56 421.26,109.17 422.01,110.98C424.66,118.51 426.18,126.04 429.57,133.37C434.55,147.03 442.34,159.16 452.21,169.8C457.64,175.37 462.73,180.71 469.72,184.35C470.3,184.69 470.9,184.79 471.53,184.65C471.47,183.73 470.08,183.08 470.21,181.98C473.17,181.85 476.9,184.1 479.64,185.33C479.35,186.87 477.55,187.78 478.3,189.72C479.9,191.86 482.44,192.48 485,192.54C487.9,192.57 490.57,192.77 493.04,190.97C494.55,190.63 496.3,191.78 497.67,192.34C498.46,194.33 497.15,197.11 500.01,198.08C501.78,198.02 501.74,195.48 502.23,194.25C507.29,196.08 512.58,198.23 517.47,200.53C542.93,211.46 566.46,221.96 591.66,233.41C592.76,233.95 595.03,234.38 595.56,235.57C594.51,236.22 592.42,236.73 592.04,238C592.08,239.2 594.01,239.38 594.73,240.24C594.86,242.42 594.7,243.93 596.49,245.5C602.1,249.62 608.53,248.93 614.78,246.78C615.01,245.81 613.2,244.99 612.55,244.47C607.93,244.3 603.08,245.05 599.06,241.93C597.94,240.99 597.86,239.98 598.92,238.95C601.66,236.68 604.99,235.48 608.54,236.48C610.06,237.01 610.28,238.45 611.74,239.07C612.56,240.68 613.35,242.17 614.91,243.19C622.83,247.96 631.14,251.25 638.45,256.55C640.2,257.94 642.41,258.23 641.82,260.99C644.3,263.93 646.76,266.84 648.92,270.04C649.49,270.8 651.22,272.54 651.84,270.97C651.55,268.74 648.16,266.62 648.23,264.33C650.17,265 651.9,268.27 652.84,270.03C653.42,271.15 654.9,272.39 654.7,273.72C653.85,273.87 652.99,274 652.14,274.12C652.04,275.52 653.41,276.7 653.76,278.05C654.47,279.95 654.34,281.72 656.56,282.49C657.27,283.81 656.07,284.49 654.95,284.75C652.42,285.03 650.69,288.29 650.44,290.56C652.6,290.64 653.28,288.29 655.59,290.36C655.48,291.2 653.7,291.75 653.06,292.19C650.55,293.52 649.46,297.06 648.5,299.54L647.29,299.72C647.3,298.92 647.41,298.12 647.63,297.32C645.68,297.29 645.85,299.23 643.42,298.65C644.72,296.77 647.04,295.5 648.43,293.51C648.64,292.13 649.01,290.58 648.74,289.2C646.59,287.8 641.97,285.82 639.46,285.44C638.43,290.71 638.29,296.69 642.62,300.6L641.03,301.26C636.79,299.84 631.99,300.6 627.52,299.58C614.1,297.86 600.62,290.39 588.66,284.38C575.4,277.38 561.13,269.92 548.03,262.87C546.22,262.14 546.64,260.01 548.61,260.41C556.82,264.9 565.63,269.02 573.64,273.46C573.22,269.36 571.94,265.2 572,261C571.92,258.74 572.85,256.76 572.53,254.47C569.41,253.47 566.89,251.54 563.93,250.22C555.78,246.18 547.59,241.96 539.1,237.73C538.44,237.55 538.12,236.97 538.15,236C539.68,229.89 544,225.64 546.48,220.36C544.84,220.23 543.97,220.73 542.69,221.65C537.61,224.54 535.3,229.97 532.69,234.66C532.09,234.7 531.49,234.55 530.9,234.21C526.95,232.13 522.98,231.84 518.83,230.34C517.42,229.81 515.85,230.05 514.42,229.55C514.97,226.27 517.11,222.79 518.81,219.93C520.34,216.26 524.98,213.18 526.74,210.18C523.87,210.66 521.02,211.95 518.68,213.69C517.5,214.47 516.59,215.59 515.06,214.77C499.28,207.02 484.69,199.77 468.66,192.38C465.01,190.85 461.23,188.19 457.39,187.36C457.81,188.21 459.07,188.77 459.86,189.23C478.92,200.49 494.77,208.8 513.74,219.21C512.55,222.33 511.19,225.7 509.74,228.72C508.68,229.15 508.11,228.91 508.02,227.98C507.88,226.18 509.51,223.89 508.77,222.23C499.23,217.17 489.28,212.64 479.94,207.23C478.35,206.34 477.56,207.63 477.5,209.04C477.5,212.19 477.37,215.36 477.59,218.49C478.33,219.86 479.05,221.17 479.54,222.67C477.43,222.51 475.83,219.8 475.32,217.95C474.75,213.83 474.89,209.47 475.63,205.39C472.23,203.42 468.75,201.63 465.36,199.62C462.41,198.11 462.92,194.67 460.06,192.81C457.84,191.27 456.26,192.74 454.06,192.72C445.6,187.56 435.51,182.1 427.48,176.61C428.08,175.2 429.2,173.43 427,172.79C419.81,172.52 412.43,175.14 405.5,175.6C402.52,176.63 399.46,176.21 396.51,177.45C393.95,177.71 391.56,178.55 389,178.65C382.24,179.03 375.73,181.44 369,181.89C363.81,182.35 358.59,184.37 353.44,184.52L353.44,183.49C355.06,183.34 356.36,182.42 357.98,182.44C361.82,182.37 365.2,180.86 368.99,180.27C373.71,179.57 378.32,178.25 382.98,177.36C388.19,177.06 392.91,175.25 397.98,174.34C401.91,174 405.49,172.49 409.49,172.39C413.1,171.06 417.03,170.76 420.77,169.8L420.74,169.21C416.25,167 411.65,164.89 406.99,163.06C403.5,163.13 401.29,164.12 398.74,160.99C398.61,158.53 400.71,157.33 402.96,158.22C415.05,162.92 427.68,168.23 440.76,173.33C443.45,174.84 447.46,175.1 449.53,177.38C452.23,177.41 454.14,179.19 456.67,179.51C456.75,178.14 455.13,177.69 454.3,176.7C447.68,170.27 441.77,163.07 436.54,155.48C435.78,154.49 436,153.2 434.48,153.43C434.19,158.03 434.55,163.42 432.73,167.7L432.24,167.72C431.63,160.7 431.59,153.53 431.47,146.48C426.41,136.16 423.91,124.46 421.63,113.27C421.02,110.93 420.18,108.86 420.41,106.38Z" style="fill:rgb(3,76,178);fill-rule:nonzero;"/>
                <path d="M486.63,149.39C484.85,150.41 482.99,151.38 481.02,151.95C472.37,155.65 463.78,158.87 454.87,162.67C453.17,163.45 450.92,162.46 452.46,160.5C459.7,158.29 466.85,155.57 473.99,153.12C478.15,152.32 482.47,149.37 486.63,149.39Z" style="fill:rgb(3,76,178);fill-rule:nonzero;"/>
                <path d="M696.04,158.28C697.08,158.28 700.33,157.64 699.65,159.57C696.68,160.65 694.43,162.85 691.12,161.95C690.81,160.12 694.74,158.99 696.04,158.28Z" style="fill:rgb(3,76,178);fill-rule:nonzero;"/>
                <path d="M683.99,161.55C685.02,161.96 686.02,162.42 687.01,162.93C688.4,162.6 689.68,162.61 690.87,162.97C690.95,163.58 690.48,164.06 689.47,164.41C689.96,165.23 691.17,165.67 691.66,166.64C688.83,167.35 687.18,164.97 684.47,166.48C682.78,167.31 681.91,167.7 681.41,165.49C680.6,165.24 677.2,165.45 677.35,164.33C679.04,163.99 680.76,163.83 682.45,163.53C682.69,162.44 683.21,161.78 683.99,161.55Z" style="fill:rgb(3,76,178);fill-rule:nonzero;"/>
                <path d="M678.82,168.15L678.77,168.77C676.04,170.48 673.56,172.69 670.3,170.71L670.34,170.27C672.52,168.96 676.33,167.09 678.82,168.15Z" style="fill:rgb(3,76,178);fill-rule:nonzero;"/>
                <path d="M640.03,185.05C646.53,183.82 654.33,184.81 660.95,185.45C666.33,187.23 671.51,189.1 676.75,191.2C676.86,192.6 675.1,191.77 675.43,193.57C677.35,193.37 678.98,192.5 681.02,192.94C681.82,193.11 684.07,193.79 683.79,194.9C682.34,195.26 681.05,194.79 679.7,195.65C674.36,198.19 672.74,205.3 674.5,210.53C675.07,212.08 676.77,213.41 676.91,215.03C675.7,215.63 674.17,214.46 673.22,213.75C670.88,211.77 670.22,207.89 670.38,204.98C670.31,203.22 671.51,201.8 670.84,200.16C668.56,199 665.97,198.37 663.57,197.46C660.89,198.89 661.18,204.18 660.68,206.74L659.39,206.62C658.2,201.1 659.4,195.31 662.74,190.74C663.18,189.09 661.96,189.21 660.92,189.75C658.65,190.67 658.12,193.66 656.03,194.43C654.39,193.86 652.77,193.23 651.1,192.71C647.04,191.23 643.91,187.92 640.08,185.8L640.03,185.05Z" style="fill:rgb(3,76,178);fill-rule:nonzero;"/>
                <path d="M491.52,187.5C491.76,188.12 491.77,188.81 491.57,189.56C489.1,190.22 485.48,190.42 483.33,188.8C484.31,185.36 489.06,185.67 491.52,187.5Z" style="fill:rgb(3,76,178);fill-rule:nonzero;"/>
                <path d="M445.46,194.41C446.93,194.3 450.61,196.85 451.48,197.98C451.69,199.48 451.53,200.78 451.01,201.9C449.38,201.72 446.42,199.92 445.49,198.55C445.43,197.17 445.44,195.79 445.46,194.41Z" style="fill:rgb(3,76,178);fill-rule:nonzero;"/>
                <path d="M458.85,196.05C459.34,197.85 459.12,199.8 459.4,201.65C460.06,203.55 462.61,203.34 463.4,205C463.01,206.51 460.49,205.54 460.18,207.05C460.47,209.24 461.24,211.39 461.56,213.55L460.56,213.51C459.68,211.74 458.55,210.14 457.56,208.44C456.78,208.91 456.08,209.98 455.12,209.85C453.98,207.52 456.05,205.05 454.28,202.78C453.82,201.69 452.47,200.28 453.02,199.1C454.58,198.56 455.29,200.68 456.74,199.79C457.18,198.95 457.54,195.7 458.85,196.05Z" style="fill:rgb(3,76,178);fill-rule:nonzero;"/>
                <path d="M643.2,196.33C644.55,196.57 646.16,198.88 646.82,200.1C647.28,201.74 645.55,201.83 644.54,202.53C640.88,204.45 637.47,206.77 633.85,208.76C632,210.02 630.99,211.57 628.49,210.47C627.03,209.42 624.6,209.31 623.52,207.99L624.06,207.24C630.43,203.64 636.95,200.13 643.2,196.33Z" style="fill:rgb(3,76,178);fill-rule:nonzero;"/>
                <path d="M682.27,202.33C684.17,202.01 688.21,205.01 688.45,206.99C687.73,209.34 683.77,208.12 682.03,207.85C678.99,207.12 679.54,203.11 682.27,202.33Z" style="fill:rgb(3,76,178);fill-rule:nonzero;"/>
                <path d="M464.19,205.97C465.46,205.28 467.54,206.64 468.67,207.35C470.81,208.31 470.03,211.1 469.77,212.92C468.27,213.48 465.99,211.05 464.47,210.51C463.82,209.21 463.96,207.37 464.19,205.97Z" style="fill:rgb(3,76,178);fill-rule:nonzero;"/>
                <path d="M594.28,209.32C597.66,209.07 602.13,209.19 605.51,209.58C608.24,210.59 611.06,210.76 613.88,211.35C620.12,212.61 625.86,215.52 631.95,217.37C632.97,217.74 634.4,218.13 633.51,219.49C632.05,220.58 629.37,222.57 629.45,224.55L630.49,224.45C632.81,222.74 636.03,220.92 638.98,221.12C640.28,221.67 643.48,222.63 642.56,224.57C640.53,224.35 639.3,223.17 637.09,224.26C631.76,226.72 629.73,234.23 631.49,239.48C632.08,241.55 633.94,242.96 634.67,244.69C632.51,246.39 630.85,243.87 629.66,242.34C626.79,237.87 627.48,233.19 628.65,228.34C627.28,227.05 625.64,227.1 623.94,226.22C622.82,225.77 621.35,224.55 620.14,225.17C618.31,228.76 618.26,233.78 617.62,237.66C617.19,237.33 616.82,236.96 616.51,236.55C614.84,231.76 616.29,225.94 618.6,221.6C619.42,219.84 621.98,218.04 621.91,216.1C619.74,214.66 617.59,216.65 616.31,218.32C615.22,219.36 614.97,221.52 613.05,220.87C606.89,217.73 601.64,213.38 595.25,210.6C594.58,210.28 594.26,209.85 594.28,209.32Z" style="fill:rgb(3,76,178);fill-rule:nonzero;"/>
                <path d="M599,221.03C600.73,221.66 602.84,225.28 603.4,226.99C602.39,228.3 600.38,229.02 598.89,229.72C597.08,229.74 595.24,228.11 593.52,227.5C592.6,226.9 590.6,226.58 591.02,225.1C593.35,223.34 596.39,222.38 599,221.03Z" style="fill:rgb(3,76,178);fill-rule:nonzero;"/>
                <path d="M544.63,229.48C552.16,232.93 559.69,237.05 567.12,240.76C573.21,244.21 580.13,246.71 585.64,250.63C575.87,249.94 568.28,245.11 559.49,241.45C553.92,238.64 548.13,236.11 542.44,233.51C542.24,232.31 543.57,229.76 544.63,229.48Z" style="fill-rule:nonzero;"/>
                <path d="M581.11,230.73C582.75,231.57 587.44,233.04 586.52,235.54C585.07,237.79 581.49,235.92 579.58,235.38C578.92,234.24 577.73,233.19 577.36,231.93C576.63,229.51 579.77,230.47 581.11,230.73Z" style="fill-rule:nonzero;"/>
                <path d="M639.3,231.31C641.51,230.49 642.98,232.21 644.51,233.49C645.35,234.37 646.97,235.54 645.9,236.85C644.39,237.94 640.11,237.57 638.72,236.32C636.83,234.89 637.7,232.53 639.3,231.31Z" style="fill:rgb(3,76,178);fill-rule:nonzero;"/>
                <path d="M535.98,242.98C538.42,244.58 539.93,248.41 541.18,250.97L540.92,251.75C535.66,252.71 530.14,253.51 524.99,254.95C521.99,254.2 519.56,251.58 516.69,250.31C515.79,249.29 512.91,249.08 513.44,247.51C519.18,247.04 524.51,245.43 530.09,244.24C531.99,243.71 533.98,242.7 535.98,242.98Z" style="fill:rgb(3,76,178);fill-rule:nonzero;"/>
                <path d="M480.16,245.03L480.99,244.75C488.67,245.65 496.5,247.58 503.72,250.36C508.81,252.83 515.21,255.46 519.52,259C518.49,260.44 514.47,261.68 514.28,263.8C517.6,263.22 521.18,260.44 524.93,262.21C526.42,262.87 528.81,264.74 528.65,266.55C527.01,265.84 526.18,264.09 524.02,264.38C520.66,263.95 517.76,266.38 516.03,269.01C514.71,271.66 513.16,273.94 513.43,277C513.14,281.14 515.71,284.1 518.64,286.62C516.42,287.15 513.72,285.24 512.34,283.63C509.83,279.96 509.34,275.18 510.92,271.01C512.01,268.6 508.64,267.7 507.1,266.77C505.97,266.41 504.48,264.53 503.32,265.29C501.32,269.55 501.71,275.18 501.72,279.77C501.07,280.18 500.3,280.11 499.44,279.57C498.43,277.45 498.45,275.29 498.53,273C498.97,266.65 501.47,260.59 506.56,256.57C507.52,255.2 504.98,254.4 504.03,254.24C502.11,255.41 500.12,257.05 498.82,258.88C497.91,259.98 497.83,261.15 496.06,260.72C494.06,259.64 492.14,258.09 490.54,256.47C487.49,252.45 483.77,249.26 480.23,245.71L480.16,245.03Z" style="fill:rgb(3,76,178);fill-rule:nonzero;"/>
                <path d="M481.68,257.34C482.42,258.86 484.41,261.2 483.98,262.86C478.33,264.2 472.74,265 466.95,266.57C462.88,266.91 459.02,268.27 455.01,268.84C453.03,268.36 451.3,266.52 449.51,265.51C448.83,264.89 446.83,264.26 447.16,263.13C458.11,260.9 466.44,258.76 476.94,256.65C478.85,256.25 480.4,255.18 481.68,257.34Z" style="fill:rgb(3,76,178);fill-rule:nonzero;"/>
                <path d="M575.19,257C575.88,256.58 576.73,256.7 577.72,257.34C583,260.02 588.33,262.81 593.65,265.38C594.7,265.9 595.26,266.74 596.5,266.56C597.51,264.09 598.47,261.21 600.19,259.16C601.77,258.58 604.54,260.39 605.62,261.61C604.48,264.06 602.73,266.99 602.37,269.63C604.74,271.74 608.2,272.55 610.94,274.17C619.42,278.04 627.6,281.86 635.96,285.2L636.45,285.99C635.56,289.65 636.45,293.42 636.03,296.86C631.98,296.86 627.61,295.74 623.49,295.4C619.37,294.1 615.17,292.98 611.06,291.65C599.83,287.09 589.04,281.27 578.27,275.7C576.6,274.81 576.97,272.55 576.28,270.9C574.45,266.65 574.9,261.53 575.19,257Z" style="fill-rule:nonzero;"/>
                <path d="M415,259.6C422.81,259.75 430.91,261.63 437.83,265.31C441.2,266.84 444.09,269.23 447.53,270.54C448.38,272.6 442.85,272.39 443.17,274.99C443.32,276.38 444.91,274.61 445.58,274.53C448.61,273.54 451.87,273.46 454.48,275.54C457.34,277.13 457.59,280.63 457.51,283.55L456.48,283.55C455.95,280.02 455.52,278.6 452.51,276.57C449.43,275.97 446.74,277.54 444.64,279.63C441.71,283.03 440.35,287.52 441.15,291.97C442.61,295.13 443.89,297.79 447.62,298.58C443.38,299.81 439.31,297.01 438.06,292.97C436.3,288.87 437.6,285.46 438.54,281.5C436.04,280.32 433.77,278.84 431.4,277.46C428.7,280.24 429.49,286.12 428.47,289.48C427.22,290.28 426.23,289.13 425.87,288C425.49,282.18 427.17,275.54 431.26,271.22C431.96,270.42 433.37,269.49 433.53,268.4C432.65,267.55 431.63,266.59 430.36,267.36C428.35,268.69 426.77,270.47 425.47,272.49C424.09,273.85 422.73,272.2 421.58,271.4C417.94,268.7 415.49,264.54 412.75,260.98C412.73,260.01 413.48,259.55 415,259.6Z" style="fill:rgb(3,76,178);fill-rule:nonzero;"/>
                <path d="M625.98,259.52C627.26,259.91 629.1,260.88 629.84,262.02C629.85,263.42 627.64,264.75 626.74,265.76C625.26,265.98 623.44,264.55 622.21,263.79C622.37,262.35 624.71,260.19 625.98,259.52Z" style="fill-rule:nonzero;"/>
                <path d="M638.79,261.15C641.93,264.19 645.05,267.82 647.55,271.4C647.36,272.05 645.94,273.16 645.19,272.84C641.75,269.18 638.32,265.58 634.41,262.41C635.55,261.72 637.52,260.08 638.79,261.15Z" style="fill-rule:nonzero;"/>
                <path d="M615.27,262.69C616.43,263.64 618.87,263.97 618.05,265.98C617.15,267.5 616.2,268.91 615.53,270.55C614.17,271.11 612.23,269.55 611.13,268.82C610.64,267.52 612.07,265.76 612.51,264.52C613.12,263.59 613.89,261.43 615.27,262.69Z" style="fill-rule:nonzero;"/>
                <path d="M632.02,263.85C633.54,264.3 635.01,265.79 635.96,267.03C636.07,268.22 634.04,269.98 632.99,270.32C631.73,269.83 629.11,268.41 628.9,267C629.69,265.86 630.67,264.35 632.02,263.85Z" style="fill-rule:nonzero;"/>
                <path d="M620.16,266.12C621.68,265.86 623.49,267.46 624.78,268.22C624.41,270.02 623.03,271.68 622.53,273.54C621.12,274.31 618.5,272.55 617.29,271.74C617.63,269.8 619.16,267.83 620.16,266.12Z" style="fill-rule:nonzero;"/>
                <path d="M638.01,268.96C639.99,269.82 641.74,272.36 643.17,274.01C642.99,275.06 642.27,275.78 641.01,276.18C639.23,274.86 636.67,273.42 635.4,271.65C635.65,270.64 637.01,269.33 638.01,268.96Z" style="fill-rule:nonzero;"/>
                <path d="M627.03,269.81C628.43,270.38 630.93,271.47 631.34,273C630.92,274.31 630.13,276.11 628.95,276.89C627.36,276.79 625.42,275.83 624.2,274.83C624.35,273.51 625.87,270.39 627.03,269.81Z" style="fill-rule:nonzero;"/>
                <path d="M295.37,272.37C295.66,272.67 295.66,272.67 295.37,272.37Z" style="fill-rule:nonzero;"/>
                <path d="M522.11,273.21C524.82,270.96 530.73,276.07 528.84,278.9C526.9,280.35 523.22,278.74 521.3,277.7C520.59,276.49 520.77,273.94 522.11,273.21Z" style="fill:rgb(3,76,178);fill-rule:nonzero;"/>
                <path d="M634.01,273.86C635.91,275.08 638.27,276.47 639.7,278.21C639.41,279.38 638.55,281.22 637.05,280.96C635.09,280.01 633.16,278.95 631.28,277.85C631.46,276.87 632.96,273.95 634.01,273.86Z" style="fill-rule:nonzero;"/>
                <path d="M649.6,274.41C651.41,276.42 652.3,279.43 653.05,281.99C652.49,283.69 650.63,285.06 649.68,286.67C647.24,286.59 644.47,284.62 642.04,283.9C639.87,283.09 641.82,280.67 642.57,279.51C644.2,277.72 646.97,274.22 649.6,274.41Z" style="fill-rule:nonzero;"/>
                <path d="M381.01,282.54C382.65,283.23 382.53,286.98 382.55,288.55C381.48,289.33 380.31,289.54 379.02,289.59C373.21,290.01 367.78,291.84 361.98,292.29C355.63,293.33 349.47,294.84 343.06,295.47C334.84,297.46 325.14,298.62 317.09,300.26C309.7,301.12 302.53,303.07 295.05,303.5C291.53,304.92 287.79,305.27 283.99,304.91C278.55,303.37 271.9,302.57 268.31,297.67C266.44,295.73 267.55,292.76 268.69,290.74C269.45,289.3 271.04,287.31 272.88,288.11C274.51,290.44 273.45,293.98 274.69,296.25C277.1,298.24 281.24,298.78 284.12,299.65C285.88,300.2 287.73,300.1 289.48,299.54C302.29,297.4 315.03,294.2 327.94,292.53C331.23,291.46 334.53,291.03 337.95,290.54C342.29,289.53 346.54,288.41 351,287.97C354.8,287.72 358.17,286.02 362,285.85C363.72,285.49 365.28,286.03 366.51,284.59C371.4,284.36 376.09,282.79 381.01,282.54Z" style="fill-rule:nonzero;"/>
                <path d="M450.13,285.22C452.54,283.77 458.38,288.07 456.81,290.95C454.97,292.24 451.49,290.98 449.44,290.53C447.87,289.39 448.64,286.09 450.13,285.22Z" style="fill:rgb(3,76,178);fill-rule:nonzero;"/>
            </g>
        </g>
    </g>
</svg>
