<?xml version="1.0" encoding="UTF-8" standalone="no"?>
<!DOCTYPE svg PUBLIC "-//W3C//DTD SVG 1.1//EN" "http://www.w3.org/Graphics/SVG/1.1/DTD/svg11.dtd">
<svg width="100%" height="100%" viewBox="0 0 500 361" version="1.1" xmlns="http://www.w3.org/2000/svg" xmlns:xlink="http://www.w3.org/1999/xlink" xml:space="preserve" xmlns:serif="http://www.serif.com/" style="fill-rule:evenodd;clip-rule:evenodd;stroke-linejoin:round;stroke-miterlimit:2;">
    <g transform="matrix(1,0,0,1,-6.66,-130.75)">
        <g transform="matrix(1.03522,0,0,1.03522,-8.267873,7.817622)">
            <path d="M255.81,118.75C261.72,124.07 265.77,131.2 271.68,136.33C275.3,139.76 281.02,140.54 285.7,142.12C294.76,144.62 302.96,148.84 311,153.6C319.43,150.56 326.6,145.34 334.78,141.83C336.95,140.87 339.21,140.45 341.55,140.15C340.7,151.65 335.71,162.59 335.5,173.99C338.89,180.57 340.15,187.99 339.02,195.33C338.15,200.66 339.18,205.89 338.06,211.23C337.5,214.93 336.22,219.16 336.89,222.87C338.46,229.38 343.84,234.67 345.61,241.25C347.63,247.61 345.78,254.92 347.08,261.18C349.93,267.89 356.67,272.5 359.58,279.4C362.21,284.99 361.19,290.1 361.45,296.06C365.51,297.11 369.73,297.89 373.65,299.39C379.16,301.85 383.2,307.65 388.8,310.08C394.23,312.05 399.38,310.87 404.85,312.42C410.58,313.84 415.6,317.53 421,319.23C425.98,320.28 431.45,319.29 436.5,319.85C438.26,320.74 439.48,322.6 441.19,323.58C444.54,324.76 448.06,324.7 451.02,326.99C454.14,329.48 456.78,332.63 459.31,335.7C463.05,340.29 464.16,345.86 465.57,351.45C466.31,354.67 467.31,357.88 467.79,361.15C468.45,364.69 465.24,368.3 466.36,371.65C468.36,377.96 468.67,384.35 471.53,390.39C480.33,410.35 487.13,430.99 493.16,451.92C495.15,456.95 496.82,461.69 497.1,467.17C491.14,467.48 485.38,467.59 479.68,465.54C477.56,455.64 474.11,446.39 471.19,436.74C464.53,415.08 456.35,394.32 444.77,374.77C440.35,377.5 436.07,380.7 432.47,384.46C428.73,388.32 426.73,393.02 423.49,397.5C421.29,400.62 418.67,403.33 416.29,406.3C411.82,411.95 408.79,418.69 407.63,425.82C406.75,430.75 405.85,435.34 402.38,439.19C400.22,433.97 399.14,428.51 397.76,423.06C396.16,427.66 394.68,432.11 394.57,437.03C394.29,446.61 394.86,456.23 394.3,465.79C385.54,468.22 375.44,467.83 366.7,465.45C368.38,459.04 370.57,452.77 372.21,446.35C372.62,443.9 373.64,440.63 371.07,439.01C367.79,437.54 363.16,438.61 359.9,439.83C354.19,442.07 348.27,443.58 342.42,445.38C336.46,447.22 330.25,447.48 324.27,449.26C320.42,450.4 316.75,450.02 313.21,452.2C310.85,453.22 310.2,455.24 308.98,457.3C303.05,457.06 298.1,460.56 292.35,459.56C289.7,459.28 286.76,458.41 284.13,458.85C281.04,460.21 278.4,462.95 275.87,465.13C267.19,468.43 259.16,466.85 250,467.19C244.74,467.35 240.17,466.69 235.17,465.11C231.72,461.89 228.77,457.88 224.97,455.11C220.82,452.92 215.78,452.2 211.31,450.83C198.82,447.14 186.38,442.99 174.41,437.86C166.64,434.57 158.69,431.63 151.04,428.06C144.9,425.24 139.96,421.47 133.04,421.02C133.3,427.8 135.8,433.67 137.52,440.52C139.63,448.9 142.52,456.97 143.92,465.52C135.56,468.09 125.44,466.37 116.76,466.34C117.27,450.69 118.56,436.3 113.55,421.13C112.82,424.7 112.12,428.27 111.37,431.83C109.88,431.38 107.73,431.59 106.98,430.02C104.96,426.48 104.05,422.3 102.37,418.58C99.73,412.35 94.91,407.48 90.76,402.25C85.8,395.86 81.18,389.21 76.23,382.82C73.69,379.52 70.72,376.73 67.02,374.79C64.58,378.53 62.66,382.68 60.62,386.65C56.47,394.77 52.25,402.59 49.16,411.21C44.53,423.19 40.35,435.32 36.83,447.68C35.21,453.57 32.81,459.4 31.95,465.38C25.99,466.58 20.5,467.11 14.42,466.85C15.69,462.66 16.83,458.47 18.45,454.39C20.78,448.66 21.33,442.25 23.18,436.25C25.98,426.91 29.33,417.72 32.54,408.5C34.68,402.33 38.8,395.66 39.11,389.13C38.1,386.7 35.93,384.76 34.63,382.46C34.27,377.63 33.62,372.91 31.9,368.35C31.19,365.37 30.79,362.02 30.65,358.96C31.3,355.59 34.38,352.97 35.35,349.83C35.66,344.9 39.59,340.26 43.01,336.97C44.98,335.03 45.99,332.64 47.62,330.48C53.71,327.75 59.78,323.03 66.17,321.39C71.46,321.07 76.87,321.56 82.1,322.32C85.49,322.9 87.93,321.25 90.81,319.82C96.48,316.77 101.73,313.78 108.08,312.28C113.06,311.01 118.11,311.86 123.19,310.02C127.18,308.35 130.26,304.36 133.91,301.91C137.83,299.09 142.18,298.2 146.68,296.78C147.8,296.33 149.55,296.07 150.14,294.93C150.64,290.04 149.62,284.4 151.74,279.83C154.61,273 161.23,268.32 164.17,261.87C165.4,256.14 164.07,250.08 165.27,244.26C166.69,234.19 174.51,227.03 180.04,219.08C183.19,214.86 182.46,208.99 181.99,204.04C181.24,197.37 176.39,194.05 173.78,188.42C172.54,182.32 173.64,175.11 174.44,169.03C174.96,159.21 169.5,148.98 169.11,139.05C176.54,141.94 183.58,145.57 190.5,149.49C193.4,151.02 196.65,153.02 199.94,153.42C204.42,151.79 208.42,148.74 212.81,146.8C220.2,143.3 228.35,141.93 235.72,138.64C241.01,136.32 244.68,130.6 248.22,126.21C250.45,123.56 252.44,119.92 255.81,118.75Z" style="fill-rule:nonzero;"/>
            <path d="M255.82,135.32C258.77,137.53 261.08,140.74 263.57,143.44C267.96,148.53 272.84,152 275.93,158.15C278.34,162.55 280.22,167.7 285.37,169.55C290.35,171.09 295.78,172.55 301.02,172.31C305.77,171.95 308.89,169.28 312.34,166.35C316.16,163.06 320.71,161.08 325.56,159.89C325,162.78 324.6,165.87 323.46,168.59C322.01,170.67 319.7,172.08 318.28,174.25C314.95,179.47 311.29,184.27 309.19,190.18C300.74,191.8 293.65,188.62 285.31,188.42C276.55,187.72 267.78,187.22 259,186.66C242.3,186.45 225.52,187.83 209.1,190.91C203.59,191.89 198.36,193.59 192.75,194.01C191.84,187.79 194.7,182.4 193.25,176.5C190.93,170.33 185.62,167.12 185.05,160.02C190.7,160.27 195.26,163.01 199.56,166.44C202.94,168.94 206.45,172.46 210.93,172.45C216.61,172.39 222.36,170.95 227.48,168.49C231.25,166.79 232.86,162.19 234.87,158.82C238.88,151.56 245.87,145.59 251.22,139.23C252.5,138.02 254.04,135.64 255.82,135.32Z" style="fill:rgb(204,0,34);fill-rule:nonzero;"/>
            <path d="M225.65,153.14C225.34,155.37 226.03,158.54 223.88,159.92C219.73,162.59 214.37,163.66 209.48,163.16C213.1,157.21 219.15,154.68 225.65,153.14Z" style="fill:white;fill-rule:nonzero;"/>
            <path d="M286.13,153.56C292.14,154.37 299.01,157.52 302.2,162.92C296.2,164.23 291.33,161.68 286.51,158.48C286.34,156.85 286.25,155.2 286.13,153.56Z" style="fill:white;fill-rule:nonzero;"/>
            <path d="M252.64,155.7C254.69,154.94 256.95,154.94 258.88,156.03C262.79,158.01 265.06,162.84 265.57,167.01C265.41,169.82 263.59,172.73 261.87,174.89C260.09,177.01 257.53,176.77 255.01,176.83C252.52,176.77 250.24,176.45 248.54,174.44C245.85,171.43 246.05,167.91 246.35,164.13C246.79,160.37 248.94,156.96 252.64,155.7Z" style="fill-rule:nonzero;"/>
            <path d="M261.93,192.7C267.07,193.06 272.21,193.53 277.32,194.15C287.1,195.06 297.38,196.04 306.49,199.94C305.21,201.11 303.92,202.43 302.43,203.32C299.52,203.93 296.29,203.41 293.35,203.12C275.59,200.65 257.91,199.39 240,200.98C235.83,201.42 231.64,201.3 227.47,201.66C219.41,202.53 211.39,203.78 203.52,205.8C200.9,206.5 198.23,206.79 195.52,206.9C195.39,204.96 195.27,203.03 195.15,201.09C204.86,197.4 216.01,196.21 226.29,194.66C238.09,193.65 250.09,192.21 261.93,192.7Z" style="fill:white;fill-rule:nonzero;"/>
            <path d="M245.97,210.24C254.86,210.51 264.22,209.52 272.94,211.37C270.77,214.31 268.38,217.07 266.17,219.98C272.62,218.23 278.28,214.82 284.53,212.64C293.63,209 304.4,217.8 305.14,226.96C301.45,225.96 297.16,222.87 293.33,223.47C285.18,225.95 277.84,232.37 269,234.25C266.22,233.94 263.51,232.51 260.9,231.56C260.13,234.46 258.8,237.52 259.72,240.53C260.75,243.99 261.75,247.29 261.6,250.96C261.5,255.95 261.85,260.48 262.76,265.39C265.27,266.01 267.79,266.56 270.34,266.98C270.8,268.45 271.29,269.91 271.78,271.36C266.8,274.2 261.57,278.12 256,279.52C250.53,279.25 244.99,275.04 240.2,272.59C239.85,269.9 239.64,267.21 239.51,264.5C236.65,265.51 233.65,266.3 232.21,269.28C232.28,271.44 233.16,273.66 233.76,275.73C228.89,278.57 223.85,281.23 218.84,283.81C217.77,284.22 215.65,285.42 214.66,284.51C212.99,279.8 214.18,275.64 215.03,270.96C211.23,266.77 206.52,263.4 202.99,259C200.64,256.08 200.31,252.57 200.72,248.95C201.6,242.64 203.21,236.4 205.63,230.49C207.93,230.37 210.41,230.1 212.69,230.5C215.24,231.07 217.73,232.67 219.99,233.95C217.35,235.57 214.66,237.09 211.96,238.61C212.96,239.79 213.65,241.01 215.13,241.62C221.91,244.64 228.71,243.93 235.89,245.54C234.4,247.37 232.88,249.18 231.35,250.99C235.99,250.17 240.31,249.09 243.88,245.82C248.27,241.88 249.47,236.73 250.49,231.16C247.6,232.13 244.13,233.99 241.06,233.33C232.98,231.66 225.75,226.11 218.43,223.61C212.88,222.01 207.91,226.57 203.13,228.81C205.42,221.91 209.06,215.91 216.08,213.09C221.85,210.36 227.03,211.74 233.01,212.24C237.39,211.47 241.43,210 245.97,210.24Z" style="fill:rgb(204,0,34);fill-rule:nonzero;"/>
            <path d="M195.99,220.14C195.27,228.56 192.2,235.97 188.49,243.45C185.75,248.9 184.57,254.7 184.39,260.77C186.02,259.45 187.65,258.13 189.3,256.83C189.79,263.27 188.41,268.65 185.23,274.2C181.61,281.14 174.75,287.2 172.71,294.63C172,298.55 172.07,302.58 171.24,306.5C166.3,300.98 163.57,293.34 163.58,285.97C165.11,277.95 173.37,272.99 177.28,267.46C178.33,259.87 176.54,251.69 178.15,244.19C180.95,234.74 188.59,226.38 195.99,220.14Z" style="fill:white;fill-rule:nonzero;"/>
            <path d="M321.92,228.7C326.62,231.73 329.96,236.76 332.18,241.8C335.17,248.58 332.69,257.71 334.1,264.86C334.53,266.77 335.92,268.41 337.09,269.93C339.92,273.4 342.85,276.99 345.27,280.77C346.49,282.61 347.1,284.75 347.2,286.95C346.99,294.43 344.01,301.06 339.73,307.06C339.55,303.07 339.82,298.94 339.21,294.99C337.89,290.2 334.04,285.83 331.09,281.9C325.76,274.95 321.58,267.61 322.34,258.5C323.89,258.88 325.43,259.29 326.98,259.67C326.93,252.04 323.69,245.86 320.74,239.07C319.32,235.45 317.98,231.27 321.92,228.7Z" style="fill:white;fill-rule:nonzero;"/>
            <path d="M302.42,230.53C306.19,233.17 307.93,238 309.11,242.26C310.35,246.81 311.34,252.27 310.17,256.89C307.25,262.63 299.67,265.66 296.4,271.18C296.56,273.74 297.52,276.43 297.46,279C297.32,281.56 296.63,284.12 296.11,286.63C290.67,282.84 285.17,279.61 279.24,276.66C279.31,274.09 280.68,270.47 278.49,268.53C276.44,266.02 273.53,264.15 271.71,261.49C271.24,257.76 271.56,253.89 271.6,250.13C276.51,251.45 280.97,253.24 286.11,253.53C282.85,250.42 278.89,248.4 275.96,244.91C284.09,244.55 291.88,243.63 299.26,239.94C296.74,237.85 294.08,235.93 291.52,233.89C294.6,232.1 298.76,229.82 302.42,230.53Z" style="fill:rgb(204,0,34);fill-rule:nonzero;"/>
            <path d="M310.05,275.92C313.08,282.33 315.06,289.29 317.02,296.09C319.05,303.46 318.71,311.18 315.19,318.05C313.43,314.78 311.6,311.62 308.98,308.95C308.28,314.23 308.04,319.58 307.55,324.89C307.21,328.77 305.38,332.1 303.4,335.37C299.28,341.84 294.62,347.63 287.77,351.36C287.56,347.53 287.61,343.7 287.43,339.86C283.56,343.55 280.47,347.9 276.64,351.63C272.93,355.36 268.81,358.48 264.62,361.64C262.15,363.43 259.39,365.34 256.45,366.21C255,366.66 253.29,365.71 252,365.11C244.5,361 237.72,355.34 231.9,349.1C229.08,346.16 226.83,342.77 223.91,339.92C223.33,343.75 223.33,347.59 223.31,351.46C219.06,349.42 215.89,346.68 213.02,342.98C209.89,338.87 206.32,334.39 204.59,329.49C203.23,325.77 203.53,321.97 203.2,318C202.9,314.37 202.57,310.71 201.87,307.13C200.02,310.42 198.24,313.73 196.16,316.88C192.92,309.24 192.45,301.64 194.78,293.65C196.5,287.69 198.14,281.92 201.14,276.44C202.47,277.99 203.7,279.56 204.45,281.48C207.65,289.16 208.94,298.19 211.55,305.92C214.01,301.78 215.24,296.92 218,293C221.85,288.48 228.11,285.66 233.48,283.34C235.83,282.49 239.05,280.86 241.56,281.6C245.75,283.21 249.91,286.44 254.34,287.55C258.4,288.28 263.02,285.25 266.46,283.36C268.33,282.43 270.37,280.77 272.57,281.46C277.83,282.9 282.88,285.57 287.55,288.37C290.46,290.13 292.99,292.35 294.67,295.36C296.51,298.73 297.84,302.38 299.48,305.85C303.06,295.83 303.89,284.82 310.05,275.92Z" style="fill:white;fill-rule:nonzero;"/>
            <path d="M259.68,291.95C265.46,293.36 271.3,294.58 277.03,296.16C280.43,297.27 284.27,298.54 285.53,302.27C287.61,308.18 288.4,314.98 289.43,321.11C283.85,324.58 277.86,327.42 272.09,330.54C265.83,325.79 261.5,319.52 255.97,314.06C249.85,319.11 245.27,325.57 239.09,330.53C233.66,327.07 227.91,324.26 222.25,321.21C222.85,315.29 224.03,309.41 225.41,303.63C226.05,301.64 226.56,298.7 228.84,298.01C233.95,295.96 239.6,295.12 244.91,293.66C249.74,292.55 254.72,290.64 259.68,291.95Z" style="fill-rule:nonzero;"/>
            <path d="M275.2,302.03C276.97,302.52 278.54,302.75 279.49,304.53C281.29,307.6 282.38,312.38 282.21,315.9C281.73,318.04 279.27,318.59 277.49,319.28C273.86,320.06 270.16,320.76 267.95,317.04C265.83,313.91 268.92,311.4 270.55,308.94C261.41,305.65 251.2,305.88 242.02,308.89C242.81,310.96 243.66,313.01 244.51,315.06C243.51,316.49 242.55,318.1 241.27,319.3C238.09,320.37 233.86,319.68 231.02,317.94C228.32,316.53 229.32,312.78 229.51,310.33C230.14,307.51 230.53,303.84 233.83,302.96C247.49,298.01 261.25,298.99 275.2,302.03Z" style="fill:rgb(204,0,34);fill-rule:nonzero;"/>
            <path d="M157.59,311.37C161,315.94 164.78,320.19 168.43,324.56C171.42,328.11 173.02,332.19 174.69,336.44C177.5,343.62 180.52,350.91 184.31,357.63C189.89,367.48 194.8,377.26 201.7,386.32C205.5,391.19 209,396.3 212.94,401.05C216.69,405.64 221.23,409.43 225.18,413.8C227.28,415.86 226.61,418.35 226.86,421.03C224.61,420.75 222.53,420.73 220.61,419.35C210.5,412.57 201.59,403.7 192.02,396.27C195.4,406.14 202.42,412.45 208.12,420.74C188.1,413.16 168.84,401.71 150.98,389.98C146.34,387.04 142.39,383.68 137.11,381.86C139.89,386.45 143.73,389.77 147.5,393.5C151.34,397.32 155.61,400.74 159.71,404.29C166.07,409.76 173.33,413.97 179.89,419.09C181.72,420.45 182.14,421.79 182.49,423.98C176.41,423.78 171.77,421.02 166.27,418.87C156.37,414.88 146.69,409.63 137.05,404.94C123.47,397.87 110.74,389.6 98.26,380.74C93.26,377.16 88.72,372.94 83.94,369.06C78.39,364.47 73.53,359.52 69.19,353.77C72.48,345.33 81.46,342.86 88.56,338.48C98.46,332.63 107.54,326.59 119.48,325.76C123.19,327.83 125.11,333.27 127.21,336.8C133.31,348.61 142.22,357.27 151.18,366.81C157.6,372.63 164.69,378.17 172.05,382.73C160.13,368.04 147.87,351.77 140.99,334.06C139.5,330.08 137.16,325.35 137.49,321.06C138.75,317.84 141.4,315.1 144.16,313.08C147.67,310.45 153.43,311.37 157.59,311.37Z" style="fill:rgb(204,0,34);fill-rule:nonzero;"/>
            <path d="M356.06,310.93C363.79,309.83 372.09,314.33 374.25,322.03C372.15,331.58 367.01,340.85 362.61,349.53C359.35,356.2 354.84,361.53 350.68,367.64C349.01,369.91 347.48,372.49 345.39,374.4C342.64,376.03 338.64,375.77 335.73,376.84C333.81,377.8 332.02,379.04 330.27,380.27C327,382.56 325.01,386.17 322.03,389.04C317.66,393.36 312.97,397.24 309.16,402.12C302.8,410.15 294.11,416.59 285.34,421.77C285.11,419.77 283.92,417.09 285.25,415.36C287.98,411.26 292.17,408.18 295.29,404.35C302.81,395.44 310.15,386.17 316.15,376.15C320.26,368.86 324.91,362 328.35,354.44C331.02,348.66 333.98,343.2 336.24,337.32C338.12,332.62 339.75,327.95 342.98,323.98C345.51,320.87 348.23,317.9 350.86,314.88C352.4,313.25 353.74,311.39 356.06,310.93Z" style="fill:rgb(204,0,34);fill-rule:nonzero;"/>
            <path d="M392.97,325.69C399.21,326.2 405.43,329.12 410.81,332.2C412.54,333.4 414.96,334.66 414.8,337.1C414.87,344.1 409.99,350.62 408.8,357.67C413.75,354.79 417.7,350.5 422.63,347.69C426.67,346 429.28,349.67 432.3,351.7C433.87,353.17 436.79,354.58 436.52,357.02C436.88,360.31 434.48,362.3 432.41,364.42C425.81,370.54 418.74,376.16 411.59,381.61C400.06,389.68 388.59,397.61 375.99,403.97C360.86,411.59 344.65,420.02 328.02,423.68C333.06,417.44 340.62,413.15 346.87,407.87C357.56,398.82 369.7,389.55 377.78,377.97C371.26,382.02 365.44,386.95 358.86,390.89C353.93,393.82 349.08,396.87 344.1,399.71C342.93,398.4 341.74,397.1 340.52,395.83C341.75,392.48 341.91,390.02 341.46,386.49C342.56,386.85 343.66,387.21 344.77,387.57C345.4,386.72 346.02,385.87 346.65,385.02C346.32,383.04 345.93,381.08 345.52,379.12C350.4,374.95 355.58,371.63 360.05,367.05C365.5,361.55 370.78,355.64 375.69,349.66C380.86,343.32 383.9,336.03 388.25,329.22C389.28,327.69 390.89,325.48 392.97,325.69Z" style="fill:rgb(204,0,34);fill-rule:nonzero;"/>
            <path d="M313.78,350.85C311.4,358.94 306.14,366.48 301.81,373.68C295.76,383.72 288.07,391.5 280.32,400.32C277.89,402.75 274.58,406.26 271.02,406.63C267.98,406.03 265.16,403.65 262.05,403.7C255.9,403.67 249.55,405 243.71,406.84C241.52,407.36 239.18,408.37 237.16,406.85C231.92,403.04 227.91,397.22 223.53,392.47C218.5,386.99 214.21,381.07 210.29,374.76C205.83,367.64 200.48,360.13 198.02,352.04C204.17,355.51 208.26,360.99 214.04,364.91C220.88,369.57 228.38,373.11 235.25,377.75C241.9,382.2 248.74,386.3 256.14,389.37C264.49,385.4 272.24,379.99 280.15,375.19C287.4,370.55 294.53,367.59 301.1,362.11C305.6,358.6 309.17,354.21 313.78,350.85Z" style="fill:rgb(204,0,34);fill-rule:nonzero;"/>
            <path d="M67.02,374.79C70.72,376.73 73.69,379.52 76.23,382.82C81.18,389.21 85.8,395.86 90.76,402.25C94.91,407.48 99.73,412.35 102.37,418.58C104.05,422.3 104.96,426.48 106.98,430.02C107.73,431.59 109.88,431.38 111.37,431.83C112.12,428.27 112.82,424.7 113.55,421.13C118.56,436.3 117.27,450.69 116.76,466.34C110.17,466.36 103.58,466.29 97,466.17C84.32,465.66 71.64,465.88 58.96,465.56C49.96,465.57 40.94,465.14 31.95,465.38C32.81,459.4 35.21,453.57 36.83,447.68C40.35,435.32 44.53,423.19 49.16,411.21C52.25,402.59 56.47,394.77 60.62,386.65C62.66,382.68 64.58,378.53 67.02,374.79Z" style="fill:rgb(204,0,34);fill-rule:nonzero;"/>
            <path d="M444.77,374.77C456.35,394.32 464.53,415.08 471.19,436.74C474.11,446.39 477.56,455.64 479.68,465.54C475.52,465 471.2,465.26 467,465.22C444.99,465.22 422.97,465.26 400.96,465.19C398.71,465.22 396.5,465.28 394.3,465.79C394.86,456.23 394.29,446.61 394.57,437.03C394.68,432.11 396.16,427.66 397.76,423.06C399.14,428.51 400.22,433.97 402.38,439.19C405.85,435.34 406.75,430.75 407.63,425.82C408.79,418.69 411.82,411.95 416.29,406.3C418.67,403.33 421.29,400.62 423.49,397.5C426.73,393.02 428.73,388.32 432.47,384.46C436.07,380.7 440.35,377.5 444.77,374.77Z" style="fill:rgb(204,0,34);fill-rule:nonzero;"/>
            <path d="M248.44,416.68C258.38,413.11 269.84,418.06 274.17,427.6C275,431.61 274.62,435.97 274.64,440.06C274.98,447.91 268.45,455.41 260.86,456.87C255.16,458.07 248.77,457.57 243.9,454.12C236.87,449.1 231.98,438.84 235.54,430.43C237.76,424.69 242.46,418.73 248.44,416.68Z" style="fill:white;fill-rule:nonzero;"/>
            <path d="M133.04,421.02C139.96,421.47 144.9,425.24 151.04,428.06C158.69,431.63 166.64,434.57 174.41,437.86C186.38,442.99 198.82,447.14 211.31,450.83C215.78,452.2 220.82,452.92 224.97,455.11C228.77,457.88 231.72,461.89 235.17,465.11C206.11,465.39 177.05,465.14 147.99,465.24C146.62,465.27 145.26,465.36 143.92,465.52C142.52,456.97 139.63,448.9 137.52,440.52C135.8,433.67 133.3,427.8 133.04,421.02Z" style="fill:rgb(204,0,34);fill-rule:nonzero;"/>
            <path d="M263.61,428.48C264.59,428.36 265.58,428.3 266.57,428.3C269.53,432.62 270.19,438.28 267.98,443.06C265.54,447.15 260.75,449.96 256,450.16C253.06,450.14 250.12,448.64 247.47,447.47C247.23,446.06 246.97,444.65 246.69,443.24C250.51,442.59 254.42,443.18 257.38,440.38C260.93,437.33 261.48,432.41 263.61,428.48Z" style="fill-rule:nonzero;"/>
            <path d="M371.07,439.01C373.64,440.63 372.62,443.9 372.21,446.35C370.57,452.77 368.38,459.04 366.7,465.45C361.83,465.01 356.89,465.29 352,465.23C326.62,465.17 301.24,465.34 275.87,465.13C278.4,462.95 281.04,460.21 284.13,458.85C286.76,458.41 289.7,459.28 292.35,459.56C298.1,460.56 303.05,457.06 308.98,457.3C310.2,455.24 310.85,453.22 313.21,452.2C316.75,450.02 320.42,450.4 324.27,449.26C330.25,447.48 336.46,447.22 342.42,445.38C348.27,443.58 354.19,442.07 359.9,439.83C363.16,438.61 367.79,437.54 371.07,439.01Z" style="fill:rgb(204,0,34);fill-rule:nonzero;"/>
        </g>
    </g>
</svg>
