<?xml version="1.0" encoding="UTF-8" standalone="no"?>
<!DOCTYPE svg PUBLIC "-//W3C//DTD SVG 1.1//EN" "http://www.w3.org/Graphics/SVG/1.1/DTD/svg11.dtd">
<svg width="100%" height="100%" viewBox="0 0 367 497" version="1.1" xmlns="http://www.w3.org/2000/svg" xmlns:xlink="http://www.w3.org/1999/xlink" xml:space="preserve" xmlns:serif="http://www.serif.com/" style="fill-rule:evenodd;clip-rule:evenodd;stroke-linejoin:round;stroke-miterlimit:2;">
    <g transform="matrix(1,0,0,1,-73.18357,-8.159892)">
        <g transform="matrix(1,0,0,1,-4370,-8715)">
            <g id="Devil-4" serif:id="Devil 4" transform="matrix(1,0,0,1,2083.157984,8715.647578)">
                <g transform="matrix(1,0,0,1,2286.842016,-0.647578)">
                    <path d="M158.795,272L372,284L318.247,437.617L256.5,479L219,470L158.795,361L158.795,272Z" style="fill:white;"/>
                </g>
                <g transform="matrix(0.278894,0,0,0.278894,2254.310536,-21.275961)">
                    <path d="M1245.5,103.223C1338.32,154.946 1434.94,202.072 1527.59,253.742C1505.12,252.811 1481.96,249.713 1460,249.206C1532.67,322.864 1598.49,418.116 1606.27,524.159C1615.95,503.453 1620.44,473.037 1628.58,450.34C1630.03,441.987 1632.12,436.199 1634.7,428.3C1635.23,437.8 1635.91,445.576 1635.9,455.223C1642.02,591.047 1618.26,693.971 1547.69,812.061C1539.3,826.101 1518.59,860.089 1508.18,871.626C1513.38,911.522 1524.09,969.006 1525.36,1006.81C1580.38,976.795 1642.99,931.474 1684.45,884.535C1686.49,881.682 1690.37,878.127 1692.96,875.538C1691.35,881.289 1689.37,889.282 1688.36,895.036C1680.35,924.042 1672.14,952.995 1663.75,981.891C1659.49,996.672 1650.29,1027.5 1648.32,1041.56C1658.04,1034.61 1682.4,1014.18 1691.18,1005.77C1681.5,1025.89 1670.4,1045.86 1660.32,1065.89L1577.98,1230.61C1569.27,1248.26 1548.77,1284.11 1542.69,1300.28C1566.93,1289.68 1593.06,1271.71 1617.72,1259.81L1616.74,1260.97C1606.15,1273.45 1591.04,1286.19 1579.67,1299.26C1554.53,1328.14 1499.29,1381.53 1477.87,1408.41C1473.78,1413.54 1455.97,1491.24 1454.37,1500.32C1467.22,1491.95 1482.4,1475.14 1493.85,1463.9L1498.32,1464.63C1485.67,1486.08 1472.84,1507.42 1459.82,1528.65C1455.05,1536.54 1440.33,1561.89 1434.86,1568.02C1418.52,1586.36 1398.47,1606.77 1381.12,1624.39L1310.75,1697.09C1297.36,1710.92 1285.13,1722.5 1272.04,1736.87C1281.55,1734.31 1311.69,1725.27 1319.68,1724.09C1324.9,1725.25 1324.99,1723.06 1328.98,1726.52C1275.12,1761.48 1219.18,1794.88 1169.83,1836.04C1151.44,1851.38 1135.71,1869.25 1118.18,1884.92L1024.99,1885.04C1000.9,1885.06 976.692,1885.99 952.835,1882.65C944.01,1881.42 935.101,1880.4 926.254,1879.28C893.387,1874.92 860.485,1870.82 827.552,1866.99C820.466,1861.14 822.518,1865.23 817.649,1863.1C817.62,1863 817.591,1862.9 817.562,1862.79C822.289,1861.11 821.093,1864.69 826.544,1859.87C837.836,1857.54 855.975,1855.9 867.997,1854.24C884.777,1851.93 904.016,1848.5 920.635,1846.97C868.603,1797.32 813.432,1748.1 759.473,1700.52C732.576,1676.8 696.739,1656.32 668.174,1634.16C665.805,1632.81 652.935,1623.48 652.728,1621.57C653.999,1620.55 656.994,1623.97 660.413,1622.73C667.57,1620.13 675.578,1625.17 679.412,1631.05C682.049,1632.31 683.062,1633.01 686.02,1633.29C688.787,1632.44 690.471,1632.07 693.338,1631.49C677.833,1614.44 659.541,1598.41 644.435,1581.36C639.178,1575.42 628.227,1557.87 623.109,1550.52L579.929,1489.05L581.368,1485.08C591.023,1491.37 621.553,1519.62 633.032,1529.14C622.577,1492.25 611.171,1443.17 600.232,1407.7C597.682,1399.43 513.493,1340.21 501.01,1330.7C496.339,1327.39 492.601,1324.62 487.742,1321.49C494.803,1322.28 502.638,1322.79 509.427,1323.72C521.259,1324.43 536.829,1324.44 548.014,1325.64C535.321,1301.2 520.675,1277.31 508.353,1252.45C462.043,1159.01 427.119,1062.12 401.973,960.924C396.862,940.359 388.213,914.416 384.151,894.453C384.617,893.109 385.1,891.789 385.641,890.473L385.664,890.464L385.797,889.839C384.985,889.025 384.218,888.551 384.569,887.117C386.235,886.138 385.226,888.832 389.306,888.152C413.811,916.033 459.976,965.834 495.783,977.004C491.095,967.213 483.155,953.295 479.313,944.154C478.879,943.775 478.573,943.551 478.299,943.024C474.235,935.088 469.981,927.251 465.54,919.519C474.019,924.952 479.649,930.486 486.7,937.69C490.683,940.678 500.417,950.375 504.53,954.198C519.539,968.15 533.855,982.305 549.507,995.616C550.004,974.959 552.58,951.732 554.833,931.032C556.775,913.184 558.59,892.753 561.339,875.133C522.226,843.834 487.357,812.758 454.922,774.251C456.649,766.474 459.794,770.084 465.103,771.404C473.822,778.474 501.067,788.853 512.13,791.872C508.614,787.015 503.771,781.529 499.72,776.942C452.396,723.353 424.31,656.17 399.837,589.581C421.644,617.827 436.214,644.197 461.262,671.753C430.259,568.322 465.537,438.915 502.268,342.005C512.551,314.873 521.92,284.74 533.315,258.205C535.012,261.406 534.149,262.425 535.232,265.76C535.009,290.185 530.082,319.552 529.731,346.637C541.995,330.09 550.951,311.997 565.183,294.162C620.496,224.846 693.295,164.891 769.032,119.244C772.553,122.152 770.582,121.194 770.235,125.756C748.393,155.224 722.852,191.29 706.319,223.984C704.826,226.025 703.319,228.851 702.36,231.193C698.842,238.615 696.262,243.096 693.43,251.122C699.668,245.942 703.002,242.489 708.741,237.051C710.249,236.19 722.734,223.722 724.388,221.957C729.236,216.608 739.651,206.988 745.113,201.642L748.116,203.96C713.112,258.878 684.973,311.78 663.051,373.51C660.085,381.862 651.526,406.513 651.33,413.987C650.658,439.717 656.711,484.231 661.282,508.817C666.404,536.36 694.622,586.076 712.153,608.006C772.284,557.818 840.323,517.951 913.5,490.028C892.079,506.392 867.216,526.566 849.857,547.117C878.145,541.888 906.286,532.834 934.673,528.405C982.695,520.912 1036.87,513.608 1085.49,514.143C1122.99,514.555 1170.57,524.007 1207.2,531.489C1224.87,535.154 1242.49,539.134 1260.02,543.426C1270.97,546.015 1287.92,549.674 1298.02,553.84C1276.54,556.341 1258.59,558.447 1237.54,563.949L1236.96,566.996C1246.17,568.692 1257.87,573.282 1267.04,575.839C1297.16,584.233 1324.64,596.783 1353.73,607.231C1375.14,574.385 1397.56,523.666 1399.33,484.912C1400.39,461.591 1394.38,417.888 1389.88,394.561C1400.74,411.258 1407.28,431.027 1417.3,448.344C1417.31,447.047 1417.3,445.75 1417.29,444.454C1417.05,422.908 1412.21,395.679 1407.58,374.441C1382.96,261.635 1326.13,182.113 1245.5,103.223ZM848.47,682.186C844.065,707.589 839.41,732.948 834.505,758.26C832.859,766.98 826.71,801.926 823.445,807.662C803.568,842.574 749.529,899.241 718.344,921.876C705.766,930.82 692.351,938.525 678.288,944.882C644.441,931.655 614.615,909.856 591.735,881.624C588.404,906.246 585.611,930.937 583.357,955.681C580.677,987.672 579.194,1020.11 575.771,1051.96C523.929,1042.45 477.983,1016.53 439.143,981.44C440.715,986.786 442.51,991.99 443.103,997.505L444.625,1000.74C447.299,1013.25 454.673,1035.07 458.679,1048.4C485.561,1137.82 526.783,1232.48 579.145,1310.25C578.878,1318.11 578.548,1324.26 579.128,1332.03C581.2,1359.77 617.518,1375.77 626.417,1396.01C630.062,1404.3 637.208,1434.54 640.029,1445.49L661.165,1525.51C664.979,1540.12 666.408,1556.9 677.144,1567.35C702.486,1592.03 728.6,1616.22 753.913,1640.89C807.808,1693.87 862.081,1746.46 916.729,1798.66C934.652,1815.53 957.911,1840.15 976.349,1854.6C991.186,1855.31 1009.52,1854.81 1024.56,1854.79L1105.22,1854.57C1151.4,1807.85 1196.59,1758.72 1243.69,1712.61L1357.11,1603.1C1370.84,1589.7 1388.82,1573.27 1400.64,1558.49C1406.14,1547.64 1409.22,1529.8 1411.97,1518.45C1420.42,1483.5 1430.28,1449.54 1439.22,1414.79C1440.67,1409.13 1442.66,1402.42 1445.84,1397.56C1455.57,1382.74 1470.77,1372.07 1482.3,1358.68C1495.97,1343.19 1496.26,1330.52 1495.11,1311.07C1503.95,1295 1516.06,1279.57 1524.89,1263.35C1568.56,1183.11 1616.51,1075.3 1627.28,984.042L1626.21,983.128L1623.68,985.084L1618.98,989.586C1580.81,1020.83 1537.23,1044.81 1490.4,1060.33C1488.64,1041.35 1486.59,1026.85 1483.17,1008.09C1484.26,1005.86 1484.73,1004.06 1485.97,1001.9L1491.27,1016.84L1493.17,1015.07C1490.07,973.259 1484.04,936.633 1479.31,895.551C1444.53,917.813 1429.63,927.937 1390.36,942.969C1355.37,925.2 1309.43,894.969 1284.45,865.268C1291.91,868.256 1299.43,871.09 1307.01,873.767C1295.9,865.53 1250.88,825.418 1242.29,814.568C1234.46,770.07 1230.31,724.113 1222.72,680.378C1272.19,669.827 1294.68,665.016 1335.04,633.433C1338.79,628.886 1332.79,628.767 1328.05,626.969C1295.64,613.66 1265.03,601.352 1230.77,593.078C1199.86,585.616 1167.94,579.737 1136.8,572.936C1153.25,571.086 1180.42,571.869 1197.77,571.968C1198.93,572.008 1208.46,572.711 1208.47,571.052C1207.83,570.307 1207.32,570.386 1206.31,570.248C1156.48,554.822 1104.59,547.072 1052.43,547.266C957.248,547.666 836.947,580.951 753.437,625.875C746.592,629.618 739.797,633.45 733.053,637.37C768.194,661.965 805.678,677.785 848.47,682.186ZM660.505,263.646C660.92,262.811 661.324,261.971 661.717,261.126C662.251,256.652 664.234,252.072 660.826,249.119C657.767,251.209 656.712,252.013 653.965,254.512C654.953,257.961 658.25,260.939 660.505,263.646Z" style="fill:rgb(204,0,34);fill-rule:nonzero;"/>
                </g>
                <g transform="matrix(0.278894,0,0,0.278894,2254.310536,-21.275961)">
                    <path d="M668.174,1634.16C665.805,1632.81 652.935,1623.48 652.728,1621.57C653.999,1620.55 656.994,1623.97 660.413,1622.73C667.57,1620.13 675.578,1625.17 679.412,1631.05C678.312,1630.88 668.008,1629.46 667.142,1629.58C665.758,1631.16 668.697,1630.85 668.174,1634.16Z" style="fill:rgb(204,0,34);fill-rule:nonzero;"/>
                </g>
                <g transform="matrix(0.278894,0,0,0.278894,2254.310536,-21.275961)">
                    <path d="M465.54,919.519C474.019,924.952 479.649,930.486 486.7,937.69C484.467,936.85 481.944,935.041 479.669,935.694L479.613,935.81C479.408,936.425 479.203,937.04 478.998,937.656L478.749,937.482C478.734,941.911 481.441,941.273 479.313,944.154C478.879,943.775 478.573,943.551 478.299,943.024C474.235,935.088 469.981,927.251 465.54,919.519Z" style="fill:rgb(204,0,34);fill-rule:nonzero;"/>
                </g>
                <g transform="matrix(0.278894,0,0,0.278894,2254.310536,-21.275961)">
                    <path d="M1634.7,428.3C1635.23,437.8 1635.91,445.576 1635.9,455.223C1634.06,451.722 1633.4,447.408 1632.51,445.99C1632.27,445.964 1632.03,445.938 1631.79,445.911C1631.26,446.363 1629.5,449.263 1628.58,450.34C1630.03,441.987 1632.12,436.199 1634.7,428.3Z" style="fill:rgb(204,0,34);fill-rule:nonzero;"/>
                </g>
                <g transform="matrix(0.278894,0,0,0.278894,2254.310536,-21.275961)">
                    <path d="M693.338,1631.49C697.067,1634.09 702.283,1639.74 705.396,1643.08C700.541,1640.7 689.846,1636.35 686.374,1633.57L686.02,1633.29C688.787,1632.44 690.471,1632.07 693.338,1631.49Z" style="fill:rgb(204,0,34);fill-rule:nonzero;"/>
                </g>
                <g transform="matrix(0.278894,0,0,0.278894,2254.310536,-21.275961)">
                    <path d="M487.742,1321.49C494.803,1322.28 502.638,1322.79 509.427,1323.72C498.308,1325.18 497.827,1323.08 501.01,1330.7C496.339,1327.39 492.601,1324.62 487.742,1321.49Z" style="fill:rgb(204,0,34);fill-rule:nonzero;"/>
                </g>
                <g transform="matrix(0.278894,0,0,0.278894,2254.310536,-21.275961)">
                    <path d="M1684.45,884.535C1686.49,881.682 1690.37,878.127 1692.96,875.538C1691.35,881.289 1689.37,889.282 1688.36,895.036C1687.76,889.969 1689.05,886.531 1684.45,884.535Z" style="fill:rgb(204,0,34);fill-rule:nonzero;"/>
                </g>
                <g transform="matrix(0.278894,0,0,0.278894,2254.310536,-21.275961)">
                    <path d="M1236.96,566.996C1225.42,566.324 1224.79,563.473 1237.54,563.949L1236.96,566.996Z" style="fill:rgb(204,0,34);fill-rule:nonzero;"/>
                </g>
                <g transform="matrix(0.278894,0,0,0.278894,2254.310536,-21.275961)">
                    <path d="M733.053,637.37C739.797,633.45 746.592,629.618 753.437,625.875C836.947,580.951 957.248,547.666 1052.43,547.266C1104.59,547.072 1156.48,554.822 1206.31,570.248C1207.32,570.386 1207.83,570.307 1208.47,571.052C1208.46,572.711 1198.93,572.008 1197.77,571.968C1180.42,571.869 1153.25,571.086 1136.8,572.936C1167.94,579.737 1199.86,585.616 1230.77,593.078C1265.03,601.352 1295.64,613.66 1328.05,626.969C1319.18,629.381 1328.29,634.43 1333.52,633.648L1335.04,633.433C1294.68,665.016 1272.19,669.827 1222.72,680.378C1230.31,724.113 1234.46,770.07 1242.29,814.568C1250.88,825.418 1295.9,865.53 1307.01,873.767C1299.43,871.09 1291.91,868.256 1284.45,865.268C1309.43,894.969 1355.37,925.2 1390.36,942.969C1429.63,927.937 1444.53,917.813 1479.31,895.551C1484.04,936.633 1490.07,973.259 1493.17,1015.07L1491.27,1016.84L1485.97,1001.9C1484.73,1004.06 1484.26,1005.86 1483.17,1008.09C1486.59,1026.85 1488.64,1041.35 1490.4,1060.33C1537.23,1044.81 1580.81,1020.83 1618.98,989.586L1623.68,985.084L1626.21,983.128L1627.28,984.042C1616.51,1075.3 1568.56,1183.11 1524.89,1263.35C1516.06,1279.57 1503.95,1295 1495.11,1311.07C1496.26,1330.52 1495.97,1343.19 1482.3,1358.68C1470.77,1372.07 1455.57,1382.74 1445.84,1397.56C1442.66,1402.42 1440.67,1409.13 1439.22,1414.79C1430.28,1449.54 1420.42,1483.5 1411.97,1518.45C1409.22,1529.8 1406.14,1547.64 1400.64,1558.49C1388.82,1573.27 1370.84,1589.7 1357.11,1603.1L1243.69,1712.61C1196.59,1758.72 1151.4,1807.85 1105.22,1854.57L1024.56,1854.79C1009.52,1854.81 991.186,1855.31 976.349,1854.6C957.911,1840.15 934.652,1815.53 916.729,1798.66C862.081,1746.46 807.808,1693.87 753.913,1640.89C728.6,1616.22 702.486,1592.03 677.144,1567.35C666.408,1556.9 664.979,1540.12 661.165,1525.51L640.029,1445.49C637.208,1434.54 630.062,1404.3 626.417,1396.01C617.518,1375.77 581.2,1359.77 579.128,1332.03C578.548,1324.26 578.878,1318.11 579.145,1310.25C526.783,1232.48 485.561,1137.82 458.679,1048.4C454.673,1035.07 447.299,1013.25 444.625,1000.74C445.761,998.99 447.423,994.479 444.659,993.554C443.759,994.024 443.305,996.738 443.103,997.505C442.51,991.99 440.715,986.786 439.143,981.44C477.983,1016.53 523.929,1042.45 575.771,1051.96C579.194,1020.11 580.677,987.672 583.357,955.681C585.611,930.937 588.404,906.246 591.735,881.624C614.615,909.856 644.441,931.655 678.288,944.882C692.351,938.525 705.766,930.82 718.344,921.876C749.529,899.241 803.568,842.574 823.445,807.662C826.71,801.926 832.859,766.98 834.505,758.26C839.41,732.948 844.065,707.589 848.47,682.186C805.678,677.785 768.194,661.965 733.053,637.37ZM814.579,1495.54C822.53,1503.14 832.017,1518.1 838.879,1527.36L851.173,1513.72C869.649,1544.17 885.802,1559.56 916.664,1577.05C920.384,1565.45 923.251,1552.55 925.539,1540.57C926.071,1539.96 925.972,1539.96 926.168,1539.03C927.082,1541.84 927.985,1555.77 928.479,1560.08C929.443,1568.48 935.03,1587.56 935.075,1594.18C935.213,1614.94 931.088,1635.98 931.066,1657.4C924.867,1638.34 920.261,1618.04 913.177,1599.5C897.388,1587.32 877.57,1572.95 863.401,1559.37C870.911,1594.9 876.416,1606.65 891.932,1638.56C892.537,1639.88 893.31,1642.37 894.412,1643.21L894.528,1643.17C895.026,1642.04 893.449,1635.2 893.145,1633.78L891.478,1623.42L893.742,1620.49C897.839,1640.19 926.273,1679.34 943.479,1692.71C956.011,1689.34 972.374,1685.19 984.46,1680.63C1035.01,1661.55 1073.63,1678.01 1123.28,1691.39C1127.75,1685.78 1142.82,1667.65 1147.64,1664.17C1151.21,1665.48 1148.22,1667.45 1151.33,1669.53C1168,1657.46 1183.57,1634.5 1190.75,1615.07C1190.66,1618.94 1190.59,1620.47 1191.14,1624.26L1192.01,1624.75C1197.53,1618.09 1206.74,1573.12 1208.06,1562.83C1198.86,1573.48 1170.36,1594.12 1158.01,1602.36C1152.18,1615.67 1146.08,1628.87 1139.72,1641.94C1136.09,1628.66 1132.78,1614.66 1129.41,1601.27C1112.24,1605.88 1092.81,1610.66 1076.09,1616.16L1088.43,1617.04C1090.8,1617.77 1093.18,1618.46 1095.57,1619.12C1043.62,1629.5 1031.3,1626.54 979.342,1616.61L987.84,1614.82L991.597,1612.69C977.24,1607.61 962.727,1604.44 948.247,1599.39C951.467,1597.81 953.617,1598.26 957.277,1597.89C983.437,1597.84 1018.47,1605.13 1044.04,1604.09C1069.85,1603.04 1102.34,1595.71 1128.93,1594.9L1130.22,1594.87C1137.25,1579.03 1143.27,1561.56 1146.54,1544.54C1149.9,1556.25 1152.39,1567.47 1155.98,1579.32C1159.34,1575.98 1176.16,1563.38 1180.6,1560.18C1202.35,1544.5 1211.17,1531.37 1225.46,1509.42C1227.97,1520.43 1229.8,1531.29 1232.5,1542.71C1243.45,1530.89 1253.87,1514.42 1260.5,1499.84L1261.22,1500.61C1261.46,1504.7 1260.44,1508.07 1259.56,1512.08C1269.86,1495.25 1277.86,1472.45 1283.75,1453.52C1273.78,1457.23 1260.53,1463.26 1251.57,1469.13C1244.79,1473.59 1228.79,1494.27 1221.5,1495.1C1219.41,1493.07 1219.02,1492.5 1216.45,1491.04C1211.42,1492.16 1200.79,1499.47 1196.15,1502.5L1194.29,1500.77C1199.87,1495.69 1202.2,1491.42 1206.95,1486.23C1189.88,1492.62 1174.52,1497.17 1158.02,1505.48C1153.01,1512.47 1149.93,1520.69 1146.21,1528.54C1142.15,1523.87 1137.44,1518.7 1133.6,1513.94C1106.46,1522.05 1068.48,1538.6 1040.3,1548.82C1005.65,1538.54 975.523,1525.44 942.355,1513.83C935.929,1517.29 932.498,1519.96 927.944,1525.76C919.913,1517.45 915.163,1510.2 908.408,1500.93C894.403,1497.01 885.238,1493.09 871.931,1487.19C878.46,1494.27 885.77,1502.51 892.651,1509.09C875.956,1500.1 866.688,1490.86 852.287,1482.98C852.069,1489.65 852.08,1498.32 850.803,1504.68C824.634,1474.24 825.439,1470.49 788.974,1451.55C795.607,1478.53 803.306,1491.25 817.924,1513.71C816.872,1507.65 815.887,1501.55 814.579,1495.54ZM1325.83,1123.59C1320.18,1127.11 1305.69,1135.37 1302.49,1140.22L1302.95,1141.2L1308.9,1140.58L1309.65,1143.41C1250.76,1175.03 1202.64,1205.47 1155.84,1253.1C1151.53,1257.5 1134.84,1265.73 1129.03,1268.46C1141.78,1272.15 1156.14,1276.05 1168.19,1281.4C1176.3,1285 1186.35,1292.58 1194.94,1294.82C1208.93,1298.47 1228.34,1299.72 1242.95,1299.91C1248.14,1299.34 1253.32,1298.74 1258.49,1298.12L1259.55,1300.24L1260.46,1299.6C1258.64,1301.07 1256.81,1301.67 1255.35,1302.81C1263.05,1302.75 1285.86,1296.59 1293.2,1294.13C1328.47,1282.29 1339.19,1261.81 1354.49,1230.86C1351.21,1234.27 1347.04,1239.28 1343.75,1242.95C1349.32,1227.3 1351.66,1214.36 1354.66,1198.19C1356.03,1204.96 1356.64,1211.47 1357.4,1218.33C1381.95,1166.69 1360.51,1156.18 1325.83,1123.59ZM728.187,1227.8C730.136,1233.5 731.183,1236.95 732.849,1242.81C730.019,1239.94 728.453,1237.97 725.359,1235.19C727.143,1239.64 729.702,1247.15 731.967,1251.03C737.744,1266.88 758.293,1284.39 773.7,1290.59C782.264,1294.03 809.53,1304.07 817.879,1302.39C815.878,1300.49 815.937,1300.87 814.574,1298.6C846.411,1301.24 872.937,1301.15 900.725,1284.57C912.509,1277.55 932.228,1271.04 945.958,1269.7L947.234,1269.58C910.321,1252.34 887.835,1220.1 855.289,1197.7C825.829,1177.43 791.558,1158.73 760.518,1140.7C764.115,1139.95 765.544,1139.8 769.231,1139.53L771.011,1139.35C766.801,1135.66 757.907,1129.63 752.933,1127C708.933,1161.59 699.465,1157.32 718.055,1214.38C718.418,1215.34 718.53,1215.86 719.269,1216.53C720.602,1216.14 719.914,1208.16 719.886,1206.83C719.973,1204.01 720.448,1201.32 720.856,1198.52L721.684,1198.41L723.373,1203.78C724.653,1211.87 727.027,1219.86 728.187,1227.8ZM973.364,1406.23C974.85,1404.87 976.349,1403.52 977.861,1402.19L977.284,1401.14C974.368,1395.64 970.484,1398.97 973.364,1406.23ZM703.601,1008.48C716.335,1007.34 705.874,1005.05 701.108,1005.01C699.227,1005 701.702,1007.71 702.266,1008.59L703.601,1008.48ZM1108.19,1180.82C1110.07,1179.34 1111.58,1178.11 1113.36,1176.5C1108.19,1173.01 1108,1174.59 1108.19,1180.82ZM1288.42,1348.13C1277.44,1349.61 1266.03,1350.62 1255,1351.89C1250.72,1352.38 1243.7,1352.18 1239.54,1353.48C1239.72,1354.87 1244.62,1355.6 1245.76,1355.78C1252.41,1351.8 1278.23,1354.39 1288.42,1348.13Z" style="fill-rule:nonzero;"/>
                </g>
                <g transform="matrix(0.278894,0,0,0.278894,2254.310536,-21.275961)">
                    <path d="M1480.86,989.011C1482.51,993.093 1484.73,997.821 1485.97,1001.9C1484.73,1004.06 1484.26,1005.86 1483.17,1008.09C1481.85,1001.43 1481.36,995.73 1480.86,989.011Z" style="fill:rgb(204,0,34);fill-rule:nonzero;"/>
                </g>
                <g transform="matrix(0.278894,0,0,0.278894,2254.310536,-21.275961)">
                    <path d="M1206.31,570.248C1207.32,570.386 1207.83,570.307 1208.47,571.052C1208.46,572.711 1198.93,572.008 1197.77,571.968C1201.05,571.453 1203.09,571.068 1206.31,570.248Z" style="fill:rgb(204,0,34);fill-rule:nonzero;"/>
                </g>
                <g transform="matrix(0.278894,0,0,0.278894,2254.310536,-21.275961)">
                    <path d="M1228.88,1088.46C1238.38,1080.56 1257.06,1068.87 1267.58,1062.26C1300.2,1041.77 1349.65,1011.48 1387.37,1003.6C1407.8,1025.33 1435.15,1060.84 1446.67,1088.76C1437.64,1079.85 1428.44,1071.12 1419.08,1062.55C1425.21,1073 1456.42,1119.83 1454.46,1128.74C1452.97,1135.55 1442.1,1143.78 1437.03,1148.39C1437.36,1134.12 1438.07,1126.76 1426.74,1116.01C1409.67,1099.8 1390.82,1083.68 1373.08,1068.22C1351.13,1072.66 1321.86,1080.59 1302.77,1092.26C1260.22,1118.27 1221.06,1152.43 1182.5,1184.21C1157.57,1204.9 1134.11,1229.61 1105.35,1244.89C1096.92,1249.37 1083.97,1250 1075.84,1244.77C1061.27,1235.41 1061.5,1205.97 1060.95,1190.69C1063.2,1186.98 1065.36,1183.02 1068.18,1179.76C1078.19,1165.98 1091.09,1152.36 1101.81,1138.9C1113.31,1124.45 1124.18,1110 1135.16,1095.16L1137.23,1097.22C1126.06,1124.28 1110.25,1165.12 1097.51,1190.5C1098.94,1189.21 1107.46,1181.75 1108.19,1180.82C1110.07,1179.34 1111.58,1178.11 1113.36,1176.5C1116.12,1175.13 1138.93,1157.08 1142.16,1154.5C1160.83,1139.27 1179.75,1124.34 1198.92,1109.74C1207.01,1103.6 1220.19,1093.47 1228.88,1088.46Z" style="fill:rgb(204,0,34);fill-rule:nonzero;"/>
                </g>
                <g transform="matrix(0.278894,0,0,0.278894,2254.310536,-21.275961)">
                    <path d="M1228.88,1088.46L1234.94,1087.05C1234.48,1088.79 1233,1094.17 1231.95,1095.34C1200.34,1130.69 1165.94,1163.55 1127.89,1191.95C1113.66,1202.58 1105.18,1217.21 1083.91,1216.25C1077.86,1212.95 1074.71,1188.46 1068.18,1179.76C1078.19,1165.98 1091.09,1152.36 1101.81,1138.9C1113.31,1124.45 1124.18,1110 1135.16,1095.16L1137.23,1097.22C1126.06,1124.28 1110.25,1165.12 1097.51,1190.5C1098.94,1189.21 1107.46,1181.75 1108.19,1180.82C1110.07,1179.34 1111.58,1178.11 1113.36,1176.5C1116.12,1175.13 1138.93,1157.08 1142.16,1154.5C1160.83,1139.27 1179.75,1124.34 1198.92,1109.74C1207.01,1103.6 1220.19,1093.47 1228.88,1088.46Z" style="fill:rgb(204,0,34);fill-rule:nonzero;"/>
                </g>
                <g transform="matrix(0.278894,0,0,0.278894,2254.310536,-21.275961)">
                    <path d="M1345.94,1022.71C1368.42,1022.02 1376.99,1030.21 1393.95,1044.66C1397.34,1047.55 1400.88,1051.04 1401.01,1055.43C1395.42,1063.25 1381.26,1058.19 1371.84,1057.77C1348.64,1056.72 1327.95,1062.96 1306.76,1071.6C1299.45,1074.8 1268.7,1091.09 1263.17,1087.73C1264.73,1076.6 1324.63,1032.71 1336.9,1026.94L1345.94,1022.71Z" style="fill:rgb(204,0,34);fill-rule:nonzero;"/>
                </g>
                <g transform="matrix(0.278894,0,0,0.278894,2254.310536,-21.275961)">
                    <path d="M685.247,1003.09C691.155,1004.09 696.887,1005.94 702.266,1008.59L703.601,1008.48C717.37,1014.1 740.12,1022.67 752.615,1029.58C805.26,1058.71 854.975,1095.48 902.615,1132.06C926.359,1150.3 952.221,1173.21 976.156,1190.04C964.762,1165.15 953.761,1140.09 943.156,1114.86C938.984,1105.2 933.64,1094.73 929.913,1085.1C954.299,1116.28 977.606,1148.47 1003.56,1178.48C1007.26,1182.75 1011.43,1187.25 1014.81,1191.75C1012.92,1215.15 1013.53,1252.26 979.637,1247.41C959.416,1244.51 946.095,1226.34 929.917,1213.88C890.635,1183.62 852.978,1150.8 812.499,1122.12C800.009,1113.21 784.05,1101.08 770.915,1093.96C748.444,1081.86 724.045,1073.74 698.801,1069.98C681.643,1084.08 648.584,1110.27 637.071,1129.27L636.9,1148.07C629.661,1141.23 624.269,1136.55 618.768,1128.24C623.787,1111.04 645.412,1082.43 654.376,1065.85C647.32,1070.92 642.097,1075.12 635.994,1081.4L633.116,1077.64C650.702,1047.41 663.982,1030.61 685.247,1003.09Z" style="fill:rgb(204,0,34);fill-rule:nonzero;"/>
                </g>
                <g transform="matrix(0.278894,0,0,0.278894,2254.310536,-21.275961)">
                    <path d="M672.669,1362.01C657.026,1355.59 622.996,1338.81 616.804,1323.21C606.512,1297.27 630.292,1224.26 638.721,1198.67C645.149,1209.03 654.347,1229.47 660.167,1241.21C652.012,1252.81 648.003,1257.7 642.913,1271.02C667.832,1323.39 771.846,1350.23 826.36,1352.38C827.399,1352.48 832.622,1352.61 833.292,1353.62C832.961,1354.83 829.44,1355.99 828.335,1356.5C809.941,1362.65 796.501,1366.36 777.041,1369.44C781.315,1369.88 787.671,1370.74 791.8,1370.75C797.399,1369.36 801.152,1368.85 806.782,1368.1C801.515,1371.26 799.17,1372.55 793.497,1375.04C765.023,1384.17 746.706,1385.26 716.798,1384.89C714.465,1398.99 711.182,1418.87 710.544,1433.07C714.17,1422.65 715.976,1413.46 719.105,1404.13C721.941,1393.49 722.559,1409.31 722.65,1410.48C726.169,1457.3 739.673,1511.12 755.515,1555.38C759.954,1567.78 766.446,1581.61 771.548,1594.09C749.962,1570.98 732.98,1535.03 721.424,1505.76C716.88,1494.25 713.622,1481.86 708.398,1470.49L707.791,1469.19C711.827,1494.71 714.757,1505.29 722.62,1529.29C695.175,1493.37 676.676,1406.77 672.669,1362.01Z" style="fill:rgb(204,0,34);fill-rule:nonzero;"/>
                </g>
                <g transform="matrix(0.278894,0,0,0.278894,2254.310536,-21.275961)">
                    <path d="M719.105,1404.13C721.941,1393.49 722.559,1409.31 722.65,1410.48C720.865,1408.03 720.587,1406.63 719.105,1404.13Z" style="fill:rgb(204,0,34);fill-rule:nonzero;"/>
                </g>
                <g transform="matrix(0.278894,0,0,0.278894,2254.310536,-21.275961)">
                    <path d="M826.36,1352.38C827.399,1352.48 832.622,1352.61 833.292,1353.62C832.961,1354.83 829.44,1355.99 828.335,1356.5L826.36,1352.38Z" style="fill:rgb(204,0,34);fill-rule:nonzero;"/>
                </g>
                <g transform="matrix(0.278894,0,0,0.278894,2254.310536,-21.275961)">
                    <path d="M1434.42,1198.32C1445.64,1226.61 1466.2,1289.99 1454.81,1319.62C1447.07,1339.75 1418.57,1356.67 1398.03,1362.55C1395.84,1396.01 1392.44,1421.2 1384.56,1454.2C1383.31,1441.69 1384.25,1430.94 1383.42,1418.92C1380.23,1426.16 1378.67,1433.65 1376.69,1441.28C1364.19,1489.27 1343.91,1542 1311.99,1580.65L1309.67,1577.35C1333.05,1522.02 1343.41,1476.14 1341.78,1415.99L1345.75,1414.84L1346.84,1414.01C1347,1404.46 1345.73,1393.8 1344.84,1384.21C1330.54,1384.25 1316.27,1382.85 1302.25,1380.02C1296.94,1378.95 1292.38,1378.21 1287.07,1376.82C1282.17,1372.76 1287.25,1371.68 1291.15,1371.66L1291.39,1371.24C1294.49,1370.91 1294.3,1371.03 1296.9,1369.43C1280.31,1366.34 1261.41,1361.75 1245.76,1355.78C1252.41,1351.8 1278.23,1354.39 1288.42,1348.13C1313.19,1344.58 1337.35,1337.6 1360.19,1327.39C1379.94,1318.44 1420.7,1297.04 1429.1,1274.95C1431.7,1268.09 1427.78,1262.5 1424.64,1256.21C1421.3,1251.32 1417.43,1245.92 1414.52,1240.82L1413.51,1239.12C1416.4,1234.4 1418.41,1230.72 1421.02,1225.86C1425.37,1216.61 1429.63,1207.35 1434.42,1198.32Z" style="fill:rgb(204,0,34);fill-rule:nonzero;"/>
                </g>
                <g transform="matrix(0.278894,0,0,0.278894,2254.310536,-21.275961)">
                    <path d="M1421.02,1225.86C1430.04,1227.74 1427.35,1227.46 1427.53,1238.84C1427.6,1243.62 1428.36,1253.09 1424.64,1256.21C1421.3,1251.32 1417.43,1245.92 1414.52,1240.82L1413.51,1239.12C1416.4,1234.4 1418.41,1230.72 1421.02,1225.86Z" style="fill:rgb(204,0,34);fill-rule:nonzero;"/>
                </g>
                <g transform="matrix(0.278894,0,0,0.278894,2254.310536,-21.275961)">
                    <path d="M1296.9,1369.43C1299.82,1369.82 1300.35,1370.03 1303.16,1370.91C1300.66,1377.03 1297.05,1370.19 1302.25,1380.02C1296.94,1378.95 1292.38,1378.21 1287.07,1376.82C1282.17,1372.76 1287.25,1371.68 1291.15,1371.66L1291.39,1371.24C1294.49,1370.91 1294.3,1371.03 1296.9,1369.43Z" style="fill:rgb(204,0,34);fill-rule:nonzero;"/>
                </g>
                <g transform="matrix(0.278894,0,0,0.278894,2254.310536,-21.275961)">
                    <path d="M1296.9,1369.43C1299.82,1369.82 1300.35,1370.03 1303.16,1370.91C1298.05,1372.43 1296.73,1372.14 1291.15,1371.66L1291.39,1371.24C1294.49,1370.91 1294.3,1371.03 1296.9,1369.43Z" style="fill:rgb(204,0,34);fill-rule:nonzero;"/>
                </g>
                <g transform="matrix(0.278894,0,0,0.278894,2254.310536,-21.275961)">
                    <path d="M995.2,1285.53C1001.41,1281.52 1013.44,1276.67 1020.57,1273.55C1015.76,1282.39 1007.1,1294.99 1001.26,1303.01L1033.61,1282.71C1025.15,1295.28 1016.82,1307.95 1008.62,1320.7C1022.62,1308.33 1037.69,1299.04 1053.12,1285.26C1048.35,1292.63 1043.88,1300.17 1039.71,1307.89C1012.67,1358.5 1021.57,1419.62 1037.55,1472.24C1018.88,1487.53 1004,1479 994.512,1483.23C988.729,1477.13 978.825,1466.43 972.123,1461.99C955.536,1451 939.372,1442.93 923.029,1431.05C922.85,1419.26 922.144,1406.25 930.464,1396.88C944.155,1381.45 961.595,1376.96 980.75,1374.84C978.617,1348.62 982.523,1309 995.2,1285.53ZM977.861,1402.19L977.284,1401.14C974.368,1395.64 970.484,1398.97 973.364,1406.23C974.85,1404.87 976.349,1403.52 977.861,1402.19Z" style="fill:rgb(204,0,34);fill-rule:nonzero;"/>
                </g>
                <g transform="matrix(0.278894,0,0,0.278894,2254.310536,-21.275961)">
                    <path d="M979.819,1444.17C974.008,1438.47 970.011,1434.93 962.984,1430.83C955.694,1426.58 952.69,1422.36 953.479,1413.98C954.113,1402.33 963.841,1399.9 970.713,1394.43C982.484,1385.06 989.215,1394.14 977.861,1402.19L977.284,1401.14C974.368,1395.64 970.484,1398.97 973.364,1406.23C968.702,1420.01 973.83,1431.29 979.819,1444.17Z" style="fill-rule:nonzero;"/>
                </g>
                <g transform="matrix(0.278894,0,0,0.278894,2254.310536,-21.275961)">
                    <path d="M973.364,1406.23C970.484,1398.97 974.368,1395.64 977.284,1401.14L977.861,1402.19C976.349,1403.52 974.85,1404.87 973.364,1406.23Z" style="fill:rgb(204,0,34);fill-rule:nonzero;"/>
                </g>
                <g transform="matrix(0.278894,0,0,0.278894,2254.310536,-21.275961)">
                    <path d="M834.447,1630.88C852.561,1655.52 901.963,1723.81 932.021,1729.51C944.877,1731.95 971.167,1714.6 992.141,1712.47C993.154,1713.25 994.021,1714.05 994.977,1714.9C981.263,1718.62 969.636,1723.64 956.613,1729.13C969.971,1729.27 978.674,1728.03 991.85,1726C994.92,1725.25 995.587,1725.08 998.847,1724.81L1000.85,1724.95C1004.53,1725.12 1004.99,1724.83 1008.04,1726.66C1005.75,1727.18 1004.34,1727.5 1001.99,1727.77C973.832,1736.54 951.647,1742.94 947.658,1775.78C894.223,1738.47 861.828,1688.71 832.143,1631.81L834.447,1630.88Z" style="fill:rgb(204,0,34);fill-rule:nonzero;"/>
                </g>
                <g transform="matrix(0.278894,0,0,0.278894,2254.310536,-21.275961)">
                    <path d="M991.85,1726C994.92,1725.25 995.587,1725.08 998.847,1724.81L1000.85,1724.95C1004.53,1725.12 1004.99,1724.83 1008.04,1726.66C1005.75,1727.18 1004.34,1727.5 1001.99,1727.77C998.003,1724.95 996.992,1726.23 991.85,1726Z" style="fill:rgb(204,0,34);fill-rule:nonzero;"/>
                </g>
                <g transform="matrix(0.278894,0,0,0.278894,2254.310536,-21.275961)">
                    <path d="M1235.81,1633.28L1237.26,1636.59C1232.41,1646.45 1228.14,1654.88 1222.54,1664.39C1216.89,1673.97 1209.37,1684.4 1204.19,1693.96C1202.54,1696.29 1201.01,1697.72 1201.13,1700.46L1202.17,1703.2C1192.45,1714.81 1159.85,1753.13 1145.77,1756.58L1144.79,1756.27C1144.06,1753.88 1143.51,1751.49 1142.4,1749.24C1139.92,1755.87 1135.99,1768.12 1134.24,1775.19L1130.97,1774.09C1124.97,1741.94 1093.98,1735.85 1067.14,1727.72L1062.43,1727.21L1059.7,1724.52C1067.24,1725.28 1072.78,1724.44 1080.3,1725.9C1090.44,1726.21 1103.09,1728.9 1114.99,1729.38C1106.11,1724.03 1090.39,1719.29 1080.17,1715.82C1082.85,1714.29 1083.23,1714.25 1086.14,1713.38C1091.85,1714.66 1097.65,1715.89 1103.2,1717.8C1115.64,1722.08 1130.04,1731.26 1143.48,1729.14C1170.41,1724.9 1218.76,1656.62 1235.81,1633.28Z" style="fill:rgb(204,0,34);fill-rule:nonzero;"/>
                </g>
                <g transform="matrix(0.278894,0,0,0.278894,2254.310536,-21.275961)">
                    <path d="M1059.7,1724.52C1067.24,1725.28 1072.78,1724.44 1080.3,1725.9C1074.75,1726.26 1071.27,1725.24 1067.14,1727.72L1062.43,1727.21L1059.7,1724.52Z" style="fill:rgb(204,0,34);fill-rule:nonzero;"/>
                </g>
                <g transform="matrix(0.278894,0,0,0.278894,2254.310536,-21.275961)">
                    <path d="M1142.4,1749.24C1142.55,1748.53 1142.98,1746.15 1143.56,1745.94C1146.15,1744.96 1144.83,1755.63 1144.79,1756.27C1144.06,1753.88 1143.51,1751.49 1142.4,1749.24Z" style="fill:rgb(204,0,34);fill-rule:nonzero;"/>
                </g>
                <g transform="matrix(0.278894,0,0,0.278894,2254.310536,-21.275961)">
                    <path d="M1119.83,1380.64C1132.12,1386.46 1166.63,1407.17 1154.81,1423.48C1136.19,1449.15 1093.9,1452.43 1074.33,1478.65C1051.8,1508.86 1020.15,1511.84 994.512,1483.23C1004,1479 1018.88,1487.53 1037.55,1472.24C1037.78,1472.08 1038,1471.93 1038.22,1471.78C1054.3,1461.17 1139.52,1431.68 1141.87,1414.61C1143.37,1403.7 1126.66,1388.08 1119.83,1380.64Z" style="fill:rgb(204,0,34);fill-rule:nonzero;"/>
                </g>
                <g transform="matrix(0.278894,0,0,0.278894,2254.310536,-21.275961)">
                    <path d="M533.455,1093.25C544.187,1113.82 554.38,1134.02 575.019,1145.86C575.164,1161.24 576.211,1183.85 575.238,1198.55C564.63,1183.88 555.797,1165.86 550.941,1148.33C549.689,1143.81 547.772,1132.29 546.312,1128.92L544.858,1129.44C542.979,1134.51 542.831,1142.01 542.669,1147.52C534.57,1130 532.582,1116.46 529.486,1097.59C530.772,1096.11 532.096,1094.66 533.455,1093.25Z" style="fill:rgb(204,0,34);fill-rule:nonzero;"/>
                </g>
                <g transform="matrix(0.278894,0,0,0.278894,2254.310536,-21.275961)">
                    <path d="M1542.53,1091.21L1544.49,1095.23C1542.01,1116.39 1540.11,1127.69 1532.52,1147.83L1531.43,1123.96C1529.15,1128.95 1525.87,1140.87 1523.98,1146.77C1517.6,1166.77 1510.22,1182.38 1497.34,1198.99C1497.83,1178.33 1499.54,1168.17 1497.89,1146.2C1523.88,1133.61 1531.85,1117.74 1542.53,1091.21Z" style="fill:rgb(204,0,34);fill-rule:nonzero;"/>
                </g>
                <g transform="matrix(0.278894,0,0,0.278894,2254.310536,-21.275961)">
                    <path d="M1326.04,1006.46C1335.74,999.368 1364.94,983.556 1375.98,978.818C1384.33,984.587 1394.24,993.839 1401.87,1000.79C1373.32,995.562 1357.34,1000.37 1330.34,1008.54L1326.04,1006.46Z" style="fill:rgb(204,0,34);fill-rule:nonzero;"/>
                </g>
                <g transform="matrix(0.278894,0,0,0.278894,2254.310536,-21.275961)">
                    <path d="M676.816,996.63C682.655,991.082 691.471,983.428 697.678,978.377C715.426,988.495 743.131,1001.14 757.459,1013.8C729.831,1004.57 709.697,994.845 679.208,999.296L676.816,996.63Z" style="fill:rgb(204,0,34);fill-rule:nonzero;"/>
                </g>
                <g transform="matrix(0.278894,0,0,0.278894,2254.310536,-21.275961)">
                    <path d="M723.373,1203.78C723.755,1203.26 723.884,1202.92 724.374,1202.65C724.892,1202.66 725.443,1205.78 725.609,1206.75C725.926,1208.59 726.781,1212.37 727.139,1213.96L729.139,1221.96L730.14,1225.96L731.142,1229.96C732.105,1233.97 735.66,1241.42 734.691,1245.22C734.43,1246.25 730.276,1245.61 733.365,1248.78C734.25,1249.71 732.431,1250.69 731.967,1251.03C729.702,1247.15 727.143,1239.64 725.359,1235.19C728.453,1237.97 730.019,1239.94 732.849,1242.81C731.183,1236.95 730.136,1233.5 728.187,1227.8C727.027,1219.86 724.653,1211.87 723.373,1203.78Z" style="fill:rgb(204,0,34);fill-rule:nonzero;"/>
                </g>
                <g transform="matrix(0.278894,0,0,0.278894,2254.310536,-21.275961)">
                    <path d="M1245.76,1355.78C1244.62,1355.6 1239.72,1354.87 1239.54,1353.48C1243.7,1352.18 1250.72,1352.38 1255,1351.89C1266.03,1350.62 1277.44,1349.61 1288.42,1348.13C1278.23,1354.39 1252.41,1351.8 1245.76,1355.78Z" style="fill:rgb(204,0,34);fill-rule:nonzero;"/>
                </g>
                <g transform="matrix(0.278894,0,0,0.278894,2254.310536,-21.275961)">
                    <path d="M1265.13,1369.34C1275.54,1369.61 1281.39,1370.47 1291.39,1371.24L1291.15,1371.66C1287.25,1371.68 1282.17,1372.76 1287.07,1376.82C1279.24,1374.51 1272.69,1372.42 1265.13,1369.34Z" style="fill:rgb(204,0,34);fill-rule:nonzero;"/>
                </g>
                <g transform="matrix(0.278894,0,0,0.278894,2254.310536,-21.275961)">
                    <path d="M1071.43,1714.03C1069.83,1714.04 1067.56,1714.19 1066.51,1712.68C1067.06,1711.04 1077.82,1712.42 1079.33,1712.63C1081.61,1712.88 1083.86,1713.09 1086.14,1713.38C1083.23,1714.25 1082.85,1714.29 1080.17,1715.82C1077.3,1715.38 1074.26,1714.7 1071.43,1714.03Z" style="fill:rgb(204,0,34);fill-rule:nonzero;"/>
                </g>
                <g transform="matrix(0.278894,0,0,0.278894,2254.310536,-21.275961)">
                    <path d="M1071.43,1714.03C1069.83,1714.04 1067.56,1714.19 1066.51,1712.68C1067.06,1711.04 1077.82,1712.42 1079.33,1712.63C1076.58,1713.05 1074.14,1713.49 1071.43,1714.03Z" style="fill:rgb(204,0,34);fill-rule:nonzero;"/>
                </g>
                <g transform="matrix(0.278894,0,0,0.278894,2254.310536,-21.275961)">
                    <path d="M527.338,1081.53L533.455,1093.25C532.096,1094.66 530.772,1096.11 529.486,1097.59C528.72,1092.54 528.032,1086.68 527.338,1081.53Z" style="fill:rgb(204,0,34);fill-rule:nonzero;"/>
                </g>
                <g transform="matrix(0.278894,0,0,0.278894,2254.310536,-21.275961)">
                    <path d="M992.141,1712.47C995.522,1711.31 1005.39,1710.38 1009.12,1710.11C1003.73,1712.21 1000.65,1713.76 994.977,1714.9C994.021,1714.05 993.154,1713.25 992.141,1712.47Z" style="fill:rgb(204,0,34);fill-rule:nonzero;"/>
                </g>
                <g transform="matrix(0.278894,0,0,0.278894,2254.310536,-21.275961)">
                    <path d="M1206.27,1695.54C1207.41,1694.33 1208.37,1693.06 1209.75,1692.25L1210.73,1692.24L1210.84,1692.38L1211.11,1692.18C1211.73,1693.6 1203.37,1702.03 1202.17,1703.2L1201.13,1700.46C1203.82,1698.51 1204.09,1698.18 1206.27,1695.54Z" style="fill:rgb(204,0,34);fill-rule:nonzero;"/>
                </g>
                <g transform="matrix(0.278894,0,0,0.278894,2254.310536,-21.275961)">
                    <path d="M627.587,1089.33C629.06,1085.9 631.116,1080.57 633.116,1077.64L635.994,1081.4C633.279,1084.08 630.377,1086.72 627.587,1089.33Z" style="fill:rgb(204,0,34);fill-rule:nonzero;"/>
                </g>
                <g transform="matrix(0.278894,0,0,0.278894,2254.310536,-21.275961)">
                    <path d="M991.597,1612.69C993.447,1612.74 999.88,1613.25 1000.93,1614.55L1001.02,1615.18C999.255,1616.71 990.29,1615.05 987.84,1614.82L991.597,1612.69Z" style="fill:rgb(204,0,34);fill-rule:nonzero;"/>
                </g>
                <g transform="matrix(0.278894,0,0,0.278894,2254.310536,-21.275961)">
                    <path d="M998.847,1724.81C1004.84,1723.88 1009.37,1724.04 1015.33,1723.75L1016.58,1725.39C1013.82,1725.83 1010.79,1726.47 1008.04,1726.66C1004.99,1724.83 1004.53,1725.12 1000.85,1724.95L998.847,1724.81Z" style="fill:rgb(204,0,34);fill-rule:nonzero;"/>
                </g>
                <g transform="matrix(0.278894,0,0,0.278894,2254.310536,-21.275961)">
                    <path d="M1330.34,1008.54C1328.7,1009.27 1322.22,1012.3 1320.6,1011.04C1319.97,1009.55 1325.09,1006.87 1326.04,1006.46L1330.34,1008.54Z" style="fill:rgb(204,0,34);fill-rule:nonzero;"/>
                </g>
                <g transform="matrix(0.278894,0,0,0.278894,2254.310536,-21.275961)">
                    <path d="M1304.5,1589.47C1306.28,1585.15 1307.63,1581.6 1309.67,1577.35L1311.99,1580.65C1309.53,1583.73 1307.07,1586.49 1304.5,1589.47Z" style="fill:rgb(204,0,34);fill-rule:nonzero;"/>
                </g>
                <g transform="matrix(0.278894,0,0,0.278894,2254.310536,-21.275961)">
                    <path d="M1235.81,1633.28C1237.15,1630.7 1240.78,1625.79 1242.58,1623.25C1240.81,1628.03 1239.49,1631.96 1237.26,1636.59L1235.81,1633.28Z" style="fill:rgb(204,0,34);fill-rule:nonzero;"/>
                </g>
                <g transform="matrix(0.278894,0,0,0.278894,2254.310536,-21.275961)">
                    <path d="M702.266,1008.59C701.702,1007.71 699.227,1005 701.108,1005.01C705.874,1005.05 716.335,1007.34 703.601,1008.48L702.266,1008.59Z" style="fill:rgb(204,0,34);fill-rule:nonzero;"/>
                </g>
                <g transform="matrix(0.278894,0,0,0.278894,2254.310536,-21.275961)">
                    <path d="M1342.12,1407.02L1343.43,1407.34L1343.96,1410.34C1344.32,1412.49 1344.65,1413.02 1345.75,1414.84L1341.78,1415.99C1341.74,1412.35 1341.73,1410.61 1342.12,1407.02Z" style="fill:rgb(204,0,34);fill-rule:nonzero;"/>
                </g>
                <g transform="matrix(0.278894,0,0,0.278894,2254.310536,-21.275961)">
                    <path d="M948.247,1599.39C947.079,1599.06 944.374,1598.54 943.728,1597.48C944.604,1596.08 955.533,1597.63 957.277,1597.89C953.617,1598.26 951.467,1597.81 948.247,1599.39Z" style="fill:rgb(204,0,34);fill-rule:nonzero;"/>
                </g>
                <g transform="matrix(0.278894,0,0,0.278894,2254.310536,-21.275961)">
                    <path d="M679.208,999.296C678.075,999.697 671.648,1003.12 672.239,1000.25C673.613,998.629 674.938,997.642 676.816,996.63L679.208,999.296Z" style="fill:rgb(204,0,34);fill-rule:nonzero;"/>
                </g>
                <g transform="matrix(0.278894,0,0,0.278894,2254.310536,-21.275961)">
                    <path d="M1108.19,1180.82C1108,1174.59 1108.19,1173.01 1113.36,1176.5C1111.58,1178.11 1110.07,1179.34 1108.19,1180.82Z" style="fill:rgb(204,0,34);fill-rule:nonzero;"/>
                </g>
                <g transform="matrix(0.278894,0,0,0.278894,2254.310536,-21.275961)">
                    <path d="M1135.16,1095.16C1135.9,1094.17 1139.49,1089.22 1140.46,1088.91C1141.61,1089.98 1137.85,1096.1 1137.23,1097.22L1135.16,1095.16Z" style="fill:rgb(204,0,34);fill-rule:nonzero;"/>
                </g>
                <g transform="matrix(0.278894,0,0,0.278894,2254.310536,-21.275961)">
                    <path d="M1542.53,1091.21C1543.04,1089.42 1543.35,1088.01 1544.59,1086.6C1544.94,1086.5 1544.77,1086.51 1545.12,1086.56C1545.96,1087.49 1544.69,1093.98 1544.49,1095.23L1542.53,1091.21Z" style="fill:rgb(204,0,34);fill-rule:nonzero;"/>
                </g>
                <g transform="matrix(0.278894,0,0,0.278894,2254.310536,-21.275961)">
                    <path d="M1088.43,1617.04C1090.47,1617.04 1097.83,1616.72 1099.31,1617.62L1099.4,1617.77C1098.94,1618.96 1096.66,1619.01 1095.57,1619.12C1093.18,1618.46 1090.8,1617.77 1088.43,1617.04Z" style="fill:rgb(204,0,34);fill-rule:nonzero;"/>
                </g>
                <g transform="matrix(0.278894,0,0,0.278894,2254.310536,-21.275961)">
                    <path d="M832.143,1631.81C827.331,1623.91 829.459,1623.66 834.447,1630.88L832.143,1631.81Z" style="fill:rgb(204,0,34);fill-rule:nonzero;"/>
                </g>
                <g transform="matrix(0.278894,0,0,0.278894,2254.310536,-21.275961)">
                    <path d="M760.518,1140.7C753.452,1136.78 767.954,1139.34 769.231,1139.53C765.544,1139.8 764.115,1139.95 760.518,1140.7Z" style="fill:rgb(204,0,34);fill-rule:nonzero;"/>
                </g>
                <g transform="matrix(0.278894,0,0,0.278894,2254.310536,-21.275961)">
                    <path d="M1015.33,1723.75C1016.62,1722.86 1019.72,1721.95 1021.13,1722.65C1021.72,1724.1 1017.38,1725.15 1016.58,1725.39L1015.33,1723.75Z" style="fill:rgb(204,0,34);fill-rule:nonzero;"/>
                </g>
                <g transform="matrix(0.278894,0,0,0.278894,2254.310536,-21.275961)">
                    <path d="M1062.43,1727.21C1061.13,1727.02 1054.53,1726.13 1053.76,1725.47L1053.87,1725.25C1056.33,1724.54 1057.1,1724.65 1059.7,1724.52L1062.43,1727.21Z" style="fill:rgb(204,0,34);fill-rule:nonzero;"/>
                </g>
                <g transform="matrix(0.278894,0,0,0.278894,2254.310536,-21.275961)">
                    <path d="M893.145,1633.78C893.449,1635.2 895.026,1642.04 894.528,1643.17L894.412,1643.21C893.31,1642.37 892.537,1639.88 891.932,1638.56C892.317,1636.96 892.721,1635.37 893.145,1633.78Z" style="fill:rgb(204,0,34);fill-rule:nonzero;"/>
                </g>
                <g transform="matrix(0.278894,0,0,0.278894,2254.310536,-21.275961)">
                    <path d="M1130.97,1774.09L1134.24,1775.19C1131.36,1780.9 1130.86,1780.89 1130.97,1774.09Z" style="fill:rgb(204,0,34);fill-rule:nonzero;"/>
                </g>
                <g transform="matrix(0.278894,0,0,0.278894,2254.310536,-21.275961)">
                    <path d="M719.886,1206.83C719.914,1208.16 720.602,1216.14 719.269,1216.53C718.53,1215.86 718.418,1215.34 718.055,1214.38C718.628,1211.54 719.092,1209.61 719.886,1206.83Z" style="fill:rgb(204,0,34);fill-rule:nonzero;"/>
                </g>
                <g transform="matrix(0.278894,0,0,0.278894,2254.310536,-21.275961)">
                    <path d="M891.478,1623.42C891.375,1622.62 890.359,1617.92 891.461,1617.42C892.302,1617.83 893.31,1619.79 893.742,1620.49L891.478,1623.42Z" style="fill:rgb(204,0,34);fill-rule:nonzero;"/>
                </g>
                <g transform="matrix(0.278894,0,0,0.278894,2254.310536,-21.275961)">
                    <path d="M1308.9,1140.58C1310.07,1140.68 1311.56,1140.64 1312.55,1141.21C1312.86,1141.86 1310.29,1142.99 1309.65,1143.41L1308.9,1140.58Z" style="fill:rgb(204,0,34);fill-rule:nonzero;"/>
                </g>
                <g transform="matrix(0.278894,0,0,0.278894,2254.310536,-21.275961)">
                    <path d="M1196.15,1502.5C1195.03,1503.02 1193.78,1503.99 1192.46,1503.83C1191.71,1502.92 1193.85,1501.25 1194.29,1500.77L1196.15,1502.5Z" style="fill:rgb(204,0,34);fill-rule:nonzero;"/>
                </g>
                <g transform="matrix(0.278894,0,0,0.278894,2254.310536,-21.275961)">
                    <path d="M1342.12,1407.02C1342.22,1406.08 1342.06,1404.58 1343.05,1404.09C1344.14,1404.51 1343.51,1406.63 1343.43,1407.34L1342.12,1407.02Z" style="fill:rgb(204,0,34);fill-rule:nonzero;"/>
                </g>
                <g transform="matrix(0.278894,0,0,0.278894,2254.310536,-21.275961)">
                    <path d="M498.158,592.861C497.097,571.218 497.874,549.525 500.482,528.014C513.629,427.472 573.034,316.413 653.965,254.512C654.953,257.961 658.25,260.939 660.505,263.646C618.619,349.571 603.595,436.045 625.314,529.979C628.684,544.553 633.059,569.821 639.36,582.983C643.128,577.425 637.036,573.366 640.993,570.348L640.657,552.222L643.015,553.675C653.882,619.84 689.044,657.19 741.484,694.874C760.705,708.679 781.528,720.104 803.498,728.9C792.204,766.944 791.908,778.802 772.485,816.829L775.376,818.105C780.914,813.78 788.116,806.678 793.418,801.745C761.582,849.378 727.021,887.012 675.347,914.244C663.651,907.345 649.414,895.972 638.597,887.496C575.424,837.991 524.141,763.582 502.131,686.281C491.848,650.162 487.952,614.165 483.654,576.959C483.466,575.231 482.276,565.132 483.477,563.807L483.708,563.903C484.867,565.834 484.966,566.992 485.496,569.172C488.475,579.312 492.359,592.024 496.617,601.723C498.112,598.475 497.746,596.584 498.158,592.861Z" style="fill-rule:nonzero;"/>
                </g>
                <g transform="matrix(0.278894,0,0,0.278894,2254.310536,-21.275961)">
                    <path d="M639.36,582.983C643.128,577.425 637.036,573.366 640.993,570.348C641.898,573.821 642.182,577.953 642.432,581.495C642.529,582.859 643.065,585.164 642.096,586.221C641.04,587.372 639.43,583.15 639.36,582.983Z" style="fill:rgb(204,0,34);fill-rule:nonzero;"/>
                </g>
                <g transform="matrix(0.278894,0,0,0.278894,2254.310536,-21.275961)">
                    <path d="M498.158,592.861C498.471,594.648 500.154,605.445 498.647,606.198C497.488,605.105 497.129,603.171 496.617,601.723C498.112,598.475 497.746,596.584 498.158,592.861Z" style="fill:rgb(204,0,34);fill-rule:nonzero;"/>
                </g>
                <g transform="matrix(0.278894,0,0,0.278894,2254.310536,-21.275961)">
                    <path d="M483.654,576.959C483.466,575.231 482.276,565.132 483.477,563.807L483.708,563.903C484.867,565.834 484.966,566.992 485.496,569.172C483.995,572.221 484.158,573.515 483.654,576.959Z" style="fill:rgb(204,0,34);fill-rule:nonzero;"/>
                </g>
                <g transform="matrix(0.278894,0,0,0.278894,2254.310536,-21.275961)">
                    <path d="M772.485,816.829L775.376,818.105C769.825,823.741 768.368,821.697 772.485,816.829Z" style="fill:rgb(204,0,34);fill-rule:nonzero;"/>
                </g>
                <g transform="matrix(0.278894,0,0,0.278894,2254.310536,-21.275961)">
                    <path d="M1388.31,238.275C1399.71,244.123 1411.17,254.686 1420.85,263.113C1446.42,285.39 1472.26,312.71 1489.85,342.028C1501.14,360.841 1512.61,380.529 1524.18,399.193C1534.84,416.404 1545.92,445.465 1552.19,464.969C1565.09,506.318 1570.71,549.591 1568.81,592.864L1572.34,595.043C1575.12,585.797 1577.81,576.524 1580.41,567.224C1582.07,570.39 1581.73,571.695 1582.26,575.354C1577.77,659.83 1562.96,723.552 1515.43,795.126C1479.48,849.261 1452.91,876.131 1399.56,912.805C1395.76,910.248 1390.25,907.279 1386.13,905.03C1339.79,879.747 1307.83,841.96 1274.96,801.221C1285.16,807.928 1291.94,814.34 1300.8,822.547C1294.73,808.252 1287.77,793.166 1282.49,778.605C1276.57,762.238 1271.76,744.765 1266.41,728.07C1294.1,712.954 1309.96,707.334 1336.34,686.361C1381.22,650.683 1414.87,614.305 1422.51,555.052L1425.03,555.622C1424.99,561.034 1425.22,572.705 1424.67,577.605L1428.48,578.029C1462.78,467.11 1457.4,368.533 1403.21,263.952C1399.06,255.936 1393.33,245.549 1388.31,238.275Z" style="fill-rule:nonzero;"/>
                </g>
                <g transform="matrix(0.278894,0,0,0.278894,2254.310536,-21.275961)">
                    <path d="M1568.81,592.864L1572.34,595.043C1571.76,596.845 1571.14,598.669 1570.59,600.459C1570.51,600.736 1569.49,603.083 1569,602.242C1567.93,600.397 1568.72,594.693 1568.81,592.864Z" style="fill:rgb(204,0,34);fill-rule:nonzero;"/>
                </g>
                <g transform="matrix(0.278894,0,0,0.278894,2254.310536,-21.275961)">
                    <path d="M1424.67,577.605L1428.48,578.029C1425.47,584.448 1425.29,586.343 1424.67,577.605Z" style="fill:rgb(204,0,34);fill-rule:nonzero;"/>
                </g>
                <g transform="matrix(0.278894,0,0,0.278894,2254.310536,-21.275961)">
                    <path d="M660.826,249.119C661.994,247.413 673.448,238.497 675.905,236.474C670.777,244.853 666.568,253.215 661.717,261.126C662.251,256.652 664.234,252.072 660.826,249.119Z" style="fill-rule:nonzero;"/>
                </g>
                <g transform="matrix(0.278894,0,0,0.278894,2254.310536,-21.275961)">
                    <path d="M653.965,254.512C656.712,252.013 657.767,251.209 660.826,249.119C664.234,252.072 662.251,256.652 661.717,261.126C661.324,261.971 660.92,262.811 660.505,263.646C658.25,260.939 654.953,257.961 653.965,254.512Z" style="fill:rgb(204,0,34);fill-rule:nonzero;"/>
                </g>
                <g transform="matrix(0.278894,0,0,0.278894,2254.310536,-21.275961)">
                    <path d="M1328.05,626.969C1332.79,628.767 1338.79,628.886 1335.04,633.433L1333.52,633.648C1328.29,634.43 1319.18,629.381 1328.05,626.969Z" style="fill:rgb(204,0,34);fill-rule:nonzero;"/>
                </g>
                <g transform="matrix(0.278894,0,0,0.278894,2254.310536,-21.275961)">
                    <path d="M1580.41,567.224L1580.78,565.432C1581.25,562.997 1582.31,560.8 1583.2,558.498C1583.03,564.376 1583.04,569.494 1582.26,575.354C1581.73,571.695 1582.07,570.39 1580.41,567.224Z" style="fill:rgb(204,0,34);fill-rule:nonzero;"/>
                </g>
                <g transform="matrix(0.278894,0,0,0.278894,2254.310536,-21.275961)">
                    <path d="M1422.51,555.052C1423.22,545.17 1425.01,546.058 1425.03,555.622L1422.51,555.052Z" style="fill:rgb(204,0,34);fill-rule:nonzero;"/>
                </g>
                <g transform="matrix(0.278894,0,0,0.278894,2254.310536,-21.275961)">
                    <path d="M1493.17,1015.07C1495.03,1022.76 1493.96,1026.98 1491.27,1016.84L1493.17,1015.07Z" style="fill:rgb(204,0,34);fill-rule:nonzero;"/>
                </g>
                <g transform="matrix(0.278894,0,0,0.278894,2254.310536,-21.275961)">
                    <path d="M443.103,997.505C443.305,996.738 443.759,994.024 444.659,993.554C447.423,994.479 445.761,998.99 444.625,1000.74L443.103,997.505Z" style="fill:rgb(204,0,34);fill-rule:nonzero;"/>
                </g>
                <g transform="matrix(0.278894,0,0,0.278894,2254.310536,-21.275961)">
                    <path d="M640.657,552.222C640.794,551.621 640.967,550.106 641.536,549.664C641.626,549.696 641.716,549.727 641.806,549.758C642.515,550.993 642.71,552.283 643.015,553.675L640.657,552.222Z" style="fill:rgb(204,0,34);fill-rule:nonzero;"/>
                </g>
                <g transform="matrix(0.278894,0,0,0.278894,2254.310536,-21.275961)">
                    <path d="M706.319,223.984C711.364,225.62 719.832,224.189 724.388,221.957C722.734,223.722 710.249,236.19 708.741,237.051C708.556,234.791 704.069,231.587 702.36,231.193C703.319,228.851 704.826,226.025 706.319,223.984Z" style="fill:rgb(204,0,34);fill-rule:nonzero;"/>
                </g>
                <g transform="matrix(0.278894,0,0,0.278894,2254.310536,-21.275961)">
                    <path d="M441.946,758.646C449.315,762.948 448.09,764.182 454.983,763.3C457.464,762.982 463.327,767.937 465.103,771.404C459.794,770.084 456.649,766.474 454.922,774.251C451.426,770.844 445.201,762.674 441.946,758.646Z" style="fill:rgb(204,0,34);fill-rule:nonzero;"/>
                </g>
                <g transform="matrix(0.278894,0,0,0.278894,2254.310536,-21.275961)">
                    <path d="M800.427,1863.19C808.478,1861.93 818.418,1860.47 826.544,1859.87C821.093,1864.69 822.289,1861.11 817.562,1862.79C817.591,1862.9 817.62,1863 817.649,1863.1C822.518,1865.23 820.466,1861.14 827.552,1866.99C818.446,1865.96 809.512,1864.43 800.427,1863.19Z" style="fill:rgb(204,0,34);fill-rule:nonzero;"/>
                </g>
                <g transform="matrix(0.278894,0,0,0.278894,2254.310536,-21.275961)">
                    <path d="M379.051,874.972C381.661,878.384 387.643,885.438 389.306,888.152C385.226,888.832 386.235,886.138 384.569,887.117C384.218,888.551 384.985,889.025 385.797,889.839L385.664,890.464L385.641,890.473C385.1,891.789 384.617,893.109 384.151,894.453L383.565,892.76C382.748,890.441 382.177,888.417 381.682,886.016L379.051,874.972Z" style="fill:rgb(204,0,34);fill-rule:nonzero;"/>
                </g>
                <g transform="matrix(0.278894,0,0,0.278894,2254.310536,-21.275961)">
                    <path d="M1319.68,1724.09C1324.94,1722.43 1329.42,1720.93 1334.82,1719.59L1342.27,1717.75C1339.24,1719.67 1331.3,1725.31 1328.98,1726.52C1324.99,1723.06 1324.9,1725.25 1319.68,1724.09Z" style="fill:rgb(204,0,34);fill-rule:nonzero;"/>
                </g>
                <g transform="matrix(0.278894,0,0,0.278894,2254.310536,-21.275961)">
                    <path d="M769.032,119.244C772.749,116.404 778.137,113.249 782.246,110.374C777.985,116.567 775.435,120.081 770.235,125.756C770.582,121.194 772.553,122.152 769.032,119.244Z" style="fill:rgb(204,0,34);fill-rule:nonzero;"/>
                </g>
                <g transform="matrix(0.278894,0,0,0.278894,2254.310536,-21.275961)">
                    <path d="M1504.27,1454.54C1502.2,1458.28 1500.97,1461.2 1498.32,1464.63L1493.85,1463.9C1497.47,1460.78 1500.75,1457.76 1504.27,1454.54Z" style="fill:rgb(204,0,34);fill-rule:nonzero;"/>
                </g>
                <g transform="matrix(0.278894,0,0,0.278894,2254.310536,-21.275961)">
                    <path d="M570.584,1476.49C573.679,1478.77 578.986,1482.33 581.368,1485.08L579.929,1489.05L570.584,1476.49Z" style="fill:rgb(204,0,34);fill-rule:nonzero;"/>
                </g>
                <g transform="matrix(0.278894,0,0,0.278894,2254.310536,-21.275961)">
                    <path d="M533.315,258.205C533.625,256.757 534.082,253.701 535.476,252.843C536.649,253.666 536.121,263.918 535.232,265.76C534.149,262.425 535.012,261.406 533.315,258.205Z" style="fill:rgb(204,0,34);fill-rule:nonzero;"/>
                </g>
                <g transform="matrix(0.278894,0,0,0.278894,2254.310536,-21.275961)">
                    <path d="M745.113,201.642L749.482,197.385C749.762,197.115 751.952,195.294 751.687,197.197C751.467,198.783 749.001,202.462 748.116,203.96L745.113,201.642Z" style="fill:rgb(204,0,34);fill-rule:nonzero;"/>
                </g>
            </g>
        </g>
    </g>
</svg>
