<?xml version="1.0" encoding="UTF-8" standalone="no"?>
<!DOCTYPE svg PUBLIC "-//W3C//DTD SVG 1.1//EN" "http://www.w3.org/Graphics/SVG/1.1/DTD/svg11.dtd">
<svg width="100%" height="100%" viewBox="0 0 376 463" version="1.1" xmlns="http://www.w3.org/2000/svg" xmlns:xlink="http://www.w3.org/1999/xlink" xml:space="preserve" xmlns:serif="http://www.serif.com/" style="fill-rule:evenodd;clip-rule:evenodd;stroke-linejoin:round;stroke-miterlimit:2;">
    <g transform="matrix(1,0,0,1,-68.773299,-25.087042)">
        <g transform="matrix(1,0,0,1,-1952,-1298)">
            <g id="Argonaut" transform="matrix(1,0,0,1,1952.404239,1298.647578)">
                <g transform="matrix(3.413333,0,0,3.413333,0,0)">
                    <path d="M83.09,7.22L83.15,10.33C82.08,10.31 81,10.3 79.93,10.29C79.12,13.18 78.36,16.09 77.59,18.99C77.46,16.14 77.36,13.29 77.24,10.44C73.11,11.46 69.13,12.74 65.27,14.56C65.65,17.42 66.06,20.27 66.59,23.11C65.43,20.71 64.19,18.35 62.92,16.01C61.06,17.48 59.22,18.97 57.41,20.49C58.21,22.33 59,24.18 59.79,26.03C58.73,24.53 57.67,23.04 56.6,21.54C55.19,23.02 53.81,24.53 52.44,26.05C53.54,27.75 54.64,29.45 55.75,31.15C54.25,30.08 52.74,29.02 51.22,27.98C50.47,29.47 49.71,30.96 48.96,32.46C50.35,33.68 51.73,34.91 53.11,36.15C51.4,35.57 49.69,34.98 47.99,34.4C47.12,37.56 46.35,40.72 45.89,43.96C47.45,44.24 49.02,44.52 50.58,44.8C48.98,45.2 47.38,45.59 45.78,45.98C45.78,48.15 45.79,50.32 45.8,52.48C46.86,52.33 47.91,52.17 48.96,52.02C47.97,52.8 46.98,53.58 45.99,54.36C46.4,56.26 46.81,58.15 47.23,60.05C48.55,58.99 49.85,57.91 51.17,56.86C50.07,58.99 48.58,61.12 47.91,63.44C47.56,66.66 47.58,69.92 47.33,73.15C52.22,67.41 54.72,60.72 53.09,53.16C51.76,53.73 50.42,54.3 49.09,54.88C51.19,52.97 52.92,51.67 53.3,48.58C51.73,48.52 50.17,48.46 48.6,48.4C50.08,47.92 51.56,47.45 53.05,46.98C53.48,45.37 53.92,43.76 54.37,42.15C52.93,41.48 51.49,40.81 50.06,40.14C51.71,40.27 53.35,40.4 55,40.53C55.61,39.35 56.22,38.16 56.84,36.98C55.84,35.86 54.85,34.74 53.86,33.62C55.17,34.33 56.47,35.04 57.78,35.75C58.51,34.83 59.24,33.91 59.97,33C59.23,31.65 58.49,30.29 57.76,28.94C58.85,29.94 59.92,30.96 61,31.97C61.98,31.23 62.95,30.49 63.93,29.75C63.2,27.59 62.46,25.44 61.76,23.27C63.07,24.96 64.35,26.67 65.64,28.37C67.95,27.51 70.27,26.68 72.6,25.9C72.89,22.8 73.23,19.71 73.64,16.62C74.15,19.6 74.52,22.59 74.93,25.58C76.6,25.58 78.28,25.59 79.95,25.6C80.57,23.03 81.16,20.44 81.76,17.87C81.73,20.64 81.65,23.42 81.55,26.2C84.86,25.33 84.23,25.79 86.81,27.06L88.93,21.87L88.39,27.49C89.34,27.56 90.29,27.63 91.25,27.71C93.93,22.38 96.82,18.72 101.62,15.15C100.38,14.56 99.15,13.96 97.91,13.37C96.27,15.17 94.64,16.98 93.01,18.79C93.96,16.69 94.9,14.59 95.86,12.5C94.09,12.01 92.31,11.52 90.54,11.04C88.47,15.39 86.87,19.79 86.18,24.58C85.44,24.65 84.69,24.68 83.95,24.73C84.94,19.81 86.34,15.18 88.16,10.51C86.86,10.46 85.55,10.41 84.25,10.36L84.29,7.16C92.76,7.65 100.63,10.28 107.3,15.59C101.66,18.41 97.36,22.07 94.59,27.83C94.88,30.51 93.97,32.49 92.82,34.81C96.43,38.43 99.35,42.42 100.76,47.41C97.78,43.27 94.45,39.53 90.9,35.89C89.95,36.56 89,37.24 88.05,37.92C88.51,36.49 88.97,35.07 89.43,33.65C87.78,33.4 86.13,33.14 84.49,32.89C84.1,34.59 83.71,36.29 83.32,37.99C84.09,38.69 84.85,39.39 85.62,40.09C80.92,43.25 75.81,46.45 70.5,48.47C68.43,49.53 66.12,47.99 64.06,47.45C65.12,43.77 66.88,41.15 69.36,38.3C66.76,40.15 64.25,41.74 62.42,44.43C60.14,47.75 59.38,51.56 59.08,55.51C60.36,53.95 61.35,52.17 62.64,50.64C64.39,49.23 66.34,50.98 67.92,51.77C76.31,48.82 83.86,44.26 90.81,38.77C93.34,41.69 96.23,44.51 98.26,47.8C99.18,49.96 99.13,52.62 99.4,54.93C97.7,55.68 95.89,56.39 94.3,57.37C93.67,60.65 94.54,64.3 94.71,67.63C92.61,67.54 90.52,67.41 88.43,67.34C87.93,66.98 87.43,66.63 86.94,66.28C87.09,66.96 87.23,67.64 87.38,68.32C89.01,68.99 90.62,69.69 92.21,70.43C93.41,69.59 94.71,68.75 95.75,67.73C96.01,65.52 95.63,63.2 95.56,60.97C98.6,61.56 97.95,62.07 98.45,64.7C95.43,70.89 96.62,77.95 93.21,83.76C92.41,83.22 91.61,82.68 90.81,82.14C90.3,82.68 89.8,83.22 89.29,83.77C87.41,83.32 85.55,82.82 83.68,82.31C82.66,76.52 82.09,70.75 81.35,64.91C78.36,63.14 75.86,61.2 73.4,58.74C75.96,57.29 78.49,56.18 81.46,55.89C80.28,56.95 79.08,57.97 77.88,58.99C80.21,59.45 82.54,59.85 84.89,60.18L84.56,62.01C85.79,61.37 87.02,60.73 88.25,60.09C88.87,61.49 89.5,62.88 90.14,64.27C90.37,61.83 90.23,59.43 89.92,57C86.36,55.81 82.79,54.65 79.21,53.53C76.2,54.88 73.2,56.25 70.27,57.76C72.91,61.47 75.64,63.92 79.49,66.33C80.1,72.96 81.29,79.48 82.13,86.07C76.35,83.42 69.92,79.88 65.92,74.81C66.25,70.59 67.03,66.89 65.6,62.72C62.33,60.95 61.23,58.58 59.56,55.39C58.79,59.08 61.08,62.86 61.28,66.65C54.37,57.67 57.04,43.52 66.95,37.9C71.77,35.02 76.86,35.41 82.03,37.05C82.32,35.37 82.61,33.69 82.87,32C77.81,31.29 73.08,30.89 68.44,33.45C63.15,36.03 60.26,40.4 57.03,45.07C59.22,40.04 61.76,35.52 66.65,32.65C71.8,29.4 77.5,29.16 83.33,30.5C83.51,29.71 83.68,28.92 83.86,28.13C79.83,27.53 76.06,26.99 72.03,28.02C64.05,30.07 57.69,36.54 55.51,44.45C53.74,50.36 54.9,56.39 56.21,62.26C54.95,66.73 53.57,70.84 50.15,74.15C47.52,76.83 44.33,77.72 40.89,78.87C42.16,76.33 43.87,73.61 44.42,70.82C44.91,67.88 44.95,64.85 45.07,61.87C43.27,58.05 43.26,54.13 42.95,50.02C42.35,41.4 44.67,32.23 49.9,25.29C52.83,20.1 57.22,16.43 62,13.04C62.43,13.25 62.86,13.45 63.29,13.65C64.14,12.74 65,11.64 66.08,11.01C71.43,8.19 77.12,7.43 83.09,7.22Z" style="fill:rgb(143,0,24);fill-rule:nonzero;"/>
                    <path d="M79.93,10.29C81,10.3 82.08,10.31 83.15,10.33L84.25,10.36C85.55,10.41 86.86,10.46 88.16,10.51C86.34,15.18 84.94,19.81 83.95,24.73C84.69,24.68 85.44,24.65 86.18,24.58C86.87,19.79 88.47,15.39 90.54,11.04C92.31,11.52 94.09,12.01 95.86,12.5C94.9,14.59 93.96,16.69 93.01,18.79C94.64,16.98 96.27,15.17 97.91,13.37C99.15,13.96 100.38,14.56 101.62,15.15C96.82,18.72 93.93,22.38 91.25,27.71C90.29,27.63 89.34,27.56 88.39,27.49L88.93,21.87L86.81,27.06C84.23,25.79 84.86,25.33 81.55,26.2C81.65,23.42 81.73,20.64 81.76,17.87C81.16,20.44 80.57,23.03 79.95,25.6C78.28,25.59 76.6,25.58 74.93,25.58C74.52,22.59 74.15,19.6 73.64,16.62C73.23,19.71 72.89,22.8 72.6,25.9C70.27,26.68 67.95,27.51 65.64,28.37C64.35,26.67 63.07,24.96 61.76,23.27C62.46,25.44 63.2,27.59 63.93,29.75C62.95,30.49 61.98,31.23 61,31.97C59.92,30.96 58.85,29.94 57.76,28.94C58.49,30.29 59.23,31.65 59.97,33C59.24,33.91 58.51,34.83 57.78,35.75C56.47,35.04 55.17,34.33 53.86,33.62C54.85,34.74 55.84,35.86 56.84,36.98C56.22,38.16 55.61,39.35 55,40.53C53.35,40.4 51.71,40.27 50.06,40.14C51.49,40.81 52.93,41.48 54.37,42.15C53.92,43.76 53.48,45.37 53.05,46.98C51.56,47.45 50.08,47.92 48.6,48.4C50.17,48.46 51.73,48.52 53.3,48.58C52.92,51.67 51.19,52.97 49.09,54.88C50.42,54.3 51.76,53.73 53.09,53.16C54.72,60.72 52.22,67.41 47.33,73.15C47.58,69.92 47.56,66.66 47.91,63.44C48.58,61.12 50.07,58.99 51.17,56.86C49.85,57.91 48.55,58.99 47.23,60.05C46.81,58.15 46.4,56.26 45.99,54.36C46.98,53.58 47.97,52.8 48.96,52.02C47.91,52.17 46.86,52.33 45.8,52.48C45.79,50.32 45.78,48.15 45.78,45.98C47.38,45.59 48.98,45.2 50.58,44.8C49.02,44.52 47.45,44.24 45.89,43.96C46.35,40.72 47.12,37.56 47.99,34.4C49.69,34.98 51.4,35.57 53.11,36.15C51.73,34.91 50.35,33.68 48.96,32.46C49.71,30.96 50.47,29.47 51.22,27.98C52.74,29.02 54.25,30.08 55.75,31.15C54.64,29.45 53.54,27.75 52.44,26.05C53.81,24.53 55.19,23.02 56.6,21.54C57.67,23.04 58.73,24.53 59.79,26.03C59,24.18 58.21,22.33 57.41,20.49C59.22,18.97 61.06,17.48 62.92,16.01C64.19,18.35 65.43,20.71 66.59,23.11C66.06,20.27 65.65,17.42 65.27,14.56C69.13,12.74 73.11,11.46 77.24,10.44C77.36,13.29 77.46,16.14 77.59,18.99C78.36,16.09 79.12,13.18 79.93,10.29Z" style="fill-rule:nonzero;"/>
                    <path d="M72.03,28.02C76.06,26.99 79.83,27.53 83.86,28.13C83.68,28.92 83.51,29.71 83.33,30.5C77.5,29.16 71.8,29.4 66.65,32.65C61.76,35.52 59.22,40.04 57.03,45.07C60.26,40.4 63.15,36.03 68.44,33.45C73.08,30.89 77.81,31.29 82.87,32C82.61,33.69 82.32,35.37 82.03,37.05C76.86,35.41 71.77,35.02 66.95,37.9C57.04,43.52 54.37,57.67 61.28,66.65C61.08,62.86 58.79,59.08 59.56,55.39C61.23,58.58 62.33,60.95 65.6,62.72C67.03,66.89 66.25,70.59 65.92,74.81C69.92,79.88 76.35,83.42 82.13,86.07C81.29,79.48 80.1,72.96 79.49,66.33C75.64,63.92 72.91,61.47 70.27,57.76C73.2,56.25 76.2,54.88 79.21,53.53C82.79,54.65 86.36,55.81 89.92,57C90.23,59.43 90.37,61.83 90.14,64.27C89.5,62.88 88.87,61.49 88.25,60.09C87.02,60.73 85.79,61.37 84.56,62.01L84.89,60.18C82.54,59.85 80.21,59.45 77.88,58.99C79.08,57.97 80.28,56.95 81.46,55.89C78.49,56.18 75.96,57.29 73.4,58.74C75.86,61.2 78.36,63.14 81.35,64.91C82.09,70.75 82.66,76.52 83.68,82.31C85.55,82.82 87.41,83.32 89.29,83.77C89.8,83.22 90.3,82.68 90.81,82.14C91.61,82.68 92.41,83.22 93.21,83.76C96.62,77.95 95.43,70.89 98.45,64.7C97.95,62.07 98.6,61.56 95.56,60.97C95.63,63.2 96.01,65.52 95.75,67.73C94.71,68.75 93.41,69.59 92.21,70.43C90.62,69.69 89.01,68.99 87.38,68.32C87.23,67.64 87.09,66.96 86.94,66.28C87.43,66.63 87.93,66.98 88.43,67.34C90.52,67.41 92.61,67.54 94.71,67.63C94.54,64.3 93.67,60.65 94.3,57.37C95.89,56.39 97.7,55.68 99.4,54.93C99.13,52.62 99.18,49.96 98.26,47.8C96.23,44.51 93.34,41.69 90.81,38.77C83.86,44.26 76.31,48.82 67.92,51.77C66.34,50.98 64.39,49.23 62.64,50.64C61.35,52.17 60.36,53.95 59.08,55.51C59.38,51.56 60.14,47.75 62.42,44.43C64.25,41.74 66.76,40.15 69.36,38.3C66.88,41.15 65.12,43.77 64.06,47.45C66.12,47.99 68.43,49.53 70.5,48.47C75.81,46.45 80.92,43.25 85.62,40.09C84.85,39.39 84.09,38.69 83.32,37.99C83.71,36.29 84.1,34.59 84.49,32.89C86.13,33.14 87.78,33.4 89.43,33.65C88.97,35.07 88.51,36.49 88.05,37.92C89,37.24 89.95,36.56 90.9,35.89C94.45,39.53 97.78,43.27 100.76,47.41C101.59,51.74 102.09,56.01 99.76,59.99C100.16,61.56 100.59,63.11 100.91,64.68C99.86,66.75 98.82,68.66 98.47,71C97.64,76.37 97.13,81.75 96.76,87.17C96.02,86.43 95.29,85.69 94.56,84.94C92.77,85.5 90.99,86.08 89.24,86.78C91.79,88.31 93.55,89.07 96.61,89.05C95.72,92.09 93.55,94.98 94.8,98.18C96.44,95.63 97.4,92.86 98.28,89.98C98.7,90.63 99.12,91.29 99.54,91.94C99.07,94.31 97.05,96.71 99.41,98.7L99.26,99.59C100.88,99.55 102.5,99.46 104.13,99.44C104.62,97.14 105.13,94.84 105.62,92.54C106.22,92.8 106.82,93.06 107.42,93.33L107.21,94.83C105.5,103.8 105.78,112.85 110.7,120.8C109.88,116.34 108.88,111.93 108.27,107.43C110.42,110.58 111.95,113.71 115.51,115.5C119.97,117.74 125.07,118.91 129.92,119.93C129.94,120.43 129.95,120.93 129.97,121.43C124.75,121.15 119.65,120.35 114.54,119.33C109.89,123.77 109.27,129.87 105.12,134.74C105.21,133.65 105.3,132.57 105.38,131.48C103.49,132.55 101.59,133.61 99.7,134.66C99.51,135.95 99.33,137.25 99.16,138.54C98.22,139.01 97.24,139.41 96.26,139.79C96.61,138.36 96.96,136.92 97.31,135.48C90.3,134.35 82.18,133.69 75.99,129.99C75.89,131.99 75.74,133.98 75.53,135.98C75.76,138.21 75.91,140.45 76.05,142.69L73.96,142.68C74.09,140.44 74.24,138.2 74.47,135.97C74.26,133.98 74.11,131.99 74,129.99C67.84,133.73 59.67,134.33 52.68,135.49C53.06,136.94 53.43,138.39 53.81,139.83C52.86,139.45 51.89,139.07 50.97,138.61C50.75,137.28 50.52,135.96 50.28,134.64C48.35,133.58 46.42,132.51 44.49,131.45L44.99,134.64C40.7,130.07 40.11,123.75 35.45,119.33C30.34,120.4 25.25,121.17 20.03,121.45C20.05,120.95 20.07,120.45 20.08,119.95C24.94,118.91 30.04,117.72 34.52,115.52C38.08,113.79 39.57,110.6 41.74,107.51C41.12,111.93 40.16,116.29 39.38,120.68C44.31,112.71 44.45,103.76 42.81,94.78L42.62,93.29C43.2,93.03 43.78,92.77 44.37,92.52C44.9,94.96 45.44,97.4 45.96,99.84L48.68,98.89L49.08,100.73C50.05,99.54 51.14,98.27 51.78,96.88C51.72,95.21 50.96,93.52 50.48,91.94C50.89,91.28 51.3,90.62 51.72,89.96C52.61,92.84 53.6,95.6 55.23,98.15C56.41,94.96 54.34,92.08 53.5,88.98L55.96,88.57C58.89,86.71 60.15,85.28 61.13,81.92C58.19,80.98 55.76,80.07 53.8,77.59C55.68,74.46 57.63,71.75 57.86,67.96C57.74,66.03 56.81,64.09 56.21,62.26C54.9,56.39 53.74,50.36 55.51,44.45C57.69,36.54 64.05,30.07 72.03,28.02Z" style="fill-rule:nonzero;"/>
                    <path d="M85.19,29.09C87.79,29.35 91.42,28.78 92.41,31.92C89.99,31.81 87.53,31.74 85.18,31.07L85.19,29.09Z" style="fill-rule:nonzero;"/>
                    <path d="M100.91,64.68C100.26,72.59 98.56,80.39 97.91,88.31C97.53,87.93 97.14,87.55 96.76,87.17C97.13,81.75 97.64,76.37 98.47,71C98.82,68.66 99.86,66.75 100.91,64.68Z" style="fill:rgb(143,0,24);fill-rule:nonzero;"/>
                    <path d="M62.07,66.46C61.82,68.96 61.31,71.35 60.6,73.75C61.1,74.08 61.6,74.4 62.09,74.72C60.46,75.51 58.84,76.31 57.22,77.12C59.11,73.73 59.5,69.34 62.07,66.46Z" style="fill:rgb(143,0,24);fill-rule:nonzero;"/>
                    <path d="M93.65,72.24C94.04,72.77 94.43,73.3 94.83,73.83C91.02,73.78 87.25,74.07 83.46,74.29C87.01,72.45 89.64,72.02 93.65,72.24Z" style="fill-rule:nonzero;"/>
                    <path d="M93.13,75.83C93.18,76.6 93.24,77.37 93.3,78.14C91.46,77.9 89.63,77.7 87.79,77.57C87.85,76.99 87.9,76.41 87.95,75.84C89.64,75.69 91.42,75.88 93.13,75.83Z" style="fill-rule:nonzero;"/>
                    <path d="M64.55,77.58C66.61,79.66 68.67,81.35 69.88,84.1C71.63,87.9 73.18,91.78 75.04,95.53C74.62,92.04 74.05,88.56 73.41,85.1C75.99,87.08 78.59,89.01 81.21,90.93C80.5,93.08 79.79,95.24 79.12,97.41C81.52,95.14 83.81,92.76 86.08,90.37C85.52,92.49 84.92,94.6 84.29,96.7C87.05,95.87 89.82,95.11 92.64,94.53C87.62,98.11 82.04,98.85 76.27,100.39L75.14,102.49C81.1,101.62 86.73,100 92.17,97.4L93.16,99.08C89.35,101.03 85.64,102.38 81.49,103.44C79.01,104.03 77.05,105.18 75.03,106.69C73,105.2 71.02,104.04 68.54,103.44C64.4,102.37 60.72,100.99 56.91,99.05L57.89,97.41C63.32,99.88 68.89,101.52 74.76,102.54C71.3,97.62 69.49,92.09 67.1,86.64C67.52,90.79 68.23,94.89 68.8,99.02C65.68,98.09 62.2,97.28 59.38,95.61C57.89,94.79 57.38,92.74 56.67,91.29C58.54,89.81 60.99,88.35 62.25,86.28C63.4,83.54 63.81,80.45 64.55,77.58Z" style="fill:rgb(143,0,24);fill-rule:nonzero;"/>
                    <path d="M53.5,88.98C54.34,92.08 56.41,94.96 55.23,98.15C53.6,95.6 52.61,92.84 51.72,89.96C51.3,90.62 50.89,91.28 50.48,91.94C50.96,93.52 51.72,95.21 51.78,96.88C51.14,98.27 50.05,99.54 49.08,100.73L48.68,98.89L45.96,99.84C45.44,97.4 44.9,94.96 44.37,92.52C47.4,91.33 50.38,89.94 53.5,88.98Z" style="fill:rgb(143,0,24);fill-rule:nonzero;"/>
                    <path d="M96.61,89.05C99.69,89.99 102.63,91.37 105.62,92.54C105.13,94.84 104.62,97.14 104.13,99.44C102.5,99.46 100.88,99.55 99.26,99.59L99.41,98.7C97.05,96.71 99.07,94.31 99.54,91.94C99.12,91.29 98.7,90.63 98.28,89.98C97.4,92.86 96.44,95.63 94.8,98.18C93.55,94.98 95.72,92.09 96.61,89.05Z" style="fill:rgb(143,0,24);fill-rule:nonzero;"/>
                    <path d="M42.81,94.78C44.45,103.76 44.31,112.71 39.38,120.68C40.16,116.29 41.12,111.93 41.74,107.51C39.57,110.6 38.08,113.79 34.52,115.52C30.04,117.72 24.94,118.91 20.08,119.95C19.99,112.27 22.55,104.58 28.67,99.67C32.95,96.33 37.65,95.76 42.81,94.78Z" style="fill:rgb(143,0,24);fill-rule:nonzero;"/>
                    <path d="M107.21,94.83C112.78,95.58 118.15,96.69 122.45,100.57C127.83,105.58 129.96,112.73 129.92,119.93C125.07,118.91 119.97,117.74 115.51,115.5C111.95,113.71 110.42,110.58 108.27,107.43C108.88,111.93 109.88,116.34 110.7,120.8C105.78,112.85 105.5,103.8 107.21,94.83Z" style="fill:rgb(143,0,24);fill-rule:nonzero;"/>
                    <path d="M53.72,99.58C57.94,102.1 62.16,104.08 66.95,105.28C69.74,105.92 71.8,107.24 73.93,109.09C73.82,114.35 74.2,119.69 73.74,124.93C73.36,127.67 70.47,129.24 67.99,129.69C63.15,130.71 58.12,131.61 53.17,131.56C47.86,131.01 44.67,126.7 41.57,122.86C44.83,115.96 46.28,109.81 46.18,102.16C48.63,101.08 51.07,100.06 53.72,99.58Z" style="fill:rgb(143,0,24);fill-rule:nonzero;"/>
                    <path d="M96.33,99.57C99.11,100.01 101.62,101.09 104.11,102.36C103.65,109.82 105.26,116.22 108.46,122.88C105.33,126.77 102.2,131.01 96.82,131.55C91.6,131.54 86.25,130.66 81.17,129.49C78.61,128.88 76.1,126.86 76.15,124.03C75.94,119.07 76.14,114.09 76.06,109.13C78.19,107.26 80.25,105.94 83.05,105.28C87.91,104.04 92.05,102.16 96.33,99.57Z" style="fill:rgb(143,0,24);fill-rule:nonzero;"/>
                    <path d="M74,129.99C74.11,131.99 74.26,133.98 74.47,135.97C74.24,138.2 74.09,140.44 73.96,142.68C67.07,142.59 60.37,142.09 53.81,139.83C53.43,138.39 53.06,136.94 52.68,135.49C59.67,134.33 67.84,133.73 74,129.99Z" style="fill:rgb(143,0,24);fill-rule:nonzero;"/>
                    <path d="M75.99,129.99C82.18,133.69 90.3,134.35 97.31,135.48C96.96,136.92 96.61,138.36 96.26,139.79C89.69,142.02 82.95,142.63 76.05,142.69C75.91,140.45 75.76,138.21 75.53,135.98C75.74,133.98 75.89,131.99 75.99,129.99Z" style="fill:rgb(143,0,24);fill-rule:nonzero;"/>
                    <path d="M44.49,131.45C46.42,132.51 48.35,133.58 50.28,134.64C50.52,135.96 50.75,137.28 50.97,138.61C48.93,137.54 46.61,136.33 44.99,134.64L44.49,131.45Z" style="fill:rgb(143,0,24);fill-rule:nonzero;"/>
                    <path d="M105.38,131.48C105.3,132.57 105.21,133.65 105.12,134.74C103.26,136.2 101.26,137.45 99.16,138.54C99.33,137.25 99.51,135.95 99.7,134.66C101.59,133.61 103.49,132.55 105.38,131.48Z" style="fill:rgb(143,0,24);fill-rule:nonzero;"/>
                </g>
            </g>
        </g>
    </g>
</svg>
