<?xml version="1.0" encoding="UTF-8" standalone="no"?>
<!DOCTYPE svg PUBLIC "-//W3C//DTD SVG 1.1//EN" "http://www.w3.org/Graphics/SVG/1.1/DTD/svg11.dtd">
<svg width="100%" height="100%" viewBox="0 0 513 513" version="1.1" xmlns="http://www.w3.org/2000/svg" xmlns:xlink="http://www.w3.org/1999/xlink" xml:space="preserve" xmlns:serif="http://www.serif.com/" style="fill-rule:evenodd;clip-rule:evenodd;stroke-linejoin:round;stroke-miterlimit:2;">
    <g transform="matrix(1,0,0,1,-1952,-7609)">
        <g id="Cougar" transform="matrix(1,0,0,1,-295.595761,7609.647578)">
            <rect x="2248" y="0" width="512" height="512" style="fill:none;"/>
            <g transform="matrix(0.381424,0,0,0.381424,2115.827541,-134.555979)">
                <path d="M1445.21,444.98L1448.89,440.213L1449.83,440.251L1449.59,444.353C1449.17,446.812 1445.82,466.899 1445.45,467.751C1444.06,476.495 1442.45,488.437 1439.67,496.558C1437.78,514.238 1428.46,542.339 1422.86,559.027C1441.68,552.192 1451.55,546.805 1466.04,532.556L1469.59,533.197C1448.21,584.971 1424.93,624.558 1379.3,659.589C1389.73,661.694 1400.17,662.891 1410.57,664.979C1490.58,681.054 1555.9,735.932 1609.18,794.961C1618.58,805.369 1627.82,814.779 1636.7,825.713C1643.21,833.326 1664.25,858.87 1669.18,867.071C1640.94,848.678 1600.39,820.876 1567.86,811.101L1566.63,810.721L1565.89,810.505C1573.66,823.605 1584.02,838.679 1590.79,851.706C1649.56,964.731 1662.61,1069.34 1631.32,1192C1629.28,1199.88 1627.18,1207.75 1625.04,1215.6L1621.31,1213.83C1617.36,1171.34 1593.63,1125.23 1569.85,1090.6C1563.48,1081.32 1553.96,1066.58 1545.29,1059.48C1574.37,1130.64 1584.41,1191.43 1553.64,1265.69C1505.17,1382.67 1380.77,1452.53 1269.46,1499.03C1167.02,1541.83 1056,1564.77 947.401,1586.02C920.809,1591.16 894.147,1595.94 867.423,1600.35C853.157,1602.78 834.048,1606.5 820.016,1607.67C899.868,1565.03 1182.71,1421.26 1117.44,1300.81C1107.87,1283.21 1091.63,1270.18 1072.36,1264.65C1044.79,1256.64 1016.88,1263.41 992.486,1277.33C937.114,1308.93 901.528,1363.55 879.935,1421.82C905.965,1432.5 931.286,1434.62 959.094,1432.73L959.861,1435.81C920.825,1453.7 890.519,1455.17 848.662,1459.13C877.686,1479.17 893.636,1482.18 926.385,1489.87C924.963,1490.38 923.529,1490.85 922.082,1491.28C911.345,1494.52 897.996,1495.88 886.864,1496.55C838.716,1499.46 797.353,1487.41 755.37,1464.94C768.503,1485.45 790.405,1507.66 810.734,1521.36C801.43,1519.6 792.249,1517.23 783.253,1514.27C738.141,1499.23 680.833,1452.17 659.569,1409.83C693.156,1417.34 717.708,1411.66 748.402,1396.73C778.869,1382.15 805.852,1361.19 827.528,1335.29C830.398,1331.8 835.89,1325.64 837.226,1321.78L835.138,1321.03C826.632,1329.48 803.94,1342.71 792.385,1346.79C776.898,1337.22 764.757,1325.93 754.958,1310.64C766.096,1296.9 776.161,1287.33 785.144,1271.29C803.115,1239.2 809.998,1198.24 800.326,1162.67C790.325,1125.68 762.07,1096.4 725.465,1085.09C719.085,1083.16 701.264,1080.23 697.152,1077.35C689.097,1078.67 661.055,1082.7 655.347,1086.73C633.401,1102.25 620.832,1117.63 594.363,1128.71C549.259,1147.58 511.14,1135.05 468.258,1117.54C463.58,1107.84 461.286,1099.46 455.737,1089.02C473.009,1074.62 513.93,1028.19 528.871,1010.12C497.717,1000.67 479.197,1009.95 450.982,1022.54C422.175,1035.4 397.649,1045.79 366.205,1050.76L366.533,1050.19C387.492,1012.93 427.23,972.97 454.384,939.306C471.029,918.67 491.049,899.554 507.823,878.436C503.18,867.991 493.453,850.569 490.363,841.124C534.913,795.639 669.168,716.5 730.138,698.815C727.663,701.192 701.659,715.671 695.497,719.568C648.634,749.196 598.896,788.353 575.593,840.019C569.144,854.317 566.347,867.615 562.939,882.692C571.578,863.72 593.367,834.411 608.82,818.298C692.791,730.749 822.764,684.784 938.989,660.866C969.531,654.58 1008.27,652.164 1038.25,650.634L1042.5,650.218C1042.81,654.072 1039.17,678.488 1037.56,681.993C1037.76,683.301 1038.12,684.022 1038.58,685.282C1042.52,681.7 1048.39,667.026 1051.75,661.943C1090.97,602.56 1161.07,580.747 1226.61,565.111C1239.94,561.931 1253.84,557.203 1266.91,553.001C1316.73,536.984 1365.53,515.354 1406.86,482.788C1420.89,471.718 1433.31,458.353 1445.21,444.98ZM955.722,1566.66L961.43,1564.92C962.723,1564.63 963.631,1564.41 964.897,1564.01C969.505,1563.13 979.514,1560.34 984.093,1558.77C986.377,1556.66 991.598,1549.79 986.408,1548.54C978.121,1546.55 974.432,1553.25 965.501,1554.16C961.913,1554.53 947.766,1562.53 948.829,1568.53C951.226,1567.95 953.355,1567.35 955.722,1566.66ZM1174.59,1362.23C1174.16,1360.87 1172.14,1352.86 1171.52,1352.46C1168.53,1350.54 1164.21,1356.2 1166.15,1358.91C1168.09,1361.62 1169.47,1364.19 1172.6,1363.52L1174.59,1362.23ZM939.546,761.228C944.579,760.055 949.813,759.225 954.913,758.254L940.177,757.8C798.824,750.478 615.403,846.969 542.935,968.072C570.643,960.797 589.337,948.584 609.744,928.2C683.667,952.438 745.712,928.861 778.764,856.555C786.276,840.121 789.706,823.861 793.362,806.335C829.497,791.863 859.54,782.098 897.433,771.966C908.758,768.937 929.682,764.359 939.546,761.228ZM1097.63,1032.66C1094.2,1028.7 1090.26,1023.85 1086.77,1020.13C1078.13,1021.58 1081.9,1023.89 1084.71,1029.69L1084.97,1029.74C1089.03,1030.49 1093.62,1031.66 1097.63,1032.66ZM944.511,1077.09L943.334,1077.34C940.07,1078.01 940.272,1074.56 937.568,1073.51L937.574,1073.55L936.602,1074.41C936.901,1078.43 937.23,1078.92 938.102,1082.73C939.342,1084.08 939.488,1084.27 940.897,1085.4C941.375,1085.95 948.497,1095.19 947.342,1089.19C946.939,1087.03 946.497,1084.87 946.014,1082.72C945.601,1080.76 945.228,1078.97 944.511,1077.09ZM1363.48,598.148C1367.93,588.581 1370.79,587.015 1359.74,589.879C1361.27,594.759 1360.23,594.166 1363.48,598.148ZM940.171,1192.05C954.517,1181.79 968.196,1171.53 983.727,1163.11C1031.64,1137.72 1086.55,1128.69 1140.07,1137.41C1181.26,1144.1 1221.08,1165.12 1253.24,1191.48C1263.1,1199.56 1272.97,1209.93 1282.58,1218.61C1317.1,1100.39 1269.58,977.49 1184.2,893.627C1179.62,891.367 1170.03,880.649 1166.01,876.368C1138.81,871.932 1120.07,870.49 1093.2,859.511C1140.9,913.622 1181.13,970.852 1205.67,1039.3C1211.07,1054.37 1216,1069.56 1220.92,1084.79C1149.98,1067.89 1075.24,1079.84 1013.11,1118.02C983.282,1136.58 958.285,1161.95 940.171,1192.05ZM1166.2,1371.32L1165.19,1367.36C1161.65,1370.77 1159.3,1371.09 1161.22,1376.12C1162.96,1374.52 1164.52,1372.99 1166.2,1371.32ZM1397.9,730.987C1400.55,730.54 1403.2,730.073 1405.85,729.587C1406.06,729.615 1391.17,727.584 1396.68,730.378L1397.9,730.987Z" style="fill-rule:nonzero;"/>
            </g>
            <g transform="matrix(0.381424,0,0,0.381424,2115.827541,-134.555979)">
                <path d="M948.829,1568.53C947.766,1562.53 961.913,1554.53 965.501,1554.16C974.432,1553.25 978.121,1546.55 986.408,1548.54C991.598,1549.79 986.377,1556.66 984.093,1558.77C979.514,1560.34 969.505,1563.13 964.897,1564.01C963.956,1559.82 957.113,1561.9 954.064,1562.61C953.064,1565.79 952.552,1565.6 955.722,1566.66C953.355,1567.35 951.226,1567.95 948.829,1568.53Z" style="fill-rule:nonzero;"/>
            </g>
            <g transform="matrix(0.381424,0,0,0.381424,2115.827541,-134.555979)">
                <path d="M1172.6,1363.52C1169.47,1364.19 1168.09,1361.62 1166.15,1358.91C1164.21,1356.2 1168.53,1350.54 1171.52,1352.46C1172.14,1352.86 1174.16,1360.87 1174.59,1362.23L1172.6,1363.52Z" style="fill-rule:nonzero;"/>
            </g>
            <g transform="matrix(0.381424,0,0,0.381424,2115.827541,-134.555979)">
                <path d="M1165.19,1367.36L1166.2,1371.32C1164.52,1372.99 1162.96,1374.52 1161.22,1376.12C1159.3,1371.09 1161.65,1370.77 1165.19,1367.36Z" style="fill-rule:nonzero;"/>
            </g>
            <g transform="matrix(0.381424,0,0,0.381424,2115.827541,-134.555979)">
                <path d="M954.064,1562.61C957.113,1561.9 963.956,1559.82 964.897,1564.01C963.631,1564.41 962.723,1564.63 961.43,1564.92C959.414,1563.58 958.388,1562.93 955.981,1562.77L954.064,1562.61Z" style="fill-rule:nonzero;"/>
            </g>
            <g transform="matrix(0.381424,0,0,0.381424,2115.827541,-134.555979)">
                <path d="M954.064,1562.61L955.981,1562.77C958.388,1562.93 959.414,1563.58 961.43,1564.92L955.722,1566.66C952.552,1565.6 953.064,1565.79 954.064,1562.61Z" style="fill-rule:nonzero;"/>
            </g>
            <g transform="matrix(0.381424,0,0,0.381424,2115.827541,-134.555979)">
                <path d="M1397.9,730.987L1396.68,730.378C1391.17,727.584 1406.06,729.615 1405.85,729.587C1403.2,730.073 1400.55,730.54 1397.9,730.987Z" style="fill:rgb(15,108,15);fill-rule:nonzero;"/>
            </g>
            <g transform="matrix(0.381424,0,0,0.381424,2115.827541,-134.555979)">
                <path d="M1405.85,729.587C1475.76,739.457 1530.8,759.224 1591.4,795.39C1600.82,800.951 1609.97,806.94 1618.84,813.339C1623,816.299 1632.59,823.588 1636.7,825.713C1643.21,833.326 1664.25,858.87 1669.18,867.071C1640.94,848.678 1600.39,820.876 1567.86,811.101L1566.63,810.721L1565.89,810.505C1573.66,823.605 1584.02,838.679 1590.79,851.706C1649.56,964.731 1662.61,1069.34 1631.32,1192C1629.28,1199.88 1627.18,1207.75 1625.04,1215.6L1621.31,1213.83C1617.36,1171.34 1593.63,1125.23 1569.85,1090.6C1563.48,1081.32 1553.96,1066.58 1545.29,1059.48C1574.37,1130.64 1584.41,1191.43 1553.64,1265.69C1505.17,1382.67 1380.77,1452.53 1269.46,1499.03C1167.02,1541.83 1056,1564.77 947.401,1586.02C920.809,1591.16 894.147,1595.94 867.423,1600.35C853.157,1602.78 834.048,1606.5 820.016,1607.67C899.868,1565.03 1182.71,1421.26 1117.44,1300.81C1107.87,1283.21 1091.63,1270.18 1072.36,1264.65C1044.79,1256.64 1016.88,1263.41 992.486,1277.33C937.114,1308.93 901.528,1363.55 879.935,1421.82C876.932,1420.04 874.81,1417.96 872.2,1415.66C872.339,1414.76 872.492,1413.85 872.658,1412.95C885.145,1344.18 917.651,1293.15 974.705,1252.63C1072.31,1183.32 1183.15,1231.66 1158.35,1359.54C1156.38,1369.4 1153.72,1377.62 1149.93,1386.96C1153.54,1383.7 1158.19,1379.8 1161.22,1376.12C1162.96,1374.52 1164.52,1372.99 1166.2,1371.32C1168.91,1368.42 1170.22,1366.73 1172.6,1363.52L1174.59,1362.23C1201.71,1327.97 1207.69,1310.83 1222.25,1271.9C1257.25,1406.87 1054.64,1496.6 960.428,1549.3C943.093,1558.99 918.496,1571.17 900.286,1578.64L904.209,1580.4C918.978,1576.11 933.567,1573.25 948.829,1568.53C951.226,1567.95 953.355,1567.35 955.722,1566.66L961.43,1564.92C962.723,1564.63 963.631,1564.41 964.897,1564.01C969.505,1563.13 979.514,1560.34 984.093,1558.77C1005.46,1553.88 1041.43,1541.5 1062.32,1534.01C1196.99,1485.73 1327.67,1409.38 1422.96,1301.51C1477.81,1239.42 1522.21,1156.2 1514.76,1071.58C1506.59,978.799 1461.28,913.115 1393.7,854.251C1473.32,880.519 1553.73,931.441 1596.98,1004.96C1594.6,989.456 1589.8,972.992 1585.53,957.821C1556.23,853.785 1493.61,781.613 1397.9,730.987C1400.55,730.54 1403.2,730.073 1405.85,729.587Z" style="fill:rgb(15,108,15);fill-rule:nonzero;"/>
            </g>
            <g transform="matrix(0.381424,0,0,0.381424,2115.827541,-134.555979)">
                <path d="M900.286,1578.64L904.209,1580.4C902.738,1580.66 895.786,1582.32 894.867,1581.34C895.133,1580.09 899.25,1578.97 900.286,1578.64Z" style="fill:rgb(21,1,25);fill-rule:nonzero;"/>
            </g>
            <g transform="matrix(0.381424,0,0,0.381424,2115.827541,-134.555979)">
                <path d="M697.152,1077.35C738.837,1068.91 784.542,1067.86 821.108,1093.04C890.831,1141.04 894.469,1237.36 847.052,1302.55C844.606,1305.93 835.602,1317.79 835.138,1321.03C826.632,1329.48 803.94,1342.71 792.385,1346.79C776.898,1337.22 764.757,1325.93 754.958,1310.64C766.096,1296.9 776.161,1287.33 785.144,1271.29C803.115,1239.2 809.998,1198.24 800.326,1162.67C790.325,1125.68 762.07,1096.4 725.465,1085.09C719.085,1083.16 701.264,1080.23 697.152,1077.35Z" style="fill:rgb(15,108,15);fill-rule:nonzero;"/>
            </g>
            <g transform="matrix(0.381424,0,0,0.381424,2115.827541,-134.555979)">
                <path d="M1359.74,589.879C1361.27,594.759 1360.23,594.166 1363.48,598.148C1346.99,632.354 1332.88,647.476 1303.21,671.745C1357.95,728.022 1355.79,801.207 1299.47,856.135C1275.35,879.655 1237.19,895.805 1203.28,894.97C1196.91,894.839 1190.54,894.39 1184.2,893.627C1179.62,891.367 1170.03,880.649 1166.01,876.368C1223.55,873.47 1280.63,835.567 1287.52,775.213C1289.81,751.456 1285.37,725.086 1269.39,706.124C1232.87,662.778 1162.64,676.005 1154.44,735.549C1153.85,739.87 1155.9,748.375 1160.53,749.939C1170.68,753.371 1185.42,751.989 1196.36,751.889C1201.06,754.911 1208.91,760.242 1210.06,765.885C1219.5,812.356 1166.95,826.911 1134.04,811.381C1116.34,803.01 1102.69,787.941 1096.12,769.497C1088.02,746.555 1090.83,720.457 1101.16,698.634C1134.34,628.575 1220.91,623.306 1289.25,609.516C1313.14,604.457 1336.68,597.899 1359.74,589.879Z" style="fill:rgb(15,108,15);fill-rule:nonzero;"/>
            </g>
            <g transform="matrix(0.381424,0,0,0.381424,2115.827541,-134.555979)">
                <path d="M834.519,894.533C928.502,907.689 1026.08,943.358 1086.77,1020.13C1078.13,1021.58 1081.9,1023.89 1084.71,1029.69C1054,1022.29 1021.78,1018.53 990.39,1015.61C963.613,1013.11 936.276,1014.85 909.486,1013.72C925.88,1028.06 939.334,1056.15 944.511,1077.09L943.334,1077.34C940.07,1078.01 940.272,1074.56 937.568,1073.51L937.574,1073.55L936.602,1074.41C936.901,1078.43 937.23,1078.92 938.102,1082.73C933.394,1077.89 928.444,1073.29 923.27,1068.95C864.507,1019.57 806.021,1014.75 733.636,1021.31C765.851,994.318 842.322,976.481 884.598,972.786C898.909,971.535 918.45,972.127 934.062,971.034C937.256,970.123 938.18,970.173 940.93,968.426C878.228,951.437 815.433,946.423 751.378,959.568C748.735,959.96 748.628,959.893 745.941,959.615C746.734,957.308 748.393,956.911 750.94,955.175L834.519,894.533Z" style="fill:rgb(15,108,15);fill-rule:nonzero;"/>
            </g>
            <g transform="matrix(0.381424,0,0,0.381424,2115.827541,-134.555979)">
                <path d="M940.93,968.426C941.944,968.636 945.973,969.291 946.261,970.076C946.852,971.685 935.449,971.044 934.062,971.034C937.256,970.123 938.18,970.173 940.93,968.426Z" style="fill:rgb(21,1,25);fill-rule:nonzero;"/>
            </g>
            <g transform="matrix(0.381424,0,0,0.381424,2115.827541,-134.555979)">
                <path d="M764.951,814.064L765.511,814.462C765.93,816.099 766.237,816.25 765.833,817.733C748.076,882.895 702.533,927.858 631.708,912.352L626.45,910.017L626.039,908.652C629.085,904.067 640.069,893.994 644.659,890.036C679.343,860.134 721.32,828.648 764.951,814.064Z" style="fill:rgb(15,108,15);fill-rule:nonzero;"/>
            </g>
            <g transform="matrix(0.381424,0,0,0.381424,2115.827541,-134.555979)">
                <path d="M623.906,910.765C624.534,914.072 624.684,915.644 621.068,916.431C618.02,914.706 621.821,912.76 623.906,910.765Z" style="fill:white;fill-opacity:0.25;fill-rule:nonzero;"/>
            </g>
            <g transform="matrix(0.381424,0,0,0.381424,2115.827541,-134.555979)">
                <path d="M1084.71,1029.69C1081.9,1023.89 1078.13,1021.58 1086.77,1020.13C1090.26,1023.85 1094.2,1028.7 1097.63,1032.66C1093.62,1031.66 1089.03,1030.49 1084.97,1029.74L1084.71,1029.69Z" style="fill:rgb(15,108,15);fill-rule:nonzero;"/>
            </g>
            <g transform="matrix(0.381424,0,0,0.381424,2115.827541,-134.555979)">
                <path d="M938.102,1082.73C937.23,1078.92 936.901,1078.43 936.602,1074.41L937.574,1073.55L937.568,1073.51C940.272,1074.56 940.07,1078.01 943.334,1077.34L944.511,1077.09C945.228,1078.97 945.601,1080.76 946.014,1082.72C943.762,1081.39 941.44,1082.92 940.897,1085.4C939.488,1084.27 939.342,1084.08 938.102,1082.73Z" style="fill:rgb(15,108,15);fill-rule:nonzero;"/>
            </g>
            <g transform="matrix(0.381424,0,0,0.381424,2115.827541,-134.555979)">
                <path d="M1359.74,589.879C1370.79,587.015 1367.93,588.581 1363.48,598.148C1360.23,594.166 1361.27,594.759 1359.74,589.879Z" style="fill:rgb(15,108,15);fill-rule:nonzero;"/>
            </g>
            <g transform="matrix(0.381424,0,0,0.381424,2115.827541,-134.555979)">
                <path d="M940.897,1085.4C941.44,1082.92 943.762,1081.39 946.014,1082.72C946.497,1084.87 946.939,1087.03 947.342,1089.19C948.497,1095.19 941.375,1085.95 940.897,1085.4Z" style="fill:rgb(15,108,15);fill-rule:nonzero;"/>
            </g>
            <g transform="matrix(0.381424,0,0,0.381424,2115.827541,-134.555979)">
                <path d="M940.177,757.8L954.913,758.254C949.813,759.225 944.579,760.055 939.546,761.228L940.177,757.8Z" style="fill:white;fill-opacity:0.02;fill-rule:nonzero;"/>
            </g>
            <g transform="matrix(0.381424,0,0,0.381424,2115.827541,-134.555979)">
                <path d="M1070.38,487.001L1076.08,475.998C1075.66,493.976 1075.23,514.143 1071.65,531.643C1071.99,541.363 1065.61,562.518 1062.67,572.409C1080.74,565.528 1087.25,560.695 1098.49,545.035C1091.08,578.31 1082.08,594.907 1057.85,619.954C1041.65,620.61 1027.14,622.057 1011.1,623.209C1007.38,623.696 994.07,625.688 991.067,625.652C972.888,629.354 954.577,631.641 935.596,635.638C892.653,644.954 850.33,656.928 808.872,671.492C813.189,664.989 817.979,661.128 823.256,655.796C850.24,628.292 886.784,615.939 921.284,600.805C982.651,573.884 1032.26,543.816 1070.38,487.001Z" style="fill-rule:nonzero;"/>
            </g>
            <g transform="matrix(0.381424,0,0,0.381424,2115.827541,-134.555979)">
                <path d="M692.096,1284.86C720.137,1322.26 738.229,1336.79 780.538,1356.43C759.906,1370.8 718.63,1393.55 693.605,1394.74C678.224,1395.48 665.985,1390.75 654.646,1380.66C637.464,1361.96 632.182,1341.04 637.194,1316.25C656.863,1343.06 682.604,1366.03 713.879,1378.11C697.891,1336.83 690.862,1332.31 692.096,1284.86Z" style="fill-rule:nonzero;"/>
            </g>
            <g transform="matrix(0.381424,0,0,0.381424,2115.827541,-134.555979)">
                <path d="M501.612,1157.37C505.311,1156.7 536.384,1155.59 538.288,1160.81C540.452,1166.75 538.665,1178.7 539.551,1185.12C543.44,1213.29 558.083,1237.68 573.95,1259.72C567.029,1257.56 559.391,1253.78 552.709,1250.7C522.586,1236.63 480.727,1199.23 468.078,1168.45C481.43,1159.77 485.697,1159.35 501.612,1157.37Z" style="fill-rule:nonzero;"/>
            </g>
            <g transform="matrix(0.381424,0,0,0.381424,2115.827541,-134.555979)">
                <path d="M578.86,1156.63C606.82,1144.89 622.492,1129.58 646.115,1117.31C644.752,1123.18 643.614,1129.13 641.397,1134.71C635.714,1169.85 640.29,1191.19 654.224,1223.38C655.18,1224.83 658.339,1232.02 659.26,1234.01C624.282,1213.8 600.137,1191.71 578.86,1156.63Z" style="fill-rule:nonzero;"/>
            </g>
            <g transform="matrix(0.381424,0,0,0.381424,2115.827541,-134.555979)">
                <path d="M377.71,1079.4C393.113,1082.79 435.43,1089.13 441.062,1102.98C449.977,1124.9 451.341,1123.92 467.749,1141.75C461.657,1144.14 459.636,1144.73 454.104,1148.36C446.691,1155.59 447.675,1154.75 443.475,1163.84L442.482,1163.33C417.436,1150.56 388.164,1105.24 377.71,1079.4Z" style="fill-rule:nonzero;"/>
            </g>
            <g transform="matrix(0.381424,0,0,0.381424,2115.827541,-134.555979)">
                <path d="M402.326,1062.69C433.982,1051.24 463.049,1036.44 494.06,1024.61C477.374,1043.98 458.796,1061.93 441.181,1080.42C427.434,1074.09 413.132,1071.69 399.428,1066.25L397.875,1065.65C398.85,1064.87 399.811,1064.08 400.758,1063.27L402.326,1062.69Z" style="fill:rgb(15,108,15);fill-rule:nonzero;"/>
            </g>
            <g transform="matrix(0.381424,0,0,0.381424,2115.827541,-134.555979)">
                <path d="M388.817,1063.89C391.733,1061.69 396.931,1059.62 399.929,1062.5L400.758,1063.27C399.811,1064.08 398.85,1064.87 397.875,1065.65C397.429,1064.02 392.516,1064.96 388.817,1063.89Z" style="fill:rgb(15,108,15);fill-rule:nonzero;"/>
            </g>
            <g transform="matrix(0.381424,0,0,0.381424,2115.827541,-134.555979)">
                <path d="M1621.31,1213.83L1625.04,1215.6C1625.03,1215.61 1624.29,1217.23 1624.31,1217.26C1624.49,1217.54 1623.09,1220.18 1622.58,1219.36C1621.76,1218.06 1621.63,1215.47 1621.31,1213.83Z" style="fill:rgb(15,108,15);fill-rule:nonzero;"/>
            </g>
            <g transform="matrix(0.381424,0,0,0.381424,2115.827541,-134.555979)">
                <path d="M1466.04,532.556C1466.91,531.658 1469.32,528.61 1470.4,528.503C1471.18,529.118 1469.86,532.242 1469.59,533.197L1466.04,532.556Z" style="fill-opacity:0.93;fill-rule:nonzero;"/>
            </g>
            <g transform="matrix(0.381424,0,0,0.381424,2115.827541,-134.555979)">
                <path d="M959.094,1432.73C960.039,1432.56 964.07,1431.35 964.531,1432.68C964.135,1433.6 961.178,1435.02 960.33,1435.53L959.861,1435.81L959.094,1432.73Z" style="fill-opacity:0.93;fill-rule:nonzero;"/>
            </g>
        </g>
    </g>
</svg>
