<?xml version="1.0" encoding="UTF-8" standalone="no"?>
<!DOCTYPE svg PUBLIC "-//W3C//DTD SVG 1.1//EN" "http://www.w3.org/Graphics/SVG/1.1/DTD/svg11.dtd">
<svg width="100%" height="100%" viewBox="0 0 477 425" version="1.1" xmlns="http://www.w3.org/2000/svg" xmlns:xlink="http://www.w3.org/1999/xlink" xml:space="preserve" xmlns:serif="http://www.serif.com/" style="fill-rule:evenodd;clip-rule:evenodd;stroke-linejoin:round;stroke-miterlimit:2;">
    <g transform="matrix(1,0,0,1,-17.879371,-43.813962)">
        <g transform="matrix(1,0,0,1,-7768.404239,0)">
            <g transform="matrix(1.715415,0,0,1.715415,7134.734685,-70.505582)">
                <path d="M465.98,66.65C475.59,67.3 484.84,70.6 492.66,76.24C498.58,80.59 505.07,84.64 509.95,90.03C513.18,93.41 515.54,97.29 519.19,100.29C518.87,97.84 518.54,95.42 517.98,93C518.7,94.81 519.46,96.82 520.74,98.31C523.35,100.65 526.36,101.62 528.08,104.93C532.19,112.37 537.03,120.61 537.98,129.12C532.87,126.08 527.72,124.92 524.03,119.97C514.68,107.97 502.52,97.76 488.71,91.3C482.8,88.42 476.01,86.83 469.59,85.48C457.68,83.44 445.31,85.47 434.12,89.83C447.26,87.3 460.32,86.63 473.26,90.64C488.9,95.92 502.35,105.23 513.94,116.86C507.69,115.11 502.07,112.81 495.47,112.61C490.14,112.26 485.82,114.1 480.77,115.4C476.76,115.47 472.76,115.27 468.76,115.31C469.69,113.35 470.74,111.46 471.84,109.59C463.38,107.98 453.78,111.53 445.88,114.41C447.73,108.5 451.66,104.38 455.65,99.85C448.52,102.6 443.92,107.69 437.62,111.64C433.44,113.93 428.65,115.35 423.98,116.24C419.79,116.99 415.87,115.46 411.6,114.69C403.92,113.55 398.62,104.95 400.37,97.53C400.2,92.55 403.22,90.02 405.8,86.18C410.12,84.91 413.8,82.31 418.11,81.05C421.27,80.12 424.72,79.69 427.99,79.24C424.06,77.89 420.04,77.2 415.94,76.65C426.64,69.64 440.7,66.47 453.21,69.79C458.52,71.07 462.99,73.59 467.82,75.99C466.14,73.1 464.29,70.33 462.43,67.55C463.6,66.89 464.78,66.59 465.98,66.65Z" style="fill:rgb(240,69,49);fill-rule:nonzero;"/>
                <path d="M540.88,90.08C551.44,91.37 561.09,96.85 571.27,99.55C575.14,100.59 579.96,100.55 583.44,102.48C585.08,103.44 585.74,105 586.25,106.75C589.63,119.54 592.32,132.5 595.87,145.24C597.42,151.17 597.64,156.9 598.18,162.99C595.29,161.88 592.44,160.66 589.64,159.36C588.99,155.7 588.33,152.05 587.61,148.41C579.33,145.6 570.79,143.64 562.13,142.48C556.53,141.78 552.9,138.59 548.31,135.71C544.85,133.54 541.45,131.27 537.98,129.12C537.03,120.61 532.19,112.37 528.08,104.93C526.36,101.62 523.35,100.65 520.74,98.31C519.46,96.82 518.7,94.81 517.98,93C517.67,91.93 517.36,90.86 517.04,89.79C524.86,87.81 532.97,89.11 540.88,90.08Z" style="fill:rgb(23,39,64);fill-rule:nonzero;"/>
                <path d="M551.06,100.32C555.69,101.85 560.18,103.64 564.72,105.41C569.3,107.25 574.08,108.49 578.68,110.29C581.74,120.31 583.8,130.78 585.89,141.05C582.07,140.19 576.8,139.72 573.63,137.48C573.26,130.2 574.56,122.28 572.09,115.09C571.59,113.54 570.56,112.6 569.22,111.75C563.34,108 556.41,104.82 551.06,100.32Z" style="fill:rgb(128,128,128);fill-rule:nonzero;"/>
                <path d="M468.76,115.31C472.76,115.27 476.76,115.47 480.77,115.4C485.92,116.17 491.11,116.82 496.22,117.83C505.88,120.2 515.3,123.22 524.15,127.83C541.05,136.47 556.72,147.52 573.36,156.63C583.59,161.96 593.8,166.89 605,169.87C612.74,172.17 620.17,173.8 628.23,171.85C633.94,170.35 639.68,170.11 645.27,168.13C648.45,167.13 652.33,165.45 655.69,166.1C657.15,167.51 657.78,168.89 657.27,170.94C656.06,177.09 649.35,181.33 644.39,184.42C638.81,188.14 631.68,188.68 627.5,193.51C626.57,199.84 627.5,206.45 626.73,212.87C625.86,213 625.02,212.99 624.21,212.86C624.51,206.1 624.54,199.42 623.22,192.74C619.02,193.74 614.93,193.37 610.67,193.85C605.86,194.41 601.05,194.58 596.28,195.47C597.43,203.26 599.33,210.89 602.49,218.13C599.63,220.41 596.44,221.91 593.06,223.23C593.35,225.39 593.86,227.61 593.84,229.8C592.98,232.28 590.75,234.3 588.92,236.11C585.31,235.61 581.83,235.04 578.17,235.36C574.6,235.7 571.11,236.59 567.52,236.88C570.58,233.56 575.73,232.28 579.91,230.84C583.68,229.37 587.32,231.73 591.41,231.21C589.49,228.19 587.76,225.06 585.81,222.05C585.02,223.64 584.43,225.3 583.72,226.93C574.92,228.98 566.56,231.34 558.21,234.85C556.16,230.89 554.14,226.97 552.84,222.68C555.62,224.09 558.08,226.75 560.96,227.74C563.68,227.1 566.26,225.81 568.9,224.9C573.97,223.06 579.06,222.49 584.22,220.99C581.3,219.85 578.34,219.13 575.25,218.62C575.21,216.88 575.07,215.09 575.29,213.36C575.95,211.59 578.3,210.63 579.8,209.66C579.81,211.66 579.78,213.66 579.8,215.65C583.97,215.58 587.96,216.42 592.07,216.97C594.18,217.3 595.53,216.2 597.26,215.24C594.61,210 592.75,204.5 591.05,198.9C590.27,196.11 588.57,193.24 588.43,190.35C589.8,187.68 593.13,186.27 591.08,182.98C588.88,181.42 586.13,180.56 583.65,179.51C574.16,175.8 565.29,172 555.1,170.5C552.95,170.26 550.39,169.36 548.28,169.92C545.2,174.27 544.22,179.47 540.68,183.65C538.09,187.14 534.08,189.12 531.39,192.42C531.12,194.16 530.83,196.59 531.93,198.1C534.9,202.52 540.23,205.43 543.48,209.5C544.71,216.13 545.09,223.18 545.71,229.92C543.37,225.05 541.83,219.6 538.95,215.03C536.1,211.79 532.26,209.28 528.58,207.06C528.3,208.27 528.01,209.49 527.73,210.7C523.06,208.15 518.62,206.52 516.49,201.18C512.11,202.83 507.96,204.92 503.83,207.1C505.02,209.7 506.14,212.75 508.86,214.11C511.05,215.02 513.7,215 516.04,215.29C512.97,222.51 508.18,228.37 503.58,234.61C499.12,233.58 494.94,231.84 490.61,230.42C480.19,227.09 469.73,223.67 459.1,221.12C462.96,223.72 467.09,225.67 471.24,227.74C487.71,236.03 504.86,242.65 521.56,250.4C525.17,251.87 526.88,255.92 529.04,258.97C538.57,273.43 548.12,287.82 556.63,302.91C555.71,303.84 554.8,304.77 553.89,305.71C548.44,301.58 542.75,297.74 537.07,293.94C523.72,285.71 510.61,277.76 496.11,271.65C483.3,264.95 469.84,260.93 456.06,256.82C457.38,253.95 459.23,251.07 459.91,247.98C458.97,242.88 456.68,237.95 455.09,233.01C454.3,232.66 453.51,232.31 452.73,231.95C452.83,236.61 454.27,241.75 453.32,246.32C452.01,249.85 449.65,254.65 445.7,255.7C430.69,260.92 416.59,263.8 402.69,271.71C397.65,274.71 393.59,278.45 388.94,281.9C391.34,274.47 395.8,267.8 401.41,262.41C408.69,255.98 418.41,252.82 426.81,247.41C417.4,249.14 406.45,248.73 397.85,244.2C390.71,240.76 384.83,234.21 379.82,228.2C384.07,229.25 388.42,230.89 392.79,231.2C399.65,230.89 406.05,229.16 411.81,225.33C405.48,224.08 399.53,222.54 394.61,218.1C399.7,218.25 404.79,219.06 409.79,217.76C414.75,216.58 418.36,213.79 422.99,211.88C425.05,211.03 427.06,210.12 428.97,208.97C423.6,207.42 418.49,206.34 413.62,203.44C409.28,201.02 405.57,197.82 402.22,194.16C408.45,195.76 414.46,197.26 420.97,196.57C431.75,195.32 442.16,192.54 450.39,185.09C453.72,182.48 457.2,180.23 460.16,177.17C464.49,172.78 468.61,168.71 474.64,166.73C478.58,165.51 482.59,164.64 486.42,163.05C484.03,162.05 481.72,161.02 479.71,159.33C486.59,156.81 493.74,156.23 501,155.92C515.99,155.4 531.29,157.86 545.88,161.11C554.26,162.9 561.59,166.06 570.16,166.75C565.77,162.42 560.67,159.81 555.63,156.34C543.6,148.33 530.82,142.53 517.95,136.06C505.26,130.33 491.19,125.43 477.17,125C472.86,124.69 468.44,125.76 464.18,126.48C457.42,127.65 451.02,128.92 444.8,131.96C438.89,134.95 433.03,137.68 427.84,141.87C425.14,144.02 421.41,146.57 420.28,149.97C419.45,152.34 418.68,154.66 417.23,156.75C414.95,154.83 411.97,152.66 410.71,149.89C409.66,145.83 412.59,141.98 415.57,139.58C418.73,137.24 422.11,135.28 425.11,132.72C435.83,125.21 447.6,120.11 460.45,117.57C463.3,117.08 466.03,116.26 468.76,115.31Z" style="fill:rgb(23,39,64);fill-rule:nonzero;"/>
                <path d="M477.17,125C491.19,125.43 505.26,130.33 517.95,136.06C530.82,142.53 543.6,148.33 555.63,156.34C560.67,159.81 565.77,162.42 570.16,166.75C561.59,166.06 554.26,162.9 545.88,161.11C531.29,157.86 515.99,155.4 501,155.92C493.74,156.23 486.59,156.81 479.71,159.33C481.72,161.02 484.03,162.05 486.42,163.05C482.59,164.64 478.58,165.51 474.64,166.73C468.61,168.71 464.49,172.78 460.16,177.17C457.2,180.23 453.72,182.48 450.39,185.09C445.42,182.91 440.4,180.82 435.32,178.93C426.84,176.11 420.03,169.19 413.3,163.67C411.11,161.83 410.18,158.42 409.21,155.81C407.3,152.08 409.23,147.15 410.68,143.53C414.19,138.66 419.28,134.42 425.11,132.72C422.11,135.28 418.73,137.24 415.57,139.58C412.59,141.98 409.66,145.83 410.71,149.89C411.97,152.66 414.95,154.83 417.23,156.75C418.68,154.66 419.45,152.34 420.28,149.97C421.41,146.57 425.14,144.02 427.84,141.87C433.03,137.68 438.89,134.95 444.8,131.96C451.02,128.92 457.42,127.65 464.18,126.48C468.44,125.76 472.86,124.69 477.17,125Z" style="fill:rgb(240,69,49);fill-rule:nonzero;"/>
                <path d="M536.17,168.13C533.41,174.83 528.54,181.36 522.83,185.82C516.53,190.82 509.14,192.2 502.59,196.59C499.59,198.57 496.8,200.84 493.82,202.86C495.08,197.82 497.57,193.48 499.7,188.81C487.04,194.03 476.43,203.05 468.53,214.18C470.12,206.85 472.64,199.83 474.84,192.68C470.15,194.82 465.56,197.07 460.64,198.64C453.63,201.12 445.42,201.27 438.02,201.6C446.51,199.1 454.9,196.98 462.75,192.74C471.55,187.87 479.86,182.45 486.92,175.22C484.21,181.24 481.67,187.23 480.11,193.67C489.43,186.52 498.48,180.01 509.97,176.8C508.52,180.14 506.93,183.41 505.72,186.86C512.5,184.69 518.98,182.01 524.74,177.76C528.87,174.9 532.34,171.35 536.17,168.13Z" style="fill:rgb(128,128,128);fill-rule:nonzero;"/>
                <path d="M564.4,176.61C570.08,179.1 575.39,182.49 581.13,184.87C583.3,185.83 585.8,185.35 588.13,185.33C585.9,188.9 582.68,190.78 583.37,195.46C581.73,195.33 580,195.07 578.37,195.32C575.77,196.77 573.47,198.73 570.88,200.23C571.48,198.24 572.19,196.29 572.85,194.32C566.41,193.02 560.08,191.98 553.86,189.76C558.46,187.78 563.26,187.14 568.14,186.29C565.86,184.42 562.97,182.32 559.92,182.23C556.48,182.21 553.05,182.83 549.6,182.94C552.84,180.39 556.41,178.7 560.17,177.08C561.66,176.55 562.84,175.8 564.4,176.61Z" style="fill:rgb(23,39,64);fill-rule:nonzero;"/>
                <path d="M520.37,217.05C522.3,222.89 523.04,229.22 526.8,234.28C529.93,238.47 535.63,241.11 540.08,243.72C545.24,246.49 549.84,250.09 554.96,252.94C553.48,249.26 551.83,245.69 550.76,241.86C555.82,246.07 559.92,250.91 565.77,254.2C568.33,255.64 571,256.24 573.82,256.94C575.76,253.43 577.46,249.85 578.84,246.08C577.49,244.44 576.14,242.8 574.86,241.1C579.84,240.87 584.8,240.65 589.75,240.08C588.95,241.97 587.71,243.95 587.52,246.01C588.22,250.37 591.48,255.21 590.65,259.6C589.9,264.71 588.84,269.79 587.73,274.84C582.74,272.92 578.32,270 573.46,267.82C574.37,269.24 575.29,270.65 576.17,272.08C571.69,270.57 567.42,268.56 562.96,266.97C562.34,267.41 561.71,267.85 561.09,268.29C557.02,271.49 555.09,275.77 553.09,280.38C551.62,279.38 550.13,278.38 548.7,277.31C542.93,268.13 536.86,259.18 530.77,250.21C527.39,244.44 519.96,242.96 514.23,239.81C515.14,235.98 516.42,232.36 517.93,228.74C519.54,224.89 519.28,220.99 520.37,217.05Z" style="fill:rgb(23,39,64);fill-rule:nonzero;"/>
                <path d="M441.09,222.57C438.44,223.92 435.55,224.6 432.86,225.84C427.53,228.48 422.85,233.07 417.38,235.36C413.45,237.08 409.39,236.56 405.15,236.8C413.22,234.4 418.83,229.11 425.82,224.86C430.57,221.93 435.72,221.91 441.09,222.57Z" style="fill:rgb(128,128,128);fill-rule:nonzero;"/>
                <path d="M595.81,244.41C597.21,244.79 598.58,245.26 599.93,245.77C597.87,247.34 596.3,249.3 594.91,251.48C594.42,251.2 593.94,250.93 593.46,250.65C594.25,248.58 595,246.48 595.81,244.41Z" style="fill:rgb(240,69,49);fill-rule:nonzero;"/>
                <path d="M599.93,245.77C608.43,249.74 617.11,254.72 624.34,260.71C613.9,267.85 603.83,274.89 595.22,284.28C593.46,286.37 593.06,289.32 591.5,291.42C589.51,293.44 586.72,294.71 584.54,296.56C581.8,298.88 579.43,301.84 577.21,304.66C576.39,304.09 575.56,303.53 574.74,302.96C575.63,299.36 576.51,295.74 577.59,292.2C581.28,286.68 586.4,281.78 590.96,276.96C596.77,270.89 603.32,265.81 609.9,260.63C605.34,256.61 600.07,254.54 594.91,251.48C596.3,249.3 597.87,247.34 599.93,245.77Z" style="fill:rgb(23,39,64);fill-rule:nonzero;"/>
                <path d="M582.05,248.77C583.8,250.72 585.42,253.39 585.55,256.06C585.55,259.09 584.89,262.16 584.39,265.13C582.2,260.42 579.94,253.83 582.05,248.77Z" style="fill:rgb(128,128,128);fill-rule:nonzero;"/>
                <path d="M394.19,261.19L394.71,261.19L394.71,261.72L394.18,261.72L394.19,261.19Z" style="fill:rgb(240,69,49);fill-rule:nonzero;"/>
                <path d="M452.26,262.72C472.32,268.24 491.64,277.03 509.71,287.29C514.89,290.25 520.63,293.04 525.09,297.02C515.35,294.14 506.21,289.37 496.33,286.76C491.35,285.49 486.45,284.06 481.55,282.52C476.8,280.95 471.55,280.86 466.65,281.67C465.56,284.63 465.8,288.18 465.74,291.29C465.14,288.19 464.68,285.01 463.76,281.99C463.23,281.06 462.42,280.49 461.48,280.04C454.27,276.72 446.81,276.21 438.99,276.19C430.6,275.39 422.23,276.27 413.85,275.32C420.05,270.29 429.04,268.42 436.38,265.4C441.69,263.87 446.73,260.65 452.26,262.72Z" style="fill:rgb(23,39,64);fill-rule:nonzero;"/>
                <path d="M561.09,268.29C565.03,272.15 567.08,277.12 571.25,280.73C572.62,282.15 574.26,283.11 574.52,285.19C575.01,287.93 575.4,290.23 577.59,292.2C576.51,295.74 575.63,299.36 574.74,302.96C575.56,303.53 576.39,304.09 577.21,304.66C574.85,307.75 572.65,310.97 570.23,314.03C567.52,308.98 565.15,303.8 562.03,298.97C557.46,291.82 553.31,284.43 548.7,277.31C550.13,278.38 551.62,279.38 553.09,280.38C555.09,275.77 557.02,271.49 561.09,268.29Z" style="fill:rgb(240,69,49);fill-rule:nonzero;"/>
                <path d="M463.76,281.99C464.68,285.01 465.14,288.19 465.74,291.29C466.23,294.95 466.61,298.56 466.02,302.23C465.21,301.12 464.27,300.35 464.18,298.89C463.75,293.28 463.98,287.61 463.76,281.99Z" style="fill:rgb(240,69,49);fill-rule:nonzero;"/>
                <path d="M460.18,286.15L460.9,285.73L461.62,286.14L461.62,286.96L460.91,287.38L460.19,286.97L460.18,286.15Z" style="fill:rgb(240,69,49);fill-rule:nonzero;"/>
                <path d="M556.63,302.91C558.27,305.56 559.93,308.18 561.23,311.02C558.66,309.41 556.28,307.56 553.89,305.71C554.8,304.77 555.71,303.84 556.63,302.91Z" style="fill:rgb(240,69,49);fill-rule:nonzero;"/>
            </g>
        </g>
    </g>
</svg>
