<?xml version="1.0" encoding="UTF-8" standalone="no"?>
<!DOCTYPE svg PUBLIC "-//W3C//DTD SVG 1.1//EN" "http://www.w3.org/Graphics/SVG/1.1/DTD/svg11.dtd">
<svg width="100%" height="100%" viewBox="0 0 513 513" version="1.1" xmlns="http://www.w3.org/2000/svg" xmlns:xlink="http://www.w3.org/1999/xlink" xml:space="preserve" xmlns:serif="http://www.serif.com/" style="fill-rule:evenodd;clip-rule:evenodd;stroke-linejoin:round;stroke-miterlimit:2;">
    <g transform="matrix(1,0,0,1,-2514,-8153)">
        <g transform="matrix(1,0,0,1,266.650494,8153.647578)">
            <rect x="2248" y="0" width="512" height="512" style="fill:none;"/>
        </g>
        <g transform="matrix(0.312491,0,0,0.312491,2442.633604,8086.658653)">
            <path d="M579.841,675.815C589.188,682.3 599.734,691.69 608.741,698.954C680.822,757.086 765.17,799.565 854.512,823.795C907.089,838.054 965.63,848.795 1020.31,849.019C1135.03,767.364 1196.66,953.866 1104.21,997.387L1103.29,998.316C1089.6,1012.01 1074.3,1022.73 1060.5,1037.38C980.7,1122.05 993.848,1230.39 1023.93,1331.82C972.213,1375.1 921.089,1414.94 864.156,1451.31C852.198,1458.94 834.219,1471.6 821.921,1478.14C777.986,1506.4 732.412,1533.32 684.717,1554.7C649.676,1570.41 614.362,1583.81 578.32,1596.94L510.209,1107.65C544.418,1099.77 581.44,1089.54 615.782,1080.9C693.066,1061.63 770.222,1041.86 847.247,1021.58L865.345,945.566C747.328,975.473 629.153,1004.76 510.827,1033.42C516.281,998.037 518.442,957.934 524.005,920.429C536.687,837.65 555.348,755.898 579.841,675.815Z" style="fill:rgb(200,136,10);fill-rule:nonzero;"/>
        </g>
        <g transform="matrix(0.312491,0,0,0.312491,2442.633604,8086.658653)">
            <path d="M1044.51,997.805C1066,1006.52 1082.9,1003.84 1104.21,997.387L1103.29,998.316C1089.6,1012.01 1074.3,1022.73 1060.5,1037.38C980.7,1122.05 993.848,1230.39 1023.93,1331.82C972.213,1375.1 921.089,1414.94 864.156,1451.31C852.198,1458.94 834.219,1471.6 821.921,1478.14C819.496,1478.25 708.599,1531.98 693.838,1539.09C769.275,1485.01 850.558,1423.6 880.47,1332.34C892.327,1296.17 896.754,1262.62 900.501,1225.25C904.741,1194.09 902.695,1152.69 919.926,1125C949.838,1076.94 1002.7,1036.16 1044.51,997.805Z" style="fill:rgb(204,0,34);fill-rule:nonzero;"/>
        </g>
        <g transform="matrix(0.312491,0,0,0.312491,2442.633604,8086.658653)">
            <path d="M907.049,1052.37C901.438,1065.42 847.985,1094.74 833.946,1099.02C821.734,1102.74 805.529,1109.12 793.095,1112.44C725.965,1130.34 658.301,1150.55 590.587,1165.9C599.632,1243.08 607.125,1320.43 613.063,1397.91C615.053,1421.15 616.893,1444.41 618.582,1467.69C619.479,1479.94 621.377,1499.46 620.404,1511.21C618.744,1503.18 617.524,1495.01 616.23,1486.9C596.057,1372.83 577.159,1258.53 559.538,1144.04C675.087,1117.03 791.829,1081.49 907.049,1052.37Z" style="fill:rgb(204,0,34);fill-rule:nonzero;"/>
        </g>
        <g transform="matrix(0.312491,0,0,0.312491,2442.633604,8086.658653)">
            <path d="M599.555,765.735C600.748,775 596.326,818.089 595.465,830.331C592.935,866.539 591.375,902.808 590.787,939.1C683.696,923.231 777.951,899.185 872.979,892.927C854.184,898.942 835.264,904.557 816.23,909.767C785.021,919.202 750.38,927.893 718.672,936.356C665.293,950.977 611.59,964.391 557.606,976.587C559.584,921.446 580.872,817.976 599.555,765.735Z" style="fill:rgb(204,0,34);fill-rule:nonzero;"/>
        </g>
        <g transform="matrix(0.312491,0,0,0.312491,2442.633604,8086.658653)">
            <path d="M636.524,674.626C661.185,653.251 670.824,640.93 700.997,622.073C778.975,573.338 871.926,560.721 961.053,581.489C1001.84,590.965 1040.43,608.167 1074.74,632.163C1192.03,713.605 1231.91,852.352 1219.86,989.038C1217.29,1016.78 1213.56,1044.4 1208.68,1071.83C1205.24,1091.65 1195.4,1133.27 1196.1,1150.6C1196.76,1166.94 1222.58,1213.14 1232.04,1228.36C1209.96,1250.37 1185.49,1269.86 1159.09,1286.45C1148.44,1293.18 1137.51,1298.91 1126.89,1305.57C1157.81,1299.75 1188.14,1291.1 1217.49,1279.75C1231.63,1313.8 1248.03,1341.03 1273.27,1368.17C1281.76,1371.09 1279.58,1376.23 1286.41,1373.79L1287.93,1369.45C1293.44,1369.94 1287.82,1372.81 1293.65,1371.5L1295.88,1366.79L1296.67,1367.47C1296.85,1370.35 1296.73,1372.64 1297.98,1375.22L1299.45,1375.21C1300.67,1373.15 1301.86,1371.06 1303.02,1368.96L1304.5,1368.64L1305.02,1370.03L1301.79,1373.99L1302.65,1375.56L1306.5,1375.84L1307.26,1376.94L1306.11,1380.47L1307.31,1382.27L1309.19,1382.58C1311.05,1379.77 1311.12,1378.44 1313.53,1377.86L1314.81,1378.97L1314.05,1382.46C1316.09,1384.86 1314.87,1384.38 1317.45,1384.68C1318.18,1381.98 1318.19,1381.93 1318.24,1379.14C1322.53,1380.53 1323.24,1383.53 1327.53,1384.28C1329.42,1382.48 1329.38,1382.22 1330.62,1379.88L1332.11,1379.93L1332.77,1381.06L1331.86,1382.36C1330.61,1384.19 1331.07,1383.43 1330.1,1385.35C1331.74,1388.44 1332.97,1390.54 1334.86,1393.48C1337.9,1393.27 1336.72,1393.45 1339.6,1391.63C1348.34,1393.82 1344.71,1398.03 1349.21,1401.34L1351.82,1401.52L1349.88,1399.94C1349.81,1397.54 1349.38,1398.44 1350.51,1396.85C1353.02,1398.1 1353.87,1400.36 1355.33,1402.88L1356.51,1402.42C1359.33,1401.35 1360.75,1400.38 1363.57,1401.14C1363,1406.73 1362.07,1404.35 1364.51,1408.15L1368.9,1408.12L1369.9,1409.1C1368.24,1414.93 1361.74,1410.69 1368.24,1417.52C1368.36,1420.66 1368.16,1424.98 1369.59,1427.55L1371.1,1427.79C1372.8,1426.26 1374.22,1424.96 1376.02,1423.54C1378.69,1424.11 1379.37,1423.99 1382.06,1423.51C1386.3,1427.36 1380,1427.34 1385.11,1428.45C1387.05,1426.22 1386.43,1427.08 1387.56,1424.26L1389.46,1424.29L1389.79,1425.56C1391.01,1430.08 1390.88,1428.94 1395.49,1431.69C1393.18,1435.72 1392.78,1434.83 1393.58,1438.15C1397.26,1442.36 1399.64,1444.03 1403.98,1447.46L1403.01,1447.93C1401.45,1448.71 1402.02,1448.41 1400.3,1449.44L1401.37,1451.43C1404.18,1450.87 1404.55,1450.21 1407.06,1448.55L1408.17,1449.48C1407.54,1452.99 1406.38,1453.46 1403.61,1456.02C1403.47,1458.52 1403.43,1460.12 1403.51,1462.62C1409.94,1467.26 1421.62,1475.19 1427.12,1480.23L1425.22,1480.78C1419.96,1482.26 1416.22,1481.58 1411.97,1484.23L1412.45,1485.66L1414.26,1485.82C1415.34,1489.9 1415.54,1494.55 1413.6,1498.38L1412.49,1498.66L1411.38,1496.32L1412.09,1495.39C1391.76,1495.86 1411.58,1518.3 1390.42,1513.6L1388.13,1511.05L1386.42,1512.68C1386.93,1514.23 1387.42,1515.8 1387.89,1517.37L1386.52,1518.28C1382.51,1515.23 1379.07,1513.48 1373.88,1514.18L1372.5,1515.55C1372.84,1517.38 1373.09,1519.17 1373.2,1521.03L1371.34,1521.46C1365.65,1516.9 1373.73,1517.8 1366.68,1515.68C1365.95,1516.3 1364.6,1517.54 1363.84,1517.99C1359.26,1519.15 1360.04,1526.21 1354.01,1528.2C1350.59,1505.35 1332.28,1521.84 1328.59,1515.54C1330.91,1514.17 1331.88,1513.84 1334.33,1512.81L1334.38,1511.6C1329.03,1512.37 1330.26,1513.02 1326.35,1510.93L1323.96,1512.05C1321.79,1510.84 1321.27,1509.44 1319.91,1507.29L1318.7,1506.94C1313.85,1510.72 1316.6,1512.17 1311.09,1514.83L1309.97,1514L1310.42,1509.34L1309.49,1508.48L1309.28,1512.39C1306.51,1514.78 1299.6,1512.99 1295.58,1513.61C1294.34,1515.1 1293.31,1516.36 1292.47,1517.37C1286.51,1516.18 1294,1514.01 1287.33,1514.34C1286.65,1516.18 1286.61,1515.28 1287.4,1517.04C1284.56,1518.49 1276.98,1516.38 1271.52,1516.81C1267.24,1514.1 1268.89,1514.25 1264.89,1515.05C1265.59,1514.32 1261.06,1519.64 1262.97,1518.87C1257.37,1521.11 1246.84,1518.24 1251.54,1529.04L1250.62,1530.01C1249.47,1528.54 1248.44,1527.16 1247.16,1525.78C1240.9,1531.25 1237.66,1530.57 1230.01,1532.85C1228.97,1533.16 1230.27,1536.6 1226.16,1538.34C1222.09,1536.85 1218.1,1534.4 1214.7,1535.16C1211.4,1538.88 1212.51,1538.86 1208.8,1539.26C1206.39,1538.11 1204.28,1537.42 1202.6,1535.39C1152.56,1554.88 1093.52,1592.76 1050.35,1624.39C1000.47,1660.94 958.313,1694.24 902.438,1722.46C851.553,1748.33 797.628,1767.72 741.922,1780.19C721.312,1784.92 700.519,1788.81 679.594,1791.85C676.013,1792.4 666.417,1793.81 662.545,1794.48C659.142,1795.07 664.843,1795.46 660,1797.59L658.251,1795.57L655.443,1795.68L654.069,1798.98L651.594,1799.96C650.817,1797.69 651.267,1798.79 650.249,1796.67C642.6,1797.47 631.365,1805.97 626.81,1804.8L624.799,1802.37C620.343,1806.36 626.774,1803.91 620.029,1807.84C617.28,1806.65 618.238,1807.18 615.992,1805C612.893,1805.79 604.864,1809.92 604.079,1809.75C600.889,1809.06 592.727,1806.55 589.211,1810.35L588.483,1809.87C582.295,1815.2 586.302,1808.63 581.408,1813.02C581.943,1814.27 582.422,1815.38 583.021,1816.61L583.464,1817.5C581.422,1819.06 582.551,1818.62 579.887,1818.47L577.509,1815.5C575.969,1818 576.627,1817.33 574.48,1819.22L569.528,1817.38C571.076,1819.73 570.825,1818.72 570.938,1821.39C566.209,1823.55 564.348,1818.32 557.677,1818.48C557.547,1821.04 557.881,1820.16 556.546,1822.25C552.206,1822.6 544.968,1819.99 540.686,1818.6C539.083,1820.72 538.837,1821.21 536.827,1822.89C532.099,1822.26 526.508,1819.19 522.855,1816.21C521.787,1813.67 520.848,1809.74 517.701,1810.11C518.221,1812.79 518.735,1813.52 518.082,1815.96C516.291,1814.89 505.425,1803.22 503.65,1800.96C499.767,1800.45 495.406,1800.6 491.453,1800.61C494.689,1796.43 507.742,1779.63 507.828,1775.04L508.453,1774.87C505.506,1775.02 506.748,1775.52 504.518,1773.73C505.401,1769.63 509.604,1774.7 514.153,1768.34C514.386,1766.16 514.512,1765.02 514.924,1762.85L519.696,1760.74L520.069,1759.41L516.008,1759.94L515.364,1758.99C517.3,1755.63 533.915,1727.75 534.656,1727.2C533.703,1725.48 533.013,1724.24 532.172,1722.46C536.7,1718.72 538.36,1719.78 539.961,1714.09C541.688,1707.95 542.583,1709.69 540.516,1704.94L540.951,1703.98C543.209,1705.22 542.783,1704.97 545.3,1705.7C547.282,1703.6 546.401,1701.91 546.305,1697.91C548.402,1696.09 550.518,1696.57 553.848,1696.4L553.921,1694.56C551.906,1693.1 550.848,1692.65 549.684,1690.49L550.516,1689.13C553.599,1691.2 552.319,1690.97 555.62,1691.27C557.339,1688.07 556.794,1688.99 556.716,1684.88C561.716,1678.01 575.214,1674.61 581.415,1670.08L581.896,1671.22L586.814,1671.55C593.672,1664.07 602.737,1649.42 610.912,1639.91C640.096,1636.04 680.625,1631.22 704.073,1612.52C721.071,1598.97 723.776,1579.28 725.853,1559.16C737.362,1552.85 751.648,1546.9 763.595,1540.96C786.939,1529.36 810.838,1518.02 833.839,1505.78C891.834,1475.34 946.895,1439.6 998.321,1399.04C1022.18,1380.12 1044.36,1360.22 1067.15,1340.06C1028.3,1246.06 1016.74,1120.44 1084.64,1036.57C1211.47,1015.13 1202.03,809.111 1076.22,797.006C1051.98,794.673 1031.5,804.322 1010.53,814.89C1003.61,813.88 996.116,813.339 989.109,812.559C893.423,801.904 797.669,773.841 713.797,726.134C687.17,710.988 661.643,692.259 636.524,674.626Z" style="fill:rgb(204,0,34);fill-rule:nonzero;"/>
        </g>
        <g transform="matrix(0.312491,0,0,0.312491,2442.633604,8086.658653)">
            <path d="M800.517,259.329C817.213,252.859 834.433,247.83 851.987,244.297C834.273,261.909 825.344,274.099 813.149,296.312C869.31,268.589 927.558,256.012 990.293,263.516C998.661,257.554 1018.14,258.827 1024.19,268.63C1031.1,270.17 1037.47,271.508 1044.24,273.637L1053.87,276.481C1061.65,278.177 1070.18,281.665 1077.73,284.487C1076.72,279.813 1076.31,281.116 1077.74,277.222C1078.29,279.212 1078.32,279.224 1078.59,281.315L1079.85,281.68C1082.03,279.11 1087.04,271.492 1088.65,271.359C1094.09,279.881 1115.16,279.199 1113.35,294.114C1113.25,294.874 1116.13,296.28 1115.79,298.87C1120.95,301.227 1131.27,305.252 1134.7,309.358L1134.9,310.562C1151.02,320.994 1168.72,330.32 1184.39,341.432C1219.29,366.186 1253.24,393.316 1286.75,419.958C1297.88,421.171 1306.99,429.201 1315.32,432.051L1312.85,432.243C1316.65,433.869 1316.64,433.332 1321.47,431.475L1324.21,431.204C1325.58,429.239 1325.48,429.251 1326.16,426.919L1327.68,426.412C1334.18,430.169 1331.7,430.689 1335.98,436.175L1335.3,437.343C1332.53,437.715 1331.77,437.293 1330.16,438.837L1330.36,441.611L1329.04,442.546C1333.75,445.123 1338.57,443.773 1341.78,447.041C1339.62,448.651 1339.38,448.34 1336.51,449.022L1337.63,450.999C1340.9,451.884 1341.93,451.108 1345.53,449.921C1350.08,459.755 1349.15,450.418 1356.78,462.097C1361.69,463.884 1361.5,460.065 1365.07,463.05C1365.75,469.02 1361.32,465.691 1365.02,468.665C1365.59,467.467 1365.92,466.666 1366.41,465.444L1367.62,465.411C1368.83,467.473 1368.66,467.016 1369.42,469.293L1370.14,469.887C1372.78,469.72 1372.81,469.803 1375.43,470.361L1376.79,472.388L1376.24,472.452C1378.88,474.521 1381.94,477.139 1384.87,478.574C1386.97,475.961 1386,476.125 1388.34,475.513C1389.87,481.299 1386.16,477.235 1389.04,481.868L1391.53,482.57C1392.87,480.989 1392.44,481.951 1392.52,479.577C1396.86,482.363 1399.86,486.25 1403.46,487.429L1404.84,486.855C1408.56,485.252 1408.36,485.272 1412.4,485.214C1415.68,487.172 1415.78,487.959 1419.08,488.028C1420.8,485.801 1421.34,485.066 1422.71,482.625C1426.89,483.697 1438.19,489.218 1442.71,491.31C1442.24,494.178 1442.44,493.26 1441.08,495.953L1441.27,497.952L1443.11,497.984L1443.16,501.685C1445.52,503.715 1445.42,503.496 1448.57,503.779C1450.63,502.112 1450.67,502.246 1451.96,499.978L1453.26,501.039L1453.45,504.824C1455.78,505.222 1454.76,505.362 1456.56,504.747L1460.29,499.187C1459.04,494.142 1458.26,488.555 1464.68,486.665C1467.64,489.041 1467.69,499.708 1470.97,503.305C1473.95,506.578 1470.36,498.874 1475.54,505.1C1479.07,507.085 1479.94,508.922 1481.58,512.444C1483.67,511.28 1482.85,512.062 1484.1,510.163C1482.07,497.545 1491.43,500.665 1498.58,495.277L1498.46,491.817L1501.2,491.43C1497.53,497.712 1504.21,492.251 1497.67,499.91C1497.41,502.949 1498.08,503.885 1498.99,506.944L1500.13,505.67C1502.79,502.638 1509.48,491.647 1515,494.076L1515.55,496.117L1512.5,498.341C1515.63,502.02 1517.58,497.934 1520.34,501.932L1519.16,505.531C1522.64,510.373 1526.18,510.723 1528.43,513.969C1529.94,514.294 1531.38,514.4 1532.91,514.513L1535.66,516.416L1535.03,513.49C1537.43,506.27 1536.83,509.263 1542.42,503.278C1542.91,500.967 1542.88,501.013 1543.71,498.73L1544.96,499.067L1545.5,502.153L1547.84,502.507C1549.7,500.125 1551.22,498.059 1552.97,495.588L1553.91,496.452L1552.44,500.223C1554.92,503.4 1563.12,508.886 1567.29,513.792C1578.53,511.011 1591.88,507.556 1602.56,503.198C1597.06,516.306 1591.24,527.272 1583.36,539.06C1580.93,542.688 1571.27,555.359 1571.7,558.478L1573.09,560.061L1578.65,559.14C1583.94,565.388 1580.9,562.693 1587.85,567.566C1588.03,571.179 1585.84,573.39 1582.6,574.982C1574.39,579.014 1580.07,587.709 1572.07,591.045L1568.13,588.565C1564.55,591.142 1562.99,601.146 1557.37,604.199C1551.38,607.461 1546.52,601.336 1542.47,610.437C1540.05,610.74 1539.41,611.41 1537.78,609.009L1536.42,608.836C1535.15,610.964 1535.06,611.103 1534.29,613.452C1531.75,613.794 1530.82,613.921 1528.28,613.894C1516.97,623.979 1487.02,629.276 1484.03,635.943L1480.78,634.556L1477.95,635.989C1475.36,633.607 1474.09,632.635 1470.52,634.554L1470.16,636.576L1471.29,638.987L1470.22,641.485C1466.56,642.031 1458.06,643.42 1454.85,642.702C1450.5,643.776 1449.97,645.035 1446.72,648.38C1461.45,665.506 1471.37,677.629 1483.87,696.568C1486.41,694.781 1488.79,693.067 1491.46,691.461L1492.11,692.494C1491.04,694.154 1490.02,695.721 1489.4,697.602C1489.43,697.625 1500.72,701.521 1501.29,701.651L1500.99,703.034L1497.65,703.838C1497.78,706.668 1498.98,707.577 1500.81,709.787C1501.63,712.905 1500.83,714.034 1499.67,717.067L1500.07,719.195C1505.9,720.912 1501.6,716.135 1506.47,719.519C1504.8,724.56 1502.24,719.014 1503.96,724.186C1506.33,724.242 1505.43,724.328 1507.73,723.419C1510.93,725.669 1510.42,725.886 1511.47,730.584C1513.86,733.062 1513.24,733.028 1516.22,733.993C1518.19,732.356 1518.13,732.382 1519.56,730.242L1520.93,731.626C1520.53,733.013 1520.2,734.062 1519.73,735.464L1520.67,736.805L1524.07,736.004L1524.73,736.777C1523.4,738.042 1522.88,738.356 1522.02,739.971L1525.15,742.995C1524.79,745.008 1524.74,745.115 1523.92,746.996L1525.03,748.699C1527.44,748.283 1527.33,748.205 1529.46,746.925C1531.15,749.907 1529.75,749.843 1532.16,752.554C1529.5,756.17 1527.28,752.84 1525.43,756.57C1528.86,761.196 1531.04,760.653 1532.33,764.664C1529.82,765.607 1530.06,765.29 1528.18,767.223C1527.9,772.35 1532.6,775.392 1531.82,779.609C1529.9,781.084 1529.8,780.89 1527.36,781.312L1525.42,783.479C1527.49,789.221 1530.09,801.523 1533.99,804.318C1537.13,796.263 1531.65,792.728 1535.43,786.237L1536.82,786.12C1537.97,788.248 1542,795.342 1542.25,797.234C1543.17,804.241 1558.45,803.273 1554.41,810.478C1548.95,820.208 1546.45,821.12 1555.95,829.619C1556.68,834.357 1554.74,834.473 1550.68,836.64L1551.17,838.655C1555.27,839.77 1556.79,838.367 1561.65,837.344C1560.77,841.079 1556.83,841.149 1558.48,844.646C1564.05,856.432 1559.66,849.526 1556.29,859.002C1556.87,861.234 1557.36,861.596 1556.88,863.814C1553.99,866.143 1552.66,866.26 1552.2,869C1554.86,871.226 1554.96,871.712 1558.43,872.181C1562.38,871.191 1562.77,870.498 1565.97,867.718C1567.51,869.546 1566.84,868.608 1567.01,871.766C1564.97,873.639 1562.56,873.348 1559.63,873.549C1556.46,876.701 1555.18,879.979 1553.14,883.985L1553.86,884.605L1557.47,883.869L1558.02,885.019C1556.51,888.29 1552.1,896.341 1552.72,899.247L1558.07,898.778L1558.52,899.97C1556.33,901.9 1553.14,901.881 1549.61,902.751C1552.88,947.571 1559.31,993.149 1576.38,1035.03C1543.39,1016.22 1525.74,995.073 1506.86,962.746C1513.85,1024.58 1534.39,1097.09 1591.64,1131.48C1588.63,1126.28 1587.9,1126.73 1588.05,1121.27C1593.27,1117.41 1601.2,1126.51 1604.07,1130.45C1603.68,1131.43 1602.47,1134.15 1602.45,1135L1604.72,1137.82C1606.84,1136.87 1605.77,1137.45 1607.9,1136.01C1607.37,1137.85 1606.86,1139.68 1606.36,1141.53C1610.93,1141.41 1609.71,1137.1 1613.34,1138.87C1613.89,1141.21 1614.35,1143.11 1614.73,1145.49C1617.47,1145.11 1616.47,1145.39 1618.92,1143.97C1622.72,1147.24 1617.2,1148.47 1621.18,1148.63C1623.01,1146.45 1621.97,1145.99 1622.78,1143.08L1624.74,1144.13L1624.11,1147.45L1625.53,1148.65L1627.61,1147.39L1628.97,1148.9C1632.71,1150.25 1633.78,1148.21 1639.1,1146.38L1639.09,1147.36L1635.14,1151.04C1637.17,1152.13 1636.48,1151.63 1639.44,1151.46C1639.63,1154.17 1639.48,1153.59 1638.78,1156.39L1639.63,1157.37C1644.62,1160.96 1652.82,1163.68 1658.76,1165.96C1689.77,1177.9 1715.68,1181.96 1747.04,1189.46C1715.98,1206.18 1686.19,1219.47 1652.36,1229.87C1650.99,1234.92 1640.62,1246.45 1636.35,1249.73C1632.84,1252.44 1632.54,1244.58 1628.8,1254.88C1622.78,1256.74 1621.59,1251.72 1616.6,1249.74C1613.82,1250.95 1610.96,1252.95 1608.63,1252.62L1606.08,1250.61L1604.7,1252.07C1607.25,1256.66 1610.04,1254.22 1610.02,1257.08L1606.57,1257.06C1606.48,1258.63 1606.43,1259.87 1606.41,1261.47L1604.22,1261.7L1603.3,1260.76C1599.41,1256.89 1576.86,1254.32 1570.49,1254.93C1569.27,1255.05 1569.39,1250.86 1569.39,1250.29C1568.02,1252.84 1568.46,1251.93 1568.09,1255C1564.72,1255.58 1566.44,1255.62 1562.81,1254.21C1562.02,1252.99 1561.31,1251.91 1560.58,1250.65L1558.11,1252.33L1556.99,1252.38C1555.73,1255.8 1556.78,1254.52 1553.91,1256.49C1551.92,1256.13 1549.94,1255.75 1547.95,1255.36L1545.86,1256.89C1545.25,1260.33 1545.77,1259.8 1547.51,1263.7L1546.89,1265.06C1542.57,1266.04 1545.66,1262.06 1540.41,1261.42C1528.58,1272.11 1530.05,1259.8 1524.55,1252.89L1521.46,1249.52L1521.64,1248.06L1527.08,1247.63L1526.3,1246.4C1518.69,1243.03 1520.9,1248.42 1514.99,1250.34C1512.72,1247.98 1512.08,1246.5 1510.52,1243.69L1509.12,1243.54L1507.8,1249.23L1506.55,1249.82C1502.51,1246.16 1499.16,1242.94 1494.67,1239.79L1493.31,1240.84L1495.3,1242.57L1495.37,1243.86L1493.61,1244.66C1490.47,1241.97 1487.84,1240 1484.49,1237.56C1481.82,1237.69 1482.24,1237.77 1479.93,1239.13L1480.89,1237.21L1480.28,1236.02L1477.77,1236.11L1475.13,1239.16L1475.37,1240.89C1473.08,1243.57 1473.82,1239.65 1468.73,1241.29L1468.24,1244.14L1467.6,1244.34C1465.75,1242.78 1466.33,1242.79 1464.29,1242.34C1462.37,1244.39 1462.26,1244.57 1459.96,1246.12L1458.12,1244.9L1457.65,1240.91C1455.82,1238.41 1457.01,1239.02 1454.32,1238.49C1452.68,1240.9 1453.25,1240.83 1451.04,1242.12C1447.33,1238.61 1442.66,1235.19 1438.76,1231.82C1431.01,1225.12 1439.68,1228.58 1436.9,1218.35C1433.28,1221.81 1425.6,1219 1421.27,1217.67C1420.57,1217.45 1420.38,1212.22 1417.47,1210.14C1415.41,1212.62 1416.66,1212.03 1414.03,1212.82C1410.41,1210.41 1411.34,1208.44 1408.95,1205.19C1405.12,1207.84 1407.05,1207.46 1403.2,1207.53C1404.31,1205.32 1404.1,1206.01 1404.56,1203.77C1403.25,1200.66 1403.49,1200.7 1400.76,1198.81L1395.81,1201.31C1393.04,1197.63 1393.26,1194.83 1390.3,1193.54C1389.6,1196.59 1390.4,1195.94 1388.64,1197.17C1385.57,1192.78 1384.7,1192.05 1380.03,1189.43L1378.98,1188.19C1376.94,1178.55 1364.3,1181.02 1360.91,1174.3C1360.03,1172.56 1357.93,1170.48 1356.47,1169.11L1352.48,1170.05L1351.32,1168.99L1352.72,1167.01C1350.97,1165.14 1349.33,1165.7 1345.92,1165.39C1346.01,1163.73 1346.1,1162.07 1346.17,1160.4L1344.9,1159.03C1343.97,1160.9 1344.57,1160.02 1343.05,1161.64C1340.07,1159.82 1335.78,1154.55 1335.67,1150.94L1332.95,1151.34C1330.44,1149.95 1328.44,1149.02 1325.85,1147.84L1320.65,1151.02C1320.47,1152.64 1320.27,1153.9 1319.99,1155.5L1318.5,1155.67L1316.84,1142.64C1302.96,1140.91 1303.31,1128.84 1314.02,1126.88L1315.59,1126.03L1315.81,1125.04L1314.85,1125.56C1313.35,1123.54 1312.45,1122.78 1310.64,1121.05C1307.01,1120.2 1302.85,1120.18 1302.43,1116.07L1305.36,1115.58L1305.94,1114.49C1302.73,1111.59 1295.05,1104.27 1296.21,1099.9L1298.67,1100.36L1299.6,1099.5C1298.03,1096.05 1294.78,1087.58 1292.1,1085.5L1294.1,1083.14C1293.95,1079.7 1294.46,1081.21 1292.64,1078.4C1290.66,1081.65 1291.26,1085.96 1290.34,1089.76C1286.29,1105.81 1288.32,1120.93 1289.42,1136.96C1291.46,1166.55 1302.68,1188.25 1317.73,1213.02C1274.09,1185.11 1245.84,1127.79 1245.3,1075.95C1245.21,1068.19 1249.38,1046.07 1250.65,1037.37C1253.7,1016.63 1255.87,995.768 1257.15,974.841C1266.26,823.116 1215.02,677.733 1082.21,593.685C1012.96,548.902 930.865,528.238 848.669,534.902C824.011,537.092 804.656,541.379 780.473,546.791C793.363,447.604 877.668,385.632 975.312,387.988C1071.51,390.308 1167.42,440.958 1233.48,509.313C1188.3,486.111 1124.47,470.424 1073.74,469.746C1285.05,541.197 1407.85,736.615 1404.51,956.45C1389.63,924.007 1366.56,868.113 1344.13,841.094C1347.65,859.306 1349.75,883.356 1352.45,902.185C1361.17,963.194 1373.48,1024.59 1408.45,1076.62C1451.88,1141.25 1510.97,1175.16 1585.67,1190.36C1554.46,1173.42 1527.26,1149.96 1505.91,1121.59C1435,1026.39 1462.89,912.057 1425.71,803.274C1456.39,820.839 1476.13,851.202 1492.83,881.195C1468.73,741.464 1402.76,656.279 1294.16,569.311C1360.82,584.672 1415.66,594.105 1481.25,567.285C1366.2,565.494 1274.59,475.217 1189.03,410.803C1149.78,381.833 1109.31,358.37 1064.02,340.287C960.912,299.119 836.717,310.86 763.635,401.958C748.571,420.736 740.566,439.941 732.154,462.214C723.535,415.465 728.113,388.406 748.723,346.082C706.311,374.231 672.888,412.286 661.51,462.799C650.686,510.853 661.212,546.697 686.648,587.408C672.598,597.273 658.718,607.378 645.014,617.719C599.954,561.835 591.819,490.58 614.837,423.496C618.049,414.113 624.157,402.126 628.605,393.009C635.265,383.826 642.768,370.899 650.337,360.277C647.127,354.897 650.868,359.784 649.541,353.668C646.033,356.272 646.774,356.544 643.054,356.943C633.016,344.464 651.213,344.066 649.89,338.062C644.967,336.187 648.433,333.334 647.49,330.15C646.541,326.945 643.352,326.737 644.942,322.152C650.025,319.031 660.739,320.252 666.544,320.786L669.25,316.127L670.972,316.379L668.634,317.036L669.76,315.753C672.922,317.47 668.92,318.286 670.635,323.592C674.124,318.902 676.772,315.551 680.63,311.145C683.484,311.052 685.283,311.324 687.613,309.731C688.079,305.088 684.332,304.744 685.19,300.76L685.965,300.332C687.28,301.832 688.446,303.316 689.47,305.029C692.337,298.715 694.258,293.258 699.593,288.774L700.391,289.173L698.311,295.157C700.12,295.79 699.923,295.247 702.623,294.28C703.195,289.991 702.593,286.185 706.779,284.759C708.62,286.228 709.621,286.966 711.605,288.229C715.743,287.798 725.139,280.452 726.49,276.544L723.608,273.198L724.955,271.919C727.129,272.286 727.648,272.299 729.751,273.105L731.273,272.52C728.697,274.108 729.357,273.019 728.517,275.376L729.555,277.356L731.548,277.612C733.073,275.28 732.587,275.707 734.586,273.88C736.359,275.953 737.127,276.717 739.154,278.55L741.478,278.412L743.346,275.793L744.574,274.794C745.74,276.746 745.197,276.145 747.08,277.555C750.979,273.662 756.039,263.78 762.387,267.402C763.749,270.473 763.72,270.293 763.987,273.634C771.999,269.936 792.213,260.999 800.517,259.329Z" style="fill:rgb(200,136,10);fill-rule:nonzero;"/>
        </g>
        <g transform="matrix(0.312491,0,0,0.312491,2442.633604,8086.658653)">
            <path d="M531.746,683.155C534.631,681.014 547.336,666.086 550.451,662.765C548.89,668.351 547.187,673.936 546.275,679.659C548.032,687.395 542.514,689.588 545.474,692.77L548.994,692.286C549.937,695.324 548.88,697.362 547.328,700.083C544.692,704.707 546.876,711.8 546.775,717.003C546.739,719.189 538.584,727.521 538.222,728.405C536.715,732.086 537.026,733.061 534.756,737.609C529.357,745.542 536.872,762.079 522.375,769.365C504.458,852.926 483.694,951.152 480.88,1036.76L434.242,1015.28C441.875,1039.91 443.349,1052.86 433.394,1077.64C447.971,1085.97 464.395,1094.89 478.57,1103.62C483.266,1127.88 486.745,1159.65 490.141,1184.56L510.14,1331.14L533.954,1503.15C538.254,1533.81 544.505,1571.82 547.494,1602.06C514.441,1585.46 491.55,1562.75 466.034,1536.6C460.121,1530.54 449.024,1519.21 444.312,1512.76C446.579,1502.46 448.779,1493.01 450.111,1482.51L446.445,1481.23C443.355,1475.03 443.748,1464.94 444.533,1458.25C447.118,1454.7 446.074,1455.85 450.502,1453.9C453.027,1453.28 452.585,1450.33 452.84,1448.11C450.473,1446.39 449.86,1445.84 447.434,1447.36C449.268,1450.32 449.403,1449.36 449.479,1452.12L448,1452.36C442.138,1448.92 446.806,1445.71 435.664,1442L434.412,1441.59L434.473,1440.83L437.522,1440.42C440.407,1435.33 445.099,1428.43 451.409,1428.94L452.39,1428.6C453.023,1425.94 451.911,1406.06 451.183,1402.91C451.646,1399.57 451.575,1398.07 451.504,1394.77C450.667,1387.99 449.379,1362.88 446.793,1358.95C440.853,1358.99 434.971,1352.79 433.917,1347.05C438.173,1341.99 441.694,1344.48 445.727,1347.81L446.235,1347.81L445.86,1343.5C432.034,1334.94 440.177,1328.44 436.141,1316.5C421.662,1313.19 435.066,1300.06 435.644,1296.34C428.041,1288.93 430.043,1288.33 419.524,1290.04L418.64,1289.03L419.566,1287.81C425.519,1286.97 430.355,1287.21 435.441,1290.62C434.764,1283.38 429.19,1286.91 426.966,1281.84L430.44,1280.22L430.869,1278.57L428.896,1276.15C426.026,1275.86 425.639,1276.16 423.461,1274.45C422.12,1271.5 421.839,1271.54 422.038,1268.39C424.209,1265.42 423.882,1266.69 424.404,1263.39C422.241,1261.11 421.729,1260.74 420.109,1257.98L420.819,1256.4C423.813,1256.05 423.769,1256.78 427.028,1258.58L428.336,1257.91L428.45,1253.99L423.533,1250.13C424.829,1248.19 425.954,1248.5 428.893,1247.64L423.274,1217.75C419.304,1216.46 417.757,1216.08 414.191,1214.05C411.373,1207.75 418.32,1195.16 412.572,1190.42L408.933,1192.16L408.519,1190.33C408.391,1187.13 407.178,1180.62 406.649,1177.21C403.996,1170.43 401.16,1172.84 402.326,1164.62C404.515,1158.68 396.687,1154.83 394.566,1149.44C397.242,1145.01 397.599,1143.85 398.234,1138.71C392.948,1132.71 400.845,1128.99 392.015,1126.83L391.548,1125.32L393.442,1122.04L392.894,1120.5C390.329,1118.8 388.803,1118.07 387.045,1115.5L389.069,1105.51C387.649,1103.27 384.017,1102.57 380.723,1100.91L381.13,1099.16L385.038,1098.64C386.659,1096.85 386.048,1097.94 385.972,1094.74C384.606,1092.69 384.43,1092.43 382.563,1090.95L381.137,1089.84L381.764,1088.82L387.527,1088.54C390.976,1083.4 391.569,1082.29 390.38,1076.12C393.123,1075.23 394.889,1076.57 398.328,1077.71L400.623,1073.36C398.054,1073.47 397.591,1074.13 394.588,1073.75L393.317,1072.07C393.912,1070.05 394.319,1068.75 396.056,1067.67C399.617,1065.43 396.238,1050.75 400.97,1046.43C401.799,1045.67 405.09,1047.62 407.637,1044.95C405.243,1042.21 403.73,1041.45 403.154,1038.42C405.773,1038.63 407.362,1038.68 409.988,1038.65L411.403,1037.21L410.715,1030.91C406.083,1030.73 403.553,1030.85 400.352,1027.27C399.491,1019.99 399.778,1017.91 393.818,1014.17C393.268,1011.18 398.208,1008.58 398.333,1005.4C398.395,1003.8 391.184,994.425 389.99,992.755L390.362,991.232C392.961,990.715 394.539,991.227 397.128,991.71L397.722,990.378C396.622,989.233 395.716,988.235 394.665,987.056C396.24,984.685 395.259,985.746 398.706,984.605C400.118,982.929 399.649,981.48 399.801,978.708C394.12,975.244 396.155,972.49 399.363,967.695L399.019,966.004L394.295,964.962L394.221,963.286C398.452,958.319 402.479,952.347 408.7,950.826C420.107,914.425 426.401,881.295 434.343,843.97C438.443,824.698 443.179,796.397 450.785,778.847C454.024,771.374 472.319,751.719 478.903,744.312C475.045,742.016 472.948,742.66 470.671,740.38L476.198,740.277C479.234,737.31 482.358,724.644 486.841,720.331C491.396,715.95 497.178,716.375 500.577,711.305L499.579,708.589C501.289,705.103 502.865,709.302 506.61,706.607C505.168,703.876 505.212,704.91 505.233,702.176L509.125,698.841C516.522,695.381 519.912,685.24 531.746,683.155Z" style="fill:rgb(204,0,34);fill-rule:nonzero;"/>
        </g>
    </g>
</svg>
