<?xml version="1.0" encoding="UTF-8" standalone="no"?>
<!DOCTYPE svg PUBLIC "-//W3C//DTD SVG 1.1//EN" "http://www.w3.org/Graphics/SVG/1.1/DTD/svg11.dtd">
<svg width="100%" height="100%" viewBox="0 0 385 457" version="1.1" xmlns="http://www.w3.org/2000/svg" xmlns:xlink="http://www.w3.org/1999/xlink" xml:space="preserve" xmlns:serif="http://www.serif.com/" style="fill-rule:evenodd;clip-rule:evenodd;stroke-linejoin:round;stroke-miterlimit:2;">
    <g transform="matrix(1,0,0,1,-0.74,0)">
        <g>
            <path d="M128.4,0L129.4,0C131.91,3.11 134.3,7.36 138.08,8.94C140.82,10.38 143.73,10.95 146.79,11.25C149.07,14.94 151.65,18.54 153.58,22.43C156.21,27.8 155.71,33.49 157.69,39.23C159.03,43.07 159.48,47.26 160.92,51.01C168.55,62.48 179.53,72.26 190.61,80.33C191.44,81.07 192.74,81.84 193.04,82.95C194.1,87.33 193.33,92.34 192.34,96.68C190.02,96.54 187.92,96.5 185.98,95.04C183.03,92.77 180.45,89.97 177.76,87.39C175.43,84.56 172.34,82.77 169.66,80.33C164.37,75.32 159.49,69.83 154.03,65C149.05,61.12 144.1,57.69 141.8,51.5C140.46,47.3 137.9,44.01 135.82,40.12C134.42,37.98 132.81,35.24 129.83,35.64C126.85,36.23 125.17,39.31 123.78,41.73C116.64,55.1 111.76,69.37 107.98,84.01C104.21,101.91 103.5,119.75 103.9,137.98C100.83,132.66 96.02,129.44 92.38,124.57C90.3,122.03 89.67,118.88 87.67,116.32C86.32,114.54 84.98,112.75 83.69,110.92C80.1,116.17 79.33,122.11 76.69,127.75C73.79,133.71 73.63,141.48 71.72,147.53C68.11,158.23 67.96,170.33 65.26,181.51C63.89,186.74 64.01,191.6 61.63,196.6C61,198.23 59.27,199.03 57.92,200.07C55.86,197.27 52.46,193.73 52.48,190.07C51.81,178.47 52,166.3 54.62,154.94C55.7,150.01 56.43,145 57.49,140.06C60.01,129.39 63.55,119.11 66.67,108.75C67.73,105.36 67.48,101.85 68.38,98.46C69.3,95.15 71.99,93.44 73.22,90.2C75.51,84.63 76.89,79.27 80.67,74.43C81.37,74.81 82.07,75.19 82.77,75.58C85.33,81.08 87.59,86.61 91.14,91.6C93.72,82.76 95.6,73.77 97.48,64.77C98.73,57.74 97.92,49.88 98.28,42.94C98.75,40.07 99.73,37.28 100.34,34.43C103.69,31.52 103,28.06 104.24,24.24C104.95,21.68 107.54,21.02 109.47,19.49C113.55,16.31 116.92,12.22 120.8,8.79C123.79,6.3 125.58,2.99 128.24,0.17L128.4,0Z" style="fill:white;fill-rule:nonzero;"/>
            <path d="M132.6,72.68C134.94,74.21 137.12,75.92 138.92,78.09C141.18,80.71 142.23,83.86 144.56,86.41C149.64,91.93 155.29,96.17 161.04,100.95C165.31,104.41 169.34,108.05 174,111.02C180.49,115.23 186.7,119.83 193.44,123.58C206.98,131.44 222.26,136.11 235.62,144.19C238.04,145.47 240.61,146.49 243.06,147.75C255.02,153.72 265.42,163.35 271.88,175.09C274.88,180.36 276.06,185.79 280.28,190.34C281.91,182.73 280.7,175.53 280.11,167.92C283.16,170.53 286.2,173.09 288.77,176.2C296.98,185.86 304.33,196.25 308.71,208.23C311.82,216.35 311.37,225.79 308.91,234.02C306.97,240.44 303.1,245.08 299.74,250.74C299.75,242.75 299.25,235.17 294.8,228.28C290.54,233.64 287.31,239.64 282.96,244.94C277.05,252.59 270.1,259.46 262.86,265.85C259.15,268.77 255.4,272.17 250.61,273.05C246.71,273.7 242.21,275.16 238.28,274.5C236.67,273.73 235.25,272.44 233.84,271.36C231.36,271.65 229.31,272.23 227.07,273.31C222.23,275.86 217.92,273.84 213.68,271.2C211.29,269.25 209.77,266.39 210.42,263.25C211.17,259.63 213.27,256.16 214.95,252.89C218.2,246.58 223,241.99 227.48,236.12C227.07,235.59 226.66,235.07 226.26,234.55C221.9,236.4 217.57,238.02 213.65,240.76C208.22,244.24 203.8,248.85 200.03,254.05C196.26,251.12 193.07,247.63 189.55,244.44C185.17,240.89 180.09,238.1 175.09,235.54C173.71,235.56 172.32,235.59 170.94,235.63C173.53,240.08 177.62,243.19 180.26,247.58C182.68,251.58 185.16,255.65 186.92,259.99C187.93,262.73 188.67,266.35 186.91,268.93C184.89,271.89 181.82,274.2 178.54,275.59C173.59,277.71 168.78,280.05 164.03,282.59C153.4,278.99 143.63,273.23 135.33,265.68C122.46,254.91 111.71,241.57 103.62,226.88C100.24,233.93 99.29,241.3 98.39,248.96C92.59,243.22 89.41,235.95 87.9,228.02C82.95,203.55 85.67,176.99 91.7,152.94C96.49,156.8 100.73,161.4 105.63,165.12C114.27,170.71 122.58,176.15 132.63,178.89C131.79,173.07 129.44,167.87 127.95,162.22C123.46,144.41 122.83,126.2 124.57,107.97C125.25,102.1 126.73,96.31 127.78,90.5C128.79,84.32 132.06,79.01 132.6,72.68Z" style="fill:rgb(191,0,0);fill-rule:nonzero;"/>
            <path d="M224.1,100.95C227.32,102.54 230.95,103.2 234.21,104.78C241.39,108.14 248.22,109.75 254.64,114.36C257.84,116.67 261.88,116.81 265.4,118.74C273.2,122.87 280.71,128.06 288.18,132.8C294.81,137.03 300.84,142.02 306.43,147.54C307.01,152.02 307.24,156.25 306.15,160.68C302.34,159.95 298.85,158.62 295.76,156.24C287.32,149.83 278.66,142.65 269.32,137.42C254.08,128.58 237.88,122.55 222.12,114.89C218.19,112.59 213.56,110.88 210.06,107.99C208.22,104.42 208.98,99.24 209.87,95.46C215.8,94.66 219.45,98.03 224.1,100.95Z" style="fill:white;fill-rule:nonzero;"/>
            <path d="M323.3,176.8C326.4,176.27 329.52,177 331.74,179.29C333.95,181.57 336.1,183.42 338.72,185.21C343.86,188.69 343.92,194.63 348.46,199.03C347.6,200.93 346.31,202.87 345.98,204.94C346.4,206.74 347.35,208.48 348.11,210.17C347.29,213.08 346.5,215.93 346.64,219C346.88,226.04 346.04,232.98 345.7,239.99C345.61,243.06 345.32,245.86 346.47,248.79C348.18,253.23 351.31,257.23 353.4,261.53C361.53,279.12 366.89,297.72 370.2,316.79C371.97,328.04 376.34,338.61 378.61,349.8C381.1,356.94 382.41,364.4 385.34,371.37C379.01,378.19 375.89,386.88 369.93,393.99C366.45,396.7 361.26,397.66 357.08,398.88C355.95,405.04 354.38,410.75 354.14,417.02C353.85,430.28 354.02,443.6 353.28,456.84C352.42,455.9 351.46,455.47 351.57,454.02C351.25,441.34 351.16,428.63 350.92,415.95C350.92,413.81 349.96,412.1 349.08,410.22C344.21,412.54 341.93,416.7 338.28,420.36C335.99,422.67 333.18,423.48 330.5,425.52C326.3,428.72 322.93,433.5 319.14,437.18C316.89,439.27 314.36,441.05 312.04,443.08C308.05,446.42 303.98,450.07 298.84,451.46C291.67,452.71 283.64,451.37 276.44,450.66C280.77,446.22 286.21,443.78 291.13,440.16C303.85,430.5 316.31,420.98 327.58,409.59C330.57,406.53 333.81,403.79 337.03,401C340.7,397.82 342.49,393.8 344.53,389.52C346.63,385.15 346.78,380.01 348.59,375.53C349.34,373.97 350.02,372.48 351.8,371.95C355.61,370.53 359.3,369.22 362.61,366.77C364.07,360.99 362.72,355.75 361.68,350.06C358.74,335.69 355.54,321.37 352.79,306.97C351.29,299.95 349.15,293.19 348.36,286.02C348.16,282.2 345.79,279.59 344.88,276C344.37,273.75 343.14,272.07 341.68,270.34C337.85,265.73 335.01,260.46 331.13,255.89C330.12,254.48 328.48,252.82 328.39,251.03C328.66,246.81 330.19,242.71 330.74,238.51C332.26,226.94 331.37,215.58 330.36,203.98C330.56,202 327.89,201.13 326.61,200.02C324.49,195.23 322.19,190.22 321.22,185.05C320.98,182.21 320.42,178.53 323.3,176.8Z" style="fill:white;fill-rule:nonzero;"/>
            <path d="M55.57,220.79C58.9,223.63 63.37,226.41 65.74,230.1C67.59,236.73 69.11,245.07 69.6,251.93C67.52,256.06 63.61,259.25 61.36,263.4C54.17,274.22 50.35,286.32 47.69,298.93C44.92,309.79 42.93,320.78 40.88,331.8C38.47,342.71 35.4,353.55 32.5,364.33C36.17,368.38 40.84,369.37 45.58,371.55C49.16,372.88 50.11,377.35 51.42,380.51C54.18,387.04 57.53,393.47 61.93,399.05C68.94,408.81 77.61,415.64 86.27,423.74C91.52,428.17 97.11,432.22 102.52,436.46C108.93,441.6 116.14,444.63 121.8,450.74C114.11,450.98 106.7,451.31 98.97,450.71C97.61,450.62 96.33,449.51 95.21,448.79C88.26,443.72 81.12,439.14 74.84,433.2C71.1,429.57 67.23,426.12 63.33,422.67C54.17,414.06 46.3,404.19 39.78,393.45C39.08,393.39 38.39,393.34 37.7,393.28C34.31,403.87 35.97,414.37 34.24,425.79C33.59,425.79 32.95,425.79 32.3,425.8C31.76,416.92 32.24,407.43 30.13,398.78C29.59,396.37 28.03,394.85 26.35,393.17C23.26,393.2 19.7,393.07 17.45,390.65C13.94,387.45 9.02,383.15 8.95,378.02C8.63,376.02 8.64,373.39 7.45,371.68C5.54,369.06 3.25,366.77 0.74,364.73C2.13,364.25 3.53,363.77 4.92,363.28C4.01,362.63 3.1,361.99 2.18,361.34C3.26,360.45 4.59,359.61 5.37,358.43C6.7,355.49 7.01,352.1 8.25,349.14C9.24,347.3 10.84,345.83 11.83,343.97C12.78,342.37 13.56,340.28 14.99,339.06C16.68,337.85 18.79,337.16 20.7,336.35C25.31,329.26 27.51,320.29 29,312.04C30.6,303.23 33.33,294.73 35.12,285.97C37.14,278.5 34.39,270.77 36.84,262.9C38.16,259.98 39.78,257.19 41.56,254.53C43.71,251.07 48.23,249.01 51.68,247.03C54.79,238.16 50.21,230.6 52.28,221.56C53.41,220.87 54.51,220.61 55.57,220.79Z" style="fill:white;fill-rule:nonzero;"/>
            <path d="M282.17,268.56C282.89,269.56 283.69,270.6 284.16,271.74C286.45,281.51 283.49,291.85 275.59,298.22C271.41,301.11 266.89,301.63 261.99,302.35C256.2,301.54 252.85,300.32 247.98,297.18C248.26,295.91 248.42,294.7 248.47,293.4C253.8,292.67 257.72,296.34 262.94,295.5C267.64,294.83 271.63,290.48 272.75,285.99C273.72,282.88 272.33,279.23 272.43,275.97C274.29,272.39 278.74,270.35 282.17,268.56Z" style="fill:rgb(191,0,0);fill-rule:nonzero;"/>
            <path d="M117.78,269.29C120.53,270.94 124.65,273 125.82,276.16C125.99,280.73 124.78,284.64 126.91,289.03C129.1,294.3 135.29,296.27 140.55,295.26C142.67,294.67 144.78,293.68 146.94,293.32C148.69,293.62 150.4,294.33 152.1,294.89C150.39,296.77 148.61,298.88 146.53,300.37C142.41,303.59 135.93,302.69 130.98,302.58C125.54,301.74 120.71,296.59 117.76,292.21C113.46,286.19 112.67,278.53 114.48,271.47C115.22,269.64 115.93,269.47 117.78,269.29Z" style="fill:rgb(191,0,0);fill-rule:nonzero;"/>
            <path d="M88.16,271.71C92.16,273.7 95.79,277.23 97.69,281.29C98.87,284.75 99.62,288.42 100.21,292.02C100.53,296.76 99.6,301.57 99.93,306.33C100.85,310.28 104.73,313.71 107.47,316.54C110.81,319.99 115.03,321.57 118.76,324.4C119.52,324.9 119.92,325.72 119.97,326.87C117.81,329.43 114.85,331.02 112.82,333.82C110.82,336.68 109.22,340.01 108.68,343.48C107.77,348.96 106.51,354.49 106.15,360.01C105.54,367.45 106.56,374.47 107.57,381.82C108.34,387.18 110.27,392.2 112.92,396.9C120.15,410.88 130.32,422.56 141.8,433.2C146.18,437.87 150.48,442.06 155.67,445.86C153.23,445.3 151,444.58 148.97,443.08C144.01,439.53 138.5,436.96 133.47,433.54C125.71,428.35 118.04,422.97 110.47,417.52C100.18,409.41 90.01,400.45 81.79,390.21C77.72,384.45 73.02,379.27 71.5,372.26C69.58,364.88 69.51,357.36 68.12,349.92C67.87,348.09 66.11,346.56 65.03,345.11C62.69,346.67 60.77,347.94 57.84,348C57.61,340.61 59.21,332.99 60.86,325.81C63.69,315.68 66.62,305.57 69.6,295.48C71.82,288.08 75.75,281.55 80.48,275.5C82.27,273.46 85.17,270.47 88.16,271.71Z" style="fill:rgb(191,0,0);fill-rule:nonzero;"/>
            <path d="M314.06,271.41C322.92,280.39 328.24,291.51 331.77,303.49C334.53,313.54 337.31,323.71 339.15,333.97C339.61,339.6 340.96,345.06 341.17,350.7C337.68,344.12 334.4,337.83 328.64,332.88C327.97,334.59 327.29,336.12 327.67,337.98C328.82,347.18 329.63,356.24 328.22,365.48C327.61,370.47 326.35,375.27 323.74,379.61C317.75,389.51 309.8,398.47 301.48,406.47C299.78,408.13 297.94,409.62 296.03,411.04C284.06,419.9 272.58,429.07 259.78,436.78C254.59,439.6 249.7,442.92 244.57,445.82C251.1,437.54 260.29,431.11 266.92,422.95C270.8,418.47 274.6,413.89 278.19,409.17C285.07,399.35 290.3,388.33 293.43,376.76C294.75,372.07 293.75,367.53 295.13,362.94C296.03,359.95 296.82,357.18 295.89,354.06C294.38,348.63 294.58,343.44 291.55,338.48C288.68,331.89 281.46,331.77 278.31,325.34C283.88,322.02 290.32,319.67 294.28,314.27C296.21,311.66 298.59,308.89 299.59,305.77C300.48,302.78 297.54,300.52 296.41,297.96C297.53,293.68 299.12,289.54 300.23,285.25C301.6,280.02 303.67,275.38 308.34,272.3C310.02,270.99 312.05,271.44 314.06,271.41Z" style="fill:rgb(191,0,0);fill-rule:nonzero;"/>
            <path d="M199.06,287.57C204.84,290.67 207.85,296.4 213.81,299.17C221.41,303.01 230.27,306.36 234.68,314.19C236.78,319.81 235.07,326.88 235.45,332.85C238.08,330.48 240.62,328.71 243.96,327.46C249.89,329.68 255.14,334.03 260.52,337.51C263.18,339.2 264.76,340.9 266.35,343.61C260.64,346.08 254.64,348.19 249.17,351.16C243.07,354.7 237.01,358.64 230.64,361.72C230.06,360.13 229.49,358.54 228.92,356.95C223.79,359.8 222.43,364.72 219.49,369.47C214.8,377.58 210.52,385.85 206.31,394.22C203.99,398.78 201.42,403.12 199.87,408.04C196.31,403.3 194.12,397.97 191.35,392.78C187.43,385.33 183.73,377.8 179.46,370.54C176.34,365.3 174.03,359.95 169.94,355.34C168.73,356.93 167.54,358.53 166.36,360.14C160.82,358.88 156.99,355.56 152.2,352.81C145.8,349.03 138.71,346.64 131.94,343.53C135.08,338.62 139.65,336.58 144.23,333.28C146.92,331.52 149.82,329.21 152.95,328.36C156.79,327.57 159.36,329.7 162.57,331.29C163.05,325.47 161.83,317.98 164.51,312.7C168.73,306.48 176.98,303.14 183.09,299.14C188.74,295.59 193.26,290.86 199.06,287.57Z" style="fill:rgb(191,0,0);fill-rule:nonzero;"/>
            <path d="M186.26,307.18C186.46,309.84 186.88,312.27 185.82,314.82C184.23,318.82 182.98,322.58 178.71,324.4C178.54,321.4 178.09,318.23 178.53,315.25C179.54,311.39 183.35,309.45 186.26,307.18Z" style="fill:white;fill-rule:nonzero;"/>
            <path d="M212.37,309.11C215.74,309.56 218.35,312.22 219.85,315.1C220.62,317.9 219.95,321.22 219.7,324.08C214.95,320.07 211.36,315.77 212.37,309.11Z" style="fill:white;fill-rule:nonzero;"/>
            <path d="M137.63,357.31C138.62,357.7 139.62,358.08 140.61,358.47C149.86,361.9 158.24,368.01 165.84,374.17C172.63,380.87 178.54,388.81 182.23,397.65C178.39,395.67 174.86,393.24 171.37,390.72C163.74,385.18 155.06,381.03 147.48,375.45C143.34,371.55 140.69,365.52 138.75,360.28C138.37,359.29 138,358.3 137.63,357.31Z" style="fill:rgb(191,0,0);fill-rule:nonzero;"/>
            <path d="M260.69,357.32C258.54,363.98 256.18,370.09 251.02,375.06C246.13,379.44 239.63,382.63 234.01,386.06C227.77,389.63 222.64,394.51 216.02,397.47C222.02,386.1 230.26,374.2 241.46,367.44C246.53,364.15 251.53,359.92 257.34,358.22C258.45,357.91 259.57,357.61 260.69,357.32Z" style="fill:rgb(191,0,0);fill-rule:nonzero;"/>
        </g>
    </g>
</svg>
