<?xml version="1.0" encoding="UTF-8" standalone="no"?>
<!DOCTYPE svg PUBLIC "-//W3C//DTD SVG 1.1//EN" "http://www.w3.org/Graphics/SVG/1.1/DTD/svg11.dtd">
<svg width="100%" height="100%" viewBox="0 0 825 967" version="1.1" xmlns="http://www.w3.org/2000/svg" xmlns:xlink="http://www.w3.org/1999/xlink" xml:space="preserve" xmlns:serif="http://www.serif.com/" style="fill-rule:evenodd;clip-rule:evenodd;stroke-linejoin:round;stroke-miterlimit:2;">
    <g transform="matrix(1,0,0,1,-99.579034,-28.528379)">
        <g transform="matrix(3.77796,0,0,3.77796,-1378.812141,-242.150185)">
            <path d="M514.59,327.59C514.97,323.92 514.8,320.12 514.51,316.44C510.63,312.23 505.94,308.7 501.08,305.71C492.84,300.25 484.07,294.96 475.02,290.93C472.77,289.7 470.27,289.21 468.07,287.85C465.14,286.67 461.94,286.32 459.08,284.85C448.75,282.21 437.08,282.51 426.51,283.6C425.11,285.1 423.19,284.17 421.49,285.4C418.29,286.01 415.85,287.59 412.98,288.98C412.34,289.91 412.01,291.69 412.14,292.79C414.07,292.9 415.65,290.46 415.72,288.69C416.35,288.37 416.97,288.24 417.59,288.29C416.81,289.24 415.75,289.72 415.89,291.13L416.91,291.67C421.66,291.18 426.26,289.61 430.99,288.98C436,288.59 441.01,288.62 446.01,289.03C450,289.93 454.03,290.99 458,291.98C470.26,296.4 481.48,303.31 491.8,311.2C492.57,311.7 492.94,312.27 492.91,312.92C488.84,313.58 484.18,313.31 480,313.3C455.38,313.3 430.8,313.27 406.18,313.33C404.6,315.8 406.17,320.82 405.67,323.71L404.98,324.24L403.95,324.03C402.95,320.93 403.79,316.78 403.52,313.43C399.65,312.83 394.93,313.98 391.32,312.75C394.54,307.13 398.86,302.02 403.54,297.56C404.36,296.39 405.8,297.1 405.61,295.46C403.8,295.56 403.48,294.8 402.96,296.91C401.06,296.52 396.89,293.77 397.48,291.52C396.37,291.42 395.27,291.16 394.18,290.74C394.24,289.2 394.34,288.73 393.43,287.41C395.78,287.42 396.68,286.29 396,284.01C397.72,280.88 398.59,277.89 401.44,275.51C403.96,275.61 405.68,273.76 406.55,271.58C406.87,272.99 407.51,273.3 408.46,272.49C408.86,271.6 409.35,271.16 409.91,271.17L410.32,272.75C412.57,273.32 411.15,270.46 412.54,269.51C413.66,268.41 415.1,269.24 416.33,268.23C419.72,266.22 424.8,267.67 426.45,263.42C429.47,264.73 430.32,261.9 433.51,261.42C438.38,257.55 439.53,250.34 443.39,245.49C443.93,243.43 444.9,241.97 446.47,240.56C450.39,239.26 454.12,237.62 458.06,236.59C459.98,236.63 460.73,236.47 462.02,235.02C467.97,228.95 472.86,222.17 476.47,214.45C477.27,212.73 478.68,211.84 478.82,210.02C478.65,205.47 476.72,200.88 475.58,196.53C474.9,191.88 472.77,187.79 472.51,183.06C470.51,176.88 469.6,170.91 468.53,164.54C468.37,163.29 467.66,162.61 466.41,162.5C466.88,162.35 467.35,162.2 467.82,162.05C467.78,160.82 467.69,159.59 467.55,158.37C466.82,158.21 465.98,158.38 465.03,158.88C464.58,157.93 464.13,156.98 463.67,156.04C464.13,155.39 464.49,154.72 464.75,154C462.65,150.31 464.1,146.78 463.27,142.86C463.71,140.21 463.45,137.63 463.55,134.95C465.49,133.06 463.61,131.41 465.44,129.56C464.58,126.64 467.57,121.4 470.18,120.14C470.5,119.48 470.83,118.83 471.17,118.18C471.66,118.29 472.16,118.4 472.65,118.52C473.82,116.54 475.11,114.22 475.81,112.02C479.42,106.49 481.97,100.64 486.6,95.58C488.12,94.01 489.17,91.77 491,90.63L491.97,90.88C496.4,94.57 501.22,97.62 505.49,101.5C512.43,107.06 516.77,111.31 523.01,116.87C525.8,115.35 528.19,111.8 530.98,109.88C537.98,103.4 545.55,97.72 553.55,92.52C555.91,91.01 555.44,87.83 555.51,85.42C554.25,83.21 550.96,85.62 548.96,84.84C548.28,83.64 548.25,78.27 548.94,77.07C551.13,76.79 553.35,78.48 555.56,78.6C555.83,76.24 554.13,74.07 554.95,71.92C556.95,71.26 559.65,71.96 561.72,72.3C562.2,74.47 561.02,77.06 561.89,79.11C563.57,79.99 565.86,79.11 567.73,79.27C568.34,81.09 568.29,84.98 567.83,86.86C566.03,87.34 563.98,85.5 562.03,86.09C561.46,87.68 561.62,91.01 562.56,92.46C564.81,95.19 567.4,97.66 569.55,100.47C578.48,111.53 584.48,123.83 589.41,137.07C589.84,140.39 591.65,143.03 591.53,146.47L592.77,147.21C591.86,149.05 593.22,149.89 592.59,151.54C594.04,153.87 593.46,157.39 593.56,160.06C591.59,161.88 593.29,164 591.97,165.92C590.84,167.25 592.32,167.97 591.65,169.52C591.12,175.07 589.37,180.57 589.44,186.07C592.25,189.15 593.48,192.82 592.83,196.97C592.15,199.52 591.07,201.61 588.05,201.46C586.35,201.57 586.3,203.15 586.61,204.48C587.6,207.75 589.08,210.47 588.91,214.01C588.61,216.79 585.42,218.01 585.04,220.99C586.19,225.84 586.9,230.72 588.36,235.51C588.45,238.15 589.14,241.09 588.63,243.67C587.18,246.94 582.04,246.23 580.51,248.47C580.92,251.09 582.09,253.22 581.05,256C579.93,258.83 580.87,261.43 579.23,264.08C577.05,266.73 579.62,269.12 580.02,271.99C580.65,276.53 583.23,280.5 583.51,285.04C582.8,287.01 580.45,287.93 579.69,289.97C581.41,296.79 584,306.19 581.06,312.92C576.72,313.67 571.87,313.02 567.41,313.4C567.15,316.3 567.36,319.13 566.64,321.99C566.55,323.26 567.49,324.88 565.46,324.56C565.54,319.82 564.9,315.28 565.63,310.53C566.97,309.25 566.63,307.69 567.12,305.98C567.28,304.35 568.55,303.13 568.58,301.53C567.3,301.35 566.21,300.82 565,300.42C562.65,301.3 561.79,303.08 561.44,305.52C561.05,306.49 560.86,309.3 559.26,308.76C547.57,297.44 535.78,287.06 523.17,276.79C513.29,268.92 503.6,261.28 492.16,255.81C491.82,254.53 493.65,254.04 494.43,253.4C496.99,251.67 499.46,249.81 502,248.06C510.22,241.51 515.8,233.1 520.66,223.93C523.38,217.12 527.34,210.88 529.78,203.92C530.74,202.24 532.04,201.49 531.66,199.31C529.87,199.6 528.1,200.05 526.31,200.36C524.6,201.52 523.93,204.17 522.8,205.88C518.32,215.33 514.72,223.87 508.36,232.36C502.68,240.4 494.06,246.68 485.65,251.61C483.57,252.45 481.03,249.77 478.94,249.47C475.55,249 472.27,247.17 468.95,246.47C465.24,246.03 461.99,244.59 458.06,245.31C456.13,246.03 454.22,246.51 452.46,247.5L452.42,248.55C456.96,249.45 461.35,250.84 465.94,251.51C477.11,255.27 488.09,259.53 497.98,266.09C517.56,277.9 535.44,294.21 552.02,309.88C552.81,310.73 554.68,311.68 554.77,312.88L554.01,313.2C545.76,313.36 537.47,313.1 529.22,313.39C528.65,313.79 528.42,314.51 528.56,315.53C527.38,314.58 525.29,315.81 524.02,316.07C520.82,316.16 523.88,323.31 520.49,321.57C520.4,320.67 520.27,319.79 520.07,318.92C517.88,317.83 516.87,318.62 517.14,321C517.4,323.04 516.64,325.11 517,327.06L514.59,327.59Z" style="fill:rgb(1,1,2);fill-rule:nonzero;"/>
            <path d="M550.67,103.22C551.51,107.17 552.71,110.98 553.16,115C554.04,121.93 556.21,128.81 555.72,135.73C554.25,135.66 552.39,136.01 551.52,134.55C550.98,126.82 549,119.62 547.8,112.03L547,111.83C540.29,117.76 533.68,123.99 527.98,130.91C519.55,140.08 513.41,150.92 505.12,160.13C503.91,161.7 501.89,162.51 500.78,164C501.25,167.01 502.45,169.94 502.69,173C503.1,176.45 504.77,179.47 504.93,183C505.41,187.83 508.09,192.02 507.65,196.68C506.44,197.82 505.05,197.64 503.5,197.58C503.17,193.06 502.04,188.77 500.63,184.49C500.28,180.28 498.76,176.51 497.63,172.49C497.2,170.19 497.17,167.15 495.81,165.17C493.33,163.94 490.81,163.29 488.76,161.24C483.89,157.05 481.73,151.73 479.43,145.94C478.39,141.07 477.55,135.98 477.57,131C478.06,124.28 481.55,117.49 484.55,111.56C484.51,112.7 484.62,114.02 484.17,115.08C482.44,122.46 482.04,130.44 482.95,138C483.93,141.04 483.35,144.06 485.18,146.9C486.88,152.05 490.99,158.85 497.02,159.19C501.66,157.94 504.46,152.68 507.26,149.26C509.93,145.31 512.8,141.48 515.62,137.64C521.4,129.42 528.13,122.31 535.3,115.31C539.43,111.1 544.2,107.45 548.83,103.81C549.45,103.2 550.07,103 550.67,103.22Z" style="fill:rgb(143,203,252);fill-rule:nonzero;"/>
            <path d="M559.99,102.72C561.19,103.96 563.94,105.07 563.81,107C564.03,108.81 562.06,109.39 560.98,110.43C559.62,109.91 556.9,107.46 556.66,106.01C557.57,104.83 558.61,103.34 559.99,102.72Z" style="fill:rgb(143,203,252);fill-rule:nonzero;"/>
            <path d="M568.36,109.37C570.6,110.38 571.72,113.79 573.4,115.52C575.11,119 574.27,122.23 574.84,126.01C574.76,129.76 576.09,133.11 575.76,136.81C574.37,137.67 573.19,137.7 572.23,136.9C571.74,132.92 571.25,128.89 570.49,124.95C569.99,119.7 569.54,114.52 568.36,109.37Z" style="fill:rgb(143,203,252);fill-rule:nonzero;"/>
            <path d="M563.47,114.64C563.86,116.47 565,119.11 563.76,120.78C563.05,121.1 562.25,121.06 561.35,120.66C560.64,118.79 559.66,116.45 559.55,114.5C560.86,112.36 561.78,114.19 563.47,114.64Z" style="fill:rgb(143,203,252);fill-rule:nonzero;"/>
            <path d="M562.33,123.3C563.9,122.14 564.85,125.23 566.09,125.81C566.91,126.05 567.74,126.27 568.58,126.47C569.55,129.08 567.5,128.95 566.96,131C566.81,134.18 567.41,137.74 568.17,140.81C570.4,141.27 572.74,141.29 575,141.56C577,141.77 577.62,140.99 578.37,139.32C581.15,138.13 579.79,143.8 581.98,144.18C583.57,145.14 583.23,146.91 581.44,147.47C580.94,149.31 581.58,150.72 579.37,151.59C578.4,150.62 578.05,148.89 576.85,148.23C574.43,147.43 571.49,146.57 568.95,147.13C568.23,148.79 568.9,151.19 568.94,153C570.06,155.75 568.75,159.34 570.2,161.84C571.32,163.14 572.6,163.73 571.7,165.7C570.81,165.89 569.91,166.06 569.01,166.21C567.7,168.41 567.39,171.42 567.99,173.85C569.42,174.86 570.71,175.85 571.52,177.46C571.85,179.1 571.72,180.89 571.49,182.54C570.15,184.4 568.42,185.69 566.01,184.97C562.35,183.5 561.16,178.66 563.58,175.56C564.24,174.09 565.79,174.35 566.49,173.04C566.6,170.23 566.24,168.57 564.95,166.11C563.36,165.78 560.95,165.53 561.28,163.32C563.95,160.99 563.62,158.21 563.35,155C562.91,151.88 563.58,148.78 562.06,146.16C559.14,145.58 555.98,145.92 553,145.81C550.8,145.68 549.74,147.04 548.77,148.77C547.16,149.27 546.74,147.18 546.54,146.05C546.47,144.23 544.26,143.98 543.38,142.63C543.02,141.04 544.82,140.63 545.78,139.77C546.1,138.69 546.3,137.56 546.39,136.39C548.91,135.24 548.94,137.27 550.21,138.73C552.45,139.72 554.66,139.43 557.03,139.61C558.48,140.63 559.89,140.39 561.56,140.49C562.21,137.49 561.62,131.85 559.78,129.22C559.04,128.19 556.91,126.65 559,125.7C561.26,125.77 561.32,125.05 562.33,123.3Z" style="fill:rgb(143,203,252);fill-rule:nonzero;"/>
            <path d="M553.26,150.24C554.36,149.78 556.83,149.16 557.74,150.13C557.75,157.57 558.16,165.22 557.61,172.61C545.5,172.32 532.74,172.35 520.94,175.53C518.13,176.14 515.03,176.12 512.5,177.42C511.18,177.84 509.82,177.94 508.48,177.58C508.41,176.46 508.34,175.35 508.29,174.24C513.6,171.31 521.14,171.22 527.06,169.51C530.24,169.57 532.83,168.23 536,168.52C541.69,167.98 547.39,168.26 553.04,167.85C554.19,162.71 552.87,155.64 553.26,150.24Z" style="fill:rgb(143,203,252);fill-rule:nonzero;"/>
            <path d="M577.5,153.48C578.42,159.12 578.74,165.26 578.88,171C579.45,173.4 583.88,173.52 584.53,175.95C584.35,176.89 584.07,177.82 583.68,178.73C580.9,178.06 578.39,176.06 575.44,175.5C574.81,168.33 574.43,160.23 573.7,152.98C573.87,150.59 576.63,152.71 577.5,153.48Z" style="fill:rgb(143,203,252);fill-rule:nonzero;"/>
            <path d="M461.47,177.47C461.54,177.54 461.54,177.54 461.47,177.47Z" style="fill:rgb(1,1,2);fill-rule:nonzero;"/>
            <path d="M529.53,177.49C531.57,177.1 535.37,176.43 536.63,178.58C535.19,178.78 533.5,178.55 532.18,179.19C531.38,180.47 532.77,181.85 533.99,182.06C538.5,183.03 542.35,179.1 546.03,177.05C549.26,175.78 554.04,176.15 555.35,179.95C556.11,182.29 554.33,184.69 551.88,184.01C551.43,183.23 551.41,182.27 551.82,181.13C550.91,179.77 549.52,179.39 547.97,179.82C544.97,180.88 542.41,183.11 539.5,184.41C537.19,184.72 534.81,184.77 532.5,184.42C530.54,183.74 528.97,182.35 527.03,181.68C525.24,181.28 523.26,181.49 521.42,181.52C521.33,178.13 529.02,180.6 529.53,177.49Z" style="fill:rgb(143,203,252);fill-rule:nonzero;"/>
            <path d="M493.41,181C490.86,184.61 487.26,185.62 483.51,187.49C482.71,187.95 481.99,188.03 481.32,187.73C481.13,186.63 480.84,185.57 480.46,184.55C481.62,182.88 484.16,182.53 485.92,181.84C487.43,181.16 489.02,181.18 490.61,181.55C490.9,180.04 492.68,179.66 493.41,181Z" style="fill:rgb(143,203,252);fill-rule:nonzero;"/>
            <path d="M516.5,180.54C517.76,180.15 518.8,181.6 519.67,182.33C520.57,184.07 519.3,185.08 518.45,186.48C516.89,186.92 514.78,186.83 514.3,184.95C513.79,182.67 514.93,181.85 516.5,180.54Z" style="fill:rgb(143,203,252);fill-rule:nonzero;"/>
            <path d="M582.67,182.34C583.34,183.7 583.08,185.29 582.68,186.7C582.09,186.39 581.52,186.07 580.95,185.73C579.52,186.34 579.08,187.52 577.35,186.62C576.39,185.72 576.05,185.03 576.65,183.78C577.56,181.02 580.52,182.06 582.67,182.34Z" style="fill:rgb(143,203,252);fill-rule:nonzero;"/>
            <path d="M542,186.79C550.48,185.94 558.5,187.01 566.95,187.53C570.04,188.15 573.06,188.8 576,189.97C578.12,190.32 579.98,190.98 581.7,192.29C581.86,193.61 581.66,194.72 580.7,195.69C574.97,194.17 569.03,191.47 563,191.47C555.73,190.52 548.31,190.72 541,191.01C537.62,192.02 533.76,191.15 530.48,192.35C525.82,192.39 521.46,193.54 516.95,194.57C515.42,194.75 513.94,195.15 512.47,194.57C512.43,193.51 512.43,192.46 512.44,191.42L513.47,190.57C518.09,190.3 522.44,188.71 527,188.2C531.83,187.03 537.04,187.3 542,186.79Z" style="fill:rgb(143,203,252);fill-rule:nonzero;"/>
            <path d="M496.64,198.51C493.87,200.72 488.99,203.06 485.47,203.59C485.33,202.3 484.85,200.63 485.39,199.42C488.98,197.92 493.02,196.02 496.64,198.51Z" style="fill:rgb(143,203,252);fill-rule:nonzero;"/>
            <path d="M548.45,197.51C554.29,196.99 559.73,198.08 565.51,198.6C570.53,200.11 574.96,200.08 579.17,202.75C580.58,203.65 580.73,205.46 581.24,206.91C581.74,208.89 582.73,210.4 582.53,212.48C580.78,213.02 577.49,213.5 577.8,215.99C577.5,218.74 579.52,220.4 579.67,222.99C580.69,228.63 583.03,235.03 582.77,240.77C580.46,241.34 577.81,240.79 575.51,240.37C573.15,239.26 570.93,240.03 568.46,239.56C568.18,237.96 569.24,236.57 568.82,235.09C567.44,234.15 566.56,236.1 565.8,236.95C564.57,238.72 562.2,240.59 564.17,242.78C568.03,243.96 571.26,245.12 574.28,247.89C574.78,249.02 574.88,250.56 574.78,251.78C572.64,252.43 571.32,250.05 568.99,251.02C565.79,251.64 563.22,253.73 559.97,253.71C558.24,253.65 556.56,257.56 557.07,258.84C560.32,257.4 563.52,256.96 566.99,256.2C569.81,255.68 571.98,256.73 574.63,257.42C575.37,258.85 574.77,260.54 573.54,261.49C570.35,262.14 568.33,259.81 565.22,261.18C564.53,263.02 563.35,264.92 563.17,266.88L564,267.04C566.42,265.76 568.98,266.12 571.64,266.34C573.97,271.51 574.57,276.72 576.16,282.02C576.45,283.8 573.55,285.31 572.39,286.38C571.31,287.03 569.85,289.06 568.5,288.49C566.4,287.25 564.29,286.04 562.23,284.75C556.58,281.94 553.8,275.31 548.99,271.02L548.18,271.02C547.76,273.73 550.42,276.74 550.6,279.6C549.79,279.7 549.04,279.4 548.35,278.68C541.22,273.94 533.4,269.39 526.44,264.54C523.86,262.74 524.71,258.71 523.7,256.12C522.09,251.5 521.97,246.57 520.38,241.98C520.76,240.11 521.73,238.21 522.61,236.51C524.39,234.33 524.5,231.57 526.39,229.41C528.95,230.62 530.47,232.7 532.65,234.32C535.21,235.95 537.65,238.01 539.42,240.48C539.73,242.08 539.95,243.62 540.76,245.07C542.88,249.26 542.6,254.09 545.62,257.67C546.22,254.24 545.62,250.5 545.74,247C545.56,243.27 546.14,239.09 545.51,235.46C541.19,231.4 536.86,227.7 533.25,222.94C532.09,220.92 530.93,219.45 532.3,217.11C534.43,212.92 536.17,208.57 538.51,204.51C540.46,203.61 542.56,203.25 544.54,202.46C546.43,200.85 547.36,199.67 548.45,197.51Z" style="fill:rgb(143,203,252);fill-rule:nonzero;"/>
            <path d="M559.28,206.64C564.34,208.41 569.32,211.77 574.59,212.52C574.98,214.1 573.36,215.26 572.6,216.51C571.91,220.05 574.8,224.21 573.63,227.66C571.94,225.51 570.8,223.13 568.68,221.28C565.66,221.52 561.7,226.57 558.32,225.67C558.98,224.11 561.75,223.32 561.54,221.56C556.57,220 551.75,218.16 546.95,216.15C546.26,215.67 544.44,215.18 544.29,214.29C545.84,213.6 551.16,212.95 550.54,210.45C548.72,210.58 546.84,212.16 545.02,211.06C544.77,209.29 548.61,208.59 549.8,207.69C552.93,205.74 555.77,204.84 559.28,206.64Z" style="fill:rgb(1,1,2);fill-rule:nonzero;"/>
            <path d="M492.58,209.42C492.47,211.13 491.15,212.79 490.28,214.22C486.88,221.67 483.08,229.11 479.56,236.57C478.85,237.77 478.27,239.56 477,240.25C475.64,239.66 470.5,239.16 471.09,237.05C475.5,231.51 480.19,225.51 482.96,218.99C484.8,216.6 485.2,213.77 487.5,211.59C489.51,211.31 490.72,209.55 492.58,209.42Z" style="fill:rgb(143,203,252);fill-rule:nonzero;"/>
            <path d="M399.3,251.32C399.71,251.75 399.71,251.75 399.3,251.32Z" style="fill:rgb(1,1,2);fill-rule:nonzero;"/>
            <path d="M444.04,263.3C449.9,262.8 455.32,264.16 461,265.23C463.78,265.26 465.84,266.81 468.47,267.49C483.99,272.37 497.55,281.54 509.02,292.98C509.81,293.85 510.65,294.28 510.61,295.58C508.96,293.65 506.75,292.74 504.74,291.27C497.6,286.54 489.92,282.29 481.98,279.08C476.63,276.16 470.1,275.02 464.5,272.62C457.7,271.98 451,269.9 444,269.86C440.46,269.7 436.87,269.95 433.35,269.59C434.29,268.31 435.88,268.17 437.3,267.36C439.79,266.27 441.54,264.26 444.04,263.3Z" style="fill:rgb(143,203,252);fill-rule:nonzero;"/>
            <path d="M394.33,284.3C395.76,284.62 394.48,286.84 393.21,285.91C392.96,285.12 393.34,284.58 394.33,284.3Z" style="fill:rgb(1,1,2);fill-rule:nonzero;"/>
            <path d="M586.53,291.48C588.92,293.09 591.43,294.39 593.5,296.42C599.11,295.8 602.47,297.9 604.63,303.03C604.28,303.52 603.94,304.02 603.6,304.51C605.02,307.75 607.63,309.86 609.65,312.66C608.77,313.08 607.89,313.27 607,313.23C600.66,313.17 594.32,313.32 587.99,313.26L587.14,312.92C587.82,306.41 588.45,298.55 585.57,292.49C585.14,291.49 585.46,291.15 586.53,291.48Z" style="fill:rgb(1,1,2);fill-rule:nonzero;"/>
        </g>
    </g>
</svg>
