<?xml version="1.0" encoding="UTF-8" standalone="no"?>
<!DOCTYPE svg PUBLIC "-//W3C//DTD SVG 1.1//EN" "http://www.w3.org/Graphics/SVG/1.1/DTD/svg11.dtd">
<svg width="100%" height="100%" viewBox="0 0 450 483" version="1.1" xmlns="http://www.w3.org/2000/svg" xmlns:xlink="http://www.w3.org/1999/xlink" xml:space="preserve" xmlns:serif="http://www.serif.com/" style="fill-rule:evenodd;clip-rule:evenodd;stroke-linejoin:round;stroke-miterlimit:2;">
    <g transform="matrix(1,0,0,1,-31.442032,-14.906798)">
        <g transform="matrix(1,0,0,1,-5537,0.121785)">
            <g transform="matrix(1.859577,0,0,1.859577,4840.659382,-85.408996)">
                <path d="M456.12,54.06C456.33,60.72 456.67,67.37 456.87,74.03C457.72,84.16 457.48,95.23 459.44,105.19C460.74,112.49 464.63,118.76 469.67,124.09C471.62,117.94 473.88,111.93 476.77,106.16C479.8,111.28 482.04,116.43 485.93,121.04C488.15,123.79 490.92,125.76 493.79,127.75C495.57,126.82 497.36,125.9 499.16,125C501.24,119.89 503.27,114.77 505.69,109.8C508.02,105.09 509.73,100.21 512.55,95.75C516.39,104.75 520.9,113.42 524.46,122.54C525.56,125.81 528.3,126.4 531.02,127.92C539.44,122.46 543.36,114.51 548.12,106.07C550.68,112.04 553.14,117.92 555.12,124.11C560.74,118.38 564.53,110.98 565.62,103C566.57,98.02 566.47,93.07 567,88.03C567.64,76.65 568.27,65.28 568.37,53.88C576.58,65.76 584.26,78.02 591.66,90.42C598.38,101.44 600.73,115.2 597.85,127.79C596.75,133.19 594.77,138.25 592.94,143.43C606.38,135.53 619.78,127.5 633.32,119.73C626.37,132.17 617.94,143.96 611.92,156.87C609.13,162.71 608.4,168.98 608.6,175.39C610.17,177 611.52,178.58 613.77,179.23C618.11,180.57 622.64,181.21 627.03,182.37C622.21,187.46 617.78,192.85 612.62,197.62C610.88,199.38 608.51,201.16 607.49,203.45C606.14,209.96 609.39,215.1 611.67,220.88C604.38,223.03 596.85,225.69 590.5,229.93C594.59,234 600.01,236.42 603.59,240.88C591.62,244.22 578.86,246.95 569.07,255.12C566.45,257.43 563.01,260.19 561.87,263.59C561.21,267.37 561.49,271.38 561.57,275.2C558.01,279.31 553.83,281.41 551.34,286.36C549.54,289.86 549.99,293.26 549.13,296.95C546.49,300.85 542.76,304.17 538.97,306.94C534.96,309.64 531.55,312.44 526.66,313.31C526.55,310.21 526.42,307.12 526.15,304.03C520.62,305.75 517.58,310.1 512.85,312.94C510.57,312.66 508.51,310.59 506.71,309.27C504.13,307.09 501.48,305.31 498.36,304C497.84,307.05 497.65,310.12 497.56,313.21C493.18,312.04 489.63,309.62 485.97,307.04C481.74,303.93 477.78,300.58 474.64,296.32C474.47,292.49 474.71,288.73 472.7,285.32C470.42,281.35 467.04,279.17 463.98,276.01C463.02,275.17 463.37,273.18 463.23,272.01C463.14,268.26 463.55,263.8 461.29,260.56C459.14,257.54 456.01,255.1 452.95,253.05C443.02,246.13 432.23,243.86 420.75,240.87C424.7,236.4 430.05,233.91 434.18,229.68C427.55,225.43 420.32,223.17 412.79,220.99C413.98,217.32 415.99,213.97 417.11,210.29C417.64,207.05 418.26,203.88 415.61,201.4C409.55,195.2 402.96,189.06 397.88,181.99C402.97,180.69 409.23,180.56 413.78,177.84C416.66,176.31 416.04,172.72 416.09,169.99C415.28,157.37 407.33,146.48 400.95,136.05C397.79,130.56 394.45,125.18 391.37,119.65C400.66,124.98 409.77,130.62 419.06,135.95C423.5,138.46 427.65,141.39 432.24,143.64C429.48,137.25 427.23,130.7 426.1,123.81C424.7,116.01 425.82,107.67 428.31,100.2C430.9,93.61 434.74,87.44 438.43,81.42C444.34,72.3 449.99,63.03 456.12,54.06Z" style="fill:white;fill-rule:nonzero;"/>
                <path d="M573.56,72.42C578.64,80.33 583.89,88.23 588.27,96.57C592.65,105.05 594.4,114.59 592.55,124.02C591.25,134.5 586.18,142.14 582,151.58C584.51,150.21 587.06,148.93 589.61,147.62C589.12,149.85 588.59,152.08 588.05,154.31C596.86,147.5 607.02,142.28 616.52,136.46C611.45,144.97 605.96,153.68 603.69,163.46C602.74,168.83 601.93,175.11 605.13,179.91C607.69,183.76 611.78,184.87 615.98,186.04C612.42,190.83 607.53,194.21 603.74,198.73C599.35,204.55 601.35,211.16 603.87,217.25C595.44,219.97 588,224.05 580.81,229.18C584.47,232.35 588.48,235.03 592.27,238.03C587.9,239.37 583.43,240.53 579.17,242.2C570.36,246.61 562.46,251.49 556.8,259.79C554.52,263.48 556.16,269.12 555.21,273.05C552.17,276.17 549,278.86 547.02,282.87C544.76,286.73 544.95,290.7 543.87,294.85C540.99,299.11 535.98,301.52 532.24,305.34C532.88,302.62 533.22,299.86 533.43,297.07C530.09,298.02 526.74,298.97 523.45,300.08C519.22,301.51 515.84,303.91 512.22,306.43C508.4,303.9 504.66,300.91 500.2,299.7C497.17,298.8 494.13,297.94 491.09,297.06C491.42,299.96 491.9,302.78 492.63,305.61C489.04,302.13 484.6,299.39 481.37,295.58C479.21,293.29 480.04,289.55 479.26,286.52C477.97,280.61 472.89,276.82 468.81,272.8C468.63,268.87 469.39,264.39 468.32,260.61C463.48,252.33 454.65,246.99 446.38,242.65C442.01,240.67 437.25,239.47 432.66,238.09C436.34,235.07 440.31,232.45 443.87,229.27C436.63,223.96 429.3,220.14 420.79,217.29C423.46,211.71 425.34,205.89 421.81,200.16C418.29,194.76 412.41,191.22 408.44,186.05C412.54,184.74 417.42,183.83 419.87,179.88C422.73,175.53 422.04,168.86 421.14,163.98C419.07,153.31 413.15,145.9 408.48,136.51C417.95,142.13 427.35,147.81 436.43,154.07C436.02,151.93 435.65,149.8 435.33,147.65C437.83,148.96 440.29,150.33 442.71,151.8C437.65,140.9 432.13,131.45 431.61,119.04C430.76,107.83 435.04,98.1 440.79,88.79C444.35,83.35 447.32,77.69 451.25,72.5C451.59,84.01 451.78,96.55 454.07,108.04C456.23,117.69 463.25,126.14 469.52,133.51C470.75,135.11 472.39,136.01 474.12,136.99C474.12,130.42 475.03,125.34 477.3,119.2C479.92,122.4 481.82,125.57 484.73,128.27C487.53,130.96 490.73,132.8 494.05,134.75C496.98,132.69 499.87,131.06 503.34,130.09C506.04,122.96 509.03,115.9 512.36,109.04C515.43,115.7 518.72,122.41 520.88,129.43C524.28,130.9 527.43,132.56 530.45,134.71C538.13,131.66 542.75,125.68 547.26,119.07C549.97,124.85 550.44,130.85 550.87,137.12C555.66,133.71 559.46,128.66 562.83,123.89C566.73,118.47 569.88,112.82 571.16,106.2C573.42,95.2 572.84,83.61 573.56,72.42Z" style="fill-rule:nonzero;"/>
                <path d="M446.5,90.35C446.63,94.27 446.57,98.09 447.2,101.98C447.62,105.34 448.37,108.74 448.22,112.06C449.62,115.42 451.28,118.64 453.32,121.67C457.02,127.11 460.69,132.49 465.28,137.25C461,138.57 457.82,140.7 454.56,143.72C450.36,137.75 446.61,131.2 444.32,124.25C443.12,120.73 442.79,116.95 441.5,113.49C440.63,117.13 440.25,120.89 439.6,124.57C439.14,120.75 438.27,116.76 438.43,112.96C439.17,104.49 442.86,97.79 446.5,90.35Z" style="fill:rgb(0,130,75);fill-rule:nonzero;"/>
                <path d="M578.3,90.8C581.91,97.14 584.84,103.73 586.02,111C586.91,115.77 585.57,121.03 584.99,125.87C584.55,121.41 584.27,117.02 583.1,112.67C581.97,124.24 576.68,134.33 570.06,143.66C566.82,140.71 563.79,138.71 559.63,137.23C562.31,134.02 565.04,130.87 567.43,127.43C571.37,121.96 575.76,115.67 577.52,109.1L576.61,108.02C577.75,102.24 578.32,96.69 578.3,90.8Z" style="fill:rgb(0,130,75);fill-rule:nonzero;"/>
                <path d="M512.45,123.02C516.22,131.53 519.55,140.31 522.15,149.25C523.73,145.39 523.28,141.6 523.26,137.53C528.34,140.49 533.2,143.74 538.06,147.04C537.75,148.35 537.57,149.78 537.01,151C533.97,156.75 529.83,161.89 526.83,167.65C531.65,163.18 537.31,159.38 541.27,154.27C543.39,151.63 544.61,148.32 546.83,145.8C550.1,142.9 554.9,141.56 559.17,142.68C562.15,143.74 564.78,146.07 567.18,148.07C564.73,150 562.53,152.11 560.7,154.65C556.76,160.1 552.39,165.21 547.92,170.23C556.78,165.02 567.07,161.91 576.83,158.79C574.93,163.85 572.13,168.59 569.1,173.05C566.74,176.49 563.46,178.47 560.11,180.78C561.4,177.22 562.38,173.62 563.17,169.92C557.55,176.71 549.96,180.07 543.24,185.88C543.28,183.58 543.29,181.29 543.27,178.99C540.82,183.09 539.79,187.61 538.1,192C536.41,195.3 533.07,198.08 529.9,199.91C527.62,201.15 525.81,200.04 523.57,199.42C523.4,197.02 522.56,194.05 523.85,191.89C529.06,182.11 535.83,173.56 543.13,165.28C537.57,168.64 532.29,173.08 528.1,178.04C523.5,184.58 518.52,189.68 518.19,198.17C516.71,196.24 515.23,194.32 513.78,192.37C513.23,192.9 512.68,193.43 512.13,193.96C511.57,193.47 511.01,192.98 510.45,192.49C509.24,194.35 508.01,196.19 506.79,198.04C505.82,190.05 501.27,184.56 496.77,178.28C492.45,172.66 487.06,168.82 481.25,164.93C488.82,173.6 495.75,182.62 501.25,192.78C502.34,195.19 501.72,199.12 499.18,200.43C496.74,200.66 494.42,200.14 492.53,198.55C489.49,195.93 486.6,193.25 485.56,189.24C484.47,185.4 483.11,181.88 481.36,178.3C481.41,180.92 481.46,183.55 481.48,186.18C477.86,182.76 473.73,180.13 469.59,177.41C466.4,175.37 464.08,172.59 461.56,169.83C462.14,173.46 463.1,176.99 464.21,180.5C461.22,178.42 458.3,176.88 456.21,173.8C453.02,169.16 450.05,164.26 447.93,159.03C457.97,161.64 467.82,165.37 477.01,170.19C475.03,168.11 472.98,166.08 471.11,163.91C466.38,158.53 463.41,152.53 457.65,148.04C459.64,146.28 461.42,144.53 463.89,143.43C468.55,141.27 474.37,142.4 478.14,145.78C480.05,148.63 481.32,151.77 483.62,154.38C487.83,159.29 493.06,163.39 497.89,167.69C494.35,161.31 488.69,154.54 487.08,147.33C491.45,143.26 496.63,140.55 501.43,137.07C501.52,140.67 501.68,144.27 501.86,147.88L502.84,147.82C505.47,139.39 508.51,130.94 512.45,123.02Z" style="fill:rgb(0,130,75);fill-rule:nonzero;"/>
                <path d="M480.29,132.25C482.94,134.37 485.61,136.46 488.45,138.33C486.81,140.3 485.05,141.56 482.81,142.77C480.96,139.39 480.46,136.06 480.29,132.25Z" style="fill:rgb(0,130,75);fill-rule:nonzero;"/>
                <path d="M544,132.21C543.97,135.87 543.76,139.18 542.04,142.48C539.99,141.36 538.01,140.13 536.08,138.82C538.84,136.75 541.45,134.53 544,132.21Z" style="fill:rgb(0,130,75);fill-rule:nonzero;"/>
                <path d="M512.25,145.5C516.43,152.39 519.55,161.33 520.72,169.28C517.95,164.96 515.44,160.48 512.64,156.17C508.98,160.12 507.12,165.13 503.68,169.21C505.24,160.84 508.43,153.07 512.25,145.5Z" style="fill-rule:nonzero;"/>
                <path d="M601.59,151.88C596.23,158.51 591.9,165.88 586.34,172.38C582.77,176.91 578.32,180.02 574.07,183.84C574.42,177.47 576.58,171.77 581.55,167.58C588.11,162.25 594.48,156.47 601.59,151.88Z" style="fill:rgb(0,130,75);fill-rule:nonzero;"/>
                <path d="M424.07,152.6C428.03,155.41 431.94,158.16 435.57,161.4C439.8,165.18 444.83,168.39 447.72,173.41C449.72,176.67 450.03,180.1 450.86,183.78C444.56,179.02 438.56,173.47 433.98,167C430.57,162.27 427.14,157.57 424.07,152.6Z" style="fill:rgb(0,130,75);fill-rule:nonzero;"/>
                <path d="M596.36,165.13C596.66,171 595.67,178.57 599.61,183.4C600.3,184.56 601.76,185.77 601.78,187.17C593.6,189.03 585.18,189.83 576.92,191.35C580.92,187.12 585.23,183.38 588.62,178.6C591.53,174.41 594.66,169.93 596.36,165.13Z" style="fill:rgb(0,130,75);fill-rule:nonzero;"/>
                <path d="M427.88,165.73C430.43,169.96 433.04,174.16 435.82,178.23C439.28,183.2 443.56,187.32 447.92,191.47C439.28,189.95 430.6,188.65 421.95,187.14C422.58,186.39 423.2,185.63 423.82,184.87C428.43,180.16 428.62,171.86 427.88,165.73Z" style="fill:rgb(0,130,75);fill-rule:nonzero;"/>
                <path d="M457.29,183.37C459.35,184.83 461.42,186.36 463.2,188.16C463.74,190.36 463.62,192.71 464.19,194.92C465.03,197.92 466.73,200.6 468.34,203.24C468.17,200.22 467.87,197.21 467.72,194.19C469.41,196.77 470.91,199.71 473.04,201.95C476.03,204.88 479.54,205.97 483.36,207.35C479.86,208.54 476.4,208.39 472.77,208.29C474.75,209.35 476.8,210.6 478.95,211.26C483.12,212.35 487.07,211.87 491.24,211.18C488.86,213.52 486.33,215.59 483.66,217.59C487.2,217.6 489.81,216.25 492.72,214.42C492.74,219.22 492.62,223.99 492.17,228.77C492.9,227.38 493.64,225.99 494.39,224.6C494.62,228.23 494.7,231.87 495.05,235.5C497.09,231.3 497.29,226.6 500.43,223.44C503.67,220.03 507.36,217.3 509.93,213.27C505.55,214.85 501.47,216.62 498.13,219.95C498.9,216.71 499.08,213.26 500.15,210.11C500.63,208.57 502.47,208.02 503.74,207.22C506.56,204.46 509.39,201.76 512.51,199.34C515.25,201.94 517.98,204.56 520.72,207.16C521.92,207.8 523.64,208.19 524.2,209.54C525.54,212.84 525.97,216.6 526.63,220.09C523.17,216.62 518.86,215.29 514.59,213.16C516.94,217 519.96,219.85 523.42,222.65C527.45,225.75 527.62,231.95 529.63,236.54C529.67,232.58 529.81,228.66 530.2,224.73C530.96,226.08 531.72,227.43 532.49,228.79C531.94,223.96 531.56,219.21 531.7,214.35C534.77,216.2 537.64,217.51 541.26,217.85C538.57,215.7 535.93,213.49 533.3,211.27C537.25,211.74 541.08,212.31 545.04,211.52C547.56,210.98 550.01,209.42 552.27,208.2C548.35,208.37 544.71,208.76 540.96,207.2C543.81,206.43 546.53,205.72 548.94,203.91C552.49,201.55 554.41,198.22 556.61,194.7C556.58,197.53 556.48,200.35 556.41,203.18C559.06,199.28 560.91,195.83 560.82,190.97C560.2,187.41 565.32,185.38 567.4,183.16C567.74,188.71 566.97,193.77 565.56,199.11C566.82,197.15 568.04,195.17 569.24,193.18C570.84,196.93 573.17,200.93 573.69,205C572.21,212.71 562.9,214.67 557.09,218.06C560.05,214.7 562.05,210.8 563.87,206.75C561.11,209.45 558.28,211.91 555.12,214.15C548.55,219.05 543.16,224.57 538.92,231.62C541.07,229.93 543.28,228.42 545.65,227.05C544.07,233.8 543.49,240.05 543.45,246.98C541.29,244.53 539.27,240.8 535.79,240.33C534.15,239.94 532.37,241.04 530.86,241.62C529.96,233.65 522.54,230.22 515.78,228.03C518.07,231.54 520.35,233.86 523.78,236.26C526.53,238.14 527.67,239.93 528.84,243.02C526.37,245.46 524,247.99 521.86,250.72C526.18,248.48 530.39,246.3 535.11,244.99C536.38,246.32 538.8,247.87 538.49,249.94C538,254.08 535.81,258.09 534.4,262C536.08,260.59 537.76,259.15 539.47,257.76C540.01,260.43 541.13,263.07 539.67,265.65C538.06,268.96 535.14,270.54 531.88,271.93L531.37,270.14C529.61,272.87 527.35,274.91 524.59,276.59C520.36,279.14 516.46,282.16 512.21,284.67C506.09,280.09 499,276.55 493.66,271.1C493.09,271.35 492.52,271.6 491.96,271.85C489.74,270.42 486.9,268.84 485.46,266.57C483.84,263.72 484.58,260.91 484.94,257.84C486.68,259.2 488.35,260.64 490,262.1C488.88,258.9 487.71,255.71 486.68,252.48C486.27,251 485.87,248.93 486.63,247.53C487.56,246.54 488.87,245.88 489.98,245.12C494.54,246.51 498.68,248.62 502.85,250.88C500.88,247.88 498.8,245.44 496.06,243.11C496.84,238.24 500.63,236.88 503.94,233.94C506.17,232.21 507.51,229.92 508.97,227.57C503.72,229.53 499.56,231.74 495.47,235.63C494.89,237.61 494.32,239.58 493.77,241.56C491.98,240.96 490.37,239.9 488.44,240.47C485.42,241.09 483.4,244.52 481.44,246.69C480.31,240.05 480.64,233.36 479.19,226.76C481.32,228.27 483.4,229.83 485.52,231.34C482.71,226.92 479.68,222.72 475.62,219.36C470.79,214.79 465.04,211.7 460.74,206.55C462.47,210.72 464.34,214.64 467.72,217.76C461.49,214.91 455.74,213.6 451.71,207.47C449.74,202.87 453.82,197.22 455.17,192.78C456.43,194.89 457.67,197.01 458.93,199.12C457.91,193.89 457.04,188.73 457.29,183.37Z" style="fill:rgb(0,130,75);fill-rule:nonzero;"/>
                <path d="M474.18,188.38C479.74,191.71 483.35,198.03 487.8,202.75C483.72,202.55 479.92,202.09 476.87,199.1C474,196.46 474.15,191.96 474.18,188.38Z" style="fill:white;fill-rule:nonzero;"/>
                <path d="M550.67,188.37C550.58,192.53 550.51,196.31 547.51,199.52C544.41,202.05 540.86,202.82 536.91,202.61C540.47,198.39 543.8,193.73 547.99,190.12C548.87,189.52 549.77,188.94 550.67,188.37Z" style="fill:white;fill-rule:nonzero;"/>
                <path d="M423.6,192.24C424.65,192.43 425.7,192.62 426.74,192.82C433.47,194.34 440.28,195.56 446.92,197.41C446.04,199.65 445.19,201.9 444.39,204.16C437.68,199.77 430.88,195.62 423.6,192.24Z" style="fill:rgb(0,130,75);fill-rule:nonzero;"/>
                <path d="M601.3,192.34C593.56,195.18 587.38,200.19 580.25,204.07C579.53,201.83 578.82,199.59 578.1,197.35C585.74,195.41 593.53,193.7 601.3,192.34Z" style="fill:rgb(0,130,75);fill-rule:nonzero;"/>
                <path d="M595.51,201.55C594.14,205.79 594.88,209.52 596.3,213.6C587.68,215.13 578.88,217.65 571.22,221.98C577.43,212.78 586.08,207.01 595.51,201.55Z" style="fill:rgb(0,130,75);fill-rule:nonzero;"/>
                <path d="M429.72,202.09C438.8,206.73 447.77,213.28 453.55,221.8C445.69,217.77 437.49,215.39 428.89,213.55C429.81,209.73 429.98,206 429.72,202.09Z" style="fill:rgb(0,130,75);fill-rule:nonzero;"/>
                <path d="M467.76,223.44C469.94,224.11 472.08,224.92 474.21,225.77C474.67,228.89 475.1,232.01 475.47,235.14C472.75,231.35 470.21,227.41 467.76,223.44Z" style="fill:rgb(0,130,75);fill-rule:nonzero;"/>
                <path d="M557.05,223.32C554.6,227.32 552.16,231.32 549.49,235.19C549.56,231.96 549.79,228.79 550.51,225.63C552.68,224.82 554.85,224.04 557.05,223.32Z" style="fill:rgb(0,130,75);fill-rule:nonzero;"/>
                <path d="M562.41,224.89C562.75,228.22 563.21,231.54 563.7,234.86C559.62,240.1 556.44,246.12 553.51,252.06C553.08,249.62 552.3,246.86 552.86,244.42C554.91,237.31 558.44,231.07 562.41,224.89Z" style="fill:rgb(0,130,75);fill-rule:nonzero;"/>
                <path d="M461.9,224.88C466.24,229.91 468.54,235.84 471.13,241.86C472.28,245.06 471.74,249.05 471.45,252.37C468.39,246.29 465.22,240.38 461.05,234.96C461.37,231.6 461.67,228.25 461.9,224.88Z" style="fill:rgb(0,130,75);fill-rule:nonzero;"/>
                <path d="M449.93,233.07C453.64,235.11 456.34,239.35 459.06,242.54C454.42,239.63 449.39,237.8 444.17,236.23C445.92,235.1 447.84,233.37 449.93,233.07Z" style="fill:rgb(0,130,75);fill-rule:nonzero;"/>
                <path d="M574.15,233.16C576.35,233 578.53,235.21 580.37,236.26C575.13,237.83 570.25,239.83 565.6,242.73C568.27,239.45 570.91,235.9 574.15,233.16Z" style="fill:rgb(0,130,75);fill-rule:nonzero;"/>
                <path d="M476.97,250.02C477.69,252.2 478.48,254.38 479.01,256.6C479.81,260.23 479.51,264.54 480.82,268.05C481.95,271.14 484.57,273.14 485.84,276.13C486.98,278.83 487.35,282.02 488.27,284.76C489.18,287.16 490.95,289.3 492.44,291.37C490.5,290.84 488.56,290.59 486.56,290.47C485.63,286.31 484.91,282.08 482.61,278.42C480.67,275.26 477.68,272.85 475.74,269.74C475.89,263.2 476.38,256.55 476.97,250.02Z" style="fill:rgb(0,130,75);fill-rule:nonzero;"/>
                <path d="M548.05,250.03C548.61,256.98 548.68,263.98 548.86,270.95C546.43,272.87 544.15,274.87 542.52,277.55C539.59,282.03 539,286.68 537.41,291.69C537.09,291.21 536.77,290.72 536.45,290.24C534.93,290.63 533.41,291.02 531.9,291.41C533.29,289.63 534.85,287.83 535.89,285.82C537.49,282.49 537.9,278.59 539.35,275.24C540.83,272.4 543.31,270.48 544.07,267.19C545.35,261.32 545.33,255.55 548.05,250.03Z" style="fill:rgb(0,130,75);fill-rule:nonzero;"/>
                <path d="M492.1,251.18C495.86,252.41 499.06,255.54 501.22,258.77C503.4,262 503.22,265.44 503.47,269.18C502.16,267.09 500.99,264.49 499.11,262.88C497.3,261.43 494.93,260.53 492.83,259.56C492.34,257.24 491.35,255.27 490.31,253.18C490.7,252.37 491.3,251.7 492.1,251.18Z" style="fill-rule:nonzero;"/>
                <path d="M531.48,251.47C532.71,250.77 533.7,252.16 534.69,252.69C533.41,254.81 532.37,256.84 531.98,259.33C529.92,260.41 527.65,261.35 525.81,262.78C523.88,264.49 522.63,267.1 521.2,269.23C521.42,266.15 521.13,262.53 522.74,259.81C524.74,256.29 527.82,253.24 531.48,251.47Z" style="fill-rule:nonzero;"/>
                <path d="M489.04,275.85C491.04,276.76 492.88,277.91 494.74,279.07C494.67,281.48 494.57,283.89 494.42,286.29C492.09,283 489.71,279.94 489.04,275.85Z" style="fill:rgb(0,130,75);fill-rule:nonzero;"/>
                <path d="M535.66,275.64C534.66,279.52 532.73,282.83 530.47,286.1C530.03,283.95 529.62,281.79 529.24,279.63C531.31,278.19 533.43,276.82 535.66,275.64Z" style="fill:rgb(0,130,75);fill-rule:nonzero;"/>
                <path d="M497.39,281.02C498.32,281.63 499.25,282.25 500.17,282.86C504.12,285.55 508.02,288.26 512.29,290.44C517.73,287.83 522.3,284.05 527.46,280.99C527.5,284.18 527.27,287.18 526.59,290.29C522.67,292.43 518.78,294.56 515.13,297.15C514.25,297.65 513.28,298.62 512.24,298.67C509.76,297.16 507.58,295.27 504.95,293.98C502.64,292.71 499.88,291.72 497.93,289.95C496.94,287.23 497.38,283.87 497.39,281.02Z" style="fill:rgb(0,130,75);fill-rule:nonzero;"/>
            </g>
        </g>
    </g>
</svg>
