<?xml version="1.0" encoding="UTF-8" standalone="no"?>
<!DOCTYPE svg PUBLIC "-//W3C//DTD SVG 1.1//EN" "http://www.w3.org/Graphics/SVG/1.1/DTD/svg11.dtd">
<svg width="100%" height="100%" viewBox="0 0 474 434" version="1.1" xmlns="http://www.w3.org/2000/svg" xmlns:xlink="http://www.w3.org/1999/xlink" xml:space="preserve" xmlns:serif="http://www.serif.com/" style="fill-rule:evenodd;clip-rule:evenodd;stroke-linejoin:round;stroke-miterlimit:2;">
    <g transform="matrix(1,0,0,1,-19.619354,-47.033727)">
        <g transform="matrix(1,0,0,1,-1947,-569)">
            <g id="Flier" transform="matrix(1,0,0,1,-3590,569.647578)">
                <g transform="matrix(1.817439,0,0,1.817439,4881.858776,-40.978144)">
                    <path d="M371.27,48.07C375.95,49.25 380.09,51.39 384.74,53.09C390.8,55.38 397.12,56.67 403.2,58.91C407.51,60.51 411.88,61.87 416.31,63.11C416.49,62.49 416.66,61.86 416.84,61.24C420.52,63.62 424.38,65.9 428.4,67.63C435.55,70.37 442.14,74.13 449.48,76.43C457.75,79.97 465.45,84.74 473.84,88.09C490.75,94.83 507.86,101.52 524.91,107.9C530.86,110.12 534.6,116.16 537.56,121.45C540.82,127.86 545.51,133.26 549.04,139.51C545.4,140.25 541.76,141 538.13,141.76C533.24,135.65 528.89,129.11 523.87,123.11C521.1,119.72 517.42,118.1 513.49,116.44C506.44,113.44 499.35,110.57 492.18,107.88C480.37,103.44 468.75,98.53 456.94,94.12C449.9,91.5 443.21,88.42 436.03,86.19C442.69,90.64 450.2,93.92 457.29,97.69C476.01,106.79 495.01,115.12 513.67,124.38C518.46,126.95 521.56,132.83 525.06,136.95C527.55,139.81 529.4,143.02 531.2,146.33C525.96,147.81 520.6,148.35 515.27,149.36C509.71,150.42 506.2,153.99 501.17,156.07C496.6,157.9 492.18,157.15 487.36,158.45C482.23,159.84 477.36,163.52 472.47,165.37C468.22,167.03 462.81,166.13 458.41,165.42C450.88,164.04 444.97,160.11 439.05,155.51C452.78,154.36 466.44,153.21 479.98,150.56C464.72,149.58 450.38,149.64 435.49,145.54C431.22,144.28 426.21,143.1 422.6,140.42C416.93,136.15 411.99,131.06 407.97,125.2C416.13,127.02 424.2,129.13 432.46,130.48C445.51,132.63 458.85,135.4 472.11,135.64C458.76,130.78 444.72,128.01 431.15,123.75C423.35,122.12 415.98,118.91 408.1,118.37C406.29,118.2 404.6,117.69 403.1,116.67C398.74,113.69 394.85,110.39 392.33,105.66C389.22,99.89 386.88,93.71 384.12,87.76C391.79,90.62 398.93,94.63 406.65,97.37C419.01,101.95 431.22,107.05 443.69,111.27C452.44,114.14 460.98,117.49 469.88,119.88C459.91,114.89 449.84,110.08 439.79,105.25C430.8,100.92 421.62,96.94 413.04,92.02C409.41,89.91 405.51,88.43 401.77,86.56C397.38,84.36 393.77,81.06 390.01,77.96C386.81,75.23 383.4,72.57 380.55,69.47C378.19,66.91 377.32,63.82 376.04,60.65C374.47,56.48 372.48,52.35 371.27,48.07Z" style="fill:rgb(217,0,0);fill-rule:nonzero;"/>
                </g>
                <g transform="matrix(1.817439,0,0,1.817439,4881.858776,-40.978144)">
                    <path d="M542.11,91.25C547.55,93.01 552.68,95.85 558.01,97.99C566.09,101.2 574.13,104.52 582.17,107.83C585.39,109.16 588.16,110.99 589.93,114.07C593.06,119.38 595.17,125.14 598.87,130.15C598.05,122.72 595.46,116.36 593.22,109.23C599.57,108.56 606.75,107.83 612.93,109.76C617.45,111.26 622.73,113.51 625.73,117.36C629.74,123.21 631.47,129.93 631.84,136.95C626.74,136.45 621.82,135.01 616.76,134.31C612.53,133.68 609.75,136.03 606.16,137.77C609.92,137.47 613.68,137.21 617.41,138.01C620.75,138.74 624.02,139.8 627.33,140.64C628.57,144.23 629.41,147.91 630.12,151.63C628.65,152.1 627.18,152.56 625.71,153.02C624.77,158.04 623.53,163 622.58,168.02C616.64,166.44 611,164.08 605.42,161.55C601.53,159.86 599.77,156.25 597.38,152.96C597.32,156.66 597.46,160.39 597.18,164.08C596.84,168.21 594.53,172.36 593.02,176.22C596.16,175.23 599.43,173.77 602.72,173.43C607.27,176.3 609.9,181.81 607.84,187.07C606.09,192.9 601.6,194.94 596.82,197.88C596.5,196.37 596.18,194.86 595.84,193.35C591.99,196.69 589.94,201.02 587.01,205.05C585.11,207.72 582.43,208.4 579.58,209.65C575.41,211.32 571.8,213.95 567.59,215.55C562.81,217.41 558.14,219.02 553.78,221.82C551.2,223.37 548.69,225.5 545.86,226.54C543.64,226.48 541.38,225.48 539.28,224.78C534.61,223.02 529.83,221.64 525.03,220.29C534.14,226.07 543.34,231.66 552.3,237.7C557.82,241.43 562.22,246.4 567.71,250.19C571.48,252.84 574.95,255.77 577.56,259.61C579.74,262.85 582.43,266.27 583.55,270.04C583.87,273.52 581.88,277.35 580.48,280.47C579.42,282.43 577.91,285.51 575.64,286.27C572.58,286.81 569.13,285.93 566.05,285.72C559.4,285.24 552.67,285.6 546,285.5C515.3,285.41 484.58,285.7 453.88,285.37C459.43,280.59 465.98,277.31 471.4,272.4C474.56,269.57 477.82,266.86 481.07,264.14C484.6,266.83 487.78,270.13 491.56,272.44C494.81,273.3 498.84,271.97 502.08,271.34C510.27,269.62 518.31,267.32 526.45,265.42C534.9,262.85 544.42,267.22 553.08,268.6C547.15,265.28 541.21,261.93 535.13,258.89C530.03,256.14 523.39,260.06 517.98,258C513.62,256.24 509.58,253.7 505.33,251.67C499.36,248.67 493.97,245.45 490.54,239.48C487.67,234.87 488,229.17 488.4,223.97C488.92,217.98 492.68,212.86 496.6,208.54C501.77,203.14 509.28,202.05 515.07,198.12C519.04,195.38 520.5,189.91 524.17,187.18C530.23,185.29 536.76,184.94 542.91,183.24C543.74,186.61 544.15,190.92 546.26,193.73C550.3,197.4 555.9,199.64 560.79,201.97C558.47,199.05 556,196.25 553.54,193.45C552.42,192.09 551,190.47 550.76,188.68C550.24,184.16 550.9,179.49 550.34,174.97C549.41,174.21 548.35,173.99 547.17,174.29C542.63,175.14 538.28,176.8 533.74,177.71C525.23,179.39 516.64,180.33 507.96,180.13C504.28,179.8 501.29,183.52 498.52,185.52C495.55,188.21 492.01,189.23 488.18,190.02C489.93,181.55 491.95,173.11 494.53,164.85C497.14,164.45 499.85,164.09 502.35,163.24C506.96,161.66 510.99,158.26 515.55,156.78C519.33,155.59 523.64,155.43 527.59,155.06C527.54,156.41 527.49,157.75 527.44,159.1C531,156.45 534.29,153.49 537.72,150.7C542,147.04 548.72,146.4 554.08,147.05C560.8,147.72 565.72,152.87 570.81,156.81C569.84,154.25 568.88,151.7 567.96,149.13C572.07,149.85 576.1,151.11 580.23,151.59C583.24,152.1 585.78,148.87 587.91,147.17C583.81,146.68 579.93,145.43 575.91,144.54C578.12,141.83 579.67,139.25 580.99,136C584.76,137.25 588.55,138.45 592.24,139.94C590.87,137.69 589.74,134.99 587.3,133.71C581.78,130.54 574.1,131.39 568.59,129.3C565.46,128.17 563.73,125.71 561.56,123.35C566.7,123.35 571.83,123.5 576.96,123.55C570.66,121.66 563.62,120.4 557.9,117.09C554.29,115.06 552.47,111.81 550.68,108.24C558.75,110.46 566.68,113.05 574.88,114.78C567.96,111.33 560.67,108.69 553.74,105.3C547.86,102.3 543.83,97.67 542.11,91.25Z" style="fill:rgb(217,0,0);fill-rule:nonzero;"/>
                </g>
                <g transform="matrix(1.817439,0,0,1.817439,4881.858776,-40.978144)">
                    <path d="M488.58,164.95C487.37,172.29 485.38,179.41 483.62,186.62C483.2,188.14 482.78,189.71 482.09,191.13C479.59,192.87 476.07,193.34 473.18,194.22C468.64,195.52 463.48,196.85 459.62,199.66C457.4,202.23 457.25,206.4 455.19,209.2C453.07,212.01 450.51,214.55 447.93,216.93C446.28,218.56 444.34,218.54 442.21,219.04C442.54,216.36 442.98,213.7 443.46,211.04C438.6,213.29 433.96,215.99 429.15,218.33C425.92,219.88 422.78,219.68 419.3,219.87C422.38,213.53 424.52,205.5 429.27,200.31C435.2,193.95 443.05,192.59 450.23,188.22C455.37,185.08 460.38,181.71 465.49,178.5C473.19,173.72 480.04,168.28 488.58,164.95Z" style="fill:rgb(217,0,0);fill-rule:nonzero;"/>
                </g>
                <g transform="matrix(1.817439,0,0,1.817439,4881.858776,-40.978144)">
                    <path d="M480.5,235.88C482.05,240.13 483.13,244.29 486.27,247.71C491.63,253.45 498.43,256.54 505.12,260.36C502.55,261.76 499.92,263.3 497.15,264.25C495.66,264.69 494.28,265.06 492.91,264.09C488.88,261.48 485.15,258.43 481.07,255.88C475.41,259.57 470.03,263.48 465.15,268.17C459.59,273.51 453.13,276.46 446.93,280.94C444.66,282.47 442.26,284.41 439.62,285.24C437.15,285.72 434.51,285.56 432,285.57C420.99,285.42 409.97,285.65 398.96,285.43C402,282.99 405.23,280.72 408.1,278.08C411.37,275.07 413.32,271.48 416.76,268.74C420.58,265.76 425.15,263.24 429.97,262.45C434.31,261.69 438.65,261.23 442.89,260.01C449.22,258.25 456.15,256.59 461.3,252.32C467.93,246.97 473.21,240.46 480.5,235.88Z" style="fill:rgb(217,0,0);fill-rule:nonzero;"/>
                </g>
            </g>
        </g>
    </g>
</svg>
