<?xml version="1.0" encoding="UTF-8" standalone="no"?>
<!DOCTYPE svg PUBLIC "-//W3C//DTD SVG 1.1//EN" "http://www.w3.org/Graphics/SVG/1.1/DTD/svg11.dtd">
<svg width="100%" height="100%" viewBox="0 0 980 579" version="1.1" xmlns="http://www.w3.org/2000/svg" xmlns:xlink="http://www.w3.org/1999/xlink" xml:space="preserve" xmlns:serif="http://www.serif.com/" style="fill-rule:evenodd;clip-rule:evenodd;stroke-linejoin:round;stroke-miterlimit:2;">
    <g transform="matrix(1,0,0,1,-23.740177,-405.346368)">
        <g>
            <path d="M540.33,405.35C544.29,405.24 549,407.66 553,408.35C577.8,416.21 601.71,428.48 621.75,445.27C629.38,451.43 635.51,458.97 641.05,467C643.47,471.05 645.88,475.38 646.93,480C648.49,485.74 647.83,492.58 647.54,498.54C646.29,499.31 644.78,498.84 643.45,498.54C635.14,494.65 630.22,484.33 623.71,478.26L623.35,478.25C622.88,479.7 624.22,480.43 624.27,482C625.21,483.88 625.15,485.79 626.54,487.45C626.56,491.06 629.28,496.64 627.69,500.7C625.1,503.85 621.65,505.83 619.25,509.16C616.42,512.47 614.64,516.6 612.21,520.14C610.17,523.1 604.18,521.9 601.55,523.54C594.77,523.88 587.73,526.05 581,527.11C565.81,531.37 551.14,535.18 536.56,541.54C529.29,545.19 521.12,550.86 515.46,556.58C516.24,556.87 517.08,556.98 518,556.89C526.48,556.63 535.35,556.16 544,557.34C559.26,559.64 575.85,563.24 586.88,575.07C587.67,577.03 585.82,576.85 584.69,577.63C568.72,583.77 554.16,591.27 540.28,601.31C534.06,606.94 527.35,612.4 522.17,619C521.42,620.82 518.25,622.64 518.44,624.54C533.2,614.07 548.13,606.16 565.43,600.46C567.04,600.16 569.1,598.79 570.68,599.27C564.68,606.73 557.24,616.5 553.38,625.32C549.82,633.56 547.79,642.03 547.07,651C545.9,655.4 546.59,660.8 546.46,665.55C548.34,666.17 547.43,663.64 548.54,662.56C553.23,649.73 559.34,637.62 567.7,626.74C572.69,619.67 579.49,613.67 586.2,608.24L586.78,608.24C586.76,610.87 584.55,614.22 584,617C580.41,627.32 579.38,639.31 581.91,650C584.18,662.42 591.54,671.12 599.76,680.22C602,682.69 604.92,685.67 606.54,688.54C603.27,689.22 599.4,687.81 596,687.62C592.87,687.76 590.37,686.26 587,686.59C585.06,686 583.1,685.51 581,685.58C565.18,681.59 546.41,685.99 531,690.02C524.5,692.23 518.24,694.85 512,697.74C506.98,699.08 503.32,702.49 498,703C496.04,703.84 493.99,703.91 492,704.7C473.95,709.43 456.28,718.43 444.23,733.18C437.14,741.59 431.73,751.66 428.28,762.06C425.46,770.04 423.13,778.41 423.58,787C422.17,790.71 423.22,795.93 423.12,800C423.94,802.29 423.39,804.58 423.81,807C427.04,837.65 438.83,866.94 455.16,893C463.1,905.85 472.94,917.89 482.56,929.43C483.31,930.83 485.48,932.36 485.7,933.79L485,933.86C461.56,919.23 439.83,902.37 422.22,880.84C419.21,877.71 416.81,873.05 413.46,870.43C413.81,873.42 415.43,876.98 416.24,880C421.73,896.18 429.2,912.56 437.44,927.56C444,938.47 451.32,948.79 459.33,958.69C465.06,965.33 470.45,972.11 477.07,977.92C477.94,979.11 481.43,980.96 479.59,982.57C476.91,983.48 473.81,983.17 471,983.42C429.67,983.42 388.33,983.43 347,983.42C344.8,983.2 342.77,983.6 341.13,981.83C334.91,975.74 329.06,969.17 323.54,962.46C307.56,944.17 294.84,922.59 285.65,900.19C279.77,886.61 275.73,872.53 273.06,858C271.73,854.88 272.73,850.8 271.46,847.56C270.66,838.44 270.93,829.48 270.59,820.42C268.9,821.48 267.63,824.58 266.28,826.2C259.92,836.84 253.98,847.96 249.54,859.55L248.46,859.55C247.99,856.9 247.73,854.13 247.54,851.43C246.29,848.59 247.17,844.95 246.11,842C245.61,837.47 245.89,833.1 245,829C244.35,815.29 244.57,801.61 246.31,788.07C247.14,785.77 246.47,782.82 247.54,780.58C247.72,777.69 248.55,774.89 248.41,772C249.71,768.8 250.03,764.12 251.54,760.6C256.11,740.82 263.5,721.31 272.25,703.08C280.14,686.41 288.3,669.64 297.67,653.76C302.95,644.23 308.54,634.73 314.64,625.68C326.73,606.43 339.15,588.02 352.69,569.74C365.81,551.27 380.03,533.06 394.96,516C403.83,505.73 413.63,496.7 423.27,487.23C424.88,486.4 425.35,485.78 426.54,484.46C411.59,488.21 398.28,494.95 385,503C383.79,503.43 382.53,505.22 381.21,504.81C381.08,504.17 381.28,503.55 381.81,502.96C387.42,494.2 394.46,486.11 402.6,479.6C407.45,475.14 412.64,470.75 418.22,467.26C425.49,462.25 432.96,457.76 440.77,453.66C441.89,452.3 444.06,453.36 443.56,451.46C440.86,451.4 438.14,451.4 435.45,451.46C433.45,452.54 430.69,451.64 428.58,452.54C421.53,453.42 412.63,454.47 406,456.58C403.85,456.65 402.59,457.98 400.43,457.55C400.09,455.96 401.33,456.21 402.18,455.23C410.09,448.43 418.81,443.92 428,439.15C442.16,432.1 458.34,427.88 473.94,425.69C478.5,424.76 484.05,425.32 488.56,424.54C486.58,422.46 483,420.7 480.27,419.66C474.56,417.08 468.9,415.33 463,413.32C460.6,412.76 458.53,412.75 456.3,411.66C455.64,409.45 459.29,410.94 460.45,409.46C470.33,409.24 480.11,408.53 490,409.34C492.91,409.74 496.38,408.8 499,410.04C504.35,410.21 508.2,411.52 513.55,411.46C515.21,412.84 517.46,411.94 519.06,412.76C529.83,415.4 540.51,417.77 550.94,421.25C552.59,421.84 554.78,423 556.54,422.57C553.2,418.67 548.2,412.73 544.65,409.36C543.55,408.19 540.87,406.68 540.33,405.35Z" style="fill:rgb(170,30,41);fill-rule:nonzero;"/>
            <path d="M500.38,457.36C505.67,456.54 510.88,458.03 516,459.08C524.38,461.41 532.2,464.59 539.38,469.6C547.59,474.73 554.31,481 562.04,486.83C568.99,492.85 576.95,497.94 586,499.96C590.78,500.41 595.4,500.2 600,498.89C601.82,498.96 602.92,497.15 604.59,497.42C604.96,498.78 603.39,499.64 602.68,500.69C598.57,504.9 593.04,508.78 587,509.15C583.01,509.83 578.94,509.09 575,509.23C570.25,511.66 566.83,516.28 562,518.82C557.22,521.6 552,524.71 546.45,525.46C544.15,526.52 542,526.95 539.46,526.54C541.04,524.72 543.98,523.67 545.74,521.74C546.53,521.11 547.85,519.28 546,519.12C537.57,519.46 528.22,517.99 521.57,512.44C515.44,507.71 511.42,499.8 508.11,493C506.11,488.9 502.54,485.77 498.07,484.69C489.28,481.48 480.6,482.1 471.44,481.54C472.54,479.77 473.82,480.59 475.4,479.44C481.36,477.63 488.21,474.86 494.55,474.54C497.11,473.29 500.51,474.09 503,473.03C509.32,472.34 515.33,472.95 521.54,472.54C516.03,466.13 507.91,461.2 500.38,457.58L500.38,457.36Z" style="fill-rule:nonzero;"/>
            <path d="M241.45,462.46C246.32,462.36 251.05,461.41 256,461.82C260.03,462.05 263.88,463.42 267.56,464.46C268.85,465.37 270.01,466.02 271.55,466.46C274.8,469.03 278.04,471.06 280.38,474.64C287.02,483.4 288.25,494.32 286.63,505C285.59,510.92 283.28,516.16 280.46,521.43C276.51,529.16 272.51,537.77 268.33,546.17C266.58,551.47 263.11,555.82 261.54,561.55C258.66,566.53 257.26,572.68 255.29,578.06C253.18,583.53 252.39,591.22 251.43,597C251.12,603.77 250.78,610.32 252.3,616.94C254.66,630.48 261.66,643.85 273.46,651.54C275.06,652.84 278.09,654.16 276.65,656.71C271.04,666.79 264.98,676.39 259.74,686.88C259.33,687.67 258.75,688.07 258,688.06C249.88,681.19 244.08,673.22 238.87,664C234.46,655.86 231.25,646.27 230.92,637C229.89,630.73 230.46,623.42 230.41,617C231.1,613.66 231.31,609.89 231.45,606.44C232.67,603.97 231.97,601.29 232.98,599C234.86,588.68 237,579.61 240.61,569.73C241.57,566.89 243.21,563.28 243.56,560.44C237.64,568.45 230.93,580.83 226.72,590C223.87,595.23 220.41,602.5 218.18,608.05C213.7,616.5 209.67,627.07 205.74,636C201.02,646.12 196.8,657.5 193.26,668.06C192.49,671.14 190.82,673.27 190.54,676.55C188.71,679.66 188.26,683.72 186.92,687C182.82,699.86 179.21,714.74 176.66,728C176.53,730.43 175.25,732.34 175.58,735C174.11,739.11 173.91,743.64 173.25,747.05C170.7,761.88 169.07,779.87 168.1,795C167.54,808.02 167.84,821 168.43,834C169.53,837.69 168.92,842.39 169.72,846.06C170.87,855.23 172.02,865.95 173.88,875C175.29,877.2 173.86,879.31 175.54,881.45C175.53,885.33 176.7,888.56 177.54,892.42C180.69,906.85 185.31,920.37 190.74,934.07C194.62,943.23 197.47,952.02 202.19,961C205.93,968 209.13,975.19 212.73,982.15C213,983.24 212.75,983.74 212,983.65C192.2,983.48 171.22,983.67 151.4,983.58C149.93,981.98 149.41,979.49 148.45,977.56C145.89,970.62 143.78,964.71 141.39,957.68C139.99,956.46 140.61,955.61 140.17,954C134.18,934.34 129.72,916.34 126.9,896C125.94,893.4 126.62,890.07 125.46,887.55C125.27,880.69 124,875.22 123.88,868C123.39,864.71 124,861.14 123.13,858C122.83,847.68 122.76,837.32 123.09,827C123.89,825.02 123.45,823.08 123.62,821C123.98,816.33 123.94,811.67 124.41,807C124.17,803.14 125.62,799.25 125.41,795C126.43,790.52 126.29,786.06 127.59,780.87C129.65,764.06 134.2,744.53 138.38,728C138.14,726.34 139.21,725.44 139.65,723.92C141.87,714.68 145.2,705.74 147.54,696.44C145.76,697.59 145.45,700.9 144.36,702.29C139.05,712.97 134.54,724.81 130.18,736C124.78,749.42 120.57,762.69 116.55,776.57C114.11,784.45 113.38,790.43 111.1,798C110.25,804.49 107.74,811.12 107.54,817.55C105.89,821.48 105.66,826.32 105.54,830.55C104.08,832.4 104.78,835.32 104.54,837.55C102.91,839.24 104.12,841.42 103.28,843.06C102.35,850.58 101.11,856.28 100.95,864C99.98,866.28 100.63,868.47 100.37,871C99.42,890.53 99.83,910.05 100.46,929.57C101.81,933.72 100.64,938.87 101.97,943C102.3,952.25 104.17,960.42 104.46,969.55C105.84,971.97 104.79,975.48 106.01,978C105.8,979.92 107.12,981.77 106.54,983.54C104.19,983.67 100.11,984.49 98.25,982.78C85.44,958.62 74.65,932.02 69.7,905.06C68.94,902.45 69.4,899.19 68.46,896.57C67.94,890.93 67.97,884.41 66.99,879C66.77,868.7 66.65,858.29 67.23,848C68,832.78 70.79,817.81 73.72,802.95C76.41,791.68 78.17,782.13 81.62,770.84C86.06,753.18 93.17,735.14 99.83,718C105.61,704.16 111.56,691.88 118.55,678.57C123.78,667.89 131.23,654.44 137.13,644.04C137.55,643.68 137.7,643.14 137.57,642.44C132.52,647.44 126.98,655.72 122.46,661.46C116.28,670.24 109.81,679.15 104.46,688.44C96.12,703.62 86.93,718.75 80.73,735C76.13,744.18 72.64,754.35 69.29,764.06C66.1,773.39 63.81,781.42 61.62,791C58.47,804.43 57.45,814.37 54.73,827C52.53,840.63 47.32,851.82 42.68,864.74C41.74,866.59 38.21,867.73 36.58,866.39C35.53,863.8 34.98,860.79 34.72,858C32.46,847.26 32.3,838.8 31.28,828C30.69,817.77 31.26,807.66 31.46,797.45C32.51,795.45 32.21,792.65 32.46,790.42C33.34,787.79 33.03,784.55 33.71,781.94C37.72,758.78 44.83,735.57 54.14,714C65.69,687.82 79.27,664.35 95.9,641C112.52,618.57 130.07,597.55 149.04,577.04C149.53,576.72 149.71,576.19 149.56,575.46C124.94,592.44 101.36,614.23 83.35,638.32C76.02,647.84 69.46,657.53 64.55,668.56C62.02,672.98 61.24,678.18 57.23,681.24C44.8,692.46 34.35,705.22 24.78,718.89L24.05,718.89C23.29,717.69 24.13,715.66 24.43,714.35C31.58,684.07 43.31,654.94 58.91,628C72.62,604.13 88.98,582.01 108.66,562.67C114.72,556.37 120.86,550.2 127.41,544.42C138.59,535.17 150.15,526.21 162.34,518.36C167.06,515.31 171.94,512.36 176.54,509.45C172.4,508.98 168.1,511.46 164,512.02C151.72,515.51 141.35,518.98 129.46,523.54C129.3,522.8 129.47,522.27 129.96,521.96C135.18,517.41 139.76,512.47 145.59,508.59C149.56,505.11 154.05,502.5 158.26,499.29C166.17,494.31 172.98,489.53 181.55,485.54C188.12,482.21 193.11,479.67 199.87,476.69C213.29,469.89 227.22,466.32 241.45,462.46Z" style="fill:rgb(170,30,41);fill-rule:nonzero;"/>
            <path d="M531,479.82C533.71,481.35 536.32,483.26 538.57,485.43C539.53,487.03 537.19,489.13 536.46,490.46C534.78,494.93 536.37,500.01 540.45,502.54C544.66,504.05 548.78,502.99 551.83,499.8C553.74,496.93 558.89,498.76 558.96,502C558.55,504.04 557.24,505.4 555.71,506.7C550.89,510.44 544.38,511.86 538.42,510.54C530.72,508.59 523.22,501.47 523.77,493C523.58,488.81 524.88,484.79 527.54,481.55C528.72,480.76 529.37,479.31 531,479.82Z" style="fill:rgb(170,30,41);fill-rule:nonzero;"/>
            <path d="M635.44,509.45C637.73,509.04 639.86,508.61 642,509.78C657.6,517.6 671.56,525.85 686.67,533.37C697.54,539.16 711.35,545.14 717.7,556.26C720.13,560.02 721.82,563.98 723.67,568C725.61,573.38 726.36,578.53 727.58,584C727.59,589.68 728.17,596.49 727.02,602C726.55,607.28 724.99,613.48 721.84,617.83C719.85,618.4 720.14,616.04 719.24,614.95C715.22,605.65 708.92,597.39 701.63,590.37C688.53,577.81 672.89,569.95 656,563.84C644.33,559.31 630.2,555.08 618,552.12C615.04,551.69 612.71,551.42 609.87,550.39C606.17,549.99 602.7,549.08 599,548.68C596.26,547.72 593.23,548.47 590.58,547.46C583.92,546.81 579.77,546.53 573,545.63C569.35,545.84 566.78,544.56 563,544.58C561.9,544.71 560.79,544.54 560.41,543.41C562.95,541.73 565.88,540.93 568.45,539.46C571.48,539.42 573.98,537.98 577,537.87C581.5,536.63 586.55,536.11 591,535.11C592.44,534.34 593.38,534.36 595,534.38C601.66,533.24 608.21,532.23 615,531.94C617.67,530.81 620.98,531.98 623.67,530.73C624.2,528.14 623.48,525 624.46,522.41C625.88,516.81 630.24,511.89 635.44,509.45Z" style="fill:rgb(170,30,41);fill-rule:nonzero;"/>
            <path d="M643.28,539.37C649.01,538.34 655.44,538.18 661,540.08C666.08,541.69 669.33,545.41 672.54,549.45C673.31,551.54 675.3,552.06 674.55,554.54C666.55,552.03 657.84,548.39 650.31,544.62C648.37,543.35 643.89,541.7 643.28,539.37Z" style="fill-rule:nonzero;"/>
            <path d="M909.54,543.45L909.54,543.55C895.37,559.88 880.67,576.07 866.38,592.38C821.73,642.31 779.08,692.16 733.54,742.54C732.84,742.76 732.28,742.66 731.87,742.25C725.83,738.14 719.92,734.29 714,729.97C705.26,723.82 696.4,718.71 687.84,712.22C687.21,711.83 687.08,711.25 687.46,710.46C692.05,707.31 696.43,703.29 701,700.08C723.33,682.71 746.6,665.88 768.45,648.44C776.49,642.65 784.22,636.12 792,629.94C800.58,623.45 808.28,617.23 816.69,610.67C819.31,608.18 823.24,606.03 825.54,603.46C824.13,603.1 823.89,604.43 822.46,604.46C817.57,608.31 811.36,610.78 806.13,614.27C774.55,632.92 742.7,652.22 710.27,671.33C693.74,681.29 679.04,690.58 662,699.82C661.3,699.81 660.63,699.56 660,699.07C651.56,694.03 642.49,688.14 634.17,682.76C633.53,682.09 631.43,681.36 631.38,680.37C634.66,678.16 638.48,676.64 642,674.82C656.9,667.09 671.34,660.6 686.28,652.34C688.9,650.65 692.33,649.71 694.95,647.82C700.07,645.23 706.66,642.2 711.67,639.62C712.69,639.03 713.27,638.19 714.54,638.46C715.73,642.91 716.88,647.51 718.3,651.88L718.89,651.89C724.55,644.15 729.11,637.78 735.06,630C739.25,625.67 745.75,622.99 751.05,620.25C758.36,616.81 765.78,612.56 772.87,609.69C779.73,606.08 786.49,602.84 793.45,599.45C806.85,593.34 819.42,586.47 833.06,580.27C857.17,568.15 881.66,556.63 905.95,544.78C907.06,544.29 908.31,543.21 909.54,543.45Z" style="fill:rgb(170,30,41);fill-rule:nonzero;"/>
            <path d="M577.45,556.43C581.38,555.82 585.53,556.62 589.55,556.46C590.87,557.61 592.93,557.32 594.56,557.46C598.38,558.74 603.21,558.93 607.06,559.72C617.12,561.93 626.19,563.6 636,566.94C649.01,570.53 660.5,575.18 672.45,581.54C682.65,586.68 691.83,592.98 699.02,602L698.92,602.82C693.85,603.43 688.13,603.25 683,602.75C680.89,602.14 678.76,603.47 677.41,601.55C670.02,599.51 663.69,596.61 656.81,593.35C650.78,590.89 643.19,587.11 637.25,584.67C629.38,581.11 621.57,580.09 613,579.79C610.83,579.28 608.73,580.19 607.1,578.8C601.44,574.44 596.43,568.58 590.27,564.71C586.43,561.24 581.32,559.67 577.45,556.54L577.45,556.43Z" style="fill:rgb(170,30,41);fill-rule:nonzero;"/>
            <path d="M319.54,661.46L319.54,661.54C317.9,662.83 317.76,664.31 316.83,666C314.73,671.89 311.48,676.61 309.54,682.55C307.3,686.2 306.55,690.78 304.46,694.45C302.77,700.59 299.94,706.73 298.7,713C296.78,718.77 295.3,725.95 294.07,732C293.98,734.76 292.03,739.05 293.33,741.6C296.08,739.74 299.95,736.81 302.74,734.72C303.91,733.95 305.41,731.68 306.94,732.14C307.9,733.52 307.17,736.05 306.46,737.44C306.22,740.56 305.24,744.04 304.41,747C304.38,749.05 304.5,751.62 303.46,753.44C303.44,757.92 302.55,763.7 302.18,768C300.61,791.01 303.5,815.24 310.98,837C316.72,854.46 327.25,871.06 338.37,885.64C339.26,886.49 340.04,888.35 341.54,887.54C341.78,879.88 341.1,870.4 342.58,863C342.6,857.02 343.89,850.85 345.06,845C348.25,831.54 351.41,816.79 357.37,804.28C358.32,803.06 359.07,799.65 360.64,799.28C361.45,800.07 361.77,800.98 361.58,802C362.02,806.71 362.55,810.47 363.88,815C364.65,821.76 367.33,827.31 369.46,833.54C370.41,834.54 369.83,835.94 371.54,835.55C371.97,829.58 374.01,823.59 376.06,818C381.12,803.9 390.27,790.93 399.55,779.46C399.86,780.82 398.7,781.2 398.54,782.55C394.02,791.55 390.17,801.61 387.39,811.3C385.6,818.03 383.3,825.06 382.09,832C380.75,838 379.58,847.6 378.68,853.93C377.91,858.74 378.04,865.46 377.54,870.56C376.4,870.87 375.66,869.9 375.21,869C369.04,860.16 362.64,850.8 357.68,841.25C356.75,840.33 357.07,839.08 355.46,839.46C355.51,849.31 354.53,859.12 354.58,869C354.52,875.86 354.92,886.39 355.7,893.06C356.2,897.71 357.12,902.2 357.46,906.56C358.71,909.2 357.8,912.5 359.09,915C359.39,919.41 360.94,922.06 361.54,926.55C360.07,926.96 358.95,924.97 357.7,924.34C341.14,913.24 327.54,898.11 316.02,882C311.07,875.16 306.43,867.74 302.73,860.14C288.71,833.21 287.17,801.98 288.06,772C287.99,770.24 288.64,767.84 287.86,766.27L287.25,766.26C282.97,770.3 278.89,774.61 274.94,778.95C273.43,780.73 271.41,783.39 269.44,784.56C269.19,783.28 269.22,781.14 269.7,779.94C270.57,772.52 271.54,764.06 273.59,757C274.28,750.64 276.28,744.1 278.15,738C280.13,731.44 282.3,725.24 285.1,719C292.48,701.56 301.67,684.31 312.9,669C313.46,666.53 316.26,665.3 317.33,663C317.5,662.09 318.51,661.12 319.54,661.46Z" style="fill-rule:nonzero;"/>
            <path d="M550.44,700.46C560.52,699.54 570.48,700.17 580.56,700.46C582.65,701.65 585.72,700.98 588,701.91C596.3,702.43 604.6,704.93 613,706.4C624.06,708.88 635.49,712.41 646,716.75C662.2,722.89 677.74,730.33 692.44,739.55C703.3,745.8 713.32,753.18 722.96,761.18C730.76,767.27 738.55,773.48 745.83,780.19C751.19,785.29 757.37,790.12 761.79,796.07C763.09,797.81 763.33,799.17 761,800.04C757.14,801.13 752.39,797.66 749,796.16C735.25,789.52 720.24,782.23 706.67,775.38C705.29,775.08 704.84,774.01 703.46,774.44C704.39,775.46 705.82,777.12 707,777.83C721.9,791 737.56,805.19 755,814.84C764.89,820.65 772.33,825.37 783.05,829.77C790.67,833.57 799.14,836.51 807.05,839.74C810.56,841.55 814.72,842.02 817.88,844.22C818.34,846.1 816.16,845.66 815.06,846.29C808.66,848.94 802.68,848.67 796,849.88C785.95,850.26 776.85,850.28 767,848.59C752.64,846.04 736.65,840.59 722.95,835.26C715.93,831.99 709.09,829.7 702,826.29C699.49,825.86 696.82,823.49 694.42,823.41C695.92,825.6 697.22,825.59 698.87,827.17C718.99,842.47 740.25,852.27 762.71,863.35C769.73,866.88 777.07,870.13 783.79,874.24C783.91,874.84 783.6,875.33 782.87,875.74C777.13,879.06 771.38,880.52 765,881.97C762.51,883.18 759.07,882.25 756.55,883.54C750.89,883.38 744.41,884.17 739,882.97C716.11,880.78 693.47,870.2 673,859.99C659.98,853.62 645.99,845.66 633.06,838.88C632.04,838.2 631.88,837.14 630.46,837.46C630.87,838.05 631.92,838.94 632.46,839.54C634.95,840.14 636.35,843.27 638.76,844.25C648.08,852.62 658.73,859.89 668.89,867.21C678.5,873.94 689.17,880.58 699.28,886.63C707.38,891.43 715.14,896.21 723.6,900.42C724.61,901.16 726.7,902 725.55,903.54C721.44,904.91 717.92,904.43 714,905.58C707.63,905.66 701.36,905.62 695,905.59C692.19,904.84 688.94,904.69 686,904.59C682.55,903.71 678.59,902.89 675,902.59C640.12,894.12 608.59,878.92 578.31,859.66C574.81,857.29 570.74,855.45 567.54,852.46C565.57,852.15 564.28,849.13 562.42,849.39C562.81,850.37 564.06,851.31 564.46,852.54C577.13,866.36 591.19,878.77 606.61,889.41C616.97,897.17 628.77,903.65 639,911.17C639.53,911.28 639.71,911.74 639.54,912.54C634.45,913.32 629.12,913.04 624,912.61C619.95,912.82 616.75,911.24 612.45,911.54C611.07,910.49 609.33,910.92 607.95,910.28C593.15,907.17 579.41,903.21 566,896.06C559.16,892.52 551.71,888.86 545.23,884.71C529.09,874.63 515.9,861.88 502.73,848.25C501.22,845.95 498.53,843.28 496.45,841.45L496.46,842.54C498.42,844.34 498.92,847.2 500.68,849.29C509.45,865.45 521.96,880.13 533.65,894.33C534.33,895.81 536.47,897.29 536.72,898.73C534.86,898.97 532.89,896.96 531,896.73C518.43,890.87 506.97,883.45 496,874.96C484.68,866.92 475.58,856.88 467.08,846C460.98,838.49 455.61,829.94 451.9,821C449.31,814.24 448.7,808.46 446.42,802C446.51,799.93 446.31,798.04 446.02,796C444.8,790.49 445.53,783.74 445.41,778C447.08,764.9 452.37,751.38 461.57,741.57C472.88,729.01 487.96,722.92 503.94,718.7C506.03,717.74 509.31,718.15 511.45,716.46C514.35,716.53 517.09,716.16 519.94,715.69C523.22,714.71 527.17,715.33 530.43,714.46C551.44,713.77 573.95,714.32 594,720.67C595.92,720.78 596.55,722.14 598.61,721.59C597.93,720.03 595.4,718.92 594,717.93C589.24,715.07 584.56,712.68 579.44,710.55C573.34,708.34 566.95,705.33 560.46,704.54C557.57,702.73 553.56,702.57 550.32,701.6L550.44,700.46Z" style="fill:rgb(170,30,41);fill-rule:nonzero;"/>
            <path d="M998.54,720.45L998.54,720.55C995.62,726.39 993.37,732.29 989.96,738C983.42,749.31 975.73,759.38 967.46,769.46C957,782.96 944.29,793.41 931.31,804.32C916.9,816.55 901.35,826.69 885,836.08C880.55,838.78 874.26,841.4 870.45,844.54C873.18,844.69 876.29,843.33 879,842.83C885.47,840.81 891.43,839.59 898,837.38C912.35,833.56 924.32,828.44 938,822.95C960.54,812.8 982.88,802.28 1002.71,787.39C1003.5,788.45 1002.87,790.38 1002.55,791.56C999.7,799.47 994.77,806.93 989.44,813.43C983.14,822.12 975.52,829.41 967.76,836.76C951.77,851.95 932.7,864.4 913.05,874.22C910.41,875.59 906.91,873.36 904.26,872.66C900.8,870.73 896.71,869.67 893.38,867.63C894.47,865.85 898.42,864.73 900.22,863.28C913.23,855.61 925.13,849.48 937.12,840.12C938.79,839.53 939.41,838.75 940.54,837.46C939.09,837.09 938.94,838.5 937.46,838.46C935.83,840.34 933.91,839.99 932,841.29C925.32,844.23 918.12,846.74 912,849.73C901.53,853.6 888.48,858.45 878,862C875.42,862.83 874.28,861.25 872,860.75C864.69,856.68 857.23,854.94 850.56,849.41C850.13,848.74 850.21,848.21 850.8,847.8C852.41,846.22 854.34,844.65 855.73,842.83C856.62,841.02 854.05,840.72 853,839.9C851.95,839.19 849.03,838.06 850.45,836.45C852.15,835.74 853.15,834.26 855,833.89C857.79,832.75 859.78,830.53 862.6,829.58C881.83,818.31 901.63,806.18 918.23,791.23C919.88,790.52 921.25,788.82 922.54,787.46C920.95,787.06 920.62,788.81 919,789.28C913.63,792.53 906.43,796.36 900.85,799.74C898.39,800.37 898.69,803.07 896,802.59C890.4,804.75 885.05,808.21 879.4,810.43C874.3,813.54 867.99,815.49 862.55,818.54C859.82,819.19 857.45,820.47 855,821.67C847.92,824.29 840.11,827.79 833,830.72C828.33,832.5 823.54,829.39 819.3,827.64C818.22,826.73 813.48,826.28 814.16,824.23C818.51,821.86 823.15,819.99 827.45,817.45C830.75,816.59 833.51,815.07 836.45,813.45C839.76,812.51 842.92,810.75 846,809.26C859.12,803.25 876.55,794.92 889.4,788.41C897.01,784.47 905.69,780.3 912.95,775.83C920.42,772.1 928.9,767.3 936,762.86C956.92,750.49 974.88,735.84 995,722.18C996.38,721.62 997.02,720.08 998.54,720.45Z" style="fill:rgb(170,30,41);fill-rule:nonzero;"/>
            <path d="M913.7,735.28C913.82,735.9 913.66,736.49 913.22,737.05C911.15,740.03 909.6,743.43 907.32,746.26C901.23,755.82 893.37,762.61 885.11,770.18C872.1,780.84 856.46,789.97 841.55,797.54C829.99,802.56 817.17,808.47 805,811.94C800.15,808.33 794.62,801.28 790.41,796.6C789.84,795.42 788.31,794.41 788.99,793C789.68,791.9 791.42,792.36 792.45,791.46C799.55,789.26 807.09,786.65 813.95,783.76C828.69,777.96 845.88,770.94 860,764.06C876.54,756.48 892.84,746.68 908.72,737.66C910.06,736.76 912.07,735.23 913.7,735.28Z" style="fill:rgb(170,30,41);fill-rule:nonzero;"/>
            <path d="M596.45,742.44C599.14,742.19 602.5,741.99 605,743.04C623.47,745.95 643.03,751.09 660,758.95C668.91,762.57 677.09,768.33 684.06,774.93C693.04,783.54 697.45,796.06 700.54,807.54C691.86,799.35 685.1,792.18 675.46,784.54C661.87,773.13 647.14,763.43 631,756.07C620.21,750.91 607.76,745.99 596.45,742.54L596.45,742.44Z" style="fill-rule:nonzero;"/>
            <path d="M187.46,777.46L188.54,777.46C188.81,784.24 190.57,791.67 190.96,799C192.04,801.42 191.43,804.32 192.06,807C193.07,809.36 192.17,811.31 193.54,813.45C193.53,817.85 194.48,822.82 195.59,827C195.69,833.52 198.42,839.76 199.18,846C202.83,861.24 207.97,877.16 213.32,891.93C216.54,899.44 220.48,908.79 224.09,916C235.2,938.9 247.94,958.88 262.24,979.95C262.7,981.1 264.31,982.33 263.55,983.54C249.82,983.64 236.07,983.55 222.35,983.6C221.68,983.18 221.23,982.65 221,982C215.2,968.81 209.87,955.81 205.76,942C200.7,928.42 197.24,915.05 193.72,901.06C193.01,898.13 192.46,893.94 191.41,891C191.28,886.51 189.55,882.19 189.29,878C187.93,869.41 186.6,860.78 186.58,852C185.14,846.13 185.62,838.12 185.07,832C184.58,812.71 184.99,796.5 187.46,777.46Z" style="fill:rgb(170,30,41);fill-rule:nonzero;"/>
            <path d="M826.45,859.46C828.4,859.39 830.24,858.85 831.82,860.28C842.17,865.62 853.08,870.85 863.88,875.28C878.42,882.08 894.94,887.95 910.05,893.74C923.23,898.65 933.6,901.68 947.05,905.76C957.43,908.91 971.25,911.46 981.82,914.26C981.87,914.74 981.49,915.2 980.69,915.64C970.64,921.77 958.01,925.13 946.57,927.54C931.61,930.67 914.41,931.17 899,930.59C894.98,929.89 890.56,929.74 886.45,929.54C884.13,928.42 880.98,928.67 878.45,928.54C876.71,927.14 874.5,927.75 872.45,927.54C871.22,926.48 869.94,926.67 868.44,926.54C865.99,925.15 863.23,926.26 861,924.82C858.04,924.71 855.92,923.38 853,923C836.8,918.97 821.52,914.45 806,908.15C797.54,905.01 789.42,901.7 781.37,897.6C780.38,896.81 778.6,897.09 779.27,895.32C787.87,891.54 796.84,887.02 804.45,881.46C806.51,880.48 807.83,881.74 809.74,882.33C822.33,888.8 837.58,893.09 851.1,897.64C855.74,898.63 860.82,900.6 865.55,900.46C867.68,902.31 870.43,901.55 873,902.59C875.79,902.24 877.08,903.89 879.55,903.54C878.41,901.59 877.07,903.07 875.55,901.46C865.89,898.01 857.8,894.54 848.44,890.55C833.43,883.07 818.07,875.26 804.32,865.69C804.27,865.24 804.64,864.83 805.43,864.46C810.43,864.34 814.05,862.14 819,861.81C821.53,860.88 824.05,860.77 826.45,859.46Z" style="fill:rgb(170,30,41);fill-rule:nonzero;"/>
            <path d="M494.54,892.46C501.26,896.94 508.88,901.07 516.1,904.69C528.97,910.93 543.02,915 557,917.85C562.04,918.3 566.26,919.29 570.94,921.24C576.49,924.38 581.25,928.83 586.57,932.44C598.13,941.15 609.99,949.92 621.8,958.25C633.11,965.67 645.08,974.29 656.16,981.75C656.92,982.17 657.05,982.77 656.56,983.54C646.28,983.99 636.92,983.75 626.94,981.3C612.23,977.71 597.71,971.57 584.27,964.68C564.93,953.85 547.13,941.09 530,927.03C517.84,917.21 506.01,907.05 495.83,895.12C495.3,894.35 493.77,893.41 494.54,892.46Z" style="fill:rgb(170,30,41);fill-rule:nonzero;"/>
            <path d="M762.38,904.42C767.58,906.12 772.72,909.23 777.89,911.26C791.44,917.45 803.08,921.74 817.07,926.7C831.41,932.28 846.4,936.47 861,941.25C874.02,945.39 887.98,948.87 900.77,953.31C900.86,954.34 897.8,954.91 897.05,955.27C889.72,957.21 883.62,958.99 876,959.7C861.82,962.04 845.73,961.12 831.44,960.54C826.91,958.86 820.7,959.37 815.95,958.27C799.08,955.62 784.34,952.29 768,947.23C760.32,945.49 754.37,942.66 746.95,940.26C733.69,935.53 719.58,928.67 707,922.18C705.27,921.29 706.38,919.99 708,920.42C726.73,919.41 746.4,914.57 762.38,904.42Z" style="fill:rgb(170,30,41);fill-rule:nonzero;"/>
            <path d="M667.44,921.45C671.04,920.65 672.51,923.08 675.62,924.4C691.56,934.17 708.31,941.73 725,949.97C733.31,954.07 744.36,958.54 753,962.23C759.52,964.98 766.13,967.14 772.7,970.35C773.15,970.99 773.1,971.72 772.54,972.55C770.51,974.57 767.68,974.26 765.55,975.54C756.37,975.59 747.33,976.41 738,975.62C724.89,974.73 712.75,973.06 700.08,969.68C674.09,962.74 648.92,953.12 625.73,939.35C619.3,936.04 612.87,932.31 607,928.09C606.05,927.28 603.84,926.9 604.36,925.36C623.49,926.48 642.15,927.17 661,923.09C663.11,921.92 665.24,922.73 667.44,921.45Z" style="fill:rgb(170,30,41);fill-rule:nonzero;"/>
        </g>
    </g>
</svg>
