<?xml version="1.0" encoding="UTF-8" standalone="no"?>
<!DOCTYPE svg PUBLIC "-//W3C//DTD SVG 1.1//EN" "http://www.w3.org/Graphics/SVG/1.1/DTD/svg11.dtd">
<svg width="100%" height="100%" viewBox="0 0 475 261" version="1.1" xmlns="http://www.w3.org/2000/svg" xmlns:xlink="http://www.w3.org/1999/xlink" xml:space="preserve" xmlns:serif="http://www.serif.com/" style="fill-rule:evenodd;clip-rule:evenodd;stroke-linejoin:round;stroke-miterlimit:2;">
    <g transform="matrix(1,0,0,1,-19.160947,-215.381578)">
        <g transform="matrix(1,0,0,1,-1938,-10564)">
            <g id="Falcon" transform="matrix(1,0,0,1,-1660.595761,10564.647578)">
                <g transform="matrix(0.335807,0,0,0.335807,3512.875966,58.888439)">
                    <path d="M312.324,814.865C319.002,807.98 326.943,800.852 334.384,794.718C402.818,737.43 472.469,686.322 548.883,640.224C816.111,479.013 1150.89,409.255 1451.82,513.265C1497.38,529.012 1544,549.167 1583.69,577.473C1573.2,585.755 1554.12,596.35 1542.34,603.209C1549.56,606.215 1557.84,608.899 1565.34,611.396C1620.03,629.608 1711,670.985 1721.89,734.6L1723.97,741.951L1724.53,747.167C1725.39,755.222 1725.72,780.707 1724.49,788.883C1714.26,856.695 1670.31,924.509 1621.11,971.221C1626.61,948.103 1630.96,930.453 1624.2,906.722C1619.69,890.896 1609.73,876.078 1594.85,868.502C1550.17,845.748 1465.19,859.647 1419.1,873.704C1348.23,895.312 1266.58,942.044 1231.94,1009.75C1217.33,1038.29 1210.51,1065.54 1220.66,1097.11C1234.78,1141.02 1274.01,1177 1312.36,1200.59C1323.42,1207.4 1338.37,1214.66 1350.12,1220.63C1323.28,1222.75 1296.14,1228.85 1268.34,1230.89C1104.89,1242.84 899.802,1263.5 773.584,1135.88C755.097,1117.19 727.37,1071.96 715.571,1048.28C710.319,1037.87 706.579,1026.76 704.464,1015.29C700.647,994.051 702.197,947.36 706.391,925.582C708.251,915.925 712.761,902.261 715.972,892.591C713.693,890.738 711.372,888.938 709.009,887.193C630.189,828.565 498.784,801.471 401.662,805.123C370.58,806.291 342.791,810.361 312.324,814.865Z" style="fill-rule:nonzero;"/>
                </g>
                <g transform="matrix(0.335807,0,0,0.335807,3512.875966,58.888439)">
                    <path d="M724.847,761.885C745.57,747.37 765.352,737.956 787.556,726.438C908.927,663.474 1050.05,639.475 1185,663.622C1228.84,671.465 1285.07,684.563 1326.61,702.063C1303.64,718.34 1279.42,734.556 1257.66,752.362C1234.18,771.576 1207.05,781.787 1181.75,798.15C1117.14,839.739 1059.91,901.142 1047.47,979.607C1039.74,1028.4 1048.57,1080.76 1077.48,1121.53C1092.58,1142.83 1113.96,1155.4 1135.31,1169.65C1041.59,1153.79 937.357,1146.24 877.191,1062.78C809.329,968.648 868.225,855.433 953.811,798.084C975.292,783.691 1001.36,768.109 1026.06,760.935L1027.38,758.394C969.922,767.51 932.612,775.312 876.733,793.549C816.993,771.078 787.903,764.945 724.847,761.885Z" style="fill:white;fill-rule:nonzero;"/>
                </g>
                <g transform="matrix(0.335807,0,0,0.335807,3512.875966,58.888439)">
                    <path d="M1027.38,758.394C1029.58,757.902 1031.72,757.598 1033.97,757.091L1034.81,757.805L1035.85,757.167L1035.81,757.426L1036.11,757.273L1036.27,757.468C1036.05,758.571 1027.42,760.541 1026.06,760.935L1027.38,758.394Z" style="fill:white;fill-rule:nonzero;"/>
                </g>
                <g transform="matrix(0.335807,0,0,0.335807,3512.875966,58.888439)">
                    <path d="M1036.4,706.79C1119.23,678.514 1205.63,678.516 1291.03,693.611C1268.7,713.789 1246.61,734.244 1224.78,754.972C1178.63,731.78 1089.08,704.232 1037.22,708.315L1036.4,706.79Z" style="fill-rule:nonzero;"/>
                </g>
                <g transform="matrix(0.335807,0,0,0.335807,3512.875966,58.888439)">
                    <path d="M1037.22,708.315C1036.42,708.554 1033.21,709.876 1032.59,708.459C1033.15,707.069 1035.15,707.008 1036.4,706.79L1037.22,708.315Z" style="fill:white;fill-rule:nonzero;"/>
                </g>
                <g transform="matrix(0.335807,0,0,0.335807,3512.875966,58.888439)">
                    <path d="M582.833,694.897C628.87,665.148 661.121,644.26 711.35,620.397C894.188,533.531 1107.93,499.405 1307.01,542.546C1358.25,553.65 1413.1,569.018 1460.98,589.753C1432.34,603.457 1401.96,619.839 1374.09,632.779C1125.8,537.182 884.08,562.186 643.539,667.891C633.249,672.413 591.397,692.126 583.392,697.394L582.833,694.897Z" style="fill:rgb(200,136,10);fill-rule:nonzero;"/>
                </g>
                <g transform="matrix(0.335807,0,0,0.335807,3512.875966,58.888439)">
                    <path d="M1461.66,653.432C1486.51,659.052 1511.98,661.863 1537.11,668.155C1578.18,678.437 1621.95,694.578 1644.9,732.589C1664.5,765.063 1660.24,792.194 1651.44,827.352C1637.27,804.589 1619.48,788.409 1595.95,775.771C1529.41,744.294 1455.13,742.327 1385.07,761.637C1379.51,763.171 1373.88,764.592 1368.3,766.088C1375.44,757.492 1385.51,747.525 1393.34,739.073C1415.42,715.238 1442,687.513 1467.64,667.599L1461.66,653.432Z" style="fill:rgb(200,136,10);fill-rule:nonzero;"/>
                </g>
                <g transform="matrix(0.335807,0,0,0.335807,3512.875966,58.888439)">
                    <path d="M1474.55,682.145C1487.67,681.958 1499.24,685.166 1512.01,687.853L1517.01,688.814C1524.13,690.135 1530.18,691.502 1537.22,693.019C1529.38,695.531 1521.33,697.06 1513.75,699.502C1503.67,702.25 1493.13,704.683 1483.1,707.39C1455.36,714.875 1455.18,695.635 1474.55,682.145Z" style="fill-rule:nonzero;"/>
                </g>
                <g transform="matrix(0.335807,0,0,0.335807,3512.875966,58.888439)">
                    <path d="M1463.58,784.438C1474.1,783.782 1518.05,784.881 1524.72,793.128C1523.57,793.696 1503.31,795.452 1499.8,795.948C1479.31,798.849 1458.99,802.888 1438.95,808.046C1378.01,823.693 1325.36,846.959 1269.57,874.771C1255.05,882.194 1241.06,890.387 1226.71,898.129C1237.52,871.928 1266.68,839.729 1292.08,827.162C1342.91,802.012 1407.04,786.797 1463.58,784.438Z" style="fill:rgb(200,136,10);fill-rule:nonzero;"/>
                </g>
                <g transform="matrix(0.335807,0,0,0.335807,3512.875966,58.888439)">
                    <path d="M582.833,694.897L583.392,697.394C575.114,702.141 576.273,699.372 582.833,694.897Z" style="fill:rgb(200,136,10);fill-rule:nonzero;"/>
                </g>
            </g>
        </g>
    </g>
</svg>
