<?xml version="1.0" encoding="UTF-8" standalone="no"?>
<!DOCTYPE svg PUBLIC "-//W3C//DTD SVG 1.1//EN" "http://www.w3.org/Graphics/SVG/1.1/DTD/svg11.dtd">
<svg width="100%" height="100%" viewBox="0 0 315 482" version="1.1" xmlns="http://www.w3.org/2000/svg" xmlns:xlink="http://www.w3.org/1999/xlink" xml:space="preserve" xmlns:serif="http://www.serif.com/" style="fill-rule:evenodd;clip-rule:evenodd;stroke-linejoin:round;stroke-miterlimit:2;">
    <g transform="matrix(1,0,0,1,-99.142295,-15.351925)">
        <g transform="matrix(1,0,0,1,-2514,-8715)">
            <g id="Devil-1" serif:id="Devil 1" transform="matrix(1,0,0,1,227.157984,8715.647578)">
                <g transform="matrix(1,0,0,1,2286.842016,-0.647578)">
                    <path d="M185,256.648L345.264,256.648L289,440L222,449L171,286L185,256.648Z" style="fill:rgb(235,235,235);"/>
                </g>
                <g transform="matrix(0.291676,0,0,0.291676,2243.822304,-41.289278)">
                    <path d="M1287.76,191.972C1302.57,211.016 1317.22,227.41 1332.15,247.492C1377.62,307.931 1412.96,375.367 1436.78,447.157C1488.19,603.97 1492.59,762.629 1416.97,912.187C1419.47,922.34 1424.02,933.522 1427.25,943.604C1430.28,953.068 1432.95,962.377 1436.21,971.767C1449.09,960.055 1458.56,947.838 1469.91,935.016C1500.46,900.53 1525.67,865.525 1550.81,827.026L1565.73,800.314L1553.77,845.743C1553.32,851.556 1542.06,891.207 1539.82,899.705C1525.38,953.096 1509.84,1006.18 1493.2,1058.93C1483.96,1087.93 1472.82,1116.95 1465.6,1146.46C1461.84,1161.84 1462.15,1179.04 1462.74,1194.82C1440.81,1217.19 1420.78,1232.66 1395.14,1250.45C1402.7,1284.56 1407.51,1318.78 1415.79,1353.59C1346.29,1421.69 1268.47,1534.16 1234.95,1625.78C1239.93,1630.98 1247.88,1636.05 1253.69,1640.62C1265.39,1649.84 1278.36,1658.88 1289.38,1668.8C1275.45,1679.46 1253.46,1692.92 1238.43,1702.82C1208.21,1723.01 1177.87,1743.02 1147.4,1762.83C1109.9,1787.24 1065.97,1818.92 1028.2,1841.11C1017.89,1835.61 1003.74,1825.79 993.818,1819.23L928.481,1775.55C886.975,1748.47 845.633,1721.14 804.457,1693.56C791.815,1685.23 779.02,1677.78 766.487,1669.26C783.976,1654.04 805.255,1640.83 822.543,1624.7C790.24,1546.22 745.645,1473.38 690.433,1408.93C674.8,1390.53 654.98,1370 638.373,1352.38C644.911,1319.45 653.508,1284.4 660.527,1251.15C643.694,1238.55 606.722,1210.23 593.001,1194.71C593.115,1178.15 593.127,1158.04 588.337,1142.11C572.278,1088.72 553.703,1035.38 537.771,981.961C527.683,947.191 517.996,912.306 508.712,877.312C502.17,852.353 495.38,824.114 487.397,799.756C490.643,805.047 493.878,810.692 496.938,816.095C519.948,856.723 548.25,893.532 579.112,928.443C592.629,943.734 604.519,958.328 619.663,972.197C626.272,955.682 629.948,934.832 637.872,914.973C604.365,847.921 585.066,774.671 581.185,699.814C572.609,518.952 644.281,329.097 765.836,195.416C748.675,234.412 735.618,275.087 726.877,316.785C702.875,430.351 707.483,544.906 759.897,649.987C766.266,662.756 774.031,678.95 781.707,690.771C786.647,688.418 791.168,685.3 795.777,682.444C909.267,612.102 1050.05,597.169 1175.86,641.862C1213.6,655.269 1241.74,670.442 1275.45,691.577C1285.98,669.096 1296.68,649.865 1306.01,626.55C1363.29,483.345 1348.08,331.568 1287.76,191.972ZM1027.62,1635.78C1044.08,1619.92 1060.09,1603.6 1075.62,1586.83C1080.94,1606.05 1084.64,1625.85 1090.03,1645.9C1104.95,1614.68 1120.84,1582.07 1134.31,1550.37C1141.1,1534.41 1144.48,1513.22 1150.87,1496.58C1162.51,1466.23 1178.24,1434.41 1189.42,1404.19C1190,1403.53 1189.94,1403.69 1190.17,1402.87C1197.74,1388.31 1203.97,1372.36 1210.89,1357.46C1215.93,1346.6 1221,1336.35 1225.19,1325.09L1225.56,1324.11C1225.92,1323.22 1228.2,1318.46 1227.35,1317.67C1226.03,1317.72 1224.38,1320.35 1223.73,1321.25C1217.23,1327.16 1214.86,1331.12 1209.37,1336.67C1195.04,1351.16 1182.21,1365.93 1169.41,1381.76C1168.33,1383.1 1167.9,1383.41 1166.57,1384.54L1165.01,1385.11C1166.52,1367.61 1168.48,1353.2 1167.57,1335.58C1148.42,1359.68 1126.07,1387.96 1108.18,1412.74C1107.36,1401.15 1105.82,1385.13 1105.85,1373.88C1084.27,1395.48 1052.24,1427.31 1029.86,1447.09C1017.18,1437.89 1007.5,1426.37 996.238,1415.78C979.634,1400.17 964.605,1382.62 948.449,1366.75C947.11,1382.3 948.995,1398.28 948.773,1413.97C929.961,1387.66 904.274,1360.06 886.1,1334.76C888.011,1350.9 888.228,1373.01 892.243,1388.45C876.64,1369.54 859.152,1352.21 843.205,1333.59C837.346,1326.75 830.735,1320.59 824.174,1314.43C834.796,1342.24 847.697,1368.69 860.029,1395.68C874.719,1427.82 888.219,1460.74 902.543,1493.07C908.888,1507.39 910.359,1522.92 915.325,1538.07C923.598,1563.31 934.818,1586.62 946.568,1610.37C952.263,1621.89 956.998,1633.71 964.209,1644.31C968.238,1625.64 973.873,1606.68 978.118,1587.37C993.574,1600.94 1010.82,1620.47 1027.62,1635.78ZM1089.35,1585.98C1087.31,1570.22 1082.48,1551.34 1078.68,1535.92C1069.38,1557.14 1047.94,1592.43 1030.04,1606.17C1006.42,1589.61 989.317,1560.68 975.282,1536.27C970.915,1552.65 968.93,1570.84 966.228,1587.79C960.533,1579.4 955.6,1570.3 950.159,1561.8C916.986,1509.96 896.638,1468.78 899.466,1405.09C915.587,1427.22 932.234,1448.97 949.392,1470.31C955.365,1454.31 961.736,1438.59 965.802,1422C972.047,1428.22 979.58,1437.49 985.677,1444.27L1027.61,1490.42C1044.65,1476.29 1070.03,1439.66 1088.72,1424.85C1094.28,1440.24 1100.07,1455.55 1106.09,1470.76C1121.57,1453.04 1140.88,1419.66 1154.66,1405.02L1155.64,1410.3C1152.62,1428.82 1153.8,1447.99 1150.43,1466.69C1144.59,1499.05 1108.63,1557.47 1089.35,1585.98ZM1104.62,1201.03C1114.53,1200.62 1123.57,1199.7 1133.41,1198.7L1218.09,1188.73C1229.57,1187.33 1243.37,1184.86 1254.51,1184.02C1245.04,1181.04 1237.63,1178.79 1227.8,1177.24C1236.95,1156.06 1254.48,1133.59 1262.87,1112.92L1261.63,1111.98C1231.01,1127.26 1198.69,1146.48 1168.49,1163.14C1150.83,1172.89 1119.23,1189.41 1104.62,1201.03ZM834.765,1176.56L823.836,1180.37C822.863,1181.99 823.256,1183.79 823.067,1185.84C863.819,1191.98 911.424,1197.84 952.578,1202.12C953.944,1202.4 961.887,1204.3 962.54,1203.4C962.339,1202.3 960.321,1201.61 959.502,1201.19C928.017,1180.9 886.599,1160.39 853.412,1142.05C835.41,1132.1 813.32,1118.99 795.128,1110.69C800.736,1124.08 826.061,1162.66 834.765,1176.56ZM1157.99,700.331C1162.34,701.902 1166.73,703.356 1171.16,704.691C1175.31,700.596 1168.67,699.377 1165,698.649L1160.94,697.84C1158.66,697.407 1158.07,698.364 1157.99,700.331ZM1446.9,1048.21L1447.21,1044.84C1447.1,1043.59 1446.97,1038.58 1446.09,1038.15C1439.48,1034.94 1438.3,1043.06 1445.34,1047.24L1446.9,1048.21ZM963.724,1222.3L963.793,1223.13C968.743,1223.11 983.957,1225.4 984.808,1218.28C982.498,1213.77 965.213,1214.93 959.996,1217.1L960.347,1218.57C960.932,1221.18 961.328,1221.39 963.724,1222.3ZM1017.43,1205.93C1015.17,1200.97 1013.07,1201.44 1008.15,1202.06L1008.73,1203.52C1010.41,1208.23 1013.28,1206.97 1017.43,1205.93ZM1333.05,923.233C1335.46,925.008 1337.31,926.327 1339.83,927.948C1345.17,923.494 1333.88,917.95 1333.05,923.233ZM1035.67,1345.66C1036.14,1350.74 1034.55,1353.73 1039.84,1353.49L1040.07,1352.54C1041.13,1348.8 1042.61,1346.21 1037.59,1345.84C1036.94,1345.79 1036.3,1345.73 1035.67,1345.66ZM1386.56,1054.71C1388.14,1054.27 1389.11,1052.68 1388.78,1051.07C1388.45,1049.46 1386.93,1048.39 1385.3,1048.61C1384.15,1048.77 1383.18,1049.56 1382.79,1050.66C1382.4,1051.75 1382.65,1052.98 1383.44,1053.83C1384.24,1054.68 1385.44,1055.02 1386.56,1054.71ZM1273.34,968.802C1276.49,972.996 1272,974.333 1276.32,975.183C1277.26,974.402 1288.8,966.537 1282.63,966.25L1280.09,966.155C1277.05,965.178 1273.97,964.3 1270.87,963.524C1271.56,966.43 1271.58,966.272 1273.34,968.802ZM1187.21,710.794C1191.13,706.532 1184.02,704.955 1179.74,707.659C1182.41,708.889 1184.45,709.749 1187.21,710.794ZM1456.85,965.078C1456.65,966.109 1456.03,967.555 1456.94,968.194L1457.01,968.123C1459.25,967.951 1460.28,967.677 1462.75,967.604C1463.97,960.389 1460.97,965.628 1456.85,965.078ZM748.197,1225.79C748.083,1226.8 746.828,1233.14 749.118,1232.94C750.7,1228.94 750.809,1229.36 748.197,1225.79ZM613.311,1123.9C613.368,1124.79 613.414,1128.99 614.64,1129.51C616.143,1128.88 616.046,1124.62 616.163,1123.4L613.311,1123.9ZM802.914,747.99L802.317,746.931C800.496,743.413 793.216,743.779 800.396,749.764L802.914,747.99ZM1338.93,1018.54C1336.94,1022.71 1336.49,1022.5 1338.99,1026.41C1340.59,1022.75 1340.53,1022.15 1338.93,1018.54ZM1266.08,739.867C1254.64,738.03 1250.61,736.229 1256.88,747.683C1260.65,747.408 1267.4,744.628 1266.82,740.451C1266.53,740.05 1266.74,740.281 1266.08,739.867ZM1016.07,1739.37C1021.81,1743.79 1022.42,1745.4 1028.79,1742.41C1034.29,1732.7 1017.13,1738.19 1016.07,1739.37ZM674.83,1044.97C667.05,1050.45 662.395,1048.08 669.55,1055.66L669.886,1056.02L671.669,1055.33C673.528,1054.63 677.054,1053.79 677.144,1050.98L676.798,1051.27C676.611,1049.12 676.205,1046.68 674.83,1044.97ZM818.788,886.244C816.934,884.386 816.605,884.77 815.078,883.86C814.306,883.4 815.278,879.776 813.201,878.042C810.988,878.999 810.539,881.528 808.986,883.964C808.463,888.911 808.28,891.582 813.562,893.104C815.768,890.592 816.888,888.951 818.788,886.244ZM781.316,978.883L783.827,980.638C788.896,980.374 791.418,976.826 787.95,972.539C783.452,966.98 782.44,969.495 781.66,972.339C781.191,974.051 777.955,972.544 780.661,977.425L781.316,978.883ZM964.353,1265.87C963.96,1265.01 963.594,1264.17 963.16,1263.32C960.018,1260.43 952.059,1250.9 948.937,1250.42C946.134,1249.99 947.477,1255.49 950.205,1256.77C952.21,1257.71 952.687,1265.31 954.109,1268.63L953.375,1269.91C960.385,1277.42 969.344,1287.26 976.825,1293.87C975.123,1289.95 968.843,1274.9 966.795,1271.92C966.036,1269.88 965.196,1267.88 964.353,1265.87Z" style="fill-rule:nonzero;"/>
                </g>
                <g transform="matrix(0.291676,0,0,0.291676,2243.822304,-41.289278)">
                    <path d="M1412.99,524.255C1417.82,542.221 1419.4,563.018 1421.33,580.766C1433.32,690.986 1412.29,800.247 1349.5,892.799C1345.35,898.914 1330.21,914.674 1329.19,920.63C1330.92,922.372 1330.79,922.273 1333.05,923.233C1335.46,925.008 1337.31,926.327 1339.83,927.948C1361.58,950.715 1370.54,960.446 1381.98,991.407C1377.57,1006.25 1378.41,1047.63 1379.33,1063.99C1393.88,1051.08 1404.74,1036.65 1418.19,1023.37C1442.19,999.677 1465.08,971.49 1489.39,948.625C1481.25,1003.77 1454.7,1070.2 1440.95,1126.69C1439.47,1111.25 1439.78,1058.49 1446.9,1048.21L1447.21,1044.84C1452.12,1027.36 1459.68,1013.92 1464.87,997.669C1440.76,1030.72 1420.93,1050.29 1389.65,1077.09C1380.08,1085.29 1368.64,1092.89 1359.46,1101.03C1377.54,1121.52 1392.35,1138.37 1414.21,1155.28C1397.47,1174.25 1376.05,1199.56 1356.09,1214.53C1355.99,1257.87 1358.87,1295.72 1368.49,1337.94C1297.06,1413.17 1239.4,1500.36 1198.15,1595.54C1192.78,1607.85 1182.04,1631.72 1177.78,1644.2C1187.89,1649.8 1198.75,1655.5 1208.33,1661.87L1026.12,1776.14C1007.56,1761.55 985.488,1749.36 965.298,1736.71L844.9,1662.5C855.778,1656.83 869.514,1650.06 879.74,1643.77C865.839,1612.53 854.948,1579.78 838.875,1548.83C799.606,1473.19 744.159,1400.6 687.638,1337.32C695.148,1300.83 700.956,1251.31 698.62,1214.12C690.056,1204.98 680.448,1196.59 671.471,1187.79C661.278,1177.66 651.423,1167.21 641.921,1156.43C659.363,1142.45 683.453,1118.78 696.075,1100.66C665.409,1077.1 639.227,1054.04 612.468,1025.81C603.976,1016.84 596.98,1006.99 589.087,997.726C612.003,1043.95 617.32,1071.42 616.163,1123.4L613.311,1123.9C604.829,1079.43 585.477,1037.33 575.638,993.164C573.132,981.916 569.886,970.426 566.714,959.353C565.928,956.498 565.125,954.776 565.839,951.922C568.87,952.046 569.348,953.508 572.295,956.125C605.551,987.75 635.472,1023.84 668.453,1055.75C671.494,1058.7 675.547,1061.83 678.838,1064.58C679.991,1033.96 680.539,1020.98 675.22,990.484C683.86,967.767 706.541,932.925 727.213,920.187C723.32,915.348 719.452,910.489 715.61,905.609C659.691,834.417 630.829,733.302 631.362,643.663C631.616,600.979 636.2,572.384 641.225,530.518C642.667,529.408 642.598,529.654 643.933,530.807C650.3,631.978 684.871,729.344 743.73,811.877C760.641,835.627 782.706,862.155 804.553,881.381C805.511,882.229 806.48,883.064 807.459,883.887C801.874,892.575 798.008,905.221 791.536,915.884L794.045,916.978C800.704,909.146 807.21,901.187 813.562,893.104C815.768,890.592 816.888,888.951 818.788,886.244C837.011,862.564 847.983,846.749 859.891,818.539C852.254,811.494 836.798,801.386 827.518,794.493C786.626,764.116 753.101,735.776 732.397,687.762C746.823,702.349 777.399,742.011 795.599,751.908C799.01,751.865 797.384,752.339 800.396,749.764L802.914,747.99C812.765,742.642 823.673,733.755 834.156,728.399C878.786,705.597 923.768,690.934 973.053,683.523C974.837,683.171 982.425,681.251 983.526,682.655C983.255,684.33 980.399,685.18 978.941,685.683C939.415,705.845 903.772,724.7 865.854,748.21C876.518,769.956 883.519,791.637 890.907,814.669C893.552,822.916 898.137,835.866 899.916,843.909C870.249,885.959 814.927,942.603 771.998,970.467L781.316,978.883L783.827,980.638C835.279,1024.81 884.68,1068.98 935.491,1113.71C949.663,1126.26 963.936,1138.71 978.308,1151.03C985.16,1156.93 999.02,1168.3 1004.86,1174.57C981.356,1166.86 968.362,1159.45 946.476,1148.83C912.764,1132.47 881.144,1114.77 848.831,1095.83C804.617,1069.91 756.487,1043.28 715.484,1012.52C713.809,1055.53 717.672,1090.05 743.097,1126.82C729.639,1129.64 705.344,1134.14 693.338,1138.5C728.753,1169.28 758.605,1204.59 798.402,1230.6C805.138,1235 812.127,1239.25 818.78,1243.69C787.003,1241.14 769.835,1233.23 744.279,1215.23C751.707,1251.08 737.511,1286.86 749.432,1322.22C762.271,1360.31 789.831,1391.81 811.09,1425.36C834.855,1462.86 857.037,1503.05 875.525,1543.46C888.736,1572.34 900.362,1601.15 909.16,1631.7C910.745,1637.2 916.397,1665.61 917.944,1667.47C921.17,1670.95 922.13,1672.09 925.898,1674.83C940.733,1685.72 958.173,1696.89 973.368,1707.75C981.024,1713.22 1010.27,1736.41 1016.07,1739.37C1021.81,1743.79 1022.42,1745.4 1028.79,1742.41L1140.87,1665.14C1144.81,1610.64 1215.3,1472.41 1246.63,1424.82C1267.31,1393.4 1294.24,1359.48 1308.05,1322.8C1321.68,1286.62 1305.05,1252.66 1312.22,1216.22C1296.96,1227.02 1277.65,1236.22 1259.25,1239.94C1253.9,1241.47 1248.21,1243.21 1242.64,1242.08L1243.03,1240.7L1247.1,1238.69C1275.18,1222.18 1302.8,1197.99 1326.25,1175.33C1339.13,1162.89 1351.3,1149.56 1364.98,1138C1345.75,1132.55 1332.86,1129.85 1313.2,1126.59C1342.07,1085.73 1341.63,1059.46 1341.06,1012.14C1310.96,1034.53 1277.63,1052.78 1245.65,1072.19C1200.88,1099.37 1155.08,1123.83 1107.86,1146.41C1089.66,1155.12 1067.29,1166.54 1048.77,1173.43C1061.29,1159.97 1090.52,1136.48 1105.63,1123.29L1213.88,1029.48C1233.29,1012.78 1257.92,992.665 1276.32,975.183C1277.26,974.402 1288.8,966.537 1282.63,966.25L1280.09,966.155C1277.05,965.178 1273.97,964.3 1270.87,963.524C1223.94,943.864 1186.33,889.494 1154.3,850.432C1162.19,814.671 1174.16,779.934 1189.98,746.904C1150.83,724.947 1116.06,705.697 1075.88,685.437C1072.44,684.305 1069.21,682.547 1066.05,680.825L1065.21,680.419C1073.56,680.968 1076.36,681.06 1084.76,682.547C1109.48,687.09 1133.93,693.027 1157.99,700.331C1162.34,701.902 1166.73,703.356 1171.16,704.691C1173.36,705.536 1177.65,707.37 1179.74,707.659C1182.41,708.889 1184.45,709.749 1187.21,710.794C1203.23,717.357 1214.7,722.646 1229.79,731.577C1233.96,734.046 1253.86,746.534 1256.88,747.683C1259.89,750.312 1259.67,750.95 1263.04,751.68C1280.72,740.651 1310.42,704.613 1323.24,687.674C1303.66,743.491 1243.96,786.144 1196.45,818.164C1207.96,843.844 1226.26,870.717 1242.83,893.596L1246.75,897.911C1251.15,905.097 1265.58,920.589 1271.55,927.095C1264.27,914.499 1257.17,900.089 1250.47,887.055L1249.22,882.415C1259.91,877 1274.62,858.976 1282.72,849.603C1328.25,796.921 1360.53,740.14 1382.59,674.105C1400.45,620.612 1406.61,580.309 1412.99,524.255Z" style="fill:rgb(3,76,178);fill-rule:nonzero;"/>
                </g>
                <g transform="matrix(0.291676,0,0,0.291676,2243.822304,-41.289278)">
                    <path d="M1106.09,1470.76C1121.57,1453.04 1140.88,1419.66 1154.66,1405.02L1155.64,1410.3C1152.62,1428.82 1153.8,1447.99 1150.43,1466.69C1144.59,1499.05 1108.63,1557.47 1089.35,1585.98C1087.31,1570.22 1082.48,1551.34 1078.68,1535.92C1069.38,1557.14 1047.94,1592.43 1030.04,1606.17C1006.42,1589.61 989.317,1560.68 975.282,1536.27C970.915,1552.65 968.93,1570.84 966.228,1587.79C960.533,1579.4 955.6,1570.3 950.159,1561.8C916.986,1509.96 896.638,1468.78 899.466,1405.09C915.587,1427.22 932.234,1448.97 949.392,1470.31C955.365,1454.31 961.736,1438.59 965.802,1422C972.047,1428.22 979.58,1437.49 985.677,1444.27L1027.61,1490.42C1044.65,1476.29 1070.03,1439.66 1088.72,1424.85C1094.28,1440.24 1100.07,1455.55 1106.09,1470.76Z" style="fill-rule:nonzero;"/>
                </g>
                <g transform="matrix(0.291676,0,0,0.291676,2243.822304,-41.289278)">
                    <path d="M993.982,1206.48C1012.37,1208.31 1036.2,1212.77 1053.3,1213.51C1045.29,1220.15 1035.59,1227.12 1035.29,1238.35C1034.16,1281.62 1038.34,1323.04 1032.7,1366.4C1041.81,1361.44 1046.31,1356.49 1054.02,1349.92C1074.44,1332.54 1090.97,1315.71 1118.25,1311.63C1123.82,1294.29 1128.69,1281.48 1135.79,1264.66C1136.94,1284.58 1136.25,1295.08 1132.02,1314.57C1091.1,1323.31 1051.87,1359.22 1023.58,1388.72C991.533,1360.76 963.311,1336.3 927.908,1312.68C932.802,1302.02 938.342,1293.06 947.345,1285.31C938.876,1272.11 934.515,1262.9 928.353,1248.67C938.536,1255.17 944.764,1261.36 953.375,1269.91C960.385,1277.42 969.344,1287.26 976.825,1293.87C975.123,1289.95 968.843,1274.9 966.795,1271.92C966.036,1269.88 965.196,1267.88 964.353,1265.87C963.96,1265.01 963.594,1264.17 963.16,1263.32C955.711,1244.79 952.242,1236.38 941.872,1219.42L963.793,1223.13C980.685,1227.34 991.113,1225.51 993.982,1206.48Z" style="fill:rgb(3,76,178);fill-rule:nonzero;"/>
                </g>
                <g transform="matrix(0.291676,0,0,0.291676,2243.822304,-41.289278)">
                    <path d="M954.109,1268.63L955.263,1269.02C957.83,1271.43 963.457,1273.36 966.795,1271.92C968.843,1274.9 975.123,1289.95 976.825,1293.87C969.344,1287.26 960.385,1277.42 953.375,1269.91L954.109,1268.63Z" style="fill-opacity:0.94;fill-rule:nonzero;"/>
                </g>
                <g transform="matrix(0.291676,0,0,0.291676,2243.822304,-41.289278)">
                    <path d="M959.996,1217.1C965.213,1214.93 982.498,1213.77 984.808,1218.28C983.957,1225.4 968.743,1223.11 963.793,1223.13L963.724,1222.3C967.404,1222.06 970.666,1223.02 970.528,1219.41C967.787,1216.27 964.104,1217.36 959.996,1217.1Z" style="fill-rule:nonzero;"/>
                </g>
                <g transform="matrix(0.291676,0,0,0.291676,2243.822304,-41.289278)">
                    <path d="M954.109,1268.63C952.687,1265.31 952.21,1257.71 950.205,1256.77C947.477,1255.49 946.134,1249.99 948.937,1250.42C952.059,1250.9 960.018,1260.43 963.16,1263.32C963.594,1264.17 963.96,1265.01 964.353,1265.87C953.499,1258.38 958.937,1260.74 955.263,1269.02L954.109,1268.63Z" style="fill-rule:nonzero;"/>
                </g>
                <g transform="matrix(0.291676,0,0,0.291676,2243.822304,-41.289278)">
                    <path d="M1256.88,747.683C1250.61,736.229 1254.64,738.03 1266.08,739.867C1266.74,740.281 1266.53,740.05 1266.82,740.451C1267.4,744.628 1260.65,747.408 1256.88,747.683Z" style="fill-rule:nonzero;"/>
                </g>
                <g transform="matrix(0.291676,0,0,0.291676,2243.822304,-41.289278)">
                    <path d="M808.986,883.964C810.539,881.528 810.988,878.999 813.201,878.042C815.278,879.776 814.306,883.4 815.078,883.86C816.605,884.77 816.934,884.386 818.788,886.244C816.888,888.951 815.768,890.592 813.562,893.104C808.28,891.582 808.463,888.911 808.986,883.964Z" style="fill-rule:nonzero;"/>
                </g>
                <g transform="matrix(0.291676,0,0,0.291676,2243.822304,-41.289278)">
                    <path d="M955.263,1269.02C958.937,1260.74 953.499,1258.38 964.353,1265.87C965.196,1267.88 966.036,1269.88 966.795,1271.92C963.457,1273.36 957.83,1271.43 955.263,1269.02Z" style="fill-rule:nonzero;"/>
                </g>
                <g transform="matrix(0.291676,0,0,0.291676,2243.822304,-41.289278)">
                    <path d="M781.316,978.883L780.661,977.425C777.955,972.544 781.191,974.051 781.66,972.339C782.44,969.495 783.452,966.98 787.95,972.539C791.418,976.826 788.896,980.374 783.827,980.638L781.316,978.883Z" style="fill-rule:nonzero;"/>
                </g>
                <g transform="matrix(0.291676,0,0,0.291676,2243.822304,-41.289278)">
                    <path d="M674.83,1044.97C676.205,1046.68 676.611,1049.12 676.798,1051.27L677.144,1050.98C677.054,1053.79 673.528,1054.63 671.669,1055.33L669.886,1056.02L669.55,1055.66C662.395,1048.08 667.05,1050.45 674.83,1044.97Z" style="fill-rule:nonzero;"/>
                </g>
                <g transform="matrix(0.291676,0,0,0.291676,2243.822304,-41.289278)">
                    <path d="M1016.07,1739.37C1017.13,1738.19 1034.29,1732.7 1028.79,1742.41C1022.42,1745.4 1021.81,1743.79 1016.07,1739.37Z" style="fill-rule:nonzero;"/>
                </g>
                <g transform="matrix(0.291676,0,0,0.291676,2243.822304,-41.289278)">
                    <path d="M1280.09,966.155L1282.63,966.25C1288.8,966.537 1277.26,974.402 1276.32,975.183C1272,974.333 1276.49,972.996 1273.34,968.802C1277.26,968.346 1277.11,968.529 1280.09,966.155Z" style="fill-rule:nonzero;"/>
                </g>
                <g transform="matrix(0.291676,0,0,0.291676,2243.822304,-41.289278)">
                    <path d="M1157.99,700.331C1158.07,698.364 1158.66,697.407 1160.94,697.84L1165,698.649C1168.67,699.377 1175.31,700.596 1171.16,704.691C1166.73,703.356 1162.34,701.902 1157.99,700.331Z" style="fill-rule:nonzero;"/>
                </g>
                <g transform="matrix(0.291676,0,0,0.291676,2243.822304,-41.289278)">
                    <path d="M1446.9,1048.21L1445.34,1047.24C1438.3,1043.06 1439.48,1034.94 1446.09,1038.15C1446.97,1038.58 1447.1,1043.59 1447.21,1044.84L1446.9,1048.21Z" style="fill-rule:nonzero;"/>
                </g>
                <g transform="matrix(0.291676,0,0,0.291676,2243.822304,-41.289278)">
                    <path d="M959.996,1217.1C964.104,1217.36 967.787,1216.27 970.528,1219.41C970.666,1223.02 967.404,1222.06 963.724,1222.3C961.328,1221.39 960.932,1221.18 960.347,1218.57L959.996,1217.1Z" style="fill-rule:nonzero;"/>
                </g>
                <g transform="matrix(0.291676,0,0,0.291676,2243.822304,-41.289278)">
                    <path d="M1008.15,1202.06C1013.07,1201.44 1015.17,1200.97 1017.43,1205.93C1013.28,1206.97 1010.41,1208.23 1008.73,1203.52L1008.15,1202.06Z" style="fill-rule:nonzero;"/>
                </g>
                <g transform="matrix(0.291676,0,0,0.291676,2243.822304,-41.289278)">
                    <path d="M1035.67,1345.66C1036.3,1345.73 1036.94,1345.79 1037.59,1345.84C1042.61,1346.21 1041.13,1348.8 1040.07,1352.54L1039.84,1353.49C1034.55,1353.73 1036.14,1350.74 1035.67,1345.66Z" style="fill-rule:nonzero;"/>
                </g>
                <g transform="matrix(0.291676,0,0,0.291676,2243.822304,-41.289278)">
                    <path d="M1333.05,923.233C1333.88,917.95 1345.17,923.494 1339.83,927.948C1337.31,926.327 1335.46,925.008 1333.05,923.233Z" style="fill-rule:nonzero;"/>
                </g>
                <g transform="matrix(0.291676,0,0,0.291676,2243.822304,-41.289278)">
                    <path d="M1385.3,1048.61C1386.93,1048.39 1388.45,1049.46 1388.78,1051.07C1389.11,1052.68 1388.14,1054.27 1386.56,1054.71C1385.44,1055.02 1384.24,1054.68 1383.44,1053.83C1382.65,1052.98 1382.4,1051.75 1382.79,1050.66C1383.18,1049.56 1384.15,1048.77 1385.3,1048.61Z" style="fill-rule:nonzero;"/>
                </g>
                <g transform="matrix(0.291676,0,0,0.291676,2243.822304,-41.289278)">
                    <path d="M1270.87,963.524C1273.97,964.3 1277.05,965.178 1280.09,966.155C1277.11,968.529 1277.26,968.346 1273.34,968.802C1271.58,966.272 1271.56,966.43 1270.87,963.524Z" style="fill-rule:nonzero;"/>
                </g>
                <g transform="matrix(0.291676,0,0,0.291676,2243.822304,-41.289278)">
                    <path d="M1179.74,707.659C1184.02,704.955 1191.13,706.532 1187.21,710.794C1184.45,709.749 1182.41,708.889 1179.74,707.659Z" style="fill-rule:nonzero;"/>
                </g>
                <g transform="matrix(0.291676,0,0,0.291676,2243.822304,-41.289278)">
                    <path d="M1456.85,965.078C1460.97,965.628 1463.97,960.389 1462.75,967.604C1460.28,967.677 1459.25,967.951 1457.01,968.123L1456.94,968.194C1456.03,967.555 1456.65,966.109 1456.85,965.078Z" style="fill-rule:nonzero;"/>
                </g>
                <g transform="matrix(0.291676,0,0,0.291676,2243.822304,-41.289278)">
                    <path d="M800.396,749.764C793.216,743.779 800.496,743.413 802.317,746.931L802.914,747.99L800.396,749.764Z" style="fill-opacity:0.94;fill-rule:nonzero;"/>
                </g>
                <g transform="matrix(0.291676,0,0,0.291676,2243.822304,-41.289278)">
                    <path d="M1338.93,1018.54C1340.53,1022.15 1340.59,1022.75 1338.99,1026.41C1336.49,1022.5 1336.94,1022.71 1338.93,1018.54Z" style="fill-rule:nonzero;"/>
                </g>
                <g transform="matrix(0.291676,0,0,0.291676,2243.822304,-41.289278)">
                    <path d="M748.197,1225.79C750.809,1229.36 750.7,1228.94 749.118,1232.94C746.828,1233.14 748.083,1226.8 748.197,1225.79Z" style="fill-rule:nonzero;"/>
                </g>
            </g>
        </g>
    </g>
</svg>
