<?xml version="1.0" encoding="UTF-8" standalone="no"?>
<!DOCTYPE svg PUBLIC "-//W3C//DTD SVG 1.1//EN" "http://www.w3.org/Graphics/SVG/1.1/DTD/svg11.dtd">
<svg width="100%" height="100%" viewBox="0 0 484 322" version="1.1" xmlns="http://www.w3.org/2000/svg" xmlns:xlink="http://www.w3.org/1999/xlink" xml:space="preserve" xmlns:serif="http://www.serif.com/" style="fill-rule:evenodd;clip-rule:evenodd;stroke-linejoin:round;stroke-miterlimit:2;">
    <g transform="matrix(1,0,0,1,-14.068685,-162.90488)">
        <g transform="matrix(1,0,0,1,-5537.404239,0.969536)">
            <g transform="matrix(1.283923,0,0,1.283923,5134.698679,81.83466)">
                <path d="M331,312.839L696,312.995L697,296.129L686.27,276L686.27,258L660,216L653,210L655,203L647,170.514L609,148L575,162.15L573,156L576,146L572,139L573,113L552,88L546,90L513.041,67L478,90L473,89L452,117L455,139L449,148L450,157L420,150L408,154L381,170.514L371,204L373,212L367,217L338,262L340,275L329,299L331,312.839Z"/>
                <path d="M513.24,62.67C523.81,69.8 534.45,76.88 544.88,84.18C545.86,84.82 546.82,85.76 547.98,85.95C549.38,85.47 550.53,84.3 551.97,84.06C553.97,84.9 555.16,87.82 556.64,89.39C559.79,92.95 562.45,97.12 565.96,100.33C568.03,101.73 568.45,104.06 570.43,105.47C571.3,105.55 572.13,105.73 572.92,106.04C572.8,106.57 572.66,107.11 572.53,107.64C573.47,108.62 574.42,109.58 575.43,110.49C576.3,110.79 579.23,110.4 578.89,111.8C578.09,112.11 577.27,112.33 576.41,112.48C577.03,113.59 578.52,114.41 578.82,115.62C576.79,116.33 577.53,117.23 577.17,118.99C576.08,120.91 576.48,122.82 576.27,124.92C575.61,129.8 574.3,133.8 574.79,139C576.33,141.48 578.29,143.67 579.98,146.03C580.09,149.68 576.33,153.18 576.23,156.74C582.13,154.81 588.24,152.67 594.06,150.42C599.33,148.98 604.55,146.3 609.95,145.28C621.39,151.55 633.26,157.97 644.56,164.44C646.69,165.98 649.85,166.96 650.12,169.98C651.72,174.59 652.31,179.38 653.66,184.06C654.95,187.59 654.9,191.34 656.3,194.89C657.06,200.09 659.77,204.56 656.42,209.39C659,211.66 662.28,212.89 664.42,215.56C665.5,216.87 665.82,218.83 667.03,220.02C667.59,219.92 668.14,219.73 668.68,219.47C668.46,220.31 668.25,221.15 668.03,221.99C673.23,231.11 678.89,239.74 684.09,248.97C686.49,253.21 689.9,257.35 691.41,261.99C690.81,266.41 689.56,270.47 689.71,275.02C690.13,276.78 691.4,278.27 692.1,279.95C694.81,284.17 697.46,289.38 700.16,293.93C702.26,297.4 701.43,301.74 700.49,305.45C699.66,307.95 699.96,310.32 698.55,312.57C696.56,312.87 694.32,312.87 692.32,312.67C692.39,308.01 694.74,302.81 694.14,297.99C690.48,290.84 686.52,283.74 682.22,276.95C681.5,272.53 683.93,267.46 684.09,262.98C681.67,258.27 678.66,253.63 676.01,249.01C669.97,239.64 664.37,229.04 658.19,219.82C654.72,217.26 651.08,214.95 647.59,212.43C645.35,209.4 651.82,206.45 650.64,203.14C648.76,193.4 646.11,183.71 644.03,173.99C643.25,170.69 640.57,170.39 638.04,168.8C628.23,163.69 618.91,157.71 608.98,153C600.33,155.65 590.48,159.43 581.94,162.6C579.57,163.38 575.6,164.04 574.47,166.52C573.02,166.91 573.08,165.6 572.41,164.66C570.96,161.59 568.75,158.38 568.13,155.02C568.64,152.5 571.08,150.27 572.24,148.01C572.42,145.27 567.55,143.67 567.19,140.98C567.68,133.09 569.44,124.87 569.27,116.98C566.47,112.28 562.41,108.27 559.25,103.8C556.42,100.2 553.67,96.76 550.81,93.18C549.16,92.53 548.33,94.85 546.42,93.55C535.53,86.05 524.7,78.64 513.65,71.37C512.19,70.35 510.76,71.83 509.52,72.51C499.15,79.44 488.76,86.37 478.57,93.55C477.1,94.56 476.32,93.55 474.98,92.98C474.3,93.12 473.73,93.55 473.26,94.26C467.99,101.3 462.19,107.94 456.88,114.97C454.74,117.3 455.85,121.67 456.41,124.49C456.77,128.6 456.5,132.9 457.51,137.06C457.58,139.09 458.66,141.4 456.89,142.96C455.8,144.38 452.8,146.04 452.98,147.96C454.08,150.07 455.78,151.89 456.75,154.05C457.78,156.75 455.3,159.73 454.19,162.11C453.39,163.3 452.58,165.86 451.05,166.1C448.71,164.37 445.87,163.29 443.06,162.6C438.09,160.65 433.01,158.69 427.89,157.21C424.1,155.6 419.97,154.02 416.02,153.03C404.68,158.92 393.83,165.57 382.46,171.47C380.14,177.5 379.45,185.04 377.34,191.06C376.65,195.45 375.49,199.7 374.38,203.99C374.97,206.77 378.22,209.23 378.7,211.9C375.59,214.89 370.5,217.24 367.24,220.24C362.06,229.1 356.62,237.6 351.49,246.48C348.04,251.18 345.52,256.41 342.33,261.27C340.84,263.63 342.73,267.34 342.8,270C342.85,272.19 344.36,274.74 343.68,276.82C339.78,283.89 335.65,290.87 331.85,297.99C331.37,303.32 334.37,307.6 333.71,312.7C331.64,312.84 329.45,312.96 327.4,312.61C326.2,307.44 324.83,302.27 324.61,296.99C325.52,293.45 328.38,290.31 330.01,287.02C332.07,283.09 335.04,279.18 336.44,275.01C335.97,270.41 334.74,265.9 334.39,261.27C338.61,253.39 343.74,245.86 348.13,238.04C352.55,231.35 356.38,224.33 360.44,217.43C362.34,214 365.91,212.29 368.81,209.86C368.87,208.16 367.23,206.78 367.13,205.01C367.05,201.61 368.72,198.36 369.12,195C369.5,191.57 370.96,188.33 371.64,184.95C372.47,179.54 374.58,174.49 375.36,169.05C375.5,167.78 377.03,166.78 378.03,166.16C383.45,162.79 389.09,159.75 394.66,156.64C401.62,153.04 408.22,148.84 415.25,145.36C417.07,145.03 419.17,146.63 421,146.95C424.6,147.44 427.38,149.79 430.95,150.38C432.73,150.67 435.21,152.8 436.92,151.89C437.11,151.03 437.48,150.43 438.03,150.08C439.24,150.45 440.31,150.77 441.6,150.67C441.34,150.16 441.17,149.64 441.08,149.09C442.41,147.66 442.89,147.72 443.49,149.64C445.16,148.5 444.56,147.89 442.94,147.35C441.09,146.6 440.55,149.06 439.1,147.93C439.1,145.28 441.76,145.85 443.54,145.59C443.59,144.71 443.75,143.86 444.02,143.05C444.57,143.16 445.1,143.31 445.62,143.5C446.9,142.17 448.35,140.97 449.52,139.54C450.99,135.8 449.21,132.77 449.34,129C449.27,124.19 447.66,119.89 448.1,115.03C449.06,112.92 451,111.18 452.29,109.23C459.07,101.1 465.72,92.62 472.31,84.32C474.28,83.43 476.36,86.97 478.22,85.28C489.36,77.66 500.47,70.08 511.76,62.69C512.2,62.29 512.69,62.29 513.24,62.67Z" style="fill:white;fill-rule:nonzero;"/>
                <path d="M566.28,69.27C566.76,69.75 566.76,69.75 566.28,69.27Z" style="fill:rgb(204,0,34);fill-rule:nonzero;"/>
                <path d="M511.51,81.45C512.93,80.56 513.51,83.3 514.37,84.01C510.62,92.26 504.67,100.96 500.34,109.03C501.23,115.33 502.24,121.69 502.87,128.01C502.23,127.66 501.72,127.22 501.34,126.69C499.36,119.83 497.73,112.93 496.09,105.99C496.22,104.15 497.92,102.47 498.85,100.92C503.05,94.43 507.51,88.08 511.51,81.45Z" style="fill:rgb(200,136,10);fill-rule:nonzero;"/>
                <path d="M505.67,83.36C505.91,84.8 504.68,85.79 504.01,87C500.43,92.15 497.43,97.61 493.57,102.58C492.39,102.77 491.65,101.9 490.63,101.39C488.8,100.27 486.64,99.4 485.02,97.99L485.1,97.27C492.02,92.73 498.78,87.93 505.67,83.36Z" style="fill:rgb(200,136,10);fill-rule:nonzero;"/>
                <path d="M514.37,84.01C516.26,86.4 517.99,88.9 519.52,91.53C522.33,95.14 524.83,98.96 527.16,102.89C527.81,104.07 528.89,105.18 528.52,106.61C527.09,112.48 526.03,118.37 524.42,124.21C523.65,126.94 521.07,129.2 519.09,131.12C517,132.91 515.15,135.45 512.72,136.69C511.53,137.14 510.73,135.72 509.93,135.07C507.62,132.67 505.15,130.44 502.87,128.01C502.24,121.69 501.23,115.33 500.34,109.03C504.67,100.96 510.62,92.26 514.37,84.01Z" style="fill:rgb(204,0,34);fill-rule:nonzero;"/>
                <path d="M519.39,84.33C520.64,84.28 521.25,85.08 522.24,85.66C528.17,89.41 534.02,93.15 539.56,97.44C540.16,98.94 537.84,99.13 536.94,99.84C535.33,100.46 532.91,102.54 531.2,101.82C526.33,96.86 523.43,90.02 519.39,84.33Z" style="fill:rgb(204,0,34);fill-rule:nonzero;"/>
                <path d="M483.3,101.43C486.5,102.52 489,104.47 491.86,106.13C493.4,108.74 493.97,111.99 494.44,114.95C495.69,118.71 497.16,123.03 497.09,127C495.76,129.08 493.62,132.78 491.33,133.63C488.8,129.01 488.62,123.02 486.87,118.02C485.75,114.62 485.5,110.52 483.53,107.53C483.39,105.59 482.92,103.33 483.3,101.43Z" style="fill:rgb(204,0,34);fill-rule:nonzero;"/>
                <path d="M474.28,102.4L475.02,102.21C475.18,103.4 475.09,104.61 474.75,105.85C472.95,109.23 472.33,113.06 470.59,116.49C470.39,118.48 469.99,120.08 468.94,121.78C466.74,121.41 464.56,119.44 462.44,118.53C462.18,117.85 462.3,117.28 462.81,116.83C466.85,112.21 470.3,107.07 474.28,102.4Z" style="fill:rgb(200,136,10);fill-rule:nonzero;"/>
                <path d="M475.02,102.21L475.56,102.29C475.65,103.83 475.6,105.08 476.46,106.43C478,110.16 478.43,114.22 479.8,118.04C480.84,120.79 480.51,123.38 482.46,125.48C482.71,126.76 482.59,128.14 482.53,129.44C481.28,129.87 480.48,130.59 479.54,131.49C477.97,131.57 476.14,131.84 474.61,131.42C472.53,128.99 471.18,125.83 469.71,122.99C470.2,121.78 470.84,120.66 471.42,119.49C471.63,114.85 475.08,110.55 474.75,105.85C475.09,104.61 475.18,103.4 475.02,102.21Z" style="fill:rgb(204,0,34);fill-rule:nonzero;"/>
                <path d="M540.64,102.42C540.46,105.26 541.18,107.64 539.77,110.03C539.28,112.69 537.55,115.3 537.61,118C537.98,121.11 535.39,123.98 535.58,127.02C535.76,129.52 533.35,131.02 533.53,133.63C532.73,132.96 532.32,132.07 531.84,131.16C530.72,130.55 529.76,130.24 529.25,128.97C527.17,125.77 528.85,121.15 530.24,117.99C530.37,116.47 530.42,115.3 531.27,113.99C530.74,107.93 535.8,104.64 540.64,102.42Z" style="fill:rgb(204,0,34);fill-rule:nonzero;"/>
                <path d="M550.01,101.96C553.6,106.11 557.38,111.52 561.21,115.84C561.9,116.74 562.71,117.25 562.58,118.5C561.78,118.68 560.98,118.87 560.19,119.06C558.65,114.89 554.6,111.64 551.62,108.43C549.81,108.2 549.51,112.49 548.6,113.7C547.48,118.15 543.93,122.43 544.57,127.03C545.09,128.16 546.06,128.95 546.71,130C545.56,129.77 544.54,128.97 543.48,128.47C543.42,126.22 543.18,124.1 544.05,121.98C545.89,117.11 546.37,111.95 547.97,107C548.46,105.86 548.5,102 550.01,101.96Z" style="fill:rgb(200,136,10);fill-rule:nonzero;"/>
                <path d="M551.62,108.43C554.6,111.64 558.65,114.89 560.19,119.06C559.28,120.35 558.1,120.15 556.91,120.84C553.95,124.2 552.94,127.75 550.56,131.62C549.34,132.09 547.42,130.98 546.71,130C546.06,128.95 545.09,128.16 544.57,127.03C543.93,122.43 547.48,118.15 548.6,113.7C549.51,112.49 549.81,108.2 551.62,108.43Z" style="fill:rgb(204,0,34);fill-rule:nonzero;"/>
                <path d="M461.43,122.39C464.24,122.65 467.53,124.81 468.4,127.63C469.32,129.61 470.95,131.55 471.55,133.62C469.71,135.6 466.16,137.75 463.42,137.7C463.23,135.39 462.24,133.34 462.26,131C462.34,128.02 461.09,125.35 461.43,122.39Z" style="fill:rgb(204,0,34);fill-rule:nonzero;"/>
                <path d="M524.45,131.45C526.59,131.22 529.46,134.95 530.56,136.63C529.25,137.76 527.66,138.09 526.54,139.54C523.92,141.62 520.91,142.98 518.52,145.41C516.87,145.85 516.11,147.75 514.45,147.61C514.39,145.55 514.32,143.47 514.48,141.41C515.58,140.12 517,140.34 517.59,138.46C519.68,135.99 522.16,133.76 524.45,131.45Z" style="fill:rgb(204,0,34);fill-rule:nonzero;"/>
                <path d="M482.79,137.3C488.74,141.15 494.5,144.8 500.41,148.62C503.13,151.16 504.42,155.35 506.56,158.42C507.65,159.84 505.5,161.89 504.89,163.15L504.14,162.88C502.14,159.5 500.98,155.47 499.17,151.95C498.46,150.52 497.2,149.94 495.85,149.26C491.49,147.1 486.61,143.92 482.16,142.26C480.98,144.33 480.65,146.6 480.54,148.95C480.63,149.67 480.23,149.98 479.35,149.88C478.34,147.76 478.16,145.54 477.67,143.28C476.15,142.47 473.66,143.97 472.04,144.22C469.73,145.19 466.97,145.66 464.92,147.07L463.25,146.72C463.39,146.24 463.79,145.84 464.47,145.53C468.63,143.32 472.67,140.89 476.89,138.78C478.9,137.75 480.43,135.6 482.79,137.3Z" style="fill:rgb(200,136,10);fill-rule:nonzero;"/>
                <path d="M542.22,137.28C543.73,136.13 544.9,136.83 546.31,137.68C551.25,140.78 556.76,143.18 561.59,146.38C561.01,147.46 560.3,147.58 559.14,147.55C558.74,147.09 558.32,146.64 557.89,146.21C553.74,143.97 548.73,143.04 544.32,141.46C538.51,144.01 532.72,147.08 527.17,150.19C524.35,153.71 523.36,159.09 520.86,162.84L520.11,163.18C519.47,162.02 517.78,160.47 518.19,159.06C519.32,156.26 521.17,153.89 522.28,151.07C522.73,149.78 524.06,148.96 525.12,148.17C530.78,144.47 536.61,141.08 542.22,137.28Z" style="fill:rgb(200,136,10);fill-rule:nonzero;"/>
                <path d="M544.32,141.46C548.73,143.04 553.74,143.97 557.89,146.21C558.32,146.64 558.74,147.09 559.14,147.55C556.4,148.35 553.93,149.4 550.99,149.35C549.64,148.77 548.39,147.82 546.99,147.4C546.03,147.41 545.16,148.78 544.56,149.45C544.47,153.04 539.61,155.11 537.15,157.14C532.3,159.98 528.66,164.1 523.66,166.64C522.11,167.31 521.06,164.07 520.11,163.18L520.86,162.84C523.36,159.09 524.35,153.71 527.17,150.19C532.72,147.08 538.51,144.01 544.32,141.46Z" style="fill:rgb(204,0,34);fill-rule:nonzero;"/>
                <path d="M482.16,142.26C486.61,143.92 491.49,147.1 495.85,149.26C497.2,149.94 498.46,150.52 499.17,151.95C500.98,155.47 502.14,159.5 504.14,162.88L504.89,163.15C503.94,164.54 503.23,167.17 501.06,166.76C498.63,165.64 496.76,164.02 494.89,162.16C490.11,158.58 484.72,155.7 480.45,151.56C479.05,150.26 477.5,150.86 475.73,150.45C472.15,149.71 468.13,148.83 464.92,147.07C466.97,145.66 469.73,145.19 472.04,144.22C473.66,143.97 476.15,142.47 477.67,143.28C478.16,145.54 478.34,147.76 479.35,149.88C480.23,149.98 480.63,149.67 480.54,148.95C480.65,146.6 480.98,144.33 482.16,142.26Z" style="fill:rgb(204,0,34);fill-rule:nonzero;"/>
                <path d="M465.4,157.39L466.93,157.28C465.28,162.3 465.44,167.81 464.12,173.02C463.8,174.39 465,175.31 465.65,176.37C467.71,179.31 469.29,182.61 471.45,185.5C472.31,186.61 472.65,187.64 472.82,189.02C468.72,185.19 465.06,180.88 461.05,176.96C459.87,175.32 456.92,173.76 458.48,171.47C460.94,166.86 462.69,161.83 465.4,157.39Z" style="fill:rgb(200,136,10);fill-rule:nonzero;"/>
                <path d="M466.93,157.28C467.99,157.52 468.82,158.67 469.51,159.47C472.14,163.38 473.32,167.83 475.74,171.9C473.22,171.21 470.45,173.09 468.34,174.3L468.27,174.85C472.89,176.02 479.22,177.2 484,178.12C486.45,178.62 488.54,178.59 490.89,177.69C490.91,177.15 490.64,176.64 490.1,176.18C492.9,176.66 495.89,176.76 498.6,177.42C498.85,179.04 497.24,180.14 496.28,181.25C492.59,184.56 487.99,186.95 483.95,189.82C482.1,191.14 479.37,193.06 477.04,192.88C475.44,191.89 474.11,190.39 472.82,189.02C472.65,187.64 472.31,186.61 471.45,185.5C469.29,182.61 467.71,179.31 465.65,176.37C465,175.31 463.8,174.39 464.12,173.02C465.44,167.81 465.28,162.3 466.93,157.28Z" style="fill:rgb(204,0,34);fill-rule:nonzero;"/>
                <path d="M558.99,157.12L559.7,157.18C561.91,162.54 564.79,167.62 566.92,173L566.75,173.8C563.64,177.28 560.17,180.49 556.95,183.89C555.03,185.98 553.3,188.13 551.14,190.02L551.49,188.46C554.76,183.73 557.83,178.86 560.81,173.95C560.68,171.87 560.13,168.71 559.04,166.94C558.89,163.83 558.37,160.11 558.99,157.12Z" style="fill:rgb(200,136,10);fill-rule:nonzero;"/>
                <path d="M479.94,160.17C484.16,162.57 488.28,165.12 492.58,167.39C493.76,168.24 495.93,168.74 495.57,170.58C491.34,169.7 485.4,169.39 481.52,167.52C480.07,164.88 478.57,162.42 477.46,159.63C477.4,158.81 479.68,160.07 479.94,160.17Z" style="fill:white;fill-rule:nonzero;"/>
                <path d="M547.57,159.44C547.7,160.92 546.43,161.53 545.74,162.84C544.62,164.75 543.94,167.98 541.43,168.48C537.65,169.51 533.25,170.4 529.36,169.61C533.03,166.23 538.47,164.48 542.59,161.6C544.04,160.75 545.82,159.35 547.57,159.44Z" style="fill:white;fill-rule:nonzero;"/>
                <path d="M556.19,159.09C559.49,159.05 558.05,164.45 558.51,166.53L559.04,166.94C560.13,168.71 560.68,171.87 560.81,173.95C557.83,178.86 554.76,183.73 551.49,188.46L551.14,190.02C549.97,191.1 548.6,192.68 547,193.02C539.71,189.46 533.36,184.95 526.92,180.08C526.26,179.49 526.09,178.59 526.4,177.38C528.68,176.33 530.64,177.81 532.87,176.4C533.33,178.99 538.02,178.76 539.95,178.58C544.46,177.29 549.05,176.41 553.66,175.55C553.25,174.86 552.69,174.27 551.99,173.78C550.89,173.2 547.91,173.17 548.38,171.33C551.23,167.52 552.88,162.5 556.19,159.09Z" style="fill:rgb(204,0,34);fill-rule:nonzero;"/>
                <path d="M415.9,163.02C417.2,166.27 419.94,169.43 420.69,172.75C419.61,173.76 418.36,173.69 417.01,174.07C411.76,175.85 406.39,177.55 401,178.86C397.76,178.79 394.26,177.04 391.28,175.8L391.3,175.2C398.04,171.23 406.12,166.83 413,163.08C413.99,162.66 415.29,161.42 415.9,163.02Z" style="fill:rgb(200,136,10);fill-rule:nonzero;"/>
                <path d="M422.04,162.98C427.94,164.98 433.98,166.88 439.67,169.41L439.61,170.52C436.35,170.67 433.13,170.79 429.95,171.54C428.21,171.67 425.93,172.35 424.31,171.66C422.58,168.69 421.26,165.51 419.4,162.59C419.71,161.81 421.52,162.87 422.04,162.98Z" style="fill:rgb(200,136,10);fill-rule:nonzero;"/>
                <path d="M605.49,162.31C604.47,164.64 601.98,169.28 600.63,171.61C599.86,171.96 598.98,172.03 598,171.82C593.84,171.01 589.64,170.65 585.41,170.52C585.28,169.71 585.5,169.26 586.05,169.17C592.36,166.56 598.95,164.27 605.49,162.31Z" style="fill:rgb(200,136,10);fill-rule:nonzero;"/>
                <path d="M610.02,162.15C617.85,166.15 626.13,170.77 633.78,175.17L633.79,175.83C630.94,176.98 628.01,178.19 625,178.82C621.85,179.21 619.89,177.5 616.99,176.86C613.07,175.88 609.42,174.22 605.44,173.49C602.85,172.69 605.19,170.33 605.86,168.95C607.38,167.15 608.17,163.25 610.02,162.15Z" style="fill:rgb(200,136,10);fill-rule:nonzero;"/>
                <path d="M516.14,168.83C517.26,169.78 519.33,170.59 519.79,172.04C520.08,176.67 518.86,182.49 520.07,186.93C522.19,188.38 523.83,185.09 525.47,185.4C526.25,186.73 527.84,190.2 526.12,191.25C521.9,192.57 517.98,194.96 514.27,197.32C512.11,198.79 509.44,196.39 507.45,195.54C504.15,194.08 502.4,191.17 498.47,191.53L498.27,191.13C500.08,191.46 500.47,190.43 501.99,190.01C503.94,190.54 505.55,192.52 507.54,192.6C507.31,185.55 508.37,178.97 509.04,172.01C509.41,170.47 510.91,169.57 511.49,168.28L511.03,167.81C512.96,166.29 514.49,167.75 516.14,168.83Z" style="fill:rgb(204,0,34);fill-rule:nonzero;"/>
                <path d="M511.03,167.81L511.49,168.28C510.91,169.57 509.41,170.47 509.04,172.01C508.37,178.97 507.31,185.55 507.54,192.6C505.55,192.52 503.94,190.54 501.99,190.01C500.47,190.43 500.08,191.46 498.27,191.13C497.77,189.26 498.62,187 499.37,185.28C500.85,184.41 503.14,187.29 504.65,187.55C505.55,182.57 504.43,177.14 505.25,172.17C507.02,170.54 509,169.09 511.03,167.81Z" style="fill:rgb(200,136,10);fill-rule:nonzero;"/>
                <path d="M475.74,171.9C479.24,174.84 485.68,174.98 490.1,176.18C490.64,176.64 490.91,177.15 490.89,177.69C488.54,178.59 486.45,178.62 484,178.12C479.22,177.2 472.89,176.02 468.27,174.85L468.34,174.3C470.45,173.09 473.22,171.21 475.74,171.9Z" style="fill:rgb(200,136,10);fill-rule:nonzero;"/>
                <path d="M444.93,173.11C445.6,176.05 443.61,179.95 443.18,182.98C442.5,185.21 441.85,188.71 439.99,190.16C437.41,188.84 435.59,185.53 433.59,183.41C432.07,180.98 428.67,178.08 428.25,175.31C430.54,174.81 432.62,174.2 435,174.23C438.1,174.16 442,171.96 444.93,173.11Z" style="fill:rgb(204,0,34);fill-rule:nonzero;"/>
                <path d="M580.09,173.14C583.32,172.28 587.62,174.06 591,174.19C593.39,174.16 595.19,175.5 597.6,175.44C594.48,180.02 590.51,183.74 587.26,188.25C586.29,189.09 585.95,190.94 584.45,190.58C582.12,185.43 580.87,179.55 579.69,174.01L580.09,173.14Z" style="fill:rgb(204,0,34);fill-rule:nonzero;"/>
                <path d="M551.99,173.78C552.69,174.27 553.25,174.86 553.66,175.55C549.05,176.41 544.46,177.29 539.95,178.58C538.02,178.76 533.33,178.99 532.87,176.4C534.94,176.02 537.02,175.95 539.03,175.26C543.08,173.91 547.76,173.92 551.99,173.78Z" style="fill:rgb(200,136,10);fill-rule:nonzero;"/>
                <path d="M422.91,176.24C424.74,177.49 425.92,179.9 427.49,181.52C431.23,185.55 434.61,189.85 438.13,194.06L437.47,194.7C434.36,191.32 430.51,188.98 427.12,185.85C424.88,184.21 422.92,181.59 420.4,180.48C416.32,181.88 412.08,181.6 408,183.01C405.57,183.43 403.3,184.44 400.91,184.9C400.88,184.1 401.05,183.29 401.45,182.49C404.33,181.68 407.09,180.56 410.01,179.9C414.44,178.86 418.33,176.84 422.91,176.24Z" style="fill:rgb(200,136,10);fill-rule:nonzero;"/>
                <path d="M602.88,176.35C609.87,177.74 616.47,180.79 623.41,182.55L624.33,183.97C623.92,185.32 621.93,183.95 621.01,183.94C615.27,183.32 610.13,180.58 603.99,180.73C602.29,181.63 600.92,183.21 599.45,184.44C595.46,188.06 591.09,191.3 587.2,195.01C587.11,194.23 587.35,193.53 587.9,192.91C591.85,187.86 596.26,183.22 600.19,178.16C600.96,177.41 601.57,175.85 602.88,176.35Z" style="fill:rgb(200,136,10);fill-rule:nonzero;"/>
                <path d="M387.47,179.43C389.82,178.43 393.33,180.77 395.74,181.35C398.09,182.34 397.18,183.63 396.46,185.45C394.63,188.66 395.14,191.88 392.81,194.82C390.45,196.56 387.51,197.5 385.06,199.17C384.49,199.59 383.89,199.77 383.28,199.72C382.71,196.99 384.45,193.75 384.87,191C385.38,187.05 386.66,183.31 387.47,179.43Z" style="fill:rgb(200,136,10);fill-rule:nonzero;"/>
                <path d="M447.65,179.52C450.21,181.25 449.96,184.88 451.42,187.5C451.76,191.75 451.54,196.32 451.6,200.63C449.38,198.71 447.24,196.83 444.75,195.27C443.69,194.49 442.79,193.74 443.38,192.31C444.51,188.05 446.43,183.22 447.65,179.52Z" style="fill:rgb(204,0,34);fill-rule:nonzero;"/>
                <path d="M577.41,179.51L577.52,179.34C578.12,182.7 579.93,185.57 580.43,188.95C580.63,190.6 582.18,192.96 581.52,194.52C579.43,196.12 577.18,197.5 575.14,199.14C574.58,199.68 573.97,199.87 573.31,199.7C573,196.15 574.68,192.55 575.03,189C575.62,185.9 575.79,182.26 577.41,179.51Z" style="fill:rgb(204,0,34);fill-rule:nonzero;"/>
                <path d="M637.55,179.41C638.68,186.01 641.76,192.96 641.63,199.63C638.63,198.3 635.86,196.57 632.84,195.28C631.14,193.97 631.15,190.84 630.15,188.98C629.51,186.99 627.88,184.35 628.33,182.3C630.58,180.55 634.72,178.78 637.55,179.41Z" style="fill:rgb(204,0,34);fill-rule:nonzero;"/>
                <path d="M420.4,180.48C422.92,181.59 424.88,184.21 427.12,185.85C430.51,188.98 434.36,191.32 437.47,194.7L438.13,194.06C439.23,195.08 437.96,196.54 437.56,197.59C434.6,203.24 431.87,209.09 428.58,214.55C421.5,215.23 413.27,216.73 406.3,215.66C403.15,210.5 400.83,204.97 398.58,199.37C397.66,197.34 395.86,195.4 397.22,193.1C399.02,190.32 398.65,187.15 400.91,184.9C403.3,184.44 405.57,183.43 408,183.01C412.08,181.6 416.32,181.88 420.4,180.48Z" style="fill:rgb(204,0,34);fill-rule:nonzero;"/>
                <path d="M603.99,180.73C610.13,180.58 615.27,183.32 621.01,183.94C621.93,183.95 623.92,185.32 624.33,183.97C625.13,187.84 627.45,191.13 628.07,194.99C628.13,197.91 626.33,199.58 625.23,202.14C623.3,206.73 621.17,211.32 618.65,215.62C615.1,216.71 610.73,215.68 607.02,215.63C603.52,214.98 599.83,215.39 596.43,214.53C593.74,210.73 591.83,206.26 589.96,202C588.89,199.51 587.11,197.83 587.2,195.01C591.09,191.3 595.46,188.06 599.45,184.44C600.92,183.21 602.29,181.63 603.99,180.73Z" style="fill:rgb(204,0,34);fill-rule:nonzero;"/>
                <path d="M347.31,182.35C347.65,182.67 347.65,182.67 347.31,182.35Z" style="fill:rgb(204,0,34);fill-rule:nonzero;"/>
                <path d="M492.65,188.39C492.89,189.61 492.01,190.83 491.63,191.99C488.88,195.72 486.45,199.12 483.75,202.89C482.52,207.64 480.62,212.13 479.64,216.94C479.15,218.7 478.55,220.1 479.04,221.97C478.5,222.88 478.03,223.81 477.38,224.62C476.42,219.24 478.2,214.78 478.56,209.02C478.78,206.16 478.86,203.19 479.41,200.38C483.52,196.1 488.31,192.45 492.65,188.39Z" style="fill:rgb(200,136,10);fill-rule:nonzero;"/>
                <path d="M532.37,188.38C536.63,192.52 541.36,196.26 545.39,200.6C547.05,206.14 546.96,213.3 547.67,219.11C548.01,220.92 548.14,222.88 547.69,224.67C546.78,224.09 546.37,221.96 545.79,220.98C545.8,219.58 545.65,218.31 545.21,216.98C543.67,211.94 542.58,206.46 540.38,201.67C538,198.48 535.88,195.01 533.28,192C532.39,190.7 532.28,189.94 532.37,188.38Z" style="fill:rgb(200,136,10);fill-rule:nonzero;"/>
                <path d="M463.47,190.41L464.6,190.4C466.59,192.11 468.55,193.94 470.13,196.03C467.86,199.38 467.1,203.49 465.29,207.12C464.26,208.95 464.23,212.07 462.32,213.11C461.84,209.49 462.69,205.74 462.5,202.05C463.56,198.17 463.09,194.44 463.47,190.41Z" style="fill:rgb(200,136,10);fill-rule:nonzero;"/>
                <path d="M561.54,190.42C561.48,194.96 561.87,199.47 562,204C562.58,206.96 562.79,209.93 562.69,212.94L561.53,212.74C561.22,209.59 559.43,206.73 558.38,203.73C557.07,201.26 556.62,198.13 554.81,195.99C556.18,194.06 558.14,192.51 559.8,190.8C560.17,190.28 560.75,190.15 561.54,190.42Z" style="fill:rgb(200,136,10);fill-rule:nonzero;"/>
                <path d="M491.63,191.99C492.6,193.97 495.36,194.56 497.12,195.82C501.47,198.1 505.19,201.28 509.52,203.56C510.65,204.2 511.61,205.48 513.01,205.18C517.97,202.06 522.63,198.58 527.8,195.76C529.38,194.31 532.17,193.68 533.28,192C535.88,195.01 538,198.48 540.38,201.67C542.58,206.46 543.67,211.94 545.21,216.98C545.65,218.31 545.8,219.58 545.79,220.98C545.07,220.82 544.44,220.52 543.91,220.09C541.41,216.88 539.39,213.36 536.61,210.4C535.01,207.36 532.58,204.94 529,204.63C527.15,204.46 525.82,205.62 524.02,205.67C519.41,206.07 515.6,208.1 511.04,207.55C506.68,206.66 502.31,205.96 498,204.77C494.66,203.93 492.22,205.73 490.13,208.08C486.39,212.58 483.07,217.75 479.04,221.97C478.55,220.1 479.15,218.7 479.64,216.94C480.62,212.13 482.52,207.64 483.75,202.89C486.45,199.12 488.88,195.72 491.63,191.99Z" style="fill:rgb(204,0,34);fill-rule:nonzero;"/>
                <path d="M470.13,196.03C471.38,197.11 473.27,198.08 473.12,199.99C471.73,205.98 472.24,212.43 471.45,218.53C470.88,219.44 470.99,221.67 469.97,221.99C469.32,221.82 468.77,221.39 468.32,220.68C466.42,218.12 464.04,215.78 462.32,213.11C464.23,212.07 464.26,208.95 465.29,207.12C467.1,203.49 467.86,199.38 470.13,196.03Z" style="fill:rgb(204,0,34);fill-rule:nonzero;"/>
                <path d="M554.81,195.99C556.62,198.13 557.07,201.26 558.38,203.73C559.43,206.73 561.22,209.59 561.53,212.74L562.69,212.94C561.36,215.22 559.14,217.35 557.49,219.48C556.64,220.25 555.68,222.18 554.35,221.78C552.71,215.38 552.73,208.57 552.6,202C552.29,199.77 553.79,197.97 554.81,195.99Z" style="fill:rgb(204,0,34);fill-rule:nonzero;"/>
                <path d="M442.6,198.52C444.01,200.02 445.76,200.65 447.54,201.57C448.98,202.68 450.25,204.05 451.51,205.36C450.34,207.38 447.52,208.83 446.42,211.41C444.39,212.2 444.06,213.34 443.06,215.06C439.72,216.39 438.36,219.75 435.15,221.15C434.46,223.7 432.34,223.28 431.41,225.42C429.31,226.64 429.4,228.38 426.43,228.69C427,227.61 427.37,226.67 427.53,225.44C428.8,224.1 429.34,223.37 429.53,221.45C431.1,219.76 432.19,217.75 432.57,215.46C433.18,213.49 434.78,212.33 435.57,210.47C437.23,207.12 438.91,203.78 440.59,200.45C440.97,199.95 441.98,198.45 442.6,198.52Z" style="fill:rgb(204,0,34);fill-rule:nonzero;"/>
                <path d="M583.44,198.44C584.38,199.85 584.5,201.34 585.11,202.84C587.41,205.22 587.91,208.53 590.03,210.97C592.56,214.14 592.37,218.07 595.03,220.97C596.74,223.42 597.96,226.73 598.64,229.61C597.23,228.06 595.28,227.64 593.94,226.06C589.5,221.5 584.9,217.11 580.46,212.55C579.6,211.59 578.72,210.99 577.58,210.41C576.88,208.79 575.64,207.81 574.46,206.57C573.83,205.15 576.15,203.97 576.57,202.56C579.04,201.47 580.51,198.54 583.44,198.44Z" style="fill:rgb(204,0,34);fill-rule:nonzero;"/>
                <path d="M393.71,199.43C396.93,202.35 398.39,207.63 399.57,211.7C394.34,210.79 390.47,205.48 385.4,203.51C387.37,201.32 390.96,200.29 393.71,199.43Z" style="fill:rgb(204,0,34);fill-rule:nonzero;"/>
                <path d="M632.51,199.54C634.75,200.9 637.7,201.7 639.59,203.47C637.35,204.56 635.57,206.19 633.17,207.12C631.03,209.28 628.41,210.95 625.46,211.7C625.87,210.83 625.77,210.31 625.55,209.4C626.66,206.92 628.62,205.08 629.55,202.44C630.17,201.44 630.84,198.68 632.51,199.54Z" style="fill:rgb(204,0,34);fill-rule:nonzero;"/>
                <path d="M387.35,209.38C388.74,210.62 389.63,211.3 391.57,211.54C394.45,213.65 397.48,215.75 400.56,217.54C401.12,219.98 399.42,220.47 398.08,222.08C397.18,222.82 396.86,223.85 395.52,223.57C394.82,222.28 394.35,220.74 393.39,219.61C391.42,217.75 390.65,215.37 388.52,213.57C388.49,211.98 387.44,210.89 387.35,209.38Z" style="fill:rgb(204,0,34);fill-rule:nonzero;"/>
                <path d="M497,209.19C500.36,209.77 503.57,210.92 506.99,211.21C514.01,212.84 521.16,210.64 528,209.14C529.84,208.81 530.42,211.53 530.72,212.87C529.36,213.85 526.98,213.29 525.35,213.44C526.64,215.3 529.36,214.45 531.35,215.6C531.99,216.58 532.49,217.73 532.74,218.87C531.89,219.06 531,218.99 530.05,218.67C519.66,215.36 508.55,215.29 497.97,217.74C496.26,218.14 494.04,219.22 492.29,218.73C492.36,217.62 493.04,216.52 493.6,215.6C495.34,214.75 497.67,214.8 499.58,214.5L499.58,213.48C497.94,213.26 495.68,213.74 494.3,212.82C494.72,211.37 494.92,208.8 497,209.19Z" style="fill:white;fill-rule:nonzero;"/>
                <path d="M637.61,209.38C637.98,213.22 633.4,216.68 632.1,220.15C631.58,221.35 630.07,224.12 628.46,223.52C627.25,222.17 624.95,220.65 624.38,219C624.9,217.37 627.22,215.81 628.44,214.53C630.95,214.46 631.73,212.97 633.42,211.51C635.4,211.4 636.25,210.65 637.61,209.38Z" style="fill:rgb(204,0,34);fill-rule:nonzero;"/>
                <path d="M382.78,218.27C384.69,220.73 386.89,223.95 388.09,226.83C384.7,226.51 380.93,225.25 377.15,226.18C374.5,229.6 373.34,234.95 371.38,238.75L370.92,238.05C371.42,235.34 371.28,232.64 372.12,230C372.97,227.6 371.95,224.92 374.52,223.51C377.18,221.9 379.84,219.19 382.78,218.27Z" style="fill:rgb(200,136,10);fill-rule:nonzero;"/>
                <path d="M642.26,218.24L643,218.02C646.31,220.11 649.94,222.47 652.74,225.17C653.33,228.45 653.83,231.7 654.14,235.02C654.03,235.87 653.82,236.4 653.52,236.6C652.95,233.9 651.24,231.51 650.27,228.93C649.72,227.78 649.42,226.01 648,225.65C644.44,225.83 640.69,226.04 637.24,227L637.19,226.04C638.92,223.47 640.42,220.73 642.26,218.24Z" style="fill:rgb(200,136,10);fill-rule:nonzero;"/>
                <path d="M508,219.72C515.25,218.99 522.18,220.29 529.12,222.23C529.61,222.68 529.88,223.2 529.94,223.78C527.41,226.04 524.84,224.26 522.01,223.78C514.78,221.86 507.68,222.59 500.55,224.46C498.45,225.16 495.19,224.67 493.72,222.95C498.06,221.27 503.33,220.22 508,219.72Z" style="fill:rgb(200,136,10);fill-rule:nonzero;"/>
                <path d="M404.4,221.5L404.62,221.5C406.83,223.82 409.73,225.93 411.2,228.8C412.61,229.39 412.97,230.39 413.61,231.67C410.8,231.97 409.26,229.65 406.47,229.43C404.45,228.46 402.48,227.39 400.45,226.45C400.11,224.64 403.38,222.89 404.4,221.5Z" style="fill:rgb(204,0,34);fill-rule:nonzero;"/>
                <path d="M451.09,221.22C455.16,222.13 458.75,223.91 462.57,225.47C464.56,226.64 465.56,229.25 467.13,230.96C468.63,232.34 467.25,235.1 469,236.01C469.82,236.75 471.83,237.66 471.85,238.84C468.34,238.34 464.24,236.84 460.94,235.33C458.36,234.41 455.74,233.82 453.24,232.64C451.91,231.73 452.29,229.42 451.97,228C451.92,225.86 450.44,223.26 451.09,221.22Z" style="fill:rgb(200,136,10);fill-rule:nonzero;"/>
                <path d="M485.34,221.4L485.79,221.31C486.29,222.78 485.91,224.52 486.14,226.06C485.64,227.28 485.02,228.19 485.48,229.56C487.52,235.03 489.98,240.38 492.17,245.72L491.31,245.78C486.85,241.11 481.9,237.16 477.26,232.72L477.13,232.01C479.73,228.44 482.5,224.79 485.34,221.4Z" style="fill:rgb(200,136,10);fill-rule:nonzero;"/>
                <path d="M539.33,221.33C542.04,223.6 543.74,227.25 546.14,229.89C546.76,230.82 548.23,232.38 547.51,233.54C544.81,236.26 541.5,238.02 538.96,240.89C536.95,242.05 535.23,244.97 533.2,245.63C532.25,244.12 533.99,242.03 534.44,240.55C535.45,236.46 538.19,232.95 539.63,229C538.23,226.54 538.51,223.97 539.33,221.33Z" style="fill:rgb(204,0,34);fill-rule:nonzero;"/>
                <path d="M573.81,221.25C574.1,224.93 572.53,229.03 571.63,232.61C569.43,233.55 567.41,234.67 565.02,235.08C560.88,236.43 556.57,238.44 552.43,239.57C552.1,237.99 554.09,237.93 555.02,236.98C557.09,235.53 556.18,233.44 556.37,231.31C558,229.35 560.37,227 562.35,225.41C566.06,224.13 570.01,221.9 573.81,221.25Z" style="fill:rgb(200,136,10);fill-rule:nonzero;"/>
                <path d="M620.4,221.51L620.61,221.51C621.65,222.86 624.87,224.69 624.58,226.46C622.52,227.37 620.56,228.46 618.54,229.43C615.68,229.62 614.2,232.05 611.37,231.59C611.18,229.38 614.69,228.18 615.29,226.04C616.41,223.4 618.61,223.48 620.4,221.51Z" style="fill:rgb(204,0,34);fill-rule:nonzero;"/>
                <path d="M447.51,222.43C447.92,225.97 449.38,230.39 448.77,233.91C444.95,237.97 440.44,241.49 436.66,245.65C435.18,247.01 434.4,248.81 432.05,247.74C429.51,246.32 426.89,245.06 424.4,243.57C423.96,242.16 425.67,241.4 426.45,240.44C432.96,234.65 439.34,228.68 445.61,222.63C446.16,221.99 446.79,221.93 447.51,222.43Z" style="fill:rgb(200,136,10);fill-rule:nonzero;"/>
                <path d="M529.12,222.23L530.43,222.49C531.22,224.83 532.56,224.3 534.57,224.5C535.37,225.28 537.47,226.35 536.66,227.7C536.25,228.22 535.82,228.74 535.4,229.25C535.45,229.7 535.5,230.15 535.55,230.6C534.62,231.22 533.16,231.68 533.09,232.98C534.09,234.77 533.02,235.88 532.57,237.65C531.38,238.07 530.47,239.33 529.36,239.64C527.85,238.04 527.55,235.65 525.9,234.11C524.79,233.05 524.09,231.81 523.45,230.43C526.62,229.76 523.4,227.35 522.01,226.94C516.76,226.26 511.3,226.72 506,226.59C503.29,226.47 501.13,227.43 499.43,229.51C500.6,229.74 501.15,230.23 501.06,230.97C499.29,234.52 496.98,237.71 495.37,241.34C494.5,242.77 493.7,244.92 492.17,245.72C489.98,240.38 487.52,235.03 485.48,229.56C485.02,228.19 485.64,227.28 486.14,226.06C488.22,224.34 491.08,223.41 493.72,222.95C495.19,224.67 498.45,225.16 500.55,224.46C507.68,222.59 514.78,221.86 522.01,223.78C524.84,224.26 527.41,226.04 529.94,223.78C529.88,223.2 529.61,222.68 529.12,222.23Z" style="fill:rgb(204,0,34);fill-rule:nonzero;"/>
                <path d="M577.47,222.39C578.19,222.3 578.89,222.33 579.56,222.48C582.63,225.4 585.51,228.51 588.77,231.23C592.11,235.31 596.59,237.98 600.06,241.95C600.51,242.29 600.68,242.8 600.55,243.51C597.65,244.99 594.32,247.51 591.06,247.78C587.51,245.39 584.34,241.73 581.39,238.62C579.36,236.83 577.1,234.96 575.54,232.64C576.11,229.42 577.07,225.56 577.47,222.39Z" style="fill:rgb(204,0,34);fill-rule:nonzero;"/>
                <path d="M377.15,226.18C380.93,225.25 384.7,226.51 388.09,226.83C389.79,228.58 386.54,230.29 385.67,231.67C382.47,235.85 378.57,239.25 375.56,243.56C373.94,244.98 372.16,248.57 370.06,248.89C369.17,246.53 370.36,243.27 370.52,240.78C370.64,239.93 370.14,238.6 370.92,238.05L371.38,238.75C373.34,234.95 374.5,229.6 377.15,226.18Z" style="fill:rgb(204,0,34);fill-rule:nonzero;"/>
                <path d="M648,225.65C649.42,226.01 649.72,227.78 650.27,228.93C651.24,231.51 652.95,233.9 653.52,236.6C653.82,236.4 654.03,235.87 654.14,235.02C654.9,236.06 654.56,237.77 654.69,239C654.5,242.61 656.5,246.23 655.61,249.64C651.58,246.51 648.78,241.67 644.96,238.04C642.59,234.77 639.62,232.06 637.42,228.67L637.24,227C640.69,226.04 644.44,225.83 648,225.65Z" style="fill:rgb(204,0,34);fill-rule:nonzero;"/>
                <path d="M504.47,231.47C506.85,230.8 509.65,231.22 512.12,231.07C512.25,232.94 509.65,234.31 508.46,235.47C504.11,238.67 500.5,243.13 498.1,247.93C497.77,248.45 497.21,248.66 496.41,248.58C496.41,246.98 497.71,245.6 498.17,244.07C500.22,239.86 502.31,235.62 504.47,231.47Z" style="fill:rgb(200,136,10);fill-rule:nonzero;"/>
                <path d="M512.12,231.07C514.62,230.87 517.3,230.79 519.75,231.33C522.11,234.33 522.96,238.43 525.51,241.45C526.4,243.58 529.14,246.38 528.71,248.7C527.32,249.51 525.56,249.37 524,249.4C517,249.19 510.01,248.79 503,248.92C501.16,248.97 499.74,248.74 498.1,247.93C500.5,243.13 504.11,238.67 508.46,235.47C509.65,234.31 512.25,232.94 512.12,231.07Z" style="fill:rgb(204,0,34);fill-rule:nonzero;"/>
                <path d="M368.72,232.26C368.31,239.65 367.3,247.42 365.59,254.65C361.62,257.41 356.38,258.68 352.01,260.89L351.3,260.73C351.33,259.22 352.87,257.84 353.55,256.54C357.64,249.57 361.64,242.85 365.88,235.97C366.64,234.87 367.41,232.7 368.72,232.26Z" style="fill:rgb(200,136,10);fill-rule:nonzero;"/>
                <path d="M390.41,232.44C391.78,231.17 394.34,233.16 395.94,233.35C401.06,236.12 406.15,238.31 411.55,240.47C411.85,242.44 411.82,246.23 410.85,248.05L409.98,248.24C404.44,244.71 399.38,239.99 393.87,236.28L393.24,236.3C385.63,242.95 378.27,250 371.06,257.1C369.89,260.21 370.9,264.79 371.54,268.05C371.74,272.08 372.94,275.83 372.97,279.89C370.37,278 366.32,276.65 364.55,274.02C365.52,268.68 366.88,263.36 368.33,258.12C369.01,255.97 371.22,254.34 372.56,252.52C378.55,245.83 384.44,239.12 390.41,232.44Z" style="fill:rgb(200,136,10);fill-rule:nonzero;"/>
                <path d="M633.97,231.95C635.45,232.52 636.46,234.31 637.63,235.38C643.18,242.17 649.59,248.18 655.16,254.92C657.53,257.46 657.51,260.71 658.72,264.05C659.69,266.5 659.85,269.07 660.47,271.6C660.74,272.78 661.56,274.5 660.05,275.17C657.36,276.69 654.93,278.59 652.26,280.1C653.26,273.44 654.38,266.75 655.26,260C655.96,256.87 652.34,255.31 650.42,253.55C644.52,248.27 639.09,242.11 632.93,237.07C632.39,236.57 631.88,236.37 631.4,236.46C628.96,237.97 626.75,239.75 624.47,241.48C621.23,243.99 617.97,245.97 615.18,249.04C613.9,246.68 613.71,243.63 613.64,241C615.42,238.8 619.52,238.46 621.97,236.87C625.96,235.31 629.84,232.99 633.97,231.95Z" style="fill:rgb(200,136,10);fill-rule:nonzero;"/>
                <path d="M657.36,232.35C662.51,239.93 666.8,247.77 671.39,255.61C672.14,257 674.36,259.12 673.83,260.76C669.29,259.43 665.06,256.86 660.46,255.48C658.78,253.11 659.32,249.75 658.47,246.95C658.44,242.06 657.07,237.19 657.36,232.35Z" style="fill:rgb(200,136,10);fill-rule:nonzero;"/>
                <path d="M393.24,236.3L393.87,236.28C399.38,239.99 404.44,244.71 409.98,248.24L410.85,248.05C410.01,250.29 409.62,252.71 408.92,255C408.77,258.53 406.37,261.63 404.62,264.62C402.81,267.16 402.32,269.77 399.72,271.69C394.25,275.39 389.85,280.6 384.57,284.55C383.77,285.03 382.79,285.94 381.82,285.35C378.76,283.78 375.73,281.94 372.97,279.89C372.94,275.83 371.74,272.08 371.54,268.05C370.9,264.79 369.89,260.21 371.06,257.1C378.27,250 385.63,242.95 393.24,236.3Z" style="fill:rgb(204,0,34);fill-rule:nonzero;"/>
                <path d="M456.18,237.67C463.1,239.95 470.21,242.4 477.12,244.73C480.87,246.02 483.41,249.08 486.1,251.87C483.45,252.1 480.71,250.51 478.26,249.63C471.63,246.73 464.73,244.62 458.05,241.88C456.53,241.31 454.05,239.67 452.46,240.49C448.69,243.34 445.11,246.48 441.36,249.36C439.56,250.75 438.3,252.35 436.22,253.15C435.94,252.09 436.07,251.24 436.62,250.59C441.18,245.82 446.27,241.6 450.96,236.95C452.35,235.4 454.67,237.18 456.18,237.67Z" style="fill:rgb(200,136,10);fill-rule:nonzero;"/>
                <path d="M572.93,236.31C574.11,236.41 574.61,237.89 575.13,238.76C571.25,239.55 567.81,241.85 564.06,243.11C555.99,246.1 548.08,249.02 540.1,252.28C539.67,252.58 539.25,252.51 538.83,252.07C540.93,249.8 543.4,247.75 545.67,245.66C549.22,244.1 553,243.31 556.49,241.54C560.58,240.9 563.96,238.67 567.99,237.94C569.64,237.58 571.24,236.2 572.93,236.31Z" style="fill:rgb(200,136,10);fill-rule:nonzero;"/>
                <path d="M631.4,236.46C631.88,236.37 632.39,236.57 632.93,237.07C639.09,242.11 644.52,248.27 650.42,253.55C652.34,255.31 655.96,256.87 655.26,260C654.38,266.75 653.26,273.44 652.26,280.1C649.48,281.97 645.39,285.11 642.03,285C636.79,281.22 631.94,277.12 627.17,272.76C624.25,270.83 622.61,267.97 620.84,265.04C618.37,260.2 615.34,254.58 615.18,249.04C617.97,245.97 621.23,243.99 624.47,241.48C626.75,239.75 628.96,237.97 631.4,236.46Z" style="fill:rgb(204,0,34);fill-rule:nonzero;"/>
                <path d="M575.13,238.76C578.97,240.85 582.08,244.72 585.47,247.53C586.7,248.74 589,250.1 589.03,251.99C588.15,256.02 587.29,260.07 586.13,264.03C584.5,269.04 579.93,272.1 576.53,276.53C573.48,279.43 570.99,283.12 567.59,285.56C564.77,285.67 561.8,284.22 559.02,283.7C549.71,281.85 540.49,279.84 531.27,277.6C529.87,277.18 528.85,276.98 528.57,275.34C527.68,269.88 526.14,264 526.42,258.45C528.92,258.14 532.19,259.08 533.94,256.94C535.48,255.19 537.45,253.94 538.83,252.07C539.25,252.51 539.67,252.58 540.1,252.28C548.08,249.02 555.99,246.1 564.06,243.11C567.81,241.85 571.25,239.55 575.13,238.76Z" style="fill:rgb(204,0,34);fill-rule:nonzero;"/>
                <path d="M452.46,240.49C454.05,239.67 456.53,241.31 458.05,241.88C464.73,244.62 471.63,246.73 478.26,249.63C480.71,250.51 483.45,252.1 486.1,251.87C487.87,253.44 489.32,255.31 491.11,256.87C492.85,258.94 496.12,258.2 498.59,258.45C498.98,261.79 498.66,264.78 497.72,267.98C497,270.7 497.38,275.42 495.17,277.32C485.09,279.69 476.89,281.39 466.96,283.66C463.48,284.09 459.95,285.58 456.46,285.52C451.06,279.21 445.15,273.49 439.88,267.08C438.94,265.97 438.53,264.38 438.21,262.98C437.54,259.67 436.39,256.56 436.22,253.15C438.3,252.35 439.56,250.75 441.36,249.36C445.11,246.48 448.69,243.34 452.46,240.49Z" style="fill:rgb(204,0,34);fill-rule:nonzero;"/>
                <path d="M424.35,247.4C426.58,249.53 430.79,250.17 432.34,252.78C434.01,256.73 435,261.79 434.04,265.97C432.57,267.09 430.3,269.47 428.5,269.59C427.13,264.69 426.1,259.87 425.29,254.86C424.29,252.5 423.98,249.94 424.35,247.4Z" style="fill:rgb(204,0,34);fill-rule:nonzero;"/>
                <path d="M600.6,248.38C600.5,252.39 599.29,256.1 598.88,260C598.68,263.04 597.24,265.72 596.56,268.71C594.54,268.8 591.87,266.95 590.44,265.58C589.51,263.27 590.96,260.37 591.23,257.98C591.81,255.36 592.08,252.06 594.87,250.85C596.65,250.02 598.61,248.41 600.6,248.38Z" style="fill:rgb(204,0,34);fill-rule:nonzero;"/>
                <path d="M517.34,258.33C518.94,258.08 521.82,257.41 522.48,259.45C522.8,263.69 523.9,267.74 524.12,272C524.49,274.12 525.96,277.26 523.7,278.73C522.07,279.81 520.31,282.67 518.32,282.7C517.79,280.5 518.06,278.19 517.5,275.95C517.62,270.1 516.99,264.12 517.34,258.33Z" style="fill:rgb(200,136,10);fill-rule:nonzero;"/>
                <path d="M503.34,259.18C504.4,258.29 507.12,258.21 507.37,259.99C507.36,267.24 507.15,274.39 506.57,281.62C504.36,282.24 501.05,278.77 500.16,276.97C500.68,270.91 501.64,265.06 503.34,259.18Z" style="fill:rgb(204,0,34);fill-rule:nonzero;"/>
                <path d="M363.6,260.4C362.87,264.65 362.39,268.66 360.6,272.62C358.28,272.49 355.91,271.03 353.61,270.48C351.45,270.05 349.54,267.36 350.28,265.26C352.72,263.91 355.27,262.52 357.97,261.79C360.08,261.28 361.46,260.03 363.6,260.4Z" style="fill:rgb(204,0,34);fill-rule:nonzero;"/>
                <path d="M609.45,260.34C612.32,260.89 615.01,265.24 616.19,267.8C618.55,268.95 620.95,271.52 622.17,273.83C624.3,274.71 625.39,276.54 627.16,277.88C628.93,278.72 630.28,280.09 632.08,280.93C633.42,284.21 636.54,284.63 638.52,287.46C638.83,289.47 636.27,291.74 635.11,293.15C634.59,294.33 633.37,296.41 632,296.59C628.23,295.5 626.18,292.84 622.93,291.07C622.19,289.79 621.6,288.62 620.55,287.54C620.4,285.65 619.78,284.87 618.56,283.54C618.43,281.64 617.78,280.86 616.56,279.54C616.25,277.21 615.1,275.28 613.61,273.51C612.55,271.54 611.59,269.5 610.55,267.51C609.97,264.93 611.14,262.65 609.45,260.34Z" style="fill:rgb(204,0,34);fill-rule:nonzero;"/>
                <path d="M665.16,260.69C668.71,262.2 672.26,263.43 675.59,265.42C675.17,266.88 674.46,268.3 673.55,269.51C671.05,270.96 668.03,271.62 665.3,272.56C662.91,269.7 662.72,264.63 662.12,261.04C661.79,259.6 664.44,260.48 665.16,260.69Z" style="fill:rgb(204,0,34);fill-rule:nonzero;"/>
                <path d="M413.72,264.34C413.75,266.41 413.73,268.51 413.5,270.57C412.19,271.88 411.64,272.63 411.45,274.55C407.88,279.12 406.1,285.12 403.05,290.05C401.07,292.39 398.27,293.68 395.97,295.73C392.82,298.09 391.92,294.66 390.45,292.56C388.34,291.57 387,289.83 387.45,287.41C391.3,282.99 395.55,279.57 400.41,276.4C403.51,272.97 407.79,270.04 409.94,265.93C410.98,265.11 412.53,265.19 413.72,264.34Z" style="fill:rgb(204,0,34);fill-rule:nonzero;"/>
                <path d="M436.4,269.53L436.62,269.49C439.34,272.5 442.78,274.9 444.57,278.43C447.79,281.73 451.01,284.52 453.51,288.43C454.29,291.36 452.23,292.72 452.57,295.63C450.85,294.16 449.71,292.38 447.59,291.41C447.26,290.75 446.87,290.13 446.42,289.56C441.95,285.04 437.41,280.58 432.97,276.04C432.31,275.09 431.35,273.73 431.43,272.54C433.23,271.68 434.99,271 436.4,269.53Z" style="fill:rgb(204,0,34);fill-rule:nonzero;"/>
                <path d="M587.99,269.41C590.38,270.17 592.4,272.08 594.58,273.35C592.09,276.37 588.65,279.13 586.13,282.17C585.77,283.12 585.11,283.78 584.16,284.16C583.18,286.19 582.21,287.23 580.12,288.13C579.81,288.8 579.46,289.45 579.07,290.07C576.21,291.28 574.71,293.71 572.4,295.64C572.36,294.1 572.41,292.54 572.25,291.01C571.62,289.8 571.13,288.84 571.48,287.44C574.07,284.71 576.8,282.1 579.43,279.42C581.09,277.93 581.62,275.85 583.42,274.42C584.37,272.82 586.09,269.9 587.99,269.41Z" style="fill:rgb(204,0,34);fill-rule:nonzero;"/>
                <path d="M420.53,270.45L421.5,270.44C421.79,273.98 422.7,277.38 423.32,280.87C425.21,286.5 428.49,291.7 430.7,297.21C432.88,302.11 436.38,307.53 437.6,312.57C435.48,312.87 432.61,313.17 430.59,312.44C426.68,305.39 423.81,297.05 419.43,290.4C416.42,296.61 412.92,302.13 406.89,305.81C404.51,307.14 407.03,310.47 406.64,312.63C404.99,313.05 401.16,312.98 399.51,312.57C399.16,309.56 397.62,306.46 397.45,303.48C401.74,300.71 407.54,297.68 409.89,292.97C413.39,286.93 416.44,280.75 419.5,274.48C420.15,273.2 420.3,271.84 420.53,270.45Z" style="fill:white;fill-rule:nonzero;"/>
                <path d="M604.19,270.25L604.7,270.24C607.59,278.31 611.72,285.65 615.75,293.17C618.3,297.55 623.54,300.45 627.61,303.37C628.11,306.08 626.75,310.09 625.69,312.7C623.85,313.03 621.11,313.06 619.27,312.72C618.49,310.65 620.74,308.26 619.51,306.47C616.58,304.38 613.7,302.42 611.49,299.5C609.35,296.98 608.11,293.03 606,290.75L605.32,291.19C602.22,298.33 597.94,305.19 595.48,312.55C593.14,313 590.57,312.89 588.2,312.75C587.69,311.62 588.63,310.11 589.01,309.02C593.18,300.45 597.19,291.76 601.32,283.15C602.52,279.04 602.41,274.29 604.19,270.25Z" style="fill:white;fill-rule:nonzero;"/>
                <path d="M355.31,278.16C355.99,277.84 356.76,277.92 357.62,278.42C364.34,282.7 371.34,286.58 378.03,290.87C379.41,292.12 382.91,293.8 382.02,296.05C376.45,294.18 370.76,293.25 365.01,292.13C364.02,291.89 363.1,291.93 362.27,292.23C361.78,299.04 365.44,306.24 367.17,312.78C366.13,313 365.17,312.96 364.28,312.66C362.51,310.18 360.86,307.38 359.35,304.72C358.35,301.27 358.97,297.51 357.88,293.99C356.49,288.76 356.26,283.46 355.31,278.16Z" style="fill:rgb(200,136,10);fill-rule:nonzero;"/>
                <path d="M668.99,277.96L669.88,278.1C670.27,281.52 669.13,285.46 668.62,288.87C667.78,292.89 667.89,297 666.94,301C666.9,305.61 663.89,308.03 662.02,312C661.53,313.44 659.12,312.78 657.99,312.76C659.83,308.31 661.14,303.72 662.34,299.05C662.88,296.9 663.36,294.34 662.83,292.17C660.12,291.56 656.71,293.2 653.95,293.57C650.23,293.95 646.79,295.2 643.2,296.12C642.1,293.55 646.21,292.06 647.73,290.71C654.75,286.4 661.86,282.06 668.99,277.96Z" style="fill:rgb(200,136,10);fill-rule:nonzero;"/>
                <path d="M351.54,279.35C351.48,282.69 352.82,285.67 352.87,289.01C353.85,292.13 353.51,295.33 354.44,298.45C355.17,301.46 354.59,305.06 356.55,307.51C357.77,309.1 358.87,310.71 359.58,312.6C354.12,313.11 348.52,312.87 343.04,312.67C341.6,312.48 341.32,311.29 341.3,310.02C341.04,307.29 339.75,304.81 339.53,302.04C338.74,299.37 341.19,296.56 342.24,294.16C345.49,289.42 347.88,283.72 351.54,279.35Z" style="fill:rgb(204,0,34);fill-rule:nonzero;"/>
                <path d="M674.44,279.37L674.56,279.55C676.83,282.47 678.06,285.92 680.19,288.92C682.34,292.99 684.93,296.55 686.27,301C685.52,304.61 684.64,308.25 683.65,311.81C682.79,313.09 680.34,312.61 679,312.76C674.82,312.61 670.5,313.26 666.38,312.55C666.7,309.54 670.1,307.27 670.38,304.04C671.95,296 672.09,287.3 674.44,279.37Z" style="fill:rgb(204,0,34);fill-rule:nonzero;"/>
                <path d="M496.58,280.55C498.43,281.4 499.41,281.86 500.14,283.87C500.64,284.1 501.13,284.33 501.63,284.56C498.99,284.36 497.55,286.72 495.02,286.64C493.51,286.6 492.6,287.78 491.02,287.62C488.39,288.01 485.79,289.78 483.01,289.72C481.4,290.81 479.83,290.55 478,290.7C476.41,291.82 474.84,291.55 473.01,291.73C469.5,293.47 464.84,294.09 461.16,295.14C459.95,295.87 458.76,295.6 457.4,295.61C457.3,293.32 457.14,291.45 458.52,289.47C460.28,289.51 461.46,288.94 463.05,288.44C466.01,288.61 468.28,287.21 471.05,286.45C474.03,286.64 476.27,285.2 479.05,284.44C482.07,284.67 483.9,282.94 486.99,283.23C488.59,282.17 490.17,282.43 491.99,282.25C493.47,281.4 495.06,281.35 496.58,280.55Z" style="fill:rgb(204,0,34);fill-rule:nonzero;"/>
                <path d="M527.98,281.38C530.17,281.43 532.08,280.98 534.01,282.27C535.82,282.44 537.41,282.18 539.01,283.24C540.52,283.37 541.7,283.42 543.01,284.27C545.91,284.15 548.4,285.12 551.01,286.27C553.69,286.13 555.71,287.01 558.16,287.87C559.59,288.81 561.7,287.94 563.16,288.85C564.77,289.94 566.37,288.6 567.54,290.4C567.69,292.46 567.64,294.55 567.56,296.61C566.2,296.66 565.37,295.49 563.98,295.62C561.24,295.51 558.74,293.44 555.98,293.6C554.07,293.75 552.87,292.41 551,291.72C548.33,291.84 546.83,290.19 544.05,290.55C542.37,289.93 540.59,289.54 538.99,288.71C537.16,288.54 535.6,288.82 533.99,287.71C530.08,287.82 526.98,284.97 523.37,284.55C524.76,283.35 525.93,280.99 527.98,281.38Z" style="fill:rgb(204,0,34);fill-rule:nonzero;"/>
                <path d="M435.56,289.46C439.34,293 442.95,296.73 446.76,300.25C448.19,301.83 450.28,303.07 451.17,305C449.4,307.38 448.44,310.09 447.09,312.7L445.57,312.41C442.01,304.76 438.36,297.07 434.42,289.59C434.5,289.29 434.88,289.25 435.56,289.46Z" style="fill:rgb(200,136,10);fill-rule:nonzero;"/>
                <path d="M589.38,289.37L590.44,289.32L590.6,289.59C586.29,296.93 583.21,304.9 579.5,312.55L577.98,312.67C576.6,310.2 575.72,307.47 574.28,305.01C574.07,303.57 575.08,302.92 576,302.06C580.67,298.07 585.01,293.68 589.38,289.37Z" style="fill:rgb(200,136,10);fill-rule:nonzero;"/>
                <path d="M362.27,292.23C363.1,291.93 364.02,291.89 365.01,292.13C370.76,293.25 376.45,294.18 382.02,296.05C382.92,301.45 381.1,307.01 381.56,312.54C376.84,313.21 371.93,312.89 367.17,312.78C365.44,306.24 361.78,299.04 362.27,292.23Z" style="fill:rgb(204,0,34);fill-rule:nonzero;"/>
                <path d="M507.57,292.37L507.81,293.88C505.21,293.49 502.52,295.35 500.12,296.21C492.05,298.8 484.37,302.61 476.37,305.43C474.68,306.33 472.36,306.68 470.97,307.98C469.29,307.95 467.93,306.2 466.36,305.61C465.17,304.9 462.92,304.75 462.38,303.36C472.93,300.03 484.23,297.58 495,294.92C499.21,294.41 503.36,292.52 507.57,292.37Z" style="fill:rgb(200,136,10);fill-rule:nonzero;"/>
                <path d="M517.37,292.4C519.46,292.23 521.6,293.08 523.65,293.45C533.85,295.62 543.84,298.51 554.03,300.85C556.83,302.04 559.97,301.99 562.63,303.43C560.98,305.19 558.01,305.86 555.96,307.25C553.71,307.63 551.07,305.94 548.94,305.23C540.77,302.66 533.05,298.85 524.88,296.23C523,295.7 521.01,294.01 519.05,294.19C517.64,294.16 517.08,293.57 517.37,292.4Z" style="fill:rgb(200,136,10);fill-rule:nonzero;"/>
                <path d="M662.83,292.17C663.36,294.34 662.88,296.9 662.34,299.05C661.14,303.72 659.83,308.31 657.99,312.76C653.5,313.03 648.88,312.87 644.4,312.59C643.49,309.6 644.31,306.65 643.46,303.64C642.7,301.08 642.89,298.72 643.2,296.12C646.79,295.2 650.23,293.95 653.95,293.57C656.71,293.2 660.12,291.56 662.83,292.17Z" style="fill:rgb(204,0,34);fill-rule:nonzero;"/>
                <path d="M507.81,293.88C508.87,299.24 508.72,306.18 507.5,311.51C505.46,312.96 503.37,312.68 501,312.75C491.17,312.77 481.24,313.05 471.43,312.57C471.16,311.05 471.11,309.52 470.97,307.98C472.36,306.68 474.68,306.33 476.37,305.43C484.37,302.61 492.05,298.8 500.12,296.21C502.52,295.35 505.21,293.49 507.81,293.88Z" style="fill:rgb(204,0,34);fill-rule:nonzero;"/>
                <path d="M519.05,294.19C521.01,294.01 523,295.7 524.88,296.23C533.05,298.85 540.77,302.66 548.94,305.23C551.07,305.94 553.71,307.63 555.96,307.25C554.48,308.78 554.15,310.62 553.5,312.56C542.15,313.01 530.42,312.89 519.04,312.58C517.3,312.63 517.14,310.24 516.85,309C516.4,304.71 516.61,300.31 516.63,296L517.08,295.12C517.73,294.8 518.39,294.49 519.05,294.19Z" style="fill:rgb(204,0,34);fill-rule:nonzero;"/>
                <path d="M451.17,305C452.32,307.24 453.82,310.01 453.6,312.59C451.38,313.07 449.34,312.57 447.09,312.7C448.44,310.09 449.4,307.38 451.17,305Z" style="fill:rgb(204,0,34);fill-rule:nonzero;"/>
                <path d="M574.28,305.01C575.72,307.47 576.6,310.2 577.98,312.67C575.78,312.56 573.59,312.65 571.39,312.59C571.29,309.58 572.56,307.32 574.28,305.01Z" style="fill:rgb(204,0,34);fill-rule:nonzero;"/>
                <path d="M459.15,306.14L459.97,306.12C462.17,307.59 467.01,309.04 467.37,311.98C466.83,313.59 462.54,312.83 461.12,312.72C460.29,310.87 458.8,308.12 459.15,306.14Z" style="fill:rgb(200,136,10);fill-rule:nonzero;"/>
                <path d="M565.65,306.3C565.67,308.45 565.17,313.48 562.01,312.93C560.66,312.69 557.22,313.51 558.04,311.04C559.31,308.53 563.06,306.87 565.65,306.3Z" style="fill:rgb(204,0,34);fill-rule:nonzero;"/>
            </g>
        </g>
    </g>
</svg>
