<?xml version="1.0" encoding="UTF-8" standalone="no"?>
<!DOCTYPE svg PUBLIC "-//W3C//DTD SVG 1.1//EN" "http://www.w3.org/Graphics/SVG/1.1/DTD/svg11.dtd">
<svg width="100%" height="100%" viewBox="0 0 512 512" version="1.1" xmlns="http://www.w3.org/2000/svg" xmlns:xlink="http://www.w3.org/1999/xlink" xml:space="preserve" xmlns:serif="http://www.serif.com/" style="fill-rule:evenodd;clip-rule:evenodd;stroke-linejoin:round;stroke-miterlimit:2;">
    <g transform="matrix(1,0,0,1,-0.404239,-0.882467)">
        <g transform="matrix(1,0,0,1,-4845,-9957)">
            <g id="Eagle-2" serif:id="Eagle 2" transform="matrix(1,0,0,1,1246.404239,9957.882467)">
                <rect x="3599" y="0" width="512" height="512" style="fill:none;"/>
                <g transform="matrix(1,0,0,1,3598.595761,-0.882467)">
                    <path d="M135,131L190,99L256.5,78L309,93L355,117L400,148L423,176L419,194L435,241L445,279.648L450,314L420,330L384,363L354,385L332,388L274,428L251.95,457L220,392L168,385L140,368L91,328L61,315L76,234.274L93,189L90,176L135,131Z" style="fill:rgb(200,136,10);"/>
                </g>
                <g transform="matrix(1,0,0,1,3598.595761,-0.882467)">
                    <path d="M256.404,216.525L246,248.566L246,267.5L243,318L244,380L249,426L255.5,434L279.121,415L280.309,367L281.497,354L293,337L303,322L322,311L342,307L353,311L357,321L367,322L373,300L350,286L325,275L313.026,252.882L350.86,239.031L365.603,218.525L352,195.977L293.885,237.509L256.404,216.525Z" style="fill:white;"/>
                </g>
                <g transform="matrix(0.270346,0,0,0.270346,3577.545187,1.213785)">
                    <path d="M1472.8,428.823C1420.78,360.743 1353.82,301.511 1289.46,245.38C1285.42,241.852 1250.74,213.856 1250.69,213.422C1258.74,217.128 1268.24,224.267 1276.17,229.3L1330.24,263.654C1472.26,354.935 1604.13,453.289 1718.14,578.823C1684.79,558.116 1635.23,538.294 1596.78,531.128C1655.61,588.958 1704.02,657.102 1743.58,729.062C1749.73,740.243 1754.95,751.811 1760.96,762.924C1734.41,748.884 1699.21,728.21 1669.92,724.096C1705.31,788.797 1724.51,847.005 1742.29,917.884C1750.19,908.159 1757.3,897.483 1765.42,888.104C1789.75,859.972 1813.54,830.829 1838.38,803.203C1869.58,768.519 1904.08,736.441 1934.98,701.517L1936.36,703.44C1888.02,769.901 1847.49,844.341 1809.2,916.992C1794.54,944.809 1767.75,993.191 1757.35,1021.95C1761.94,1017.59 1766.57,1013.26 1771.11,1008.86C1811.17,970.032 1854.89,934.867 1898.6,900.182L1911.25,888.918L1899.88,903.419C1841.56,990.934 1788.8,1085.64 1753.34,1184.87C1731.27,1192.14 1704.22,1202.25 1685.74,1216.11C1727.34,1213.99 1766.31,1204.9 1810.9,1204.88C1828.26,1206.08 1848.85,1203.98 1866.32,1205.5C1718.62,1254.22 1548.52,1337.13 1431.67,1441.69C1445.61,1436.49 1458.9,1430.58 1472.77,1425.23C1500.53,1414.72 1528.45,1404.63 1556.51,1394.95C1598.31,1380.78 1645.07,1368.57 1687.88,1357.68L1688.03,1359C1669.85,1366.28 1634.89,1386.63 1616.32,1396.83C1495.74,1462.42 1381.37,1538.83 1274.61,1625.11C1254.45,1641.27 1234.93,1657.32 1215.69,1674.58C1206.67,1682.68 1194.11,1692.48 1185.91,1700.95L1182.31,1704.37L1181.59,1703.69L1183.7,1698.78C1190.16,1684.68 1206.6,1656.78 1214.78,1642.95C1235.14,1608.47 1256.57,1574.62 1279.04,1541.47C1295.1,1518.21 1312.66,1495.52 1328.55,1472.25C1301.03,1484.5 1281.93,1495.53 1257.09,1512.35C1137.34,1593.42 1053.8,1697.31 1024.3,1839.88C992.412,1672.9 869.667,1544.52 720.29,1471.33C737.621,1499.02 761.726,1528.24 780.349,1557.11C812.452,1606.87 840.284,1655.95 868.935,1707.73C843.607,1680.81 800.975,1645.77 771.866,1622.5C694.726,1561.15 613.726,1504.82 529.366,1453.85C478.079,1422.23 421.509,1388.83 367.565,1362.31C361.5,1359.46 357.314,1357.23 351.512,1353.87L366.849,1358.69C436.493,1376.5 505.079,1398.23 572.28,1423.76C588.121,1429.76 603.332,1437.26 619.331,1443.56L618.516,1442.78C612.116,1436.68 606.161,1431.84 599.299,1426.28C499.992,1345.81 386.858,1284.72 268.956,1236.21C239.846,1224.24 211.102,1213.94 180.97,1205.37C186.907,1204.99 192.181,1205.06 198.11,1204.16C242.256,1203.47 323.95,1208.92 367.239,1217.98C339.485,1201.61 325.461,1195.92 295.971,1183.97C284.783,1159.44 275.989,1132.58 264.372,1106.94C231.718,1034.88 192.484,965.998 147.169,901.154L148.076,898.336C157.797,904.958 167.767,913.587 176.658,921.306C207.693,948.25 240.805,972.798 270.207,1001.6C277.494,1008.74 283.838,1015.07 292.02,1021.19C243.039,913.706 185.682,810.242 120.477,711.754L116.228,706.014L118.666,705.229L120.451,707.358C179.488,772.388 242.998,832.539 295.717,903.096C298.83,907.263 302.901,911.496 306.234,915.708C309.29,907.916 311.488,896.961 313.874,888.719C317.709,872.059 323.817,855.903 328.524,839.594C340.537,797.97 361.38,762.582 378.514,723.567C354.63,730.072 308.902,748.156 289.137,763.469C309.959,715.289 342.003,666.959 372.223,624.13C395.909,590.562 425.356,560.344 452.95,529.984C412.193,539.637 377.298,553.561 340.215,573.273L338.372,571.983C470.959,428.494 621.061,322.603 786.638,220.379L788.066,222.113C727.628,270.075 671.09,322.756 618.983,379.659C602.246,398.072 588.503,416.262 572.64,434.407C610.441,411.628 640.475,390.378 680.885,369.566C719.265,349.83 758.495,331.793 798.462,315.507C847.761,295.155 899.889,277.785 950.829,262.032C970.218,256.036 1015.93,240.344 1034.19,244.98C1153.33,275.221 1270.74,318.529 1379.79,375.412C1398.7,385.29 1418.5,397.889 1436.94,408.769C1446.5,414.415 1460.95,426.196 1469.81,430.837C1476.5,435.591 1479.17,436.926 1472.8,428.823ZM1134.51,535.643C1084.12,581.473 1042.21,668.204 1046.31,736.939C1057.7,720.338 1074.22,696.466 1087.43,681.669C1113.98,651.917 1154.71,619.45 1189.91,600.251L1190.87,603.383C1156.26,636.8 1133.46,686.688 1119.11,732.017C1114.11,730.614 1113.13,752.196 1112.35,755.588C1110.79,762.464 1109.26,780.357 1111.31,786.688L1111.85,788.424C1112.92,791.744 1112.47,791.503 1114.87,793.163C1126.28,826.324 1153.63,855.063 1191.96,841.772C1219.23,832.314 1234.02,816.683 1254.5,797.778C1273.43,780.015 1292.64,762.547 1312.11,745.381C1340.46,720.847 1371.73,698.594 1404.73,680.679C1433.41,665.111 1446.56,661.421 1476.69,676.92C1515.43,696.85 1540.58,722.583 1562.66,760.003C1534.07,740.607 1498.93,733.381 1465,739.917C1462.57,740.401 1460.15,740.939 1457.74,741.53C1463.82,801.191 1461.87,853.733 1421.52,902.891C1398.91,930.895 1365.87,948.479 1330.01,951.588C1304.84,953.794 1286.22,950.053 1262.94,941.443C1283.18,977.387 1315.41,997.292 1354.39,1008.65C1409.21,1024.63 1454.14,1010.16 1502.1,982.727C1517.93,973.679 1531.62,963.327 1546.78,953.828C1547.07,965.688 1550.43,980.075 1552.44,991.914C1558.95,1030.17 1567.78,1065.43 1579.91,1102.26C1494.8,1162.49 1422.36,1266.11 1385.62,1362.82C1383.84,1366.86 1382.24,1370.83 1380.51,1374.88C1383.37,1371.01 1386.13,1366.99 1389.01,1363.17C1456.69,1274.39 1586.22,1162.49 1700.77,1145.91C1699.71,1123.55 1694.5,1094.2 1690.44,1072.18C1678.47,1004.01 1660.02,937.148 1635.34,872.492C1629.76,858.032 1623.17,840.724 1615.71,827.115C1623,829.521 1636.63,835.31 1643.5,838.669C1631.29,789.717 1590.88,732.465 1559.73,693.688C1551.26,683.148 1540.75,672.716 1532.59,662.006L1531.96,661.169C1552.39,655.193 1574.29,647.81 1594.36,642.253C1588.41,632.067 1565.68,609.921 1556.54,600.381C1474.31,514.331 1374.49,447.034 1263.88,403.083C1245.57,395.71 1210.47,382.104 1191.44,378.06C1189.44,378.978 1187.47,379.961 1185.53,381.006C1165.99,391.572 1145.9,405.658 1128.55,419.495C1045.61,485.605 993.526,570.358 964.047,671.085C974.59,659.678 983.768,643.231 995.114,631.222C1006.68,618.976 1019.24,605.835 1032.18,595.063C1055.29,575.824 1106.55,542.405 1134.51,535.643ZM694.867,1068.62C663.339,1091.66 634.895,1123.22 634.959,1164.49C649.023,1135.18 681.632,1113.28 714.353,1113.69C775.564,1114.46 835.277,1155.85 877.431,1196.94C879.94,1138.71 900.965,1069.51 932.09,1020.22C939.581,1008.35 954.983,990.079 964.338,980.231C925.001,989.081 909.344,999.052 885.958,1030.97L883.983,1029.99C901.769,989.203 931.431,941.294 957.734,905.583C970.621,888.087 987.97,870.246 1000.8,852.898C926.536,871.116 864.909,953.613 839.488,1021.94C836.003,1031.3 833.544,1041.28 829.99,1050.44C815.288,1047.21 800.507,1045.57 785.563,1043.97C749.625,1043.92 725.763,1048.86 694.867,1068.62ZM456.976,642.699C482.335,650.409 502.342,655.243 528.165,661.142C487.114,701.622 452.766,744.755 426.73,796.503C420.733,808.424 413.157,824.375 411.236,837.518C421.973,833.832 433.428,829.572 444.421,827C417.653,881.056 395.222,933.645 380.217,992.107C378.521,998.718 376.058,1008.72 373.503,1014.81C371.468,1024.81 369.614,1033.56 366.954,1043.47C366.553,1049.37 358.811,1082.39 357.103,1091.04C353.726,1108.13 351.582,1127.73 348.289,1144.17C359.258,1148.47 372.921,1150.38 384.49,1154.26C485.178,1188.11 572.939,1259.2 640.64,1339.74C650.353,1351.29 660.889,1363.54 669.206,1376.09C636.365,1279.11 563.49,1173.24 482.643,1110.69C518.861,1094.16 545.756,1082.84 585.994,1076.9C562.272,1018.89 512.159,969.889 456.342,942.181C464.866,904.748 498.668,852.385 519.073,819.583C531.394,799.777 553.859,775.839 570.702,759.606C577.031,753.506 583.146,749.162 589.03,742.083C552.523,733.903 528.016,743.291 495.521,759.715C512.563,726.603 567.83,662.031 609.884,666.07C662.82,671.154 716.416,728.415 754.96,761.492C769.861,774.28 785.448,787.223 799.88,800.621C817.223,815.171 838.607,839.462 861.941,843.74C906.131,851.843 934.849,809.276 940.258,770.809C941.526,761.792 941.3,743.161 935.949,736.11C935.351,736.678 934.123,772.733 917.98,777.654C891.029,785.868 885.178,766.905 869.359,754.943C785.691,691.672 703.646,633.283 604.637,596.207C672.922,520.422 767.381,452.42 852.973,397.885C879.322,381.096 910.416,365.822 935.565,348.762C899.356,360.121 867.413,369.482 831.286,383.207C715.118,426.653 608.787,492.841 518.521,577.896C495.818,599.539 477.928,620.277 456.976,642.699ZM1354.85,741.258C1351.03,743.898 1338.51,755.367 1338.98,757.539C1341.93,771.23 1345.09,783.847 1341.73,798.009C1340.27,804.183 1339.01,805.858 1337.34,812.023C1335.68,818.209 1329.42,822.115 1329.32,828.778C1327.19,832.074 1322.55,835.996 1319.65,838.743C1299.41,857.908 1266.33,863.207 1241.05,850.582C1256.8,880.025 1287.66,896.343 1319.93,888.953C1391.66,872.525 1419.35,786.043 1354.85,741.258ZM1123.28,1325.34C1131.58,1316.26 1142.45,1301.72 1151.31,1294.91C1203.94,1245.18 1259.69,1202.44 1328.45,1177.29C1344.7,1171.34 1363.77,1165.13 1380.9,1162.95C1361.25,1152.2 1346.07,1144.68 1322.62,1145.48C1279.95,1148.31 1240.73,1173.56 1208.51,1199.93C1205.23,1202.61 1202.27,1198.4 1200.69,1196.32C1199.57,1196.81 1128.6,1314.02 1123.28,1325.34ZM903.215,1303.29C910.449,1311.39 917.843,1320.01 925.163,1327.97C903.379,1285.71 879.548,1247.98 856.253,1206.65L855.171,1206.81L854.331,1211.16C820.362,1179.14 772.671,1144.49 723.569,1147.42C702.091,1149.06 693.244,1152.93 673.905,1161.95C743.902,1178.63 795.094,1209.31 850.551,1254.46C867.494,1268.25 888.984,1286.62 903.215,1303.29ZM1011.04,1000.51C1011.27,1018.99 1010.89,1037.47 1009.92,1055.92C1008.1,1056.18 1008.96,1056.2 1007.34,1055.89C1006.27,1057.9 1006.35,1078.73 1006.21,1083.07C1002.7,1192.7 1004.01,1302.4 1009.85,1411.88C1010.26,1419.73 1011.97,1427.62 1013.15,1435.4C1014.79,1446.29 1011.17,1488.92 1018,1495.56C1017.98,1509.65 1019.59,1538.8 1021.78,1552.28C1033.35,1518.4 1041.18,1480.63 1053.29,1446.04C1090.74,1339.11 1145.17,1203.24 1247.01,1143.3C1278.09,1125 1320.47,1106.16 1356.41,1116.46C1383.61,1124.25 1406.18,1144.38 1419.97,1168.54C1420.44,1109.64 1374.8,1062.77 1319.48,1048.51C1285.06,1039.64 1254.63,1044.03 1220.54,1050.91C1212.36,1010.48 1194.95,973.395 1171.55,939.638C1147.22,904.669 1113.21,877.564 1073.69,861.646C1055.02,853.939 1038.11,846.001 1020,858.814C1015.94,859.166 1012.32,867.14 1012.49,870.061C1013.73,892.084 1012.34,914.602 1010.81,936.009C1010.14,945.459 1008.85,995.816 1011.04,1000.51Z" style="fill:rgb(143,0,24);fill-rule:nonzero;"/>
                </g>
                <g transform="matrix(0.270346,0,0,0.270346,3577.545187,1.213785)">
                    <path d="M1089.78,964.552C1105.84,965.429 1121.61,968.036 1136.99,972.814C1155.82,1002.64 1164.23,1032.44 1176.97,1064.57C1148.24,1023.89 1134.52,995.923 1090.4,968.059L1089.78,964.552Z" style="fill:rgb(143,0,24);fill-rule:nonzero;"/>
                </g>
                <g transform="matrix(0.270346,0,0,0.270346,3577.545187,1.213785)">
                    <path d="M1090.4,968.059C1089.22,967.582 1083.33,965.62 1082.94,964.587C1083.89,963.492 1088.54,964.39 1089.78,964.552L1090.4,968.059Z" style="fill:rgb(143,0,24);fill-opacity:0.93;fill-rule:nonzero;"/>
                </g>
                <g transform="matrix(0.270346,0,0,0.270346,3577.545187,1.213785)">
                    <path d="M708.832,744.897C714.048,748.118 753.963,790.457 760.169,796.939C779.238,816.855 800.555,838.477 819.516,858.67C806.185,884.248 790.256,900.043 762.269,909.031C747.213,913.144 726.917,912.424 712.179,907.178C690.77,899.398 673.31,883.46 663.616,862.846C653.438,841.567 652.319,817.071 660.514,794.952C669.259,770.995 686.125,755.442 708.832,744.897Z" style="fill:white;fill-rule:nonzero;"/>
                </g>
                <g transform="matrix(0.270346,0,0,0.270346,3577.545187,1.213785)">
                    <path d="M1018,1495.56C1011.17,1488.92 1014.79,1446.29 1013.15,1435.4C1011.97,1427.62 1010.26,1419.73 1009.85,1411.88C1004.01,1302.4 1002.7,1192.7 1006.21,1083.07C1006.35,1078.73 1006.27,1057.9 1007.34,1055.89C1008.96,1056.2 1008.1,1056.18 1009.92,1055.92C1009.33,1089.33 1007.98,1122.78 1007.41,1156.21C1005.78,1250.87 1009.29,1345.65 1014.9,1440.12C1016,1458.65 1016.08,1477.06 1018,1495.56Z" style="fill:rgb(143,0,24);fill-opacity:0.93;fill-rule:nonzero;"/>
                </g>
                <g transform="matrix(0.270346,0,0,0.270346,3577.545187,1.213785)">
                    <path d="M1011.04,1000.51C1008.85,995.816 1010.14,945.459 1010.81,936.009C1012.34,914.602 1013.73,892.084 1012.49,870.061C1012.32,867.14 1015.94,859.166 1020,858.814C1019.4,860.226 1018.82,861.641 1018.19,863.041C1012.54,875.633 1014.19,976.162 1011.04,1000.51Z" style="fill:rgb(143,0,24);fill-opacity:0.94;fill-rule:nonzero;"/>
                </g>
                <g transform="matrix(0.270346,0,0,0.270346,3577.545187,1.213785)">
                    <path d="M1329.32,828.778C1329.42,822.115 1335.68,818.209 1337.34,812.023C1339.01,805.858 1340.27,804.183 1341.73,798.009C1345.09,783.847 1341.93,771.23 1338.98,757.539C1338.51,755.367 1338.29,752.144 1341.08,752.95C1341.12,754.677 1343.48,765.898 1344.12,767.996C1349.76,786.353 1343.03,815.058 1329.32,828.778Z" style="fill:rgb(143,0,24);fill-opacity:0.93;fill-rule:nonzero;"/>
                </g>
                <g transform="matrix(0.270346,0,0,0.270346,3577.545187,1.213785)">
                    <path d="M1114.87,793.163C1112.47,791.503 1112.92,791.744 1111.85,788.424L1111.31,786.688C1109.26,780.357 1110.79,762.464 1112.35,755.588C1113.13,752.196 1114.11,730.614 1119.11,732.017C1119.02,735.568 1115.16,751.358 1114.4,757.007C1112.23,773.274 1112.71,777.295 1114.87,793.163Z" style="fill:rgb(143,0,24);fill-opacity:0.94;fill-rule:nonzero;"/>
                </g>
                <g transform="matrix(0.270346,0,0,0.270346,3577.545187,1.213785)">
                    <path d="M1189.91,600.251C1191.91,598.61 1198.48,595.159 1201.04,593.744C1197.72,597.034 1194.33,600.248 1190.87,603.383L1189.91,600.251Z" style="fill:rgb(143,0,24);fill-opacity:0.93;fill-rule:nonzero;"/>
                </g>
                <g transform="matrix(0.270346,0,0,0.270346,3577.545187,1.213785)">
                    <path d="M786.638,220.379C795.997,212.8 800.378,212.538 788.066,222.113L786.638,220.379Z" style="fill:rgb(143,0,24);fill-opacity:0.95;fill-rule:nonzero;"/>
                </g>
            </g>
        </g>
    </g>
</svg>
