<?xml version="1.0" encoding="UTF-8" standalone="no"?>
<!DOCTYPE svg PUBLIC "-//W3C//DTD SVG 1.1//EN" "http://www.w3.org/Graphics/SVG/1.1/DTD/svg11.dtd">
<svg width="100%" height="100%" viewBox="0 0 847 984" version="1.1" xmlns="http://www.w3.org/2000/svg" xmlns:xlink="http://www.w3.org/1999/xlink" xml:space="preserve" xmlns:serif="http://www.serif.com/" style="fill-rule:evenodd;clip-rule:evenodd;stroke-linejoin:round;stroke-miterlimit:2;">
    <g transform="matrix(1,0,0,1,-87.60416,-13.67)">
        <g>
            <path d="M512.03,13.67C514.8,24.07 520.21,33.56 527.95,41.05C534.06,47.51 541.27,52.78 549.17,56.86C554.36,59.5 559.66,60.82 565.07,62.81C582.76,69.24 600.51,75.48 618.25,81.77C702.52,111.62 786.3,141.44 870.5,171.46C876.14,173.6 882.06,173.79 887.99,173.06C898.78,171.64 907.88,166.03 915.61,158.63C920.92,153.39 924.64,146.08 928.22,139.57C929.64,151.13 931.32,162.64 932.18,174.27C929.27,182.23 932.43,188.64 932.05,197C931.9,211.67 932.12,226.34 931.91,241C931.87,243.59 932.47,246.04 933.12,248.52C933.23,253.69 932.53,258.82 932.58,264C932.66,273.04 931.57,281.97 931.44,291C929.48,327.17 925.61,363.3 920.09,399.1C913.99,439.44 905.69,479.52 894.73,518.83C886.77,549.02 876.84,578.6 865.74,607.77C862.07,616.7 858.53,625.67 854.72,634.53C849.42,647.98 843,660.81 836.87,673.88C822.65,703.18 806.36,731.34 788.72,758.7C771.75,784.37 753.92,809.34 733.8,832.66C731.21,828.86 729.23,824.1 724.86,822.07C720.48,819.7 715.64,820.08 710.84,820.56C699.25,822.21 686.89,825.2 675.18,823.98C672.16,816.5 668.26,809.52 664.76,802.29C657.61,785.1 651.15,767.6 645,750.04C641.87,739.96 638.43,729.99 635.04,720C633.56,715.14 631.54,711.15 633.2,706.01C635.79,697.4 638.63,688.86 641.31,680.28C649.83,654.08 650.55,625.96 644.76,599.11C643.57,594.01 641.66,589.18 641.02,583.94C646.53,587.95 650.4,593.21 654.28,598.71C657.14,602.83 658.5,607.28 660.03,611.99C665.03,627.37 665.34,644.12 662.97,660.01C662,668.06 659.52,675.73 658.22,683.7C664.44,679.27 669.78,673.46 674.34,667.36C682.6,657.15 690.96,644.89 693.78,631.89C695.63,623.2 695.29,613.67 694.42,604.88C693.22,593.88 691.81,583.21 687.65,572.86C682.66,582.41 677.1,592.04 670.19,600.34C668.39,594.09 667.45,587.67 665.46,581.46C663.22,574.42 661.32,567.67 658.06,561.03C654.56,553.6 650,547.37 645.76,540.28C642.21,534.25 638.2,528.54 634.17,522.82C633.06,528.59 632.3,534.41 631.33,540.21C626.81,537.22 623.21,533.38 619.43,529.55C608.16,517.18 598.23,504.18 591.44,488.76C587.28,478.46 583.94,468.26 584.24,457C583.62,447.64 585.6,438.76 587.73,429.72C588.42,426.99 589.46,424.38 590.59,421.8C591.81,430.23 590.65,438.61 592.01,447.03C594.38,465.07 603.53,481.65 613.35,496.67C616.99,501.68 620.45,506.81 624.11,511.8C627.26,502.08 630.31,489.49 637.85,482.21C640.93,497.51 647.41,511.29 655.44,524.55C661.41,534.05 666.91,543.6 670.75,554.19C672.23,558.49 673.39,562.88 675.03,567.13C678.59,563.77 679.55,558.92 681.41,554.43C683.62,548.88 684.52,543.12 685.93,537.36C687.41,539.5 688.82,541.67 690.03,543.97C693.52,550.68 697.34,556.92 699.89,564.1C703.13,573.53 705.79,583.13 707.28,593C708.49,599.39 708.48,605.81 709.15,612.25C714.44,607.79 718.03,601.19 721.08,595.08C725.4,584.68 728.51,573.32 728.59,562C728.75,555.06 728.79,548.1 728.43,541.16C727.83,531.12 724.75,521.43 724.03,511.46C728.75,514.57 732.15,519.06 736.8,522.25C735.6,515.66 732.64,510.06 729.94,504.01C726.15,495.99 721.17,488.45 715.57,481.58C715.66,484.78 715.76,487.98 715.85,491.18C709.8,481.41 702.47,472.09 697.11,461.9C694.62,456.97 693.76,451.85 692.47,446.54C687.28,454.43 683.98,463.72 681.7,472.84C680.18,478.67 679.94,484.52 679.01,490.44C675.34,484.06 673.84,476.56 672.38,469.39C671.14,463.62 671.18,457.87 671.25,452C671.27,443.73 673.54,435.09 674.98,426.91C665.91,431.81 659.22,438.98 651.92,446.02C653.91,437.52 658.61,430.71 663.8,423.85C667.38,419.13 671.79,415.54 675.95,411.38C671.13,411.53 666.45,412.17 661.92,413.88C651.48,417.29 641.47,421.17 632.28,427.31C628.09,430.03 624.58,433.36 620.74,436.51C619.74,421.06 622.17,405.93 627.43,391.41C629.17,386.74 631.03,382.12 632.8,377.46C621.61,379.38 614.58,386.51 604.2,390.35C607.01,380.75 610.94,371.62 615.94,362.96C621.79,353.23 630.3,345.71 640.09,340.11C636.27,346.53 631.81,351.81 628.48,358.43C626.6,362.12 625.22,365.99 623.91,369.91C633.14,366.07 642.07,362.77 652.26,363.08C650.71,366.2 648.94,369.18 647.28,372.23C640.9,384.62 637.41,397.64 634.48,411.18C641.04,407.95 646.58,404.08 653.47,401.63C659.18,399.63 664.15,397.26 670.1,396.25C677.32,395.05 684.69,394.56 692,394.67C698.22,394.77 704,396.35 710.22,396.9C704.4,386.16 693.35,377.79 684.17,370.06C693.94,360.66 704.07,352.32 716.35,346.36C723.65,343.08 730.91,339.84 737.83,335.79C741.17,333.83 743.4,331.01 745.8,328.05C745.23,327.28 744.66,326.5 744.1,325.72C746.99,322.64 749.77,319.65 751.36,315.65C745.8,318.76 741.77,323.34 735.64,325.6C726.13,329.41 715.86,327.76 707.75,321.61C712.93,321.39 718.1,321.43 723.26,320.91C718.98,318.71 714.91,317.08 711.53,313.5C706.36,307.98 701.26,300.35 694.65,296.36C687.75,292.44 681.03,293.87 673.51,293.76C683.58,286.55 694.31,285.3 705.82,282.16C701.71,279.67 697.32,277.85 693.4,275.03C702.01,273.49 711.4,276.06 719.15,279.8C729,285.09 739.38,293.26 750.32,296.59C754.96,297.83 759.68,299.34 764.36,297.39C766.22,296.6 769.35,295.51 769.26,293.04C769.22,289.41 767.93,285.69 767.09,282.17C769.45,283.58 772.12,284.99 773.93,287.09C775.54,288.96 776.83,291.16 778.15,293.24C780.22,292.25 782.97,291.35 784.46,289.54C785.39,285.23 783.9,281.15 781.28,277.74C777.84,273.27 773.02,269.77 768.39,266.63C765.25,264.27 761.76,266.69 758.16,264.82C746.33,259.34 733.67,255.92 720.98,253.13C704.02,250.05 686.13,250.06 668.98,251.29C664.68,251.44 660.44,251.61 656.23,252.61C659.23,259.27 661.83,265.9 662.55,273.25C658.59,268.74 655.38,264.19 650.73,260.33C645.08,255.51 638.35,252.39 631.61,249.39C618.93,243.9 606.43,242.49 593.17,238.68C586.33,236.79 579.49,234.7 572.78,232.39C567.19,230.52 562.59,227.02 557.16,224.77C560.05,232.08 563.32,239.66 567.89,246.09C573.43,253.45 580.12,259 586.65,265.24C582.69,265.7 578.75,265.63 574.78,265.39C577.53,272.14 582.82,277.96 588.19,282.77C596.63,289.03 607.18,293.19 616.86,296.93C609.75,298.15 603.07,295.81 596.05,297.1C593.63,297.59 591.7,299.28 589.86,300.81C584.51,305.53 578.81,309.7 573.67,314.66C569.29,318.86 564.79,322.69 561.53,327.88C567.2,325.82 572.27,323.43 577.94,321.95C582.56,320.7 587.27,319.97 592.02,319.43C585.36,325.52 578.74,331.06 573.53,338.54C562.35,353.14 552.76,368.69 545.61,385.67C543.05,391.7 540.41,397.57 539.07,404.03C544.56,398.49 548.93,392 554.63,386.63C565.13,376.58 576.99,365.37 590.3,359.23C588.43,361.7 586.43,364.06 584.38,366.37C570.83,381.9 560.72,399.24 551.6,417.63C547.18,427.1 543.11,436.75 538.63,446.19C546.21,449.35 555.86,452.03 560.71,459.28C568.59,472.47 570.31,486.5 571.89,501.46C568.97,496.77 566.85,491.86 563.63,487.39C559.8,482.06 555.41,476.85 550.28,472.73C546.41,469.62 542.23,467.49 537.92,465.08C530.06,460.6 522.24,456.06 514.34,451.65C505.3,447.36 495.26,441.83 490.09,432.88C486.18,426.43 482.45,419.53 479.28,412.69C476.61,406.33 473.43,400.92 472.67,394C471.32,384.85 473.14,376.58 474.45,367.61C475.72,356.73 477.16,345.98 476.79,335C477.11,321.19 472.31,306.4 462.68,296.3C454.63,288.6 446.14,281.75 435.93,277.08C429.46,274.18 422.98,271.25 416.45,268.48C406.53,264.77 397.07,260.12 387.57,255.45C367.49,246.12 348.4,234.51 330.4,221.64C323.75,216.92 318.75,210.64 312.28,205.74C313.07,211.1 315.28,215.8 317.2,220.8C320.14,228.66 324.65,235.98 328.75,243.28C343.26,264.05 365.67,279.38 387.59,291.46C393.17,294.89 398.84,298.13 404.31,301.72C411.61,306.47 418.87,309.58 425.05,315.94C432.8,323.47 437.31,333.04 440.9,343.07C442.65,348.03 444.04,353.03 444.15,358.32C440.59,353.75 438.65,348.34 435.25,343.69C433.43,341.11 431.28,338.88 429.06,336.65C430.02,346.2 432.78,354.92 434.45,364.58C436.35,376.62 438.24,388.68 440.43,400.67C443.33,413 446.4,426.95 453.26,437.73C456.93,443.76 461,449.99 465.93,455.06C473.08,462.53 480.97,469.49 489.48,475.38C488.6,471.5 487.56,467.67 486.51,463.84C491.73,468.2 497.47,471.98 502.25,476.77C507.02,481.5 511.8,485.72 515.61,491.35C519.8,497.6 523.87,504.45 524.65,512.08C525.11,517.38 525.22,523.35 523.38,528.42C522.15,532.07 520.12,535.15 517.98,538.31C515.75,530.51 513.68,523.1 508.09,516.92C505.33,522.75 503.41,528.52 499.93,534C496.12,539.98 491.47,545.5 487.01,551.02C479.51,560.75 468.14,568.07 458.17,575.16C451.17,580.21 443.81,584.46 435.9,587.92C438.28,582.54 442.22,578.68 443.7,572.96C439.82,572.75 435.84,572.37 431.96,572.68C429.04,572.86 426.65,574.72 424.29,576.25C413.84,583.41 403.05,590.04 391.79,595.84C384.8,599.6 377.61,602.93 370.61,606.65C362.85,610.76 355.27,614.05 348.02,619.01C334.67,627.62 323.84,641.52 311.41,651.37C303.9,657.4 296.76,663.52 288.36,668.32C279.54,673.78 269.73,679.3 258.99,678.61C251.75,678.53 244.86,675.26 239.7,670.3C233.63,663.82 231.64,653.97 233.52,645.43C235.24,637.64 239.72,630.56 243.72,623.73C247,618.01 251.37,613.56 255.55,608.54C261.59,601.24 267.73,594.03 273.62,586.59C279.28,579.67 283.02,571.12 285.57,562.61C288.29,552.59 285.45,543.12 280.82,534.21C278.76,530.32 275.96,527.11 272.23,524.76C267.91,522.04 263.57,519.23 258.96,517.03C254.96,515.01 250.07,515.71 246.18,513.79C242.21,510.8 239.44,506.53 235.2,503.77C227.87,498.26 218.99,496.79 210.1,495.61C202.69,495.08 195.31,494.34 188.01,492.94C183.6,492.1 179.82,490.38 175.59,488.97C179.04,495.83 184.88,500.36 191.06,504.61C184.19,505.51 177.54,506.03 170.73,504.31C165.95,503.05 161.17,501.45 156.74,499.23C151.01,496.26 147.45,491.79 142.7,487.62C143.28,492.16 144.38,496.48 146.39,500.61C148.96,505.94 151.67,511.88 156.09,515.91C159.9,519.44 164.2,522.38 168.04,525.9C164.62,525.36 161.15,524.83 157.69,524.61C164.39,532.87 174.02,538.22 184.31,540.59C189.68,541.74 195.58,541.32 201.11,541.66C196.98,547.7 191.05,550.3 185.21,554.24C191.3,555.94 197.18,554.89 203.09,553.09C210.6,550.67 217.62,549.76 224.46,545.49C228.62,542.97 231.09,539.12 235.36,537.32C240.56,535.13 246.62,534.81 252.14,535.67C259.91,536.95 265.25,544.33 267.27,551.47C269.23,560.9 265.62,568.92 260.65,576.66C257.99,580.69 254.58,583.8 251.21,587.2C246.27,592.25 241.84,597.83 236.93,602.93C230.47,609.53 224.29,616.95 220.25,625.31C215.9,633.74 212.22,643.39 212.33,653C212.43,662.87 213.62,672.31 219.39,680.6C225.84,690.07 236.41,698.32 248.02,699.86C257.45,701.27 267.85,701.27 276.88,697.85C283.68,695.46 290.77,692.75 296.86,688.86C303.61,684.71 309.28,679.68 315.7,675.01C314.07,686.41 310.46,697.15 309.47,708.6C307.96,721.68 308.09,734.92 309.33,748.01C309.44,750.66 310.08,754.07 308.43,756.35C305.48,761.03 300.74,764.95 296.74,768.74C291.03,774.17 284.43,778.26 278.11,783.12C274.48,785.95 269.38,788.19 266.74,791.99C266.26,794.59 266.47,797.38 266.62,800C267.28,808.68 268.11,817.34 268.87,826C270.04,842.39 273.23,858.61 274.6,874.99C274.8,878.24 276.04,881.08 277.32,884.01C297.01,884.21 316.76,883.68 336.44,884.38C336.86,884.84 337.3,885.3 337.73,885.75C317.37,885.46 297.01,885.85 276.65,885.56C275.66,883.29 274.73,880.85 273.13,878.94C269.64,874.83 264.18,871.27 261.48,866.58C259.95,862.29 259.91,857.45 258.95,853C255.65,831.81 251.69,810.4 250.19,788.99C250.45,785.1 248.21,782.83 246.18,779.85C237.87,768.4 230.28,756.34 222.52,744.5C179.36,676.1 147.96,599.58 126.48,521.76C120.21,500.26 115.31,478.69 110.64,456.81C100.91,412.08 95.18,366.02 90.94,320.47C89.24,298.07 87.49,275.51 87.61,253.03C94.4,267.16 102.35,280.53 112.56,292.46C116.16,296.86 119.89,300.82 122.23,306.09C128.96,307.31 135.35,309.71 142.05,311.05C145.37,311.76 148.54,312.05 151.77,313.13C135.87,300.68 122.42,284.58 111.18,267.88C102.71,255.25 97.63,241.28 93.37,226.79C98.4,229.14 103.54,231.22 108.69,233.3C116.45,236.45 123.75,240.03 131.63,242.63C128.39,238.45 124.58,234.8 121.26,230.69C116.33,224.91 112.11,218.39 107.96,212.02C101.94,202.66 98.37,192.59 94.91,182.08C90.11,166.96 89.49,151.62 90.54,135.89C107.41,149.65 125.37,161.87 143.55,173.82C128.93,150.47 118.77,124.78 117.54,97C116.83,83.35 119.12,70.07 122.89,57C131.85,69.01 141.21,80.52 152.12,90.84C161.48,99.49 171.39,107.65 181.25,115.74C211.83,139.56 242.63,162.99 275,184.33C281.04,188.07 286.64,192.75 293.06,195.79C293.43,189.87 293.45,183.94 293.88,178.02C294.08,176.29 294.29,174.56 294.47,172.82C295.74,173.83 296.99,174.86 298.23,175.9C305.74,182.38 313.45,188.6 320.96,195.06C339.3,210.86 360.23,223.78 382.3,233.7C393.97,239.15 405.9,244.04 417.61,249.4C431.91,256.45 447.67,263.05 460.52,272.48C468.75,278.05 475.86,285.29 481.72,293.28C491.98,307.63 495.2,325.67 494.61,343C494.05,355.29 492.5,367.54 492.77,380C492.75,389.98 495.65,399.42 499.49,408.53C501.56,413.46 504.44,417.91 507.59,422.21C508.65,416.1 509.23,409.98 510.78,403.96C514.3,389.98 518.83,376 525.23,363.07C519.81,366.29 514.23,369.2 508.92,372.59C512.6,360.95 516.67,349.21 522.42,338.41C531.46,319.92 543.44,302.99 557.74,288.2C553.08,281.44 549.27,274.04 544.99,267.02C539.26,257.81 535.27,247.6 533.12,236.96C529.34,217.74 525.64,198.52 522.51,179.18C539.2,189.67 555.28,199.84 573.53,207.5C583.87,211.83 594.64,215.89 605.54,218.51C611.92,219.95 618.28,221.41 624.75,222.4C622.78,208.93 622.62,195.08 624.46,181.59C633.11,189 641.75,196.34 651.08,202.9C659.01,208.72 667.57,213.18 676.27,217.71C685.81,222.62 695.35,227.14 705.53,230.58C711.26,232.73 717.96,232.94 724.03,233.93C734.1,235.46 744.08,237.14 753.77,240.36C762.52,243.3 772.23,245.35 780.22,249.77C784.28,251.93 788.18,254.28 791.62,257.36C796.25,261.46 800.88,266.19 802.93,272.15C804.25,275.53 804.69,279.4 806.41,282.57C808.35,283.82 810.77,284.45 812.94,285.16C822.56,288.06 832.07,292.04 840.59,297.39C850.1,303.54 856.83,313.09 860.22,323.83C864.59,337.38 862.96,352.13 856.88,364.87C848.75,381.83 835.57,394.99 820.41,405.79C818.74,397.47 818.24,387.78 815.27,379.74C813.72,375.47 810.73,371.97 806.27,370.67C799.69,369.03 792.69,371.3 787.61,375.61C785.13,377.81 783.24,380.52 783.16,383.95C782.87,390.53 785.38,397.4 787.46,403.57C792.93,417.41 800.33,431.01 810.17,442.24C794.05,450.24 775.84,453.29 758.23,448.75C752.34,447.55 746.92,444.77 741.04,443.71C737.88,443.09 735.06,444.91 733.81,447.77C731.49,452.92 732.53,459.18 734.85,464.16C738.09,471.16 742.65,477.75 746.69,484.32C754.33,496.09 760.84,509.17 764.4,522.78C769.9,543.52 771.7,564.64 771.87,586.03C766.7,580.45 761.2,575.04 755.3,570.23C754.39,577.09 754.13,583.8 752.48,590.57C746.86,615.54 733.91,639.13 717.51,658.64C717.5,653.39 717.21,648.21 716.31,643.03C711.65,651.91 706.69,660.58 700.55,668.54C688.7,683.78 674.81,697.66 660.07,710.09C658.39,711.59 656.29,713.09 655.15,715.06C656.9,722.78 659.9,730.26 662.04,737.89C667.71,755.24 673.63,772.54 680.36,789.5C682.55,795.18 684.71,800.83 687.7,806.15C691.52,805.88 695.33,805.58 699.13,805.15C704.01,804.62 708.9,804.13 713.78,803.59C722.6,791.51 731.79,779.63 740.32,767.34C757.77,742.59 773.57,716.75 788.31,690.32C812.45,646.5 832.19,599.73 848.6,552.5C854.82,533.82 860.33,514.92 865.67,495.97C886.73,417.37 898.89,336.32 901.72,255C901.97,242.55 902.78,229.51 901.79,217.05C888.13,212.66 874.81,207.25 861.24,202.58C759.26,166.37 658.08,130.13 556.23,93.78C541.19,88.46 526.24,82.88 511.15,77.71C470.93,92.49 430.46,106.56 390.15,121.08C350.18,135.48 309.98,149.52 270.02,163.91C264.4,160.29 259.27,155.98 253.64,152.35C248.16,148.84 243.16,144.7 237.8,141.03C258.17,134.24 278.2,126.63 298.52,119.68C355.91,99.27 413.12,79.04 470.51,58.55C479.77,54.84 488.12,49.21 495.13,42.12C503.35,34.39 509.3,24.64 512.03,13.67Z" style="fill:rgb(8,16,36);fill-rule:nonzero;"/>
            <path d="M131.27,89.89C137.47,95.96 142.91,102.83 149.06,108.95C155.52,115.53 162.92,121 169.59,127.37C184.93,140.11 200.57,152.46 216.42,164.57C243.29,184.22 270.97,203.48 299.78,220.19C301.69,221.39 303.5,222.38 304.5,224.52C306.32,228.15 307.59,232.05 309.29,235.75C311.36,240.49 314.41,244.67 316.49,249.41C311.3,247.15 306.7,243.95 301.66,241.42C295.74,238.41 289.86,235.31 284.17,231.87C272,224.68 259.73,217.92 247.92,210.12C238.49,204.28 229.45,197.78 220.06,191.89C224.16,197.51 229.92,202.15 235.03,206.95C242.18,212.83 249.13,218.95 256.6,224.41C261.77,228.21 266.85,232.15 271.97,236.04C273.77,237.52 275.87,238.96 276.6,241.29C278.3,246.51 279.67,251.86 281.03,257.19C273.66,254.03 267.81,249.18 260.89,245.07C245.67,235.51 230.38,225.83 216.04,214.97C210.84,211.14 205.33,207.81 200.36,203.65C187.43,193.64 175.18,182.94 164.65,170.37C158.35,162.49 152.66,154.13 147.53,145.45C141.87,135.15 137.83,123.89 134.5,112.64C132.9,104.75 130.82,97.71 131.27,89.89Z" style="fill:rgb(0,48,135);fill-rule:nonzero;"/>
            <path d="M513.24,100.51C531.08,106.67 548.7,113.14 566.5,119.42C586.51,126.2 606.23,133.78 626.24,140.54C643.16,146.65 659.99,152.97 677.04,158.71C705.72,169.29 734.64,179.07 763.31,189.65C771.19,192.42 779.11,195.09 786.98,197.9C818.53,209.29 850.28,220.3 881.64,231.7C881.66,239.8 881.51,247.9 881.44,256C881.52,263.37 880.3,270.62 880.35,278C879.38,285.34 879.69,292.69 878.77,300.01C878.14,311.04 876.95,322.01 875.63,332.97C873.69,351.69 871.07,370.28 867.9,388.83C865.35,406.65 861.62,424.21 857.96,441.83C848.8,483.98 836.82,525.46 822.14,566.02C816.49,581.73 809.88,597.04 803.57,612.49C797.23,626.68 790.69,640.81 783.81,654.75C777.83,665.82 772.36,677.16 766.11,688.07C759.11,699.47 752.87,711.28 745.43,722.42C738.76,733 731.92,743.44 724.61,753.59C716.46,765.66 707.89,777.46 699,788.99C695.01,794.21 691.71,799.66 687.07,804.37C691.11,806.34 694.86,805.43 699.13,805.15C695.33,805.58 691.52,805.88 687.7,806.15C684.71,800.83 682.55,795.18 680.36,789.5C673.63,772.54 667.71,755.24 662.04,737.89C659.9,730.26 656.9,722.78 655.15,715.06C656.29,713.09 658.39,711.59 660.07,710.09C674.81,697.66 688.7,683.78 700.55,668.54C706.69,660.58 711.65,651.91 716.31,643.03C717.21,648.21 717.5,653.39 717.51,658.64C733.91,639.13 746.86,615.54 752.48,590.57C754.13,583.8 754.39,577.09 755.3,570.23C761.2,575.04 766.7,580.45 771.87,586.03C771.7,564.64 769.9,543.52 764.4,522.78C760.84,509.17 754.33,496.09 746.69,484.32C742.65,477.75 738.09,471.16 734.85,464.16C732.53,459.18 731.49,452.92 733.81,447.77C735.06,444.91 737.88,443.09 741.04,443.71C746.92,444.77 752.34,447.55 758.23,448.75C775.84,453.29 794.05,450.24 810.17,442.24C800.33,431.01 792.93,417.41 787.46,403.57C785.38,397.4 782.87,390.53 783.16,383.95C783.24,380.52 785.13,377.81 787.61,375.61C792.69,371.3 799.69,369.03 806.27,370.67C810.73,371.97 813.72,375.47 815.27,379.74C818.24,387.78 818.74,397.47 820.41,405.79C835.57,394.99 848.75,381.83 856.88,364.87C862.96,352.13 864.59,337.38 860.22,323.83C856.83,313.09 850.1,303.54 840.59,297.39C832.07,292.04 822.56,288.06 812.94,285.16C810.77,284.45 808.35,283.82 806.41,282.57C804.69,279.4 804.25,275.53 802.93,272.15C800.88,266.19 796.25,261.46 791.62,257.36C788.18,254.28 784.28,251.93 780.22,249.77C772.23,245.35 762.52,243.3 753.77,240.36C744.08,237.14 734.1,235.46 724.03,233.93C717.96,232.94 711.26,232.73 705.53,230.58C695.35,227.14 685.81,222.62 676.27,217.71C667.57,213.18 659.01,208.72 651.08,202.9C641.75,196.34 633.11,189 624.46,181.59C622.62,195.08 622.78,208.93 624.75,222.4C618.28,221.41 611.92,219.95 605.54,218.51C594.64,215.89 583.87,211.83 573.53,207.5C555.28,199.84 539.2,189.67 522.51,179.18C525.64,198.52 529.34,217.74 533.12,236.96C535.27,247.6 539.26,257.81 544.99,267.02C549.27,274.04 553.08,281.44 557.74,288.2C543.44,302.99 531.46,319.92 522.42,338.41C516.67,349.21 512.6,360.95 508.92,372.59C514.23,369.2 519.81,366.29 525.23,363.07C518.83,376 514.3,389.98 510.78,403.96C509.23,409.98 508.65,416.1 507.59,422.21C504.44,417.91 501.56,413.46 499.49,408.53C495.65,399.42 492.75,389.98 492.77,380C492.5,367.54 494.05,355.29 494.61,343C495.2,325.67 491.98,307.63 481.72,293.28C475.86,285.29 468.75,278.05 460.52,272.48C447.67,263.05 431.91,256.45 417.61,249.4C405.9,244.04 393.97,239.15 382.3,233.7C360.23,223.78 339.3,210.86 320.96,195.06C313.45,188.6 305.74,182.38 298.23,175.9C304.72,173.26 311.41,171.21 317.96,168.75C330.9,163.96 343.85,159.24 356.95,154.91C387.05,143.82 417.37,133.41 447.5,122.42C467.17,115.48 486.78,108.56 506.36,101.33C508.68,100.56 510.78,99.78 513.24,100.51Z" style="fill:rgb(255,215,0);fill-rule:nonzero;"/>
            <path d="M102.09,161.04C112.67,167.3 122.21,174.96 132.36,181.67C145.1,190.63 158.25,199.02 171.06,207.9C183.24,215.42 195.38,223.04 207.81,230.16C219.23,236.35 230.21,243.31 241.71,249.34C255,256.74 268.43,263.88 281.77,271.18C285.08,272.99 288.23,274.31 290.54,277.45C294.69,283.3 298.95,288.78 303.84,294.04C297.08,292.17 291.03,289.29 284.54,286.49C276.26,282.62 267.76,279.24 259.28,275.73C247.38,270.69 235.83,264.22 223.56,260.14C225.65,262.58 228.16,264.46 230.83,266.22C238.84,271.91 247.45,277.01 255.87,282.11C260.66,285.03 265.22,288.21 270.27,290.68C272.94,292.12 276.16,293.45 278.27,295.67C279.62,298.52 279.7,302.14 280.08,305.24C271.44,302.39 263.72,298 255.29,294.66C245.48,290.69 235.95,286.14 226.44,281.53C216.79,276.96 207.09,272.43 197.71,267.33C187.27,261.54 176.2,256.43 166.34,249.67C160.37,245.41 153.99,241.38 148.56,236.44C143.94,232.09 139.11,227.84 134.95,223.04C128.48,214.92 121.98,207.02 117.43,197.61C110.53,186.01 105.66,174.04 102.09,161.04Z" style="fill:rgb(0,48,135);fill-rule:nonzero;"/>
            <path d="M932.18,174.27C932.52,178.5 933.01,182.73 933.24,186.96C934.07,207.47 933.91,228.02 933.12,248.52C932.47,246.04 931.87,243.59 931.91,241C932.12,226.34 931.9,211.67 932.05,197C932.43,188.64 929.27,182.23 932.18,174.27Z" style="fill:rgb(8,16,36);fill-rule:nonzero;"/>
            <path d="M293.88,178.02C293.45,183.94 293.43,189.87 293.06,195.79C286.64,192.75 281.04,188.07 275,184.33C281.21,181.61 287.11,179.01 293.88,178.02Z" style="fill:rgb(255,215,0);fill-rule:nonzero;"/>
            <path d="M312.28,205.74C318.75,210.64 323.75,216.92 330.4,221.64C348.4,234.51 367.49,246.12 387.57,255.45C397.07,260.12 406.53,264.77 416.45,268.48C422.98,271.25 429.46,274.18 435.93,277.08C446.14,281.75 454.63,288.6 462.68,296.3C472.31,306.4 477.11,321.19 476.79,335C477.16,345.98 475.72,356.73 474.45,367.61C473.14,376.58 471.32,384.85 472.67,394C473.43,400.92 476.61,406.33 479.28,412.69C482.45,419.53 486.18,426.43 490.09,432.88C495.26,441.83 505.3,447.36 514.34,451.65C522.24,456.06 530.06,460.6 537.92,465.08C542.23,467.49 546.41,469.62 550.28,472.73C555.41,476.85 559.8,482.06 563.63,487.39C566.85,491.86 568.97,496.77 571.89,501.46C570.31,486.5 568.59,472.47 560.71,459.28C555.86,452.03 546.21,449.35 538.63,446.19C543.11,436.75 547.18,427.1 551.6,417.63C560.72,399.24 570.83,381.9 584.38,366.37C586.43,364.06 588.43,361.7 590.3,359.23C576.99,365.37 565.13,376.58 554.63,386.63C548.93,392 544.56,398.49 539.07,404.03C540.41,397.57 543.05,391.7 545.61,385.67C552.76,368.69 562.35,353.14 573.53,338.54C578.74,331.06 585.36,325.52 592.02,319.43C587.27,319.97 582.56,320.7 577.94,321.95C572.27,323.43 567.2,325.82 561.53,327.88C564.79,322.69 569.29,318.86 573.67,314.66C578.81,309.7 584.51,305.53 589.86,300.81C591.7,299.28 593.63,297.59 596.05,297.1C603.07,295.81 609.75,298.15 616.86,296.93C607.18,293.19 596.63,289.03 588.19,282.77C582.82,277.96 577.53,272.14 574.78,265.39C578.75,265.63 582.69,265.7 586.65,265.24C580.12,259 573.43,253.45 567.89,246.09C563.32,239.66 560.05,232.08 557.16,224.77C562.59,227.02 567.19,230.52 572.78,232.39C579.49,234.7 586.33,236.79 593.17,238.68C606.43,242.49 618.93,243.9 631.61,249.39C638.35,252.39 645.08,255.51 650.73,260.33C655.38,264.19 658.59,268.74 662.55,273.25C661.83,265.9 659.23,259.27 656.23,252.61C660.44,251.61 664.68,251.44 668.98,251.29C686.13,250.06 704.02,250.05 720.98,253.13C733.67,255.92 746.33,259.34 758.16,264.82C761.76,266.69 765.25,264.27 768.39,266.63C773.02,269.77 777.84,273.27 781.28,277.74C783.9,281.15 785.39,285.23 784.46,289.54C782.97,291.35 780.22,292.25 778.15,293.24C776.83,291.16 775.54,288.96 773.93,287.09C772.12,284.99 769.45,283.58 767.09,282.17C767.93,285.69 769.22,289.41 769.26,293.04C769.35,295.51 766.22,296.6 764.36,297.39C759.68,299.34 754.96,297.83 750.32,296.59C739.38,293.26 729,285.09 719.15,279.8C711.4,276.06 702.01,273.49 693.4,275.03C697.32,277.85 701.71,279.67 705.82,282.16C694.31,285.3 683.58,286.55 673.51,293.76C681.03,293.87 687.75,292.44 694.65,296.36C701.26,300.35 706.36,307.98 711.53,313.5C714.91,317.08 718.98,318.71 723.26,320.91C718.1,321.43 712.93,321.39 707.75,321.61C715.86,327.76 726.13,329.41 735.64,325.6C741.77,323.34 745.8,318.76 751.36,315.65C749.77,319.65 746.99,322.64 744.1,325.72C744.66,326.5 745.23,327.28 745.8,328.05C743.4,331.01 741.17,333.83 737.83,335.79C730.91,339.84 723.65,343.08 716.35,346.36C704.07,352.32 693.94,360.66 684.17,370.06C693.35,377.79 704.4,386.16 710.22,396.9C704,396.35 698.22,394.77 692,394.67C684.69,394.56 677.32,395.05 670.1,396.25C664.15,397.26 659.18,399.63 653.47,401.63C646.58,404.08 641.04,407.95 634.48,411.18C637.41,397.64 640.9,384.62 647.28,372.23C648.94,369.18 650.71,366.2 652.26,363.08C642.07,362.77 633.14,366.07 623.91,369.91C625.22,365.99 626.6,362.12 628.48,358.43C631.81,351.81 636.27,346.53 640.09,340.11C630.3,345.71 621.79,353.23 615.94,362.96C610.94,371.62 607.01,380.75 604.2,390.35C614.58,386.51 621.61,379.38 632.8,377.46C631.03,382.12 629.17,386.74 627.43,391.41C622.17,405.93 619.74,421.06 620.74,436.51C624.58,433.36 628.09,430.03 632.28,427.31C641.47,421.17 651.48,417.29 661.92,413.88C666.45,412.17 671.13,411.53 675.95,411.38C671.79,415.54 667.38,419.13 663.8,423.85C658.61,430.71 653.91,437.52 651.92,446.02C659.22,438.98 665.91,431.81 674.98,426.91C673.54,435.09 671.27,443.73 671.25,452C671.18,457.87 671.14,463.62 672.38,469.39C673.84,476.56 675.34,484.06 679.01,490.44C679.94,484.52 680.18,478.67 681.7,472.84C683.98,463.72 687.28,454.43 692.47,446.54C693.76,451.85 694.62,456.97 697.11,461.9C702.47,472.09 709.8,481.41 715.85,491.18C715.76,487.98 715.66,484.78 715.57,481.58C721.17,488.45 726.15,495.99 729.94,504.01C732.64,510.06 735.6,515.66 736.8,522.25C732.15,519.06 728.75,514.57 724.03,511.46C724.75,521.43 727.83,531.12 728.43,541.16C728.79,548.1 728.75,555.06 728.59,562C728.51,573.32 725.4,584.68 721.08,595.08C718.03,601.19 714.44,607.79 709.15,612.25C708.48,605.81 708.49,599.39 707.28,593C705.79,583.13 703.13,573.53 699.89,564.1C697.34,556.92 693.52,550.68 690.03,543.97C688.82,541.67 687.41,539.5 685.93,537.36C684.52,543.12 683.62,548.88 681.41,554.43C679.55,558.92 678.59,563.77 675.03,567.13C673.39,562.88 672.23,558.49 670.75,554.19C666.91,543.6 661.41,534.05 655.44,524.55C647.41,511.29 640.93,497.51 637.85,482.21C630.31,489.49 627.26,502.08 624.11,511.8C620.45,506.81 616.99,501.68 613.35,496.67C603.53,481.65 594.38,465.07 592.01,447.03C590.65,438.61 591.81,430.23 590.59,421.8C589.46,424.38 588.42,426.99 587.73,429.72C585.6,438.76 583.62,447.64 584.24,457C583.94,468.26 587.28,478.46 591.44,488.76C598.23,504.18 608.16,517.18 619.43,529.55C623.21,533.38 626.81,537.22 631.33,540.21C632.3,534.41 633.06,528.59 634.17,522.82C638.2,528.54 642.21,534.25 645.76,540.28C650,547.37 654.56,553.6 658.06,561.03C661.32,567.67 663.22,574.42 665.46,581.46C667.45,587.67 668.39,594.09 670.19,600.34C677.1,592.04 682.66,582.41 687.65,572.86C691.81,583.21 693.22,593.88 694.42,604.88C695.29,613.67 695.63,623.2 693.78,631.89C690.96,644.89 682.6,657.15 674.34,667.36C669.78,673.46 664.44,679.27 658.22,683.7C659.52,675.73 662,668.06 662.97,660.01C665.34,644.12 665.03,627.37 660.03,611.99C658.5,607.28 657.14,602.83 654.28,598.71C650.4,593.21 646.53,587.95 641.02,583.94C641.66,589.18 643.57,594.01 644.76,599.11C650.55,625.96 649.83,654.08 641.31,680.28C638.63,688.86 635.79,697.4 633.2,706.01C631.54,711.15 633.56,715.14 635.04,720C638.43,729.99 641.87,739.96 645,750.04C651.15,767.6 657.61,785.1 664.76,802.29C668.26,809.52 672.16,816.5 675.18,823.98C686.89,825.2 699.25,822.21 710.84,820.56C715.64,820.08 720.48,819.7 724.86,822.07C729.23,824.1 731.21,828.86 733.8,832.66C732.38,834.39 730.93,836.09 729.36,837.67C727.02,839 725.12,840.46 723.21,842.35C721.19,840.7 719.38,838.98 716.91,838.03C713.02,836.54 709.1,836.51 705,836.46C698.32,836.43 691.64,836.42 684.96,836.36C690.39,839.22 696.13,842.2 700.92,846.06C704.41,848.84 706.97,852.87 707.73,857.27C707.79,859.11 706.85,861.08 706.21,862.77C703.91,865.23 701.48,867.57 699.08,869.92C697.58,867.97 696.41,865.86 695.21,863.72C693.37,860.42 689.64,859.01 686.03,858.83C679.96,858.48 673.85,858.74 667.77,858.68C658.52,858.48 649.25,858.54 639.99,858.46C636.4,858.16 634.18,860.6 631.55,862.58C627.22,866.27 622.62,869.59 618.03,872.95C616.69,871.7 615.4,870.89 615.12,868.95C613.45,861.16 614.39,851.07 619.94,844.92C624.62,840.43 632.53,838.81 638.68,837.39C638.93,833.38 638.81,829.72 636.97,826.06C630.29,811.32 621.56,797.48 613.56,783.43C608.72,774.72 602.87,766.66 597.97,758C593.77,751.09 589.14,744.42 584.73,737.64C581.65,743.07 579.4,748.82 575.77,753.94C571.8,744.08 571.55,734.33 570.21,723.94C569.28,716.62 569.71,709.35 569.42,702.01C563.43,707.19 558.84,713.17 551.73,717.01C551.02,715.02 550.5,713.13 550.7,710.99C551.29,701.3 552.97,691.61 554.25,682C555.21,674.54 554.33,667.32 553.37,659.93C552.21,648.74 548.6,637.79 543.46,627.82C543.06,637.83 542.95,647.77 541.6,657.72C540.74,664.75 538.76,671.4 537.45,678.35C535.77,686.07 534.47,693.46 531.74,700.66C518.28,703.49 504.85,706.41 491.41,709.37C479.63,712.07 468.08,714.51 456.71,718.73C447.25,721.87 438.2,725.89 429.11,729.93C430.66,713.91 434.17,698.1 435.7,682.08C431.83,687.75 427.64,693.27 424.15,699.18C417.03,712.17 412.1,725.79 406.41,739.41C403.58,746.24 401.17,752.82 397,758.99C391.64,767.2 385.92,775.98 378.48,782.46C364.22,793.63 346.95,799.07 330.32,805.31C322.74,808.71 314.77,811.32 307.43,815.21C307.18,830.39 307.3,845.57 307.37,860.75C315.79,860.78 325.14,859.45 333.31,861.58C340.54,863.43 345.4,868.56 349.66,874.38C352.21,877.92 353.39,881.96 354.14,886.21C348.83,886.55 343.53,886.46 338.22,886.23L337.73,885.75C337.3,885.3 336.86,884.84 336.44,884.38C316.76,883.68 297.01,884.21 277.32,884.01C276.04,881.08 274.8,878.24 274.6,874.99C273.23,858.61 270.04,842.39 268.87,826C268.11,817.34 267.28,808.68 266.62,800C266.47,797.38 266.26,794.59 266.74,791.99C269.38,788.19 274.48,785.95 278.11,783.12C284.43,778.26 291.03,774.17 296.74,768.74C300.74,764.95 305.48,761.03 308.43,756.35C310.08,754.07 309.44,750.66 309.33,748.01C308.09,734.92 307.96,721.68 309.47,708.6C310.46,697.15 314.07,686.41 315.7,675.01C309.28,679.68 303.61,684.71 296.86,688.86C290.77,692.75 283.68,695.46 276.88,697.85C267.85,701.27 257.45,701.27 248.02,699.86C236.41,698.32 225.84,690.07 219.39,680.6C213.62,672.31 212.43,662.87 212.33,653C212.22,643.39 215.9,633.74 220.25,625.31C224.29,616.95 230.47,609.53 236.93,602.93C241.84,597.83 246.27,592.25 251.21,587.2C254.58,583.8 257.99,580.69 260.65,576.66C265.62,568.92 269.23,560.9 267.27,551.47C265.25,544.33 259.91,536.95 252.14,535.67C246.62,534.81 240.56,535.13 235.36,537.32C231.09,539.12 228.62,542.97 224.46,545.49C217.62,549.76 210.6,550.67 203.09,553.09C197.18,554.89 191.3,555.94 185.21,554.24C191.05,550.3 196.98,547.7 201.11,541.66C195.58,541.32 189.68,541.74 184.31,540.59C174.02,538.22 164.39,532.87 157.69,524.61C161.15,524.83 164.62,525.36 168.04,525.9C164.2,522.38 159.9,519.44 156.09,515.91C151.67,511.88 148.96,505.94 146.39,500.61C144.38,496.48 143.28,492.16 142.7,487.62C147.45,491.79 151.01,496.26 156.74,499.23C161.17,501.45 165.95,503.05 170.73,504.31C177.54,506.03 184.19,505.51 191.06,504.61C184.88,500.36 179.04,495.83 175.59,488.97C179.82,490.38 183.6,492.1 188.01,492.94C195.31,494.34 202.69,495.08 210.1,495.61C218.99,496.79 227.87,498.26 235.2,503.77C239.44,506.53 242.21,510.8 246.18,513.79C250.07,515.71 254.96,515.01 258.96,517.03C263.57,519.23 267.91,522.04 272.23,524.76C275.96,527.11 278.76,530.32 280.82,534.21C285.45,543.12 288.29,552.59 285.57,562.61C283.02,571.12 279.28,579.67 273.62,586.59C267.73,594.03 261.59,601.24 255.55,608.54C251.37,613.56 247,618.01 243.72,623.73C239.72,630.56 235.24,637.64 233.52,645.43C231.64,653.97 233.63,663.82 239.7,670.3C244.86,675.26 251.75,678.53 258.99,678.61C269.73,679.3 279.54,673.78 288.36,668.32C296.76,663.52 303.9,657.4 311.41,651.37C323.84,641.52 334.67,627.62 348.02,619.01C355.27,614.05 362.85,610.76 370.61,606.65C377.61,602.93 384.8,599.6 391.79,595.84C403.05,590.04 413.84,583.41 424.29,576.25C426.65,574.72 429.04,572.86 431.96,572.68C435.84,572.37 439.82,572.75 443.7,572.96C442.22,578.68 438.28,582.54 435.9,587.92C443.81,584.46 451.17,580.21 458.17,575.16C468.14,568.07 479.51,560.75 487.01,551.02C491.47,545.5 496.12,539.98 499.93,534C503.41,528.52 505.33,522.75 508.09,516.92C513.68,523.1 515.75,530.51 517.98,538.31C520.12,535.15 522.15,532.07 523.38,528.42C525.22,523.35 525.11,517.38 524.65,512.08C523.87,504.45 519.8,497.6 515.61,491.35C511.8,485.72 507.02,481.5 502.25,476.77C497.47,471.98 491.73,468.2 486.51,463.84C487.56,467.67 488.6,471.5 489.48,475.38C480.97,469.49 473.08,462.53 465.93,455.06C461,449.99 456.93,443.76 453.26,437.73C446.4,426.95 443.33,413 440.43,400.67C438.24,388.68 436.35,376.62 434.45,364.58C432.78,354.92 430.02,346.2 429.06,336.65C431.28,338.88 433.43,341.11 435.25,343.69C438.65,348.34 440.59,353.75 444.15,358.32C444.04,353.03 442.65,348.03 440.9,343.07C437.31,333.04 432.8,323.47 425.05,315.94C418.87,309.58 411.61,306.47 404.31,301.72C398.84,298.13 393.17,294.89 387.59,291.46C365.67,279.38 343.26,264.05 328.75,243.28C324.65,235.98 320.14,228.66 317.2,220.8C315.28,215.8 313.07,211.1 312.28,205.74Z" style="fill:rgb(0,48,135);fill-rule:nonzero;"/>
            <path d="M112.97,246.04C118.16,248.77 122.73,252.43 128.06,254.92C133.25,257.35 138.12,260.31 143.38,262.56C148.73,264.86 154.03,267.27 159.31,269.71C169.68,274.55 180.48,278.33 190.91,283.06C202.57,288.34 214.63,292.61 226.4,297.61C244.89,305.03 263.49,312.3 281.81,320.1C285.89,321.81 289.83,322.73 293.06,325.94C296.27,329.09 299.12,332.54 302.54,335.48C305.5,337.99 308.33,340.55 310.66,343.69C298.89,341.26 287.57,336.9 275.84,334.27C277.38,339.31 280.03,343.84 281.62,348.86C274.12,347.66 266.99,345.3 259.66,343.41C247.31,340.23 235.15,335.79 223.29,331.76C213.34,328.57 203.52,324.93 193.72,321.32C181.68,317.14 170.26,310.6 160.29,302.7C151.24,295.17 142.05,287.39 134.95,278.01C130.65,272.87 126.52,267.69 123.08,261.92C119.86,256.52 115.21,251.8 112.97,246.04Z" style="fill:rgb(0,48,135);fill-rule:nonzero;"/>
            <path d="M579.78,247.13C589.56,250.64 599.47,255.11 609.15,258.85C615.72,261.89 622.8,264.07 628.05,268.91C635.82,275.7 640.42,285.36 640.22,295.74C632.2,294.02 625.23,290.49 617.77,287.24C609.77,283.25 602,280.26 595.94,273.36C599.11,273.49 602.27,273.69 605.43,273.88C596.57,266.38 584.43,258.08 579.78,247.13Z" style="fill:rgb(8,16,36);fill-rule:nonzero;"/>
            <path d="M295.75,254.82C304.19,258.32 312.03,263.5 319.93,268.06C329.53,273.9 339.52,279.01 349.14,284.82C363.76,293.16 377.58,302.5 388.81,315.19C394.96,322.84 400.63,331.43 404.11,340.65C399.15,338.52 394.83,335.4 390.08,332.89C381.46,328.32 372.61,324.25 363.7,320.27C354.54,315.71 345.46,311.7 337.46,305.58C328.07,298.33 319.55,290.18 312.2,280.85C305.29,273.09 299.73,264.42 295.75,254.82Z" style="fill:rgb(255,215,0);fill-rule:nonzero;"/>
            <path d="M714.4,291.36C718.48,292.49 722.54,294.12 726.05,296.53C726.23,299.09 726.18,302.28 727.57,304.5C728.46,305.91 730.46,306.68 731.84,307.5C734.83,306.45 736.83,305.3 739.11,303.11C741.06,303.78 742.96,304.52 744.84,305.35C739.66,312.13 729.94,313.7 722.74,309.31C716.68,305.42 713.67,298.47 714.4,291.36Z" style="fill:white;fill-rule:nonzero;"/>
            <path d="M793.45,300.44C801.8,303.22 810.36,305.56 818.01,310.01C824.32,313.85 829.77,319.09 833.41,325.56C838.37,334.75 839.11,345.88 835.75,355.73C834.22,360.39 831.82,364.22 829.83,368.71C829.39,367.33 828.92,365.96 828.39,364.61C828.93,365.32 829.48,366.03 830.03,366.73C834.98,358.48 834.01,349.33 831.93,340.35C830.46,335.68 830.07,331.26 826.64,327.51C822.86,323.6 818.85,319.57 814.15,316.77C810.91,314.84 807.79,312.77 804.7,310.6C794.56,309.02 785.73,305.21 775.22,306.49C779.4,304.28 783.5,301.75 787.86,299.91C789.69,298.92 791.62,299.97 793.45,300.44Z" style="fill:rgb(255,215,0);fill-rule:nonzero;"/>
            <path d="M295.52,302.43C296.51,302.77 297.51,303.12 298.5,303.47C303.69,305.5 308.68,308 313.82,310.13C326,315.23 338.22,320.13 350.17,325.77C361.98,330.92 373.96,336.99 384.3,344.73C393.9,352.67 403.48,361.23 407.65,373.36C402.11,370.98 396.98,367.84 391.35,365.66C376.27,359.29 360.67,357.73 346.61,350.38C334.7,344.28 323.4,336.57 313.88,327.12C307.38,320.72 300.97,313.48 296.56,305.45C296.2,304.45 295.85,303.44 295.52,302.43Z" style="fill:rgb(255,215,0);fill-rule:nonzero;"/>
            <path d="M775.01,306.61L775.22,306.49C785.73,305.21 794.56,309.02 804.7,310.6C807.79,312.77 810.91,314.84 814.15,316.77C818.85,319.57 822.86,323.6 826.64,327.51C830.07,331.26 830.46,335.68 831.93,340.35C834.01,349.33 834.98,358.48 830.03,366.73C829.48,366.03 828.93,365.32 828.39,364.61C825.02,358.04 820.62,353.4 814.11,349.88C801.46,342.87 785.61,343.43 771.75,345.65C759.04,347.24 748.08,352.23 736.66,357.66C729.19,361.01 722.26,365.26 715.07,369.13L715.49,370.49C716.22,372.1 717.5,373.03 718.74,374.23C724.18,379.15 728.02,385.23 732.36,390.8C735.44,394.46 738.8,397.84 741.71,401.65C741.62,402.63 741.53,403.61 741.44,404.59C742.42,404.47 743.4,404.35 744.39,404.23C746.35,406.32 748.61,407.46 748.75,410.62C749.54,410.52 750.33,410.43 751.12,410.34C753.16,411.82 755.19,413.3 757.11,414.94C758.11,417.67 760.32,418.88 762.53,420.52C763.57,421.41 764.47,421.36 765.79,421.4C767.46,422.35 769.08,423.37 770.7,424.41C770.69,425.5 770.68,426.6 770.67,427.7C768.72,427.64 766.77,427.57 764.83,427.45C762.78,426.1 760.7,425.48 758.31,424.99C752.75,421.72 747.11,418.94 742.12,414.77C736.31,409.89 730.95,404.74 726.81,398.34C721.93,390.95 716.31,384.16 710.43,377.56C707.33,374.41 703.56,371.87 700.07,369.16C710.51,361.09 721.69,354.68 733.09,348.1C738.3,345.11 743.84,342.89 749.19,340.19C751.85,338.67 754.49,337.73 755.63,334.63C759.85,324.6 765.2,312.33 775.01,306.61Z" style="fill:rgb(255,215,0);fill-rule:nonzero;"/>
            <path d="M786.93,312.65C790.81,312.12 794.53,315.5 797.09,318.02C789.41,317.92 782.96,321.1 776.86,325.45C778.89,320.39 781.45,314.71 786.93,312.65Z" style="fill:rgb(8,16,36);fill-rule:nonzero;"/>
            <path d="M139.01,323.99C144.98,325.08 150.15,327.36 155.99,329C168.44,332.47 180.49,336.96 193.16,339.7C224.25,347.78 255.64,354.8 286.93,362.07C292.4,363.29 295.3,368.31 299.06,371.97C306.32,378.78 313.97,385.04 322.06,390.84C306.97,390.14 291.9,387.93 276.87,386.43C258.94,384.1 241.16,381.87 223.59,377.47C210.35,374.18 197.5,371.46 185.75,365.22C177.81,360.73 170.22,355.69 163.43,349.56C154.63,342.07 145.4,333.7 139.01,323.99Z" style="fill:rgb(0,48,135);fill-rule:nonzero;"/>
            <path d="M147.26,352.32C155.88,360.85 166.06,368.16 175.77,375.43C168.92,375.59 162.09,375.38 155.25,375.58C158.37,381.11 161.51,386.69 165.11,391.92C171.71,401.39 180.45,408.67 189.94,415.09C203.06,424.08 219.1,429.37 234.27,433.74C226.14,435.87 217.95,438.23 209.96,440.83C213.7,446.81 218.88,451.51 224.87,455.18C237.53,463.42 251.38,468.56 265.93,472.35C269.35,473.24 272.82,473.65 276.3,474.16C271.43,477.14 265.87,478.88 260.77,481.46C262.21,485.2 264.98,487.54 267.86,490.15C272.85,494.52 278.72,497.69 284.79,500.29C293.19,503.67 301.68,506.38 310.78,506.92C306.82,510.67 304.57,515.17 302.95,520.32C314.51,527.29 327.08,531.42 340.08,534.79C338.45,536.58 336.65,538.27 335.2,540.22C335.11,541.94 336.56,542.32 337.7,543.27C348.75,550.75 362.07,552.99 375.1,554.21C372.57,556.2 370.16,558.31 367.94,560.64C374.85,563.17 382,564.77 388.98,567.07C392.98,568.38 397.03,569.24 401.21,569.79C384.75,581.16 366.93,588.9 349.5,598.48C330.71,609.27 316.62,623.38 300.59,637.6C294.1,643.88 287.1,649.58 279.59,654.6C273.86,658.28 266.9,661.74 260.01,662.18C256.44,662.37 252.09,661.07 250.29,657.72C247.9,653.08 248.2,647.75 249.89,642.94C252.85,634.4 258.94,626.43 264.07,619.05C272.72,606.64 282.67,596.43 289.63,583.62C299.85,564.7 298.69,540.35 286.26,522.73C278.83,512.23 266.25,505.9 253.98,503.05C251.29,502.59 249.89,500.75 247.97,499.03C242.23,493.46 235.17,488.75 227.51,486.34C217.07,483.1 207.12,484.73 196.02,482.6C186.07,481.21 176.92,477.52 168,473.03L170.05,473.76C168.29,465.45 165.75,457.31 163.91,449.01C162.4,442.05 160.92,435.08 159.61,428.07C157.12,415.41 154.39,402.82 152.71,390.02C151.01,377.45 148.4,364.96 147.26,352.32Z" style="fill:rgb(255,215,0);fill-rule:nonzero;"/>
            <path d="M299.91,351.19C305.61,352.12 310.91,354.28 316.51,355.61C335.56,360.35 354.34,365.72 372.94,372.04C386.24,376.6 397.65,384.57 407.65,394.34C409.65,396.25 411.26,398.41 412.65,400.79C406.25,399.89 399.96,398.35 393.54,397.57C380.93,395.51 368.99,395.22 356.82,391.23C342.81,386.66 328.84,380.01 317.4,370.64C311.7,365.73 306.58,360.06 301.67,354.37C301.07,353.32 300.48,352.26 299.91,351.19Z" style="fill:rgb(255,215,0);fill-rule:nonzero;"/>
            <path d="M715.49,370.49C717.86,372.48 720.25,374.35 722.24,376.74C732.29,388.92 742.22,403.68 755.11,412.9C760.42,417 765.76,421.01 771.54,424.41C775.63,427.07 780.01,428.93 783.08,432.52C774.66,431.89 765.66,429.16 758.31,424.99C760.7,425.48 762.78,426.1 764.83,427.45C766.77,427.57 768.72,427.64 770.67,427.7C770.68,426.6 770.69,425.5 770.7,424.41C769.08,423.37 767.46,422.35 765.79,421.4C764.47,421.36 763.57,421.41 762.53,420.52C760.32,418.88 758.11,417.67 757.11,414.94C755.19,413.3 753.16,411.82 751.12,410.34C750.33,410.43 749.54,410.52 748.75,410.62C748.61,407.46 746.35,406.32 744.39,404.23C743.4,404.35 742.42,404.47 741.44,404.59C741.53,403.61 741.62,402.63 741.71,401.65C738.8,397.84 735.44,394.46 732.36,390.8C728.02,385.23 724.18,379.15 718.74,374.23C717.5,373.03 716.22,372.1 715.49,370.49Z" style="fill:rgb(255,215,0);fill-rule:nonzero;"/>
            <path d="M734.87,377.17C743.79,378.18 748.57,384.04 754.18,390.22C753.56,386.36 752.06,382.89 750.38,379.39C754.27,381.66 757.9,383.65 760.52,387.47C763.45,391.8 764.52,397.42 765.89,402.39C766.89,406.09 768.5,409.48 770.19,412.9C761.11,406.37 751.96,401.26 744.8,392.19C741.21,387.46 737.31,382.61 734.87,377.17Z" style="fill:rgb(0,48,135);fill-rule:nonzero;"/>
            <path d="M174.65,387.15C183.44,387.83 192.18,388.84 201,389.13C208.83,389.21 216.14,391.7 223.92,392.29C245.26,394.45 266.59,396.9 287.97,398.72C293.14,399.29 298.3,399.64 303.5,399.66C307.76,404.77 311.43,410.11 316.77,414.22C321.24,418.43 326.75,421.05 331.35,425.05C309.97,425.67 288.35,424.98 266.97,424.45C259.3,423.98 251.69,422.77 244.01,422.4C234.99,421.71 224.65,421.45 216.32,417.73C207.91,414.21 199.86,409.74 192.25,404.73C185.05,399.96 180.1,393.71 174.65,387.15Z" style="fill:rgb(0,48,135);fill-rule:nonzero;"/>
            <path d="M324.19,400.98C329.15,401.33 334.05,402.11 338.99,402.59C360.39,404.08 383.29,406.3 403.65,413.37C410.66,416.58 419.09,420.47 423.67,426.91C407.84,426.77 391.95,428.41 376.44,426.49C366.14,425.05 355.86,422.18 346.55,417.49C338.44,413.34 330.01,408.1 324.19,400.98Z" style="fill:rgb(255,215,0);fill-rule:nonzero;"/>
            <path d="M327.05,436.91C329.2,436.73 330.09,438.19 331.47,439.51C335.04,443.37 338.09,447.38 342.1,450.88C344.65,453.06 347.28,455.13 349.77,457.38C346.87,458.26 343.98,458.89 340.98,459.21C328.13,460.66 314.86,463.63 302,463.71C294.1,463.82 285.81,464.14 277.99,463.14C270.62,462.33 263.23,459.88 256.1,457.8C245.56,454.01 235.39,450.44 226.52,443.4C238.71,442.52 250.88,443.25 263.01,441.88C275.99,440.59 289.04,440.25 302.02,438.87C310.32,437.89 318.7,437.28 327.05,436.91Z" style="fill:rgb(0,48,135);fill-rule:nonzero;"/>
            <path d="M351.41,439.03C360.61,438.87 369.81,439.12 379,438.95C386.37,438.68 393.61,437.74 401.01,438.26C413.55,438.63 427.99,442.12 437.61,450.61C433.44,451.08 429.29,451.48 425.19,452.41C413.86,455.02 401.62,456.81 390,455.59C375.91,454.57 361.77,448.71 351.41,439.03Z" style="fill:rgb(255,215,0);fill-rule:nonzero;"/>
            <path d="M362.15,465.32C365.31,464.53 368.34,464.84 371.49,465.46C367.27,467.35 362.9,468.55 358.56,470.12C361.96,475.29 366.6,478.52 371.08,482.64C363.7,485.15 356.7,488.5 349.2,490.35C339.95,492.72 330.51,494.31 321,495.07C315.73,495.51 310.21,494.84 304.99,494.08C297.09,492.9 290.11,489.91 282.57,487.49C279.59,486.54 276.65,485.51 273.77,484.29C278.81,482.28 283.77,482.61 289.02,481.75C294.5,481.01 299.78,479.55 305.16,478.33C324.21,474.2 343.19,469.82 362.15,465.32Z" style="fill:rgb(0,48,135);fill-rule:nonzero;"/>
            <path d="M454.38,470.33C444.62,476.33 432.42,479.31 421.25,481.4C408.05,483.29 393.88,479.49 382.88,472.06C394.41,469.3 406.27,467.64 417.98,465.73C430.36,463.69 443,464.86 454.38,470.33Z" style="fill:rgb(255,215,0);fill-rule:nonzero;"/>
            <path d="M456.99,485.31C462.81,484.81 468.88,485.83 474.56,487.1C467.46,492.97 458.7,498.08 449.99,501.1C437.91,505.18 423.98,503.56 412.8,497.61C419.39,495.56 425.87,493.2 432.5,491.33C440.53,489.03 448.63,486.17 456.99,485.31Z" style="fill:rgb(255,215,0);fill-rule:nonzero;"/>
            <path d="M384.79,489.35C388.99,490.43 393.03,492.16 397.18,493.42C394.4,495.33 391.59,497.19 388.73,498.99C390.36,500.64 392,502.3 393.63,503.96C388.16,507.08 382.56,509.95 377.13,513.14C369.8,517.42 361.71,519.44 353.34,520.48C340.36,521.7 327.06,520.05 314.56,516.43C319.25,513.65 324.1,513.03 329.22,511.32C346.36,506.28 362.96,498.86 378.85,490.76C380.69,489.98 382.76,488.75 384.79,489.35Z" style="fill:rgb(0,48,135);fill-rule:nonzero;"/>
            <path d="M475.19,504.48C481.6,503.52 488.38,504.72 494.13,507.7C485.89,513.01 478.07,517.86 468.01,518.67C461.2,518.97 454.17,518.38 447.66,516.22C450.27,514.46 452.96,513.05 455.85,511.84C462.06,509.17 468.5,505.57 475.19,504.48Z" style="fill:rgb(255,215,0);fill-rule:nonzero;"/>
            <path d="M403.82,509.73C406.81,510.93 409.58,512.33 412.67,513.31C417.27,514.77 422.33,515.35 427.13,516.13C415.76,527.15 401.17,532.7 386.91,538.91C375.38,543.45 363.43,540.43 351.73,538.14C356.18,535.53 361.03,533.99 365.62,531.66C369.64,529.77 373.43,527.51 377.2,525.17C383.65,521.17 390.39,517.93 396.67,513.69C398.95,512.17 401.28,510.77 403.82,509.73Z" style="fill:rgb(0,48,135);fill-rule:nonzero;"/>
            <path d="M436.37,529.58C441.8,531.66 447.14,531.43 452.83,531.42C445.66,537.2 438.23,544.3 429.7,547.7C424.1,549.99 418.04,552.43 412.02,553.2C404.92,554.16 397.77,553.79 390.74,552.47C396.78,548.39 403.53,545.66 409.58,541.57C416.35,537.43 422.74,532.56 429.7,528.77C431.6,527.45 434.37,529.08 436.37,529.58Z" style="fill:rgb(0,48,135);fill-rule:nonzero;"/>
            <path d="M464.3,538.54C468.47,538.52 472.64,538.78 476.81,538.9C475.24,541.27 473.5,543.49 471.45,545.48C466.34,550.68 460.56,555.97 453.74,558.79C447.53,561.32 441.4,560.83 434.88,560.32C442.29,553.97 450.44,549.22 457.47,542.44C459.45,540.79 461.5,538.39 464.3,538.54Z" style="fill:rgb(0,48,135);fill-rule:nonzero;"/>
            <path d="M244.18,550.5C247.42,549.97 251.73,550.46 252.96,554.06C253.94,558.06 252.34,562.86 250.39,566.38C247.2,571.96 243.5,577.39 239,582C230.76,590.39 222.29,598.98 215.55,608.65C214.03,604.56 211.89,600.72 210.33,596.64C206.81,587.71 202.58,578.76 200.03,569.52C199.01,569.65 197.98,569.79 196.96,569.93C206.43,568.09 215.6,564.85 223.88,559.85C230.29,555.98 236.67,551.97 244.18,550.5Z" style="fill:rgb(255,215,0);fill-rule:nonzero;"/>
            <path d="M543.46,627.82C548.6,637.79 552.21,648.74 553.37,659.93C554.33,667.32 555.21,674.54 554.25,682C552.97,691.61 551.29,701.3 550.7,710.99C550.5,713.13 551.02,715.02 551.73,717.01C558.84,713.17 563.43,707.19 569.42,702.01C569.71,709.35 569.28,716.62 570.21,723.94C571.55,734.33 571.8,744.08 575.77,753.94C579.4,748.82 581.65,743.07 584.73,737.64C589.14,744.42 593.77,751.09 597.97,758C602.87,766.66 608.72,774.72 613.56,783.43C621.56,797.48 630.29,811.32 636.97,826.06C638.81,829.72 638.93,833.38 638.68,837.39C632.53,838.81 624.62,840.43 619.94,844.92C614.39,851.07 613.45,861.16 615.12,868.95C615.4,870.89 616.69,871.7 618.03,872.95C593.44,891.04 568.15,907.92 541.23,922.37C531.06,928.06 520.69,933.42 510.16,938.4C504.77,935.52 499.32,932.77 493.76,930.23C468.48,917.25 443.91,903.7 420.44,887.61C411.36,881.79 402.64,875.47 393.93,869.12C381,859.08 368.05,849.12 355.91,838.11C349.84,833.05 344.32,827.42 338.53,822.05C333.51,822.65 328.57,824.18 323.64,825.33C323.7,832.61 323.48,839.87 323.75,847.16C329.33,847.39 334.71,847.75 340.19,848.96C349.78,851.42 357.63,857.96 362.58,866.45C364.63,869.62 365.03,872.86 368,874.99C380.08,884.65 392.6,893.9 405.33,902.68C426.2,916.56 447.62,929.6 469.89,941.11C483.06,948.47 496.76,954.72 510.19,961.57C549.59,942.82 587.29,921.38 622.33,895.3C637.84,883.72 653.45,871.72 667.77,858.68C673.85,858.74 679.96,858.48 686.03,858.83C689.64,859.01 693.37,860.42 695.21,863.72C696.41,865.86 697.58,867.97 699.08,869.92C690.28,878.88 680.8,887.06 671.39,895.36C660.52,904.51 649.56,913.71 637.98,921.97C620.93,934.84 603.18,946.83 584.93,957.94C574.48,964.65 563.39,970.39 552.61,976.58C538.65,983.95 524.5,991.14 510.02,997.45C447.53,969.21 389.82,931.33 338.22,886.23C343.53,886.46 348.83,886.55 354.14,886.21C353.39,881.96 352.21,877.92 349.66,874.38C345.4,868.56 340.54,863.43 333.31,861.58C325.14,859.45 315.79,860.78 307.37,860.75C307.3,845.57 307.18,830.39 307.43,815.21C314.77,811.32 322.74,808.71 330.32,805.31C346.95,799.07 364.22,793.63 378.48,782.46C385.92,775.98 391.64,767.2 397,758.99C401.17,752.82 403.58,746.24 406.41,739.41C412.1,725.79 417.03,712.17 424.15,699.18C427.64,693.27 431.83,687.75 435.7,682.08C434.17,698.1 430.66,713.91 429.11,729.93C438.2,725.89 447.25,721.87 456.71,718.73C468.08,714.51 479.63,712.07 491.41,709.37C504.85,706.41 518.28,703.49 531.74,700.66C534.47,693.46 535.77,686.07 537.45,678.35C538.76,671.4 540.74,664.75 541.6,657.72C542.95,647.77 543.06,637.83 543.46,627.82Z" style="fill:rgb(8,16,36);fill-rule:nonzero;"/>
            <path d="M289.63,713.05C289.39,723.25 289.51,733.44 289.44,743.65C284.07,737.26 279.72,729.74 275.25,722.72C274.21,721.05 273.54,719.24 272.87,717.4C278.51,716.23 284.09,714.66 289.63,713.05Z" style="fill:rgb(255,215,0);fill-rule:nonzero;"/>
            <path d="M532.18,722.62C533.6,730.14 534.71,737.7 536.27,745.19C541.58,742.72 546.26,739.37 551.26,736.36C552.19,740.74 553.11,745.23 554.48,749.49C556.26,755.26 560.26,760.43 563.13,765.89C565.83,770.58 568.03,775.67 571.13,780.11C575.94,777.92 579.07,772.78 583.57,769.87C593.13,785.27 602.57,800.76 611.51,816.51C613.06,819.53 615.24,822.93 615.56,826.35C612.17,829.14 608.44,831.07 605.66,834.63C599.43,842.02 596.9,851.36 597.17,860.93C587.89,868.22 577.92,874.71 567.9,880.94C564.87,875.28 561.28,869.81 556.21,865.77C549.34,860.18 539.65,858.16 530.99,858.78C525.81,859.02 520.55,860.87 515.41,860.52C512.79,859.05 510.65,856.57 508.5,854.5C499.98,846.06 494.29,836.41 487.1,826.94C483.11,821.42 478.79,816.86 476.55,810.27C484.79,799.12 491.8,786.94 497.14,774.14C500.45,766.28 502.01,758.26 503.61,749.94C505.13,742.39 504.77,734.48 504.62,726.82C513.75,725.11 522.94,723.56 532.18,722.62Z" style="fill:rgb(255,215,0);fill-rule:nonzero;"/>
            <path d="M487.45,731.34C487.53,738.62 487.69,745.79 486.56,753.01C484.41,767.01 478.53,779.29 471,791.13C466.71,797.92 461.24,803.2 458.33,810.87C462.14,816.35 465.38,822.17 469.14,827.68C474.88,836.24 482,843.63 488.03,851.97C495.24,860.05 501.83,868.71 509.84,875.85C515.61,874.81 521.08,873.31 527,873.41C534.07,873.13 541.2,875.31 547.15,879.06C550.93,881.43 553.41,884.82 555.82,888.48C549.31,892.6 542.47,896.09 535.62,899.59C532.67,901.06 529.84,903.05 526.72,904.13C523.09,905.06 519.04,904.08 515.51,903.09C509.5,901.33 503.52,899.55 497.73,897.14C493.74,895.47 489,894.06 485.62,891.35C474.42,881.84 465.12,870.64 454.59,860.43C448.91,853.76 442.7,847.67 436.67,841.34C429.88,833.23 421.93,826.03 415.46,817.7C417.15,811.72 419.3,806.15 420.38,800.01C422.32,789.96 422.14,779.58 418.25,770.01C417.4,767.82 416.2,765.67 415.64,763.38C417.34,760.03 422.22,758.5 425.02,756.03C437.15,746.22 452.71,740.31 467.48,735.73C474.34,734.05 480.26,731.3 487.45,731.34Z" style="fill:rgb(0,48,135);fill-rule:nonzero;"/>
            <path d="M402.92,783.74C405.43,796.45 400.85,806.76 398.93,819.01C398.47,821.15 399.58,822.62 400.68,824.3C403.66,828.51 407.27,832.47 410.68,836.32C424.46,851.82 439.42,866.12 453.59,881.24C436.04,871.42 418.96,859.11 402.71,847.27C388.67,836.37 374.69,825.13 361.99,812.67C368.53,809.06 375.33,805.73 381.53,801.55C389.04,796.17 396.06,789.88 402.92,783.74Z" style="fill:rgb(255,215,0);fill-rule:nonzero;"/>
            <path d="M258.29,833.89C259.36,839.9 260.13,845.98 260.69,852.06C259.87,846.01 259.12,839.94 258.29,833.89Z" style="fill:rgb(255,215,0);fill-rule:nonzero;"/>
            <path d="M684.96,836.36C691.64,836.42 698.32,836.43 705,836.46C709.1,836.51 713.02,836.54 716.91,838.03C719.38,838.98 721.19,840.7 723.21,842.35C725.12,840.46 727.02,839 729.36,837.67C722.02,846.41 714.06,854.51 706.21,862.77C706.85,861.08 707.79,859.11 707.73,857.27C706.97,852.87 704.41,848.84 700.92,846.06C696.13,842.2 690.39,839.22 684.96,836.36Z" style="fill:rgb(8,16,36);fill-rule:nonzero;"/>
        </g>
    </g>
</svg>
