<?xml version="1.0" encoding="UTF-8" standalone="no"?>
<!DOCTYPE svg PUBLIC "-//W3C//DTD SVG 1.1//EN" "http://www.w3.org/Graphics/SVG/1.1/DTD/svg11.dtd">
<svg width="100%" height="100%" viewBox="0 0 512 512" version="1.1" xmlns="http://www.w3.org/2000/svg" xmlns:xlink="http://www.w3.org/1999/xlink" xml:space="preserve" xmlns:serif="http://www.serif.com/" style="fill-rule:evenodd;clip-rule:evenodd;stroke-linejoin:round;stroke-miterlimit:2;">
    <g transform="matrix(1,0,0,1,-0.404239,-0.121785)">
        <g transform="matrix(1,0,0,1,-1938,-9325)">
            <g id="Dragon" transform="matrix(1,0,0,1,-1660.595761,9325.121785)">
                <rect x="3599" y="0" width="512" height="512" style="fill:none;"/>
                <g transform="matrix(0.27639,0,0,0.27639,3571.765646,-30.790437)">
                    <path d="M1222.41,156.628C1226.24,159.939 1236.02,177.059 1239.28,182.111C1264.57,221.237 1282.65,255.913 1287.67,303.517C1293.56,359.326 1276.19,414.41 1241.07,458.013C1260.87,454.251 1280.71,450.678 1300.58,447.296C1294.66,457.091 1281.93,472.599 1274.62,481.566C1312.16,468.745 1351.25,461.012 1390.85,458.574C1443.68,455.105 1478.32,459.609 1532.37,442.517C1622.15,414.122 1667.95,341.066 1704.28,259.79C1715.46,234.799 1727.19,202.062 1739.21,178.189C1746.16,192.286 1752.52,215.649 1757.62,230.972C1786.09,316.485 1792.78,405.753 1754.55,489.812C1713,581.18 1643.56,628.966 1552.67,663.228C1607.56,676 1651.46,692.273 1702.58,715.718C1714.92,721.378 1733.84,728.441 1744.63,734.976C1694.07,747.38 1643.88,761.275 1594.14,776.642C1614.22,788.699 1632.14,798.478 1651.34,812.468C1710.35,855.456 1750.49,921.392 1786.17,984.243C1770.78,980.706 1754.82,975.083 1739.46,971.089C1717.09,965.27 1694.42,959.744 1671.87,954.713C1726.34,1005.45 1764.78,1082.25 1781.35,1154.1C1787.92,1182.6 1791.94,1212.7 1798.83,1240.73C1787.56,1233.51 1775.95,1223.46 1765.11,1215.46C1741.6,1198.1 1712.11,1174.75 1687.03,1160.22C1747.02,1264.35 1740.88,1339.9 1737.52,1454.45C1724.05,1436.82 1706.84,1419.87 1692.67,1402.62C1684.62,1392.81 1674.45,1381.91 1665.22,1373.34C1666.9,1390.32 1668.8,1409.34 1668.68,1426.45C1668.32,1474.41 1659.84,1522.91 1651.66,1570.1C1630.68,1539.18 1615.94,1509.18 1591.48,1477.54C1512.6,1572.53 1390.21,1664.75 1281.37,1721.24C1215.31,1755.52 1137.44,1786.21 1067.91,1814.53C1076.32,1805.93 1085.15,1797.8 1093.93,1789.58C1115.82,1768.68 1143.25,1742.54 1165.87,1722.89C1121.48,1738.64 1071.97,1750.14 1026.92,1764.44C950.196,1788.78 877.141,1819.3 810.293,1864.58C784.969,1881.73 761.592,1900.26 737.255,1918.63C738.835,1900.95 739.452,1880.39 739.931,1862.92C742.383,1773.5 763.625,1699.72 809.164,1622.5C839.551,1570.97 891.294,1509.4 893.144,1448.06C893.315,1442.37 889.91,1433.61 885.105,1430.18C867.473,1416.95 845.103,1434.85 830.221,1444.53C793.009,1468.71 756.732,1497.69 731.55,1534.66C740.143,1573.57 757.055,1594.86 778.454,1627.64C717.051,1636.42 692.231,1637.74 631.357,1622.12C637.01,1642.27 642.847,1662.36 648.866,1682.4C584.802,1668.11 565.291,1669.06 505.079,1636.09C503.858,1654.34 503.718,1673.53 501.789,1691.59C468.793,1657.84 432.817,1628.22 410.006,1586.06C405.635,1577.85 401.972,1569.29 399.057,1560.46C397.603,1555.98 392.754,1537.29 390.465,1535.1C350.625,1496.97 343.147,1470.36 365.661,1419.52C362.12,1414.59 351.839,1404.08 346.941,1399.13C337.363,1389.45 329.697,1379.4 321.015,1369.53C310.444,1357.5 303.116,1338.05 294.881,1327.69C283.521,1313.39 276.484,1313.93 267.796,1292.74C262.127,1278.92 260.594,1271.35 257.061,1257.72C246.568,1217.22 249.242,1197.3 263.649,1159.28C260.976,1149.62 259.153,1139.75 258.2,1129.77C255.284,1095.73 276.234,1065.63 295.206,1038.85C304.072,1026.33 315.691,1023.97 330.058,1022.75C359.436,936.068 391.303,908.06 450.934,843.476C453.042,882.995 456.34,923.389 463.725,962.25C466.922,961.435 470.531,960.246 473.722,959.281C487.193,940.626 494.533,932.09 514.59,921.031C518.246,919.016 527.081,908.638 530.408,904.844C525.582,892.498 516.663,870.801 519.512,858.534C522.638,845.08 546.226,767.2 554.058,762.122C597.653,733.859 627.715,737.05 649.929,682.914C667.95,638.997 700.179,594.885 725.978,554.95C728.433,564.418 732.238,584.248 735.502,591.997C740.865,592.459 747.202,576.984 749.63,571.871C772.825,523.029 802.041,483.217 844.688,449.676C892.334,412.203 941.222,396.126 1000.32,387.434C1038.91,381.758 1081.64,374.987 1115.78,355.128C1165.97,325.925 1194.02,282.009 1207.34,226.25C1212.76,203.56 1216.67,178.744 1222.41,156.628Z" style="fill:rgb(254,254,254);fill-rule:nonzero;"/>
                </g>
                <g transform="matrix(0.27639,0,0,0.27639,3571.765646,-30.790437)">
                    <path d="M1236.03,231.704C1242.12,242.929 1248.62,259.306 1252.03,271.501C1278.71,360.704 1237.38,445.545 1158.78,491.677C1138.81,503.678 1117.36,514.546 1096.25,524.366C1073.57,534.92 1066.96,538.89 1054.85,560.879C1118.07,518.247 1160.95,504.64 1235.25,488.237C1215.07,511.274 1201.65,529.563 1188.79,557.557C1203.18,549.726 1216.81,539.611 1231.61,531.811C1290.15,500.971 1353.87,486.954 1419.85,486.516C1466.45,485.642 1513.65,481.818 1557.42,464.686C1650,428.447 1698.48,344.181 1735.92,258.312C1753.19,315.444 1759.18,368.881 1745.77,426.829C1719.85,538.76 1635.26,609.325 1528.54,640.212C1489.49,651.514 1442.57,664.036 1408.05,685.322C1516.66,679.818 1558.14,688.349 1658,727.964C1603.22,742.997 1571.37,751.071 1520.39,776.932C1584.74,800.058 1644.18,833.95 1688.44,887.061C1702.86,904.372 1712.66,920.605 1725.92,938.193C1670.54,922.127 1629.14,915.53 1572.26,915.803C1685.98,991.765 1722.58,1043.34 1757.41,1174.45C1705.35,1134.98 1671.13,1112.43 1605.71,1097.03C1620.66,1113.83 1634.43,1131.64 1646.93,1150.33C1699.29,1227.26 1710.59,1290.09 1712.03,1380.69C1683.17,1349.42 1655.38,1318.32 1618.29,1296.37C1641.92,1363.6 1643.25,1421.48 1635.58,1490.9C1623.67,1473.37 1605.45,1447.27 1591.6,1431.64C1522.25,1525.48 1413.27,1611.3 1313.48,1670.75C1277.17,1692.38 1236.62,1711.79 1198.19,1729.47C1200.46,1727.01 1203.79,1724.25 1206.35,1721.99C1232.64,1699.21 1278.21,1655.84 1300.52,1629.64C1264.12,1652.1 1225.61,1670.93 1185.53,1685.86C1136.92,1703.84 1087.13,1716.59 1037.53,1731.43C941.889,1760.04 847.653,1798.55 768.146,1860.24C778.578,1737.68 798.131,1687.95 867.404,1583.37C891.603,1546.84 930.996,1481.48 920.577,1436.4C917.578,1424.16 908.578,1409.84 897.268,1403.67C867.419,1387.39 844.454,1401.35 819.257,1417.73C775.405,1446.25 727.006,1483.53 701.608,1529.93C706.717,1560.67 713.849,1579.36 730.781,1605C695.265,1607.99 666.052,1604.14 632.594,1591.48C622.743,1587.76 602.601,1574.49 593.832,1574.48L592.778,1575.98C592.495,1591.67 603.862,1630.75 608.89,1645.58C555.455,1632.32 525.491,1621.18 483.569,1583.3C479.307,1597.16 478.544,1613.08 477.838,1627.51C445.009,1597.48 426.138,1563.86 419.085,1520.45C382.201,1493.14 370.177,1467.73 395.365,1426.27C393.619,1388.41 395.022,1365.87 412.365,1331.15C421.368,1349.73 433.106,1366.84 447.188,1381.93C453.366,1365.37 458.037,1357.82 469.103,1344.02C456.106,1331.86 449.263,1322.06 440.06,1307.2C405.839,1330.21 383.684,1345.09 374.239,1386.07C360.526,1372.71 346.616,1357.24 336.169,1341.13C330.73,1332.75 323.069,1316.98 317.732,1309.74C311.974,1301.94 300.844,1297.12 295.426,1285.38C290.221,1274.11 289.054,1265.49 285.845,1254.59C273.648,1213.15 279.499,1199.41 292.979,1160.47C287.973,1139.86 281.442,1119.88 291.8,1100.27C299.64,1085.42 306.314,1068.98 317.838,1056.42C324.679,1048.97 343.178,1050.97 352.773,1050.96C366.833,990.11 389.322,955.931 427.794,909.529C429.511,942.305 436.037,974.65 447.163,1005.53C464.236,996.686 465.66,989.58 487.873,986.557C510.228,962.281 501.609,958.686 534.634,945.108C544.916,929.591 551.252,922.311 565.476,910.466C561.906,904.215 558.733,897.746 555.975,891.096C543.191,860.57 550.005,853.626 560.135,823.618C564.799,809.802 569.509,795.974 575.049,782.39C596.719,772.741 634.32,753.439 651.506,736.434C663.66,724.407 679.805,686.39 688.487,669.771C696.969,653.533 704.776,639.158 714.243,622.851C716.876,637.769 719.818,652.631 723.067,667.427C734.65,640.048 737.048,627.239 762.962,611.826C792.435,536.984 845.955,469.284 921.466,437.198C987.073,409.255 1061.21,418.565 1124.51,383.395C1167.59,359.46 1199.94,324.94 1219.74,279.589C1226.74,263.557 1231.16,248.41 1236.03,231.704Z" style="fill-rule:nonzero;"/>
                </g>
                <g transform="matrix(0.27639,0,0,0.27639,3571.765646,-30.790437)">
                    <path d="M991.291,726.227C1002.65,695.345 1007.4,690.695 1034.17,671.455C1050.79,659.506 1056.36,653.975 1076.52,647.394C1074.59,654.572 1073.89,659.175 1072.81,666.564C1049.02,680.117 1044.41,686.638 1038.62,713.298C1037.53,718.246 1036.7,722.127 1036.05,727.204C1037.61,767.752 1064.95,757.889 1070.03,788.096C1072.74,804.187 1049.54,838.918 1038.74,851.577C1058.68,847.564 1084.07,845.26 1104.26,847.083C1088.16,859.711 1065.96,872.359 1048.64,883.802C1068.17,884.655 1083.32,884.042 1101.45,891.588C1096.38,901.504 1092.24,910.182 1084.84,918.638C1080.7,919.915 1076.45,921.295 1072.28,922.415C1062.47,916.624 1053.55,912.475 1041.97,911.691C1035.48,911.252 1023.51,910.216 1019.78,916.55C1024.22,921.377 1038.95,922.309 1045.62,924.858C1050.44,926.697 1052.79,928.232 1057.12,931.053C1049.34,945.319 1041.99,956.389 1027.98,965.395C1017.48,962.064 998.054,956.013 987.567,962.026L987.655,963.628C992.636,967.82 1001.46,970.271 1007.96,972.524L1016.03,977.025C1013.56,980.799 1010.69,985.492 1008.07,989.051C1002.9,995.942 997.058,1004.15 991.485,1010.57C917.662,1014.91 856.576,1033.22 798.413,1080.7C851.722,1055.88 905.727,1043.44 964.693,1048.18C973.237,1048.86 994.798,1051.85 1002.68,1054.7C1017.01,1058.47 1032.07,1062.96 1044.85,1070.61C1022.14,1066.76 1000.21,1065.93 977.272,1065.72C921.156,1067.12 870.194,1079.59 819.387,1104.85C805.442,1111.79 791.456,1123.18 778.237,1130.68C777.212,1121.7 776.597,1114.89 774.378,1106.07L774.046,1104.69C764.34,1135.88 760.678,1150.32 727.907,1163.74C716.569,1133.19 708.509,1118.84 675.417,1108.62C692.788,1128.16 703.517,1143.92 702.509,1171.18C701.642,1194.61 684.434,1205.19 664.592,1213.24C656.265,1217.53 648.425,1220.87 639.311,1223.28C623.687,1227.54 611.755,1230.68 595.46,1232.55C610.167,1201.47 616.227,1198.1 613.088,1163.08C601.961,1188.94 593.205,1222.8 562.426,1237.03C555.825,1240.08 523.873,1245.96 514.312,1247.96C515.645,1234.59 518.247,1223.08 520.835,1209.93C506.866,1224.15 501.938,1234.64 493.951,1252.99C448.82,1267.17 409.663,1287.96 375.479,1321.11C373.239,1323.28 372.253,1325.65 369.098,1326.39C366.843,1324.69 367.496,1325.45 366.258,1322.95C358.501,1314.68 351.846,1304.29 344.769,1296.23C328.283,1277.47 319.517,1270.48 313.906,1244.98C308.397,1219.93 306.553,1214.29 313.314,1189.16C318.497,1196.54 323.944,1203.73 329.645,1210.71C326.519,1182.46 315.215,1146.55 315.496,1119.36C315.554,1113.69 331.186,1087.83 335.266,1080.91L349.31,1080.71L347.66,1096.18C349.235,1116.78 353.892,1136.59 364.165,1154.73L365.535,1144.32L366.134,1145.98C367.168,1145.95 381.974,1135.84 387.031,1133.35C390.19,1133.44 396.87,1130.67 399.895,1129.22C428.47,1115.54 457.262,1091.38 469.373,1061.69L464.614,1051.26C461.536,1045.48 459.201,1039.32 456.714,1033.25C478.771,1019.81 480.839,1014.02 508.666,1013.13C539.401,1012.15 563.275,1014.9 592.944,1022.36C595.464,1022.79 596.766,1022.73 599.297,1022.8L599.87,1021.57C588.078,1008.76 563.74,1002.21 547.332,998.772C536.814,996.99 527.301,996.378 516.738,995.792C521.429,987.981 526.816,980.611 532.834,973.77C573.004,962.304 604.847,962.652 644.263,975.373C648.784,976.498 657.905,979.907 662.661,981.521C657.169,973.835 654.52,971.322 647.71,964.778C620.551,948.517 599.028,946.839 568.464,946.66C590.64,923.023 632.905,909.212 664.35,917.151C687.399,926.113 701.516,947.828 724.192,960.181C710.975,967.655 692.741,975.739 682.73,986.957C677.467,994.418 676.023,1000.64 669.129,1007.01C660.19,1015.28 638.953,1021.14 631.357,1029.24C614.015,1047.74 596.289,1066.19 578.135,1083.93C574.437,1076.18 571.671,1069.66 566.327,1062.88C547.883,1059.49 513.369,1054.59 498.266,1066.5C485.435,1076.61 460.273,1095.51 453.156,1109.85C475.845,1093.4 504.326,1076.73 533.654,1080.2C559.299,1083.24 561.205,1112.79 558.212,1133.2C554.27,1151.19 548.153,1159.64 538.488,1175.14C571.044,1155.37 591.681,1129.7 589.469,1090.51C594.39,1083.91 599.475,1078.7 606.788,1074.75C651.104,1043.91 682.851,1045.41 734.949,1049.31C736.755,1049.36 738.619,1049.33 740.431,1049.32L740.796,1048.22C731.213,1039.63 691.821,1032.77 678.04,1031.54C684.624,1027.28 691.325,1023.21 698.135,1019.32C700.123,1017.73 705.663,1013.31 707.594,1012.15C723.929,1002.4 758.831,1007.36 776.308,1010.98C785.224,1011.18 806.453,1017.76 815.572,1020.56C797.062,1004.14 785.06,1000.03 762.295,991.457C756.212,990.431 750.403,988.678 744.46,987.027C751.743,984.45 755.738,983.148 763.241,981.54C788.983,970.774 819.984,988.151 845.932,993.171C865.37,996.963 885.427,996.128 904.482,990.734C937.501,981.145 960.13,961.872 976.481,932.079C961.063,947.239 948.303,957.683 927.728,965.731C899.015,976.962 859.65,977.518 831.289,964.974C884.913,961.821 919.465,949.216 948.674,900.652C953.021,893.425 957.775,879.711 963.614,875.295L964.721,876.174C967.565,894.391 959.758,914.286 951.674,930.139C960.567,922.253 964.856,918.603 971.924,909.051C983.521,893.379 990.628,872.986 1007.76,862.648C1016.44,857.406 1025.59,854.94 1035.2,851.986C1018.79,843.667 1006.03,840.833 987.958,838.515C1001.65,819.764 1015.32,809.215 1031.04,792.575C988.463,801.188 968.598,807.164 927.805,822.758C931.509,813.514 937.598,802.001 942.067,792.785C903.677,814.62 874.838,844.314 841.661,872.982C820.35,891.395 796.344,914.372 770.224,925.197C755.152,928.924 737.34,927.041 727.938,913.954C698.038,872.332 792.132,816.433 818.995,795.533C799.43,801.012 741.844,834.654 726.42,848.44C719.019,855.039 712.785,862.84 707.98,871.513C700.943,884.083 698.612,894.189 695.508,908.106C689.188,903.371 679.029,896.813 678.455,888.532C677.009,867.673 692.676,839.077 702.043,821.576C679.51,842.946 665.163,861.232 650.582,888.19C649.128,890.879 643.208,892.738 640.263,890.47C638.557,879.65 646.505,841.74 648.956,828.737C640.187,844.582 622.253,879.45 611.005,891.429C607.613,893.336 599.155,896.828 595.258,898.554C577.943,871.341 578.696,866.52 588.997,836.749C592.36,827.149 595.406,817.442 598.131,807.642C624.12,795.066 641.523,783.078 665.128,766.698L659.733,784.013C658.933,790.83 657.021,804.704 657.207,811.057C693.852,750.019 720.813,721.309 784.963,687.946C781.547,694.419 778.074,700.863 774.545,707.277C758.606,743.551 755.454,755.258 744.754,792.821C755.409,783.963 770.391,774.336 782.147,766.541C846.239,724.045 904.833,699.195 978.404,679.617C968.84,689.976 950.986,709.567 940.468,715.841C909.773,734.152 882.756,744.221 864.514,777.89C860.933,784.498 853.998,795.902 852.848,803.855C865.788,783.374 885.975,762.559 908.921,754.211C939.323,743.15 953.73,730.02 977.484,708.539C976.055,722.467 974.912,730.237 974.671,744.307C974.863,751.164 976.711,760.888 977.837,767.929C981.71,754.416 986.296,739.265 991.291,726.227Z" style="fill:rgb(204,0,34);fill-rule:nonzero;"/>
                </g>
                <g transform="matrix(0.27639,0,0,0.27639,3571.765646,-30.790437)">
                    <path d="M335.266,1080.91L349.31,1080.71L347.66,1096.18C338.004,1112.44 336.123,1133.45 337.763,1151.98C338.343,1158.54 340.934,1173.88 340.667,1179.61C339.321,1208.39 336.534,1235.22 343.71,1263.8C347.301,1278.1 353.603,1291.56 359.264,1305.15C361.25,1309.91 365.238,1318.13 366.258,1322.95C358.501,1314.68 351.846,1304.29 344.769,1296.23C328.283,1277.47 319.517,1270.48 313.906,1244.98C308.397,1219.93 306.553,1214.29 313.314,1189.16C318.497,1196.54 323.944,1203.73 329.645,1210.71C326.519,1182.46 315.215,1146.55 315.496,1119.36C315.554,1113.69 331.186,1087.83 335.266,1080.91Z" style="fill:rgb(254,254,254);fill-rule:nonzero;"/>
                </g>
                <g transform="matrix(0.27639,0,0,0.27639,3571.765646,-30.790437)">
                    <path d="M818.995,795.533L823.543,793.598L824.287,794.159C803.101,817.722 780.454,840.225 760.74,865.031C753.539,874.092 744.743,887.017 746.611,899.032C748.837,913.357 758.543,919.463 770.224,925.197C755.152,928.924 737.34,927.041 727.938,913.954C698.038,872.332 792.132,816.433 818.995,795.533Z" style="fill:rgb(254,254,254);fill-rule:nonzero;"/>
                </g>
                <g transform="matrix(0.27639,0,0,0.27639,3571.765646,-30.790437)">
                    <path d="M453.156,1109.85C475.845,1093.4 504.326,1076.73 533.654,1080.2C559.299,1083.24 561.205,1112.79 558.212,1133.2C552.681,1121.48 549.261,1105.76 537.247,1098.61C525.266,1091.47 504.284,1099.88 493.019,1105.63C470.948,1116.89 449.058,1132.45 433.772,1152.11C425.781,1162.4 419.676,1174.66 413.145,1185.94C417.49,1164.42 425.436,1145.67 438.311,1127.74C442.54,1121.85 448.506,1115.81 453.156,1109.85Z" style="fill:rgb(254,254,254);fill-rule:nonzero;"/>
                </g>
                <g transform="matrix(0.27639,0,0,0.27639,3571.765646,-30.790437)">
                    <path d="M598.131,807.642C624.12,795.066 641.523,783.078 665.128,766.698L659.733,784.013C651.837,790.533 619.132,814.501 615.296,820.654C604.084,838.636 595.982,872.904 611.005,891.429C607.613,893.336 599.155,896.828 595.258,898.554C577.943,871.341 578.696,866.52 588.997,836.749C592.36,827.149 595.406,817.442 598.131,807.642Z" style="fill:rgb(254,254,254);fill-rule:nonzero;"/>
                </g>
                <g transform="matrix(0.27639,0,0,0.27639,3571.765646,-30.790437)">
                    <path d="M852.848,803.855C865.788,783.374 885.975,762.559 908.921,754.211C939.323,743.15 953.73,730.02 977.484,708.539C976.055,722.467 974.912,730.237 974.671,744.307L973.949,745.705C971.562,743.272 970.18,739.198 968.786,735.936C954.6,746.311 927.287,768.667 910.78,771.329C897.649,773.447 846.929,809.711 850.441,810.119C851.302,807.443 851.591,806.427 852.848,803.855Z" style="fill:rgb(254,254,254);fill-rule:nonzero;"/>
                </g>
                <g transform="matrix(0.27639,0,0,0.27639,3571.765646,-30.790437)">
                    <path d="M784.963,687.946C781.547,694.419 778.074,700.863 774.545,707.277C744.479,725.951 717.531,753.086 691.965,777.371C687.768,781.357 658.223,813.373 657.509,813.604L657.207,811.057C693.852,750.019 720.813,721.309 784.963,687.946Z" style="fill:rgb(254,254,254);fill-rule:nonzero;"/>
                </g>
                <g transform="matrix(0.27639,0,0,0.27639,3571.765646,-30.790437)">
                    <path d="M991.291,726.227C1002.65,695.345 1007.4,690.695 1034.17,671.455C1050.79,659.506 1056.36,653.975 1076.52,647.394C1074.59,654.572 1073.89,659.175 1072.81,666.564C1049.02,680.117 1044.41,686.638 1038.62,713.298C1037.53,718.246 1036.7,722.127 1036.05,727.204C1033.48,720.931 1031.06,705.888 1029.66,698.596C1017.42,706.553 1003.14,717.461 991.291,726.227Z" style="fill:rgb(254,254,254);fill-rule:nonzero;"/>
                </g>
                <g transform="matrix(0.27639,0,0,0.27639,3571.765646,-30.790437)">
                    <path d="M456.714,1033.25C478.771,1019.81 480.839,1014.02 508.666,1013.13C539.401,1012.15 563.275,1014.9 592.944,1022.36C583.727,1023.49 567.562,1023.11 557.841,1022.84C517.881,1021.72 497.229,1029.52 464.614,1051.26C461.536,1045.48 459.201,1039.32 456.714,1033.25Z" style="fill:rgb(254,254,254);fill-rule:nonzero;"/>
                </g>
                <g transform="matrix(0.27639,0,0,0.27639,3571.765646,-30.790437)">
                    <path d="M532.834,973.77C573.004,962.304 604.847,962.652 644.263,975.373C608.434,979.38 574.042,963.249 547.332,998.772C536.814,996.99 527.301,996.378 516.738,995.792C521.429,987.981 526.816,980.611 532.834,973.77Z" style="fill:rgb(254,254,254);fill-rule:nonzero;"/>
                </g>
                <g transform="matrix(0.27639,0,0,0.27639,3571.765646,-30.790437)">
                    <path d="M568.464,946.66C590.64,923.023 632.905,909.212 664.35,917.151L663.432,917.415C637.062,924.817 629.912,921.429 608.441,944.125C619.262,947.957 640.706,955.218 647.71,964.778C620.551,948.517 599.028,946.839 568.464,946.66Z" style="fill:rgb(254,254,254);fill-rule:nonzero;"/>
                </g>
                <g transform="matrix(0.27639,0,0,0.27639,3571.765646,-30.790437)">
                    <path d="M606.788,1074.75C651.104,1043.91 682.851,1045.41 734.949,1049.31C723.914,1055.3 662.697,1056.46 646.615,1064.23C644.435,1065.29 608.271,1074.73 606.788,1074.75Z" style="fill:white;fill-rule:nonzero;"/>
                </g>
                <g transform="matrix(0.27639,0,0,0.27639,3571.765646,-30.790437)">
                    <path d="M666.315,1153.01C669.85,1170 667.113,1196.03 664.592,1213.24C656.265,1217.53 648.425,1220.87 639.311,1223.28C651.737,1199.41 659.234,1178.82 666.315,1153.01Z" style="fill:rgb(254,254,254);fill-rule:nonzero;"/>
                </g>
                <g transform="matrix(0.27639,0,0,0.27639,3571.765646,-30.790437)">
                    <path d="M698.135,1019.32C700.123,1017.73 705.663,1013.31 707.594,1012.15C723.929,1002.4 758.831,1007.36 776.308,1010.98C767.147,1012.67 750.334,1012.03 739.693,1012.96C727.809,1013.99 708.568,1018.92 698.135,1019.32Z" style="fill:rgb(254,254,254);fill-rule:nonzero;"/>
                </g>
                <g transform="matrix(0.27639,0,0,0.27639,3571.765646,-30.790437)">
                    <path d="M1002.68,1054.7C1017.01,1058.47 1032.07,1062.96 1044.85,1070.61C1022.14,1066.76 1000.21,1065.93 977.272,1065.72C982.98,1061.99 1003.5,1068.04 1007.36,1061.34C1006.17,1057.24 1006.1,1057.48 1002.68,1054.7Z" style="fill:rgb(204,0,34);fill-rule:nonzero;"/>
                </g>
                <g transform="matrix(0.27639,0,0,0.27639,3571.765646,-30.790437)">
                    <path d="M1007.96,972.524L1016.03,977.025C1013.56,980.799 1010.69,985.492 1008.07,989.051C1007.93,983.543 1007.9,978.033 1007.96,972.524Z" style="fill:rgb(204,0,34);fill-rule:nonzero;"/>
                </g>
                <g transform="matrix(0.27639,0,0,0.27639,3571.765646,-30.790437)">
                    <path d="M744.46,987.027C751.743,984.45 755.738,983.148 763.241,981.54L761.985,982.547C760.218,983.951 758.808,984.853 756.916,986.079L757.071,987.594C758.458,988.567 761.157,990.387 762.295,991.457C756.212,990.431 750.403,988.678 744.46,987.027Z" style="fill:rgb(204,0,34);fill-rule:nonzero;"/>
                </g>
                <g transform="matrix(0.27639,0,0,0.27639,3571.765646,-30.790437)">
                    <path d="M523.393,1118.3C524.573,1118.36 523.797,1118.22 525.477,1119.42C525.019,1171.5 504.488,1169.48 466.177,1187.69C453.813,1193.57 439.351,1210.48 430.908,1221.34L430.52,1221.67L429.487,1221.57C438.432,1173.69 472.478,1125.76 523.393,1118.3Z" style="fill-rule:nonzero;"/>
                </g>
                <g transform="matrix(0.27639,0,0,0.27639,3571.765646,-30.790437)">
                    <path d="M1056.78,1048.61C1077.81,1040.71 1088.96,1034.65 1112.27,1039.3C1133.24,1043.49 1144.82,1047.59 1157.59,1066.77C1150.93,1077.66 1144.23,1085.69 1136.12,1095.53C1151.76,1091.14 1164.63,1083.63 1180.07,1078.65C1167.51,1118.35 1167.68,1119.06 1129.91,1136.81C1128.71,1123.73 1128.81,1117.58 1123.8,1105.24C1112.88,1117.33 1114.85,1124.49 1105.91,1135.82C1102.06,1140.7 1081.98,1148.79 1080.59,1155.83C1087.06,1159.33 1108.63,1151.88 1116.68,1149.9C1110.42,1181.29 1107.95,1187.24 1075.8,1193.09C1084.21,1152.41 1075.85,1145.02 1039.63,1168.36C1047.29,1168.32 1054.95,1168.16 1062.61,1167.88C1061.17,1178 1060.32,1190.74 1050.85,1196.71C1039.78,1203.68 1016.59,1208.08 1003.43,1211.21C1009.29,1212.67 1015.9,1214.18 1021.63,1215.85C994.529,1259.83 1000.04,1243.34 954.648,1260.74C980.395,1261.65 1018.81,1263.59 1044.12,1268.62C1018.32,1280.72 998.41,1285.3 971.475,1293.8C954.636,1299.2 938.028,1305.3 921.691,1312.07C917.063,1312.36 915.979,1312.83 912.199,1310.62L928.499,1295.41C844.855,1332.81 766.405,1394.32 707.966,1464.54C713.963,1443.48 720.772,1430.43 730.909,1411.35C698.575,1434.06 682.825,1457.68 667.885,1492.95C651.274,1492.11 630.065,1492.65 613.631,1495.68C603.49,1507.66 597.584,1524.07 593.076,1539.04C558.528,1530.98 551.118,1525.17 521.221,1514.6C535.718,1538 541.892,1537.61 556.611,1554.66C558.789,1572.9 560.19,1582.47 565.14,1600.54C521.417,1583.64 500.273,1560.98 472.543,1524.53C467.247,1535.09 464.098,1545.95 460.318,1557.15C451.788,1539.35 449.215,1525.46 447.364,1505.67C444.853,1503.39 442.3,1501 439.743,1498.78C426.395,1490.57 414.816,1480.49 408.567,1465.84L411.756,1449.4C439.441,1477.27 479.981,1477.19 516.572,1477.99C581.416,1479.4 623.172,1448.85 673.69,1415.51C679.012,1410.28 701.945,1393.11 709.199,1387.36C724.514,1375.2 743.79,1357.27 759.111,1346.44C786.825,1320.29 832.782,1292.08 854.565,1262.86C908.879,1190.01 916.747,1107.76 1024.36,1095.45C1010.61,1103.04 993.58,1112.94 982.119,1123.43C979.546,1130.08 966.003,1147.98 961.482,1155.5C947.965,1178.43 936.726,1202.63 927.925,1227.75C956.877,1182.96 1010.24,1109.23 1064.85,1094.88C1076.12,1091.92 1098.05,1094.96 1110,1096.95C1091.99,1073.39 1083.63,1063.62 1056.78,1048.61Z" style="fill:rgb(204,0,34);fill-rule:nonzero;"/>
                </g>
                <g transform="matrix(0.27639,0,0,0.27639,3571.765646,-30.790437)">
                    <path d="M759.111,1346.44C786.825,1320.29 832.782,1292.08 854.565,1262.86C908.879,1190.01 916.747,1107.76 1024.36,1095.45C1010.61,1103.04 993.58,1112.94 982.119,1123.43C931.604,1155.55 903.189,1235.26 864.102,1278.25C847.423,1296.59 817.265,1316.68 795.413,1327.78C787.532,1331.78 765.618,1345.36 759.111,1346.44Z" style="fill:rgb(254,254,254);fill-rule:nonzero;"/>
                </g>
                <g transform="matrix(0.27639,0,0,0.27639,3571.765646,-30.790437)">
                    <path d="M673.69,1415.51C670.923,1420.44 659.969,1430.74 655.639,1434.89C631.468,1458.1 605.564,1479.83 572.477,1488.78C526.144,1501.32 475.523,1497.05 430.442,1481.89C432.492,1485.43 439.035,1495.69 439.743,1498.78C426.395,1490.57 414.816,1480.49 408.567,1465.84L411.756,1449.4C439.441,1477.27 479.981,1477.19 516.572,1477.99C581.416,1479.4 623.172,1448.85 673.69,1415.51Z" style="fill:rgb(254,254,254);fill-rule:nonzero;"/>
                </g>
                <g transform="matrix(0.27639,0,0,0.27639,3571.765646,-30.790437)">
                    <path d="M1177.96,1464.64L1190.65,1453.16C1189.58,1459.58 1188.62,1465.98 1187.1,1472.3C1183.93,1487.02 1171.12,1532.01 1162.38,1543.18C1123.22,1593.3 1056.72,1604.6 999.065,1619.84C974.389,1626.37 950.915,1637.05 927.666,1646.31C924.557,1648.37 919.672,1650.97 916.315,1652.9C912.683,1628.54 910.686,1615.95 902.536,1592.5C920.549,1564.1 929.574,1546.82 943.784,1517.48C956.725,1537.65 960.746,1551.22 965.376,1574.94C980.509,1560.01 1080.62,1522.76 1104.73,1509.14C1117.2,1502.09 1136.56,1493.82 1150.01,1484.57C1159.02,1478.38 1169.11,1470.68 1177.96,1464.64Z" style="fill:rgb(204,0,34);fill-rule:nonzero;"/>
                </g>
                <g transform="matrix(0.27639,0,0,0.27639,3571.765646,-30.790437)">
                    <path d="M902.536,1592.5C920.549,1564.1 929.574,1546.82 943.784,1517.48C956.725,1537.65 960.746,1551.22 965.376,1574.94C958.489,1588.62 951.35,1602.18 943.962,1615.59C939.044,1624.52 931.431,1637.35 927.666,1646.31C924.557,1648.37 919.672,1650.97 916.315,1652.9C912.683,1628.54 910.686,1615.95 902.536,1592.5Z" style="fill:rgb(254,254,254);fill-rule:nonzero;"/>
                </g>
                <g transform="matrix(0.27639,0,0,0.27639,3571.765646,-30.790437)">
                    <path d="M1177.96,1464.64L1190.65,1453.16C1189.58,1459.58 1188.62,1465.98 1187.1,1472.3C1186.73,1468.98 1186.7,1467.21 1185.45,1464.05C1182.01,1462.56 1182.67,1463.24 1177.96,1464.64Z" style="fill:rgb(204,0,34);fill-rule:nonzero;"/>
                </g>
                <g transform="matrix(0.27639,0,0,0.27639,3571.765646,-30.790437)">
                    <path d="M1487.15,747.384C1467.68,793.035 1422.75,860.218 1385.54,893.849C1374.71,903.641 1354.61,915.418 1341.01,921.005C1337.08,922.58 1333.12,924.08 1329.13,925.504C1307.55,937.087 1275.39,935.928 1253.16,927.06C1292.79,914.658 1324.35,899.003 1355.19,870.789C1331.52,877.18 1314.14,878.08 1290.08,878.131C1323.05,862.374 1356.09,849.463 1388.27,832.986C1402.62,825.639 1417.45,814.38 1430.82,805.202C1437.36,797.639 1444.54,791.159 1451.1,783.808C1424.51,795.233 1392.74,814.553 1364.06,819.982C1357.41,824.101 1335.46,829.733 1327.48,831.652C1267.29,846.121 1252.42,861.356 1214.98,907.793C1203.06,904.37 1167.72,892.193 1157.58,886.467C1157.87,883.685 1157.47,885.06 1160.14,882.526C1195.53,833.696 1247.09,809.698 1305.26,801.532C1381.8,790.791 1418.8,790.898 1487.15,747.384Z" style="fill:rgb(254,254,254);fill-rule:nonzero;"/>
                </g>
                <g transform="matrix(0.27639,0,0,0.27639,3571.765646,-30.790437)">
                    <path d="M1430.82,805.202C1416.65,838.026 1387.56,877.653 1360.88,901.308C1353.85,907.538 1332.62,921.668 1329.13,925.504C1307.55,937.087 1275.39,935.928 1253.16,927.06C1292.79,914.658 1324.35,899.003 1355.19,870.789C1331.52,877.18 1314.14,878.08 1290.08,878.131C1323.05,862.374 1356.09,849.463 1388.27,832.986C1402.62,825.639 1417.45,814.38 1430.82,805.202Z" style="fill:rgb(204,0,34);fill-rule:nonzero;"/>
                </g>
                <g transform="matrix(0.27639,0,0,0.27639,3571.765646,-30.790437)">
                    <path d="M1160.14,882.526C1163.67,881.659 1179.68,870.478 1184.17,867.774C1191.62,863.39 1199.25,859.315 1207.04,855.561C1249.34,835.346 1316.93,823.515 1364.06,819.982C1357.41,824.101 1335.46,829.733 1327.48,831.652C1267.29,846.121 1252.42,861.356 1214.98,907.793C1203.06,904.37 1167.72,892.193 1157.58,886.467C1157.87,883.685 1157.47,885.06 1160.14,882.526Z" style="fill:rgb(204,0,34);fill-rule:nonzero;"/>
                </g>
                <g transform="matrix(0.27639,0,0,0.27639,3571.765646,-30.790437)">
                    <path d="M1458.03,903.795C1514,974.438 1551.48,1081.98 1566.42,1169.95C1556.87,1158.84 1546.81,1148.17 1536.28,1137.99C1555,1229.5 1548.93,1349.06 1515.68,1436.79C1514.84,1441.31 1512.89,1445.42 1511.13,1449.7C1512.49,1439.1 1513.02,1426.74 1514.99,1416.53C1517.63,1367.12 1521.44,1318.34 1512.48,1269.17C1507.98,1244.46 1495.35,1230.82 1482.12,1210.76C1489.53,1187.41 1490.02,1172.66 1490.19,1147.96C1500.63,1158.7 1507.3,1168.18 1516.01,1180.21C1515.75,1161.28 1516.01,1130.82 1511.44,1113.32C1497.63,1098.54 1449.75,1062.5 1431.6,1049.37C1456.3,1043.87 1472.9,1040.56 1498.42,1039.17C1487.44,990.993 1477.35,949.991 1458.03,903.795Z" style="fill:rgb(204,0,34);fill-rule:nonzero;"/>
                </g>
                <g transform="matrix(0.27639,0,0,0.27639,3571.765646,-30.790437)">
                    <path d="M1511.13,1449.7C1512.49,1439.1 1513.02,1426.74 1514.99,1416.53C1517.61,1425.18 1512.76,1431.43 1515.68,1436.79C1514.84,1441.31 1512.89,1445.42 1511.13,1449.7Z" style="fill:rgb(204,0,34);fill-rule:nonzero;"/>
                </g>
                <g transform="matrix(0.27639,0,0,0.27639,3571.765646,-30.790437)">
                    <path d="M1288.69,541.368C1303.53,543.385 1322.44,550.785 1335.02,558.894C1354.58,571.513 1363.95,589.928 1368.52,612.26C1373.96,637.345 1372.32,660.78 1356.61,681.673C1359.25,659.325 1361.32,641.191 1350.75,620.021C1322.48,638.692 1289.7,660.365 1264.72,683.352C1254.95,666.614 1250.45,658.851 1236.55,644.826C1212.58,625.379 1197.64,619.209 1168.29,609.761C1195.3,586.248 1255.25,553.953 1288.69,541.368Z" style="fill:rgb(254,254,254);fill-rule:nonzero;"/>
                </g>
                <g transform="matrix(0.27639,0,0,0.27639,3571.765646,-30.790437)">
                    <path d="M1337.12,583.01C1349.51,592.146 1357.81,601.25 1368.52,612.26C1373.96,637.345 1372.32,660.78 1356.61,681.673C1359.25,659.325 1361.32,641.191 1350.75,620.021C1322.48,638.692 1289.7,660.365 1264.72,683.352C1254.95,666.614 1250.45,658.851 1236.55,644.826C1257.09,626.18 1311.23,594.209 1337.12,583.01Z" style="fill:rgb(204,0,34);fill-rule:nonzero;"/>
                </g>
                <g transform="matrix(0.27639,0,0,0.27639,3571.765646,-30.790437)">
                    <path d="M1144.33,624.727C1189.81,628.857 1233.56,660.116 1249.65,703.275C1256.5,721.901 1258.65,737.788 1256.59,757.63C1249.68,742.852 1242.07,725.024 1232.29,712.162C1219.24,723.618 1191.78,751.736 1180.47,760.267C1164.6,754.419 1143.24,745.977 1129.78,735.618C1103.69,716.242 1098.37,693.261 1099.22,662.398C1109.59,651.2 1131.66,634.1 1144.33,624.727Z" style="fill:rgb(254,254,254);fill-rule:nonzero;"/>
                </g>
                <g transform="matrix(0.27639,0,0,0.27639,3571.765646,-30.790437)">
                    <path d="M1204.72,670.306C1224.14,679.323 1233.82,688.717 1249.65,703.275C1256.5,721.901 1258.65,737.788 1256.59,757.63C1249.68,742.852 1242.07,725.024 1232.29,712.162C1219.24,723.618 1191.78,751.736 1180.47,760.267C1164.6,754.419 1143.24,745.977 1129.78,735.618C1153.7,713.674 1180.05,691.308 1204.72,670.306Z" style="fill:rgb(204,0,34);fill-rule:nonzero;"/>
                </g>
                <g transform="matrix(0.27639,0,0,0.27639,3571.765646,-30.790437)">
                    <path d="M900.742,1691.31C907.35,1684.27 919.377,1679.14 927.885,1674.67C981.551,1646.47 1041.73,1637.91 1098.22,1617.34C1106.91,1614.18 1115.6,1610.88 1124.3,1607.81C1115.69,1625.79 1100.39,1662.61 1091.71,1677.6C1046.95,1691.65 999.884,1704.53 955.985,1720.82C937.876,1727.57 919.96,1734.83 902.26,1742.59C891.696,1747.3 879.428,1753.51 869.008,1757.74C875.181,1738.72 890.4,1708.39 900.742,1691.31Z" style="fill:rgb(204,0,34);fill-rule:nonzero;"/>
                </g>
                <g transform="matrix(0.27639,0,0,0.27639,3571.765646,-30.790437)">
                    <path d="M1201.54,1350.8L1202.2,1351.48C1203.52,1356.62 1200.77,1396.06 1198.63,1400.74C1167.41,1468.78 1038.68,1506.86 982.185,1535.44C975.54,1513.26 969.109,1499.86 957.292,1480.52L959.796,1469.55C962.877,1455.95 961.866,1441.69 961.098,1427.89C972.491,1437.94 992.755,1453.89 999.622,1466.63C999.337,1477.91 997.818,1485.13 995.168,1496.09C1092.46,1454.06 1134.39,1433.02 1201.54,1350.8Z" style="fill:rgb(204,0,34);fill-rule:nonzero;"/>
                </g>
                <g transform="matrix(0.27639,0,0,0.27639,3571.765646,-30.790437)">
                    <path d="M1241.75,979.22C1292.52,976.965 1377.22,973.158 1426.74,982.532C1362.94,1007.54 1302.31,1032.52 1248.76,1076.58L1242.15,1068.16C1238.77,1065.46 1227.95,1054.13 1225.28,1050.51C1218.32,1041.09 1216.09,1038.04 1217.45,1026.95C1221.67,1005.49 1224.29,994.781 1241.75,979.22Z" style="fill:rgb(254,254,254);fill-rule:nonzero;"/>
                </g>
                <g transform="matrix(0.27639,0,0,0.27639,3571.765646,-30.790437)">
                    <path d="M1217.45,1026.95C1253.32,1013.76 1310.11,1003.86 1348.26,999.445C1312.89,1015.98 1263.46,1035.05 1242.15,1068.16C1238.77,1065.46 1227.95,1054.13 1225.28,1050.51C1218.32,1041.09 1216.09,1038.04 1217.45,1026.95Z" style="fill:rgb(204,0,34);fill-rule:nonzero;"/>
                </g>
                <g transform="matrix(0.27639,0,0,0.27639,3571.765646,-30.790437)">
                    <path d="M1190.27,1141.29C1199.84,1126.37 1222.9,1111.52 1239.03,1105.11L1240.32,1104.58C1282.83,1112.12 1344.49,1141.9 1382.53,1162.89C1322.82,1163.77 1246.74,1174.95 1193.81,1203.46C1193,1199 1192.02,1192.32 1190.58,1188.22C1185.41,1169.3 1183.99,1159.89 1190.27,1141.29Z" style="fill:rgb(254,254,254);fill-rule:nonzero;"/>
                </g>
                <g transform="matrix(0.27639,0,0,0.27639,3571.765646,-30.790437)">
                    <path d="M1190.27,1141.29C1218.24,1136.53 1278.97,1143.84 1306.59,1150.98C1259.02,1161.76 1236.55,1159.23 1190.58,1188.22C1185.41,1169.3 1183.99,1159.89 1190.27,1141.29Z" style="fill:rgb(204,0,34);fill-rule:nonzero;"/>
                </g>
                <g transform="matrix(0.27639,0,0,0.27639,3571.765646,-30.790437)">
                    <path d="M1318.8,530.969C1342.73,525.046 1366.59,520.096 1391.24,518.359C1412.32,516.874 1428.2,515.232 1447.13,526.77C1466.39,538.514 1474.12,553.192 1475.96,575.283C1477.85,595.432 1474.31,606.921 1463.67,623.576C1464.37,608.787 1464.81,597.739 1463.49,583.029C1433.19,589.811 1418.12,593.06 1388.78,603.803C1383.63,588.457 1380.79,581.61 1372.81,567.584C1354.29,547.071 1343.87,541.248 1318.8,530.969Z" style="fill:rgb(254,254,254);fill-rule:nonzero;"/>
                </g>
                <g transform="matrix(0.27639,0,0,0.27639,3571.765646,-30.790437)">
                    <path d="M1372.81,567.584C1394.94,560.891 1436.7,553.426 1459.82,551.684C1470.22,561.173 1469.22,564.509 1475.96,575.283C1477.85,595.432 1474.31,606.921 1463.67,623.576C1464.37,608.787 1464.81,597.739 1463.49,583.029C1433.19,589.811 1418.12,593.06 1388.78,603.803C1383.63,588.457 1380.79,581.61 1372.81,567.584Z" style="fill:rgb(204,0,34);fill-rule:nonzero;"/>
                </g>
                <g transform="matrix(0.27639,0,0,0.27639,3571.765646,-30.790437)">
                    <path d="M1038.62,713.298C1044.41,686.638 1049.02,680.117 1072.81,666.564C1072.83,698.484 1080.97,724.067 1104.05,746.904C1134.49,777.016 1169.41,782.873 1206.98,794.866C1169.07,804.742 1128.84,814.955 1091.91,797.643C1091.94,786.464 1091.6,777.342 1082.62,768.973C1068.24,755.57 1054.12,751.991 1044.47,733.086C1040.32,724.949 1040.63,717.951 1038.62,713.298Z" style="fill:rgb(204,0,34);fill-rule:nonzero;"/>
                </g>
                <g transform="matrix(0.27639,0,0,0.27639,3571.765646,-30.790437)">
                    <path d="M411.642,969.175C419.073,1013.4 424.763,1026.6 442.094,1066.24C439.191,1071.19 435.355,1076.84 432.211,1081.74C424.591,1093.35 411.968,1108.59 401.885,1118.61C396.976,1123.5 392.009,1128.56 387.031,1133.35C381.974,1135.84 367.168,1145.95 366.134,1145.98L365.535,1144.32C369.852,1078.53 378.518,1027.77 411.642,969.175Z" style="fill:rgb(254,254,254);fill-rule:nonzero;"/>
                </g>
                <g transform="matrix(0.27639,0,0,0.27639,3571.765646,-30.790437)">
                    <path d="M401.885,1118.61C398.833,1088.86 397.934,1039.76 407.885,1012.51C413.121,1042.79 418.166,1055.32 432.211,1081.74C424.591,1093.35 411.968,1108.59 401.885,1118.61Z" style="fill:rgb(204,0,34);fill-rule:nonzero;"/>
                </g>
                <g transform="matrix(0.27639,0,0,0.27639,3571.765646,-30.790437)">
                    <path d="M812.284,1789.94C825.196,1720.32 845.145,1681.07 883.349,1623.14C889.551,1646.37 891.974,1669.3 895.194,1692.99C897.412,1693.7 897.861,1692.75 900.742,1691.31C890.4,1708.39 875.181,1738.72 869.008,1757.74C866.082,1760.03 851.259,1767.79 847.23,1770C835.436,1776.38 823.784,1783.03 812.284,1789.94Z" style="fill:rgb(254,254,254);fill-rule:nonzero;"/>
                </g>
                <g transform="matrix(0.27639,0,0,0.27639,3571.765646,-30.790437)">
                    <path d="M1128.25,1239.12C1141.81,1230.18 1154.27,1226.3 1169.81,1221.55C1209.58,1251.71 1221.05,1261.04 1252.24,1299.13C1220.48,1292.43 1188.31,1287.89 1155.94,1285.54C1140.97,1284.6 1125.29,1285.23 1110.75,1284.3L1112.27,1270.77C1114.46,1256.93 1116.09,1248.13 1128.25,1239.12Z" style="fill:rgb(254,254,254);fill-rule:nonzero;"/>
                </g>
                <g transform="matrix(0.27639,0,0,0.27639,3571.765646,-30.790437)">
                    <path d="M1128.25,1239.12C1147.2,1245.36 1187.24,1264.56 1203.74,1276.26C1179.83,1272.84 1135.86,1266.76 1112.27,1270.77C1114.46,1256.93 1116.09,1248.13 1128.25,1239.12Z" style="fill:rgb(204,0,34);fill-rule:nonzero;"/>
                </g>
                <g transform="matrix(0.27639,0,0,0.27639,3571.765646,-30.790437)">
                    <path d="M1461.32,515.251C1494.02,512.039 1513.83,508.824 1545.39,500.847C1560.13,505.401 1569.68,510.076 1578.51,523.337C1589.47,541.739 1587.24,564.809 1578.06,583.392C1578.04,571.568 1578.07,562.413 1576.7,550.578C1548.83,562.379 1525.49,571.529 1495.7,577.945C1494.31,564.504 1493.32,558.958 1488.97,546.246C1479.93,530.525 1475.77,526.599 1461.32,515.251Z" style="fill:rgb(254,254,254);fill-rule:nonzero;"/>
                </g>
                <g transform="matrix(0.27639,0,0,0.27639,3571.765646,-30.790437)">
                    <path d="M1578.51,523.337C1589.47,541.739 1587.24,564.809 1578.06,583.392C1578.04,571.568 1578.07,562.413 1576.7,550.578C1548.83,562.379 1525.49,571.529 1495.7,577.945C1494.31,564.504 1493.32,558.958 1488.97,546.246C1502.95,543.132 1517.03,541.092 1531.09,537.862C1547.81,534.023 1562.34,528.901 1578.51,523.337Z" style="fill:rgb(204,0,34);fill-rule:nonzero;"/>
                </g>
                <g transform="matrix(0.27639,0,0,0.27639,3571.765646,-30.790437)">
                    <path d="M798.516,607.498C806.999,587.455 821.991,556.534 838.071,542.106C851.552,530.011 877.311,528.735 894.769,530.418C916.067,533.952 929.526,539.119 946.14,553.218C918.711,549.724 905.933,565.709 884.642,580.357C876.158,586.194 868.481,594.098 859.873,599.862L847.48,600.21C829.098,601.111 816.159,603.442 798.516,607.498Z" style="fill:rgb(254,254,254);fill-rule:nonzero;"/>
                </g>
                <g transform="matrix(0.27639,0,0,0.27639,3571.765646,-30.790437)">
                    <path d="M894.769,530.418C916.067,533.952 929.526,539.119 946.14,553.218C918.711,549.724 905.933,565.709 884.642,580.357C876.158,586.194 868.481,594.098 859.873,599.862L847.48,600.21C863.846,570.72 870.825,556.581 894.769,530.418Z" style="fill:rgb(204,0,34);fill-rule:nonzero;"/>
                </g>
                <g transform="matrix(0.27639,0,0,0.27639,3571.765646,-30.790437)">
                    <path d="M1214.33,1509.43C1226.49,1518.32 1220.25,1552.52 1224.85,1568.65C1229.63,1585.38 1229.04,1585.95 1238.41,1601.88C1218.62,1629.38 1194.93,1639.28 1165.25,1652.53C1159.3,1655.21 1153.71,1657.34 1147.62,1659.66C1153.56,1638.53 1162.93,1610.42 1171.82,1590.5C1177.28,1578.28 1193.53,1560.48 1199.52,1548.56C1204.46,1538.72 1210.1,1520.63 1214.33,1509.43Z" style="fill:rgb(204,0,34);fill-rule:nonzero;"/>
                </g>
                <g transform="matrix(0.27639,0,0,0.27639,3571.765646,-30.790437)">
                    <path d="M578.256,1262.18C581.254,1261.66 584.049,1260.68 586.616,1261.93C587.832,1270.88 584.159,1292.3 584.066,1303.08C583.794,1334.75 590.158,1359.39 598.658,1389.1C556.998,1359.23 529.384,1324.21 518.012,1273.6C529.25,1271.04 543.338,1268.36 554.174,1265.5C561.954,1264.14 570.38,1263.2 578.256,1262.18Z" style="fill:rgb(254,254,254);fill-rule:nonzero;"/>
                </g>
                <g transform="matrix(0.27639,0,0,0.27639,3571.765646,-30.790437)">
                    <path d="M554.174,1265.5C561.954,1264.14 570.38,1263.2 578.256,1262.18C573.341,1294.35 572.961,1306.86 577.152,1338.8C565.447,1321.71 557.546,1286.37 554.174,1265.5Z" style="fill:rgb(204,0,34);fill-rule:nonzero;"/>
                </g>
                <g transform="matrix(0.27639,0,0,0.27639,3571.765646,-30.790437)">
                    <path d="M1530.74,923.464C1604.54,972.004 1665.92,1012.79 1699.93,1099.35L1691.81,1091.76C1679.81,1085.39 1669.59,1077.32 1655.88,1068.78C1647.98,1063.87 1614.7,1049.62 1607.38,1040.93C1606.65,1040.06 1606.83,1035.17 1608.34,1033.32C1616.64,1030.95 1636.37,1036.18 1644.93,1038.27C1621.56,1014.33 1596.26,995.493 1568.34,977.257C1563.76,974.263 1556.19,968.962 1553.23,964.592C1545.72,953.525 1536.73,934.746 1530.74,923.464Z" style="fill:rgb(254,254,254);fill-rule:nonzero;"/>
                </g>
                <g transform="matrix(0.27639,0,0,0.27639,3571.765646,-30.790437)">
                    <path d="M1691.81,1091.76C1679.81,1085.39 1669.59,1077.32 1655.88,1068.78C1647.98,1063.87 1614.7,1049.62 1607.38,1040.93C1606.65,1040.06 1606.83,1035.17 1608.34,1033.32C1616.64,1030.95 1636.37,1036.18 1644.93,1038.27C1654.24,1046.98 1687.91,1081.46 1691.81,1091.76Z" style="fill:rgb(204,0,34);fill-rule:nonzero;"/>
                </g>
                <g transform="matrix(0.27639,0,0,0.27639,3571.765646,-30.790437)">
                    <path d="M859.621,516.283C878.255,496.422 908.436,472.262 935.071,464.06C950.362,459.352 969.958,463.625 983.957,471.357C997.433,479.934 1004.33,487.809 1011.55,502.261C1004.22,498.366 1000.75,496.381 992.369,494.843C974.847,502.519 958.51,516.679 945.182,530.208C933.25,523.497 922.39,517.828 908.727,515.27C888.289,512.676 880.293,512.954 859.621,516.283Z" style="fill:rgb(254,254,254);fill-rule:nonzero;"/>
                </g>
                <g transform="matrix(0.27639,0,0,0.27639,3571.765646,-30.790437)">
                    <path d="M983.957,471.357C997.433,479.934 1004.33,487.809 1011.55,502.261C1004.22,498.366 1000.75,496.381 992.369,494.843C974.847,502.519 958.51,516.679 945.182,530.208C933.25,523.497 922.39,517.828 908.727,515.27C930.084,494.258 955.552,480.282 983.957,471.357Z" style="fill:rgb(204,0,34);fill-rule:nonzero;"/>
                </g>
                <g transform="matrix(0.27639,0,0,0.27639,3571.765646,-30.790437)">
                    <path d="M1352.2,1384.51C1356.31,1388.35 1362.56,1399.85 1366.76,1404.31C1374.48,1412.51 1383.43,1420.41 1391.51,1428.37C1382.1,1459.48 1370.79,1479.24 1347.07,1501.28L1340.86,1506.21C1326.21,1484.87 1318.93,1466.81 1314.11,1441.52C1333.19,1418.45 1338.01,1410.91 1352.2,1384.51Z" style="fill:rgb(204,0,34);fill-rule:nonzero;"/>
                </g>
                <g transform="matrix(0.27639,0,0,0.27639,3571.765646,-30.790437)">
                    <path d="M1301.54,1479.77C1302.94,1481.45 1307.64,1492 1309.03,1494.7C1313.36,1503.04 1318.32,1510.3 1323.03,1518.33C1309.97,1550.6 1289.9,1572.08 1261.54,1591.32C1258.36,1592.8 1259.89,1592.81 1256.9,1592.14C1246.86,1581.7 1242.78,1548.63 1241.6,1534.7C1270.54,1517.56 1281.45,1506.88 1301.54,1479.77Z" style="fill:rgb(204,0,34);fill-rule:nonzero;"/>
                </g>
                <g transform="matrix(0.27639,0,0,0.27639,3571.765646,-30.790437)">
                    <path d="M1433.09,1199.64C1445.04,1208.26 1470.38,1233.81 1477.88,1246.74C1476.79,1277.23 1471.11,1299.26 1463.52,1328.32L1460.06,1338.62C1446.05,1324.86 1436.23,1313.15 1425.36,1296.86C1433.32,1256.31 1433.27,1240 1433.09,1199.64Z" style="fill:rgb(204,0,34);fill-rule:nonzero;"/>
                </g>
                <g transform="matrix(0.27639,0,0,0.27639,3571.765646,-30.790437)">
                    <path d="M1570.06,492.416C1584.38,485.968 1596.37,479.92 1609.79,471.534C1618.77,465.921 1630.36,456.756 1639.62,452.637C1649.77,454.347 1654.7,454.977 1663.78,460.082C1677.26,468.095 1680.13,486.363 1679.4,500.794C1676.13,495.347 1673.18,490.03 1669.21,485.071C1649.63,505.218 1628.33,524.514 1603.14,537.653C1601.31,530.248 1599.25,521.355 1595.87,514.49C1588.32,503.9 1580.79,499.443 1570.06,492.416Z" style="fill:rgb(254,254,254);fill-rule:nonzero;"/>
                </g>
                <g transform="matrix(0.27639,0,0,0.27639,3571.765646,-30.790437)">
                    <path d="M1663.78,460.082C1677.26,468.095 1680.13,486.363 1679.4,500.794C1676.13,495.347 1673.18,490.03 1669.21,485.071C1649.63,505.218 1628.33,524.514 1603.14,537.653C1601.31,530.248 1599.25,521.355 1595.87,514.49C1622.3,497.58 1642.33,483.846 1663.78,460.082Z" style="fill:rgb(204,0,34);fill-rule:nonzero;"/>
                </g>
                <g transform="matrix(0.27639,0,0,0.27639,3571.765646,-30.790437)">
                    <path d="M1266.54,1405.76C1267.24,1406.29 1290.16,1439.53 1293.98,1444.34C1281.05,1471.85 1269.05,1486.19 1247.69,1506.61L1241.97,1511.31C1223.78,1473.64 1222.24,1475.15 1230.44,1434.52C1238.43,1427.25 1257.13,1413.47 1266.54,1405.76Z" style="fill:rgb(204,0,34);fill-rule:nonzero;"/>
                </g>
                <g transform="matrix(0.27639,0,0,0.27639,3571.765646,-30.790437)">
                    <path d="M1493.45,797.85C1560.55,819.534 1601.8,839.797 1651.68,890.427C1639.01,884.765 1622.32,881.306 1608.71,879.181C1588.74,876.294 1571.59,877.063 1551.69,878.188C1568.34,870.854 1578.22,868.832 1595.82,864.591C1557.3,841.557 1527.07,828.118 1483.26,817.033L1493.45,797.85Z" style="fill:rgb(254,254,254);fill-rule:nonzero;"/>
                </g>
                <g transform="matrix(0.27639,0,0,0.27639,3571.765646,-30.790437)">
                    <path d="M1039.88,523.99C1039.58,528.291 1024.97,558.852 1022.44,566.639C1016.48,584.958 1013.39,599.892 1009.73,618.787C1007.77,599.517 1006.91,586.082 1009.46,566.914C977.922,591.914 958.275,614.749 932.295,645.302C921.753,656.269 916.811,660.591 904.235,669.098C926.105,606.63 984.691,557.6 1039.88,523.99Z" style="fill:rgb(254,254,254);fill-rule:nonzero;"/>
                </g>
                <g transform="matrix(0.27639,0,0,0.27639,3571.765646,-30.790437)">
                    <path d="M920.97,866.067L923.185,866.072C924.143,868.809 923.238,874.22 922.657,877.19C918.736,897.238 912.925,916.354 895.106,928.309C867.102,947.097 840.103,939.443 809.797,933.769L822.394,925.173C832.595,917.597 843.357,908.726 853.503,900.826C858.489,914.923 860.742,920.406 868.766,932.861C876.114,915.084 876.923,903.909 873.609,885.375C889.277,876.547 904.102,871.681 920.97,866.067Z" style="fill:rgb(254,254,254);fill-rule:nonzero;"/>
                </g>
                <g transform="matrix(0.27639,0,0,0.27639,3571.765646,-30.790437)">
                    <path d="M1405.85,1072.6C1418.27,1078.44 1458.41,1114.77 1468.22,1126.46C1468.51,1146.55 1467.87,1169.92 1464.98,1189.81C1464.87,1190.38 1465.01,1189.93 1464.1,1191.58C1461.03,1190.49 1433.95,1166.53 1429.46,1162.86C1422.77,1129.73 1416.37,1104.69 1405.85,1072.6Z" style="fill:rgb(204,0,34);fill-rule:nonzero;"/>
                </g>
                <g transform="matrix(0.27639,0,0,0.27639,3571.765646,-30.790437)">
                    <path d="M1188.03,950.358C1202.21,949.136 1217.56,951.988 1231.06,956.118C1200.24,974.419 1181.49,992.555 1158.98,1019.76L1164.85,994.569L1154.93,996.22C1137.25,999.733 1116.71,1008.36 1099.83,1015.06C1119.77,991.124 1156.07,953.698 1188.03,950.358Z" style="fill:rgb(204,0,34);fill-rule:nonzero;"/>
                </g>
                <g transform="matrix(0.27639,0,0,0.27639,3571.765646,-30.790437)">
                    <path d="M1338.43,1272.72C1341.21,1275.44 1342.41,1282.14 1343.05,1286.06C1350.71,1333.11 1330.27,1382.69 1302.78,1420.01L1298.01,1413.41C1292.34,1405.13 1287.29,1396.44 1282.9,1387.41C1315.29,1344.95 1325.46,1325.22 1338.43,1272.72Z" style="fill:rgb(204,0,34);fill-rule:nonzero;"/>
                </g>
                <g transform="matrix(0.27639,0,0,0.27639,3571.765646,-30.790437)">
                    <path d="M1365.68,1288.47C1381.94,1300.21 1389.04,1311.18 1409.7,1324.41C1405.69,1347.3 1401.61,1360.35 1393.12,1381.61C1391.61,1385.08 1388.95,1389.99 1387.2,1393.51C1355.21,1345.39 1357.8,1347.23 1365.68,1288.47Z" style="fill:rgb(204,0,34);fill-rule:nonzero;"/>
                </g>
                <g transform="matrix(0.27639,0,0,0.27639,3571.765646,-30.790437)">
                    <path d="M525.906,1357.52C531.793,1363.46 545.805,1384.54 553.757,1393.64C569.063,1411.16 580.066,1418.71 596.524,1433.7L583.354,1440.76C569.959,1447.14 559.034,1449.57 544.51,1451.46C526.01,1423.87 521.912,1389.88 525.906,1357.52Z" style="fill:rgb(254,254,254);fill-rule:nonzero;"/>
                </g>
                <g transform="matrix(0.27639,0,0,0.27639,3571.765646,-30.790437)">
                    <path d="M974.578,449.796C1003.49,443.356 1030.63,439.482 1059.93,435.14C1068.74,438.55 1072.81,440.598 1079.92,446.675C1083.8,451.594 1088.68,457.561 1090.06,463.689L1089.63,465.538L1088.08,465.147C1074.48,461.782 1033.67,475.748 1018.75,480.751C1013.71,474.867 1008.78,468.82 1003.01,463.658C992.663,456.981 986.079,454.155 974.578,449.796Z" style="fill:rgb(254,254,254);fill-rule:nonzero;"/>
                </g>
                <g transform="matrix(0.27639,0,0,0.27639,3571.765646,-30.790437)">
                    <path d="M1079.92,446.675C1083.8,451.594 1088.68,457.561 1090.06,463.689L1089.63,465.538L1088.08,465.147C1074.48,461.782 1033.67,475.748 1018.75,480.751C1013.71,474.867 1008.78,468.82 1003.01,463.658C1023.55,458.258 1044.34,454.247 1065.18,450.2C1070.14,449.237 1075.18,448.466 1079.92,446.675Z" style="fill:rgb(204,0,34);fill-rule:nonzero;"/>
                </g>
                <g transform="matrix(0.27639,0,0,0.27639,3571.765646,-30.790437)">
                    <path d="M890.299,604.077C890.455,605.231 885.023,627.719 884.265,631.096C880.162,649.388 878.975,666.259 878.007,684.885C870.21,669.903 869.495,663.161 868.187,646.118C856.08,659.608 844.632,673.677 833.884,688.273C825.536,699.612 814.318,716.677 804.637,726.138L781.326,744.318C811.504,686.321 838.964,646.198 890.299,604.077Z" style="fill:rgb(254,254,254);fill-rule:nonzero;"/>
                </g>
                <g transform="matrix(0.27639,0,0,0.27639,3571.765646,-30.790437)">
                    <path d="M1078.05,1296.25C1088.63,1299.16 1123.55,1336.78 1130.96,1347.13C1106.2,1338.81 1085.24,1334.34 1059.61,1329.61C1032.53,1325.64 1013.84,1324.48 986.445,1323.97C1015.39,1310.7 1047.21,1303.53 1078.05,1296.25Z" style="fill:rgb(254,254,254);fill-rule:nonzero;"/>
                </g>
                <g transform="matrix(0.27639,0,0,0.27639,3571.765646,-30.790437)">
                    <path d="M1722.76,344.057L1723.62,343.237C1724.5,348.645 1723.26,359.784 1722.59,365.28C1718.56,398.14 1707.69,432.902 1688.9,460.456C1684.38,455.146 1680.97,451.529 1676.01,446.618C1666.8,441.323 1663.68,440.121 1653.03,438.527C1686.33,406.185 1700.85,384.253 1722.76,344.057Z" style="fill:rgb(254,254,254);fill-rule:nonzero;"/>
                </g>
                <g transform="matrix(0.27639,0,0,0.27639,3571.765646,-30.790437)">
                    <path d="M1722.76,344.057L1723.62,343.237C1724.5,348.645 1723.26,359.784 1722.59,365.28C1718.56,398.14 1707.69,432.902 1688.9,460.456C1684.38,455.146 1680.97,451.529 1676.01,446.618C1682.58,437.347 1689.64,426.424 1695.14,416.857C1702.4,404.232 1723.18,357.654 1722.76,344.057Z" style="fill:rgb(204,0,34);fill-rule:nonzero;"/>
                </g>
                <g transform="matrix(0.27639,0,0,0.27639,3571.765646,-30.790437)">
                    <path d="M625.279,1519.93C634.415,1515.35 656.519,1516.95 667.492,1517.2C672.064,1539.76 676.502,1552.55 685.717,1573.93C686.749,1575.18 686.977,1575.69 687.809,1577.09L686.688,1577.63C661.035,1573.87 635.066,1563.67 615.581,1546.24C618.158,1537.14 620.917,1528.34 625.279,1519.93Z" style="fill:rgb(204,0,34);fill-rule:nonzero;"/>
                </g>
                <g transform="matrix(0.27639,0,0,0.27639,3571.765646,-30.790437)">
                    <path d="M625.279,1519.93C640.958,1537.52 664.06,1563.63 685.717,1573.93C686.749,1575.18 686.977,1575.69 687.809,1577.09L686.688,1577.63C661.035,1573.87 635.066,1563.67 615.581,1546.24C618.158,1537.14 620.917,1528.34 625.279,1519.93Z" style="fill:rgb(254,254,254);fill-rule:nonzero;"/>
                </g>
                <g transform="matrix(0.27639,0,0,0.27639,3571.765646,-30.790437)">
                    <path d="M1428.84,1341.36C1437.83,1347.12 1449.95,1358.14 1456.82,1366.41C1451.46,1390.13 1443.05,1414.31 1433.75,1436.76C1433.51,1437.12 1432.41,1438.07 1432.04,1438.41C1424.54,1434.42 1412.4,1408.6 1409.3,1400.41C1419.61,1379.75 1423.96,1363.93 1428.84,1341.36Z" style="fill:rgb(204,0,34);fill-rule:nonzero;"/>
                </g>
                <g transform="matrix(0.27639,0,0,0.27639,3571.765646,-30.790437)">
                    <path d="M1144.29,403.731C1152.4,404.751 1155.79,404.872 1162.39,409.531C1166.94,415.497 1167.87,417.572 1171.02,424.318C1145.63,439.607 1133.71,445.884 1106.07,456.727L1098.65,442.278C1093.88,437.075 1090.34,433.432 1084.54,429.398C1107.93,422.082 1122.7,414.719 1144.29,403.731Z" style="fill:rgb(254,254,254);fill-rule:nonzero;"/>
                </g>
                <g transform="matrix(0.27639,0,0,0.27639,3571.765646,-30.790437)">
                    <path d="M1162.39,409.531C1166.94,415.497 1167.87,417.572 1171.02,424.318C1145.63,439.607 1133.71,445.884 1106.07,456.727L1098.65,442.278C1119.53,435.823 1146.12,423.759 1162.39,409.531Z" style="fill:rgb(204,0,34);fill-rule:nonzero;"/>
                </g>
                <g transform="matrix(0.27639,0,0,0.27639,3571.765646,-30.790437)">
                    <path d="M1593.16,1130.78C1598.97,1135.15 1609.13,1148.42 1614,1154.58C1643.41,1191.86 1666.45,1235.53 1675.52,1282.52C1674.03,1280.4 1665.5,1262.05 1663.11,1257.43C1655.08,1241.93 1647.14,1229.95 1637.67,1215.67C1628.95,1202.51 1610.62,1186.7 1603.57,1175.14C1600.64,1170.34 1595.18,1139.28 1593.16,1130.78Z" style="fill:rgb(254,254,254);fill-rule:nonzero;"/>
                </g>
                <g transform="matrix(0.27639,0,0,0.27639,3571.765646,-30.790437)">
                    <path d="M1114.67,1204.41C1117.34,1203.89 1116.36,1203.78 1118.9,1204.65C1116.81,1209.18 1107.51,1215.26 1103.63,1219.08C1083.5,1238.87 1063.66,1242.12 1036.29,1243.07C1033.53,1242.95 1033.11,1243.3 1031.08,1241.63C1029.2,1235.15 1034.47,1222.63 1036.79,1215.72C1045.92,1213.92 1060.37,1210.04 1069.11,1209.06C1084.37,1207.34 1099.23,1206.32 1114.67,1204.41Z" style="fill:rgb(204,0,34);fill-rule:nonzero;"/>
                </g>
                <g transform="matrix(0.27639,0,0,0.27639,3571.765646,-30.790437)">
                    <path d="M665.541,1241.14C667.359,1242.81 663.913,1260.29 663.391,1263.5C660.554,1280.92 659.938,1297.68 660.175,1315.25C652.309,1308.1 646.52,1302.25 639.227,1294.61C628.438,1281.29 622.043,1271.66 615.884,1255.58C633.111,1251.13 648.727,1246.86 665.541,1241.14Z" style="fill:rgb(254,254,254);fill-rule:nonzero;"/>
                </g>
                <g transform="matrix(0.27639,0,0,0.27639,3571.765646,-30.790437)">
                    <path d="M1167.1,532.116L1167.77,532.187L1168.16,532.924C1131.62,556.176 1095.85,580.504 1060.9,606.084C1054.19,610.993 1040.48,617.012 1032.53,621.471L1032.03,621.54L1031.46,620.706C1031.79,620.037 1032.14,619.375 1032.5,618.719C1056.4,575.279 1121.46,545.93 1167.1,532.116Z" style="fill:rgb(254,254,254);fill-rule:nonzero;"/>
                </g>
                <g transform="matrix(0.27639,0,0,0.27639,3571.765646,-30.790437)">
                    <path d="M1402.15,1439.39C1406.32,1442.41 1418.3,1459.7 1421.99,1464.79C1407.8,1496.9 1387.28,1531.32 1367.22,1560.16C1363.65,1564.86 1359.23,1569.99 1355.44,1574.6C1363.2,1556.82 1371.6,1538.86 1378.36,1520.7C1388.24,1494.14 1395.51,1466.9 1402.15,1439.39Z" style="fill:rgb(204,0,34);fill-rule:nonzero;"/>
                </g>
                <g transform="matrix(0.27639,0,0,0.27639,3571.765646,-30.790437)">
                    <path d="M1076.85,928.467C1092.46,929.669 1109.91,942.038 1124.45,950.053C1116.2,958.045 1106.5,965.558 1097.54,972.827L1090,978.14L1054.74,963.125C1063.66,952.637 1071.09,940.976 1076.85,928.467Z" style="fill:rgb(204,0,34);fill-rule:nonzero;"/>
                </g>
                <g transform="matrix(0.27639,0,0,0.27639,3571.765646,-30.790437)">
                    <path d="M1221.77,327.956C1223.99,323.229 1225.98,319.598 1228.51,315.099C1224.55,358.475 1213.32,381.278 1184.43,412.958C1182.25,409.445 1178.7,403.316 1176.3,400.222C1172.04,396.752 1167.48,394.315 1162.73,391.534C1188.48,372.061 1204.76,355.267 1221.77,327.956Z" style="fill:rgb(204,0,34);fill-rule:nonzero;"/>
                </g>
                <g transform="matrix(0.27639,0,0,0.27639,3571.765646,-30.790437)">
                    <path d="M1221.77,327.956C1221.76,348.55 1190.02,385.343 1176.3,400.222C1172.04,396.752 1167.48,394.315 1162.73,391.534C1188.48,372.061 1204.76,355.267 1221.77,327.956Z" style="fill:rgb(254,254,254);fill-rule:nonzero;"/>
                </g>
                <g transform="matrix(0.27639,0,0,0.27639,3571.765646,-30.790437)">
                    <path d="M629.852,1341.58C647.539,1360.15 655.232,1367.17 675.419,1382.84C670.03,1388.98 665.894,1392.02 659.392,1396.74C650.972,1402.36 642.119,1407.29 632.917,1411.49C626.639,1386.13 626.34,1367.2 629.852,1341.58Z" style="fill:rgb(254,254,254);fill-rule:nonzero;"/>
                </g>
                <g transform="matrix(0.27639,0,0,0.27639,3571.765646,-30.790437)">
                    <path d="M836.822,621.531C835.812,625.177 817.479,643.291 813.083,645.245C791.715,654.742 772.435,665.416 752.139,677.04C752.145,670.925 761.314,652.921 765.008,647.536C776.862,630.251 816.542,624.099 836.822,621.531Z" style="fill:rgb(204,0,34);fill-rule:nonzero;"/>
                </g>
                <g transform="matrix(0.27639,0,0,0.27639,3571.765646,-30.790437)">
                    <path d="M701.43,1297.51C709.512,1303.44 728.75,1326.23 735.998,1334.86C729.309,1341.32 722.514,1347.68 715.616,1353.92C709.46,1359.15 701.753,1363.66 694.818,1367.74C694.984,1338.82 694.332,1325.99 701.43,1297.51Z" style="fill:rgb(254,254,254);fill-rule:nonzero;"/>
                </g>
                <g transform="matrix(0.27639,0,0,0.27639,3571.765646,-30.790437)">
                    <path d="M1117.99,895.56C1137.37,903.797 1151.07,909.086 1163.56,926.412C1156.96,928.825 1150.95,931.746 1144.59,934.718C1141.93,936.162 1138.82,937.533 1136.06,938.826C1123.85,928.737 1115.59,924.725 1101.06,918.909C1107.62,911.467 1112.79,903.963 1117.99,895.56Z" style="fill:rgb(204,0,34);fill-rule:nonzero;"/>
                </g>
                <g transform="matrix(0.27639,0,0,0.27639,3571.765646,-30.790437)">
                    <path d="M792.865,1148.71L794.594,1149.32C799.443,1163.59 790.008,1198.4 784.797,1212.77C780.856,1207.95 776.868,1203.16 772.834,1198.42C765.757,1190.44 761.813,1186.8 753.684,1179.67C765.309,1168.04 779.351,1158.07 792.865,1148.71Z" style="fill:rgb(254,254,254);fill-rule:nonzero;"/>
                </g>
                <g transform="matrix(0.27639,0,0,0.27639,3571.765646,-30.790437)">
                    <path d="M730.374,1200.81L731.427,1201.49C736.439,1211.9 726.359,1251.68 722.593,1263.01C717.209,1258.32 712.269,1253.51 707.129,1248.56C701.146,1242.69 695.028,1235.65 689.353,1229.39C705.457,1219.12 714.995,1212.27 730.374,1200.81Z" style="fill:rgb(254,254,254);fill-rule:nonzero;"/>
                </g>
                <g transform="matrix(0.27639,0,0,0.27639,3571.765646,-30.790437)">
                    <path d="M1038.23,974.878C1051.47,975.587 1061.69,981.945 1072.73,988.64C1064.08,996.574 1056.27,1004.08 1046.03,1009.98C1036.26,1011.67 1020.96,1010.37 1011.25,1008.45C1018.15,999.615 1031.46,982.539 1038.23,974.878Z" style="fill:rgb(204,0,34);fill-rule:nonzero;"/>
                </g>
                <g transform="matrix(0.27639,0,0,0.27639,3571.765646,-30.790437)">
                    <path d="M415.733,1372.57C419.113,1377.11 423.665,1385.41 427.14,1390.58C432.878,1399.12 437.663,1405.1 444.144,1412.97C442.693,1422.47 442.688,1434.87 442.392,1444.67C434.382,1442.6 429.052,1441.1 421.97,1436.89C414.35,1414.32 412.95,1396.31 415.733,1372.57Z" style="fill:rgb(254,254,254);fill-rule:nonzero;"/>
                </g>
                <g transform="matrix(0.27639,0,0,0.27639,3571.765646,-30.790437)">
                    <path d="M1423.84,710.568C1450.09,708.942 1476.43,709.847 1502.51,713.271C1484.89,723.349 1484.34,723.695 1463.97,722.984C1420.41,722.626 1427.13,728.32 1385.91,712.478C1398.54,711.719 1411.19,711.082 1423.84,710.568Z" style="fill:rgb(254,254,254);fill-rule:nonzero;"/>
                </g>
                <g transform="matrix(0.27639,0,0,0.27639,3571.765646,-30.790437)">
                    <path d="M493.583,1280.85L496.001,1281.49C498.151,1285.75 493.38,1301.95 492.887,1307.73C492.113,1316.79 492.525,1326.05 492.695,1335.14C486.522,1330.72 482.769,1327.66 477.052,1322.64C469.134,1315.02 463.515,1306.01 459.211,1295.98C468.347,1290.53 483.412,1284.93 493.583,1280.85Z" style="fill:rgb(254,254,254);fill-rule:nonzero;"/>
                </g>
                <g transform="matrix(0.27639,0,0,0.27639,3571.765646,-30.790437)">
                    <path d="M763.424,1256.55C775.814,1263.21 785.434,1276.63 792.251,1288.57C786.183,1293.28 780.065,1298.41 774.093,1303.28C769.088,1307.52 762.954,1311.94 757.659,1315.94C762.512,1289.97 762.935,1282.65 763.424,1256.55Z" style="fill:rgb(254,254,254);fill-rule:nonzero;"/>
                </g>
                <g transform="matrix(0.27639,0,0,0.27639,3571.765646,-30.790437)">
                    <path d="M850.238,1116.88L851.594,1117.41C854.584,1127.5 845.654,1158.02 840.405,1167.38C836.886,1161.58 834.116,1158 829.98,1152.64C825.004,1146.75 819.385,1142.22 813.393,1137.43C826.654,1128.68 835.597,1123.4 850.238,1116.88Z" style="fill:rgb(254,254,254);fill-rule:nonzero;"/>
                </g>
                <g transform="matrix(0.27639,0,0,0.27639,3571.765646,-30.790437)">
                    <path d="M818.311,1219.17C831.773,1225.3 835.202,1227.61 844.302,1239.27C838.337,1248.65 833.29,1254.18 825.446,1261.93C820.399,1266.27 815.303,1270.55 810.159,1274.78C815.629,1254.17 817.719,1240.37 818.311,1219.17Z" style="fill:rgb(254,254,254);fill-rule:nonzero;"/>
                </g>
                <g transform="matrix(0.27639,0,0,0.27639,3571.765646,-30.790437)">
                    <path d="M498.944,1412.6C502.623,1416.22 525.252,1447.87 526.184,1452.19L524.213,1452.88C514.899,1453.35 507.341,1453.77 498.071,1452.83C491.201,1437.91 494.312,1427.73 498.944,1412.6Z" style="fill:rgb(254,254,254);fill-rule:nonzero;"/>
                </g>
                <g transform="matrix(0.27639,0,0,0.27639,3571.765646,-30.790437)">
                    <path d="M1157.4,1139.93L1158.46,1140.42C1158.95,1145.29 1151.14,1165.64 1147.88,1170.72C1142.19,1179.56 1140.66,1179.74 1131.23,1182.14L1129.74,1181.88C1128.93,1179.6 1132.16,1156.23 1132.14,1150.56C1140.61,1147.14 1149.03,1143.6 1157.4,1139.93Z" style="fill:rgb(204,0,34);fill-rule:nonzero;"/>
                </g>
                <g transform="matrix(0.27639,0,0,0.27639,3571.765646,-30.790437)">
                    <path d="M465.212,1411.62C469.475,1416.17 487.196,1446.95 484.469,1451.87L479.897,1452.17C476.078,1451.77 462.8,1450.71 460.432,1449.03C452.179,1443.2 462.229,1417.64 465.212,1411.62Z" style="fill:rgb(254,254,254);fill-rule:nonzero;"/>
                </g>
                <g transform="matrix(0.27639,0,0,0.27639,3571.765646,-30.790437)">
                    <path d="M1527.5,716.218C1535.3,717.896 1559.31,722.705 1565.49,725.498L1562.76,726.579C1546.23,730.066 1539.66,728.386 1523.09,726.343L1527.5,716.218Z" style="fill:rgb(254,254,254);fill-rule:nonzero;"/>
                </g>
                <g transform="matrix(0.27639,0,0,0.27639,3571.765646,-30.790437)">
                    <path d="M912.199,1310.62C915.979,1312.83 917.063,1312.36 921.691,1312.07C914.351,1315.36 908.217,1317.86 900.671,1320.66C904.144,1317.34 908.503,1313.79 912.199,1310.62Z" style="fill:rgb(204,0,34);fill-rule:nonzero;"/>
                </g>
            </g>
        </g>
    </g>
</svg>
