<?xml version="1.0" encoding="UTF-8" standalone="no"?>
<!DOCTYPE svg PUBLIC "-//W3C//DTD SVG 1.1//EN" "http://www.w3.org/Graphics/SVG/1.1/DTD/svg11.dtd">
<svg width="100%" height="100%" viewBox="0 0 503 672" version="1.1" xmlns="http://www.w3.org/2000/svg" xmlns:xlink="http://www.w3.org/1999/xlink" xml:space="preserve" xmlns:serif="http://www.serif.com/" style="fill-rule:evenodd;clip-rule:evenodd;stroke-linejoin:round;stroke-miterlimit:2;">
    <g transform="matrix(1,0,0,1,-261.219222,-49.95)">
        <g>
            <path d="M340.92,50.47C340.23,65.86 339.94,80.62 343.49,95.78C347.39,109.55 353.32,122.41 363.04,133.07C367.44,128.79 372.31,124.96 377,121C385.86,113.87 394.73,107.06 404.92,101.9C431.14,89.04 457.95,78.15 487.2,74.69C510.27,72.3 534.33,72.17 556.98,77.7C580.28,83.5 602.62,91.56 623.41,103.71C637.41,112.25 650.38,121.23 660.87,134.03C668.32,126.13 673.75,116.73 677.56,106.59C685.3,89.28 685.33,68.51 683.75,49.95C694.52,58.39 704.64,68.4 712.1,79.93C721.68,94.39 726.95,111.53 729.95,128.49C732.17,140.94 731.91,153.46 730.68,166.01C729.64,177.06 725.8,187.55 721.84,197.86C719.4,204.28 716.03,210.27 713.57,216.68C715.99,226.34 717.87,236.11 718.93,246.01C720.37,258.13 719.46,270.58 717.6,282.6C723.85,276.98 729.46,270.91 733.79,263.65C739.64,255.02 742.49,245.56 745.17,235.6C749.95,241.95 753.66,248.88 756.79,256.16C761.93,266.95 764.61,279.08 763.34,291.03C762.59,298.66 760.53,305.83 758.57,313.2C755.61,325.03 751.42,336.81 750.31,349.02C749.22,358.98 749.38,369.04 748.33,378.98C747.48,386.35 744.91,393.15 741.8,399.83C737.42,409.78 729.91,417.5 725.56,427.56C720.79,438.77 717.77,452.01 711.61,462.57C707.87,469.33 701.99,474.82 694.9,477.9C688.8,480.29 682.85,479.5 676.61,478.32C674.05,493.91 673.25,509.87 671.33,525.51C670.05,537.36 665.29,548.76 658.76,558.66C653.61,566.4 647.38,572.34 641.36,579.38C623.56,598.61 606.47,618.5 588.9,637.92C579.4,648.73 570.32,659.95 560.61,670.6C545.09,688.03 529.51,705.14 512.38,721.03C498.62,708.64 485.83,695.3 473.39,681.6C461.43,668.86 449.95,655.69 438.69,642.34C432.79,634.61 425.95,627.75 419.72,620.29C409.01,608 398.16,595.81 387.44,583.53C380.94,576.42 373.96,569.56 368.18,561.84C360.95,551.91 355.26,540.25 353.6,527.98C351.2,511.34 350.29,494.72 348.3,478.06C341.13,479.87 333.84,480.63 327.13,476.87C321.9,473.79 316.79,469.66 313.59,464.43C308.02,455.52 306.23,445.08 302.09,434.99C298.87,425.93 293.84,418.32 288.8,410.23C284.1,403.12 280.54,395.15 278.1,387C274.16,371.25 276.06,354.01 272.61,338.07C270.68,329.13 267.87,320.37 265.6,311.51C262.53,300.41 260.19,289.63 261.68,278.02C263.55,262.92 270.92,248.2 279.21,235.61C282.03,245.11 284.74,254.41 290.09,262.87C295.58,273.03 303.68,280.52 312.22,288.04C310.58,278.42 309.64,268.72 309.1,258.98C308.06,245.9 310.08,233.77 311.76,220.98C312.6,216.62 310.12,214.17 308.37,210.53C301.56,197.04 295.2,182.16 293.66,167.02C289.85,135.16 296.08,102.21 314.73,75.73C322.06,65.94 330.77,57.32 340.92,50.47Z" style="fill:rgb(1,1,1);fill-rule:nonzero;"/>
            <path d="M324.25,92.28C326.21,101.36 327.98,110.68 331.9,119.16C339.58,136.09 351.4,149.57 365.13,161.86C375.87,170.88 387.49,178.37 399.58,185.43C405.91,188.81 409.02,197.2 409.28,203.99C409.07,213.65 406.23,223.53 400.69,231.51C399.75,230.84 398.81,230.18 397.87,229.51C390.34,224.75 382.7,219.81 375.68,214.3C367.47,207.61 359.74,200.24 352.6,192.43C345.24,184.35 339.62,175.14 334.6,165.48C324.58,146.22 319.24,124.7 320.81,102.94C321.58,99.26 322.9,95.77 324.25,92.28Z" style="fill:white;fill-rule:nonzero;"/>
            <path d="M699.98,92.85C701.56,96.56 703.05,100.28 704.16,104.16C705.03,118.27 703.31,132.35 698.83,145.77C692.31,165.12 682.08,183.05 667.22,197.22C655.63,209.43 642.45,219.96 628.26,228.98C626.94,229.8 625.6,230.6 624.27,231.4C618.2,222.93 614.35,212.5 615.6,201.97C616.46,196.1 619.17,189.66 624.28,186.28C630.39,181.93 637.17,178.64 643.28,174.28C662.45,160.58 679.61,144.7 690.46,123.45C695.58,113.69 697.74,103.55 699.98,92.85Z" style="fill:white;fill-rule:nonzero;"/>
            <path d="M320.81,102.94C319.24,124.7 324.58,146.22 334.6,165.48C339.62,175.14 345.24,184.35 352.6,192.43C359.74,200.24 367.47,207.61 375.68,214.3C382.7,219.81 390.34,224.75 397.87,229.51C398.64,231.01 399.27,232.53 398.15,234.06C392.27,241.34 383.57,246.67 373.99,246.63C367.8,246.7 362.35,244.14 357.4,240.63C347.56,233.26 340.87,224.11 333.55,214.45C327.19,206.58 322.82,197.32 318.99,188.01C317.02,182.89 314.49,177.53 313.54,172.16C310.01,152.37 310.49,132.07 316.85,112.9C318.04,109.5 319.75,106.35 320.81,102.94Z" style="fill:rgb(221,25,49);fill-rule:nonzero;"/>
            <path d="M704.16,104.16C706.2,109.5 708.57,114.6 709.76,120.24C711.07,126.68 712.57,133.4 712.59,139.99C712.69,151.98 713.38,163.31 710.13,175.03C706.1,188.54 700.5,201.68 692.03,213.03C685.55,221.89 678.72,231.18 670.4,238.39C665.18,242.42 658.85,246.74 652,246.7C642.8,247.04 634,241.66 627.9,235.12C626.65,233.9 626.46,232.39 625.91,230.81C626.69,230.2 627.47,229.58 628.26,228.98C642.45,219.96 655.63,209.43 667.22,197.22C682.08,183.05 692.31,165.12 698.83,145.77C703.31,132.35 705.03,118.27 704.16,104.16Z" style="fill:rgb(221,25,49);fill-rule:nonzero;"/>
            <path d="M418.24,179.31L418.82,178.78C427.91,179.16 437.1,181.93 445.42,185.51C455.4,189.5 464.53,196.37 472.41,203.59C482.22,213.76 491.05,224.77 497.86,237.19C502.91,247.5 507.8,257.8 512.11,268.44C514.2,264.88 515.72,261.08 517.19,257.24C523.6,242.27 531.05,228.18 541.89,215.91C548.07,209.11 553.58,202.49 561.19,197.18C570.54,190.7 580.79,185.2 591.5,181.32C596.69,179.81 601.61,178.43 607.06,179.33C604.76,184.44 602.03,189.51 600.98,195C599.8,201.38 598.95,207.53 600.1,214C601,220.71 603.56,226.57 606.36,232.65C608.8,237.59 611.42,242.74 615.27,246.72C618.35,250.06 621.97,252.79 625.86,255.12C631.77,258.66 638.09,261.97 644.97,263.04C653.84,264.73 663.59,262.45 671.91,259.27C671.54,262.78 670.92,266.21 669.45,269.45C666.84,275.76 662.33,280.17 658.29,285.83C660.71,291.91 663.85,297.64 666.31,303.7C670.27,313.24 673.06,323.6 672.68,334C672.68,344.36 669.21,354.33 664.38,363.38C662.64,366.46 663.34,369.1 665,372C671.37,383.31 675.21,395.92 674.68,409C674.98,418.71 671.67,428.15 665.97,435.94C658.13,447.07 648.96,456.82 645.2,470.17C642.63,479.8 641.79,490.05 641.68,499.98C645.27,489.98 650.16,480.24 656.62,471.78C656.55,475.28 656.62,478.8 656.37,482.28C654.82,496.58 654.33,510.83 652.38,525.13C651.56,531.63 647.96,538.04 644.59,543.58C638.44,553.2 631.46,562.29 623.6,570.58C613.37,581.79 603.84,594.93 591.88,603.85C586.3,607.53 580.25,611.02 573.79,612.86C577.98,605.44 583.02,598.3 586.6,590.59C595.36,570.83 605.19,551.53 613.6,531.62C617.48,526.82 621.24,522.4 623.64,516.63C627.65,506.86 632.36,497.77 632.55,486.96C632.78,482.21 628.29,478.07 624,476.92C617.7,475.2 610.88,475.04 604.52,473.57C595.98,471.34 587.87,467.61 579.39,465.22C574.13,462.33 568.89,459.42 563.56,456.68L563.95,459.06C562.9,455.68 561.62,451.52 558.99,449.01C554.66,445.48 549.62,446.93 544.38,446.14C543.39,446.02 542.4,445.88 541.41,445.74C538.33,445.29 535.21,445.03 532.11,444.71C534.94,432.32 537.07,419.77 540.46,407.55C541.58,403.18 542.43,398.74 543.58,394.38C558.74,395.46 573.52,399.28 588.99,399.43C596.73,399.61 604.7,399.67 611.58,395.55C618.03,391.31 623.67,385.5 628.65,379.64C632.15,375.53 635.79,371.23 638.59,366.61C642.38,360.15 646.11,353.9 647.96,346.56C631.75,344.92 615.14,345.84 598.89,345.16C604.41,337.48 610.99,330.34 617.94,323.94C621.6,320.81 626.92,316.35 632.07,317.81C637.15,319.54 642.06,322.39 646.22,325.76C650.2,329.19 654.14,332.09 657.35,336.27C656.54,332.6 655.94,328.95 654.45,325.46C652.18,320.02 650.08,314.22 646.4,309.58C640.89,302.84 634.09,297.75 626.63,293.34C624.52,292.13 622.34,291.7 620.47,293.62C613.35,300.08 607.46,307.83 600.48,314.48C594.36,320.78 587.28,325.88 580.97,331.96C571.04,340.44 559.53,347.97 547.09,352.15C542.38,353.71 537.16,354.34 533.1,350.91C529.54,347.33 527.63,341.62 525.64,337.05C521.45,343.67 520.62,351.92 521.74,359.54C523.28,365.04 528.67,368.88 533.17,371.94C529.23,374.03 525.27,375.83 521.11,377.44C521.84,380.58 522.76,383.67 523.48,386.81C516.08,386.86 508.69,386.86 501.29,386.86C501.79,383.81 502.83,380.46 502.59,377.39C499.2,375.26 495.36,373.85 491.84,371.93C496.24,368.56 500.41,365.88 502.26,360.32C505.29,352.02 502.34,344.51 498.96,336.94C496.55,342.71 494.01,350.36 487.97,353.3C482.22,354.79 475.8,351.71 470.66,349.35C463.62,345.69 456.59,341.46 450.17,336.8C438.36,327.48 426.81,317.45 416.55,306.43C412.05,302.27 408.39,297.18 403.69,293.27C400.92,291.01 398.07,293.04 395.6,294.61C386.27,301.04 376.63,308.57 372.7,319.63C370.29,324.92 368.73,330.11 367.31,335.73C373.87,329.44 381.07,323.29 389.18,319.1C392.72,317.34 396.61,316.51 400.12,318.82C406.25,322.74 411.58,328.17 416.29,333.68C419.52,337.59 423.08,341.18 426.1,345.27C415.26,345.79 404.61,344.91 393.99,346.08C388.11,346.58 382.16,346.26 376.25,346.47C379.25,354.63 383.12,362.78 388.06,369.95C393.65,377.25 399.91,384.08 406.5,390.5C410.94,394.96 417.65,397.14 423.7,398.29C436.85,400.56 450,399.15 463,396.62C469.1,395.68 475.08,394.5 481.26,394.28C483.68,406.26 487,418.03 489.37,430.01C490.41,437.01 492.33,443.76 494.14,450.58C488.11,453.19 484.74,447.98 478.83,447.2C476.23,446.73 473.12,445.95 470.53,446.67C467.94,447.59 465.79,450.11 463.74,451.91C456.59,455.71 450.03,460.81 443.79,465.94C433.99,468.82 424.94,473.63 414.41,474.6C408.74,475.47 401.72,475.76 396.76,478.82C393.61,480.47 392.35,484.68 392.43,488C392.72,495.02 394.79,502.1 397.57,508.52C401.36,517.28 405,525.75 411.56,532.86C418.16,549.8 426.99,565.87 434.2,582.54C438.53,593.68 444.7,603.86 451.82,613.41C447.15,611.34 442.41,609.63 437.98,607.02C430.15,602.56 423.76,595.96 417.59,589.42C409.24,579.79 400.82,570.23 392.3,560.75C387.28,554.07 382.14,547.33 377.73,540.24C374.06,534.14 372.24,527.33 371.66,520.28C371.19,513.91 369.75,507.66 369.57,501.28C369.19,491.24 367.75,481.19 367.56,471.15C371.3,476.06 374.52,481.3 377.23,486.85C379.35,491.38 382,495.45 383.28,500.34C382.95,491.42 382.33,482.34 380.44,473.6C377.95,463.16 371.65,453.21 365.25,444.72C361.75,439.96 357.66,435.23 355.02,429.93C351.66,422.47 349.55,414.21 349.69,405.99C350.1,393.06 354.47,380.13 361.06,369.05C362.61,366.52 360.41,363.87 359.45,361.55C354.55,352.44 352.21,342.29 351.76,332C351.75,319.75 355.73,308.81 360.75,297.83C362.78,293.17 365.72,289.84 365.78,284.58C361.8,279.87 357.82,275.31 355.33,269.61C353.78,266.27 353.05,262.76 352.33,259.18C362.94,262.53 372.95,265.29 384.08,262.13C396,258.53 407.33,250.76 414.45,240.49C422.83,227.01 427.52,210.02 423.66,194.3C422.56,189.05 419.39,184.48 418.24,179.31Z" style="fill:rgb(221,25,49);fill-rule:nonzero;"/>
            <path d="M278.75,277.33C282.56,281.51 286.44,285.61 290.06,289.96C298.62,299.2 308.2,306.97 316.16,316.89C320.92,322.5 324.92,328.65 327.43,335.6C331.7,346.24 332.32,356.74 333.48,368C334.18,375.44 332.51,382.38 331.63,389.69C331.26,395.08 330.27,400.65 330.62,406.02C331.45,416.52 335.94,424.78 339.74,434.32C342.23,440.26 343.74,446.58 344.28,453C345.32,457.88 338.81,460.65 334.94,459.25C330.77,457.71 327.51,453.36 325.32,449.65C320.17,438.9 319.25,427.88 313.42,417.52C306.98,405.88 299.7,395.67 295.02,382.87C293.34,377.45 292.71,371.65 292.51,366C292.53,357.05 291.66,348.04 290.31,339.19C287.39,323.87 282.27,308.99 279.26,293.69C278.1,288.44 278.46,282.7 278.75,277.33Z" style="fill:rgb(221,25,49);fill-rule:nonzero;"/>
            <path d="M745.56,277.22C745.88,280.56 746.38,283.67 746.2,287.04C745.15,300.35 740.49,311.37 737.79,324.52C735.06,335.09 732.7,345.6 732.41,356.56C732.35,363.06 731.76,369.56 731.17,376.03C730.09,384.7 725.95,391.41 722.01,399.01C716.99,408.32 710.01,417.7 706.73,427.68C704.68,434.43 702.93,441.61 700.08,448.09C698.28,451.64 695.84,455.27 692.58,457.63C689.86,459.57 685.53,460.53 682.75,458.22C680.58,456.66 680.59,453.37 680.77,450.98C681.18,446.76 681.74,442.27 683.23,438.28C686.62,429.09 691.79,419.5 693.49,409.84C693.81,402.07 694.05,394.03 692.5,386.36C690.15,373.98 691.47,361.16 693.36,348.82C694.37,342.37 696.33,336.19 699.34,330.39C702.65,323.5 707.75,317.5 712.72,311.71C716.56,307.18 721.02,303.39 725.29,299.28C732.4,292.23 738.94,284.71 745.56,277.22Z" style="fill:rgb(221,25,49);fill-rule:nonzero;"/>
            <path d="M403.69,293.27C408.39,297.18 412.05,302.27 416.55,306.43C426.81,317.45 438.36,327.48 450.17,336.8C456.59,341.46 463.62,345.69 470.66,349.35C475.8,351.71 482.22,354.79 487.97,353.3C494.01,350.36 496.55,342.71 498.96,336.94C502.34,344.51 505.29,352.02 502.26,360.32C500.41,365.88 496.24,368.56 491.84,371.93C495.36,373.85 499.2,375.26 502.59,377.39C502.83,380.46 501.79,383.81 501.29,386.86C499.85,396.42 500.42,406.35 500.14,416C499.66,431.44 499.72,447.15 497.96,462.5C496.28,458.7 495.31,454.56 494.14,450.58C492.33,443.76 490.41,437.01 489.37,430.01C487,418.03 483.68,406.26 481.26,394.28C475.08,394.5 469.1,395.68 463,396.62C450,399.15 436.85,400.56 423.7,398.29C417.65,397.14 410.94,394.96 406.5,390.5C399.91,384.08 393.65,377.25 388.06,369.95C383.12,362.78 379.25,354.63 376.25,346.47C382.16,346.26 388.11,346.58 393.99,346.08C404.61,344.91 415.26,345.79 426.1,345.27C423.08,341.18 419.52,337.59 416.29,333.68C411.58,328.17 406.25,322.74 400.12,318.82C396.61,316.51 392.72,317.34 389.18,319.1C381.07,323.29 373.87,329.44 367.31,335.73C368.73,330.11 370.29,324.92 372.7,319.63C376.63,308.57 386.27,301.04 395.6,294.61C398.07,293.04 400.92,291.01 403.69,293.27Z" style="fill:rgb(1,1,1);fill-rule:nonzero;"/>
            <path d="M626.63,293.34C634.09,297.75 640.89,302.84 646.4,309.58C650.08,314.22 652.18,320.02 654.45,325.46C655.94,328.95 656.54,332.6 657.35,336.27C654.14,332.09 650.2,329.19 646.22,325.76C642.06,322.39 637.15,319.54 632.07,317.81C626.92,316.35 621.6,320.81 617.94,323.94C610.99,330.34 604.41,337.48 598.89,345.16C615.14,345.84 631.75,344.92 647.96,346.56C646.11,353.9 642.38,360.15 638.59,366.61C635.79,371.23 632.15,375.53 628.65,379.64C623.67,385.5 618.03,391.31 611.58,395.55C604.7,399.67 596.73,399.61 588.99,399.43C573.52,399.28 558.74,395.46 543.58,394.38C542.43,398.74 541.58,403.18 540.46,407.55C537.07,419.77 534.94,432.32 532.11,444.71C530.22,450.27 529.3,455.9 526.5,461.15C525.63,454.77 525.35,448.44 525.2,442C524.73,428.34 524.4,414.67 524.35,401C524.26,396.24 524.36,391.46 523.48,386.81C522.76,383.67 521.84,380.58 521.11,377.44C525.27,375.83 529.23,374.03 533.17,371.94C528.67,368.88 523.28,365.04 521.74,359.54C520.62,351.92 521.45,343.67 525.64,337.05C527.63,341.62 529.54,347.33 533.1,350.91C537.16,354.34 542.38,353.71 547.09,352.15C559.53,347.97 571.04,340.44 580.97,331.96C587.28,325.88 594.36,320.78 600.48,314.48C607.46,307.83 613.35,300.08 620.47,293.62C622.34,291.7 624.52,292.13 626.63,293.34Z" style="fill:rgb(1,1,1);fill-rule:nonzero;"/>
            <path d="M294.55,318.69C298.08,322.1 302,325.07 305.5,328.5C315.14,338.91 322.81,351.5 327.31,364.96C328.57,369.84 331.2,374.68 328.5,379.53C324.08,388.29 321.19,396.73 319.09,406.31C314.19,401.12 312.08,394.41 310.4,387.63C308.96,382.04 309.67,376.66 309.11,371C308.49,364.8 308.21,358.81 306.5,352.77C303.12,341.2 298.4,330.06 294.55,318.69Z" style="fill:rgb(1,1,1);fill-rule:nonzero;"/>
            <path d="M729.8,318.85C728.48,324.5 725.95,329.62 724.16,335.11C721.6,342.88 718.44,349.84 716.97,357.99C716.07,363.29 715.47,368.62 715.53,374C715.69,385.24 712.93,397.15 705.83,406.11C703.92,397.23 700.99,388.38 696.54,380.44C695.8,379.06 695,377.58 694.59,376.07C696.29,366.53 699.41,357.7 704.43,349.39C710.52,337.37 719.5,327.41 729.8,318.85Z" style="fill:rgb(1,1,1);fill-rule:nonzero;"/>
            <path d="M623.45,361.1C619.57,367.1 615.19,373.07 610.12,378.13C606.85,381.35 602.65,384.32 597.96,384.81C584.88,385.41 572.48,383.64 559.63,381.46C567.46,372.31 577.26,365.21 589.07,362.27C600.88,359.69 611.36,361.47 623.45,361.1Z" style="fill:white;fill-rule:nonzero;"/>
            <path d="M401.12,360.86C412.65,361.54 422.65,359.69 433.94,362.17C439.43,363.49 445.06,365.23 449.95,368.11C455.6,371.65 460.64,376.5 465.01,381.5C454.11,383.4 443.06,384.75 431.99,385.09C425.72,385.27 419.94,382.87 415.37,378.65C410.62,374.21 406.16,368.85 402.65,363.39C402.13,362.54 401.62,361.7 401.12,360.86Z" style="fill:white;fill-rule:nonzero;"/>
            <path d="M501.29,386.86C508.69,386.86 516.08,386.86 523.48,386.81C524.36,391.46 524.26,396.24 524.35,401C524.4,414.67 524.73,428.34 525.2,442C525.35,448.44 525.63,454.77 526.5,461.15C529.3,455.9 530.22,450.27 532.11,444.71C535.21,445.03 538.33,445.29 541.41,445.74C543.51,446.25 546.22,446.47 547.48,448.47C549.61,451.56 551,455.28 551.44,458.99C551.63,461.67 551.57,464.48 549.33,466.33C545.38,469.51 540.38,471.15 536.34,474.29C529.53,479.14 525.6,486.23 519.5,491.48C516.85,493.57 513.43,495.83 510.01,494.04C503.48,491.06 498.75,485.07 494.32,479.65C490.12,474.51 484.67,472.14 479.12,468.87C477.07,467.6 474.41,466.02 473.33,463.79C472.29,457.77 474.97,451.71 478.83,447.2C484.74,447.98 488.11,453.19 494.14,450.58C495.31,454.56 496.28,458.7 497.96,462.5C499.72,447.15 499.66,431.44 500.14,416C500.42,406.35 499.85,396.42 501.29,386.86Z" style="fill:rgb(221,25,49);fill-rule:nonzero;"/>
            <path d="M541.41,445.74C542.4,445.88 543.39,446.02 544.38,446.14C549.62,446.93 554.66,445.48 558.99,449.01C561.62,451.52 562.9,455.68 563.95,459.06C564.55,463.62 565.34,469.23 563.49,473.57C562.23,476.56 559.64,477.55 557.02,479.09C551.75,481.91 546.84,485.37 542.44,489.41C537.25,494.23 533.06,501.15 527.33,505.3C519.94,510.29 509.54,511.91 501.53,507.38C495.42,503.87 490,498.85 485.77,493.22C480.96,486.88 474.66,483.05 467.89,479.14C464.49,477.07 461.07,475.26 460.19,471.01C459.09,464.66 460.93,457.61 463.74,451.91C465.79,450.11 467.94,447.59 470.53,446.67C473.12,445.95 476.23,446.73 478.83,447.2C474.97,451.71 472.29,457.77 473.33,463.79C474.41,466.02 477.07,467.6 479.12,468.87C484.67,472.14 490.12,474.51 494.32,479.65C498.75,485.07 503.48,491.06 510.01,494.04C513.43,495.83 516.85,493.57 519.5,491.48C525.6,486.23 529.53,479.14 536.34,474.29C540.38,471.15 545.38,469.51 549.33,466.33C551.57,464.48 551.63,461.67 551.44,458.99C551,455.28 549.61,451.56 547.48,448.47C546.22,446.47 543.51,446.25 541.41,445.74Z" style="fill:rgb(1,1,1);fill-rule:nonzero;"/>
            <path d="M463.74,451.91C460.93,457.61 459.09,464.66 460.19,471.01C461.07,475.26 464.49,477.07 467.89,479.14C474.66,483.05 480.96,486.88 485.77,493.22C490,498.85 495.42,503.87 501.53,507.38C509.54,511.91 519.94,510.29 527.33,505.3C533.06,501.15 537.25,494.23 542.44,489.41C546.84,485.37 551.75,481.91 557.02,479.09C559.64,477.55 562.23,476.56 563.49,473.57C565.34,469.23 564.55,463.62 563.95,459.06L563.56,456.68C568.89,459.42 574.13,462.33 579.39,465.22C583.36,468.41 586.99,471.92 591.24,474.76C597.45,478.9 603.73,482.96 610.09,486.87C613.65,489.18 616.86,491.72 617.55,496.19C618.97,508.74 615.88,519.5 613.6,531.62C605.19,551.53 595.36,570.83 586.6,590.59C583.02,598.3 577.98,605.44 573.79,612.86C571.73,615.1 568.24,616.15 565.48,617.34C559.2,619.87 551.92,621.17 545.53,618.27C537.55,614.9 532.08,606.73 529.41,598.77C527.94,594.1 526.4,588.69 527.85,583.86C529.69,578.9 533.15,575.44 537.05,572.03C541.48,570.33 545.65,568.44 549.22,565.24C555.03,560.19 561.82,554.72 565.1,547.66C561.87,548.52 558.65,549.44 555.5,550.56C547.61,553.41 539.33,555.35 531.01,556.37C512.47,558.15 494.1,557.71 476.07,552.68C470.32,551.21 465.07,548.48 459.32,547.05C463.41,554.52 469.14,561.02 476.21,565.79C479.41,567.9 482.98,569.32 486.3,571.27C489.5,576.5 493.36,581.25 496.53,586.49L497.36,586.56C497.22,595.97 493.59,605.33 487.47,612.47C483.35,617.2 477.31,619.98 471,619.59C464.18,619.01 457.57,617.22 451.82,613.41C444.7,603.86 438.53,593.68 434.2,582.54C426.99,565.87 418.16,549.8 411.56,532.86C408.87,520.73 405.14,507.76 407.45,495.18C408.33,490 414.64,487.28 418.53,484.54C427,478.72 436.78,473.5 443.79,465.94C450.03,460.81 456.59,455.71 463.74,451.91Z" style="fill:rgb(221,25,49);fill-rule:nonzero;"/>
            <path d="M604.52,473.57C610.88,475.04 617.7,475.2 624,476.92C628.29,478.07 632.78,482.21 632.55,486.96C632.36,497.77 627.65,506.86 623.64,516.63C621.24,522.4 617.48,526.82 613.6,531.62C615.88,519.5 618.97,508.74 617.55,496.19C616.86,491.72 613.65,489.18 610.09,486.87C603.73,482.96 597.45,478.9 591.24,474.76C586.99,471.92 583.36,468.41 579.39,465.22C587.87,467.61 595.98,471.34 604.52,473.57Z" style="fill:rgb(1,1,1);fill-rule:nonzero;"/>
            <path d="M443.79,465.94C436.78,473.5 427,478.72 418.53,484.54C414.64,487.28 408.33,490 407.45,495.18C405.14,507.76 408.87,520.73 411.56,532.86C405,525.75 401.36,517.28 397.57,508.52C394.79,502.1 392.72,495.02 392.43,488C392.35,484.68 393.61,480.47 396.76,478.82C401.72,475.76 408.74,475.47 414.41,474.6C424.94,473.63 433.99,468.82 443.79,465.94Z" style="fill:rgb(1,1,1);fill-rule:nonzero;"/>
            <path d="M418.85,494.18C427.22,498.03 434.77,503.17 443.13,506.87C458.86,513.56 474.8,514.73 491.53,516.74C500.34,517.82 505.09,523.32 512.14,527.79C517.41,524.89 520.69,520.64 526.42,518.48C532.72,516.25 539.89,516.04 546.5,515.21C557.86,514.21 569.01,511.99 579.47,507.33C588.58,503.14 597.45,498.38 606.35,493.83C606.04,497.58 605.96,501.34 605.62,505.08C605.57,506.82 604.17,507.86 602.96,508.89C597.08,513.5 590.13,517.06 583.45,520.36C571.26,526.41 558.38,530.12 545.03,532.59C536.71,534.09 528.31,535.15 519.98,536.6C515.96,537.29 512.07,537.92 507.99,537.24C500.32,536.08 492.67,534.69 485.02,533.38C467.5,530.72 450.5,525.55 434.84,517.18C429.79,514.44 423.46,511.68 419.83,507.11C418.2,503.35 419.1,498.23 418.85,494.18Z" style="fill:rgb(1,1,1);fill-rule:nonzero;"/>
            <path d="M476.07,552.68C494.1,557.71 512.47,558.15 531.01,556.37C539.33,555.35 547.61,553.41 555.5,550.56C558.65,549.44 561.87,548.52 565.1,547.66C561.82,554.72 555.03,560.19 549.22,565.24C545.65,568.44 541.48,570.33 537.05,572.03C527.25,572.8 517.59,575.14 507.99,574.31C500.67,573.71 493.48,572.84 486.3,571.27C482.98,569.32 479.41,567.9 476.21,565.79C469.14,561.02 463.41,554.52 459.32,547.05C465.07,548.48 470.32,551.21 476.07,552.68Z" style="fill:rgb(1,1,1);fill-rule:nonzero;"/>
            <path d="M486.3,571.27C493.48,572.84 500.67,573.71 507.99,574.31C517.59,575.14 527.25,572.8 537.05,572.03C533.15,575.44 529.69,578.9 527.85,583.86C527.47,584.82 527.09,585.79 526.72,586.76C516.92,586.11 507.16,586.6 497.36,586.56L496.53,586.49C493.36,581.25 489.5,576.5 486.3,571.27Z" style="fill:rgb(221,25,49);fill-rule:nonzero;"/>
            <g transform="matrix(0.407324,0,0,0.407324,303.802798,301.706324)">
                <path d="M512.22,741.96C518.43,756.96 524.88,771.86 531.17,786.83C536.04,797.66 541.34,808.29 546.26,819.09C539.7,816.98 533.23,814.63 526.75,812.3C526.43,826.11 525.43,840.28 525.95,854.02C526.31,874.38 528.89,894.55 532.87,914.49C543.15,911.04 553.55,907.41 563.44,902.95C564.03,889.42 565.78,875.71 569.67,862.7C573.09,851.94 577.21,841.36 582.2,831.22C575.44,832.37 568.72,833.65 561.9,834.42C565.34,829.81 569.03,825.17 573.15,821.15C579.77,814.96 586.21,808.76 593.84,803.78C603.27,797.32 612.56,791.2 623.38,787.26C618.8,797.31 613.45,806.98 609.15,817.17C599.08,838.72 592.05,861.25 589.82,885.01C588.46,899.48 589.51,913.86 590.28,928.34C581.41,931.48 572.38,933.83 563.83,937.89C554.94,941.61 547.38,947.08 539.42,952.4C537.49,953.97 534.97,955.13 534.73,957.89C532.64,968.61 530.61,979.32 529.4,990.18C518.25,990.18 507.1,990.14 495.95,990.15C494.32,977.94 490.88,966.14 489.12,953.96C485.3,951.27 481.3,948.87 477.25,946.55C464.16,938.55 449.19,932.91 434.62,928.27C434.4,918.82 435.51,909.45 435.29,900C435.45,877.31 430.36,855.64 422.46,834.49C416.91,817.73 408.18,803.27 401.03,787.34C410.72,790.58 419.83,796.13 428.44,801.55C442.15,810.2 453.43,821.59 463,834.6C456.04,833.77 449.14,832.27 442.19,831.18C448.42,843.55 453.34,856.64 456.76,870.06C459.45,880.8 460.36,891.71 461.46,902.67C465.07,904.89 469.27,906.28 473.18,907.9C479.4,910.18 485.59,912.62 491.93,914.55C493.54,904.01 495.74,893.64 496.72,883C499.29,859.43 498.98,835.97 497.72,812.34C491.25,814.6 484.78,816.88 478.27,819.05C484.78,805.19 491.51,791.38 497.32,777.21C501.46,766.35 506.48,755.9 510.89,745.16C511.33,744.09 511.78,743.03 512.22,741.96Z" style="fill:white;fill-rule:nonzero;"/>
            </g>
        </g>
    </g>
</svg>
