<?xml version="1.0" encoding="UTF-8" standalone="no"?>
<!DOCTYPE svg PUBLIC "-//W3C//DTD SVG 1.1//EN" "http://www.w3.org/Graphics/SVG/1.1/DTD/svg11.dtd">
<svg width="100%" height="100%" viewBox="0 0 494 472" version="1.1" xmlns="http://www.w3.org/2000/svg" xmlns:xlink="http://www.w3.org/1999/xlink" xml:space="preserve" xmlns:serif="http://www.serif.com/" style="fill-rule:evenodd;clip-rule:evenodd;stroke-linejoin:round;stroke-miterlimit:2;">
    <g transform="matrix(1,0,0,1,-9.26337,-21.245638)">
        <g transform="matrix(1,0,0,1,-4923.404239,0.807578)">
            <g transform="matrix(1.986021,0,0,1.986021,4173.431641,-149.366639)">
                <path d="M540,313.585L530.231,295L523,275L523,256L530.231,248L544.66,265L575,290L597,285L609,273L619,247L614,231L611,221L622,204.11L625,183L616,162.557L597,156L575,157L571,152L576,139L578,115L564,97L539,94L519,101L512,105L482,94L462,100L451,114L450,135L454,149.283L449,155L414,157L400,173.417L398,195L408,215L415,222L411,231L408,252L417,270L434,286C434,286 442.651,288.472 446.352,289.529C447.437,289.839 448.578,289.904 449.691,289.718C454.169,288.972 466,287 466,287L488,277L500,272L503,284L508,305L515.802,316L540,313.585Z" style="fill:rgb(21,71,51);"/>
                <path d="M547.05,86.04C547.49,86.86 547.91,87.7 548.32,88.53C550.3,85.94 554.97,85.3 558.03,85.55C559.52,86.85 563.16,89.31 565.06,87.82C567.76,91.1 570.99,90.39 574.84,91.9C574.72,92.44 574.6,92.98 574.49,93.52C577.84,93.93 580.5,96.16 581.17,99.56C581.84,99.42 582.5,99.29 583.17,99.15C583.35,99.89 583.14,100.7 582.55,101.57C583.23,102.29 583.87,103.04 584.48,103.82C584.76,107.58 586.03,111.29 586.56,115.01C586.74,117.19 586.13,119.06 587.44,121.01C587.48,121.86 587.24,122.71 586.73,123.56C586.28,125.81 586.98,128.7 585.99,130.89C584.64,134.23 583.98,137.93 582.39,141.15C581.87,142.35 580.41,142.43 579.78,143.47C579.34,146.68 576.31,148.27 576.2,151.72C579.23,151.6 581.97,150.35 584.99,150.11C595.15,148.44 605.87,150.7 614.27,156.72C621.8,161.76 627.04,169.72 629.55,178.35C631.15,183.44 630.84,189.31 630.45,194.58C628.74,205.9 622.44,214.8 614.85,223C616.37,227.12 618.98,230.55 620.28,234.82C622.79,237.3 622.9,240.29 624.4,243.34C624.81,247.33 624.36,251.45 624.45,255.47C621.36,257.18 623.15,261.81 620.66,264.53C620.85,268.68 619.34,271.95 617.9,275.79C617.38,275.66 616.87,275.52 616.35,275.39C615.7,276.84 615.12,278.31 614.52,279.77C613.66,281.15 612.42,282.17 611.79,283.72C611.04,283.58 610.29,283.44 609.54,283.3C609.04,285.51 608.5,287.8 606.04,288.53C605.54,288.15 605.05,287.77 604.55,287.4C603.19,289.55 600.86,290.32 599.98,292.84C599.1,292.71 598.22,292.57 597.34,292.4C596.89,293.2 596.45,294 596,294.81C592.89,293.62 591.94,296.44 589.06,297.44C588.52,297.09 587.98,296.74 587.44,296.39C586.11,298.78 586,301.33 585.8,304C585.74,309.64 585.83,315.3 585.65,320.94C585.63,322.27 584.51,322.56 583.42,322.72C582.86,321.49 582.6,320.25 582.63,319C582.7,311.5 582.56,303.95 582.32,296.46C582,296.06 581.68,295.67 581.33,295.29C580.52,296.65 580.67,298.45 579.73,299.66C578.02,300 577.34,298.6 575.97,297.81C573.13,297.14 570.43,296.28 567.47,296.46C567.32,295.66 567.16,294.87 566.99,294.08C566.32,294.35 565.79,294.87 565.41,295.63C561.73,290.86 555.59,288.14 551.34,283.89C549.69,281.16 548.32,278.28 546.56,275.61C543.86,275.56 542.44,273.94 541.6,271.5C541.2,271.54 540.8,271.59 540.4,271.63C538.98,269.09 537.01,267.07 534.93,265.07C532.98,263.28 532.04,260.99 529.62,259.7C529.63,258.34 529.89,258.18 528.63,257.35C528.58,256.72 528.56,256.07 528.58,255.42L526.51,255.42C525.75,269.77 529.62,283.87 536.67,296.32C538.51,299.41 540.99,302.15 542.92,305.16C544.71,309.43 547,313.53 549.71,317.28C550.63,318.67 551.64,319.84 551.8,321.57C543.2,321.87 534.59,321.53 525.99,321.76C521.94,322.33 518.09,322.73 513.98,322.25C509.3,320.02 507.25,315.96 503.66,312.46C503.78,310.09 501.85,309.09 501.48,306.93C500.6,303.28 499.49,299.42 499.54,295.66C499.35,290.04 500.07,284.28 499.27,278.48L498.72,277.28C494.25,278.39 493.03,284.74 488.07,285.21C484.7,285.99 482.25,288.31 479.04,289.37C477.33,289.5 475.66,289.47 474,289.98C471.92,289.59 469.93,289.2 467.92,288.52C466.15,288.33 463.77,289.63 463.45,287C465.01,282.96 469.5,282.75 472.97,281.01C477.85,279.14 480.42,275.42 484.32,272.28C489.54,267.88 494.36,262.87 499.87,258.82C500.97,257.99 501.72,256.62 502.5,255.5C503.66,255.23 505.76,253.98 506.62,255.25C506.74,261.17 507.44,267.01 507.54,272.93C509.02,286.59 512.59,300.06 518.48,312.5C523.89,312.57 529.31,312.46 534.73,312.48C533.52,308.97 531.12,305.87 529.43,302.57C523.75,291.64 519.1,280.23 517.55,267.93C517.32,262.79 517.33,257.56 517.56,252.42C518.15,251.06 520.73,250.73 521.96,249.92C525.6,248.3 526.41,244.79 527.51,241.34C531.22,244.69 534.12,248.8 537.81,252.19C543.5,258.2 549.72,263.67 556.26,268.75C560.62,271.68 565.18,275.1 570.14,276.78C580.36,280.78 592.21,279.87 601.1,273.17C608.57,267.53 612.92,258.35 612.53,249C612.92,239.89 608.98,231.41 604.1,223.97C603.26,222.6 602.6,221.32 604.06,220.08C611.3,214.1 617.27,207.11 620.17,198.03C622.63,189.84 621.9,180.87 617.52,173.46C613.2,166.5 606.11,161.3 598.03,159.71C588.07,158.11 578.63,160.45 569.58,164.54C563.19,167.03 557.37,170.52 551.33,173.68C551.87,171.78 553.51,170.18 554.57,168.51C561.57,158.51 568.91,147.71 571.49,135.58C573.82,125.72 570.91,114.51 563.7,107.31C559.38,102.66 553.22,99.71 547.01,98.68C535.88,97.14 524.37,103.21 515.79,109.79C514.64,110.47 513.35,111.9 511.94,111.44C508.49,109.53 505.43,106.93 502.02,104.92C494.02,100.2 485.38,97.11 475.99,99.03C469.71,100.45 463.96,103.91 459.75,108.77C454.97,114.25 452.54,121.78 452.64,129C453.29,141.46 459.17,151.91 465.82,162.11C468.11,165.58 471.27,168.93 472.8,172.8C468.28,171.08 464.21,168.22 459.72,166.36C452.06,163.22 444.43,159.43 435.99,159.24C431.71,159.13 426.96,159.19 422.91,160.69C414.63,163.69 407.62,170.47 404.78,178.86C402.97,183.52 403.16,189.01 403.46,193.93C405.44,203.32 410.71,211.78 418.21,217.77C419.61,219.28 422.64,220.38 421.59,222.9C417.35,229.05 413.74,235.28 412.56,242.8C411.89,248.52 412.04,254.55 414.01,260.02C414.57,261.49 415.17,263.25 416.76,263.87C422.4,251.37 428.06,238.8 432.74,225.91C435.4,219.55 433.82,212.45 438.7,206.71C444.81,199.15 454.1,197.53 463.07,195.53C467.31,195.27 471.85,195.01 476.01,195.99C485,198.72 493.53,203.39 501.18,208.79C502.33,209.51 502.96,210.57 503.69,211.66C502.73,211.6 501.79,211.45 500.87,211.23C491.8,207.74 482.82,203.25 473,202.6C467.42,202.22 462.25,203.51 456.88,204.86C451.44,206.68 445.67,208.39 441.79,212.87C441.47,213.39 441.31,214.01 441.32,214.72C443.16,214.17 444.76,213.27 446.72,213.19C444.15,218.34 440.85,223.03 438.2,228.14C436.64,231.19 434.34,234.57 433.98,238.01C434.37,239.09 435.02,240.03 435.45,241.09C435.69,244.63 433.8,248.41 432.57,251.64C430.78,257.21 428.24,261.96 428.34,268C428.19,274.47 430.32,282.61 435.71,286.69C419.26,285.5 405.16,271.23 403.24,255.01C401.13,245.19 404.34,234.63 408.94,225.95C409.41,224.98 410.07,223.5 409.51,222.46C407.59,220.44 405.48,218.62 403.64,216.51C403.07,216.61 402.5,216.71 401.93,216.81C400.32,215.01 398.99,213.31 396.72,212.3C395.56,209.67 393.3,208.51 391.36,206.55C388.63,203.95 387.03,200.28 385.24,197.05C385.92,194.51 385.38,192.69 384.49,190.29C383.76,190.08 383.02,189.86 382.29,189.64C383.01,189.08 383.73,188.53 384.46,187.99C383.77,187.47 383.09,186.93 382.41,186.39C382.43,185.46 382.44,184.54 382.45,183.61C383.07,183.11 383.71,182.62 384.35,182.16C384.04,181.55 383.71,180.96 383.37,180.38C383.8,179.88 384.25,179.39 384.71,178.91C383.69,175.58 385.88,172.53 388.46,170.66C388.45,169.64 388.42,168.63 388.39,167.61C390.73,165.56 392.67,163.12 395.08,161.07C397.19,157.77 401.33,154.36 405.43,154.45C405.54,153.68 405.65,152.9 405.75,152.12C406.98,152.3 408.18,152.39 409.42,152.4C411.51,150.84 413.85,148.57 416.49,148.19C418.07,147.43 419.32,145.72 420.35,144.35C423.27,144.6 426.13,144.5 428.98,145.35C430.38,145.72 431.39,145.08 432.57,144.47C433.08,144.88 433.58,145.3 434.07,145.73C437.3,145.22 441.1,147.36 444.07,148.55C444.53,148.19 444.99,147.83 445.45,147.47C445.75,148.45 446.32,148.96 447.16,148.97C447.24,148.04 447.11,147.1 446.76,146.14C444.36,138.61 442.74,130.94 443.91,123C444.81,114.4 448.99,106.14 455.21,100.16C460.6,94.44 468.56,91.2 476.08,89.49C481.32,89.23 487.24,88.76 492.24,90.59C499.51,92.47 506.01,95.99 512.08,100.34C517.4,97.93 522.24,93.31 528.42,92.14C531.74,90.74 534.79,89.03 538.51,88.34C541.06,87.88 543.03,89.2 545.17,87.26C545.65,86.4 546.28,85.99 547.05,86.04Z" style="fill:rgb(238,169,4);fill-rule:nonzero;"/>
                <path d="M513.97,116.71C523.7,118.75 532.57,123.51 537.53,132.45C539.98,136.21 540.27,140.61 542.47,144.45C542.63,145.55 542.71,146.67 542.71,147.8C533.24,145.78 523.49,145.81 514.01,147.84C510.72,148.32 507.38,149.65 504.06,149.66C502.1,148.51 500.52,147.84 498.24,147.47C502.02,144.73 507.41,144.04 511.83,142.7C519.4,141.23 527.23,140.45 534.93,140.78C535.16,136.3 532.13,131.1 529.22,127.77C526.71,124.97 523.13,121.69 519.24,121.31C521.77,123.31 524.36,125.02 526.25,127.72C528.3,130.56 530.87,134.13 530.86,137.76C527.88,138.58 525.02,138.31 521.98,138.48C516.4,138.69 511,140.98 505.47,140.68C505.05,133.45 506.42,126.31 510.12,120.04C511.02,118.65 512.1,116.76 513.97,116.71Z" style="fill:rgb(238,169,4);fill-rule:nonzero;"/>
                <path d="M506.67,120.3L506.38,121.47C503.79,124.5 500.59,126.87 498.38,130.39C495.85,134.71 493.49,138.76 493.42,143.93C493.13,146.37 490.98,146.63 488.97,146.88C488.5,144.2 489.61,141.08 490.47,138.53C493.26,130.83 499.32,123.9 506.67,120.3Z" style="fill:rgb(238,169,4);fill-rule:nonzero;"/>
                <path d="M492.44,149.33C492.43,151.05 492.42,152.77 492.44,154.49C491.14,155.07 489.87,155.54 488.45,155.76C488.42,154.3 488.35,152.82 488.45,151.37C489.29,150.2 491.11,149.71 492.44,149.33Z" style="fill:rgb(238,169,4);fill-rule:nonzero;"/>
                <path d="M524.36,149.44C530.62,148.91 536.97,149.68 542.67,152.44C542.75,153.27 542.81,154.1 542.87,154.93C541.71,154.58 540.67,154.03 539.62,153.43C538.32,153.95 536.65,155.1 535.23,154.62C532.74,153.7 530.8,152 528.02,151.58C525.25,151.14 522.81,152.63 521.14,154.72C523.01,154.83 524.85,154.7 526.7,154.5C526.46,155.81 524.93,156.58 524.05,157.52C526.6,158.08 529.14,158.64 531.63,159.42C531.21,160.21 530.78,160.99 530.37,161.78C533.72,160.9 536.44,159.25 538.61,156.53C539.24,156.2 539.67,156.36 539.9,156.99C541.97,160.55 543.36,164.58 544.66,168.47C541.49,170.2 538.63,169.25 535.35,168.55C535.42,167.76 535.48,166.96 535.55,166.16C533.75,166.02 533.46,167.28 532.42,168.42C531.13,170.39 528.54,171.15 526.83,172.84C525.64,173.9 524.89,175.48 523.33,175.83C522.97,173.21 523.54,170.84 523.9,168.27C521.38,167.05 518.36,165.72 516.51,163.56C515.19,161.56 516.02,159.68 516.56,157.58C517.94,153.94 520.2,150.18 524.36,149.44Z" style="fill:rgb(238,169,4);fill-rule:nonzero;"/>
                <path d="M513.03,152.22C513.23,153.09 513.14,154.01 512.79,154.97C511.16,160.01 510.27,164.71 507.16,169.1C502.94,175.39 496.56,177.33 491.31,182.84C491.36,180.59 490.81,178.24 492.47,176.44C494.16,174.62 496.2,173.22 497.77,171.27C493.55,172.86 489.02,173.98 485.09,176.2C483,177.18 482.04,179.71 480.69,181.55C478.88,181.56 477.07,181.59 475.26,181.65C475.82,179.23 476.39,176.99 478.18,175.15C482.38,170.28 488.66,170.38 492.69,165.31C490.17,166.13 487.83,166.91 485.12,166.77C486.49,162.16 490.92,158.36 495.8,158.12C495.63,159.34 495.45,160.55 495.28,161.76C498.22,159.39 500.46,154.58 504.74,155.27C504.37,157.65 503.28,159.67 502.32,161.84C504.21,161.32 505.66,159.4 506.81,157.92C508.93,155.29 508.85,151.95 513.03,152.22Z" style="fill:rgb(238,169,4);fill-rule:nonzero;"/>
                <path d="M512.62,169.5C514.36,172.05 516.42,174.26 518.39,176.6C518.95,178.12 519.15,179.78 519.44,181.36C519.92,180.5 520.55,178.87 521.76,179.18C522.34,180.67 522.39,182.17 522.55,183.74C524.09,183.76 524.34,181.14 525.08,180.06C526.74,175.82 529.64,173.09 533.96,171.67C536.77,170.92 539.99,172.43 542.61,173.46C543.96,174.33 543.41,176.34 543.59,177.75C541.47,177.22 541.22,174.95 539.11,175.47C536.73,176.11 534.06,176.7 531.93,177.92C529.26,180.9 528.58,185.83 528.49,189.7C529.46,188.31 530.41,186.92 531.31,185.49C532.53,185.62 533.72,185.75 534.94,185.76C536.16,185.13 537.18,184.13 538.35,183.41C541.43,183.55 542.54,187.83 543.88,190.07C545.34,192.89 544.8,194.86 542.39,196.81C541.64,194.81 540.88,192.92 539.49,191.27C539.46,193.95 539.94,196.33 538.74,198.83C535.76,198.17 532.91,196.93 530.04,195.9C526.34,194.65 523.51,190.77 521.45,187.62C521.38,189.63 522.3,191.69 522.78,193.64C519.98,191.53 516.37,189.59 514.38,186.66C513.23,185.04 513.18,182.02 511.4,181.08C511.1,182.29 510.79,183.51 510.48,184.72C507.3,180.47 507.98,172.5 512.62,169.5Z" style="fill:rgb(238,169,4);fill-rule:nonzero;"/>
                <path d="M536.99,178.29C538.94,178.25 541.47,177.94 541.7,180.54C540.13,180.57 538.5,180.55 536.96,180.79C535.27,181.52 534.11,182.73 532.21,182.81C532.42,179.97 534.16,178.37 536.99,178.29Z" style="fill:rgb(238,169,4);fill-rule:nonzero;"/>
                <path d="M503.46,185.28C504.21,186.69 504.91,188.12 505.62,189.56C504.46,190.28 503.32,191.3 502.01,191.71C500.75,191.3 499.78,189.9 498.86,189C500.31,187.55 501.51,186.06 503.46,185.28Z" style="fill:rgb(238,169,4);fill-rule:nonzero;"/>
                <path d="M476.98,185.69C484.86,186.63 490.59,190.75 497.06,194.91C498.18,195.74 499.57,196.59 500.31,197.8C501.09,200.14 501.69,202.52 502.55,204.84C497.19,202.69 492.41,199.11 487.06,196.89C481.1,194.1 474.58,192.24 468.01,191.7C465.08,191.66 462.16,191.85 459.23,191.74C460.53,190.29 461.89,188.69 463.48,187.56C466.49,186.16 468.93,187.32 472.02,187.34C473.73,187.01 475.28,186.12 476.98,185.69Z" style="fill:rgb(238,169,4);fill-rule:nonzero;"/>
                <path d="M516.87,196.05C517.96,197.72 517.37,199.24 516.76,200.94C515.37,200.43 514.27,199.51 513.02,198.74C509.92,197.68 508.17,199.82 505.23,199.87C505.39,198.49 505.24,197.25 506.03,196.04C508.1,192.31 514.92,192.07 516.87,196.05Z" style="fill:rgb(238,169,4);fill-rule:nonzero;"/>
                <path d="M514.42,203.95C514.34,207.76 514.7,211.84 513.63,215.53C512.26,215.27 509.32,216.06 508.63,214.56C508.51,210.79 508.02,206.93 508.33,203.17C508.97,200.34 514.31,201.09 514.42,203.95Z" style="fill:rgb(238,169,4);fill-rule:nonzero;"/>
                <path d="M538.43,204.49C539.4,204.42 541.47,203.89 541.98,204.98C544.16,207.48 544.26,211.03 542.88,213.94C541.24,213.27 539.48,212.19 538.4,210.77C538.09,208.98 536.73,205.82 538.43,204.49Z" style="fill:rgb(238,169,4);fill-rule:nonzero;"/>
                <path d="M546.49,206.2C548.44,206.21 549.76,207.67 551.18,208.81C552.75,210.26 554.44,212.14 553.46,214.42C552.24,217.34 548.73,220.12 545.45,219.67C545.25,218.78 545.05,217.9 544.85,217.02C546.65,212.99 547.18,210.65 546.49,206.2Z" style="fill:rgb(238,169,4);fill-rule:nonzero;"/>
                <path d="M473.17,209.8C476.3,211.73 479.34,214.89 480.38,218.47C480.68,222.75 480.99,227.55 479.51,231.64C477.54,229.52 475.94,227.4 473.27,226.11C474.06,230.83 475.09,235.14 473.68,239.91C471.57,239.8 469.88,237.98 468,237.01C460.19,232.39 450.87,232.16 442.3,234.6C443.11,229.87 448.53,227.76 451.93,225.27C450.98,225.03 450.03,224.78 449.08,224.54C449.17,223.83 449.31,223.14 449.51,222.47C452.73,216.49 455.97,210.9 462.85,208.7C466.1,207.97 470.33,207.72 473.17,209.8Z" style="fill:rgb(238,169,4);fill-rule:nonzero;"/>
                <path d="M482.2,210.49C488.72,212.38 494.71,215.37 500.71,218.5C500.22,220.59 498.85,221.9 497.64,223.61C495.9,225.86 494.46,228.16 492.25,229.92C491.27,227.44 490.52,224.87 489.58,222.37C487.79,217.93 484.69,214.44 482.2,210.49Z" style="fill:rgb(238,169,4);fill-rule:nonzero;"/>
                <path d="M519.28,210.12C521.91,211.13 524.31,212.81 526.62,214.41C527.97,215.46 526.92,217.27 526.7,218.62C524.36,217.27 521.4,216.44 519.37,214.69C519.03,213.23 519.26,211.61 519.28,210.12Z" style="fill:rgb(238,169,4);fill-rule:nonzero;"/>
                <path d="M533.42,214.47C539.34,212.31 545.86,222.44 540.15,226.24C534.38,229.1 527.54,217.83 533.42,214.47Z" style="fill:rgb(238,169,4);fill-rule:nonzero;"/>
                <path d="M518.56,220.52C520.7,221.38 524.79,222.65 522.7,225.7C519.55,225.87 516.45,223.89 513.31,223.3L513.52,224.43C516.79,225.95 520.73,227.13 523.55,229.41C523.72,230.7 524.05,231.88 522.69,232.61C519.47,232.58 517.26,230.17 514.15,230.28C516.68,233.12 520.37,233.63 523.17,235.9C524.31,237.15 522.94,238.5 522.05,239.41C519.37,238.56 516.98,237.39 514.27,237.29C516.63,238.78 519.26,239.85 521.54,241.45C522.4,243.42 521.39,245.77 519.07,245.76C517.04,244.87 515.28,243.47 512.94,243.61C510.07,245.52 508.68,248.38 505.26,249.35C502.77,250.09 499.54,250.92 497.02,250.13C493.28,247.63 492.1,242.12 492.6,237.92C494.32,235.02 496.96,232.72 498.87,229.92C501.82,226.16 504.7,221.2 508.8,218.65C511.85,218.04 515.56,219.84 518.56,220.52Z" style="fill:rgb(238,169,4);fill-rule:nonzero;"/>
                <path d="M556.41,218.49L556.67,218.59C558.72,220.58 560.78,223.12 562.39,225.49C562.8,232.29 563.89,238.95 563.69,245.79C558.07,238.96 551.82,232.59 545.26,226.66C545.61,224.86 545.8,223.28 547.98,223.02C551.63,222.29 553.94,221.37 556.41,218.49Z" style="fill:rgb(238,169,4);fill-rule:nonzero;"/>
                <path d="M545.65,230.36C548.63,233.38 551.37,236.63 553.85,240.07C559.58,247.95 564.76,255.76 568.19,264.94C568.81,266.53 568.71,268.07 568.77,269.74C564.83,267.82 561.28,264.9 557.84,262.19C556.16,261.03 556.2,259.24 555.51,257.43C552.91,248.21 548.48,239.88 543.23,231.92C542.91,229.84 543.82,228.5 545.65,230.36Z" style="fill:rgb(238,169,4);fill-rule:nonzero;"/>
                <path d="M445.43,238.49C450.71,237.13 457.38,238.08 462.13,240.8C463.35,241.6 465.42,242.71 464.54,244.47C460.67,246.52 455.61,246.45 451.79,248.74C448.55,250.61 446.04,253.53 444.82,257.08C444.35,257.88 444.35,257.88 444.82,257.08C449.16,255.38 451.6,251.88 456.79,252.09C456.58,254.74 456.26,257.37 456.04,260.02C455.86,266.3 458.38,272.19 462.65,276.75C459.74,278.05 455.47,279.76 452.35,278.88C452.52,277.97 452.68,277.05 452.83,276.14C448.71,277.75 445.52,280.19 440.96,280.46C438.19,279.93 438.17,277.81 437.65,275.52C437.16,272.03 435.06,269.57 435.25,266C434.92,258.41 440.45,254.37 441.16,247.01C441.57,243.37 441.72,240.27 445.43,238.49Z" style="fill:rgb(238,169,4);fill-rule:nonzero;"/>
                <path d="M488.58,239.24C488.13,245.28 490.8,249.92 493.86,254.84C490.07,254.97 488.17,252.2 486.38,249.32C486.2,250.96 486.76,253.2 485.07,254.15C479.88,257.46 474.59,260.8 468.99,263.38C466.59,263.32 466.02,260.08 465.39,258.3C464.49,263.33 466.52,268.37 470.38,271.62C471.38,272.62 472.57,273.11 472.77,274.63C469.66,274.7 467.28,272.97 465.23,270.81C460.52,265.65 459.35,257.53 462.29,251.21C463.31,249.19 465.17,249.09 467.08,248.32C472.69,246.44 478.08,244.03 483.36,241.38C485.19,240.5 486.45,239.18 488.58,239.24Z" style="fill:rgb(238,169,4);fill-rule:nonzero;"/>
            </g>
        </g>
    </g>
</svg>
