<?xml version="1.0" encoding="UTF-8" standalone="no"?>
<!DOCTYPE svg PUBLIC "-//W3C//DTD SVG 1.1//EN" "http://www.w3.org/Graphics/SVG/1.1/DTD/svg11.dtd">
<svg width="100%" height="100%" viewBox="0 0 512 512" version="1.1" xmlns="http://www.w3.org/2000/svg" xmlns:xlink="http://www.w3.org/1999/xlink" xml:space="preserve" xmlns:serif="http://www.serif.com/" style="fill-rule:evenodd;clip-rule:evenodd;stroke-linejoin:round;stroke-miterlimit:2;">
    <g transform="matrix(1,0,0,1,-0.404239,-0.647578)">
        <g transform="matrix(1,0,0,1,-1939,-11159)">
            <g id="Fighting-Irish" serif:id="Fighting Irish" transform="matrix(1,0,0,1,-1659.595761,11159.647578)">
                <rect x="3599" y="0" width="512" height="512" style="fill:none;"/>
                <g transform="matrix(0.776516,0,0,0.776516,3457.368711,-27.391562)">
                    <path d="M257,523.042L314,523.042L317,531L329,527L339,523.042L355,535L382.88,564L382.88,573L371,574L350,579L335,587L326,600L328,612L342,622L360,625L392,630L416,594L428,558L422,523.042L382.88,472L348,435L324,408L317,403.436L302,398L290,393L293,382L295,375.294L302,368L328,356L359,330L391,307.123L413,297L419,292L421,280L434,256L463,259L512,238L560,230L571,234L591,249L623,283L626,299L624,323L617,350L608,375.294L618,383L639,397L649,403.436L646,414.054L630,419.49L598,419.49L596,424.925L599,434L599,445L590,454L589,466L589,478L601,474L605,480L612,487L611,496L612,505L627,505L644,504L645,495L638,474L633,461L640,444L653,424.925L665,419.49L679,424.925L702.78,437L702.78,467L707,485L708,499.748L715,506L732,506L743,499.748L746,485L747,456L747,442L735,436L709,424.925L695.51,414.054L683,403.436L685,391L691,375.294L699.145,356L714,354L731,354L745,366L766,383L783,403.436L790,424.925L794,450L798,457L804,484L807,504L801,512L793,523.042L793,538L780,551L751,554L723,560L719,564L719,573L717,581L712,587L708,616L679,616L677,621L689,629.573L712,650.223L709,659L675,665L547,663L438,664L369,664L304,661L292.793,650.223L265,624L248,598L241,575L245,551L257,523.042Z"/>
                </g>
                <g transform="matrix(0.388258,0,0,0.388258,3457.368711,-27.391562)">
                    <path d="M1427.968,1342.423L1202.55,1342.47L637.872,1342.427L580.074,1314.426C552.123,1296.936 542.293,1282.52 523.036,1257.02C515.662,1248.36 513.492,1240.17 504.239,1231.66L503.338,1230.56C501.311,1231.6 502.38,1231.23 500.129,1231.65C499.708,1224.18 495.446,1220.28 490.65,1214.73C488.555,1211.84 484.018,1203.06 481.915,1199.36C481.875,1197.41 481.075,1195.72 480.421,1193.79C461.974,1149.52 477.888,1102.08 495.2,1060.25C497.788,1054 502.432,1044.59 509.171,1042.09C520.262,1037.97 626.76,1037.65 635.508,1042.35C639.435,1044.46 641.414,1047.9 643.361,1051.71C643.547,1052.07 643.752,1052.43 643.947,1052.79C654.25,1046.28 668.761,1034.2 681.627,1036.74C685.649,1037.54 689.326,1039.49 692.629,1041.87C704.485,1050.41 774.329,1113.69 780.375,1123.38C783.174,1127.87 784.832,1133.18 783.502,1138.45C781.8,1145.19 775.053,1151.6 769.031,1154.67C762.501,1158 753.775,1157.68 746.58,1157.79C720.359,1158.19 694.515,1160.08 674.061,1178.45C667.879,1183.99 661.972,1190.26 659.19,1198.26C657.369,1203.49 657.286,1208.45 659.832,1213.43C666.372,1226.22 688.898,1234.9 702.17,1238.76C720.34,1244.24 739.169,1247.22 758.141,1247.61L759.308,1246.92L758.736,1245.16L760.283,1243.81L763.005,1245.37L764.166,1245.21C766.807,1246.5 767.141,1246.86 769.99,1247.33C770.142,1243.51 769.464,1245.01 771.271,1242.34L773.428,1242.28C775.244,1244.92 774.43,1244.26 776.9,1246.04C782.381,1243 791.031,1233.38 795.127,1228.35C805.605,1218.77 820.408,1194.38 826.916,1181.85C843.232,1150.44 853.085,1105.7 841.731,1071.15C836.305,1056.64 831.888,1048.35 824.492,1034.96C789.577,975.254 733.055,928.487 685.846,878.667C669.726,861.654 642.472,833.265 631.706,812.475L630.893,808.935C628.715,807.068 619.528,809.952 614.927,809.852L616.044,812.717L615.155,814.727L615.878,815.167C611.72,814.075 613.419,813.706 610.311,814.99C609.084,817.078 608.574,818.063 607.038,819.912C604.861,819.076 604.694,818.895 602.745,817.567C599.761,813.824 601.45,811.996 599.878,810.335L598.154,814.713L596.438,814.871C593.891,811.203 596.612,813.408 596.102,807.39C594.311,807.964 594.936,807.973 593.37,810.082L590.471,809.985L589.061,813.875L587.535,812.984C587.517,809.797 588.689,808.979 590.485,805.744L587.101,806.516C584.678,804.305 581.379,804.057 578.03,803.325C578.278,800.821 578.13,800.853 577.416,798.392C566.2,788.404 567.488,782.073 569.905,768.055C570.233,766.151 571.617,766.124 573.481,765.048C573.128,760.367 567.936,757.942 569.111,755.088C573.033,745.562 579.393,733.175 587.802,726.977C588.149,726.722 594.017,726.939 597.042,725.021C598.182,721.939 597.518,722.805 599.547,720.456L601.165,720.732L601.655,723.399C603.314,724.49 615.438,721.579 618.146,720.67L619.113,720.339C639.989,712.779 662.834,690.715 679.543,675.715C726.612,633.459 766.03,603.535 827.846,585.021C831.692,565.513 837.806,541.819 845.545,523.332L849.467,515.627L850.703,514.198C856.867,506.489 856.357,504.684 866.217,501.585L866.169,498.625L867.397,497.463C869.999,501.114 870.17,501.662 873.822,504.042C877.668,504.547 876.237,505.084 879.032,503.687L878.46,500.649L879.619,500.597C883.14,503.052 881.991,501.871 883.67,506.4C887.178,506.3 886.644,505.848 890.095,502.805L890.453,504.105L890.329,507.791L891.282,508.538L894.246,504.117L895.547,504.831C895.752,506.046 896.075,507.647 896.178,508.837C901.697,503.504 901.758,502.256 908.349,501.993C912.171,504.31 911.441,502.681 915.529,506.433C916.95,506.414 917.564,506.339 918.931,506.777C919.192,504.739 919.104,504.772 920.257,502.971C925.35,512.484 924.364,503.899 929.523,511.755L935.728,508.233C975.569,485.087 1061.5,442.054 1107.36,453.849C1112.24,455.104 1117.24,456.869 1121.87,458.865C1119.41,464.571 1116.17,471.54 1114,477.232C1106.93,474.96 1093.9,471.219 1086.54,472.339C1027.39,481.339 962.177,510.369 915.43,548.123C899.068,537.003 888.565,530.653 869.518,523.884C857.071,547.668 849.353,573.64 846.792,600.362C780.559,619.692 736.171,650.185 686.545,697.072C658.527,723.544 636.266,741.43 597.186,747.586C606.268,754.698 608.758,756.134 619.829,760.017C611.288,768.857 600.365,776.174 589.493,781.847C609.144,788.943 624.405,788.016 644.587,782.209C648.844,813.38 677.051,840.389 698.241,862.532C749.328,915.914 805.635,962.991 843.767,1027.26C868.202,1068.44 873.517,1105.5 860.167,1152.36C852.408,1179.12 839.734,1204.21 822.793,1226.33C811.629,1241.23 799.119,1255.06 785.421,1267.67C740.025,1269.02 685.43,1263.84 649.583,1233.05C627.72,1214.28 639.225,1183.74 656.977,1166.75C679.779,1144.93 710.465,1136.73 741.484,1137.16C747.219,1137.23 756.201,1138.14 761.129,1136.66L762.433,1134.97C758.691,1124.84 689.905,1066.94 677.985,1056.81C645.725,1073.82 604.295,1099.97 593.29,1136.53C575.383,1196.02 630.477,1258.95 684.559,1275.71C688.472,1276.92 692.727,1277.92 696.716,1278.89C655.182,1278.77 598.711,1268.97 567.743,1239.34C552.622,1224.87 547.266,1199.41 547.426,1179.36C547.753,1138.7 573.758,1106.51 604.432,1082.58C611.141,1077.35 620.753,1070.92 624.928,1063.52L624.911,1061.5C616.776,1059.44 529.096,1059.53 518.26,1060.56C499.725,1096.82 484.882,1139.74 497.642,1180.28C504.354,1201.6 518.843,1215.51 531.372,1232.91C542.847,1248.84 549.286,1260.83 563.664,1274.98C574.935,1286.16 587.842,1295.56 601.942,1302.85C611.557,1307.72 622.885,1313.15 633.554,1315.11C642.378,1316.72 740.011,1317.2 747.46,1314.71C751.464,1313.37 759.031,1309.07 762.871,1309.85C761.155,1311.91 760.366,1312.52 759.218,1314.93C762.929,1316.86 775.928,1315.85 780.701,1315.71C821.857,1270.37 889.869,1227.8 947.939,1208.69C960.444,1213.16 973.172,1218.62 985.358,1223.99C1022.45,1240.32 1061.15,1256.31 1096.5,1276.12C1029.96,1272.13 926.848,1283.04 867.963,1315.86C884.809,1315.83 906.547,1316.37 923.14,1315.07C932.391,1314.35 951.296,1308.31 961.838,1306.16C993.294,1299.47 1025.35,1295.96 1057.5,1295.7C1093.8,1295.33 1130.05,1298.54 1165.71,1305.31C1179.24,1307.87 1199.84,1313.98 1211.81,1315.33C1225.63,1316.89 1248.62,1315.45 1263.47,1315.78C1207.99,1290.78 1189.06,1290.19 1132.06,1278.5C1150.55,1262.09 1174.64,1239.39 1193.44,1224.37C1239.36,1240.83 1266.75,1255.54 1310.47,1275.8C1306.1,1257.18 1302.59,1250.23 1293.54,1233.27C1322.89,1257.76 1355,1285.31 1385.48,1308.01L1380.32,1315.66L1401.29,1315.74L1411.4,1303.47C1376.43,1273.52 1335.62,1239.33 1299.73,1211.12C1330.86,1215.28 1375.08,1222.81 1405,1223.09C1406.3,1201.42 1409.04,1172.7 1409.05,1151.57L1426.4,1154.05C1425.69,1139.2 1424.83,1124.35 1423.81,1109.51C1454.74,1106.61 1485.63,1103.27 1516.46,1099.49C1528.79,1097.93 1560.54,1096.26 1567.86,1086.13C1583.82,1064.05 1581.53,1029.5 1580.9,1003.21C1589.83,1005.36 1595.87,1006.9 1605.1,1007.8C1603.14,986.648 1594.42,935.935 1588.17,915.393C1583.34,912.411 1581.63,911.56 1576.35,909.461C1573.25,888.593 1572.33,840.16 1563.02,823.777C1555.94,811.305 1526.48,783.053 1515.65,771.747C1502.42,758.689 1489.71,740.919 1475.46,729.312C1463.75,719.779 1429.26,715.542 1414.9,717.71C1393.93,720.876 1394.12,747.048 1388.24,762.525C1384.95,771.153 1376.66,778.915 1373.8,787.805C1369.75,802.072 1374.36,814.029 1387.4,820.774C1414.21,834.653 1436.4,856.302 1465.96,865.042C1472.24,866.905 1490.4,867.394 1494.7,870.062C1503.12,875.287 1507.76,904.603 1509.14,912.908C1505.84,914.772 1502.47,916.205 1500.42,919.301C1494.55,940.932 1512.32,1002.01 1487.32,1014.11C1473.5,1020.8 1418.3,1020.93 1401.07,1021.02C1400.91,980.723 1405.33,932.421 1400.62,892.41C1400.14,888.398 1395.27,882.087 1391.99,878.983C1376.12,863.965 1350.62,851.569 1328.72,849.974C1322.96,849.555 1316.71,852.854 1313.08,856.978C1304.59,866.6 1301.15,880.23 1294.08,890.908C1289.97,897.126 1279.81,901.242 1276.2,907.519C1272.51,913.939 1270.71,920.532 1271.01,927.888C1271.54,941.052 1283.92,946.898 1288.31,955.807C1295.71,970.84 1290.25,987.725 1306.02,1000.03C1316.45,1008.17 1321.72,1009.41 1329.06,1021.09C1279.56,1020.99 1231.29,1019.23 1182.28,1018.91C1201.4,1008.07 1209.58,1000.19 1216.68,979.025C1206.62,983.806 1201.94,986.479 1191.06,988.751C1198.94,976.997 1199.82,972.798 1201.57,958.645C1182.97,972.512 1168.57,988.225 1154.72,960.953C1161.66,952.737 1169.23,944.926 1168.72,933.576C1168.24,922.676 1150.07,917.119 1156.94,908.475C1164.79,898.599 1192.43,896.72 1189.21,877.301C1186.55,861.356 1172.41,847.063 1165.62,830.72C1177.4,827.565 1187.03,827.573 1199.23,828.06C1239.5,829.67 1252.52,831.652 1287.13,811.293C1255.9,799.067 1229.9,780.293 1203.04,760.566C1208.5,744.51 1217.7,718.636 1221.98,702.433C1230.75,669.218 1246.43,597.987 1231.4,567.415C1223.41,551.144 1179.4,513.933 1163,503.151C1153.95,497.194 1138.91,488.64 1128.64,483.24L1136.76,465.36C1172.48,480.663 1203.44,505.869 1230.19,533.697C1236.49,540.254 1249.13,553.966 1251.87,562.437C1268.47,613.812 1245.09,704.696 1226.77,752.809C1239.15,761.389 1251.49,770.296 1264.46,777.803C1276.17,784.58 1289.55,789.119 1300.25,797.32C1307.4,802.81 1310.4,813.686 1304.13,821.077C1291.47,835.995 1268.86,844.822 1249.93,848.123C1236.82,849.832 1212.6,849.455 1199.25,848.426C1215.68,879.806 1214.49,896.016 1184.55,917.034C1187.8,926.294 1188.69,932.733 1189.4,942.55C1207.93,934.754 1217.36,941.843 1222.15,960.29C1241.31,968.291 1237.02,984.443 1230.23,999.952C1246.69,1000.25 1263.93,1000.83 1280.33,1000.8C1277.62,994.147 1271.02,968.568 1269.43,966.213C1254.49,944.187 1244.75,933.605 1254.59,905.338C1259.26,891.918 1271.73,883.707 1280.34,872.948C1287.01,863.966 1289.34,852.753 1298.64,842.743C1302.59,838.445 1307.49,835.123 1312.95,833.038C1342.38,821.534 1411.02,853.205 1418.71,882.294C1426.72,912.577 1422.12,968.227 1421.22,1000.85C1427.38,1000.83 1475.33,999.789 1477,995.588C1486.48,971.683 1471.67,923.202 1486.35,903.304C1485.66,899.897 1484.15,890.221 1481.22,888.935C1472,885.026 1459.04,885.398 1449.92,881.559C1427.88,871.983 1408.01,857.748 1387.97,844.785C1372.7,834.911 1359.96,832.171 1354.41,812.294C1345.91,784.444 1360.77,773.131 1369.83,751.914C1378.66,731.239 1377.44,704.58 1407.56,697.717C1430.51,692.49 1471.94,698.951 1490.45,713.746L1495.96,718.754C1501.6,726.343 1505.82,726.1 1512.26,733.734L1513.19,733.029L1513.16,728.941L1515.32,729.621C1516.59,737.806 1521.7,732.723 1520.15,740.683L1523.94,741.5L1524.92,744.921L1527.58,746.332L1530.02,745.057C1532.17,750.549 1523.85,746.79 1533.77,759.326L1535.78,759.922C1537.08,758.565 1537.61,758.008 1538.79,756.522L1539.77,757.512C1538.72,759.518 1536.92,761.919 1538.35,763.856C1541.5,768.141 1552.35,779.752 1556,783.189C1597.18,821.873 1587.46,846.014 1594.74,893.343C1598.26,896.096 1602.24,898.882 1604.72,902.657C1609.07,909.284 1615.02,943.169 1616.89,944.314C1618.42,945.243 1617.85,944.807 1619.02,945.989L1616.38,948.042C1616.16,951.667 1617.83,951.898 1621.1,953.519L1621.59,954.552L1618.42,954.438C1612.82,964.788 1645.09,1026.32 1605.01,1027.01L1603.21,1027.06C1602.82,1027.06 1602.43,1027.06 1602.04,1027.07C1602.2,1040.16 1601.62,1054.28 1598.53,1067.04L1599.54,1069.4C1600.48,1073.79 1600.94,1074.27 1604.11,1077.47C1602.9,1080.13 1603.46,1079.14 1600.92,1081.14C1591.76,1082.09 1591.05,1087.41 1587.12,1095.28L1586.64,1096.08C1571.7,1114.1 1552.14,1115.71 1530.25,1118.66C1506.55,1121.85 1482.38,1124.1 1458.57,1126.32L1453.01,1126.84C1453.02,1135.17 1449.89,1133.48 1447.05,1141.54C1447.3,1147.62 1447.7,1153.7 1448.26,1159.77C1444.78,1171.6 1427.05,1182.34 1428.43,1194.48L1431.53,1196.08L1430.93,1197.71L1428.63,1197.6C1425.22,1208.04 1428.28,1234.58 1418.22,1241.37C1414.35,1243.98 1400.17,1243.34 1394.88,1243.28C1393.59,1250.79 1389.91,1250.43 1389.89,1260.82L1391.02,1260.84C1393.53,1262.97 1397.43,1266.49 1399.97,1268.32C1409.22,1275.69 1420.75,1284.1 1429.5,1291.56L1432.9,1295.08L1433.62,1296.67L1435.91,1294.37L1437.05,1294.94C1435.96,1296.56 1434.85,1298.16 1433.72,1299.75C1432.9,1300.92 1433.13,1300.4 1432.81,1301.37L1435.32,1300.42C1437.68,1302.59 1438.47,1304.32 1441.16,1305.95C1438.45,1308.33 1438,1307.84 1437.82,1310.45C1440.17,1310.34 1438.94,1310.3 1441.52,1310.58C1441.52,1313.77 1429.088,1339.243 1427.968,1342.423Z" style="fill:rgb(253,253,252);fill-rule:nonzero;"/>
                </g>
                <g transform="matrix(0.388258,0,0,0.388258,3457.368711,-27.391562)">
                    <path d="M869.073,614.247C874.646,614.237 894.514,623.981 900.381,626.7C973.5,661.454 1043.38,702.652 1109.19,749.806C1125.29,761.201 1141.68,772.948 1157.43,784.862C1160.25,786.989 1161.47,788.767 1161.82,792.252C1159.77,795.991 1159.6,795.101 1154.89,797.438C1154.5,804.287 1154.17,809.083 1153.13,815.85C1151.17,817.725 1148.47,819.954 1146.38,821.776C1148.85,836.796 1152.87,845.598 1161.15,858.301C1174.64,878.993 1171.28,885.836 1147.48,890.723C1134.12,879.91 1127.92,877.992 1111.97,884.157C1107.12,851.145 1126.85,869.05 1137.07,860.538L1136.35,858.677C1126.84,851.354 1114.65,848.4 1105.37,857.844C1097.62,865.737 1091.93,885.946 1103.08,893.357C1108.1,896.7 1117.86,891.941 1123.07,890.028C1127.77,891.765 1131.56,893.669 1136.05,895.837C1134.54,903.306 1134.17,907.315 1133.64,914.963C1106.57,913.737 1081.84,918.345 1055.88,925.879C1043.7,929.414 1018.36,941.705 1024.55,958.116C1026.98,955.639 1030.98,951.134 1033.94,949.655C1066.34,933.461 1107.63,923.125 1143.68,930.191C1147.14,930.869 1149.13,932.108 1150.83,935.168C1151.64,953.059 1120.23,945.356 1106.74,947.746L1105.53,947.971C1099.15,950.121 1096.88,951.083 1091,954.484C1103.15,955.195 1124.59,955.454 1132.48,964.975C1167.5,1007.22 1091.22,985.437 1076.25,998.096C1075.76,998.563 1075.27,999.03 1074.78,999.497C1037.57,996.213 1011.53,988.071 978.508,969.996C935.109,946.239 934.145,934.597 921.398,890.924C921.175,900.387 921.174,907.068 921.812,916.474C907.958,890.75 891.807,848.179 890.461,818.538C890.04,809.264 893.595,794.016 895.592,784.568C889.941,789.106 884.163,794.162 878.6,798.863C888.883,745.695 870.187,743.529 823.241,745.195C843.492,736.127 857.678,737.127 879.475,737.114C869.422,729.679 861.654,726.342 849.55,722.932C844.063,721.386 839.733,721.113 834.51,718.779L834.997,718.222C845.401,715.585 857.636,716.599 868.402,717.137C850.883,703.034 831.472,699.014 817.632,681.07C812.474,674.382 816.614,675.892 813.909,671.6C807.968,671.356 802.175,671.821 796.242,672.173C799.525,668.083 806.604,660.874 806.441,656.617L804.42,655.275C793.352,653.725 776.275,660.756 765.76,664.686C796.805,637.846 828.684,622.771 869.073,614.247Z" style="fill:rgb(253,253,252);fill-rule:nonzero;"/>
                </g>
                <g transform="matrix(0.388258,0,0,0.388258,3457.368711,-27.391562)">
                    <path d="M1035.25,719.149C1051.38,721.892 1055.77,735.358 1064.64,747.2C1073.06,758.444 1081.88,770.328 1091.83,780.419C1099.63,788.337 1115.82,804.249 1128.01,799.735C1131.3,798.424 1132.96,790.874 1133.96,787.437L1135.11,787.115C1151.89,813.899 1113.18,819.613 1095.19,823.399C1085.71,825.395 1068.47,829.28 1059.53,826.399L1059.06,825.329C1060.12,824.733 1061.17,824.137 1062.23,823.54C1062.68,820.969 1059.4,811.564 1059.66,810.212C1060.44,806.03 1064.35,798.707 1066.16,794.953C1064.11,792.332 1061.43,789.642 1059.11,787.192C1033.35,776.477 1031.05,796.206 1039.9,814.443C1042.44,819.665 1045.97,822.716 1050.05,826.641C1043.13,825.121 1035.31,823.914 1028.27,822.677C1015.13,810.769 1014.32,799.584 1017.7,782.959C1012.11,782.872 1007.89,783.482 1002.38,784.12C1017.94,768.461 1028.96,767.86 1049.92,768.882C1037.18,754.505 1030.23,748.495 1010.54,746.418C1013.7,744.25 1017.21,741.312 1020.25,738.889C1016.71,735.167 1011.33,733.186 1009.78,730.172C1015.71,726.72 1032.48,732.106 1038.91,733.887C1037.99,729.143 1036.48,723.874 1035.25,719.149Z" style="fill-rule:nonzero;"/>
                </g>
                <g transform="matrix(0.388258,0,0,0.388258,3457.368711,-27.391562)">
                    <path d="M1042.23,903.133L1042.53,904.408C1038.28,910.09 1026.77,920.03 1021.44,925.876C1006.25,942.553 1004.31,951.191 1004.76,972.353C996.51,964.039 995.614,959.669 994.157,948.682C994.516,945.463 994.891,945.756 993.867,943.015C990.342,943.69 984.319,951.802 981.438,955.09C981.724,953.592 982.87,947.693 983.308,946.534C991.071,926.027 1023.84,913.162 1042.23,903.133Z" style="fill-rule:nonzero;"/>
                </g>
                <g transform="matrix(0.388258,0,0,0.388258,3457.368711,-27.391562)">
                    <path d="M1094.05,828.108L1094.73,828.891C1091.96,835.082 1081.31,844.685 1074.97,847.117C1065.17,850.882 1059.51,850.61 1050.11,847.204C1047.16,845.288 1045.59,844.996 1044.21,842.318C1049.05,841.513 1053.34,841.923 1058.25,841.11C1070.64,839.052 1082.55,833.168 1094.05,828.108Z" style="fill-rule:nonzero;"/>
                </g>
                <g transform="matrix(0.388258,0,0,0.388258,3457.368711,-27.391562)">
                    <path d="M937.54,1046.36C966.267,1042.26 1004.72,1057.63 1031.86,1067.14L1115.09,1096.2C1192.15,1122.93 1271,1144.22 1351.05,1159.9C1343.76,1151.71 1337.88,1145.31 1329.97,1137.61L1330.65,1127.73C1355,1129.53 1366.68,1134.39 1389.03,1145C1388.86,1163.38 1387.17,1183.88 1386.02,1202.39C1305.19,1193.17 1224.85,1180.12 1145.26,1163.28C1097.41,1154.12 1052.6,1142.65 1003.66,1135.46C1032.38,1155.7 1073,1167.46 1106.57,1176.63C1107.67,1184.8 1108.58,1192.99 1109.29,1201.2C1006.96,1159.85 924.724,1179.52 836.666,1242.23C838.794,1239.37 840.895,1236.49 842.969,1233.59C880.752,1180.63 894.664,1132.38 883.936,1068.31C900.794,1055 916.429,1048.83 937.54,1046.36Z" style="fill:rgb(0,130,75);fill-rule:nonzero;"/>
                </g>
                <g transform="matrix(0.388258,0,0,0.388258,3457.368711,-27.391562)">
                    <path d="M1016.93,514.378C1046.31,524.372 1066.29,534.664 1092.88,550.09C1097.19,552.631 1101.04,555.162 1105.18,557.919C1115.02,564.483 1126.76,566.703 1132.43,577.964C1165.93,602.106 1188.07,626.037 1212.6,658.858C1205.02,691.729 1197.7,716.425 1185.09,747.993C1159.27,733.419 1119.97,703.071 1095.6,685.2C1041.09,645.246 988.142,601.582 933.821,561.322C952.883,543.771 993.001,523.4 1016.93,514.378Z" style="fill-rule:nonzero;"/>
                </g>
                <g transform="matrix(0.388258,0,0,0.388258,3457.368711,-27.391562)">
                    <path d="M1092.88,550.09C1097.19,552.631 1101.04,555.162 1105.18,557.919C1115.02,564.483 1126.76,566.703 1132.43,577.964C1129.02,592.242 1122,596.722 1109.44,602.881C1112.39,602.958 1119.78,602.864 1122.25,603.649C1148.4,611.969 1148.41,627.502 1127.7,640.255C1124.91,647.582 1119.25,659.305 1111.05,660.44C1091.05,663.209 1085.07,634.933 1082.19,622.611C1077.84,631.912 1076.15,637.893 1075.67,648.103C1075.51,651.43 1075.61,656.331 1074.53,659.267C1072.16,659.753 1070.82,659.062 1068.75,657.975C1055.73,651.138 1070.36,628.033 1074.75,620.353C1060.46,628.095 1026.87,636.899 1028.84,607.389C1029.24,601.495 1037.75,597.087 1034.43,585.902C1032.6,579.702 1042.68,565.254 1050.86,568.087C1062.6,570.222 1066.5,575.211 1073.78,584.116C1071.45,565.441 1071.32,553.044 1092.88,550.09Z" style="fill:white;fill-rule:nonzero;"/>
                </g>
                <g transform="matrix(0.388258,0,0,0.388258,3457.368711,-27.391562)">
                    <path d="M697.341,768.032L698.761,768.601C698.173,772.41 694.2,779.759 692.352,783.562L728.769,779.227C724.925,782.506 720.493,786.849 718.753,791.659L719.541,793.155C738.865,790.706 745.077,790.901 763.499,784.396C746.057,820.374 757.9,860.237 785.897,886.662C802.246,902.093 843.249,909.922 844.322,879.11C844.392,877.103 843.046,874.694 841.46,873.504C829.976,882.003 819.8,888.098 805.14,880.638C790.711,873.295 783.047,859.123 777.393,844.711C765.133,813.464 780.971,764.339 821.971,777.978C834.503,782.287 844.328,807.836 847.974,822.236C844.064,826.381 840.635,828.168 835.838,831.102C832.406,817.357 817.86,787.762 798.102,802.385C793.441,805.835 790.775,815.884 790.914,821.75L792.152,821.964C793.704,820.642 795.273,819.339 796.858,818.056C806.25,810.488 811.635,811.272 819.728,821.754C826.253,830.207 818.255,839.708 816.486,848.65C817.493,854.107 829.813,865.019 834.052,864.541C834.337,861.666 833.114,860.352 831.615,857.75L830.967,856.642C829.429,853.339 829.188,853.385 829.646,849.644C831.845,845.435 833.694,844.197 838.161,842.486C856,835.653 866.373,852.709 870.232,867.539C875.59,888.13 875.276,901.043 864.793,919.883C870.143,916.752 874.034,913.665 878.947,909.911C878.416,923.681 878.283,938.248 871.05,950.255L874.548,949.647C879.387,948.828 884.44,947.276 888.482,950.154C889.343,955.704 886.405,953.573 885.989,960.019L961.424,995.792L962.601,996.362C924.971,993.475 894.975,996.587 860.129,1012.84C825.564,954.872 773.425,909.085 726.869,861.053C706.204,839.756 683.638,818.538 670.455,791.622C662.521,775.423 685.159,771.996 697.341,768.032Z" style="fill:rgb(253,253,252);fill-rule:nonzero;"/>
                </g>
                <g transform="matrix(0.388258,0,0,0.388258,3457.368711,-27.391562)">
                    <path d="M1439.15,784.448C1435.88,766.239 1449.6,744.757 1448.71,739.546C1436.42,741.31 1434.22,755.29 1429.49,764.448L1428.11,764.722C1423.29,757.585 1430.52,742.101 1426.28,737.85C1418.24,743.376 1420.48,752.46 1414.79,759.595C1412.36,761.134 1408.99,762.296 1406.67,760.061C1407.19,753.958 1411.5,734.595 1418.1,733.833C1426.6,732.324 1459.69,736.613 1465.3,742.535C1490.03,768.634 1526.98,805.877 1547.9,832.938C1554.33,841.258 1556.84,894.956 1558.93,909.117L1527.27,908.181C1523.38,888.992 1519.29,877.593 1511.41,860.24C1517.19,854.775 1522.3,848.635 1526.62,841.95C1477.94,865.657 1449.98,841.88 1410.38,813.625C1401.9,807.573 1397.16,807.493 1388.97,798.764C1390.87,788.513 1397.17,772.394 1410.53,773.312C1415.64,773.663 1423.09,775.218 1426.74,779.053C1427.26,788.413 1409.3,792.852 1404.02,799.151C1415.24,802.93 1422,799.112 1433.18,799.468C1458.52,799.061 1456.59,821.541 1470.71,835.354C1474.12,838.698 1482.07,842.674 1485.28,837.157C1482.68,834.448 1477.88,831.276 1475.9,828.588C1471.89,823.164 1469.09,815.453 1465.04,810.08C1453.17,794.32 1459.7,790.745 1471.44,777.751C1466.07,772.764 1464.3,770.685 1459.79,764.864C1458.94,769.918 1458.86,771.23 1456.54,775.734C1453.01,782.361 1450.14,790.821 1441.2,785.669C1440.51,785.272 1439.83,784.865 1439.15,784.448Z" style="fill:rgb(253,253,252);fill-rule:nonzero;"/>
                </g>
                <g transform="matrix(0.388258,0,0,0.388258,3457.368711,-27.391562)">
                    <path d="M1439.15,784.448C1443.64,781.215 1451.27,775.074 1456.54,775.734C1453.01,782.361 1450.14,790.821 1441.2,785.669C1440.51,785.272 1439.83,784.865 1439.15,784.448Z" style="fill:rgb(221,220,220);fill-rule:nonzero;"/>
                </g>
                <g transform="matrix(0.388258,0,0,0.388258,3457.368711,-27.391562)">
                    <path d="M1325.5,867.848C1342.74,868.459 1365.84,879.701 1379.12,890.428C1383.27,893.93 1384.22,900.238 1384.36,905.307C1384.94,925.778 1384.61,946.399 1384.07,966.854C1383.17,994.404 1382.85,1021.97 1383.13,1049.53C1370.17,1047.61 1360.55,1046.92 1347.59,1046.24C1348.13,1033.56 1348.28,1023.55 1344.43,1011.45C1336.64,995.329 1323.89,993.191 1314.19,980.38C1308.43,970.961 1310.34,956.854 1305.28,947.348C1300.38,938.152 1286.93,932.97 1288.26,920.918C1288.19,916.161 1291.92,914.272 1296.5,913.69C1309.9,911.983 1325.64,916.517 1337.65,907.939C1344.68,902.918 1339.23,895.243 1335.26,890.445C1331.37,895.226 1329.77,896.707 1325.27,900.706C1321.04,901.344 1315.61,902.183 1311.69,900.601C1311.31,894.983 1322.03,873.159 1325.5,867.848Z" style="fill:rgb(253,253,252);fill-rule:nonzero;"/>
                </g>
                <g transform="matrix(0.388258,0,0,0.388258,3457.368711,-27.391562)">
                    <path d="M1519.69,988.911C1537.62,988.575 1545.88,990.864 1562.25,997.796C1562.9,1013.49 1568.32,1072.99 1547.35,1076.67C1513.02,1082.69 1475.85,1085.43 1441,1088.3L1422.05,1090.41C1421.38,1081 1420.95,1069.8 1418.89,1060.74C1413.56,1057.26 1407.34,1054.88 1401.46,1052.32L1401.11,1040.1C1411.51,1038.72 1426.49,1038.75 1437.5,1038.24L1496.28,1035.07C1508.07,1018.43 1515.72,1008.93 1519.69,988.911Z" style="fill:rgb(0,130,75);fill-rule:nonzero;"/>
                </g>
                <g transform="matrix(0.388258,0,0,0.388258,3457.368711,-27.391562)">
                    <path d="M1173.49,305.034C1191.98,304.574 1195.68,317.184 1189.28,332.537C1186.11,340.131 1181.78,345.267 1176.82,351.721C1187.35,345.317 1203.16,337.32 1215.32,344.498C1220.22,346.53 1222.62,359.584 1220.29,363.031C1209.72,374.393 1217.46,377.426 1216.2,384.258C1208.97,423.67 1173.62,386.289 1166.53,378.953C1167.15,395.303 1167.69,398.971 1177.09,413.067C1178.89,415.765 1179.1,415.824 1178.52,418.083C1175.13,419.487 1175.39,419.412 1171.72,419.051C1167.96,417.226 1166.62,414.046 1164.32,410.356C1159.03,398.523 1159.13,391.737 1158.12,379.068C1151.5,387.891 1129.3,416.172 1113.39,399.246C1108.93,394.504 1110.51,382.632 1111.7,376.103C1106.28,370.404 1099.1,359.144 1104.34,352.251C1115.75,337.247 1136.36,347.601 1147.32,353.63C1141.82,346.221 1134.66,337.44 1132.08,328.556C1125.88,307.217 1144.73,300.552 1160.97,311.299C1165.34,308.777 1168.95,307.138 1173.49,305.034Z" style="fill:white;fill-rule:nonzero;"/>
                </g>
                <g transform="matrix(0.388258,0,0,0.388258,3457.368711,-27.391562)">
                    <path d="M868.472,305.087C876.77,304.958 879.711,307.192 886.758,311.234C896.899,305.448 913.224,301.858 916.937,317.966C919.72,330.041 907.748,344.134 900.551,353.633C906.975,349.982 914.424,345.527 921.732,344.879C945.75,342.746 952.835,358.932 936.481,375.903C938.217,387.264 939.409,404.757 921.377,404.346C908.08,404.043 897.651,388.919 889.62,379.137C889.15,390.434 888.525,396.742 885.375,407.556C881.914,414.186 877.845,423.62 869.009,417.373C870.007,412.827 875.973,406.883 877.864,402.51C880.806,395.708 881.154,386.075 881.574,378.841C871.976,389.426 845.279,416.678 833.741,391.899C830.402,384.73 834.68,379.721 833.989,372.607C833.882,371.5 828.304,363.881 827.928,362.124C826.156,354.499 828.078,344.968 836.636,342.657C849.459,339.22 860.274,345.357 870.91,351.368C860.846,336.771 844.714,315.844 868.472,305.087Z" style="fill:white;fill-rule:nonzero;"/>
                </g>
                <g transform="matrix(0.388258,0,0,0.388258,3457.368711,-27.391562)">
                    <path d="M1127.58,1179.77C1160.13,1187.53 1221.28,1199.8 1254.02,1203.57C1262.43,1214.78 1270.11,1226.52 1277.02,1238.71C1246.25,1225.28 1221.59,1212.89 1189,1203.13C1171.72,1215 1138.31,1245.37 1121.99,1260.2C1119.91,1262.05 1118.54,1263.89 1115.69,1262.68C1104.28,1257.84 1093.61,1250.79 1082.34,1245.76C1049.09,1230.92 1015.4,1214.11 981.251,1201.6C1039.08,1193.47 1083.23,1210.32 1134.33,1233.24C1133.16,1216.45 1130.2,1196.47 1127.58,1179.77Z" style="fill:rgb(253,253,252);fill-rule:nonzero;"/>
                </g>
                <g transform="matrix(0.388258,0,0,0.388258,3457.368711,-27.391562)">
                    <path d="M1083.45,493.101C1124.47,490.37 1183.66,540.33 1208.73,569.266C1221.78,584.333 1217.99,612.757 1215.89,631.547C1211.7,626.067 1206.05,620.256 1201.3,615.112C1154.61,565.882 1107.07,532.669 1045.22,504.984C1056.54,500.571 1071.76,496.275 1083.45,493.101Z" style="fill:rgb(0,130,75);fill-rule:nonzero;"/>
                </g>
                <g transform="matrix(0.388258,0,0,0.388258,3457.368711,-27.391562)">
                    <path d="M879.915,550.212C904.891,563.298 942.334,592.898 965.636,610.987L1038.26,666.362C1104.18,715.692 1171.26,763.447 1239.45,809.587L1228.09,808.994C1220.72,807.209 1212.47,803.29 1206.2,799.015C1158.45,766.486 1113.02,729.391 1064.56,697.866C1003.53,658.175 937.949,616.746 869.74,590.69C872.073,577.048 876.003,563.476 879.915,550.212Z" style="fill:rgb(0,130,75);fill-rule:nonzero;"/>
                </g>
                <g transform="matrix(0.388258,0,0,0.388258,3457.368711,-27.391562)">
                    <path d="M1161.39,1036.88C1197.25,1037.38 1233.36,1039.54 1269.43,1039.56C1278.22,1039.57 1324.31,1039.29 1328.6,1040.38C1329.62,1043.61 1329.64,1043.37 1328.93,1046.68C1324.33,1052.68 1314.6,1049.12 1313.39,1061.4C1312.7,1068.35 1312.85,1075.36 1312.84,1082.25L1312.55,1084.35C1310.63,1085.95 1231.92,1096.19 1222.62,1097.32C1203.3,1076.1 1182.86,1055.92 1161.39,1036.88Z" style="fill:rgb(0,130,75);fill-rule:nonzero;"/>
                </g>
                <g transform="matrix(0.388258,0,0,0.388258,3457.368711,-27.391562)">
                    <path d="M511.055,534.95C534.156,534.275 528.377,559.285 524.915,573.887C528.184,569.378 531.334,564.615 536.011,561.473C553.863,549.48 568.723,558.317 560.776,579.899C564.607,585.109 571.085,595.202 567.831,600.986C559.161,616.395 533.862,604.026 525.039,599.756C532.692,618.02 534.744,615.77 547.402,627.607C541.733,635.422 534.103,627.05 529.609,622.724C524.614,615.671 522.107,609.857 518.432,602.102C515.969,613.493 511.265,629.193 499.252,633.237C486.554,637.513 482.083,623.216 479.671,614.72C471.542,610.168 459.991,598.96 470.361,589.991C479.705,581.911 491.308,583.137 502.698,584.304C492.071,579.476 476.944,570.112 476.39,557.223C476.101,550.487 486.267,544.661 492.575,546.054C501.058,547.927 502.242,539.334 511.055,534.95Z" style="fill:white;fill-rule:nonzero;"/>
                </g>
                <g transform="matrix(0.388258,0,0,0.388258,3457.368711,-27.391562)">
                    <path d="M1529.96,534.953C1545.71,534.674 1539.51,539.942 1549.08,545.3C1551.31,546.551 1576.48,544.311 1571.44,561.091C1568.07,572.295 1556.16,579.158 1545.97,584.157C1555.21,583.786 1562.28,582.679 1571.03,586.127C1574.77,587.601 1580.29,591.053 1580.84,594.588C1582.59,605.808 1575.85,610.062 1567.81,615.149C1566.29,617.65 1566.07,624.091 1564.84,626.435C1561.58,632.678 1553.76,637.636 1547.1,633.327C1536.26,626.316 1532.6,614.196 1529.58,602.45C1526.62,608.356 1523.54,614.207 1520.36,620.001C1516.49,625.396 1513.26,628.428 1507,630.951C1503.86,630.351 1503.47,630.542 1500.97,628.469C1503.26,624.098 1512.84,617.418 1516.14,613.136C1518.9,609.552 1521.47,604.12 1523.52,600.021C1515.14,603.752 1485.57,617.389 1479.98,598.556C1478.38,593.16 1483.76,584.397 1487.07,579.664C1484.53,569.411 1483.56,554.255 1500.02,556.003C1510.42,557.108 1518,567.129 1523.79,575.155C1519.67,559.938 1514.65,545.063 1529.96,534.953Z" style="fill:white;fill-rule:nonzero;"/>
                </g>
                <g transform="matrix(0.388258,0,0,0.388258,3457.368711,-27.391562)">
                    <path d="M676.491,1079.91C682.273,1082.43 715.32,1113.65 721.479,1119.77C717.05,1120.21 712.634,1120.78 708.239,1121.48C675.862,1126.9 649.135,1142.95 630.114,1169.74C624.307,1179.22 622.451,1184.69 619.185,1195.32C589.288,1141.3 631.518,1103.45 676.491,1079.91Z" style="fill:rgb(0,130,75);fill-rule:nonzero;"/>
                </g>
                <g transform="matrix(0.388258,0,0,0.388258,3457.368711,-27.391562)">
                    <path d="M933.419,1008.41C952.095,1007.18 974.828,1009.39 992.553,1016.13C997.622,1018.05 1005.73,1023.64 1008.91,1024.33L1008.42,1019.31L1009.43,1018.66C1011.91,1019.9 1016.18,1024.87 1018.31,1027.12L1016.74,1013.41C1026.7,1017.32 1076.05,1032.27 1079.27,1035.83C1083.74,1040.76 1081.79,1056.5 1081.66,1063.17L1033.72,1045.69C980.734,1026.95 927.139,1013.24 878.792,1050.58C875.248,1041.56 871.623,1033.61 867.584,1024.83C886.353,1014.41 912.367,1010.19 933.419,1008.41Z" style="fill:rgb(253,253,252);fill-rule:nonzero;"/>
                </g>
                <g transform="matrix(0.388258,0,0,0.388258,3457.368711,-27.391562)">
                    <path d="M1303.01,377.11C1306.59,376.895 1309.39,376.614 1312.58,378.238C1319.52,383.365 1323.4,377.044 1328.26,376.879C1353.19,376.034 1335.89,404.042 1329.97,411.439C1333.92,409.137 1338.05,406.85 1342.12,405.682C1361.05,400.236 1368.94,412.43 1357.19,427.981C1357.93,426.991 1362.74,452.611 1346.27,449.277C1335.08,447.011 1328.38,438.931 1321.25,431.002C1321.85,439.38 1322.21,443.121 1324.93,450.974C1327.72,454.812 1331.66,458.101 1328.62,462.339C1317.66,461.822 1316.05,439.992 1315.7,431.964C1310.55,438.256 1297.91,452.729 1287.82,449.986C1275.5,446.236 1282.54,433.312 1281,429.895C1278.84,425.101 1267.15,411.476 1282.76,405.918C1290.55,403.148 1300.32,407.958 1308.14,412.57C1299.63,401.025 1288.36,388.861 1303.01,377.11Z" style="fill:white;fill-rule:nonzero;"/>
                </g>
                <g transform="matrix(0.388258,0,0,0.388258,3457.368711,-27.391562)">
                    <path d="M713.618,376.999C723.491,376.353 727.127,382.452 734.089,378.667C740.035,375.435 750.871,376.151 751.924,384.499C753.2,394.621 746.2,403.885 740.661,411.879C748.6,407.29 759.223,402.334 768.554,406.93C774.096,409.66 774.597,420.852 770.328,424.801C768.836,426.181 767.803,428.433 767.111,430.389C768.541,437.626 769.312,451.013 757.114,450.48C747.18,450.046 738.296,438.651 732.227,431.366C732.03,439.236 731.64,443.587 729.974,451.18C728.295,455.56 727.081,458.524 723.734,461.695C720.751,462.398 718.649,462.532 717.115,459.7C726.217,446.411 725.631,447.337 727.111,431.235C721.543,437.114 707.421,452.849 696.948,449.015C685.604,443.891 692.18,433.698 690.926,428.574C689.623,423.246 678.319,410.616 692.259,404.926C699.803,401.847 710.804,407.383 718.402,411.67C710.008,400.127 700.565,388.944 713.618,376.999Z" style="fill:white;fill-rule:nonzero;"/>
                </g>
                <g transform="matrix(0.388258,0,0,0.388258,3457.368711,-27.391562)">
                    <path d="M1024.06,242.59C1041.29,286.404 1038.4,283.921 1083.37,301.257C1039.96,317.198 1039.56,317.926 1023.97,360.469C1008.6,317.512 1007.23,316.1 964.356,301.449C1008.76,285.07 1006.58,286.931 1024.06,242.59Z" style="fill:rgb(128,128,128);fill-rule:nonzero;"/>
                </g>
                <g transform="matrix(0.388258,0,0,0.388258,3457.368711,-27.391562)">
                    <path d="M1345.53,1065.36C1361.77,1062.74 1386.53,1068.2 1401.82,1073.9C1404.82,1090.04 1406.5,1115.69 1407.9,1132.69L1399.72,1129.35C1376.46,1118.2 1357.06,1111.84 1331.29,1110.45C1331.26,1096.13 1331.37,1081.8 1331.61,1067.47C1336.16,1066.59 1340.92,1066 1345.53,1065.36Z" style="fill:rgb(253,253,252);fill-rule:nonzero;"/>
                </g>
                <g transform="matrix(0.388258,0,0,0.388258,3457.368711,-27.391562)">
                    <path d="M1520.53,926.41C1533.9,926.138 1559.35,926.58 1572.39,928.014C1574.52,935.975 1583.52,979.773 1580.84,984.849C1555.32,974.762 1546.67,971.237 1519.01,970.878C1519.07,964.045 1517.94,929.625 1520.53,926.41Z" style="fill:rgb(253,253,252);fill-rule:nonzero;"/>
                </g>
                <g transform="matrix(0.388258,0,0,0.388258,3457.368711,-27.391562)">
                    <path d="M529.636,1079.51L580.87,1079.13C551.577,1101.05 535.493,1128.57 529.364,1164.23C527.736,1179.19 527.497,1186.11 529.148,1201.25C505.69,1158.25 508.772,1123.08 529.636,1079.51Z" style="fill:rgb(0,130,75);fill-rule:nonzero;"/>
                </g>
                <g transform="matrix(0.388258,0,0,0.388258,3457.368711,-27.391562)">
                    <path d="M604.651,443.775C607.048,446.593 610.835,459.391 612.94,464.104C619.87,479.623 635.527,483.077 650.831,488.827C617.746,499.931 617.304,500.943 605.554,533.28C600.845,528.103 598.624,517.735 596.172,511.414C591.265,498.763 570.604,492.765 559.041,488.664C592.817,477.218 592.295,476.188 604.651,443.775Z" style="fill:rgb(128,128,128);fill-rule:nonzero;"/>
                </g>
                <g transform="matrix(0.388258,0,0,0.388258,3457.368711,-27.391562)">
                    <path d="M1442.42,443.661C1447.06,448.141 1449.9,463.279 1452.03,467.394C1457.8,478.535 1478.08,484.617 1489.58,488.634C1457.26,500.36 1455.9,500.406 1443.86,532.424L1442.62,532.263C1440.36,526.208 1437.93,520.22 1435.32,514.307C1427.35,496.594 1416.3,495.63 1397.54,488.519C1431.11,477.197 1431.24,477.001 1442.42,443.661Z" style="fill:rgb(128,128,128);fill-rule:nonzero;"/>
                </g>
                <g transform="matrix(0.388258,0,0,0.388258,3457.368711,-27.391562)">
                    <path d="M455.845,647.456C457.173,649.131 461.697,659.34 462.428,661.513C467.256,675.857 478.13,677.398 492.341,682.699C466.139,692.418 466.64,691.896 456.487,718.207C451.358,711.304 450.27,695.735 440.975,690.975C434.787,687.806 427.434,685.169 420.954,682.738C445.563,673.849 447.826,673.334 455.845,647.456Z" style="fill:rgb(128,128,128);fill-rule:nonzero;"/>
                </g>
                <g transform="matrix(0.388258,0,0,0.388258,3457.368711,-27.391562)">
                    <path d="M1591.27,647.683C1595.86,653.574 1597.31,661.248 1599.28,666.807C1601.6,673.38 1620.41,680.109 1627.33,682.858C1601.47,691.671 1601.02,693.562 1591.98,718.253C1580.46,692.515 1584.23,692.858 1556.48,682.778C1582.35,672.937 1582.42,673.165 1591.27,647.683Z" style="fill:rgb(128,128,128);fill-rule:nonzero;"/>
                </g>
                <g transform="matrix(0.388258,0,0,0.388258,3457.368711,-27.391562)">
                    <path d="M710.255,1281.84C713.488,1281.85 725.393,1283.92 729.344,1284.53C740.377,1286.24 748.446,1286.99 759.597,1287.4C716.316,1308.62 687.788,1312.9 640.761,1298.06C627.419,1293.43 620.545,1290.27 608.259,1283.27C644.305,1293.97 688.091,1300.94 725.18,1291.87C720.569,1288.21 715.241,1285.02 710.255,1281.84Z" style="fill:rgb(0,130,75);fill-rule:nonzero;"/>
                </g>
                <g transform="matrix(0.388258,0,0,0.388258,3457.368711,-27.391562)">
                    <path d="M1105.33,1031.95C1113.86,1033.41 1122.41,1034.72 1130.98,1035.87C1146.2,1047.31 1184.83,1085.41 1196.45,1100.26C1165.27,1092.84 1168.57,1089.83 1147.32,1067.41C1136.51,1056 1117.93,1041.56 1105.33,1031.95Z" style="fill:rgb(253,253,252);fill-rule:nonzero;"/>
                </g>
                <g transform="matrix(0.388258,0,0,0.388258,3457.368711,-27.391562)">
                    <path d="M1305.75,1106.39C1309.22,1105.86 1307.96,1105.62 1311.04,1106.63C1313.77,1111.98 1311.18,1126.17 1310.39,1132.81C1297.49,1131.4 1275.62,1124.61 1262.28,1120.8C1256.02,1119.01 1249.78,1117.14 1243.56,1115.18C1264.24,1111.9 1284.98,1108.97 1305.75,1106.39Z" style="fill:rgb(253,253,252);fill-rule:nonzero;"/>
                </g>
                <g transform="matrix(0.388258,0,0,0.388258,3457.368711,-27.391562)">
                    <path d="M1099.01,1049.71C1106.88,1056.19 1126.95,1072.87 1132.31,1080.44C1120.87,1076.88 1109.5,1073.1 1098.2,1069.09L1099.01,1049.71Z" style="fill:rgb(253,253,252);fill-rule:nonzero;"/>
                </g>
            </g>
        </g>
    </g>
</svg>
