<?xml version="1.0" encoding="UTF-8" standalone="no"?>
<!DOCTYPE svg PUBLIC "-//W3C//DTD SVG 1.1//EN" "http://www.w3.org/Graphics/SVG/1.1/DTD/svg11.dtd">
<svg width="100%" height="100%" viewBox="0 0 474 380" version="1.1" xmlns="http://www.w3.org/2000/svg" xmlns:xlink="http://www.w3.org/1999/xlink" xml:space="preserve" xmlns:serif="http://www.serif.com/" style="fill-rule:evenodd;clip-rule:evenodd;stroke-linejoin:round;stroke-miterlimit:2;">
    <g transform="matrix(1,0,0,1,-19.736357,-107.690424)">
        <g transform="matrix(1,0,0,1,-3800,-23336)">
            <g id="Caper-Tiger" serif:id="Caper Tiger" transform="matrix(1,0,0,1,201.404239,23336.647578)">
                <g transform="matrix(1.540126,0,0,1.540126,3069.762992,-32.065511)">
                    <path d="M356.185,198L362.32,214L372,225L413,271L420.562,273L424,277L439,301L455,314L498,337L524,324L524,311L525,299L532,289L541,283L546,285L553,288L553,298L563,307L570.905,312L585,311L603,306L609,297L614,286.514L614,279.5L618,266L618,258L616,255L609,261L604,257L601,247L613,240L619,234L622,231.261L624,244L637,242L647,226L655,217L660,205L661,187L652,175L640,166L633,160L628,147.61L615,131L603,122L560.2,108L541,104L516,107L503,109L471,104L459,96L454,105L454,125L451,132L365,193L356.185,198Z"/>
                    <path d="M455.51,90.47C456.12,90.2 456.68,90.3 457.17,90.78C460.53,93.36 463.38,96.1 467.5,97.57C469.81,99.44 473.11,100.04 475.8,101.37C481.34,102.88 487.19,104.47 492.96,104.51C495.93,105.32 498.98,105.44 501.99,105.97C505.24,104.84 508.69,104.87 511.91,103.74C513.85,103.11 515.94,103.37 517.9,102.71C522.06,101.9 526.7,102.65 530.81,101.82C531.68,97.75 532.22,93.78 536.99,92.71C545.29,93.04 553.41,98.39 559.97,103.11C563.65,106.65 570.38,106.34 575.02,108.04C579.8,109.84 583.97,111.4 588.73,113.24C590.19,113.89 591.32,114.76 592.99,114.69C595.23,114.35 596.53,116.02 598.38,114.38C600.7,115.51 603.82,115.19 606.47,115.45C606.95,117.39 607.84,117.28 609.58,117.45C609.62,118.27 609.79,119.03 610.09,119.73C611.95,120.27 612.58,121.87 614.54,122.41C612.89,125.49 616.79,125.5 615.28,128.76C622.43,134.88 629.16,140.65 632.03,149.98C633.09,152.42 632.42,155.2 633.42,157.56C637.66,159.76 641.62,162.65 645.24,165.76C646.76,166.58 647.77,167.91 648.61,169.38C652.22,171.33 654.76,175.51 657.36,178.62C659.86,182.11 663.5,186.49 663.52,190.94C662.87,194.09 661.64,196.85 663.07,200C663.7,204.34 662.23,210.73 660.7,214.79C659.03,217.88 656.84,220.89 654.5,223.52C653.27,224.92 651.08,225.52 649.55,226.55C647.55,229.4 646.63,232.73 644.52,235.49C640.52,242.36 633.55,246.89 626,248.97C624.55,249.33 621.1,251.36 620.57,249.02C620.4,245.51 620.74,241.93 620.52,238.44C620.13,237.88 619.76,237.56 619.4,237.47C618.06,238.33 617.1,239.83 615.96,240.95C612.55,244.51 608.44,246.82 604.18,249.16C603.63,251.53 606.4,254.51 607.27,256.74C609.5,257.45 612.31,253.3 614.1,252.14C615.52,250.57 617.31,251.57 618.86,252.3C622.11,257.86 622.76,265.08 620.26,271.05C619.88,274.32 616.86,276.78 617.25,279.95C618.63,282.86 618.26,286.78 616.42,289.44C615.46,290.63 616.71,291.26 616.55,292.41C614.11,292.66 614,296.51 612.32,298.18C611.44,303.13 608.35,307.62 603.63,309.57C603.09,309.42 602.55,309.25 602.01,309.06C599.43,309.93 597.06,311.47 594.53,312.48C592.29,312.81 590.22,313.61 588.01,314.11C586.53,314.55 585.77,314.89 585.51,316.56C585.07,316.26 584.6,316.11 584.11,316.11C582.75,317.86 580.78,317.25 580.53,319.53C578.45,318.22 577,317.29 574.43,317.51C572.33,315.66 570.02,317.63 567.97,315.8C565.89,315.78 565.38,314.3 563.9,313.21C563.4,313.3 562.9,313.41 562.41,313.55C561.72,311.95 560.27,311.88 559.63,310.22C558.17,309.69 557.36,308.8 556.44,307.59C556.76,305.03 554.98,302.32 552.53,301.48C551.08,300.42 547.86,299.2 548.5,296.96C550.1,295.25 549.45,292.68 549.47,290.47C548.02,288.87 546.26,286.42 544.01,286.04C540.93,285.17 538.17,287.04 535.74,288.68C533.74,289.98 532.66,292.49 530.57,293.61C530.29,296.22 528.14,298.5 527.51,301.05C527.66,302.41 527.35,303.57 526.57,304.51C526.24,306.38 526.97,307.87 525.58,309.47C526.07,310.46 525.78,311.03 525.44,312C526.85,314.5 526.26,317.06 526.61,319.82C525.85,322.02 527.67,324.98 524.47,325.45C524.65,325.84 524.8,326.23 524.92,326.63C522.08,326.76 519.3,326.93 516.43,326.5C515.44,325.54 514.45,324.56 513.53,323.54C512.86,319.14 511.62,315.43 513.29,310.99C513.55,310.37 513.82,309.75 514.12,309.15C514.72,309.05 515.28,309.3 515.77,309.91C516.12,311.64 516.67,312.95 517.56,314.41C517.4,308 518.45,301.12 521.46,295.4C524.37,289.22 529.03,283.16 535.54,280.52C538.34,279.38 540.82,278.08 543.95,278.51C548.18,279.57 551.79,282.19 554.22,285.81C556.65,289.23 557.72,292.8 556.13,296.81C557.4,297.33 558.67,297.48 559.81,298.3C563.88,300.46 568.57,301.51 572.82,303.15C573.6,304.97 570.01,305.8 571.45,307.49C574.99,307.55 578.47,307.92 582.02,307.62C587.06,307.03 591.66,305.46 595.68,302.35C595.75,303.09 595.66,303.86 595.43,304.66C598.8,304.36 601.2,299.54 604.51,298.55C605.83,295.86 607.32,293.53 607.5,290.44C608.73,287.83 613.06,286.1 611.47,282.61C611.27,280.96 609.12,280.02 609.51,278.49C614.47,272.85 617.07,264.8 615.59,257.39C612.94,260.07 609.92,262.67 606.71,264.65C605.93,265.08 605.23,264.98 604.62,264.35C601.61,258.46 597.74,254.09 597.69,247C598.06,242.74 599.22,238 601.59,234.38C602.17,237.1 600.55,240.14 601.13,242.85L602.02,242.96C606.8,241.57 611.11,237.96 614.09,234.04C615.36,232.55 615.87,230.7 617.31,229.31C618.8,229.56 619.58,229.78 620.92,228.81C623.11,227.48 625.19,228.16 627.58,228.42C628.13,230.85 627.59,233.54 627.57,236.01C627.67,238.37 626.11,240.15 626.46,242.57C630.8,241.78 634.97,238.07 637.78,234.79C641.13,231.02 642.24,226.76 644.43,222.42C650.87,220.37 654.46,213.48 656.44,207.51C656.54,203.83 657.07,199.54 655.89,196.02C656.44,193.25 657.81,191.34 656.51,188.46C651.69,178.07 641.77,169.66 632.18,163.73C630.23,162.45 627.46,161.56 626.86,159.02C626.32,155.87 627.14,153.1 625.72,150.1C622.91,143.63 617.92,138.82 612.34,134.69C599.51,126.04 585.04,116.98 570.01,112.88C568.73,113.49 567.95,114.14 566.5,113.45C559.32,110.71 551.43,109.95 543.96,108.51C532.13,108.7 518.61,107.88 507.13,111.19C507.31,112.1 507.52,113.03 507.76,113.97L506.99,114.27C502.46,112.91 497.74,111.5 492.99,111.26C488.45,110.1 483.48,110.33 479.09,108.8C472.44,107.62 465.72,105.65 460.06,101.82C459.65,101.47 459.12,101.34 458.47,101.43C455.19,107.76 455.61,116.26 456.73,123.09C458.24,127.48 459.68,131.79 462.38,135.62C464.9,139.13 467.42,142.45 468.65,146.68C466.99,146.76 465.21,144.94 464.42,143.62C461.79,142.99 459.9,139.88 458.17,137.94C457.09,136.76 456.46,134.51 454.97,133.91C450.05,135.86 445.46,139.12 440.86,141.73C427.16,150.24 413.99,160.09 401.97,170.82C394.17,177.78 386.08,184.32 379,192.05C377.42,193.6 379.15,193.92 380.42,194.55C380.8,195.88 381.55,196.54 382.48,197.48C382.67,199.56 381.85,201.17 383.33,202.98C382.89,206.53 386,208.01 385.41,211.63C387.21,212.67 387.43,214.05 388.54,215.61C386.54,215.49 385.63,212.87 383.5,212.4C375.17,205.51 365.72,202.22 356.22,197.74C355.83,196.1 358.77,194.83 359.65,193.66C363.65,189.47 368.62,185.71 371.96,181C371.71,180.42 371.49,179.85 371.32,179.29C373.55,177.93 374.41,177.47 372.71,174.98C372.86,174.22 373.48,173.74 374.56,173.55C373.88,172.47 373.2,171.51 373.2,170.18C374.26,169.5 375.39,168.94 376.55,168.46C377.2,166.59 374.36,166.56 376.01,164.08C376.65,163.97 377.16,164.42 377.55,165.44C377.85,164.03 378.36,163.85 379.59,164.56C379.01,161.04 382.46,161.78 382.48,158.41C383.19,158.4 383.95,158.53 384.77,158.82C385.53,155.9 389.23,157.31 389.29,154.32C390.41,154.72 390.59,154.88 391.75,154.42C392.23,155.8 392.87,156.22 393.7,155.67C393.37,154.84 393.23,154.05 393.29,153.31C393.85,153.62 394.41,153.92 394.98,154.21C396.11,153.68 397.41,152.52 398.67,153.37C400.33,154.3 401.01,154.43 401.52,152.36C402.07,152.84 402.63,153.31 403.2,153.79C405.33,153.08 406.65,154.11 408.51,152.47C421.7,143.21 435.3,134.91 449.71,127.72C448.3,121.36 447.02,115.51 448.47,108.96C448.89,101.98 452.22,96.41 455.51,90.47Z" style="fill:rgb(252,252,117);fill-rule:nonzero;"/>
                    <path d="M467.34,112.31C471.29,112.17 475.09,114.5 479,115.1C480.92,115.73 482.78,115.2 484.51,116.41C495.75,117.01 506.59,118.23 516.66,123.63C516.78,121.68 516.04,119.65 515.2,117.91C514,116.28 515.36,115.16 516.99,115.09C519.91,114.95 523.16,113.63 526.01,114.16L526.36,114.99C525.29,118.6 522.97,123.9 524.4,127.61C528.33,120.84 534.24,115.72 541.99,113.99C544.8,113.61 547.72,114.42 550.56,114.51C550.84,116.08 549.45,115.65 548.52,116.55C547.29,117.62 546.23,119 545.53,120.48C544.95,123.65 546.6,125.7 547.46,128.59C548.9,127.51 549.11,125.75 550.4,124.41C554.04,120.7 558.29,120.06 562.99,118.57C567.2,117.99 570.04,119.98 574.01,121.02C574.8,121.29 576.52,121.7 576.72,122.67C573.23,123.18 569.08,122.19 565.98,123.94C563.21,125.07 561.46,127.13 560.66,130C560.41,130.59 560.12,131.15 559.78,131.69C558,132.62 556.12,133.26 554.45,134.44C552.61,137.7 555.45,141.93 558.25,143.68C560.51,144.76 561.82,146.8 564.1,147.92C564.73,148.37 564.65,148.77 563.86,149.09C561.11,150.36 558.4,147.1 556.47,145.53C552.97,141.71 548.58,142.35 544.66,139.36C539.9,136.66 539.08,131.46 539.52,126.42L538.48,126.45C535.46,130.9 533.19,136.57 533.67,142.03C533.98,144.16 536.83,144.58 538.49,145.42C541.73,145.69 545.13,146.46 548.1,147.78C550.35,149.02 550.76,150.53 550.32,153.01C549.49,155.33 549.04,158.19 549.4,160.61C551.96,156.97 555.79,154.06 560.49,155.48C562.14,159.47 564.57,163.42 567.94,166.18C568.59,166.73 569.29,166.97 570.04,166.9C573.73,170.53 578.28,169.24 583.02,169.38C584.77,167.37 588.68,169.66 589.19,167.09C592.67,166.6 595.47,171.96 597.99,173.15C599.58,172.75 601.03,172.33 602.47,171.54C606.49,171.1 610.47,171.38 614.49,171.59C618.02,173.55 621.56,174.78 624.61,177.59C624.68,176.09 623.42,175.54 622.56,174.45C616.97,168.75 609.05,167.43 601.35,167.6C600.46,165.83 604.4,165.16 605.46,164.48C608.37,164.33 611.59,164.5 614.54,164.5L614.52,163.56C612.7,163.24 611.12,162.41 609.48,161.6C607.04,161.31 604.46,161.69 602.05,161.19C601.08,159.62 599.32,158.68 598.63,157C599.25,155.43 601.03,154.53 601.79,153.11C603.21,148.17 603.79,143.7 600.8,139.17L599.96,139.12C599.46,141.21 599.05,143.77 598.82,145.97C598.33,144.87 597.84,143.9 596.93,143.06C594.98,140.68 592.94,137.51 590.23,135.91L589.95,135.12C586.54,134.14 582.59,133.48 579.03,134.21C577.35,134.82 576.41,135.99 576.79,137.85C574.04,137.63 571.47,136.83 569.01,135.63C566.44,135.48 564.77,133.9 563.07,132.17C564.8,130.78 566.45,129.41 568.5,128.59C573.95,127.62 579.75,128.08 585.04,129.48C587.9,129.37 589.72,131.15 592.61,130.59C591.69,129.29 589.07,127.76 589.15,126.14C590.33,125.73 591.57,126.89 592.56,127.43C597.92,130.73 603.32,133.98 608.5,137.56C610.79,139.29 612.68,141.39 615.05,143.03L614.1,144.04C610.99,141.94 607.11,139.84 603.35,139.35C607.09,143 612.7,146.71 617.03,149.84C617.99,151.12 618.16,153.33 618.31,154.9C618.75,157.75 621.08,160.85 622.92,163.08C625.61,165.36 629.38,166.53 632.27,168.7C638.77,172.72 644.15,178.1 648.84,184.09C649.68,185.28 650.82,186.53 651.18,187.97C650.81,189.28 648.12,189.19 647,189.25C642.07,189.3 638.93,185.9 633.99,185.83C631.91,185.95 630.22,187.31 628.31,187.67C626.6,186.39 625.24,184.75 623.56,183.43C622.63,182.73 621.58,180.95 620.28,181.24C620.41,183.03 621.47,184.64 621.59,186.5C622.32,187.14 622.7,187.98 622.74,189.01C619.11,189.41 615.37,186.26 612.01,184.97C609.45,184.03 605.54,181.57 602.95,183.08L602.16,182.03C602.75,181 604.71,180.2 605.44,179.42C597.52,180.09 588.7,184.92 585.5,192.54C584.59,194.22 585.07,196.41 583.68,197.66C579.54,200.3 574.27,203.23 571.06,207.04C568.73,208.35 567.76,210.75 566.08,213.02C564.89,215.45 562.96,218.25 563.14,221.03C560.07,225.99 556.77,230.42 554.72,235.94C552.93,239.38 552.15,243.14 550.46,246.64C552.56,246.63 553.52,242.77 555.68,242.34C556.12,247.31 555.42,251.99 557.33,256.89C558.45,262.09 560.24,267.03 562.23,271.96C561.82,275.37 563.51,277.53 564.52,280.59C566.96,284.34 569.22,287.87 573.63,289.46C576.67,291.1 579.75,289.42 582.66,291.37C583,293.15 582.67,295.03 582.93,296.84L582.02,297.41C575.88,297.2 569.86,296.36 564.29,293.65C562.91,292.35 563.84,290.8 563.02,289C561.74,285.63 560.56,282.5 558.34,279.66C555.21,276.1 551.71,272.94 548.02,269.97C547.51,269.45 546.94,269.21 546.31,269.26C546.4,270.55 547.88,271.05 547.56,272.56C545.97,272.61 544.91,270.9 543.26,270.62C533.44,267.18 521.83,267.87 512.5,272.47L511.44,272.56C511.24,271.12 512.57,270.4 513.27,269.17C515.77,265.54 519.23,263.33 522.54,260.58C522.15,260.02 521.63,259.55 520.98,259.17C519.56,257.97 518.25,257.01 516.43,256.48C514.02,254.68 512.58,252.37 511.48,249.6C511.36,247.24 511.13,245.29 509.81,243.27C508.22,242.05 505.55,244.36 504.16,245.19C501.86,246.36 501.01,248.56 498.92,249.92C497.95,251.03 498.17,253.01 497.08,254.09C496.29,254.94 495.49,255.8 494.61,256.57C492.96,257.06 492.69,255.26 490.99,254.85C490.7,253.91 490.23,253.12 489.58,252.48C489.4,247.68 489.44,242.85 489.52,238.04C489.98,235.83 490.72,233.75 490.62,231.42C486.52,232.89 482.78,236.87 479.23,238.72C477.91,228.96 478.56,218.4 481.51,208.95C482.96,201.38 486.34,193.82 490.53,187.36L489.49,187.53C486.67,190.05 483.62,192.24 481.04,195.04C480.66,195.57 480.09,195.79 479.34,195.68C478.72,193.95 479.62,191.82 478.83,190.19C477.44,188.92 475.53,190.04 474.29,188.88C474.49,187.25 474.46,185.61 474.62,183.98C475.74,182.54 475.83,180.91 476.35,179.24C477.25,177.6 478.66,176.22 479.5,174.53C481.72,169.77 486.42,165.78 489.97,161.99C492.6,159.18 495.78,157.01 498.61,154.44C497.07,154.45 495.54,154.5 494,154.39C493,154.17 492.26,153.7 491.79,152.96C494.05,151.18 495.82,148.85 498.25,147.3C500.85,145.39 503.36,142.48 506.39,141.4C508.36,138.38 512.51,136.19 514.66,133.31C510.77,133.38 507.27,136.62 503.51,136.55C503.08,130.32 495.08,127.34 490.5,124.61C484.17,122.74 477.91,120.05 472.22,116.7C470.7,115.41 468.26,114.06 467.34,112.31Z" style="fill:rgb(252,252,117);fill-rule:nonzero;"/>
                    <path d="M462.42,114.48L462.62,114.44C464.4,115.69 465.53,117.51 467.49,118.57C472.12,123.06 477.54,124.93 483.24,127.68C486.62,128.99 492.02,131.43 493.69,134.7C491.01,135.11 487.92,133.23 485.03,134.14L485.07,134.82C488.19,137.45 490.93,140.33 493.6,143.41C493.76,144.09 493.56,144.58 493,144.87C490.14,147.33 487.3,150.1 485.32,153.33C484.4,154.41 482.4,152.91 481.37,152.58C478.89,151.65 478.02,149.55 476.51,147.53C475.49,145.23 477.03,143.55 476.51,141.47C470.07,136.38 464.28,130.01 463.45,121.47C461.98,119.23 462.58,117.02 462.42,114.48Z" style="fill:rgb(154,206,235);fill-rule:nonzero;"/>
                    <path d="M538.48,126.45L539.52,126.42C539.08,131.46 539.9,136.66 544.66,139.36C548.58,142.35 552.97,141.71 556.47,145.53C558.4,147.1 561.11,150.36 563.86,149.09L564.24,149.73C568.96,150.23 573.78,150.11 578.51,150.56C583.09,152.37 586.79,155.35 590.36,158.66C593.55,161.31 598.29,163.33 602.05,161.19C604.46,161.69 607.04,161.31 609.48,161.6C611.12,162.41 612.7,163.24 614.52,163.56L614.54,164.5C611.59,164.5 608.37,164.33 605.46,164.48C604.4,165.16 600.46,165.83 601.35,167.6C609.05,167.43 616.97,168.75 622.56,174.45C623.42,175.54 624.68,176.09 624.61,177.59C621.56,174.78 618.02,173.55 614.49,171.59C610.47,171.38 606.49,171.1 602.47,171.54C601.03,172.33 599.58,172.75 597.99,173.15C595.47,171.96 592.67,166.6 589.19,167.09C586.91,165.81 583.51,167.24 581,167.15C576.36,167.14 572.76,164.54 570.03,160.97C568.8,159.68 566.93,157.11 565.01,157.17L564.72,158.02C565.95,161.38 567.91,164.09 570.04,166.9C569.29,166.97 568.59,166.73 567.94,166.18C564.57,163.42 562.14,159.47 560.49,155.48C555.79,154.06 551.96,156.97 549.4,160.61C549.04,158.19 549.49,155.33 550.32,153.01C550.76,150.53 550.35,149.02 548.1,147.78C545.13,146.46 541.73,145.69 538.49,145.42C536.83,144.58 533.98,144.16 533.67,142.03C533.19,136.57 535.46,130.9 538.48,126.45Z" style="fill-rule:nonzero;"/>
                    <path d="M560.66,130C560.64,131.72 561.44,132.44 563.07,132.17C564.77,133.9 566.44,135.48 569.01,135.63C571.47,136.83 574.04,137.63 576.79,137.85C578.67,141.14 582,142.85 584.09,145.99C585.36,147.44 585.93,149.65 587.57,150.62C587.91,147.57 586.75,145.07 585.63,142.33C585.18,141.41 584.09,140.41 584.34,139.35C585.78,137.17 587.91,136.69 590.23,135.91C592.94,137.51 594.98,140.68 596.93,143.06C597.84,143.9 598.33,144.87 598.82,145.97C599.6,148.33 600.47,150.52 601,152.93L601.79,153.11C601.03,154.53 599.25,155.43 598.63,157C599.32,158.68 601.08,159.62 602.05,161.19C598.29,163.33 593.55,161.31 590.36,158.66C586.79,155.35 583.09,152.37 578.51,150.56C573.78,150.11 568.96,150.23 564.24,149.73L563.86,149.09C564.65,148.77 564.73,148.37 564.1,147.92C561.82,146.8 560.51,144.76 558.25,143.68C555.45,141.93 552.61,137.7 554.45,134.44C556.12,133.26 558,132.62 559.78,131.69C560.12,131.15 560.41,130.59 560.66,130Z" style="fill:rgb(154,206,235);fill-rule:nonzero;"/>
                    <path d="M579.03,134.21C582.59,133.48 586.54,134.14 589.95,135.12L590.23,135.91C587.91,136.69 585.78,137.17 584.34,139.35C584.09,140.41 585.18,141.41 585.63,142.33C586.75,145.07 587.91,147.57 587.57,150.62C585.93,149.65 585.36,147.44 584.09,145.99C582,142.85 578.67,141.14 576.79,137.85C576.41,135.99 577.35,134.82 579.03,134.21Z" style="fill-rule:nonzero;"/>
                    <path d="M523.47,139.5L524.53,139.34C520.63,146.59 517,154.32 515.46,162.53C512.68,170.17 514.93,179.42 512.05,186.99C510.48,193.53 506.94,199.31 504.46,205.65L505.57,205.57C507.67,203.99 509.92,202.66 512.05,201.12C513.18,201.01 513.66,201.32 513.5,202.04C513.28,208.92 515.71,216.36 520.91,221.09C525.91,225.65 532.26,228.15 538.88,229.15C537.53,234.71 537,241.84 539.69,247.05C541.14,252.07 543.83,256.11 546.52,260.51C547.35,261.6 548.65,262.07 548.65,263.5C544.82,262.02 539.82,258.17 536.52,255.48C530.86,251.01 527.06,244.28 528.68,236.9C529.08,235.9 529.04,235.11 528.55,234.5C522.64,233.82 516.75,233.74 510.99,235.3C508.66,235.35 506.11,237.36 504.02,237.02C503.32,235.51 504.4,233.59 504.55,231.96C504.95,226.08 505.84,220.33 505.53,214.43L504.49,214.52C501.36,217.14 497.57,218.59 494.73,221.69L494.15,221.76C492.9,212.22 496.21,201.06 498.87,191.91C500.92,186.83 502.4,181.22 503.78,175.92C504.8,174.33 504.74,172.14 504.69,170.31C502.3,169.59 500.26,170.88 498.1,170.82L498.15,170.06C505.84,159.25 514.09,148.89 523.47,139.5Z" style="fill-rule:nonzero;"/>
                    <path d="M599.96,139.12L600.8,139.17C603.79,143.7 603.21,148.17 601.79,153.11L601,152.93C600.47,150.52 599.6,148.33 598.82,145.97C599.05,143.77 599.46,141.21 599.96,139.12Z" style="fill-rule:nonzero;"/>
                    <path d="M603.35,139.35C607.11,139.84 610.99,141.94 614.1,144.04C615.21,145.88 616.37,147.79 617.03,149.84C612.7,146.71 607.09,143 603.35,139.35Z" style="fill-rule:nonzero;"/>
                    <path d="M581.61,147.61C579.18,147.41 576.95,145.96 574.53,145.53C569.66,143.72 564.87,144.73 560.21,141.82L560.2,141.17C567.32,137.58 577.19,141.34 581.61,147.61Z" style="fill-rule:nonzero;"/>
                    <path d="M454.98,141.95C457.14,144.89 457.99,148.64 460.67,151.34C465.45,156.26 471.92,159.96 478.64,161.42C478.94,162.06 478.83,162.69 478.31,163.31C476.7,165.46 475.23,167.67 473.78,169.92C473.07,171.25 471.92,171.04 470.94,170.15C468.47,168.2 465.89,166.45 463.26,164.74C462.25,163.38 463.71,162.02 462.22,160.67C460.67,159.65 462.73,156.85 460.26,157.23C460.03,160.09 458.55,161.69 458.59,164.59C454,167.62 449.54,170.82 445.31,174.34C444.6,174.94 444.31,175.66 444.45,176.49C445.28,176.65 446.09,176.88 446.87,177.17C447.75,180.62 447.36,185.46 446.83,189.01C445.7,189.59 444.52,189.75 443.46,190.48C443.03,192.47 446.1,192.05 445.57,194.55C444.13,194.83 442.51,194.57 441.16,195.15C440.7,196.65 440.64,199.34 441.14,200.82C449.1,200.8 456.71,201 464.55,202.51L464.57,203.52C460.69,203.4 456.85,203.69 453,204.01C450.58,204.98 447.67,204.22 445.44,205.43C443.72,213.56 443.74,219.74 441.98,228C441.72,232.09 440.46,235.91 440.38,240.03C438.76,242.18 439.95,245.39 439.27,248C438.31,251.48 438.63,255.07 437.58,258.49C437.44,260.91 437.48,263.18 436.58,265.49C436.42,269.01 435.81,272.48 435.55,276C435.67,278.95 437.73,281.06 438.1,284.02C443.4,297.75 452.37,310.01 464.52,318.5C465.36,319.08 466.13,319.69 466.62,320.6C455.54,317.86 445.49,311.59 437.32,303.67C428.92,294.72 422.48,284.4 414.77,275.14L413.98,275.07C412.98,277.43 413.96,280.55 413.35,283.12C412.92,285.82 414.08,287.61 415.22,289.9C418.21,296.8 422.7,302.94 427.59,308.61L426.51,308.45C420.95,303.59 414.89,299.62 410.01,293.99C408.42,291.79 406.21,291.45 404.51,289.53C403.27,289.32 402.73,290.43 401.38,289.48L400.53,290.45C400.54,299.62 400.56,308.8 400.64,317.97C400.61,318.57 400.27,319.11 399.62,319.6C397.87,320.14 397.87,318.23 397.72,317C397.43,308.77 398.88,299 396.85,291.11L396.03,291.12C395.43,294 394.15,291.89 392.41,291.51C392.89,291.34 393.38,291.17 393.86,290.98C394.22,289.55 392.61,289.37 392.4,288.26C393.45,287.5 394.54,289.27 395.65,288.72C395.46,287.07 391.82,285.93 392.11,284.02L393.54,283.52C392.82,282.26 392.13,281.01 391.26,279.84C391.36,279.29 391.47,278.74 391.59,278.2C390.46,277.89 389.39,279.32 388.28,278.77C389,277.26 389.61,276.88 389.35,274.97C389.14,273.68 387.3,273.37 387.26,272.24C388.26,272.37 389.13,272.22 389.86,271.79C389.29,269.79 389.19,270.14 389.84,268.1C388.53,267.86 388.06,267.33 388.44,266.51C389.7,266.21 390.1,265.39 389.63,264.05C386.71,257.53 383.18,251.46 379.98,245.01C377.15,240.11 375.11,234.76 372.29,229.84C369.77,224.65 365.14,218.83 362.32,214.3C362.93,214.25 363.55,214.38 364.16,214.7C372.07,218.64 379.42,223.08 386.03,228.97C391.23,233.85 395.56,239.42 399.74,245.18C406.41,253.97 414.1,261.48 424.5,265.57C425.7,266.08 427.62,267.89 428.88,267.03L428.94,266C426.81,259.66 423.86,253.32 420.51,247.52C417.53,242.29 414.36,236.94 410.41,232.39C414.17,232.87 417.55,235.37 421.54,235.55C423.52,236.85 425.45,236.48 427.7,236.68C427.62,235.74 426.15,235.05 425.49,234.47C414.56,224.95 406.85,213.22 401.33,199.94C399.64,195.34 396.98,190.76 395.88,186.01C399.4,181.7 403.85,177.6 408.01,173.85L409.02,173.44C410.83,174.02 410.32,177.44 410.52,178.96C412,185.27 413.16,192.14 416.26,197.89C417.77,201.97 420.28,205.75 422.53,209.46C425.96,215.01 430.52,219.42 434.56,224.46L435.54,224.64C434.92,223.04 433.84,221.6 433.3,219.95C427.44,205.2 422.97,188.99 423.52,173C423.58,169.17 423.28,164.93 424.27,161.21C426.94,158.88 430.1,156.84 433.03,154.81L434.07,154.92C435.18,156.98 434.02,159.86 434.76,162.09C435.44,163.91 435.31,165.64 435.55,167.52C436.23,170.04 437.16,172.5 437.96,174.99C438.66,176.67 438.99,178.53 440.55,179.62C440.59,171.7 442.03,163.46 444.51,155.95C445.03,152.25 447,148.77 448.34,145.3C450.21,144.24 452.83,141.62 454.98,141.95Z" style="fill:rgb(252,252,117);fill-rule:nonzero;"/>
                    <path d="M615.05,143.03C618.27,145.2 619.59,148.28 621.48,151.48C621.93,153.12 622.14,155.05 621.67,156.71C619.8,157.31 620.02,154.94 618.31,154.9C618.16,153.33 617.99,151.12 617.03,149.84C616.37,147.79 615.21,145.88 614.1,144.04L615.05,143.03Z" style="fill:rgb(154,206,235);fill-rule:nonzero;"/>
                    <path d="M369.39,145.35C369.62,145.62 369.62,145.62 369.39,145.35Z" style="fill:rgb(154,206,235);fill-rule:nonzero;"/>
                    <path d="M527.51,150.53C532.11,153.4 536.62,155.38 539.7,160.24C541,163.3 539.77,166.94 538.7,169.89C536.88,176.02 535.34,183.53 537.35,189.75C538.71,193.44 542.62,193.95 546.01,192.91C552.74,191 559.21,187.36 566,185.46C568.42,185.64 567.34,189.16 568.25,190.7C572.29,188.2 576.51,182.93 581.5,181.4C584.46,179.57 588.07,177.46 591.61,177.42C591.28,177.81 590.91,178.14 590.5,178.41C585.13,181.28 580.55,186.02 576.33,190.35C569.17,198.42 563.22,207.38 559.45,217.53C559.15,217.93 558.81,218.28 558.41,218.6C560.16,213.07 559.65,207.71 559.98,202C560.7,200.17 560.46,198.36 560.52,196.45C559.12,195.87 557.5,196.11 556.04,196.31C550.83,198.72 545.14,202 541.68,206.7C537.53,212.08 540.03,218.5 544.61,222.6C542.19,223.15 540.14,220.93 538.03,219.89C534.3,217.23 529.85,213.16 531.4,208.04C531.47,205.79 534.49,204.01 534.08,202.01C531.75,200.43 529.29,199.74 527.73,197.11C525.74,194.32 526.14,190.1 526.67,186.9C529.63,176.83 532.66,166.8 528.61,156.49C528.38,154.31 527.47,152.52 526.54,150.59C526.34,150.34 526.66,150.32 527.51,150.53Z" style="fill-rule:nonzero;"/>
                    <path d="M491.79,152.96C492.26,153.7 493,154.17 494,154.39C493.53,155.13 490.93,155.24 490.17,154.81C490.13,154.13 490.67,153.51 491.79,152.96Z" style="fill:rgb(154,206,235);fill-rule:nonzero;"/>
                    <path d="M572.43,154.42C574.2,154.07 576.13,155.08 577.91,155.3C580.44,155.73 578.08,160.15 580.03,160.89C581.84,161.59 582.3,159.36 583.4,158.46C584.51,159.27 586.93,160.87 586.55,162.47C582.8,163.85 579.3,164.98 575.85,162.16C574.05,160.2 572.12,157.19 572.43,154.42Z" style="fill:white;fill-rule:nonzero;"/>
                    <path d="M565.01,157.17C566.93,157.11 568.8,159.68 570.03,160.97C572.76,164.54 576.36,167.14 581,167.15C583.51,167.24 586.91,165.81 589.19,167.09C588.68,169.66 584.77,167.37 583.02,169.38C578.28,169.24 573.73,170.53 570.04,166.9C567.91,164.09 565.95,161.38 564.72,158.02L565.01,157.17Z" style="fill:rgb(154,206,235);fill-rule:nonzero;"/>
                    <path d="M556.77,158.31C557.97,163.36 559.65,169.94 564.89,172.24C569.32,174.3 575.19,173.75 579.79,174.22L579.74,174.77C576.16,176.86 572.08,178.82 567.96,179.49C561.13,180.22 552.37,174.6 553.34,166.99C553.53,164.5 554.64,159.54 556.77,158.31Z" style="fill-rule:nonzero;"/>
                    <path d="M375.33,159.33C376.72,159.4 375.38,162.27 374.27,161.62C373.97,160.67 374.32,159.91 375.33,159.33Z" style="fill:rgb(252,252,117);fill-rule:nonzero;"/>
                    <path d="M380.21,159.2L380.69,159.17C380.51,160.2 380.35,160.21 380.21,159.2Z" style="fill:rgb(252,252,117);fill-rule:nonzero;"/>
                    <path d="M544.52,169.43L545.54,169.36C546.58,173.87 547.34,177.76 551.32,180.69C551.88,181.29 553.79,181.87 553.74,182.74C550.98,183.32 548.17,183.25 545.46,182.48C541.71,179.3 544.08,173.48 544.52,169.43Z" style="fill-rule:nonzero;"/>
                    <path d="M450.18,177.31C451.03,177.13 451.87,177.15 452.71,177.35C453.66,178.84 453.11,181.26 453.29,183C453.14,184.72 453.73,187.22 452.78,188.69C451.85,188.92 450.96,188.94 450.12,188.74L449.66,188.01C449.84,184.77 448.89,180.18 450.18,177.31Z" style="fill:rgb(252,252,117);fill-rule:nonzero;"/>
                    <path d="M455.34,177.32C456.62,176.89 458.28,176.98 459.54,177.44C459.54,181.15 459.53,184.85 459.54,188.56C458.19,188.8 456.72,188.9 455.38,188.62C455.09,184.97 455.11,180.97 455.34,177.32Z" style="fill:rgb(252,252,117);fill-rule:nonzero;"/>
                    <path d="M462.32,177.3C463.51,177.01 464.64,177 465.73,177.28C466.25,180.55 466.2,184.71 465.81,188.02C464.24,189.41 461.99,188.01 462.11,186.01C462.2,183.16 461.85,180.1 462.32,177.3Z" style="fill:rgb(252,252,117);fill-rule:nonzero;"/>
                    <path d="M468.34,177.33C469.39,177.14 470.48,177.16 471.61,177.39C471.92,181.06 471.81,184.99 471.65,188.67C470.59,188.94 469.51,188.92 468.39,188.61C468.05,185.01 467.96,180.92 468.34,177.33Z" style="fill:rgb(252,252,117);fill-rule:nonzero;"/>
                    <path d="M602.95,183.08C605.54,181.57 609.45,184.03 612.01,184.97C615.37,186.26 619.11,189.41 622.74,189.01C625.42,195.75 631.86,196.77 635.5,202.47C636.52,204.81 638.27,207.95 637.52,210.54C636.01,213.1 633.68,213.42 631.1,214.3C625.27,216.2 619.13,215.83 613.04,215.52C607.92,214.23 602.98,212.51 598.71,209.31C597.75,208.54 595.94,207.78 596.21,206.29C598.12,206.12 599.48,207.06 601.2,207.66C605.06,208.8 608.95,209.54 613,209.4C613.73,209.28 617.16,209.56 616.84,208.33C614.53,207.91 612.28,207.64 610.13,206.66C603.81,204.66 596.81,201.7 592.76,196.2C592.27,195.66 592.12,195.05 592.31,194.37C602.71,197.92 611.17,202.93 622.49,203.57C613.87,199.66 605.35,196.11 597.74,190.27C596.88,189.38 594.53,188.93 595.28,187.35C604.76,186.08 610.06,192.98 618.61,194.6C613.82,190.78 607.77,186.92 602.95,183.08Z" style="fill:rgb(154,206,235);fill-rule:nonzero;"/>
                    <path d="M632.46,189.48C637.34,187.92 642.89,193.42 648,192.89C649.6,193.18 651.25,191.82 652.68,192.31C652.68,193.9 651.52,195.56 650.82,196.96C649.15,199.61 647.27,202.83 644.64,204.62C643.27,204.88 641.56,205.14 640.22,204.72C638.77,202.57 642.78,199.63 640.82,197.12C638.31,193.73 635.26,193.82 631.46,193.55C630.62,191.64 630.25,190.46 632.46,189.48Z" style="fill:rgb(154,206,235);fill-rule:nonzero;"/>
                    <path d="M651.4,201.38L652.55,201.41C652.88,204.51 652.01,207.18 650.76,209.96C649.45,212.58 648.2,215.03 645.55,216.56C643.44,217.17 641.81,213.07 642.47,211.46C645.23,207.94 648.8,205.03 651.4,201.38Z" style="fill:rgb(154,206,235);fill-rule:nonzero;"/>
                    <path d="M583.62,203.41C582.49,205.04 580.23,205.37 578.65,206.68C572.72,210.34 567.32,215.47 563.14,221.03C562.96,218.25 564.89,215.45 566.08,213.02C567.76,210.75 568.73,208.35 571.06,207.04C574.5,206.09 579.4,202.51 583.62,203.41Z" style="fill:rgb(154,206,235);fill-rule:nonzero;"/>
                    <path d="M472.77,209.24C473.49,212.09 471.74,215.99 471.59,218.96C471.11,221.81 470.19,223.42 467.27,224.16C467.24,222.54 467.25,221.36 468.21,219.99C468.41,218.68 467.29,217.4 466.79,216.22C465.59,214.29 463.89,214.78 461.95,214.58C465.23,212.67 469.27,210.51 472.77,209.24Z" style="fill:rgb(154,206,235);fill-rule:nonzero;"/>
                    <path d="M585,210.57C588.6,211.14 591.06,213.83 594.55,214.51L594.59,215.56C592.49,216.2 590.43,216.85 588.38,217.61C587.16,213.83 583.99,212.92 580.39,212.58L580.52,212.4C581.42,210.88 583.45,210.9 585,210.57Z" style="fill:rgb(154,206,235);fill-rule:nonzero;"/>
                    <path d="M461.95,214.58C463.89,214.78 465.59,214.29 466.79,216.22C467.29,217.4 468.41,218.68 468.21,219.99C467.25,221.36 467.24,222.54 467.27,224.16C465.17,226.36 462.54,227.2 459.98,228.96C456.68,230.62 453.61,232.63 450.23,234.16C448.66,230.3 451.84,226.03 451.68,221.83C451.86,221.12 452.3,220.51 452.99,220.01C455.73,217.91 458.68,215.78 461.95,214.58Z" style="fill:rgb(252,252,117);fill-rule:nonzero;"/>
                    <path d="M606.36,219.39C609.68,219.22 612.52,220.23 615.82,220.25C616.19,220.95 616.13,221.78 615.63,222.72C613.59,228.06 610.16,234.4 605.34,237.62C604.57,234.8 606.31,230.94 606.35,228C606.82,225.13 606.01,222.18 606.36,219.39Z" style="fill:white;fill-rule:nonzero;"/>
                    <path d="M620.46,219.53C625.01,219.21 629.43,218.67 634,219.15C634.99,219.25 635.88,219.59 636.68,220.15C636.36,221.63 634.38,223.56 633.01,224.24C632.4,223.81 631.82,223.52 631.25,223.36C628.95,225.11 628.43,222.09 626,224.02C625.32,223.71 624.65,223.32 623.99,222.85C622.23,223.68 621.76,225.74 619.45,224.58C619.61,222.98 618.78,220.4 620.46,219.53Z" style="fill:white;fill-rule:nonzero;"/>
                    <path d="M639.67,221.32C640.02,222.12 640.01,222.97 639.64,223.86C638.46,227.85 636.34,231.48 633.62,234.61C632.6,235.51 631.97,236.79 630.47,236.65C632,233.6 631.3,230.4 632.36,227.34C633.89,226.05 635.52,225.33 636.54,223.55C637.32,222.55 638.06,220.54 639.67,221.32Z" style="fill:white;fill-rule:nonzero;"/>
                    <path d="M451.68,221.83C451.84,226.03 448.66,230.3 450.23,234.16C449.11,235.37 447.81,236.87 446.35,237.64C447,232.17 447.05,225.6 451.68,221.83Z" style="fill:rgb(154,206,235);fill-rule:nonzero;"/>
                    <path d="M565.47,230.47C567.69,229.45 571.48,229.8 573.12,231.84C578.26,235.99 580.67,242.16 581.52,248.55L582.52,248.56C582.27,244.63 583.16,241.21 581.58,237.5C581.39,235.58 579.75,234.15 580.43,232.42C584.92,232.84 587.65,237.33 588.56,241.37C590.42,246 589,250.32 591.41,254.63C591.9,255.7 592.83,256.31 592.51,257.53C590.28,260.04 587.67,262.08 585.05,264.17C583.87,265.11 581.83,264.92 580.48,264.49C575.53,261.73 571.61,257.65 570.42,251.96C570.03,247.2 570.66,243.02 568.48,238.52C567.37,236.68 566.76,235.06 564.48,234.46C563.52,233.12 564.74,231.6 565.47,230.47Z" style="fill:rgb(154,206,235);fill-rule:nonzero;"/>
                    <path d="M470.84,237.15C472.64,241.62 473.34,248.14 470.28,252.25C466.64,256.58 461.97,258.71 457.1,261.19C451.18,263.1 445.83,266.2 441.42,270.6C441.34,269.63 441.46,268.73 441.79,267.91C443.35,262.65 443.83,255.05 448.29,251.31C453.43,246.44 461.49,244.26 467.32,240.33C468.56,239.62 469.58,237.31 470.84,237.15Z" style="fill:rgb(154,206,235);fill-rule:nonzero;"/>
                    <path d="M509.81,243.27C511.13,245.29 511.36,247.24 511.48,249.6C512.58,252.37 514.02,254.68 516.43,256.48C518.25,257.01 519.56,257.97 520.98,259.17L521.4,260.01L520.98,260.74C517.08,261.26 512.95,260.36 509,261.08C504.98,261.42 501.08,263.76 497.43,265.45C496.14,266 494.81,267.92 493.36,267.63C492.81,267.12 492.5,266.56 492.45,265.96C492.32,262.54 489.85,258.15 490.99,254.85C492.69,255.26 492.96,257.06 494.61,256.57C495.49,255.8 496.29,254.94 497.08,254.09C498.17,253.01 497.95,251.03 498.92,249.92C501.01,248.56 501.86,246.36 504.16,245.19C505.55,244.36 508.22,242.05 509.81,243.27Z" style="fill:rgb(154,206,235);fill-rule:nonzero;"/>
                    <path d="M480.35,249.44L480.57,249.5C481.13,261.39 484.57,272.99 491.11,282.97L491.83,282.94C493.92,277.99 497.68,274.13 502.08,271.17L502.97,271.12C503.52,274.15 501.12,277.86 501.46,281C501.46,283.73 500.51,287 501.38,289.62C508.07,283.95 516.56,277.88 525.61,277.41C524.19,279.65 521.71,281 520.32,283.34C518.45,285.71 517.53,288.43 516.29,291.13C515.04,295.86 513.42,301.4 515.48,306.05C515.52,307.34 515.62,308.63 515.77,309.91C515.28,309.3 514.72,309.05 514.12,309.15C513.82,309.75 513.55,310.37 513.29,310.99C513.46,307.95 511.14,306.04 511.07,303C510.1,300.86 510.58,298.44 509.72,296.33L509.33,296.37C507.13,300.62 505.36,305.43 504.29,310.1C503,314.62 502.27,318.95 503.56,323.56C502.07,323.78 502.18,322.62 501.3,321.74C497.41,317.82 494.36,313.35 491.12,308.92C490.31,307.95 488.9,307.97 488.21,306.85C481.58,297.95 478.56,286.97 476.57,276.18L475.95,276.04C475.09,271.82 475.93,267.09 475.53,262.76C476.64,258.54 477.88,253.1 480.35,249.44Z" style="fill:rgb(154,206,235);fill-rule:nonzero;"/>
                    <path d="M562.46,250.44L563.47,250.45C563.83,253.78 565.96,256.77 567.23,259.83C569.46,264.63 575.35,267.76 575.76,272.99C575.91,274.78 577.06,275.79 576.57,277.59L575.51,277.48C571.97,274.13 568.38,270.8 566.76,266.06C565.28,263.19 564.25,260.2 563.86,256.99C563.5,254.56 562.2,252.87 562.46,250.44Z" style="fill:rgb(154,206,235);fill-rule:nonzero;"/>
                    <path d="M594.42,259.39L594.58,259.53C596.43,261.54 599.48,263.06 599.29,266.01C599.18,268.4 596.26,268.59 594.44,268.55C594.41,265.5 594.46,262.45 594.42,259.39Z" style="fill:rgb(154,206,235);fill-rule:nonzero;"/>
                    <path d="M475.53,262.76C475.93,267.09 475.09,271.82 475.95,276.04C475.14,277.99 474.99,280.12 473.65,281.64C470.03,286.37 465.2,288.53 460.04,291.11C458.73,291.65 457.97,294.03 456.49,293.51C454.2,290.91 452.29,288.02 450.56,285.03C450.75,283.18 449.28,282.07 449.35,280.3C455.34,273.22 466.68,270.75 473.13,264.12C473.79,263.27 474.59,262.82 475.53,262.76Z" style="fill:rgb(252,252,117);fill-rule:nonzero;"/>
                    <path d="M591.72,263.29C591.82,268.3 589.63,274.71 585.02,277.32C581.07,278.18 578.96,271.46 582.79,269.76C586.28,267.73 588.66,265.35 591.72,263.29Z" style="fill:white;fill-rule:nonzero;"/>
                    <path d="M612.64,264.36C612.08,268.15 610.9,271.4 608.32,274.31C607.46,275.09 606.7,276.46 605.38,275.65C605.05,273.62 603.95,272.08 603.31,270.27C605.97,268.58 608.74,267.29 610.98,264.98C611.39,264.5 611.94,264.29 612.64,264.36Z" style="fill:white;fill-rule:nonzero;"/>
                    <path d="M385.41,268.29C386.76,267.48 388.9,270.05 387.31,270.78C386.59,270.49 385.13,269.13 385.41,268.29Z" style="fill:rgb(154,206,235);fill-rule:nonzero;"/>
                    <path d="M562.23,271.96C565.81,277.69 570.8,284.19 578,285.09C582.12,284.44 586.49,284.02 590.4,282.46C595.37,281.19 601.96,280.88 606.55,283.48C607.17,285.93 603.46,284.8 603.5,287.04C603.49,289.74 602.14,292.44 600.6,294.6C599.91,295.26 599.08,296.95 598,296.74C597.78,295.98 597.67,295.17 597.69,294.32L597.3,294.38C593.19,298.54 587.73,300.7 581.99,301.43L581.29,300.98C581.43,299.62 583.98,298.87 584.61,297.41L582.93,296.84C582.67,295.03 583,293.15 582.66,291.37C579.75,289.42 576.67,291.1 573.63,289.46C569.22,287.87 566.96,284.34 564.52,280.59C563.51,277.53 561.82,275.37 562.23,271.96Z" style="fill:rgb(154,206,235);fill-rule:nonzero;"/>
                    <path d="M593.02,272.18C594.56,273.01 595.46,271.92 597.02,272.65C599.09,271.85 600.59,272.9 602.75,273.21C602.95,273.98 602.92,274.79 602.65,275.65C601.33,276.34 599.46,275.89 598,275.98C595.6,275.83 592.95,277.12 590.36,276.65C590.79,275.31 591.62,272.67 593.02,272.18Z" style="fill:white;fill-rule:nonzero;"/>
                    <path d="M387.43,288.42C387.58,288.58 387.58,288.58 387.43,288.42Z" style="fill:rgb(252,252,117);fill-rule:nonzero;"/>
                </g>
            </g>
        </g>
    </g>
</svg>
