<?xml version="1.0" encoding="UTF-8" standalone="no"?>
<!DOCTYPE svg PUBLIC "-//W3C//DTD SVG 1.1//EN" "http://www.w3.org/Graphics/SVG/1.1/DTD/svg11.dtd">
<svg width="100%" height="100%" viewBox="0 0 494 349" version="1.1" xmlns="http://www.w3.org/2000/svg" xmlns:xlink="http://www.w3.org/1999/xlink" xml:space="preserve" xmlns:serif="http://www.serif.com/" style="fill-rule:evenodd;clip-rule:evenodd;stroke-linejoin:round;stroke-miterlimit:2;">
    <g transform="matrix(1,0,0,1,-9.801126,-145.189363)">
        <g transform="matrix(1,0,0,1,-2500,-10564)">
            <g id="Falcon-2" serif:id="Falcon 2" transform="matrix(1,0,0,1,-1098.595761,10564.647578)">
                <g transform="matrix(1,0,0,1,3037.000063,-9202.998876)">
                    <path d="M921,9524L955,9507L970,9485L1001,9484L1026,9494L1056,9529L1058,9565L1042,9594L1031,9592L1004,9569L973,9555L929,9551L896,9554L898,9537L921,9524Z" style="fill:rgb(69,68,68);"/>
                </g>
                <g transform="matrix(1,0,0,1,3598.595761,-0.647578)">
                    <path d="M99,335.629L115,285L136.369,269.382L148.745,241L161,229.758L214,209L264,177L369,190.134L404,210L437.367,241L445,269.382L430,281.649L402,281.649L377,309.217L355.359,323L325,336.649L334.404,354L369,358L355.359,377L322,409L318,439L273,424.351L204,379L122,366.784L91,366.784L99,335.629Z" style="fill:rgb(69,68,68);"/>
                </g>
                <g transform="matrix(1,0,0,1,3598.595761,-0.647578)">
                    <path d="M315,239L305,249L304,269.382L309,290L322,299L341,308L364,308L379,292L387,281.649L315,239Z" style="fill:white;"/>
                </g>
                <g transform="matrix(0.299928,0,0,0.299928,3547.756443,8.839668)">
                    <path d="M355.838,775.755C487.845,655.474 640.098,573.071 818.801,540.954C1034.86,502.124 1283.92,521.977 1481.83,623.254C1491.09,627.996 1502.26,633.615 1510.69,639.394C1513.28,645.191 1542.42,661.982 1550,667.543C1615.99,715.955 1690.07,793.443 1682.55,881.512C1682.28,884.756 1691.56,890.656 1694.02,891.944L1696.85,891.608C1765.32,941.41 1828.62,989.795 1843.44,1080.01C1855.74,1154.89 1831.1,1222.53 1786.6,1282.03C1756.11,1322.79 1725.9,1344.86 1687.23,1375.65C1697.18,1330.34 1699.85,1280.77 1673.4,1239.85C1658.35,1216.98 1634.81,1201.06 1607.98,1195.6C1575.74,1189.04 1537.21,1195.79 1506.94,1207.75C1418.45,1242.7 1358.56,1329.85 1338.23,1420.5C1336.96,1426.17 1335.82,1433.54 1335.64,1439.33C1334.51,1441.51 1335.13,1452.14 1334.39,1456.92C1328.33,1401.68 1333.41,1345.78 1349.32,1292.54C1324.83,1319.46 1309.36,1344.45 1299.88,1380C1297.64,1388.42 1296.14,1403.42 1293.21,1410.59C1291.53,1423.65 1291.7,1437.47 1290.13,1449.03C1291.61,1462.33 1290.28,1481.2 1291.81,1495.64C1296.39,1538.78 1304.94,1574.7 1316.91,1615.78C1306.49,1602.86 1284.09,1581.17 1271.45,1568.45C1181.36,1477.46 1077.3,1401.46 963.209,1343.33C941.863,1332.51 920.714,1323.02 898.645,1313.79C886.086,1308.53 867.777,1303.72 856.32,1297.45C852.689,1296.53 848.64,1295.2 845.012,1294.1C832.157,1288.38 784.718,1276.2 770.797,1272.81C683.732,1251.69 594.06,1243.31 504.588,1247.96C479.882,1249.28 456.167,1253.33 432.37,1255.03C426.284,1256.03 420.174,1256.88 414.046,1257.58C376.197,1264.22 347.416,1270.4 310.087,1278.79C328.725,1210.24 370.687,1134.85 410.978,1076.63C428.546,1051.25 454.657,1022.6 474.69,998.261C357.197,1057.36 262.789,1169.61 210.429,1288.77C207.695,1294.99 204.921,1301.2 202.183,1307.42C203.182,1300.08 206.273,1290.92 208.508,1283.72C271.08,1082.23 431.814,892.161 618.504,794.289C608.027,795.058 597.194,795.38 586.876,797.725C458.19,826.983 347.986,910.431 266.594,1012.16C249.695,1033.28 234.351,1056.01 219.044,1077.99L217.285,1077.37C331.429,857.796 530.451,702.484 766.554,632.313C812.072,618.785 856.104,609.798 902.402,600.008C903.878,599.684 912.103,599.133 911.846,597.467L911.688,597.658L911.026,597.09L910.752,597.857L909.969,596.904C907.664,596.996 905.357,597.014 903.051,597.089C859.507,596.238 821.696,595.958 777.951,600.117C653.829,611.92 537.286,656.74 432.758,723.766C406.808,740.406 381.578,759.076 356.945,777.581L355.838,775.755ZM726.273,953.355C729.1,952.693 730.453,951.757 732.379,952.785C731.256,953.59 730.153,954.401 729.004,955.168C662.723,990.375 607.815,1036.15 559.091,1092.76C545.762,1108.25 530.708,1123.5 519.809,1141.03C535.072,1142.17 562.317,1138.86 579.718,1139.23C591.458,1139.49 613.721,1140.51 624.178,1139.74C648.882,1117.53 687.818,1095.4 717.04,1080.85C886.294,996.602 1078.33,987.348 1263.05,1009.85C1288.07,1012.89 1320.68,1021.7 1345.32,1021.29C1354.52,1018.59 1364.35,1016.15 1373.66,1013.67C1372.77,1012.63 1371.88,1011.61 1370.97,1010.59C1349.14,1009.45 1318.73,1008.56 1297.54,1004.97C1298.62,1004.25 1300.99,1003.35 1301.5,1002.57C1301.05,1001.35 1291.03,1000.09 1288.82,1002.55C1290.76,1003.43 1290.88,1002.4 1292.48,1004.22C1281.36,1004.12 1261.73,999.31 1251.04,996.129L1239.67,992.592C1171.97,968.136 1120.27,899.311 1111.43,828.479C1102.62,815.409 1082.82,807.142 1068.54,801.956C1029.51,787.778 991.346,786.025 950.634,791.122C946.364,791.67 941.13,792.924 936.836,793.827L947.892,788.452C1023.87,750.856 1105.29,746.51 1188.03,752.434C1188.77,752.41 1193.13,752.694 1193.31,751.514C1192.72,750.548 1191.31,750.224 1190.3,749.894L1189.03,749.444C1181.65,745.971 1172.48,743.248 1164.62,740.673C1166.26,740.562 1170.25,740.798 1171.31,740.48L1171.32,740.037C1167.77,736.556 1150.54,731.652 1145.05,734.441L1143.59,735.168C1122.2,729.884 1096.43,725.519 1074.56,721.29C1071.84,720.724 1071.34,720.541 1068.75,719.501L1069.09,718.609L1073.7,717.935C1129,710.221 1185.36,717.1 1237.18,737.89C1265.02,748.678 1291.82,761.972 1317.25,777.608C1341.38,792.633 1365.05,808.634 1389.12,823.984C1431.18,850.606 1475.8,890.053 1529.34,882.059C1539.29,880.573 1549.59,877.037 1556,868.902C1564.16,858.533 1562.47,842.802 1560.43,830.5C1497.49,775.215 1381.32,705.17 1302.31,677.477C1294.35,676.322 1278.66,672.232 1269.65,670.493C1224,661.147 1184.06,658.895 1137.88,658.941C1018.82,658.764 900.826,681.406 790.288,725.64C761.666,736.898 726.32,752.15 699.851,767.777C747.796,771.083 788.784,776.38 830.485,803.545C840.929,810.349 850.669,817.012 859.021,826.465C860.579,828.225 862.021,830.085 863.335,832.034C762.701,858.805 678.469,902.237 602.78,974.143C585.4,990.654 568.155,1006.43 552.708,1025.03C567.291,1017.58 581.47,1009.16 596.083,1001.98C637.778,981.536 681.385,965.249 726.273,953.355ZM1322.08,1113.89C1320.92,1114.32 1320.21,1114.42 1319.5,1115.36C1319.35,1117.37 1328.24,1115.59 1329.35,1115.35L1330.49,1115.1C1338.53,1115.03 1354.69,1112.51 1363.67,1111.74C1465.32,1102.97 1612.04,1120.51 1692.61,1187.57C1652.67,1135.85 1622.51,1105.65 1555.62,1087.58C1483.31,1068.04 1387.39,1076.63 1322.08,1113.89ZM1208.78,607.295C1212.37,607.037 1215.5,606.476 1219.04,605.899C1199.97,602.577 1132.11,601.828 1113.67,604.911C1125.4,607.739 1193.52,607.624 1208.78,607.295ZM1317.88,1102.66L1321.26,1105.33C1387.29,1071.94 1432.84,1060.55 1509.37,1069.66C1576,1077.59 1659.27,1098.43 1715.13,1137.93C1724.5,1144.56 1736.72,1159.86 1744.01,1169.05C1751.66,1141.48 1756.25,1116.05 1755.81,1087.26C1756.02,1083.5 1756.16,1079.63 1756.5,1075.89C1757.34,1080.09 1760.19,1093.55 1759.73,1097.45C1755.72,1110.83 1764.81,1139.8 1764.97,1154.44C1765.14,1170.09 1761.94,1187.25 1759.98,1202.79C1758.92,1211.14 1755.31,1217.78 1757.84,1225.81C1758.02,1229.18 1753.25,1244.55 1751.98,1248.85C1754.72,1245.1 1757.1,1241.17 1759.55,1237.24C1804.57,1166.25 1810.62,1075.13 1756.4,1007.12C1731.95,976.444 1684.63,937.957 1649.16,922.471C1646.11,921.321 1641.72,920.097 1638.51,919.088C1572.88,906.578 1519.55,945.106 1498.62,1006.42C1433.62,1019.79 1360.39,1049.95 1317.88,1102.66ZM1142.79,1232.83C1142.46,1229.33 1142.92,1229.1 1140.68,1230.88C1140.21,1231.49 1139.41,1231.89 1139.62,1232.69C1140.33,1233.07 1142.08,1232.85 1142.79,1232.83ZM1225.92,785.611C1209.69,809.652 1203.93,842.834 1209.36,871.283C1215.41,902.49 1233.76,929.95 1260.28,947.481C1303.26,976.325 1369.59,971.467 1403.24,930.429C1411.18,921.454 1417.59,911.234 1422.21,900.18L1411.55,895.124C1399,911.274 1386.91,921.16 1365.87,924.206C1327.22,929.798 1292.7,905.175 1288.06,865.943C1286.18,850.07 1289.33,839.577 1294.98,824.882C1281.65,816.179 1239.72,791.862 1225.92,785.611Z" style="fill-rule:nonzero;"/>
                </g>
                <g transform="matrix(0.299928,0,0,0.299928,3547.756443,8.839668)">
                    <path d="M624.178,1139.74C648.882,1117.53 687.818,1095.4 717.04,1080.85C886.294,996.602 1078.33,987.348 1263.05,1009.85C1288.07,1012.89 1320.68,1021.7 1345.32,1021.29C1269.19,1040.7 1203.91,1044.65 1155.88,1121.47C1135.73,1153.69 1126.12,1199.04 1135.68,1236.44C1135.9,1237.28 1136.13,1238.11 1136.37,1238.94C1137.6,1237.79 1141.94,1233.9 1142.79,1232.83C1146.45,1230.62 1151.07,1226.68 1154.74,1224.05C1212.24,1182.75 1281.1,1170.06 1349.52,1162.44C1357.43,1164.43 1354.34,1164.67 1348.99,1168.23C1312.19,1182.72 1271.92,1201.11 1243.14,1228.49C1198.72,1270.74 1182.73,1323.88 1180.85,1383.21C1066.03,1268.31 931.981,1185.19 771.014,1157.31C722.233,1148.86 673.782,1141.16 624.178,1139.74Z" style="fill:rgb(3,76,178);fill-rule:nonzero;"/>
                </g>
                <g transform="matrix(0.299928,0,0,0.299928,3547.756443,8.839668)">
                    <path d="M1594.52,960.309C1613.28,959.102 1629.3,963.705 1644.13,975.326C1637.45,978.445 1631.51,981.457 1624.99,984.837C1616.53,989.544 1608.39,994.816 1600.64,1000.62C1598.2,1002.44 1595.83,1004.32 1593.47,1006.23C1586,1012.3 1575.84,1021.17 1568.58,1027.79C1559.93,1009.16 1555.82,991.866 1568.82,973.28C1575.35,963.951 1583.77,961.847 1594.52,960.309Z" style="fill-rule:nonzero;"/>
                </g>
                <g transform="matrix(0.299928,0,0,0.299928,3547.756443,8.839668)">
                    <path d="M1022.94,613.181C1029.16,613.564 1038.68,611.391 1044.57,610.645C1056.53,609.13 1105.13,599.862 1115.67,602.911C1133.4,601.739 1153.52,603.624 1168.78,603.295C1172.37,603.037 1205.5,602.476 1219.04,605.899C1236.58,605.881 1255.84,608.827 1273.26,611.639C1283.09,614.965 1294.14,614.454 1304.62,616.579C1322.21,620.088 1339.63,624.088 1356.99,628.791C1454.42,655.187 1556.52,708.629 1607.88,799.092C1613.79,809.517 1634.66,856.865 1625.41,866.521C1608.43,859.584 1576.84,840.592 1560.43,830.5C1497.49,775.215 1381.32,705.17 1302.31,677.477C1296.76,674.12 1285.5,669.795 1279.06,667.138L1274.87,665.268C1202.96,634.863 1103.39,621.473 1026.07,616.093L1022.94,613.181Z" style="fill:rgb(3,76,178);fill-rule:nonzero;"/>
                </g>
                <g transform="matrix(0.299928,0,0,0.299928,3547.756443,8.839668)">
                    <path d="M1757.84,1225.81C1755.31,1217.78 1758.92,1211.14 1759.98,1202.79C1761.94,1187.25 1765.14,1170.09 1764.97,1154.44C1764.81,1139.8 1755.72,1110.83 1759.73,1097.45C1769.96,1130.97 1767.59,1191.92 1757.84,1225.81Z" style="fill-opacity:0.94;fill-rule:nonzero;"/>
                </g>
                <g transform="matrix(0.299928,0,0,0.299928,3547.756443,8.839668)">
                    <path d="M1143.59,735.168L1145.05,734.441C1150.54,731.652 1167.77,736.556 1171.32,740.037L1171.31,740.48C1170.25,740.798 1166.26,740.562 1164.62,740.673C1159.26,740.056 1149.31,736.567 1143.59,735.168Z" style="fill-opacity:0.94;fill-rule:nonzero;"/>
                </g>
                <g transform="matrix(0.299928,0,0,0.299928,3547.756443,8.839668)">
                    <path d="M1349.52,1162.44C1355.04,1161.42 1361.46,1161.07 1367.05,1160.64L1367.54,1162.73C1361.27,1164.41 1355.34,1166.48 1348.99,1168.23C1354.34,1164.67 1357.43,1164.43 1349.52,1162.44Z" style="fill-rule:nonzero;"/>
                </g>
                <g transform="matrix(0.299928,0,0,0.299928,3547.756443,8.839668)">
                    <path d="M1317.88,1102.66L1321.26,1105.33C1317.16,1108.5 1309.28,1113.68 1304.61,1116.98C1307.98,1113.03 1313.99,1105.96 1317.88,1102.66Z" style="fill-rule:nonzero;"/>
                </g>
                <g transform="matrix(0.299928,0,0,0.299928,3547.756443,8.839668)">
                    <path d="M1370.97,1010.59C1375.08,1009.89 1378.57,1010.16 1383.2,1009.35L1382.04,1012.01C1378.82,1012.83 1376.92,1013.45 1373.66,1013.67C1372.77,1012.63 1371.88,1011.61 1370.97,1010.59Z" style="fill-rule:nonzero;"/>
                </g>
                <g transform="matrix(0.299928,0,0,0.299928,3547.756443,8.839668)">
                    <path d="M1292.48,1004.22C1290.88,1002.4 1290.76,1003.43 1288.82,1002.55C1291.03,1000.09 1301.05,1001.35 1301.5,1002.57C1300.99,1003.35 1298.62,1004.25 1297.54,1004.97C1294.9,1004.98 1294.85,1005.07 1292.48,1004.22Z" style="fill-opacity:0.94;fill-rule:nonzero;"/>
                </g>
                <g transform="matrix(0.299928,0,0,0.299928,3547.756443,8.839668)">
                    <path d="M1367.05,1160.64C1371.47,1158.99 1381.24,1160.77 1367.54,1162.73L1367.05,1160.64Z" style="fill-rule:nonzero;"/>
                </g>
                <g transform="matrix(0.299928,0,0,0.299928,3547.756443,8.839668)">
                    <path d="M1322.08,1113.89C1325.55,1116.06 1326.22,1115.26 1330.49,1115.1L1329.35,1115.35C1328.24,1115.59 1319.35,1117.37 1319.5,1115.36C1320.21,1114.42 1320.92,1114.32 1322.08,1113.89Z" style="fill-rule:nonzero;"/>
                </g>
                <g transform="matrix(0.299928,0,0,0.299928,3547.756443,8.839668)">
                    <path d="M1755.81,1087.26C1755.82,1087.41 1753.9,1068.84 1756.5,1075.89C1756.16,1079.63 1756.02,1083.5 1755.81,1087.26Z" style="fill-rule:nonzero;"/>
                </g>
                <g transform="matrix(0.299928,0,0,0.299928,3547.756443,8.839668)">
                    <path d="M1189.03,749.444L1190.3,749.894C1191.31,750.224 1192.72,750.548 1193.31,751.514C1193.13,752.694 1188.77,752.41 1188.03,752.434L1189.03,749.444Z" style="fill-rule:nonzero;"/>
                </g>
                <g transform="matrix(0.299928,0,0,0.299928,3547.756443,8.839668)">
                    <path d="M1026.07,616.093C1022.01,615.91 1012.82,615.813 1022.94,613.181L1026.07,616.093Z" style="fill-rule:nonzero;"/>
                </g>
                <g transform="matrix(0.299928,0,0,0.299928,3547.756443,8.839668)">
                    <path d="M1140.68,1230.88C1142.92,1229.1 1142.46,1229.33 1142.79,1232.83C1142.08,1232.85 1140.33,1233.07 1139.62,1232.69C1139.41,1231.89 1140.21,1231.49 1140.68,1230.88Z" style="fill-opacity:0.54;fill-rule:nonzero;"/>
                </g>
                <g transform="matrix(0.299928,0,0,0.299928,3547.756443,8.839668)">
                    <path d="M1383.2,1009.35C1384.15,1009.21 1386.6,1008.64 1387.49,1009.28C1387.94,1010.72 1383.02,1011.69 1382.04,1012.01L1383.2,1009.35Z" style="fill-rule:nonzero;"/>
                </g>
                <g transform="matrix(0.299928,0,0,0.299928,3547.756443,8.839668)">
                    <path d="M668.637,513.653C716.209,496.682 764.896,483.019 814.352,472.763C944.942,446.325 1097.7,443.743 1227.39,476.64C1281.42,490.344 1341.08,515.338 1391.29,539.718C1392.16,540.142 1393.03,540.581 1393.88,541.038L1391.49,542.422C1364.75,533.94 1339.12,528.142 1311.89,521.431L1308.91,520.289C1303.59,519.904 1275.95,513.561 1268.35,512.075C1237.71,506.08 1208.53,500.327 1177.56,495.963C1115.73,487.252 1050.55,477.752 988.111,476.353C910.183,474.606 823.713,481.879 747.327,497.164C732.053,500.221 683.061,510.522 670.461,515.608L668.637,513.653Z" style="fill-rule:nonzero;"/>
                </g>
                <g transform="matrix(0.299928,0,0,0.299928,3547.756443,8.839668)">
                    <path d="M557.35,1300.86C757.566,1308.66 930.269,1358.95 1096.7,1473.13C1080.83,1467.19 1065.6,1459.9 1049.93,1453.36L950.734,1412.64C816.337,1358.54 677.882,1316.63 532.644,1304.84C522.777,1304.04 513.109,1302.93 503.173,1302.81L503.076,1301.19C520.457,1300.32 540.006,1301.95 557.35,1300.86Z" style="fill-rule:nonzero;"/>
                </g>
                <g transform="matrix(0.299928,0,0,0.299928,3547.756443,8.839668)">
                    <path d="M1510.69,639.394C1585.17,681.095 1679.96,765.941 1685.97,859.069C1686.42,866.016 1685.02,874.673 1684.04,881.649C1688.33,885.121 1692.34,888.383 1696.85,891.608L1694.02,891.944C1691.56,890.656 1682.28,884.756 1682.55,881.512C1690.07,793.443 1615.99,715.955 1550,667.543C1542.42,661.982 1513.28,645.191 1510.69,639.394Z" style="fill-opacity:0.9;fill-rule:nonzero;"/>
                </g>
                <g transform="matrix(0.299928,0,0,0.299928,3547.756443,8.839668)">
                    <path d="M489.468,1300.15C500.365,1299.81 548.887,1299.57 557.35,1300.86C540.006,1301.95 520.457,1300.32 503.076,1301.19C497.792,1300.93 494.696,1301.04 489.468,1300.15Z" style="fill-rule:nonzero;"/>
                </g>
                <g transform="matrix(0.299928,0,0,0.299928,3547.756443,8.839668)">
                    <path d="M478.909,1301.14C478.492,1300.93 478.076,1300.72 477.659,1300.52C478.79,1299.41 487.653,1300.06 489.468,1300.15C494.696,1301.04 497.792,1300.93 503.076,1301.19L503.173,1302.81C498.605,1302.43 494.025,1302.21 489.546,1301.83C487.4,1301.47 485.853,1301.15 483.69,1301.05C482.097,1301.1 480.503,1301.13 478.909,1301.14Z" style="fill-rule:nonzero;"/>
                </g>
                <g transform="matrix(0.299928,0,0,0.299928,3547.756443,8.839668)">
                    <path d="M903.051,597.089C905.357,597.014 907.664,596.996 909.969,596.904L910.752,597.857L911.026,597.09L911.688,597.658L911.846,597.467C912.103,599.133 903.878,599.684 902.402,600.008L903.051,597.089Z" style="fill-rule:nonzero;"/>
                </g>
                <g transform="matrix(0.299928,0,0,0.299928,3547.756443,8.839668)">
                    <path d="M1335.64,1439.33C1335.82,1442.28 1336.68,1455.72 1335.36,1457.34C1335.03,1457.35 1334.74,1457.11 1334.39,1456.92C1335.13,1452.14 1334.51,1441.51 1335.64,1439.33Z" style="fill-rule:nonzero;"/>
                </g>
                <g transform="matrix(0.299928,0,0,0.299928,3547.756443,8.839668)">
                    <path d="M219.044,1077.99C218.304,1079.25 213.414,1087.37 212.447,1087.4C211.929,1086.92 212.047,1086.48 212.228,1085.8L213.091,1086.23L213.312,1086.01L212.671,1084.85C214.297,1082.35 215.64,1079.8 217.285,1077.37L219.044,1077.99Z" style="fill-rule:nonzero;"/>
                </g>
                <g transform="matrix(0.299928,0,0,0.299928,3547.756443,8.839668)">
                    <path d="M667.194,516.335C666.177,516.599 656.174,520.316 656.765,517.956L657.79,518.091L657.317,518.094L657.539,518.065L657.945,517.185C660.42,516.272 662.953,515.499 665.439,514.607L667.194,516.335Z" style="fill-rule:nonzero;"/>
                </g>
                <g transform="matrix(0.299928,0,0,0.299928,3547.756443,8.839668)">
                    <path d="M349.36,781.212L351.253,782.358C348.882,784.563 346.62,786.272 344.147,788.325L342.528,787.426C344.883,785.441 347.162,783.369 349.36,781.212Z" style="fill-rule:nonzero;"/>
                </g>
                <g transform="matrix(0.299928,0,0,0.299928,3547.756443,8.839668)">
                    <path d="M349.36,781.212C351.535,779.368 353.664,777.644 355.838,775.755L356.945,777.581C354.958,779.443 353.396,780.696 351.253,782.358L349.36,781.212Z" style="fill-rule:nonzero;"/>
                </g>
                <g transform="matrix(0.299928,0,0,0.299928,3547.756443,8.839668)">
                    <path d="M342.528,787.426L344.147,788.325C343.13,789.286 339.265,793.098 337.854,792.489C337.388,791.129 341.536,788.201 342.528,787.426Z" style="fill-rule:nonzero;"/>
                </g>
                <g transform="matrix(0.299928,0,0,0.299928,3547.756443,8.839668)">
                    <path d="M1393.88,541.038C1395.36,541.753 1399.05,543.253 1400,544.375L1399.98,544.47C1398.95,544.967 1393.38,542.861 1391.49,542.422L1393.88,541.038Z" style="fill-opacity:0.87;fill-rule:nonzero;"/>
                </g>
                <g transform="matrix(0.299928,0,0,0.299928,3547.756443,8.839668)">
                    <path d="M665.439,514.607C666.507,514.295 667.573,513.977 668.637,513.653L670.461,515.608C669.346,515.827 668.3,516.077 667.194,516.335L665.439,514.607Z" style="fill-rule:nonzero;"/>
                </g>
            </g>
        </g>
    </g>
</svg>
