<?xml version="1.0" encoding="UTF-8" standalone="no"?>
<!DOCTYPE svg PUBLIC "-//W3C//DTD SVG 1.1//EN" "http://www.w3.org/Graphics/SVG/1.1/DTD/svg11.dtd">
<svg width="100%" height="100%" viewBox="0 0 480 488" version="1.1" xmlns="http://www.w3.org/2000/svg" xmlns:xlink="http://www.w3.org/1999/xlink" xml:space="preserve" xmlns:serif="http://www.serif.com/" style="fill-rule:evenodd;clip-rule:evenodd;stroke-linejoin:round;stroke-miterlimit:2;">
    <g transform="matrix(1,0,0,1,-13.615793,-9.188804)">
        <g transform="matrix(1,0,0,1,-7768.404239,0)">
            <g transform="matrix(1.976455,0,0,1.976455,7000.953217,-144.697179)">
                <path d="M482.92,77.99C482.62,78.72 482.27,79.44 481.88,80.14C478.98,78.72 480.23,77.44 482.92,77.99Z" style="fill-rule:nonzero;"/>
                <path d="M482.92,77.99C491.3,77.26 498.43,80.17 506.18,82.75L506.54,82.94C512.18,86.21 515.99,91.23 521.39,94.61C523.24,95.72 523.56,94.21 524.43,92.92L525.02,92.43C531.36,91.82 539.95,93 546.12,94.92L547.2,96.44C543.64,109.4 537.87,121.96 535.22,135.11L535.07,135.59C533.64,138.22 532.78,141.02 531.89,143.86C530.91,143.61 530.24,143.95 529.87,144.87C528.62,145.17 527.38,145.5 526.15,145.89C526.14,144.9 525.84,143.93 525.27,142.99C529.29,129.23 533.92,116.05 537.84,102.33C527.11,99.52 512.37,101.67 502.64,106.95L501.98,107.17C495.09,109.19 485.49,114.83 480.51,120.04L480.18,120.28C475.57,122.59 473.36,126.5 470.77,130.7C467.53,136.08 464.11,139.3 459.79,143.78C455.6,147.79 452.52,152.91 448.88,157.43L448.53,157.93C444.47,164.42 439.48,169.33 433.51,174.03L433.17,174.27C431.57,175.12 430.06,176.08 428.56,177.1L428.21,177.27C423.08,179 417.72,180.06 412.66,181.95L411.98,182.17C405.81,181.36 411.11,185.63 412.85,187.23C422.61,195.86 433.95,198.37 446.03,201.98C451.59,202.04 457.6,198.02 462.33,195.34C489.91,184.46 519.95,178.05 549.63,180.43C563.97,181.39 577.45,185.82 590.99,190.07C601.45,188.46 612.09,181.77 619.96,174.79C621.68,173.02 623.43,171.21 624.86,169.19C620.51,167.84 615.49,166.66 610.96,166.22L610.34,166.07C607.99,164.67 605.58,163.64 602.86,163.24L602.41,163.08C596.35,158.98 590.86,155.38 587.19,148.8C579.91,136.15 575.25,122.27 563.03,112.96C561.46,112.03 559.36,109.26 557.42,110.29C552.61,123.37 547.01,136.17 542.22,149.28C541.32,149.48 540.49,149.79 539.7,150.2C539.08,149.49 538.46,148.78 537.84,148.07C538.45,146.66 538.22,145.63 537.16,144.99C543.27,129.69 548.36,113.62 555.13,98.66L555.82,98.36C563.79,101.34 572.81,108.24 577.92,115.12C587.45,125.59 590.05,139.26 599.22,149.79C610.86,159.19 623.03,158.72 637.1,160.34L637.57,160.87C633.1,180.93 612.96,190.87 595.66,197.97L594.97,198.14C592.86,198.65 588.31,197.95 589.52,201.35C590.35,205.76 583.13,206.7 588.07,210.46L588.26,210.81C589.01,213.39 589.68,215.94 590.95,218.33L591.11,219.04C591.46,223.44 593.67,227.35 594.31,231.74C593.48,232.6 592.99,233.64 592.86,234.85C591.37,235.81 589.93,236.81 588.64,238.02L588.02,238.21C582.96,238.4 583.43,241.35 584.67,245.25L585.01,246.07C584.34,248.83 582.42,250.33 584.83,252.78C583.74,253.73 583.85,254.64 585.18,255.51C579.91,262.21 583.05,266.74 584.86,273.97C583.93,274.37 583.66,275.09 584.06,276.14L582.84,277.42L582.43,277.85C579.99,280.51 577.08,282.79 573.87,284.43L573.18,284.66C566.72,286.37 560.51,282.74 554.42,284.41C551.1,289.63 547.01,298.25 545.24,304.15L545.09,304.59C544.44,305.5 543.76,306.4 543.04,307.27L540.96,307.06C539.71,304.2 538.67,301.37 537.06,298.67L536.91,297.95C536.19,293.62 534.23,288.38 531.96,284.62L531.77,284.08C531.09,281.17 530.64,275.73 527.36,274.64C524,272.83 520.51,271.36 516.96,269.98L516.16,269.62C513.26,268.12 510.39,267.85 508.67,264.76L508.64,264.24C510.78,258.14 509.8,252.27 510.01,245.97C511.08,246.61 512.16,247.22 513.23,247.83C515.46,251.31 516.75,255.49 519.25,258.75C522.27,260.93 526.38,263.12 530.07,263.77L530.62,263.96C533.88,266.36 537.64,267.47 541.17,269.33L541.67,269.81C543.49,272.67 545,276.14 547.22,278.7C549.07,279.13 548.9,275.55 549.03,274.42C550.17,274.27 551.18,273.79 552.04,272.98L552.71,273.01C557.46,275.11 562.86,277.23 567.98,278.03C571.54,277.32 575.18,274.39 577.92,272.05C577.12,269.78 576.01,267.73 574.9,265.62L574.8,265.09C575.83,259.8 570.03,263.87 567.77,259.04C567.96,258.04 568.02,257.04 567.95,256.05C573.47,255.72 577.82,257.78 579.88,251.11C575.09,248.84 570.08,248.7 564.98,249.98C564.32,248.43 563.67,248.44 563.04,250.02L562.1,249.95C561.06,249.66 560.35,249.99 559.97,250.94L558.7,251.65L557.88,252.1C557.24,249.96 557.29,250.22 559.03,248.89C561.72,248.37 564.17,247.64 566.38,245.95L566.92,245.76C570.56,244.97 574.06,244 577.81,243.69C579.6,235.52 574.54,237.09 568.89,235.45L568.27,235.24C566.68,234.67 566.18,233.88 564.6,235.02L564.12,235.25C561.79,236.03 559.91,237.46 557.92,238.84C557.85,237.81 557.77,236.78 557.69,235.76C560.03,231.58 563.81,228.5 567.92,226.18C568.59,226.61 569.26,227.01 569.96,227.37C567.89,233.02 570.94,231.68 574.93,231C575.28,231.95 575.99,232.28 577.05,231.99C580.03,231.62 585.67,233.09 587.78,230.75C586.83,225.89 585.49,219.98 583.08,215.64L582.87,214.96C582.56,212.57 581.58,211.23 579.99,209.52L579.74,209.14C576.54,200.24 568.96,213.45 564.13,214.32L563.07,212.7C562.57,210.88 561.57,211.27 560.03,210.82L559.18,210.59C555.31,209.53 551.48,208.55 547.73,207.09L547.73,204.92C550.26,203.18 553.09,202.81 555.91,201.75C553.14,198.37 549.13,197.47 545.02,198.78C544.59,198.17 544.17,197.56 543.74,196.94C544.22,196.42 544.7,195.9 545.18,195.38L545.93,194.9C550.76,192.01 553.18,193.02 557.99,195.08L558.8,195.44C560.26,196.11 561.72,196.75 563.19,197.39L563.79,197.65C567.38,198.88 571.77,202.14 575.33,199.22L576.98,198.93C577.97,201.2 584.35,202.62 582.39,198.79L582.22,198.01C583.65,191.78 572.22,190.73 568.04,190.11L567.34,189.93C566.26,189.52 565.15,189.15 564.02,188.82L563.19,188.57C551.46,186.85 538.56,184.8 526.79,186.57L525.8,186.82C525.34,185.77 524.4,185.48 522.97,185.93C517.6,187.49 512.02,188.01 506.74,189.75L504.94,189.95C497.96,191.02 490.24,192.75 483.75,195.56L482.99,195.89C480.29,196.29 478.06,197.05 475.99,198.89C484.38,198.39 492.67,196.01 501.08,195.95C501.41,196.74 501.8,197.5 502.26,198.24C496.45,203.5 488.92,207.17 481.83,210.4L481.26,210.73C476.74,213.87 473.51,218.08 471.23,223.06C476.47,219.96 482.76,217.93 487.36,213.99L487.99,213.79C496.34,211.2 505.97,205.84 512.49,199.98L512.83,199.73C516.26,197.79 518.8,194.69 522.21,192.68L522.87,192.42C524.83,192.06 526.88,191.93 528.87,191.77C529.55,192.25 530.26,192.69 530.99,193.09C527.52,198.07 523.79,201.4 519.31,205.31C518.57,210.44 519.15,215.85 519.05,221.04C518.22,221.2 517.44,221.6 516.73,222.24L514.86,222.26L514.41,222.16C512.29,220.86 510.21,219.5 508.36,217.85L507.95,217.08C507.5,215.33 508.79,213.57 506.11,214.15C501.81,216.64 497.06,219.03 493.21,222.17C495.48,228.1 499.33,231.05 505.56,232.11C505.94,232.77 506.36,233.4 506.83,234C506.32,235.41 505.81,236.83 505.3,238.24C503.92,238.17 503.14,238.79 502.94,240.1C500.44,239.95 498.1,239.28 495.81,238.27L495.44,238.08C493.75,236.94 493.76,237.03 492.27,238.27C489.11,241.42 485.64,244.45 482.91,247.99C483.72,249.37 486.57,249.48 488.05,249.78L488.67,249.94C489.47,250.23 490.28,250.5 491.1,250.75L491.59,250.96C493.85,252.59 496.35,253.36 499,254.06L499.78,254.45L500.93,255.05C500.81,256.52 501.47,257.23 502.89,257.19C502.96,258.8 503.01,260.42 503.06,262.03C502.21,262.21 501.44,262.64 500.74,263.34C494.51,261.54 488.44,257.86 482.02,257.14L481.33,256.99C478.75,255.13 476.22,254.33 473.08,254.07L472.37,253.85C467.09,250.75 469.28,257.78 469.27,260.67C478.83,262.84 487.64,267.51 497.08,269.77L497.61,269.95C501.04,272.29 505.01,273.97 509.08,274.76L509.61,274.95C511.65,276.41 513.64,277.41 516.03,278.14L516.83,278.42C518.69,279.28 520.48,280.17 522.16,281.37L522.61,281.8L523.58,283.1L523.95,283.95C527.77,294.92 531.22,306.2 535.64,316.93L536.02,317.88L536.1,319.92C535.03,320 533.96,320.09 532.89,320.17C531.79,319.37 530.69,318.57 529.58,317.79L528.9,317.36L527.98,316.85L527.06,316.5L526.03,316.25L525.33,315.85C523.9,314.6 522.64,313.88 520.85,313.24L520.47,313.02C516.43,309.8 509.97,306.48 504.97,305.22L504.34,305.03C498,301.05 490.23,298.73 483.03,296.83L482.19,296.58C469.42,293.63 456.11,291.53 442.98,291.98C442.99,291.02 443.02,290.06 443.05,289.1C444.64,288.21 446.05,287.12 447.46,285.97L447.85,285.75C450.75,284.31 455.17,282.79 456.86,279.95L457.46,278.22C458.6,272.8 459.1,267.35 459.48,261.84C455.66,265.49 453.92,271.16 449.79,274.79C444.5,280.79 437.72,282.98 430.67,286.07L430.07,286.2C428.05,286.09 426.39,285.84 424.62,287.06L424.08,287.23C418.59,287.46 413.3,285.89 407.87,286.21L407.39,286.13C406.58,285.67 405.78,285.2 404.99,284.72L404.79,282.9C406.74,281.31 408.62,279.66 410.48,277.97L410.83,277.73C416.35,275.18 422.18,263.96 421.86,258.03L422.04,257.32C423.12,254.54 423.98,251.66 424.92,248.82L425.47,248.09C429.8,242.7 435.62,241.14 441.33,237.95L441.96,237.78C446.39,238.6 444.53,235.73 445.28,232.74C445.29,232.58 445.31,232.41 445.32,232.25C445.26,230.16 445.84,229.14 447.17,227.6L447.56,227.14C449.48,224.89 451.81,222.98 453.64,220.65C454.17,217.52 454.59,212.66 453.32,209.79C450.24,209.4 447.11,209.37 444.02,208.85L443.17,208.62C439.45,207.72 435.68,207.06 432.01,205.94L431.17,205.64C416.93,200.91 399.01,190.87 395.23,175.12C396.2,175.32 396.8,174.95 397.03,173.99C404.72,172.41 412.1,173.62 419.61,170.51C434.02,166.4 440.93,152.42 449.42,141.4C456.22,132.14 464.32,123.85 471.52,115.02L471.88,114.71C480.02,107.7 488.67,103.2 498.01,98.11C483.26,98.41 471.66,104.29 461,114.11L459.11,114.02C459.05,112 458.98,110 458.78,107.99C453.12,114.38 454.49,123.05 446.01,128.18C445.04,128.03 444.06,127.98 443.1,128.05C442.81,125.73 443.74,122.48 441.43,121.09C440.16,126.21 438.52,131.02 435.18,135.2C429.26,142.91 418.84,142.58 410.08,142C409.69,141.36 409.3,140.72 408.92,140.07C414.99,137.71 416.2,130.66 418.33,125.33C421.59,121.62 426.69,119.69 430.01,116.11C427.69,116.07 425.46,116.54 423.2,117C422.58,116.13 421.85,115.41 421,114.84C424.56,108.05 429.12,103.22 435.41,98.88L435.83,98.74C440.96,98.02 445.85,96.31 451,95.6C448.5,94.36 445.85,94.01 443.1,93.72C443.04,92.76 442.92,91.82 442.75,90.89C455.65,82.73 471.6,78.21 485.88,85.99C485.02,83.68 483.54,81.9 481.88,80.14C482.27,79.44 482.62,78.72 482.92,77.99Z" style="fill:rgb(3,76,178);fill-rule:nonzero;"/>
                <path d="M411.27,91.27C411.75,91.76 411.75,91.76 411.27,91.27Z" style="fill-rule:nonzero;"/>
                <path d="M442.75,90.89C442.92,91.82 443.04,92.76 443.1,93.72C439.7,93.7 438.97,91.34 442.75,90.89Z" style="fill-rule:nonzero;"/>
                <path d="M525.02,92.43L524.43,92.92L525.02,92.43Z" style="fill-rule:nonzero;"/>
                <path d="M546.12,94.92C547.86,94.62 548.22,95.13 547.2,96.44L546.12,94.92Z" style="fill-rule:nonzero;"/>
                <path d="M555.82,98.36L555.13,98.66L555.82,98.36Z" style="fill-rule:nonzero;"/>
                <path d="M527.88,110.19C527.03,122.37 522.69,134.63 521.76,146.88C520.84,150.16 518.63,152.35 518.91,156C518.45,163.58 526.77,168.72 533.66,166.63C540.66,165.21 541.58,155.38 544.74,149.83L544.96,149.47C551.3,141.36 553.88,130.3 560.18,122.18C568.2,127.42 572.72,139.28 578.04,146.47L578.25,146.84C581.96,157.36 594.94,169 605.96,170.9L606.68,171.04C610.87,173.41 615.34,173.88 619.96,174.79C612.09,181.77 601.45,188.46 590.99,190.07C577.45,185.82 563.97,181.39 549.63,180.43C519.95,178.05 489.91,184.46 462.33,195.34C457.6,198.02 451.59,202.04 446.03,201.98C433.95,198.37 422.61,195.86 412.85,187.23L414.99,186.98L416.96,187.05C433.06,184.93 446.02,175.15 454.88,161.85C459.77,156.86 460.05,150.4 459.79,143.78C464.11,139.3 467.53,136.08 470.77,130.7C467.23,140.88 466.31,154.05 470.75,164.04C470.85,162.7 470.93,161.36 470.98,160.02C471.19,159.13 471.29,158.22 471.28,157.27C472.68,150.23 472.53,143.37 475.69,136.66C482.79,126.55 492.16,121.13 502.41,114.93L502.88,114.77C505.57,114.35 508.01,113.33 510.33,111.93L510.96,111.79C516.79,111.2 521.82,109.01 527.88,110.19Z" style="fill-rule:nonzero;"/>
                <path d="M459.11,114.02L461,114.11C460.7,116.28 458.44,116.64 459.11,114.02Z" style="fill-rule:nonzero;"/>
                <path d="M421,114.84C421.85,115.41 422.58,116.13 423.2,117C420.41,118.97 418.96,117.66 421,114.84Z" style="fill-rule:nonzero;"/>
                <path d="M443.1,128.05C444.06,127.98 445.04,128.03 446.01,128.18C444.91,130.72 442.18,132.5 443.1,128.05Z" style="fill-rule:nonzero;"/>
                <path d="M403.95,140.21C405.61,140.08 407.26,140.06 408.92,140.07C409.3,140.72 409.69,141.36 410.08,142C407.89,141.78 405.81,141.46 403.95,140.21Z" style="fill-rule:nonzero;"/>
                <path d="M525.27,142.99C525.84,143.93 526.14,144.9 526.15,145.89C522.59,148.27 524.25,144.58 525.27,142.99Z" style="fill-rule:nonzero;"/>
                <path d="M459.79,143.78C460.05,150.4 459.77,156.86 454.88,161.85C446.02,175.15 433.06,184.93 416.96,187.05C416.38,185.46 415.72,185.43 414.99,186.98L412.85,187.23C411.11,185.63 405.81,181.36 411.98,182.17C412.4,182.36 412.63,182.29 412.66,181.95C417.72,180.06 423.08,179 428.21,177.27C428.33,177.23 428.44,177.17 428.56,177.1C430.06,176.08 431.57,175.12 433.17,174.27C433.3,174.2 433.41,174.12 433.51,174.03C439.48,169.33 444.47,164.42 448.53,157.93L448.88,157.43C452.52,152.91 455.6,147.79 459.79,143.78Z" style="fill:white;fill-rule:nonzero;"/>
                <path d="M531.89,143.86C531.74,144.91 531.06,145.25 529.87,144.87C530.24,143.95 530.91,143.61 531.89,143.86Z" style="fill-rule:nonzero;"/>
                <path d="M537.16,144.99C538.22,145.63 538.45,146.66 537.84,148.07C536.7,147.26 536.48,146.24 537.16,144.99Z" style="fill-rule:nonzero;"/>
                <path d="M542.22,149.28C542.07,151.28 540.39,153.38 539.7,150.2C540.49,149.79 541.32,149.48 542.22,149.28Z" style="fill-rule:nonzero;"/>
                <path d="M527.84,151.31L527.15,151.62L527.84,151.31Z" style="fill-rule:nonzero;"/>
                <path d="M527.84,151.31C530.71,150.9 532.69,150.32 534.4,153.17L534.74,153.74C535.14,154.55 535.38,155.37 535.45,156.22L535.42,156.88L535.03,158.95L534.88,159.8L532.89,160.52L532.29,160.77C530.11,161.87 529.86,162.12 527.72,160.74L527.2,160.39C524.04,158.93 524.05,153.14 527.15,151.62L527.84,151.31Z" style="fill:rgb(3,76,178);fill-rule:nonzero;"/>
                <path d="M534.4,153.17L534.74,153.74L534.4,153.17Z" style="fill-rule:nonzero;"/>
                <path d="M535.45,156.22L535.42,156.88L535.45,156.22Z" style="fill-rule:nonzero;"/>
                <path d="M448.88,157.43L448.53,157.93L448.88,157.43Z" style="fill-rule:nonzero;"/>
                <path d="M527.2,160.39L527.72,160.74L527.2,160.39Z" style="fill-rule:nonzero;"/>
                <path d="M532.89,160.52L532.29,160.77L532.89,160.52Z" style="fill-rule:nonzero;"/>
                <path d="M637.1,160.34L637.57,160.87L637.1,160.34Z" style="fill-rule:nonzero;"/>
                <path d="M397.03,173.99C396.8,174.95 396.2,175.32 395.23,175.12C395.01,174.12 395.61,173.74 397.03,173.99Z" style="fill-rule:nonzero;"/>
                <path d="M522.97,185.93C524.4,185.48 525.34,185.77 525.8,186.82L525.14,187.41C524.17,187.2 523.45,186.7 522.97,185.93Z" style="fill-rule:nonzero;"/>
                <path d="M530.99,193.09C530.26,192.69 529.55,192.25 528.87,191.77C530.51,190.16 533.03,190.76 530.99,193.09Z" style="fill-rule:nonzero;"/>
                <path d="M522.87,192.42L522.21,192.68L522.87,192.42Z" style="fill-rule:nonzero;"/>
                <path d="M501.08,195.95C503.75,195.53 504.88,196.55 502.26,198.24C501.8,197.5 501.41,196.74 501.08,195.95Z" style="fill-rule:nonzero;"/>
                <path d="M543.74,196.94C544.17,197.56 544.59,198.17 545.02,198.78C542.22,198.86 535.27,203.71 540.11,197.98L540.95,197.75C541.89,197.49 542.82,197.22 543.74,196.94Z" style="fill-rule:nonzero;"/>
                <path d="M563.19,197.39L563.79,197.65L563.19,197.39Z" style="fill-rule:nonzero;"/>
                <path d="M576.98,198.93L575.33,199.22C574.9,196.9 577.41,196.09 576.98,198.93Z" style="fill-rule:nonzero;"/>
                <path d="M547.73,204.92L547.73,207.09C544,208.01 544.01,203.97 547.73,204.92Z" style="fill-rule:nonzero;"/>
                <path d="M481.83,210.4L481.26,210.73L481.83,210.4Z" style="fill-rule:nonzero;"/>
                <path d="M563.07,212.7L564.13,214.32C562.58,215.2 561.07,216.12 559.62,217.16L559.01,217.28C557.02,215.56 561.84,213.26 563.07,212.7Z" style="fill-rule:nonzero;"/>
                <path d="M524.04,218.32C525.6,218 526.36,219.68 526.96,220.81L525.22,221.12L524.27,219.99L524.04,218.32Z" style="fill-rule:nonzero;"/>
                <path d="M519.05,221.04C519.32,222.92 518.09,223.7 516.73,222.24C517.44,221.6 518.22,221.2 519.05,221.04Z" style="fill-rule:nonzero;"/>
                <path d="M525.22,221.12L526.96,220.81C529.01,222.15 531.06,223.47 533.17,224.72L533.52,224.96C535.64,226.7 537.82,228.32 540.06,229.9C539.81,231.43 540.42,232.2 541.89,232.21C542.09,237.12 542.01,242.06 541.97,246.98L539.8,247.3C538.94,245.16 538.16,243 537.39,240.83L537.1,239.99C535.96,229.42 522.8,233.62 525.22,221.12Z" style="fill:rgb(3,76,178);fill-rule:nonzero;"/>
                <path d="M569.16,225.18L570.04,224.72C572.83,225.29 571.7,226.35 569.96,227.37C569.26,227.01 568.59,226.61 567.92,226.18L569.16,225.18Z" style="fill-rule:nonzero;"/>
                <path d="M447.56,227.14L447.17,227.6L447.56,227.14Z" style="fill-rule:nonzero;"/>
                <path d="M455.2,229.28C458.29,230.8 461.2,233.09 463.08,236C459.68,240.6 459.31,241.03 455.17,236.84C450.78,233.48 451.34,232.79 455.2,229.28Z" style="fill:white;fill-rule:nonzero;"/>
                <path d="M540.06,229.9C541.4,230.27 542.01,231.05 541.89,232.21C540.42,232.2 539.81,231.43 540.06,229.9Z" style="fill-rule:nonzero;"/>
                <path d="M506.83,234C506.36,233.4 505.94,232.77 505.56,232.11C508.17,229.42 508.24,232.05 506.83,234Z" style="fill-rule:nonzero;"/>
                <path d="M574.93,231C575.98,230.63 576.69,230.96 577.05,231.99C575.99,232.28 575.28,231.95 574.93,231Z" style="fill-rule:nonzero;"/>
                <path d="M445.32,232.25C445.31,232.41 445.29,232.58 445.28,232.74L445.32,232.25Z" style="fill-rule:nonzero;"/>
                <path d="M594.31,231.74C595.73,233.58 594.95,234.5 592.86,234.85C592.99,233.64 593.48,232.6 594.31,231.74Z" style="fill-rule:nonzero;"/>
                <path d="M568.27,235.24L568.89,235.45L568.27,235.24Z" style="fill-rule:nonzero;"/>
                <path d="M557.69,235.76C557.77,236.78 557.85,237.81 557.92,238.84C556.94,239.82 556,240.83 555.1,241.88L553.82,242.91L553.02,242.8L553.43,242.06C554.24,240.68 555.09,239.31 555.94,237.96L556.39,237.26C556.82,236.76 557.26,236.26 557.69,235.76Z" style="fill-rule:nonzero;"/>
                <path d="M505.3,238.24C505.03,239.77 504.24,240.38 502.94,240.1C503.14,238.79 503.92,238.17 505.3,238.24Z" style="fill-rule:nonzero;"/>
                <path d="M510.21,241.98C511.51,243.79 512.36,245.79 513.23,247.83C512.16,247.22 511.08,246.61 510.01,245.97C510.03,244.65 510.1,243.31 510.21,241.98Z" style="fill-rule:nonzero;"/>
                <path d="M452.78,245.62C448.44,247.74 444.29,249.89 440.9,253.42C440.81,253.53 440.73,253.65 440.65,253.77C436.4,260.52 435.59,268.23 432.2,275.24C429.68,278.08 424.76,279.26 421.08,278.94C423.06,275.07 426.03,271.96 427.6,267.81C428.88,270.04 430.16,267.43 427.96,267C429.4,262.54 430.46,257.46 433.04,253.56C433.11,253.43 433.18,253.3 433.23,253.16C434.14,249.29 437.27,247.06 440.97,246.16C441.38,246.36 441.6,246.28 441.64,245.93C445,244.1 450.38,240.61 452.78,245.62Z" style="fill:white;fill-rule:nonzero;"/>
                <path d="M559.03,248.89C557.29,250.22 557.24,249.96 557.88,252.1C552.69,253.83 556.42,250.6 556.72,247.89L556.99,247.05C559.81,245.7 558.65,246.51 559.03,248.89Z" style="fill-rule:nonzero;"/>
                <path d="M539.8,247.3L541.97,246.98C541.76,249.87 542.63,256.14 540.35,249.85L540.01,249.02L539.8,247.3Z" style="fill-rule:nonzero;"/>
                <path d="M424.93,248.32L425.47,248.09L424.92,248.82L424.93,248.32Z" style="fill-rule:nonzero;"/>
                <path d="M564.98,249.98L563.04,250.02C563.67,248.44 564.32,248.43 564.98,249.98Z" style="fill-rule:nonzero;"/>
                <path d="M562.1,249.95C561.75,250.96 561.04,251.29 559.97,250.94C560.35,249.99 561.06,249.66 562.1,249.95Z" style="fill-rule:nonzero;"/>
                <path d="M584.83,252.78C585.85,253.71 585.96,254.62 585.18,255.51C583.85,254.64 583.74,253.73 584.83,252.78Z" style="fill-rule:nonzero;"/>
                <path d="M500.93,255.05C502.35,255.25 503.01,255.97 502.89,257.19C501.47,257.23 500.81,256.52 500.93,255.05Z" style="fill-rule:nonzero;"/>
                <path d="M567.95,256.05C568.02,257.04 567.96,258.04 567.77,259.04C565.34,257.82 563.49,255.27 567.95,256.05Z" style="fill-rule:nonzero;"/>
                <path d="M503.06,262.03C503.35,263.88 502.15,264.67 500.74,263.34C501.44,262.64 502.21,262.21 503.06,262.03Z" style="fill-rule:nonzero;"/>
                <path d="M541.17,269.33L541.67,269.81L541.17,269.33Z" style="fill-rule:nonzero;"/>
                <path d="M552.04,272.98C551.18,273.79 550.17,274.27 549.03,274.42C546.27,271.04 550.21,272.03 552.04,272.98Z" style="fill-rule:nonzero;"/>
                <path d="M584.86,273.97C585.31,274.95 585.05,275.68 584.06,276.14C583.66,275.09 583.93,274.37 584.86,273.97Z" style="fill-rule:nonzero;"/>
                <path d="M582.84,277.42L582.43,277.85L582.84,277.42Z" style="fill-rule:nonzero;"/>
                <path d="M522.16,281.37L522.61,281.8L522.16,281.37Z" style="fill-rule:nonzero;"/>
                <path d="M404.79,282.9L404.99,284.72C401.32,286.32 401.21,282.83 404.79,282.9Z" style="fill-rule:nonzero;"/>
                <path d="M573.87,284.43L573.18,284.66L573.87,284.43Z" style="fill-rule:nonzero;"/>
                <path d="M515.75,288.14C515.82,288.29 515.9,288.42 515.98,288.56C518.21,291.76 518.71,292.94 516.25,296.25C512.9,301.04 506.43,295.23 508.28,290.76C508.3,290.61 508.33,290.46 508.36,290.31C508.15,285.77 514.27,283.94 515.75,288.14Z" style="fill:white;fill-rule:nonzero;"/>
                <path d="M443.05,289.1C443.02,290.06 442.99,291.02 442.98,291.98C441.31,291.98 439.64,291.92 437.98,291.79C439.56,290.69 441.29,289.87 443.05,289.1Z" style="fill-rule:nonzero;"/>
                <path d="M558.87,291.34L558.19,291.7L558.87,291.34Z" style="fill-rule:nonzero;"/>
                <path d="M558.87,291.34C561.87,290.9 565,290.96 568.03,290.86L568.72,291.37L569.19,292.03L570.29,293.49C566.75,298.65 562.58,303.38 558.8,308.38L558.45,308.86C556.75,311.32 555.09,313.77 552.94,315.89C551.06,316.54 550.09,318.73 548.17,318.15L548.46,317.09C550.56,309.57 553.61,302.38 555.97,294.95L556.08,294.16C556.76,293.32 557.47,292.5 558.19,291.7L558.87,291.34Z" style="fill:rgb(3,76,178);fill-rule:nonzero;"/>
                <path d="M569.19,292.03C570.89,291.58 571.25,292.07 570.29,293.49L569.19,292.03Z" style="fill-rule:nonzero;"/>
                <path d="M540.96,307.06L543.04,307.27L543.39,308.12L543.15,308.79C541.56,309.3 540.83,308.72 540.96,307.06Z" style="fill:rgb(3,76,178);fill-rule:nonzero;"/>
                <path d="M558.8,308.38L558.45,308.86L558.8,308.38Z" style="fill-rule:nonzero;"/>
                <path d="M526.03,316.25L527.06,316.5L527.98,316.85L528.9,317.36L529.58,317.79C530.69,318.57 531.79,319.37 532.89,320.17L533.12,321.03C530.19,320.26 527.39,319.16 526.03,316.25Z" style="fill:rgb(3,76,178);fill-rule:nonzero;"/>
                <path d="M527.06,316.5L527.98,316.85L527.06,316.5Z" style="fill-rule:nonzero;"/>
                <path d="M552.94,315.89C552.36,317 551.78,318.12 551.22,319.24L550.85,319.92C549.22,320.72 548.6,321.28 548.18,323.1L547.35,324L546.9,322.05L546.97,321.11C547.96,320.72 548.29,320 547.95,318.93L548.17,318.15C550.09,318.73 551.06,316.54 552.94,315.89Z" style="fill:rgb(3,76,178);fill-rule:nonzero;"/>
                <path d="M528.9,317.36L529.58,317.79L528.9,317.36Z" style="fill-rule:nonzero;"/>
                <path d="M536.02,317.88C536.87,318.39 537.2,319.14 536.99,320.13L536.1,319.92L536.02,317.88Z" style="fill:rgb(3,76,178);fill-rule:nonzero;"/>
                <path d="M547.95,318.93C548.29,320 547.96,320.72 546.97,321.11C546.67,320.04 547,319.32 547.95,318.93Z" style="fill:rgb(3,76,178);fill-rule:nonzero;"/>
                <path d="M532.89,320.17C533.96,320.09 535.03,320 536.1,319.92L536.99,320.13L537.35,321.12L537.63,321.9L537.99,322.93L537.62,323.85L536.91,323.88C536.26,322.08 535.77,321.55 533.84,321.25L533.12,321.03L532.89,320.17Z" style="fill:rgb(3,76,178);fill-rule:nonzero;"/>
                <path d="M550.85,319.92C551.08,322.29 550.54,322.94 548.18,323.1C548.6,321.28 549.22,320.72 550.85,319.92Z" style="fill:rgb(3,76,178);fill-rule:nonzero;"/>
                <path d="M533.84,321.25C535.77,321.55 536.26,322.08 536.91,323.88C534.71,324.18 534.06,323.33 533.84,321.25Z" style="fill:rgb(3,76,178);fill-rule:nonzero;"/>
                <path d="M546.9,322.05L547.35,324C545.54,326.08 545.1,322.72 546.9,322.05Z" style="fill:rgb(3,76,178);fill-rule:nonzero;"/>
            </g>
        </g>
    </g>
</svg>
