<?xml version="1.0" encoding="UTF-8" standalone="no"?>
<!DOCTYPE svg PUBLIC "-//W3C//DTD SVG 1.1//EN" "http://www.w3.org/Graphics/SVG/1.1/DTD/svg11.dtd">
<svg width="100%" height="100%" viewBox="0 0 322 449" version="1.1" xmlns="http://www.w3.org/2000/svg" xmlns:xlink="http://www.w3.org/1999/xlink" xml:space="preserve" xmlns:serif="http://www.serif.com/" style="fill-rule:evenodd;clip-rule:evenodd;stroke-linejoin:round;stroke-miterlimit:2;">
    <g transform="matrix(1,0,0,1,-87.81,-18.07)">
        <g>
            <path d="M248.9,18.07C256.61,23.52 263.65,30.04 269.96,37.04C272.13,39.36 273.36,42.36 275.41,44.71C279.85,47.05 284.99,48.16 289.59,50.26C304.24,56.2 317.39,66.36 327.89,78.09C341.42,93.54 350.05,112.68 354,132.75C354.35,134 354.53,135.53 355.34,136.57C357.8,138.2 360.74,139.15 363.44,140.33C363.36,160.54 363.43,180.79 363.41,201C363.59,203.94 361.48,205.66 359.89,207.88C357.75,210.64 354.84,213.66 354.12,217.15C352.65,223.7 351.5,230.34 350.57,236.99C349.97,241.16 351.11,245.77 351.88,249.89C353.38,256.79 354.84,263.96 357.61,270.47C358.43,272.81 361.35,273.58 363.36,274.67C371.61,278.29 379.59,282.46 387.82,286.11C395.08,289.05 402.38,292.41 409.15,296.34L409.43,297.1C399.87,320.49 387.38,342.88 371.92,362.91C352.55,388.77 329.34,410.16 303.87,429.86C292.54,438.33 281.53,447.03 269.17,454.04C267.7,448.52 265.45,442.9 264.71,437.25C271.01,432.66 277.8,428.76 283.98,423.98C301.78,410.98 318.72,396.9 334.08,381.07C352.79,361.95 368.92,340.19 381.72,316.69C374.59,321.15 368.02,326.41 360.84,330.8C352.4,335.99 343.94,341.88 334.96,346.04C338.87,341.79 343.34,338.55 347.72,334.72C360.4,324.14 372.05,312.52 383.26,300.41C374.95,295.55 366.1,291.55 357.28,287.73C348.33,303.06 335.6,315.71 322.34,327.33C310.99,336.91 299.15,345.73 286.41,353.4C274.35,360.65 261.83,366.13 248.96,371.68C237.68,366.96 226.55,362.04 215.86,356.07C198.89,346.37 183.09,334.5 168.66,321.33C157.7,311.45 147.93,300.32 140.17,287.73C131.55,291.82 122.97,295.99 114.39,300.18C123.73,310.64 133.75,320.44 144.17,329.82C150.65,335.61 157.61,340.74 163.87,346.77C154.48,342.16 145.89,336.39 136.99,330.94C129.84,326.53 123.21,321.38 116.1,316.94C128.29,340.19 144.47,361.46 162.86,380.14C183.93,401.97 207.69,420.89 233.21,437.28C231.72,442.89 230.18,448.51 228.42,454.05C197.73,434.87 169.3,411.87 144.45,385.54C120.32,359.72 101.05,329.5 87.81,296.73C93.47,293.67 99.17,290.51 105.17,288.16C115.38,283.89 125.21,278.86 135.3,274.3C137.37,273.17 139.5,272.78 140.29,270.28C143.25,262.88 144.79,254.49 146.42,246.7C148.48,237.28 145.64,227.46 143.64,218.26C142.83,212.77 138.25,209.27 135.29,204.75C133.88,203 134.21,201.16 134.11,199.07C134.23,179.5 133.98,159.92 134.19,140.36C136.94,139.19 140.12,138.36 142.55,136.61C143.54,133.74 143.85,130.63 144.57,127.68C148.09,112.66 154.7,98.23 163.71,85.7C177.01,67.56 196.19,53.32 217.77,46.71C219.9,45.87 222.28,45.72 223.4,43.47C227.09,36.83 232.59,31.21 238.39,26.37C241.74,23.46 245.19,20.52 248.9,18.07Z" style="fill:rgb(1,1,1);fill-rule:nonzero;"/>
            <path d="M248.9,36.74C252.83,40.12 257.98,44.05 259.91,48.98C261.06,55.15 260.6,61.74 260.87,68C261.28,76.41 260.98,84.82 261.2,93.23C262.54,93.3 263.87,93.44 265.21,93.65C267.71,82.22 269.64,70.64 272.43,59.29C278.99,61.6 285.45,63.96 291.52,67.42C302.02,73.15 311.17,81.02 318.79,90.21C330.4,104.47 337.46,121.65 340.48,139.72C327.42,138.48 314.96,134.01 303.72,127.32C299.08,124.69 294.79,121.52 290.2,118.82C295.99,128.04 304.73,135.55 314.11,140.95C324.92,147.23 336.82,150.23 349.14,151.71C343.5,154.74 337.78,157.58 332,160.33C310.85,163.41 289.48,166.4 268.09,166.78C268.57,156.23 268.72,145.53 269.36,134.94C269.52,132.51 269.83,130.18 271.02,128.03C275.26,120.16 279.8,112.45 284.06,104.6C275.25,102.94 266.35,101.8 257.53,100.26C253.38,99.48 249.2,99.13 244.99,99.68C234.55,101.25 224.21,102.64 213.8,104.6C217.53,112.22 222.01,119.48 226.12,126.9C228.47,130.87 228.04,135.54 228.41,140C229.05,148.92 229.33,157.84 229.51,166.78C218.68,166.67 207.85,165.4 197.05,164.56C186.53,163.69 176.18,161.77 165.74,160.33C159.89,157.58 154.16,154.62 148.42,151.67C155.33,150.59 162.1,149.85 168.77,147.59C184.03,142.62 198.18,132.57 207.13,119.16C202.53,121.84 198.28,125.05 193.58,127.59C182.09,134.29 170.43,138.21 157.19,139.77C160.2,118.14 170.76,97.58 186.12,82.13C197.19,71.29 210.71,64.32 225.23,59.28C227.79,70.75 229.86,82.34 232.57,93.78C233.89,93.5 235.21,93.23 236.53,92.96C236.67,80.29 236.68,67.62 237.12,54.96C237.26,52.27 236.95,49.81 238.45,47.44C241.12,43.28 245.14,39.89 248.9,36.74Z" style="fill:white;fill-rule:nonzero;"/>
            <path d="M244.99,99.68C249.2,99.13 253.38,99.48 257.53,100.26C266.35,101.8 275.25,102.94 284.06,104.6C279.8,112.45 275.26,120.16 271.02,128.03C269.83,130.18 269.52,132.51 269.36,134.94C268.72,145.53 268.57,156.23 268.09,166.78C289.48,166.4 310.85,163.41 332,160.33C328.39,162.61 324.47,164.1 320.43,165.39C300.96,172.32 280.05,175.43 259.49,176.65C260,163.77 260.41,150.89 260.83,138C261.13,134.03 261,129.43 262.85,125.85C265.35,120.77 268.31,115.93 270.65,110.76C263.5,109.57 256.25,107.99 249,107.61C241.57,107.95 234.16,109.69 226.8,110.77C230.1,118.29 236.59,126 236.48,134.29C237.11,148.39 237.59,162.49 238.15,176.59C221.01,175.77 203.78,173.25 187.25,168.54C179.7,166.08 172.58,164.42 165.74,160.33C176.18,161.77 186.53,163.69 197.05,164.56C207.85,165.4 218.68,166.67 229.51,166.78C229.33,157.84 229.05,148.92 228.41,140C228.04,135.54 228.47,130.87 226.12,126.9C222.01,119.48 217.53,112.22 213.8,104.6C224.21,102.64 234.55,101.25 244.99,99.68Z" style="fill:rgb(1,1,1);fill-rule:nonzero;"/>
            <path d="M249,107.61C256.25,107.99 263.5,109.57 270.65,110.76C268.31,115.93 265.35,120.77 262.85,125.85C261,129.43 261.13,134.03 260.83,138C260.41,150.89 260,163.77 259.49,176.65C280.05,175.43 300.96,172.32 320.43,165.39C324.47,164.1 328.39,162.61 332,160.33C337.78,157.58 343.5,154.74 349.14,151.71C349.09,165.83 349.09,179.94 349.15,194.05C349.02,196.49 349.39,198.73 347.72,200.73C341.93,208.13 334.35,214.28 326.66,219.62C308.77,231.47 288.46,239.56 267.24,242.84C267.23,233.02 266.54,223.22 266.56,213.4C271.87,214.89 277.02,216.82 282.22,218.65C284.58,219.41 286.97,220.29 289.42,219.4C292.3,218.39 295.05,216.94 297.8,215.62C305.01,212.04 312.38,208.9 319.52,205.17C319.89,207.16 320.25,209.15 320.68,211.13C322.69,208.02 324.34,204.79 325.13,201.15C327.15,192.42 329.06,183.64 330.55,174.81C317.21,178.83 304.14,183.72 290.77,187.66C280.09,191.08 269.12,193.43 258.41,196.71C259.01,214.81 259.2,232.9 259.98,251C260.25,270.02 260.91,289.06 261.85,308.07C261.86,315.85 269.25,322.51 271.09,328.8C269.53,331.23 267.44,333.37 265.52,335.52C259.86,341.63 254.63,348.12 248.98,354.24C241.65,346.8 234.89,338.79 228.04,330.92C227.31,329.84 225.77,328.62 226.82,327.26C229.55,322.4 232.8,318.11 234.77,312.69C236.5,307.14 236.03,300.77 236.24,295C236.37,287.32 237.13,279.68 237.17,272C237.24,265 237.64,258.02 238.02,251.04C238.33,239.33 238.41,227.62 238.87,215.92C239.21,209.44 239.24,202.94 238.85,196.45C225.88,193.15 213.09,189.25 200.24,185.55C189.05,182.28 178.13,178.1 166.95,174.83C167.82,180.52 169.15,186.01 170.33,191.65C172.07,199.13 172.78,206.08 177.75,212.3C177.81,210.01 177.77,207.72 177.75,205.43C187.64,209.5 197.21,214.38 206.87,218.96C209.63,220.36 212.24,219.7 215.02,218.82C220.36,217.02 225.62,215.01 231.05,213.46C231.27,223.24 230.57,233.04 230.49,242.83C216.91,240.31 203.7,236.57 191.11,230.84C175.04,223.69 160.55,213.4 149.17,199.93C147.98,198.46 148.4,195.85 148.27,194.06C148.44,179.93 148.09,165.79 148.42,151.67C154.16,154.62 159.89,157.58 165.74,160.33C172.58,164.42 179.7,166.08 187.25,168.54C203.78,173.25 221.01,175.77 238.15,176.59C237.59,162.49 237.11,148.39 236.48,134.29C236.59,126 230.1,118.29 226.8,110.77C234.16,109.69 241.57,107.95 249,107.61Z" style="fill:rgb(204,0,34);fill-rule:nonzero;"/>
            <path d="M186.27,191.45C198.54,195.66 210.8,199.4 222.8,204.28C216.72,207.38 209.87,209.6 202.99,208.36C195.32,206.38 190.4,197.62 186.27,191.45Z" style="fill:white;fill-rule:nonzero;"/>
            <path d="M311.23,191.43C307.88,196.84 303.79,204.13 297.87,206.96C290.06,210.55 282.13,207.61 274.73,204.57C280.55,201.5 286.55,199.92 292.72,197.75C298.9,195.68 305.02,193.41 311.23,191.43Z" style="fill:white;fill-rule:nonzero;"/>
            <path d="M161.25,223.85C166.06,226.54 170.32,230.14 175.18,232.79C177.69,234.26 180.5,235.42 182.8,237.19C183.52,238.56 183.81,240.18 184.18,241.66C187.2,255.52 190.43,269.34 194,283.06C194.83,269.43 193.52,255.63 193.64,241.97C200.95,243.69 207.75,246.69 215.05,248.4C219.97,249.55 224.87,250.8 229.81,251.91C229.35,267.59 228.59,283.27 227.98,298.95C227.51,303.32 228.11,308.91 225.84,312.78C222.86,318.38 219.31,323.6 215.98,328.98C221.57,335.69 227.74,341.92 233.09,348.81C208.19,336.84 185.73,319.23 166.97,299.03C161.71,293.08 156.52,286.71 152.42,279.9C152.66,277.13 154,274.39 154.85,271.74C157,266.16 157.78,260.4 159.27,254.63C164.56,267.33 168.45,280.88 174.93,293.31C174.25,286.6 172.56,279.99 171.41,273.35C168.44,256.76 164.52,240.37 161.25,223.85Z" style="fill:white;fill-rule:nonzero;"/>
            <path d="M336.27,223.7C331.77,247.16 325.92,270.48 322.31,294.11C328.42,281.11 333.43,267.7 338.18,254.16C339.58,263.09 342.71,271.36 345.58,279.88C335.72,294.95 323.24,307.91 309.45,319.43C295.67,330.7 280.7,341.1 264.59,348.73C269.9,341.87 275.99,335.6 281.68,329.05C278.16,323.24 274.33,317.75 271.23,311.67C269.98,309.48 270.14,306.53 269.91,304.05C269.15,286.69 267.89,269.12 268.08,251.76C280.51,249.98 291.96,245.64 303.82,241.79C303.78,255.6 303.39,269.41 303.36,283.21C307.98,268.25 310.36,252.58 314.54,237.5C316.62,235.58 319.53,234.44 321.97,233.02C327.1,230.39 331.34,226.62 336.27,223.7Z" style="fill:white;fill-rule:nonzero;"/>
            <path d="M208.46,267.34C213.08,265.1 217.97,270.56 216.09,275.15C214.65,279.94 206.96,280.11 205.09,275.7C203.39,272.57 205.04,268.4 208.46,267.34Z" style="fill:rgb(1,1,1);fill-rule:nonzero;"/>
            <path d="M285.37,267.22C289.73,265.35 294.67,270.26 293.03,274.79C291.85,279.77 284.22,280.29 281.98,275.98C280.04,272.52 281.7,268.55 285.37,267.22Z" style="fill:rgb(1,1,1);fill-rule:nonzero;"/>
            <path d="M248.75,381.37C251.66,384.47 254.52,387.56 257.77,390.31C256.58,392.23 255.16,394.23 254.38,396.35C253.53,398.9 253.63,401.93 253.48,404.6C255.96,404.6 258.56,404.76 261,404.29C263.3,403.59 265.37,401.64 267.22,400.14C270.03,403.21 272.87,406.23 275.79,409.2C272.75,412.19 269.91,415.31 267.28,418.67C265.59,417.26 263.75,415.23 261.62,414.58C259.01,414.07 256.18,414.33 253.54,414.43C253.52,423.9 253.21,433.56 254.34,442.97C254.84,447.55 256.5,451.68 258.29,455.88C254.87,459.08 251.8,462.48 248.89,466.16C245.83,462.58 242.71,459.09 239.28,455.87C245.19,442.73 244.26,428.25 243.86,414.15C241.16,414.27 238.23,414.07 235.61,414.8C233.65,415.68 231.9,417.25 230.22,418.58C227.63,415.4 224.86,412.41 221.96,409.51C224.64,406.36 227.43,403.31 230.09,400.15C232.06,401.63 234.16,403.51 236.51,404.29C238.97,404.82 241.61,404.69 244.12,404.77C244.05,402.34 244.1,399.77 243.52,397.4C242.84,395.13 241.29,392.99 240.31,390.81C242.35,387.27 245.99,384.41 248.75,381.37Z" style="fill:rgb(204,0,34);fill-rule:nonzero;"/>
        </g>
    </g>
</svg>
