<?xml version="1.0" encoding="UTF-8" standalone="no"?>
<!DOCTYPE svg PUBLIC "-//W3C//DTD SVG 1.1//EN" "http://www.w3.org/Graphics/SVG/1.1/DTD/svg11.dtd">
<svg width="100%" height="100%" viewBox="0 0 477 328" version="1.1" xmlns="http://www.w3.org/2000/svg" xmlns:xlink="http://www.w3.org/1999/xlink" xml:space="preserve" xmlns:serif="http://www.serif.com/" style="fill-rule:evenodd;clip-rule:evenodd;stroke-linejoin:round;stroke-miterlimit:2;">
    <g transform="matrix(1,0,0,1,-17.879186,-158.520006)">
        <g transform="matrix(1,0,0,1,-1126,-4271.647578)">
            <g id="Gator" transform="matrix(1,0,0,1,-6642.404239,4271.647578)">
                <g transform="matrix(1,0,0,1,7768.404239,0)">
                    <path d="M253,289L277,283L309.519,274L343,282L372,287L385,271L397,269L407.512,279L464,271L473,273L457,308L444,315.5L443,299L436.45,299L417,315.5L410,303.76L397,319L375,334L378,308L365.801,315.5L343,322.463L263,315.5L237,327.342L244,338L265,351.473L282,348L283,371L290,374L306.345,372L309.519,392L312.692,395L329,383L333,407.283L339,413L363,399L379,385L384,380L387,399L397,407.283L421.981,399L433,389L432,407.283L416,424L379,424L361,426L327,416L298,396L263,364L226,327.342L225,299L253,289Z" style="fill:white;"/>
                </g>
                <g transform="matrix(1,0,0,1,7768.404239,0)">
                    <path d="M357,460L321,444L273,416L181.423,369L120,328L77,307L78,278.998L94,238L139,212L171,192L212,171L238,174L283.579,195L317,186L354,205L348.323,218L375,226L382.898,225L398,218L409,210L436,221L459,215L466,226L466,238L477,268L461,269L433,276L415,277L389,270L376,276L372,287L358,285L310,272L277,283L243,285L228,285L222,316L232,335L265,364L302,401L330,417L358,425L396,428L422,429L413,442L357,460Z" style="fill:rgb(3,76,178);"/>
                </g>
                <g transform="matrix(1,0,0,1,7768.404239,0)">
                    <path d="M229,205L246,212L277,229L256,232L231,226L229,205Z" style="fill:white;"/>
                </g>
                <g transform="matrix(0.325841,0,0,0.325841,7692.684294,-11.683366)">
                    <path d="M946.573,522.351C969.669,535.74 989.057,547.25 1010.63,563.353C1017.45,568.445 1036.9,585.943 1042.32,587.993C1071.51,599.033 1113.1,601.943 1144.28,604.403C1152.84,590.213 1165.9,569.111 1176.87,557.338C1226.06,591.265 1280.27,629.87 1338.31,647.447C1353.66,652.096 1367.39,651.177 1380.75,654.218C1365.01,666.294 1341.87,683.064 1327.27,695.619C1350.66,701.404 1372.73,706.931 1396.81,709.24C1407.06,710.222 1416.09,709.324 1425.35,709.912C1420.9,702.959 1416.98,694.759 1412.59,688.044C1407.56,680.335 1402.58,673.376 1397.63,665.428C1410.75,668.023 1450.1,675.773 1461.24,673.769C1458.54,667.407 1452.79,659.763 1448.71,653.89C1491.51,665.19 1525.14,676.689 1564.82,695.209C1581.96,688.489 1597.18,683.915 1614.79,678.744C1622.47,676.487 1630.69,672.934 1638.48,670.465C1652.2,686.498 1668.98,714.3 1682.2,732.381L1671.53,752.336C1682.47,764.482 1691.68,778.737 1701.22,792.023C1732.36,835.393 1736.04,892.536 1748.83,943.57C1737.25,929.842 1720.97,919.166 1705.29,910.584C1702.19,909.437 1699.67,908.024 1696.74,906.502C1689.34,918.395 1684.49,934.565 1677.09,947.543C1648.64,997.567 1605.31,1037.48 1553.11,1061.72L1552.74,1064.06C1539.31,1077.38 1501.82,1088.53 1483.03,1090.54C1493.97,1073.35 1511.11,1043.19 1516.55,1023.4C1507.39,1028.45 1498.79,1034.7 1490.18,1040.67L1490.08,1016.27C1476.94,1022.07 1465.31,1027.06 1451.25,1030.15C1433.06,1043.51 1409.11,1059.03 1392.94,1073.65C1384.26,1085.48 1355.7,1118.14 1350.62,1128.28C1360.59,1127.76 1370.55,1127.15 1380.51,1126.45C1376.49,1143.59 1372.32,1160.69 1368.01,1177.75C1371,1185.62 1372.74,1190.64 1376.78,1197.95L1377.75,1199.74C1377.95,1200.1 1378.15,1200.45 1378.35,1200.81C1394.96,1182.93 1409.74,1154.43 1425.11,1138.1C1429.47,1161.58 1431.83,1175.58 1432.15,1199.95C1432.28,1209.56 1430.44,1239.97 1431.93,1246.9C1438.52,1242.08 1444.85,1236.22 1450.99,1230.93L1461.45,1221.93C1481.82,1204.54 1496.61,1190.33 1515.63,1171.98L1513.2,1185.51C1510.12,1203.53 1501.09,1225.59 1499.5,1242.62C1530.51,1218.79 1550.28,1195.87 1570.84,1162.4C1576.18,1153.7 1580.68,1143.35 1586.05,1135C1588.64,1156 1587.65,1178.59 1587.31,1199.79C1586.61,1242.75 1571.09,1279.44 1558.7,1319.69C1570.43,1317.47 1587.03,1313.2 1598.63,1309.8C1537.96,1394.97 1472.25,1448.02 1371.32,1481.04C1356.22,1485.98 1336.88,1489.22 1321.08,1493.3C1311.06,1496.47 1301.05,1500.37 1290.92,1503.15C1234.24,1518.67 1175.6,1525.85 1116.85,1524.44C1099.39,1524.18 1081.64,1524.1 1064.35,1521.85C1090.91,1502.35 1111.81,1492.11 1138.4,1469.92C1113.6,1458.61 1079.3,1447.36 1053.21,1438.51C971.259,1410.69 898.358,1389.81 811.777,1383.33C774.544,1396.66 804.032,1445.41 814.088,1466.94C821.804,1483.46 825.512,1495.56 835.551,1511.49C820.476,1501.66 804.967,1493.34 789.425,1484.33C776.932,1477.1 764.804,1468.89 752.03,1462.24C760.438,1484.45 767.515,1506.78 777.016,1528.63C739.438,1513.37 694.746,1487.03 660.519,1464.96C553.65,1396.04 476.223,1313.19 415.063,1201.86C396.804,1221.33 395.983,1232.5 386.208,1256.64C379.926,1245.75 373.813,1230 368.335,1218.28C341.003,1159.82 332.042,1099.59 336.671,1035.54C337.813,1019.73 340.969,1000.11 343.154,984.001C321.113,993.864 305.459,1007.4 287.254,1022.62C289.488,997.436 304.302,949.262 313.687,925.5C341.042,855.346 386.666,793.788 445.826,747.206C454.881,740.155 470.678,727.866 480.802,723.477C456.453,723.013 434.236,726.341 409.985,728.18C435.383,712.311 466.916,693.773 494.772,682.519C526.255,668.265 558.52,655.801 591.41,645.186C599.148,642.64 614.146,637.31 621.185,636.161C634.531,628.644 666.368,617.339 681.188,613.238C656.833,606.127 635.114,605.409 611.96,598.608C628.193,594.232 644.314,592.533 660.577,589.059C681.31,584.63 702.281,579.312 722.901,574.275C703.321,561.818 686.308,557.254 668.413,546.268C700.543,542.224 742.235,536.868 774.114,530.411C794.104,528.22 809.608,528.501 829.268,528.006C874.723,526.861 909.931,530.661 953.122,545.817C951.117,536.875 949.464,531.056 946.573,522.351ZM1172.72,1496.28C1198.54,1493.1 1182.03,1487.62 1168,1487.39L1162.91,1487.29C1159.69,1489.29 1156.5,1491.34 1153.33,1493.43C1160.79,1494.61 1165.18,1495.34 1172.72,1496.28ZM1357.68,1333.5C1365.19,1325.21 1374.11,1315.36 1380.41,1306.26C1390.87,1291.14 1406.75,1246.06 1403.81,1228.89C1368.05,1272.97 1346.52,1289.67 1298.53,1318.99L1312.9,1323.64C1322.95,1325.15 1348.61,1330.34 1357.68,1333.5ZM1302.1,1002.92C1317.99,996.096 1328.24,986.29 1340.11,974.327C1351.1,962.445 1361.15,949.536 1366.94,934.324C1357.69,931.607 1346.64,930 1337,928.892C1324,927.329 1310.92,926.43 1297.81,926.197C1297.93,931.632 1298.08,936.595 1298.6,942.044C1300.51,962.158 1300.21,982.872 1302.1,1002.92ZM1200.73,970.988C1213.22,965.6 1220,959.462 1230.2,950.743C1240.09,942.708 1250.5,925.91 1255.19,913.914L1252.49,912.047C1241.14,904.272 1206.98,894.32 1193.28,892.081C1184.8,897.437 1190.65,904.86 1193.53,914.331C1199.54,934.092 1199.15,950.675 1200.73,970.988ZM1435.59,1288.84C1429.15,1297.21 1414.7,1311.59 1411.57,1322.01C1410.85,1324.37 1420.58,1325.73 1421.97,1325.92C1426.77,1325.98 1448.21,1328.26 1447.19,1320.54C1446.67,1316.6 1437.53,1291.3 1435.59,1288.84ZM1616.99,976.37C1638.14,949.973 1652.31,923.549 1655.51,889.529C1651.68,884.924 1650.98,883.596 1645.38,881.649C1636.33,887.15 1633.27,891.465 1626.24,899.061C1625.66,903.288 1625.78,903.991 1624.67,908.447C1623.1,914.755 1621.51,920.722 1619.71,926.983C1615.13,942.885 1611.34,959.874 1611.98,976.505C1612.22,982.48 1613.82,979.805 1616.99,976.37ZM1539.63,1256.96C1533.93,1262.59 1527.69,1265.59 1521.57,1272.01C1507.82,1286.48 1487.64,1302.33 1479,1320.46C1478.48,1321.55 1481.68,1324.13 1482.34,1324.74C1486.36,1325.32 1489.37,1325.92 1493.5,1324.98C1523.99,1318.09 1534.4,1287.07 1540.12,1259.96C1540.52,1258.09 1540.8,1258.07 1539.63,1256.96ZM1119.5,950.936C1139.04,940.168 1158.4,922.376 1166.54,901.309C1170.04,892.236 1161.2,891.373 1154.95,892.133C1140.91,896.445 1123.74,902.334 1110.53,908.481C1112,917.444 1112.84,926.478 1113.85,935.499C1114.26,939.172 1112.27,949.513 1114.14,952.684C1115.33,952.912 1118.39,951.482 1119.5,950.936ZM1183.83,1264.19C1188.95,1267.61 1194.09,1272.05 1199.61,1275.83C1204.37,1279.12 1223.48,1291.4 1228.51,1288.9C1242.27,1282.06 1238.99,1242.17 1236.68,1229.94C1215.86,1249.51 1208.42,1252.61 1183.83,1264.19ZM1114.78,1204.87C1121.77,1212.72 1125.63,1215.31 1133.22,1222.21C1143.81,1232.18 1148.09,1231.76 1160.94,1233.81C1160.96,1228.49 1161.07,1189.73 1158.35,1188.14C1143.87,1194.1 1129.23,1198.33 1114.78,1204.87ZM1024.72,951.372C1029.39,957.602 1030.07,958.477 1035.53,963.896L1037.02,962.513C1041.31,958.634 1069.99,924.707 1070.01,920.678C1052.69,921.98 1030.61,926.967 1012.76,929.553C1016.36,938.318 1020.15,943.281 1024.72,951.372ZM1281.17,1217.76L1282.33,1218.64C1284.53,1220.75 1288.77,1224.33 1291.22,1226.31C1293.37,1228.24 1295.54,1230.15 1297.74,1232.02C1300.22,1231.05 1300.41,1231.19 1301.38,1228.76L1300.18,1226.45L1299.05,1224.83C1296.61,1221.68 1294.31,1218.36 1291.83,1215.23C1290.48,1214.93 1282.49,1217.04 1281.17,1217.76ZM1564.54,902.012C1566.27,906.25 1575.28,934.131 1578.69,933.631C1587.38,925.76 1603.08,908.994 1606.96,897.484C1608.15,893.954 1595.38,895.066 1593.71,895.323C1583.98,896.8 1574.04,899.44 1564.54,902.012ZM1472.51,902.799C1465.32,893.812 1459.74,888.378 1448.02,885.479C1435.22,882.312 1413.6,887.564 1410.13,902.112C1407.19,916.94 1409.98,932.367 1410.04,947.452C1410.14,972.834 1409.71,1000 1404.42,1024.96C1399.6,1032.25 1403.37,1030 1407.49,1025.77C1439.24,994.017 1470.25,949.018 1472.51,902.799ZM1113.11,1083.09C1095.06,1082.52 1104.36,1087.87 1111.92,1087.61L1113.11,1083.09ZM884.15,992.334C893.542,948.176 886.74,909.602 839.07,894.511C828.282,891.431 817.639,891.002 806.517,890.189C803.01,890.826 797.78,890.916 794.078,891.115C790.979,890.987 788.014,890.925 784.913,890.714C801.285,885.656 818.355,884.521 835.736,877.583C832.787,876.653 829.939,875.61 827.027,874.576L816.348,871.637C752.675,850.838 627.125,869.773 571.559,906.015C600.055,872.77 638.392,849.927 677.596,831.131C737.842,802.246 808.556,783.158 875.676,785.048C890.711,785.472 905.481,786.472 919.677,791.318C889.35,799.451 870.956,804.544 842.209,817.832C877.732,823.918 905.547,827.648 940.931,838.736L954.85,842.942C951.382,843.153 946.358,843.305 943.058,843.861C931.914,844.095 921.21,845.654 910.259,845.113C915.61,857.444 957.075,878.241 969.847,883.255C1029.91,906.834 1075.37,891.8 1131.17,867.469C1139.96,863.631 1178.7,844.063 1183.61,842.826C1191.56,845.379 1198.63,849.262 1206.26,852.818C1249.45,872.961 1295.15,893.756 1343.33,896.842C1349.04,897.208 1366.41,897.732 1370.61,894.188C1370.06,887.934 1360.39,870.899 1357.31,864.115C1364.94,864.009 1379.24,863.948 1386.15,860.9C1412.34,849.354 1429.51,829.552 1461.87,844.768C1469.7,858.21 1481.04,871.162 1496.95,874.331C1532.31,881.372 1571.63,874.202 1603.23,856.791C1628.42,842.917 1647.89,829.404 1676.04,851.226C1672.32,803.561 1649.42,772.369 1619.63,736.615C1628.1,738.216 1640.72,740.132 1648.58,742.333C1640.66,728.606 1633.72,719.777 1623.16,707.941C1610.6,712.597 1590.1,720.759 1579.29,728.4C1578.09,737.394 1577.13,747.022 1575.81,755.872C1560.3,733.726 1550.46,720.723 1524.42,709.698C1507.7,702.621 1488.14,696.167 1471.43,708.815C1456.53,721.172 1442.93,733.939 1427.17,745.561C1385.12,776.062 1333.93,791.323 1282.04,788.828C1295.16,785.267 1333.9,768.716 1345.35,761.24C1307.91,771.709 1283.36,778.395 1243.64,765.964C1282.52,762.848 1312.52,757.485 1349.12,742.164C1310,737.671 1280.85,739.094 1241.01,726.617C1262.1,723.552 1275.76,720.888 1295.73,713.162C1275.9,705.224 1251.3,696.067 1230.86,690.417C1251.75,687.047 1278.9,683.218 1299.02,678.069C1272.03,658.806 1216.61,635.397 1184.38,631.126C1187.81,637.674 1191.38,644.152 1195.07,650.557C1176.9,647.25 1154.79,643.654 1136.43,642.788C1148.9,653.46 1171.41,674.323 1180.09,687.129C1135.07,681.752 1090.55,656.846 1050.09,638.05C997.435,613.591 918.434,555.171 861.387,592.468L869.317,607.232C860.189,610.705 851.194,613.161 842.291,617.238C804.071,634.743 780.63,656.212 760.046,692.108C697.227,698.724 641.98,715.867 592.47,756.727C573.778,772.154 557.677,784.959 544.738,806.142C570.529,800.384 597.224,796.034 623.328,790.833C606.097,801.358 584.638,814.768 570.555,829.127C539.683,860.606 506.493,920.695 495.997,963.142C511.801,957.079 579.16,932.545 592.563,937.16L592.509,938.558C571.339,955.776 551.017,971.206 538.145,996.718C586.919,970.295 702.778,952.666 757.79,956.926C763.93,957.04 774.485,956.225 778.819,959.787L775.823,962.214C736.465,982.995 697.738,1003.5 674.166,1044.04C714.523,1045 803.747,1072.19 839.85,1090.28C825.331,1094.42 791.272,1099.37 774.951,1101.36C794.102,1108.33 818.57,1121.57 836.802,1131.24C881.633,1155 922.537,1182.41 964.454,1210.62C1011.45,1242.66 1058.89,1274.04 1106.76,1304.74C1154.5,1334.92 1202.03,1363.94 1257.23,1378.39C1284.02,1385.41 1310.64,1388.6 1338.27,1389.82C1355.63,1390.59 1371.46,1390.26 1388.81,1392.36C1371.66,1402.25 1357.1,1407.55 1339.39,1415.64C1332.54,1419.15 1336.31,1419.2 1340.87,1417.44C1389.77,1415.76 1454.41,1394.04 1493.35,1364.41C1473.76,1361.62 1432.47,1362.7 1411.33,1362.1C1365.9,1361.67 1322.89,1355.82 1279.46,1342.37C1089.91,1283.64 1013.66,1069.75 815.233,1028.49C834.003,1023.65 852.892,1019.28 871.883,1015.4C867.343,1009.37 842.109,981.372 836.379,975.42C856.704,980.236 865.406,983.221 884.15,992.334ZM1228.41,1127.34C1229.21,1127.12 1230.48,1127.08 1231.09,1126.43L1231.07,1126.29C1230.36,1125.98 1229.41,1125.97 1228.94,1125.3C1229.61,1124.37 1229.33,1124.45 1230.5,1124.37C1236.98,1123.94 1227.34,1113.03 1224.57,1118.99C1223.73,1120.8 1226.11,1124.82 1226.81,1126.53L1228.41,1127.34ZM1530.96,927.208C1537.96,919.329 1541.22,915.512 1547.74,907.099C1529.39,905.328 1515.71,905.474 1497.48,906.132L1497.86,907.115C1503.06,920.583 1507.4,931.324 1514.51,943.989C1520.47,938.493 1525.35,932.979 1530.96,927.208ZM1079.47,1171.65C1079.81,1167.09 1080.69,1124.79 1079.75,1123.28C1079.19,1123.03 1078.67,1123.19 1077.96,1123.24C1072.5,1124.36 1062.89,1127.47 1058,1127.82C1050.01,1128.41 1042.85,1128.18 1034.43,1128.91C1041.64,1138.27 1049.17,1144.69 1057.49,1152.97C1065.98,1162.21 1068.54,1165.5 1079.47,1171.65ZM419.859,1173.01C421.333,1170.27 422.418,1167.79 423.808,1165.08L423.255,1164.05C421.796,1161.06 409.163,1159.03 414.257,1167.55C415.994,1170.46 415.81,1171.49 419.859,1173.01ZM365.769,962.772C355.233,959.237 361.199,961.179 356.331,953.769C354.595,958.597 351.459,965.937 351.47,970.894C351.472,972.031 354.888,971.771 355.459,971.709C359.204,971.309 363.112,965.31 365.769,962.772ZM1355.32,1080.85C1356.5,1084.11 1357.41,1084.1 1358.49,1086.6C1358.18,1087.79 1359.49,1088.24 1360.43,1088.11C1363.03,1087.73 1364.13,1085.25 1365.27,1083.23C1363.61,1081.51 1359.82,1077.61 1358.05,1076.03C1357.43,1076.05 1356.67,1076.01 1356.08,1076.18L1355.05,1076.37L1354.56,1077.29C1354.8,1078.84 1354.85,1079.36 1355.32,1080.85ZM734.992,1451.31C737.056,1452.76 738.567,1453.66 740.753,1454.91C742.701,1450.38 738.577,1447.81 734.992,1451.31Z" style="fill-rule:nonzero;"/>
                </g>
                <g transform="matrix(0.325841,0,0,0.325841,7692.684294,-11.683366)">
                    <path d="M1153.33,1493.43C1156.5,1491.34 1159.69,1489.29 1162.91,1487.29L1168,1487.39C1182.03,1487.62 1198.54,1493.1 1172.72,1496.28C1165.18,1495.34 1160.79,1494.61 1153.33,1493.43Z" style="fill-rule:nonzero;"/>
                </g>
                <g transform="matrix(0.325841,0,0,0.325841,7692.684294,-11.683366)">
                    <path d="M356.331,953.769C361.199,961.179 355.233,959.237 365.769,962.772C363.112,965.31 359.204,971.309 355.459,971.709C354.888,971.771 351.472,972.031 351.47,970.894C351.459,965.937 354.595,958.597 356.331,953.769Z" style="fill-rule:nonzero;"/>
                </g>
                <g transform="matrix(0.325841,0,0,0.325841,7692.684294,-11.683366)">
                    <path d="M419.859,1173.01C415.81,1171.49 415.994,1170.46 414.257,1167.55C409.163,1159.03 421.796,1161.06 423.255,1164.05L423.808,1165.08C422.418,1167.79 421.333,1170.27 419.859,1173.01Z" style="fill-rule:nonzero;"/>
                </g>
                <g transform="matrix(0.325841,0,0,0.325841,7692.684294,-11.683366)">
                    <path d="M1358.05,1076.03C1359.82,1077.61 1363.61,1081.51 1365.27,1083.23C1359.26,1084.67 1360.65,1083.78 1355.32,1080.85C1354.85,1079.36 1354.8,1078.84 1354.56,1077.29L1355.05,1076.37L1356.08,1076.18L1356.01,1077.61C1355.73,1081.33 1357.49,1080.01 1358.05,1076.03Z" style="fill-rule:nonzero;"/>
                </g>
                <g transform="matrix(0.325841,0,0,0.325841,7692.684294,-11.683366)">
                    <path d="M1355.32,1080.85C1360.65,1083.78 1359.26,1084.67 1365.27,1083.23C1364.13,1085.25 1363.03,1087.73 1360.43,1088.11C1359.49,1088.24 1358.18,1087.79 1358.49,1086.6C1357.41,1084.1 1356.5,1084.11 1355.32,1080.85Z" style="fill-rule:nonzero;"/>
                </g>
                <g transform="matrix(0.325841,0,0,0.325841,7692.684294,-11.683366)">
                    <path d="M734.992,1451.31C738.577,1447.81 742.701,1450.38 740.753,1454.91C738.567,1453.66 737.056,1452.76 734.992,1451.31Z" style="fill-rule:nonzero;"/>
                </g>
                <g transform="matrix(0.325841,0,0,0.325841,7692.684294,-11.683366)">
                    <path d="M1356.08,1076.18C1356.67,1076.01 1357.43,1076.05 1358.05,1076.03C1357.49,1080.01 1355.73,1081.33 1356.01,1077.61L1356.08,1076.18Z" style="fill-rule:nonzero;"/>
                </g>
                <g transform="matrix(0.325841,0,0,0.325841,7692.684294,-11.683366)">
                    <path d="M494.772,682.519C519.065,688.002 545,694.798 569.421,698.607C550.191,711.342 531.935,719.754 513.191,734.56C451.294,783.454 396.812,852.057 366.577,925.084C364.288,930.611 357.477,948.652 356.331,953.769C354.595,958.597 351.459,965.937 351.47,970.894C351.472,972.031 354.888,971.771 355.459,971.709C359.204,971.309 363.112,965.31 365.769,962.772C383.383,951.761 393.388,945.375 413.386,939.127C400.55,999.16 390.498,1049.26 401.215,1111.47C403.758,1126.24 406.856,1140.52 409.976,1155.18C411.869,1164.07 414.99,1175.27 415.328,1184.16C416.308,1181.88 419.445,1175.01 419.859,1173.01C421.333,1170.27 422.418,1167.79 423.808,1165.08C431.081,1153.61 443.373,1134.38 452.584,1124.96L453.3,1126.2C459.973,1137.89 465.265,1151.36 471.333,1163.55C532.267,1285.92 623.051,1375.49 734.992,1451.31C737.056,1452.76 738.567,1453.66 740.753,1454.91C744.656,1457.87 747.869,1459.75 752.03,1462.24C760.438,1484.45 767.515,1506.78 777.016,1528.63C739.438,1513.37 694.746,1487.03 660.519,1464.96C553.65,1396.04 476.223,1313.19 415.063,1201.86C396.804,1221.33 395.983,1232.5 386.208,1256.64C379.926,1245.75 373.813,1230 368.335,1218.28C341.003,1159.82 332.042,1099.59 336.671,1035.54C337.813,1019.73 340.969,1000.11 343.154,984.001C321.113,993.864 305.459,1007.4 287.254,1022.62C289.488,997.436 304.302,949.262 313.687,925.5C341.042,855.346 386.666,793.788 445.826,747.206C454.881,740.155 470.678,727.866 480.802,723.477C456.453,723.013 434.236,726.341 409.985,728.18C435.383,712.311 466.916,693.773 494.772,682.519Z" style="fill:white;fill-rule:nonzero;"/>
                </g>
                <g transform="matrix(0.325841,0,0,0.325841,7692.684294,-11.683366)">
                    <path d="M811.777,1383.33C828.049,1373.38 852.833,1370.37 871.492,1368.79C933.725,1363.54 989.954,1374.32 1050.28,1388.85C1094.21,1399.56 1137.66,1412.17 1180.5,1426.64C1194.02,1431.22 1215.6,1438.22 1228.28,1444.53C1203.26,1457.99 1186.09,1472.06 1162.91,1487.29C1159.69,1489.29 1156.5,1491.34 1153.33,1493.43C1160.79,1494.61 1165.18,1495.34 1172.72,1496.28C1213.42,1502.23 1261.36,1500.37 1302.36,1495.71C1309.24,1494.92 1313.64,1492.62 1321.08,1493.3C1311.06,1496.47 1301.05,1500.37 1290.92,1503.15C1234.24,1518.67 1175.6,1525.85 1116.85,1524.44C1099.39,1524.18 1081.64,1524.1 1064.35,1521.85C1090.91,1502.35 1111.81,1492.11 1138.4,1469.92C1113.6,1458.61 1079.3,1447.36 1053.21,1438.51C971.259,1410.69 898.358,1389.81 811.777,1383.33Z" style="fill:white;fill-rule:nonzero;"/>
                </g>
                <g transform="matrix(0.325841,0,0,0.325841,7692.684294,-11.683366)">
                    <path d="M774.114,530.411C787.865,540.604 808.155,558.379 818.699,571.542C799.941,575.227 772.993,576.694 752.687,579.703C737.332,581.978 703.185,590.602 691.073,590.579C705.078,599.506 722.634,606.243 735.116,614.499C710.07,618.523 685.629,621.056 660.624,626.495C653.472,628.051 625.368,636.601 621.185,636.161C634.531,628.644 666.368,617.339 681.188,613.238C656.833,606.127 635.114,605.409 611.96,598.608C628.193,594.232 644.314,592.533 660.577,589.059C681.31,584.63 702.281,579.312 722.901,574.275C703.321,561.818 686.308,557.254 668.413,546.268C700.543,542.224 742.235,536.868 774.114,530.411Z" style="fill:white;fill-rule:nonzero;"/>
                </g>
                <g transform="matrix(0.325841,0,0,0.325841,7692.684294,-11.683366)">
                    <path d="M1294.79,1070.2C1316.25,1038.67 1345.01,1023.85 1376.73,1005.52C1373.47,1024.49 1361.45,1057.19 1355.05,1076.37L1354.56,1077.29C1352.85,1081.95 1351.5,1086.42 1350.04,1091.15C1370.05,1087.5 1375.39,1084.03 1392.94,1073.65C1384.26,1085.48 1355.7,1118.14 1350.62,1128.28C1347.89,1129.53 1348.08,1129.45 1345.06,1129.48C1336.87,1126.02 1331.98,1117.71 1326.51,1110.43C1330.84,1097.57 1335.19,1084.69 1337.88,1071.39C1326.45,1074.22 1314.97,1076.86 1303.44,1079.31L1294.79,1070.2Z" style="fill:white;fill-rule:nonzero;"/>
                </g>
                <g transform="matrix(0.325841,0,0,0.325841,7692.684294,-11.683366)">
                    <path d="M1516.55,1023.4C1520.23,1018.88 1525.1,1014.87 1529.43,1010.92C1544.35,997.337 1559.01,983.743 1571.84,968.089C1568.6,992.296 1561.62,1016.57 1554.31,1039.82C1552.96,1044.1 1546.08,1061.06 1546.17,1062.51C1549.15,1062.36 1550.19,1062.27 1553.11,1061.72L1552.74,1064.06C1539.31,1077.38 1501.82,1088.53 1483.03,1090.54C1493.97,1073.35 1511.11,1043.19 1516.55,1023.4Z" style="fill:white;fill-rule:nonzero;"/>
                </g>
                <g transform="matrix(0.325841,0,0,0.325841,7692.684294,-11.683366)">
                    <path d="M1431.93,1246.9C1438.52,1242.08 1444.85,1236.22 1450.99,1230.93L1461.45,1221.93C1481.82,1204.54 1496.61,1190.33 1515.63,1171.98L1513.2,1185.51C1510.12,1203.53 1501.09,1225.59 1499.5,1242.62C1497.04,1246.09 1490.58,1252.28 1487.53,1255.25C1485.94,1243.02 1485.47,1232.9 1485.23,1220.55C1477.34,1230.81 1459.08,1245.01 1448.68,1253.62C1441.17,1251.05 1438.83,1249.82 1431.93,1246.9Z" style="fill:white;fill-rule:nonzero;"/>
                </g>
                <g transform="matrix(0.325841,0,0,0.325841,7692.684294,-11.683366)">
                    <path d="M1397.63,665.428C1410.75,668.023 1450.1,675.773 1461.24,673.769C1464.6,676.16 1466.03,676.736 1462.92,679.967C1451.76,691.59 1437.31,699.241 1425.35,709.912C1420.9,702.959 1416.98,694.759 1412.59,688.044C1407.56,680.335 1402.58,673.376 1397.63,665.428Z" style="fill:white;fill-rule:nonzero;"/>
                </g>
                <g transform="matrix(0.325841,0,0,0.325841,7692.684294,-11.683366)">
                    <path d="M1451.25,1030.15C1457.63,1023.5 1464.19,1018 1470.47,1010.88C1476.72,1003.81 1482.37,994.941 1488.46,988.243C1489.13,996.984 1490.02,1007.62 1490.08,1016.27C1476.94,1022.07 1465.31,1027.06 1451.25,1030.15Z" style="fill:white;fill-rule:nonzero;"/>
                </g>
                <g transform="matrix(0.325841,0,0,0.325841,7692.684294,-11.683366)">
                    <path d="M946.331,644.667C935.764,639.565 902.759,621.397 898.704,610.575L899.537,609.045C922.137,605.711 995.036,663.365 1015.98,677.735C1063.26,710.184 1097.9,729.859 1156.8,716.33C1171.91,712.86 1190.21,707.427 1205.02,704.747C1182.56,730.984 1165.54,740.493 1136.29,756.542C1134.14,757.618 1132.13,759.058 1129.78,759.635C1127.56,760.478 1125.6,761.031 1123.74,762.503C1058.83,787.205 1044.5,787.508 975.831,787.109C996.691,779.115 1016.42,772.941 1037.69,766.23C997.251,759.756 959.731,749.437 920.118,740.871C858.263,727.495 793.882,731.571 731.917,742.816C764.599,718.395 844.341,686.07 884.426,673.003C854.028,673.237 853.31,669.272 821.541,678.413C863.338,649.928 894.827,638.2 946.331,644.667ZM1040.1,736.195C1040.83,736.329 1047.43,737.904 1047.59,736.438C1047.25,735.699 1046.11,735.234 1045.44,734.85C1021.74,725.235 964.779,693.996 947.494,676.759L946.47,675.755C953.328,695.436 968.219,728.67 991.51,732.899C996.969,733.89 1035.8,737.697 1040.1,736.195Z" style="fill-rule:nonzero;"/>
                </g>
                <g transform="matrix(0.325841,0,0,0.325841,7692.684294,-11.683366)">
                    <path d="M1045.44,734.85C1046.11,735.234 1047.25,735.699 1047.59,736.438C1047.43,737.904 1040.83,736.329 1040.1,736.195C1041.84,735.74 1043.69,735.217 1045.44,734.85Z" style="fill-rule:nonzero;"/>
                </g>
                <g transform="matrix(0.325841,0,0,0.325841,7692.684294,-11.683366)">
                    <path d="M1484.99,723.727C1498.96,729.025 1516.62,737.1 1528.77,745.387C1519.24,751.059 1514.43,754.988 1512.17,767.007C1511.89,768.517 1512.11,770.066 1511.08,771.361C1509.95,770.883 1506.42,766.822 1505.32,765.699C1491.03,754.341 1475.04,747.007 1456.56,747.934C1467.72,736.792 1473.78,733.416 1484.99,723.727Z" style="fill-rule:nonzero;"/>
                </g>
                <g transform="matrix(0.325841,0,0,0.325841,7692.684294,-11.683366)">
                    <path d="M1185.83,740.795L1185.36,741.576C1171.56,764.807 1148.29,772.73 1122.81,777.721C1118.07,778.689 1106.84,780.421 1118.96,775.647C1120.97,774.659 1123,773.709 1125.04,772.799C1127.84,771.744 1133,769.052 1135.45,767.417L1137.16,766.307C1148.03,761.935 1176.09,746.929 1185.83,740.795Z" style="fill-rule:nonzero;"/>
                </g>
                <g transform="matrix(0.325841,0,0,0.325841,7692.684294,-11.683366)">
                    <path d="M1417,774.134C1417.91,775.207 1417.66,775.787 1416.61,776.946C1406.17,788.527 1395.06,792.581 1379.95,794.606C1379.76,794.458 1379.58,794.31 1379.39,794.162C1379.5,793.303 1380.43,792.957 1381.26,792.717C1394.5,788.883 1405.26,780.912 1417,774.134Z" style="fill-rule:nonzero;"/>
                </g>
                <g transform="matrix(0.325841,0,0,0.325841,7692.684294,-11.683366)">
                    <path d="M973.414,1048.85C1043.39,1024.09 1128.35,1058.33 1187.21,1097.15C1200.67,1106.03 1214.05,1116.6 1226.81,1126.53L1228.41,1127.34C1232.13,1131.31 1236.77,1134.73 1241.06,1138.14L1248.66,1144.75C1254.39,1149.96 1260.83,1155.5 1265.76,1161.38C1256.17,1141.85 1239.61,1116.65 1225.6,1100.34C1213.73,1086.51 1200.53,1073.36 1188.7,1059.21C1244.74,1072.54 1289.04,1114.6 1317.48,1162.96C1330.64,1185.32 1346.17,1213.1 1355.02,1237.43C1329.79,1255.28 1298.91,1275.6 1269.47,1285.8C1268.82,1268.09 1268.06,1253.93 1265.36,1236.32C1263.71,1225.56 1260.29,1211.11 1259.36,1200.85C1267.33,1206.29 1273.75,1211.65 1281.17,1217.76L1282.33,1218.64C1284.53,1220.75 1288.77,1224.33 1291.22,1226.31C1293.37,1228.24 1295.54,1230.15 1297.74,1232.02C1300.22,1231.05 1300.41,1231.19 1301.38,1228.76L1300.18,1226.45L1299.05,1224.83C1296.61,1221.68 1294.31,1218.36 1291.83,1215.23C1269.87,1187.53 1221.49,1150.72 1192.03,1128.88L1190.34,1130.4C1204.93,1141.26 1235.25,1172.75 1248.93,1186.35C1241.85,1192.69 1195.89,1234.96 1192.59,1234.63C1185.39,1222.01 1189.63,1171.06 1189.95,1153.79C1168.99,1160.05 1147.84,1167.69 1125.75,1168.69C1107.92,1169.49 1110.85,1150.08 1110.11,1137.73C1109.11,1120.99 1111.17,1104.33 1111.92,1087.61L1113.11,1083.09L1112.31,1080.8C1104.32,1080.22 1050.87,1093.14 1038.45,1095.06C1007.99,1081.4 997.226,1066.24 973.414,1048.85Z" style="fill:rgb(3,76,178);fill-rule:nonzero;"/>
                </g>
                <g transform="matrix(0.325841,0,0,0.325841,7692.684294,-11.683366)">
                    <path d="M1301.38,1228.76C1304.4,1231.99 1307.22,1237.95 1309.29,1241.94C1306.53,1239.68 1299.74,1234.41 1297.74,1232.02C1300.22,1231.05 1300.41,1231.19 1301.38,1228.76Z" style="fill-rule:nonzero;"/>
                </g>
                <g transform="matrix(0.325841,0,0,0.325841,7692.684294,-11.683366)">
                    <path d="M1172.55,1114.52C1180.98,1119.31 1184.4,1122.78 1192.03,1128.88L1190.34,1130.4C1184.25,1125.56 1178.21,1119.86 1172.55,1114.52Z" style="fill-rule:nonzero;"/>
                </g>
                <g transform="matrix(0.325841,0,0,0.325841,7692.684294,-11.683366)">
                    <path d="M597.734,1168.42C614.279,1166.32 648.06,1169.48 664.472,1171.48C790.922,1186.91 942.439,1253.94 1046.87,1324.97C1021.54,1320.35 989.591,1309.58 963.088,1303.4C943.061,1297.81 919.586,1292.76 899.046,1288.26C837.188,1274.71 766.109,1258.95 703.509,1273.22C710.32,1295.59 716.889,1318.04 723.215,1340.56C674.096,1301.21 638.475,1251.5 604.196,1199.25C597.586,1189.17 590.654,1179.84 584.226,1169.51L597.734,1168.42Z" style="fill:white;fill-rule:nonzero;"/>
                </g>
                <g transform="matrix(0.325841,0,0,0.325841,7692.684294,-11.683366)">
                    <path d="M1281.17,1217.76C1282.49,1217.04 1290.48,1214.93 1291.83,1215.23C1294.31,1218.36 1296.61,1221.68 1299.05,1224.83C1295.11,1222.73 1295.48,1225.39 1293.51,1224.74C1288.08,1222.94 1291.18,1218.55 1284.14,1218.64L1282.33,1218.64L1281.17,1217.76Z" style="fill-rule:nonzero;"/>
                </g>
                <g transform="matrix(0.325841,0,0,0.325841,7692.684294,-11.683366)">
                    <path d="M1226.81,1126.53C1226.11,1124.82 1223.73,1120.8 1224.57,1118.99C1227.34,1113.03 1236.98,1123.94 1230.5,1124.37C1229.33,1124.45 1229.61,1124.37 1228.94,1125.3C1229.41,1125.97 1230.36,1125.98 1231.07,1126.29L1231.09,1126.43C1230.48,1127.08 1229.21,1127.12 1228.41,1127.34L1226.81,1126.53Z" style="fill-rule:nonzero;"/>
                </g>
                <g transform="matrix(0.325841,0,0,0.325841,7692.684294,-11.683366)">
                    <path d="M1282.33,1218.64L1284.14,1218.64C1291.18,1218.55 1288.08,1222.94 1293.51,1224.74C1295.48,1225.39 1295.11,1222.73 1299.05,1224.83L1300.18,1226.45C1296.04,1225.57 1295.23,1226.56 1291.22,1226.31C1288.77,1224.33 1284.53,1220.75 1282.33,1218.64Z" style="fill-rule:nonzero;"/>
                </g>
                <g transform="matrix(0.325841,0,0,0.325841,7692.684294,-11.683366)">
                    <path d="M1111.92,1087.61C1104.36,1087.87 1095.06,1082.52 1113.11,1083.09L1111.92,1087.61Z" style="fill-rule:nonzero;"/>
                </g>
                <g transform="matrix(0.325841,0,0,0.325841,7692.684294,-11.683366)">
                    <path d="M1291.22,1226.31C1295.23,1226.56 1296.04,1225.57 1300.18,1226.45L1301.38,1228.76C1300.41,1231.19 1300.22,1231.05 1297.74,1232.02C1295.54,1230.15 1293.37,1228.24 1291.22,1226.31Z" style="fill-rule:nonzero;"/>
                </g>
                <g transform="matrix(0.325841,0,0,0.325841,7692.684294,-11.683366)">
                    <path d="M1407.49,1025.77C1403.37,1030 1399.6,1032.25 1404.42,1024.96L1407.49,1025.77Z" style="fill-rule:nonzero;"/>
                </g>
                <g transform="matrix(0.325841,0,0,0.325841,7692.684294,-11.683366)">
                    <path d="M1340.87,1417.44C1336.31,1419.2 1332.54,1419.15 1339.39,1415.64L1340.87,1417.44Z" style="fill-rule:nonzero;"/>
                </g>
                <g transform="matrix(0.325841,0,0,0.325841,7692.684294,-11.683366)">
                    <path d="M794.078,891.115C792.703,891.384 784.778,892.993 784.254,891.405C784.424,891.042 784.534,891.029 784.913,890.714C788.014,890.925 790.979,890.987 794.078,891.115Z" style="fill-rule:nonzero;"/>
                </g>
            </g>
        </g>
    </g>
</svg>
