<?xml version="1.0" encoding="UTF-8" standalone="no"?>
<!DOCTYPE svg PUBLIC "-//W3C//DTD SVG 1.1//EN" "http://www.w3.org/Graphics/SVG/1.1/DTD/svg11.dtd">
<svg width="100%" height="100%" viewBox="0 0 399 490" version="1.1" xmlns="http://www.w3.org/2000/svg" xmlns:xlink="http://www.w3.org/1999/xlink" xml:space="preserve" xmlns:serif="http://www.serif.com/" style="fill-rule:evenodd;clip-rule:evenodd;stroke-linejoin:round;stroke-miterlimit:2;">
    <g transform="matrix(1,0,0,1,-56.891007,-11.147595)">
        <g transform="matrix(1,0,0,1,-7768.404239,0)">
            <g transform="matrix(1.961135,0,0,1.961135,7033.604658,-125.612452)">
                <path d="M510.99,69.81C517.32,69.19 524.28,72.59 530.55,73.81C535.7,74.61 540.23,78.64 543.21,82.72C546.32,87.37 545.32,91.8 545.51,97.04C544.97,101.85 550.15,104.9 553.09,107.95C556.81,114.55 560.76,120.13 560.51,128.09C560.86,132.92 562.92,140.93 568.94,141.04C572.26,141.62 575.83,141.2 579.07,142.06C580.65,143.22 582.21,144.91 583.18,146.62C583.9,149.5 583.83,152.7 583.43,155.63C582.31,160.32 578,163.01 573.68,164.4C568.29,166.31 562.54,164.99 557.01,165.57C552.52,167.63 551.65,173.16 548.63,176.61C543.62,182.08 537.82,186.54 531.43,190.27C535.55,193.95 538.88,198.34 543.21,201.81C546.68,204.7 547.61,208.48 549.8,212.27C551.17,214.69 552.29,217.14 552.47,219.97C552.79,224.28 553.86,228.67 553.62,232.95C553.55,235.39 552.1,237.82 551.19,240.07C549.63,243.29 548.44,247.28 545.6,249.57C541.19,253.05 537.3,256.91 532.28,259.55C530.19,260.86 533.7,262.12 534.5,262.99C537.09,259.87 538.97,256.56 542.5,254.46C545.53,252.68 548.65,250.65 552.02,249.62C557.98,248.43 563.54,249.74 569.03,252.01C571.01,250.12 572.94,248.19 574.85,246.22C572.19,245.81 569.53,245.48 566.89,245.01C564.64,244.43 562.41,243.84 560.19,243.18C564.03,239.68 568.14,236.51 572.03,233.07C577.31,228.39 581.41,222.71 584.75,216.52C588.17,210.05 590.19,203.2 593.12,196.55C599.47,204.83 602.61,214.26 605.08,224.27C607.32,230.63 607.26,237.42 605.14,243.81C603.36,251.35 601.59,258.73 598.59,265.9C596.18,262.25 593.72,258.67 590.84,255.37C588.18,259.28 585.18,263.48 583.76,268.02C584.84,273.12 588.06,277.77 587.78,282.96C587.61,288.02 586.79,293.14 585.24,297.96C582.29,301.13 579.81,304.76 576.69,307.73C573.02,311.18 567.75,311.4 563.04,312.02C559.65,312.49 556.56,311.86 553.51,310.37C550.35,308.81 547.04,307.55 543.96,305.86C541.25,304.42 539.94,301.41 538.36,298.93C536.09,299.61 533.88,300.39 531.83,301.59C524.23,306.47 517.09,311.49 512.42,319.44C508.49,314.66 504.39,309.14 499.2,305.69C497.55,304.49 495.97,305.63 494.43,306.42C490.62,308.72 487.48,311.57 483.2,313.1C479.38,314.44 475.45,316.44 471.3,315.64C467.55,314.91 463.87,313.73 460.17,312.78C456.35,311.83 454.34,308.93 451.76,306.23C449.38,303.56 446.59,300.95 445.78,297.33C445.12,293.95 445.32,290.41 444.96,286.99C444.48,282.62 445.8,278.33 446.86,274.13C444.67,271.34 442.44,268.57 440.2,265.82C438.05,262.55 436.12,259.18 433.78,256.03C431.3,258.19 429.65,260.45 428.21,263.41C427.4,264.19 426.59,264.97 425.77,265.74C425.22,264.43 424.68,263.11 424.14,261.79C423.07,259.29 422.16,256.71 420.16,254.8C415.62,251.12 413.88,244.39 414.65,238.77C415.1,235.5 415.12,232.13 415.8,228.9C416.52,226.04 419.37,225.05 420.13,222.33C421.65,217.16 422.97,211.97 424.99,206.97C426.95,203.25 428.98,199.63 431.77,196.45C434.94,205.96 437.94,214.83 444.1,222.94C446.18,225.5 448.38,227.98 450.54,230.48C454.82,235.37 459.7,238.9 464.53,243.3C460,244.73 455.35,245.4 450.69,246.18C453.31,250.31 456.61,253.67 460.3,256.85C466.29,254.85 471.37,251.12 477.42,249.37C475.29,244.28 472.04,239.28 470.98,233.85C470.68,229.91 471.42,225.92 471.26,221.94C471.11,218.27 472.88,215.66 474.13,212.38C475.34,209.38 475.84,206.52 478,204.02C481.1,200.43 484.22,196.88 487.77,193.73C489.94,191.84 491.45,188.95 491.34,186.05C486.86,176.85 480.11,171.13 478.03,161.03C475.52,161.51 474.11,163.4 471.9,164.37C468.67,164.6 465.35,164.12 462.2,163.43C460.38,163.14 459.14,160.9 457.9,159.68C454.2,159.41 450.15,159.34 446.58,158.31C445.8,158.13 445.24,157.75 444.89,157.2C443.28,152.04 443.75,146.82 445.36,141.74C449.19,141.49 453.16,141.36 456.93,140.66C459.29,140.43 460.84,137.52 463.1,137.17C466.95,136.51 470.97,136.66 474.87,136.54C475.54,132.05 475.31,128.01 476.95,123.93C478.56,119.83 480.2,115.74 481.73,111.6C482.37,110.13 482.34,108.79 482.13,107.23C481.61,102.99 481.1,98.89 482.07,94.65C483.68,87.22 488.15,80.78 494.01,76.04C498.86,72.22 504.97,70.65 510.99,69.81Z" style="fill:rgb(25,47,89);fill-rule:nonzero;"/>
                <path d="M507.13,75.4C512.08,74.81 516.86,74.48 521.34,77.04C517.38,79.78 513.58,78.21 509.01,79.02C502.86,79.67 497.42,84.14 494.14,89.19C491.8,92.75 491.72,96.56 490.22,100.36C489.4,101.72 488.14,102.91 487.05,104.06C485.02,91 494.15,77.93 507.13,75.4Z" style="fill:rgb(236,223,67);fill-rule:nonzero;"/>
                <path d="M511.62,86.27C515.25,86.07 518.17,87.56 521.25,89.25C513.75,89.55 506.93,91.88 499.66,93.51C502.69,89.53 506.31,86.22 511.62,86.27Z" style="fill:rgb(236,223,67);fill-rule:nonzero;"/>
                <path d="M512.89,93.48C515.71,93.57 518.76,93.11 521.19,94.83C523.68,96.44 524.56,99.29 525.66,101.89C523.4,101.29 520.53,100.87 518.72,99.31C516.61,97.56 514.74,95.5 512.89,93.48Z" style="fill:rgb(236,223,67);fill-rule:nonzero;"/>
                <path d="M532.36,96.64C535.25,99.95 535.51,103.87 535.6,108.05C531.67,103.48 528.06,98.96 525.57,93.4C527.81,94.22 530.64,94.93 532.36,96.64Z" style="fill:rgb(236,223,67);fill-rule:nonzero;"/>
                <path d="M508.8,96.04C511.11,96.73 512.85,98.75 514.54,100.39C509.36,100.92 504.98,100.82 500.73,97.41C503.24,96.57 506.16,94.96 508.8,96.04Z" style="fill:rgb(236,223,67);fill-rule:nonzero;"/>
                <path d="M538.6,99.48C540.8,100.81 542.9,101.68 543.81,104.29C545.16,107.74 544.15,110.74 543,114.05C539.86,109.58 538.82,104.86 538.6,99.48Z" style="fill:rgb(128,128,128);fill-rule:nonzero;"/>
                <path d="M494.6,102.64C497.9,101.61 500.93,102.33 504.13,103.27C500.3,106.28 496.01,106.65 491.28,106.15C492.21,104.99 493.17,103.22 494.6,102.64Z" style="fill:rgb(236,223,67);fill-rule:nonzero;"/>
                <path d="M553.09,107.95C555.53,110.01 558.67,111.85 560.52,114.47C562.05,118.52 560.8,123.89 560.51,128.09C560.76,120.13 556.81,114.55 553.09,107.95Z" style="fill:rgb(128,128,128);fill-rule:nonzero;"/>
                <path d="M548.35,108.76C549.36,109.95 550.53,111.18 551.25,112.58C552.27,116.21 550.93,119.22 549.07,122.27C548.23,117.8 548.1,113.29 548.35,108.76Z" style="fill:rgb(236,223,67);fill-rule:nonzero;"/>
                <path d="M493.08,110.21C492.7,111.52 492.38,112.84 492.06,114.16C489.36,115.64 486.46,116.37 483.47,117.01C484.56,114.83 485.15,112.69 487.41,111.45C489.17,110.33 491.06,110.26 493.08,110.21Z" style="fill:rgb(236,223,67);fill-rule:nonzero;"/>
                <path d="M493.08,110.21C494.12,110.22 495.17,110.26 496.22,110.31C494.89,111.65 493.52,112.96 492.06,114.16C492.38,112.84 492.7,111.52 493.08,110.21Z" style="fill:rgb(128,128,128);fill-rule:nonzero;"/>
                <path d="M529.51,111.89C530.05,112.94 530.58,113.99 531.11,115.04C529.19,116.91 527.19,118.59 524.91,120.02C525.09,118.54 525.21,117.02 525.57,115.57C526.59,114.14 528.15,112.99 529.51,111.89Z" style="fill:rgb(236,223,67);fill-rule:nonzero;"/>
                <path d="M511.58,112.92C513.49,122.42 511.97,132.52 512.67,142.2C525.3,142.21 537.89,143.88 550.48,144.81C550.45,146.3 550.41,147.79 550.37,149.29C548.34,149.4 546.31,149.51 544.29,149.61C544.03,148.15 543.77,146.69 543.51,145.22C533.19,143.52 522.59,143.27 512.15,142.63C512.15,135.67 512.27,128.85 510.94,121.98C509.15,124.93 507.3,128.1 506.3,131.41C505.24,135.1 505.77,139.41 505.18,143.23C501.75,144.09 498.02,144.04 494.51,144.31C495.81,147.52 496.82,148.85 500.02,150.33C498.42,150.24 496.84,150.08 495.26,149.91C494.78,147.68 494.35,145.44 493.95,143.19C497.61,142.7 501.28,142.48 504.96,142.22C505.22,136.48 505.18,130.73 505.46,124.99C505.6,122.32 505.89,119.34 507.07,116.9C507.84,115.02 509.97,114.04 511.58,112.92Z" style="fill:rgb(128,128,128);fill-rule:nonzero;"/>
                <path d="M489.66,119.75C489.1,121.34 489.04,123.55 487.47,124.46C485.15,126.04 482.33,127.05 479.72,128.04C480.28,126.28 480.74,124.28 481.75,122.73C483.51,120.52 487.11,120.29 489.66,119.75Z" style="fill:rgb(236,223,67);fill-rule:nonzero;"/>
                <path d="M537.29,120.07C538.39,121.32 539.46,122.47 539.9,124.13C541.18,128.84 541.95,133.71 542.9,138.51C536.92,138.66 531.02,138.06 525.07,137.53C524.99,134.7 523.51,130.22 526.54,128.53C530.33,125.88 533.91,123.25 537.29,120.07Z" style="fill:rgb(236,223,67);fill-rule:nonzero;"/>
                <path d="M554.87,121.13C556.64,125.05 555.4,128.46 553.85,132.15C553.68,130.43 553.53,128.71 553.33,126.99C551.55,128.58 549.86,130.25 548.19,131.96C550.49,128.39 552.52,124.66 554.87,121.13Z" style="fill:rgb(236,223,67);fill-rule:nonzero;"/>
                <path d="M510.94,121.98C512.27,128.85 512.15,135.67 512.15,142.63C522.59,143.27 533.19,143.52 543.51,145.22C543.77,146.69 544.03,148.15 544.29,149.61C533.2,150.12 522.07,149.67 510.97,149.82C507.3,149.96 503.72,150.46 500.02,150.33C496.82,148.85 495.81,147.52 494.51,144.31C498.02,144.04 501.75,144.09 505.18,143.23C505.77,139.41 505.24,135.1 506.3,131.41C507.3,128.1 509.15,124.93 510.94,121.98Z" style="fill:rgb(236,223,67);fill-rule:nonzero;"/>
                <path d="M498.56,127.8C499.24,131.17 499.42,134.35 499.27,137.79C497.53,137.73 495.79,137.67 494.06,137.61C494.51,134.13 494.18,128.75 498.56,127.8Z" style="fill:rgb(236,223,67);fill-rule:nonzero;"/>
                <path d="M486.75,129.74C486.63,131.36 486.65,133.09 486.23,134.67C484,137.52 480.76,139.68 477.99,141.98C478.18,140.22 478.27,138.39 478.73,136.68C480.27,133.12 483.42,131.33 486.75,129.74Z" style="fill:rgb(236,223,67);fill-rule:nonzero;"/>
                <path d="M486.35,140.77C486.36,142.65 486.96,145.32 485.83,146.97C483.95,149.94 481.78,152.72 479.91,155.71C479.67,153.35 479.19,150.83 479.52,148.48C480.55,144.88 483.2,142.57 486.35,140.77Z" style="fill:rgb(236,223,67);fill-rule:nonzero;"/>
                <path d="M469.32,141.49C468.78,146.23 468.42,150.94 468.56,155.73C466.85,154.89 465.12,154.1 463.36,153.36C463.24,149.86 463.02,146.11 463.69,142.65C465.46,142.03 467.46,141.78 469.32,141.49Z" style="fill:rgb(236,223,67);fill-rule:nonzero;"/>
                <path d="M556.19,142.31C557.72,142.2 559.22,142.2 560.76,142.19C561.05,145.72 561.38,148.31 559.06,151.32C556.4,148.23 556.01,146.3 556.19,142.31Z" style="fill:rgb(236,223,67);fill-rule:nonzero;"/>
                <path d="M458.42,145.61C458.42,146.97 458.43,148.33 458.45,149.69C455.37,149.81 452.29,149.85 449.2,149.83C449.24,148.72 449.28,147.61 449.32,146.51C452.37,146.3 455.39,146.01 458.42,145.61Z" style="fill:rgb(236,223,67);fill-rule:nonzero;"/>
                <path d="M474.43,144.8C474.95,146.32 475.45,147.86 475.95,149.39L474.06,149.73C474.18,148.09 474.29,146.44 474.43,144.8Z" style="fill:rgb(128,128,128);fill-rule:nonzero;"/>
                <path d="M566.35,146.27C569.74,146.35 572.96,145.29 575.15,148.51C572.26,149.35 569.59,149.71 566.58,149.56C566.46,148.46 566.38,147.37 566.35,146.27Z" style="fill:rgb(236,223,67);fill-rule:nonzero;"/>
                <path d="M487.41,152.68C487.55,154.99 487.62,157.29 487.71,159.6C486.1,160.39 484.48,161.18 482.86,161.95C483.53,158.11 484.52,155.38 487.41,152.68Z" style="fill:rgb(236,223,67);fill-rule:nonzero;"/>
                <path d="M533.33,163.29C531.71,167.02 528.71,168.37 525.29,170.06C525.3,168.14 525.31,166.22 525.39,164.3C527.99,163.56 530.65,163.38 533.33,163.29Z" style="fill:rgb(128,128,128);fill-rule:nonzero;"/>
                <path d="M543.71,162.83C543.41,164.1 543.1,165.37 542.79,166.64C540.48,166.62 538.18,166.6 535.88,166.53C538.4,164.51 540.55,163.55 543.71,162.83Z" style="fill:rgb(128,128,128);fill-rule:nonzero;"/>
                <path d="M511.32,170.03C511.73,172.63 512.86,176.1 511.66,178.55C509.86,180.32 507.37,181.47 505.22,182.77C505.26,178.83 505.34,174.89 505.47,170.94C507.42,170.62 509.37,170.3 511.32,170.03Z" style="fill:rgb(236,223,67);fill-rule:nonzero;"/>
                <path d="M543.1,171.18C541.03,172.41 538.79,173.85 536.45,174.45C533.66,175.03 530.46,174.12 527.73,173.54C532.32,169.53 537.5,169.85 543.1,171.18Z" style="fill:rgb(236,223,67);fill-rule:nonzero;"/>
                <path d="M534.05,179.21C532.07,180.26 530.01,181.46 527.85,182.12C524.62,182.28 521.09,180.53 518.21,179.17C523.5,175.82 528.59,177.4 534.05,179.21Z" style="fill:rgb(236,223,67);fill-rule:nonzero;"/>
                <path d="M514,182.73C516.92,182.73 519.99,183.98 522.67,185.05C520.84,186.24 518.95,187.72 516.87,188.43C513.8,187.76 510.85,186.34 507.92,185.22C509.8,184.24 511.89,183 514,182.73Z" style="fill:rgb(236,223,67);fill-rule:nonzero;"/>
                <path d="M504.04,189.29C508.64,188.92 513.15,191.33 517.13,193.36C513.41,192.82 509.8,192.22 506.03,192.79C503.17,193.23 500.49,192.63 497.75,191.79C499.79,190.57 501.56,189.33 504.04,189.29Z" style="fill:rgb(236,223,67);fill-rule:nonzero;"/>
                <path d="M493.06,195.72C494.71,195.56 496.44,195.78 498.1,195.9C497.33,197.17 496.55,198.44 495.77,199.71C492.82,199.73 489.87,199.72 486.91,199.6C488.79,198.12 490.74,196.45 493.06,195.72Z" style="fill:rgb(236,223,67);fill-rule:nonzero;"/>
                <path d="M532.98,197.76C534.01,199.34 535.5,201.18 535.54,203.12C535.74,206.38 534.69,209.89 533.78,213.02C533.1,210.22 532.08,207.84 532.92,204.97C533.62,202.54 533.31,200.22 532.98,197.76Z" style="fill:rgb(128,128,128);fill-rule:nonzero;"/>
                <path d="M512.13,202.28C512.96,215.99 512.48,229.82 512.51,243.55L511.74,243.79C512.12,236.19 511.63,228.6 511.96,221C512.17,216.28 511.95,211.59 511.46,206.89C508.11,208.6 503.63,210.45 503.78,214.93C503.68,224.69 501.96,234.19 502.77,243.91C503.53,244.37 504.29,244.83 505.05,245.29C504.12,245.48 503.18,245.67 502.25,245.85C502.19,234.04 502.77,222.28 503.61,210.51C503.5,206.46 509.35,204.24 512.13,202.28Z" style="fill:rgb(128,128,128);fill-rule:nonzero;"/>
                <path d="M492.41,204.18C488.43,208.03 483.73,208.54 478.74,210.37C479.98,208.56 481.22,206.43 482.93,205.03C485.84,203.27 489.23,203.73 492.41,204.18Z" style="fill:rgb(236,223,67);fill-rule:nonzero;"/>
                <path d="M540.92,205.2C542.42,208.33 543.82,211.2 542.73,214.76C542.32,216.96 540.73,217.86 539.19,219.23C537.66,214.11 539.68,210.11 540.92,205.2Z" style="fill:rgb(236,223,67);fill-rule:nonzero;"/>
                <path d="M424.99,206.97C422.97,211.97 421.65,217.16 420.13,222.33C419.37,225.05 416.52,226.04 415.8,228.9C415.12,232.13 415.1,235.5 414.65,238.77C413.88,244.39 415.62,251.12 420.16,254.8C422.16,256.71 423.07,259.29 424.14,261.79C422.47,262.76 420.79,263.9 418.97,264.57C417.53,264.94 415.86,264.58 414.39,264.48C414.63,263.16 414.87,261.83 415.1,260.51C413.23,258.44 411.54,256.25 409.94,253.97C410.93,253.81 411.91,253.65 412.9,253.49C413.28,252.46 413.65,251.42 414.03,250.38C412.6,250.66 411.17,250.95 409.75,251.24C408.08,248.07 405.82,245.39 403.69,242.54C405.59,242.83 407.47,243.16 409.35,243.52C410.15,238.72 409.42,234.09 409.51,229.3C411.22,227.29 413.3,226.08 414.56,223.68C417.47,217.74 421.83,212.78 424.99,206.97Z" style="fill:rgb(128,128,128);fill-rule:nonzero;"/>
                <path d="M511.46,206.89C511.95,211.59 512.17,216.28 511.96,221C511.63,228.6 512.12,236.19 511.74,243.79C509.54,244.38 507.28,244.81 505.05,245.29C504.29,244.83 503.53,244.37 502.77,243.91C501.96,234.19 503.68,224.69 503.78,214.93C503.63,210.45 508.11,208.6 511.46,206.89Z" style="fill:rgb(236,223,67);fill-rule:nonzero;"/>
                <path d="M527.31,211.99C531.35,217.51 535.28,222.68 534.79,229.95C534.55,234.17 531.73,236.91 528.51,239.24C526.89,230.34 527.3,221.01 527.31,211.99Z" style="fill:rgb(236,223,67);fill-rule:nonzero;"/>
                <path d="M485.23,212.98C483.22,218.12 479.19,220.33 474.7,222.97C475.38,220.51 475.75,217.54 477.76,215.77C479.74,213.86 482.66,213.53 485.23,212.98Z" style="fill:rgb(236,223,67);fill-rule:nonzero;"/>
                <path d="M593.74,212.84C593.98,221.01 592.04,228.82 589.42,236.49C586.3,244.32 582.72,251.76 577.3,258.28C575.74,258.02 574.17,257.73 572.6,257.53C577.54,252.13 582.03,246.78 584.51,239.79C581.1,239.7 577.68,239.72 574.26,239.71C578.36,235.91 582.25,232.05 585.46,227.44C588.79,222.8 590.95,217.78 593.74,212.84Z" style="fill:rgb(236,223,67);fill-rule:nonzero;"/>
                <path d="M430.69,213.35C433.74,217.03 435.15,221.3 437.65,225.3C440.98,230.86 445.41,235.26 449.95,239.81C446.61,239.82 443.28,239.8 439.94,239.85C443.5,248.34 449.4,254.91 455.8,261.34C454.79,262.48 453.8,263.63 452.8,264.78C450.31,262.37 447.88,259.98 445.91,257.11C441.28,250.17 436.84,243.53 434.72,235.33C433,228.28 430.25,220.65 430.69,213.35Z" style="fill:rgb(236,223,67);fill-rule:nonzero;"/>
                <path d="M547.13,214.74C548.03,217.29 549.36,220.56 548.18,223.21C546.98,225.75 544.21,227.72 542.09,229.49C541.46,228.66 540.82,227.83 540.18,227.01C542.89,223.12 544.86,218.87 547.13,214.74Z" style="fill:rgb(236,223,67);fill-rule:nonzero;"/>
                <path d="M492.8,217.42C494,217.41 495.2,217.4 496.41,217.4C497.06,225.87 496.82,234.53 495.9,242.96C493.2,238.82 491.05,234.6 490.26,229.65C489,225.34 490.54,221.09 492.8,217.42Z" style="fill:rgb(236,223,67);fill-rule:nonzero;"/>
                <path d="M482.81,223.06C481.23,228.17 479.03,232.45 475.95,236.82C475.45,233.79 474.76,231.1 476.25,228.19C477.51,225.4 480.28,224.39 482.81,223.06Z" style="fill:rgb(236,223,67);fill-rule:nonzero;"/>
                <path d="M550.03,227.41C548.56,230.12 547.33,233.08 545.47,235.53C543.46,238.67 537.89,238.11 534.7,238.48C537.02,235.85 539.93,234.47 543.07,233.07C545.97,231.8 547.89,229.63 550.03,227.41Z" style="fill:rgb(236,223,67);fill-rule:nonzero;"/>
                <path d="M483.66,232.92L483.68,233.53L483.68,234C483.55,236.41 483.68,238.97 483.06,241.31C481.94,242.4 480.46,243.21 479.14,244.03C479.62,239.85 480.55,235.96 483.66,232.92Z" style="fill:rgb(128,128,128);fill-rule:nonzero;"/>
                <path d="M551.19,240.07C550.53,242.66 550.02,245.3 549.48,247.92C554.99,247.78 560.09,248.32 565.47,249.39C568.11,250.04 570.05,248.87 572.38,247.86C570.58,246.85 568.77,245.87 566.89,245.01C569.53,245.48 572.19,245.81 574.85,246.22C572.94,248.19 571.01,250.12 569.03,252.01C563.54,249.74 557.98,248.43 552.02,249.62C548.65,250.65 545.53,252.68 542.5,254.46C538.97,256.56 537.09,259.87 534.5,262.99C533.7,262.12 530.19,260.86 532.28,259.55C537.3,256.91 541.19,253.05 545.6,249.57C548.44,247.28 549.63,243.29 551.19,240.07Z" style="fill:rgb(236,223,67);fill-rule:nonzero;"/>
                <path d="M539.64,243.74C537.54,244.8 535.33,246.1 533.01,246.59C530.81,246.16 528.72,244.47 526.91,243.2C531.78,241.97 534.9,242.07 539.64,243.74Z" style="fill:rgb(236,223,67);fill-rule:nonzero;"/>
                <path d="M517.94,246.42C523.64,245.7 527.83,248.4 532.12,251.7C529.69,251.55 527.27,251.31 524.85,251.04C525.37,252.09 525.89,253.14 526.42,254.2C523.53,251.85 519.94,249.55 517.94,246.42Z" style="fill:rgb(236,223,67);fill-rule:nonzero;"/>
                <path d="M507.04,248.44C508.83,248.38 510.75,248.27 512.5,248.66C514.32,249.33 515.86,250.95 517.29,252.22C516.22,252.41 515.14,252.59 514.06,252.77C514.19,253.94 514.32,255.12 514.44,256.3C511.57,253.96 508.88,251.73 507.04,248.44Z" style="fill:rgb(236,223,67);fill-rule:nonzero;"/>
                <path d="M494.91,249.36C497.07,249.5 499.81,249.26 501.74,250.35C504.71,251.99 507.11,254.98 509.13,257.66C507.41,257.99 505.31,258.79 503.56,258.36C500.19,256.03 497.51,252.51 494.91,249.36Z" style="fill:rgb(236,223,67);fill-rule:nonzero;"/>
                <path d="M483.9,251.24C485.97,251.33 488.29,251.12 490.28,251.76C492.69,252.97 494.64,255.37 496.49,257.3C494.69,257.66 492.89,258.05 491.1,258.45C488.73,256.01 486.26,253.68 483.9,251.24Z" style="fill:rgb(236,223,67);fill-rule:nonzero;"/>
                <path d="M562.66,254.86C561.74,255.66 560.82,256.46 559.89,257.26C557.22,255.94 554.56,254.62 551.97,253.14C555.95,251.91 559.05,253.12 562.66,254.86Z" style="fill:rgb(128,128,128);fill-rule:nonzero;"/>
                <path d="M477.92,253.76C482.04,254.51 484.68,257.62 487.36,260.55C484.82,260.43 481.65,260.94 479.43,259.56C476.91,258.23 474.5,256.68 472.08,255.18C473.97,254.59 475.95,253.95 477.92,253.76Z" style="fill:rgb(236,223,67);fill-rule:nonzero;"/>
                <path d="M433.78,256.03C436.12,259.18 438.05,262.55 440.2,265.82C437.52,263.79 434.85,261.79 432.39,259.49C431.14,260.98 429.74,262.22 428.21,263.41C429.65,260.45 431.3,258.19 433.78,256.03Z" style="fill:rgb(128,128,128);fill-rule:nonzero;"/>
                <path d="M547.07,256.74C550.69,255.75 553.52,258.22 556.28,260.13C550.97,260.34 545.79,261.28 540.52,261.75C542.41,259.47 543.96,257.33 547.07,256.74Z" style="fill:rgb(236,223,67);fill-rule:nonzero;"/>
                <path d="M572.6,257.53C574.17,257.73 575.74,258.02 577.3,258.28C575.07,261.05 572.57,263.52 570,265.97C568.67,265.31 567.34,264.65 566.02,263.98C568.13,261.73 570.31,259.59 572.6,257.53Z" style="fill:rgb(128,128,128);fill-rule:nonzero;"/>
                <path d="M468.94,258.72C472.8,259.47 475.34,261.87 478.07,264.48C472.47,264.43 467.05,263.25 461.72,261.63C463.85,260.16 466.18,258.34 468.94,258.72Z" style="fill:rgb(236,223,67);fill-rule:nonzero;"/>
                <path d="M511.84,265.37C512.45,269.23 512.59,273.11 512.56,277C512.53,284.7 512.66,292.4 512.36,300.07C510.79,298.54 509.26,296.97 507.69,295.44C508.85,295.55 510.02,295.67 511.18,295.78C511.55,288.5 511.62,281.26 511.1,273.99C506.28,271.56 501.24,271.35 495.97,271.51C497.56,270.19 499.23,268.29 501.24,267.67C504.68,266.6 508.32,266.15 511.84,265.37Z" style="fill:rgb(128,128,128);fill-rule:nonzero;"/>
                <path d="M467,267.95C464.06,269.75 461.81,270.58 458.36,270.78C457.63,269.44 456.9,268.1 456.11,266.79C460.15,265.84 463.24,266.29 467,267.95Z" style="fill:rgb(236,223,67);fill-rule:nonzero;"/>
                <path d="M546.1,265.61C543.84,271.02 539.44,273.48 534.98,276.83C535.4,274.05 535.16,271.34 537.16,269.13C539.48,266.41 542.66,265.68 546.1,265.61Z" style="fill:rgb(236,223,67);fill-rule:nonzero;"/>
                <path d="M456.11,266.79C456.9,268.1 457.63,269.44 458.36,270.78C456.51,270.99 454.65,271.23 452.8,271.45C453.86,269.88 454.92,268.25 456.11,266.79Z" style="fill:rgb(128,128,128);fill-rule:nonzero;"/>
                <path d="M495.97,271.51C501.24,271.35 506.28,271.56 511.1,273.99C511.62,281.26 511.55,288.5 511.18,295.78C510.02,295.67 508.85,295.55 507.69,295.44C504.34,292.26 500.3,289.81 496.19,287.74C487.46,283.27 478.18,282.39 469.82,276.9C471.9,275.12 473.61,273.34 476.44,272.85C479.59,272.38 482.86,272.53 486.03,272.54C489.64,272.46 492.67,273.42 495.97,271.51Z" style="fill:rgb(236,223,67);fill-rule:nonzero;"/>
                <path d="M459.75,274.96C456.37,278.85 452.4,281.89 448.13,284.72C448.73,282.42 449.09,279.6 450.89,277.9C453.02,275.59 456.84,275.5 459.75,274.96Z" style="fill:rgb(236,223,67);fill-rule:nonzero;"/>
                <path d="M544.88,274.92C544.82,278.42 543.97,280.8 542.29,283.8C540.95,283.56 539.6,283.32 538.26,283.09C538.47,285.05 538.66,287.02 538.78,288.99C537.83,287.55 536.11,286.21 536.57,284.3C537.39,279.56 540.71,276.81 544.88,274.92Z" style="fill:rgb(236,223,67);fill-rule:nonzero;"/>
                <path d="M584.02,280.45C583.27,282.92 582.61,285.95 580.95,287.97C579.62,289.56 576.84,289.64 574.95,290.06C576.71,286.27 579.33,283.7 582.71,281.38C583.15,281.06 583.58,280.75 584.02,280.45Z" style="fill:rgb(128,128,128);fill-rule:nonzero;"/>
                <path d="M457.12,285.01C455.33,289.17 452.42,292.38 449.61,295.85C449.4,293.26 449.05,291 450.75,288.76C452.19,286.2 454.48,285.7 457.12,285.01Z" style="fill:rgb(236,223,67);fill-rule:nonzero;"/>
                <path d="M547.31,284.04C550.11,289.35 546.93,294.4 546.1,299.8C545.32,299.61 544.55,299.41 543.77,299.21C543.45,296.4 542.89,293.21 543.5,290.42C544.06,287.98 545.84,286 547.31,284.04Z" style="fill:rgb(236,223,67);fill-rule:nonzero;"/>
                <path d="M463.94,288.2C468.81,290.26 474.25,292.2 478.27,295.7C475.71,296.22 472.3,297.11 469.78,296.1C466.62,294.67 465.1,291.26 463.94,288.2Z" style="fill:rgb(236,223,67);fill-rule:nonzero;"/>
                <path d="M552.08,290.74C554.24,293.23 555.54,295.74 556.56,298.87C555.23,300.93 553.85,302.63 551.83,304.05C551.2,299.53 551.15,295.23 552.08,290.74Z" style="fill:rgb(128,128,128);fill-rule:nonzero;"/>
                <path d="M459.51,291.94C459.59,294.05 459.64,296.16 459.7,298.28C458.91,298.32 458.12,298.35 457.33,298.39C457.91,299.49 458.62,300.58 459.03,301.76C459.03,302.87 458.6,304.02 458.37,305.1C457.74,304.88 457.1,304.66 456.47,304.44C456.15,302.49 455.48,300.38 455.68,298.41C456.37,296.07 458.09,293.89 459.51,291.94Z" style="fill:rgb(128,128,128);fill-rule:nonzero;"/>
                <path d="M567.94,295.66C571.02,295.64 574.13,295.74 577.21,295.91C576.32,296.81 575.44,297.75 574.47,298.55C571.93,299.36 569.75,297.11 567.94,295.66Z" style="fill:rgb(236,223,67);fill-rule:nonzero;"/>
                <path d="M559.93,296.42C565.03,298.42 568.82,302.37 573.94,304.37C571.2,304.85 568.05,305.95 565.29,305.49C561.35,303.82 560.59,300.24 559.93,296.42Z" style="fill:rgb(236,223,67);fill-rule:nonzero;"/>
                <path d="M585.24,297.96C584.44,300.81 583.74,303.49 581.67,305.73C578.42,309.8 573.72,310.93 569.05,314.04C566.78,315.71 563.56,314.75 560.94,314.53C555.45,313.93 551.13,310.8 545.66,309.05C541.28,307.72 538.63,304.62 535.8,301.26C534.48,301.36 533.15,301.45 531.83,301.59C533.88,300.39 536.09,299.61 538.36,298.93C539.94,301.41 541.25,304.42 543.96,305.86C547.04,307.55 550.35,308.81 553.51,310.37C556.56,311.86 559.65,312.49 563.04,312.02C567.75,311.4 573.02,311.18 576.69,307.73C579.81,304.76 582.29,301.13 585.24,297.96Z" style="fill:rgb(128,128,128);fill-rule:nonzero;"/>
                <path d="M556.56,298.87C557.36,301.14 558.12,303.42 558.89,305.69C556.39,305.48 554.15,305.04 551.83,304.05C553.85,302.63 555.23,300.93 556.56,298.87Z" style="fill:rgb(128,128,128);fill-rule:nonzero;"/>
                <path d="M465.95,300C466.27,301.59 466.48,303.2 466.87,304.78C468.88,307.43 471.77,309.42 474.09,311.8C471.79,311.43 469.05,311.57 467.4,309.62C465.24,307.11 464.91,303.05 465.95,300Z" style="fill:rgb(236,223,67);fill-rule:nonzero;"/>
                <path d="M475.15,302.01C477.95,303.65 480.45,305.68 482.92,307.77C481.92,308.13 480.92,308.48 479.92,308.83C478.24,306.61 476.58,304.4 475.15,302.01Z" style="fill:rgb(128,128,128);fill-rule:nonzero;"/>
            </g>
        </g>
    </g>
</svg>
