<?xml version="1.0" encoding="UTF-8" standalone="no"?>
<!DOCTYPE svg PUBLIC "-//W3C//DTD SVG 1.1//EN" "http://www.w3.org/Graphics/SVG/1.1/DTD/svg11.dtd">
<svg width="100%" height="100%" viewBox="0 0 512 512" version="1.1" xmlns="http://www.w3.org/2000/svg" xmlns:xlink="http://www.w3.org/1999/xlink" xml:space="preserve" xmlns:serif="http://www.serif.com/" style="fill-rule:evenodd;clip-rule:evenodd;stroke-linejoin:round;stroke-miterlimit:2;">
    <g transform="matrix(1,0,0,1,-614,-2456.807578)">
        <g id="Cougar-Lion" serif:id="Cougar Lion" transform="matrix(1,0,0,1,-7154.404239,2456.807578)">
            <rect x="7768.404" y="0" width="512" height="512" style="fill:none;"/>
            <g transform="matrix(0.518983,0,0,0.518983,7758.309819,-10.168163)">
                <path d="M402.04,56.9C417.47,58.09 432.73,60.95 447.52,65.47C463.67,69.96 479.37,76.54 493.68,85.3C500.7,89.52 506.58,94.88 512.92,99.97C519.4,93.91 526.24,88.35 533.97,83.95C554.59,71.61 577.43,64.64 600.85,59.82C613.73,57.65 627.35,55.54 640.32,57.67C648.98,59.48 654.78,68.32 653.24,77.01C652.11,83.89 647.39,87.82 642.31,91.98C650.5,90.61 658.69,89.47 666.96,88.76C674.49,88.2 681.9,89.35 689.3,90.65C712.48,94.92 735.12,102.18 756.94,111.01C761.71,112.96 766.95,114.54 770.12,118.91C775.24,125.65 774.4,136.32 767.6,141.6C762.37,145.31 755.05,146.52 749.05,148.72C755.28,150.11 761.45,151.42 767.49,153.55C771.46,155.3 774.19,152.52 778.06,151.53C778.26,153.53 778.38,155.55 778.54,157.55C783.36,159.6 789.07,161.48 793.05,164.95C798.12,169.34 799.44,176.93 797.18,183.08C796.02,186.2 793.4,188.68 791.21,191.13C793.29,191.41 795.75,192.2 797.81,191.79C800.44,190.56 802.45,189.04 805.53,189.23C809.23,188.83 811.41,191.08 814.39,192.8C813.65,193.93 812.9,195.06 812.15,196.2C816.05,197.27 819.96,198.27 823.79,199.59C824.6,197.6 825.14,193.83 827.25,192.9C832,192.19 834.48,195.67 836.32,199.46C837.73,199.45 839.14,199.48 840.55,199.48C840.26,200.51 839.87,201.48 839.4,202.41C838.09,203.32 836.37,203.67 834.89,204.24C837.57,206.85 840.52,209.21 843.07,211.93C846.37,215.42 848.01,220.04 849.62,224.45C850.64,227.4 851.88,229.98 851.96,233.15C852.34,244.12 852.99,254.57 852.29,265.61C851.34,270.54 850.5,275.45 850.05,280.46C853.3,279.03 856.61,277.31 860.25,277.44C864.41,277.34 867.99,279.35 871.3,281.67C878.98,287.21 885.15,294.57 891.33,301.68C895.42,306.39 898.85,311.54 902.29,316.73C912.42,331.45 919.89,348.17 926.25,364.81C927.64,368.51 929.02,371.88 928.84,375.93C928.69,382.52 924.08,388.88 917.72,390.79C914.36,391.84 910.33,391.39 906.82,391.29C906.76,392.35 906.69,393.42 906.61,394.48C905.36,394.53 904.11,394.57 902.85,394.62C907.48,400.42 912.52,405.85 916.92,411.83C918.68,411.58 920.44,411.34 922.2,411.11C921.73,412.98 921.06,414.83 920.79,416.74C922.12,420.15 925.86,422.85 927.72,425.91C928.93,428.2 929.77,430.67 931.07,432.93C937.78,444.62 944.12,456.28 949.26,468.77C955.07,481.94 959.57,495.58 963.68,509.36C964.67,512.89 964.99,516.51 964.05,520.09C962.4,526.27 956.45,531.17 950.03,531.41C946.34,531.56 942.79,530.37 939.3,529.34C938.05,531.8 936.9,534.91 934.81,536.77C932.28,538.6 927.26,537.7 925.3,540.33C925.29,542.86 925.98,545.41 925.91,547.92C925.63,550.53 924.17,552.83 924.35,555.45C924.48,557.35 924.71,559.58 925.75,561.21C927.85,563.28 930.55,564.88 932.92,566.63C932.6,568.7 932.4,570.77 932.35,572.87C930.87,573.57 929.36,574.19 927.88,574.88C929.18,575.49 930.48,576.11 931.76,576.76C930.65,578.01 929.52,579.25 928.37,580.46C930.17,592.39 931.49,604.3 933.88,616.13C936.23,636.05 941.83,655.91 948.12,674.93C949.52,679.12 951.59,683.66 951.88,688.07C952.2,691.93 951.21,695.82 949.06,699.04C946.45,703.03 941.45,705.39 936.8,705.78C932.06,706.16 927.8,704.58 923.75,702.27C909.55,693.89 896.74,683.78 884.39,672.92C886.13,681.51 887.7,690.23 888.38,698.97C888.66,711.71 885.41,724.42 879.93,735.88C874.56,748.39 868.91,760.77 863.07,773.07C862.14,774.82 862.55,776.46 862.83,778.31C859.68,781.5 856.84,784.85 854.98,788.98C847.4,804.26 839.63,819.42 831.36,834.34C824.14,847.84 817.41,860.86 808.29,873.3C802.69,880.28 791.6,880.93 784.97,875.02C780.35,871.27 778.71,865.83 778.67,860.04C778.58,848.97 779.07,837.88 778.67,826.81C766.91,844.76 754.39,862.11 740.32,878.33C736.23,882.75 730.8,883.93 725.01,884.3C718.03,885.01 710.33,884.79 704.33,880.71C700.18,877.8 698.49,873.67 696.47,869.23C693.77,874.01 691.52,878.71 686.61,881.62C680.75,885.36 674.11,883.59 668.08,887.11C667.25,886.25 666.45,885.36 665.54,884.59C661.48,883.76 658.85,885.85 655.17,886.67C653.36,886.1 651.61,885.08 649.76,884.65C647.72,884.41 645.61,884.54 643.56,884.57C643.5,886.07 643.46,887.58 643.41,889.08C641.77,887.65 640.18,885.95 638.29,884.89C633.87,884.34 629.48,885.15 625.07,883.99C623.05,883.79 619.84,882.35 618.39,884.36C614.45,888.44 611.12,893.08 607.27,897.26C603.12,902.21 598.23,906.14 593.42,910.41C589.68,913.58 585.26,917.18 580.48,918.51C574.92,919.84 569.87,916.91 565.18,914.33C556.3,927.85 545.9,940.14 535.37,952.38C531.73,956.56 528.12,961.29 523.96,964.95C519.02,969.52 510.91,970.16 505.11,966.92C500.97,964.5 497.7,960.03 494.56,956.45C489.46,950.17 483.62,944.66 478.99,938C472.81,930.16 466.82,922.35 461.17,914.12C457.56,916.19 454.32,918.2 450.03,918.47C446.23,918.78 442.73,917.5 439.6,915.44C432.97,911.13 427.02,905.14 421.48,899.52C416.14,894.13 411.37,888.28 406.76,882.28C405.65,882.48 404.55,882.69 403.44,882.9C405.57,885.35 406.41,886.82 406.55,890.19C403.75,889.18 401,888.04 398.2,887.01C397.05,891.06 397.14,894.97 397.52,899.12C392.82,898.56 390.17,894.99 385.73,893.74C385.55,897.12 386.48,900.24 383.79,902.86C382.46,904.61 379.03,905.36 377.78,903.19C376.03,900.78 373.67,897.61 375.49,894.6C376.57,891.78 381.32,892.39 383.82,891.63C381.9,889.21 379.89,886.6 377.46,884.68C372.05,884.06 366.46,884.65 361,884.49C353.95,884.28 347.3,885.6 340.83,882.22C335.34,879.41 332.15,874.66 329.62,869.24C327.68,873.76 325.99,877.9 321.78,880.79C315.71,885.13 307.05,884.6 299.95,884.32C293.65,884 288.22,881.75 284.15,876.84C270.87,860.97 258.63,844.32 247.36,826.96C247.09,837.3 247.36,847.67 247.37,858C247.31,862.8 247.12,867.33 244.6,871.56C239.09,880.4 225.05,881.9 218.15,873.86C212.2,866.3 207.7,857.49 202.72,849.27C190.19,826.57 178.09,803.63 166.57,780.4C165.5,778.67 164.3,775.53 162.05,775.22C159.41,774.56 156.71,773.88 154.02,773.42C150.47,773.11 146.89,773.23 143.34,772.79C146.54,770.23 150.52,768.6 154.39,767.35C156.51,766.69 158.57,767.49 160.63,767.98C159.05,764.95 157.88,761.72 156.22,758.75C154.82,756.25 152.28,755.03 149.93,753.57C150.88,753.15 151.84,752.73 152.79,752.31C149.87,746.56 148.05,740.42 145.48,734.53C142.48,727.51 139.86,720.41 138.05,712.98C137.12,706.17 138.52,698.51 136.79,691.82C137.68,689.82 138.95,687.41 138.85,685.18C138.37,684.06 137.74,683.02 137.08,681.99C138,682.08 138.91,682.16 139.83,682.23C140.45,679.1 141.03,675.97 141.58,672.82C139.23,675.07 136.99,677.42 134.63,679.66C131.56,682.58 127.83,684.73 124.34,687.34C118.76,691.49 113.21,695.64 107.32,699.34C102.42,702.43 98.03,705.9 92.03,706.34C84.56,707.01 76.85,702.69 74.63,695.31C72.74,689.99 73.95,684.99 75.85,679.9C83.57,658.83 89.01,637.13 92.36,614.95C94.27,601.94 96.45,588.93 97.89,575.86C95.17,575.54 92.47,575.11 89.77,574.61C90.02,571.03 90.44,567.67 93.33,565.2C95.41,565.01 97.61,565.38 99.68,565.6C100.43,560.86 101,556.09 101.62,551.33C102.58,545.84 104.03,540.45 104.79,534.92C105.88,528.95 105.21,523.52 108.31,518.06C107.62,516.13 107.01,514.19 106.45,512.22C107.66,512.6 108.86,512.99 110.06,513.39C111.55,508.11 113.27,502.93 115.39,497.85C105.98,507.42 97.48,517.55 88.63,527.63C85.85,530.95 82,531.55 77.9,531.8C70.59,532.09 62.96,526.86 61.42,519.52C59.41,513.14 63.08,506.02 64.83,499.87C69.78,483.14 76.38,466.92 84.46,451.46C85.3,449.73 86.32,447.9 86.68,446C86.41,444.25 85.54,442.54 84.94,440.88C85.26,440.35 85.59,439.82 85.91,439.29C87.22,439.83 88.53,440.39 89.85,440.93C97.41,427.99 105.51,415.46 114.87,403.75C119.27,398.9 123.32,393.78 127.74,388.96C123.16,389.91 118.63,391.66 113.99,392.19C110.4,391.81 106.57,390.46 103.51,388.55C98.93,385.85 96.74,380.12 96.75,375.01C97.18,369.72 99.57,364.43 101.43,359.49C107.34,344.19 114.64,329.45 123.73,315.78C127.69,308.81 133.28,303.35 138.09,297.05C139.6,295.29 139.48,293.42 139.54,291.26C142.09,290.57 144.56,289.75 147.01,288.75C143.66,287.33 140.37,286.18 137.58,283.75C141.13,284.25 144.46,285.42 147.79,286.67C150.71,284.53 153.36,282.21 155.56,279.31C153.9,277.82 152.2,276.37 150.52,274.91C151.44,272.38 151.72,269.74 153.95,268.03C155.33,268.88 156.58,269.95 157.85,270.94C156.34,271.97 154.81,272.97 153.27,273.96C153.7,274.07 154.13,274.18 154.56,274.29C157.2,271.85 159.04,270.63 162.76,270.44C163.05,272.76 163.27,275.09 163.46,277.42C168.01,277.76 171.81,278.66 175.98,280.49C175.35,276.01 174.98,271.43 173.97,267.02C173.69,265.02 171.97,264.53 170.58,263.32C170.88,262.38 171.19,261.42 171.49,260.48C170.44,259.69 169.39,258.91 168.35,258.12C168.62,257.02 168.9,255.93 169.19,254.84C170.43,256.16 171.67,257.47 172.89,258.81C172.73,254.45 172.83,250.32 171.75,246.06C174.47,240.8 173.94,235.64 174.89,229.97C175.72,225 177.23,220.02 179.59,215.56C183.59,209.16 189.6,205.32 196.38,202.35C208.5,197.02 221.62,193.76 234.63,191.5C231.75,188.7 229.08,186.13 227.79,182.19C226.34,177.55 227.07,171.86 229.78,167.8C231.87,164.66 234.89,162.82 238.21,161.19C245.45,157.75 252.85,154.72 260.58,152.55C265.72,151.06 270.96,150.09 276.13,148.77C271.04,146.78 265.52,145.75 260.59,143.42C252.61,139.44 249.9,128.68 253.97,121C256.3,116.43 260.7,114.08 265.26,112.23C274.92,108.46 284.62,104.59 294.47,101.45C313.15,95.59 331.34,90.35 350.97,88.72C361.53,88.24 372.48,90.31 382.9,91.86C378.56,88.19 374.55,84.94 372.71,79.31C369.48,70.32 375.48,59.64 384.87,57.82C390.49,56.92 396.36,56.67 402.04,56.9Z" style="fill:rgb(204,0,34);fill-rule:nonzero;"/>
                <path d="M432.7,78.41C447.67,82.29 462.27,86.71 475.95,94.05C485.08,98.5 493.09,104.61 500.58,111.41C504.73,115.35 508.57,119.56 512.95,123.26C517.64,118.67 521.61,113.78 526.59,109.62C531.59,105.44 536.36,101.35 542.01,98.04C555.71,90.02 570.84,84.47 586.07,80.16C596.22,77.16 606.51,75.37 616.99,73.97C623.53,73.08 630.47,73.43 637.06,73.72C631.36,79.88 624.52,84.65 619.24,91.25C611.42,100.79 601.91,111.28 597.74,123.01C604.08,121.62 609.83,119.06 615.93,116.95C626.7,113.22 637.55,109.88 648.78,107.81C660.65,105.3 673.44,104.25 685.41,106.66C704.36,110.11 722.77,115.5 740.78,122.29C746.06,124.44 751.3,126.01 756.13,129.15C748.88,131.83 741.4,133.62 734.04,135.96C722.64,139.63 711.39,143.38 700.53,148.5C691.66,152.72 683.29,157.22 675.86,163.74C681.38,164.47 686.75,163.62 692.27,163.49C700.55,163.41 708.71,162.28 717,162.64C739.03,163.57 761.58,166.03 781.12,177.05C762.66,181.05 744.74,186.87 727.41,194.4C717.03,199.35 706.86,204.89 697.21,211.17C693.73,213.39 690.65,216.08 687.7,218.95C689.72,221.01 691.77,223.02 693.89,224.98C707.42,218.19 720.3,210.44 734.94,206.03C741.41,204.13 748.19,202.26 754.96,202.28C761.5,202.31 767.71,201.77 773.91,204.12C782.34,207.2 790.87,212.43 796.17,219.82C800.95,226.24 804.63,233.43 806.81,241.14C811.43,257.13 812.52,274.61 808.81,290.89C806.74,299.28 804,307.62 800.52,315.54C798.06,321.34 794.82,326.96 792.9,332.96C792.31,335.43 791.41,338.49 793.42,340.57C796.68,344.61 800.55,348.15 803.96,352.07C808.44,357.16 812.93,362.17 818.24,366.42C822.04,359.75 825.04,352.7 829.26,346.25C836.4,335.24 843.65,324.49 849.96,312.95C853.5,306.76 856.27,300.24 859.44,293.87C865.55,296.8 868.96,301.64 873.71,306.26C878.32,310.79 882.02,315.98 885.77,321.2C892.89,330.91 898.64,341.44 903.46,352.46C906.6,359.68 910.25,367.19 911.95,374.89C904.74,374.31 899.09,371.09 892.51,368.41C878.27,362.4 862.44,354.67 846.92,353.12C851.38,362.34 858.29,369.27 864.99,377C871.3,384.35 878.15,391.18 884.51,398.48C896.51,412.24 908.08,425.93 917.12,441.86C927.51,458.78 935.95,476.85 942.29,495.66C944.46,502 946.77,508.2 947.87,514.85C943.35,510.1 939.42,504.86 934.85,500.15C931.88,497.11 929.12,493.88 926.28,490.72C916.49,480.49 906.23,470.73 895.52,461.47C891.32,457.55 887.03,453.96 882.37,450.6C860.12,433.26 836.41,417.6 811.35,404.63C802.42,399.69 793.37,394.83 784.08,390.59C783.27,391.65 782.46,392.71 781.64,393.76C779.16,396.93 776.99,400.31 774.35,403.36C772.22,405.97 769.67,408.37 767.84,411.2C767.85,412.31 767.92,413.42 768.05,414.53C779.53,419.06 791.3,423.33 802.5,428.52C811.8,432.9 820.98,437.58 830.08,442.35C843.62,450.8 857.71,459.76 869.26,470.75C880.15,480.67 889.59,491.78 895.68,505.31C899.77,514.04 901.55,522.95 903.57,532.3C906.11,544.33 908.58,556.55 910.2,568.74C911.95,582.49 914.63,596.08 916.2,609.85C918.5,628.85 922.85,647.45 928.11,665.83C930.23,673.6 933.59,681.03 934.93,688.88C925.96,685.51 919.36,679.76 911.68,674.29C907.44,671.25 903.36,667.99 899.53,664.45C891.24,656.74 883.01,648.98 874.79,641.2C868.34,635.14 863.01,628.41 856.04,622.88C856.87,632.66 860.56,642.42 863.05,651.92C865.72,660.84 866.77,670 868.9,679.04C870.18,684.98 871.66,690.93 871.71,696.96C871.75,702.13 872.02,707.76 870.82,712.8C868.88,721.79 864.85,729.82 861.11,738.18C855.41,750.62 850.23,762.88 843.75,774.78C834.51,793.65 824.91,812.42 814.75,830.81C808.93,841.34 803.37,852.81 795.59,862.04C795.2,847.03 795.54,832.01 795.47,817C795.39,809.95 795.67,803.12 794.8,796.11C794.35,790.23 793.95,784.41 792.46,778.68C789.32,781.22 786.93,784.37 784.67,787.68C777.35,797.88 771.26,808.82 764.17,819.18C754.26,834.55 742.99,849.32 731.62,863.65C730.07,865.36 728.54,867.73 725.94,867.64C722.38,867.85 718.75,867.93 715.2,867.61C713.58,867.59 712.66,866.04 712.48,864.6C712.24,861.92 712.85,859.02 713.37,856.39C715.14,847.74 717.62,839.44 718.62,830.62C719.46,825.11 719.61,819.57 719.65,814C720.05,792.14 716.82,770.03 711.13,748.94C707.3,731.87 702.01,714.3 700.61,696.89C700.84,691.55 701.22,686.24 702.17,680.97C704.25,669.36 709.83,658.07 714.1,647.09C716.11,641.33 720.65,637.22 722.52,631.48C725.12,623.94 727.24,616.07 729.42,608.39C732.41,597.86 735.47,586.84 736.71,575.96C733.26,584.78 729.4,593.34 724.41,601.42C717.54,611.98 708.77,621.15 698.68,628.67C686.43,637.72 674.29,646.83 662.61,656.61C660.19,658.81 657.68,660.61 657,664.01C655.31,672.54 653.95,681.09 651.42,689.44C648.63,698.74 645.7,708.96 639.79,716.8C636.9,720.85 633.09,724.14 630.15,728.12C629.21,729.35 629.4,730.77 629.34,732.24C629.41,736.77 629.53,741.4 630.23,745.88C632.63,756.56 635.41,767.04 636.41,778C636.68,785.43 636.78,792.94 636.33,800.37C634.98,814.74 631.83,829.48 625.4,842.49C617.33,858.61 606.96,873.49 594.64,886.64C589.33,891.93 584.68,897.14 578.31,901.13C578.69,895.71 579.95,890.45 580.34,885.04C580.91,875.56 579.87,866.16 577.78,856.91C574.89,863.36 572.49,869.97 569.24,876.26C557.09,900.56 539.96,921.86 522.35,942.37C519.49,945.91 516.6,949.38 513.21,952.42C508.69,948.33 504.91,943.65 501.08,938.94C489.93,926 479.15,912.51 469.94,898.11C465.78,891.23 461.47,884.41 457.71,877.3C454.25,870.84 452.11,863.98 448.98,857.37C446.61,865.14 446.05,872.95 446.28,881.03C446.14,887.81 447.95,894.33 447.69,901.11C439.76,896.28 434.48,889.6 428.19,882.83C415.62,868.26 404.47,851.69 397.24,833.8C390.83,816 388.24,796.67 390.18,777.83C391.43,765.42 394.88,753.66 398.38,741.75C399.26,737.56 399.94,733.3 400.31,729.04C400.41,726.18 400.7,723.37 399.13,720.84C397.41,717.99 395.13,715.51 393.34,712.69C390.83,708.88 389.08,704.69 387.69,700.35C384.41,690.03 381.63,679.72 380.07,668.99C379.46,665.89 379.19,662.46 376.97,660.02C369.05,651.13 359.68,645.82 350.54,638.46C344.02,633.26 336.94,628.77 330.6,623.38C321.34,614.93 312.78,606.29 306.98,595.02C303.93,589.52 301.76,583.67 299.15,577.97C301.53,593.68 306.08,609.44 310.16,624.82C312.3,633.1 316.18,640.93 317.83,649.3C314.47,647.06 311.78,644.17 309.19,641.1C313.8,651.88 318.51,662.8 321.82,674.06C324.55,682.07 324.94,690.14 325.57,698.5C321.98,721.28 315.69,743.26 310.65,765.72C307.54,781.63 305.87,797.79 306.27,814.01C306.19,827.07 308.46,839.8 311.53,852.45C312.84,857.43 312.79,862.44 312.55,867.54C308.7,867.68 304.82,867.85 300.97,867.72C299.59,867.62 298.34,867.67 297.24,866.7C294.37,864.36 292.19,861.01 289.89,858.11C283.16,849.47 276.44,840.85 270.13,831.89C259.94,817.25 250.83,801.94 240.97,787.06C238.86,783.89 236.36,781.1 233.41,778.68C232.08,784.23 231.62,789.85 231.23,795.52C230.14,804.21 230.65,813.21 230.52,822C230.41,835.37 230.88,848.78 230.29,862.14C224.02,854.18 219.25,845.48 214.38,836.64C207.5,823.82 200.41,811.12 193.93,798.09C187.98,787.17 182.8,775.89 177.25,764.77C172.47,755.91 168.72,746.65 164.55,737.51C161.84,731.39 158.81,725.49 156.83,719.23C154.93,713.35 153.91,707.17 153.78,701C154.02,691.56 156.27,683.13 158.01,673.96C159.34,667.09 161.03,660.29 162.51,653.45C164.79,643.34 168.98,633.05 169.84,622.74C163.3,627.1 158.9,632.84 153.34,638.28C143.46,647.87 133.72,658.27 123.25,667.25C116.66,673 109.28,678.03 102.16,683.15C98.49,685.82 94.7,687.94 90.36,689.31C91.39,685.14 92.59,681.02 94.05,676.98C99.41,662.27 102.92,646.41 106.12,631.1C108.01,622.29 109,613.23 110.38,604.32C114.29,578.18 117.13,552.82 123.17,527.1C126.29,512.79 132.02,497.83 141.5,486.49C155.78,468.8 175.52,454.63 194.98,443.14C214.96,432.09 235.54,422.39 257.29,415.35C261.04,414.15 264.92,413.57 268.69,412.48C265.67,408.47 262.11,404.94 259.01,400.99C256.08,397.4 253.63,393.5 250.97,389.71C250.34,388.82 249.72,387.92 249.09,387.03C243.14,389.63 237.46,392.74 231.65,395.65C207.94,407.35 185.07,420.13 163.53,435.52C151.66,443.49 140.69,452.54 129.8,461.78C117.36,472.37 105.98,483.91 94.67,495.67C89.01,501.65 84.02,508.3 78.03,513.92C79.16,507.14 81.63,501.22 83.71,494.67C90.09,474.99 99.68,456.04 110.39,438.38C117.81,426.26 126.54,415.53 135.66,404.66C144.88,394.22 154.61,384.25 163.68,373.66C169.32,366.93 175.19,361.54 178.66,353.28C165.14,354.4 151.44,360.83 138.95,365.92C130.98,369.07 122.55,374.17 114.03,374.87C114.89,368.37 117.66,363.05 120.12,357.08C127.28,339.91 136.91,323.24 149.26,309.26C154.51,303.23 159.22,297.51 166.62,294.02C171.85,304.81 176.82,315.63 183.11,325.87C191.49,339.3 200.42,352.2 207.32,366.51C210.22,364.74 212.95,362.77 215.26,360.26C220.84,354.2 226.26,347.92 232.14,342.14C235.09,339.19 238.66,336.55 241.13,333.18C242.02,332.05 241.51,331.11 241.16,329.89C238.89,324.02 235.74,318.51 233.35,312.68C227.6,299.78 223.94,286.21 223.55,272.04C223.32,264.24 224.45,256.6 226.05,249C228.98,236.43 234.22,224.67 243.46,215.46C250.83,208.03 260.68,203.27 271.13,202.39C278.89,202.06 286.44,201.93 293.96,204.16C308.48,207.79 321.78,214.12 334.98,221.03C335.86,220.26 336.74,219.48 337.62,218.71C332.6,213.89 326.9,210.59 321.04,206.95C303.96,196.32 285.41,188.54 266.16,182.82C259.09,180.52 251.81,178.98 244.71,176.8C251.36,172.56 259.36,170.1 266.92,167.97C277.38,165.34 288.18,163.68 298.96,163.21C315.64,161.39 331.56,164.33 348.36,163.66C345.03,160.56 341.55,157.69 337.61,155.4C323.46,147.08 307.51,141.05 291.92,136.04C284.43,133.58 276.82,131.97 269.51,128.93C272.42,127.2 275.4,125.75 278.58,124.57C298.34,117.13 318.07,110.58 338.94,106.99C347.24,105.06 355.71,105.01 364.15,105.74C383.34,108.16 401.57,113.6 419.62,120.41C422.11,121.32 424.65,122.14 427.19,122.9C422.2,111.17 413.21,100.65 405.14,90.88C400.21,84.66 393.64,80.32 388.98,73.88C403.88,72.22 418.24,74.99 432.7,78.41Z" style="fill:rgb(1,1,1);fill-rule:nonzero;"/>
                <path d="M460.42,159.57C462.97,161.76 465.04,164.26 467.14,166.88C472.34,173.45 477.14,180.34 481.49,187.51C491.55,205.4 499.05,224.24 506.03,243.49C491.92,241.18 477.67,241.31 463.47,242.65C442.95,245.04 423.79,250.72 404.33,257.39C401.41,258.21 397.45,260.04 394.56,258.51C390.8,256.9 387.44,254.21 384.11,251.85C381.87,250.27 380.61,248.15 379.01,245.99C373.91,238.98 367.9,232.27 363.5,224.85C371.35,224.43 379.17,224.6 386.9,226.15C402.63,229.38 417.46,235.29 433.25,240C430.89,230.41 425.34,221.23 420.05,212.95C413.47,202.85 405.43,194.1 397.88,184.77C411.2,188.46 422.97,195.03 434.45,202.55C439.5,206.09 444.29,210.02 449.03,213.97C454.09,218.2 458.73,222.98 463.97,226.98C467.98,205.26 464.19,181.16 460.42,159.57Z" style="fill:rgb(204,0,34);fill-rule:nonzero;"/>
                <path d="M564.7,160.68C562.53,174.03 560.74,187.5 559.98,201.01C559.45,209.66 560.44,218.09 562.06,226.57C567.14,222.14 571.96,217.44 577.27,213.26C591.66,200.97 608.88,190.23 627.26,185.22C619.49,195.21 610.8,204.23 603.99,214.99C599.27,222.57 594.41,230.92 592.52,239.69C606.42,236.43 619.38,230.58 633.31,227.3C642.96,224.8 652.88,224.24 662.81,224.83C656.46,234.62 648.53,243.32 641.93,252.95C643.57,253.51 645.21,254.08 646.82,254.69C644.27,256.56 641.21,258.86 638.02,259.38C634.69,258.9 631.43,257.7 628.25,256.65C611.81,250.77 594.78,246.16 577.52,243.57C557.99,240.52 538.32,241.51 518.94,245.06C522.88,234.41 526.92,223.81 531.39,213.38C539.43,194.34 549.58,175.09 564.7,160.68Z" style="fill:rgb(204,0,34);fill-rule:nonzero;"/>
                <path d="M227.09,210.14C224.29,215.62 220.46,220.33 217.87,225.9C205.87,252.47 205.25,283.68 216.34,310.66C217.2,313.06 218.87,315.95 218.55,318.55C217.26,320.92 214.47,322.62 212.33,324.18C210.2,321.09 208.16,317.94 206.39,314.63C200.95,304.36 196.23,293.91 193.44,282.58C189.79,269.36 188.87,255.27 189.76,241.62C190.4,236.25 190.76,230.03 193.17,225.12C195.53,220.48 200.99,218.48 205.49,216.54C212.46,213.85 219.62,210.59 227.09,210.14Z" style="fill:rgb(1,1,1);fill-rule:nonzero;"/>
                <path d="M811.11,213.15C815.22,213.95 818.85,215.6 822.57,217.44C826.24,219.36 830.6,221.56 832.41,225.5C835.11,231.14 835.51,237.85 836.07,243.97C836.84,252.18 836.02,259.98 835.13,268.14C832.66,284.9 827.7,300.96 818.14,315.08C822.08,299.55 826.97,284.26 826.4,268C825.71,253.48 824.03,239.58 817.69,226.32C815.5,221.69 812.67,218.04 811.11,213.15Z" style="fill:rgb(1,1,1);fill-rule:nonzero;"/>
                <path d="M295.06,225.32C305.64,227.87 315.84,231.29 325.39,236.59C337.25,243.37 348.22,251.51 358.43,260.57C367.11,267.58 375.54,274.9 384.56,281.44C390.15,285.67 395.67,289.86 402.01,292.93C406.32,288.66 409.98,284.36 415.27,281.25C425.15,275.36 436.91,271.86 447.98,268.96C460.92,265.87 474.74,263.66 488.05,264.89C493.44,265.44 498.63,265.79 503.95,266.98C505.6,267.41 507.3,267.77 508.55,269.03C507.87,274.49 505.48,279.82 502.3,284.27C497.93,290.49 492.33,295.37 486.93,300.93C477.85,310.16 467.24,319.33 460.94,330.81C467.56,326.69 473.73,321.41 481.31,319.17C485.93,317.75 490.3,318.45 494.89,319.48C496.14,316.09 497.61,312.83 499.5,309.75C500.58,312.7 501.57,315.68 502.31,318.73C505.36,331.64 507.47,344.74 508.23,357.99C508.35,361.91 507.76,365.8 507.64,369.75C501.46,362.73 494.97,355.11 487.01,350.08C488.17,353.75 489.62,357.29 491.26,360.76C498.2,375.51 502.39,391.97 506.28,407.76C510.08,423.01 514.33,439.27 513.73,455.04C513.99,467.53 509.84,479.83 502.33,489.78C505.8,491.37 509.04,492.46 510.95,496.05C515.28,504 514.68,514.42 517.74,523.19C520.19,514.66 520.25,506.55 523.29,498.31C524.06,496.32 525.01,494.11 526.85,492.9C528.71,491.7 530.92,490.93 532.96,490.09C530.71,485.56 527.91,481.63 526.04,476.92C523.19,469.65 521.4,461.84 521.46,454C521.16,438.48 524.89,423.61 528.75,408.77C532.02,395.34 535.04,382.15 540.22,369.27C542.71,362.99 545.87,357.29 547.85,350.81C539.92,355.35 533.62,363.39 527.47,370.05C527.41,361.71 527.15,353.55 528.29,345.25C529.7,333.31 531.47,320.91 535.86,309.66C537.59,312.93 539.07,316.29 540.46,319.71C544.92,318.6 549.15,317.74 553.68,319.15C561.97,321.58 569.55,327 576,332.63C573.24,328.76 570.93,324.75 567.88,321.09C560.21,312.05 551.78,303.97 543.5,295.5C539.08,291.08 534.23,286.38 531.01,280.98C528.65,277.01 527.88,272.8 527.16,268.31C540.29,265.17 554.31,263.54 567.76,265.33C579.37,266.51 590.86,269.23 601.87,273.1C609.07,275.56 616.75,278.53 622.89,283.1C626.72,285.88 629.5,289.89 633.35,292.58C635.53,292.17 637.59,290.62 639.44,289.44C654.69,279.01 668.9,266.9 683.04,255.03C700.25,241.42 718.39,230.11 740.07,225.27C737.1,227.57 734.09,229.82 731.2,232.21C722.51,239.58 713.11,246.01 704.58,253.59C696.92,259.91 689.88,266.87 682.82,273.82C674.82,281.8 669.18,290.88 662.17,299.55C656.02,299.41 649.9,299.21 643.75,299.52C649.07,306.27 656.24,310.72 661.88,317.11C672.77,329.51 679.58,343.72 689.48,356.52C696.51,366 705.83,374.5 713.63,383.37C724.97,395.77 737.28,408.93 745.12,423.89C748.78,430.87 748.8,438.27 747.88,445.91C746.19,461.22 741.29,474.81 736.34,489.25C734.92,493.41 733.35,497.51 731.23,501.38C730.44,495.27 730.14,489.16 728.81,483.13C727.43,475.22 724.8,467.69 721.64,460.34C718.41,452.84 712.01,446.65 704.43,443.63C701.17,442.18 696.99,441 694.4,438.5C693.69,436.7 694.86,435.26 695.74,433.77C698.32,429.91 701.7,426.39 704.73,422.85C702.99,418.22 701.05,413.68 698.63,409.35C695.18,402.96 690.14,397.16 685.55,391.53C679.43,384.92 673.34,377.97 665.77,373.23C657.01,367.5 647.29,361.65 637.1,359C640.45,363.35 644.2,367.17 648.35,370.74C652.57,374.33 655.58,378.75 658.81,383.19C656.63,382.03 654.38,380.98 652.15,379.93C654.15,385.83 656.78,391.28 654.66,397.62C652.09,405.26 645.03,411.2 638.5,415.52C633.65,418.85 628.6,421.28 623.02,423.11C625.33,411.41 625.93,399.91 621.31,388.66C618.07,380.16 612.17,374.41 606,368C600.71,362.84 595.29,357.4 588.77,353.9C585.43,359.37 583.84,365.34 582.7,371.59C581.98,377.38 581.83,383.48 584.07,388.97C588,399.15 593.34,409.99 594.16,421.02C594.2,426.54 592.35,433.25 587.61,436.61C582.03,440.76 574.93,443.68 568.74,446.77C562.77,449.71 557.56,454.2 553.39,459.36C548.99,464.52 548.6,472.59 550.19,478.88C552.32,486.08 556,492.93 560.19,499.13C560.48,493.16 560.19,487.52 561.58,481.65C562.49,477.08 564.37,472.92 566.47,468.79C566,478.05 567.7,487.57 574.56,494.31C573.12,500.55 571.92,507.57 573.13,513.91C574.13,520.74 577.43,527.44 580.37,533.66C584.81,542.93 590.99,550.62 597.66,558.35C602.28,563.4 607.65,568.06 613.68,571.35C610.9,564.7 607.21,558.45 603.97,552.01C597.43,540.18 590.82,525.37 591.78,511.61C598.08,515.64 601.97,521.22 609.33,523.64C613.04,517.88 616.43,512.75 623.56,511.09C630.75,512.31 637.68,513.95 645.05,513.53C650.83,513.42 656.37,512.03 661.74,509.95C666.97,507.89 672.2,506.12 676.75,502.76C680.77,499.91 684.11,496.37 687.22,492.57C684.43,492.88 681.89,493.39 679.07,493.02C675.63,492.64 672.51,491.94 669.05,492.72C678.27,483.29 685.59,471.59 689.97,459.16C687.02,458.62 684.22,458.23 681.31,459.25C677.81,460.35 674.26,461.58 670.98,463.24C668.96,464.66 667.8,467.51 666.58,469.61C663.5,475.4 660.54,481.13 655.27,485.25C659.48,480.25 663.06,474.66 666.14,468.9C668.05,465.37 669.62,461.27 672.15,458.15C673.95,455.37 678.03,456.35 680.81,456.57C686.48,457.72 692.64,458.65 697.88,461.17C702.59,464.62 706.12,470.03 708.92,475.09C713.89,484.82 714.56,495.46 713.21,506.15C711.3,517.37 706.13,526.69 700.34,536.29C695.38,544.71 689.11,552.31 681.92,558.91C674.34,565.5 665.46,570.68 656.05,574.21C647.13,568.16 639.34,560.42 629.98,555.14C632.69,561.34 636,567.23 638.63,573.46C643.46,584.32 646.82,597.36 644.79,609.24C642.32,607.02 640.05,604.62 637.79,602.19C634.46,598.62 630.65,595.68 627.15,592.27C631.32,601.23 635.95,610.31 635.96,620.39C633.1,620.57 630.39,620.28 627.65,619.41C619.08,616.83 610.34,613.82 602.45,609.58C599.67,608.29 599.63,605.68 598.77,603.09C596.45,593.55 592.54,584.15 586.89,576.09C585.1,573.52 582.79,571.5 580.31,569.62C581.14,578.35 583.1,587.17 583.29,596.02C583.09,601.47 582.16,606.94 580.9,612.24C575.21,610.14 569.48,606.74 563.56,605.6C558.67,604.95 553.34,605.01 548.63,606.63C539.65,609.48 531.22,613.7 522.06,616.2C518.81,617.07 515.58,616.63 512.41,615.66C504.24,613.16 496.38,609.52 488.28,606.81C483.28,605.02 477.66,604.9 472.46,605.66C466.46,606.96 460.7,610.31 454.92,612.47C452.53,603.52 451.83,594.29 453.11,585.1C453.88,579.43 455.12,573.85 455.77,568.16C445.07,578.99 437.87,593.55 435.56,608.59C427.29,612.57 418.82,616.48 410.01,619.1C406.59,620.17 403.15,620.54 399.57,620.53C399.58,611.22 404.01,603.81 405.98,595.01C399.87,598.87 396.32,605 390.55,609.27C390.05,606.16 389.52,603.13 389.71,599.96C390.4,591.12 392.66,582.45 396.37,574.39C399.21,567.74 403.06,561.6 405.88,554.95C397.64,559.35 390.44,566.47 382.79,571.84C380.83,573.07 379.28,574.32 376.9,573.18C358.51,565.56 342.9,551.03 333.38,533.6C325.18,519.99 319.52,504.28 322.24,488.2C323.66,478.61 328.56,470.11 335.27,463.25C338.13,460.4 342.07,459.84 345.79,458.67C350.72,457.29 357.19,455.31 362.24,456.76C364.8,458.79 366.32,462.37 367.86,465.19C371.96,472.99 375.92,481.46 382.93,487.08C389.48,492.68 397.68,495.75 406.07,497.24C413.17,498.13 420.51,497.69 427.64,497.34C431.25,503.26 433.25,509.49 430.28,516.2C431.22,512.53 432.01,509.1 430.76,505.37C429.88,502.76 428.51,499.06 425.99,497.68C421.34,497.72 416.78,498.67 412.09,498.38C400.16,497.82 387.87,493.97 378.27,486.75C371.36,481.25 366.09,472.96 361.35,465.61C360.07,463.91 359.02,462.05 356.71,461.76C353.21,461.37 349.61,461.47 346.09,461.55C350.15,466.93 352.98,472.93 356.19,478.82C360.61,487.09 367.46,493.66 375.18,498.85C380.71,502.68 387.8,504.77 394.18,506.84C385.04,505.25 376.35,501.67 369.03,495.94C367.14,494.68 364.82,492.28 362.4,492.68C357.84,493.18 353.38,493.51 348.79,493.55C354.57,499.68 361.71,505.78 369.75,508.62C377.06,511.35 385.12,513.68 392.98,513.56C399.09,513.62 404.61,512.31 410.65,511.45C410.51,511 410.37,510.54 410.23,510.09C414.36,511.11 418.11,512.78 420.58,516.4C422.43,518.69 423.52,522.06 426.48,522.96C433.23,521.54 438.42,514.73 444.03,510.86C444.68,517.31 443.23,523.29 441.44,529.42C438.8,537.91 435.26,546.09 430.88,553.82C427.72,559.87 424.09,565.59 421.78,571.86C439.72,559.75 453.99,541.27 460.54,520.57C463.52,512.35 463.26,502.9 461.27,494.48C467.65,487.85 468.41,480.07 470.44,471.57C475.02,479.59 474.59,487.74 476.22,496.5C478.36,494 480.04,491.38 481.4,488.39C483.72,483.37 486.17,477.59 486.3,472C486.16,465.25 483.27,458.37 478.05,453.96C468.48,445.7 456.02,443.13 445.74,435.06C442.67,432.71 441.88,427.61 441.54,424.02C440.98,413.62 446.09,402.36 449.76,392.79C452.06,387 454.01,381.29 453.26,374.95C452.34,367.73 450.23,360.8 447.37,354.13C446.99,355.13 446.61,356.13 446.26,357.15C446.26,356.06 446.25,354.96 446.23,353.87C438.98,358.18 433.78,363.99 427.83,369.83C422.91,374.84 417.95,379.49 415.08,386.05C411.21,395.07 409.92,405.25 411.2,414.97C411.5,417.75 411.91,420.52 412.26,423.3C404.48,420.67 397.24,416.29 390.85,411.17C386.53,407.51 382.4,402.61 380.81,397.09C379.15,390.66 381.16,385.02 383.76,379.2C381.54,380.51 379.28,381.75 377.05,383.05C379.57,379.87 381.79,376.54 384.59,373.59C389.45,368.45 394.71,363.81 399.31,358.42C385.93,362.32 373.51,370.06 362.68,378.69C349.71,390.09 338.75,404.01 331.96,419.96C331.46,421.4 331,422.67 332.04,423.99C335.37,428.76 339.22,433.08 342.11,438.18C338.68,440.72 334.87,442.38 330.95,443.98C324.73,446.48 319.42,451.16 315.79,456.74C307.74,470.77 305.03,486.05 304.34,502.04C300.16,493.26 296.7,484.2 294.17,474.81C290.58,462.73 287.73,450.61 286.82,438C286.93,428.04 292.25,419.66 297.73,411.75C306.11,399.36 316.33,389.42 326.47,378.48C329.79,374.79 333.08,371.09 336.54,367.53C345.06,358.66 352.14,348.12 358.77,337.77C364.29,329.25 369.48,320.92 376.92,313.91C381.91,308.86 387.63,304.88 392.27,299.5C385.85,299.14 379.46,299.57 373.04,299.48C368.87,293.22 364.37,287.18 359.69,281.3C350.55,269.85 339.61,260.92 328.7,251.3C321.85,245.37 314.38,240.36 307.34,234.68C303.34,231.43 299.18,228.41 295.06,225.32Z" style="fill:rgb(117,74,204);fill-rule:nonzero;"/>
                <path d="M259.03,228.5C268.53,227.02 279.25,231.22 287.69,235.3C307.31,245.3 324.24,262.05 337.93,279.07C344.55,287.94 351.19,297.12 356.25,306.99C349.51,312.46 342.58,318.08 336.44,324.24C342.03,324.29 347.62,324.24 353.2,324.55C347.55,331.77 341.78,338.8 335.14,345.15C328.61,351.5 322.84,357.99 315.35,363.33C307.07,356.71 298.98,349.67 291.61,342.04C299.81,341.15 308.15,340.58 316.26,339.03C308.56,333.9 301.52,327.92 295.35,321.02C303.82,317.54 312.23,315.02 321.32,313.81C312.19,308.76 303.33,303.3 294.99,297.01C289.84,293 284.92,288.36 281.28,282.91C288.27,283.35 295.41,284.87 302.37,285.77C289.66,276.05 276.7,268.98 266.45,256.27C273.4,255.8 280.16,255.4 286.85,253.27C280.28,247.09 272.98,241.7 266.05,235.94C263.54,233.76 260.26,231.68 259.03,228.5Z" style="fill:white;fill-rule:nonzero;"/>
                <path d="M776.75,228.93C773.62,232.83 769.81,235.81 765.97,238.96C760.07,243.6 754.29,248.35 748.64,253.29C755.37,255.25 762.18,255.88 769.15,256.28C758.76,268.84 745.77,276.88 732.63,286.07C739.85,284.85 747.02,283.46 754.31,282.71C746.95,293.13 737.17,299.79 726.69,306.68C722.78,309.19 718.55,311.11 714.66,313.64C723.41,315.24 731.94,317.61 740.21,320.9C733.85,327.81 727.15,333.55 719.54,339.04C727.61,340.43 735.89,340.9 744.09,341.91C736.59,349.51 728.53,356.8 719.78,362.93C716.95,361.45 714.66,358.83 712.23,356.77C701.42,346.55 690.91,336.25 682.14,324.16C687.93,324.21 693.73,324.32 699.52,324.34C693.26,317.85 686.25,312.74 679.44,306.93C683.67,298.57 688.8,290.83 694.17,283.17C702.87,271.02 713.34,260.39 724.67,250.68C734.83,242.36 746.38,235.38 758.75,230.9C764.3,229.1 770.99,227.31 776.75,228.93Z" style="fill:white;fill-rule:nonzero;"/>
                <path d="M271.24,336.21C274.65,340.47 276.86,346 279.01,350.99C280.78,355.31 282.7,359.66 283.91,364.16C285.81,372.44 284.55,380.79 280.92,388.4C272.07,385.34 265.17,377.94 261.51,369.47C258.67,361.67 261.48,354.93 264.97,348C267,344.05 268.86,339.95 271.24,336.21Z" style="fill:rgb(117,74,204);fill-rule:nonzero;"/>
                <path d="M764.1,336.32C767.25,340.87 769.51,346.18 771.96,351.14C774.15,355.87 776.3,360.51 774.96,365.84C773.25,373.74 767.63,379.63 761.87,384.92C759.75,386.9 757.2,387.95 754.52,388.95C752.33,383.62 750.39,377.82 750.43,372C750.32,365.96 752.89,359.67 755.11,354.12C757.82,347.83 759.92,341.79 764.1,336.32Z" style="fill:rgb(117,74,204);fill-rule:nonzero;"/>
                <path d="M446.23,353.87C446.25,354.96 446.26,356.06 446.26,357.15C444.88,362.97 443.04,368.53 439.31,373.3C433.01,382.21 425.31,391.23 423.55,402.28C421.47,417.91 426.82,432.38 431.28,447.09C424.91,444.19 418.72,441.07 412.07,438.83C401.2,435.11 389.49,433.29 378,434.06C372.77,434.27 367.44,434.78 362.57,432.44C356.68,429.56 351.64,425.17 346.83,420.79C348.79,419.96 351.38,419.41 352.93,417.91C355.06,414.94 356.36,411.32 358.1,408.1C363,398.54 369.72,390.8 377.05,383.05C379.28,381.75 381.54,380.51 383.76,379.2C381.16,385.02 379.15,390.66 380.81,397.09C382.4,402.61 386.53,407.51 390.85,411.17C397.24,416.29 404.48,420.67 412.26,423.3C411.91,420.52 411.5,417.75 411.2,414.97C409.92,405.25 411.21,395.07 415.08,386.05C417.95,379.49 422.91,374.84 427.83,369.83C433.78,363.99 438.98,358.18 446.23,353.87Z" style="fill:rgb(204,0,34);fill-rule:nonzero;"/>
                <path d="M588.77,353.9C595.29,357.4 600.71,362.84 606,368C612.17,374.41 618.07,380.16 621.31,388.66C625.93,399.91 625.33,411.41 623.02,423.11C628.6,421.28 633.65,418.85 638.5,415.52C645.03,411.2 652.09,405.26 654.66,397.62C656.78,391.28 654.15,385.83 652.15,379.93C654.38,380.98 656.63,382.03 658.81,383.19C665.62,390.92 672.56,398.28 677.58,407.41C679.42,410.63 680.8,414.11 682.74,417.26C683.85,419.36 686.76,420.02 688.81,420.92C684.04,425.92 679.45,430.47 672.79,432.88C666.73,435.09 660.32,434.13 654,433.92C642.02,433.34 630.58,435.98 619.45,440.25C614.28,442.26 609.59,445.07 604.49,447.29C606.98,438.54 609.72,429.95 611.21,420.94C612.9,411.44 612.73,401.86 609.26,392.78C605.01,382.47 596.77,375.81 592.28,365.79C590.49,361.96 589.67,357.99 588.77,353.9Z" style="fill:rgb(204,0,34);fill-rule:nonzero;"/>
                <path d="M897.82,388.36C900.17,388.95 902.5,389.68 904.84,390.36C903.81,391.29 902.79,392.22 901.77,393.15C900.4,391.59 899.06,390.01 897.82,388.36Z" style="fill:rgb(204,0,34);fill-rule:nonzero;"/>
                <path d="M250.97,389.71C253.63,393.5 256.08,397.4 259.01,400.99C262.11,404.94 265.67,408.47 268.69,412.48C264.92,413.57 261.04,414.15 257.29,415.35C235.54,422.39 214.96,432.09 194.98,443.14C196.7,435.16 200.92,427.51 207.06,422.09C220.42,409.91 236.08,399.94 250.97,389.71Z" style="fill:rgb(204,0,34);fill-rule:nonzero;"/>
                <path d="M781.64,393.76C793.97,403.04 806.75,411.42 818.43,421.59C824.26,426.94 829,434.42 830.08,442.35C820.98,437.58 811.8,432.9 802.5,428.52C791.3,423.33 779.53,419.06 768.05,414.53C767.92,413.42 767.85,412.31 767.84,411.2C769.67,408.37 772.22,405.97 774.35,403.36C776.99,400.31 779.16,396.93 781.64,393.76Z" style="fill:rgb(204,0,34);fill-rule:nonzero;"/>
                <path d="M262.01,430.66C261.49,435.03 260.66,439.14 261.56,443.55C263.25,452.41 265.81,461.08 267.52,469.94C255.19,475.73 243.59,482.74 232.14,490.07C232.25,480.92 233.13,471.73 232.65,462.59C241.92,451.51 251.86,440.94 262.01,430.66Z" style="fill:rgb(204,0,34);fill-rule:nonzero;"/>
                <path d="M438.18,438.09C443.56,441.66 448.76,445.09 453.43,449.58C460.34,456.17 466.83,462.53 470.44,471.57C468.41,480.07 467.65,487.85 461.27,494.48C457.87,481.68 451.58,471.14 445.32,459.67C441.55,452.86 440,445.57 438.18,438.09Z" style="fill:rgb(204,0,34);fill-rule:nonzero;"/>
                <path d="M597.56,437.78C596.7,441.78 595.71,445.77 594.57,449.7C592.82,455.82 589.26,461.6 586.15,467.14C581.23,475.66 577.17,484.8 574.56,494.31C567.7,487.57 566,478.05 566.47,468.79C569.87,461.62 575.42,456.44 580.95,450.94C585.94,445.93 591.59,441.55 597.56,437.78Z" style="fill:rgb(204,0,34);fill-rule:nonzero;"/>
                <path d="M773.97,441.46C780.67,448.27 787.3,455.25 793.17,462.79C792.47,471.83 793.79,481 793.93,490.06C785.14,484.42 776.18,478.93 767,473.94C768.66,462.94 772.73,452.48 773.97,441.46Z" style="fill:rgb(204,0,34);fill-rule:nonzero;"/>
                <path d="M382.41,451.41C386.92,451.33 391.48,452.18 395.83,453.28C400.15,454.34 402.46,455.95 405.12,459.45C402.76,460.29 400.38,461.02 397.99,461.77C400.86,467.22 404.36,471.94 410.97,472.6C416.9,473.35 420.92,469.44 425.11,465.95C428.78,469 432.11,472.12 434.2,476.5C427.47,481.27 420.44,484.94 412.02,485.35C401.1,485.74 390.74,478.94 385.58,469.52C382.52,463.88 381.97,457.72 382.41,451.41Z" style="fill:white;fill-rule:nonzero;"/>
                <path d="M653.58,451.4C653.57,454.98 653.64,458.38 652.82,461.9C651.56,467.89 647.92,473.36 643.61,477.61C638.47,482.76 631.18,485.25 624,485.33C615.5,485.01 607.62,481.46 601.26,475.9C603.91,472.04 606.87,468.68 610.22,465.42C614.34,469.18 617.94,472.86 624.01,472.49C631,472.11 634.52,467.32 637.73,461.75C635.4,460.99 633.05,460.25 630.74,459.44C632.37,457.49 633.93,455.42 636.33,454.41C641.65,452.2 647.86,451.53 653.58,451.4Z" style="fill:white;fill-rule:nonzero;"/>
                <path d="M681.31,459.25C684.22,458.23 687.02,458.62 689.97,459.16C685.59,471.59 678.27,483.29 669.05,492.72C664.92,496.96 659.91,500.02 654.48,502.32C644.86,506.68 633.98,508.13 623.56,511.09C616.43,512.75 613.04,517.88 609.33,523.64C607.46,519.69 604.67,515.23 604.31,510.82C603.93,505.89 606.15,501.51 608.56,497.39C614.95,497.76 621.48,498.08 627.87,497.52C638,496.27 647.71,492.17 655.27,485.25C660.54,481.13 663.5,475.4 666.58,469.61C667.8,467.51 668.96,464.66 670.98,463.24C674.26,461.58 677.81,460.35 681.31,459.25Z" style="fill:rgb(204,0,34);fill-rule:nonzero;"/>
                <path d="M356.71,461.76C359.02,462.05 360.07,463.91 361.35,465.61C366.09,472.96 371.36,481.25 378.27,486.75C387.87,493.97 400.16,497.82 412.09,498.38C416.78,498.67 421.34,497.72 425.99,497.68C428.51,499.06 429.88,502.76 430.76,505.37C432.01,509.1 431.22,512.53 430.28,516.2C429.29,518.55 427.76,520.75 426.48,522.96C423.52,522.06 422.43,518.69 420.58,516.4C418.11,512.78 414.36,511.11 410.23,510.09C404.9,508.91 399.51,508.01 394.18,506.84C387.8,504.77 380.71,502.68 375.18,498.85C367.46,493.66 360.61,487.09 356.19,478.82C352.98,472.93 350.15,466.93 346.09,461.55C349.61,461.47 353.21,461.37 356.71,461.76Z" style="fill:rgb(204,0,34);fill-rule:nonzero;"/>
                <path d="M232.65,462.59C233.13,471.73 232.25,480.92 232.14,490.07C226.67,493.6 221.29,497.28 215.9,500.93C209.66,505.11 204.55,509.99 197.59,513.06C199.6,507.88 202.47,503.18 205.58,498.6C213.9,486.16 222.6,473.7 232.65,462.59Z" style="fill:rgb(204,0,34);fill-rule:nonzero;"/>
                <path d="M793.17,462.79C796.29,466.37 799.51,469.84 802.33,473.67C811.56,485.92 821.66,498.76 828.16,512.71C821.2,508.87 815.13,503.84 808.45,499.56C803.6,496.42 798.8,493.18 793.93,490.06C793.79,481 792.47,471.83 793.17,462.79Z" style="fill:rgb(204,0,34);fill-rule:nonzero;"/>
                <path d="M268.95,477.84C270.41,484.85 270.73,491.83 271.1,498.95C271.77,517.15 268.64,534.77 269.55,553.01C270.61,572.55 274.37,591.6 284.06,608.81C275.39,619.76 267.7,631.39 258.75,642.13C258.62,637.4 257.89,632.73 257.73,628C257.53,613.28 258.51,598.61 260.23,583.99C261.78,571.99 263.84,560.04 265.15,548.01C254.79,556.05 245.83,566.05 236.73,575.46C235.89,567.21 236.7,559.01 235.89,550.78C236.72,547.74 237.68,544.75 238.87,541.82C244.99,526.99 251.41,512.08 258.81,497.83C262.05,491.13 265.2,484.27 268.95,477.84Z" style="fill:rgb(204,0,34);fill-rule:nonzero;"/>
                <path d="M362.4,492.68C364.82,492.28 367.14,494.68 369.03,495.94C376.35,501.67 385.04,505.25 394.18,506.84C399.51,508.01 404.9,508.91 410.23,510.09C410.37,510.54 410.51,511 410.65,511.45C404.61,512.31 399.09,513.62 392.98,513.56C385.12,513.68 377.06,511.35 369.75,508.62C361.71,505.78 354.57,499.68 348.79,493.55C353.38,493.51 357.84,493.18 362.4,492.68Z" style="fill:rgb(1,1,1);fill-rule:nonzero;"/>
                <path d="M679.07,493.02C681.89,493.39 684.43,492.88 687.22,492.57C684.11,496.37 680.77,499.91 676.75,502.76C672.2,506.12 666.97,507.89 661.74,509.95C656.37,512.03 650.83,513.42 645.05,513.53C637.68,513.95 630.75,512.31 623.56,511.09C633.98,508.13 644.86,506.68 654.48,502.32C659.91,500.02 664.92,496.96 669.05,492.72C672.51,491.94 675.63,492.64 679.07,493.02Z" style="fill:rgb(1,1,1);fill-rule:nonzero;"/>
                <path d="M764.43,492.5C766.99,496.74 768.98,501.43 771.07,505.92C777.41,519.71 784.27,533.49 789.1,547.89C789.48,553.91 789.49,559.97 789.65,566C789.48,569 790.33,571.6 787.5,573.59C780.86,566.2 773.5,559.43 766.5,552.39C765.47,551.46 765.92,549.34 765.79,548.07C766.12,529.46 763.44,511.15 764.43,492.5Z" style="fill:rgb(204,0,34);fill-rule:nonzero;"/>
                <path d="M911.16,499.03C916.89,503.91 920.73,509.59 925.84,515.14C929.25,518.86 932.52,522.69 935.74,526.58C931.98,527.8 928.69,529.7 925.39,531.82C926.54,529.01 928.15,526.12 928.68,523.12C928.19,522.44 927.64,521.79 927.03,521.18C924.11,522.91 922.7,525.55 920.83,528.24C917.01,518.67 914.91,508.63 911.16,499.03Z" style="fill:rgb(204,0,34);fill-rule:nonzero;"/>
                <path d="M307.33,541.92C312.88,543.83 317.87,547.94 322.42,551.6C325.09,553.94 328.14,556.48 328.7,560.21C329.51,564.76 329.96,569.34 331.16,573.83C333.36,583.79 337.52,592.47 340.95,602.02C332.66,595.12 326.03,586.74 320.4,577.59C313.63,566.83 309.51,554.38 307.33,541.92Z" style="fill:rgb(117,74,204);fill-rule:nonzero;"/>
                <path d="M727.88,541.96C727,549.36 724.36,555.97 722.03,562.97C718.97,571.91 714.01,579.87 708.43,587.43C704.4,592.53 700.32,597.8 694.8,601.35C696.34,594.48 699.86,588.72 702.09,582.11C704.04,576.37 705.9,570.76 706.47,564.71C706.94,560.97 706.9,557.61 709.75,554.78C715.1,549.41 720.65,544.6 727.88,541.96Z" style="fill:rgb(117,74,204);fill-rule:nonzero;"/>
                <path d="M789.1,547.89C794.03,560 798.37,572.93 799.89,585.96C795.49,582.12 791.37,577.96 787.5,573.59C790.33,571.6 789.48,569 789.65,566C789.49,559.97 789.48,553.91 789.1,547.89Z" style="fill:rgb(204,0,34);fill-rule:nonzero;"/>
                <path d="M235.89,550.78C236.7,559.01 235.89,567.21 236.73,575.46C233.25,579.36 229.79,583.28 226.07,586.95C226.16,579.4 228.34,572.55 230.29,565.34C231.66,560.29 233.71,555.53 235.89,550.78Z" style="fill:rgb(204,0,34);fill-rule:nonzero;"/>
                <path d="M763.72,572.97C766.02,586.83 767.56,600.94 767.77,615C767.93,624.29 768.18,633.32 767.2,642.58C760.31,633.6 753.24,624.63 746.97,615.21C750.94,608.84 754.5,602.26 757.3,595.29C760.26,588.04 761.87,580.54 763.72,572.97Z" style="fill:rgb(204,0,34);fill-rule:nonzero;"/>
                <path d="M736.71,575.96C735.47,586.84 732.41,597.86 729.42,608.39C727.24,616.07 725.12,623.94 722.52,631.48C720.65,637.22 716.11,641.33 714.1,647.09C709.83,658.07 704.25,669.36 702.17,680.97C697.73,684.15 693.65,687.65 688.9,690.39C690.57,683.52 693.11,676.88 695.04,670.08C697.48,661.62 700.99,653.4 702.89,644.83C696.12,649.27 690.16,654.86 683.63,659.66C679.89,662.83 675.49,665.55 672.24,669.23C669.9,672.61 669.47,677.47 668.43,681.4C665.96,692.48 662.95,703.77 658.1,714.07C651.74,726.87 642.25,738.08 630.23,745.88C629.53,741.4 629.41,736.77 629.34,732.24C629.4,730.77 629.21,729.35 630.15,728.12C633.09,724.14 636.9,720.85 639.79,716.8C645.7,708.96 648.63,698.74 651.42,689.44C653.95,681.09 655.31,672.54 657,664.01C657.68,660.61 660.19,658.81 662.61,656.61C674.29,646.83 686.43,637.72 698.68,628.67C708.77,621.15 717.54,611.98 724.41,601.42C729.4,593.34 733.26,584.78 736.71,575.96Z" style="fill:rgb(204,0,34);fill-rule:nonzero;"/>
                <path d="M299.15,577.97C301.76,583.67 303.93,589.52 306.98,595.02C312.78,606.29 321.34,614.93 330.6,623.38C336.94,628.77 344.02,633.26 350.54,638.46C359.68,645.82 369.05,651.13 376.97,660.02C379.19,662.46 379.46,665.89 380.07,668.99C381.63,679.72 384.41,690.03 387.69,700.35C389.08,704.69 390.83,708.88 393.34,712.69C395.13,715.51 397.41,717.99 399.13,720.84C400.7,723.37 400.41,726.18 400.31,729.04C399.94,733.3 399.26,737.56 398.38,741.75C396.21,738.53 393.44,735.98 390.8,733.19C384.21,726.01 378.66,717.97 375.11,708.85C370.27,697.35 368.53,685.47 365.38,673.57C364.51,670.03 362.21,667.74 359.41,665.61C354.73,661.95 350.03,658.32 345.32,654.69C340.85,651.27 336.97,647.63 332.03,644.85C333.24,652.46 336.65,659.7 338.78,667.28C340.95,674.98 343.44,682.59 345.63,690.29C337.23,684.62 329.88,677.57 321.58,671.8L321.82,674.06C318.51,662.8 313.8,651.88 309.19,641.1C311.78,644.17 314.47,647.06 317.83,649.3C316.18,640.93 312.3,633.1 310.16,624.82C306.08,609.44 301.53,593.68 299.15,577.97Z" style="fill:rgb(204,0,34);fill-rule:nonzero;"/>
                <path d="M475.94,617.57C489.16,616.6 500.53,623.99 513.26,625.51C518.01,625.9 523.11,625.99 527.75,624.75C536.39,622.55 544.03,619.03 553,617.79C559.88,616.79 568.93,617.81 574.03,623.02C576.18,625.8 573.28,629.39 570.91,630.92C567.4,633.11 562.25,633.03 558.24,633.54C552.85,634.08 548.08,637.61 544.51,641.49C541.62,644.7 538.69,648.73 537.78,653.02C537.99,656.16 541.1,659.39 540.53,662.53C539.68,666 537.06,669.13 534.38,671.39C532.42,672.95 529.65,674.68 527.06,674.43C524.13,673.59 522.88,670.63 521.99,667.99C520.38,662.73 519.33,657.3 517.99,651.97C516.07,657.69 515.27,663.69 513.44,669.42C512.37,672.42 510.67,674.91 507.06,674.32C502.07,673.13 497.78,668.71 495.83,664.07C494.02,659.99 498.08,657.28 497.72,653.17C497.31,648.38 493.87,643.75 490.51,640.5C487.24,637.47 482.96,634.31 478.44,633.71C473.26,633 467.34,633.51 463.13,629.84C461.06,628.27 460.83,626.12 460.26,623.76C465.06,620.47 469.99,617.84 475.94,617.57Z" style="fill:rgb(204,0,34);fill-rule:nonzero;"/>
                <path d="M438.87,623.76C440.84,625.09 442.07,627.69 443.37,629.64C447.65,636.22 452.48,642.51 459.08,646.92C465.04,651.08 472.05,653.78 477.8,658.2C483.7,662.81 484.18,671.01 489.46,676.54C494.84,682.28 502.57,685.6 507.3,692.68C510.94,698.14 508.92,706.04 504.17,710.17C499.86,714.02 493.29,715.83 487.99,718.05C477.07,722.5 465.9,725.62 454.02,725.61C444.45,725.9 435.04,723.79 427.39,717.81C432.28,715.36 437.73,714.1 442.48,711.45C444.24,710.51 445.07,708.95 445.98,707.26C440.93,705.75 435.29,706.8 429.96,706.2C420.61,705.46 411.74,701.63 406.63,693.44C415.29,693.51 423.79,694.34 432.48,693.61C439.26,692.97 445.59,692.51 451.85,689.56C448.12,687.45 444.32,687.28 440.18,686.6C430.53,685.23 421.16,683.41 411.98,680.02C408.17,678.57 404.07,676.72 401.01,673.98C398.79,671.97 397.72,669.34 396.41,666.72C403.08,667.18 409.66,668.41 416.34,668.78C424.24,669.29 432.9,670.3 440.66,668.52L441.38,667.04C436.88,664.13 430.84,663.05 425.73,661.41C418.54,659.25 411.63,655.69 405.26,651.75C401.53,649.34 398.39,646.72 397.58,642.1C400.02,641.29 402.38,640.58 404.98,640.79C416.42,641.51 427.4,645.06 438.19,646.93C433.12,643.17 425.26,640.22 422.04,634.68C420.47,632.31 422.93,630 424.73,628.69C428.79,626.02 434.07,624.34 438.87,623.76Z" style="fill:white;fill-rule:nonzero;"/>
                <path d="M596.3,624.01C600.01,623.28 604.71,625.45 608.13,626.91C610.64,628.19 614.63,630.48 613.35,633.89C611.05,640.21 603.01,643.04 597.94,646.89C608.92,645.32 620.01,641.19 631.03,640.49C633.75,640.21 636.04,641.02 638.49,642.1C637.81,644.15 637.24,646.07 635.58,647.56C629.71,653.21 621.63,657.08 614.17,660.17C607.45,662.93 600.13,663.72 594,667.27C597.01,669.82 600.31,669.41 604,669.58C615.79,669.47 627.63,667.88 639.15,666.84C637.17,670.89 634.68,674.4 630.71,676.71C621.13,682.62 608.3,684.54 597.35,686.44C592.67,687.34 587.61,687.39 583.43,689.47C588.31,691.74 593.42,692.38 598.68,693.09C609.15,694.5 619.39,693.76 629.87,693.09C624.08,702.28 613.47,706.19 603.01,706.47C598.27,706.82 594.27,705.65 589.96,707.84C591.26,709.37 592.41,710.87 594.29,711.71C598.94,713.97 603.92,715.4 608.5,717.86C601.21,723.89 592.26,725.6 583.03,725.67C571.85,725.88 561.29,723.14 550.98,719.01C545.19,716.62 538.65,715 533.37,711.63C527.07,707.7 524.78,698.33 529.18,692.2C533.41,686.12 539.2,683.21 544.57,678.56C550.61,673.27 551.39,665.84 556.78,659.78C561.45,654.53 568,652.47 573.84,648.84C580.8,644.72 586.23,638.42 590.92,631.92C592.79,629.39 594.06,626.21 596.3,624.01Z" style="fill:white;fill-rule:nonzero;"/>
                <path d="M332.03,644.85C336.97,647.63 340.85,651.27 345.32,654.69C350.03,658.32 354.73,661.95 359.41,665.61C362.21,667.74 364.51,670.03 365.38,673.57C368.53,685.47 370.27,697.35 375.11,708.85C378.66,717.97 384.21,726.01 390.8,733.19C393.44,735.98 396.21,738.53 398.38,741.75C394.88,753.66 391.43,765.42 390.18,777.83C385.26,779.1 381.92,782.14 378.71,785.9C375.6,781.47 372.93,776.78 369.61,772.49C368.78,770.05 368.44,767.58 368.22,765.02C367.28,754.93 364.04,744.98 360.43,735.54C358.34,730.27 356.22,724.72 353.34,719.84C351.63,724.52 350.13,729.31 348.66,734.07C344,726.63 340.7,718.46 335.83,711.18C332.75,706.65 329.63,702.2 325.57,698.5C324.94,690.14 324.55,682.07 321.82,674.06L321.58,671.8C329.88,677.57 337.23,684.62 345.63,690.29C343.44,682.59 340.95,674.98 338.78,667.28C336.65,659.7 333.24,652.46 332.03,644.85Z" style="fill:rgb(117,74,204);fill-rule:nonzero;"/>
                <path d="M702.89,644.83C700.99,653.4 697.48,661.62 695.04,670.08C693.11,676.88 690.57,683.52 688.9,690.39C693.65,687.65 697.73,684.15 702.17,680.97C701.22,686.24 700.84,691.55 700.61,696.89C697.25,702.61 692.62,707.48 689.13,713.14C684.69,719.96 681.83,727.69 677.19,734.32C675.66,729.49 674.16,724.65 672.41,719.9C668.66,726.63 665.94,734.02 663.25,741.22C659.73,750.86 657.44,760.57 657.17,770.88C653.51,775.79 650.63,781.19 647.05,786.16C643.93,782.61 641.2,779.3 636.41,778C635.41,767.04 632.63,756.56 630.23,745.88C642.25,738.08 651.74,726.87 658.1,714.07C662.95,703.77 665.96,692.48 668.43,681.4C669.47,677.47 669.9,672.61 672.24,669.23C675.49,665.55 679.89,662.83 683.63,659.66C690.16,654.86 696.12,649.27 702.89,644.83Z" style="fill:rgb(117,74,204);fill-rule:nonzero;"/>
                <path d="M353.34,719.84C356.22,724.72 358.34,730.27 360.43,735.54C364.04,744.98 367.28,754.93 368.22,765.02C368.44,767.58 368.78,770.05 369.61,772.49C368.08,781.19 368.38,790.25 368.82,799.04C370.03,808.92 370.47,819.79 373.87,829.08C376.46,836.76 381.91,843.85 386.41,850.58C390.21,856.34 394.55,861.68 398.14,867.57C385.1,867.84 372.05,867.62 359,867.74C355.52,867.69 351.92,867.96 348.47,867.43C346.74,866.33 345.65,864.06 344.72,862.29C341,854.59 338.24,846.36 335.85,838.16C332.02,824.95 331.77,810.5 332.74,796.86C335.35,775.63 342.29,754.45 348.66,734.07C350.13,729.31 351.63,724.52 353.34,719.84Z" style="fill:rgb(1,1,1);fill-rule:nonzero;"/>
                <path d="M672.41,719.9C674.16,724.65 675.66,729.49 677.19,734.32C683.44,755.55 690.74,775.82 693.3,797.74C693.74,803.15 693.63,808.62 693.6,814.04C693.44,830.86 688.26,847.14 681.15,862.23C680.22,863.97 679.21,866.3 677.51,867.4C674.07,867.94 670.47,867.7 667,867.74C653.93,867.62 640.84,867.9 627.78,867.51C634.12,857.68 641.34,848.43 647.42,838.4C653.75,829.05 655.44,816.45 656.54,805.44C657.91,794.05 657.61,782.33 657.17,770.88C657.44,760.57 659.73,750.86 663.25,741.22C665.94,734.02 668.66,726.63 672.41,719.9Z" style="fill:rgb(1,1,1);fill-rule:nonzero;"/>
                <path d="M513,729.38C519.65,729.34 526.85,729.04 533.31,730.63C543.45,732.91 552.4,737.34 562.09,740.86C572.41,744.86 582.85,749.31 593.47,752.47C597.09,753.58 601.14,754.18 604.5,755.91C605.97,773.47 599.58,792.41 586.11,804.13C579.52,810.11 572.13,815.47 564.12,819.38C565.57,814.49 567.55,809.44 568.35,804.42C569,799.92 568.72,795.16 568.39,790.64C566.13,793.03 564.17,795.63 562.32,798.34C558.37,804.32 552.05,809.08 546.38,813.4C539.16,818.48 531.42,822.9 524.5,828.51C520.51,831.79 518.04,835.81 515.16,840C511.45,834.05 506.99,828.8 501.08,824.93C490.15,817.54 479.48,811.56 470.29,801.7C466.98,797.86 464.36,793.34 461.65,789.06C461.4,794.62 460.85,800.46 462.15,805.92C463.11,810.08 464.53,814.13 465.46,818.3C462.42,817.26 459.5,816.03 456.88,814.16C448.29,808.13 439.95,801.62 434.49,792.49C427.54,781.34 424.94,768.51 425.3,755.49C434.83,753.44 443.8,750.03 453.05,747.01C463.93,742.99 475.06,739.72 486.02,735.92C494.8,733.19 503.8,729.35 513,729.38Z" style="fill:rgb(117,74,204);fill-rule:nonzero;"/>
            </g>
        </g>
    </g>
</svg>
