<?xml version="1.0" encoding="UTF-8" standalone="no"?>
<!DOCTYPE svg PUBLIC "-//W3C//DTD SVG 1.1//EN" "http://www.w3.org/Graphics/SVG/1.1/DTD/svg11.dtd">
<svg width="100%" height="100%" viewBox="0 0 433 495" version="1.1" xmlns="http://www.w3.org/2000/svg" xmlns:xlink="http://www.w3.org/1999/xlink" xml:space="preserve" xmlns:serif="http://www.serif.com/" style="fill-rule:evenodd;clip-rule:evenodd;stroke-linejoin:round;stroke-miterlimit:2;">
    <g transform="matrix(1,0,0,1,-40.196471,-9.147576)">
        <g transform="matrix(1,0,0,1,-2247.595761,0.647578)">
            <g transform="matrix(0.542321,0,0,0.542321,2226.537346,-19.28392)">
                <g transform="matrix(1.843926,0,0,1.843926,38.830167,34.364043)">
                    <path d="M227,445L184,433L135,397L92,367L57,352L79,287L69.86,277L103,235.319L94,192L111,170L119,143L133,145L194,72L204,86L256.887,25L308,93L323,72L376,152L392,149L400,164L422,190L412,216L418,249L433,266L443.914,279L428,284L454,339L452,350L380,399L307,443L256.404,464L227,445Z" style="fill:rgb(204,0,34);"/>
                </g>
                <g transform="matrix(1.843926,0,0,1.843926,38.830167,34.364043)">
                    <path d="M161,235.319L206,244.5L256.887,235.319L301,256.5L334,244.5L351,227L362,244.5L364,267L356,281L326,296L348,330L325,393L296,432L266,456L255.5,454L197,409L172,349L170,318L179,291L154,270L153,244.5L161,235.319Z" style="fill:white;"/>
                </g>
                <g transform="matrix(1.843926,0,0,1.843926,38.830167,34.364043)">
                    <path d="M314.422,251.619L327.139,246.995L344,235.319L355,235.319L364,276L346,286L303,275L290,256.648L258.5,244.5L221,256.648L201,280L181,286L153,282L146,256.648L161,227L188,244.5L232,244.5L258.5,227L286,244.5L314.422,251.619Z" style="fill:white;"/>
                </g>
                <g transform="matrix(0.5,0,0,0.5,0,0)">
                    <path d="M1024.3,102.463C1029.66,106.942 1066.13,157.26 1072.99,166.404C1106.72,212.228 1141.63,257.177 1177.67,301.208C1187.32,313.062 1197.61,328.047 1207.27,338.787C1220.35,308.696 1237.33,267.221 1251.54,238.757C1257.23,244.729 1264.87,255.769 1270.16,262.641L1301.82,303.158C1341.73,354.189 1381.1,408.332 1418.97,460.925C1443.5,494.986 1466.32,531.99 1490.76,566.287C1529.36,541.815 1566.47,508.186 1605.11,484.759C1603.42,496.908 1598.47,512.461 1596.03,525.508C1586.91,574.019 1576.79,627.917 1590.4,676.335C1612.63,755.368 1707.07,712.238 1760.02,694.917C1735.52,722.98 1713.09,752.786 1692.91,784.101C1682.11,800.53 1672.59,815.942 1663.78,833.185C1632.25,894.907 1617.65,915.919 1659.14,977.644C1703.81,1044.11 1755.19,1092.48 1822.4,1135.52C1787.78,1138.55 1756.2,1143.07 1720.85,1145.29C1722.54,1151.16 1728.34,1161.47 1731.43,1167.4C1738.35,1180.67 1744.39,1192.8 1750.31,1206.41C1770,1251.65 1783.33,1297.22 1793.28,1345.55C1796.4,1360.7 1800.39,1376.79 1802.64,1392.1C1761.7,1400.41 1721.95,1413.73 1684.28,1431.77C1615.36,1465.01 1565.24,1506.35 1506.21,1554.06C1443.32,1604.18 1381.01,1658.09 1312.96,1701.12C1266.95,1730.21 1216.56,1755.29 1166.85,1777.29C1160.62,1780.05 1143.11,1786.32 1138.91,1790.29C1107.03,1820.41 1080.26,1856.75 1052.85,1890.92C1043.12,1903.1 1035.41,1916.34 1025.25,1927.89L1023.68,1927.95L1021.13,1924.96C1016.42,1916.67 1005.75,1903.93 999.763,1896C980.347,1870.11 960.063,1844.88 938.946,1820.36C931.56,1811.64 919.311,1796.56 911.552,1789.17C907.526,1785.34 882.491,1774.82 875.676,1771.74C855.48,1762.74 835.396,1753.48 815.429,1743.98C783.575,1729.01 752.654,1712.12 722.835,1693.42C550.054,1586 458.907,1435.66 245.732,1392.35C250.68,1373.27 254.269,1345.88 259.352,1324.47C271.387,1273.15 288.877,1223.26 311.524,1175.66C316.343,1165.64 322.13,1156.05 327.295,1146.14C314.808,1144.52 301.837,1144.05 289.208,1142.93C268.05,1140.99 246.941,1138.54 225.899,1135.59C246.944,1123.03 284.584,1094.95 303.434,1078.67C341.754,1045.57 412.082,967.714 416.537,915.97C419.334,883.495 364.629,795.657 345.153,767.699C330.801,747.096 304.754,713.228 287.617,693.767C318.051,705.978 389.084,730.213 418.544,720.089C498.09,692.752 455.72,535.956 441.146,482.103C446.896,485.946 452.594,490.2 458.084,494.411C490.459,519.239 525.185,541.867 557.393,566.77C617.27,475.973 680.784,387.626 747.779,301.946C763.878,281.534 780.566,258.545 797.246,239.019C803.029,249.906 806.776,262.766 812.101,273.931C821.951,294.584 829.441,317.938 839.95,338.15C854.24,321.969 873.031,296.826 886.707,279.423L973.757,167.388C988.077,148.709 1008.78,118.885 1024.3,102.463ZM1002.22,1425.68C959.356,1395.71 878.088,1356.86 826.202,1350.46L821.944,1349.46C821.23,1344.95 820.472,1345.89 816.018,1344.22C811.668,1347.87 815.798,1346.29 817.252,1347.55C817.124,1347.77 816.996,1347.99 816.867,1348.21C786.678,1346.73 783.355,1342.34 749.104,1348.13C752.484,1365.3 766.487,1396.57 774.096,1412.54C820.867,1510.73 894.673,1595.62 973.764,1669.25C988.362,1682.84 1007.58,1701.19 1023.78,1712.42C1024.52,1690.59 1023.99,1666.16 1023.97,1644.11L1023.87,1521.06L1023.92,1216.61C1023.9,1157.82 1023.31,1098.12 1024.01,1039.41C1039.08,1049.33 1059.74,1067.52 1073.26,1079.77C1127.48,1128.86 1193.65,1202.58 1223.21,1269.97C1206.15,1276.02 1194.68,1282.82 1179.54,1291.6C1135.42,1317.21 1107.1,1345.35 1077.21,1385.96C1135.02,1339.15 1202.63,1302.36 1277.41,1294.95C1285.93,1294.11 1294.3,1294.01 1302.82,1293.09C1289.73,1235.79 1236.18,1177.85 1198.38,1134.64C1160.97,1091.88 1121.55,1048.38 1074.9,1015.5C1070.28,1012.24 1065.15,1008.98 1060.78,1005.51L1059.75,1004.69C1049.28,999.076 1042.82,995.406 1031.47,992.071C993.925,991.674 955.547,1020.12 927.405,1043.08C845.374,1110.01 782.007,1194.71 741.293,1292.42C760.606,1292.79 786.432,1292.42 805.007,1296.16C881.513,1311.56 953.632,1366.12 1002.22,1425.68ZM625.882,790.496C637.039,750.662 649.789,711.291 664.1,672.479C682.915,623.084 702.67,574.053 723.356,525.411C733.072,502.039 743.364,478.222 752.378,454.573C753.408,451.873 753.322,450.589 752.752,447.907C744.91,454.835 730.454,474.765 722.968,483.998C669.931,549.404 631.038,614.497 592.71,689.122C580.616,681.73 559.221,666.009 546.804,656.678C546.259,656.79 545.713,656.901 545.168,657.013L543.844,660.727C541.304,673.615 538.969,685.522 535.077,698.146C519.394,744.529 506.254,778.687 459.06,798.948C473.107,830.369 486.431,861.459 496.314,894.463C500.091,907.076 506.692,920.715 500.945,933.528C483.205,973.083 460.663,1010.95 434.302,1045.37C425.995,1056.3 409.52,1074.66 403.21,1084.64C423.287,1084.06 444.005,1083.92 463.989,1082.96C456.828,1094.41 446.673,1105.4 438.551,1116.39C393.681,1177.15 353.948,1251.26 338.535,1325.81C428.593,1344.59 498.213,1381.19 572.543,1434.66L596.897,1452.21C598.265,1453.19 605.461,1457.79 606.041,1458.28L608.989,1455.16C554.952,1383.95 491.663,1327.45 406.751,1297.39C408.81,1287.26 414.373,1272.94 418.294,1263.2C446.468,1193.31 488.437,1127.33 544.52,1076.54C549.184,1072.32 569.011,1056.76 571.555,1052.98L570.894,1051.83C563.25,1050.48 555.144,1050.89 547.317,1050.69C529.71,1050.13 512.094,1049.87 494.478,1049.92C497.397,1042.6 505.148,1028.64 509.338,1021C528.809,985.546 551.49,950.034 573.982,916.353C570.316,911.304 562.003,894.828 558.859,888.707C548.428,868.142 538.292,847.43 528.454,826.576C550.391,795.36 561.968,770.144 578.782,735.855C593.992,751.763 610.371,773.268 625.882,790.496ZM1062.43,1669.66C1076.98,1659.36 1097.16,1641.37 1110.19,1629.04C1194.23,1549.51 1260.64,1458.64 1294.12,1347.3C1270.92,1342.57 1258.41,1344.41 1235.89,1349.48C1211.77,1441.33 1164.5,1526.84 1109.31,1603.63C1093.84,1625.15 1077.29,1645.9 1061.48,1667.16C1061.42,1668.44 1061.6,1668.39 1062.43,1669.66ZM689.859,956.965C642.642,984.428 663.166,1125.74 799.75,1070.84C810.691,1065.42 824.1,1058.63 832.989,1050C785.597,1042.1 737.282,1024.89 706.322,985.082C702.179,979.755 691.479,958.547 689.859,956.965ZM1357.5,956.982C1329.42,1021.29 1278.89,1040.83 1213.08,1046.52C1225.06,1056.34 1235.49,1063.11 1249.48,1070.16C1279.65,1082 1309.06,1089.36 1340.62,1075.79C1356.86,1068.91 1369.61,1055.75 1375.98,1039.3C1386,1013.99 1381.67,983.499 1366.64,961.105C1363.88,959.878 1360.11,958.342 1357.5,956.982ZM771.671,599.3C770.738,601.399 768.139,605.353 764.196,611.031C766.66,607.183 771.091,601.014 771.671,599.3ZM1647.97,1085.02C1637.24,1070.36 1623.93,1055.62 1612.51,1040.19C1586.19,1004.28 1564.17,965.397 1546.91,924.351C1548.16,917.155 1552.38,902.902 1554.52,895.609C1564.02,863.301 1575.98,828.268 1590.09,797.705C1582.52,795.437 1575.33,792.028 1568.79,787.596C1531.27,761.774 1512.14,699.876 1504.31,656.528C1491.78,662.336 1467.37,679.989 1455.03,688.526C1418.51,609.482 1348.04,501.219 1288.69,437.06C1297.97,465.038 1310.47,487.819 1321.9,514.631C1342.57,562.96 1362.51,611.598 1381.72,660.528C1392.81,688.584 1402.7,717.101 1411.35,746.001C1415.72,760.13 1419.47,776.755 1424.7,790.038C1438.46,772.168 1455.77,753.16 1470.49,735.723C1478.96,753.731 1485.79,768.313 1495.87,785.469C1503.9,799.159 1514.49,813.821 1522.01,827.223C1505.71,856.529 1492.55,885.672 1478.19,915.997C1480.82,922.165 1484.04,927.26 1487.38,933.036C1505.39,964.173 1526.48,993.351 1543.12,1025.29C1547.25,1033.23 1552.82,1041.95 1556.18,1050.19C1540.15,1050.67 1491.92,1047.65 1480.55,1050.01C1479.34,1053.1 1479.49,1051.55 1480.12,1054.84C1492.96,1068.13 1507.1,1078.01 1521.41,1093.38C1579.63,1155.9 1613.14,1216.71 1641.73,1296.13C1631.33,1300.31 1619.3,1304.33 1609.51,1309.01C1558.17,1333.53 1515.24,1366.73 1477.01,1408.73C1465.65,1421.22 1448.59,1438.86 1439.61,1453.02C1441.33,1454.02 1442.96,1455.04 1444.65,1456.09C1448.66,1454.9 1457.27,1447.96 1461.13,1444.96C1497.01,1416.75 1535.47,1393.35 1576.22,1372.92C1620.07,1350.94 1664.93,1339.73 1711.19,1325.48C1698.25,1263.31 1661.74,1190.18 1626.58,1137.62C1613.7,1118.35 1598.19,1101.33 1585.19,1082.97C1604.93,1082.67 1627.48,1084.85 1647.97,1085.02ZM1466.74,823.793C1466.09,822.418 1466.24,821.401 1464.61,821.642C1455.07,828.417 1456.49,824.007 1457.88,839.255C1457.28,842.687 1457.98,840.851 1458.29,843.452C1459.09,850.023 1454.3,850.084 1457.51,856.181C1460.47,849.012 1463.47,839.602 1464.53,831.911C1465.39,829.248 1466.06,826.505 1466.74,823.793ZM1284.15,609.199C1284.63,609.899 1287.47,614.656 1288.61,613.813C1288.97,612.83 1286.95,585.439 1286.68,581.962C1278.94,582.719 1279.55,597.504 1279.83,603.022C1280.26,603.545 1280.68,604.067 1281.11,604.59C1282.14,606.117 1283.15,607.653 1284.15,609.199ZM1447.64,878.257C1450.47,873.826 1452.95,868.265 1454.63,863.278C1449.71,860.356 1447.13,874.195 1447.64,878.257Z" style="fill-rule:nonzero;"/>
                </g>
                <g transform="matrix(0.5,0,0,0.5,0,0)">
                    <path d="M771.671,599.3C816.591,537.101 857.4,471.398 904.65,410.76C913.247,399.727 921.69,386.47 929.78,374.894C948.378,348.407 967.117,322.019 985.997,295.732C997.921,279.067 1011.94,258.681 1024.91,243.057C1050.32,276.135 1076.68,315.258 1101.65,349.558C1163.14,432.552 1222.55,517.066 1279.83,603.022C1280.26,603.545 1280.68,604.067 1281.11,604.59C1282.14,606.117 1283.15,607.653 1284.15,609.199C1284.63,609.899 1287.47,614.656 1288.61,613.813C1288.97,612.83 1286.95,585.439 1286.68,581.962C1284.95,571.139 1283.49,536.575 1282.37,523.574C1279.09,487.511 1275.14,451.51 1270.54,415.591C1276.53,421.776 1283.83,430.007 1288.69,437.06C1297.97,465.038 1310.47,487.819 1321.9,514.631C1342.57,562.96 1362.51,611.598 1381.72,660.528C1392.81,688.584 1402.7,717.101 1411.35,746.001C1415.72,760.13 1419.47,776.755 1424.7,790.038C1438.46,772.168 1455.77,753.16 1470.49,735.723C1478.96,753.731 1485.79,768.313 1495.87,785.469C1503.9,799.159 1514.49,813.821 1522.01,827.223C1505.71,856.529 1492.55,885.672 1478.19,915.997C1480.82,922.165 1484.04,927.26 1487.38,933.036C1505.39,964.173 1526.48,993.351 1543.12,1025.29C1547.25,1033.23 1552.82,1041.95 1556.18,1050.19C1540.15,1050.67 1491.92,1047.65 1480.55,1050.01C1479.34,1053.1 1479.49,1051.55 1480.12,1054.84C1492.96,1068.13 1507.1,1078.01 1521.41,1093.38C1579.63,1155.9 1613.14,1216.71 1641.73,1296.13C1631.33,1300.31 1619.3,1304.33 1609.51,1309.01C1558.17,1333.53 1515.24,1366.73 1477.01,1408.73C1465.65,1421.22 1448.59,1438.86 1439.61,1453.02C1441.33,1454.02 1442.96,1455.04 1444.65,1456.09C1448.66,1454.9 1457.27,1447.96 1461.13,1444.96C1497.01,1416.75 1535.47,1393.35 1576.22,1372.92C1620.07,1350.94 1664.93,1339.73 1711.19,1325.48C1712.2,1330.33 1713.53,1335.24 1714.75,1340.05C1632.22,1366.19 1554.92,1406.64 1486.39,1459.54C1456.33,1482.51 1428.53,1508.87 1398.92,1531.57C1356.98,1563.71 1313.03,1601.9 1268.82,1630.04C1285.58,1606.25 1306.32,1584.99 1323.33,1559.98C1366.76,1496.13 1395.85,1432.13 1416.54,1357.63C1437.53,1282.03 1413.19,1219.04 1346.87,1174.27C1379.07,1167.54 1408.28,1150.67 1430.2,1126.15C1483.32,1067.56 1483.4,976.694 1422.96,923.363C1428.14,913.692 1444.69,886.842 1447.64,878.257C1450.47,873.826 1452.95,868.265 1454.63,863.278C1455.65,861.536 1456.75,858.19 1457.51,856.181C1460.47,849.012 1463.47,839.602 1464.53,831.911C1465.39,829.248 1466.06,826.505 1466.74,823.793C1467.62,820.415 1469.42,815.418 1468.64,812.256C1466.31,811.869 1466.17,812.659 1463.51,814.299L1364.06,879.709C1331.75,900.963 1284.01,934.837 1248.24,946.509C1173.07,971.036 1089.6,918.826 1049.66,857.053C1039.01,841.06 1031.74,826.244 1024.69,808.578C983.112,906.004 890.367,984.21 779.232,938.479C760.787,930.89 744.871,918.319 728.264,907.368C699.58,888.776 671.154,869.788 642.995,850.41C626.137,839.031 596.507,818.646 579.035,809.637C585.757,843.743 607.301,894.195 627.313,923.211C608.9,940.758 597.618,954.897 588.953,979.126C563.775,1049.52 600.003,1128.66 665.593,1161.81C677.61,1167.88 687.803,1171.87 700.869,1174.02C587.004,1254.5 623.842,1359.99 671.874,1466.28C690.082,1506.57 711.754,1538.34 737.044,1574.48C750.707,1594 769.156,1611.04 781.941,1629.83C655.625,1558.56 566.562,1438.83 433.017,1378.39C400.732,1363.78 368.571,1351.68 335.294,1339.64L338.535,1325.81C428.593,1344.59 498.213,1381.19 572.543,1434.66L596.897,1452.21C598.265,1453.19 605.461,1457.79 606.041,1458.28L608.989,1455.16C554.952,1383.95 491.663,1327.45 406.751,1297.39C408.81,1287.26 414.373,1272.94 418.294,1263.2C446.468,1193.31 488.437,1127.33 544.52,1076.54C549.184,1072.32 569.011,1056.76 571.555,1052.98L570.894,1051.83C563.25,1050.48 555.144,1050.89 547.317,1050.69C529.71,1050.13 512.094,1049.87 494.478,1049.92C497.397,1042.6 505.148,1028.64 509.338,1021C528.809,985.546 551.49,950.034 573.982,916.353C570.316,911.304 562.003,894.828 558.859,888.707C548.428,868.142 538.292,847.43 528.454,826.576C550.391,795.36 561.968,770.144 578.782,735.855C593.992,751.763 610.371,773.268 625.882,790.496C637.039,750.662 649.789,711.291 664.1,672.479C682.915,623.084 702.67,574.053 723.356,525.411C733.072,502.039 743.364,478.222 752.378,454.573C753.408,451.873 753.322,450.589 752.752,447.907C756.866,441.245 773.084,422.043 778.509,416.849C770.786,469.508 763.638,520.492 762.44,573.781C762.158,586.301 760.415,601.008 760.73,613.25L761.719,614.015L764.196,611.031C766.66,607.183 769.091,603.014 771.671,599.3Z" style="fill:rgb(204,0,34);fill-rule:nonzero;"/>
                </g>
                <g transform="matrix(0.5,0,0,0.5,0,0)">
                    <path d="M1421.33,1476.05C1424.86,1471.08 1435.5,1456.87 1439.61,1453.02C1441.33,1454.02 1442.96,1455.04 1444.65,1456.09C1442.88,1460.32 1425.67,1472.97 1421.33,1476.05Z" style="fill:rgb(204,0,34);fill-rule:nonzero;"/>
                </g>
                <g transform="matrix(0.5,0,0,0.5,0,0)">
                    <path d="M608.989,1455.16C616.301,1462.77 622.057,1469.05 628.485,1477.46C624.332,1474.28 609.057,1462.07 606.041,1458.28L608.989,1455.16Z" style="fill:rgb(204,0,34);fill-rule:nonzero;"/>
                </g>
                <g transform="matrix(0.5,0,0,0.5,0,0)">
                    <path d="M741.293,1292.42C782.007,1194.71 845.374,1110.01 927.405,1043.08C955.547,1020.12 993.925,991.674 1031.47,992.071C1042.82,995.406 1049.28,999.076 1059.75,1004.69L1060.78,1005.51C1065.15,1008.98 1070.28,1012.24 1074.9,1015.5C1121.55,1048.38 1160.97,1091.88 1198.38,1134.64C1236.18,1177.85 1289.73,1235.79 1302.82,1293.09C1294.3,1294.01 1285.93,1294.11 1277.41,1294.95C1202.63,1302.36 1135.02,1339.15 1077.21,1385.96C1107.1,1345.35 1135.42,1317.21 1179.54,1291.6C1194.68,1282.82 1206.15,1276.02 1223.21,1269.97C1193.65,1202.58 1127.48,1128.86 1073.26,1079.77C1059.74,1067.52 1039.08,1049.33 1024.01,1039.41C1023.31,1098.12 1023.9,1157.82 1023.92,1216.61L1023.87,1521.06L1023.97,1644.11C1023.99,1666.16 1024.52,1690.59 1023.78,1712.42C1007.58,1701.19 988.362,1682.84 973.764,1669.25C894.673,1595.62 820.867,1510.73 774.096,1412.54C766.487,1396.57 752.484,1365.3 749.104,1348.13C783.355,1342.34 786.678,1346.73 816.867,1348.21C818.688,1349.04 819.94,1349.11 821.944,1349.46L826.202,1350.46C878.088,1356.86 959.356,1395.71 1002.22,1425.68C953.632,1366.12 881.513,1311.56 805.007,1296.16C786.432,1292.42 760.606,1292.79 741.293,1292.42Z" style="fill:white;fill-opacity:0.01;fill-rule:nonzero;"/>
                </g>
                <g transform="matrix(0.5,0,0,0.5,0,0)">
                    <path d="M1279.83,603.022C1279.55,597.504 1278.94,582.719 1286.68,581.962C1286.95,585.439 1288.97,612.83 1288.61,613.813C1287.47,614.656 1284.63,609.899 1284.15,609.199L1281.11,604.59C1280.68,604.067 1280.26,603.545 1279.83,603.022Z" style="fill-opacity:0.78;fill-rule:nonzero;"/>
                </g>
                <g transform="matrix(0.5,0,0,0.5,0,0)">
                    <path d="M1464.61,821.642C1466.24,821.401 1466.09,822.418 1466.74,823.793C1466.06,826.505 1465.39,829.248 1464.53,831.911C1461.53,837.668 1463.49,837.846 1457.88,839.255C1456.49,824.007 1455.07,828.417 1464.61,821.642Z" style="fill-rule:nonzero;"/>
                </g>
                <g transform="matrix(0.5,0,0,0.5,0,0)">
                    <path d="M1464.61,821.642C1466.24,821.401 1466.09,822.418 1466.74,823.793C1466.06,826.505 1465.39,829.248 1464.53,831.911C1461.53,837.668 1463.49,837.846 1457.88,839.255C1456.49,824.007 1455.07,828.417 1464.61,821.642Z" style="fill-rule:nonzero;"/>
                </g>
                <g transform="matrix(0.5,0,0,0.5,0,0)">
                    <path d="M1464.53,831.911C1463.47,839.602 1460.47,849.012 1457.51,856.181C1454.3,850.084 1459.09,850.023 1458.29,843.452C1457.98,840.851 1457.28,842.687 1457.88,839.255C1463.49,837.846 1461.53,837.668 1464.53,831.911Z" style="fill-opacity:0.94;fill-rule:nonzero;"/>
                </g>
                <g transform="matrix(0.5,0,0,0.5,0,0)">
                    <path d="M1447.64,878.257C1447.13,874.195 1449.71,860.356 1454.63,863.278C1452.95,868.265 1450.47,873.826 1447.64,878.257Z" style="fill-opacity:0.92;fill-rule:nonzero;"/>
                </g>
                <g transform="matrix(0.5,0,0,0.5,0,0)">
                    <path d="M1048.98,1681.46C1051.15,1678.66 1058.94,1668.01 1061.48,1667.16C1061.42,1668.44 1061.6,1668.39 1062.43,1669.66C1060.28,1672.84 1052.43,1678.67 1048.98,1681.46Z" style="fill:white;fill-rule:nonzero;"/>
                </g>
                <g transform="matrix(0.5,0,0,0.5,0,0)">
                    <path d="M1281.11,604.59C1282.12,603.53 1284.47,600.561 1285.5,599.882C1287.11,600.151 1289.6,607.73 1284.15,609.199C1283.15,607.653 1282.14,606.117 1281.11,604.59Z" style="fill:none;fill-rule:nonzero;"/>
                </g>
                <g transform="matrix(0.5,0,0,0.5,0,0)">
                    <path d="M816.867,1348.21C816.996,1347.99 817.124,1347.77 817.252,1347.55C815.798,1346.29 811.668,1347.87 816.018,1344.22C820.472,1345.89 821.23,1344.95 821.944,1349.46C819.94,1349.11 818.688,1349.04 816.867,1348.21Z" style="fill-opacity:0.94;fill-rule:nonzero;"/>
                </g>
            </g>
        </g>
    </g>
</svg>
