<?xml version="1.0" encoding="UTF-8" standalone="no"?>
<!DOCTYPE svg PUBLIC "-//W3C//DTD SVG 1.1//EN" "http://www.w3.org/Graphics/SVG/1.1/DTD/svg11.dtd">
<svg width="100%" height="100%" viewBox="0 0 483 492" version="1.1" xmlns="http://www.w3.org/2000/svg" xmlns:xlink="http://www.w3.org/1999/xlink" xml:space="preserve" xmlns:serif="http://www.serif.com/" style="fill-rule:evenodd;clip-rule:evenodd;stroke-linejoin:round;stroke-miterlimit:2;">
    <g transform="matrix(1,0,0,1,-15.093298,-10.875)">
        <g transform="matrix(1.164516,0,0,1.164516,-41.729818,-54.046744)">
            <path d="M205,199L264,195L311,214L344,256.5L336,285L323,299L313,314L329,348L325,363L314,402L316,430L323,456L338,477.599L282,477.599L207,425L165,367L137,266.675L152,188L205,199Z" style="fill:rgb(235,235,235);"/>
            <path d="M85.96,55.75C93.05,61.63 97.79,70.14 104.49,76.51C108.98,80.69 113.42,84.91 117.84,89.17C134.95,104.54 155.04,115.64 176.64,123.36C193.83,129.72 211.17,133.35 229,137.27C230.91,137.71 233.01,135.88 234.84,136.36C250.88,143.54 269.9,145.01 285.99,152.99C302.65,159.88 318.16,168.77 332.86,179.17C336.24,181.65 338.97,185.39 342.63,187.32C346.18,189.31 351.22,188.64 354.88,190.14C356.78,191.43 357.19,194.58 358.93,196.09C361,197.44 363.57,198.06 365.72,199.29C366.92,200.35 367.61,202.08 368.3,203.51C365.72,209.7 367.07,217.28 368.16,223.73C368.77,223.08 369.36,222.4 369.94,221.72C374.68,231.55 379.39,242 381.22,252.82C382.21,257.39 384.16,261.14 383.93,265.97C384.06,267.74 383.42,270.06 384.23,271.66C385.59,273 387.4,273.99 389.04,274.96C404.49,283.93 419.5,292.22 433.38,303.63C437.33,306.97 441.31,309.42 444,314C446.85,318.78 451.28,322.06 454.25,326.76C457.79,332.16 461.03,337.99 463.4,344C462.79,345.26 461.91,346.33 460.87,347.26C457.64,346.81 454.21,345.38 450.97,345.47C446.92,345.86 442.87,347.86 438.99,349.06C427.72,352.66 415.81,354.53 403.99,354.82C390.84,355.77 378.02,354.17 364.94,354.51C357.24,355.75 349.82,359.91 343.88,364.87C332.17,374.69 324.26,388.65 321.81,403.73C320.9,408.27 319.59,412.48 320.82,417.09C322.54,423.45 323.55,429.46 326.3,435.38C327.17,438.62 327.74,442.05 329,445.16C332.21,451.49 335.92,457.5 339.26,463.75C341.82,468.42 345.28,472.5 347.91,477.1C339.77,477.47 331.53,477.68 323.38,477.57C312.13,461.83 305.63,442.12 302.73,423.11C302.15,413 301.82,402.69 305.35,393.08C306.96,389.05 308.43,384.97 309.9,380.88C311.47,376.57 313.65,372.28 314.75,367.86C309.53,367.57 304.65,371.15 300.26,373.7C297.51,376.18 295.1,378.92 292,381C287.09,384.39 283.69,389.08 279.26,392.96C283.67,377.07 294.19,361.91 308.59,353.58C312.22,351.29 316.3,350.47 320.16,348.77C320.38,346.6 320.79,344.5 319.36,342.64C315.89,337.8 309.92,334.7 304.54,332.48C294.27,328.56 282.6,327.74 271.83,326.85C272.89,325.18 274.41,324.1 276,322.99C282.98,318.14 290.17,313.62 297.73,309.73C301.94,307.31 306.6,305.4 310.52,302.54C310.66,301.82 310.74,301.09 310.77,300.35C306.59,299.23 302.51,298.11 298.48,296.52C294.57,295.16 290.69,294.26 287.24,297.23C278.87,304.1 268.99,308.66 257.99,308.49C252.9,308.3 247.08,307.37 242.79,304.44C249.86,303.36 256.55,303.18 263.23,300.25C264.69,299.49 266.49,299.27 266.9,297.45C259.88,296.77 252.24,296.97 246.13,292.87C239.5,288.49 235.94,281.44 232.46,274.54C231.34,271.94 229.83,269.2 229.45,266.37C233.43,262.09 238.7,259.57 243.62,256.62C244.67,255.92 245.91,255.3 246.41,254.06C242.47,249.87 235.38,249.54 230.11,248.28C231.75,246.81 234.03,246.53 236.11,246.06C245.01,244.52 254.85,245.43 262.6,250.39C276.9,259.06 287.89,270.94 303.98,276.92C308.59,278.93 313.36,278.69 318.21,277.94C318.61,273.79 318.86,269.3 317.68,265.26C314.35,253.02 307.78,242.08 299.2,232.81C295.96,229.31 292.16,226.43 288.96,222.88C293.15,224.12 296.57,226.43 300.05,228.98C304.42,232.2 309.57,233.92 313.93,237.08C323.24,244.25 329.68,253.49 335.28,263.69C336.99,266.84 338.61,270.39 340.95,273.11C344.37,270.92 346.78,267.86 348.03,263.99C350.47,257.31 347.39,250.67 348.09,243.15C352.58,249.62 356.89,259.17 365.78,260.11C364.57,247.23 359.26,234.51 352.39,223.64C348.65,217.8 344.39,212.43 339.33,207.67C327.06,194.86 312.03,184.53 296.03,176.95C286.97,172.16 277.45,168.69 267.86,165.15C259.61,162.29 251.23,161.06 242.75,159.24C236.39,157.9 230.44,155.28 224.08,153.89C208.36,150.24 192.75,146.19 177.23,141.73C158.16,135.89 140.03,127.72 123.54,116.44C118.45,112.96 113.13,107.16 106.99,105.9C106.78,110.79 108.61,115.13 110.4,119.58C113.09,126.02 116.91,131.41 120.89,137.08C126.83,145.36 133.32,153.36 141.58,159.42C145.39,162.33 149.87,164.77 153.2,168.14C150.63,169.48 146.92,168.24 144.24,167.72C129.37,164.14 117.32,154.3 103.87,149.04C104.08,154.8 106.45,159.95 108.9,165.07C113.53,174.55 119.89,182.32 126.78,190.21C130.1,194 133.94,196.98 136.95,200.93C128.84,201.61 120.99,199.14 113.4,196.57C107.66,194.65 102.54,191.48 96.93,189.28C100.73,199.87 108.74,209.5 116.44,217.55C126.95,228.08 139.52,236.68 152.91,243.13C158.17,245.69 163.56,248.29 169.25,249.75C172.88,250.64 176.36,251.8 179.84,253.15C186.32,255.69 193.02,256.23 199.69,258.21C206.43,260.04 214.81,261.26 220.48,265.52C221.23,267.66 220.97,270.04 221.87,272.18C222.87,274.79 223.7,277.43 224.03,280.21C218.99,278.7 214.48,276 209.31,274.79C202.58,272.9 196.22,273.57 189,273.33C180.62,273.62 173.22,272.31 165.4,276.02C166.53,280.82 168.7,285.42 171.62,289.39C173.2,291.6 174.93,293.63 175.75,296.27C176.97,301.63 174.99,308.58 177.28,313.7C179.82,316.83 182.64,319.72 185.08,322.94C195.44,335.75 210.33,343.58 226.38,346.61C229.1,347.06 230.51,348.03 232.28,350.08C230.3,352.41 227.66,354.28 225.43,356.42C221.02,360.51 217.58,365.11 213.66,369.65C211.86,371.99 209.84,373.66 210.84,376.93C216.21,395.92 226.11,412.98 239.12,427.75C239.46,428.71 239.8,429.67 240.23,430.59C241.56,430.59 242.91,430.39 244.21,430.12C242.58,425.51 242.68,422.58 243.59,417.82C246.29,422.43 248.2,427.3 251.33,431.66C260.19,445.23 273.09,455.07 287.08,462.92C293.72,466.68 300.77,469.68 307.49,473.29C306.35,474.35 305.68,474.89 304.04,474.89C293.8,475.27 284.71,477.2 274.45,475.38C267.67,474.14 261.77,473.95 254.93,474.77C252.35,475.18 250.79,473.55 248.92,472.09C237.86,462.09 225.86,453.45 215.25,442.75C210.52,438.06 206.84,432.57 202.31,427.68C187.48,410.42 175.89,390.23 168.13,368.85C167.71,367.46 167.06,365.81 167.3,364.35C172.27,359.43 181.28,357.88 185.65,352.34C180.04,349.18 173.96,346.98 168.51,343.46C152.01,333.76 139.97,318.88 130.44,302.53C130,301.6 129.15,300.41 129.35,299.34C133.55,296.62 138.28,295.3 142.22,291.99C139.61,289.22 136.36,287.15 133.43,284.59C128.03,279.75 122.9,274.41 117.09,270.07C112.48,276.23 108.83,283.19 104.73,289.71C99.35,300.13 93.66,310.54 89.51,321.53C86.84,328.03 84.05,334.43 82.18,341.22C80.84,346.15 78.59,351.06 78,356.1C79.97,355.49 81.62,354.51 83.25,353.26C87.45,350.01 91.4,346.88 94.46,342.47C96.46,339.89 97.56,337.13 100.82,335.92C99.67,345.85 96.41,356.42 96.88,367.06C97.03,368.21 96.96,370.25 98.17,370.85C101.07,372.73 104.49,373.89 107.59,375.42C130.53,386.91 151.38,402.35 168.58,421.42C175.32,429.26 181.47,437.39 186.36,446.51C186.67,447.69 186.93,448.89 187.12,450.1C179.78,445.1 172.85,439.51 165.56,434.45C155.76,427.84 146.14,421.01 135.89,415.1C124.06,407.54 111.53,401.37 99.11,394.86C97,393.81 95.17,391.82 92.9,391.2C88.34,390.43 83.07,391.38 79.56,394.56C77.4,396.47 76.56,399.88 75.06,402.35C71.68,400.69 71.4,397.44 68.98,395.02C66.11,392.83 62.75,391.38 59.95,389.05C55.69,385.72 53.13,381.28 50.25,376.78C49.67,375.68 48.56,374.3 48.84,373.01C49.83,364.79 53,356.53 55.88,348.8C56.87,346 59.2,343.73 59.89,340.88C60.93,334.06 64.4,327.9 66.4,321.27C75.23,300.4 85.3,279.77 97.91,260.9C100.61,256.71 103.92,252.97 106.7,248.86C102.01,242.47 95.91,237.18 91.5,230.5C83.68,220.32 77.34,209.19 72.85,197.14C66.8,181.64 63.85,165.75 60.97,149.45C61.72,147.65 62.5,145.86 63.21,144.04C65.18,145.99 66.77,148.29 68.73,150.27C72.51,154.16 77.01,157.39 81.31,160.69C82.76,161.89 83.97,162.04 85.8,162C85.53,161.29 85.23,160.59 84.92,159.89C76.76,144.89 73.43,126.45 71.24,109.67C70.42,104.94 71.23,100.54 71.78,95.84C74.97,96.67 76.33,101.29 78.34,103.69C81.49,107.69 84.71,112.27 88.91,115.22C88.36,110.91 86.87,106.82 86.21,102.52C84.87,95.84 85.62,89.05 85.39,82C85.55,73.27 85.16,64.44 85.96,55.75Z" style="fill:rgb(4,10,154);fill-rule:nonzero;"/>
            <path d="M87.12,71.05L87.87,71.33C88.16,77.45 88.11,83.74 87.93,89.87L87.1,89.86C86.89,83.65 86.93,77.26 87.12,71.05Z" style="fill:rgb(8,72,170);fill-rule:nonzero;"/>
            <path d="M106.99,105.9C113.13,107.16 118.45,112.96 123.54,116.44C140.03,127.72 158.16,135.89 177.23,141.73C192.75,146.19 208.36,150.24 224.08,153.89C230.44,155.28 236.39,157.9 242.75,159.24C251.23,161.06 259.61,162.29 267.86,165.15C277.45,168.69 286.97,172.16 296.03,176.95C312.03,184.53 327.06,194.86 339.33,207.67C344.39,212.43 348.65,217.8 352.39,223.64C359.26,234.51 364.57,247.23 365.78,260.11C356.89,259.17 352.58,249.62 348.09,243.15C347.39,250.67 350.47,257.31 348.03,263.99C346.78,267.86 344.37,270.92 340.95,273.11C338.61,270.39 336.99,266.84 335.28,263.69C329.68,253.49 323.24,244.25 313.93,237.08C309.57,233.92 304.42,232.2 300.05,228.98C296.57,226.43 293.15,224.12 288.96,222.88C285.96,220.66 282.89,218.9 279.03,218.88C280.25,223.3 282.38,227.3 283.24,231.85C277.69,229.56 272.65,226.21 267.09,223.92C254.47,218.31 240.81,215.33 226.97,216.35C221.78,216.26 217.42,218.19 212.52,219.52C203.54,222.12 195,225.9 187.44,231.43C184.42,233.77 181.83,236.57 178.7,238.78C174.33,241.51 173.23,246.47 169.25,249.75C163.56,248.29 158.17,245.69 152.91,243.13C139.52,236.68 126.95,228.08 116.44,217.55C108.74,209.5 100.73,199.87 96.93,189.28C102.54,191.48 107.66,194.65 113.4,196.57C120.99,199.14 128.84,201.61 136.95,200.93C133.94,196.98 130.1,194 126.78,190.21C119.89,182.32 113.53,174.55 108.9,165.07C106.45,159.95 104.08,154.8 103.87,149.04C117.32,154.3 129.37,164.14 144.24,167.72C146.92,168.24 150.63,169.48 153.2,168.14C149.87,164.77 145.39,162.33 141.58,159.42C133.32,153.36 126.83,145.36 120.89,137.08C116.91,131.41 113.09,126.02 110.4,119.58C108.61,115.13 106.78,110.79 106.99,105.9Z" style="fill:rgb(8,72,170);fill-rule:nonzero;"/>
            <path d="M60.36,141.99C61.36,142.59 62.33,143.25 63.21,144.04C62.5,145.86 61.72,147.65 60.97,149.45C60.55,146.97 60.34,144.5 60.36,141.99Z" style="fill:rgb(8,72,170);fill-rule:nonzero;"/>
            <path d="M368.3,203.51C369.76,206.54 371.03,209.57 371.25,212.98C371.36,215.84 370.47,218.89 369.94,221.72C369.36,222.4 368.77,223.08 368.16,223.73C367.07,217.28 365.72,209.7 368.3,203.51Z" style="fill:rgb(8,72,170);fill-rule:nonzero;"/>
            <path d="M249.31,250.33C251.52,249.95 253.84,249.89 256.08,249.94C255.22,251.35 252.16,250.94 250.65,251.58C250.02,252.64 249.48,253.74 248.91,254.84C249.01,253.33 249.1,251.83 249.31,250.33Z" style="fill:rgb(8,72,170);fill-rule:nonzero;"/>
            <path d="M256,263.69C261.65,264.99 266.79,269.39 271.12,273.09C266.84,281.45 252.32,276.87 252.21,268.07C252.2,265.87 253.28,263.05 256,263.69Z" style="fill:rgb(254,254,255);fill-rule:nonzero;"/>
            <path d="M117.09,270.07C122.9,274.41 128.03,279.75 133.43,284.59C136.36,287.15 139.61,289.22 142.22,291.99C138.28,295.3 133.55,296.62 129.35,299.34C129.15,300.41 130,301.6 130.44,302.53C139.97,318.88 152.01,333.76 168.51,343.46C173.96,346.98 180.04,349.18 185.65,352.34C181.28,357.88 172.27,359.43 167.3,364.35C167.06,365.81 167.71,367.46 168.13,368.85C175.89,390.23 187.48,410.42 202.31,427.68C206.84,432.57 210.52,438.06 215.25,442.75C225.86,453.45 237.86,462.09 248.92,472.09C250.79,473.55 252.35,475.18 254.93,474.77C261.77,473.95 267.67,474.14 274.45,475.38C284.71,477.2 293.8,475.27 304.04,474.89C305.68,474.89 306.35,474.35 307.49,473.29C310.39,474.49 313.39,475.45 316.27,476.72C286.56,478.13 256.72,477.24 226.98,477.53C224.33,477.46 220.89,477.89 218.55,476.44C214.7,474.24 212.33,470.09 208.67,467.35C201.14,462.07 194.15,456.02 187.12,450.1C186.93,448.89 186.67,447.69 186.36,446.51C181.47,437.39 175.32,429.26 168.58,421.42C151.38,402.35 130.53,386.91 107.59,375.42C104.49,373.89 101.07,372.73 98.17,370.85C96.96,370.25 97.03,368.21 96.88,367.06C96.41,356.42 99.67,345.85 100.82,335.92C97.56,337.13 96.46,339.89 94.46,342.47C91.4,346.88 87.45,350.01 83.25,353.26C81.62,354.51 79.97,355.49 78,356.1C78.59,351.06 80.84,346.15 82.18,341.22C84.05,334.43 86.84,328.03 89.51,321.53C93.66,310.54 99.35,300.13 104.73,289.71C108.83,283.19 112.48,276.23 117.09,270.07Z" style="fill:rgb(8,72,170);fill-rule:nonzero;"/>
            <path d="M206.97,271.68C202.99,272.16 198.89,272.01 194.92,271.6C198.66,270.91 203.36,270.34 206.97,271.68Z" style="fill:rgb(8,72,170);fill-rule:nonzero;"/>
            <path d="M361.16,282.97C365.56,282.44 369.33,281.29 373.5,283.53C396.75,295.37 420.29,308.46 438.32,327.67C440.37,330.21 443.35,331.56 442.44,335.29C441.2,335.46 439.96,335.58 438.71,335.69C439.47,335.42 443.07,334.98 441.79,333.68C423.94,327.58 405.03,324 386.89,320.12C383.08,319.24 379.28,319.86 375.53,318.57C361.36,315.59 346.59,314.81 332.15,314.25C327.78,313.27 323.42,313.45 318.99,313.09C319.07,312.2 319.2,311.31 319.38,310.43C323.27,308.98 327.24,307.86 330.98,306C335.56,304.06 340.29,301.55 345.16,300.5C350.7,300.62 356.15,304.05 361.84,303.88C363.41,303.55 364.75,302.82 366.12,302.03C361.52,298 356.24,295.22 350.44,293.34C350.24,291.98 350.31,291.25 351.24,290.17C360.27,290.5 368.07,294.69 376.33,296.32C374.44,291.66 369.42,289.57 365.24,287.47C363.17,286.51 361.99,285.06 361.16,282.97Z" style="fill:rgb(254,254,255);fill-rule:nonzero;"/>
            <path d="M333.22,317.18C337.49,316.89 341.8,316.98 346.05,317.41C341.96,318.21 337.69,318.19 333.56,317.82L333.22,317.18Z" style="fill:rgb(8,72,170);fill-rule:nonzero;"/>
            <path d="M351.59,318.23C355.03,317.85 358.56,317.96 362,318.32C358.74,319.59 354.66,318.91 351.21,318.82L351.59,318.23Z" style="fill:rgb(8,72,170);fill-rule:nonzero;"/>
            <path d="M346.14,321.34C343.33,322.16 340.71,322.16 337.82,321.73C340.33,320.39 343.43,321.1 346.14,321.34Z" style="fill:rgb(8,72,170);fill-rule:nonzero;"/>
            <path d="M306.49,324.41C303.9,324.41 301.47,324.08 298.95,323.49C301.83,322.7 303.96,322.62 306.49,324.41Z" style="fill:rgb(8,72,170);fill-rule:nonzero;"/>
            <path d="M325.02,324.16C334.01,323.84 343.06,324.93 352.04,324.57C358.46,324.28 364.53,326.53 370.98,326.53C378.64,327.52 386.13,329.29 393.89,329.66C399.49,330.85 405.04,332.37 410.68,333.46C414.58,334.42 418.89,334.85 422.54,336.57C423.11,337.48 421.39,338.74 420.74,339.24C412.33,337.89 404.42,339.7 396,339.46C384.66,339.18 373.31,339.26 361.96,339.29C355.64,339.3 349.16,340.82 343.03,340.22C340.64,339.35 338.85,336.71 336.97,335.04C332.41,330.51 326.92,328.15 321.19,325.52C322.4,324.77 323.56,324.17 325.02,324.16Z" style="fill:rgb(254,254,255);fill-rule:nonzero;"/>
            <path d="M396.84,326.36C399.92,325.94 402.94,325.95 406.02,326.26C403.15,327.08 399.47,328.5 396.84,326.36Z" style="fill:rgb(8,72,170);fill-rule:nonzero;"/>
            <path d="M360.04,342.44C355.35,343.08 350.59,343.12 345.88,342.65C350.4,341.55 355.43,342.22 360.04,342.44Z" style="fill:rgb(8,72,170);fill-rule:nonzero;"/>
            <path d="M367.36,351.12C375.91,351.04 384.5,351.45 393.06,351.52C384.51,351.49 375.94,352 367.4,351.87L367.36,351.12Z" style="fill:rgb(8,72,170);fill-rule:nonzero;"/>
            <path d="M393.95,351.48C401.63,351.37 409.46,350.58 417.12,351.35C415.44,351.76 413.8,352.11 412.06,352.02C406.03,351.94 399.98,351.75 393.95,351.48Z" style="fill:rgb(8,72,170);fill-rule:nonzero;"/>
            <path d="M314.75,367.86C313.65,372.28 311.47,376.57 309.9,380.88C308.43,384.97 306.96,389.05 305.35,393.08C304.42,387.47 304.43,381.61 303.01,376.12C302.6,374.48 301.61,374.34 300.26,373.7C304.65,371.15 309.53,367.57 314.75,367.86Z" style="fill:rgb(8,72,170);fill-rule:nonzero;"/>
            <path d="M321.81,403.73C323.82,410.16 326.78,416.16 329.25,422.39C329.53,426.66 328.38,431.6 326.3,435.38C323.55,429.46 322.54,423.45 320.82,417.09C319.59,412.48 320.9,408.27 321.81,403.73Z" style="fill:rgb(8,72,170);fill-rule:nonzero;"/>
            <path d="M241.14,412.26C241.98,414.1 242.78,415.96 243.59,417.82C242.68,422.58 242.58,425.51 244.21,430.12C242.91,430.39 241.56,430.59 240.23,430.59C239.8,429.67 239.46,428.71 239.12,427.75C241.45,423.17 240.35,417.45 241.14,412.26Z" style="fill:rgb(8,72,170);fill-rule:nonzero;"/>
        </g>
    </g>
</svg>
