<?xml version="1.0" encoding="UTF-8" standalone="no"?>
<!DOCTYPE svg PUBLIC "-//W3C//DTD SVG 1.1//EN" "http://www.w3.org/Graphics/SVG/1.1/DTD/svg11.dtd">
<svg width="100%" height="100%" viewBox="0 0 903 994" version="1.1" xmlns="http://www.w3.org/2000/svg" xmlns:xlink="http://www.w3.org/1999/xlink" xml:space="preserve" xmlns:serif="http://www.serif.com/" style="fill-rule:evenodd;clip-rule:evenodd;stroke-linejoin:round;stroke-miterlimit:2;">
    <g transform="matrix(1,0,0,1,-51.4,-15.170917)">
        <g transform="matrix(1,0,0,1,51.4,15.170917)">
            <path d="M522.94,0L523.42,0C531.57,11.2 539.23,23.22 548.42,33.59C562.37,50.78 582.28,63.97 601.9,73.88C622.89,84.2 644.49,90.25 667.04,96.02C692.32,102.56 716.91,111.14 740.39,122.62C755.69,130.37 770.19,139.63 783.37,150.64C793.7,159.81 802.97,170 809.86,182.06C819.61,198.19 825.06,217.44 824.34,236.32C840.91,245.68 858.33,255.71 872.64,268.33C879.63,273.89 885.09,281.32 890.55,288.45C895.69,295.49 899.27,303.22 902.2,311.39C897.42,310.01 891.84,308.08 886.85,309.05C882.85,309.84 879,311.37 875.05,312.4C850.57,319.71 825.3,320.23 799.99,319.46C794.48,319.23 790.5,322.11 786.41,325.35C775.72,333.53 767.4,345.24 763.68,358.21C761.94,364.17 762.23,369.86 762.19,376C761.95,385.24 765.47,394.8 767.39,403.94C768.88,411.44 771.96,418.44 773.33,425.98C781.34,461.27 777.54,499.29 762.66,532.29C754.2,552.16 741.51,570.93 725.06,585.05C718.13,590.83 714.16,598.1 707.9,604.91C701.3,611.79 695.48,619.07 688.1,625.17C669.61,642.54 648.46,657.15 626.19,669.24C618.33,673.27 610.7,677.65 602.7,681.37C599,683.22 595.51,684.43 593.16,688.08C586.24,698.5 580.87,709.79 573.84,720.17C584.6,728.48 595.47,736.56 606.46,744.55C623.82,756.3 640.5,769.93 658.52,780.41C663.05,783.1 667.11,786.55 671.72,789.09C677.44,791.67 683.91,792.83 689.94,794.54C697.39,796.47 703.44,801.06 710.79,802.67C715.5,803.75 721.06,805.1 724.96,808.09C729.53,812.08 732.78,817.71 736.79,822.28C740.18,826.6 744.23,830.16 744.67,835.99C744.81,841.78 746.81,847.22 746.64,853C746.9,862.3 741.74,871.96 733.51,876.47C730.18,878.36 726.74,879.4 723.15,880.68C725.69,874.97 729.42,867.07 725.96,861.06C724.01,864.42 724.26,868.18 722.8,871.78C720.68,877.17 720.07,882.51 717.3,887.65C714.31,893.33 710.14,898.11 703.81,900.02C697.53,902.27 691.38,901.29 685.27,899.1C685.29,898.79 685.32,898.48 685.34,898.18C689.49,896.55 692.93,893.98 694.9,889.9C696.33,887.21 695.83,884.54 695.72,881.62C694.88,881.52 694.05,881.42 693.21,881.32C689.63,888.44 684.87,894.47 677.26,897.48C669.57,900.56 660.64,899.25 653.06,896.49C660.64,893.34 668.89,887.11 668.81,878.09C667.65,875.55 665.13,873.67 664.2,870.9C662.27,866.31 662.69,861.84 662.54,856.99C662.64,852.71 659.16,848.58 656.48,845.52C650.76,839.46 643.76,833.23 635.66,830.71C632.18,829.7 628.49,828.81 624.93,830.04C619.28,831.71 615.17,835.9 609.83,837.83C605.89,839.27 601.97,838.43 597.9,838.15C592.92,844.66 593.76,852.03 595.8,859.49C583.07,853.16 576.86,837.8 579.41,824.17C580.28,820.16 583.02,817.46 584.65,813.79C585.98,810.93 586.57,808.2 589.19,806.15C594.08,802.03 600.96,802.09 607,801.88C610.02,801.71 613.93,802.28 616.39,800.22C617.83,797.47 615.08,796.26 613.45,794.54C592.81,778.5 570.92,764.72 549.75,750.24C543.8,746.29 537.77,742.47 531.95,738.34C529.93,738.7 528.43,740.02 526.64,738.39C519.46,732.52 511.91,725.37 507.96,716.85C506.77,714.55 505.87,711.78 504.16,709.83C499.1,710.27 494.06,710.97 489,711.37C480.68,711.89 472.31,711.53 463.98,711.74C461.39,711.57 459.52,714.4 457.9,716.06C448.64,726.12 443.08,738.81 433.23,748.84C439.51,767.9 446.21,786.81 453.63,805.47C459.46,820.89 465.54,836.06 473.39,850.6C475.83,854.89 477.76,859.13 481.5,862.48C485.89,866.45 489.52,870.46 494.41,873.69C502.33,878.99 511.66,882.36 520.47,886.46C525.61,888.9 531.49,890.56 536.18,893.8C541.13,897.98 544.79,904.19 548.86,909.21C551.67,912.82 554.62,915.73 555.5,920.42C556.55,926.29 558.82,932.1 559.19,938C558.66,946.71 555.01,955.58 548.59,961.61C545.56,964.58 542.08,966.62 538.44,968.73C539.13,963.87 540.64,958.44 540.11,953.55C539.71,949.6 538.2,946.13 536.53,942.58C534.05,941.86 531.6,941.06 529.16,940.24C530.73,945.45 533.84,952.11 532.44,957.56C530.82,962.91 530.81,968.39 528.64,973.62C525.57,982.04 519.8,989.52 510.91,992.13C504.97,994.23 498.74,992.93 493.58,989.54C496.72,988 499.69,986.74 502.05,984.03C504.5,981.4 505,978.24 505.87,974.88C502.4,971.44 498.9,968.34 496.88,963.75C495.66,970.91 493.73,977.65 489.83,983.85C487.3,988.34 483.01,991.66 478.12,993.21C474.36,994 470.12,993.54 466.31,993.37C471.56,987.64 474.27,980.34 471.97,972.66C470.2,970.36 466.66,968.71 465.16,965.9C462.7,961.39 461.86,956.02 463,950.99C463.43,947.89 464.84,944.73 463.72,941.74C461.05,931 453.06,922.23 446.49,913.52C444.39,911.07 442.66,907.52 439.51,906.46C435.8,904.98 431.96,903.09 427.99,902.5C425.04,903.09 422.06,904.64 419.06,905.1C417.07,905.31 414.89,904.65 412.95,904.22L412.28,904.09C406.86,909.86 405.8,916.9 405.39,924.51C402.71,921.69 400.05,919.24 398.07,915.84C393.97,908.72 392.48,900.09 393.45,891.98C393.96,887.92 396.06,884.74 398.97,881.98C402.17,879.02 402.93,874.9 406.17,872.1C409.26,869.51 412.89,867.71 417,867.76C423.45,867.49 428.46,869.93 434.83,870.97C435.35,863.56 432.21,857.89 429.94,851.02C424.57,835.27 417.72,820.2 411.55,804.75C405.05,790.13 398.62,775.45 391.55,761.09C390.67,761.52 389.8,761.96 388.93,762.39C384.3,755.71 380.8,748.4 378.15,740.73C376.47,735.68 376.27,730.43 374.21,725.49C370.43,727.26 366.64,728.99 362.78,730.57C362.86,722.91 363.18,715.47 365.17,708.04C366.49,702.61 368.59,697.48 370.35,692.2C364.93,691.2 360.87,691.67 355.86,693.88C342.33,699.88 328.71,705.67 315.41,712.14C311.31,714.18 306.76,715.13 304.23,719.23C297.46,729.38 290.34,739.29 283.74,749.56C276.72,759.65 270.36,770.18 263.21,780.18C244.87,807.56 226.39,834.81 208.38,862.41C204.21,869.03 199.19,875.14 193.9,880.9C182.91,891.44 168.47,897.19 153.37,898.34C144.23,908.24 134.26,916.63 121.56,921.59C114.36,924.57 106.75,925.91 99,926.38C93.42,926.67 88.28,925.3 82.82,924.76C77.83,927.94 73.51,932.17 68.42,935.28C56.41,942.63 44.22,948.53 30.05,950.16C23.91,950.7 17.47,950.18 12.15,946.81C7.66,943.81 5.62,938.27 6.22,933.02C7.27,925.6 9.74,918.65 13.1,911.98C4.33,908.15 0.94,899.78 0,890.79L0,885.11C1.83,866.65 11.94,851.47 24.05,838.05C31.46,830.46 39.28,823.28 46.78,815.77C54.87,807.52 63.44,799.78 71.63,791.62C80.59,783.58 88.82,774.83 97.49,766.48C110.01,753.67 123.17,741.48 135.99,728.99C148.59,716.91 160.61,704.23 173.47,692.44C178.44,687.76 183.04,682.74 188.11,678.16C195.36,671.79 201.7,664.53 208.95,658.16C177.93,665.45 147.13,672.83 115.63,678.31C118.28,674.75 121.08,671.33 124.05,668.03C134.07,656.71 143.98,645.48 155.24,635.34C165.18,626.48 175.19,617.78 186.09,610.1C188.02,608.47 190.9,607.35 191.22,604.55C192.03,600.01 192.77,595.5 194.23,591.11C195.74,586.17 198.72,581.64 200.97,576.85C205.26,568.36 208.87,560.16 214.35,552.39C218.2,546.31 222.79,540.84 227.15,535.14C230.07,531.36 232.54,527.31 235.61,523.64C241.8,516.4 246.86,508.36 253.4,501.4C272.71,478.04 298.51,458.66 323.05,441.07C327.27,437.64 330.01,433.46 333.13,429.09C350.02,406.02 369.04,384.43 390.56,365.56C397.57,359.85 404.17,353.76 411.5,348.47C427.77,335.86 445.34,324.89 463.8,315.77C472.62,311.31 482.09,308.01 491.18,304.11C493.06,300.19 494.43,296.1 495.94,292.03C499.58,282.02 504.04,272.39 508.55,262.76C518.16,242.85 529.63,223.85 544.13,207.1C545.19,205.79 544.99,205.29 543.94,204.08C518.46,177.18 502.2,141.64 497.22,105.03C497.08,105.6 496.94,106.17 496.8,106.74C496.76,104.42 496.67,102.1 496.56,99.78C504.04,108.11 512.1,115.69 522.19,120.77C514.57,104.71 509.23,87.74 507.42,70C506.13,61.52 506.54,52.75 506.7,44.19C513.28,54.34 519.19,64.35 527.79,73.06C519.67,50.33 520.29,23.69 522.94,0Z" style="fill:rgb(7,30,144);fill-rule:nonzero;"/>
            <path d="M542.76,52.8C547.44,57.21 551.61,62.21 556.54,66.45C569.28,76.97 583.54,84.73 598.48,91.62C622.08,102.72 649.36,109.01 674.37,116.57C695.55,123.08 716.6,130.75 736.43,140.69C745.9,145.92 755.68,151.14 764.24,157.78C771.93,163.36 779.13,169.46 785.15,176.84C796.64,190.54 805.2,208.22 805.93,226.28C803.17,224.98 800.56,223.85 798.43,221.57C794.17,217.11 791.69,211.36 787.51,206.77C787.95,214.51 789.61,222.85 786.21,230.19C784.65,233.77 781.91,236.14 778.7,238.21C775.84,229.44 771.28,221.51 765.95,214.02C758.46,204.19 747.81,197.53 737.03,191.87C735.48,191.08 734.69,190.95 733.01,191.51C728.41,188.25 723.87,185.02 718.82,182.48C721.18,187.84 723.61,192.85 723.76,198.84C716.23,194.7 708.77,189.58 700.73,186.65C685.14,180.86 667.4,179.74 651.27,183.81C637.31,187.14 624.3,195.07 615.02,206.02C613.08,208.27 611.22,210.59 609.28,212.84C601.31,209.88 593.24,206.47 585.96,202.04C574.57,195.16 562.7,187.21 553.75,177.28C545.76,168.47 538.43,159.29 534.66,147.86C542.1,152.37 549.74,156.25 558.01,159.03C563.64,160.92 569.26,161.83 575.09,162.82C565.75,151.92 555.21,140.32 548.96,127.35C545.66,120.59 542.99,113.32 541.96,105.84C548.03,109.94 553.66,114.45 560.17,117.89C570.2,123.2 579.8,128.23 591.27,129.56C587.2,125.68 582.82,122.14 578.8,118.21C560.08,100.89 547.8,77.72 542.76,52.8Z" style="fill:rgb(98,159,215);fill-rule:nonzero;"/>
            <path d="M700.73,186.65C708.77,189.58 716.23,194.7 723.76,198.84C723.61,192.85 721.18,187.84 718.82,182.48C723.87,185.02 728.41,188.25 733.01,191.51C738.53,195.55 742.85,201.56 746.78,207.11C753.97,217.65 758.81,229.48 757.51,242.48C752.79,243.55 747.74,243.07 743.11,241.81C733.48,238.35 724.8,231.39 716.61,225.34C708.38,219.05 700.1,212.27 689.52,210.63C683.08,209.92 675.64,209.82 669.62,212.53C675.72,214.19 681.55,215.17 686.66,219.23C680.41,222.54 674.29,225.73 668.94,230.45C671.78,239.78 676.6,250.4 684.67,256.33C690.87,260.92 698.34,261.35 705.69,262.22C698.23,266.62 690.13,267.45 681.66,267.82C689.63,273.58 701.25,273.17 710.24,270.29C716.9,268.34 721.89,264.31 727.39,260.35C729.77,258.53 732.53,259.18 735.22,259.75C740.53,261.12 745.67,262.94 750.43,265.71C737.53,271.48 725.48,278.54 714.2,287.04C712.97,288.04 711.83,289.14 710.69,290.23C716.53,290.51 722.24,290.22 728,291.45C734.81,292.78 742.31,294.35 748.38,297.81C753.34,300.87 757.83,304.03 758.99,310.16C751.62,313.14 744.59,316.3 738.51,321.55C728.01,330.57 720.79,343.73 717.11,356.97C721.23,351.48 726.02,346.72 731.08,342.11C739.19,335.7 747.49,330.18 757.76,327.97C750.28,335.83 746.4,345.72 744.08,356.17C742.48,363.45 742.59,370.6 742.88,378C743.4,385.36 745.31,392.8 746.92,399.98C748.13,405.02 746.41,410.9 745.49,415.94C743.28,427.29 738.48,438.19 731.22,447.22C727.87,440.33 724.12,433.74 718.92,428.05C707.73,414.63 695.17,404.18 685.9,389.11C682.73,384.13 680.47,378.73 677.63,373.59C677.4,379.52 676.83,385.42 676.38,391.34C671.51,385.79 666.63,380.63 662.67,374.34C658.4,367.55 654.2,360.36 651.29,352.87C649.26,347.95 648.07,342.83 646.6,337.73C648.9,332.31 653.64,327.88 657.49,323.49C661.22,319.43 665.64,316.11 669.35,312.05C665.12,310.29 660.87,309.03 656.38,308.08C649.11,306.59 642.19,302.95 636.09,298.81C629.85,293.84 623.84,288.39 618.85,282.15C617.29,280.19 615.47,278.13 614.53,275.79C613.88,272.3 614.36,268.54 614.29,265C614.91,255.36 605.65,248.49 603.95,238.55C613.01,236.01 623.65,236.57 633,236.55C637.84,236.49 642.66,236.99 647.38,238.05C652.98,239.37 657.59,242.03 662.89,244.08C662.05,239.24 660.54,234.62 660.09,229.7C652.55,224.77 642.67,223.05 633.99,220.88C625.47,218.99 617.45,215.83 609.28,212.84C611.22,210.59 613.08,208.27 615.02,206.02C624.3,195.07 637.31,187.14 651.27,183.81C667.4,179.74 685.14,180.86 700.73,186.65Z" style="fill:rgb(254,254,254);fill-rule:nonzero;"/>
            <path d="M553.95,227.49C557.67,231.29 561.16,235.31 565.01,238.99C569.46,243.42 574.39,247.16 579.32,251.03C574.35,253.21 569.5,255.54 564.71,258.09C569.45,268.6 576.65,278.15 584.34,286.67C592.89,295.5 602.46,303.72 613.1,309.94C616.12,311.74 619.21,313.24 622.16,315.15C614.26,319.27 605.26,321.62 596.77,324.24C602.44,334.91 609.24,345.01 615.95,355.06C622.14,364.49 629.5,373.22 636.46,382.1C631.36,379.02 625.9,376.9 620.49,374.48C609.26,369.58 597.52,366.11 585.55,363.57C582.29,362.75 579.33,362.66 576.84,360.19C572.82,356.41 569.12,352.55 564.3,349.72C556.8,345.33 548.59,342.38 540.07,340.74C531.33,338.75 522,339.22 512.99,339.42C503.09,340.05 493.16,341.64 483.67,344.57C470.36,348.51 457.13,353.32 444.84,359.82C416.43,373.9 391.85,393.14 369.36,415.35C364.17,420.45 360.15,426.76 354.51,431.28C357.48,425.86 361.66,421.64 365.68,416.64C388.29,389.16 415.31,364.34 445.88,345.97C457.18,338.45 469.84,332.56 482.38,327.41C490.45,324.62 499.42,321.08 508,321.31C515.46,321.28 522.46,323.04 529.63,324.87C527.15,321.3 524.47,317.6 521.14,314.77C518.26,312.31 514.79,310.83 511.43,309.16C517.5,290.63 525.01,272.67 534.84,255.81C540.17,245.69 546.46,236.15 553.95,227.49Z" style="fill:rgb(98,159,215);fill-rule:nonzero;"/>
            <path d="M694.63,227.37C700.74,229.61 706.81,233.24 710.96,238.34C707.04,241.48 702.75,242.77 697.84,241.08C692.7,239.27 690.15,231.05 694.63,227.37Z" style="fill:rgb(254,254,254);fill-rule:nonzero;"/>
            <path d="M802.98,245.55C806.21,245.26 809.35,245.26 812.35,246.64C818.37,249.28 824.14,252.72 829.91,255.87C843.05,262.95 855.49,271.5 866.87,281.16C872.19,286.21 877.88,291.41 881.86,297.61C869.85,293.38 857.57,290.4 845.21,287.45C819.58,281.71 793.27,278.08 767,277.57C763.4,277.42 759.55,277.6 756.03,276.89C756.53,275.64 756.78,274.71 758.12,274.16C763.2,271.77 768.65,270.19 773.7,267.72C777,266.16 780.41,264.15 784.06,263.7C788.14,263.98 792.15,265.84 796.2,266.53C799.15,267.13 802.01,266.48 804.95,266.07C801.24,261.78 796.43,259.98 791.44,257.69C789.66,257.03 789.44,255.5 788.61,253.98C798.67,252.74 805.96,258.36 815.81,259.42C813.31,257.07 810.87,254.78 807.87,253.06C804.89,251.33 802.05,249.63 799.84,246.91C800.51,245.85 801.84,245.68 802.98,245.55Z" style="fill:rgb(254,254,254);fill-rule:nonzero;"/>
            <path d="M759.43,287.83C765.24,286.47 771.04,286.31 776.95,286.96C782.62,287.67 788.25,287.17 793.9,287.98C810.73,289.52 827.57,291.74 844.16,295.02C850.23,296.33 856.02,297.43 861.65,300.09C851.43,301.26 841.3,302.72 830.99,302.74C819.99,303.99 809.26,303.21 798,303.32C793.93,303.4 790.03,302.59 786.01,303.04C783.7,303.1 781.49,303.83 779.54,302.27C776.99,300.28 774.91,297.71 772.41,295.64C768.63,292.33 763.89,290.57 759.43,287.83Z" style="fill:rgb(254,254,254);fill-rule:nonzero;"/>
            <path d="M592.09,375.06C596.65,376.55 600.89,378.63 605.26,380.58C608.6,385.88 612.65,390.69 616.02,395.99C627.91,415.18 635.67,436.64 638.88,458.98C640.98,471.28 640.94,483.6 640.58,496.02C640.39,501.54 639.45,506.99 639.21,512.5C642.8,509.26 646.29,506.1 649.22,502.21C651.84,498.72 654.25,495.09 657.09,491.77C660.8,507.77 662.54,524.62 660.68,540.99C660.73,548.57 659.04,555.79 657.81,563.21C666.19,557.61 672.84,548.93 678.65,540.8C678.94,549.91 677.61,558.88 675.73,567.77C672.95,578.87 669.42,589.73 664.22,599.95C678.02,591.6 690.66,581.46 701.98,569.98C713.43,559.42 722.22,545.14 729.98,531.74C729.89,532.69 729.79,533.64 729.68,534.59C728.28,539.17 726.02,543.52 724.01,547.87C718.56,558.27 712.77,568.23 705.51,577.5C698.78,586.11 692.11,594.63 684.22,602.22C661.01,626.41 632.78,644.81 603.12,660.11C586.79,667.98 569.91,675.24 552.47,680.25C530.08,686.89 506.89,691.4 483.57,692.92C494.55,681.72 502.9,667.87 508.87,653.42C494.52,670.95 476.51,685.7 456.74,696.74C453.97,698.32 451.01,699.6 448.33,701.32C445.99,702.81 444.46,705.7 442.96,707.98C436.24,718.39 429.26,729.04 419.96,737.39C420.88,730.94 421.81,724.49 422.8,718.05C415.8,725.51 409.1,732.71 400.81,738.81C398.75,740.3 396.48,742.08 393.95,742.59C391.29,737.6 390.38,731.59 390.58,725.99C391.02,717.15 395,708.19 398.76,700.28C393.16,704.39 388.17,708.66 382.02,711.97C387.75,692.47 399.23,673.34 409.08,655.61C406.87,657.21 404.71,658.87 402.48,660.44C402.03,659.91 401.57,659.39 401.12,658.87C394.07,658.05 387.23,656.9 382.27,651.33C381.88,642.91 386.06,636.67 390.86,630.24C382.08,632.95 373.23,636.17 364.16,637.72C365.53,634.14 366.89,630.55 368.13,626.92C358.28,631.71 349.04,637.54 340.91,644.91C335.31,649.73 330.07,654.93 324.22,659.47C323.48,659.4 322.74,659.33 322,659.27C330.65,665.44 339.8,670.92 348.51,677C339.09,682.13 329.18,685.98 319.5,690.55C309.79,694.92 299.86,698.79 290.14,703.12C280.43,707.43 270.38,710.77 260.52,714.69C254.8,716.86 249.09,719.24 243.26,720.98C247.11,712.11 251.53,703.57 256.02,695.02C265.27,676.89 275.51,658.97 287.49,642.49C289.83,639.54 291.38,635.3 295.45,634.51C303.67,632.16 311.88,629.74 319.98,626.97C334.64,622.3 349.36,617.81 363.95,612.92C376.85,608.35 389.92,604.33 402.77,599.6C416.14,594.84 429.29,589.49 442.61,584.61C457.06,578.71 471.57,573.33 485.82,566.85C491.53,564.23 497.1,561.34 502.81,558.7C517.99,551.8 532.34,542.89 545.1,532.14C559.98,520.33 573.34,506.79 583.92,490.96C592.23,478.03 599.7,464.18 603.45,449.18C607.25,435.47 609.65,420.61 605.93,406.61C603.13,395.67 599.08,384.07 592.09,375.06Z" style="fill:rgb(98,159,215);fill-rule:nonzero;"/>
            <path d="M605.26,380.58C627.57,389.44 648.26,403.08 666.79,418.22C680.1,430.05 692.25,442.86 702.35,457.56C709.84,467.25 715.49,478.41 719.32,490.02C720.69,494.79 721.7,499.4 721.77,504.39C725.1,501.12 727.92,497.45 730.76,493.76C739.52,482.73 747.4,470.6 752.97,457.64C755.2,452.77 756.31,447.57 758.22,442.6C759.17,450.42 759.69,458.24 758.89,466.11C758.38,496.82 747.75,525.87 732.31,552.11C733.12,548.49 733.9,544.89 734.2,541.19C734.71,534.52 735.7,528.38 734.48,521.7C732.19,525.75 730.84,530.11 729.68,534.59C729.79,533.64 729.89,532.69 729.98,531.74C722.22,545.14 713.43,559.42 701.98,569.98C690.66,581.46 678.02,591.6 664.22,599.95C669.42,589.73 672.95,578.87 675.73,567.77C677.61,558.88 678.94,549.91 678.65,540.8C672.84,548.93 666.19,557.61 657.81,563.21C659.04,555.79 660.73,548.57 660.68,540.99C662.54,524.62 660.8,507.77 657.09,491.77C654.25,495.09 651.84,498.72 649.22,502.21C646.29,506.1 642.8,509.26 639.21,512.5C639.45,506.99 640.39,501.54 640.58,496.02C640.94,483.6 640.98,471.28 638.88,458.98C635.67,436.64 627.91,415.18 616.02,395.99C612.65,390.69 608.6,385.88 605.26,380.58Z" style="fill:rgb(254,254,254);fill-rule:nonzero;"/>
            <path d="M364.96,452.1C365.8,455.95 366.8,459.51 369.53,462.49C373.05,466.94 377.76,469.16 382.63,471.77C373.42,475.58 363.05,479.35 352.99,479.32C348.54,479.34 342.61,476.24 343.23,471.03C342.98,465.07 347.09,459.3 350.3,454.57C355.18,453.6 360,452.54 364.96,452.1Z" style="fill:rgb(254,254,254);fill-rule:nonzero;"/>
            <path d="M337.63,455.39C335.59,459.3 333.46,462.93 332.23,467.21C331.07,470.95 330.87,474.73 330.62,478.6C326.02,480.81 321.47,483.1 316.88,485.33C317.88,478.6 317.88,471.34 319.76,464.83C324.88,460.34 330.96,456.94 337.63,455.39Z" style="fill:rgb(98,159,215);fill-rule:nonzero;"/>
            <path d="M310.48,471.25C307.62,477.75 306.64,484.57 305.45,491.5C291.57,498.48 278.44,506.95 264.9,514.51C267.5,509.65 271.33,506.34 275.09,502.07C286.15,491.26 297.9,480.26 310.48,471.25Z" style="fill:rgb(98,159,215);fill-rule:nonzero;"/>
            <path d="M390.43,476.55C393.22,478.77 395.32,481.66 398.34,483.69C403.39,487.17 408.9,488.25 414.85,489.14C404.65,494.57 393.45,499.68 381.97,501.49C376.53,501.95 370.31,502.58 365.55,499.4C361.4,496.59 359.62,491.67 358.45,487.03C367.13,484.08 375.94,481.93 384.5,478.57C386.44,477.87 388.4,476.94 390.43,476.55Z" style="fill:rgb(254,254,254);fill-rule:nonzero;"/>
            <path d="M333.81,487.67C337.18,490.23 340.87,492.31 344.28,494.8C345.53,496.73 345.83,499.36 346.45,501.56C335.64,506.84 325.07,512.62 314.28,517.95C313.21,511.99 312.36,505.37 313.41,499.37C313.93,496.77 316.75,495.85 318.78,494.66C323.71,492.29 328.61,489.31 333.81,487.67Z" style="fill:rgb(98,159,215);fill-rule:nonzero;"/>
            <path d="M426.96,491.33C431.36,494.29 435.82,496.86 441.02,498.14C446.78,500.04 452.3,499.39 458.22,499.72C449.55,504.86 440.25,509.14 430.79,512.61C423.28,515.44 414.97,516.87 406.98,515.69C400.97,515.27 395.52,511.97 392.04,507.1C398.83,504.76 405.46,501.99 412,499.03C417.11,496.7 421.87,493.69 426.96,491.33Z" style="fill:rgb(254,254,254);fill-rule:nonzero;"/>
            <path d="M499.99,499.99C495.3,504.36 490.07,507.5 484.63,510.83C475.34,516.56 464.78,520.47 453.99,522.09C448.26,523.04 443.25,521.57 437.77,520.19C437.59,519.7 437.4,519.22 437.21,518.73C443.27,516.21 448.95,512.87 454.86,510.01C459.44,507.84 463.4,504.57 467.99,502.47C471.55,501.99 475.35,503.58 479,503.51C486.51,503.92 492.84,501.6 499.99,499.99Z" style="fill:rgb(254,254,254);fill-rule:nonzero;"/>
            <path d="M303.62,503C303.15,509.9 302.22,516.55 303.54,523.43C292.74,529.3 281.89,535.11 271.01,540.82C271.39,534.33 272.08,528.08 274.01,521.84C274.82,518.54 278.67,516.97 281.31,515.31C288.8,511.3 295.9,506.52 303.62,503Z" style="fill:rgb(98,159,215);fill-rule:nonzero;"/>
            <path d="M387.98,526.22C389.4,526.7 390.78,527.24 392.19,527.77C400.19,531.1 409.81,530.79 418.14,528.95C419.07,529.95 420.04,530.92 420.88,532.01C418.54,535.69 414.13,536.64 410.39,538.38C384.07,549.84 357.55,560.77 331.12,571.96C320.95,576.11 310.81,580.31 300.76,584.75C279.84,593.21 259.19,602.28 238.64,611.61C228.17,615.99 217.91,620.8 207.66,625.65C194.44,631.4 181.58,637.85 168.74,644.37C173.35,638.6 179.61,633.93 185.37,629.35C197.49,619.68 210.41,611.58 223.88,603.96C235.13,597.18 246.78,591.42 258.49,585.47C280.97,573.8 304.15,563.35 327.16,553.03C347.44,544.09 367.88,535.58 387.98,526.22Z" style="fill:rgb(98,159,215);fill-rule:nonzero;"/>
            <path d="M263.12,527.08C260.6,534.2 257.49,540.3 258.64,548.12C246.46,554.9 234.51,562.24 223.29,570.52C226.42,563.83 230.22,557.64 234.84,551.86C241.74,542.73 250.68,535.63 260.05,529.21C261.08,528.5 262.1,527.79 263.12,527.08Z" style="fill:rgb(254,254,254);fill-rule:nonzero;"/>
            <path d="M407.78,551.4C405.53,556.58 401.71,562.18 402.57,568.05C403.38,572.16 408.44,573.52 411.84,574.7C411.75,575.14 411.66,575.57 411.57,576.01C368.33,591.11 324.87,605.67 281.04,618.96C243.39,630.52 206.05,641.14 167.7,650.1C172.68,647.13 178.09,644.83 183.32,642.33C213.89,628.92 244.59,615.5 275.87,603.83C297.6,595.23 319.48,587.03 341.03,578.05C363.47,569.68 385.63,560.48 407.78,551.4Z" style="fill:rgb(98,159,215);fill-rule:nonzero;"/>
            <path d="M241.32,567.99C241.48,571.51 240.79,574.88 243.15,577.79C244.28,579.54 246.44,579.35 248.26,579.86C235.31,586.64 222.4,593.58 209.92,601.2C210.81,596.69 211.96,592.54 215.04,589.01C222.01,580.55 232.33,574.14 241.32,567.99Z" style="fill:rgb(254,254,254);fill-rule:nonzero;"/>
            <path d="M368.13,626.92C366.89,630.55 365.53,634.14 364.16,637.72C373.23,636.17 382.08,632.95 390.86,630.24C386.06,636.67 381.88,642.91 382.27,651.33C387.23,656.9 394.07,658.05 401.12,658.87C401.57,659.39 402.03,659.91 402.48,660.44C397.28,664.11 392.1,668.01 387.16,672.04C385.58,673.24 383.96,675.22 382.01,675.73C375.62,673.67 369.46,670.83 363.02,668.85C350.31,664.98 337.32,661.69 324.22,659.47C330.07,654.93 335.31,649.73 340.91,644.91C349.04,637.54 358.28,631.71 368.13,626.92Z" style="fill:rgb(254,254,254);fill-rule:nonzero;"/>
            <path d="M571.5,692.75C566.42,704.85 557.68,717.99 545.03,723.03C546.27,718.82 547.94,714.77 549.32,710.61C543.03,714.54 537.3,719.04 530.38,721.91C526.37,717.38 523.65,712.17 521.28,706.66C526.32,705.39 531.46,704.62 536.54,703.52C548.44,700.75 560.07,697.05 571.5,692.75Z" style="fill:rgb(98,159,215);fill-rule:nonzero;"/>
            <path d="M167.84,720.99C168.88,724.06 169.56,727.87 171.53,730.49C174.66,734.2 179.55,735.53 184.1,736.52C175.35,744.98 167.39,754.18 158.7,762.7C153.62,767.62 149.24,773.12 143.88,777.77C140.48,774.4 137.17,771.4 134.88,767.11C133.14,763.87 132.45,760.5 131.6,756.95C129.75,758.8 127.95,760.7 126.07,762.52C130.46,757.75 134.7,752.89 139.56,748.58C144.35,744.36 148.68,739.71 153.21,735.22C158.23,730.62 162.94,725.71 167.84,720.99Z" style="fill:rgb(98,159,215);fill-rule:nonzero;"/>
            <path d="M564.95,726.07C569.5,728.83 573.77,732.32 577.81,735.79C575.76,737.17 573.71,738.55 571.68,739.96C567.21,737.21 562.95,734.26 558.82,731.02C560.82,729.3 562.8,727.6 564.95,726.07Z" style="fill:rgb(98,159,215);fill-rule:nonzero;"/>
            <path d="M555.85,731.22C561.96,736.43 568.34,741.32 574.51,746.47C582.91,752.41 591.07,758.65 599.45,764.61C608.62,771.92 618.74,777.83 627.94,785.12C632.83,788.09 636.91,792.14 641.88,794.93C640.26,792.62 638.4,790.55 636.42,788.55C639.12,786.49 642.85,783.04 646.52,784.54C650.31,786.2 654.98,788.34 657.24,791.97C652.58,792.74 646.03,794.16 645.02,799.69C650.39,796.58 656.01,795.16 662.02,793.88C664.49,795.35 666.84,796.92 669.15,798.63C664.49,801.18 659.98,803.56 654.68,804.54C656,805.08 657.53,806.27 659,806.11C664.3,805.47 669.39,803.6 673.27,799.83C678.03,800.45 682.47,802.01 687.01,803.48C686.27,804.82 685.54,806.17 684.79,807.52C685.82,807.7 686.86,807.87 687.89,808.03C689.16,807.1 690.25,805.89 691.37,804.79C694.58,805.77 697.69,806.98 700.76,808.34C700.05,810.57 699.67,812.71 699.5,815.05C700.98,813.63 702.38,812.06 704,810.78C709.15,811.47 714.2,813.4 719.14,814.98C717.43,816.99 715.17,819.19 714.31,821.72L715.32,823.76C716.6,822.57 717.87,821.31 719.24,820.22C720.09,819.62 721.56,818.37 722.45,819.54C725.73,822.59 728.33,826.61 730.8,830.32C728.7,831.09 725.32,830.59 724.79,833.32C727.35,833.04 730.04,832.32 732.6,832.42C733.57,833.48 734.3,834.8 735.06,836.02C733,837.09 730.47,838.15 728.89,839.9C727.12,841.87 726.06,844.7 724.96,847.08C722.99,845.8 721.35,845.04 720.93,842.47C719.53,835.84 718.02,829.75 713.7,824.31C711.31,821.68 707.62,820.03 704.53,818.33C696.09,814.13 687.1,808.39 678,805.89C675.87,805.22 674.23,806.11 672.26,806.84C675.3,808.38 678.36,809.88 681.37,811.5C679.57,813.09 677.81,814.7 676.13,816.41C679.31,816.87 681.55,815.4 684.17,813.95C687.17,815.75 690.16,817.57 693.22,819.27C691.02,821.4 689.26,823.46 688.24,826.41C690.89,824.96 693.35,823.24 695.8,821.48C700.72,825.12 705.95,827.78 710.24,832.24C705.87,834.34 701.57,834.66 698.62,838.79C702.87,838.59 706.83,837.36 710.87,836.15C712.74,842.97 713.5,849.91 714.82,856.84C711.02,857.39 707.2,857.7 703.38,858.04C706.01,862.05 711.74,860.04 715.73,860.22C715.51,862.43 715.29,864.63 715.04,866.84C712.05,866.98 709.38,866.87 706.86,868.76C704.76,869.8 702.03,872.8 699.6,871.37C698.93,868.08 699.66,864.37 699.63,861C699.73,856.51 698.7,852.42 698.13,848.01C697.7,845.21 697.44,842.17 696.5,839.5C695.54,836.85 693.08,834.76 691.07,832.88C683.69,825.93 676.05,819.24 668.39,812.61C663.81,808.78 659.76,807.4 653.73,807.53C656.84,809.95 660.08,812.23 663.26,814.55C660.02,816.31 656.86,816.92 655.72,820.89C659.19,820.05 662.58,818.96 665.95,817.81C668.36,819.7 670.6,821.73 672.76,823.9C670.95,824.95 668.89,825.91 667.34,827.34C666.2,828.62 665.66,830.49 664.96,832.04C667.9,830.42 671.5,827.18 674.98,827.59C678.86,830.01 681.82,834.41 684.41,838.1C681.48,839.23 678.23,840.23 675.57,841.93C674.67,844.06 677.14,843.57 678.38,843.41C680.71,843.11 684.26,841.41 686.42,842.44C687.9,847.02 688.36,851.95 689.21,856.68C685.35,856.37 681.52,856.25 677.67,856.74C680.84,859.69 685.61,858.6 689.48,860.59C691.56,862.1 690.4,864.94 690.33,867.09C688.12,866.2 685.43,864.5 683,864.78C680.27,865.59 677.78,867.71 675.49,869.36C674.36,868.06 673.2,867 672.87,865.21C671.74,859.3 673.1,852.9 672.18,846.98C671.47,843.95 668.91,842.1 666.61,840.27C658.96,834.3 651.57,828.14 645.25,820.73C634.63,820.23 625.38,817.32 615.11,821.89C611.64,822.94 611.63,826.16 609.16,828.02C606.05,829.08 601.1,829.16 599.18,825.91C596.98,822.88 594.07,818.68 595.65,814.79C597.17,811.77 601.46,811.84 604.33,811.1C604.7,814.68 605.12,818.09 606.93,821.27C607.53,818.42 607.82,815.44 608.72,812.67C612.09,810.5 617.58,812.51 621.23,810.33C626.49,807.04 629.17,801.73 630.99,795.98C627.42,792.17 623.68,788.64 619.5,785.51C613.73,780.9 608,776.28 601.9,772.12C592.22,765.47 582.78,758.48 573.09,751.86C564.8,745.98 556.16,740.59 547.91,734.65C550.52,733.46 553.15,732.2 555.85,731.22Z" style="fill:rgb(98,159,215);fill-rule:nonzero;"/>
            <path d="M579.84,737.63C584.07,740.2 587.99,743.31 592.02,746.18C590.06,747.71 588.12,749.25 586.2,750.82C582.49,747.9 578.59,745.26 574.64,742.7C576.29,740.92 577.98,739.19 579.84,737.63Z" style="fill:rgb(98,159,215);fill-rule:nonzero;"/>
            <path d="M411.02,748C411.58,750.53 412.18,753.04 412.84,755.55C416.01,753.79 419.22,752.11 422.52,750.6C425.03,757.58 427.53,764.58 429.89,771.61C426.7,772.35 423.75,773.32 420.78,774.7C418,769.61 416.68,763.18 412.34,759.47C414.25,770.48 419.07,781.42 423.03,791.83C426.06,800.22 429.78,808.27 433.1,816.57C435.53,822.32 437.46,827.79 441.48,832.69C440.71,827.57 438.12,823.05 437.12,818.03C439.28,815.11 443.23,813.6 446.62,815.3C449.35,819.57 450.92,824.7 452.77,829.39C449.69,829.91 446.51,829.96 443.99,831.99C442.42,833.12 442,835 441.13,836.67C444.95,835.13 448.84,832.89 453.1,833.48C453.83,833.78 454.43,834.31 454.9,835.08C456.94,838.41 458.21,842.25 459.75,845.83C456.74,846.49 453.16,846.86 450.48,848.46C448.84,849.78 447.92,852.15 446.91,853.93C451.05,853.12 454.83,850.2 459,850.13C461.53,850.1 462.79,852.07 464.03,853.96C466.26,857.63 468.31,861.4 470.61,865.02C467.73,864.53 464.56,863.61 461.72,864.6C458.89,865.49 456.64,867.5 454.37,869.32C454.27,870.14 454.17,870.96 454.07,871.78C456.82,870.62 459.63,869.37 462.5,868.59C465.75,867.75 469.44,867.9 472.79,867.9C474.47,869.86 476.18,871.8 477.97,873.67C475.09,873.11 472.51,872.43 469.65,873.59C465.77,874.97 463.33,877.68 460.56,880.55C466.21,877.54 472.81,875.27 479.23,875.15C482.33,875.76 485.06,879.12 487.57,880.93C487.04,881.58 486.52,882.22 485.99,882.86C482.84,882.08 479.38,880.79 476.19,882.12C473.35,883.11 471.42,885.11 469.52,887.35C474.37,885.95 478.99,884.91 484.09,885.5C485.6,884.5 487.1,883.49 488.61,882.48C492.03,883.95 495.46,885.39 498.89,886.84C498.26,889.25 497.77,891.67 497.34,894.12C499.2,892.44 501,890.57 503.06,889.14C506.88,890.2 510.44,892.28 514.13,893.76C512.62,896.3 508.93,899.17 511.69,902.14C513.26,899.71 514.86,897.32 516.63,895.03C521.28,896.67 525.82,898.5 530.19,900.81C526.94,903.7 524.22,906.48 523.31,910.92C526.75,908.84 529.65,906.04 533.07,903.92C535.95,907.16 538.64,910.53 541.24,913.99C537.93,915.19 535.39,916.52 533.14,919.33C536.58,918.97 539.83,918.05 543.07,916.88C544.18,918.06 545.27,919.23 546.36,920.42C544.36,921.51 541.66,922.43 540.19,924.24C538.4,926.86 537.45,930.2 536.31,933.15C535,932.39 533.37,931.77 532.34,930.64C529.64,926.83 529.89,920.96 526.53,917.48C521.69,912.14 515.06,907.83 509.19,903.71C501.5,897.98 493.41,892.15 484.6,888.31C486.04,890.32 487.58,892.26 489.16,894.17C485.81,895.52 482.72,896.34 480.87,899.79C484.17,899.21 487.49,897.33 490.79,897.12C494.37,899.6 497.2,903.2 500.42,906.13C496.29,908.03 494.17,909.74 491.96,913.79C496.24,913 499.54,909.61 503.75,909.13C507.39,912.24 510.32,916.24 513.54,919.79C508.27,921.27 503.67,922.91 502.11,928.75C505.61,927.41 508.92,925.36 512.52,924.36C513.81,924.21 515.26,923.41 515.72,925.18C517.57,931.66 519.71,938.08 521.34,944.62C517.16,944.84 513.19,945.25 509.33,947.02C513.59,948.97 517.71,948.04 522.29,948.01C522.71,950.42 523.13,952.84 523.56,955.25C521.7,955.07 519.47,954.46 517.64,954.97C514.23,956.21 512.37,959.58 509.82,961.93C507.22,961.66 504.33,959.95 504.39,957.02C504.11,948.27 504.93,940.39 501.4,931.99C498.17,925.15 493.42,919.25 488.11,913.91C481.7,907.32 478.29,899.93 470.67,894.66C471.55,896.99 472.5,899.3 473.43,901.62C471.06,901.69 468.41,901.41 466.12,902.1C464.27,902.79 463.44,905.34 462.62,906.92C466.59,905.85 470.47,904.98 474.6,904.89C475.82,907.77 477.05,910.64 478.26,913.51C476.47,913.87 474.45,913.99 472.78,914.78C470.87,915.84 469.36,917.88 467.92,919.49C471.57,918.91 475.18,917.54 478.87,917.31C479.52,917.43 480.11,917.76 480.63,918.29C483.28,921.23 484.93,925.37 486.55,928.95C484.08,928.93 481.5,928.72 479.04,929.08C476.8,929.45 475.32,932.08 473.95,933.64C478.11,933.39 483.57,931.45 487.44,933.34C488.21,938.32 488.44,943.41 489.08,948.42C485.91,948.24 482.95,947.91 479.83,948.77L478.88,951.39C482.73,950.97 486.16,951.04 489.92,952.03C490.13,953.94 490.34,955.86 490.55,957.78C488.16,957.23 485.37,956.15 482.97,956.91C479.83,957.56 478.13,960.5 476.16,962.74C474.47,961.26 472.73,960.29 472.41,957.85C471.78,953.42 473.72,948.48 473.76,944.01C473.61,936.75 470.93,930.14 466.88,924.21C462.24,916.32 456.71,909.07 451.78,901.38C449.07,897.32 448.67,892.89 447.43,888.31L446.16,888.25C445.11,891.05 444.74,893.9 444.36,896.85C438.53,894.58 432.25,892.22 425.99,891.64C422.02,892.01 418.15,893.37 414.19,893.99C412.47,891.02 410.19,887.58 410.27,884.04C410.4,881.38 411.69,878.02 414.34,876.95C416.58,876.41 419.08,876.72 421.36,876.72C420.46,878.74 419.3,880.84 418.77,882.98C418.65,884.67 418.77,886.76 420.83,887.04C422.28,884.1 423.5,881.07 425.16,878.23C430.91,880.48 436.35,881.03 442.49,880.78C444.24,877.02 445.6,873.22 445.6,869C446.11,860.61 442.48,852.51 439.7,844.73C433.73,829.05 427.72,813.5 420.79,798.21C414.28,784.12 408.91,769.5 402.26,755.48C405.26,753.08 408.22,750.63 411.02,748Z" style="fill:rgb(98,159,215);fill-rule:nonzero;"/>
            <path d="M595.91,749.07C600.59,751.5 604.69,755.19 608.97,758.27C606.46,759.6 604.2,761.09 601.97,762.84C598.26,759.54 594.17,756.84 589.94,754.27C591.3,752.36 593.3,749.07 595.91,749.07Z" style="fill:rgb(98,159,215);fill-rule:nonzero;"/>
            <path d="M612.03,760.86C616.61,763.09 620.67,766.47 624.92,769.27C622.53,770.99 620.26,772.79 618.04,774.72C613.91,771.26 609.3,768.51 605.09,765.16C607.23,763.62 609.54,761.77 612.03,760.86Z" style="fill:rgb(98,159,215);fill-rule:nonzero;"/>
            <path d="M114.61,772.4C115.69,780.92 119.99,789.5 126.92,794.73C131.54,789.89 136.08,784.6 141.54,780.7C138.81,783 136.05,785.15 133.86,788.02C130.49,792.47 126.27,796.37 122.31,800.3C114.87,807.22 108.09,814.74 101.01,822.01C97.96,824.98 95.41,828.77 91.96,831.23C83.8,826.32 80.76,814.95 81.16,806.03C83.67,802.43 87.39,799.59 90.41,796.41C98.75,788.68 106.57,780.44 114.61,772.4Z" style="fill:rgb(98,159,215);fill-rule:nonzero;"/>
            <path d="M628.08,772.49C630.96,773.15 633.6,775.33 636.07,776.89C637.65,778.06 639.8,779.19 640.79,780.93C638.26,782.47 635.86,784.56 633.2,785.78C628.98,783.03 625.02,779.96 620.62,777.46C622.81,775.28 625.04,773.37 628.08,772.49Z" style="fill:rgb(98,159,215);fill-rule:nonzero;"/>
            <path d="M430.71,775.27C433.99,780.19 435.7,786.53 437.78,792.09C434.02,792.18 430.96,792.35 427.81,794.61C425.91,789.12 423.76,783.73 422.02,778.18C424.82,776.92 427.68,775.83 430.71,775.27Z" style="fill:rgb(98,159,215);fill-rule:nonzero;"/>
            <path d="M438.91,795.88C441.69,800.37 443.18,805.8 444.96,810.75C440.52,811.03 438.3,811.78 434.93,814.64C433.52,808.99 430.52,803.81 429.32,798.15C431.68,795.58 435.69,795.28 438.91,795.88Z" style="fill:rgb(98,159,215);fill-rule:nonzero;"/>
            <path d="M78.56,808.07C74.64,811.99 70.82,815.98 66.71,819.69C64.48,822.02 61.87,823.26 62.57,827C62.63,836.28 66.92,843.85 72.86,850.65C76.72,846.25 80.77,842.06 84.92,837.92C86.76,836.15 88.23,833.67 90.47,832.53C89.45,834.57 87.74,835.59 86.12,837.13C78.96,843.78 72.8,851.08 66.19,858.18C60.56,863.96 54.91,869.7 49.46,875.64C46.2,875.44 43.09,875.65 40.23,873.81C36.21,871.44 34.27,866.44 33.64,862.03C33.46,858.63 34.23,855.2 34.28,851.78C39,845.13 45.11,840.46 50.93,834.92C59.92,825.74 69.39,817.06 78.56,808.07Z" style="fill:rgb(98,159,215);fill-rule:nonzero;"/>
            <path d="M591.38,822.71C592.56,824.89 594.47,827.3 594.78,829.8C592.74,832.42 590.39,834.78 588.45,837.49C588.28,834.42 587.93,831.18 588.33,828.13C588.54,826.09 590.23,824.33 591.38,822.71Z" style="fill:rgb(98,159,215);fill-rule:nonzero;"/>
            <path d="M206.96,833.64C201.67,842.62 195.98,851.49 189.87,859.94C182.89,869.14 174.48,877.47 162.64,879.56C165.52,873.92 169.24,869.07 172.82,863.88C178.88,855.51 184.24,846.68 190.23,838.27C195.06,837.61 199.57,837.26 204.03,835.08C205.01,834.6 205.98,834.12 206.96,833.64Z" style="fill:rgb(98,159,215);fill-rule:nonzero;"/>
            <path d="M734.04,841.85C735.73,842.35 736.22,843.65 736.82,845.15C738.82,851.05 739.08,857.4 735.5,862.76C735.12,860.8 734.88,858.72 734.24,856.82C733.27,854.07 731.11,851.59 729.95,848.94C730.31,846.14 731.73,843.5 734.04,841.85Z" style="fill:rgb(98,159,215);fill-rule:nonzero;"/>
            <path d="M34.28,851.78C34.23,855.2 33.46,858.63 33.64,862.03C34.27,866.44 36.21,871.44 40.23,873.81C43.09,875.65 46.2,875.44 49.46,875.64C41.87,882.86 34.86,890.58 28.1,898.58C25.31,898.34 21.01,898.4 19.1,895.95C16.42,892.16 16.03,887.35 17.03,882.91C19.4,871.28 26.55,860.57 34.28,851.78Z" style="fill:rgb(254,254,254);fill-rule:nonzero;"/>
            <path d="M144.61,854.44C151.78,855.59 158.8,855.94 165.97,854.42C162.08,860.65 157.78,866.55 153.36,872.4C146.44,882.04 139.67,890.98 129.81,897.87C119.96,904.42 109.55,909.66 97.4,909.42C104.44,901.44 111.75,893.74 118.45,885.47C126.08,875.76 134.05,866.34 141.57,856.54C142.51,855.64 143.06,853.95 144.61,854.44Z" style="fill:rgb(98,159,215);fill-rule:nonzero;"/>
            <path d="M687.35,870.79C686.75,876.7 684.24,881.88 680.18,886.19C677.95,888.48 675.18,889.54 672.34,890.85C674.73,886.97 677.05,883.44 677.67,878.8C678.12,876.7 678,874 679.16,872.17C681.2,869.58 684.53,870.68 687.35,870.79Z" style="fill:rgb(98,159,215);fill-rule:nonzero;"/>
            <path d="M713.04,871.71C712.85,879.51 708.88,885.95 703.43,891.25C703.75,886.2 704.63,881.3 704.18,876.22C706.98,874.06 709.6,872.63 713.04,871.71Z" style="fill:rgb(98,159,215);fill-rule:nonzero;"/>
            <path d="M405.17,889.33C407.07,891.52 408.32,894.07 409.44,896.73C406.76,898.47 404.56,900.36 402.41,902.72C402.33,899.86 402.08,896.94 402.38,894.09C402.55,892.33 404.16,890.7 405.17,889.33Z" style="fill:rgb(98,159,215);fill-rule:nonzero;"/>
            <path d="M547.09,925.09C551.77,933.07 551.59,942.51 548.08,950.89C547.27,944.21 545.5,938.8 540.96,933.71C541.29,932.21 541.52,930.58 542.15,929.17C543.17,927.13 545.22,926.19 547.09,925.09Z" style="fill:rgb(98,159,215);fill-rule:nonzero;"/>
            <path d="M521.81,959.68C521.58,963.93 521.6,967.85 519.93,971.85C518.21,976.21 515.1,979.37 511.58,982.33C513.18,977.51 513.55,973.03 513.34,967.97C512.95,963.29 517.2,959.42 521.81,959.68Z" style="fill:rgb(98,159,215);fill-rule:nonzero;"/>
            <path d="M483.97,961.69C485.32,961.71 486.67,961.78 488.02,961.9C488.23,970.3 485.06,978.21 478.83,983.89C480.49,977.52 480.13,971.62 479,965.21C480.55,963.98 482.17,962.53 483.97,961.69Z" style="fill:rgb(98,159,215);fill-rule:nonzero;"/>
        </g>
    </g>
</svg>
