<?xml version="1.0" encoding="UTF-8" standalone="no"?>
<!DOCTYPE svg PUBLIC "-//W3C//DTD SVG 1.1//EN" "http://www.w3.org/Graphics/SVG/1.1/DTD/svg11.dtd">
<svg width="100%" height="100%" viewBox="0 0 483 269" version="1.1" xmlns="http://www.w3.org/2000/svg" xmlns:xlink="http://www.w3.org/1999/xlink" xml:space="preserve" xmlns:serif="http://www.serif.com/" style="fill-rule:evenodd;clip-rule:evenodd;stroke-linejoin:round;stroke-miterlimit:2;">
    <g transform="matrix(1,0,0,1,-14.970766,-225.978184)">
        <g transform="matrix(1,0,0,1,-5537,0.033712)">
            <g transform="matrix(1.429163,0,0,1.429163,5058.537949,59.718523)">
                <path d="M540.47,116.31C540.99,116.83 541.53,117.33 542.08,117.82C544.31,117.03 544.19,118.21 545.99,118.71C547.64,117.88 548.51,116.77 550.53,117.54C552.19,118.5 553.04,118.51 554.92,118.49C559.33,119.66 562.08,124.27 562.53,128.48C563.99,128.5 564.84,129.26 566.07,129.89C572.76,132.75 579.68,135.32 586.03,138.92C591.86,142.39 597.89,146.44 602.6,151.33C602.11,152.45 601.1,153.44 600.45,154.51C598.9,154.68 597.49,152.47 596.09,151.85C587.22,145.45 577.63,140.63 567.52,136.53C563.22,135.05 558.96,131.18 554.35,131.37C555.44,132.78 557.3,133.82 558.58,135.04L558.25,136.17C557.2,136.46 556.1,136.51 554.95,136.34C551.7,134.64 548.55,134.43 544.95,134.18C535.42,129.59 523.52,130.56 513.41,132.5C512.15,134.93 517.08,134.36 516.61,136.56C512.37,136.31 508.51,136.93 504.94,134.12C501.08,130.88 496.67,128.66 493.11,124.96L493.12,124.15C495.96,122.28 499.24,125.15 502.4,125.74C505.23,128.87 508.04,127.01 511.52,126.47C516.65,124.78 522.03,124.94 527.2,123.18C528.01,122.57 529.11,122.34 530.49,122.49C530.71,121.21 531.28,120.16 532.27,119.32C533.96,119.42 534.6,118.82 535.78,117.76C536.7,116.59 538.15,117.93 539,118.49C539.8,118.21 540.29,117.49 540.47,116.31Z" style="fill:rgb(3,76,178);fill-rule:nonzero;"/>
                <path d="M466.47,125.54C472.33,124.05 478.89,124.91 485,124.78C486.84,124.91 488.86,124.48 490.39,125.64C492.54,127.17 494.13,129.26 495.69,131.33C495.13,132.12 492.43,130.59 491.51,130.55C480.29,128.9 468.01,128.91 458.02,135.02C447.9,142.31 436.62,147.85 426.31,154.71C427.56,154.5 429.01,154.81 430.15,154.28C436.82,151.11 443.37,147.75 449.51,143.63C455.92,139.99 462.96,135.73 470.49,135.31C473.83,134.34 476.71,135.39 480.02,135.86C485.5,137.81 489.21,143.3 492.1,148.05C492.43,150.21 494.26,151.2 494.87,152.97C494.1,153.17 493.33,153.37 492.57,153.58C491.81,154.61 491.28,155.78 490.83,156.96C490.18,158.89 491.31,161.06 490.9,162.93C489.47,163.78 488.16,162.85 486.97,162.06C483.87,160.09 480.39,157.84 478.18,154.85C478.6,151.81 476.59,152.15 475.4,150.37C476.4,150.61 477.24,150.52 477.94,150.08C478.01,147.96 474.88,145.8 473.24,144.73C468.55,142.08 463.89,145.33 460.73,148.73C458.9,151.61 458.36,154.66 458.02,158C457.21,161.13 456.92,166.1 453.96,168C447.66,170.72 442.62,165.76 436,166.53C429.17,167.14 422.74,167.22 416.84,163.22C414.61,161.49 412.75,159.5 413.47,156.44C415.47,152.38 419.07,150.67 423.13,149.18C431.89,145.27 440.5,139.79 448.38,134.33C454.3,130.69 459.54,127.06 466.47,125.54Z" style="fill:rgb(3,76,178);fill-rule:nonzero;"/>
                <path d="M487.53,135.26C492.05,136.09 496.61,137.62 501.04,138.89C503.8,139.59 506.23,142.5 509,142.56C514.24,141.41 520.57,140.01 525.87,141.16L525.81,141.94C522.88,143.43 519.75,144.05 517.06,146.09C512.66,148.91 510.05,152.97 506.86,156.88L506.15,156.93C505.81,154.65 505.05,153.19 503.33,151.66C501.02,149.23 496.95,149.19 494.22,147.76C491.67,144.31 490.38,139.11 487.35,135.7L487.53,135.26Z" style="fill:rgb(3,76,178);fill-rule:nonzero;"/>
                <path d="M470.67,149.37C471.6,149.75 474.2,150.54 473.91,151.84C471.21,152.53 468.31,153.2 467.13,156.05C467,157.6 466.99,159.22 467.25,160.76C473.73,160.87 477.42,164.85 482.96,167.28C486.63,167.9 490.38,167.93 493.79,166.28C493.65,169.06 490.34,172.08 490.92,175.03C491.74,177.74 493.73,179.52 495.95,181.13C501.05,184.19 507.9,184.19 513.41,182.31L513.68,182.7C509.15,187.67 503.74,191.5 497.02,192.77C491.5,193.38 485.28,191.8 481.99,187.01C480.27,185.04 480.35,182.71 478.27,181.27C476.07,182.73 474.42,184.93 472.17,186.24C467.66,186.67 464.56,189.43 460.46,190.76C461.98,188.09 466.67,185.51 467.63,182.5C463.67,182.39 459.97,181.77 456.02,182.55C448.57,183.64 441.46,187.81 434,188.3C431.1,188.59 429.88,187.06 429.44,184.4C428.07,184.68 426.53,185.42 425.56,186.43C425.04,188.58 425.26,191.11 422.53,191.49C421.77,194.53 417.65,195.11 415.45,197.23C415.6,197.76 415.74,198.29 415.86,198.83C413.08,199.87 413.81,203.21 410.22,202.25C409.44,203.93 407.67,203.97 406.64,205.58C405.74,205.62 404.85,205.66 403.95,205.68C401.79,207.45 399.77,207.98 397.12,208.72C394.91,207.48 394.03,209.7 391.95,207.56C390.4,208.47 389.92,208.81 389.53,210.62C388.68,209.95 388.06,209.1 387.02,208.65C384.62,209.76 381.65,211.08 379.76,212.95C367.68,218.8 358.08,226.92 345.26,230.48C345.33,229.87 345.57,229.41 346,229.09C357.18,221.5 367.79,212.74 378.6,204.6C380.51,203.21 382.51,202.6 383.02,200.03C384.66,199.46 387.87,199.48 387.68,197.04C387.52,194.51 387.69,193.1 390.36,192.41C393.07,192.21 394.2,189.71 394.35,187.32C395.25,187.75 395.23,189.34 396.55,188.51C398.41,187.04 398,184.92 400.52,183.72C400.51,183.26 400.43,182.81 400.28,182.35C402.27,182.5 403.95,181.55 405.92,181.5C407.42,181.57 407.41,180.22 408.06,179.23C410.77,180.48 410.72,176.89 413.5,176.53C414.88,176.07 415.48,177.2 416.64,177.55C417.2,177.16 417.76,176.79 418.32,176.42C420.68,177.38 422.67,175.68 424.76,174.76C428.05,172.77 431.51,171.23 434.97,169.55C439.57,169.89 444.48,171.53 448.99,172.22C451.86,172.6 454.69,171.82 456.84,169.87C460.33,165.52 459.5,160.48 461.67,154.91C462.38,150.6 466.46,147.81 470.67,149.37Z" style="fill:rgb(3,76,178);fill-rule:nonzero;"/>
                <path d="M515.27,152.37L515.75,152.5C514.89,158.02 512.63,163.69 508.99,167.98C506.04,170.25 502.92,172.07 499.05,171.87C497.89,171.75 496.65,169.81 498.01,169.1C501.32,166.99 504.44,165.1 506.89,161.93C509.5,158.52 512.16,155.34 515.27,152.37Z" style="fill:rgb(3,76,178);fill-rule:nonzero;"/>
                <path d="M583.26,153.37C586.5,156.01 590.75,158.84 592.32,162.82C593.36,165.94 592.37,169.06 591.55,172.01C592.53,175.18 594.43,178.12 596.14,180.94C596.7,182 598.05,183.84 597.05,184.9C595.11,184.6 593.37,183.23 591.63,182.35C588.82,180.47 586.9,176.73 583,178.06C579.82,178.79 576.93,177.09 575.45,174.34C576.65,172.99 578.24,173.52 579.99,172.93C581.08,172.91 582.99,171.32 581,170.91C577.96,170.91 573.88,171.58 571.28,173.19C571.59,174.47 573.49,175.54 574.25,176.74C577.03,180.17 580.88,180.7 585.03,179.81C586.13,180.05 589.08,182.26 587.56,183.47C584.69,183.31 581.7,183.78 578.88,183.28C574.39,182.03 570.27,179.25 566.92,176.09C565.28,174.5 563.25,175.51 561.37,174.59L561.46,173.43C563.6,171.24 566.28,170.15 569.06,169.02C574.05,166.6 579.09,165.07 584.61,166.63C585.05,165 583.68,164.3 582.68,163.3C580.33,161.25 577.29,160.51 574.47,159.46L574.44,158.45C577.28,157.43 580.1,158.15 582.88,157.86C583.27,156.35 582.65,154.81 583.26,153.37Z" style="fill:rgb(3,76,178);fill-rule:nonzero;"/>
                <path d="M604.53,153.48C606.09,152.88 607.98,154.97 609.22,155.73C613.06,158.72 612.85,165.18 613.59,169.51C615.41,175.59 620.15,180.94 624.45,185.47C628.53,187.25 632.04,189.95 635.91,192.13C642.96,196.64 650.5,200.63 657.04,205.86C663.26,209.98 668.6,215.09 675.06,218.82C676.5,219.88 679.49,221.6 679.6,223.51C675.8,223.68 670.72,223.41 667.41,225.5C665.81,226.56 665.99,228.06 667.94,228.59C670.32,228.23 672.67,226.69 675.08,226.55C677.23,226.41 679.4,226.49 681.55,226.55C684.23,227.28 682.8,230.35 682.26,232.14C679.12,238.24 673.51,243.48 666.92,245.58L665.77,245.22C665.74,243.85 665.33,243.24 664.54,243.41C664.38,244.97 664.72,246.28 663.46,247.48C660.29,250.35 656.22,251.73 652.02,252.15C650.61,252.21 649.81,253.94 648.68,254.73C646.03,257.34 642.61,257.81 639.09,259.15C635.23,260.1 630.96,259.93 627.01,259.76C622.34,259.67 618.61,257.78 614.12,256.79C610.7,255.02 606.94,254.28 603.49,252.61C595.94,250.87 588.61,249.48 580.98,248.16C578.94,247.37 575.87,247.31 573.75,247.79C572.57,248.81 571.18,249.56 569.58,249.53C568.83,250.91 567.98,251.49 566.39,251.5C564.32,250.33 561.91,248.73 559.53,248.48C559.25,245.16 557,243.44 554.5,241.65C541.99,239.96 529.75,243 518.65,248.64C515.93,249.91 513.93,251.92 511.5,253.58C511.33,254.32 511.55,255.13 512.15,256C511.74,256.75 511.27,257.44 510.74,258.05C511.09,258.93 511.37,259.79 511.57,260.65C509.76,262.23 509.57,264.36 507.08,265.26C504.15,266.39 504.47,269.64 501.61,270.64C500.49,272.7 499.12,274.23 496.79,274.9C494.97,275.28 495.47,277.45 493.87,277.7C491.63,277.03 490,279.64 487.26,278.47C485.74,279.54 486.93,280.22 486.6,281.64C485.82,281.47 485.04,281.34 484.26,281.23C475.63,289.37 466.48,298.26 455.96,303.91L455.08,303.91C454.81,302.74 456.37,301.86 457,301C465,292.79 471.81,283.62 477.92,273.97C479.27,271.76 477.77,268.41 479.19,266.1C479.5,265.52 479.5,264.84 479.17,264.04C480.65,263.36 481.7,262.37 483.32,262.39C483.62,260.5 485.37,260.17 485.69,258.46C484.56,259.34 483.98,259.68 482.51,259.7C479.98,262.08 476.72,261.98 473.94,263.89C472.08,264.6 470.32,266.2 468.43,266.57C468.39,265.29 469.39,265.01 470.17,264.18C476.14,257.21 483.61,251.07 491.67,246.71C491.49,246.25 491.45,245.81 491.55,245.38C493.72,245.71 495.88,243.8 497.48,242.53C500.96,242.8 503.5,240.88 506.86,239.85C514.11,238.06 521.13,236.3 528.58,235.48L528.57,234.5C523.7,234 518.92,233.25 514,233.42C507.29,233.16 500.35,235.07 493.86,236.73C490.04,238.35 486.11,239.38 482.55,241.59C476.01,245.44 470.25,251.59 464.76,256.77C456.13,264.55 449.1,272.89 439.19,279.22C435.88,281.27 432.28,284.05 428.39,284.69C432.07,281.01 435.86,277.27 439.82,273.84C448.95,265.39 456.51,255.59 462.94,244.97C468.7,235.26 477.49,228.07 487.91,223.86C489.79,223.06 492.11,222.15 493.45,220.56C494.28,214.9 493.62,207.61 496.15,202.23L496.8,202.18C497.48,205.23 497.4,209.05 499.14,211.92C500.14,213.3 501,214.82 502.9,214.91L502.93,214.04C500.45,208.39 499.54,202.41 501.54,196.45C503.43,196.04 503.73,199.54 504.38,200.72C506.56,207.87 511.23,213.52 517.43,217.57C524.33,221.39 532.64,222.57 540.26,220.36C545.08,218.8 548.17,215.09 552.86,213.68C557.9,212.69 561.32,214.91 565.91,216.3C567.4,216.82 568.7,217.28 569.67,218.6C563.91,218.39 555.34,217.58 551.33,222.62C554.32,223.62 558.15,223.44 560.68,225.27C561.47,225.96 563.3,226.79 563.07,227.99C557.3,227.46 552.43,227.24 546.44,227.58C546.03,227.89 545.66,228.23 545.32,228.59C548.8,229.63 552.48,230 556.01,230.87C563.77,233.09 569.9,238.4 578.02,240.23C589.26,243.35 600.79,245.23 611.73,249.35C620.18,252.97 629.41,255.06 638.58,253.54L638.6,252.49C624.37,252 614.06,244.65 601,240.92C593.57,238.34 585.55,238.18 577.9,236.15C576.03,235.33 573.58,234.03 572.86,231.99C572.59,229.56 575.72,227.27 577.97,227.21C582.99,227.11 588.07,229.32 592.89,230.57C596.34,232.18 600.74,234.04 604.32,235.7C612.1,239.41 619.4,243.34 627.99,244.99C633.66,245.84 639.75,246.54 645.43,245.51C646.51,244.15 646.92,242.66 648.45,241.61C649.87,241.5 652.04,242.01 652.45,240.15C653.02,238.71 653.83,237.39 654.47,235.99L654,234.97C651.1,234.32 651.24,229.1 649.8,227.04C647.83,223.78 648.31,220.49 649.23,217.01C649.23,213.22 645.18,210.52 642.37,208.63L642.43,207.42C648.69,208.38 654.35,213.02 659.6,216.41C658.51,218.65 656.43,220.18 656.13,222.97C655.05,227.44 657.65,232.35 660.13,235.92C662.2,238.89 665.29,239.69 668.71,238.64C670.73,237.63 673.36,237.07 672.79,234.2C671.43,234.12 670.28,235.67 669,236.12C666.8,236.85 663.68,236.85 661.99,235.01C659.72,232.88 659.71,230.32 658.39,227.61C656.56,223.08 660.04,218.74 663.93,216.8C664.44,216.65 664.65,216.23 664.58,215.56C660.8,214.88 658.61,212.49 655.55,210.41C644.41,202.44 632.78,196.27 621.81,188.23C614.93,183.38 609.65,175.71 605.59,168.42C604.41,166.52 603.29,164.76 603.27,162.43C604.93,163.02 606.05,166.24 607.8,166.78C607.75,163.7 606.42,160.93 604.45,158.6C603.14,156.49 603.12,155.55 604.53,153.48Z" style="fill:rgb(3,76,178);fill-rule:nonzero;"/>
                <path d="M557.12,173.74C558.01,174.18 559.93,174 559.54,175.42C557.75,175.91 556.22,176.74 554.53,177.45C549.31,178.42 544.58,177.44 539.4,177.49C539.07,176.64 539.25,176.1 539.93,175.87C545.85,174.15 550.79,171.98 557.12,173.74Z" style="fill:rgb(3,76,178);fill-rule:nonzero;"/>
                <path d="M556.37,180.36C559.56,180.97 562.61,183.12 565.5,184.56C570.29,187.58 574.96,191.85 581,191.59C583.3,191.88 585.62,190.86 587.81,191.13L587.71,191.77C584.85,194.77 581.13,197.17 577.14,198.35C572.86,199.09 568.28,199.54 563.96,199.03L564.01,198.08C565.84,197.47 567.72,196.92 569.63,196.63C568.58,195.13 566.48,194.2 565.24,192.77C561.87,189.58 559.54,185.81 556.77,182.14C556.4,181.62 556.27,181.03 556.37,180.36Z" style="fill:rgb(3,76,178);fill-rule:nonzero;"/>
                <path d="M600.28,180.18C601.03,180.15 601.56,180.44 601.86,181.05C603.8,184.1 605.79,187.16 607.99,190.02C608.34,190.43 608.54,190.95 608.58,191.57L607.44,191.56C603.34,188.75 600.02,185.57 600.28,180.18Z" style="fill:rgb(3,76,178);fill-rule:nonzero;"/>
                <path d="M481.67,193.33C481.25,196.41 477.88,199.49 476.31,202.15C474.43,206.04 470.96,207.75 471.39,212.52C470.83,213.25 470.21,213.88 469.53,214.41C466.8,214.63 464.62,213.65 462.05,215.08C452.12,219.81 442.34,224.2 431.92,227.78C430.35,228.48 428.15,228.12 428.59,230.55C428.13,230.15 427.63,229.82 427.1,229.56C416.46,232.72 404.35,236.78 393.27,237.7L393.99,237.07C406.8,231.91 418.69,228.39 430.91,221.85C440.59,217.27 450.07,211.91 458.86,205.78C464.71,202.09 470.2,197.55 476.31,194.35C478.43,193.95 479.75,191.25 481.67,193.33Z" style="fill:rgb(3,76,178);fill-rule:nonzero;"/>
                <path d="M385.2,194.16L386.02,194.17L386.31,195.02L385.82,195.74C384.82,195.83 384.62,195.31 385.2,194.16Z" style="fill:rgb(3,76,178);fill-rule:nonzero;"/>
                <path d="M534.56,195.45C534.27,197.38 532.61,199.03 531.85,200.84C530.16,202.78 527.28,202.12 524.99,202.13C524.01,201.88 521.88,202.14 522.49,200.56C526.59,199.28 530.43,196.49 534.56,195.45Z" style="fill:rgb(3,76,178);fill-rule:nonzero;"/>
                <path d="M610.04,199.05C617.62,198.38 623.48,202.56 629.63,206.33C631.99,208.14 636.86,211.74 638.55,213.73C633.33,211.83 628.5,208.63 623.22,206.7C618.58,205 614.19,202.24 610.12,199.86L610.04,199.05Z" style="fill:rgb(3,76,178);fill-rule:nonzero;"/>
                <path d="M626.3,227.31C627.94,226.5 630.42,229.34 627.97,230.04C625.75,230.54 624.11,228.88 626.3,227.31Z" style="fill:rgb(3,76,178);fill-rule:nonzero;"/>
                <path d="M620.57,229.45C620.94,231.58 618.19,232.35 617.49,230.35C618.39,228.94 619.06,228.9 620.57,229.45Z" style="fill:rgb(3,76,178);fill-rule:nonzero;"/>
                <path d="M635.56,231.46C635.93,233.6 633.6,234.58 632.29,232.81C632.26,230.99 634.21,230.79 635.56,231.46Z" style="fill:rgb(3,76,178);fill-rule:nonzero;"/>
                <path d="M623.46,233.51C625.08,233.59 625.76,232.93 626.2,234.95C625.71,237.31 621.46,236.11 623.46,233.51Z" style="fill:rgb(3,76,178);fill-rule:nonzero;"/>
                <path d="M641.08,234.12C643.03,233.92 642.83,235.08 642.56,236.52C641.85,236.55 641.14,236.55 640.43,236.54C639.9,235.24 640.12,234.43 641.08,234.12Z" style="fill:rgb(3,76,178);fill-rule:nonzero;"/>
                <path d="M647.34,236.32C649.02,235.59 650.21,237.67 648.85,238.88C647.04,239.86 645.81,237.48 647.34,236.32Z" style="fill:rgb(3,76,178);fill-rule:nonzero;"/>
                <path d="M629.46,237.47C630.61,236.55 633.09,236.53 632.5,238.54C631.34,240.29 629.31,239.41 629.46,237.47Z" style="fill:rgb(3,76,178);fill-rule:nonzero;"/>
                <path d="M636.29,239.32C637.46,237.75 639.82,238.97 638.82,240.79C637.63,242.19 635.44,241.07 636.29,239.32Z" style="fill:rgb(3,76,178);fill-rule:nonzero;"/>
                <path d="M644.3,240.31C644.91,240.27 645.44,240.53 645.87,241.08C646.41,242.9 643.52,243.81 642.86,241.99C642.85,241.04 643.33,240.48 644.3,240.31Z" style="fill:rgb(3,76,178);fill-rule:nonzero;"/>
                <path d="M481.36,289.31C481.65,289.62 481.65,289.62 481.36,289.31Z" style="fill:rgb(3,76,178);fill-rule:nonzero;"/>
            </g>
        </g>
    </g>
</svg>
