<?xml version="1.0" encoding="UTF-8" standalone="no"?>
<!DOCTYPE svg PUBLIC "-//W3C//DTD SVG 1.1//EN" "http://www.w3.org/Graphics/SVG/1.1/DTD/svg11.dtd">
<svg width="100%" height="100%" viewBox="0 0 969 937" version="1.1" xmlns="http://www.w3.org/2000/svg" xmlns:xlink="http://www.w3.org/1999/xlink" xml:space="preserve" xmlns:serif="http://www.serif.com/" style="fill-rule:evenodd;clip-rule:evenodd;stroke-linejoin:round;stroke-miterlimit:2;">
    <g transform="matrix(1,0,0,1,-27.697096,-43.933678)">
        <g transform="matrix(1.145458,0,0,1.145458,-75.336837,-135.088089)">
            <path d="M317.97,156.3C322.3,156.31 326.65,156.28 330.98,156.41C336.57,156.85 341.52,159.36 346.86,160.97C358.21,165.97 368.06,172.67 377.95,180.04C385.44,184.98 391.53,191.54 398.99,196.53C401.51,195.93 403.99,195.23 406.47,194.49C409.88,193.53 413.39,193.92 416.78,192.82C423.83,191.31 430.98,190.09 438.02,188.54C444.55,187.88 451.37,188.14 457.81,186.77C460.19,186.33 462.56,186.36 464.97,186.35C474.6,186.38 484.25,186.11 493.88,186.4C497.34,186.49 500.63,187.54 504.1,187.63C509.06,187.88 513.98,188.19 518.79,189.52C525.18,190.49 531.47,191.91 537.62,193.92C548.58,197.59 559.46,201.38 570.13,205.83C572.04,206.5 574,207.59 576.02,207.79C578.11,207.56 580.1,206.65 582.18,206.27C587.47,205.08 593.39,206.16 598.64,205.13C605.63,203.63 612.9,203.29 620,204.17C625.76,204.49 631.36,203.95 637.05,205.34C642.38,206.02 647.49,207.58 652.81,208.32C658.94,209.42 664.87,212.05 671.04,212.63C675.78,211.92 680.22,209.14 684.78,207.64C694.45,203.29 704.59,200.29 714.41,196.32C721.64,194.01 729.36,191.68 737,191.67C743.43,191.61 749.62,191.07 756.02,192.04C760.29,192.64 764.71,191.82 768.93,192.51C774.43,194.2 780,195.31 785.29,197.7C792.12,200.16 798.23,203.85 804.35,207.71C808.43,210.68 812.19,214.03 816.4,216.83C817.2,213.92 817.37,210.97 817.63,207.98C817.71,210.99 817.09,214.05 817.45,217.03C819.34,221.09 823.62,224.09 826.45,227.55C831.57,232.86 834.49,239.26 838.73,245.21C845.65,254.48 849.37,266.87 853.2,277.69C855.38,283.75 855.75,290.04 857.36,296.22C858.15,300.66 859.45,304.97 860.44,309.36C861.9,314.7 861.54,320.28 862.67,325.7C864.57,334.11 863.84,342.78 865.39,351.15C866,354.65 864.61,359.11 867.26,361.72C871.85,366.87 876.53,371.69 879.65,377.96C879.06,379.42 878.45,380.86 877.93,382.35C878.54,381.16 879.17,379.98 879.8,378.8C882.17,382.66 884.42,386.46 885.48,390.91C889.94,404.56 889.28,420.14 885.29,433.83C882.15,444.3 875.18,453.85 872.7,464.48C871.69,468.66 873.34,471.85 873.73,475.98C874.14,480.47 875.93,484.44 875.79,488.98C875.75,494 875.91,499.04 875.62,504.05C875.26,507.78 872.37,512.27 874.36,515.88C876.87,520.33 880.73,524 883.59,528.24C889.78,537.82 894.56,548.5 897.33,559.57C897.95,561.61 897.79,564.8 899.37,566.36C899.63,573.95 899.47,580.89 903,587.86C905.13,591.68 907.55,595.35 909.85,599.08C918.82,614.95 925.97,632.78 928.15,650.95C929.49,655.08 929.8,659.33 930.79,663.53C932.11,668.12 932.03,672.96 932.91,677.72C934.43,685.89 933.04,694.02 934.22,701.99C934.65,706.83 934,711.29 934.98,716.09C936,721.17 935.35,726.81 935.37,732.01C935.54,738.15 933.28,743.87 933.62,750.03C934.01,756.54 931.64,762.52 931.64,768.99C931.62,773.98 931.67,778.89 930.56,783.78C929.54,788.58 930.07,793.3 928.33,797.92C926.53,806.15 924.71,814.27 923.05,822.53C920.45,828.73 919.72,835.31 916.47,841.26C911.73,853.29 906.01,864.53 897.32,874.22C892.75,880.62 887.42,886.35 881.39,891.4C877.79,894.3 873.71,896.26 869.97,898.97C866.39,901.61 862.53,902.77 858.53,904.65C854.01,906.67 849.34,907.6 844.58,908.78C840.81,909.92 836.96,909.58 833,909.65C825.99,909.6 818.96,909.84 811.96,909.52C807.26,908.9 802.62,907.24 798.12,905.76C792.36,903.82 787.4,900.57 781.96,898.09C780.28,897.19 778.74,897.62 777.09,898.32C770.73,900.98 765.05,904.49 758.33,906.39C749.39,909.19 740.38,911.84 731.34,914.31C727.69,915.48 725.02,917.7 721.81,919.73C717.86,922.41 713.62,924.05 709.46,926.4C703.49,929.83 697.44,933.11 691.35,936.3C685.3,939.78 678.68,942.22 672.45,945.37C662.59,949.72 652.6,952.72 642.31,956.23C631.5,959.35 620.59,962.78 609.65,965.26C605.03,965.75 600.64,967.25 596.02,967.6C592.21,967.91 588.87,969.62 584.98,969.51C582.38,969.41 580.08,970.06 577.62,970.76C573.71,971.86 570.03,971.31 566.08,971.87C560.43,972.93 554.71,971.92 548.99,972.82C543.13,973.84 536.95,973.46 531,973.53C523.01,973.33 514.97,973.8 507,973.32C498.94,972.19 490.8,971.53 482.8,970.05C479.04,969.31 475.54,970 471.88,968.82C468.4,967.69 464.86,967.7 461.28,967.24C453.55,965.3 445.64,964.02 437.96,961.88C435.35,961.4 432.59,961.55 429.94,961.57C425.41,961.63 421.36,963.31 416.92,963.62C412.53,963.96 408.46,965.44 404.02,965.42C397.83,965.54 392.02,965.97 385.92,964.71C374.47,963.47 362.33,961.36 351.81,956.54C345.6,954.3 339.9,951.31 334.33,947.78C328.25,944.19 323.17,939.31 316.98,935.99C311.36,932.55 305.61,929.35 299.89,926.06C293.7,922.57 286.69,919.32 281.2,914.79C277.1,911.51 272.59,908.67 268.26,905.7C263.23,902.36 258.51,898.73 253.33,895.58C249.97,893.61 247.66,890.86 244.53,888.37C239.16,884.12 233.68,880.01 229.1,874.88C226.38,871.86 222.67,870.13 219.97,867.03C213.78,860.56 207.04,854.53 201.13,847.8C196.76,841.53 191.2,836.44 186.79,830.19C181.21,824.14 177.34,817.05 172.6,810.39C167.02,803.06 162.46,795.25 157.69,787.4C154.2,782.05 151.15,776.41 148.28,770.71C144.12,760.64 138.91,750.97 134.53,741C132.24,735.13 130.61,729.03 128.32,723.15C124.76,712.5 121.94,701.61 118.65,690.87C118.32,687.9 117.84,685.23 116.79,682.42C115.18,675.61 114.56,668.54 112.7,661.79C112.22,659.29 112.43,656.58 112.2,654.04C111.8,650.85 110.46,648.22 110.38,645.06C110.26,639.03 110.36,632.98 110.3,626.95C110.37,621.78 108,617.22 108.41,612.01C108.79,604.3 107.7,596.1 109.54,588.61C110.82,583.14 109.83,577.63 110.93,572.16C111.85,568.12 111.41,564.02 112.15,559.95C112.69,555.23 114.46,550.85 114.62,546.06C116.06,536.66 119.16,527.61 121.01,518.26C124.65,506.43 128.4,494.56 132.94,483.04C136.15,476.34 138.53,469.34 141.42,462.53C145.8,454.11 150.23,445.72 154.38,437.19C156.8,432.1 160.65,428.44 162.35,422.99C158.4,423.65 154.71,425.05 150.9,426.19C143.85,427.06 137.03,429.82 130,430.55C122.01,430.37 114.16,431.23 106.21,431.73C100.68,432.97 95.15,432.93 89.95,430.46C92.73,425.38 96.05,420.74 98.44,415.45C102.51,406.88 106.71,397.4 108.31,388.03C108.07,382.47 110.56,377.53 110.41,372.01C110.32,360.81 111.02,350.46 108.98,339.54C107.91,334.45 108.53,329.12 108.28,323.97C108.07,319.87 106.35,316.12 106.33,312.05C106.26,306.35 106.35,300.64 106.32,294.94C106.2,290.79 108.49,287.25 108.29,283.04C108.04,276.27 111.2,269.2 113.85,263.07C115.47,258.56 118.81,254.52 121.85,250.86C125.12,247.29 128.46,243.14 132.53,240.53C135.35,238.72 137.93,236.55 140.78,234.79C143.71,233.33 146.79,232.19 149.67,230.62C156.96,226.47 166.09,225.22 174.21,222.67C183.22,220.86 191.9,217.85 200.83,215.6C206.61,213.75 211.93,210.74 217.73,208.85C226.28,206.11 233.27,201.23 241.29,197.3C247.76,193.33 253.66,188.32 259.64,183.65C266.43,178.67 273.66,174.51 280.18,169.17C286.99,164.33 295.2,161.18 303.15,158.73C308.11,157.87 313,156.13 317.97,156.3Z" style="fill:rgb(1,1,1);fill-rule:nonzero;"/>
            <path d="M328.79,187.45C336.69,189.24 342.57,193.61 349.37,197.62C357.46,201.94 364.8,208.53 372.26,213.74C382.24,220.38 391.09,228.31 401.11,234.9C406.4,238.29 411.37,242.05 416.96,244.94C426.28,249.77 436.75,255.33 447.16,257.1C444.42,252.01 440.3,247.72 437.13,242.88C433.33,236.99 428.86,231.6 425.01,225.74C433.24,225.07 440.59,221.3 448.85,221.04C453.97,219.98 458.73,219.09 464.01,219.21C478,217.74 491.88,218.63 505.84,219.71C508.57,220.19 511.24,220.86 514,221.17C521.97,221.56 529.86,224.65 537.62,226.55C546.42,228.49 554.32,232.14 562.69,235.31C570.37,238.26 577.57,242.31 585.04,245.96C592.08,249.41 598.45,253.8 605.15,257.86C614.16,263.33 622.11,270.02 630.4,276.48C639.22,283.98 647.58,292.06 655.32,300.67C657.25,302.93 659.26,305.08 661.41,307.14C658.68,300.58 655.62,294.03 652.27,287.77C647.58,280.25 643.39,272.04 637.7,265.34C634.13,260.86 630.64,256.32 627.05,251.87C622.3,245.97 616.04,241.72 611.85,235.61C616.57,235.59 621.29,235.65 626.01,235.61C630.92,235.5 635.74,236.79 640.64,237.17C645.48,237.47 649.92,239.04 654.59,240.17C663.69,245.81 673.65,249.35 682.49,255.4C693.72,263.01 704.67,271.17 714.97,280.01C720.17,284.58 725.43,288.89 729.94,294.19C734.65,299.8 740.3,304.43 744.77,310.27C749.36,315.59 753.62,320.98 757.16,327.07C765.1,338.62 774.75,351.91 778.16,365.69C773.45,371.22 768.46,377.62 766.29,384.64C768.34,383.23 770.23,381.69 772.06,380.01C775.85,376.4 781.3,374.48 785.82,371.74C794.7,371.14 803.91,370.13 811.72,375.29C816.24,378.45 820.77,382.62 823.28,387.6C826.32,394.86 826.62,403.59 823.87,410.98C822.27,415.46 820.04,419.72 818.16,424.09C815.45,427.69 812.19,430.78 809.38,434.29C804.93,439.73 799.6,443.77 794.55,448.56C788.86,453.75 782.65,458.15 775.54,461.16C770.3,462.69 763.12,463.86 758.29,460.62C752.49,457.39 749.74,450.1 748.47,443.93C747.63,438.14 747.02,432.49 747.86,426.66C748.74,420.45 747.67,414.53 749.54,408.42C750.16,403.95 752.16,399.65 752.26,395.15C741.71,406.13 736.64,420.14 734.74,435.03C733.04,441.95 732.52,449.92 728.74,455.81C723.89,463.9 713.5,468.23 704.34,467.38C705.73,463.64 707.32,459.88 708.22,455.98C709.85,443.28 708.19,430.51 701.57,419.4C699.24,415.7 697.08,411.89 694.8,408.17C691.41,402.72 686.88,399.3 682.58,394.43C677.87,389.29 672.19,385.97 666.95,381.47C670.2,387.72 674.44,393.21 677.3,399.61C679.99,405.55 682.85,411.73 684.53,418.04C685.22,421.13 685.55,424.28 686.32,427.36C687.59,437.46 686.53,448.88 680.22,457.27C676.4,461.89 671.33,465.43 665.65,467.38C661.46,467.81 657.15,467.43 652.93,467.5C648.47,467.66 644.57,465.65 640.02,464.63C634.26,463.29 629.25,460.5 623.86,458.21C619.14,456.08 614.81,453.1 610.28,450.6C604.36,447.32 599.37,442.95 593.8,439.18C590.88,437.07 587.78,435.28 584.95,433.04C579.48,428.8 573.57,425.2 568.07,421C564.51,418.53 561.05,415.88 557.38,413.6C555.72,412.53 554.13,413.6 552.56,414.25C553.45,413.56 554.33,412.86 555.21,412.15C545.92,405.37 536.2,399.4 526.26,393.63C515.27,386.53 502.96,381.74 490.03,379.72C485.68,379.47 481.3,379.61 476.94,379.58C472.71,379.45 469.45,381.12 465.25,382.02C458.88,383.71 454.04,387.27 448.47,390.56C444.18,393.02 441.57,396.6 437.95,399.94C433.21,404.33 429.07,409.09 425.45,414.45C434.65,411.46 442.34,407.49 451.94,406.65C456.71,406.51 461.15,405.1 465.96,405.57C472.24,405.26 478.28,406.26 484.49,406.92C487.9,407.57 491.19,408.76 494.55,409.61C494.6,410.15 494.67,410.68 494.75,411.22C490.45,411.54 486.39,412.72 482.18,413.54C477.81,414.08 473.96,415.73 469.83,417.12C464.04,418.92 458.6,422.07 453.85,425.8C448.17,430.07 443.5,435.92 438.93,441.33C442.85,442.64 446.75,442.38 450.78,442.77C457.58,444.58 465,447 470.67,451.28C472.74,454.01 472.93,457.39 473.68,460.63C476.22,469.94 481,477.87 486.11,485.94C492.78,494.57 501.27,501.86 510.76,507.23C513.05,508.35 515.41,509.79 517.89,510.35C520.28,509.73 522.6,508.95 525.05,508.6C523.06,509.24 520.42,509.25 519.17,511.03C524.88,514.13 531,514.44 537.07,516.34C543.26,517.47 549.6,517.62 555.84,518.57C555.68,519.42 555.53,520.27 555.38,521.13C549.47,521.74 543.99,524.78 538.01,525.4C532.11,525.82 526.9,527.51 521,527.43C516.04,527.61 511.26,526.78 506.41,525.87C493.47,524.23 480.93,518.58 470.72,510.5C466.17,507.66 462.67,503.83 458.84,500.15C452.25,493.58 447.95,485.86 441.75,478.99C443.21,482.55 443.8,486.31 444.99,489.96C448.09,499.66 451.97,509.02 457.56,517.58C464.24,525.77 471.21,533.19 480.6,538.32C485.8,540.75 491.23,543.86 496.89,544.84C502.83,546.44 508.76,547.66 514.96,547.53C523.64,548.02 532.6,547.06 540.9,544.5C540.27,545.94 539.77,547.29 538.4,548.2C528.54,556.1 519.99,565.22 511.51,574.53C506.88,580.31 498.79,580.9 492.15,583.55C485.59,586.25 478.82,588.6 472.41,591.66C467.29,594.54 461.89,596.67 456.99,599.93C449.61,604.64 441.9,609.54 435.52,615.56C432.43,618.37 430.02,621.55 426.55,623.95C426.78,620.96 427.57,618.12 428.23,615.21C428.66,612.5 428.7,609.74 429.15,607.02C429.79,603.16 428.8,599.78 428.61,595.95C428.6,591.14 425.73,586.22 423.93,581.8C415.8,564.82 399.35,552.91 392.46,535.32C390.79,531.13 389.99,526.43 389.33,521.98C389.19,516.16 388.52,509.55 390.37,503.97C391.71,498.52 392.64,493.09 394.86,487.88C399.06,478.28 404.22,469.33 407.78,459.42C411.79,449.96 414.61,439.3 412.87,428.99C412.92,422.08 410.37,415.2 407.86,408.83C403.58,400.97 399.34,393.04 394.51,385.49C391.44,380.78 389.56,375.08 387.4,369.84C386.17,366.27 384.61,362.81 384.61,359.05C384.31,350.35 383.95,341.78 385.7,333.18C377.2,335.27 369.02,341.08 361.58,345.6C353.77,351.55 345.39,356.46 338.31,363.36C329.46,369.82 322.28,377.86 314.58,385.58C311.43,388.88 309.11,392.8 306.2,396.28C305.38,397.39 304.27,397.57 303.04,398C304.5,392.12 307.45,386.57 309.56,380.88C313.78,372.24 318.82,363.97 323.61,355.64C328.97,347.27 335.81,339.73 341.68,331.7C346.33,326.76 351.12,321.7 356.22,317.22C364.88,310.55 374.01,304.48 382.78,297.95C379.64,292.41 376.89,286.63 374.18,280.87C370.63,274.33 365.87,268.42 361.78,262.21C357.25,256.21 351.71,250.87 345.91,246.11C340.24,242.16 334.85,238.47 327.88,237.29C328.42,236.04 328.82,234.85 329.73,233.81C334.14,229.33 339.59,227.6 344.44,223.98C337.22,223.06 330.43,224.55 323.58,226.67C316.34,228.35 310.52,232.32 304.62,236.63C298.44,241.27 293.39,247.39 288.38,253.29C273.14,273.84 262.74,295.9 249.3,317.27C244.41,324.23 240.14,331.24 234.59,337.63C231.27,341.47 228.59,345.48 224.97,348.99C219.63,354.42 214.64,360.04 208.47,364.58C203.68,368.95 198.27,372.3 192.9,375.87C187.51,379.9 181.41,382.31 175.35,385.53C166.68,389.27 157.86,392.89 148.75,395.43C144.79,396.19 141.29,397.85 137.19,397.79C137.67,392.6 140.55,388.12 141.11,382.89C141.4,379.15 142.63,375.7 143.25,372.04C143.7,361.32 143.52,350.68 143.39,339.95C143.23,334.88 141.38,330.16 141.43,325.03C141.44,321.3 141,317.67 140.46,314C138.9,305.35 139.38,296.52 140.97,287.91C141.4,283.31 143.16,279.23 144.78,274.95C148.59,265.02 157.79,257.2 167.51,253.31C175.99,249.76 184.81,246.96 193.67,244.51C204.98,241.04 215.7,235.94 226.98,232.3C223.12,240.12 218.53,247.59 214.39,255.28C212.09,259.62 209.13,263.22 206.4,267.3C203.09,272.34 198.36,276.05 195.13,281.17C200.67,279.04 206.52,276.73 211.4,273.33C216.78,269.35 222.36,265.9 227,260.99C239.91,249.01 250.65,235.48 262.49,222.5C267.6,215.85 273.94,210.74 280,205C290.47,196.68 301.69,188.27 315.38,186.6C320.07,185.42 324.16,186.64 328.79,187.45Z" style="fill:white;fill-rule:nonzero;"/>
            <path d="M754.04,213.88C769.02,216.26 783.23,221.29 795.24,230.76C801.24,234.9 806.21,239.62 810.67,245.39C815.88,251.36 818.88,258.94 823.2,265.68C826.84,273.11 829.74,281.15 832.1,289.08C833.79,296.63 836.06,304.06 837.41,311.68C838.2,315.35 839.91,318.65 837.21,322.01C835.65,316.61 833.35,311.5 831.76,306.12C829.62,299.59 826.12,294.06 823.02,288.02C817.42,276.12 809.18,265.36 799.74,256.26C793.41,249.77 785.83,244.72 776.95,242.55C772.37,241.87 767.82,243.36 764.42,246.45C759.21,250.69 757.53,256.28 754.61,262C752.1,261.6 750.53,260.04 748.61,258.54C741.71,252.59 734.12,247.42 726.5,242.46C718.35,238.3 710.86,233.09 702.63,229.09C702.49,228.22 702.36,227.35 702.25,226.48C711.67,223.47 720.72,218.76 730.28,217.03C733.27,216.41 736.14,215.48 739.21,215.25C744.05,214.83 749.28,213.16 754.04,213.88Z" style="fill:white;fill-rule:nonzero;"/>
            <path d="M662.06,240.09C673.83,244.27 685.73,247.34 697.18,252.95C703.96,256.45 710.84,259.68 717.3,263.75C726.05,268.34 733.64,274.47 740.98,281.01C745.24,284.86 750.27,287.66 754.49,291.52C763.88,300.48 772.78,309.89 782.02,318.99C786.96,324.02 790.71,330.31 795.17,335.83C798.45,340.22 802.39,344.02 803.83,349.39C798.61,351.8 793.5,353.29 788.92,356.92C785.32,359.79 781.52,362.52 778.16,365.69C774.75,351.91 765.1,338.62 757.16,327.07C753.62,320.98 749.36,315.59 744.77,310.27C740.3,304.43 734.65,299.8 729.94,294.19C725.43,288.89 720.17,284.58 714.97,280.01C704.67,271.17 693.72,263.01 682.49,255.4C673.65,249.35 663.69,245.81 654.59,240.17C657.18,239.69 659.5,239.1 662.06,240.09Z" style="fill:rgb(3,76,178);fill-rule:nonzero;"/>
            <path d="M518.36,329.88C530.54,329.35 542.99,329.51 555.03,331.56C564.04,332.35 572.79,334.45 581.26,337.63C588.18,339.14 593.85,342.77 600.13,345.81C605.86,348.67 610.4,352.76 615.66,356.31C620.19,359.58 623.93,364.16 627.96,368.04C632.4,372.26 635.14,377.32 638.76,382.17C644.56,389.58 648.03,398.85 652.57,407.18C646.17,401.84 641.08,395.37 634.4,390.45C630.19,387.34 626.6,383.63 622.26,380.73C614.52,375.42 606.81,370.04 598.93,364.93C594.41,361.92 589.39,360.01 584.71,357.24C580.01,354.7 575.37,352.03 570.66,349.52C563.31,346.54 555.9,343.72 548.68,340.43C542.1,337.37 535.44,336.11 528.54,333.82C524.81,332.43 521.34,332.84 518.36,329.88Z" style="fill:rgb(1,1,1);fill-rule:nonzero;"/>
            <path d="M822.44,364.8C832.49,368.27 841.73,374.25 848.94,382.08C853.9,387.56 856.27,394.42 858.96,401.18C861.39,406.78 860.5,414.01 860.4,420.01C855.25,416.45 852.48,410.65 846.45,409.56C839.32,408.36 833.12,412.56 828.12,417.12C825.14,420.01 821.77,422.11 818.16,424.09C820.04,419.72 822.27,415.46 823.87,410.98C826.62,403.59 826.32,394.86 823.28,387.6C820.77,382.62 816.24,378.45 811.72,375.29C803.91,370.13 794.7,371.14 785.82,371.74C789.22,369.28 792.47,366.91 796.65,365.91C804.79,363.91 814.3,362.01 822.44,364.8Z" style="fill:rgb(3,76,178);fill-rule:nonzero;"/>
            <path d="M198.96,419.14C196.86,427.62 194.27,436.08 191,444.19C187.62,452.92 185.48,462.29 183.13,471.34C180.07,482.37 178.02,493.8 175.86,505.03C174.88,509.66 173.94,514.27 173.65,519.01C173.4,524.74 172.11,530.29 171.69,536C171.39,542.04 170.11,547.89 170.37,553.98C170.61,568.67 169.55,583.74 171.4,598.29C171.45,604.55 171.87,610.45 173.1,616.6C174.31,627.51 176.95,638.06 178.95,648.84C180.75,658.68 182.81,668.27 186.21,677.69C188.12,682.89 189.75,688.17 191.42,693.46C194.4,702.77 198.25,711.66 202.32,720.53C205.59,729.25 210.35,737.13 214.47,745.45C219.79,755.05 225.52,764.43 231.11,773.87C234.35,779.51 238.96,784.03 242.33,789.59C244.93,793.9 247.99,797.87 250.81,802.03C246.3,798.93 243.11,794.83 238.97,791.02C232.55,785.06 227.31,778.08 221.23,771.76C214.93,765.26 209.59,758.03 204.44,750.6C200.23,744.49 195.88,738.47 191.79,732.28C188.62,727.5 186.84,722.13 183.93,717.17C178.05,707 172.64,696.09 169.25,684.82C166.95,678.44 164.73,672.04 162.43,665.66C160.01,659.22 159.1,652.5 155.98,646.29C150.82,658.08 150.94,672.4 149.67,684.96C149.25,690.61 150.05,695.6 148.78,701.11C146.07,697.33 145.59,693.26 144.25,688.91C142.57,682.71 140.63,676.39 139.83,670.01C138.79,659.9 135.36,649.25 135.43,639.03C135.24,632.59 133.3,626.49 133.55,620C133.8,608.83 132.85,598.37 134.76,587.63C135.85,581.79 135,575.95 136.28,570.17C138.71,558.95 139.76,547.26 143.04,535.94C145.17,528.75 146.76,521.48 149.5,514.48C153.16,503.5 156.21,492.83 161.51,482.44C166.27,472.99 169.92,462.64 175.88,454.01C178.56,449.84 180.62,445.35 183.33,441.19C188.7,433.42 191.28,425.26 198.96,419.14Z" style="fill:rgb(3,76,178);fill-rule:nonzero;"/>
            <path d="M527.56,439.48C530.82,440.79 535.31,442.21 537.42,445.16C537.55,450.91 534.69,458.61 537.81,464.32C542.9,471.82 551.75,477.03 561.04,475.23C566.01,474.45 568.62,471.18 572.72,468.83C574.05,467.97 575.26,468.93 576.52,469.45C581.46,472.03 585.76,475.68 590.7,478.31C596.51,481.64 602.34,483.18 607,488.05C601.01,492.47 594.22,495.86 587.14,498.16C578.34,501.24 568.33,504.07 558.95,503.37C547.11,501.73 534.25,498.88 524.61,491.38C519.24,487.34 513.94,483.48 510.24,477.75C507.5,473.45 504.98,468.7 502.96,464.02C499.13,453.93 498.37,442.92 501.33,432.49C510.34,431.6 519.19,436.72 527.56,439.48Z" style="fill:rgb(3,76,178);fill-rule:nonzero;"/>
            <path d="M835.48,441.11C837.72,447.51 837.79,454.05 837.56,460.75C837.3,469.09 834.07,478.1 827.91,483.9C823.2,488.14 817.39,491.74 811.18,493.18C802.65,494.54 794.27,492.26 786.79,488.19C784.95,487.27 783.9,485.86 782.8,484.19C787.26,480.89 792.14,477.47 797.4,475.63C802.97,475.39 807.68,477.83 813.4,475.37C818.52,473.35 820.27,467.9 821.21,462.95C822.03,458.69 820.36,455.05 823.56,451.61C827.05,447.61 829.89,442.27 835.48,441.11Z" style="fill:rgb(3,76,178);fill-rule:nonzero;"/>
            <path d="M850.24,482.32C853.42,483.94 852.32,486.97 852.64,489.96C852.51,496.91 853.4,503.19 850.58,509.77C844.25,508.69 838.81,505.78 833.36,502.54C835.88,499.98 838.65,497.69 841.2,495.17C845.07,491.28 846.62,486.27 850.24,482.32Z" style="fill:rgb(3,76,178);fill-rule:nonzero;"/>
            <path d="M394.86,487.88C392.64,493.09 391.71,498.52 390.37,503.97C388.52,509.55 389.19,516.16 389.33,521.98C389.99,526.43 390.79,531.13 392.46,535.32C391.33,532.59 390.31,529.84 388.97,527.21C388.08,529.84 387.66,532.53 387.39,535.29C387.48,531.49 388.54,527.83 388.59,524.05C388.64,519.67 388.44,515.3 388.51,510.93C388.5,506.82 389.88,503.44 390.71,499.34C391.55,495.31 393.1,491.58 394.86,487.88Z" style="fill:rgb(3,76,178);fill-rule:nonzero;"/>
            <path d="M717.97,496.54C726.66,496.56 735.37,496.4 744.05,496.6C750.69,497.19 757.31,498.16 763.95,498.72C772.1,500.58 779.74,501.38 787.51,504.79C795.27,510.69 805.74,513.91 811.91,521.25C801.74,517.03 791.12,514.48 780.31,512.55C776.88,511.51 773.5,511.44 769.95,511.34C760.97,510.47 752.89,508.53 743.81,510.21C737.81,510.4 731.96,511.4 725.97,511.63C711.78,513.77 698.01,517.63 684.72,523.05C679.27,525.45 674.41,530.26 669.52,533.6C663.44,537.48 656.11,539.29 649.41,541.68C644.31,543.55 639.33,545.7 634.21,547.51C626.06,550.46 618.67,554.68 611.05,558.71C603.65,561.95 597.77,566.94 590.93,571.09C582.87,576.03 575.96,582.56 568.61,588.6C561.05,595.93 553.14,603.34 546.84,611.79C541.33,618.64 535.47,625.77 531.38,633.57C528.48,638.88 524.78,643.82 522.19,649.29C516.66,661.49 511.19,672.89 508.3,686.1C509.63,685.4 510.63,684.47 511.3,683.3C514.62,677.35 517.87,671.31 521.57,665.59C525.44,660.35 529.15,655.1 532.67,649.62C544.02,635.04 555.91,621.06 569.72,608.72C576.69,602.91 583.39,596.93 591.01,591.95C597.16,587.12 603.71,583.28 610.55,579.55C620.11,573.72 630.28,569.62 640.55,565.29C646.39,562.94 652.46,561.24 658.39,559.1C659.83,558.55 662.41,558.05 663.62,559.22C666.3,562.36 667.89,565.99 671.16,568.77C674.21,571.3 676.98,573.84 680.71,575.35C692.84,581.3 705.16,582.92 717.66,587.28C724.41,590.89 731.36,593.97 738.33,597.1C746.5,602.17 755.18,607.26 762.03,613.96C764.32,616.24 766.95,618.61 768.49,621.47C769.96,627.6 769.47,634.49 768.3,640.64C766.05,646.33 762.01,650.61 757.09,654.12C753.28,657.62 748.63,659.32 743.72,660.67C738.67,661.51 734.06,663.2 729,663.37C724.25,663.48 719.73,665.05 714.96,665.24C710.2,665.36 705.9,667.39 701.12,667.48C698.23,667.54 693.97,670.15 691.39,668.97C689.13,665.96 687.92,662.04 686.16,658.72C679.98,644.57 670.01,631.72 659.36,620.65C655.79,616.94 651.78,614.07 647.77,610.88C645.48,614.41 643.99,618.23 642.03,621.94C635.02,635.41 631.63,649.79 627.68,664.26C627.18,669.31 626.42,674.12 625.4,679.08C625.54,686.27 622.89,692.87 623.33,700.06C623.9,704.27 619.88,706.75 617.15,709.18C605.9,717.73 597.15,728.33 586.9,738C577.42,745.91 569.64,755.26 561.14,764.15C554.81,771.14 548.71,778.34 542.29,785.25C531.06,798.41 519.49,812.06 506.18,823.16C502.37,826.74 498.7,830.38 494.34,833.33C482.94,842.3 470.52,851.01 457.18,856.84C445.93,861.68 434.39,865.34 422.18,866.81C408.11,868.49 393.8,866.73 380.8,861C363.77,852.7 349.68,838.82 341.15,821.9C335.5,809.51 331.43,796.7 330.84,783C330.31,765.03 330.95,746.81 335.61,729.36C340.46,710.93 346.87,692.56 355.86,675.71C359.98,667.96 365.13,660.33 368.36,652.23C367.53,651.16 366.72,650.08 365.87,649.02C369.12,645.82 371.98,642.44 375.73,639.78C378.83,637.57 381.73,635.11 384.77,632.82C383.27,639.69 380.55,646.64 379.46,653.81C378.88,657.61 377.62,661.11 377.55,664.99C377.51,669.82 375.34,674.08 375.58,678.95C375.86,691.04 374.72,702.23 377.23,714.09C377.77,724.74 381.29,735.35 383.91,745.65C384.19,746.97 385.01,747.9 385.79,748.96C387.92,739.88 391.2,730.86 394.58,722.16C396.07,718.2 398.21,714.85 400.02,711.03C403.35,703.94 407.3,697.1 411.65,690.59C416.77,683.69 421.41,676.63 427.45,670.47C433.46,663.21 440.13,656.39 447.45,650.45C451.93,646.15 456.85,642.46 461.89,638.85C468.74,633.37 476.48,629.35 483.47,624.05C481.54,633.32 476.2,641.19 474.6,650.48C473.59,655.1 471.51,659.08 471.35,663.89C477.33,654.67 483.18,645.31 489.06,636.02C498.83,623.17 508,608.79 518.83,596.87C524.22,589.51 530.79,583.59 537.05,577.04C542.92,571.17 548.71,565.36 555.39,560.39C571.06,547.18 588.55,535.95 607.08,527.18C612.24,524.7 617.43,521.89 622.82,519.96C629.55,517.5 636.06,514.3 642.87,512.23C655.27,507.9 667.9,504.41 680.79,501.9C685.35,500.58 690.06,500.5 694.63,499.24C698.46,498.16 702.17,498.73 706.04,498.26C710.06,497.59 713.85,496.47 717.97,496.54Z" style="fill:white;fill-rule:nonzero;"/>
            <path d="M792.29,504.88C805.09,507.91 816.72,512.95 828.78,518.22C836.54,521.62 842.49,526.85 849.32,531.67C854.14,535.08 857.35,539.45 861.12,543.88C866.42,549.93 871.07,557.83 871.9,565.94C866.72,565.38 863.66,562.19 859.4,559.58C853.9,555.86 848,552.91 842.06,549.97C840.04,548.86 837.55,547.8 836.04,546.01C834.65,543.99 833.71,541.62 832.53,539.46C830.31,535.21 827.22,531.53 823.62,528.38C820.22,525.43 815.85,523.61 811.91,521.25C805.74,513.91 795.27,510.69 787.51,504.79C789.06,504.76 790.76,504.56 792.29,504.88Z" style="fill:rgb(3,76,178);fill-rule:nonzero;"/>
            <path d="M218.91,513.05C220.45,519.54 219.28,525.43 220.07,532C220.6,537.2 219.84,542.74 220.94,547.79C221.48,550.18 221.56,552.6 221.83,555.03C223.53,567.63 227.26,579.6 230.24,591.92C230.44,592.87 230.96,593.7 231.79,594.42C235.36,588.2 239.16,582.13 242.75,575.93C245.25,571.41 249.02,568.14 252.08,564.07C255.71,559.08 260.02,554.65 264.86,550.84C269.8,546.96 273.82,542.46 279.31,539.28C284.24,536.37 288.5,532.79 293.68,530.36C292.5,533.54 290.33,535.65 288.42,538.42C282.02,547.83 275.83,557.32 270.66,567.47C260.96,587.09 254.26,608.16 251.44,629.88C248.97,640.6 249.51,651.11 249.39,662C249.24,671.05 249.99,680.02 250.62,689.04C251.69,695.98 253.23,702.82 254.35,709.75C255.9,717.5 258.99,725.2 259.65,733.08C257.18,731.03 255.96,728.33 254.28,725.67C252.06,722.09 249.61,718.8 247.78,714.99C242.35,704.76 236.72,694.78 232.1,684.14C228.28,674.13 224.46,664.18 221.22,653.97C217.49,640.88 214.53,627.5 212.36,614.07C210.73,608.58 211.7,603.24 210.83,597.64C210.53,593.03 209.37,588.65 209.57,584.02C209.75,577.42 208.9,570.8 210.24,564.53C211.1,558.93 210.93,553.21 211.6,547.6C212.85,542.9 213.23,538.17 213.74,533.36C215.42,526.59 216.98,519.76 218.91,513.05Z" style="fill:white;fill-rule:nonzero;"/>
            <path d="M751.05,520.73C759.03,520.33 766.96,520.28 774.77,522.18C785.64,522.55 795,526.73 805.38,528.88C805.44,530 805.51,531.13 805.58,532.25C800.42,534.22 795.11,535.81 789.78,537.26C784.53,537.94 779.29,539.52 774.01,539.41C770.66,539.42 767.31,539.51 763.95,539.43C758.18,539.31 752.84,537.28 747,537.48C742.43,537.74 738.55,535.93 734.1,535.33C727.32,533.65 720.41,532.29 713.52,531.14C713.51,530.44 713.49,529.74 713.48,529.04C721.18,526.26 728.84,523.84 736.95,522.57C741.98,522.76 746.23,521.92 751.05,520.73Z" style="fill:white;fill-rule:nonzero;"/>
            <path d="M809.45,557C807.89,561.25 806.12,565.48 804.91,569.85C804.12,573.24 803.79,576.94 806.13,579.82C807.97,582.36 810.99,582.98 813.92,582.22C819.64,580.46 824.34,577.12 828.98,573.49C830,573.95 831.01,574.42 832.02,574.89C832.47,577.2 832.6,579.32 831.53,581.49C827.85,590.15 819.83,597.08 815.53,605.55C813.87,608.51 814.4,612.72 814.3,616.03C814.22,627.09 818.31,637.9 826.49,645.48C830.43,648.86 834.95,651.61 839.24,654.52C837.03,658.91 835.18,663.21 831.65,666.76C821.58,666.14 811.54,662.82 802.4,658.66C794.67,655.12 787.69,649.39 784.86,641.13C783.91,637.24 784.58,632.99 784.05,629.01C783.36,623.77 783.67,617.99 786.42,613.34C789.79,608.25 794.34,603.85 798.65,599.64C800.12,598.09 802.09,596.18 802.53,594.02C801.28,591.08 798.59,588.59 797.43,585.58C795.63,579.89 795.08,573.98 797.28,568.31C799.38,562.93 803.04,557.22 809.45,557Z" style="fill:rgb(3,76,178);fill-rule:nonzero;"/>
            <path d="M726.02,558.23C730.65,558.33 734.97,558.54 739.03,561.05C747.98,566.27 751.89,577.85 748.43,587.52C746.66,592.28 742.17,594.26 738.33,597.1C731.36,593.97 724.41,590.89 717.66,587.28C722.38,586.44 728.16,586.72 732.39,584.4C737.31,581.2 737.31,575.63 735.58,570.61C733.85,565.1 729.92,562.14 726.02,558.23Z" style="fill:rgb(3,76,178);fill-rule:nonzero;"/>
            <path d="M838.68,565.02C843.89,567.91 848.54,572.12 853.36,575.62C855.92,577.45 858.17,579.43 860.29,581.76C864.46,589 869.42,594.82 872.75,602.25C875.07,607.42 877.21,612.88 878.18,618.47C878.91,625 878.86,631.56 878.21,638.09C875.84,634.25 873.73,630.28 871.65,626.28C868.22,619.84 863.6,614.26 858.37,609.21C857.69,611.16 857.09,613.13 856.77,615.18C856.18,620.21 853.71,625.06 852.17,629.9C849.14,638.85 844.34,646.65 839.24,654.52C834.95,651.61 830.43,648.86 826.49,645.48C818.31,637.9 814.22,627.09 814.3,616.03C814.4,612.72 813.87,608.51 815.53,605.55C819.83,597.08 827.85,590.15 831.53,581.49C832.6,579.32 832.47,577.2 832.02,574.89C831.37,571.53 830.38,567.91 833.67,565.54C835.31,563.86 836.71,564.04 838.68,565.02Z" style="fill:white;fill-rule:nonzero;"/>
            <path d="M860.29,581.76C870.37,587.13 877.89,598.28 884.71,607.18C888.88,614.19 892.47,621.7 895.84,629.13C898.77,635.43 898.94,641.82 900.97,648.39C903.78,657.03 904.71,666.06 906.39,675.03C906.41,683.12 907.32,690.96 908.3,698.97C908.73,709.96 908.34,721 908.49,732C908.68,737.72 907.61,743.29 907.45,748.98C907.02,757.68 904.86,766.38 904.54,775.05C904.38,779.63 903.13,783.69 902.17,788.18C898.96,802.4 895.15,817.17 887.97,829.96C882.72,839.36 877.75,848.34 869.42,855.43C865.02,859.05 860.39,862.53 855.49,865.45C850.57,868.39 845.44,869.08 839.91,870.15C835.97,870.81 832.23,870.74 828.45,869.36C833.55,862.75 840.06,857.81 845.51,851.52C849.57,846.89 852.47,841.83 855.52,836.53C862.16,824.76 867.82,812.76 870.41,799.4C873.15,789.09 874.9,778.62 875.98,768.01C876.36,766.01 876.28,763.4 877.94,762C880.11,759.85 882.94,758.23 885.38,756.36C889.92,753.02 893.56,748.29 896.34,743.42C899.49,738 900.38,731.08 900.59,724.91C900.88,716.68 899.07,708.5 894.4,701.62C891.78,697.18 887.57,694.12 884.82,689.86C883.5,678.93 886,667.32 882.88,656.03C881.38,650.06 880.58,643.67 878.21,638.09C878.86,631.56 878.91,625 878.18,618.47C877.21,612.88 875.07,607.42 872.75,602.25C869.42,594.82 864.46,589 860.29,581.76Z" style="fill:rgb(3,76,178);fill-rule:nonzero;"/>
            <path d="M651.69,633.83C653.93,634.86 655.62,635.93 656.98,638.04C665.44,650.54 671.73,664.1 676.96,678.22C672.88,680.62 668.48,682.16 664.18,684.07C656.82,687.16 650.03,691.23 642.47,693.91C642.33,687.6 642.28,681.29 642.41,674.99C642.4,670.8 643.64,666.98 644.14,662.84C645.47,652.85 648.22,643.27 651.69,633.83Z" style="fill:white;fill-rule:nonzero;"/>
            <path d="M863.83,636.24C865.33,641.67 868.19,646.48 868.72,652.02C869.16,655.83 870.79,659.07 870.66,662.94C870.6,670.56 870.7,678.2 870.32,685.81C867.93,685.27 865.76,684.49 863.6,683.33C857.28,679.88 850.46,677.6 844.08,674.24C845.65,671.83 847.47,669.6 849.09,667.22C853.05,660.73 855.23,654.06 858.03,647.08C859.73,642.98 860.04,639.08 863.83,636.24Z" style="fill:white;fill-rule:nonzero;"/>
            <path d="M365.87,649.02C366.72,650.08 367.53,651.16 368.36,652.23C365.13,660.33 359.98,667.96 355.86,675.71C346.87,692.56 340.46,710.93 335.61,729.36C330.95,746.81 330.31,765.03 330.84,783C331.43,796.7 335.5,809.51 341.15,821.9C349.68,838.82 363.77,852.7 380.8,861C393.8,866.73 408.11,868.49 422.18,866.81C434.39,865.34 445.93,861.68 457.18,856.84C470.52,851.01 482.94,842.3 494.34,833.33C498.7,830.38 502.37,826.74 506.18,823.16C519.49,812.06 531.06,798.41 542.29,785.25C548.71,778.34 554.81,771.14 561.14,764.15C569.64,755.26 577.42,745.91 586.9,738C585.28,740.78 584.25,743.81 582.53,746.53C577.94,753.86 572.84,760.85 568.11,768.08C564.04,774.71 560.09,781.4 556.04,788.04C550.79,796.74 544.86,805.01 539.83,813.84C534.15,823.86 527.26,833.24 520.76,842.75C512.64,854.69 503.66,866.25 493.74,876.75C490.09,880.41 486.16,883.81 482.33,887.29C472.76,895.36 462.02,902.1 450.83,907.7C442.8,911.07 435.13,914.7 426.53,916.4C418.19,918.73 409.63,919.89 400.99,920.37C394.76,920.08 388.5,919.01 382.3,918.24C368.82,914.52 355.64,909.35 344.99,900.01C334.23,889.99 325.01,878.37 317.16,865.97C312.4,857.22 308.91,847.67 305.88,838.2C303.51,831.44 302.14,824.27 300.86,817.22C300.31,809.77 299.13,802.47 299.4,794.97C299.21,788.85 300.39,782.99 301.11,776.95C302.37,765.89 304.72,754.84 308.48,744.34C312.22,733.38 315.44,722.14 320.96,711.9C325.18,703.26 329.84,695.14 335.11,687.1C339.87,678.79 345.48,671.03 351.95,663.95C356.41,658.78 360.78,653.59 365.87,649.02Z" style="fill:rgb(3,76,178);fill-rule:nonzero;"/>
            <path d="M753.95,682.46C768.3,682.18 782.68,682.38 797.03,682.41C801.85,682.29 806.24,684.04 810.99,684.36C817.83,684.44 824.46,686.86 831.21,687.92C838.8,688.92 844.49,692.7 851.9,694.84C857.35,696.42 861.67,699.62 866.25,702.83C872.95,707.95 877.54,715.57 878.42,724.01C878.18,726.95 876.86,729.95 875.74,732.66C871.77,739.69 864.38,743.88 857.53,747.62C853.86,749.66 849.34,752.12 846.86,755.6C845.86,764.99 843.87,774.52 841.47,783.66C839.09,794.84 835.95,805.43 828.76,814.56C825.98,816.28 823.75,818.13 821.51,820.5C817.15,825.04 811.95,828.11 806.71,831.72C803.09,834.25 799.09,835.61 795.12,837.44C787.23,841.27 778.76,844.05 770.25,846.13C766.74,846.89 763.25,847.46 759.65,847.38C763.05,838.62 766.43,830.33 768.06,820.99C768.83,813.78 770.08,806.71 770.16,799.43C766.93,802.56 764.95,806.98 762.44,810.76C753.49,819.82 745.52,829.1 734.27,835.52C719.46,846.1 702.28,852.53 684.4,855.51C677.01,857.32 668.85,856.56 661.25,856.54C643.3,854.79 625.64,848.89 610.03,839.87C606.88,837.99 602.82,836.31 600.45,833.47C599.6,828.63 602.42,823.03 603.55,818.32C608.21,801.13 612.77,783.97 618.85,767.21C623.52,752.6 631.62,741.26 638.96,728.02C642.67,724.38 646.75,721.11 650.59,717.59C656.09,713.78 661.76,710.02 667.48,706.54C675.03,702.74 682.45,698.82 690.52,696.21C698.52,692.75 706.94,691.14 715.24,688.67C721.91,687.35 729.37,685.87 736.03,684.57C742.24,684.82 747.9,683.23 753.95,682.46Z" style="fill:white;fill-rule:nonzero;"/>
            <path d="M783.02,717.45C787.15,717.27 790.91,718.61 794.97,719C797.56,719.35 800.23,719.38 802.73,719.97C810.6,721.64 818.67,723.13 826.3,725.74C830.93,727.7 835.88,729.07 840.24,731.53C832.61,732.8 824.7,731.98 816.98,732.43C811.68,732.28 806.65,733.71 801.37,733.89C801.41,734.47 801.44,735.06 801.47,735.64C809.82,741.94 816.33,749.94 818.59,760.34C813.71,758.43 809.38,755.43 804.48,753.52C797.89,750.99 791.4,748.5 784.3,747.84C778.53,746.15 772.92,746.32 766.98,746.33C761.23,746.07 755.91,748.03 750.17,748.48C737.65,751.06 725.57,756.14 714.51,762.49C709.78,765.06 705.62,768.71 701.23,771.83C703.77,766.81 705.88,761.55 708.61,756.64C711.23,751.98 715.67,749.04 718.04,744.26C712.84,744.55 707.69,746.32 702.68,747.71C693.52,751.07 684.62,755.06 676.32,760.24C669.94,763.73 664.73,768.69 658.62,772.58C659.97,768.79 662.71,766.48 665,762.96C667.57,758.86 671.08,755.82 674.41,752.37C683.13,743.42 693.86,736.31 705.16,731.06C711.43,728.51 717.76,725.96 724.25,724.02C732.03,721.66 739.98,720.92 747.89,719.29C752.21,718.51 756.57,718.75 760.91,718.24C768.04,716.77 775.73,717.58 783.02,717.45Z" style="fill:rgb(1,1,1);fill-rule:nonzero;"/>
            <path d="M638.96,728.02C631.62,741.26 623.52,752.6 618.85,767.21C612.77,783.97 608.21,801.13 603.55,818.32C602.42,823.03 599.6,828.63 600.45,833.47C602.82,836.31 606.88,837.99 610.03,839.87C625.64,848.89 643.3,854.79 661.25,856.54C668.85,856.56 677.01,857.32 684.4,855.51C702.28,852.53 719.46,846.1 734.27,835.52C745.52,829.1 753.49,819.82 762.44,810.76C759.65,820.98 751.79,829.22 745.35,837.3C740.13,843.79 734.14,849.47 728.34,855.41C724.55,859.03 719.59,861.17 715.56,864.56C699.65,877.22 680.9,884.65 661.29,889.4C656.17,890.73 650.91,890.77 645.71,891.79C640.01,892.96 633.91,892.47 627.97,892.57C623.19,892.71 618.64,891.67 613.94,891C601.98,889.86 589.94,886.38 578.7,882.23C572.14,880.13 565.95,877.29 559.78,874.24C555.48,872.01 551.14,871.24 548.28,867.06C550.06,863.66 552.15,860.49 554.36,857.35C562.75,844.1 570.67,830.58 577.39,816.39C584.26,804.38 589.6,791.73 596.99,780.06C600.82,773.62 605.1,767.48 609.12,761.16C612.6,755.73 616.03,750.18 620.58,745.58C623.24,742.91 625.89,740.24 628.5,737.52C631.78,734.11 635.59,731.35 638.96,728.02Z" style="fill:rgb(3,76,178);fill-rule:nonzero;"/>
            <path d="M828.76,814.56C828.04,817.69 827.02,820.53 825.15,823.17C821.78,828 818.68,833.44 814.54,837.54C804.6,847.75 793.15,857.09 780.36,863.47C767.69,870.74 753.78,875.97 739.65,879.6C740.33,877.12 741.12,874.79 742.78,872.78C747.22,867.16 751.96,861.77 755.39,855.38C756.81,852.72 758.35,850.1 759.65,847.38C763.25,847.46 766.74,846.89 770.25,846.13C778.76,844.05 787.23,841.27 795.12,837.44C799.09,835.61 803.09,834.25 806.71,831.72C811.95,828.11 817.15,825.04 821.51,820.5C823.75,818.13 825.98,816.28 828.76,814.56Z" style="fill:rgb(3,76,178);fill-rule:nonzero;"/>
            <path d="M519.32,909.47C520.98,909.34 522.76,910.11 524.28,910.68C538.51,916.92 553.66,921.26 568.94,924.03C576.68,925.97 584.64,925.51 592.45,927.23C602.6,928 612.9,927.28 623.08,927.59C624.95,927.65 626.63,928.23 628.4,928.77C621.85,932.24 614.84,934.34 607.64,935.93C599.53,937.99 591.31,939.5 582.99,940.39C577.87,940.87 573.2,942.54 568,942.5C557.52,942.24 547.51,944.4 536.97,943.13C530.26,942.1 523.69,942.71 516.96,942.47C512.86,942.32 509.14,940.8 505.03,940.45C499.66,939.87 494.49,939.55 489.56,937.1C491.65,932.8 495.29,930.76 498.77,927.76C503.69,923.59 508.67,919.81 513.04,915.04C514.94,913.13 516.88,910.68 519.32,909.47Z" style="fill:rgb(3,76,178);fill-rule:nonzero;"/>
        </g>
    </g>
</svg>
