<?xml version="1.0" encoding="UTF-8" standalone="no"?>
<!DOCTYPE svg PUBLIC "-//W3C//DTD SVG 1.1//EN" "http://www.w3.org/Graphics/SVG/1.1/DTD/svg11.dtd">
<svg width="100%" height="100%" viewBox="0 0 945 798" version="1.1" xmlns="http://www.w3.org/2000/svg" xmlns:xlink="http://www.w3.org/1999/xlink" xml:space="preserve" xmlns:serif="http://www.serif.com/" style="fill-rule:evenodd;clip-rule:evenodd;stroke-linejoin:round;stroke-miterlimit:2;">
    <g transform="matrix(1,0,0,1,-41.24,-188.18)">
        <g>
            <path d="M316.79,188.18C318.93,188.99 320.2,191.77 321.54,193.51C335.76,215.01 351.44,236.01 370.23,253.77C376.85,260.89 384.27,267.09 391.91,273.09C419.54,296.23 451.29,315.05 484.04,329.96C496,335.84 508.48,340.32 520.9,345.09C537.2,351.08 553.66,356.61 570.29,361.63C584.8,365.49 599.26,369.54 613.86,373.07C624.47,376.17 635.21,378.61 645.73,382.03C661.56,386.55 677.29,391.77 692.96,396.95C713.14,404.31 733.3,411.17 752.86,420.13C761.04,424.02 769.47,427.23 777.41,431.59C791.47,438.76 804.97,447 817.84,456.15C834.2,467.99 848.43,482.43 860.19,498.84C867.5,508.14 872.65,518.5 878.11,528.92C883.2,538.08 886.67,548.3 889.9,558.26C893.26,570.73 896.1,582.97 894.21,595.95C893.49,599.99 891.78,603.62 890.67,607.52C890.44,608.65 890.05,610.04 891.03,610.94C893.41,613.55 896.32,615.7 899,617.99C905.11,622.85 910.7,628.26 916.67,633.3C928.25,643.05 939.13,653.58 948.7,665.32C963.48,683.37 975.35,705.26 979.89,728.27C981.95,737.3 984.36,746.67 984.68,755.98C985.4,763.15 985.95,770.83 984.87,778C984.05,784.74 985.08,791.34 983.82,798.08C981.94,809.57 980.88,821.1 978.48,832.5C969.19,824.5 959.44,817.17 948.51,811.53C947.19,810.97 946.14,810.24 944.66,810.79C931.08,815.07 918.37,821.8 904.71,825.76C898.41,827.9 892.09,829.94 885.75,831.93C874.34,835.6 862.72,838.12 850.96,840.35C845.52,840.9 840.44,842.53 834.98,842.56C830.63,842.56 826.37,843.36 822.04,843.39C817.4,843.46 812.76,843.48 808.13,843.71C801.35,843.93 794.71,848.38 790.12,853.12C784.67,859.13 779.64,866.2 777.02,873.95C774.76,880.77 773.19,887.75 773.4,894.98C772.87,903.63 775.11,911.97 778.04,920.03C780.24,925.91 783.8,930.58 787.39,935.64C798.49,949.79 812.65,959.07 828.15,967.75C834.69,971.31 841.85,974.32 847.95,978.57C840.6,978.91 833.12,978.67 825.81,977.83C820.71,977.4 815.34,977.89 810.17,977.25C804.47,976.39 798.71,976.02 792.99,975.29C785.16,973.97 777.38,972.53 769.64,970.71C761.26,969.23 753.03,967.13 745.02,964.22C739.58,960.28 733.01,957.07 726.26,956.36C723.23,954.37 719.96,952.76 716.53,951.55C716.5,940.56 719.25,929.44 721.64,918.75C724.49,906.82 728.23,894.84 733.83,883.89C738.6,874.11 743.69,864.03 750.37,855.42C754.58,849.65 758.86,843.99 764.05,839.05C772.07,831.23 781.12,822.92 791.42,818.28C797.08,815.57 802.85,816.67 809,816.53C817.38,816.43 825.74,816.98 833.83,815.6C841.72,814.43 849.56,813.87 857.36,812.13C872.11,808.66 887.4,805.23 901.36,799.31C908.11,796.6 914.78,794.62 921.2,791.16C925.62,788.95 929.96,786.11 934.67,784.59C938.24,783.51 940.85,785.39 943.74,787.17C948.23,790.01 951.54,793.54 956.69,794.97C956.11,784.25 951.75,773.26 948.8,763.01C948.22,760.02 946.77,757.1 948.73,754.34C953.03,758.76 954.49,764.38 958.18,769.2C960.11,766.64 959.52,763.99 959.63,760.98C959.67,755.32 958.68,749.78 958.46,744.14C958.2,739.31 957.27,734.47 956.01,729.81C953.84,722.15 952.02,714.83 948.07,707.83C945.03,702.56 942.42,696.99 939.07,691.91C933.9,684.3 927.89,677.03 921.9,670.06C915.01,662.16 907,655.78 899.47,648.57C890.39,640.14 880.44,632.87 870.38,625.67C866.44,622.9 862.44,620.21 858.28,617.77C855.37,616 852.52,614.6 850.28,611.96C853.29,602.33 859.01,593.39 861.54,583.58C862.83,578.73 862.78,573.96 862.65,568.98C862.56,562.86 859.93,556.83 857.65,551.22C854.11,542.62 849.05,534.94 843.35,527.64C837.96,520.24 831.59,514.34 825.17,507.83C819.47,502.08 813.07,497.32 806.88,492.14C796.57,483.68 785.57,476.79 774.21,469.86C764.96,464.01 755.44,458.2 745.5,453.6C736.38,449.37 727.88,444.12 718.44,440.55C703.01,433.49 687.12,427.75 671.2,421.93C665.14,419.83 658.95,418.36 652.91,416.17C645.53,413.45 638.05,410.99 630.51,408.76C620.47,406.18 610.23,403.89 600.29,400.88C589.32,397.58 578.11,395.17 567.16,391.82C559.42,389.28 551.42,387.76 543.67,385.3C528.44,379.82 513.07,375.18 498.09,368.9C490.63,365.63 482.93,362.93 475.58,359.43C468.4,355.99 461.15,352.82 454.15,349.01C446.3,344.72 438.11,341.36 430.57,336.47C423.53,331.68 416.17,327.53 408.89,323.14C400.55,317.35 391.96,312.26 384.24,305.77C375.27,298.42 366.16,291.32 357.95,283.1C351.19,277.46 345.49,270.89 339.63,264.37C337.76,262.27 335.95,259.86 333.71,258.14C332.88,257.41 332.27,257.73 331.3,257.9C332.05,262.99 333.9,267.55 335.65,272.37C340.58,286.27 346.82,299.83 354.72,312.3C357.97,317.57 361.29,323.05 365.1,327.92C371.41,335.65 377.11,343.72 384.34,350.65C389.96,356.47 394.99,362.61 401.58,367.41C409.86,374.56 418.42,381.29 427.3,387.68C432.7,391.34 438.39,394.57 443.89,398.09C451.48,402.6 458.7,407.53 466.75,411.22C481.8,419.04 497.39,425.88 513.36,431.6C519.85,434.43 526.7,436.44 533.07,439.54C529.14,439.62 525.25,439.46 521.4,438.68C514.37,437.35 507.31,436.43 500.34,434.77C487.54,431.93 474.76,427.72 462.16,423.89C455.48,421.9 449.14,418.95 442.57,416.5C418.47,407.14 395.7,394.58 375.17,378.83C364.1,371.34 354.54,362.33 345.07,352.93C341.59,349.59 339.01,345.54 334.32,343.97C336.1,352.35 339.41,360.48 342.66,368.38C346.39,377.67 351.73,386.48 356.77,395.26C359.74,400.46 363.41,405.15 367.46,409.55C373.39,416.08 378.56,423.2 385.04,428.95C390.46,433.95 396.26,438.44 402.21,442.78C414.45,452.27 428.1,460.08 441.99,466.89C447.46,469.62 452.88,471.42 457.77,475.23C448.52,476.57 440.38,474.52 431.38,472.89C417.07,470.5 402.11,467.94 388.54,462.67C382.48,460.47 376.48,458.12 370.65,455.37C363.96,452.21 357.4,449.75 351.04,445.95C342.65,440.91 334.33,436.45 326.47,430.59C320.23,425.95 313.85,422.1 307.93,417.1C301.6,411.88 295.93,405.77 289.97,400.05C286.8,397.04 283.94,393.18 280.22,390.85C279.23,390.23 278.47,390.69 277.43,390.81C278.95,401.7 282.39,412.39 286.74,422.47C292.28,434.17 298.22,446.6 306.15,456.87C311.38,463.71 316.47,470.32 322.73,476.27C328.01,481.26 333.13,486.66 338.85,491.11C356.03,505.23 375.19,516.92 395.15,526.67C400.42,529.25 407.35,530.77 411.28,535.21C406.7,535.78 402.18,535.42 397.68,534.46C388.7,532.49 379.77,531.14 371.06,528.09C366.38,526.77 361.95,524.14 357.1,526.25C349.03,529.43 341.36,533.49 333.15,536.38C324.46,540.34 315.67,544.7 307.45,549.55C295.33,556.19 283.25,563.11 271.83,570.9C266.72,574.73 260.65,578.49 256.81,583.63C269.69,580.05 282.32,575.88 295.54,573.4C307.03,571.31 317.42,568.16 329.28,569.81C326.09,574.64 321.42,576.63 316.8,579.81C305.36,587.6 294.65,596.2 283.91,604.91C277.01,611.39 269.47,617.09 262.98,623.98C258.82,628.2 254.01,631.57 250.08,636.05C246.66,639.98 243.28,643.9 239.45,647.45C233.17,653.4 228.42,660.32 223.05,667.02C217.9,673.5 211.54,680.08 208.27,687.75C211.92,686.49 215.03,684.39 218.01,681.98C225.2,676.25 232.89,671.38 240.81,666.71C248.78,662.04 256.14,656.68 264.27,652.28C269.5,649.37 274.98,647.02 280.17,644.06C284.41,641.67 288.31,638.86 292.67,636.68C301.19,632.42 309.93,628.61 318.45,624.36C325.27,620.93 332.21,618.2 339.22,615.14C344.83,612.74 350.24,610.02 355.91,607.82C362.24,605.33 368.75,603.45 375.04,600.89C387.62,595.67 400.85,591.51 413.92,587.72C422.99,585.05 432.27,581.37 441.68,580.29C440.9,582.54 439.89,584.52 438.31,586.32C432.37,593.23 425.61,600.15 420.96,607.97C417.56,613.58 413.41,618.51 410.5,624.43C403.7,637.13 399.07,650.95 396.14,665.04C395.05,670.15 395.35,675.78 395.32,680.99C395.43,687.51 395.28,694.05 395.57,700.56C396.16,708.57 398.52,716.63 400.8,724.31C404.6,737.45 410.8,750.03 419.08,760.92C422.67,765.81 425.68,770.68 429.98,775.02C434.95,779.92 439.38,784.88 445.27,788.73C453.71,794.23 461.12,800.36 470.44,804.46C482.13,810.08 494.34,812.63 507.04,814.82C514.06,816.06 521.37,816.15 528.22,817.97C523.67,822.19 518.08,824.68 512.14,826.26C506.27,827.78 501.07,829.77 495.04,830.43C487.56,831.17 480.54,832.68 473,832.5C466.7,832.58 460.09,831.9 453.88,832.89C456.54,835.85 459.86,837.81 463.42,839.52C476.5,845.86 488.34,853.89 500.98,861.04C515.8,870.51 530.38,880.36 545.3,889.68C553.57,895.43 561.8,901.25 570.24,906.76C578.47,911.83 586.05,917.78 594.45,922.58C607.04,931.5 620.74,938.95 634.12,946.78C643.15,951.48 652.35,955.89 661.43,960.5C667.7,963.75 674.21,965.58 680.82,968C688.69,970.81 696.65,973.11 704.8,974.99C711.68,976.48 717.37,979.4 724.61,978.59C727.45,979.25 728.94,980.16 731.03,982.21C728.18,984.85 723.75,985.3 720.03,985.56C711.7,985.87 703.34,985.7 695,985.7C685.29,985.98 675.73,983.96 666,983.42C655.23,982.02 644.23,979.65 633.71,977.33C622.47,974.63 611.54,972.45 600.58,968.56C589.73,964.64 579.07,960.63 568.79,955.35C545.3,944.45 521.62,934.24 497.05,926.02C478.43,919.95 460.26,914.09 441.02,910.14C422.39,905.81 403.61,902.34 384.67,899.74C378.09,899.15 371.68,897.72 365.02,897.6C358.58,897.57 352.45,895.76 346.04,895.62C340.39,895.47 334.57,895.64 329.01,894.92C321.5,894.05 314.18,895.01 306.78,894.5C319.16,881.11 336.35,871.56 353.82,866.59C360.87,864.15 368.02,862.83 374.83,859.72C371.2,858.71 367.51,858.01 363.79,857.43C345.86,853.98 327.65,850.57 309.46,848.96C301.32,847.41 293.23,847.54 284.99,847.42C280.31,847.43 275.72,846.58 271.05,846.61C261.89,846.56 252.38,846.1 243.37,847.32C234.07,847.66 224.82,848.3 215.65,849.95C203.47,851.47 191.37,853.54 179.48,856.66C152.38,862.68 125.95,871.49 100.55,882.65C93.01,885.95 85.94,890.12 78.46,893.52C67.89,898.41 58.3,904.53 48.13,910.09C45.9,911.33 43.72,912.23 41.24,912.86C43.08,907.51 46.55,902.42 49.48,897.58C53.92,890.08 59,883.01 63.55,875.59C76.81,855.09 91.19,835.41 106.06,816.06C120.79,797.58 136.25,779.65 152.22,762.23C157.04,756.7 162.51,751.83 167.22,746.21C170.77,742.13 174.74,738.39 178.57,734.57C183.98,729.27 188.82,723.86 194.67,719.05C187.27,721.18 180.62,724.77 173.44,727.51C161.45,733.08 149.44,738.48 137.91,744.96C131.52,747.87 125.38,752.47 118.51,753.99C118.09,747.46 123.14,740.73 126.19,735.22C132.63,723.22 140.77,712.61 148.25,701.26C158.07,687.57 168.27,674.09 179.46,661.48C190.75,648.17 202.89,635.55 215.85,623.86C222.84,616.67 231.32,610.92 237.93,603.41C216.25,607.63 194.56,616.42 173.77,623.24C175.83,619.07 178.85,615.47 181.66,611.69C189.02,601.93 197.25,593.49 205.65,584.64C209.23,580.85 213.32,577.69 217.05,574.05C227.49,563.86 239.19,554.68 250.63,545.63C257.39,540.26 264.54,535.51 271.67,530.65C280.92,524.52 290.4,518.32 300.24,513.18C301.82,512.38 303.32,511.44 304.84,510.52C303.43,507.58 299.76,505.77 297.29,503.72C285.99,494.53 275.6,484.74 267.23,472.74C256.95,457.79 248.77,440.74 244.8,422.99C243.22,414.75 240.92,406.4 240.48,398.01C240.47,392.62 239.3,387.39 239.45,382C239.53,373.72 239.21,365.2 240.19,357.01C240.48,353.15 240.26,349.31 240.6,345.45C241.97,334.29 243.55,322.83 246.59,311.99C250.51,315.12 253.17,319.75 256.54,323.46C264.63,334.01 274.05,343.19 283.65,352.35C288.94,357.43 294.23,362.46 300.15,366.81C304.61,370.04 307.99,373.56 312.79,375.97C311.87,372.44 310.45,369.13 309.17,365.73C304.63,353.27 300.9,340.67 298.32,327.66C296.64,318.84 296.14,309.94 295.71,301C295.84,291.98 295.09,282.77 296.14,273.82C296.75,263.65 298.95,253.57 300.42,243.5C302.41,230 307.06,218.23 310.88,205.11C312.85,199.46 314.94,193.87 316.79,188.18Z" style="fill:rgb(204,0,0);fill-rule:nonzero;"/>
            <path d="M333.71,258.14C335.95,259.86 337.76,262.27 339.63,264.37C345.49,270.89 351.19,277.46 357.95,283.1C366.16,291.32 375.27,298.42 384.24,305.77C391.96,312.26 400.55,317.35 408.89,323.14C416.17,327.53 423.53,331.68 430.57,336.47C438.11,341.36 446.3,344.72 454.15,349.01C461.15,352.82 468.4,355.99 475.58,359.43C482.93,362.93 490.63,365.63 498.09,368.9C513.07,375.18 528.44,379.82 543.67,385.3C551.42,387.76 559.42,389.28 567.16,391.82C578.11,395.17 589.32,397.58 600.29,400.88C610.23,403.89 620.47,406.18 630.51,408.76C638.05,410.99 645.53,413.45 652.91,416.17C658.95,418.36 665.14,419.83 671.2,421.93C687.12,427.75 703.01,433.49 718.44,440.55C727.88,444.12 736.38,449.37 745.5,453.6C755.44,458.2 764.96,464.01 774.21,469.86C785.57,476.79 796.57,483.68 806.88,492.14C813.07,497.32 819.47,502.08 825.17,507.83C831.59,514.34 837.96,520.24 843.35,527.64C849.05,534.94 854.11,542.62 857.65,551.22C859.93,556.83 862.56,562.86 862.65,568.98C862.78,573.96 862.83,578.73 861.54,583.58C859.01,593.39 853.29,602.33 850.28,611.96C852.52,614.6 855.37,616 858.28,617.77C862.44,620.21 866.44,622.9 870.38,625.67C880.44,632.87 890.39,640.14 899.47,648.57C907,655.78 915.01,662.16 921.9,670.06C927.89,677.03 933.9,684.3 939.07,691.91C942.42,696.99 945.03,702.56 948.07,707.83C952.02,714.83 953.84,722.15 956.01,729.81C957.27,734.47 958.2,739.31 958.46,744.14C958.68,749.78 959.67,755.32 959.63,760.98C959.52,763.99 960.11,766.64 958.18,769.2C954.49,764.38 953.03,758.76 948.73,754.34C946.77,757.1 948.22,760.02 948.8,763.01C951.75,773.26 956.11,784.25 956.69,794.97C951.54,793.54 948.23,790.01 943.74,787.17C940.85,785.39 938.24,783.51 934.67,784.59C929.96,786.11 925.62,788.95 921.2,791.16C914.78,794.62 908.11,796.6 901.36,799.31C887.4,805.23 872.11,808.66 857.36,812.13C849.56,813.87 841.72,814.43 833.83,815.6C825.74,816.98 817.38,816.43 809,816.53C802.85,816.67 797.08,815.57 791.42,818.28C781.12,822.92 772.07,831.23 764.05,839.05C758.86,843.99 754.58,849.65 750.37,855.42C743.69,864.03 738.6,874.11 733.83,883.89C728.23,894.84 724.49,906.82 721.64,918.75C719.25,929.44 716.5,940.56 716.53,951.55C714.68,951.47 712.69,952.08 711.03,951.09C692.33,940.54 675.66,926.52 662.19,909.78C657.92,903.68 653.58,897.42 650.27,890.75C648.99,888.09 647.64,885.59 645.61,883.42C643.95,890.17 641.91,897.03 641.38,903.97C641.24,905.74 640.65,907.35 640.16,909.04C636.2,904.03 633.38,898.09 630.38,892.48C624.32,877.87 618.82,863.91 616.74,848.07C616.65,843.94 615.62,839.98 615.39,835.87C615.15,824.38 615.91,812.97 618.34,801.72C619.6,792.6 622.9,784.53 626.06,775.93C628.92,768.99 632.71,762.43 635.92,755.65C629.56,759.35 623.13,762.7 617.43,767.42C614.26,769.65 611.08,773.16 607.23,773.97C609.91,764.39 614.82,755.28 619.84,746.74C626.51,735.6 636.42,725.71 645.6,716.6C651.02,711.53 657.1,707.13 662.81,702.8C664.42,701.47 666.08,700.5 666.87,698.47C652.4,694.11 637.98,688.51 626.08,678.94C611.44,668.05 600.88,652.6 595.26,635.29C602.47,634.31 608.32,637.07 615.14,638.52C611.77,633.55 608.6,628.88 603.53,625.47C596.87,620.47 588.46,619.03 580.56,617.14C571.33,615.61 562.09,614 552.81,612.8C546.24,612.27 539.59,612.7 533,612.54C522.92,612.15 513.27,615.42 503.25,617.03C492.37,618.88 482.84,623.99 472.03,625.94C475.53,621.08 480.34,616.8 484.65,612.65C493.57,604.17 503.21,596.73 514.08,590.89C534.02,579.06 557.98,573.2 580.95,571.53C588.6,571.3 596.27,571.51 603.92,571.54C605.01,571.58 605.95,571.29 606.75,570.66C610.4,568.02 613.74,564.91 617.5,562.41C623.17,558.75 629.74,557.19 635.8,554.54C624.88,545.06 610.75,538.61 597.11,534.11C591.88,532.27 586.36,531.05 581.19,529.05C581.12,527.61 581.66,526.82 582.8,526.66C586.69,525.48 590.77,524.88 594.77,524.28C601.97,522.79 609.69,523.73 617.04,523.55C642.6,525.55 665.36,535.76 686.98,548.97C697.21,555.94 706.9,563.72 716.87,571.07C734.49,585.12 752.57,600.4 773.56,609.2C777.33,610.96 781.28,611.31 785.26,612.3C794.78,614.82 804.22,613.35 813.33,610.08C817.76,608.13 821.89,604.26 823.26,599.52C825.76,593.02 824.63,585.86 822.27,579.5C819.12,571.57 815.91,563.76 811.36,556.51C807.92,550.68 803.65,545.46 800.03,539.77C800.86,538.94 801.6,538.03 802.45,537.22C801.34,537.92 800.44,538.72 799.08,538.85C796.7,536.18 794.37,533.51 792.6,530.37C797.1,530.84 801.53,533.51 805.53,535.54C815.45,540.5 824.35,548.05 832.4,555.61C840.46,564.38 849.31,575.12 851.38,587.15C852,587.19 852.62,587.33 853.22,587.58C854.71,583.25 855.33,578.59 855.4,574.03C856.04,563.99 851.35,553.42 846.02,545.12C835.99,528.56 822.19,513.98 807.26,501.74C786.78,484.55 763.48,470.69 739.81,458.4C733.24,455.24 726.87,451.82 720.13,449.04C705.13,442.52 689.96,435.99 674.49,430.66C664.33,427.15 654.19,423.73 644.01,420.24C631.02,417.09 618.33,412.87 605.32,409.81C592.24,406.16 579.06,402.87 566,399.12C529.94,389.39 493.76,376.7 460.51,359.58C455.58,356.7 450.22,354.74 445.34,351.78C438.13,347.61 430.67,343.93 423.65,339.42C406.47,329.2 390.46,317.44 374.65,305.25C364.43,296.98 355.04,287.7 344.98,279.25C346.31,282.16 347.77,285 349.2,287.86C355.32,301.26 363.57,313.86 372.14,325.82C381.25,337.87 391.52,349.08 402.65,359.29C425.5,379.62 451.18,395.94 478.6,409.37C488.58,413.57 498.18,418.69 508.3,422.52C519.53,426.37 530.39,431.61 541.74,435.14C553.7,438.69 565.37,443.09 577.42,446.36C582.05,447.87 586.54,448.42 590.56,451.16C586.71,451.54 583.05,450.68 579.21,450.64C574.85,450.46 570.41,450.71 566.07,450.22C559.17,449.1 552.29,448.48 545.31,448.33C531.26,446.43 517.23,444.02 503.29,441.41C494.92,440.14 487.23,437.11 479.01,435.24C470.62,433.32 462.94,429.97 454.75,427.38C438.94,422.15 424.2,414.87 409.31,407.51C400.1,402.58 391.4,396.93 382.6,391.31C375.48,386.15 368.36,380.97 361.38,375.62C356.73,372.19 353.26,367.82 348.08,365.05C351.18,374.29 356.52,383.15 361.71,391.37C364.45,395.7 366.67,400.05 370.02,403.99C375.41,410.25 381.22,416.1 387.07,421.94C399.85,434.06 414.12,443.9 429.31,452.73C437.99,457.6 447.18,461.56 456.07,466.04C467.77,471.02 479.55,475.92 491.62,479.91C493.49,480.78 495.47,480.81 496.08,483.1C490.74,483.48 485.33,483.39 480,482.82C470.19,482.4 460.24,483.06 450.45,482.28C442.42,480.73 434.27,480.3 426.25,478.76C416.24,476.39 406.26,474.12 396.14,472.28C386.73,468.7 377.31,465.18 368.16,460.96C356.13,456.22 344.66,449.77 333.62,443.08C323.83,437.24 314.82,430.18 305.94,423.06C300.28,418.59 295.2,413.48 289.44,409.12C292.55,417.39 295.99,425.29 300.3,433.01C308.69,448.09 318.89,463.63 331.92,475.09C347.98,491.15 368.09,503.81 387.64,515.21C407.86,525.57 428.96,534.37 450.49,541.61C451.69,542.17 453.53,542.63 453.75,544.15C445.22,544.85 436.55,544.45 428,544.3C420.8,543.15 413.58,543.85 406.4,542.5C397.15,540.83 388.07,539.89 378.97,537.42C373.84,535.95 368.83,534.03 363.67,532.69C361.05,531.9 357.96,533.74 355.49,534.58C337.92,541.04 321.03,550.53 304.58,559.48C300.53,561.78 296.55,563.78 292.94,566.77C299.32,566.01 305.8,565.25 312.07,563.8C315.86,563.15 319.82,563.66 323.64,563.05C328.16,562.46 332.37,561.38 336.95,561.51C343.33,561.58 349.74,561.24 356.11,561.64C355.24,563.49 353.32,564.63 351.68,565.75C345.79,569.46 339.84,573.08 333.84,576.62C324.6,582.41 315.98,588.89 307.26,595.33C298.68,601.63 290.43,608.4 282.4,615.39C275.54,621.12 269.3,627.66 262.83,633.84C257.67,638.71 252.86,643.92 247.88,648.97C244.91,652 242.08,655.07 240.05,658.83C245.58,656.13 250.69,652.5 256.01,649.39C274,638.56 292.91,629.11 311.91,620.2C325.26,614.2 338.67,607.57 352.39,602.56C355.61,601.46 358.73,600.13 361.87,598.84C387.62,588.78 414.3,580.58 441.03,573.58C449.77,572.05 458.14,569.19 466.8,567.32L467.4,568.63C464.24,572.17 460.34,574.64 456.98,577.98C448.62,586.2 440.45,593.99 433.26,603.26C427.81,610.33 422.34,617.23 418.15,625.16C412.29,636.19 407.3,647.19 404.75,659.5C401.09,675.28 401.9,690.76 404.1,706.65C407.06,722.12 412.97,736.69 420.64,750.38C427.51,762.41 437.28,772.44 447.7,781.42C463.66,794.41 483.6,803.35 503.78,807.15C510.82,808.72 518.07,808.8 525.21,809.83C535.03,811.35 543.46,809.38 553.26,808.7C549.99,813.91 543.73,817.26 539.08,821.22C531.96,825.66 524.43,829.62 516.57,832.55C508.9,835.09 501.01,837.08 493,838.21C488.63,838.75 484.38,838.2 480.03,839.2C483.53,842.65 487.66,844.67 491.88,847.12C498,850.56 503.68,854.7 509.83,858.1C514.68,860.8 519.24,863.94 523.92,866.94C561.32,890.34 597.37,918.57 635.97,939.2C656.18,950.99 677.85,960.58 699.44,969.52C707.83,972.55 716.24,975.52 724.61,978.59C717.37,979.4 711.68,976.48 704.8,974.99C696.65,973.11 688.69,970.81 680.82,968C674.21,965.58 667.7,963.75 661.43,960.5C652.35,955.89 643.15,951.48 634.12,946.78C620.74,938.95 607.04,931.5 594.45,922.58C586.05,917.78 578.47,911.83 570.24,906.76C561.8,901.25 553.57,895.43 545.3,889.68C530.38,880.36 515.8,870.51 500.98,861.04C488.34,853.89 476.5,845.86 463.42,839.52C459.86,837.81 456.54,835.85 453.88,832.89C460.09,831.9 466.7,832.58 473,832.5C480.54,832.68 487.56,831.17 495.04,830.43C501.07,829.77 506.27,827.78 512.14,826.26C518.08,824.68 523.67,822.19 528.22,817.97C521.37,816.15 514.06,816.06 507.04,814.82C494.34,812.63 482.13,810.08 470.44,804.46C461.12,800.36 453.71,794.23 445.27,788.73C439.38,784.88 434.95,779.92 429.98,775.02C425.68,770.68 422.67,765.81 419.08,760.92C410.8,750.03 404.6,737.45 400.8,724.31C398.52,716.63 396.16,708.57 395.57,700.56C395.28,694.05 395.43,687.51 395.32,680.99C395.35,675.78 395.05,670.15 396.14,665.04C399.07,650.95 403.7,637.13 410.5,624.43C413.41,618.51 417.56,613.58 420.96,607.97C425.61,600.15 432.37,593.23 438.31,586.32C439.89,584.52 440.9,582.54 441.68,580.29C432.27,581.37 422.99,585.05 413.92,587.72C400.85,591.51 387.62,595.67 375.04,600.89C368.75,603.45 362.24,605.33 355.91,607.82C350.24,610.02 344.83,612.74 339.22,615.14C332.21,618.2 325.27,620.93 318.45,624.36C309.93,628.61 301.19,632.42 292.67,636.68C288.31,638.86 284.41,641.67 280.17,644.06C274.98,647.02 269.5,649.37 264.27,652.28C256.14,656.68 248.78,662.04 240.81,666.71C232.89,671.38 225.2,676.25 218.01,681.98C215.03,684.39 211.92,686.49 208.27,687.75C211.54,680.08 217.9,673.5 223.05,667.02C228.42,660.32 233.17,653.4 239.45,647.45C243.28,643.9 246.66,639.98 250.08,636.05C254.01,631.57 258.82,628.2 262.98,623.98C269.47,617.09 277.01,611.39 283.91,604.91C294.65,596.2 305.36,587.6 316.8,579.81C321.42,576.63 326.09,574.64 329.28,569.81C317.42,568.16 307.03,571.31 295.54,573.4C282.32,575.88 269.69,580.05 256.81,583.63C260.65,578.49 266.72,574.73 271.83,570.9C283.25,563.11 295.33,556.19 307.45,549.55C315.67,544.7 324.46,540.34 333.15,536.38C341.36,533.49 349.03,529.43 357.1,526.25C361.95,524.14 366.38,526.77 371.06,528.09C379.77,531.14 388.7,532.49 397.68,534.46C402.18,535.42 406.7,535.78 411.28,535.21C407.35,530.77 400.42,529.25 395.15,526.67C375.19,516.92 356.03,505.23 338.85,491.11C333.13,486.66 328.01,481.26 322.73,476.27C316.47,470.32 311.38,463.71 306.15,456.87C298.22,446.6 292.28,434.17 286.74,422.47C282.39,412.39 278.95,401.7 277.43,390.81C278.47,390.69 279.23,390.23 280.22,390.85C283.94,393.18 286.8,397.04 289.97,400.05C295.93,405.77 301.6,411.88 307.93,417.1C313.85,422.1 320.23,425.95 326.47,430.59C334.33,436.45 342.65,440.91 351.04,445.95C357.4,449.75 363.96,452.21 370.65,455.37C376.48,458.12 382.48,460.47 388.54,462.67C402.11,467.94 417.07,470.5 431.38,472.89C440.38,474.52 448.52,476.57 457.77,475.23C452.88,471.42 447.46,469.62 441.99,466.89C428.1,460.08 414.45,452.27 402.21,442.78C396.26,438.44 390.46,433.95 385.04,428.95C378.56,423.2 373.39,416.08 367.46,409.55C363.41,405.15 359.74,400.46 356.77,395.26C351.73,386.48 346.39,377.67 342.66,368.38C339.41,360.48 336.1,352.35 334.32,343.97C339.01,345.54 341.59,349.59 345.07,352.93C354.54,362.33 364.1,371.34 375.17,378.83C395.7,394.58 418.47,407.14 442.57,416.5C449.14,418.95 455.48,421.9 462.16,423.89C474.76,427.72 487.54,431.93 500.34,434.77C507.31,436.43 514.37,437.35 521.4,438.68C525.25,439.46 529.14,439.62 533.07,439.54C526.7,436.44 519.85,434.43 513.36,431.6C497.39,425.88 481.8,419.04 466.75,411.22C458.7,407.53 451.48,402.6 443.89,398.09C438.39,394.57 432.7,391.34 427.3,387.68C418.42,381.29 409.86,374.56 401.58,367.41C394.99,362.61 389.96,356.47 384.34,350.65C377.11,343.72 371.41,335.65 365.1,327.92C361.29,323.05 357.97,317.57 354.72,312.3C346.82,299.83 340.58,286.27 335.65,272.37C333.9,267.55 332.05,262.99 331.3,257.9C332.27,257.73 332.88,257.41 333.71,258.14Z" style="fill:rgb(1,1,1);fill-rule:nonzero;"/>
            <path d="M677.54,583.35C685.64,589.33 694.25,594.4 701.91,600.98C706.5,604.82 711.85,608.72 715.41,613.56C716.05,615.91 715.78,618.17 715.47,620.54C712.69,621.83 709.89,621.59 706.92,621.41C700.59,620.77 695.91,612.78 689.54,613.23C689.19,617.4 688.98,621.75 689.64,625.9C690.8,630.52 693.55,634.82 696.6,638.42C700.77,643.04 706.17,644.87 712.05,646.32C718.32,646.98 724.48,646.8 730.32,644.19C736.27,641.88 739.53,637.5 744.19,633.49C746.94,634.61 749.16,635.83 751.64,637.46C748.92,641 745.07,643.84 741.49,646.48C735.25,651.05 728,655.04 720.51,657.07C715.68,657.47 710.87,658.97 706.09,658.45C698.6,657.28 691.4,655.93 684.75,652.09C668.53,643.79 655.92,626.74 656.36,608.04C656.09,603.87 657.48,600.09 657.76,596C655.12,593.6 652.21,591.6 649.32,589.52C653.63,587.87 657.17,590.14 661.55,589.67C665.21,587.57 668.22,582.82 672.41,581.25C674.29,580.75 676.04,582.43 677.54,583.35Z" style="fill:white;fill-rule:nonzero;"/>
            <path d="M371.83,626.16C370.47,633.76 365.91,640.84 363,647.97C356.58,662.32 356.22,676.43 353.44,691.6C352.73,696.31 349.37,698.2 346.02,701C336.64,708.73 326.84,715.95 317.19,723.34C312.3,727.33 308.21,732.27 303.53,736.52C294.22,744.82 285.11,753.5 276.99,762.99C274.45,765.76 271.77,768.4 269.31,771.26C263.84,777.47 259.27,784.85 254.74,791.71C253.13,793.96 251.39,796.55 248.54,797.26C243.7,798.47 239.11,798.31 234.24,799.06C229.05,799.82 223.89,800.77 218.68,801.41C209.12,802.45 199.89,805.07 190.37,806.38C186.47,806.8 181.93,809.11 178.12,807.96C180.14,802.26 184.8,797.19 188.61,792.57C192.28,788.45 195.59,784.24 198.65,779.65C203.03,773.06 209.14,768.19 213.86,761.83C217.68,756.69 221.87,751.91 226.15,747.15C235.88,736.91 245.09,726.07 255.21,716.22C263,709.41 269.18,701.67 277.34,695.34C284.45,689.83 291.31,684.05 297.39,677.41C301.02,673.41 305.53,670.92 309.73,667.64C316.24,662.43 323.03,657.62 329.54,652.41C338.16,646.8 346.68,641.05 355.07,635.09C360.1,631.62 365.65,627.03 371.83,626.16Z" style="fill:rgb(1,1,1);fill-rule:nonzero;"/>
            <path d="M860.19,629.29C863.38,630.53 865.82,632.53 868.58,634.5C881.78,644.01 894.75,654.29 906.37,665.7C924.49,682.57 940.17,703.41 947.43,727.34C949.16,733.73 950.51,740.23 952.03,746.68C947.23,741.04 943.82,734.52 939.37,728.65C935.19,723.46 930.72,718.27 925.64,713.95C924.36,714.87 924.06,715.77 924.75,716.65C926.45,719.91 928.24,723.1 929.62,726.52C933.12,735.49 936.71,744.33 938.7,753.79C940.49,762.09 944.07,770.22 944.91,778.67C939.73,775.98 934.95,772.61 929.65,770.11C909.1,760.11 887.08,753.3 866.49,743.37C855.91,737.83 845.18,732.54 834.4,727.38C824.41,722.08 814.07,717.35 803.6,713.06C796.98,710.66 791.18,707.98 784.46,706.76C779.06,705.88 773.44,706.09 768.03,706.79C742.94,713.34 722.6,733.27 714.6,757.81C711.79,767.09 707.37,777.09 707.35,786.78C712.17,786.19 716.25,784.36 720.97,783.1C731.68,779.93 742.62,777.4 753.5,774.88C761.02,773.18 768.64,772.27 776.22,770.85C779.83,770.25 783.51,770.53 787.14,769.9C790.82,769.49 794.28,768.5 797.98,768.48C810.66,768.28 823.36,768.31 836.04,768.58C842.33,769.47 848.58,770.34 854.93,770.62C863.25,772.21 871.52,773.94 879.8,775.77C891.21,778.42 902.25,782.18 913.31,785.99C907.18,789.6 900.88,791.32 894.27,793.83C886.86,796.16 879.43,798.44 871.99,800.68C858.81,804.34 845.52,806.44 832.01,808.43C824.96,808.4 818.05,809.66 811,809.51C802.64,809.71 794.42,808.59 786.07,808.38C779.64,807.08 773.14,806.74 766.87,804.78C761.27,803.03 755.54,801.62 750.04,799.57C750.7,798.17 751.18,796.69 751.77,795.25C744.5,796.42 737.31,798.28 730.04,799.47C714.25,802.47 698.67,807.99 683.31,812.69C685.14,802.5 686.02,792.21 687.63,781.98C690.78,766.39 693.14,751.82 700.67,737.52C709.39,719.93 723.39,704.42 740.5,694.71C754.46,686.9 769.11,684.55 784.7,682.37C783.69,677.48 779.15,675.39 780.44,669.6C785.89,666.14 792.53,664.28 798.99,664.54C820.18,663.71 841.78,670.5 860.8,679.42C864.53,681.05 867.85,683.25 871.82,683.8C871.46,680.24 869.08,676.89 867.41,673.76C861.57,662.59 852.22,653.02 841.93,645.88C843.14,642.67 846.68,641.14 849.26,639.12C853.39,636.29 856.14,632.16 860.19,629.29Z" style="fill:white;fill-rule:nonzero;"/>
            <path d="M356.94,642C356.39,645.81 354.95,649.26 353.82,652.91C351.49,659.9 350.1,667.06 348.67,674.26C347.85,679.36 348.93,686.31 346.98,691.04C340.36,698.08 331.21,703.51 323.94,709.97C310.14,721.34 296.78,732.41 284.85,745.83C280.16,750.84 275.24,755.56 270.94,760.94C264.39,769.04 257.38,776.63 251.35,785.14C249.82,787.13 248.38,789.58 246.33,791.06C238.2,793.37 229.88,791.86 221.68,794.05C212.45,794.94 203.32,797.16 194.09,797.75C196.58,793.31 200.04,790.15 203.21,786.24C206.27,782.6 209.02,778.73 211.98,775C222.08,762.07 233.53,749.78 244.52,737.58C257.63,724.02 270.94,710.58 284.94,697.93C294.71,688.47 305.07,680.42 315.56,671.52C323.94,664.36 333.02,658.43 341.83,651.81C346.78,648.44 351.77,645.01 356.94,642Z" style="fill:white;fill-rule:nonzero;"/>
            <path d="M247.88,648.97C246.45,650.74 245.49,652.43 244.92,654.66C248.8,653.56 252.36,651.28 256.01,649.39C250.69,652.5 245.58,656.13 240.05,658.83C242.08,655.07 244.91,652 247.88,648.97Z" style="fill:rgb(204,0,0);fill-rule:nonzero;"/>
            <path d="M716.07,695.17C715.15,698.22 711.95,700.53 709.84,702.84C700.56,712.35 691.91,723.97 688.02,736.82C687.02,739.14 686.78,742.23 684.01,743.09C678.74,745.23 672.76,745.85 667.28,747.37C660.51,749.08 655,752.28 647.93,752.35C649.24,748.86 651.25,745.87 652.02,742.19C643.38,743.11 635.69,749.2 627.13,751C628.77,745.97 631.73,742.06 634.81,737.84C639.78,730.9 647.08,725.27 653.29,719.29C659.12,713.62 665.7,708.98 672.33,704.32C676.68,701.37 681.78,698.65 687.01,697.79C691.31,697.21 695.68,697.63 700.01,697.06C705.44,696.5 710.58,695.17 716.07,695.17Z" style="fill:rgb(204,0,0);fill-rule:nonzero;"/>
            <path d="M773.13,725.72C783.31,727.59 793.48,732.34 803.12,736.1C814.74,741.01 827.12,745.91 838.07,752.28C829.45,752.66 820.63,752.75 812.05,751.67C804.88,751.41 797.82,751.49 790.71,752.47C783.35,752.58 776.26,754.21 768.96,754.76C758.53,756.07 748.38,759.26 738.01,760.62C739.17,756.83 741.43,753.01 745.12,751.23C750.27,748.56 755.34,748.51 760.87,747.38C767.26,745.75 773.79,746.95 780.23,745.17C776.12,741.85 771.52,740.78 766.59,739.26C761.8,738.02 757.06,736.71 752.14,736.1C758.38,730.98 764.93,726.75 773.13,725.72Z" style="fill:white;fill-rule:nonzero;"/>
            <path d="M358.62,735.19C361.12,739.28 362.04,743.69 363.93,748.05C365.98,752.85 368.37,757.5 370.92,762.05C375.47,770.14 381.06,776.88 386.57,784.41C391.33,790.83 397.3,795.51 403.03,800.98C408.85,806.15 414.69,811.46 420.96,816.07C424.49,818.71 428.07,820.99 431.09,824.25C425.98,824.93 421.98,822.25 417.18,820.73C409.38,818.17 401.86,815.02 393.85,813.08C385.98,811.15 378.3,808.55 370.47,806.5C354.07,803.35 337.5,800.91 320.91,799.05C315.26,798.29 309.8,798.91 304.25,797.41C304.41,794.92 305,793.43 306.38,791.37C310.53,785.26 314.9,779.34 320.04,774.02C324.68,769.24 328.06,763.53 332.92,758.92C340.09,752.08 346.85,744.84 353.89,737.87C355.37,736.43 356.52,735.52 358.62,735.19Z" style="fill:rgb(1,1,1);fill-rule:nonzero;"/>
            <path d="M355.53,746.08C358.13,751.25 360.64,756.43 363.41,761.51C366.17,767.56 370.16,772.71 373.64,778.34C378.36,785.67 384.51,791.3 390.27,797.73C393.12,800.88 396.42,803.38 398.99,806.78C393.48,806.92 389.06,804.7 383.48,803.42C371.93,800.54 360.02,797.12 348.19,796.03C341.91,794.51 335.49,794.89 329.22,793.39C324.56,792.42 319.94,792.58 315.22,792.19C317.1,787.51 320.22,784.14 323.23,780.17C328.59,773.62 334.65,767.62 340.13,761.18C343.06,757.79 346.35,754.69 349.44,751.45C351.45,749.48 353,747.41 355.53,746.08Z" style="fill:white;fill-rule:nonzero;"/>
            <path d="M726.26,956.36C733.01,957.07 739.58,960.28 745.02,964.22C740.14,962.73 734.98,961.81 730.29,959.8C728.5,959.12 727.49,957.75 726.26,956.36Z" style="fill:rgb(1,1,1);fill-rule:nonzero;"/>
        </g>
    </g>
</svg>
