<?xml version="1.0" encoding="UTF-8" standalone="no"?>
<!DOCTYPE svg PUBLIC "-//W3C//DTD SVG 1.1//EN" "http://www.w3.org/Graphics/SVG/1.1/DTD/svg11.dtd">
<svg width="100%" height="100%" viewBox="0 0 977 510" version="1.1" xmlns="http://www.w3.org/2000/svg" xmlns:xlink="http://www.w3.org/1999/xlink" xml:space="preserve" xmlns:serif="http://www.serif.com/" style="fill-rule:evenodd;clip-rule:evenodd;stroke-linejoin:round;stroke-miterlimit:2;">
    <g transform="matrix(1,0,0,1,-26.242954,-477.02)">
        <g>
            <path d="M989.66,477.02C989.9,483.74 989.8,490.35 987.91,496.86C982.77,520 969.07,539.06 951.8,554.81C947.22,558.55 943.28,562.93 938.51,566.45C925.24,576.68 911.03,585.73 897.05,594.95C888.92,599.21 880.88,603.66 872.77,607.98C871.01,608.88 869.44,609.92 868.03,611.32C875.78,609.13 883.5,606.67 891.05,603.87C900.14,601.28 908.93,597.68 917.93,594.79C938.37,587.32 958,577.41 977.1,567.04C985.63,562.29 993.69,556.33 1002.59,552.26C1002.59,554.78 1002.46,557.26 1001.78,559.7C998.35,573.22 991.96,585.59 983.7,596.77C974.85,610.11 960.49,618.6 947.46,627.33C934.01,636.26 919.39,641.99 904.71,648.48C896.26,651.94 887.32,654.12 878.82,657.5C877.18,658.18 875.66,658.8 874.8,660.5C884.48,661.3 894.67,659.26 904.34,658.12C925.22,655.59 945.87,651.78 966.23,646.45C972.68,644.94 978.48,642.91 984.97,642.15C983.28,647.15 980.16,651.8 976.91,655.92C973.2,660.35 969.88,664.63 965.29,668.22C957.33,674.36 949.4,680.07 940.24,684.33C935.33,686.79 930.14,688.52 925.14,690.78C913.29,694.59 901.16,697.6 888.99,700.21C877.95,702.25 867.37,704.79 856.13,705.74C846.68,707.3 837.03,708.14 827.47,708.68C823.23,709.1 819.11,710.05 814.99,711.13C819.01,711.8 822.89,712.71 827,712.55C847.65,712.44 868.41,712.8 889.04,712.27C894.68,711.25 900.34,711.62 905.99,710.81C912.55,710.13 918.8,711 925.29,709.75C932.62,709.17 939.75,707.34 947.08,707.2C945.54,709.97 943.74,712.28 941.35,714.36C936.96,718.2 932.96,721.98 927.92,724.96C914.23,733.28 898.42,737.68 882.69,740.13C874.47,740.84 866.26,741.75 858.01,742.39C842.67,742.59 827.32,742.75 811.99,742.41C806.97,741.9 802.05,741.17 796.98,741.36C795.54,741.24 794.19,741.7 792.92,742.75C802,745.67 811.63,746.92 820.9,749.16C831.24,751.62 841.86,753.03 852.27,755.13C868.11,757.63 884.17,760.64 900.2,761.59C899.31,762.58 898.48,763.55 897.36,764.29C888.66,769.78 879.38,772.76 869.53,775.41C857.95,778.2 846.82,777.71 834.99,777.28C830.85,776.58 826.64,776.69 822.51,776.01C807.77,773.27 792.76,770.85 778.33,766.78C774.9,765.97 771.45,764.77 767.94,764.39L766.07,765.62C780.77,773.36 796.81,778.91 812.33,784.77C824.33,789.47 836.59,793.26 848.97,796.81C843.16,801.38 835.19,803.6 828.11,805.28C821.4,807.11 813.87,806.56 806.95,806.34C789.1,803.91 771.39,797.27 754.9,790.16C750.31,787.85 745.66,785.73 740.95,783.67C743.56,787.53 746.21,790.29 749.93,793.09C756.48,798.54 763.33,803.68 770.06,808.91C779.29,815.2 788.74,821.27 798.27,827.09C796.7,829.3 793.56,829.38 791.12,830.06C782.71,831.58 774.42,833.21 765.98,832.22C753.65,830.52 741.49,826.21 730.33,820.79C721.11,816.26 712.85,810.24 704.02,805.12C708.63,812.65 715.9,818.66 722.01,824.98C730.71,832.54 739.26,841.01 749.13,846.98C750.91,848.1 752.31,848.99 753.13,851.04C748.45,851.56 743.65,851.57 738.95,851.21C729.61,850.07 720.05,848.19 711.34,844.54C705.5,841.86 699.62,839.29 694.47,835.55C691.02,833.05 687.71,830.41 684.03,828.24C685.33,831.96 687.49,835.11 689.57,838.42C693.75,845.26 698.9,851.72 704.04,857.87C705.23,859.24 706.07,860.74 706.84,862.38C702.73,862.52 698.2,862.87 694.2,861.84C684.97,859.74 675.7,855.75 668.46,849.56C666.79,848.19 665.02,847.02 663.13,845.97C663.67,854.53 669.78,862.48 671.87,870.76C669.96,870.6 668.09,870.48 666.29,869.78C657.86,866.72 650.09,862.55 643.02,857.02C640.29,854.33 637.74,851.53 634.69,849.17C634.35,857.02 635.73,864.97 636.5,872.77C632.65,871.36 629.48,869.01 626.05,866.84C619.94,861.61 615.44,855.29 610.82,848.79C607.76,850.42 607.06,853.79 605.64,856.72C604.56,859.47 602.61,863.04 603.53,866.01C604.89,869.79 607.25,873.29 608.87,877C611.14,882.26 612.8,887.83 614.82,893.21C619.42,894.14 623.67,894.69 627.69,897.3C631.36,899.46 633.44,902.83 636.54,905.52C639.32,906.6 642.35,906.91 645.15,908.01C652.16,910.68 657.98,916.44 659.36,924C661.24,936.65 654.77,951.19 643.53,957.57C639.64,959.63 634.54,961.57 630.14,960.33C631.62,957.52 633.48,954.63 634.25,951.55C634.8,949 634.49,946.12 634.3,943.54C633.09,943.55 631.82,943.45 630.62,943.64C627.41,946.1 625.05,949.42 621.63,951.68C618.42,953.79 614.72,956.09 610.86,956.6C611.5,951.16 614.44,947.17 612.92,942.07C612.16,937.5 608.57,934.53 603.98,934.28C601.31,941.43 599.17,948.06 593.54,953.53C590.71,956.18 587.41,959.94 583.5,960.73C583.47,958.07 583.68,955.6 584.18,952.99C584.93,948.86 583.9,945.25 583.04,941.25C576.17,944.53 569.94,949.38 563.52,953.47C549.7,962.34 535.86,971.23 522.04,980.09C518.86,982.14 515.82,984.64 512.41,986.27C511.49,986.86 510.31,985.81 509.5,985.4C489.83,971.73 469.3,958.97 449.57,945.42C448.4,944.65 447.1,944.33 445.78,943.89C444.86,949.67 445.53,955.24 445.51,961.03C434.92,955.79 429.71,944.99 426.4,934.21C422,933.97 418.74,936.14 417.15,940.21C415.02,945.55 418.39,951.27 418.73,956.7C414.28,955.41 410.09,953.46 406.58,950.4C404.01,948.29 402,945.59 399.45,943.5C398.25,943.24 396.94,943.46 395.72,943.49C395.15,945.73 394.32,947.64 394.8,950.01C395.42,954.16 397.85,957.5 398.67,961.56C392.08,960.68 385.9,958.66 380.97,954.02C373.76,947.19 368.76,937.15 369.64,927.04C369.99,919.74 374.25,912.94 380.8,909.66C384.88,907.49 389.05,907.33 393.41,906.19C396.3,903.24 397.51,899.56 401.37,897.44C405.63,894.44 410.24,894.16 415.2,893.27C416.78,887.79 417.84,882.53 420.24,877.32C421.78,873.79 423.77,870.48 425.28,866.95C426.38,863.71 425.49,860.75 424.19,857.75C422.76,854.62 421.82,851.16 419.19,848.87C415.09,854.28 411.25,859.63 406.36,864.39C402.92,867.5 398.61,869.68 394.85,872.43C394.12,872.01 393.39,871.59 392.66,871.18C394.43,863.53 394.62,856.04 395.33,848.23C391.83,850.82 389.16,854.11 386.15,857.19C377.59,863.35 368.04,869.12 357.52,871.04C359.08,862.44 365.39,854.73 366.52,845.89C362.15,847.66 359.5,851.14 355.43,853.49C345.88,859.23 334.35,862.86 323.17,862.45C325.09,858.67 327.74,855.57 330.27,852.22C335.98,844.76 342.33,836.92 345.9,828.18C341.16,830.88 337.27,834.59 332.69,837.51C320.89,845.17 306.98,849.7 292.99,850.84C287.08,851.54 280.88,852.02 275.11,850.29C281.81,846.06 288.68,841.82 294.5,836.51C299.43,832 304.83,828.24 309.48,823.48C315.33,817.52 321.23,811.27 325.92,804.35C316.52,810.04 307.11,817.26 297,822.15C287.42,827.13 276.51,830.09 265.94,832.09C259.35,833.07 252.8,832.6 246.3,831.21C241.3,830.08 235.42,829.84 230.93,827.34C236.59,823.8 242.53,820.84 247.98,816.93C253,813.26 258.37,810.22 263.16,806.23C272.63,798.73 282.31,792.24 289.88,782.62C279.5,787.55 269.56,792.82 258.7,796.79C252.74,798.95 247.06,801.37 240.81,802.67C240.94,802.91 241.06,803.16 241.18,803.4C234.74,804.06 228.43,805.89 221.96,806.44C217.65,806.58 213.29,806.61 208.98,806.43C198.81,805.39 189.15,802.15 180.21,797.24C185.99,795.34 191.98,794.34 197.73,792.32C217.66,785.7 237.33,778.18 256.44,769.46C259.57,768.15 262.58,766.84 265.02,764.4C262.94,764.41 260.89,764.43 258.87,764.98C239.04,770.53 218.54,775.42 198.05,777.49C188.77,777.79 179.26,777.8 169.99,777.47C158.87,776.11 147.86,772.89 137.68,768.23C134.57,766.55 130.54,764.82 128.86,761.55C131.95,761.36 134.98,761.45 138.04,761.02C155.18,758.93 172.41,756.67 189.3,753.07C192.63,752.29 196.04,752.17 199.44,752.46C198.98,751.97 198.52,751.47 198.09,750.96C205.61,750.33 212.83,748.42 220.22,747.01C226.89,745.82 233.48,743.7 239.98,741.73C235.66,741.36 231.34,741.32 227.03,741.81C220.48,742.79 213.64,742.39 207,742.62C195.34,742.68 183.65,742.61 171.99,742.33C166.19,741.59 160.43,741.16 154.58,741.48C154.87,741.15 155.17,740.82 155.46,740.49C149.41,740.71 143.89,739.31 137.96,738.43C129.5,737.15 121.86,734.23 113.93,731.13C106.5,728.27 99.93,724.02 93.51,719.37C89.07,715.85 84.63,712.59 82.03,707.42C90.69,707.22 99.4,709.1 107.95,710.28C114.33,710.58 120.65,710.18 126.99,711.21C131.73,711.34 136.26,711.84 140.95,712.41C161.94,712.54 183,712.51 204,712.54C207.56,712.63 210.7,712.14 214.11,711.15C212.47,709.96 211.15,709.57 209.11,709.38C202.89,708.18 196.6,708.76 190.36,707.71C176.65,706.82 163.22,704.27 149.66,702.19C122.89,697.06 93.92,689.81 71.61,673.44C65.64,669.36 59.9,665.36 55.4,659.59C51.32,654.48 46.28,648.6 44.83,642.11C49.25,642.45 53.28,643.89 57.48,645.17C88.64,653.18 120.04,657.86 151.99,661.22C155.36,661.51 158.65,661.37 162.01,661.12C156.97,658.49 151.1,657.45 145.73,655.53C129.03,650.41 112.77,643.6 96.97,636.2C90.17,633.14 84.35,628.89 77.99,625.07C71.39,620.75 64.89,616.17 58.77,611.18C52.19,605.93 47.4,599.25 42.53,592.46C37.63,585.55 34.21,578.11 30.68,570.45C28.37,564.7 26.1,558.21 26.25,551.96C34.68,555.01 42.18,560.78 50.12,564.94C59.68,570.6 69.4,575.79 79.43,580.58C101.72,592.35 126.56,600.31 150.62,608.2C154.25,609.39 157.79,610.66 161.63,611.02C145.91,601.88 129.6,593.97 114.44,583.45C99.96,574.33 86.44,563.78 74.16,551.85C67.9,545.03 61.69,538.23 56.29,530.69C52.67,525.91 50.33,520.68 47.63,515.37C42.42,504.67 40.45,493.66 38.7,482.01C38.61,480.62 38.58,479.22 38.62,477.82C40.61,478.61 42.38,479.56 43.98,481C77.52,509.21 114.55,531.56 153.46,551.51C165.3,556.96 176.63,563.28 188.72,568.18C193.41,569.92 196.78,572.65 201.78,572.87C201.72,568.42 200.06,564.35 199.65,559.95C201.56,560.37 203.32,560.93 204.98,561.99C213.93,567.5 223.09,572.76 232.57,577.32C244.47,582.71 257.35,586.94 269.58,591.43C277.5,594.26 285.59,595.94 293.59,598.43C304.77,601.7 316.48,604.9 326.88,610.25C333.89,613.91 340.47,618.42 346.37,623.69C351.56,628.42 355.46,634.12 359.11,640.06C363.59,647.22 367.93,654.47 372.38,661.65C377.23,669.99 384.25,677.2 392.01,682.89C401.74,690.32 414.62,693.88 426.53,695.84C430.38,696.58 434.05,696.33 437.94,696.31C436.47,695.69 435.01,695.02 433.62,694.23C431.99,693.09 430.37,691.94 428.73,690.8C431.13,688.42 433.95,686.71 436.67,684.73C445.31,678.08 454.67,672.35 463.86,666.49C462.8,660.54 454.95,656.83 452.96,651.34C456.68,650.46 460.48,649.8 464.29,649.49C471.94,649.09 479.67,646.36 487.29,645.11C498.45,643.02 509.75,642.36 521.09,642.59C521.37,640.89 521.63,639.19 521.82,637.49C523.45,637.52 525.15,637.54 526.76,637.81C535.66,639.59 544.53,640.88 553.16,643.81C568.88,649.14 583.9,656.58 596.67,667.3C604.11,673.37 610.62,679.84 613.78,689.15C615.65,694.88 614.1,701.32 614.39,706.64C616.07,709.41 618.91,711.53 621.07,713.95C631.57,725.09 635.54,740.89 633.06,755.85C631.08,763.64 628.35,771 623.58,777.54C618.06,785.3 609.77,791.47 600.59,794.12C601.52,788.71 602.91,783.39 601.91,777.97C601.2,773.45 600.38,767.39 597.06,763.97C595.45,762.26 593.91,762.45 591.74,762.45C591.24,768.28 591.43,774.17 591.65,780.01C592.69,788.51 593.14,797.55 591.59,806.01C590.05,805.45 588.57,804.82 587.18,803.96C580.21,799.61 573.41,794.81 566.26,790.77C564.61,789.81 562.83,789.34 560.98,788.93C561.8,793.36 565.21,796.64 568.55,799.39C575.46,804.45 583.97,808.85 590.01,814.98C592.09,816.89 593.49,818.85 596.59,818.87C598.49,813.77 599.34,807.78 602.09,803.09C604.48,801.46 607.32,800.43 609.89,799.09C619.07,794.62 627.22,788.46 632.69,779.71C639.02,770.37 641.05,760.03 642.46,749.04C643.16,737.64 640.04,726.32 633.41,717.01C637.83,713.53 643.16,711.93 647.73,708.72C656.01,703.08 663.33,695.77 670.91,689.23C668.28,697.11 663.03,703.21 661.14,711.26C665.91,708.97 668.91,705.28 672.64,701.63C679.18,694.86 684.43,686.63 690.19,679.19C694.31,673.95 698.25,668.59 702.19,663.21C703.18,661.91 703.81,660.67 704.27,659.11C701.61,659.36 698.64,660.43 696.01,659.97C695.1,658.85 696.54,657.08 697.02,655.97C699.08,652.56 701.95,649.57 704.94,646.95C712.59,640.57 721.08,635.32 730.08,631.07C734.77,628.92 739.75,627.75 744.34,625.33C747.12,623.86 749.92,622.66 753.03,622.06C751.22,626.53 747.26,628.93 744.95,633.11C750.61,632.28 754.95,629.43 759.96,626.95C767.2,623.19 774.38,619.86 780.98,615.01C786.77,611.02 791.19,606.04 796.16,601.17C799.59,597.66 803.07,594.77 804.93,590.07C799.24,591.29 794.89,594.56 789.46,596.5C775.34,601.74 760.88,606.16 746.43,610.39C739.97,612.34 733.42,613.65 727.1,616.05C718.57,619.27 709.68,621.76 702.25,627.21C695.53,631.89 690.31,637.88 685.23,644.22C680.76,649.89 677.67,656.03 674.37,662.39C668.9,672.63 660.92,680.66 652.73,688.73C647.22,694.09 640.75,697.62 633.84,700.83C630.78,702.26 627.56,703.16 624.27,703.87C624.04,699.36 624.01,694.87 624.38,690.37C628.8,688.21 633.18,686.25 636.9,682.93C640.74,679.85 645.05,677 648.43,673.43C659.47,661.63 664.87,648.1 673.83,634.95C676.9,630.11 680.73,625.83 685.08,622.11C691.6,616.9 698,612.09 705.68,608.67C711.02,606.13 716.59,604.81 722.15,602.93C733.5,598.79 745.43,596.31 756.97,592.76C771.26,587.87 785.09,583.48 798.64,576.65C805.47,573.28 811.86,569.17 818.58,565.61C822.14,563.7 824.8,561.03 828.78,559.9C828.84,564.67 827.09,569.07 827.37,573.84C832.58,572.61 836.96,569.86 841.86,567.84C847.62,565.34 853.4,562.93 858.94,559.94C883.69,548.05 907.53,534.23 930.95,519.93C945.45,510.28 959.91,500.47 973.8,489.96C979.36,485.96 984.13,481.05 989.66,477.02Z" style="fill-rule:nonzero;"/>
            <path d="M85.99,528.12C94.01,531.25 101.21,537.03 108.66,541.34C114.01,544.39 119.05,547.71 124.61,550.37C137.86,556.7 150.35,565.51 163.97,571.01C176.31,576.59 188.05,583.3 200.6,588.39C204.52,590.18 209.29,591.48 211.99,595C215,598.75 217.91,602.54 220.06,606.81C205.01,603.58 190.43,594.52 176.12,588.88C165.13,584.59 155.22,578.73 144.93,573.08C128.43,564.91 113.15,553.78 99.2,541.8C94.47,537.79 89.15,533.52 85.99,528.12Z" style="fill:rgb(143,0,24);fill-rule:nonzero;"/>
            <path d="M943.12,527.97C939.11,534.27 932.84,539.4 927.22,544.23C917.94,551.93 908.88,559.34 898.39,565.41C891.08,569.41 883.82,573.5 876.5,577.49C864.58,584.47 851.16,589.81 838.56,595.59C832.13,598.58 825.59,601.32 819.05,604.05C816.05,605.31 812.97,606.2 809.8,606.85C811.64,601.7 815.06,597.69 819.02,594.02C823.34,590.1 829.65,588.36 834.95,585.94C845.44,581.24 855.59,575.8 866.06,571.05C879.18,565.07 891.18,557.52 903.89,550.86C914.44,545.2 924.31,538.79 934.33,532.29C937.14,530.45 939.94,529.06 943.12,527.97Z" style="fill:rgb(143,0,24);fill-rule:nonzero;"/>
            <path d="M224.93,590.07C230.59,591.64 235.51,595.05 241.14,596.85C249.97,600.48 259.19,602.71 268.22,605.75C286,611.63 306.64,615.49 323.41,624.57C329.85,628.28 335.16,633.4 340.09,638.91C347.33,647 352.59,657.63 357.93,667.06C362.12,674.32 368.55,680.63 374.39,686.61C383.62,695.97 395.26,701.14 407.4,705.6C413.16,707.92 419.16,708.46 425.09,710.16C423.44,714.46 420.87,721.47 415.03,720.32C401.37,719.33 388.1,714.19 377.42,705.59C371.12,700.38 365.08,694.79 359.07,689.26C361,698.12 366.92,704.58 369.78,712.98C364.74,709.67 361.06,705.46 356.79,701.21C348.56,692.9 343.3,683.34 335.83,674.16C331.4,668.36 326.26,662.72 322.82,656.28C327.42,658.06 331.57,660.7 336.1,662.62C334.17,656.39 330.06,651.94 325.56,647.43C320.63,642.59 314.5,638.91 308.54,635.46C302.3,631.84 295.91,629.68 289.31,626.72C284.53,624.66 280.38,622.01 275.14,621.14C277.68,625.76 281.47,628.95 284.69,633.03C281.45,632.24 278.34,631.18 275.37,629.64C268.76,626.3 262.17,622.87 255.66,619.34C247.43,614.84 240.14,608.07 233.4,601.61C230.14,598.2 226.21,594.74 224.93,590.07Z" style="fill:rgb(143,0,24);fill-rule:nonzero;"/>
            <path d="M804.93,590.07C803.07,594.77 799.59,597.66 796.16,601.17C791.19,606.04 786.77,611.02 780.98,615.01C774.38,619.86 767.2,623.19 759.96,626.95C754.95,629.43 750.61,632.28 744.95,633.11C747.26,628.93 751.22,626.53 753.03,622.06C749.92,622.66 747.12,623.86 744.34,625.33C739.75,627.75 734.77,628.92 730.08,631.07C721.08,635.32 712.59,640.57 704.94,646.95C701.95,649.57 699.08,652.56 697.02,655.97C696.54,657.08 695.1,658.85 696.01,659.97C698.64,660.43 701.61,659.36 704.27,659.11C703.81,660.67 703.18,661.91 702.19,663.21C698.25,668.59 694.31,673.95 690.19,679.19C684.43,686.63 679.18,694.86 672.64,701.63C668.91,705.28 665.91,708.97 661.14,711.26C663.03,703.21 668.28,697.11 670.91,689.23C663.33,695.77 656.01,703.08 647.73,708.72C643.16,711.93 637.83,713.53 633.41,717.01C630.33,712.44 626.14,708.66 623.14,704.09C622.41,699.79 622.55,694.41 623.19,690.07C627.56,687.38 632.5,685.63 636.9,682.93C633.18,686.25 628.8,688.21 624.38,690.37C624.01,694.87 624.04,699.36 624.27,703.87C627.56,703.16 630.78,702.26 633.84,700.83C640.75,697.62 647.22,694.09 652.73,688.73C660.92,680.66 668.9,672.63 674.37,662.39C677.67,656.03 680.76,649.89 685.23,644.22C690.31,637.88 695.53,631.89 702.25,627.21C709.68,621.76 718.57,619.27 727.1,616.05C733.42,613.65 739.97,612.34 746.43,610.39C760.88,606.16 775.34,601.74 789.46,596.5C794.89,594.56 799.24,591.29 804.93,590.07Z" style="fill:rgb(143,0,24);fill-rule:nonzero;"/>
            <path d="M73.13,592.1C76.63,592.88 79.85,594.29 82.99,595.99C89.16,599.34 95.65,601.2 102.1,603.93C109.05,606.86 115.99,609.58 123.22,611.74C134.3,614.8 145.05,618.9 156.16,621.86C161.24,623.39 166.49,624.61 171.4,626.62C176.04,628.74 180.48,632.47 181.22,637.81C176.13,637.39 171.32,635.96 166.46,634.48C156.87,631.47 147.35,628.24 137.72,625.35C124.55,621.41 112.66,615.41 100.18,609.79C95.05,607.48 90.28,604.54 85.64,601.39C81.2,598.34 76.84,596.08 73.13,592.1Z" style="fill:rgb(143,0,24);fill-rule:nonzero;"/>
            <path d="M954.1,593.06C952.8,594.79 951.37,596.33 949.55,597.55C942.62,602.24 935.92,606.83 928.25,610.26C918.32,614.8 908.36,619.43 898.12,623.22C888.14,626.57 878.08,629.7 868.13,633.14C861.57,635.15 854.63,637.48 847.76,637.88C849.63,632.09 854.03,627.61 859.93,625.96C869.6,622.96 879.34,620.19 888.93,616.94C896.77,614.31 904.82,612.32 912.63,609.61C922.3,606.15 931.7,602 941.22,598.26C945.6,596.54 949.46,594.12 954.1,593.06Z" style="fill:rgb(143,0,24);fill-rule:nonzero;"/>
            <path d="M897.05,594.95C890.99,601.08 882.42,602.07 875.95,607.86C880.99,606.41 885.81,604.55 891.05,603.87C883.5,606.67 875.78,609.13 868.03,611.32C869.44,609.92 871.01,608.88 872.77,607.98C880.88,603.66 888.92,599.21 897.05,594.95Z" style="fill:white;fill-rule:nonzero;"/>
            <path d="M196.18,607C201.5,609.96 205.23,615.18 210.24,618.76C217.91,625.21 226.65,629.63 235.1,634.9C248.37,642.87 262.76,647.34 277.22,652.82C281.78,654.78 286.45,657.07 290.85,659.38C292.37,660.11 293.09,661.41 293.98,662.77C290.51,662.32 287.24,661.27 283.99,660.03C275.94,656.97 267.33,655.01 258.95,653.05C248.9,651.03 239.46,647.1 229.5,644.64C222.71,643.04 216.21,640.51 209.42,638.97C212.94,646.25 218.02,652.61 224.02,658C230.86,663.91 239.14,667.81 247.19,671.78C258.13,677.15 269.88,679.64 281.23,683.82C285.74,685.5 290.36,686.76 295.01,688C297.13,688.74 299.2,688.96 300.38,691.11C294.86,691.02 289.52,689.64 284,689.56C273.39,689.02 263.48,690.89 252.95,691.75C248.1,692.36 243.07,692.4 238.31,693.52L237.92,695C242.27,699.45 248.65,702.17 254.23,704.78C266.8,710.53 280.44,711.41 294.02,712.91C301.91,713.85 309.92,714.04 317.77,715.26C317.28,717.12 315.08,716.91 313.57,717.41C305.97,718.68 299.65,721.24 291.85,720.47C284.41,719.75 276.87,719.83 269.49,718.65C261.74,717.27 253.44,715.86 246.17,712.81C238.06,709.57 230.83,703.41 224.75,697.25C221.54,693.52 217.63,689.06 216.71,684.11C225.98,683.96 234.71,686.41 243.96,686.57C248.57,686.6 253.49,687.06 257.89,685.78C249.54,680.84 239.92,679.38 231.25,674.78C223.41,670.72 216.33,665.06 209.66,659.33C201.14,651.63 196.45,641.72 193.06,630.93C192.53,629.02 192.28,627.08 192.03,625.12C200.17,627.42 207.34,631.31 216.01,631.85C209.09,624.17 198.85,617.7 196.18,607Z" style="fill:white;fill-rule:nonzero;"/>
            <path d="M832.73,606.79C830.57,618.15 820.13,623.68 813.87,632.22C822.68,631.67 829.56,627.2 837.86,625.15C837.32,630.31 835.22,634.74 833.33,639.49C831.19,644.71 828.29,649.64 825.29,654.4C823.5,657.28 820.93,659.23 818.2,661.15C811.73,665.63 806.41,670.67 799.39,674.4C792.94,677.91 786.17,679.78 779.39,682.39C777.26,683.15 775.52,684.34 773.84,685.83C786.44,687.7 800.26,684.3 812.99,684.15C811.79,689.05 809.09,693.03 805.54,696.55C799.62,702.37 793.54,708.45 785.84,711.85C778.72,715.03 770.7,716.7 763.08,718.2C755.06,719.85 747.13,719.32 739.02,720.25C731.95,720.98 725.82,719.08 718.93,718.07C716.09,717.63 713.4,716.96 710.73,715.94C714.04,714.23 717.4,714.45 721.01,714.34C727.11,714.23 732.9,712.88 738.98,712.47C752.39,711.48 766.34,709.7 778.42,703.41C783.92,700.51 789.27,698.85 792.88,693.45C790.21,693.02 787.54,692.67 784.85,692.46C772.94,691.6 760.01,688.71 747.96,689.14C740.48,689.32 733.51,691.89 725.97,691.67C730.96,688.08 736.21,687.95 741.91,685.97C750.46,683.07 759.08,680.4 767.69,677.68C777.22,674.68 785.78,670.27 794.54,665.55C799.85,662.66 804.82,659.43 808.91,654.93C813.31,650 817.44,645.36 819.91,639.14C813.54,640.36 807.58,642.92 801.25,644.36C792.12,646.52 783.46,650.07 774.39,652.41C766.94,654.24 759.38,655.86 751.98,657.99C746.45,659.61 741.86,662.46 735.94,662.78C736.87,661.41 737.69,660.12 739.23,659.37C751.87,652.71 765.48,648.35 778.29,643.28C787.14,639.81 794.85,634.75 803.02,630.01C811.61,625.06 820.08,619.14 826.88,611.89C828.69,610.02 830.65,608.34 832.73,606.79Z" style="fill:white;fill-rule:nonzero;"/>
            <path d="M538.44,650.03C551.62,652.06 564.81,659.22 576.31,665.71C583.24,669.35 589.46,674.48 594.91,680.07C598.22,683.74 601.68,687.81 603.59,692.41C604.81,695.29 604.18,697.93 603.65,700.86C598.88,701.72 595.56,698.4 593.4,694.57C591.49,691.6 590.78,687.67 587.63,685.96C587.32,689.69 587.86,694.01 586.54,697.53C585,700.83 581.75,704.35 577.92,704.68C572.91,705.3 567.86,704.93 563.25,702.72C551.14,697.47 545.78,685.82 533.11,680.86C527.6,678.95 520.44,676.09 514.63,677.73C517.08,680 519.81,681.18 521.03,684.43C513.72,685.15 504.96,684.29 498.52,688.17C502.43,690.55 506.65,690.19 511.06,691.89C515.51,693.51 518.52,697.04 521.24,700.75C524.23,704.98 527.18,709.26 529.84,713.71C527.56,713.53 525.28,713.35 523,713.22C526.78,717.63 532.22,720.7 537.78,722.23C544.55,723.7 552.31,720.48 559.06,719.4C557.55,721.51 556.16,723.5 553.8,724.77C549.31,727.33 543.46,728 538.5,729.58C534.58,730.84 530.66,732.23 526.95,734.01C522.78,736.06 519.89,739.3 517.1,742.91C522.5,746.8 530.67,748.94 534.03,754.76C525.72,754.52 515,749.73 507.26,753.94C510.78,755.56 514.49,756.63 518.05,758.14C511.11,762 502.69,762.6 495.96,768.02C495.02,768.96 494.53,770.38 493.92,771.56C497.82,770.88 501.52,769.49 505.39,768.75C510.18,768.02 515.21,768.23 520.03,768.58C518.48,771.91 515.72,773.72 513.29,776.31C510.23,779.54 508.85,782.41 508.7,786.93C512.8,785.21 516.57,781.66 520.99,781.66C520.74,785.06 520.48,788.46 520.19,791.86C522.09,790.56 523.99,789.27 525.94,788.05C528.28,792.63 529.32,797.59 531.99,802C536.56,797.92 538.54,792.45 543.55,788.96C543.83,792.78 544.05,796.51 543.07,800.26C540.71,808.78 534.71,816.14 527.03,820.47C524.63,818.28 522.54,815.92 520.79,813.18C518.71,810.25 517.45,807.29 514.53,805.09C513.5,806.96 512.51,808.84 511.49,810.7C506.26,808.2 503.44,801.98 500.88,797.07C498.24,792.1 498.24,787.1 497.5,781.68C494.94,782.6 492.49,783.61 490.43,785.44C485.74,789.28 483.25,794.37 478.96,798.63C477.03,795.23 475.74,791.66 475.36,787.76C474.3,779.74 476.47,772.55 477.1,764.69C468.57,764.42 463,771.26 456.14,775.02C457.04,768.72 459.97,763.48 463,757.99C466.92,750.78 473.59,745.06 479.87,739.87C484.48,736.03 490.92,736.35 494.06,731.56C487.03,732.03 480,733.34 473.24,735.32C470.19,736.22 467.09,736.75 463.93,737.07C465.65,733.95 467.69,731.66 470.62,729.63C475.62,725.91 481.68,724.93 486.54,721C484.35,720.12 482.52,719.38 480.13,720.08C473.43,721.66 467.07,725.41 461.92,729.92C456.54,734.66 454.16,740.56 450.47,746.46C447.84,750.7 443.79,752.94 439.91,755.93C437.7,757.62 435.48,758.92 432.93,760.04C433.33,756.16 434.51,752.78 436.31,749.34C439.26,743.64 442.15,737.24 446.59,732.59C451.95,727.02 456.87,721.59 463.65,717.66C467.03,715.46 471.08,714.18 473.33,710.81C470.67,710.57 468.07,710.59 465.47,711.27C455.31,713.82 445.57,717.48 435.98,721.66C438.73,713.93 445.55,707.77 451.97,702.97C456.69,699.27 462.05,696.7 466.61,692.8C461.66,690.17 457.01,691.35 451.64,690.17C457.57,683.83 466.18,679.53 474.02,676.02C480.02,673.27 486.46,671.89 492.37,668.96C489.47,664.11 484.22,663.27 480.76,659.08C485.9,657.08 491.14,656.88 496.58,655.56C505.26,653.53 514.18,653.17 523.04,653.91C528.68,654.37 534.09,655.95 539.77,656.15C539.31,654.11 538.79,652.09 538.44,650.03Z" style="fill:rgb(143,0,24);fill-rule:nonzero;"/>
            <path d="M98.05,665.24C101.18,665.53 104.24,666.16 107.3,666.84C112.89,668.09 118.35,668.27 123.99,668.96C130.16,669.73 136.34,670.45 142.49,671.38C153.36,673 164.14,673.43 175.03,674.18C181.6,674.8 188.87,675.35 194.97,678.01C197.49,679.04 199.31,680.85 201.05,682.87C194.62,683.71 188.43,682.78 182,682.72C170.92,682.7 159.69,680.87 148.73,679.35C133.71,677.39 118.39,674.16 104.28,668.57C102.07,667.7 100.01,666.57 98.05,665.24Z" style="fill:rgb(143,0,24);fill-rule:nonzero;"/>
            <path d="M924.33,667.34C922,669.34 919.66,670.72 916.74,671.7C907.63,674.85 897.93,676.88 888.41,678.3C875.1,680.36 861.49,682.7 848,682.78C841.22,682.97 834.67,683.77 827.88,682.94C831.32,678.24 837.13,676.68 842.55,675.56C851.59,674.1 860.89,673.45 870.01,673.13C881.22,672.65 892.15,670.47 903.29,669.35C910.26,668.6 917.32,667.32 924.33,667.34Z" style="fill:rgb(143,0,24);fill-rule:nonzero;"/>
            <path d="M392.01,682.89C395.25,684.25 398.39,685.71 401.5,687.37C409.28,691.52 418.44,693.42 427.07,695C429.6,695.53 431.3,695.22 433.62,694.23C435.01,695.02 436.47,695.69 437.94,696.31C434.05,696.33 430.38,696.58 426.53,695.84C414.62,693.88 401.74,690.32 392.01,682.89Z" style="fill:white;fill-rule:nonzero;"/>
            <path d="M535.71,695.38C539.92,695.86 542.31,698.58 543.25,702.58C542.39,703.42 541.52,704.27 540.65,705.12C542.07,707.39 543.48,709.4 546.04,710.48C549.11,710.58 552.23,708.91 555.2,708.18C554.29,709.91 553.36,711.48 551.66,712.54C550,713.97 547.11,713.54 545.06,713.58C540.4,713.66 535.76,710.24 534.58,705.73C534.15,702.22 534.31,698.67 535.71,695.38Z" style="fill:white;fill-rule:nonzero;"/>
            <path d="M594.35,707.54C596.5,706.95 597.98,708.35 599.76,709.32C603.31,711.62 606.96,714.03 609.95,717.05C616.21,723.97 620.83,732.1 622.47,741.37C622.71,746 622.85,750.81 622.32,755.42C620.68,762.61 616.92,770.13 611.35,775.06C610.43,771.59 610.65,768.13 609.35,764.77C606.43,757.02 600.31,751.46 592.98,747.89C586.98,745.06 580.62,741.83 574.06,740.64C566.09,739.91 558,740.12 550,740.26C546.44,740.65 543.32,739.53 540.9,742.77C543.69,744.45 546.42,745.9 548.77,748.2C554.08,753.65 558.55,759.72 563.13,765.77C566.32,769.52 569.86,773.94 574.31,776.16C575.45,771.49 571.31,766.63 570.3,762.01C573.84,766.4 576.05,772.21 578.49,777.3C580.4,781.25 581.99,785.24 582.83,789.56C576.27,785.56 570.39,780.39 564.69,775.26C557.42,767.53 551.23,758.87 543.54,751.47C540.14,747.6 536.16,744.84 531.84,742.11C530.65,741.54 531.92,740.13 532.76,739.88C539.33,736.44 547.03,734.93 554.22,733.3C559.21,732.05 564.04,732.64 569.1,732.41C571.88,730.13 573.19,726 575.19,723.03C579.63,716.08 586.27,709.86 594.35,707.54Z" style="fill:white;fill-rule:nonzero;"/>
            <path d="M592.95,718.48C595.06,718.51 596.86,719.88 596.68,722.14C593.16,724.79 588.48,726.07 584.2,726.74C584.15,722 588.31,718.23 592.95,718.48Z" style="fill:rgb(0,52,30);fill-rule:nonzero;"/>
            <path d="M740.98,725.41C745.99,725.28 751.01,725.28 756.01,725.48C761.22,725.7 766.33,726.85 771.57,727.43C775.04,727.81 778.47,728.34 781.88,729.11C778.72,734.43 774.47,738.99 769,741.98C758.19,747.72 746.33,751.15 734,750.09C723.91,748.96 713.8,746.89 704.64,742.37C700.35,740.16 696.19,738.66 692.98,734.91C694.93,734.78 696.78,734.89 698.66,735.47C709.64,738.74 721.53,741.19 733.03,740.71C739.28,740.53 746.08,740.15 752,738.02C755.77,736.61 759.31,735.38 762.08,732.31C755,729.67 747.7,729.19 740.98,725.41Z" style="fill:rgb(143,0,24);fill-rule:nonzero;"/>
            <path d="M283.32,725.94C278.42,729.66 272.9,730.12 266.98,732.34C274.46,737.54 283.92,740.3 293,740.41C299.98,740.57 306.87,740.67 313.77,739.6C321.32,738.52 328.17,735.47 335.86,735.05C327.03,743.87 316.34,746.08 304.64,748.76C296.67,750.32 288.85,751.09 280.84,749.31C273.52,747.64 266.23,745.07 259.75,741.23C255.26,738.33 249.98,734.41 248.03,729.26C259.41,726.49 271.64,725.61 283.32,725.94Z" style="fill:rgb(143,0,24);fill-rule:nonzero;"/>
            <path d="M320.21,750.97C318.43,755.17 314.67,756.88 312.08,760.47C318.72,762.05 325.8,762.07 332.47,760.66C341.69,758.88 349.96,754.79 358.85,752.09C353.55,758.07 346.69,761.23 339.56,764.48C334.49,766.71 329.09,769.54 323.67,770.64C313.25,772.5 302.52,771.36 293.51,765.53C293.4,764.84 293.35,764.13 293.35,763.41C297.71,761.3 302.27,759.74 306.57,757.52C311.17,755.23 315.23,752.45 320.21,750.97Z" style="fill:rgb(143,0,24);fill-rule:nonzero;"/>
            <path d="M671.91,752.26C675.42,753.15 678.61,754.67 681.94,756.05C693.33,760.54 704.76,763.37 716.98,760.43C715.16,757.44 712.6,755.37 710.35,752.73C711.47,752.13 712.5,752.05 713.45,752.48C717.14,753.97 720.6,756.05 724.17,757.82C728.54,760.16 732.93,761.51 736.67,764.91C729.97,770.03 722.37,772.03 713.98,771.44C704.88,771.35 697.97,767.39 689.8,764.14C686.13,762.65 682.59,760.89 679.21,758.8C676.33,757.06 673.67,755.22 671.91,752.26Z" style="fill:rgb(143,0,24);fill-rule:nonzero;"/>
            <path d="M347.13,768.23C347.14,769.12 347.61,770.43 347.04,771.19C345.47,773.47 343.56,775.49 342.01,777.8C349.73,780.24 357.41,777.18 365.07,776.22C361.94,780.54 357.69,783.91 352.59,785.57C343.05,788.52 332.36,787.77 323.27,783.66L323.52,782.41C326.44,779.97 330.21,778.44 333.48,776.5C338.21,773.95 342.3,770.57 347.13,768.23Z" style="fill:rgb(143,0,24);fill-rule:nonzero;"/>
            <path d="M683.14,769.05C689.01,771.25 693.34,775.3 698.86,778.1C701.41,779.49 704.22,780.66 706.56,782.37L706.53,783.62C698.23,787.92 687.69,788.23 678.71,786.25C672.72,784.28 666.6,780.66 662.91,775.43C671.02,776.66 677.76,779.54 686.17,777.82C685.85,774.6 684.34,771.98 683.14,769.05Z" style="fill:rgb(143,0,24);fill-rule:nonzero;"/>
            <path d="M439.18,769.85C439.08,777.45 437.17,784.46 435.86,791.88C435.07,796.24 435.13,800.32 433.17,804.4C430.59,798.51 430.8,792.32 430.81,786C430.96,782.22 430.89,778.24 431.8,774.55C433.08,771.62 436.4,770.74 439.18,769.85Z" style="fill:rgb(143,0,24);fill-rule:nonzero;"/>
            <path d="M377.06,780.15C375.53,784.55 372.85,788.28 371.05,792.56C378.25,793.54 384.22,790.77 391.14,789.77C388.07,794.31 383.2,797.06 378.38,799.4C371.25,802.81 363.04,802.45 355.43,801.22C354.16,800.7 351.89,801.19 352.45,799.19C355.18,796.07 359.02,793.85 362.23,791.24C367.56,787.31 371.35,783.01 377.06,780.15Z" style="fill:rgb(143,0,24);fill-rule:nonzero;"/>
            <path d="M653.67,781.1C659.15,783.78 662.56,787.97 667.56,791.41C671.15,794.09 674.82,795.63 677.02,799.76C671.08,801.95 664.25,801.88 658.05,801.1C651.16,799.7 644.22,795.97 639.96,790.26C645.93,790.78 651.71,792.09 657.74,791.96C656.17,788.37 654.51,784.96 653.67,781.1Z" style="fill:rgb(143,0,24);fill-rule:nonzero;"/>
            <path d="M308.93,783.13C307.52,785.88 305.81,788.4 303.47,790.45C295.29,797.5 287.49,804.26 277.16,807.99C283.32,800.6 290.81,796.35 298.01,790.04C301.31,787.11 304.69,784.53 308.93,783.13Z" style="fill:rgb(143,0,24);fill-rule:nonzero;"/>
            <path d="M740.95,783.67C745.66,785.73 750.31,787.85 754.9,790.16C751.62,789.29 748.36,788.36 745.19,787.13C746.79,789.1 748.31,791.14 749.93,793.09C746.21,790.29 743.56,787.53 740.95,783.67Z" style="fill:white;fill-rule:nonzero;"/>
            <path d="M721.23,783.84C724.47,784.62 727.04,786.34 729.49,788.53C736.94,795.1 746.25,800.63 752.84,808.05C742.09,804.16 733.57,797.36 725.26,789.74C723.48,788.07 722.23,786.04 721.23,783.84Z" style="fill:rgb(143,0,24);fill-rule:nonzero;"/>
            <path d="M451.41,788.9C453.81,792.2 454.44,796.05 456.5,799.54C458.66,803.22 460.58,806.82 463.54,809.95C464.78,807.13 466.05,804.35 467.77,801.78C469.95,804.52 471.68,807.52 473.56,810.47C476.48,814.97 480.37,818.19 484.58,821.42C487.24,823.4 489.68,825.39 492.96,826.28C493.29,822.18 493.29,818.07 493.51,813.97C495.37,815.33 496.94,816.85 498.42,818.61C503.03,823.97 508.28,828.76 513.02,833.98C515.75,836.99 517.6,840.76 520.45,843.62C522.2,844.22 524.62,841.95 525.98,840.99C532.49,835.4 539.68,829.57 544.3,822.32C546.06,819.67 547.42,816.7 549.37,814.2L550.75,814.16C552.83,816.29 554.39,819.01 556.09,821.45C560.49,817.55 561.91,811.99 565.77,807.79C566.48,819.28 561.04,829.23 553.17,837.18C551.67,838.66 549.85,839.5 547.97,840.37C546.63,836.15 547.49,832.26 547.5,827.97C545.12,830.04 543.99,832.72 542.41,835.36C538.29,842.1 533.19,848.06 527.56,853.56C523.9,857.06 520.62,861.52 516.3,864.04C514.72,859.64 513.71,854.63 511.32,850.67C508.54,846.05 505.11,841.91 501.22,838.18C501.61,841.18 501.95,844.19 502.13,847.21C497.78,845.57 494.86,842.55 491.37,839.64C485.98,834.95 480.1,829.84 476.11,823.88C474.17,821.08 473.11,818.18 470.35,816.01C469.39,820.4 469.39,824.78 468.97,829.23C463.6,825.69 459.6,819.93 456.75,814.26C453.19,806.48 450.71,797.51 451.41,788.9Z" style="fill:rgb(143,0,24);fill-rule:nonzero;"/>
            <path d="M401,793.14C399.57,799.05 396.16,803.71 392.17,808.17C390.61,809.8 388.71,811.68 386.53,812.41C384.45,812.96 382.06,812.72 379.92,812.67C381.96,808.61 385.33,806.57 388.57,803.58C392.86,799.92 396.12,796.01 401,793.14Z" style="fill:rgb(143,0,24);fill-rule:nonzero;"/>
            <path d="M629.22,794.05C632.3,794.68 633.99,796.77 636.17,798.82C640.74,803.4 645.87,807.03 649.95,812.12C646.44,812.84 643.27,812.98 640.23,810.75C634.99,806.97 630.42,800.45 629.22,794.05Z" style="fill:rgb(143,0,24);fill-rule:nonzero;"/>
            <path d="M443.56,827.89C446.83,830.15 447.11,834.09 448.37,837.61C452.02,850.2 458.73,862.64 469.19,870.83C469.31,867.69 468.94,864.61 468.59,861.5C472.24,864.87 473.62,869.12 475.41,873.6C477.37,878.88 479.57,883.84 480.63,889.41C473.38,885.87 469.6,878.93 462.43,875.04C463.35,882.39 464.87,889.64 465.91,896.96C466.46,900.7 466.22,904.4 465.6,908.11C462.26,904.92 460.79,900.56 457.24,897.75C452.94,894.3 446.77,893.53 441.5,894.54C435.95,896.07 433.21,900.77 426.86,900.18C426.93,897.66 427.04,895.18 427.73,892.73C430.11,884.33 434.06,876.34 439.48,869.47C442.34,865.83 446.34,863.01 449.81,859.79C448.48,855.05 446.24,850.7 445.11,845.91C443.62,840.02 442.98,833.96 443.56,827.89Z" style="fill:rgb(143,0,24);fill-rule:nonzero;"/>
            <path d="M585.12,828.71C586.03,834.6 584.6,840.1 582.63,845.59C580.76,850.57 578,856.42 573.31,859.29C573.52,852.02 574.98,844.88 578.45,838.44C580.42,834.86 581.95,831.43 585.12,828.71Z" style="fill:rgb(143,0,24);fill-rule:nonzero;"/>
            <path d="M565.23,846.47C566.44,849.68 565.69,852.71 564.86,855.89C563.56,860.18 561.72,864.27 558.02,867.01C551.72,871.66 543.52,872.81 536.78,875.75C530.74,878.38 527.36,883.76 522.3,888.12C523.7,881.21 527.33,875.2 531.98,869.99C533.07,868.9 534.44,867.41 536,867.1C538.35,867.37 540.53,868.87 542.73,867.74C547.74,865.59 552.6,862.32 556.56,858.56C560.36,854.94 561.98,850.51 565.23,846.47Z" style="fill:rgb(143,0,24);fill-rule:nonzero;"/>
            <path d="M395.33,848.23C394.62,856.04 394.43,863.53 392.66,871.18C393.39,871.59 394.12,872.01 394.85,872.43C393.93,873.01 392.99,873.54 392.04,874.07C391.83,866.25 394.24,858.76 393.92,850.9C391.45,853.16 388.98,855.38 386.15,857.19C389.16,854.11 391.83,850.82 395.33,848.23Z" style="fill:white;fill-rule:nonzero;"/>
            <path d="M634.69,849.17C637.74,851.53 640.29,854.33 643.02,857.02C640.77,855.6 638.44,854.31 636.12,853.01C635.39,859.86 637.1,866.37 637.05,873.18C632.03,873.24 629,870.53 626.05,866.84C629.48,869.01 632.65,871.36 636.5,872.77C635.73,864.97 634.35,857.02 634.69,849.17Z" style="fill:white;fill-rule:nonzero;"/>
            <path d="M585.32,865.08C586.25,865.31 587.03,865.73 587.65,866.32C593.18,871.81 596.73,878.55 599.11,885.91C600.54,890.51 603.69,895.96 602.79,900.81C595.99,901.01 592.79,894.8 586.05,894.49C580.07,893.89 575.89,896.65 570.35,898.18C570.42,892.75 571.14,887.51 573.6,882.6C575.7,878.36 578.75,875.27 581.28,871.35C582.64,869.28 583.84,867.05 585.32,865.08Z" style="fill:rgb(143,0,24);fill-rule:nonzero;"/>
            <path d="M417.26,903.79C420.03,905.61 424.64,908.93 423.36,912.78C422.21,916.53 420.07,920 418.51,923.61C417.3,920.48 416.16,916.65 413.84,914.18C411.23,911.47 407.52,911.02 404.03,910.17C406.09,905.32 412.14,902.14 417.26,903.79Z" style="fill:rgb(143,0,24);fill-rule:nonzero;"/>
            <path d="M616.87,903.46C620.92,903.99 623.93,906.88 626,910.24C622.72,910.52 619.72,910.78 617.04,912.92C613.72,915.36 612.51,918.77 611.1,922.47C610.67,922.47 610.23,922.46 609.79,922.46C608.29,918.55 605.96,914.51 606.36,910.24C606.37,908.84 607.25,908.04 608.14,907.1C610.6,904.85 613.37,903.02 616.87,903.46Z" style="fill:rgb(143,0,24);fill-rule:nonzero;"/>
            <path d="M446,904.39C449.95,903.96 452.7,906.01 454.43,909.41C457.01,914.52 455.21,919.89 452.64,924.59C451.97,924.59 451.31,924.6 450.65,924.61C449.14,920.46 448.26,916.01 444,913.8C441,911.67 437.85,912.33 434.48,912.85C437.28,908.65 440.27,904.08 446,904.39Z" style="fill:rgb(143,0,24);fill-rule:nonzero;"/>
            <path d="M582.08,903.81C587.61,902.62 593.3,907.87 595.14,912.73C592.46,913.14 589.51,913.17 586.95,914.11C581.81,917.17 580.92,922.62 578.88,927.75C575.07,924.41 572.41,919.22 572.97,914.09C573.79,909.69 577.68,904.97 582.08,903.81Z" style="fill:rgb(143,0,24);fill-rule:nonzero;"/>
            <path d="M484.85,904.91C486.63,914.34 482.77,922.02 482.93,931.31C484.08,930.62 485.23,930.12 486.11,929.07C490.75,923.75 492.68,917.37 496.91,911.91C497.38,921.97 493.97,930.61 490.94,940C489.76,943.23 488.66,946.91 486.54,949.66C485.42,950.32 483.51,949.04 482.39,948.64C476.83,945.73 471.14,942.41 466.63,938.01C470.16,931.82 474.89,926.54 478.19,920.2C480.97,915.25 481.82,909.73 484.85,904.91Z" style="fill:rgb(143,0,24);fill-rule:nonzero;"/>
            <path d="M542.27,905.86C545.57,910.73 546.34,916.57 549.21,921.78C551.88,927.64 556.15,932.03 559.97,937.1C557.87,939.05 555.48,940.58 553.09,942.15C548.75,944.99 545.58,948.38 540.39,949.73C536.45,944.05 534.84,937.77 532.67,931.32C530.62,925.1 529.39,918.48 529.42,911.92C534.86,917.99 537.14,926.42 543.83,931.97C543.63,922.89 540.86,915.08 542.27,905.86Z" style="fill:rgb(143,0,24);fill-rule:nonzero;"/>
            <path d="M407.55,917.29C407.48,924.55 407.55,931.82 407.46,939.08C403.65,937.33 402.44,932.48 401.6,928.74C401.44,925.81 400.86,921.77 402.16,919.1C403.43,916.8 405.36,917.64 407.55,917.29Z" style="fill:white;fill-rule:nonzero;"/>
            <path d="M620.98,916.86C623.27,916.82 625.29,916.09 627.2,917.77C629.4,919.66 629.46,923.37 629.29,926.03C628.68,931.58 626.79,937.55 621.84,940.73C620.58,938.21 620.82,935.72 620.79,933C620.89,927.61 620.57,922.25 620.98,916.86Z" style="fill:white;fill-rule:nonzero;"/>
            <path d="M649,924.36C644.2,924.12 641.36,925.48 637.49,927.99C637.37,924.52 637.13,921.21 637.76,917.76C642.22,916.83 648.28,919.47 649,924.36Z" style="fill:rgb(143,0,24);fill-rule:nonzero;"/>
            <path d="M392.32,918.45C392.43,921.63 392.5,924.82 392.4,928C388.11,926.39 384.73,924.04 379.88,924.32C381,922 382.38,920.01 384.69,918.73C387.11,918.1 389.84,918.43 392.32,918.45Z" style="fill:rgb(143,0,24);fill-rule:nonzero;"/>
            <path d="M439.71,918.22C441.32,922.71 439.57,926.32 438.4,930.63C437.16,934.16 437.63,937.46 437.28,941.15C433.62,936.82 433.06,929.68 433.56,924.25C434.2,920.83 436.63,919.27 439.71,918.22Z" style="fill:white;fill-rule:nonzero;"/>
            <path d="M589.45,919.39C593.3,919.14 594.77,919.91 596.19,923.52C597.43,930.01 595.56,937.27 592.06,942.81C591.39,938.21 591.96,933.84 590.72,929.48C589.8,926.14 589.1,922.88 589.45,919.39Z" style="fill:white;fill-rule:nonzero;"/>
            <path d="M505.84,922.92C509.08,930.08 509.66,938 513.05,945.15C516.85,937.88 517.69,929.79 520.88,922.36C522.96,928.3 523.16,934.33 524.63,940.41C525.84,946.3 528.07,951.64 528.76,957.61C523.82,961.56 518.67,965.56 513,968.4C507.44,965.7 502.37,961.94 497.74,957.86C498.45,950.75 500.97,944.37 502.46,937.42C503.72,932.35 503.85,927.71 505.84,922.92Z" style="fill:rgb(143,0,24);fill-rule:nonzero;"/>
            <path d="M383.45,930.23C385.35,936 385.62,941.87 385.42,947.89C383.51,945.64 381.62,943.55 380.48,940.77C379,937.79 379.44,934.66 379.55,931.42C380.82,930.91 382.12,930.56 383.45,930.23Z" style="fill:white;fill-rule:nonzero;"/>
            <path d="M645.72,930.43C646.95,930.41 648.18,930.52 649.41,930.58C649.54,934.14 650.23,938.49 648.53,941.72C647.61,943.91 646.11,945.63 644.47,947.3C644.18,941.58 644.74,936.06 645.72,930.43Z" style="fill:white;fill-rule:nonzero;"/>
        </g>
    </g>
</svg>
