<?xml version="1.0" encoding="UTF-8" standalone="no"?>
<!DOCTYPE svg PUBLIC "-//W3C//DTD SVG 1.1//EN" "http://www.w3.org/Graphics/SVG/1.1/DTD/svg11.dtd">
<svg width="100%" height="100%" viewBox="0 0 512 513" version="1.1" xmlns="http://www.w3.org/2000/svg" xmlns:xlink="http://www.w3.org/1999/xlink" xml:space="preserve" xmlns:serif="http://www.serif.com/" style="fill-rule:evenodd;clip-rule:evenodd;stroke-linejoin:round;stroke-miterlimit:2;">
    <g transform="matrix(1,0,0,1,-614,-1294)">
        <g id="Bridgeman" transform="matrix(1,0,0,1,-4409,1294.647578)">
            <rect x="5023" y="0" width="512" height="512" style="fill:none;"/>
            <g transform="matrix(1.533072,0,0,1.533072,4504.644853,-21.467383)">
                <path d="M486.04,88.47C489.18,90.07 492.17,92.75 494.7,95.21C495.88,110.4 495.18,125.76 496.14,141C496.74,148.69 495.95,156.56 497.33,164.11C497.44,174.08 497.71,184.04 497.74,194C497.62,196.06 498.44,197.93 498.37,199.98C498.47,210.32 498.5,220.66 498.77,231C500.23,242.53 499,254.47 500.41,265.98C500.45,274.54 500.78,283.14 500.64,291.69C497.26,293.55 492.33,296.24 490.85,300.01C492.98,306.05 497.73,308.98 501.47,313.43C501.49,316.88 501.69,320.32 501.69,323.77C499.51,324.8 496.39,324.09 494,324.22C491.29,323.97 487.9,324.73 485.44,323.51C482.82,320.82 480.5,317.79 477.76,315.24L477.09,315.19C473.81,317.75 471.39,321.7 467.97,324.04C465.61,324.17 459.85,325.14 459.3,321.89C457.58,317.96 453.44,314.24 449.54,312.55C443.32,311.13 436.63,315.38 433.76,320.78C432.63,322.3 432.36,324.49 430.01,324.19C424.76,323.97 419.24,324.56 414.06,323.88C411.67,322.31 410.05,319.07 407.92,317.05C407.04,316.27 405.8,314.26 404.55,315.57C401.88,318.22 399.32,320.98 396.71,323.68C395.14,324.6 392.67,324.17 390.97,323.82L390.51,323.03C390.39,311.64 391.61,300.38 391.72,289C391.61,285.09 392.5,280.98 391.78,277.15C385.32,275.23 378.95,275.04 372.56,273.56C367.06,272.4 360.68,272.51 355.49,270.54C354.44,262.79 352.5,254.79 352.17,246.99C351.53,243.41 351.07,239.83 351.19,236.18C353.56,235.62 356.66,238.14 358.51,236.6C358.56,230.39 358.53,224.19 358.54,217.98C358.34,216.64 360.18,214.99 361.54,215.33C361.49,222.57 361.48,229.81 361.67,237.05L362.04,238.06C363.87,238.87 365.82,239.51 367.81,239.79L368.12,238.99C368.28,229.36 368.17,219.64 368.22,210C368.13,208.43 368.53,206.51 367.81,205.09L367.01,204.9C361.77,208.64 356.68,212.6 351.5,216.44C350.96,216.82 350.26,216.9 349.42,216.66C349.39,214.92 349.28,213.15 349.48,211.42C350.62,210.19 351.96,209.25 353.35,208.33C371.74,195.24 389.11,180.96 406,165.99C412.37,160.68 417.94,154.57 424.2,149.16C429.51,144.14 434.39,138.71 439.65,133.65C448.66,123.61 458.65,113.57 466.8,102.86C467.26,99.58 463.45,102.11 461.93,101.93C461.67,101.11 461.51,100.26 461.45,99.38C460.22,99.08 459.12,99.15 458.4,100.32C458.19,102.46 458.63,104.56 458.63,106.67C455.4,111.52 450.5,115.26 446.88,119.88C443.46,124.14 439.38,127.67 435.66,131.63C433.16,135.2 429.78,137.68 426.87,140.86C425.96,140.95 425,140.82 423.99,140.48C420.83,141.12 420.83,144.09 420.59,146.71C419.51,148.65 417.09,150.05 415.47,151.58C415.39,150.77 415.21,150.01 414.92,149.29C413.56,149.53 412.42,151.63 411.46,152.64C411.84,153.32 412.22,154.01 412.59,154.69C412.08,155.21 411.54,155.71 410.98,156.19C410.09,156.28 409.2,156.32 408.3,156.32C404.86,160.4 401.24,166.33 396.33,168.64C395.93,159.24 397.96,149.3 396.78,140.07L396.01,140.07C391.12,144.08 386.6,148.67 381.94,152.95C380.88,153.75 381.28,155.82 381.16,157C381.42,164.1 380.35,170.9 381.09,178C380.99,180.58 380.93,183.01 378.05,183.79L377.74,183.01C377.61,174.44 378.05,165.88 377.58,157.32C373.22,160.12 369.39,164.06 365.34,167.32C363.78,168.8 362.02,169.59 361.84,171.97C361.55,180.21 361.82,188.53 361.68,196.75C360.99,197.69 359.68,198.82 358.42,198.66C358.29,192.12 358.45,185.55 358.47,179C358.33,177.47 358.73,175.52 357.97,174.15C354.56,175.07 351.79,179.56 348.5,180.63C348.68,178.8 348.16,176.56 348.76,174.86C351.31,171.79 354.93,169.53 357.94,166.92C372.69,155.06 386.83,142.57 400.65,129.63C406.07,124.82 411.25,119.26 416.24,113.99C416.72,111.6 413.27,112.7 412.01,110.51C407.18,111.04 411.25,114.92 408.3,117.31C405.17,120.62 401.73,123.65 398.35,126.7C398.15,120.96 398.12,115.09 398.44,109.35C398.9,108.75 399.45,108.42 400.08,108.34C404.1,107.3 408.51,106.93 412.46,105.47C413.41,104.26 413.98,103.75 415.54,103.48C418.23,102.82 420.63,102 423.46,102.44C425.64,102.87 427.41,102.14 429.45,101.55C439.73,99.11 450.23,96.7 460.54,94.41C460.92,93.81 461.27,93.19 461.58,92.54C464.53,91.35 467.83,90.77 470.95,90.16C471.68,90.42 472.38,90.74 473.06,91.11C477.42,90.56 481.66,88.69 486.04,88.47Z" style="fill:rgb(204,78,16);fill-rule:nonzero;"/>
                <path d="M483.6,94.35C483.63,96.11 483.68,97.87 483.55,99.63C482.66,100.93 480.57,100.59 479.16,100.8C478.58,99.34 478.67,97.55 478.89,96.02C479.45,94.21 482.07,94.05 483.6,94.35Z" style="fill-rule:nonzero;"/>
                <path d="M472.41,96.4C473.75,95.79 474.85,95.73 475.73,96.22C475.9,98.02 476.02,99.92 475.71,101.71C474.3,102.45 473.18,102.45 472.35,101.72C472.22,99.95 472.29,98.16 472.41,96.4Z" style="fill-rule:nonzero;"/>
                <path d="M455.56,100.41C455.62,102.13 455.64,103.88 455.49,105.6C454.79,106.85 452.27,107.55 451.06,106.91C450.29,105.53 450.66,103.53 450.69,101.99C451.59,100.47 454,100.5 455.56,100.41Z" style="fill-rule:nonzero;"/>
                <path d="M447.77,102.2C448.22,103.97 448.39,106.09 447.74,107.83C446.72,108.72 444.58,108.95 443.3,108.72C443.27,106.95 443.24,105.16 443.39,103.4C444.8,102.78 446.23,102.32 447.77,102.2Z" style="fill-rule:nonzero;"/>
                <path d="M583.58,102.52C583.71,103.27 583.5,103.62 582.92,103.56C577.44,104.46 573.7,109.35 573.38,114.73C574.85,113.06 575.48,110.69 577.06,109.04C579.91,105.59 586.1,104.07 589.6,107.41C593.28,110.42 594.14,115.46 594.37,119.95C594.29,121.46 595.85,122.07 595.61,123.55C593.5,124.92 591.4,124.55 589,124.7C581.2,124.77 573.69,125.11 565.99,123.7C562.98,123.18 558.65,123.01 556.46,120.69C557.01,118.84 561.1,118.52 562.45,117.41C563.4,113.66 564.53,110.22 567.17,107.28L567.87,107.17C567.87,108.99 567.04,110.95 567.44,112.7C568.06,109.73 569.78,106.95 571.49,104.49C575.22,101.49 579.14,102.32 583.58,102.52Z" style="fill:rgb(204,78,16);fill-rule:nonzero;"/>
                <path d="M439.96,104.18C440.84,105.45 440.33,107.54 440.44,109.03C440.04,110.42 437.09,110.81 436.08,110.05C435.67,108.8 435.6,107.45 435.85,106C436.35,104.29 438.47,104.11 439.96,104.18Z" style="fill-rule:nonzero;"/>
                <path d="M432.79,106.21C434.33,109.72 432.45,113.37 428.38,111.65C428.33,110.23 428.34,108.79 428.45,107.37C429.03,106.06 431.63,105.92 432.79,106.21Z" style="fill-rule:nonzero;"/>
                <path d="M425.54,107.38C425.2,109.43 426.81,113.7 423.49,113.61C423.82,111.64 422.23,107.11 425.54,107.38Z" style="fill-rule:nonzero;"/>
                <path d="M481.6,108.35C480.04,110.52 478.5,112.69 476.76,114.72C475.21,114.86 473.44,112.1 472.49,111.03L473.01,110.23C475.87,109.32 478.56,108.34 481.6,108.35Z" style="fill-rule:nonzero;"/>
                <path d="M483.72,111.26C484.53,114.6 484.33,118.32 483.68,121.68C482.36,120.32 479.86,118.89 479.5,117.02C479.95,115.35 482.37,112.4 483.72,111.26Z" style="fill-rule:nonzero;"/>
                <path d="M403.3,112.34C404.46,112.05 405.55,112.06 406.57,112.37C406.56,113.79 406.53,115.21 406.52,116.63C405.99,117.95 404.34,117.75 403.18,117.81C402.56,116.42 402.42,113.64 403.3,112.34Z" style="fill-rule:nonzero;"/>
                <path d="M445.63,116.33C444.49,118.18 443.43,120.38 441.83,121.86C440.25,122.05 438.57,119.32 437.34,118.35C439.87,117.14 442.85,116.56 445.63,116.33Z" style="fill-rule:nonzero;"/>
                <path d="M472.28,116.39C474.5,116.07 473.91,120.58 472.28,120.6C471.54,119.66 471.58,117.35 472.28,116.39Z" style="fill-rule:nonzero;"/>
                <path d="M430.62,119.4C430.87,121.49 428.57,124.2 426.99,125.38C425.95,124.61 423.36,122.51 424.17,121.07C426.1,120.08 428.47,119.64 430.62,119.4Z" style="fill-rule:nonzero;"/>
                <path d="M460.82,119.16C461.43,120.82 461.04,122.08 460.64,123.72C458.79,122.6 458.52,119.62 460.82,119.16Z" style="fill-rule:nonzero;"/>
                <path d="M476.97,120.9C478.31,122.01 482.29,124.51 481.61,126.46C478.4,126.59 475.36,127.59 472.15,127.76C471.81,127.14 471.97,126.42 472.63,125.59C473.81,124.11 475.04,121.38 476.97,120.9Z" style="fill-rule:nonzero;"/>
                <path d="M433.49,122.38C433.43,125.12 433.49,127.86 433.48,130.59C432.09,131.66 430.07,128.73 429.31,127.78C429.65,126.13 431.36,124.59 432.13,123.04C432.31,122.53 432.77,122.31 433.49,122.38Z" style="fill-rule:nonzero;"/>
                <path d="M435.93,122.1C437.41,121.9 438.42,124.1 439.32,125.01C439.64,126.29 437.47,129.38 435.92,129.04C435.24,127.52 435.27,123.63 435.93,122.1Z" style="fill-rule:nonzero;"/>
                <path d="M454.68,123.38C452.57,127.38 448.92,131.38 446.21,135.1C446.23,136.7 448.6,136.81 448.27,138.98C448.05,143.47 448.75,148.55 447.82,152.86C446.56,153.36 442.76,154.35 442.82,152.02C442.7,146.74 443.21,141.48 443.25,136.18C445.69,132.72 449.48,130.16 451.74,126.56C452.6,125.41 453.68,124.41 454.68,123.38Z" style="fill-rule:nonzero;"/>
                <path d="M458.25,125.72C459,126.78 461.28,128.35 460.8,129.76C458.55,130.37 455.56,131.71 453.34,130.71C454.51,129.04 455.56,127.31 456.63,125.58C457.22,125.06 457.76,125.11 458.25,125.72Z" style="fill-rule:nonzero;"/>
                <path d="M564.98,126.58C568.38,126.39 571.56,127.57 574.98,127.6C580.23,128.06 585.4,127.46 590.64,127.39C591.24,130.69 590.43,132.83 588.46,135.42C587.61,137.78 589.62,141.38 589.69,143.72C586.52,146.76 582.16,148.97 578.47,151.32C577.16,151.89 575.98,152.54 574.52,152.62C574.5,150.91 574.15,149.09 574.42,147.4C576.58,145.69 579.54,143.71 580.77,141.19C578.37,141.55 576.59,143.57 574.02,143.72C571.78,144.18 566.66,145.39 565.56,142.56C564.94,138.82 565.94,135.8 562.77,133C563.15,131.62 563.39,130.21 563.74,128.83C563.99,127.93 564.4,127.18 564.98,126.58Z" style="fill:rgb(204,78,16);fill-rule:nonzero;"/>
                <path d="M412.25,130.35C413.68,130.04 413.8,133.37 412.11,132.88C411,132.13 411.17,131 412.25,130.35Z" style="fill-rule:nonzero;"/>
                <path d="M482.65,130.35C481.21,132.71 478.66,136.21 476.33,137.54C474.88,136.28 471.72,134.51 471.41,132.59C475.17,131.98 478.85,130.62 482.65,130.35Z" style="fill-rule:nonzero;"/>
                <path d="M405.17,131.27C406.11,130.98 406.93,132.74 406.43,133.49C405.15,134.93 403.78,136.3 402.4,137.66C402.36,136.55 402.34,135.44 402.35,134.32C403.09,133.17 404.08,132.1 405.17,131.27Z" style="fill-rule:nonzero;"/>
                <path d="M427.81,131.19C428.87,132.33 431.12,133.98 430.85,135.7C428.97,136.02 425.8,136.99 424.14,136.01C423.91,134.78 426.42,130.79 427.81,131.19Z" style="fill-rule:nonzero;"/>
                <path d="M460.99,133.66C463.65,135.05 463.23,138.48 463.32,141C463.17,143.9 463.58,147.11 462.78,149.9C461.78,150.6 460.35,150.56 459.17,150.72C457.92,147.73 458.78,143.31 458.49,140C458.68,137.63 457.69,134.15 460.99,133.66Z" style="fill-rule:nonzero;"/>
                <path d="M484.64,134.23C484.76,137.75 484.74,141.28 484.72,144.8C482.81,144.15 480.6,141.76 479.69,140C480.69,138.04 482.92,135.61 484.64,134.23Z" style="fill-rule:nonzero;"/>
                <path d="M501.39,134.32C504.06,134.61 506.13,138.46 507.62,140.4C509.8,142.38 513.27,143 516.02,143.93C521.29,145.23 526.45,147.31 531.33,149.67C532.23,150.33 532.51,151.1 532.17,152C531.33,155.41 531.58,159.14 531.57,162.64C530.35,162.79 528.96,162.75 527.83,162.22C523.4,160.03 519,157.91 515,154.97C511.2,152.72 506.97,148.46 502.42,148.41C501.69,148.02 501.39,147.52 501.49,146.92C501.45,142.73 501.19,138.51 501.39,134.32Z" style="fill:rgb(204,78,16);fill-rule:nonzero;"/>
                <path d="M409.1,135.26C410.89,135.37 412.7,138.2 413.66,139.61C411.1,140.08 407.68,141.26 405.17,140.82C404.81,140.13 408.41,135.3 409.1,135.26Z" style="fill-rule:nonzero;"/>
                <path d="M455.86,136.07C456.41,140.25 456.41,147.46 455.61,151.58C454.23,151.67 452.41,152.59 451.18,151.85C450.41,150.13 450.85,147.87 450.72,146C450.87,143.06 450.38,139.91 450.94,137.03C451.78,135.33 455.08,133.29 455.86,136.07Z" style="fill-rule:nonzero;"/>
                <path d="M470.21,138.15C471.59,137.93 474.79,140.69 473.11,142.07C472.31,142.86 471.44,144.84 470.22,144.84C470.12,142.74 469.41,140.14 470.21,138.15Z" style="fill-rule:nonzero;"/>
                <path d="M440.55,139.35C440.29,144.09 440.58,148.85 440.48,153.59C439.27,154.72 436.83,155.05 435.25,154.75C434.92,152.53 434.76,150.41 434.78,148.16C432.28,148.35 433.16,153.63 432.29,155.2C431.04,156.1 429.08,155.95 427.68,156.66C426.88,157.51 425.99,158.33 425.34,159.3C425.02,160.77 425.36,162.3 424.88,163.79C424.2,163.46 423.55,163.09 422.92,162.67C420.58,163.79 418.29,166.45 416.41,168.35C415.82,172.36 415.96,176.64 415.65,180.7C413.34,179.38 411.65,175.39 409.08,175.09C404.55,179.43 399.78,183.06 395.52,187.44C395.23,192.61 395.34,197.82 395.23,203C393.99,212.21 394.5,221.72 393.98,231C393.37,235.8 394.19,241.19 392.84,245.81C391.62,246.23 390.16,245.52 388.93,245.27C386.29,244.34 383.59,244.23 381.01,243L380.57,242.05C380.5,228.13 380.75,214.18 380.64,200.26C379.12,200.26 378.51,201.44 377.56,202.45C377.49,215.29 377.44,228.19 377.45,241.03L377.02,241.85C375.48,241.5 372.31,241.71 371.71,240.01C371.6,227.35 371.56,214.62 371.66,201.96C374.21,198.74 378.32,196.2 381.45,193.44C391.71,185.55 401.21,176.5 410.98,167.98C416.97,161.95 423.37,156.4 429.23,150.24C433.12,146.75 436.53,142.65 440.55,139.35Z" style="fill-rule:nonzero;"/>
                <path d="M413.69,144.32C412.39,146.3 410.87,148.63 408.97,150.07C407.72,149.71 404.67,147.53 405.1,146.08C407.71,144.86 410.82,144.36 413.69,144.32Z" style="fill-rule:nonzero;"/>
                <path d="M476.97,143.71C478.73,145.15 482.31,147.41 482.74,149.65C480.34,150.38 477.94,150.36 475.48,150.63C474.02,150.77 472.4,151.89 471.06,150.99C470.62,149.71 475.71,143.64 476.97,143.71Z" style="fill-rule:nonzero;"/>
                <path d="M560.68,147.24C557.9,153.62 554.35,160.63 553.46,167.6C550.66,167.76 547.72,167.64 545,166.88C543.54,166.68 542.47,167.84 541,167.66C538.81,167.49 536.35,166.8 534.54,165.54C533.52,159.82 533.73,153.66 536.36,148.37C538.42,148.6 542.41,147.25 543.43,149.56C549.2,149.53 554.56,146.29 560.68,147.24Z" style="fill:rgb(204,78,16);fill-rule:nonzero;"/>
                <path d="M565.55,147.49C566.81,147.24 567.35,148.07 568.17,148.86C570.42,152.11 570.36,156.55 571.93,159.83C573.14,159.85 574.18,158.82 575.24,158.28C579.39,155.72 583.76,153.65 587.71,150.74C589.51,149.61 591.08,147.84 593.05,147.05C594.41,147.04 595.5,147.67 596.57,148.45C596.63,148.98 596.43,149.48 595.99,149.95C590.93,156.53 588.1,165.15 585.62,172.98C584.88,175.33 587.06,176.52 586.72,178.99C587.65,186.01 588.36,193.4 590.61,200.12C591.05,201.93 589.18,203.98 588.22,205.38C584.82,206.21 580.96,203.92 577.48,203.4C569.87,201.04 561.66,197.73 555.75,192.25C554.63,191.1 555.46,188.5 555.31,187C555.33,173.12 558.53,159.52 565.55,147.49Z" style="fill:rgb(204,78,16);fill-rule:nonzero;"/>
                <path d="M402.36,149.32C403.63,150.35 406.13,152.12 406.52,153.66C405.46,154.97 403.86,157.61 402.15,157.87C401.33,154.85 402.01,152.27 402.36,149.32Z" style="fill-rule:nonzero;"/>
                <path d="M501.43,151.43C503.97,151.35 506.28,152.27 507.24,154.78C509.97,162.05 513.77,168.93 516.78,176.1C520.24,183.88 524.37,191.3 527.87,199.06C528.26,200.24 529.67,201.25 529.58,202.5C528.18,203.15 527.06,203.95 525.44,203.59C523.43,199.87 521.59,195.89 519.44,192.3C519.67,197.05 519.5,201.82 519.53,206.58C518.77,206.68 518.02,206.76 517.26,206.81C517.14,200.19 516.93,193.68 516.72,187.08C514.29,181.01 511.18,175.18 508.36,169.29C508.67,184.19 508.35,199.11 508.52,214.01C508.73,217.42 506.61,220.55 506.5,224.02C506.46,225.27 506.32,225.76 505.47,226.67C505.81,206.12 505.65,185.53 505.56,164.97C505.83,160.22 501.13,156.02 501.43,151.43Z" style="fill:rgb(204,78,16);fill-rule:nonzero;"/>
                <path d="M600.32,151.32C603.12,152 606.76,154.12 608.4,156.58C611.21,160.51 614.25,164.2 616.64,168.42C618.41,170.84 618.25,173.56 621.49,174.54C622.7,176.55 624.36,179.21 624.54,181.55C621.63,184.97 617.36,187.42 613.36,189.38C612.16,189.74 610.74,190.68 609.47,190.51C608.12,189.3 606.77,187.97 605.67,186.53C605.47,184.41 603.14,181.72 601.16,181.23C599.03,185.11 597.54,189.16 594.61,192.6L593.56,192.59C592.11,186.54 591.23,180.23 591.28,173.99C591.53,168.92 594,163.61 595.95,158.97C597.35,156.22 598.29,153.5 600.32,151.32Z" style="fill:rgb(204,78,16);fill-rule:nonzero;"/>
                <path d="M461.66,154.39C461.63,156.41 459.7,158.3 458.4,159.71C458.41,158.27 458.39,156.83 458.5,155.39C459.31,154.05 460.33,154.52 461.66,154.39Z" style="fill-rule:nonzero;"/>
                <path d="M482.81,154.15C481.76,156.76 479.21,159.21 477.5,161.5C476.24,162.48 475.12,160.4 474.22,159.75C473.3,158.5 470.87,157.23 471.38,155.5C474.87,154.88 479.41,153.81 482.81,154.15Z" style="fill-rule:nonzero;"/>
                <path d="M453.33,155.38C454.17,155.15 454.98,155.09 455.78,155.22C456.58,156.79 456.07,158.14 455.68,159.72C454.82,158.69 452.39,156.82 453.33,155.38Z" style="fill-rule:nonzero;"/>
                <path d="M440.5,157.43C440.44,159.15 440.38,160.87 440.46,162.6C439.2,162.77 437.43,159.32 437.27,158.23C438.26,157.36 439.27,157.46 440.5,157.43Z" style="fill-rule:nonzero;"/>
                <path d="M443.25,157.23C444.23,156.76 445.09,156.74 445.82,157.17C445.87,158.81 444.28,160.46 443.33,161.71C443.21,160.25 442.94,158.67 443.25,157.23Z" style="fill-rule:nonzero;"/>
                <path d="M463.55,158.32C463.58,161.11 463.56,163.89 463.56,166.68C462.04,166.68 460.54,164.25 460.02,163C460.82,161.75 461.81,158.13 463.55,158.32Z" style="fill-rule:nonzero;"/>
                <path d="M484.75,158.24C485.49,161.64 485.6,166.53 484.82,169.91C482.9,169.59 481,166.46 479.72,164.99C480.29,162.81 483.06,159.81 484.75,158.24Z" style="fill-rule:nonzero;"/>
                <path d="M430.55,159.3C430.91,159.65 428.74,163.4 428.2,162.74C426.98,160.53 427.9,158.72 430.55,159.3Z" style="fill-rule:nonzero;"/>
                <path d="M448.58,159.33C448.56,160.42 448.55,161.51 448.54,162.59C447.73,162.85 446.94,162.93 446.15,162.84C446.62,161.69 446.92,159 448.58,159.33Z" style="fill-rule:nonzero;"/>
                <path d="M451.17,159.14C452.46,159.05 454.13,161.27 453.64,162.55C452.85,162.58 452.06,162.62 451.28,162.66C450.66,161.6 450.63,160.43 451.17,159.14Z" style="fill-rule:nonzero;"/>
                <path d="M469.42,160.35C471.15,161.76 472.82,163.26 474.17,165.04C473.88,167.41 470.98,169.89 469.4,171.71C469.39,167.92 469.29,164.14 469.42,160.35Z" style="fill-rule:nonzero;"/>
                <path d="M435.26,161.38C436.77,161.17 438.39,164.59 435.99,164.88C434.37,164.86 434.51,162.27 435.26,161.38Z" style="fill-rule:nonzero;"/>
                <path d="M432.75,162.32C433.92,164.25 432.19,166.06 430.22,165.62C429.96,164.81 430.28,164 431.19,163.17C431.72,162.45 432.24,162.16 432.75,162.32Z" style="fill-rule:nonzero;"/>
                <path d="M420.96,165.14C422.12,164.66 423.95,166.9 423.94,167.97C423.5,168.98 422.33,170.99 421.08,170.92C420.64,169.31 420.3,166.68 420.96,165.14Z" style="fill-rule:nonzero;"/>
                <path d="M448.24,166.41C450.87,165.98 453.08,165.17 455.67,166.36C456.43,167.34 456.56,168.27 456.06,169.12C453.7,169.33 450.8,166.92 448.24,166.41Z" style="fill-rule:nonzero;"/>
                <path d="M429.43,168.58C431.66,168.36 433.71,167.55 435.81,168.22C435.55,168.73 435.08,169.12 434.38,169.38C428.56,172.39 423.58,177.29 421.35,183.52L420.48,183.6C420.25,179.1 421.81,175.14 425.01,171.99C425.64,172.25 426.28,172.52 426.91,172.8C427.67,171.38 427.95,169.47 429.43,168.58Z" style="fill-rule:nonzero;"/>
                <path d="M458.98,167.73C461.08,169.18 463.51,172.18 462.87,174.88C461.24,174.55 459.86,172.49 458.58,171.44C457.32,170.59 456.88,167.55 458.98,167.73Z" style="fill-rule:nonzero;"/>
                <path d="M476.41,168.43C477.72,167.51 479.32,170.07 480.22,170.8C480.99,171.88 483.98,174.09 482.59,175.46C478.6,175.95 474.43,176.78 470.22,176.77C471.87,173.82 474.33,171.12 476.41,168.43Z" style="fill-rule:nonzero;"/>
                <path d="M457.04,175.93C461.82,179.86 462.78,186.17 463.17,192C463.06,200.64 463.49,209.42 462.85,218C462.92,233.22 462.68,248.44 462.59,263.66C456.37,263.05 450.15,260.44 443.97,259.25C439.16,257.82 434.18,257.13 429.46,255.48C429.32,236.67 429.47,217.8 429.47,198.99C429.4,189.77 433.84,180.63 442.14,176.16C446.65,173.91 452.78,172.28 457.04,175.93Z" style="fill-rule:nonzero;"/>
                <path d="M407.99,178.4L408.98,178.81C410.22,180.61 413.41,182.37 413.65,184.52C409.9,185.78 406.23,185.38 402.37,185.58C404.33,183.34 405.78,180.3 407.99,178.4Z" style="fill-rule:nonzero;"/>
                <path d="M483.68,179.31C481.68,182.03 479.68,185.38 476.98,187.39C474.71,186.1 472.92,183.7 471.26,181.72C471.07,180.77 471.35,180.35 472.08,180.44C475.83,179.83 479.86,179.3 483.68,179.31Z" style="fill-rule:nonzero;"/>
                <path d="M485.59,183.31C485.55,187.76 485.66,192.21 485.59,196.65C483.68,194.68 480.86,192.6 479.87,190.03C481.23,187.73 483.44,184.9 485.59,183.31Z" style="fill-rule:nonzero;"/>
                <path d="M469.33,185.3C471.26,186.78 473.43,188.77 474.43,191C472.92,193.38 470.8,195.24 469.33,197.65C469.24,193.55 469.14,189.41 469.33,185.3Z" style="fill-rule:nonzero;"/>
                <path d="M624.8,186.31C626.96,189.89 627.36,194.8 628.31,198.84C628.98,204.6 628.59,210.59 629.53,216.37C630.92,221.43 635.28,224.47 634.82,230.02C635.03,232.81 631.36,234.89 629.55,236.57C628.46,237.78 626.79,237.82 625.27,237.72C623.87,233.94 622.47,228.24 617.37,228.48C616.27,224.35 621.44,221.28 619.77,217.14C618.73,208.79 613.51,202.01 613.72,192.99C617.32,190.71 621.15,188.64 624.8,186.31Z" style="fill:rgb(204,78,16);fill-rule:nonzero;"/>
                <path d="M412.85,188.34L413.15,189.04C411.67,191.11 409.94,193.28 407.97,194.89C405.86,194.45 403.95,190.99 402.37,189.44C405.9,189.04 409.26,188.24 412.85,188.34Z" style="fill-rule:nonzero;"/>
                <path d="M550.6,191.44C553.42,192.93 555.31,196.15 557.7,198.3C557.72,199.53 556.8,202.5 555.09,201.86C553.38,201.02 552.39,198.91 550.98,197.87C548.16,197.84 545.23,199.29 542.4,199.59C542.54,197.89 544.1,196.41 544.94,194.96C546.49,193.13 547.74,190.42 550.6,191.44Z" style="fill:rgb(204,78,16);fill-rule:nonzero;"/>
                <path d="M415.77,192.14C415.95,195.98 415.66,199.85 415.61,203.7C413.73,202.14 411.67,200.16 410.47,198.02C411.31,196.27 413.82,192.54 415.77,192.14Z" style="fill-rule:nonzero;"/>
                <path d="M400.44,193.31C402.1,194.46 403.89,196.32 404.91,198.06C404.95,199.54 401.52,203.17 400.23,203.8C399.87,200.25 400.36,196.84 400.44,193.31Z" style="fill-rule:nonzero;"/>
                <path d="M477.03,193.83C479.55,195.02 481.6,197.82 483.35,199.95L482.95,200.7C479.17,201.48 474.97,201.74 471.11,201.81C471.83,199.01 474.89,195.77 477.03,193.83Z" style="fill-rule:nonzero;"/>
                <path d="M561.58,200.43C562.87,201.27 565.48,201.86 564.7,203.9C564.23,205.16 563.88,207.29 562.06,206.9C560.41,206.37 558.14,205.2 559.24,203.11C559.82,202.13 560.01,199.79 561.58,200.43Z" style="fill:rgb(204,78,16);fill-rule:nonzero;"/>
                <path d="M408.52,201.53C410.08,203.43 413.09,205.51 413.8,207.8C409.76,208.58 405.45,208.51 401.34,208.62C402.48,206.48 404.22,204.62 405.77,202.77C406.63,202.02 407.2,200.65 408.52,201.53Z" style="fill-rule:nonzero;"/>
                <path d="M549.69,202.37C555.51,207.95 561.97,212.6 569.55,215.53C569.99,220.27 567.93,225.05 567.65,229.84C567.56,233 566.35,235.93 566.72,239.05C567.66,241.65 569.74,242.56 571.77,244.12L571.69,244.72C567.58,248.28 563.75,252.1 559.66,255.67C557.17,257.82 554.73,260.15 552.73,262.77C550.15,267.11 549.32,272.27 546.59,276.6C543.69,282.25 539.62,287.03 536.63,292.6C533.22,297.34 530.58,302.51 527.35,307.35C526.66,307.71 525.97,308.06 525.27,308.4C522.16,312.1 520.76,317.2 516.57,320.56C513.64,320.55 510.63,317.35 508.48,315.55C508.56,314.71 508.71,313.87 508.93,313.03C507.04,310.98 504.24,309.84 502.38,307.61C500.58,305.57 497.12,302.82 496.86,300.05C499,297.07 502.8,296.51 506.1,297.73C509.28,298.82 512.72,300.61 515.53,297.71C515.34,296.35 514.27,295.25 514.93,294.01C517.06,290.35 518.75,286.49 520.78,282.77C527.66,271.24 532.21,258.51 539.11,247.05C542.09,241.51 545.96,236.51 549.02,231C550.31,228.6 552.25,226.13 552.75,223.42C550.17,224.52 547.88,226.07 545.42,227.4C542.83,228.24 540.15,228.69 537.52,229.39C534.78,229.72 532.06,229.67 529.36,230.37C527.29,237.84 525.95,245.51 523.79,252.98C522.95,256.08 523.76,259.83 520.44,261.42C519.19,264.98 519.23,269.15 517.54,272.57C513.66,273.05 509.32,271.08 505.46,270.45C505.45,265.78 504.4,260.45 506.06,256.02C506.11,251.88 507.34,247.98 507.74,243.85C510.15,234.94 510.23,225.85 512.92,217.01C513.73,214.57 515.7,213 518.1,212.22C528.29,207.91 538.82,204.45 549.69,202.37Z" style="fill:rgb(204,78,16);fill-rule:nonzero;"/>
                <path d="M652.74,203.37C652.37,205.88 647,207.08 646.72,209.99C647.76,212.03 648.58,214.62 650.96,215.45C653.87,215.15 655.92,211.31 658.6,211.33C659,215.54 657.91,218.03 654.59,220.58C651.56,222.91 647.7,221.33 644.4,221.4C642.13,222.41 639.75,225.3 637.38,225.68C636.39,223.47 635.01,221.31 634.25,219.02C635.15,216.96 638.63,216.05 639.75,213.85C639.87,211.73 640.08,209.54 640.59,207.47C643.41,203.53 648.02,201.38 652.74,203.37Z" style="fill:rgb(204,78,16);fill-rule:nonzero;"/>
                <path d="M568.34,204.34C570.17,204.36 572.05,205.8 573.83,206.31C577.66,208.09 581.68,208.15 585.65,209.44C585.51,211.99 585.51,214.37 585.7,216.92C584.56,218.43 583.16,222.78 581.15,222.78C579.27,221 578.83,217.49 577.35,215.27C577.1,217.79 577.42,220.39 577.47,222.92C577.43,224.38 578.36,225.66 579.53,226.43C584.07,228.41 588.72,228.7 593.62,228.44C593.68,231.09 591.88,233.53 591.3,236.12C590.34,238.01 590.12,241.06 587.76,241.64C583.91,242.09 580.05,242 576.41,240.53C576.14,237.76 576.11,235 575.63,232.24C574.19,234.47 574.04,237.38 572.66,239.66C570.6,238.52 571.28,235.95 571.24,234C571.77,227.16 574.19,219.37 573.57,212.45C571.22,211.41 568.71,210.7 566.41,209.55C566.1,207.62 567.27,205.84 568.34,204.34Z" style="fill:rgb(204,78,16);fill-rule:nonzero;"/>
                <path d="M471.39,205.52C475.14,205.79 479.34,204.48 482.89,205.16C482.52,207.08 478.64,211.82 477,212.89C474.83,211.8 473.33,209.13 471.6,207.42C471.07,206.88 471,206.25 471.39,205.52Z" style="fill-rule:nonzero;"/>
                <path d="M593.68,208.29C593.16,209.56 592.33,210.65 591.95,211.99C592.12,213.77 594.13,214.83 595.57,213.61C596.16,212.56 596.54,211.33 597.28,210.4C599.08,210.61 598.69,213.66 598.69,214.93C598.03,217.7 595.57,218.39 593.22,219.19C591.85,220.84 591.22,223.1 589.73,224.7C588.47,225.68 586.67,224.83 585.22,224.68C585.75,221.98 587.8,219.51 588.74,216.9C588.66,215.15 587.88,213.1 588.48,211.44C589.68,209.5 591.19,207.92 593.68,208.29Z" style="fill:rgb(204,78,16);fill-rule:nonzero;"/>
                <path d="M485.63,209.24C485.88,213.16 486.83,218.01 485.83,221.87C483.63,221.15 481.18,217.88 479.77,215.97C480.87,214 483.74,210.47 485.63,209.24Z" style="fill-rule:nonzero;"/>
                <path d="M469.13,211.11L469.93,211.16C471.18,212.58 474.63,214.7 474.58,216.59C473.11,218.07 471.23,221.63 469.18,221.9C468.52,218.98 468.37,213.96 469.13,211.11Z" style="fill-rule:nonzero;"/>
                <path d="M402.18,212.28C405.38,211.82 409.85,211.02 412.88,211.92L412.76,212.81C411.24,214.46 409.25,217.49 407.03,217.97C405.58,216.54 402.52,214.23 402.18,212.28Z" style="fill-rule:nonzero;"/>
                <path d="M415.78,215.14C416.05,218.96 415.69,222.88 415.62,226.75C414.93,226.7 414.42,226.45 414.11,225.99C412.84,224.38 411,222.83 410.15,220.99C411.1,219.07 413.73,215.76 415.78,215.14Z" style="fill-rule:nonzero;"/>
                <path d="M399.52,216.39C401.39,216.41 403.43,219.68 404.67,221.02C403.63,223.1 401.33,225.34 399.39,226.72C399.46,223.28 399.57,219.83 399.52,216.39Z" style="fill-rule:nonzero;"/>
                <path d="M477.78,219.21C479.37,220.61 480.76,222.24 482.2,223.79C482.81,224.6 484.2,225.66 483.91,226.77C479.46,227.64 474.77,227.51 470.25,227.67C471.54,225.31 473.52,223.27 475.14,221.1C475.82,220.43 476.66,218.81 477.78,219.21Z" style="fill-rule:nonzero;"/>
                <path d="M407.11,224.2L407.79,224.25C409.85,226.17 412.28,228.32 413.69,230.75C409.74,232.28 404.6,231.36 400.36,231.65C402.46,229.09 404.56,226.32 407.11,224.2Z" style="fill-rule:nonzero;"/>
                <path d="M484.62,230.38C482.22,233.07 480.13,235.92 477.64,238.51C476.18,238.53 474.64,236.33 473.59,235.41C472.83,234.45 471.1,233.34 471.18,232.03C475.39,230.83 480.23,230.78 484.62,230.38Z" style="fill-rule:nonzero;"/>
                <path d="M618,231.2C620.2,231.47 621.66,235.1 622.2,236.97C621.08,239.24 618.09,240.53 616.24,242.2C615.4,245.35 616.09,247.98 613.6,250.59C610.61,254.42 606.77,254.09 602.38,253.51L602.37,252.36C604.27,250.56 606.59,249.31 608.49,247.54C609.24,245.18 606.35,241.24 604.02,240.83C601.24,241.77 599.19,244.98 596.49,245.61C595.95,240.67 599.22,235.61 604.1,234.45C606.71,233.99 608.62,234.85 611.04,235.52C613.46,234.47 615.44,231.84 618,231.2Z" style="fill:rgb(204,78,16);fill-rule:nonzero;"/>
                <path d="M401.39,234.51C405.47,234.54 409.57,234.52 413.65,234.44C411.82,237.02 409.53,239.65 406.99,241.52C404.93,240.17 403.25,238.15 401.69,236.26C401.34,235.81 401.24,235.23 401.39,234.51Z" style="fill-rule:nonzero;"/>
                <path d="M468.4,235.36C470.4,237.16 473.4,239.43 474.65,241.75C473.19,243.83 471.29,245.65 469.51,247.47L468.45,247.68C468.41,243.57 468.51,239.46 468.4,235.36Z" style="fill-rule:nonzero;"/>
                <path d="M485.8,235.17C486.32,238.8 486.7,243.32 485.86,246.87C484.77,247.28 479.71,242.07 480.15,241.07C481.82,239.28 483.58,236.09 485.8,235.17Z" style="fill-rule:nonzero;"/>
                <path d="M415.73,238.19C416.05,242.37 415.45,246.48 415.54,250.66C414.9,250.63 414.44,250.39 414.18,249.95C412.85,248 410.62,246.32 409.95,244.04C411.07,242 413.54,238.98 415.73,238.19Z" style="fill-rule:nonzero;"/>
                <path d="M399.16,239.11C400.25,239.13 401.1,240.46 401.86,241.14C402.61,242.14 404.26,243.56 403.85,244.92C402.8,246.46 401.57,248.43 399.39,247.6C398.26,245.32 398.69,241.58 399.16,239.11Z" style="fill-rule:nonzero;"/>
                <path d="M477.27,244.36C479.94,245.68 482.45,249.45 484.68,251.63C479.9,252.64 475.19,252.4 470.34,252.54C470.39,251.91 470.61,251.41 471,251.03C473.09,248.85 474.88,246.2 477.27,244.36Z" style="fill-rule:nonzero;"/>
                <path d="M484.66,255.45C484.68,256.12 484.5,256.66 484.14,257.08C482.18,259.4 480.17,261.83 477.82,263.77L477.15,263.77C474.71,261.62 471.81,259.28 470.3,256.36C475.13,256.16 479.78,255.22 484.66,255.45Z" style="fill-rule:nonzero;"/>
                <path d="M646,257.1C648.13,256.68 649.43,256.62 651.42,257.58C652.15,260.2 652.22,263.27 652.26,266C652.31,270.03 653.66,274.2 654.6,278.1C656.06,283.71 657.96,289.24 660.46,294.47C661.24,296.23 661.99,297.76 661.66,299.75L660.51,299.57C659.48,297.31 658.42,295.08 657.26,292.88C655.44,288.47 654.21,283.72 652.41,279.31C652.88,290.27 653.14,300.68 653.43,311.6C654.82,312.33 656.31,312.76 657.75,313.38C657.94,315.95 657.17,320.21 654.24,321.08C654.02,321.97 653.82,322.87 653.64,323.77C652.77,324.02 651.9,324.16 651.01,324.18C642.67,324.13 634.34,324.05 626,324.22C624.38,324.19 622.54,324.39 621,323.84C619.78,321.47 621.47,317.02 620.13,314.84C614.02,312.5 606.4,312.41 600,310.89C588.03,308.77 575.9,307.18 564,304.79C559.28,304.31 554.56,303.4 549.92,302.44C546.01,301.58 542.05,301.91 538.29,300.56C537.79,299.13 539.38,297.24 540.05,296.03C542.61,292.58 544.54,288.6 547.36,285.38C553.48,285.95 561.02,288.64 567,289.92C583.24,294.22 598.33,297.68 614.96,302.26C617.21,302.69 619.17,303.62 621.5,303.58C621.54,301.15 621.09,298.3 621.86,296.01C624.96,293.89 627.96,291.89 630.7,289.3C630.98,294.51 630.71,299.77 630.97,304.97C631.17,306.45 632.9,306.46 634.01,306.89C636.58,307.54 639.15,308.41 641.79,308.68L642.2,307.99C642.57,300.72 642.24,293.3 642.33,286C642.53,282.9 641.08,280.62 639.7,278.01L639.86,276.99C642.69,271.93 645.52,266.92 647.47,261.44C648.04,260.4 647.89,257.95 646.22,259.13C643.37,264.65 641.3,270.53 637.74,275.72C632.03,284.64 623.97,293.33 613.55,296.45C606.19,297.6 598.14,297.28 591.58,293.39C585.92,290.62 581.32,286.54 576.82,282.21C575.96,281.53 575.11,280.1 573.93,280.17C573.08,281.94 573.64,284.55 573.5,286.53C572.83,286.52 572.16,286.51 571.49,286.5C571.21,283.34 571.42,280.15 571.09,277C569.42,273.8 566.64,271.06 564.3,268.31C563.05,273.52 564.65,278.64 563.72,283.76C562.63,284 561.99,283.74 561.78,282.99C561.26,279.05 561.7,274.97 561.57,271C561.39,268.2 562.13,265.83 560.61,263.41C559.23,261.79 561.96,259.19 563.31,260.69C567.49,265.88 571.26,271.2 575.97,276.01C581.65,281.9 587.34,287.79 594.98,291.09C596.42,291.82 598.07,292.07 599.63,291.57C603.1,290.1 606.38,288.84 608.99,285.99C614.86,280.5 619.84,274.49 622.84,266.94C622.25,264.43 622.3,262.02 622.44,259.46C624.59,259.47 626.09,259.17 628.1,258.49C634.11,258.23 639.97,257.48 646,257.1Z" style="fill:rgb(204,78,16);fill-rule:nonzero;"/>
                <path d="M468.26,261.13C470.28,261.33 472.73,264.21 473.73,265.87C472.12,266.89 469.74,265.74 468.28,264.86C468.15,263.63 468.15,262.39 468.26,261.13Z" style="fill-rule:nonzero;"/>
                <path d="M485.91,261.1C486.81,263.18 486.6,266.94 486.12,269.16C484.42,270.24 481.83,267.61 480.46,266.63C480.64,265.31 484.49,260.85 485.91,261.1Z" style="fill-rule:nonzero;"/>
                <path d="M554.47,273.41C554.4,276.14 554.44,278.89 554.51,281.62C553.79,281.74 553.09,281.75 552.41,281.65C552.39,279.63 552.19,277.48 552.61,275.5C553.25,274.66 553.2,273.27 554.47,273.41Z" style="fill:rgb(204,78,16);fill-rule:nonzero;"/>
                <path d="M470.37,275.5C474.85,275.48 479.3,275.1 483.79,275.27C483.29,276.93 481.64,278.21 480.59,279.54C479.59,280.58 478.48,282.21 477,282.48C474.72,280.95 473.1,278.66 471.03,276.82C470.64,276.53 470.42,276.09 470.37,275.5Z" style="fill-rule:nonzero;"/>
                <path d="M505.45,275.36C509.29,275.31 514.18,276.74 517.73,278.22C515.85,283.04 512.56,287.59 510.4,292.39C509.59,294.18 507.62,293.39 506.29,292.74C506.11,286.93 505.38,281.19 505.45,275.36Z" style="fill:rgb(204,78,16);fill-rule:nonzero;"/>
                <path d="M621.64,275.25C621.75,279.7 621.77,284.16 621.5,288.6C616.43,292.77 609.77,294.59 603.27,293.62C605.71,291.01 609.55,289.73 612.04,287.04C615.91,283.6 618.4,279.16 621.64,275.25Z" style="fill-rule:nonzero;"/>
                <path d="M401.31,279.29C404.07,279.12 407.16,279.23 409.75,280.29C409.15,281.54 407.52,283.86 406.04,283.92C404.16,282.98 402.75,280.83 401.31,279.29Z" style="fill-rule:nonzero;"/>
                <path d="M468.23,279.2C470.39,280.62 473.39,283.53 474.56,285.69C472.89,287.69 470.56,290.96 468.15,291.86C467.57,287.88 467.61,283.18 468.23,279.2Z" style="fill-rule:nonzero;"/>
                <path d="M486.63,279.24C487.39,283.58 486.83,287.51 486.78,291.85C484.34,290.82 482.06,287.77 480.18,285.83C479.8,284.41 482.05,282.92 482.79,281.82C483.74,281.02 485.22,278.59 486.63,279.24Z" style="fill-rule:nonzero;"/>
                <path d="M397.46,281.33C398.15,281.33 398.67,281.54 399.01,281.97C400.46,283.62 402.29,285.1 403.39,287.01C402.16,289.04 399.49,292.01 397.24,292.79C396.44,289.05 397.62,285.16 397.46,281.33Z" style="fill-rule:nonzero;"/>
                <path d="M414.8,281.23C415.55,284.68 415.62,289.45 414.83,292.88C412.5,292.14 410.1,289.06 408.78,287.01C410.33,284.97 412.57,282.44 414.8,281.23Z" style="fill-rule:nonzero;"/>
                <path d="M439.63,283.43C439.85,287.1 439.72,290.85 439.55,294.53C437.57,294.72 435.93,295.45 433.99,295.2C432.29,294.39 431.03,292.65 429.66,291.35C427.59,289.04 425,286.96 423.31,284.35C428.4,282.76 434.32,283.72 439.63,283.43Z" style="fill-rule:nonzero;"/>
                <path d="M443.35,283.36C447.19,282.44 451.03,282.92 455,282.67C456.53,282.77 458.56,282.23 459.89,283.08C459.93,284.49 458.51,285.67 457.66,286.67C454.83,289.55 452.18,292.77 449.02,295.28C447.11,295.36 445.3,294.63 443.38,294.54C442.55,290.75 443.02,287.16 443.35,283.36Z" style="fill-rule:nonzero;"/>
                <path d="M421.2,288.25C422.73,288.95 423.87,290.75 425.06,291.93C426.47,293.64 428.38,295.06 429.49,296.98C427.89,298.56 425.74,299.57 423.99,300.99C423.11,301.57 422.19,302.75 421.1,302.78L420.71,302.02C420.7,297.59 420.16,292.51 421.2,288.25Z" style="fill-rule:nonzero;"/>
                <path d="M461.86,288.13C462.42,292.31 462.56,298.67 461.85,302.81C458.98,301.16 456.71,298.64 453.46,297.44C452.5,296.44 454.81,295.12 455.31,294.34C457.31,292.58 459.37,288.86 461.86,288.13Z" style="fill-rule:nonzero;"/>
                <path d="M477.66,288.46C479.96,290.44 481.97,292.77 484.16,294.88C484.73,295.42 484.95,296.01 484.81,296.66C479.66,296.77 474.44,297.07 469.3,296.69C471.1,294.42 473.23,292.35 475.21,290.22C475.83,289.74 476.8,288.23 477.66,288.46Z" style="fill-rule:nonzero;"/>
                <path d="M406.72,290.3C409.3,292.36 411.42,295.17 413.66,297.6C408.54,297.68 403.46,297.75 398.34,297.58C399.9,295.34 401.78,293.65 403.65,291.63C404.55,290.81 405.34,289.47 406.72,290.3Z" style="fill-rule:nonzero;"/>
                <path d="M434.41,299.43C438.45,298.24 444.57,298.05 448.57,299.43C448.85,302.15 448.64,304.94 448.58,307.67C443.61,307.27 439.08,307.17 434.13,307.83C433.23,305.38 433.87,301.96 434.41,299.43Z" style="fill-rule:nonzero;"/>
                <path d="M470.32,300.4C475.14,300.28 479.99,300.25 484.81,300.31L484.74,300.98C482.37,303.53 480.23,306.34 477.76,308.77L477.07,308.81C474.7,306.98 472.64,304.57 470.75,302.24C470.28,301.75 470.14,301.14 470.32,300.4Z" style="fill-rule:nonzero;"/>
                <path d="M398.34,301.33C403.45,301.19 408.54,301.24 413.64,301.33C410.69,303.48 408.77,306.68 405.83,308.75L405.21,308.75C402.7,306.52 400.56,303.85 398.34,301.33Z" style="fill-rule:nonzero;"/>
                <path d="M452.47,301.35C453.66,301.36 454.41,302.04 455.36,302.65C457.71,304.34 459.97,305.91 461.65,308.33C462.72,311.57 461.91,314.54 461.74,317.8C458.8,314.64 456.33,311.76 452.44,309.61C452.3,306.87 452.4,304.1 452.47,301.35Z" style="fill-rule:nonzero;"/>
                <path d="M428.97,301.64L429.91,301.94C430.55,303.83 430.6,308.01 429.88,309.86C427.67,311.37 425.43,312.55 423.68,314.68C422.87,315.37 422.15,316.96 420.97,316.88C420.34,314.49 420.64,311.48 420.83,309C422.75,305.94 425.92,303.51 428.97,301.64Z" style="fill-rule:nonzero;"/>
                <path d="M414.68,305.29C415.63,309.55 415.28,314.49 414.77,318.81C412.42,317.39 409.99,314.32 408.48,312C410.04,309.5 412.64,307.45 414.68,305.29Z" style="fill-rule:nonzero;"/>
                <path d="M468.09,305.18L468.77,305.32C470.72,307.35 473.39,309.47 474.55,312.03C472.78,314.2 470.4,317.38 468.05,318.72L467.63,318.02C467.6,313.91 467.16,309.14 468.09,305.18Z" style="fill-rule:nonzero;"/>
                <path d="M486.81,305.09C487.58,309.23 487.72,314.8 486.92,318.89L486.15,318.81C484.02,316.7 481.55,314.45 479.87,311.99C480.77,310.09 482.75,308.68 484.08,307.05C484.85,306.41 485.68,304.87 486.81,305.09Z" style="fill-rule:nonzero;"/>
                <path d="M396.54,306.42C397.84,305.33 399.47,307.91 400.36,308.66C401.12,309.77 403.27,311.06 402.52,312.55C400.7,314.79 398.64,316.89 396.37,318.69C396.45,314.6 396.53,310.51 396.54,306.42Z" style="fill-rule:nonzero;"/>
                <path d="M632,316.76C634.92,317.73 637.95,317.56 640.92,318.3C642.57,318.37 643.05,320.93 640.99,321.06C637.83,321.16 634.18,321.58 631.13,320.79C630.37,319.77 630.19,316.86 632,316.76Z" style="fill-rule:nonzero;"/>
            </g>
        </g>
    </g>
</svg>
