<?xml version="1.0" encoding="UTF-8" standalone="no"?>
<!DOCTYPE svg PUBLIC "-//W3C//DTD SVG 1.1//EN" "http://www.w3.org/Graphics/SVG/1.1/DTD/svg11.dtd">
<svg width="100%" height="100%" viewBox="0 0 452 395" version="1.1" xmlns="http://www.w3.org/2000/svg" xmlns:xlink="http://www.w3.org/1999/xlink" xml:space="preserve" xmlns:serif="http://www.serif.com/" style="fill-rule:evenodd;clip-rule:evenodd;stroke-linejoin:round;stroke-miterlimit:2;">
    <g transform="matrix(1,0,0,1,-51.829392,-94.721717)">
        <g transform="matrix(1,0,0,1,-5537.404239,0.981008)">
            <g transform="matrix(1.684401,0,0,1.684401,4937.149579,-57.019828)">
                <path d="M574.98,89.61C577.62,89.09 580.07,90.61 582.62,91.4C585.27,90.77 586.24,93.15 588.94,93.25C591.39,93.59 593.4,95.06 595.86,95.26C596.07,96.01 596.25,96.78 596.4,97.54C597.15,97.33 597.87,97.27 598.55,97.37C599.27,101.52 602.08,100.24 604.99,102.13C606.16,101.97 606.74,101.08 607.66,100.39C607.43,101.25 607.2,102.12 606.97,102.98C614.62,107.44 621.95,112.29 627.92,119C628.5,119.58 628.82,120.21 628.87,120.89C626.49,123.7 622.2,125.26 620.39,128.45C619.67,128.67 618.96,128.78 618.23,128.8C608.09,118.37 594.67,111.49 580,110.92C565.21,110.07 550.4,115.5 539.58,125.59C533.83,130.65 530.19,136.97 526.55,143.59C516.69,151.29 506.39,158.78 496.38,166.33C495.64,166.96 494.45,167.71 494.2,168.7C502.33,168.32 511.11,164.73 518.78,165.02L518.64,165.68C512.48,172.52 506.61,179.63 500.37,186.39C492.84,195.13 485.38,204.03 477.54,212.49L477.43,213.58C491.85,207.84 503.31,204.26 517.74,199.23C517.63,199.79 517.33,200.31 516.82,200.79C501.24,218.21 485.51,235.51 469.83,252.86C467.37,255.72 464.22,258.48 462.3,261.71C463.88,261.7 464.56,260.55 465.85,259.78C489.04,245.46 511.4,232.18 534.66,217.7C535.59,217.15 536.67,216.04 537.81,216.2C537.92,217.34 536.88,218.41 536.44,219.42C531.17,229.67 525.28,239.93 519.85,250.01L520,250.81L520.84,250.71C537.95,240.61 555.45,230.35 572.66,220.41C571.29,226.3 568.48,231.99 566.68,237.8C566.2,239.53 564.48,242 565.03,243.73C573.01,237.81 582.78,228.82 591.16,222.2C593.51,219.71 596.53,219 599.43,217.43C611.79,211.75 622.18,201.34 627.74,188.92C635.63,171.82 633.77,150.39 622.99,134.94C622.83,133.18 625.85,132.04 626.99,130.96C629.24,129.8 631.38,126.48 633.79,126.18C636.17,129.62 638.39,133.19 640.25,136.93C640.99,138.41 642.21,139.26 642.31,141.01C642.63,143.92 645.43,146.41 645.57,149.39C648.31,150.4 648.41,153.45 650.56,154.59C649.96,157.68 650.42,160 651.08,162.98C650.21,164.48 650.81,165.41 651.06,166.99C650.5,168.33 650.61,169.71 649.98,171.03C649.28,173.19 650.28,174.52 650.59,176.48C649.56,176.8 648.53,177.14 647.51,177.48C647.34,179.27 647.4,179.96 645.52,180.58C645.7,184.2 643.66,187.78 642.33,191.08C639.53,198.64 635.01,205.23 630.78,211.97C631.14,216.25 626.89,217.37 627.51,221.44C626.27,221.82 625.64,222.65 625.6,223.95C625.53,225.4 624.2,225.54 623.14,226.09C623.94,227.94 623.28,230.05 621.08,230.35C621.23,230.79 621.38,231.24 621.53,231.69C620.18,233.48 618.41,232.37 616.61,232.45C615.56,235.04 613.74,236.89 612.03,239.01C608.5,244.43 604.84,249.74 601.16,255.05C601.32,255.88 601.49,256.71 601.68,257.53C601.15,257.29 600.61,257.12 600.06,257.01C598.13,258.91 597.27,261.89 595.37,263.61C595.34,256.8 595.88,249.8 594.86,243.06C592.91,240.63 588.89,242.13 587.52,244.52C584.89,245.64 582.88,247.83 580.58,249.49C580.18,250.51 579.43,251.16 578.33,251.43C575.24,253.59 572.63,256.41 569.51,258.56C546.97,277.96 524.81,296.26 502.34,315.61C502.35,314.95 502.52,314.41 502.87,313.97C514.32,299.01 525.05,283.43 536.36,268.38C539.65,263.59 543.02,258.89 546.63,254.35C544.99,254.18 543.82,255.62 542.4,256.38C532.95,262.2 523.84,268.53 514.48,274.49C494.11,287.82 473.43,300.93 453.19,314.25C451.86,314.99 450.84,316.7 449.3,316.71C450.45,314.57 452.43,312.91 453.85,310.94C462.23,301.25 470.28,291.37 478.72,281.73C484.34,274.7 490.76,268.39 496.23,261.23C497.26,259.72 499.7,258.32 499.73,256.41C495.42,258.68 491.31,261.59 487,263.95C485.73,265.21 484.98,265.66 483.33,266.39C481.27,268.6 478.09,269.98 475.47,271.49C475.21,272.18 474.94,272.88 474.68,273.57C472.9,273.5 471.51,272.64 470.94,274.91C467.65,275.93 467.13,280.62 463.25,281.51C461.76,283.6 459.48,282.37 458.73,284.76C457.34,284.27 456.6,284.92 455.43,285.62C455.7,286.33 455.81,287.04 455.74,287.74C454.86,287.46 453.96,287.26 453.05,287.15C450.34,288.78 448.48,290.99 445.01,290.73C444.36,291.06 443.9,291.67 443.62,292.56C443.07,292.35 442.52,292.13 441.98,291.9C439.24,292.2 437.68,294.35 435.07,295.21C433.1,296.96 430.75,297.15 428.82,298.78C415.83,306.17 400.02,316.23 387.14,323.76C387.01,322.55 388.34,321.86 389.03,321.03C405.24,302.82 421.66,284.92 438.35,266.38C448.17,255.2 458.36,244.38 468.27,233.28C469.13,232.11 470.72,231.98 470.59,230.41C469.02,230.29 468.16,232.05 466.77,232.74C447.24,245.6 427.74,258.31 408.26,271.29C402.45,274.77 396.89,278.73 391.33,282.58C391.43,280.71 393.89,279.43 394.92,277.95C417.08,252.76 439.11,227.44 461.27,202.25C464.32,198.69 468.92,193.9 471.55,190.32C460,194.71 447.08,200.63 435.46,205.46C427.98,208.1 421.06,212.23 413.5,214.6C408.99,216.85 404.15,219.04 399.41,220.67C414.15,209.16 430.17,196.89 445.16,185.2C450.87,180.51 457.65,176.16 462.44,170.54C462.97,167.91 463.85,165.67 466.37,164.38C467.13,162.89 468.27,161.8 469.45,160.64C469.31,160.12 469.18,159.6 469.05,159.09C470.12,158.04 471.09,157.03 472.55,156.55C471.66,155.54 471.49,154.74 472.04,154.15C472.59,154.31 473.15,154.43 473.71,154.49C476.27,153.16 477.99,154.42 479.16,151.15C481.96,149.4 485.17,149.19 488.03,147.27C489.99,148.27 490.61,147.04 492.35,146.34C492.7,145.75 493.05,145.15 493.4,144.56C497.39,145.2 500.09,142.25 503.06,140.12C505.09,138.01 507.83,136.66 509.67,134.42C502.91,132.08 495.85,131.11 489.03,128.93L489.06,128.2C503.62,122.17 519.81,114.78 534.6,108.57C542.74,105.03 552.06,100.38 560.6,98.46C560.4,97.63 560.2,96.79 560,95.96C560.78,95.64 561.61,95.49 562.5,95.51C562.47,94.63 562.64,93.83 563.02,93.12C565.22,92.57 567,91.68 568.98,90.61C571.22,90.33 573.05,91.12 574.98,89.61Z" style="fill:rgb(21,22,68);fill-rule:nonzero;"/>
                <path d="M556.36,91.36C556.74,91.76 556.74,91.76 556.36,91.36Z" style="fill:rgb(21,22,68);fill-rule:nonzero;"/>
                <path d="M578,119.95C583.64,119.9 589.38,121.76 594.63,123.61C584.09,124.2 575.26,128.26 565.45,131.51L565.41,132.55C570,133.29 574.54,134.62 578.97,136C578.91,137.63 576.17,138.78 575.36,140.34C573.02,141.33 571.68,143.21 569.71,144.73C568.29,145.99 566.42,147.06 565.35,148.65C567.89,148.97 570.46,147.19 572.98,146.78C577.54,145.81 582.34,143.43 586.88,143.17C586.91,143.83 586.68,144.46 586.17,145.06C581.13,152.43 576.33,159.97 571.32,167.36C570.54,168.54 569.33,169.07 569.42,170.59L570.49,170.44C572.5,168.69 574.77,167.36 576.97,165.87C582.97,162.25 588.71,158.21 594.85,154.73C595.49,154.3 596.16,154.09 596.86,154.08C596.89,157.61 594.91,161.34 594.52,164.94C594.13,167.89 592.09,170.9 592.2,173.79C594.61,172.7 596.66,168.71 598.75,166.81C601.84,163.92 604.13,159.61 607.62,157.34C609.19,161.86 610.78,166.35 612.27,170.9C612.53,171.8 613.03,172.16 613.78,171.97C615.75,164.09 618.34,156.11 619.14,148.02L619.59,147.39C620.76,150.15 621.29,153.07 622.3,155.88C623.77,160.76 623.65,165.47 623.41,170.5C621.98,177.65 620.28,185.88 615.72,191.72C609.68,200.71 600.5,208.25 589.99,211.23C587.05,211.87 584.25,213.2 581.3,213.69C583.95,210.38 588.15,205.21 588.89,201.1C588.2,200.98 587.52,201.2 586.86,201.79C582.02,204.95 576.5,207.22 571.11,209.27C564.38,211.28 556.96,214.43 550.18,215.84C550.24,214.48 552.76,213.67 553.62,212.63C556.91,209.18 560.88,206.61 564.28,203.27C568.57,199.83 570.85,195.47 574.08,191.01C575.54,188.71 577.45,186.64 578.72,184.24C578.08,184.18 577.44,184.34 576.8,184.74C569.16,189.44 558.92,195.5 551.14,199.82C550.58,198.1 552.01,196.14 551.7,194.33C543.98,198.11 536.64,202.95 528.98,206.91C527.15,207.78 525.32,209.57 523.3,209.79C523.54,208.79 524.59,207.98 525.22,207.19C529.41,202.69 532.76,197.51 536.83,192.89C539.36,189.73 542.18,186.8 540.55,182.41C538.01,175.83 541.22,169.36 544.92,163.99L544.86,163.23L544.2,163.32C536.31,168.75 529.62,176.68 522.31,182.68C522.54,180.88 523.99,179.35 524.65,177.65C527.16,171.9 529.49,166.14 531.26,160.12C532.45,154.39 534.41,148.39 537.34,143.3C545.18,128.89 561.64,119.56 578,119.95Z" style="fill:rgb(236,168,33);fill-rule:nonzero;"/>
                <path d="M464.27,130.24C466.17,128.82 467.1,131.84 465,132.21C464,131.92 463.76,131.27 464.27,130.24Z" style="fill:rgb(21,22,68);fill-rule:nonzero;"/>
                <path d="M470.26,134.23C472.72,133.4 472.2,137.06 469.97,135.99L469.72,134.99L470.26,134.23Z" style="fill:rgb(21,22,68);fill-rule:nonzero;"/>
                <path d="M483.42,137.39C483.66,137.62 483.66,137.62 483.42,137.39Z" style="fill:rgb(21,22,68);fill-rule:nonzero;"/>
                <path d="M493.47,139.48C493.53,139.54 493.53,139.54 493.47,139.48Z" style="fill:rgb(21,22,68);fill-rule:nonzero;"/>
                <path d="M559.44,139.43C560.74,141.06 559.31,144.9 558.76,146.78C555.91,148.33 552.6,149.22 549.62,150.57C547.42,151.28 545.65,152.97 543.4,152.67C545.99,149.79 548.63,147.05 551.05,144C553.36,141.17 556.33,140.82 559.44,139.43Z" style="fill:rgb(21,22,68);fill-rule:nonzero;"/>
                <path d="M474.31,147.29C474.73,147.73 474.73,147.73 474.31,147.29Z" style="fill:rgb(21,22,68);fill-rule:nonzero;"/>
                <path d="M461.41,149.41C461.59,149.6 461.59,149.6 461.41,149.41Z" style="fill:rgb(21,22,68);fill-rule:nonzero;"/>
                <rect x="453.09" y="150.2" width="0.68" height="0.65" style="fill:rgb(21,22,68);"/>
                <path d="M442.57,153.45C443.02,154.84 440.76,156.62 440.15,154.94C439.65,153 441.14,152.73 442.57,153.45Z" style="fill:rgb(21,22,68);fill-rule:nonzero;"/>
                <path d="M460.28,153.29C461.34,152.49 462.01,152.73 462.28,154C461.82,155.79 459.52,154.99 460.28,153.29Z" style="fill:rgb(21,22,68);fill-rule:nonzero;"/>
                <path d="M454.32,159.21C455.34,158.86 455.78,159.04 455.64,159.77C454.6,160.16 454.16,159.98 454.32,159.21Z" style="fill:rgb(21,22,68);fill-rule:nonzero;"/>
                <path d="M464.17,159.2C465.36,158.61 465.8,162.49 464.28,161.81C463.88,160.96 463.84,160.09 464.17,159.2Z" style="fill:rgb(21,22,68);fill-rule:nonzero;"/>
                <path d="M463.05,164.08L463.88,164.03L463.92,164.84L463.08,164.91L463.05,164.08Z" style="fill:rgb(21,22,68);fill-rule:nonzero;"/>
                <path d="M449.41,170.41C449.6,170.61 449.6,170.61 449.41,170.41Z" style="fill:rgb(21,22,68);fill-rule:nonzero;"/>
                <path d="M603.28,177.38L603.66,177.39C604.51,179.48 605.69,181.72 605.88,183.99C605.24,186.67 602.84,189.11 600.64,190.68C599.71,191.22 598.31,192.58 597.21,191.98C598.88,187.34 601.51,182.13 603.28,177.38Z" style="fill:rgb(21,22,68);fill-rule:nonzero;"/>
                <path d="M444.23,179.28C445.15,179.17 445.38,179.68 444.91,180.8C443.95,180.96 443.72,180.45 444.23,179.28Z" style="fill:rgb(21,22,68);fill-rule:nonzero;"/>
                <path d="M652.32,206.34C653.6,205.03 655.87,206.04 654.99,207.95C653.65,209.63 651.73,208.07 652.32,206.34Z" style="fill:rgb(21,22,68);fill-rule:nonzero;"/>
                <path d="M635.2,220.19C636.15,219.88 636.74,220.15 636.98,221C636.87,223.23 633.62,222.09 635.2,220.19Z" style="fill:rgb(21,22,68);fill-rule:nonzero;"/>
                <path d="M645.08,232.17L645.85,232.17C646.67,234.19 644.28,234.14 645.08,232.17Z" style="fill:rgb(21,22,68);fill-rule:nonzero;"/>
                <path d="M618.38,237.34C618.64,237.64 618.64,237.64 618.38,237.34Z" style="fill:rgb(21,22,68);fill-rule:nonzero;"/>
                <path d="M621.37,243.39C621.61,243.63 621.61,243.63 621.37,243.39Z" style="fill:rgb(21,22,68);fill-rule:nonzero;"/>
                <rect x="623.18" y="246.17" width="0.67" height="0.68" style="fill:rgb(21,22,68);"/>
                <path d="M640.39,248.37C642.03,247.71 642.87,249.74 641.92,250.92C639.97,251.95 639.12,249.65 640.39,248.37Z" style="fill:rgb(21,22,68);fill-rule:nonzero;"/>
                <path d="M591.39,250.25C591.51,252.2 594.25,249.52 591.39,250.25Z" style="fill:rgb(21,22,68);fill-rule:nonzero;"/>
                <path d="M614.36,252.24C615.47,251.68 615.94,251.87 615.78,252.82C614.74,253.16 614.27,252.97 614.36,252.24Z" style="fill:rgb(21,22,68);fill-rule:nonzero;"/>
                <path d="M584.32,255.31C585.21,254.93 585.82,255.16 586.15,256C586.15,258.29 582.85,257.17 584.32,255.31Z" style="fill:rgb(21,22,68);fill-rule:nonzero;"/>
                <path d="M587.29,259.28L588.66,259.33C589.97,261.18 586.74,262.31 586.78,260L587.29,259.28Z" style="fill:rgb(21,22,68);fill-rule:nonzero;"/>
                <path d="M578.16,262.16C579.63,261.79 580.17,262.33 579.79,263.79C578.66,264.51 577.97,264.25 577.72,263L578.16,262.16Z" style="fill:rgb(21,22,68);fill-rule:nonzero;"/>
                <path d="M613.06,262.07C615.05,261.03 615.89,263.33 614.61,264.64C612.97,265.28 612.16,263.26 613.06,262.07Z" style="fill:rgb(21,22,68);fill-rule:nonzero;"/>
                <path d="M620.15,266.17C621.92,265.49 622.94,267.9 621.01,268.46C619.25,268.25 618.77,267.37 620.15,266.17Z" style="fill:rgb(21,22,68);fill-rule:nonzero;"/>
                <path d="M573.15,279.02L573.99,278.71L574.74,279.15L574.73,279.87C573.53,280.46 573,280.18 573.15,279.02Z" style="fill:rgb(21,22,68);fill-rule:nonzero;"/>
                <path d="M610.31,281.27C612.98,280.32 612.73,284.87 610.16,283.86C609.44,282.96 609.49,282.09 610.31,281.27Z" style="fill:rgb(21,22,68);fill-rule:nonzero;"/>
            </g>
        </g>
    </g>
</svg>
