<?xml version="1.0" encoding="UTF-8" standalone="no"?>
<!DOCTYPE svg PUBLIC "-//W3C//DTD SVG 1.1//EN" "http://www.w3.org/Graphics/SVG/1.1/DTD/svg11.dtd">
<svg width="100%" height="100%" viewBox="0 0 930 873" version="1.1" xmlns="http://www.w3.org/2000/svg" xmlns:xlink="http://www.w3.org/1999/xlink" xml:space="preserve" xmlns:serif="http://www.serif.com/" style="fill-rule:evenodd;clip-rule:evenodd;stroke-linejoin:round;stroke-miterlimit:2;">
    <g transform="matrix(1,0,0,1,-47.301325,-75.699928)">
        <g transform="matrix(3.555496,0,0,3.555496,-1323.174205,-204.356631)">
            <path d="M540.01,78.78C544,79.58 547.98,79.49 552.02,79.82C557.51,81.09 563.71,83.19 567.91,87.09C570.65,90.96 573.69,94.68 576.44,98.55C578.6,101.25 576.63,104.79 578.28,107.53C578.49,109 578.44,110.17 579.35,111.43C579.1,111.95 578.83,112.47 578.56,112.98C579.74,115.13 579.82,115.83 578.61,118C579.53,120.34 580.64,122.46 580.59,125.04C582.65,127.32 585.52,129.14 587.86,131.19C590.9,134.76 593.14,139.33 591.13,144C589.42,147.95 584.35,150.06 580.37,150.57C577.03,152.88 577.11,156.18 577.62,159.82C575.9,160.84 576.88,162.3 576.52,164.02C576.2,166.4 573.86,169.13 574.58,171.5C575.88,176.05 577.17,180.26 575.83,185C576.24,187.37 576.51,189.61 576.6,192.01C576.76,193.77 578.01,195.25 578.33,196.99C577.81,198.98 577.62,200.93 576.52,202.72C578.5,204.44 583.01,203.26 585.57,203.39L586.31,204.54C587.02,203.74 587.52,203.33 587.84,203.29C588.42,203.9 588.91,204.69 589.31,205.67C589.82,205.56 590.33,205.47 590.85,205.37C591.39,206.05 591.88,206.8 592.31,207.62C594.7,207.73 596.45,206.3 598.75,206.29C598.7,207.54 598.42,208.73 598.08,209.93C598.54,210.93 598.72,211.47 598.57,212.56C600.84,212.25 601.19,214.1 602.67,215.32C604.13,217.1 606.29,219.1 606.59,221.45C609.29,222 611.9,223.82 611.5,226.9C611.43,228.81 612.83,229.47 613.69,230.8C611.57,231.75 613.22,232.06 612.33,233.28L612.94,233.68C612.55,234.16 612.44,234.78 612.61,235.54C613.32,235.87 613.85,236.33 614.18,236.91C613.76,237.55 613.56,238.12 613.59,238.61C614.79,240.91 614.68,243.08 614.47,245.55C615.24,247.07 616.1,248.59 616.97,250.05C618.23,251.64 620.06,252.02 621.85,253.1C625.39,254.88 627.19,259.04 628.52,262.54C631.02,267.46 634.98,270.92 636.44,276.46C636.94,279.61 636.25,282.66 636.4,285.77C642.51,297.69 645.07,310.46 646.85,323.6C644.71,323.39 642.61,323.71 640.49,323.26C639.32,311.64 637.02,300.08 631.33,289.72C630.54,287.65 628.93,286.28 630.06,283.98C631.13,281.05 631.14,277.94 629.8,275.1C628.38,271.21 624.63,269.76 623.37,265.76C622.49,263.72 622.1,261.04 620.73,259.31C618.55,256.71 615.18,257.46 613.17,254.86C611.31,252.43 609.21,249.89 607.63,247.32C604.92,237.32 599.07,228.45 592.17,220.83C586.46,215.33 579.84,211.61 572.65,208.39C571.15,207.68 569.39,206.96 568.18,205.8C568.52,202.9 571.97,200.24 572.1,197.01C571.42,194.3 570.31,191.83 570.21,189C569.47,185.16 571.16,181.02 569.99,177C569.63,174.67 568.36,172.43 568.33,170.1C569.24,167.07 571.13,163.35 571.24,159.99C571.01,157.33 569.45,154.64 569.69,151.96C570.89,149.4 572.14,146.92 573.2,144.3C576.96,144.01 581.37,145.16 584.57,142.55C586.31,141.49 585.86,139.12 585.48,137.45C582.22,132.76 576.22,129.62 571.57,126.44C569.4,125.43 569.85,122.67 569.44,120.68C567.99,114.45 573.12,108.09 571.34,101.77C569.54,98.96 567.02,96.65 565.01,93.99C563.14,91.2 559.63,89.97 556.69,88.37C549.62,85.24 540.62,85.49 533,85.42C527.86,85.04 522.6,89.07 517.8,90.67C512.85,92.9 507.65,94.42 502.71,96.69C500.34,97.83 499.42,99.85 497.69,101.67C494.65,104.93 491,107.79 487.41,110.41C485.95,111.58 484.14,112.59 483.41,114.4C481.77,118.13 480.47,121.98 479.82,126.01C480.28,131.26 484.99,132.49 487.46,136.45C488.01,139.17 488.89,142.14 488.71,144.92C487.9,147.35 486.55,149.31 486.61,152C486.12,158.71 490.26,164.87 493.7,170.26C494.85,171.83 494.11,174.04 493.65,175.74C488.6,178.25 486,184.22 482.75,188.79C481.66,191.37 478.09,192.12 475.73,191.33C467.26,181.76 459.24,171.76 450.93,162.04C449.93,160.92 449.91,160.01 450.74,158.78C454.89,153.32 459.52,148.15 463.48,142.54C465.01,135.77 461.11,131.64 457.31,126.7C454.38,123.34 451.56,119.22 446.98,118.11C442.73,117.05 438.4,115.36 434.03,115.06C429.2,118.13 424.88,123.67 420.64,127.56C418.02,126.28 415.77,125.25 413,126.98C409.17,129.54 404.93,133.38 403.7,137.97C403.35,140.33 404.66,141.73 405.58,143.71C402.39,149.21 397.44,154.42 393.54,159.51C392.35,161.13 392.92,163.01 393.36,164.78C395.51,171.73 400.17,177.79 405.95,182.13C410.55,184.78 416.92,185.17 422,186.27C423.53,186.52 424.7,185.77 425.76,184.77C428.82,181.7 431.68,178.24 435,175.46C437.23,176.89 438.63,179.59 440.49,181.49C444.8,186.21 448.7,191.27 453.02,195.98C453.67,196.81 454.71,197.79 454.74,198.9C448.69,201.71 441,204.25 436.15,209.16C428.56,216.88 422.84,226.56 419.98,237.02C419.27,240.2 416.31,242.81 414.48,245.48C411.83,248.78 410.5,252.7 408.25,256.23C405.83,257.86 403.24,259.01 401.19,261.18C398.74,263.51 397.71,266.6 397.49,269.91C397.14,273.4 395.41,275.87 393.77,278.82C390.53,284.54 391.05,291.97 394.58,297.42C396.7,299.97 395.6,303.83 395.84,307C395.69,313.21 397.49,318.57 401.01,323.64C398.73,323.27 396.3,323.5 394,323.62C392.9,320.39 390.59,317.34 390.27,313.99C389.33,310.01 389.76,306.12 389.52,302.1C388.7,299.74 387.39,297.51 386.63,295.1C384.23,287.72 385.52,278.65 390.31,272.47C390.6,267.97 391.53,263.64 393.6,259.62C396.14,256.26 399.52,254.19 403.01,251.97C405.79,247.16 408.8,242.55 412.05,238.05C414.41,234.73 414.81,231.2 416.56,227.59C419.58,221.01 423.12,214.37 427.82,208.83C432.47,203.27 438.41,200.01 444.64,196.66C444.77,195.99 444.58,195.42 444.08,194.96C440.77,191.56 438.06,187.68 434.66,184.39C432.1,186.6 430,189.24 427.08,191.16C422.61,192.89 418.83,192.19 414.3,192.61C413.74,192.92 413.49,193.41 413.55,194.08C413.4,198.05 413.23,202.03 413.32,206.01C413.25,207.41 413.55,209.18 411.53,208.58C411.66,203.55 411.5,198.51 411.36,193.49C411.1,192.83 410.79,192.19 410.43,191.57C409.26,191.54 408.09,191.51 406.92,191.47C405.04,190.2 403.52,188.61 401.49,187.53C398.45,184.74 396.17,181.56 392.5,179.5C389.77,175.92 388,171.26 387.17,166.86C385.97,164.38 386.55,161.66 386.6,158.96C388.07,155.45 390.58,152.75 392.55,149.55C394.25,147.54 396.39,145.9 397.53,143.61C397.76,140.67 397.07,137.96 398.28,135.08C400.19,129.57 405.14,123.97 410.43,121.48C413.24,120.04 415.97,120.44 419,120.18C422.89,117.18 426.37,111.96 431,109.92C435.43,108.4 439.57,110.6 444.03,110.69C447.03,111.77 450.19,112.33 452.9,114.1C456.69,116.36 459.67,120.19 462.51,123.5C465.51,126.9 467.4,130.76 469.37,134.79C469.85,138.17 470.74,141.09 469.44,144.43C466.25,150.24 461.88,154.93 457.83,160.04C460.21,164.25 464.1,168 467.46,171.48C468.5,171.49 469.57,171.46 470.61,171.38C471.02,170.75 471.32,170.08 471.52,169.39C471.05,168.9 470.59,168.4 470.14,167.9C470.31,164.25 473.88,164.02 476.71,163.57C476.2,163.35 475.68,163.12 475.17,162.88C475.55,159.64 476.33,159.28 479.55,159.56C479.48,157.7 479.25,156.14 480.37,154.51C480.74,151.68 480.12,149.09 481.43,146.39C482.79,143.7 482.65,140.48 481.09,137.94C478.26,135.23 475.44,132.9 474.35,128.91C474.08,125.88 474.04,122.94 475.21,120.07C476.5,115.61 477.76,111.52 480.91,107.95C484.21,104.68 488.77,102.42 491.9,98.93C494.06,96.46 496.29,93.84 498.91,91.85C501.65,90.13 505.15,89.3 508.07,88.11C513.68,85.76 519.21,83.34 524.66,80.64C529.16,78.26 535.07,78.86 540.01,78.78Z" style="fill:rgb(200,136,10);fill-rule:nonzero;"/>
            <path d="M533,85.42C540.62,85.49 549.62,85.24 556.69,88.37C559.63,89.97 563.14,91.2 565.01,93.99C567.02,96.65 569.54,98.96 571.34,101.77C573.12,108.09 567.99,114.45 569.44,120.68C569.85,122.67 569.4,125.43 571.57,126.44C576.22,129.62 582.22,132.76 585.48,137.45C585.86,139.12 586.31,141.49 584.57,142.55C581.37,145.16 576.96,144.01 573.2,144.3C572.14,146.92 570.89,149.4 569.69,151.96C569.45,154.64 571.01,157.33 571.24,159.99C571.13,163.35 569.24,167.07 568.33,170.1C568.36,172.43 569.63,174.67 569.99,177C571.16,181.02 569.47,185.16 570.21,189C570.31,191.83 571.42,194.3 572.1,197.01C571.97,200.24 568.52,202.9 568.18,205.8C569.39,206.96 571.15,207.68 572.65,208.39C579.84,211.61 586.46,215.33 592.17,220.83C599.07,228.45 604.92,237.32 607.63,247.32C609.21,249.89 611.31,252.43 613.17,254.86C615.18,257.46 618.55,256.71 620.73,259.31C622.1,261.04 622.49,263.72 623.37,265.76C624.63,269.76 628.38,271.21 629.8,275.1C631.14,277.94 631.13,281.05 630.06,283.98C628.93,286.28 630.54,287.65 631.33,289.72C637.02,300.08 639.32,311.64 640.49,323.26C638.89,324.45 635.24,323.59 633.23,323.56C633.24,317.36 631.37,311.66 630.28,305.94C629.16,302.18 627.8,298.43 626.24,294.84C625.37,293.14 624.57,290.89 622.97,289.77C618.28,291.22 613.04,295.11 610.1,299.08C608.39,304.68 608.22,311.18 606.81,316.88C605.55,316.97 605.55,314.82 605.14,314.01C604.15,310.85 603.45,307.68 603.5,304.35C601.92,304.09 601.48,305.52 600.5,306.48C598.79,308.83 597.1,310.91 597.34,313.99C597.09,317.28 598.35,319.99 599.11,323.1C596.27,321.99 592.93,322.93 589.83,322.67C587.61,322.72 584.97,322.24 583,323.3C579.96,323.51 576.23,324 573.43,322.64C571.28,323.87 567.63,323.84 565.45,322.68C561.42,322.53 557.58,322.45 553.52,322.64C551.89,323.47 551.55,322.96 550,322.5C547.64,323.9 547.08,321.95 545,323.17C542.01,322.14 537.99,322.43 535.01,323.48C533.66,323.63 532.6,323.12 531.38,322.67C528.62,322.77 526.33,322.19 523.62,323.49C503.94,323.8 484.63,323.63 465,323.74C461.28,324.05 457.74,324.5 454,323.88C441.67,323.88 429.33,323.67 417,323.85C411.64,324.49 406.37,323.95 401.01,323.64C397.49,318.57 395.69,313.21 395.84,307C395.6,303.83 396.7,299.97 394.58,297.42C391.05,291.97 390.53,284.54 393.77,278.82C395.41,275.87 397.14,273.4 397.49,269.91C397.71,266.6 398.74,263.51 401.19,261.18C403.24,259.01 405.83,257.86 408.25,256.23C410.5,252.7 411.83,248.78 414.48,245.48C416.31,242.81 419.27,240.2 419.98,237.02C422.84,226.56 428.56,216.88 436.15,209.16C441,204.25 448.69,201.71 454.74,198.9C454.71,197.79 453.67,196.81 453.02,195.98C448.7,191.27 444.8,186.21 440.49,181.49C438.63,179.59 437.23,176.89 435,175.46C431.68,178.24 428.82,181.7 425.76,184.77C424.7,185.77 423.53,186.52 422,186.27C416.92,185.17 410.55,184.78 405.95,182.13C400.17,177.79 395.51,171.73 393.36,164.78C392.92,163.01 392.35,161.13 393.54,159.51C397.44,154.42 402.39,149.21 405.58,143.71C404.66,141.73 403.35,140.33 403.7,137.97C404.93,133.38 409.17,129.54 413,126.98C415.77,125.25 418.02,126.28 420.64,127.56C424.88,123.67 429.2,118.13 434.03,115.06C438.4,115.36 442.73,117.05 446.98,118.11C451.56,119.22 454.38,123.34 457.31,126.7C461.11,131.64 465.01,135.77 463.48,142.54C459.52,148.15 454.89,153.32 450.74,158.78C449.91,160.01 449.93,160.92 450.93,162.04C459.24,171.76 467.26,181.76 475.73,191.33C478.09,192.12 481.66,191.37 482.75,188.79C486,184.22 488.6,178.25 493.65,175.74C494.11,174.04 494.85,171.83 493.7,170.26C490.26,164.87 486.12,158.71 486.61,152C486.55,149.31 487.9,147.35 488.71,144.92C488.89,142.14 488.01,139.17 487.46,136.45C484.99,132.49 480.28,131.26 479.82,126.01C480.47,121.98 481.77,118.13 483.41,114.4C484.14,112.59 485.95,111.58 487.41,110.41C491,107.79 494.65,104.93 497.69,101.67C499.42,99.85 500.34,97.83 502.71,96.69C507.65,94.42 512.85,92.9 517.8,90.67C522.6,89.07 527.86,85.04 533,85.42Z" style="fill:rgb(117,74,204);fill-rule:nonzero;"/>
            <path d="M531.4,90.46C536.06,90.5 540.3,90.16 544.82,91.33C543.75,93.19 538.73,93.14 538.48,95.95C538.8,98.31 539.54,100.67 540.13,102.97C540.75,105.5 542.82,108.07 542.78,110.66C539.78,111.15 536.86,111.43 533.83,111.64C524.84,113.2 516.69,116.13 508.21,119.29C506.95,119.54 505.33,120.64 504.13,120.04C504.7,117.29 509.66,115.37 511.68,113.46C508.11,113.51 504.73,114.81 501.22,115.52C502.1,112.81 505.07,110.73 506.62,108.29C502.59,109.28 499.04,112.42 495.42,114.41C493.6,115.28 492.3,117.21 490.38,117.74C492.76,112.69 496.94,110.52 500.66,106.66C503.37,104.16 505.63,101.52 509.07,100.09C513.79,98.25 518.45,96.02 523.23,94.38C524.82,93.87 525.91,96.14 526.86,97.1C529.28,99.95 529.83,103.41 531.59,106.53C531.5,102.06 531.75,97.39 530.86,92.99C530.88,92.13 531.06,91.29 531.4,90.46Z" style="fill:rgb(200,136,10);fill-rule:nonzero;"/>
            <path d="M558.41,94.63C559.95,99.5 560.2,107.1 557.01,111.32C553.47,111.47 550,110.4 546.4,110.51C543.63,106.7 543.14,101.51 543.67,96.95C544.05,95.11 546.45,94.04 547.7,92.71C550.87,89.93 555.47,92.81 558.41,94.63Z" style="fill:rgb(200,136,10);fill-rule:nonzero;"/>
            <path d="M542.04,96.19C542.86,96.69 542.41,99.81 541.36,99.63C541.23,98.6 540.07,95.96 542.04,96.19Z" style="fill:rgb(200,136,10);fill-rule:nonzero;"/>
            <path d="M562.35,99.26C563.98,100.8 567.42,102.95 566.43,105.52C565.64,108.06 565.45,111.55 563.71,113.62C562.55,113.18 561.16,112.63 560.28,111.75C561.35,107.63 562.35,103.58 562.35,99.26Z" style="fill:rgb(200,136,10);fill-rule:nonzero;"/>
            <path d="M548,115.1C552.83,115.21 559.06,115.05 563.28,117.69C564.3,118.84 564.52,121.54 563.87,122.91C560.33,123.37 555.75,121.3 552.01,121.54C539.37,120.91 526.21,124.71 514.32,128.62C513.76,126.88 513.14,124.98 513.13,123.14C513.62,122.61 514.2,122.17 514.87,121.81C525.37,117.4 536.56,114.81 548,115.1Z" style="fill:rgb(200,136,10);fill-rule:nonzero;"/>
            <path d="M433.59,121.39C436.07,126.45 438.75,131.2 443.09,134.92C444.35,135.9 443.24,136.69 442.45,137.44C436.62,143.28 431.77,150.05 426.08,156.05C419.95,163.2 413.33,168.41 408.79,176.83L408.02,176.88C403.93,174.04 400.66,169.76 398.69,165.19C398.21,163.75 397.83,162.23 398.88,160.93C409.3,146.81 421.11,133.7 433.59,121.39Z" style="fill:rgb(200,136,10);fill-rule:nonzero;"/>
            <path d="M439.18,121.17C442.45,121.16 445.47,122.2 448.37,123.65C451.4,125.76 453.61,129.18 455.9,132.04C456.97,133.69 458.46,135.61 458.65,137.62C455.33,137.75 452.01,135.95 448.73,135.36C446.14,134.03 444.35,130.69 442.62,128.42C441.3,126.31 438.99,123.77 439.18,121.17Z" style="fill:rgb(200,136,10);fill-rule:nonzero;"/>
            <path d="M510.58,125.41C511.9,127.38 511.67,129.33 509.55,130.52C508.12,130.9 507.34,129.46 506.48,128.57C505.95,125.61 507.9,124.51 510.58,125.41Z" style="fill:rgb(200,136,10);fill-rule:nonzero;"/>
            <path d="M558,126.18C563.54,126.33 568.35,130.31 572.83,133.2C573.75,133.97 575.51,134.62 575.87,135.81C569.76,135.39 563.06,134.9 557,135.93C548.36,137.34 540.9,139.62 531.99,137.95C527.19,137.28 520.8,136.01 517.29,132.42C519,132.04 520.24,131.25 521.98,132.12C527.71,134.34 533.52,135.89 539.72,135.58C537.64,133.49 534.63,132.43 532.18,130.78C531.36,130.07 529.15,129.85 529.37,128.55C532.28,128.27 535.01,127.38 537.84,126.68C544.38,125.76 551.44,125.19 558,126.18Z" style="fill:rgb(200,136,10);fill-rule:nonzero;"/>
            <path d="M416.78,131.25C414.7,134.26 411.84,137.02 409.33,139.72C409.11,137.65 409.67,136.53 410.92,134.95C412.6,133.07 413.86,130.68 416.78,131.25Z" style="fill:rgb(200,136,10);fill-rule:nonzero;"/>
            <path d="M508.97,136.89C509.95,136.52 510.89,136.64 511.78,137.25C511.97,139.3 508.46,141.16 507.25,142.7C509.46,143.07 510.77,141.4 512.79,141.22C512.01,144.07 509.86,146.9 508.6,149.65C506.21,147.69 505.48,144.86 502.46,143.54C501.5,142.78 499.99,143 500.43,141.46C503,139.53 506.02,138.13 508.97,136.89Z" style="fill:rgb(200,136,10);fill-rule:nonzero;"/>
            <path d="M518.35,139.4C520.82,140.22 523.33,141.2 525.72,142.23C525.39,143.64 522.84,144.38 523.01,145.96C525.4,145.79 527.54,144.84 530.01,145.22C530.77,145.29 533.02,145.7 532.7,146.82C530.68,147.99 528.19,148.85 526.41,150.39L526.37,151.64C528.35,151.37 530.07,150.49 532.06,150.47C535.15,152.53 537.06,152.59 540.69,152.36C539.97,154.22 538.57,155.27 537.31,156.7C541.12,156.29 542.82,152.84 546.76,152.65C549.25,149.97 552.08,148.49 551.66,144.32C550.01,143.76 548.71,146.31 547.02,146.39C544.87,145.63 541.78,145.12 540.2,143.39C543.85,143.03 547.3,142.28 551.01,142.32C554.99,141.63 558.83,140.93 562.91,141.46C563.82,141.61 565.77,141.94 565.94,143C564.71,144.58 561.38,145.43 559.53,146.49C558.06,147.21 556.93,144.22 555.57,145.42C555.45,146.92 555.08,148.44 555.17,149.95C556.59,154.88 559.07,159.85 559.81,164.93C558.82,168.45 553.91,168.54 551.35,166.68C549.01,164.76 546.67,167.44 544.51,165.38C544.07,164.03 544.6,162.59 544.76,161.2C542.82,161.2 541.4,163.84 540.07,165.04C537.55,168.24 533.6,168.88 530.88,171.87C529.04,173.55 528.05,175.68 526.68,177.68L525.5,177.63C525.39,175.05 525.05,172.53 524.75,169.98C524.92,167.82 526.31,167.6 527.64,166.38C522.02,164.55 516.39,160.43 513.77,155.05C512.81,149.82 516.35,144.23 518.35,139.4Z" style="fill:rgb(200,136,10);fill-rule:nonzero;"/>
            <path d="M501.71,147.3C504.34,149.21 505.5,151.93 506.37,154.97C506.7,158.96 506.62,163.03 506.47,167.03C506.37,168.9 504.83,169.99 503,169.68C499.72,169.63 498.04,167 496.49,164.52C495.11,162.45 493.61,160.59 492.62,158.28C491.8,155.08 491.5,151.98 492.77,148.86C494.68,145.7 498.83,145.29 501.71,147.3Z" style="fill:rgb(200,136,10);fill-rule:nonzero;"/>
            <path d="M498.02,149.64C500.6,149.98 502.43,153.34 503.57,155.41C504.53,156.8 502.07,158.48 502.36,159.92C502.55,161.16 503.98,162.67 502.68,163.69C500.68,163.99 499.72,161.53 498.73,160.2C497.2,157.78 500.68,155.84 498.55,153.43C496.47,152.83 496.53,153.92 495.12,154.88C494.16,152.95 495.46,149.29 498.02,149.64Z" style="fill:rgb(117,74,204);fill-rule:nonzero;"/>
            <path d="M564.72,152.36C564.52,155.91 567.19,158.24 565.98,162.01C565.58,163.17 565.44,167.16 563.54,166.63C563.09,162.02 561.78,157.69 560.21,153.37C561.74,153.15 563.2,152.62 564.72,152.36Z" style="fill:rgb(200,136,10);fill-rule:nonzero;"/>
            <path d="M441.56,159.48C454.26,173.45 465.62,187.81 478.1,201.95C483.38,208.63 489.18,214.84 494.65,221.35C495.39,222.39 496.85,223.2 496.67,224.55C493.57,225.62 491.51,226.9 489,228.92C488.39,228.62 487.85,228.18 487.39,227.6C470.23,207.64 453.33,187.75 436.29,167.69C435.56,166.57 433.67,165.09 434.59,163.65C435.82,161.54 438.91,158.55 441.56,159.48Z" style="fill:rgb(200,136,10);fill-rule:nonzero;"/>
            <path d="M511.38,163.21L512.49,163.37C512.79,167.31 513.47,171.86 515.74,175.19C518.47,178.66 522.18,180.17 525.34,182.84C525.77,184.03 524.68,185.52 525.26,186.69C527.75,187.58 530.46,187.74 533.06,187.28C535.91,186.12 537.71,183.84 540.46,182.56C544.29,181.37 547.92,180.07 552,180.28C554.36,180.42 557.64,179.85 559.55,181.46C561.4,182.79 563.45,184.36 564.62,186.35C564.94,188.18 565.08,190.11 564.81,191.95C563.77,191.98 563.07,190.95 562.28,190.37C562.15,193.23 564.87,197.12 563.96,199.96C562.83,202.26 560.26,203.92 558.4,205.65C557.65,201.44 557.13,197.67 554.32,194.24C554.2,198.78 554.8,203.15 553.56,207.62C552.73,208.32 551.87,208.45 551,208C545.71,206.65 540.73,205.14 536.58,201.41C534.96,200.17 533.87,198.31 532.23,197.16C532.47,199.76 534.87,202.25 534.83,204.77C532.26,204.33 529.58,202.99 527.32,201.71C522,198.33 520.48,190.38 517.47,186.3C517.23,188.82 517.29,191.16 517.58,193.66C514.19,191.91 511,187.85 509.63,184.23C507.88,176.43 511.11,170.84 511.38,163.21Z" style="fill:rgb(200,136,10);fill-rule:nonzero;"/>
            <path d="M518.51,164.57C522.15,167.2 524.21,172.33 523.74,176.75C520.2,174.68 517,171.42 517.28,167C517.6,165.89 516.55,163.63 518.51,164.57Z" style="fill:rgb(200,136,10);fill-rule:nonzero;"/>
            <path d="M541.97,169.81C544.34,169.64 546.58,170.03 548.92,170.27C551.08,171.27 552.34,172.9 555,172.58C557.37,172.68 559.18,170.26 561.59,171.45C564.48,173.67 566.22,177.09 565.7,180.79C564.17,180.75 562.95,179.08 561.55,178.49C558.96,177.31 556.27,176.92 553.92,175.18C549.31,177.52 544.36,177.25 539.46,179.37C538.26,179.95 538.26,178.58 537.27,178.31C535.35,180.67 533.95,183.95 531.25,185.34C530.07,185.73 528.12,186.13 527.46,184.73C529.21,181.92 530.19,178.78 532.19,176.12C534.48,172.9 538.22,170.85 541.97,169.81Z" style="fill:rgb(200,136,10);fill-rule:nonzero;"/>
            <path d="M503.56,177.4C505.34,181.73 503.39,186.58 505.89,191.05C507.59,193.73 509.38,196.5 511.66,198.72C509.72,198.51 508.59,195.99 507.25,194.75C503.81,191.59 500.5,189.01 498.38,184.69C498.03,181.71 498.56,178.43 499.57,175.59C500.68,174 502.87,176.46 503.56,177.4Z" style="fill:rgb(200,136,10);fill-rule:nonzero;"/>
            <path d="M546.98,184.76C550.4,184.67 554.71,183.91 557.92,185.1C557.54,187.07 557.2,188.63 557.64,190.64C555.75,188.92 553.75,187.17 550.98,188.01C548.57,188.17 547.59,190.03 545.51,190.77C545.77,189.87 546,188.97 546.2,188.07C545.77,187.37 545.35,186.66 544.93,185.95C545.05,185.21 545.73,184.81 546.98,184.76Z" style="fill:rgb(117,74,204);fill-rule:nonzero;"/>
            <path d="M492.98,185.48C499.94,194.7 508.24,202.53 517.18,209.8C522.01,213.54 525.74,218.39 528.63,223.74C527.08,223.65 526.1,222.04 524.8,221.21C521.48,218.85 518.58,215.66 514.99,213.75C512.92,214.23 511.3,216.42 509.8,217.84C507.4,220.19 506.09,223.2 502.16,222.78C496.6,216.01 494.64,208.64 491.09,200.95C489.97,198.26 488.14,195.74 487.25,193.02C488.62,190.62 490.55,186.75 492.98,185.48Z" style="fill:rgb(200,136,10);fill-rule:nonzero;"/>
            <path d="M459.75,204.37C461.32,205.14 462.57,207 463.7,208.32C467.82,213.75 472.84,218.71 476.76,224.23C479.33,229.25 480.46,235.49 482.29,240.84C483.41,245.11 481.93,249.47 480.44,253.46C479.68,254.7 478.23,256.97 476.53,256.61C476.9,247.38 474.6,238.42 470.36,230.26C470.81,237.39 470.73,244.44 470.41,251.57C469.72,251.69 469.36,251.47 469.35,250.92C467.53,244.75 464.66,239.16 459.29,235.36C459.82,237.72 461.36,239.64 461.94,242.02C463.72,248.2 465.56,254.7 462.8,260.91C462.22,262.06 461.47,264.63 459.9,264.64C457.59,265.17 456.08,262.84 454.21,261.77C449.7,258.33 444.47,256.38 438.99,255.12C431.72,253.02 424.67,253.65 417.34,254.73C418.26,252.38 419.58,250.07 420.94,247.95C424.38,243.52 429.66,240.17 434.43,237.33L434.64,236.42C432.58,236.16 429.76,238.05 428.14,237.05C428.16,233.47 430.24,230 431.92,226.96C434.57,221.84 438.13,217.22 442.39,213.35C443.49,212.5 444.46,211.14 446.02,211.55C452.77,213.75 458.27,218.23 462.68,223.71C461.16,218.53 458.32,213.37 454.06,209.92C453.45,209.21 451.76,208.44 452.25,207.33C454.66,206.26 457.22,205.08 459.75,204.37Z" style="fill:rgb(200,136,10);fill-rule:nonzero;"/>
            <path d="M561.62,212.35C563.89,216.34 565.38,220.74 567.57,224.78C564.26,223.83 561.57,220.22 558.66,218.35C557.47,217.6 556.35,218.78 555.53,219.53C551.68,223.07 548.47,227.64 544.27,230.72C545.98,225.56 548.28,220.44 550.5,215.47C552.46,213.84 555.62,215.05 557.9,213.76C559.01,213.44 560.51,211.81 561.62,212.35Z" style="fill:rgb(200,136,10);fill-rule:nonzero;"/>
            <path d="M571.23,216.2C574.48,216.69 577.7,218.9 580.62,220.39C582.61,221.69 585.86,223.13 586.44,225.63C587.33,230.94 588.11,236.36 588.39,241.73C589.75,238.47 590.88,234.82 591.59,231.37L592.45,231.48C594.84,235.62 597.56,239.32 599.07,243.93C601.32,248.64 601.5,253.83 603.5,258.58L604.68,258.78C604.91,257.93 605.13,257.07 605.34,256.2C606.35,256.23 606.89,257.86 607.43,258.56C608.77,260.7 609.68,263.56 607.56,265.55C603.2,270 598.05,273.7 593.32,277.76C592.17,272.9 591.83,267.8 591.31,262.85C590.33,258.95 589.3,255.05 588.44,251.12C588.3,250.52 587.93,248.8 587.42,248.55C587.63,259.48 587.48,270.21 585.62,281.02C585.42,283.64 584.39,286 584.48,288.68C584.16,288.32 583.87,287.95 583.6,287.57C583.6,281.65 582.75,275.88 582.2,270C581.16,264.61 581.12,258.76 579.6,253.47C568.06,251.49 556.1,250.94 544.4,250.5C543.11,249.52 543.65,247.43 543.51,246C543.5,243.14 543.35,240.61 545.25,238.26C548.59,234.03 552.3,229.89 556.44,226.43C558,226.24 560.59,228.19 561.54,229.37C563.33,234.85 563.29,240.95 564.41,246.58C568.2,247.7 572.14,247.41 576,248.25L576.86,247.91L577.22,247.01C576.84,242.06 575.25,236.97 575.78,232.01C574.87,226.63 572.22,221.59 571.23,216.2Z" style="fill:rgb(200,136,10);fill-rule:nonzero;"/>
            <path d="M534.02,222.22C536.28,222.18 538.55,222.2 540.81,222.28C540.7,224.56 539.7,226.82 539,228.98C538.85,229.84 538.37,230.01 537.55,229.5C536.52,227.47 533.75,224.42 534.02,222.22Z" style="fill:rgb(200,136,10);fill-rule:nonzero;"/>
            <path d="M518.38,223.28C520.95,223.21 522.53,225.02 524.62,226.36C530.18,230.22 536.83,235.26 539.26,241.83C539.69,244.47 540.22,247.08 540.7,249.72C538.74,250.55 537.34,250.12 535.39,249.57C533.64,247.25 532.95,243.76 531.69,241.26C530.33,239.07 528.32,237.78 527.86,235.06C527.24,232.02 524,230.92 522,228.99C520.93,226.94 519.89,225.05 518.38,223.28Z" style="fill:rgb(200,136,10);fill-rule:nonzero;"/>
            <path d="M512,225.64C514.1,225.52 515.62,227.06 516.25,228.96L515.86,229.82C512.31,231.39 508.18,231.98 504.35,232.46L504.37,233.57C508.34,235.42 513.84,234.05 518,233.72C520.57,233.75 522.97,235.06 523.65,237.67C519.27,239.35 514.04,239.59 509.38,239.49C509.07,241.58 512.63,241.66 514,241.78C517.94,242.59 521.84,241.9 525.79,242.28C527.04,243.02 528.64,244.98 528.6,246.5C524.46,248.36 519.65,247.04 515.23,248.36C519.43,251.68 523.72,250.08 528.56,250.51C532.17,250.92 533.88,256.13 531.62,258.62C530.24,259.06 529.73,257.02 528.7,256.41C525.7,258.09 522.32,258.05 519.31,259.35C513.95,265.86 513.24,273.32 506.15,277.21C502.61,279.3 498.99,278.94 495.13,278.18C495.31,278.99 495.46,279.81 495.59,280.63C494.42,281.38 493.25,282.32 491.93,282.77C487.31,283.19 482.29,281.63 477.77,282.63C476.3,283.7 474.09,285.72 473,287.14C470.17,287.81 467.59,289.65 465.01,290.96C460.23,294.08 455.09,296.43 449.9,298.75C442.82,301.91 436.14,304.96 428.29,305.4C431.74,306.44 437.07,307.34 440.74,307.48C438.04,309.25 434.92,310.58 432.06,312.11C427.03,313.9 422.58,316.15 417.45,316.61C415.38,316.81 413.7,319.28 412,320.4C407.17,318.42 403.39,313.18 402.63,308.02C402.51,304.27 403,300.5 403.59,296.81C405.92,288 413.09,281.84 421.19,278.33C424.01,277.23 426.66,276.14 429.76,276.32C425.37,281.12 421.26,285.28 419.3,291.72C426.22,285.42 433.37,279.7 442.24,276.36C449.6,273.19 457.42,271.61 464.91,268.8C471.55,266.89 477.35,263.48 483.53,260.6C486.85,251.46 490.03,242.3 492.91,233.01C494.44,229.69 497.89,229.46 501.01,228.63C504.76,228.03 508.24,226.28 512,225.64Z" style="fill:rgb(200,136,10);fill-rule:nonzero;"/>
            <path d="M501.82,235.23C499.91,236.87 498.79,238.99 497.23,240.82C496.47,239.03 496.83,237.35 497.62,235.65C499.06,234.46 500.16,234.62 501.82,235.23Z" style="fill:rgb(117,74,204);fill-rule:nonzero;"/>
            <path d="M506.66,242.38C507.61,243.16 503.93,247.99 503.1,247.92C502.3,245.1 503.06,241.74 506.66,242.38Z" style="fill:rgb(117,74,204);fill-rule:nonzero;"/>
            <path d="M512.9,251.14C512.23,253.16 510.55,255.02 509.31,256.75C508.75,254.13 508.96,249.55 512.9,251.14Z" style="fill:rgb(117,74,204);fill-rule:nonzero;"/>
            <path d="M569.42,257.5C571.22,256.97 574.2,256.8 574.88,259.06C576.41,261.73 574.13,265.03 571.1,264.57C567.84,264.36 567.1,259.15 569.42,257.5Z" style="fill:rgb(200,136,10);fill-rule:nonzero;"/>
            <path d="M448.82,265.22C449.64,265.84 451.24,266.27 450.71,267.6C448.13,268.64 445.88,269.86 443,269.44C432.41,268.63 421.51,270.87 412.4,276.41C407.05,279.68 403.76,284.39 399.45,288.7C399.52,286.47 399.09,283.95 399.72,281.81C402.19,277.04 407.08,273.37 411.56,270.59C415.19,268.27 419.29,266.92 423.53,266.28C423.94,266.04 424.32,265.78 424.7,265.49C422.4,265.6 420.12,265.44 417.83,265.64C412.53,266.18 408.29,268.81 403.49,270.73C404.08,269 404.43,267 405.6,265.61C408.07,263.33 411.52,262.5 414.65,261.57C425.97,257.97 438.58,259.1 448.82,265.22Z" style="fill:rgb(200,136,10);fill-rule:nonzero;"/>
            <path d="M528.64,262.4C534.05,266.86 538.04,273.03 543.19,277.82C544,278.84 546.1,280.32 545.76,281.76C544.08,282.76 542.29,283.54 540.67,284.65C539.13,286.12 538.23,288.16 536.81,289.69C534.35,288.28 532.21,284.12 530.03,281.99C526.97,277.91 522.81,274.14 520.47,269.64C521.1,265.8 524.41,261.74 528.64,262.4Z" style="fill:rgb(200,136,10);fill-rule:nonzero;"/>
            <path d="M616.53,264.43C617.83,266.16 618.66,268.76 618.71,270.92C618.44,272.71 616.51,274.3 615.37,275.65C617.71,275.37 620.61,274.9 622.68,276.34C624.04,277.5 623.89,280.03 623.61,281.61C620.45,283.17 616.99,283.96 613.96,285.87C607.42,290.08 601.83,295.25 596.3,300.67C596.31,299.92 596.41,299.2 596.59,298.5C599.47,293.69 602.15,289.15 606.21,285.21C607.8,283.63 609.52,282.26 610.7,280.31C610.07,280.41 609.45,280.54 608.84,280.7C602.56,283.52 597.66,287.66 592.27,291.65C594.84,285.84 599.4,280.39 604.13,276.14C608.27,272.44 612.46,269.72 614.07,264.06C614.23,262.51 616.1,263.65 616.53,264.43Z" style="fill:rgb(200,136,10);fill-rule:nonzero;"/>
            <path d="M550.62,285.36C552.07,287.7 550.51,290.98 548.69,292.69C546.57,294.53 544.38,296.11 541.4,295.53C540.02,294.67 540.42,293.15 540.71,291.81C542.38,287.96 546.13,284.49 550.62,285.36Z" style="fill:rgb(200,136,10);fill-rule:nonzero;"/>
            <path d="M473,287.14C477.19,287.43 481.42,287.08 485.62,287.52C485.78,288.89 484.82,289.12 483.99,289.97C474.66,297.5 466.17,305.58 456.03,312.1C448.1,316.59 439.56,319.96 430.31,319.67C437.86,315.32 444.9,310.05 452.13,305.18C457.83,301.67 463.1,297.48 468.35,293.34C469.92,291.57 472.59,289.54 473,287.14Z" style="fill:rgb(200,136,10);fill-rule:nonzero;"/>
            <path d="M622.97,289.77C624.57,290.89 625.37,293.14 626.24,294.84C627.8,298.43 629.16,302.18 630.28,305.94C631.37,311.66 633.24,317.36 633.23,323.56C622.78,323.62 612.42,323.51 601.98,323.54C600.98,323.58 600.02,323.43 599.11,323.1C598.35,319.99 597.09,317.28 597.34,313.99C597.1,310.91 598.79,308.83 600.5,306.48C601.48,305.52 601.92,304.09 603.5,304.35C603.45,307.68 604.15,310.85 605.14,314.01C605.55,314.82 605.55,316.97 606.81,316.88C608.22,311.18 608.39,304.68 610.1,299.08C613.04,295.11 618.28,291.22 622.97,289.77Z" style="fill:rgb(200,136,10);fill-rule:nonzero;"/>
        </g>
    </g>
</svg>
