<?xml version="1.0" encoding="UTF-8" standalone="no"?>
<!DOCTYPE svg PUBLIC "-//W3C//DTD SVG 1.1//EN" "http://www.w3.org/Graphics/SVG/1.1/DTD/svg11.dtd">
<svg width="100%" height="100%" viewBox="0 0 983 811" version="1.1" xmlns="http://www.w3.org/2000/svg" xmlns:xlink="http://www.w3.org/1999/xlink" xml:space="preserve" xmlns:serif="http://www.serif.com/" style="fill-rule:evenodd;clip-rule:evenodd;stroke-linejoin:round;stroke-miterlimit:2;">
    <g transform="matrix(1,0,0,1,-20.866216,-169.788246)">
        <g transform="matrix(2.938761,0,0,2.938761,-994.001004,-47.196465)">
            <path d="M520.22,74.75C522,75.44 523.86,76.18 525.75,76.42C534.32,77.47 542.51,80.11 550.35,83.65C553.4,85.13 555.85,87.03 559.27,87.68C565.54,89.81 566.5,95.06 571.05,98.94C580.35,108.03 586.03,120.21 589.56,132.56C590.82,134.92 593.25,136.26 594.03,139.01C595.11,142.58 596.41,146.27 596.54,150.01C596.62,152.75 597.67,155.22 597.42,158C597.54,159.78 596.55,161.16 596.34,162.94C596.84,164.9 598,167.14 599.32,168.69C601.88,171.69 606.21,172.46 608.59,175.43C610.58,177.45 611.31,180.32 612.25,182.94C613.48,190.31 614.14,198.6 612.74,206C612.44,211.57 611.36,217.19 609.37,222.41C606.24,227.2 600.77,227.97 597.46,232.44C595.55,235.27 594.29,238.54 594.65,242C594.88,245.41 593.97,248.35 593.33,251.62C599.82,251.98 606.54,251.92 612.93,250.58C616.21,250.44 619.88,248.75 623.07,249.02C623.28,249.87 623.47,250.72 623.65,251.58C634.4,251.97 645.25,251.71 656.01,251.38C658.72,251.39 661.3,250.57 664.01,250.55C669.37,250.3 674.36,248.25 679.54,247.39C679.67,251.09 679.59,254.62 678.19,258.1C674.85,265.77 669.73,272.43 661.92,275.89C657.73,277.47 657.62,281.03 655.33,284.35C651.85,289.06 647.25,292.65 641.73,294.69C639.58,295.67 637.4,295.79 636.19,298.08C631.92,304.99 624.81,309.17 617.02,310.96C614.39,311.97 610.73,310.84 608.42,312.43C603.55,316.89 598.2,321.67 591.38,322.52C588.28,322.66 586.03,323.8 582.99,323C580.74,322.46 578.29,322.59 575.98,322.26C573.9,321.69 571.44,321.02 569.27,321.35C567.65,323.41 566.62,325.97 565.22,328.19C561.48,334.9 555.27,339.76 549,343.98C544.64,347.01 539.77,348.38 534.65,349.54C531,350.21 527.63,348.91 523.99,349.67C521.07,349.37 517.21,348.5 514.48,347.44C512,344.51 508.39,343.84 505.66,341.35C504.19,338.51 502.15,336.06 500.66,333.27C500.38,331.06 500.07,329.22 498.64,327.42C496.66,325.31 498.26,322.5 496.83,320.42C493.79,322.75 490.78,323.81 487,324.3C481.27,323.21 475.68,321.43 470.03,319.95C468.16,319.55 466.03,318.01 464.14,318.39C456.91,320.4 449.48,322.29 441.99,322.89C439.04,323.78 436.61,322.61 433.65,322.49C427.58,321.29 422.64,318.02 418.3,313.72C415.88,311.12 413.16,311.73 410.01,311.37C401.16,310.09 392.72,304.53 388.13,296.87C386.69,295.87 384.82,295.45 383.22,294.75C378.28,292.86 373.88,289.53 370.56,285.43C368.67,283.1 367.74,280.34 366.16,277.83C362.89,275.64 359.22,274.5 356.33,271.67C349.63,265.51 344.51,256.78 345.45,247.37C351.03,248.55 356.09,250.62 362,250.58C365.05,250.55 367.89,251.55 370.95,251.46C381.06,251.7 391.23,251.9 401.34,251.52C401.85,250.12 401.94,248.16 404.01,248.86C413.13,251.12 422.27,252.24 431.67,251.6C431.54,250.04 431.05,248.59 430.61,247.1C430.06,244.52 430.38,241.59 430.3,238.96C429.72,236.4 428.64,234.04 427.08,231.92C424.6,228.85 420.44,227.25 417.42,224.62C415.35,223.24 414.87,220.2 414.14,217.97C411.53,205.03 409.73,191.1 414.44,178.4C416.91,172.58 423.48,172.41 426.87,166.93C427.65,165.35 429.05,163.66 428.33,161.82C426.78,157.29 428.22,152.56 428.65,148.01C429.46,144.51 429.98,140.74 431.61,137.58C432.61,135.99 434.15,134.78 435.22,133.21C436.63,129.49 437.31,125.66 439.04,122.06C441.67,116.6 444.3,110.81 447.87,105.91C450.82,101.84 454.81,98.8 457.68,94.67C459.76,91.93 462.37,88.48 465.93,87.72C470,87.06 473.44,83.85 477.42,82.48C484.96,79.7 492.98,76.84 501.03,76.3C507.14,73.42 513.71,73.29 520.22,74.75Z" style="fill-rule:nonzero;"/>
            <path d="M511.32,81.23C512.1,81.21 512.89,81.21 513.67,81.24C513.43,85.91 514.63,90.32 514.39,95C514.19,98.45 514.94,102.47 513.63,105.71C512.89,105.73 512.14,105.71 511.4,105.68C509.95,101.79 510.8,97.11 510.6,93C510.38,88.99 511.47,85.22 511.32,81.23Z" style="fill:rgb(170,48,11);fill-rule:nonzero;"/>
            <path d="M468.61,95.31C469.91,98.68 470.3,103.01 470.67,106.66C469.84,106.87 469.03,106.9 468.25,106.74C466.58,103.67 465.92,99.77 465.5,96.33C466.36,95.66 467.51,95.14 468.61,95.31Z" style="fill:rgb(170,48,11);fill-rule:nonzero;"/>
            <path d="M556.52,95.35C557.81,95.34 558.74,95.26 559.58,96.4C559.4,99.46 558.26,102.66 557.56,105.66C557.38,107.33 555.49,106.64 554.36,106.65C554.44,102.83 555.61,99.04 556.52,95.35Z" style="fill:rgb(170,48,11);fill-rule:nonzero;"/>
            <path d="M480.01,111.17C483.23,110.45 486.71,110.77 490.01,110.74C492.99,111.28 495.71,111.04 498.34,112.67C503.22,115.36 505.09,121.9 502.72,126.87C500.08,132.65 495.96,137.03 491.5,141.45C487.27,145.26 481.66,146.96 476.26,148.42C470.92,149.21 464.2,150.54 459.18,147.83C453.52,144.66 452.15,138 452.27,132.01C451.99,127.01 454.02,121.15 457.92,117.9C464.08,113.41 472.54,111.71 480.01,111.17Z" style="fill:rgb(170,48,11);fill-rule:nonzero;"/>
            <path d="M531.04,111.36C535.51,110.68 540.54,110.24 545,111.22C550.4,111.47 555.52,112.69 560.6,114.48C566.26,116.82 571.23,120.58 572.31,126.97C572.6,131.46 573.04,136.46 571.62,140.79C570.05,145.21 566.72,148.37 562.04,149.21C552.54,150.28 542.51,147.71 534.56,142.43C529.64,138.05 524.55,133.07 522.28,126.77C519.12,120.88 524.03,111.21 531.04,111.36Z" style="fill:rgb(170,48,11);fill-rule:nonzero;"/>
            <path d="M506.24,113.44C507.86,113.35 509.41,113.18 511,112.85C513.62,112.49 516.13,113.47 518.79,113.37C517.61,116.67 515.88,119.33 516.22,123.01C516.09,129.89 520.16,133.9 523.82,139.14C529.23,146.65 537.08,151.62 545.99,153.92C552.21,155.37 559.87,156.55 565.89,153.89C569.06,152.67 571.15,150.34 573.68,148.23C574.08,152.92 571.28,156.1 567.98,158.98C562.47,162.95 556.3,163.05 549.81,162.22C543.26,160.24 537.17,158.57 531.52,154.47C526.28,150.45 522.68,145.4 519.03,139.99C517.66,138.05 516.24,135.86 513.74,135.36C511.2,134.7 508.66,136.25 507.32,138.35C503.42,143.9 499.85,149.21 494.62,153.65C490.2,157.58 483.86,159.67 478.28,161.36C472.39,162.92 464.94,163.67 459.46,160.5C455.01,158.26 450.84,153.57 451.27,148.28C454.38,151.05 457.89,153.86 462.02,154.87C470.45,156.61 477.89,154.53 485.8,151.75C495.2,147.87 500.57,140.14 506.15,132.09C509.79,126.18 508.9,119.52 506.24,113.44Z" style="fill:rgb(170,48,11);fill-rule:nonzero;"/>
            <path d="M482.55,115.44L483.68,116.9C480.64,125.3 475.5,132.81 472.3,141.27C470.98,144.2 469.99,146.67 466.21,144.94C466.64,142.74 467.68,140.63 468.67,138.63C471.16,134.02 473.08,129.11 475.36,124.39C476.22,122.41 477.42,120.43 477.77,118.33C476.62,118.34 475.47,118.36 474.33,118.41C472.17,120.48 471.19,124.05 469.6,126.62C466.49,132.14 464.4,138.41 460.7,143.53C459.2,143.07 457.66,139.6 456.74,138.21C455.81,132.81 456.22,127.05 459.52,122.48C462.38,118.91 466.41,117.49 470.73,116.56C474.46,116.31 478.85,114.96 482.55,115.44Z" style="fill-rule:nonzero;"/>
            <path d="M541.01,114.79C544.33,115.42 547.69,115.61 551.01,116.3C555.99,116.37 560.73,118.18 564.41,121.55C568.73,126.54 569.44,133.64 567.4,139.78C567.25,135.3 567.95,131.43 566.01,127.14C564.22,123.51 560.36,120.87 556.36,120.47C553.69,123.91 552.22,128.25 549.89,131.95C547.76,135.27 546.39,138.99 544.31,142.32C543.44,143.3 541.18,142.2 540.24,141.72C540.73,138.62 543.5,135.76 544.74,132.85C546.73,128.16 549.43,123.86 551.53,119.22C550.63,118.16 548.69,118.28 547.43,118.43C544.63,123.88 541.36,129.03 538.62,134.51C537.88,135.95 537.22,137.3 535.96,138.37C532.16,136.58 529.24,131.53 526.85,128.13C524.92,125.38 524.98,122.11 525.79,118.98C526.84,117.12 528.66,116.21 530.6,115.55C534.13,115.29 537.5,114.5 541.01,114.79Z" style="fill-rule:nonzero;"/>
            <path d="M445.52,136.27C445.75,140.38 445.91,144.55 445.61,148.65C443.35,151.01 439.42,152.87 436.31,153.82C436.25,149.71 436.74,145.81 437.8,141.85C439.2,139.61 442.98,136.92 445.52,136.27Z" style="fill:rgb(170,48,11);fill-rule:nonzero;"/>
            <path d="M579.42,136.27C582.49,136.79 585.12,139.71 587.19,141.87C588.25,145.38 588.5,149.99 588.61,153.73C585.42,153.16 582.42,150.99 579.78,149.19C579.03,148.1 579.47,146.28 579.09,145C578.22,141.92 579.31,139.33 579.42,136.27Z" style="fill:rgb(170,48,11);fill-rule:nonzero;"/>
            <path d="M499.01,160.82C502.9,161.61 507.04,161.29 511,161.42C516.08,161.35 520.98,161.63 525.99,160.71C529.05,160.29 531.38,161.77 533.74,163.47C530.82,163.38 528.06,163.88 525.19,164.33C516.96,164.69 508.7,164.65 500.46,164.36C497.37,164 494.44,163.21 491.28,163.45C493.39,161.9 496.36,160.51 499.01,160.82Z" style="fill:rgb(170,48,11);fill-rule:nonzero;"/>
            <path d="M456.64,166.27C454.58,169.44 451.79,171.84 450.1,175.16C447.38,180.1 446.88,186.5 445.88,191.99C445.25,196.26 445.82,200.76 444.94,205C443.86,210.32 445.73,214.72 445.41,220C445.77,224.8 444.23,229.22 444.32,234.01C443.21,239.79 443.96,245.78 443.48,251.65C441.51,252 439.74,250.89 439.44,248.9C439.19,244.96 439.21,240.82 440.28,237C440.86,231 440.27,224.9 441.3,219.03C441.59,215.98 441.43,213.01 442.22,210.01C442.62,203.67 441.92,197.24 443.36,190.99C444.06,182.78 446.44,173.3 452.15,167.07C453.46,165.72 455.02,164.71 456.64,166.27Z" style="fill:rgb(170,48,11);fill-rule:nonzero;"/>
            <path d="M570.67,165.56C576.9,170.17 579.22,177.75 580.84,184.99C581.84,188.37 581.43,191.53 581.81,195.01C582.96,199.87 582.07,205.1 583.11,209.99C583.66,214.29 583.62,218.69 583.81,223.01C584.57,227 584.4,230.98 584.74,235.01C585.64,239.64 586.17,244.61 585.41,249.28C584.67,250.6 584.2,251.98 582.4,251.56C581.8,251.08 581.53,250.53 581.58,249.9C581.23,245.63 581.74,241.19 580.74,237.04C580.18,230.69 580.47,224.33 579.78,218C580.3,211.13 580.85,203.87 579.66,197.05C579.21,190.09 577.97,182.91 575.62,176.32C574.01,172.62 571.33,169.22 568.4,166.47C569.15,166.14 569.91,165.83 570.67,165.56Z" style="fill:rgb(170,48,11);fill-rule:nonzero;"/>
            <path d="M481.01,170.17C495.44,172.31 510.43,173.03 525.01,172.19C529.62,171.31 534.46,171.91 539.01,170.8C543.06,170.3 546.88,169.26 551,169.53C557.2,169.89 564.34,173.05 566.96,179.04C569.46,183.64 569.21,189.6 570.42,194.76C571.63,201.28 569.02,207.92 564.88,212.88C562.46,215.47 558.7,217.94 555.02,217.72C546.1,217.9 537.34,212.93 530.74,207.27C527.98,205.09 526.66,201.84 526.29,198.42C530.29,199.01 533.69,200.99 537.86,200.75C536.7,199.04 534.75,197.71 533.25,196.29C537.66,194.75 542.64,196.49 547.24,195.35C549.5,194.54 551.65,193.04 553.99,192.56C554.92,192.93 555.87,193.26 556.82,193.55C555.46,188.07 551.04,187.03 546.3,185.54C548.2,184.19 550.6,182.51 552.99,182.48C556.39,182.19 559.37,183.7 562.77,183.76C560.35,180.68 557.24,177.57 553.35,176.53C548.77,175.65 545.35,177.76 541.14,179.22C537.55,180.86 533.76,181.77 530.08,183.16C527.43,183.86 524.7,185.03 521.94,184.24C519.86,183.46 518.88,181.81 517.4,180.29C517.51,182.26 517.29,184.3 517.65,186.24C518.51,188.1 519.89,189.97 520.31,191.98C520.55,194.18 520.62,196.4 520.78,198.6C515.88,197.12 510.38,196.49 505.55,198.55C504.08,199.09 502.81,200.13 501.33,200.67C502.13,198.51 503.8,196.65 504.38,194.31C504.98,192.01 505.46,189.75 506.67,187.67C508.15,185.45 507.56,182.84 507.68,180.2C506.14,181.71 505.13,183.38 503.06,184.24C500.4,184.99 498.31,183.94 495.78,183.28C491.52,181.83 487.18,180.67 483.01,178.95C479.43,177.85 476.94,175.93 473.11,176.41C468.25,177.11 465.35,180.2 462.29,183.7C468.16,181.98 473.73,181.21 478.75,185.5C473.96,186.78 469.9,188.52 468.17,193.55C469.5,193.38 470.74,192.97 472.02,192.6C474.33,193.16 476.41,194.65 478.58,195.48C482.83,196.11 487.37,195.57 491.67,195.49L491.5,196.58C489.37,198.67 486.95,200.33 484.31,201.73C486.64,201.34 488.94,200.85 491.25,200.37C494.3,199.68 496.68,198.35 499.66,198.39C498.39,204.33 494.2,207.13 489.97,210.94C483.8,215.24 475.31,218.81 467.69,217.41C459.52,215.4 456.46,208.14 454.39,200.78C453.86,195.89 455.13,191.72 455.76,186.96C456.74,182.77 457.91,177.28 461.44,174.45C466.64,169.69 474.32,168.63 481.01,170.17Z" style="fill:rgb(170,48,11);fill-rule:nonzero;"/>
            <path d="M432.77,172.39C435.96,177.46 435.02,185.27 436.19,190.99C436.33,193.62 436.44,196.39 436.11,199C435.09,203.74 436.13,209.2 434.43,213.73C434.56,210.8 434.57,207.92 434.24,204.98C433.14,201.18 433.65,196.93 433.42,193C433.65,187.66 432.4,182.24 430.63,177.23C429.91,175.78 431.47,172.89 432.77,172.39Z" style="fill:rgb(170,48,11);fill-rule:nonzero;"/>
            <path d="M592.56,172.33C593.59,174.3 595.14,175.71 594.15,178.01C591.59,184.95 592.16,192.81 590.79,199.98C590.42,201.37 591.13,203.6 589.98,204.58C589.06,203.36 589.08,201.47 588.67,200.02C588.16,193.55 588.97,187.36 589.96,181C590.56,178.49 590.53,174.19 592.56,172.33Z" style="fill:rgb(170,48,11);fill-rule:nonzero;"/>
            <path d="M426.72,178.33C428.22,179.98 428.17,183.75 426.04,185.03C422.57,188.39 422.24,192.47 421.69,196.99C421.63,202.25 421.41,207.52 421.57,212.77C419.92,209.89 420.73,207.13 419.99,203.99C418.66,196.92 419.98,190.71 420.64,183.73C421.59,181.55 424.26,178.49 426.72,178.33Z" style="fill:rgb(170,48,11);fill-rule:nonzero;"/>
            <path d="M598.24,178.38C601.18,179.2 604.09,182.05 604.57,185.12C606.01,190.49 605.53,196.49 605.5,202.02C605.38,203.25 605.68,204.6 604.09,204.9C603.18,202.45 603.72,199.54 603.06,197C602.28,194.32 602.92,191.81 601.65,189.31C600.8,186.81 598.31,185.17 597.24,182.91C597.27,181.54 597.06,179.34 598.24,178.38Z" style="fill:rgb(170,48,11);fill-rule:nonzero;"/>
            <path d="M515.88,203.38C523.08,205.33 526.77,213.19 533.01,216.99C540.27,221.31 548.87,224.38 557.41,223.56C562.88,222.84 566.82,219.81 570.79,216.23C571.03,220.56 567.41,223.15 564.03,225.03C557.53,228.89 549.25,228.03 542.41,225.56C539.97,224.81 537.62,223.32 535.11,223.15C534.72,226.39 536.9,230.16 536.66,233.77C534.79,228.75 531.67,224.59 528.92,220.05C526.11,215.77 522.57,211.59 518.34,208.66C517.01,208.22 514.42,206.82 513.3,208.13C512.04,214.58 513.34,221.77 512.24,228.19C510.26,229.34 508.01,229.81 506.04,231.05C503.41,232.7 500.94,234.6 498.36,236.34C494.13,239.24 491.19,243.03 487.39,246.38C485.79,247.78 484.25,249.24 482.79,250.79C482.08,251.35 481.2,252.87 480.21,252.68C477.95,250.41 475.94,247.57 474.43,244.76C478.48,237.62 484.24,231.97 487.87,224.4C479.31,226.98 470.13,229.37 461.6,225.39C458.13,223.64 453.75,220.52 454.19,216.1C458.62,219.63 462.9,223.61 469,223.56C477.12,224.22 485.04,221.06 491.84,216.87C496.15,214.1 499,210.07 502.75,206.73C506.28,203.99 511.44,201.64 515.88,203.38Z" style="fill:rgb(170,48,11);fill-rule:nonzero;"/>
            <path d="M502.76,213.3C502.29,216.77 499.94,220.19 498.26,223.21C496.01,226.89 494.17,230.71 490.22,232.82C490.21,229.32 491.81,226.51 493.57,223.61C495.85,219.55 498.93,215.98 502.76,213.3Z" style="fill-rule:nonzero;"/>
            <path d="M459.21,229.51C462.42,231.21 465.72,231.84 469.18,232.81L469.74,233.86C469.02,236.82 467.71,239.81 466.54,242.64L465.59,242.52C463.06,238.46 461.33,233.75 459.21,229.51Z" style="fill:rgb(170,48,11);fill-rule:nonzero;"/>
            <path d="M565.79,229.49C564.28,233.3 562.36,236.9 560.5,240.54C559.97,241.39 559.44,242.4 558.4,242.69C557.1,239.52 555.85,236.35 554.42,233.23C557.95,231.46 562.25,231.81 565.79,229.49Z" style="fill:rgb(170,48,11);fill-rule:nonzero;"/>
            <path d="M520.63,238.37C522.77,240.17 525.5,242.05 526.8,244.57C521.67,240.98 514.92,237.81 508.58,239.5C504.99,240.1 502.37,242.09 499.31,243.82C501.47,241.3 503.73,238.19 506.69,236.69C511.26,234.09 516.68,235.18 520.63,238.37Z" style="fill:rgb(170,48,11);fill-rule:nonzero;"/>
            <path d="M457.57,244.73L457.66,244.81L457.73,244.89C459.05,247.36 461.16,249.88 461.74,252.65C460.97,252.61 460.21,252.54 459.45,252.45C456.29,250.83 457.78,247.76 457.42,244.81L457.57,244.73Z" style="fill:rgb(170,48,11);fill-rule:nonzero;"/>
            <path d="M548.27,244.32L549.64,244.36C550.16,247.19 546.82,249.63 545.29,251.77C545.38,249.08 546.69,246.45 548.27,244.32Z" style="fill:rgb(170,48,11);fill-rule:nonzero;"/>
            <path d="M567.67,245.17C567.65,246.88 567.66,248.61 567.41,250.29C566.72,252.25 565.1,252.5 563.29,252.68C563.78,249.83 565.47,247.04 567.67,245.17Z" style="fill:rgb(170,48,11);fill-rule:nonzero;"/>
            <path d="M470.34,249.37C472.48,248.56 474.23,252.35 475.31,253.72C476.51,255.79 474.28,256.75 472.83,257.68C471.34,257.43 469.85,255.13 468.98,253.94C467.64,252.56 469.24,250.32 470.34,249.37Z" style="fill:rgb(170,48,11);fill-rule:nonzero;"/>
            <path d="M555.71,251.11C556.51,254.21 554.44,255.55 552.7,257.65C551.49,257.26 550.43,256.33 549.46,255.54C548.97,253.65 551.09,251.53 552.12,250.09C553.3,248.53 555.45,249.2 555.71,251.11Z" style="fill:rgb(170,48,11);fill-rule:nonzero;"/>
            <path d="M669.7,257.45C668.75,260.66 666.1,263.5 663.59,265.61C658.58,270.14 651.75,272.73 645,272.61C632.46,272.75 619.9,272.45 607.36,272.48C607.17,271.73 607.21,271.08 607.47,270.51C610.76,268.75 613.59,266.91 616.07,264.06C618.02,262.34 618.92,259.31 621.98,259.68C632.66,259.68 643.33,259.68 654.01,259.34C659.25,258.93 664.43,257.33 669.7,257.45Z" style="fill:rgb(170,48,11);fill-rule:nonzero;"/>
            <path d="M356.21,258.14C357.75,257.17 360.32,257.69 362.01,258.08C375.32,260.36 389.51,259.39 403.03,259.75C406.52,259.82 407.59,262.95 409.93,265.1C412.34,267.94 415.47,269.4 418.58,271.28C418.36,272.56 416.99,272.37 416.02,272.41C404.35,272.46 392.67,272.64 381,272.67C373.95,273 366.81,270.05 361.43,265.6C359.29,263.78 356.43,261.09 356.21,258.14Z" style="fill:rgb(170,48,11);fill-rule:nonzero;"/>
            <path d="M413.2,259.34C425.47,259.52 437.72,259.9 450,259.62C455.67,259.52 461.88,259.53 466.15,263.86C470.24,267.82 469.76,273.64 471.42,278.67C472.43,282.75 474.81,286.27 477.96,289.03C480.8,291.41 484.55,292.58 487.44,294.47C488.42,296.93 488.65,299.05 488.55,301.67C484.84,300.51 481.43,298.77 477.95,297.07C472.93,294.61 469.05,289.56 466.01,285C463.34,281.17 462.7,276.49 460.44,272.56C457.7,269.73 453.93,268.37 450.02,268.41C438.73,268.08 427.89,269.05 417.57,263.39C416.1,262.41 413.23,261.4 413.2,259.34Z" style="fill:rgb(170,48,11);fill-rule:nonzero;"/>
            <path d="M611.85,259.32C609.15,263.64 604.92,264.92 600.35,266.41C593.31,268.16 586.22,268.42 579,268.34C574.05,268.35 568.15,268.6 564.73,272.73C563.1,275.58 562.36,278.86 560.71,281.72C558.12,286.35 554.94,291.42 550.75,294.78C546.26,297.65 541.49,300.05 536.41,301.69C536.37,299.19 536.97,296.9 537.66,294.52C541.18,292.45 544.85,290.82 548.1,288.09C550.22,285.79 552.14,283.15 553.31,280.22C554.35,275.63 554.88,271.11 556.71,266.73C559.25,262.33 563.99,259.88 568.99,259.7C575.66,259.47 582.33,259.78 589,259.71C596.62,259.82 604.23,259.19 611.85,259.32Z" style="fill:rgb(170,48,11);fill-rule:nonzero;"/>
            <path d="M477.46,264.2C480.6,268.17 482.74,273.04 484.79,277.64C482.48,275.42 478.97,273.45 477.37,270.73C475.95,268.33 477.24,266.67 477.46,264.2Z" style="fill:rgb(170,48,11);fill-rule:nonzero;"/>
            <path d="M547.53,264.25C547.82,265.8 548.51,267.48 548.29,269.05C547.22,272.69 542.84,275.01 540.23,277.63C542.25,273.17 544.6,268.16 547.53,264.25Z" style="fill:rgb(170,48,11);fill-rule:nonzero;"/>
            <path d="M512.42,267.25C513.37,269.65 513.88,272.01 513.7,274.61C512.59,274.63 511.47,274.62 510.35,274.58C511.42,272.24 511.06,269.22 512.42,267.25Z" style="fill:rgb(170,48,11);fill-rule:nonzero;"/>
            <path d="M425.34,272.32C433.22,272.16 441.13,272.6 449.01,272.69C451.1,273.11 453.86,273.07 455.53,274.5C456.87,275.92 458.04,277.44 457.7,279.52C451.09,281.13 443.89,280.35 437.12,280.43C432.47,279.69 426.7,277.35 425.34,272.32Z" style="fill:rgb(170,48,11);fill-rule:nonzero;"/>
            <path d="M599.62,272.38C597.78,277.7 591.35,280.82 586,280.54C579.83,280.39 573.23,281.05 567.31,279.5C566.98,274.09 571.85,273.41 575.99,272.71C583.84,272.4 591.77,272.19 599.62,272.38Z" style="fill:rgb(170,48,11);fill-rule:nonzero;"/>
            <path d="M420.58,277.53C423.46,280.51 425.92,283.25 429.45,285.53C429.56,286.21 429.63,286.9 429.67,287.59C427.77,287.68 425.88,287.64 423.98,287.74C418.84,288.96 413.25,288.28 407.99,288.78C403.75,289.61 399.3,289.37 395,289.43C386.89,289.24 379.9,284.89 375.28,278.38C379.51,277.32 383.69,277.75 388,277.67C398.83,277.72 409.77,277.1 420.58,277.53Z" style="fill:rgb(170,48,11);fill-rule:nonzero;"/>
            <path d="M604.45,277.56C616.91,277.06 629.51,277.89 642,277.73C644.62,277.57 647.1,278.09 649.69,278.35C647.33,282.53 643.59,285.2 639.43,287.4C634.17,289.71 627.63,289.65 621.99,289.26C615.8,288.07 609.26,288.9 603,288.18C600.45,287.56 597.9,287.62 595.3,287.49C595.4,286.02 596.98,284.94 597.93,283.92C600.24,281.93 602.28,279.69 604.45,277.56Z" style="fill:rgb(170,48,11);fill-rule:nonzero;"/>
            <path d="M514.52,280.51C515.9,283.9 514.97,287.13 515.45,290.63C515.83,291.76 517.88,292 518.87,292.4C522.14,293.16 524.3,294.92 527.57,294.69C528.49,291.9 528.5,288.99 529.43,286.2C529.84,286.56 530.21,286.95 530.55,287.36C530.93,291.33 529.82,294.89 529.55,298.79C526.2,298.09 523.53,295.45 520.01,294.84C513.43,293.64 506.07,293.95 499.97,296.94C498.39,297.63 497.21,298.61 495.51,298.7C494.55,294.77 493.94,290.42 494.46,286.39C497.07,283.57 501.48,282.3 505.06,281.19C508.17,280.06 511.25,280.34 514.52,280.51Z" style="fill:rgb(170,48,11);fill-rule:nonzero;"/>
            <path d="M444.98,284.61C449.91,284.59 454.87,284.06 459.78,284.3C461.09,285.09 462.68,288.02 461.14,289.16C456.65,290.84 451.7,291.4 447,292.27C445.15,292.15 443.33,291.61 441.48,291.36C439.84,289.77 436.75,287.84 436.32,285.55C439.3,285.54 442,284.43 444.98,284.61Z" style="fill:rgb(170,48,11);fill-rule:nonzero;"/>
            <path d="M565.29,284.36C573.05,284.09 581,284.63 588.7,285.51C588.08,288.47 583.16,292.26 580.02,291.72C576.94,291.72 573.93,291.77 570.99,290.88C568.66,290.3 565.24,290.18 563.37,288.65C563.09,286.99 564.32,285.57 565.29,284.36Z" style="fill:rgb(170,48,11);fill-rule:nonzero;"/>
            <path d="M433.9,293.23C436.86,294.88 440.7,297.86 442.71,300.6C437.45,302.43 431.4,301.97 425.99,303.26C419.62,303.72 414.33,305.31 408.08,302.94C403.85,301.22 400.04,299.27 397.32,295.45C402.9,294.77 408.37,294.47 414,294.24C420.64,293.34 427.19,293.33 433.9,293.23Z" style="fill:rgb(170,48,11);fill-rule:nonzero;"/>
            <path d="M465.67,293.41C466.7,293.92 468.89,295.05 468.54,296.46C464.74,298.73 460.38,300.76 456,301.48C453.59,301.43 448.67,299.41 448.38,296.65C453.94,296.51 460.14,292.73 465.67,293.41Z" style="fill:rgb(170,48,11);fill-rule:nonzero;"/>
            <path d="M560.06,293.2C564.34,293.19 567.8,295.15 572.04,295.77C573.48,296.25 575.46,296.23 576.63,297.25C575.28,299.97 570.84,301.69 567.97,301.39C564.44,300.53 560.86,299.23 557.81,297.21C555.93,295.66 558.43,293.45 560.06,293.2Z" style="fill:rgb(170,48,11);fill-rule:nonzero;"/>
            <path d="M591.96,292.81C594.12,292.33 595.89,293.05 597.99,293.28C601.34,293.5 604.68,293.55 607.99,294.18C611.98,294.5 616.03,294.39 620.01,294.79C622.53,295.44 625.07,295.49 627.65,295.44C622.31,301.67 614.27,305.51 606.01,303.76C598.15,303.53 590.29,301.46 582.34,301.44C582.56,299.52 584.55,298.06 585.96,296.94C587.95,295.48 589.76,293.78 591.96,292.81Z" style="fill:rgb(170,48,11);fill-rule:nonzero;"/>
            <path d="M475.58,301.28C474.48,304.5 470.98,306.5 468.19,308.16C465.91,309.3 462.57,307.41 460.43,306.5L460.42,305.6C464.24,304.22 467.46,301.97 470.89,299.87C472.45,298.6 474.21,300.56 475.58,301.28Z" style="fill:rgb(170,48,11);fill-rule:nonzero;"/>
            <path d="M554.1,299.87C557.51,301.99 560.81,304.1 564.55,305.62L564.54,306.46C562.85,307.36 560.92,308.31 559.01,308.57C555.16,307.63 551.53,304.57 549.38,301.31C550.77,300.53 552.45,298.6 554.1,299.87Z" style="fill:rgb(170,48,11);fill-rule:nonzero;"/>
            <path d="M515.72,302.41C514.52,303.88 512.83,303.67 511.04,304.26C507.76,304.64 505.34,306.52 502.32,307.6C500.82,305.08 501.54,304.33 503.74,302.71C507.19,301.19 512.34,300.47 515.72,302.41Z" style="fill:rgb(170,48,11);fill-rule:nonzero;"/>
            <path d="M479.42,304.48C480.84,304.31 482.67,304.05 483.66,305.32C483.3,310.28 477.46,315.99 472.3,312.5C472.46,311.32 473.38,310.95 474.13,310.14C476.1,308.4 477.53,306.28 479.42,304.48Z" style="fill:rgb(170,48,11);fill-rule:nonzero;"/>
            <path d="M545.57,304.47C548.17,307.27 550.83,309.93 553.63,312.52C550.33,313.99 547.24,314.14 544.46,311.54C542.92,309.71 540.87,307.98 541.33,305.35C542.66,304.3 543.94,304.12 545.57,304.47Z" style="fill:rgb(170,48,11);fill-rule:nonzero;"/>
            <path d="M445.99,305.69C449.71,305.25 453.54,309.38 456.51,311.32L456.59,311.77C454.5,313.03 451.42,313.21 449.01,313.69C444.68,314.83 440.43,314.76 435.99,314.66C433.01,314.73 429.99,313 427.57,311.41C426.59,310.54 425.33,310.02 425.31,308.56C428.88,307.92 432.43,307.33 436,306.69C439.37,306.33 442.69,306.59 445.99,305.69Z" style="fill:rgb(170,48,11);fill-rule:nonzero;"/>
            <path d="M489.26,306.33C490.85,307.52 492.31,308.85 493.5,310.45C494.36,312.47 492.55,313.96 491.29,315.28C489.06,317.25 485.9,316.72 483.37,315.74C485.39,312.74 486.55,308.74 489.26,306.33Z" style="fill:rgb(170,48,11);fill-rule:nonzero;"/>
            <path d="M577.99,305.62C585.25,306.65 592.51,306.78 599.69,308.54C599.26,311.38 594.5,313.31 592.07,314.17C584.34,316.09 575.69,313.26 568.32,312.37C568.47,311.19 570.04,310.6 570.83,309.81C572.8,308.38 575.45,305.48 577.99,305.62Z" style="fill:rgb(170,48,11);fill-rule:nonzero;"/>
            <path d="M536.01,306.48C538.76,308.41 539.88,312.89 541.57,315.77C540.09,316.99 537.3,316.39 535.49,316.37C533.96,315.15 531.64,313.35 531.41,311.3C532.21,309.25 534.27,307.71 536.01,306.48Z" style="fill:rgb(170,48,11);fill-rule:nonzero;"/>
            <path d="M513.59,310.6C514.79,311.26 514.82,311.73 513.6,312.38C509.58,312.83 506.07,314.27 502.38,315.79C502.36,314.65 502.39,313.53 502.49,312.4C505.14,309.78 510.19,310.11 513.59,310.6Z" style="fill:rgb(170,48,11);fill-rule:nonzero;"/>
            <path d="M513.76,319.47C512.49,320.75 510.55,321.07 508.88,321.85C506.86,322.62 505.12,323.91 503.15,324.76C502.04,322.97 501.98,321.1 503.7,319.67C506.67,318.07 510.68,318.24 513.76,319.47Z" style="fill:rgb(170,48,11);fill-rule:nonzero;"/>
            <path d="M528.21,320.35C530.14,321.76 531.84,323.18 534.27,323.63C538.33,325.35 543.5,323.02 547.69,322.29C543.68,326.91 537.87,329.91 531.89,327.12C529.12,325.14 528.08,323.89 528.21,320.35Z" style="fill:rgb(170,48,11);fill-rule:nonzero;"/>
            <path d="M514.75,327.55C512.8,328.73 510.58,329.44 508.58,330.56C507.52,331.03 506.8,331.81 505.59,331.54C505.07,330.53 504.46,329.65 504.4,328.47C507.91,326.59 510.93,325.9 514.75,327.55Z" style="fill:rgb(170,48,11);fill-rule:nonzero;"/>
            <path d="M516.75,334.38C516.78,336.15 514.41,337.21 513.21,338.25C511.73,339.33 509.12,338.46 509.45,336.39C511.4,334.59 514.21,334.37 516.75,334.38Z" style="fill:rgb(170,48,11);fill-rule:nonzero;"/>
            <path d="M524.84,338.35C524.32,340.55 522.5,342.43 520.64,343.6C519.53,343.74 518.3,343.14 517.31,342.7C519.57,340.9 522.11,339.33 524.84,338.35Z" style="fill:rgb(170,48,11);fill-rule:nonzero;"/>
        </g>
    </g>
</svg>
