<?xml version="1.0" encoding="UTF-8" standalone="no"?>
<!DOCTYPE svg PUBLIC "-//W3C//DTD SVG 1.1//EN" "http://www.w3.org/Graphics/SVG/1.1/DTD/svg11.dtd">
<svg width="100%" height="100%" viewBox="0 0 847 787" version="1.1" xmlns="http://www.w3.org/2000/svg" xmlns:xlink="http://www.w3.org/1999/xlink" xml:space="preserve" xmlns:serif="http://www.serif.com/" style="fill-rule:evenodd;clip-rule:evenodd;stroke-linejoin:round;stroke-miterlimit:2;">
    <g transform="matrix(1,0,0,1,-70.07,-123.99)">
        <g>
            <path d="M93.15,123.99C97,128.12 100.49,132.56 104.28,136.74C120.34,156.47 139.23,174.09 159.23,189.77C171.03,198.69 183.1,207.65 195.7,215.34C206.42,222.92 217.89,229.1 229.17,235.78C249.28,247.04 270.65,256.73 291.55,266.42C323.39,280.11 356.23,291.55 389.38,301.61C402.75,306.15 416.33,309.95 429.8,314.17C438.71,316.59 447.33,319.62 455.88,323.12C476.37,330.78 495.7,341.03 513.93,353.08C526.28,361.95 537.8,371.71 548.24,382.77C551.45,386.51 555.25,389.88 556.88,394.58C546.13,401.1 536.64,396.58 524.97,398.12C512.86,398.42 501.1,401.32 489.96,405.98C484.83,408.17 480.45,410.92 474.91,411.98C467.54,413.45 459.46,411.45 452.27,413.37C446.46,414.9 441.43,420.1 436.89,423.88C427.69,432.09 417.27,437.51 408.83,446.85C399.55,457.37 393.9,469.8 388.58,482.6C386.04,488.84 381.89,495.58 381.49,502.32C377.07,509.79 372.07,516.79 365.96,522.97C362.38,526.45 358.68,529.6 355.72,533.69C350.95,540.34 346.36,547.16 342.2,554.21C340.42,557.24 339.06,560.28 339.34,563.89C339.25,567.4 341.31,569.99 343.49,572.5C348.22,577.51 352.46,582.81 357.87,587.13C361.89,590.34 365.45,594.58 369.96,597.06C374.45,599.02 378.17,596.08 381.82,593.82C385.47,591.29 389.23,590.03 393.6,589.32C396.11,584.6 397.06,579.33 399.72,574.69C400.96,572.2 402.86,569.9 402.68,567C402.66,560.69 400.12,554.32 398.66,548.2C397.71,544.3 396,539.28 398.7,535.71C402.51,530.04 407.42,525.05 412.54,520.56C420.07,514.6 427.24,508.96 436.16,505.17C444.99,501.05 453.4,498.12 461.23,492.23C469.29,486.56 474.58,478.93 479.7,470.67C482.09,466.76 484.01,462.75 487.27,459.43C487.5,462.75 487.52,466.08 487.58,469.41C489.86,470.9 492.13,472.32 494.67,473.35C503,476.76 511.79,479.19 520.72,480.36C526.47,480.77 532.28,480.61 538.04,480.6C544.88,480.68 551.98,478.97 558.69,477.62C562.01,476.98 565.05,475.74 567.99,474.1C565.07,468.77 561.27,464.24 557.4,459.6C553.39,454.84 548.62,450.95 544.88,445.93C553.11,447.11 560.86,451.9 567.95,456.07C574.63,459.95 580.66,464.86 587.4,468.62C596.97,473.84 607.24,475.52 617.99,476.22C622.85,475.87 627.63,475.36 632.51,475.74C625.46,482.07 616,484.69 606.78,485.75C602.8,486.36 598.86,486.5 594.83,486.28C598.49,483.45 602.39,484.15 606.74,483.62C612.45,483.23 617.94,482 623,479.26C618.1,477.75 613.09,477.28 608,476.94C599.86,476.42 592.55,473.34 585.41,469.6C579.35,466.43 574.12,462.26 568.32,458.7C563.25,455.68 559.24,452.21 553.07,451.76C558.02,458.15 563.88,463.72 568.12,470.9C569.09,472.44 568.93,474 569.19,475.72C564.49,478.22 559.49,479.46 554.29,480.4C545.36,481.98 536.07,483.46 526.98,482.95C515.13,481.66 503.46,479.05 492.39,474.57C489.22,473.25 486.64,470.15 484.11,467.86C479.39,473.38 476.22,479.92 471.35,485.34C467.14,490.51 461.91,493.8 456.48,497.51C451.74,500.65 446.8,502.07 441.58,504.61C435.26,507.7 429.16,510.32 423.4,514.4C416.08,519.53 409.13,525.51 403.52,532.49C401.24,535.66 398.26,539.37 399.48,543.54C401.25,550.82 404.17,558.54 404.95,566.08C405.42,570.27 403.06,573.75 401.44,577.42C399.76,580.83 398.77,584.61 396.87,587.88C395.05,590.8 391.59,592.86 388.94,594.99C391.94,594.1 395.73,593.3 398.15,591.21C399.88,589.07 400.46,585.89 401.51,583.36C403.22,578.38 406.27,574.14 408.32,569.36C409.51,566.78 408.5,563.78 407.87,561.17C406.04,555.03 404.31,548.37 404.32,541.91C404.18,537.84 408.22,534.81 411.8,533.87C416.92,532.64 422.26,532.5 427.43,531.43C435.37,529.83 443.99,528.62 451.46,525.57C457.39,523.22 463.27,520.83 468.96,517.94C471.48,516.95 473.45,515.28 476.08,517.04C469.32,520.55 462.34,523.49 455.28,526.34C446.43,530.22 436.25,532 426.75,533.81C421.89,534.79 416.84,534.91 412.03,536.09C409.55,536.82 406.19,539.25 406.35,542.14C406.13,550.44 410.16,557.68 411.45,565.11C412.46,570.36 408.48,573.94 406.39,578.35C403.79,583 403.25,588.9 400.18,593.19C397.05,596.29 391.25,596.68 387.25,598.39C382.12,599.99 377.31,604.37 371.99,604.67C367.64,605.08 364.38,601.18 361.51,598.49C356.91,593.64 351.18,590.25 346.63,585.38C340.09,578.21 332.93,573.78 330.51,563.69C328.78,558.59 331.8,554.47 334.53,550.44C340.02,543.15 344.31,535.01 349.87,527.79C354.8,522.09 360.82,517.8 365.08,511.42C354.68,512.79 344.65,515.23 334,515.49C325,515.64 315.99,515.68 306.99,515.43C288.86,514.34 272.04,509.7 254.86,504.15C246.92,501.16 239.02,498.06 231.94,493.47C242.3,492.35 252.62,492.92 263.01,492.71C276.43,492.76 290.14,490.02 303.7,488.5C314.58,487.03 325.42,485.12 336.23,483.21C339.64,482.39 342.86,482.58 345.45,479.96C339.17,479.12 332.65,479.64 326.29,479.38C318.68,479.01 311.1,479.52 303.51,478.69C282.22,477.69 261.63,477.18 240.53,473.51C206.73,469.03 173.85,453.51 149.68,429.32C144.26,423.85 138.63,418.32 134.11,412.06C140.3,413.46 145.97,416.01 151.94,418.08C165.52,422.65 178.85,427.35 192.97,430.08C214.99,435.31 237.23,437.36 259.96,440.12C276.28,441.51 292.63,443.08 309.01,443.7C319.45,444.54 329.88,445.22 340.29,446.38C336.52,446.85 332.8,447.29 329,446.92C314.73,445.58 300.41,445 286.14,443.69C280.24,443.11 274.31,443.12 268.42,442.58C259.25,441.48 250.08,440.54 240.93,439.23C225.46,437.81 210.2,435.26 195,432.07C181.89,429.63 169.39,425.63 156.87,421.16C151.66,419.31 146.58,417.39 141.03,416.83C144.31,422.71 149.96,427.44 154.8,432.2C168.13,444.02 183.43,454.34 200.03,460.94C211.94,466.22 224.76,469.91 237.72,471.36C242.87,472.01 247.93,473.11 253.04,473.97C261.31,475.38 269.68,474.68 277.98,476.01C289.83,477.86 301.55,476.16 313.42,477.5C323.7,478.64 334.12,477.25 344.33,478.51C347.1,478.76 349.11,480.09 351.21,481.76C346.43,483.62 341.5,485.13 336.57,486.53C330.2,488.34 323.68,487.66 317.25,489.28C311.3,490.82 305.19,490.94 299.2,492.18C292.44,493.63 285.58,494.56 278.75,495.62C269.32,496.5 258.17,494.69 248.58,497.86C251.96,499.92 255.5,501.65 259.34,502.68C264.3,504.12 269.22,504.17 274.09,505.89C278.59,507.47 282.63,509.63 287.38,510.51C296.67,512.5 305.8,511.53 315.14,512.73C320.19,513.38 325.13,512.85 330.15,512.3C337.12,511.54 343.62,512.65 350.27,511.27C353.8,510.59 357.45,509.33 361.03,509.12C363.7,508.95 365.7,510.08 368.1,511.01C365.94,516.77 361.6,520.32 356.89,523.94C353,526.74 351.95,530.76 348.88,534.24C345.52,538.01 343.58,542.57 340.5,546.52C337.61,550.34 334.64,554.46 333.01,559.01C331.82,561.76 333.56,564.82 334.64,567.34C337.73,573.61 342.98,579.74 349.13,583.15C346.17,576.99 340.01,573.39 337.45,566.56C336.3,563.45 337.21,560.34 338.44,557.41C341.18,551.16 345.16,545.55 348.75,539.78C353.09,532.58 359.41,526.23 365.52,520.51C369.13,517.08 372.31,513.19 375.05,509.03C377.98,504.57 378.98,499.87 380.95,494.97C383.5,488.62 386.43,482.42 389.15,476.14C391.19,471.44 392.78,466.81 395.27,462.29C398.35,456.57 402.56,451.74 406.25,446.27C410.11,440.49 415.75,437.47 421.14,433.13C426.83,428.61 432.66,424.87 437.82,419.83C442.18,415.58 447.98,411.29 454.09,410.22C461.44,409.4 468.62,410.82 476.04,409.05C482.87,407.69 488.01,403.73 494.42,401.53C502.81,398.84 511.31,396.7 520.14,396.24C528.77,395.51 537.4,396.41 546.01,395.93C548.85,395.88 551.02,394.63 553.3,393.1C549.79,387.01 544.29,383.46 539.78,378.24C537.55,375.71 535.01,373.57 532.28,371.59C526.27,367.25 521.56,361.72 515.22,357.78C509.17,354.04 504.06,349.49 497.67,346.33C490.27,342.75 483.52,338.13 475.91,334.95C468.23,330.97 460.27,327.82 452.13,324.91C446.84,323.1 442.24,320.55 436.84,319.29C433.7,318.53 430.57,317.75 427.53,316.6C417.03,312.52 405.95,310.56 395.37,306.55C389.38,304.14 382.97,303.5 377.01,301.02C363.43,295.55 349.43,291.37 335.74,286.21C321.42,280.66 306.89,275.35 292.78,269.26C278.75,262.61 265.16,257.62 251.87,250.1C246.44,247.04 240.57,244.98 235.15,241.88C226.89,237.2 218.8,232.23 210.68,227.32C199.85,221.52 189.84,214.18 179.59,207.42C172.33,202.79 165.91,197.08 158.78,192.25C153.44,188.64 148.95,184.06 143.78,180.24C136.95,175.33 131.44,168.64 125.25,162.75C119.1,156.42 112.52,150.63 107.16,143.82C104.03,140.01 101.64,136.11 97.13,133.73C96.34,142.33 99.56,149.97 101.71,158.35C105.01,170.77 110.05,182.59 116.09,193.9C120.64,203.27 126.15,212.23 132.47,220.5C139.76,229.5 147.48,238.11 155.84,246.13C159.76,249.57 163.88,252.77 167.79,256.21C172.64,260.49 178.28,263.63 183.19,267.82C191.74,275.53 203.28,280.87 212.99,287.02C223.34,293.89 234.68,299.43 245.53,305.53C253.43,309.67 261.62,313 269.22,317.74C285.91,325.4 301.96,334.2 318.18,342.78C329.57,348.12 340.43,355.06 350.73,362.24C358,367.21 365.12,372.48 371.78,378.24C373.79,379.89 374.58,381.55 375.22,384.04C367.87,384.25 363.76,379.51 357.34,376.7C344.41,370.92 331.72,363.67 318.51,358.54C313.34,356.47 308.62,353.55 303.38,351.64C299.3,350.13 295.34,348.44 291.41,346.59C286.75,344.41 281.89,342.98 277.37,340.6C274.33,339 271.43,337.2 268.32,335.74C252.81,328.68 237.15,321.84 222,314.02C214.37,310.37 206.73,306.77 199.37,302.6C192.33,298.56 184.95,295.23 178.04,290.98C170.38,286.33 162.8,281.55 155.21,276.79C148.79,272.78 143.01,268.16 136.19,264.79C128.21,260.88 122.21,255.14 115.13,249.93C111.39,247.16 109.69,242.88 106.03,239.97C101.44,236.24 97.46,231.89 93.04,227.97C86.32,221.84 81.28,214.56 73.86,209C74.28,212.37 74.95,215.68 76.07,218.9C81.01,233.5 86.94,247.97 94.65,261.34C98.18,268.32 102.14,274.79 107.36,280.65C116.7,292.69 126.38,304.13 138.62,313.36C144.96,318.02 151.27,322.79 157.79,327.19C175.32,337.85 193.29,347.46 212.63,354.42C219.81,358.03 227.32,360.46 234.84,363.18C243.62,366.72 252.79,369.03 261.62,372.41C266.56,374.29 271.56,375.91 276.63,377.4C283.93,379.53 290.85,382.66 298.12,384.91C306.31,387.47 314.13,390.95 322.24,393.72C328.58,395.86 334.32,398.94 340.4,401.7C346.52,404.59 352.65,406.97 358.44,410.54C362.8,413.28 367.39,415.6 371.86,418.14C374.14,419.4 375.65,421.21 376.96,423.43C371.19,420.93 366.4,417.08 360.92,414.08C350.23,408.15 339.09,403.02 327.9,398.11C304.48,388.82 280.51,380.88 256.52,373.2C248.81,370.25 240.97,367.67 233.23,364.79C207.99,355.84 182.93,344.99 160.07,330.94C148.92,323.67 137.82,316.01 127.94,307.06C116.74,296.4 107.04,284.37 98.59,271.43C93.19,262.99 88.69,253.74 84.35,244.7C79.76,234.87 76.43,224.24 73.09,213.93C71.71,209.75 70.63,205.51 70.07,201.13C76.5,207.96 82.58,215.15 89.13,221.87C98.26,230.86 107.38,239.78 117.65,247.49C134.49,261.83 152.83,273.84 171.66,285.37C195.24,299.5 219.72,311.82 244.67,323.36C264.33,332.62 284.23,341.38 304.34,349.63C321.22,356.8 337.78,364.67 354.24,372.75C359.63,375.41 364.25,378.7 370.12,380.35C368.26,378.01 366.22,375.95 363.84,374.16C348.17,362.39 331.64,351.76 314.19,342.82C302.9,337.15 291.91,330.94 280.51,325.49C265.26,317.8 249.83,310.33 234.96,302.01C229.42,299.28 223.83,296.87 218.76,293.28C207.54,286.64 196.18,279.96 185.46,272.51C176.33,265.76 167.1,258.93 158.69,251.3C147.47,241.13 136.09,230.01 127.59,217.44C123.11,211.28 119.16,205.01 115.8,198.17C105.36,179.33 98.14,158.7 94.43,137.49C93.62,133.03 93.27,128.52 93.15,123.99Z" style="fill:rgb(65,105,225);fill-rule:nonzero;"/>
            <path d="M97.13,133.73C101.64,136.11 104.03,140.01 107.16,143.82C112.52,150.63 119.1,156.42 125.25,162.75C131.44,168.64 136.95,175.33 143.78,180.24C148.95,184.06 153.44,188.64 158.78,192.25C165.91,197.08 172.33,202.79 179.59,207.42C189.84,214.18 199.85,221.52 210.68,227.32C218.8,232.23 226.89,237.2 235.15,241.88C240.57,244.98 246.44,247.04 251.87,250.1C265.16,257.62 278.75,262.61 292.78,269.26C306.89,275.35 321.42,280.66 335.74,286.21C349.43,291.37 363.43,295.55 377.01,301.02C382.97,303.5 389.38,304.14 395.37,306.55C405.95,310.56 417.03,312.52 427.53,316.6C430.57,317.75 433.7,318.53 436.84,319.29C442.24,320.55 446.84,323.1 452.13,324.91C460.27,327.82 468.23,330.97 475.91,334.95C483.52,338.13 490.27,342.75 497.67,346.33C504.06,349.49 509.17,354.04 515.22,357.78C521.56,361.72 526.27,367.25 532.28,371.59C535.01,373.57 537.55,375.71 539.78,378.24C544.29,383.46 549.79,387.01 553.3,393.1C551.02,394.63 548.85,395.88 546.01,395.93C537.4,396.41 528.77,395.51 520.14,396.24C511.31,396.7 502.81,398.84 494.42,401.53C488.01,403.73 482.87,407.69 476.04,409.05C468.62,410.82 461.44,409.4 454.09,410.22C447.98,411.29 442.18,415.58 437.82,419.83C432.66,424.87 426.83,428.61 421.14,433.13C415.75,437.47 410.11,440.49 406.25,446.27C402.56,451.74 398.35,456.57 395.27,462.29C392.78,466.81 391.19,471.44 389.15,476.14C386.43,482.42 383.5,488.62 380.95,494.97C378.98,499.87 377.98,504.57 375.05,509.03C372.31,513.19 369.13,517.08 365.52,520.51C359.41,526.23 353.09,532.58 348.75,539.78C345.16,545.55 341.18,551.16 338.44,557.41C337.21,560.34 336.3,563.45 337.45,566.56C340.01,573.39 346.17,576.99 349.13,583.15C342.98,579.74 337.73,573.61 334.64,567.34C333.56,564.82 331.82,561.76 333.01,559.01C334.64,554.46 337.61,550.34 340.5,546.52C343.58,542.57 345.52,538.01 348.88,534.24C351.95,530.76 353,526.74 356.89,523.94C361.6,520.32 365.94,516.77 368.1,511.01C365.7,510.08 363.7,508.95 361.03,509.12C357.45,509.33 353.8,510.59 350.27,511.27C343.62,512.65 337.12,511.54 330.15,512.3C325.13,512.85 320.19,513.38 315.14,512.73C305.8,511.53 296.67,512.5 287.38,510.51C282.63,509.63 278.59,507.47 274.09,505.89C269.22,504.17 264.3,504.12 259.34,502.68C255.5,501.65 251.96,499.92 248.58,497.86C258.17,494.69 269.32,496.5 278.75,495.62C285.58,494.56 292.44,493.63 299.2,492.18C305.19,490.94 311.3,490.82 317.25,489.28C323.68,487.66 330.2,488.34 336.57,486.53C341.5,485.13 346.43,483.62 351.21,481.76C349.11,480.09 347.1,478.76 344.33,478.51C334.12,477.25 323.7,478.64 313.42,477.5C301.55,476.16 289.83,477.86 277.98,476.01C269.68,474.68 261.31,475.38 253.04,473.97C247.93,473.11 242.87,472.01 237.72,471.36C224.76,469.91 211.94,466.22 200.03,460.94C183.43,454.34 168.13,444.02 154.8,432.2C149.96,427.44 144.31,422.71 141.03,416.83C146.58,417.39 151.66,419.31 156.87,421.16C169.39,425.63 181.89,429.63 195,432.07C210.2,435.26 225.46,437.81 240.93,439.23C250.08,440.54 259.25,441.48 268.42,442.58C274.31,443.12 280.24,443.11 286.14,443.69C300.41,445 314.73,445.58 329,446.92C332.8,447.29 336.52,446.85 340.29,446.38C342.83,446.36 345.35,446.44 347.88,446.58C346.59,446.22 345.3,445.84 344.02,445.46C342.19,444.05 340.59,442.6 338.34,441.87C328.73,438.78 318.88,436.86 309.17,434.13C301.46,432.47 293.55,431.98 285.85,430.18C269.93,426.56 253.78,424.29 237.82,420.86C231.25,419.68 224.78,418.03 218.24,416.69C208.24,414.77 198.65,411.06 188.82,408.2C177.48,404.2 166.15,399.54 155.89,393.21C146.99,387.75 138.15,381.65 130.51,374.51C120.17,364.55 110.45,354.37 102.94,342.05C98.73,334.8 94,328.91 92.07,320.6C99.42,323.15 106.41,327.85 113.01,331.95C120.39,336.23 126.98,341.52 134.8,345.05C143.6,350.16 152.88,354.13 161.99,358.62C166.31,360.56 170.92,361.67 175.17,363.84C184.01,368.36 193.32,372.19 202.88,374.92C209.25,376.76 215.59,378.61 221.7,381.21C227.64,383.73 233.93,384.55 239.98,386.78C244.82,388.57 249.72,390.04 254.82,390.91C262.89,392.33 270.82,394.37 278.37,397.59C283.67,399.94 289.2,399.31 294.63,401.22C298.31,402.49 301.91,403.41 305.77,404C312.59,405.07 318.87,407.43 325.54,409.09C329.21,409.98 332.62,411.26 336.03,412.87C340.79,415.12 345.93,414.96 350.81,417.02C355.33,418.91 359.84,420.77 364.44,422.43C369.21,424.09 372.85,426.71 378.12,426.04L378.69,426.06C378.12,425.18 377.54,424.31 376.96,423.43C375.65,421.21 374.14,419.4 371.86,418.14C367.39,415.6 362.8,413.28 358.44,410.54C352.65,406.97 346.52,404.59 340.4,401.7C334.32,398.94 328.58,395.86 322.24,393.72C314.13,390.95 306.31,387.47 298.12,384.91C290.85,382.66 283.93,379.53 276.63,377.4C271.56,375.91 266.56,374.29 261.62,372.41C252.79,369.03 243.62,366.72 234.84,363.18C227.32,360.46 219.81,358.03 212.63,354.42C193.29,347.46 175.32,337.85 157.79,327.19C151.27,322.79 144.96,318.02 138.62,313.36C126.38,304.13 116.7,292.69 107.36,280.65C102.14,274.79 98.18,268.32 94.65,261.34C86.94,247.97 81.01,233.5 76.07,218.9C74.95,215.68 74.28,212.37 73.86,209C81.28,214.56 86.32,221.84 93.04,227.97C97.46,231.89 101.44,236.24 106.03,239.97C109.69,242.88 111.39,247.16 115.13,249.93C122.21,255.14 128.21,260.88 136.19,264.79C143.01,268.16 148.79,272.78 155.21,276.79C162.8,281.55 170.38,286.33 178.04,290.98C184.95,295.23 192.33,298.56 199.37,302.6C206.73,306.77 214.37,310.37 222,314.02C237.15,321.84 252.81,328.68 268.32,335.74C271.43,337.2 274.33,339 277.37,340.6C281.89,342.98 286.75,344.41 291.41,346.59C295.34,348.44 299.3,350.13 303.38,351.64C308.62,353.55 313.34,356.47 318.51,358.54C331.72,363.67 344.41,370.92 357.34,376.7C363.76,379.51 367.87,384.25 375.22,384.04C374.58,381.55 373.79,379.89 371.78,378.24C365.12,372.48 358,367.21 350.73,362.24C340.43,355.06 329.57,348.12 318.18,342.78C301.96,334.2 285.91,325.4 269.22,317.74C261.62,313 253.43,309.67 245.53,305.53C234.68,299.43 223.34,293.89 212.99,287.02C203.28,280.87 191.74,275.53 183.19,267.82C178.28,263.63 172.64,260.49 167.79,256.21C163.88,252.77 159.76,249.57 155.84,246.13C147.48,238.11 139.76,229.5 132.47,220.5C126.15,212.23 120.64,203.27 116.09,193.9C110.05,182.59 105.01,170.77 101.71,158.35C99.56,149.97 96.34,142.33 97.13,133.73Z" style="fill:rgb(65,105,225);fill-rule:nonzero;"/>
            <path d="M675.88,241.12C682.59,240.88 689.11,241.56 695.92,242.12C715.72,243.84 735.2,247.87 753.75,255.09C769.96,260.69 784.36,270.88 795.32,284.04L794.09,284.82C790.59,282 787.73,278.6 784.31,275.68C774.6,267.23 763.15,260.09 750.81,256.22C743.73,253.74 736.84,251 729.39,249.73C717.41,246.96 705.29,245.03 693.01,244.3C698.96,249.1 708.1,250.91 712.21,257.24C706.65,254.84 701.69,251.34 696.11,248.96C689.57,245.73 682.62,243.8 675.88,241.12Z" style="fill:rgb(195,53,192);fill-rule:nonzero;"/>
            <path d="M693.01,244.3C705.29,245.03 717.41,246.96 729.39,249.73C736.84,251 743.73,253.74 750.81,256.22C763.15,260.09 774.6,267.23 784.31,275.68C787.73,278.6 790.59,282 794.09,284.82L795.32,284.04L796.05,282.97C796.75,281.16 797.21,279.31 797.68,277.43C806.59,285.91 813.63,295.89 817.01,307.83C819.09,314.96 819.22,322.43 817.95,329.73C816.4,328.62 814.83,327.54 813.34,326.37C812.4,324.39 811.38,322.45 810.27,320.57C809.61,320.45 808.94,320.38 808.28,320.37C805.42,320.69 803.96,323.24 802.14,325.15C799.71,328.21 797.04,330.63 793.82,332.84C788.24,330.03 784.12,325.37 778.65,322.37C772.66,319 766.18,316.01 759.44,314.53C753.09,313.17 746.95,315.19 740.87,316.89C737.2,318.04 733.21,318.99 729.85,320.89C728.35,321.79 727.55,323 728.18,324.76C729.66,329.36 733.15,332.73 734.09,337.62C730.5,339.94 726.6,341.71 723.03,344.05C718.82,346.52 718.35,354.71 723.22,356.79C729.45,359.81 737.24,359.55 743.57,362.52C746.67,364.05 749.33,366.82 752.18,368.83C756.32,371.91 761.71,373.33 766.55,375.22C765.76,376.97 764.91,378.69 764.11,380.44C766.05,381.39 767.46,382.47 769.76,381.85C773.94,380.67 777.49,378.01 781.72,376.85C784.41,380.06 786.78,383.28 790.09,385.89C791.27,386.94 792.91,387.97 793.61,389.41C794.42,392.01 794,395.16 793.9,397.86C789.34,397.07 784.97,395.96 780.66,394.24C782.56,392.71 784.41,391.11 786.34,389.61C785.12,387.66 784.56,386.04 781.93,385.85C775.8,384.96 771.94,389.09 767.67,392.67C762.3,397.16 758.02,402.63 754.75,408.81C753.53,411.1 753.23,413.54 752.89,416.07C759.68,413.8 763.04,408.53 768.49,404.48C770.53,402.6 773.65,404.38 775.95,404.89C782.82,406.78 788.65,410.51 794.39,414.61C788.23,415.13 783.27,411.98 777.11,413.18C772.1,414.18 766.88,415.25 762.17,417.25C758.07,419.33 756.99,423.06 756.01,427.22C757.61,427.57 759.01,428.07 760.66,427.68C766.22,426.5 771.35,424 777.1,423.24C783.55,422.44 790.28,423.03 796.4,425.26C794.8,426.27 793.55,427.4 791.55,427.42C785.1,427.66 779.09,425.94 772.6,427.43C770.98,430.87 769.5,434.36 768.45,438.03C771.2,438.55 773.88,439.03 776.7,438.64C781.29,438.24 785.68,436.65 790.01,438.98C794.64,441.39 795.52,447.63 793.64,452.11C792.14,450.89 790.88,449.43 789.43,448.16C786.59,450.2 785,453.13 782.66,455.62C781.39,457.14 778.84,456.94 777.04,457.06C771.33,456.97 764.76,456.21 759.81,453.16C753.36,448.99 749.09,441.51 744.07,435.94C742.48,434.09 740.46,432.98 738.35,431.84C738.09,434.23 737.8,436.62 737.56,439.01C731.53,436.44 726.61,432.52 721.5,428.51C718.81,426.3 716.43,424.07 715.58,420.56C713.82,413.72 713.71,406.01 712.89,399.06C712.55,397.31 712.44,395.19 710.38,394.64C706.01,393.89 700.75,396.22 697.21,392.78C694.93,391.02 694.5,388.67 693.86,386.04C697.16,387.06 700.5,388.85 703.94,389.21C707.4,389.51 707.28,383.97 709.66,382.65C711.5,381.89 713.67,381.76 715.6,382.25C718.66,385.25 720.09,389.82 722.83,393.17C726.62,398.09 732.91,400.71 735.2,406.72C738.2,414.5 737.06,422.07 743.76,428.18C746.03,422.55 745.94,416.89 746.04,410.94C746.12,406.1 748.21,402.4 749.99,398.06C753,396.82 754.8,395.32 756.85,392.81C752.67,389.35 745.44,394.01 741.16,390.79C736.05,387.1 732.19,381.17 729.32,375.64C728.31,373.87 727.21,371.67 725.53,370.45C720.86,369.62 715.7,370.98 710.97,371.19C701.74,371.7 692.75,373.55 683.57,374.56C681.01,375.02 677.13,375.25 675.42,377.47C674.42,387.03 682.84,395.9 686.88,403.83C683.13,407.45 679.25,411.27 674.82,414.03C671.79,413.66 669.15,410.81 665.98,410.49C659.41,409.82 651.89,411.36 645.46,409.76C641.1,408.93 639.85,403.21 636.63,400.5C630.38,395.56 624.42,390.89 616.98,387.87C606.34,383.13 594.49,381.95 582.97,382.67C578.76,382.87 574.65,384.39 570.47,384.38C568.39,383.57 566.77,381.32 565.24,379.74C561.36,375.24 556.8,371.58 552.59,367.41C548.58,363.41 544.43,359.55 540.2,355.78C535.19,351.24 529.86,347.49 525.72,342.03C533.37,340.03 541.14,339.47 548.9,337.91C556.79,336.33 564.27,335.3 571.86,332.94C577.13,331.2 582.1,330.6 586.53,326.99L587.04,326.7C585.49,326.52 583.95,326.32 582.41,326.11C578.03,324.27 573.65,324.38 569,324.55C557.79,324.96 546.35,323.52 535.17,322.46C526.98,321.72 519.63,319.01 511.88,320.31C507.46,317.41 502.56,316.35 497.47,315.26C485.31,312.71 473.44,307.64 461.65,303.16C453.25,299.12 444.7,295.16 436.82,290.15C426.89,284.46 416.85,277.68 409.19,269.11C414.37,271.12 419.32,273.64 424.51,275.64C430.33,277.84 435.71,280.41 442.04,280.84C445.43,283.61 449.38,284.64 453.51,285.79C478.65,293.75 505.74,296.46 532.02,295.25C537.38,294.85 542.68,293.98 548.03,293.52C557.54,292.72 566.6,290.47 576.02,289.09C581.26,288.14 586.03,287.91 589.71,283.54C590.04,283.21 590.36,282.89 590.69,282.57C588.97,282.55 587.24,282.57 585.52,282.53C580.43,280.82 575.32,280.49 570,280.61C555.69,280.87 541.54,278.81 527.71,275.2C524.4,274.25 521.33,273.97 518.73,271.5C522.53,271.32 526.26,271.75 530.03,272.15C538.93,273 547.13,271.77 555.95,271.47C563.68,271.16 571.44,270.59 579.08,269.42C591.57,267.21 604.05,265.11 616.47,262.53C626.95,260.54 637.54,259.1 648.05,257.23C667.2,254.61 687.41,254.58 706.34,258.77C707.78,259.06 708.98,258.65 710.3,258.14C710.94,257.85 711.58,257.55 712.21,257.24C708.1,250.91 698.96,249.1 693.01,244.3Z" style="fill:rgb(65,105,225);fill-rule:nonzero;"/>
            <path d="M676,253.47C687.45,253.43 699.36,254.66 710.3,258.14C708.98,258.65 707.78,259.06 706.34,258.77C687.41,254.58 667.2,254.61 648.05,257.23C637.54,259.1 626.95,260.54 616.47,262.53C604.05,265.11 591.57,267.21 579.08,269.42C571.44,270.59 563.68,271.16 555.95,271.47C547.13,271.77 538.93,273 530.03,272.15C526.26,271.75 522.53,271.32 518.73,271.5C521.33,273.97 524.4,274.25 527.71,275.2C541.54,278.81 555.69,280.87 570,280.61C575.32,280.49 580.43,280.82 585.52,282.53C580.98,283.33 576.57,283.57 571.98,283.07C565.17,282.29 558.32,282.45 551.51,281.67C540.51,280.5 529.72,278.18 519.11,275.05C511.29,272.68 503.72,270.97 496.76,266.6C502.56,267.17 508.19,268.28 514.05,268.52C521.07,268.71 527.96,269.89 535,269.74C542.76,269.66 550.61,269.93 558.33,269.16C576.23,267.72 594.08,265.1 611.67,261.51C625.34,258.81 639.11,256.59 652.91,254.64C660.61,253.54 668.24,253.51 676,253.47Z" style="fill:rgb(195,53,192);fill-rule:nonzero;"/>
            <path d="M397.79,260.75C402.42,262.43 406.33,265.11 410.76,267.22C418.09,270.74 425.43,274.09 433.12,276.75C436.22,277.84 439.16,279.25 442.04,280.84C435.71,280.41 430.33,277.84 424.51,275.64C419.32,273.64 414.37,271.12 409.19,269.11C416.85,277.68 426.89,284.46 436.82,290.15C444.7,295.16 453.25,299.12 461.65,303.16C473.44,307.64 485.31,312.71 497.47,315.26C502.56,316.35 507.46,317.41 511.88,320.31C504.29,319.43 497.13,317.19 489.78,315.24C474.03,310.62 458.75,304.55 444.31,296.73C433.42,290.81 422.98,284.57 413.65,276.34C408.25,271.48 402,266.7 397.79,260.75Z" style="fill:rgb(195,53,192);fill-rule:nonzero;"/>
            <path d="M745.06,268.43C751.69,268.68 757.5,271.06 763.63,273.34C770.07,275.84 776.78,278.58 782.51,282.47C789.32,287.18 794.49,294 795.74,302.34C796.32,307.21 797.73,313.05 793.94,317C793.59,311.47 794.72,306.65 793.55,301.26C792.08,294.38 787.48,288.22 781.59,284.43C774.79,279.78 767.53,277.18 759.96,274.11C756.63,272.76 753.25,271.62 749.69,271.07C753.52,275.59 758.31,278.32 762.58,282.4C766.67,286.09 769.61,290.44 774.29,293.48C774.36,290.87 774.38,288.27 774.34,285.66C776.44,287.47 778.52,289.35 780.41,291.38C779.37,291.51 778.35,291.68 777.34,291.89C776.79,293.91 776.06,295.87 775.48,297.88C773.29,296.61 771.39,295.2 769.81,293.19C764.45,286.58 758.23,280.67 751.32,275.7C748.62,273.75 746.29,271.6 745.06,268.43Z" style="fill:rgb(195,53,192);fill-rule:nonzero;"/>
            <path d="M791.7,269.82C798.19,274.25 803.59,280.43 808.56,286.46C814.5,294.68 819.4,304.48 820.62,314.65C821.95,322.01 821,329.93 817.76,336.69C816.1,333.31 814.54,329.95 813.34,326.37C814.83,327.54 816.4,328.62 817.95,329.73C819.22,322.43 819.09,314.96 817.01,307.83C813.63,295.89 806.59,285.91 797.68,277.43C797.21,279.31 796.75,281.16 796.05,282.97C794.6,278.57 792.73,274.37 791.7,269.82Z" style="fill:rgb(195,53,192);fill-rule:nonzero;"/>
            <path d="M749.69,271.07C753.25,271.62 756.63,272.76 759.96,274.11C767.53,277.18 774.79,279.78 781.59,284.43C787.48,288.22 792.08,294.38 793.55,301.26C794.72,306.65 793.59,311.47 793.94,317L793.41,317.83C790.18,307.99 788.12,298.88 780.41,291.38C778.52,289.35 776.44,287.47 774.34,285.66C774.38,288.27 774.36,290.87 774.29,293.48C769.61,290.44 766.67,286.09 762.58,282.4C758.31,278.32 753.52,275.59 749.69,271.07Z" style="fill:rgb(254,254,254);fill-rule:nonzero;"/>
            <path d="M676,273.5C686.99,273.21 697.81,274.6 708.66,276.19C718.92,277.84 727.71,281.87 737.21,285.82C747.69,290.32 757.2,296.71 765.67,304.32C767.25,305.74 768.64,307.35 769.9,309.05L769.09,310.3C756.11,296.84 738.41,287.36 720.87,281.26C702.92,275.19 681.74,275.56 662.96,275.29C666.35,272.53 671.85,273.72 676,273.5Z" style="fill:rgb(195,53,192);fill-rule:nonzero;"/>
            <path d="M662.39,275.65L662.96,275.29C681.74,275.56 702.92,275.19 720.87,281.26C738.41,287.36 756.11,296.84 769.09,310.3L768.07,310.89C753.52,303.07 737.45,298.91 721.03,297.71C708.07,297.2 695.52,297.43 682.85,300.48C688.58,302.85 694.92,303.21 700.78,305.32C707.59,307.36 713.64,310.88 720.21,313.46C718.97,313.93 717.77,314.46 716.52,314.87C707.55,313.67 698.22,314.63 689,314.66C681.41,314.64 673.77,315.58 666.2,316.19C656.38,316.94 646.21,318.22 636.74,321C636.26,320.71 635.78,320.43 635.29,320.14C640.9,317.71 646.22,314.71 652.03,312.69C658.06,310.22 663.94,309.77 669.29,306.46C660.65,305.28 651.69,304.24 642.97,304.86C626.69,306.18 610.01,307.27 593.82,309.54C590.73,309.95 587.72,310.68 584.7,311.44L583.26,311.65C584.2,310.95 585.13,310.25 586.06,309.53C592.7,308.11 598.74,305.25 605.22,303.31C616.03,299.75 627.22,297.08 638.33,294.51C650.65,292.29 662.41,290 675,290.22C685.4,289.95 695.88,290.69 706.23,289.78C692.54,282.52 676.6,278.1 661.21,276.64C661.6,276.3 662,275.97 662.39,275.65Z" style="fill:rgb(254,254,254);fill-rule:nonzero;"/>
            <path d="M661.21,276.64C676.6,278.1 692.54,282.52 706.23,289.78C695.88,290.69 685.4,289.95 675,290.22C662.41,290 650.65,292.29 638.33,294.51C627.22,297.08 616.03,299.75 605.22,303.31C598.74,305.25 592.7,308.11 586.06,309.53C590.38,304.85 597.64,304.21 603.54,301.65C612.65,297.86 622.16,296.1 631.71,293.89C644.61,290.54 657.64,288.26 671,288.18C677.61,287.9 684.66,288.83 690.69,286.14C680.89,281.04 669.67,280.6 659.95,277.68L661.21,276.64Z" style="fill:rgb(195,53,192);fill-rule:nonzero;"/>
            <path d="M442.04,280.84C451.14,282.35 459.74,286.13 468.78,288.1C479.7,290.49 490.86,292.33 502.03,292.84C525.1,295.33 549.33,292.29 572.02,287.89C578.03,286.84 583.73,284.67 589.71,283.54C586.03,287.91 581.26,288.14 576.02,289.09C566.6,290.47 557.54,292.72 548.03,293.52C542.68,293.98 537.38,294.85 532.02,295.25C505.74,296.46 478.65,293.75 453.51,285.79C449.38,284.64 445.43,283.61 442.04,280.84Z" style="fill:rgb(195,53,192);fill-rule:nonzero;"/>
            <path d="M273.09,286.22C282.68,290.45 292.21,294.84 301.67,299.35C327.93,311.7 355.87,321.44 382.86,332.21C389.59,334.98 396.11,338.24 402.69,341.33C415.63,347.75 426.55,357.16 435.84,368.14C442.06,375.45 448.62,383.72 452.06,392.75C448.52,389.69 445.35,386.26 441.91,383.09C424.72,368.03 405.37,357.14 385.03,346.97C366.4,337.94 347.42,330.62 329.18,320.75C309.86,310.58 290.48,299.48 273.09,286.22Z" style="fill:rgb(254,254,254);fill-rule:nonzero;"/>
            <path d="M721.03,297.71C737.45,298.91 753.52,303.07 768.07,310.89C766.19,311.94 764.7,310.87 762.89,310.24C755.62,306.91 747.86,304.63 740.05,302.93C731.27,301.41 722.95,299.67 714,299.61C708.38,299.64 703.03,299.25 697.81,301.54C703.99,304.44 711.32,306.37 717.12,309.92C718.54,310.76 719.28,312.14 720.21,313.46C713.64,310.88 707.59,307.36 700.78,305.32C694.92,303.21 688.58,302.85 682.85,300.48C695.52,297.43 708.07,297.2 721.03,297.71Z" style="fill:rgb(195,53,192);fill-rule:nonzero;"/>
            <path d="M642.97,304.86C651.69,304.24 660.65,305.28 669.29,306.46C663.94,309.77 658.06,310.22 652.03,312.69C646.22,314.71 640.9,317.71 635.29,320.14L634.06,319.47C640.78,313.56 648.49,312.08 656.15,307.98C644.24,306.72 631.97,307.71 620.11,309.06C612.15,309.91 604.17,310.45 596.21,311.32C592.37,311.75 588.55,311.63 584.7,311.44C587.72,310.68 590.73,309.95 593.82,309.54C610.01,307.27 626.69,306.18 642.97,304.86Z" style="fill:rgb(195,53,192);fill-rule:nonzero;"/>
            <path d="M82.94,309.19C88.47,312.48 93.41,316.67 98.83,320.16C103.86,323.7 109.12,326.79 114.45,329.84C134.17,342.68 154.84,352.38 176.44,361.51C185.14,365.5 194.3,368.13 203.17,371.71C213.45,375.15 223.69,378.7 234.08,381.8C270.39,392.85 308.02,400.09 343.97,411.95C355.4,416.31 367.42,420.07 378.12,426.04C372.85,426.71 369.21,424.09 364.44,422.43C359.84,420.77 355.33,418.91 350.81,417.02C345.93,414.96 340.79,415.12 336.03,412.87C332.62,411.26 329.21,409.98 325.54,409.09C318.87,407.43 312.59,405.07 305.77,404C301.91,403.41 298.31,402.49 294.63,401.22C289.2,399.31 283.67,399.94 278.37,397.59C270.82,394.37 262.89,392.33 254.82,390.91C249.72,390.04 244.82,388.57 239.98,386.78C233.93,384.55 227.64,383.73 221.7,381.21C215.59,378.61 209.25,376.76 202.88,374.92C193.32,372.19 184.01,368.36 175.17,363.84C170.92,361.67 166.31,360.56 161.99,358.62C152.88,354.13 143.6,350.16 134.8,345.05C126.98,341.52 120.39,336.23 113.01,331.95C106.41,327.85 99.42,323.15 92.07,320.6C94,328.91 98.73,334.8 102.94,342.05C110.45,354.37 120.17,364.55 130.51,374.51C138.15,381.65 146.99,387.75 155.89,393.21C166.15,399.54 177.48,404.2 188.82,408.2C198.65,411.06 208.24,414.77 218.24,416.69C224.78,418.03 231.25,419.68 237.82,420.86C253.78,424.29 269.93,426.56 285.85,430.18C293.55,431.98 301.46,432.47 309.17,434.13C318.88,436.86 328.73,438.78 338.34,441.87C340.59,442.6 342.19,444.05 344.02,445.46C336.47,443.81 329.26,441.04 321.69,439.45C299.77,434.56 277.65,430.36 255.51,426.61C235.38,422.72 215.83,419.08 196.26,412.82C180.87,408.32 165.99,402.25 152.4,393.68C138.57,384.61 124.31,374.01 114.12,360.85C105.06,350.19 97.33,338.48 90.87,326.08C88.02,320.63 84.99,314.99 82.94,309.19Z" style="fill:rgb(195,53,192);fill-rule:nonzero;"/>
            <path d="M759.44,314.53C766.18,316.01 772.66,319 778.65,322.37C784.12,325.37 788.24,330.03 793.82,332.84C797.04,330.63 799.71,328.21 802.14,325.15C803.96,323.24 805.42,320.69 808.28,320.37C806.84,322.22 805.54,324.15 803.98,325.91C800.65,329.3 797.28,332.66 793.77,335.87C790.86,333.94 788.17,331.74 785.49,329.5C780.01,324.93 773.82,321.53 767.32,318.65C762.92,316.78 757.8,315.37 752.99,315.93C747.64,316.46 743.03,318.28 737.93,319.85C734.86,320.8 731.96,321.95 729.06,323.32C731.53,328.77 735.42,333.31 737.95,338.74C733.34,341.05 727.99,342.73 723.89,345.89C721.79,347.49 721.36,349.66 720.45,351.99C724.61,356.09 729.59,356.61 734.97,358.08C739.86,359.18 744.01,360.94 749.14,360.4C748.09,360.67 747.06,360.97 746.02,361.28C748.8,364.17 751.6,366.89 755.1,368.9C759.88,371.8 765.17,372.8 770.54,374.65C769.32,376.36 768.15,378.11 767,379.86C772.56,379.82 776.66,377.05 781.26,374.34C785.57,377.55 787.38,382.73 792.12,385.12C792.23,384.06 792.32,383 792.39,381.94C793.6,384.19 795.73,386.45 796.06,388.98C796.55,393.12 796.21,397.39 796.07,401.54C791.71,400.11 787.61,397.1 783.07,397.41C781.17,397.38 779.26,397.4 777.35,397.35C777.99,395.6 778.02,392.8 779.9,391.95C781.51,390.9 783.23,390.02 784.91,389.1C781.91,387.03 778.88,386.69 775.68,388.65C768.24,393.34 761.86,399.84 757.34,407.39C756.23,409.21 755.62,411.2 755.07,413.25C760.79,410.29 764.2,404.89 769.63,401.68C771.08,400.74 772.94,402.11 774.39,402.56C778.76,404.51 782.79,404.62 786.53,407.48C788.58,408.75 790.32,410.99 792.94,410.62C796.13,410.53 799.28,410.31 802.47,410.43C803.27,412.61 803.56,414.61 803.55,416.92C799.73,416.25 796.52,416.1 792.66,416.52C788.58,416.94 785.22,414.58 781.03,414.35C777.01,414.02 773.03,415.76 769.01,416.66C766.09,417.55 762.38,417.84 760.5,420.49C759.42,422.26 757.52,423.72 759.06,425.81C763.14,425.79 767.19,423.57 771.22,422.57C775.8,421.23 780.31,421.29 785.04,421.39C789.9,421.62 794.45,421.72 798.73,424.32C798.56,425.41 798.55,426.5 798.7,427.6C791.09,432.03 782.4,427.29 773.82,428.67C773.97,432.14 772.32,434.16 770.3,436.76C776.4,436.62 782.6,435.99 788.69,436.47C791.9,436.64 794.44,439.73 795.29,442.63C795.9,445.6 795.91,448.78 795.64,451.8C795.6,453.81 793.92,454.19 792.44,455.02C791.28,453.36 790.06,451.73 788.92,450.06C786.99,452.91 785.02,455.72 783.05,458.55C776.95,458.64 770.69,458.84 764.77,457.15C760.49,455.89 756.84,453.4 753.71,450.26C748.32,444.95 745.61,438.38 739.23,433.95C739.86,437.07 740.61,440.15 740.87,443.34C735.71,441.23 731.86,437.89 727.1,434.92C721.96,431.48 716.26,427.9 714.24,421.69C711.87,413.59 712.53,404.56 710.79,396.27C706.4,396.14 700.89,397.38 697.1,394.94C692.92,392.51 691.2,387.97 691.42,383.26C696.74,384.11 699.87,388.17 705.46,387.82C705.56,385.86 705.34,383.92 705.41,381.96C709.7,380.64 713.13,380.22 717.61,380.29C719.96,385.08 721.61,389.68 725.48,393.53C728.75,397.23 733.4,399.75 736.27,403.71C739.23,409.99 738.6,419.78 743.35,425.2C744.96,419.25 744.02,413.48 744.46,407.46C744.85,403.49 747.15,400.66 749.99,398.06C748.21,402.4 746.12,406.1 746.04,410.94C745.94,416.89 746.03,422.55 743.76,428.18C737.06,422.07 738.2,414.5 735.2,406.72C732.91,400.71 726.62,398.09 722.83,393.17C720.09,389.82 718.66,385.25 715.6,382.25C713.67,381.76 711.5,381.89 709.66,382.65C707.28,383.97 707.4,389.51 703.94,389.21C700.5,388.85 697.16,387.06 693.86,386.04C694.5,388.67 694.93,391.02 697.21,392.78C700.75,396.22 706.01,393.89 710.38,394.64C712.44,395.19 712.55,397.31 712.89,399.06C713.71,406.01 713.82,413.72 715.58,420.56C716.43,424.07 718.81,426.3 721.5,428.51C726.61,432.52 731.53,436.44 737.56,439.01C737.8,436.62 738.09,434.23 738.35,431.84C740.46,432.98 742.48,434.09 744.07,435.94C749.09,441.51 753.36,448.99 759.81,453.16C764.76,456.21 771.33,456.97 777.04,457.06C778.84,456.94 781.39,457.14 782.66,455.62C785,453.13 786.59,450.2 789.43,448.16C790.88,449.43 792.14,450.89 793.64,452.11C795.52,447.63 794.64,441.39 790.01,438.98C785.68,436.65 781.29,438.24 776.7,438.64C773.88,439.03 771.2,438.55 768.45,438.03C769.5,434.36 770.98,430.87 772.6,427.43C779.09,425.94 785.1,427.66 791.55,427.42C793.55,427.4 794.8,426.27 796.4,425.26C790.28,423.03 783.55,422.44 777.1,423.24C771.35,424 766.22,426.5 760.66,427.68C759.01,428.07 757.61,427.57 756.01,427.22C756.99,423.06 758.07,419.33 762.17,417.25C766.88,415.25 772.1,414.18 777.11,413.18C783.27,411.98 788.23,415.13 794.39,414.61C788.65,410.51 782.82,406.78 775.95,404.89C773.65,404.38 770.53,402.6 768.49,404.48C763.04,408.53 759.68,413.8 752.89,416.07C753.23,413.54 753.53,411.1 754.75,408.81C758.02,402.63 762.3,397.16 767.67,392.67C771.94,389.09 775.8,384.96 781.93,385.85C784.56,386.04 785.12,387.66 786.34,389.61C784.41,391.11 782.56,392.71 780.66,394.24C784.97,395.96 789.34,397.07 793.9,397.86C794,395.16 794.42,392.01 793.61,389.41C792.91,387.97 791.27,386.94 790.09,385.89C786.78,383.28 784.41,380.06 781.72,376.85C777.49,378.01 773.94,380.67 769.76,381.85C767.46,382.47 766.05,381.39 764.11,380.44C764.91,378.69 765.76,376.97 766.55,375.22C761.71,373.33 756.32,371.91 752.18,368.83C749.33,366.82 746.67,364.05 743.57,362.52C737.24,359.55 729.45,359.81 723.22,356.79C718.35,354.71 718.82,346.52 723.03,344.05C726.6,341.71 730.5,339.94 734.09,337.62C733.15,332.73 729.66,329.36 728.18,324.76C727.55,323 728.35,321.79 729.85,320.89C733.21,318.99 737.2,318.04 740.87,316.89C746.95,315.19 753.09,313.17 759.44,314.53Z" style="fill:rgb(65,105,225);fill-rule:nonzero;"/>
            <path d="M689,314.66C698.22,314.63 707.55,313.67 716.52,314.87C712.1,316.7 707.66,316.47 703,316.39C696.61,316.24 690.37,317.41 684,317.4C678.57,317.42 673.18,317.29 667.78,317.98C660.3,318.91 653.01,319.44 645.64,320.91C642.51,321.39 639.8,322.33 636.74,321C646.21,318.22 656.38,316.94 666.2,316.19C673.77,315.58 681.41,314.64 689,314.66Z" style="fill:rgb(195,53,192);fill-rule:nonzero;"/>
            <path d="M752.99,315.93C757.8,315.37 762.92,316.78 767.32,318.65C773.82,321.53 780.01,324.93 785.49,329.5C788.17,331.74 790.86,333.94 793.77,335.87C797.28,332.66 800.65,329.3 803.98,325.91C807.67,333.01 810.19,340.82 811.85,348.63C809.79,350.52 807.78,352.45 805.83,354.45C808.2,354.3 810.46,353.92 812.84,353.94C814.89,354.91 815.19,356.83 816.04,358.69C812.55,360.7 808.92,362.48 805.2,364C803.5,361.83 801.83,359.66 799.87,357.71C799.19,361.3 798.83,364.64 797.35,368.03C798.27,375.1 800.67,381.4 801.81,388.32C802.44,391.82 803.49,395.54 802.08,398.99C800.92,400.97 798.11,401.21 796.07,401.54C796.21,397.39 796.55,393.12 796.06,388.98C795.73,386.45 793.6,384.19 792.39,381.94C791.59,377.65 790.53,373.43 789.61,369.17C791.31,367.02 794.09,365.01 793.93,361.99C794.25,356.85 791.09,352.99 787.98,349.28C788.44,352.84 789.05,356.36 789.23,359.96C787.51,360.56 786.12,361.32 784.24,360.81C774.62,358.45 765.97,350.57 757.94,346.24C750.96,347.08 743.81,349.55 737.64,352.96C741.88,353.52 746.18,353.06 750.39,353.64C754.24,354.49 757.81,357.29 761.05,359.46C757.02,359.54 753.09,359.41 749.14,360.4C744.01,360.94 739.86,359.18 734.97,358.08C729.59,356.61 724.61,356.09 720.45,351.99C721.36,349.66 721.79,347.49 723.89,345.89C727.99,342.73 733.34,341.05 737.95,338.74C735.42,333.31 731.53,328.77 729.06,323.32C731.96,321.95 734.86,320.8 737.93,319.85C743.03,318.28 747.64,316.46 752.99,315.93Z" style="fill:rgb(254,254,254);fill-rule:nonzero;"/>
            <path d="M511.88,320.31C519.63,319.01 526.98,321.72 535.17,322.46C546.35,323.52 557.79,324.96 569,324.55C573.65,324.38 578.03,324.27 582.41,326.11C569.26,326.62 556.1,326.55 543,325.21C532.63,324.09 521.93,323.17 511.88,320.31Z" style="fill:rgb(195,53,192);fill-rule:nonzero;"/>
            <path d="M808.28,320.37C808.94,320.38 809.61,320.45 810.27,320.57C811.38,322.45 812.4,324.39 813.34,326.37C814.54,329.95 816.1,333.31 817.76,336.69C819.6,343.32 822.22,349.64 825.16,355.85C825.81,357.56 827.15,359.69 826.48,361.54C825.15,365.97 821.38,369.63 819.48,373.32C819.59,378.64 822.94,385.21 821.61,390.59C819.24,398.64 815.28,406.4 813.65,414.65C812.8,419.37 813.09,424.03 811.76,428.75C810.67,433.18 807.85,436.56 806.83,441.04C805.77,445.54 807.74,450.5 807.15,454.86C804.26,459.76 799.71,463.82 795.19,467.2C791.23,470.27 786.78,470.22 781.99,470.24C773.1,469.93 764.3,468.88 755.48,467.74C750.07,467.35 745.13,469.85 740.69,472.66C734.77,476.4 729.5,481.63 724.51,486.53C722.64,488.33 721.37,490.49 720.25,492.81C725.15,492.75 728.34,489.76 732.45,487.5C737.26,484.75 741.59,481.49 746.64,479.21C749.95,482.69 752.23,487.02 755.61,490.38C759.3,492.92 763.96,493.79 767.71,496.34C775.17,501.4 781.66,508.71 784.61,517.33C787.58,524.88 786.42,534.35 786.51,542.4C782.59,542.38 778.66,542.36 774.74,542.41C780.63,546.39 786.19,550.72 791.86,554.98C795.33,559.66 798.68,563.93 800.56,569.54C802.8,575.9 802.89,582.41 802.34,589.05C801.34,595.96 796.92,602.44 795.42,609.39C794.19,613.96 794.43,618.43 794.46,623.1C798,614.03 802.87,605.73 810.18,599.18C816.72,593.57 823.92,589.6 831.27,585.26C841.83,578.8 849.74,569.84 856.85,559.85C857.74,558.48 859.31,556.09 858.53,554.43C856.9,551.56 854.25,549.33 852.48,546.52C850.1,543.01 849.67,538.96 849.44,534.84C849.27,531.26 848.41,527.86 847.76,524.36C846.8,521.54 849.85,519.3 851.72,517.7C855.29,514.76 858.97,515.78 863.25,515.57C865.16,511.57 866.65,506.05 870.36,503.39C873.96,500.83 878.68,499.41 882.89,498.22C886.54,500.92 890.08,503.72 893.99,506.05C898.15,508.39 899.94,513.01 903.54,516.45C907.47,520.19 908.2,524.79 910.43,529.6C912.01,533.45 913.75,536.74 911.83,540.89C908.93,547.15 906.06,553.55 902.29,559.33C897.99,566.06 891.1,568.71 885.99,575C879.6,583.05 873.99,591.84 868.5,600.51C863.74,607.75 858.53,614.68 853.58,621.79C850.14,625.74 847.28,629.73 842.93,632.75C838.74,635.62 834.48,638.32 830.56,641.56C822.6,648.24 814.15,654.15 804.96,659C803.06,659.86 800.88,661.21 798.78,660.19C792.95,657.41 787.89,652.19 783.54,647.48C776.43,639.09 771.39,628.18 766.79,618.24C764.64,613.82 763.63,609.58 759.59,606.42C759.85,609.63 760.39,612.8 760.54,616.03C755.07,613.39 752.38,608.81 748.83,604.19C743.9,597.72 740.35,590.1 737.76,582.42C736.76,579.66 738.37,577.99 739.96,575.96C741.89,573.9 743.32,571.67 746.35,571.36C752.96,584.56 762.73,595.74 776.82,601.08C771.65,594.81 766.07,589.16 761.83,582.16C757.59,575.76 756.05,569.04 753.27,561.99C752.88,552.49 758.59,546.31 759.97,537.1C754.74,541.71 750.67,547.11 746.48,552.63C741.47,557.97 737.06,563.69 731.36,568.36C723.06,575.56 714.2,581.72 702.99,583.09C693.26,583.34 686.96,577.43 678.47,574.89C678.62,577.91 679.08,580.84 680.44,583.58C681.69,586.45 683.8,589.14 684.61,592.16C684.97,593.93 683.58,594.41 682.49,595.45C677.26,599.42 671.41,602.43 664.94,603.76C662.94,598.93 660.96,592.6 656.85,589.15C652,585.4 645.66,583.35 639.66,582.37C631.3,580.9 623.21,581.45 614.84,582.31C609.06,582.35 603.54,583.64 597.93,584.9C602.22,586.3 606.41,587.56 610.98,587.55C619.45,587.57 628.25,587.76 636.58,589.4C643.37,590.84 649.51,593.79 653.05,600.03C654.9,603.05 655.33,606.89 652.6,609.56C647.78,614.67 639.6,616.56 634.19,621.18C628.48,626.09 623.69,632.07 617.97,636.97C616.94,637.99 614.94,637.57 613.65,637.37C594.72,632.26 574.6,627.71 554.94,627.49C552.38,627.43 549.84,627.55 547.3,627.84C550.27,629.76 553.55,630.64 556.97,631.37C570.53,634.61 583.25,639.1 596.37,643.68C612.92,650.27 629.18,657.39 644.49,666.55C655.66,673.11 666.41,680.25 676.01,688.99C681.94,694.7 687.9,700.56 693.17,706.84C699.61,714.11 705.33,721.91 712.1,728.91C713.85,730.78 715.87,732.57 717.31,734.7C718.31,738.58 716.89,743.37 716.24,747.26C715.11,752.38 714.3,758.13 711.78,762.77C706.27,766.43 700.64,769.85 694.67,772.71C689.01,775.42 683.97,778.47 678.05,779.88C678.73,774.35 681.71,769.67 681.9,764C676.09,768.51 671.6,774.28 665.51,778.51C652.14,788.48 636.71,792.91 620.72,796.69C604,801 587.19,804.93 570.54,809.53C554.86,813.29 539.51,818.54 524.55,824.53C509.31,830.06 495.1,839.71 481.65,848.64C476.04,852.59 470.36,856.65 465.45,861.45C462.69,864.1 460.57,867.2 458.13,870.11C454.81,873.46 452.38,877.75 448.92,880.9C443.61,884.13 437.77,886.64 432.13,889.27C433.12,881.82 434.64,874.39 436.36,867.08C438.62,859.03 441.11,850.84 446.02,843.96C450.66,837.38 455.91,831.84 459.63,824.5C464.79,814.11 466.83,801.61 472.74,791.63C474.12,789.76 475.6,787.01 478.36,787.75C486.68,788.97 493.99,792.11 501.46,795.77C505.01,797.69 508.64,796.59 512.26,795.52C523.2,791.62 532.87,786.41 543.19,781.33C550.48,777.74 557.68,771.16 565.52,768.83C571.61,767.59 578.78,768.95 584.92,769.46C588.09,769.69 591.2,770.28 594.3,770.93C591.06,772.64 587.75,773.95 584.24,775.02C574.36,778.18 564.72,781.95 555.04,785.67C563.75,784.84 572.42,783.55 581.09,782.39C595.79,780.41 610.3,776.38 624.26,771.44C629.56,769.43 634.61,767.54 639.35,764.39C629.15,764.16 618.62,765.26 608.46,764.23C598.28,762.67 588.27,759.27 578.91,755.02C584.73,750.25 591.35,746.44 598.24,743.46C609.69,738.83 622.57,737.76 634.79,738.82C641.65,739.65 648.55,739.8 655.4,740.87C658.36,741.38 661.31,741.7 664.32,741.88C654.57,734.41 641.7,730.47 629.81,728C620.48,726.34 611.07,725.05 601.66,723.89C588.13,722.04 575.66,717.79 562.96,712.97C553.31,709.79 544.74,705.05 535.49,700.47C530.9,697.82 525.29,695.79 521.87,691.8C529.04,691.31 535.26,692.46 541.94,689.12C535.52,686.69 528.86,686.26 522.29,684.51C513.04,681.99 504.35,679.12 496.43,673.55C489.33,668.37 483.28,662.24 480.31,653.78C476.14,642.24 478.58,629.31 483.69,618.47C487.82,609.87 494.86,604.07 501.42,597.41C503.23,595.71 505.07,593.62 507.3,592.5C510.28,592.3 513.43,593.3 516.32,593.94C526.03,596.3 535.37,599.8 543.78,605.29C549.58,608.62 554.24,613.34 560.25,616.21C557.98,610.29 554.27,605.6 550.26,600.79C544.03,593.52 537.26,586.96 529.09,581.9C525.97,580 522.9,578.09 520,575.88C521.66,572.33 523.94,569.19 525.97,565.84C530.28,558.26 532.96,549.41 535.2,541.01C536.19,536.91 536.95,532.85 538.83,529.04C541.5,537.75 544.12,546.06 549.18,553.75C552.38,558.89 556.91,562.69 560.35,567.61C563.39,571.9 564.67,576.79 568.29,580.73C568.65,576.95 568.53,573.19 567.68,569.48C566.08,562.38 564.11,555.37 561.65,548.52C559.61,542.56 557.11,536.46 555.92,530.32C553.81,520.13 554.52,509.11 554.73,498.72C561.43,495.57 568.7,493.25 575.84,491.28C578.11,497.23 579.1,503.52 581.2,509.52C583.9,518.72 587.58,527.55 591.74,536.17C594.04,540.63 596.44,545.44 600.35,548.71C605.54,553.16 611.66,555.5 617.81,558.29C625.07,561.55 632.45,564.39 639.87,567.25C645.7,569.54 651.75,570.9 658.06,570.46C668.3,569.86 677.02,564.1 682.88,555.87C687.97,548.51 692.98,539.81 694.2,530.82C689.94,535.17 687.07,540.46 683.06,545.05C677.9,551.37 672.01,556.96 664.5,560.38C659.21,562.75 652.55,561.59 647.34,559.5C639.58,556.54 632.12,552.07 624.84,548.08C620.37,545.53 615.33,543.02 612.27,538.76C608.24,533.24 605.77,526.11 603.49,519.72C600.08,510.52 598.32,501.17 595.59,491.62C595.41,489.82 595.26,488.04 594.83,486.28C598.86,486.5 602.8,486.36 606.78,485.75C616,484.69 625.46,482.07 632.51,475.74C627.63,475.36 622.85,475.87 617.99,476.22C607.24,475.52 596.97,473.84 587.4,468.62C580.66,464.86 574.63,459.95 567.95,456.07C560.86,451.9 553.11,447.11 544.88,445.93C548.62,450.95 553.39,454.84 557.4,459.6C561.27,464.24 565.07,468.77 567.99,474.1C565.05,475.74 562.01,476.98 558.69,477.62C551.98,478.97 544.88,480.68 538.04,480.6C532.28,480.61 526.47,480.77 520.72,480.36C511.79,479.19 503,476.76 494.67,473.35C492.13,472.32 489.86,470.9 487.58,469.41C487.52,466.08 487.5,462.75 487.27,459.43C484.01,462.75 482.09,466.76 479.7,470.67C474.58,478.93 469.29,486.56 461.23,492.23C453.4,498.12 444.99,501.05 436.16,505.17C427.24,508.96 420.07,514.6 412.54,520.56C407.42,525.05 402.51,530.04 398.7,535.71C396,539.28 397.71,544.3 398.66,548.2C400.12,554.32 402.66,560.69 402.68,567C402.86,569.9 400.96,572.2 399.72,574.69C397.06,579.33 396.11,584.6 393.6,589.32C389.23,590.03 385.47,591.29 381.82,593.82C378.17,596.08 374.45,599.02 369.96,597.06C365.45,594.58 361.89,590.34 357.87,587.13C352.46,582.81 348.22,577.51 343.49,572.5C341.31,569.99 339.25,567.4 339.34,563.89C339.06,560.28 340.42,557.24 342.2,554.21C346.36,547.16 350.95,540.34 355.72,533.69C358.68,529.6 362.38,526.45 365.96,522.97C372.07,516.79 377.07,509.79 381.49,502.32C388.58,491.78 395.83,481.36 402.65,470.64C408.12,462.09 415.2,455.4 422.92,448.91C426.83,445.7 430.54,442.53 434.96,440.04C433.59,444.94 431.66,449.61 430.55,454.59C441.16,447.05 447.74,434.17 458.28,426.34C459.41,425.56 460.68,425.52 462,425.34C470.37,424.64 479.66,424.5 487.59,421.62C496.21,418.83 503.67,414.35 512.64,412.57C522.43,410.67 532.6,410.26 542.54,410.87C538.28,417.45 533.36,422.69 530.79,430.34C532.8,428.85 534.66,427.19 536.44,425.44C545.09,417.38 554.04,410.07 564.53,404.52C571.3,401.08 578.47,398.96 585.99,397.99C597.53,396.77 609.16,399.4 619.51,404.48C628.42,408.83 635.5,416.12 640.17,424.81C642.06,428.36 643.17,432.21 644.98,435.79C645.14,427.94 643.8,420.22 641.46,412.74C647.94,412.12 654.51,412.63 661.03,412.41C663.04,412.49 665.42,412.18 667.31,412.92C669.43,414.36 671.2,416.41 673.03,418.19C678.9,413.66 684.64,408.79 690.18,403.87C687.88,400.54 685.13,397.57 682.95,394.17C679.94,389.15 677.94,383.73 676.32,378.14C692.01,374.29 708.61,373.31 724.66,371.47C727.93,376.14 729.45,381.37 733.27,385.67C736.1,388.85 739.28,392.23 743.05,394.26C746.46,394.31 749.83,393.56 753.25,393.54C752.22,395.09 751.18,396.63 749.99,398.06C747.15,400.66 744.85,403.49 744.46,407.46C744.02,413.48 744.96,419.25 743.35,425.2C738.6,419.78 739.23,409.99 736.27,403.71C733.4,399.75 728.75,397.23 725.48,393.53C721.61,389.68 719.96,385.08 717.61,380.29C713.13,380.22 709.7,380.64 705.41,381.96C705.34,383.92 705.56,385.86 705.46,387.82C699.87,388.17 696.74,384.11 691.42,383.26C691.2,387.97 692.92,392.51 697.1,394.94C700.89,397.38 706.4,396.14 710.79,396.27C712.53,404.56 711.87,413.59 714.24,421.69C716.26,427.9 721.96,431.48 727.1,434.92C731.86,437.89 735.71,441.23 740.87,443.34C740.61,440.15 739.86,437.07 739.23,433.95C745.61,438.38 748.32,444.95 753.71,450.26C756.84,453.4 760.49,455.89 764.77,457.15C770.69,458.84 776.95,458.64 783.05,458.55C785.02,455.72 786.99,452.91 788.92,450.06C790.06,451.73 791.28,453.36 792.44,455.02C793.92,454.19 795.6,453.81 795.64,451.8C795.91,448.78 795.9,445.6 795.29,442.63C794.44,439.73 791.9,436.64 788.69,436.47C782.6,435.99 776.4,436.62 770.3,436.76C772.32,434.16 773.97,432.14 773.82,428.67C782.4,427.29 791.09,432.03 798.7,427.6C798.55,426.5 798.56,425.41 798.73,424.32C794.45,421.72 789.9,421.62 785.04,421.39C780.31,421.29 775.8,421.23 771.22,422.57C767.19,423.57 763.14,425.79 759.06,425.81C757.52,423.72 759.42,422.26 760.5,420.49C762.38,417.84 766.09,417.55 769.01,416.66C773.03,415.76 777.01,414.02 781.03,414.35C785.22,414.58 788.58,416.94 792.66,416.52C796.52,416.1 799.73,416.25 803.55,416.92C803.56,414.61 803.27,412.61 802.47,410.43C799.28,410.31 796.13,410.53 792.94,410.62C790.32,410.99 788.58,408.75 786.53,407.48C782.79,404.62 778.76,404.51 774.39,402.56C772.94,402.11 771.08,400.74 769.63,401.68C764.2,404.89 760.79,410.29 755.07,413.25C755.62,411.2 756.23,409.21 757.34,407.39C761.86,399.84 768.24,393.34 775.68,388.65C778.88,386.69 781.91,387.03 784.91,389.1C783.23,390.02 781.51,390.9 779.9,391.95C778.02,392.8 777.99,395.6 777.35,397.35C779.26,397.4 781.17,397.38 783.07,397.41C787.61,397.1 791.71,400.11 796.07,401.54C798.11,401.21 800.92,400.97 802.08,398.99C803.49,395.54 802.44,391.82 801.81,388.32C800.67,381.4 798.27,375.1 797.35,368.03C798.83,364.64 799.19,361.3 799.87,357.71C801.83,359.66 803.5,361.83 805.2,364C808.92,362.48 812.55,360.7 816.04,358.69C815.19,356.83 814.89,354.91 812.84,353.94C810.46,353.92 808.2,354.3 805.83,354.45C807.78,352.45 809.79,350.52 811.85,348.63C810.19,340.82 807.67,333.01 803.98,325.91C805.54,324.15 806.84,322.22 808.28,320.37Z" style="fill:rgb(1,1,1);fill-rule:nonzero;"/>
            <path d="M586.53,326.99C582.1,330.6 577.13,331.2 571.86,332.94C564.27,335.3 556.79,336.33 548.9,337.91C541.14,339.47 533.37,340.03 525.72,342.03C529.86,347.49 535.19,351.24 540.2,355.78C544.43,359.55 548.58,363.41 552.59,367.41C556.8,371.58 561.36,375.24 565.24,379.74C566.77,381.32 568.39,383.57 570.47,384.38C574.65,384.39 578.76,382.87 582.97,382.67C594.49,381.95 606.34,383.13 616.98,387.87C624.42,390.89 630.38,395.56 636.63,400.5C639.85,403.21 641.1,408.93 645.46,409.76C651.89,411.36 659.41,409.82 665.98,410.49C669.15,410.81 671.79,413.66 674.82,414.03C679.25,411.27 683.13,407.45 686.88,403.83C682.84,395.9 674.42,387.03 675.42,377.47C677.13,375.25 681.01,375.02 683.57,374.56C692.75,373.55 701.74,371.7 710.97,371.19C715.7,370.98 720.86,369.62 725.53,370.45C727.21,371.67 728.31,373.87 729.32,375.64C732.19,381.17 736.05,387.1 741.16,390.79C745.44,394.01 752.67,389.35 756.85,392.81C754.8,395.32 753,396.82 749.99,398.06C751.18,396.63 752.22,395.09 753.25,393.54C749.83,393.56 746.46,394.31 743.05,394.26C739.28,392.23 736.1,388.85 733.27,385.67C729.45,381.37 727.93,376.14 724.66,371.47C708.61,373.31 692.01,374.29 676.32,378.14C677.94,383.73 679.94,389.15 682.95,394.17C685.13,397.57 687.88,400.54 690.18,403.87C684.64,408.79 678.9,413.66 673.03,418.19C671.2,416.41 669.43,414.36 667.31,412.92C665.42,412.18 663.04,412.49 661.03,412.41C654.51,412.63 647.94,412.12 641.46,412.74C636.25,402.47 627.46,394.66 616.98,390.03C605.23,385.06 592.6,382.75 579.91,385.01C576.43,385.54 572.63,386.67 569.12,386.28C566.44,384.76 564.29,381.96 562.28,379.67C557.58,374.03 551.62,369.79 546.58,364.42C537.99,355.65 527.56,348.99 519.11,340.13C523.61,339.3 528.14,338.78 532.69,338.38C545.56,336.99 557.79,334.15 570.33,331.14C575.78,329.81 580.95,327.8 586.53,326.99Z" style="fill:rgb(195,53,192);fill-rule:nonzero;"/>
            <path d="M681.78,334.42C666.65,334.35 651.34,336.38 636.34,338.22C620.79,340.56 605.43,344.05 590.39,348.64C582.77,350.88 575.44,352.74 568.23,356.2C574.78,352.08 583.33,350.57 590.65,348.22C616.78,340.09 643.76,335.97 671.03,334.41C674.8,334.23 678.05,333.34 681.78,334.42Z" style="fill:rgb(1,1,1);fill-rule:nonzero;"/>
            <path d="M681.78,334.42C682.27,334.79 682.76,335.16 683.24,335.55C678.9,338.3 674.87,341.63 670.8,344.76C666.42,348.2 662.05,351.37 658.66,355.88C666.15,356.6 673.62,356.08 681.11,357.02C692.43,358.06 703.71,359.55 714.96,361.19C718.71,361.71 722.32,362.56 725.79,364.1C719.44,365.11 713.35,364.41 706.96,364.86C696.71,365.67 686.43,366.21 676.19,367.1C656.26,369.85 635.22,371.58 615.73,376.56L616.11,375.27C619.34,372.11 622.84,369.24 626.01,366.02C630.08,361.96 634.2,359.01 637.5,354.44C623,355.51 608.53,356.72 593.97,356.75C584.93,357.57 575.9,357.19 566.86,357.76L566.05,357.53C566.77,357.08 567.5,356.63 568.23,356.2C575.44,352.74 582.77,350.88 590.39,348.64C605.43,344.05 620.79,340.56 636.34,338.22C651.34,336.38 666.65,334.35 681.78,334.42Z" style="fill:rgb(254,254,254);fill-rule:nonzero;"/>
            <path d="M683.24,335.55L683.87,336.07C679.67,343.17 671.13,345.2 666.43,352.28C668.89,353.28 671.39,353.41 674.01,353.53C679.88,353.8 685.37,355.04 691.24,355.76C698.35,356.75 705.49,357.49 712.57,358.65C719.46,359.95 725.9,360.95 731.93,364.78C729.71,365.78 727.47,366.58 725.01,366.8C715.69,367.73 706.31,366.76 696.96,367.71C689.22,368.57 681.44,368.58 673.71,369.55C666.37,370.48 659.02,371.42 651.71,372.59C644.44,373.74 637.15,374.29 629.94,375.88C625.11,376.95 620.27,377.79 615.31,378.01L615.73,376.56C635.22,371.58 656.26,369.85 676.19,367.1C686.43,366.21 696.71,365.67 706.96,364.86C713.35,364.41 719.44,365.11 725.79,364.1C722.32,362.56 718.71,361.71 714.96,361.19C703.71,359.55 692.43,358.06 681.11,357.02C673.62,356.08 666.15,356.6 658.66,355.88C662.05,351.37 666.42,348.2 670.8,344.76C674.87,341.63 678.9,338.3 683.24,335.55Z" style="fill:rgb(195,53,192);fill-rule:nonzero;"/>
            <path d="M757.94,346.24C765.97,350.57 774.62,358.45 784.24,360.81C786.12,361.32 787.51,360.56 789.23,359.96C789.05,356.36 788.44,352.84 787.98,349.28C791.09,352.99 794.25,356.85 793.93,361.99C794.09,365.01 791.31,367.02 789.61,369.17C790.53,373.43 791.59,377.65 792.39,381.94C792.32,383 792.23,384.06 792.12,385.12C787.38,382.73 785.57,377.55 781.26,374.34C776.66,377.05 772.56,379.82 767,379.86C768.15,378.11 769.32,376.36 770.54,374.65C765.17,372.8 759.88,371.8 755.1,368.9C751.6,366.89 748.8,364.17 746.02,361.28C747.06,360.97 748.09,360.67 749.14,360.4C753.09,359.41 757.02,359.54 761.05,359.46C757.81,357.29 754.24,354.49 750.39,353.64C746.18,353.06 741.88,353.52 737.64,352.96C743.81,349.55 750.96,347.08 757.94,346.24Z" style="fill:rgb(1,1,1);fill-rule:nonzero;"/>
            <path d="M637.5,354.44C634.2,359.01 630.08,361.96 626.01,366.02C622.84,369.24 619.34,372.11 616.11,375.27C615.34,375.3 614.57,375.33 613.81,375.35C616.23,371.53 619.21,368.6 622.76,365.83C625.29,363.9 626.88,361.75 628.28,358.91C618.6,358.22 608.76,358.4 599.09,359.34C591.74,359.82 584.33,359.53 576.96,359.64C573.29,359.72 570.25,359.1 566.86,357.76C575.9,357.19 584.93,357.57 593.97,356.75C608.53,356.72 623,355.51 637.5,354.44Z" style="fill:rgb(195,53,192);fill-rule:nonzero;"/>
            <path d="M806.4,378.28C809.08,378.44 810.8,378.65 812.13,381.21C813.23,385.11 812.24,389.75 810.96,393.51C809.94,392.55 808.81,391.87 808.38,390.47C806.99,386.53 806.34,382.46 806.4,378.28Z" style="fill:rgb(195,53,192);fill-rule:nonzero;"/>
            <path d="M589.04,414.5C598.32,413.41 606.61,416.83 614.23,421.79C619.32,425.44 623.99,429.04 626.47,435.01C620.59,434.01 615.97,430.95 610.15,429.04C603.83,426.96 597.15,425.46 590.55,424.62C581.75,423.91 572.7,424.47 563.88,424.67C570.75,418.76 580.19,415.66 589.04,414.5Z" style="fill:rgb(65,105,225);fill-rule:nonzero;"/>
            <path d="M695.18,425.46C695.91,427.58 696.47,429.68 696.42,431.94C696.42,437.18 696.56,442.43 696.37,447.67C694.25,453.59 695.96,458.68 695.79,465C695.8,475.4 697.3,485.7 697.63,496.07C691.02,488.4 687.23,478.48 677.49,473.28C669.56,464.76 662.04,455.34 656.71,444.95C662.97,448.43 668.04,452.92 673.44,457.56C677.18,460.94 680.82,464.31 685.2,466.86C685.22,455.61 688.14,445.18 691.49,434.55C692.46,431.41 693.62,428.35 695.18,425.46Z" style="fill:rgb(65,105,225);fill-rule:nonzero;"/>
            <path d="M518.06,438.41C513.93,439.73 509.72,440.75 505.46,441.57C500.15,442.58 495.08,443.67 489.63,443.08C498.38,436.85 507.94,438.29 518.06,438.41Z" style="fill:rgb(195,53,192);fill-rule:nonzero;"/>
            <path d="M710.59,440.75C714.94,444.74 717.94,449.76 722.01,453.99C724.1,456.17 725.93,458.52 727.72,460.95C724,465.32 720.11,469.13 717.27,474.19C715.34,477.69 713.19,480.93 710.76,484.09C710.21,480.73 709.58,477.42 709.54,474.01C709.45,465.34 709.46,456.67 709.31,448.01C709.41,445.35 708.82,443.01 710.59,440.75Z" style="fill:rgb(65,105,225);fill-rule:nonzero;"/>
            <path d="M458.28,447.94C451.68,458.46 442.12,466.85 435.46,477.41C434.54,476.82 433.62,476.23 432.71,475.64C433.5,473.15 434.55,471.02 434.29,468.33C434.31,466.93 433.79,464.99 434.75,463.84C436.89,461.04 439.92,458.83 442.7,456.69C447.47,453.28 452.7,449.84 458.28,447.94Z" style="fill:rgb(65,105,225);fill-rule:nonzero;"/>
            <path d="M696.37,447.67C696.54,450.18 696.8,452.68 697.09,455.18C697.82,461.8 697.28,468.49 697.97,475.18C698.53,480.18 698.38,485.2 699.05,490.19C699.65,494.97 699.81,499.79 699.18,504.58C695.72,500.07 694.31,494.58 691.04,489.92C687.23,483.69 681.8,479.09 677.49,473.28C687.23,478.48 691.02,488.4 697.63,496.07C697.3,485.7 695.8,475.4 695.79,465C695.96,458.68 694.25,453.59 696.37,447.67Z" style="fill:rgb(195,53,192);fill-rule:nonzero;"/>
            <path d="M553.07,451.76C559.24,452.21 563.25,455.68 568.32,458.7C574.12,462.26 579.35,466.43 585.41,469.6C592.55,473.34 599.86,476.42 608,476.94C613.09,477.28 618.1,477.75 623,479.26C617.94,482 612.45,483.23 606.74,483.62C602.39,484.15 598.49,483.45 594.83,486.28C595.26,488.04 595.41,489.82 595.59,491.62C595.44,494.81 595.22,497.87 596.09,500.99C599.77,513.88 602.55,526.64 609.77,538.28C615.01,546.62 625.44,550.29 633.61,555.33C642.23,560.03 653.63,565.26 663.57,562.45C672.72,559.84 677.37,553 684.76,547.82C680.83,557.94 671.85,566.13 661.06,568.13C653.34,569.56 644.84,567.12 637.66,564.35C626.06,559.53 614.77,555.7 603.98,549.04C601.74,547.58 599.9,545.81 598.36,543.63C593.04,535.99 590.07,527.87 586.69,519.32C583.64,511.92 581.1,504.38 579.5,496.53C578.93,494.65 578.51,491.3 576.57,490.35C571.21,489.85 565.36,492.69 560.3,494.3C557.63,495.51 553.27,496.39 553.3,500.08C552.77,508.88 552.46,517.85 553.52,526.62C555.37,541.98 563.96,554.21 565.06,569.84C561.01,564.6 556.43,559.82 552.33,554.63C546.13,546.62 543.52,537.83 540.28,528.45C539.27,528.47 538.29,528.38 537.32,528.18C535.69,531.6 534.62,535.1 533.82,538.79C531.38,549.26 528.32,559.18 522.19,568.14C520.64,570.67 518.02,574.37 519.47,577.41C521.76,580.09 525.35,581.81 528.26,583.76C535.31,588.12 540.69,593.69 546.6,599.43C548.89,601.65 550.51,604.29 551.9,607.13C544.02,603.63 537.55,598.39 529.14,595.86C522.65,594 515.77,591.23 508.98,591.15C506.47,591.05 504.57,592.13 502.76,593.73C495.2,600.61 488.08,606.94 483.09,616.05C478.76,624.38 476.22,633.56 476.62,643.01C476.58,651.31 479.93,659.49 485.06,665.92C491.98,673.81 500.92,679.52 510.72,683.16C516.85,685.37 523.28,686.29 529.31,688.82C526.09,689.59 522.88,690.34 519.7,691.29C521.02,694.03 522.47,695.36 525.04,696.91C536.96,704.07 549.68,710.64 562.87,715.11C571.42,718 579.56,721.46 588.4,723.48C595.59,725.27 602.8,725.7 610.08,726.94C617.49,728.26 624.88,728.55 632.16,730.65C638.51,732.53 645.33,733.02 650.34,737.67C640.8,738.32 631.54,736.2 621.97,736.88C613.69,737.44 604.6,738.46 597.02,742.03C591.92,744.4 586.86,747.02 582.2,750.18C579.68,751.99 577.92,753.22 578,756.62C584.12,760.04 591.16,762.1 597.86,764.15C607.37,766.89 616.63,766.4 626.25,767.96C617.27,771.96 607.89,775.44 598.22,777.3C592.13,778.67 586.13,779.98 579.84,779.83C585.6,776.26 591.69,775.55 596.72,770.87C592.51,768.12 587.34,768.21 582.46,767.53C575.81,766.92 567.77,766.02 561.42,768.45C556.06,770.72 551.52,774.65 546.26,777.23C538.92,780.91 531.89,785.09 524.39,788.45C519.33,790.73 514.01,793.52 508.56,794.61C506.33,795.11 504.26,794.69 502.19,793.82C494.7,790.67 486.09,786.42 477.87,786.14C474.33,785.82 472.8,788.46 471.08,791.02C465.45,800.2 463.59,812.15 458.96,821.98C453.51,832.84 443.37,841.82 439.1,853.11C434.25,864.39 433.34,875.66 430.28,887.4C427.84,887.93 425.71,888.13 423.21,887.98C422.65,880.18 424.2,872.81 425.35,865.16C426.29,858.67 428.9,853.21 431.37,847.22C434.52,840 439.37,833.37 444.16,827.15C449.64,820.05 452.74,810.86 455.42,802.4C457.72,795.04 461.16,787.92 465.64,781.64C467.57,779.05 469.61,777.69 472.97,777.93C483.32,778.45 493.84,782.12 503.62,785.41C509.92,788.04 517.12,783.44 522.74,780.8C530.6,776.72 539.06,772.52 546.02,767.03C555.1,759.68 562.82,750.23 571.66,742.69C573.57,740.91 575.46,739.57 575.68,736.74L575.95,735.37C574.63,733.89 573.37,733.01 571.49,732.36C563.82,729.59 555.81,727.77 548.21,724.66C545.3,723.55 542.18,722.06 539.06,721.75C534.69,723.42 531.01,727.42 527.48,730.43C517.82,739.55 507.13,746.65 496.19,754.13C486.46,760.97 475.31,766.35 464.53,771.35C457.35,774.71 450.16,776.78 444.1,782.1C439.75,785.96 436.22,790.16 430.93,792.88C417.49,800.03 402.46,799.49 388.91,804.82C382.61,807.19 376.27,809.11 370.2,812.06C359.47,817.22 348.47,821.69 337.53,826.37C323.28,832.86 308.73,838.79 294.54,845.44C289.45,847.87 284.1,849.58 278.97,851.91C272.09,855.04 265.16,858.04 258.36,861.32C240.68,869.07 223.6,878.15 205.93,885.94C199.74,888.62 193.91,892.05 187.77,894.81C185.55,895.85 183.28,896.22 180.85,896.3C181.89,895.19 182.93,894.09 184.05,893.07C193.53,885.12 203.9,878.34 213.34,870.36C226.02,860.08 240.22,850.28 251.8,838.81C259.77,830.95 267.97,822.71 274.89,813.89C280.49,806.43 285.57,798.48 290.74,790.73C292.74,787.64 295.43,784.65 295.55,780.78C295.51,780.1 295.47,779.41 295.42,778.73C291.84,777.18 288.68,778.21 285,778.62C278.52,779.66 271.98,780.31 265.51,781.43C258.42,782.72 251.21,782.84 244.06,783.84C255.46,779.12 267.74,776.43 279.48,772.67C296.92,766.6 314.72,761.85 331.98,755.15C335.85,753.63 339.76,752.24 343.74,751.02C351.3,748.72 358.46,745.88 366.27,744.44C372.8,743.08 379.54,742.76 386.03,741.28C387.72,740.94 388.72,740.09 389.8,738.81C393.21,733.53 396.41,728.13 399.9,722.9C401.6,720.36 402.88,717.85 403.83,714.94C395.27,713.25 385.5,715.38 376.92,716.46C365.6,717.7 354.45,719.95 343.11,720.97C331.67,722.39 320.37,724.92 308.95,726.46C305.96,726.77 303.04,726.76 300.04,726.74C305.5,724.07 311.17,721.94 316.94,720.05C326.23,717.03 335.3,713.49 344.72,710.86C355.55,707.82 366.56,704.99 377.26,701.42C383.35,699.36 389.6,697.93 395.74,696.01C403.93,693.51 411.78,691.76 419.1,687.04C424.06,683.79 429.73,680.97 433.77,676.76C439.96,670.61 445.71,664.05 452.05,658.05C454.32,655.68 456.97,653.55 457.28,650.05C457.63,645.64 458.37,639.95 456.11,635.95L455.21,634.91C453.33,634.02 451.69,634.03 449.68,634.34C434.77,636.7 419.88,639.96 404.87,641.52C408.46,638.98 412.54,637.44 415.95,634.6C421.04,631.85 426.49,629.63 431.84,627.44C430.01,627.46 428.18,627.49 426.35,627.48C420.07,626.59 414.39,628.23 408.23,629.02C399.19,630.24 390.47,632.4 381.35,633.15C374.9,633.67 368.45,634.17 361.99,634.66C355.92,635.1 350.11,636.38 344.04,636.55C338.02,636.72 331.99,636.72 325.98,636.57C334.74,633.77 343.78,633.27 352.69,631.01C372.01,626.42 391.31,622.44 410.29,616.52C420.35,614 429.85,610.01 439.72,606.91C449.01,603.54 458.23,599.76 466.97,595.14C471.61,592.77 476.27,590.63 480.49,587.54C485.95,583.53 491.25,580.64 496.01,576.01C501.65,570.66 505.93,564.31 509.5,557.43C512.31,552.14 513.62,545.88 515.13,540.05C515.91,537.27 515.84,534.58 515.51,531.74L515.41,530.14L514.24,530.48C509.47,531.19 507.05,534.61 503.42,537.41C493.85,545.11 483.12,551.32 471.55,555.48C463.42,558.35 454.42,561.42 445.72,561.03C448.24,555.36 453.01,553.33 457.4,549.38C465.65,541.95 472.83,533.44 477.12,523.1C477.93,521.18 477.85,519.62 477.29,517.64L476.08,517.04C473.45,515.28 471.48,516.95 468.96,517.94C463.27,520.83 457.39,523.22 451.46,525.57C443.99,528.62 435.37,529.83 427.43,531.43C422.26,532.5 416.92,532.64 411.8,533.87C408.22,534.81 404.18,537.84 404.32,541.91C404.31,548.37 406.04,555.03 407.87,561.17C408.5,563.78 409.51,566.78 408.32,569.36C406.27,574.14 403.22,578.38 401.51,583.36C400.46,585.89 399.88,589.07 398.15,591.21C395.73,593.3 391.94,594.1 388.94,594.99C391.59,592.86 395.05,590.8 396.87,587.88C398.77,584.61 399.76,580.83 401.44,577.42C403.06,573.75 405.42,570.27 404.95,566.08C404.17,558.54 401.25,550.82 399.48,543.54C398.26,539.37 401.24,535.66 403.52,532.49C409.13,525.51 416.08,519.53 423.4,514.4C429.16,510.32 435.26,507.7 441.58,504.61C446.8,502.07 451.74,500.65 456.48,497.51C461.91,493.8 467.14,490.51 471.35,485.34C476.22,479.92 479.39,473.38 484.11,467.86C486.64,470.15 489.22,473.25 492.39,474.57C503.46,479.05 515.13,481.66 526.98,482.95C536.07,483.46 545.36,481.98 554.29,480.4C559.49,479.46 564.49,478.22 569.19,475.72C568.93,474 569.09,472.44 568.12,470.9C563.88,463.72 558.02,458.15 553.07,451.76Z" style="fill:rgb(65,105,225);fill-rule:nonzero;"/>
            <path d="M432.04,460.02C431.22,464.1 429.55,467.81 427.33,471.31C423.23,477.82 418.6,483.98 414.53,490.51C411.34,495.25 407.94,499.99 404.01,504.15C404.78,499.67 406.57,495.61 408.52,491.55C412.7,483.04 417.38,474.46 422.36,466.4C424.5,462.56 428.04,461.18 432.04,460.02Z" style="fill:rgb(65,105,225);fill-rule:nonzero;"/>
            <path d="M755.48,467.74C755.93,473.6 758.33,477.24 762.56,481.07L760.82,481.51C764.79,485.83 770.19,487.26 775.34,490.68C782.58,495.36 789.49,502.38 792.22,510.73C795.75,520.18 796.52,529.97 796.18,539.98C796.22,543.06 795.84,546.55 797.86,549.14C800.76,553 804.53,555.69 806.9,560.07C809.76,565.04 810.2,570.17 811.23,575.66C811.57,577.82 812.47,579.49 813.84,581.16L814.63,582.36C818.64,582.63 821.62,580.73 825.13,579.16C829.9,576.88 834.61,575.14 838.7,571.69C843.9,567.4 846.94,562.17 851.13,557C852.45,557.61 853.78,558.19 855.11,558.78C852.4,563.4 849,567.45 845.22,571.22C841.35,575.05 837.62,579.09 833,581.96C823.84,587.6 813.39,593.15 806.06,601.08C802.76,604.4 800.89,608.44 797.07,611.27C797.59,603.08 802.66,596.83 803.68,588.63C804.46,581.92 804.02,574.68 801.7,568.29C799.32,562.96 797.25,557.91 791.86,554.98C786.19,550.72 780.63,546.39 774.74,542.41C778.66,542.36 782.59,542.38 786.51,542.4C786.42,534.35 787.58,524.88 784.61,517.33C781.66,508.71 775.17,501.4 767.71,496.34C763.96,493.79 759.3,492.92 755.61,490.38C752.23,487.02 749.95,482.69 746.64,479.21C741.59,481.49 737.26,484.75 732.45,487.5C728.34,489.76 725.15,492.75 720.25,492.81C721.37,490.49 722.64,488.33 724.51,486.53C729.5,481.63 734.77,476.4 740.69,472.66C745.13,469.85 750.07,467.35 755.48,467.74Z" style="fill:rgb(65,105,225);fill-rule:nonzero;"/>
            <path d="M432.71,475.64C433.62,476.23 434.54,476.82 435.46,477.41C434.19,479.32 432.85,481.18 431.41,482.97C431.62,480.48 431.91,478.03 432.71,475.64Z" style="fill:rgb(195,53,192);fill-rule:nonzero;"/>
            <path d="M760.82,481.51L762.56,481.07C767.96,484.21 773.56,486.6 778.61,490.37C786.29,495.82 792.94,503.46 795.45,512.7C797.72,521.23 798.58,530.18 798.23,539C798.21,541.49 797.99,544.12 798.46,546.58C801.44,550.26 805.18,553.12 807.64,557.29C812.56,564.64 813.26,572.58 813.84,581.16C812.47,579.49 811.57,577.82 811.23,575.66C810.2,570.17 809.76,565.04 806.9,560.07C804.53,555.69 800.76,553 797.86,549.14C795.84,546.55 796.22,543.06 796.18,539.98C796.52,529.97 795.75,520.18 792.22,510.73C789.49,502.38 782.58,495.36 775.34,490.68C770.19,487.26 764.79,485.83 760.82,481.51Z" style="fill:rgb(195,53,192);fill-rule:nonzero;"/>
            <path d="M576.57,490.35C578.51,491.3 578.93,494.65 579.5,496.53C581.1,504.38 583.64,511.92 586.69,519.32C590.07,527.87 593.04,535.99 598.36,543.63C599.9,545.81 601.74,547.58 603.98,549.04C614.77,555.7 626.06,559.53 637.66,564.35C644.84,567.12 653.34,569.56 661.06,568.13C671.85,566.13 680.83,557.94 684.76,547.82C677.37,553 672.72,559.84 663.57,562.45C653.63,565.26 642.23,560.03 633.61,555.33C625.44,550.29 615.01,546.62 609.77,538.28C602.55,526.64 599.77,513.88 596.09,500.99C595.22,497.87 595.44,494.81 595.59,491.62C598.32,501.17 600.08,510.52 603.49,519.72C605.77,526.11 608.24,533.24 612.27,538.76C615.33,543.02 620.37,545.53 624.84,548.08C632.12,552.07 639.58,556.54 647.34,559.5C652.55,561.59 659.21,562.75 664.5,560.38C672.01,556.96 677.9,551.37 683.06,545.05C687.07,540.46 689.94,535.17 694.2,530.82C692.98,539.81 687.97,548.51 682.88,555.87C677.02,564.1 668.3,569.86 658.06,570.46C651.75,570.9 645.7,569.54 639.87,567.25C632.45,564.39 625.07,561.55 617.81,558.29C611.66,555.5 605.54,553.16 600.35,548.71C596.44,545.44 594.04,540.63 591.74,536.17C587.58,527.55 583.9,518.72 581.2,509.52C579.1,503.52 578.11,497.23 575.84,491.28C568.7,493.25 561.43,495.57 554.73,498.72C554.52,509.11 553.81,520.13 555.92,530.32C557.11,536.46 559.61,542.56 561.65,548.52C564.11,555.37 566.08,562.38 567.68,569.48C568.53,573.19 568.65,576.95 568.29,580.73C564.67,576.79 563.39,571.9 560.35,567.61C556.91,562.69 552.38,558.89 549.18,553.75C544.12,546.06 541.5,537.75 538.83,529.04C536.95,532.85 536.19,536.91 535.2,541.01C532.96,549.41 530.28,558.26 525.97,565.84C523.94,569.19 521.66,572.33 520,575.88C522.9,578.09 525.97,580 529.09,581.9C537.26,586.96 544.03,593.52 550.26,600.79C554.27,605.6 557.98,610.29 560.25,616.21C554.24,613.34 549.58,608.62 543.78,605.29C535.37,599.8 526.03,596.3 516.32,593.94C513.43,593.3 510.28,592.3 507.3,592.5C505.07,593.62 503.23,595.71 501.42,597.41C494.86,604.07 487.82,609.87 483.69,618.47C478.58,629.31 476.14,642.24 480.31,653.78C483.28,662.24 489.33,668.37 496.43,673.55C504.35,679.12 513.04,681.99 522.29,684.51C528.86,686.26 535.52,686.69 541.94,689.12C535.26,692.46 529.04,691.31 521.87,691.8C525.29,695.79 530.9,697.82 535.49,700.47C544.74,705.05 553.31,709.79 562.96,712.97C575.66,717.79 588.13,722.04 601.66,723.89C611.07,725.05 620.48,726.34 629.81,728C641.7,730.47 654.57,734.41 664.32,741.88C661.31,741.7 658.36,741.38 655.4,740.87C648.55,739.8 641.65,739.65 634.79,738.82C622.57,737.76 609.69,738.83 598.24,743.46C591.35,746.44 584.73,750.25 578.91,755.02C588.27,759.27 598.28,762.67 608.46,764.23C618.62,765.26 629.15,764.16 639.35,764.39C634.61,767.54 629.56,769.43 624.26,771.44C610.3,776.38 595.79,780.41 581.09,782.39C572.42,783.55 563.75,784.84 555.04,785.67C564.72,781.95 574.36,778.18 584.24,775.02C587.75,773.95 591.06,772.64 594.3,770.93C591.2,770.28 588.09,769.69 584.92,769.46C578.78,768.95 571.61,767.59 565.52,768.83C557.68,771.16 550.48,777.74 543.19,781.33C532.87,786.41 523.2,791.62 512.26,795.52C508.64,796.59 505.01,797.69 501.46,795.77C493.99,792.11 486.68,788.97 478.36,787.75C475.6,787.01 474.12,789.76 472.74,791.63C466.83,801.61 464.79,814.11 459.63,824.5C455.91,831.84 450.66,837.38 446.02,843.96C441.11,850.84 438.62,859.03 436.36,867.08C434.64,874.39 433.12,881.82 432.13,889.27C428.3,890.5 424.14,890.92 420.14,891.17C420.5,884.02 421.68,876.93 422.5,869.79C423.87,858.98 427.38,848.5 433.21,839.27C436.95,832.19 442.33,826.3 446.38,819.44C450.69,812.08 452.09,804.48 454.99,796.62C456.67,791.94 459.63,787.51 462.09,783.16C463.44,780.98 464.76,778.47 466.67,776.73C468.73,775.5 471.68,775.68 473.99,775.79C483.42,776.49 492.83,778.65 501.53,782.37C504.76,783.61 507.28,785.33 510.79,783.81C520.66,779.95 530.26,774.8 539.25,769.21C547.51,763.72 554.95,756.8 561.3,749.2C565.5,744.21 570.5,740.6 575.68,736.74C575.46,739.57 573.57,740.91 571.66,742.69C562.82,750.23 555.1,759.68 546.02,767.03C539.06,772.52 530.6,776.72 522.74,780.8C517.12,783.44 509.92,788.04 503.62,785.41C493.84,782.12 483.32,778.45 472.97,777.93C469.61,777.69 467.57,779.05 465.64,781.64C461.16,787.92 457.72,795.04 455.42,802.4C452.74,810.86 449.64,820.05 444.16,827.15C439.37,833.37 434.52,840 431.37,847.22C428.9,853.21 426.29,858.67 425.35,865.16C424.2,872.81 422.65,880.18 423.21,887.98C425.71,888.13 427.84,887.93 430.28,887.4C433.34,875.66 434.25,864.39 439.1,853.11C443.37,841.82 453.51,832.84 458.96,821.98C463.59,812.15 465.45,800.2 471.08,791.02C472.8,788.46 474.33,785.82 477.87,786.14C486.09,786.42 494.7,790.67 502.19,793.82C504.26,794.69 506.33,795.11 508.56,794.61C514.01,793.52 519.33,790.73 524.39,788.45C531.89,785.09 538.92,780.91 546.26,777.23C551.52,774.65 556.06,770.72 561.42,768.45C567.77,766.02 575.81,766.92 582.46,767.53C587.34,768.21 592.51,768.12 596.72,770.87C591.69,775.55 585.6,776.26 579.84,779.83C586.13,779.98 592.13,778.67 598.22,777.3C607.89,775.44 617.27,771.96 626.25,767.96C616.63,766.4 607.37,766.89 597.86,764.15C591.16,762.1 584.12,760.04 578,756.62C577.92,753.22 579.68,751.99 582.2,750.18C586.86,747.02 591.92,744.4 597.02,742.03C604.6,738.46 613.69,737.44 621.97,736.88C631.54,736.2 640.8,738.32 650.34,737.67C645.33,733.02 638.51,732.53 632.16,730.65C624.88,728.55 617.49,728.26 610.08,726.94C602.8,725.7 595.59,725.27 588.4,723.48C579.56,721.46 571.42,718 562.87,715.11C549.68,710.64 536.96,704.07 525.04,696.91C522.47,695.36 521.02,694.03 519.7,691.29C522.88,690.34 526.09,689.59 529.31,688.82C523.28,686.29 516.85,685.37 510.72,683.16C500.92,679.52 491.98,673.81 485.06,665.92C479.93,659.49 476.58,651.31 476.62,643.01C476.22,633.56 478.76,624.38 483.09,616.05C488.08,606.94 495.2,600.61 502.76,593.73C504.57,592.13 506.47,591.05 508.98,591.15C515.77,591.23 522.65,594 529.14,595.86C537.55,598.39 544.02,603.63 551.9,607.13C550.51,604.29 548.89,601.65 546.6,599.43C540.69,593.69 535.31,588.12 528.26,583.76C525.35,581.81 521.76,580.09 519.47,577.41C518.02,574.37 520.64,570.67 522.19,568.14C528.32,559.18 531.38,549.26 533.82,538.79C534.62,535.1 535.69,531.6 537.32,528.18C538.29,528.38 539.27,528.47 540.28,528.45C543.52,537.83 546.13,546.62 552.33,554.63C556.43,559.82 561.01,564.6 565.06,569.84C563.96,554.21 555.37,541.98 553.52,526.62C552.46,517.85 552.77,508.88 553.3,500.08C553.27,496.39 557.63,495.51 560.3,494.3C565.36,492.69 571.21,489.85 576.57,490.35Z" style="fill:rgb(195,53,192);fill-rule:nonzero;"/>
            <path d="M883.02,492.6C885.79,492.46 888.09,495.29 890.05,496.94C892.78,499.63 896.28,501.33 898.97,504.01C901.47,506.89 903.27,510.28 905.95,513.04C911.1,518.18 913.91,525.97 916.23,532.75C918.39,539.09 914.66,545.3 911.71,550.7C908.39,556.05 906.29,561.74 902.14,566.12C898.39,570.46 893.83,573.78 890.35,578.36C885.61,584.11 882.63,590.56 878.95,596.95C873.46,606.69 868.84,617.35 862.48,626.51C857.96,633.03 852.96,639.74 846.75,644.74C833.82,655.32 819.22,664.05 804.18,671.29C802.05,672.16 800.11,673.34 797.81,672.25C794.09,670.61 790.7,667.98 787.44,665.57C783.31,662.39 779.05,659.32 775.15,655.85C771.13,652.28 768.33,648.14 764.92,644.04C753.77,631.05 741.09,621.94 731.87,608.14C728.03,602.47 725.98,596.18 722.77,590.2C717.03,592.34 711.43,594.73 705.55,596.47C695.76,599.49 689.74,606.32 680.68,610.65C670.61,615.91 659.33,618.11 649.37,623.34C641.62,627.73 634.84,634.09 629.2,640.94C632.43,643.26 635.84,645 639.48,646.54C647.83,650.54 655.88,655.35 663.66,660.37C673.61,666.74 682.75,674.59 691.49,682.52C700.5,690.79 707.5,700.44 714.99,710.02C719.65,716.01 724.38,722.03 728.55,728.38C731.2,732.22 730.38,736.64 730.06,741.03C728.94,749.33 727.3,757.72 724.66,765.68C723.4,769.75 719.37,771.81 716.1,774.08C700.87,784.22 684.46,791.79 667.49,798.49C659.47,801.9 651.12,803.85 642.63,805.65C622.22,810.58 601.33,813.09 580.87,817.85C569.71,820.49 558.5,822.24 547.46,825.47C534.25,828.98 521.61,834.47 509.01,840.03C498.46,845.18 488.42,851.43 478.21,857.21C471.2,861.05 465.02,866.08 458.13,870.11C460.57,867.2 462.69,864.1 465.45,861.45C470.36,856.65 476.04,852.59 481.65,848.64C495.1,839.71 509.31,830.06 524.55,824.53C539.51,818.54 554.86,813.29 570.54,809.53C587.19,804.93 604,801 620.72,796.69C636.71,792.91 652.14,788.48 665.51,778.51C671.6,774.28 676.09,768.51 681.9,764C681.71,769.67 678.73,774.35 678.05,779.88C683.97,778.47 689.01,775.42 694.67,772.71C700.64,769.85 706.27,766.43 711.78,762.77C710.3,765.33 708.12,767.12 705.6,768.6C699.66,772.14 693.26,774.89 687.17,778.2C683.47,779.89 680.02,782.31 675.96,780.09C677.01,776.71 678.05,773.32 678.89,769.87C674.45,772.4 671.27,776.21 667.17,779.17C661.7,783.15 655.73,787.04 649.39,789.46C645.28,791.03 641.15,792.55 637.03,794.1C630.38,796.6 623.4,797.5 616.51,799.48C609,801.27 601.64,803.64 594.08,805.17C586.96,806.64 580.04,809.19 573.02,811.15C567.78,812.75 562.37,813.59 557.12,815.14C545.38,818.9 533.87,823.22 522.28,827.38C516.89,829.32 512.33,832.34 508.93,837.01C515.07,835.45 520.48,832.36 526.49,830.3C543.38,823.3 562.26,820.02 580.11,816.06C594.26,812.93 608.58,810.83 622.74,807.76C635.13,805.72 647.38,802.94 659.44,799.46C666.26,797.12 672.81,794.05 679.58,791.55C690.63,786.7 701.4,781.06 711.59,774.58C714.73,772.55 718.46,770.8 720.16,767.27C722.83,762.06 724.72,756.5 725.85,750.76C726.98,745.12 728.72,738.71 728.01,732.98C727.71,730.6 726.54,728.73 725.22,726.8C720.93,720.78 716.22,715.13 711.71,709.29C704.22,699.11 696.17,688.67 686.36,680.63C677.31,672.5 667.77,664.99 657.38,658.65C650.95,654.81 645.02,650.73 638.03,647.93C634.01,646.28 630.38,644.51 627.67,640.97C630.08,635.93 634.13,632.81 638.11,629.09C643.02,624.5 649.24,621.1 655.34,618.36C662.07,615.55 669.2,613.91 675.86,610.81C683.35,607.5 689.56,602.74 696.34,598.29C701.84,594.67 707.6,593.89 713.61,591.55C716.49,590.55 719.73,588.98 722.81,589.03C724.38,589.26 725.22,590.77 725.89,592.05C727.62,595.74 728.73,599.62 730.82,603.16C735.14,610.88 741.01,616.61 747.02,622.98C750.92,627.09 755.37,630.62 759.19,634.79C763.01,638.98 766.6,643.39 770.54,647.45C775.66,652.35 781.82,656.38 787.37,660.65C790.29,662.83 791.83,666.2 795.74,666.19C798.22,666.26 800.12,667.35 802.2,668.57C805.58,667.02 808.96,665.49 812.5,664.32C818.28,662.49 823.32,658.77 828.62,655.57C839.27,648.26 849.62,641.97 857.15,631.16C864.08,622.15 868.93,612.11 874.06,602.05C876.68,596.64 880.72,592.59 881.09,586.77C877.79,588.1 876.44,590.82 874.69,593.67C870.45,600.92 865.38,607.67 860.71,614.67C858.82,617.6 856.42,619.79 853.58,621.79C858.53,614.68 863.74,607.75 868.5,600.51C873.99,591.84 879.6,583.05 885.99,575C891.1,568.71 897.99,566.06 902.29,559.33C906.06,553.55 908.93,547.15 911.83,540.89C913.75,536.74 912.01,533.45 910.43,529.6C908.2,524.79 907.47,520.19 903.54,516.45C899.94,513.01 898.15,508.39 893.99,506.05C890.08,503.72 886.54,500.92 882.89,498.22C878.68,499.41 873.96,500.83 870.36,503.39C866.65,506.05 865.16,511.57 863.25,515.57C858.97,515.78 855.29,514.76 851.72,517.7C849.85,519.3 846.8,521.54 847.76,524.36C848.41,527.86 849.27,531.26 849.44,534.84C849.67,538.96 850.1,543.01 852.48,546.52C854.25,549.33 856.9,551.56 858.53,554.43C859.31,556.09 857.74,558.48 856.85,559.85C849.74,569.84 841.83,578.8 831.27,585.26C823.92,589.6 816.72,593.57 810.18,599.18C802.87,605.73 798,614.03 794.46,623.1C794.43,618.43 794.19,613.96 795.42,609.39C796.92,602.44 801.34,595.96 802.34,589.05C802.89,582.41 802.8,575.9 800.56,569.54C798.68,563.93 795.33,559.66 791.86,554.98C797.25,557.91 799.32,562.96 801.7,568.29C804.02,574.68 804.46,581.92 803.68,588.63C802.66,596.83 797.59,603.08 797.07,611.27C800.89,608.44 802.76,604.4 806.06,601.08C813.39,593.15 823.84,587.6 833,581.96C837.62,579.09 841.35,575.05 845.22,571.22C849,567.45 852.4,563.4 855.11,558.78C853.78,558.19 852.45,557.61 851.13,557C846.94,562.17 843.9,567.4 838.7,571.69C834.61,575.14 829.9,576.88 825.13,579.16C821.62,580.73 818.64,582.63 814.63,582.36C820.45,578.54 827.19,575.8 833.35,572.58C836.4,570.98 839,568.86 841.23,566.25C844.45,562.41 847.55,558.55 849.95,554.13C848.1,551.1 845.5,548.09 844.44,544.68C843.28,538.93 843.74,532.98 842.59,527.19C842.31,523.56 840.55,519.33 843.24,516.23C847.37,511.5 853.45,510.16 858.42,507.33C861.17,505.06 862.66,501.79 865.86,499.89C870.83,496.83 876.99,492.43 883.02,492.6Z" style="fill:rgb(65,105,225);fill-rule:nonzero;"/>
            <path d="M752.17,500.82C748.81,502.21 745.37,503.24 741.8,503.93C732.51,505.77 724.1,508.23 714.51,507.7C716.81,505.84 719.23,504.15 721.91,502.85C730.67,498.1 742.67,499.34 752.17,500.82Z" style="fill:rgb(195,53,192);fill-rule:nonzero;"/>
            <path d="M477.29,517.64C477.85,519.62 477.93,521.18 477.12,523.1C472.83,533.44 465.65,541.95 457.4,549.38C453.01,553.33 448.24,555.36 445.72,561.03C454.42,561.42 463.42,558.35 471.55,555.48C483.12,551.32 493.85,545.11 503.42,537.41C507.05,534.61 509.47,531.19 514.24,530.48C506.57,538.84 496.85,545.48 486.99,551.01C468.91,560.51 448.34,565.76 427.97,566.69C442.27,558.37 456.36,549.94 466.48,536.5C471.29,530.84 474.28,524.35 477.29,517.64Z" style="fill:rgb(195,53,192);fill-rule:nonzero;"/>
            <path d="M570.28,524.01C573.6,527.51 575.06,532.85 576.78,537.29C579.91,546.31 583.19,555.59 584.68,565.04C579.86,559.82 575.69,554.1 571.75,548.19C570.2,545.73 568.53,543.06 568.43,540.07C568.2,534.5 568.02,529.24 570.28,524.01Z" style="fill:rgb(65,105,225);fill-rule:nonzero;"/>
            <path d="M515.51,531.74C515.84,534.58 515.91,537.27 515.13,540.05C513.62,545.88 512.31,552.14 509.5,557.43C505.93,564.31 501.65,570.66 496.01,576.01C491.25,580.64 485.95,583.53 480.49,587.54C476.27,590.63 471.61,592.77 466.97,595.14C458.23,599.76 449.01,603.54 439.72,606.91C429.85,610.01 420.35,614 410.29,616.52C391.31,622.44 372.01,626.42 352.69,631.01C343.78,633.27 334.74,633.77 325.98,636.57C331.99,636.72 338.02,636.72 344.04,636.55C350.11,636.38 355.92,635.1 361.99,634.66C368.45,634.17 374.9,633.67 381.35,633.15C390.47,632.4 399.19,630.24 408.23,629.02C414.39,628.23 420.07,626.59 426.35,627.48C418,630.15 409.54,630.48 400.98,632.15C393.13,633.65 385.28,635.01 377.31,635.61C364.03,636.71 350.8,638.07 337.48,638.62C329.99,639.5 322.49,639.24 314.99,639.89C310.28,640.31 305.57,640.12 300.87,639.61C308.82,637.11 317.43,636.17 325.68,634.4C340.47,631.24 355.43,628.65 370.04,624.94C380.45,622.33 390.94,620.12 401.26,617.17C425.24,610.28 448.2,603.11 470.23,591.16C476.15,587.44 482.13,583.81 487.95,579.93C499.12,572.37 506.89,560.82 510.98,548.08C512.57,542.65 513.65,537.1 515.51,531.74Z" style="fill:rgb(195,53,192);fill-rule:nonzero;"/>
            <path d="M759.97,537.1C758.59,546.31 752.88,552.49 753.27,561.99C750.52,557.03 752.98,553.17 753.93,548.15C751.43,549.62 748.93,551.07 746.48,552.63C750.67,547.11 754.74,541.71 759.97,537.1Z" style="fill:rgb(195,53,192);fill-rule:nonzero;"/>
            <path d="M753.93,548.15C752.98,553.17 750.52,557.03 753.27,561.99C756.05,569.04 757.59,575.76 761.83,582.16C766.07,589.16 771.65,594.81 776.82,601.08C762.73,595.74 752.96,584.56 746.35,571.36C743.32,571.67 741.89,573.9 739.96,575.96C738.37,577.99 736.76,579.66 737.76,582.42C740.35,590.1 743.9,597.72 748.83,604.19C752.38,608.81 755.07,613.39 760.54,616.03C760.39,612.8 759.85,609.63 759.59,606.42C763.63,609.58 764.64,613.82 766.79,618.24C771.39,628.18 776.43,639.09 783.54,647.48C787.89,652.19 792.95,657.41 798.78,660.19C800.88,661.21 803.06,659.86 804.96,659C814.15,654.15 822.6,648.24 830.56,641.56C834.48,638.32 838.74,635.62 842.93,632.75C847.28,629.73 850.14,625.74 853.58,621.79C856.42,619.79 858.82,617.6 860.71,614.67C865.38,607.67 870.45,600.92 874.69,593.67C876.44,590.82 877.79,588.1 881.09,586.77C880.72,592.59 876.68,596.64 874.06,602.05C868.93,612.11 864.08,622.15 857.15,631.16C849.62,641.97 839.27,648.26 828.62,655.57C823.32,658.77 818.28,662.49 812.5,664.32C808.96,665.49 805.58,667.02 802.2,668.57C800.12,667.35 798.22,666.26 795.74,666.19C791.83,666.2 790.29,662.83 787.37,660.65C781.82,656.38 775.66,652.35 770.54,647.45C766.6,643.39 763.01,638.98 759.19,634.79C755.37,630.62 750.92,627.09 747.02,622.98C741.01,616.61 735.14,610.88 730.82,603.16C728.73,599.62 727.62,595.74 725.89,592.05C725.22,590.77 724.38,589.26 722.81,589.03C719.73,588.98 716.49,590.55 713.61,591.55C707.6,593.89 701.84,594.67 696.34,598.29C689.56,602.74 683.35,607.5 675.86,610.81C669.2,613.91 662.07,615.55 655.34,618.36C649.24,621.1 643.02,624.5 638.11,629.09C634.13,632.81 630.08,635.93 627.67,640.97C630.38,644.51 634.01,646.28 638.03,647.93C645.02,650.73 650.95,654.81 657.38,658.65C667.77,664.99 677.31,672.5 686.36,680.63C696.17,688.67 704.22,699.11 711.71,709.29C716.22,715.13 720.93,720.78 725.22,726.8C726.54,728.73 727.71,730.6 728.01,732.98C728.72,738.71 726.98,745.12 725.85,750.76C724.72,756.5 722.83,762.06 720.16,767.27C718.46,770.8 714.73,772.55 711.59,774.58C701.4,781.06 690.63,786.7 679.58,791.55C672.81,794.05 666.26,797.12 659.44,799.46C647.38,802.94 635.13,805.72 622.74,807.76C608.58,810.83 594.26,812.93 580.11,816.06C562.26,820.02 543.38,823.3 526.49,830.3C520.48,832.36 515.07,835.45 508.93,837.01C512.33,832.34 516.89,829.32 522.28,827.38C533.87,823.22 545.38,818.9 557.12,815.14C562.37,813.59 567.78,812.75 573.02,811.15C580.04,809.19 586.96,806.64 594.08,805.17C601.64,803.64 609,801.27 616.51,799.48C623.4,797.5 630.38,796.6 637.03,794.1C641.15,792.55 645.28,791.03 649.39,789.46C655.73,787.04 661.7,783.15 667.17,779.17C671.27,776.21 674.45,772.4 678.89,769.87C678.05,773.32 677.01,776.71 675.96,780.09C680.02,782.31 683.47,779.89 687.17,778.2C693.26,774.89 699.66,772.14 705.6,768.6C708.12,767.12 710.3,765.33 711.78,762.77C714.3,758.13 715.11,752.38 716.24,747.26C716.89,743.37 718.31,738.58 717.31,734.7C715.87,732.57 713.85,730.78 712.1,728.91C705.33,721.91 699.61,714.11 693.17,706.84C687.9,700.56 681.94,694.7 676.01,688.99C666.41,680.25 655.66,673.11 644.49,666.55C629.18,657.39 612.92,650.27 596.37,643.68C583.25,639.1 570.53,634.61 556.97,631.37C556.29,630.08 555.61,628.78 554.94,627.49C574.6,627.71 594.72,632.26 613.65,637.37C614.94,637.57 616.94,637.99 617.97,636.97C623.69,632.07 628.48,626.09 634.19,621.18C639.6,616.56 647.78,614.67 652.6,609.56C655.33,606.89 654.9,603.05 653.05,600.03C649.51,593.79 643.37,590.84 636.58,589.4C628.25,587.76 619.45,587.57 610.98,587.55C606.41,587.56 602.22,586.3 597.93,584.9C603.54,583.64 609.06,582.35 614.84,582.31C623.21,581.45 631.3,580.9 639.66,582.37C645.66,583.35 652,585.4 656.85,589.15C660.96,592.6 662.94,598.93 664.94,603.76C671.41,602.43 677.26,599.42 682.49,595.45C683.58,594.41 684.97,593.93 684.61,592.16C683.8,589.14 681.69,586.45 680.44,583.58C679.08,580.84 678.62,577.91 678.47,574.89C686.96,577.43 693.26,583.34 702.99,583.09C714.2,581.72 723.06,575.56 731.36,568.36C737.06,563.69 741.47,557.97 746.48,552.63C748.93,551.07 751.43,549.62 753.93,548.15Z" style="fill:rgb(65,105,225);fill-rule:nonzero;"/>
            <path d="M589.01,588.53C589.78,588.85 590.45,589.33 591.01,589.96C590.48,593.34 589.25,596.52 587.63,599.51C584.63,605.02 581.46,610.44 578.4,615.91C578.59,606.22 580.06,594.23 589.01,588.53Z" style="fill:rgb(195,53,192);fill-rule:nonzero;"/>
            <path d="M857.81,594.01C854.97,601.17 851.65,608.15 848.01,614.93C846.39,617.95 844.85,620.97 842.53,623.52C838.58,627.92 833.74,630.95 828.47,633.52C823.98,635.6 819.87,637.78 814.79,637.88C820.15,632.23 827.35,628.48 832.96,622.98C837.11,618.76 841.52,614.9 845.35,610.36C849.91,605.18 853.63,599.48 857.81,594.01Z" style="fill:rgb(65,105,225);fill-rule:nonzero;"/>
            <path d="M640.19,598.31C639.15,601.13 638.1,603.75 635.8,605.8C631.96,609.29 626.54,611.29 622.21,614.28C616.5,618.01 612.64,622.63 605.73,624.28C608.35,619.68 612.21,615.67 615.69,611.68C618.83,608.19 622.71,606.65 626.79,604.61C631.33,602.47 635.33,599.74 640.19,598.31Z" style="fill:rgb(195,53,192);fill-rule:nonzero;"/>
            <path d="M547.3,627.84C549.84,627.55 552.38,627.43 554.94,627.49C555.61,628.78 556.29,630.08 556.97,631.37C553.55,630.64 550.27,629.76 547.3,627.84Z" style="fill:rgb(195,53,192);fill-rule:nonzero;"/>
            <path d="M455.21,634.91C448.09,636.99 441.06,637.6 433.77,638.93C424.39,640.58 415.04,642.32 405.63,643.8C398.79,644.93 392.04,646.39 385.11,646.92C395.18,642.43 405.36,637.73 415.95,634.6C412.54,637.44 408.46,638.98 404.87,641.52C419.88,639.96 434.77,636.7 449.68,634.34C451.69,634.03 453.33,634.02 455.21,634.91Z" style="fill:rgb(195,53,192);fill-rule:nonzero;"/>
            <path d="M456.11,635.95C458.37,639.95 457.63,645.64 457.28,650.05C456.97,653.55 454.32,655.68 452.05,658.05C445.71,664.05 439.96,670.61 433.77,676.76C429.73,680.97 424.06,683.79 419.1,687.04C411.78,691.76 403.93,693.51 395.74,696.01C389.6,697.93 383.35,699.36 377.26,701.42C366.56,704.99 355.55,707.82 344.72,710.86C335.3,713.49 326.23,717.03 316.94,720.05C311.17,721.94 305.5,724.07 300.04,726.74C303.04,726.76 305.96,726.77 308.95,726.46C320.37,724.92 331.67,722.39 343.11,720.97C354.45,719.95 365.6,717.7 376.92,716.46C385.5,715.38 395.27,713.25 403.83,714.94C396.35,716.75 388.41,716.79 380.78,717.86C364.65,719.97 348.54,722.26 332.47,724.69C315.72,727.68 298.83,729.79 282.14,733.06C280.1,733.44 278.05,733.68 276,733.88C286.41,729 297.45,725.13 308.19,721.06C316.89,717.19 326.06,715.07 335.03,711.96C346.98,707.92 359.28,705.16 371.27,701.22C383.35,697.59 395.46,694.07 407.53,690.4C416.33,687.46 423.19,682.09 430.03,676.03C437.74,669.09 445.09,661.75 452.64,654.65C453.86,653.31 455.76,651.85 455.73,649.9C455.95,645.25 455.71,640.61 456.11,635.95Z" style="fill:rgb(195,53,192);fill-rule:nonzero;"/>
            <path d="M420.03,662.07C414.7,666.21 408.63,669.47 402.78,672.82C387.37,680.96 371.5,687.24 354.09,689.43C349.38,689.99 344.65,690.44 339.92,690.9C332.9,691.61 325.85,691.28 318.81,691.91C314.11,692.35 309.58,692.28 304.9,691.58C311.3,688.65 318.41,687.2 325.13,685.09C337.92,681.83 350.48,677.93 363.44,675.35C374,672.84 384.49,670.13 395.12,667.93C403.51,666.26 411.57,662.98 420.03,662.07Z" style="fill:rgb(195,53,192);fill-rule:nonzero;"/>
            <path d="M537.78,663.2C543.02,663.28 548.11,664.29 553.17,665.58C551.81,665.84 550.45,666.16 549.11,666.53C548.9,667.04 548.7,667.56 548.5,668.08C544.83,666.72 541.16,665.18 537.78,663.2Z" style="fill:rgb(195,53,192);fill-rule:nonzero;"/>
            <path d="M549.11,666.53C550.45,666.16 551.81,665.84 553.17,665.58C562.72,667.59 572.22,669.64 581.6,672.36C590.92,674.65 599.83,678.06 608.95,680.99C614.57,682.83 619.98,685.1 625.45,687.31C626.15,688.68 626.88,690.04 627.62,691.4C624.15,692.25 620.84,693.34 617.68,695.01C618.89,696.61 619.94,698.18 621.68,699.26C629.73,704.18 639.8,708.55 646.11,715.66C637.97,712.41 630.12,708.93 621.68,706.28C616.89,704.78 612.14,703.2 607.42,701.53C601.58,699.41 595.61,698.22 590.01,695.46C593.2,694.42 596.32,693.61 599.07,691.57C599.61,691.18 600.15,690.8 600.7,690.41C589.64,684.75 578.34,679.62 566.69,675.31C560.56,673.05 554.6,670.4 548.5,668.08C548.7,667.56 548.9,667.04 549.11,666.53Z" style="fill:rgb(65,105,225);fill-rule:nonzero;"/>
            <path d="M406.28,667.57C398.07,673.05 389.17,677.6 379.83,680.82C372.46,683.55 365.07,685.97 357.24,687.03C350.5,687.89 343.8,688.58 337,688.63C331.57,688.65 326.21,689.56 320.78,689.57C325.63,686.65 330.58,686.16 336.09,684.26C343.44,681.77 350.98,680.1 358.63,678.84C366.85,677.58 374.42,674.16 382.63,672.79C390.63,671.41 398.43,669.63 406.28,667.57Z" style="fill:rgb(65,105,225);fill-rule:nonzero;"/>
            <path d="M467.42,670.26C469.34,672.8 471.03,675.51 472.89,678.08C475.86,682.32 479.71,685.51 482.05,690.2C473.27,691.64 464.32,691.96 455.47,692.91C451.32,693.59 447.14,693.65 442.95,693.47C449.1,685.66 456.68,678.66 464.1,672.06C465.09,671.18 466.21,670.72 467.42,670.26Z" style="fill:rgb(1,1,1);fill-rule:nonzero;"/>
            <path d="M625.45,687.31C628.92,688.6 632.04,690.17 635.1,692.26C630.48,693.96 625.57,693.99 621,695.86C623.01,697.72 625.03,699.2 627.44,700.47C636.68,705.37 645.37,711.06 653.97,716.99C657.76,719.64 661.34,722.5 664.22,726.15C657.92,724.09 652.33,720.8 646.11,718.07C636.6,714.08 627.4,709.6 617.46,706.71C605.03,702.01 591.93,699.52 579.59,694.64C585.62,692.2 592.62,691.74 599.07,691.57C596.32,693.61 593.2,694.42 590.01,695.46C595.61,698.22 601.58,699.41 607.42,701.53C612.14,703.2 616.89,704.78 621.68,706.28C630.12,708.93 637.97,712.41 646.11,715.66C639.8,708.55 629.73,704.18 621.68,699.26C619.94,698.18 618.89,696.61 617.68,695.01C620.84,693.34 624.15,692.25 627.62,691.4C626.88,690.04 626.15,688.68 625.45,687.31Z" style="fill:rgb(195,53,192);fill-rule:nonzero;"/>
            <path d="M488.97,693.13C491.54,693.21 493.61,694.94 495.59,696.39C503.04,702.19 511.14,707.26 519.67,711.31C522.16,712.51 524.38,713.94 526.02,716.23C514.03,711.4 502.81,704.21 492.39,696.62C490.46,695.43 489.19,693.89 486.77,694.97C478.17,698.03 469.57,700.99 460.97,704.04C451.33,707.5 441.03,710.51 431.88,715.1C425.36,718.44 421.52,725.6 417.35,731.31C410.22,740.64 402.8,749.33 393.18,756.21C387.02,760.49 381.75,765.14 374.31,767C376.83,762.77 380.1,759.29 382.92,755.28C376.25,755.45 370.26,757.3 363.88,759.06C351.62,762.56 339.93,767.07 329.49,774.54C322.18,779.56 316.01,785.8 309.05,791.25C310.55,788.38 312.29,785.89 314.8,783.8C321.28,778.19 328.17,772.95 335.52,768.52C344.06,763.24 354.37,760.1 363.9,756.98C370.34,755.25 377.68,752.94 384.34,754.01C383.88,756.26 383.52,758.53 383.06,760.78C397.34,752.59 408.06,740.87 417.78,727.79C421.16,723.24 423.82,717.88 428.79,714.83C436.52,710.22 444.57,707.65 453.04,704.91C461.05,701.86 469.24,699.37 477.17,696.15C480.88,694.71 484.92,692.94 488.97,693.13Z" style="fill:rgb(195,53,192);fill-rule:nonzero;"/>
            <path d="M492.39,696.62C502.81,704.21 514.03,711.4 526.02,716.23C526.94,717.31 526.65,718.66 525.62,719.55C521.53,723.81 516.6,727.3 511.95,730.92C503.54,736.87 495.49,742.67 486.43,747.36C473.47,755 459.34,760.75 444.94,765.02C438.97,767.06 433.08,769.02 426.94,770.48C432.11,770.4 436.85,770.89 441.92,771.87C440.04,773.94 438.08,775.86 435.98,777.7C430.46,779.98 425.96,784.04 420.47,786.25C412.75,788.78 403.43,787.91 395.47,789.38C385.82,791.09 376.23,793.18 366.67,795.35C350.29,798.41 333.97,801.72 317.51,804.39C309.82,805.63 302.2,807.37 294.5,808.54C295.12,807.08 295.42,805.55 296.15,804.13C301,800.48 305.32,796.02 309.05,791.25C316.01,785.8 322.18,779.56 329.49,774.54C339.93,767.07 351.62,762.56 363.88,759.06C370.26,757.3 376.25,755.45 382.92,755.28C380.1,759.29 376.83,762.77 374.31,767C381.75,765.14 387.02,760.49 393.18,756.21C402.8,749.33 410.22,740.64 417.35,731.31C421.52,725.6 425.36,718.44 431.88,715.1C441.03,710.51 451.33,707.5 460.97,704.04C469.57,700.99 478.17,698.03 486.77,694.97C489.19,693.89 490.46,695.43 492.39,696.62Z" style="fill:rgb(1,1,1);fill-rule:nonzero;"/>
            <path d="M539.06,721.75C542.18,722.06 545.3,723.55 548.21,724.66C555.81,727.77 563.82,729.59 571.49,732.36C573.37,733.01 574.63,733.89 575.95,735.37C563.37,732.58 551.09,727.58 538.95,723.33C517.7,742.15 494.16,760.8 467.85,771.98C461.19,775 454.55,777.27 448.34,781.39C443.72,784.45 440.6,788.71 436.09,792.12C433.33,794.28 430.22,795.8 426.95,797.05C412.91,802.15 398.77,802.66 385.12,808.22C373.46,812.57 362.32,818.04 350.92,823C342.84,826.65 334.59,829.88 326.55,833.6C310.44,840.37 294.64,847.85 278.53,854.62C243.95,869.83 209.95,886.43 176.02,903.03C170.19,905.85 164.84,908.77 158.86,910.96C168.19,901.34 179.78,893.58 190.22,885.2C206.08,873.25 222.21,861.28 237.24,848.34C247.16,840.86 255.44,831.94 264.12,823.12C272.03,814.99 278.18,805.88 284.52,796.54C288.27,791.2 291.13,785.64 295.55,780.78C295.43,784.65 292.74,787.64 290.74,790.73C285.57,798.48 280.49,806.43 274.89,813.89C267.97,822.71 259.77,830.95 251.8,838.81C240.22,850.28 226.02,860.08 213.34,870.36C203.9,878.34 193.53,885.12 184.05,893.07C182.93,894.09 181.89,895.19 180.85,896.3C183.28,896.22 185.55,895.85 187.77,894.81C193.91,892.05 199.74,888.62 205.93,885.94C223.6,878.15 240.68,869.07 258.36,861.32C265.16,858.04 272.09,855.04 278.97,851.91C284.1,849.58 289.45,847.87 294.54,845.44C308.73,838.79 323.28,832.86 337.53,826.37C348.47,821.69 359.47,817.22 370.2,812.06C376.27,809.11 382.61,807.19 388.91,804.82C402.46,799.49 417.49,800.03 430.93,792.88C436.22,790.16 439.75,785.96 444.1,782.1C450.16,776.78 457.35,774.71 464.53,771.35C475.31,766.35 486.46,760.97 496.19,754.13C507.13,746.65 517.82,739.55 527.48,730.43C531.01,727.42 534.69,723.42 539.06,721.75Z" style="fill:rgb(195,53,192);fill-rule:nonzero;"/>
            <path d="M389.8,738.81C388.72,740.09 387.72,740.94 386.03,741.28C379.54,742.76 372.8,743.08 366.27,744.44C358.46,745.88 351.3,748.72 343.74,751.02C339.76,752.24 335.85,753.63 331.98,755.15C314.72,761.85 296.92,766.6 279.48,772.67C267.74,776.43 255.46,779.12 244.06,783.84C251.21,782.84 258.42,782.72 265.51,781.43C271.98,780.31 278.52,779.66 285,778.62C288.68,778.21 291.84,777.18 295.42,778.73C289.32,780.39 282.81,780.76 276.45,781.74C262.59,784.03 248.65,785.74 234.77,787.95C228.81,788.89 222.96,789.96 216.88,789.77C222.53,787.11 228.29,786.12 234.25,784.11C245.42,780.41 256.82,777.55 268.02,773.94C281.08,770.18 293.89,765.64 306.97,761.9C318.29,758.05 329.57,754.01 340.74,749.72C349.78,746.67 358.99,744.15 368.35,742.24C375.45,740.63 382.65,740.11 389.8,738.81Z" style="fill:rgb(195,53,192);fill-rule:nonzero;"/>
            <path d="M435.98,777.7C434.38,779.61 432.91,781.5 430.76,782.82C426.19,785.61 421.42,788.55 416,789.11C407.89,790.05 399.78,790.25 391.76,791.89C383.03,793.13 374.8,796.22 366.04,797.23C355.71,799.07 345.36,800.91 335.16,803.37C328.31,804.98 321.29,804.95 314.44,806.62C307.51,808.03 300.29,810.2 293.21,810.26C292.55,809.51 291.98,808.7 291.51,807.82C293.04,806.56 294.55,805.29 296.15,804.13C295.42,805.55 295.12,807.08 294.5,808.54C302.2,807.37 309.82,805.63 317.51,804.39C333.97,801.72 350.29,798.41 366.67,795.35C376.23,793.18 385.82,791.09 395.47,789.38C403.43,787.91 412.75,788.78 420.47,786.25C425.96,784.04 430.46,779.98 435.98,777.7Z" style="fill:rgb(195,53,192);fill-rule:nonzero;"/>
        </g>
    </g>
</svg>
