<?xml version="1.0" encoding="UTF-8" standalone="no"?>
<!DOCTYPE svg PUBLIC "-//W3C//DTD SVG 1.1//EN" "http://www.w3.org/Graphics/SVG/1.1/DTD/svg11.dtd">
<svg width="100%" height="100%" viewBox="0 0 513 513" version="1.1" xmlns="http://www.w3.org/2000/svg" xmlns:xlink="http://www.w3.org/1999/xlink" xml:space="preserve" xmlns:serif="http://www.serif.com/" style="fill-rule:evenodd;clip-rule:evenodd;stroke-linejoin:round;stroke-miterlimit:2;">
    <g transform="matrix(0.819923,0,0,0.819923,2.587708,18.980999)">
        <g transform="matrix(1,0,0,1,-201,32)">
            <path d="M512.68,73.41C513.52,74.07 514.51,74.98 514.74,76.06C516.63,81.61 516.01,87.4 517.54,93.05C517.57,99.04 518.41,104.96 518.46,110.95C518.97,113.83 520.01,117.95 518.76,120.69C517.13,121.19 515.65,120.81 514,120.72C511.44,120.53 508.71,121.2 506.19,120.73C504.7,116.14 506.12,109.82 506.58,105.02C506.56,101.28 506.74,97.69 507.29,93.99C508.05,88.06 508.08,81.71 510,76.03C510.3,74.98 511.46,73.3 512.68,73.41Z" style="fill-rule:nonzero;"/>
        </g>
        <g transform="matrix(1,0,0,1,-201,32)">
            <path d="M484.35,124.44C488.45,125.79 491.9,129.36 496,130.61C498.39,129.55 500.32,127.61 503.02,126.99C508.42,125.41 515.6,125.39 521.05,126.71C524.07,127.3 526.16,129.99 528.98,130.67C530.93,129.87 532.67,128.49 534.62,127.61C536.35,126.84 538.04,124.99 539.97,125.05C542.18,125.46 542.56,128.5 540.58,129.56C537.86,131.21 535.28,133.05 532.43,134.49C531.71,134.92 531.35,135.44 531.34,136.06C531.37,138.55 530.88,141.43 532.45,143.5C536.34,145.13 540.33,146.67 543.62,149.39C546.94,153.43 547.08,159.69 550.37,163.53C555.7,163.88 561.16,163.52 566.43,164.45C574.18,165.03 582.44,163.87 590.06,165.54C599.24,165.59 608.8,165.6 617.98,166.58C625.12,166.59 631.93,166.46 638.98,168.05C640.93,168.65 643.68,170.38 641.58,172.57C636.02,176.32 631.06,174.73 625,176.2C622.03,176.54 618.81,176.01 615.98,176.95C613.04,177.78 609.96,177.01 606.98,177.85C603.69,178.62 600.16,177.92 596.98,178.97C594.24,179.69 591.21,179.13 588.45,179.58C585.78,180.37 583.11,180.17 580.37,180.48C581.22,184.5 584.68,188.06 586.15,191.94C587.96,196.47 589.64,201.07 591.38,205.62C596.4,206.47 601.91,205.21 607,205C611.23,204.85 615.73,201.53 619.77,202.3C621.13,203.47 620.99,205.97 620.61,207.54C615.66,209 611.42,210.18 608.69,214.96C610.8,217.28 607.51,218.39 609.03,220.94C611.31,220.04 613.87,218.46 615.78,216.77C622.25,212.6 631.17,212.78 637.13,217.84C643.05,222.43 645.13,230.36 643.43,237.5C642.01,238.9 641.85,240.93 640.37,242.34C638.18,244.63 635.72,247.91 632.53,248.66C630.5,249.82 628.44,249.08 626.53,250.56C628.48,250.52 630.57,250.71 632.49,250.39C633.83,249.6 635.04,249.56 636.55,249.46C638.39,247.55 640.81,246.57 642.6,244.61C649.46,238.69 651.22,227.45 646.24,219.82C642.74,213.28 636.3,208.94 628.99,207.88C625.42,207.78 625.45,203.93 626.39,201.39C630.26,200.67 632.69,203.25 636.46,201.58C641.08,201.05 645.78,201.94 650.44,200.56C654.15,200.12 657.78,200.71 661.46,199.58C665.38,199.16 669.21,199.68 673.06,198.45C678.47,198.48 683.63,197.31 689.02,197.27C691.76,196.62 694.73,194.42 697.61,195.37C697.99,196.23 698.24,197.11 698.35,198.02C697.65,200.07 694.51,200.47 693.08,202.13C691.42,203.09 690.74,206.89 693.01,207.39C695.43,206.57 697.27,204.46 699.79,203.64C704.6,202.56 709.64,203.07 713.27,206.71C716.51,209.44 717.56,213.1 718.54,217.06C718.8,218.12 718.01,221.54 719.97,220.91C720.29,218.77 721.63,217.16 721.42,215C721.73,209.11 717.67,204.14 712.99,201.06C710.09,199.07 706.32,199.27 703.41,197.6C703.1,196.17 702.89,194.86 703.36,193.42C705.93,193.54 708.85,192.85 711.01,194.3C720.37,194.74 729.7,194.2 738.98,193.02C741.98,191.79 744.92,192.9 747.98,191.98C751.4,190.79 755.4,191.67 759,191.22C764,190.43 769.01,190.89 773.98,189.85C777.6,188.96 781.32,189.77 785.01,189.03C792.11,188.29 799.51,188.48 806.58,189.5C807.64,190.04 809.51,191.41 809.56,192.67C807.98,195.41 805.11,197 802.4,198.44C796.17,201.46 789.73,202.63 783.03,204.33C765.31,208.12 747.74,212.49 729.98,216.07C727.17,216.37 726.55,218.57 726.17,220.99C724.62,231.54 714.31,239.26 704.01,239.77C696.68,240.06 689.13,237.32 684.05,231.95C681.96,230.13 681.31,227.41 678,227.98C670.98,229.18 664.03,230.83 657.03,232.17C655.14,232.27 654.96,234.99 654.5,236.38C652.38,248.6 642.39,258.99 629.97,260.68C619.8,262.73 609.11,258.34 602.12,250.92C600.02,248.75 599.26,246.12 596.67,244.42C594.98,244.85 593.25,244.81 592.68,246.78C589.97,257.91 585.57,268.47 578.67,277.68C567.64,292.57 551.85,304.03 533.84,308.76C524.56,312.25 513.77,312.19 503.98,311.68C479.3,308.84 455.9,294.41 443.07,272.99C440.32,268.78 438.7,264.12 436.41,259.68C434.13,255.17 433.69,249.85 431.69,245.29C430.39,244.39 428.93,244.28 427.4,244.45C425.76,246.14 424.76,248.43 423.26,250.26C414.77,259.79 401.05,263.92 388.96,259.13C384.4,257.07 379.97,254.15 376.65,250.38C373.53,245.76 370.62,240.57 369.87,234.98C369.66,233.72 369.42,232.5 367.94,232.29C363.9,231.67 360.05,230.34 355.99,229.84C352.14,229.46 348.97,227.87 345.01,227.92C342.73,229.01 341.44,231.83 339.3,233.3C336.06,236.34 332.16,237.78 328,239.08C317.03,241.84 304.73,236.39 299.98,226C298.53,223.24 298.95,220.17 297.55,217.43C295.46,215.98 292.45,215.83 290.02,215.15C278.69,212.96 267.5,209.77 256.17,207.7C244.55,204.57 231.33,202.98 220.56,197.47C218.72,196.37 216.09,194.9 215.37,192.77C215.37,191.22 216.45,190.1 217.98,189.86C226.8,188.03 236.12,188.3 244.98,189.59C250.7,189.62 256.3,190.64 262.01,190.91C266.28,192.17 270.62,191.17 274.98,192.12C278.24,192.98 281.67,192.33 285,192.99C289.65,194.11 294.39,193.51 299.05,194.54C303.37,194.59 307.69,194.99 311.99,194.95C315.67,194.95 318.01,192.85 321.66,194.35C321.73,195.67 321.51,196.71 320.81,197.85C318.46,199.07 315.67,199.16 313.28,200.39C305.53,203.99 300.75,213.54 304.43,221.72C304.8,223.13 306.28,225.45 307.31,223.01C306.92,219.41 306.21,216.34 307.62,212.78C309.8,205.21 318.74,201.17 325.96,204.12C329.1,205.04 330.57,207.4 332.99,209.29C334.42,208.98 333.49,206.83 333.47,205.79C333.46,202.31 329.9,201.06 327.41,199.51C325.48,198.87 326.12,195.26 328.03,195.08C331.14,194.96 333.88,197.38 337.04,197.56C349.45,197.89 361.53,200.47 374.02,200.42C381.97,202.18 390.24,201.13 398.59,201.41C398.85,203.19 398.94,204.86 398.57,206.63C396.06,208.48 392.45,208.09 389.65,209.62C384.33,212.59 379.74,216.34 377.25,222.06C374.65,228.47 375.43,235.86 379.54,241.45C380.52,242.78 382.02,245.35 383.95,243.96C385.02,242.55 383.09,240.85 382.52,239.55C380.97,235.83 380.15,231.24 381.41,227.33C382.68,221.65 387.55,216.88 392.79,214.66C398.5,212.97 404.11,213.83 409.26,216.7C412.26,218.85 414.49,221.76 416.12,225.04C416.45,226 416.63,227.56 417.8,227.84C418.86,223.2 416.71,220.33 415.32,216.24C417.39,216.1 418.14,217.57 419.65,218.65C419.79,216.9 417.59,215.7 416.62,214.38C413.45,210.52 408.96,209.08 404.41,207.53C403.74,205.71 403.98,204.2 404.4,202.38C407.65,201.08 411.96,203.66 415.05,204.69C421.62,205.72 428.45,205.66 434.99,206.73C436.38,207.02 437.66,207.1 438.61,208.27C438.02,210.17 437.14,212.21 435.73,213.65C432.34,213.94 428.89,212.99 425.42,213.42C424.79,216.85 427.29,218.37 427.6,221.54C428.88,223.65 430.52,223.65 432.67,224.35C433.35,230.17 432.26,236.12 433.38,241.98C433.8,250.42 437.37,257.48 441.25,264.78C444.9,271.46 449.79,277.49 455.41,282.61C457.37,284.52 459.73,285.43 460.96,288.04C463.03,289.35 465.33,290.23 467.34,291.66C476.65,298.41 487.06,301.76 498.06,304.53C504.75,304.57 511.31,305.49 518,304.78C529.69,304.25 540.13,299.94 550.18,294.24C558.6,288.75 566.19,282.26 571.71,273.77C572.32,272.59 572.68,271.35 572.92,270.04C571.22,268.89 570.83,271.07 570.09,272.09C565.36,275.21 561.7,279.8 556.92,282.9C549.07,288.24 539.68,293.22 530.34,294.63C534.83,292.37 539.42,290.24 543.79,287.75C547.15,285.16 550.37,282.36 553.61,279.62C561.18,272.62 567.11,264.11 570.71,254.44C569.98,254.8 569.27,255.18 568.56,255.57C568.46,258.55 565.66,259.56 564.32,262.33C559.96,267.27 554.92,271.86 549.21,275.19C548.21,275.87 547.63,276.66 546.33,276.65C548.42,274.26 550.83,272.29 552.59,269.6C556.11,264.08 560.2,259.3 562.38,253.01C562.11,251.95 561.32,251.47 560,251.58C557.08,251.26 555.79,254.27 554.17,256.11C551.64,259.68 548.29,262.22 544.93,264.94C542.52,266.92 543.49,270.23 542.05,272.99C539.96,277.84 535.97,279.88 531.96,282.88C530.32,284.12 527.74,284.74 526.53,286.39C525.82,288.62 525.85,290.81 522.99,291.16C519.91,290.77 520.61,286.58 517.01,286.65C513.4,286.82 508.58,285.96 505.29,287.18C504.38,288.89 504.46,291 502,290.95C498.57,291.33 499.1,287.36 497.53,285.53C492.37,283.14 487.4,279.55 483.75,275.16C481.45,271.99 482.57,267.74 480.13,264.9C475.44,261.93 471.85,257.86 468.64,253.38C467.16,250.81 463.65,250.58 461,250.22C454.3,248.84 447.68,247.67 441.01,246.14C438.93,245.8 438.86,243.31 438.47,241.66C438.04,236.42 437.98,230.61 438.44,225.38C440.18,224.98 441.88,225.19 443.61,225.5C448.23,226.37 452.92,227.02 457.58,227.61C458.23,223.72 457.3,220.21 456.55,216.43C451.56,214.97 445.84,216.05 441.25,213.81C440.7,212.1 441.67,209.93 442.36,208.37C447.21,206.9 452.38,209.39 457.53,208.56C457.88,202.7 459.55,196.88 461.41,191.33C462.32,188.42 464.61,185.48 464.65,182.45C459.77,181.94 454.88,181.41 450,180.95C448.21,180.79 446.45,181.1 445.68,182.92C444.34,185.99 442.01,188.51 440.41,191.45C440.19,189.31 441.76,187.45 442.63,185.48C443.2,184.39 445.12,183.39 444.9,182.11C443.69,180.2 441.45,180.93 439.54,179.55C435.97,179.16 431.72,179.79 428.16,178.73C425.55,178.04 422.65,178.71 420.02,177.94C415.95,176.72 411.66,178.14 407.54,176.58C404.1,176.14 400.6,176.6 397.16,175.69C394.47,175.06 391.74,175.79 389.01,174.9C386.76,174.18 383.75,173.75 382.36,171.66C381.73,170.06 383.36,169.08 384.59,168.53C393.4,165.85 402.22,167.25 411,166.08C418.02,165.7 424.99,165.53 432.02,165.58C440.49,164.26 449.37,164.83 457.94,164.52C463.39,163.55 469.08,163.91 474.6,163.52C477.5,159.71 478.28,153.83 480.72,149.69C484.07,145.95 490.03,145.72 493.52,142.6C493.65,140.22 493.62,137.82 493.53,135.44C489.71,132.45 485.59,131.39 482.45,127.63C482.82,126.43 483.5,125.36 484.35,124.44Z" style="fill-rule:nonzero;"/>
        </g>
        <g transform="matrix(1,0,0,1,-201,32)">
            <path d="M519.64,131.47C518.32,132.98 516.85,134.27 515,135.1C513.54,135.91 511.55,135.32 510.16,136.19C508.94,137.72 509.18,139.59 507.02,140.34C504.38,139.72 506.99,134.56 504.17,134.34C501.86,135.39 503,139.46 501.52,141.57C500.82,141.58 500.12,141.59 499.42,141.6C498.83,137.47 499.75,133.63 503.8,131.79C509.2,130.23 514.19,130.6 519.64,131.47Z" style="fill:rgb(204,0,34);fill-rule:nonzero;"/>
        </g>
        <g transform="matrix(1,0,0,1,-201,32)">
            <path d="M519.55,146.57C525.85,148 531.83,149.38 537.53,152.6C538.32,152.95 538.68,153.59 538.61,154.54C536.44,154.67 534.31,154.33 532.4,155.3C532.8,158.11 533.73,161.33 535.12,163.82C535.86,164.99 535.57,166.28 535.59,167.62L534.53,167.58C534.47,165.74 533.7,164.87 532.6,163.54C531.92,160.58 530.1,157.91 528.8,155.18C526.76,154.01 523.37,154.83 521,154.58C519.11,154.75 515.87,154.01 514.6,155.71C513.87,158.33 514.03,161.28 514.26,163.96C514.41,165.53 515.7,165.71 516.99,165.97C522.48,166.49 528.02,167.8 533.21,169.65C536.89,171.41 541.27,172.87 543.51,176.43C543.66,179.07 542.14,182.03 541.44,184.57C540.35,187.22 539.59,190.44 537.65,192.59C534.25,191.11 531.54,188.23 528.04,186.83C521.07,183.28 513.62,183.25 505.99,183.79C500.36,184.86 494.34,187.16 490.08,191.09C487.92,192.71 491,195.68 492.83,194.72C496.96,192.89 500.53,190.4 505.05,189.36C508.68,187.77 512.95,188.4 516.94,188.45C519.18,189.1 521.19,190.19 523.56,190.58C525.76,191.75 524.13,194.05 522.08,193.59C515.31,190.97 507.05,191.24 500.56,194.56C498.94,195.23 498.81,196.71 500.18,197.72C504.26,198.57 508.11,194.8 511.47,197.53C508.86,198.04 504.65,199.91 502.43,201.43C502.25,204.02 504.98,206.65 506.23,208.8C507.06,210.46 509.7,211.71 509.59,213.6C504.85,212.75 501.35,209.76 496.96,208.12C493.98,207.49 494.13,210.19 492.43,211.67C492.35,209.71 492.36,207.86 492.89,205.96C492.96,204.63 491.91,203 490.42,203.44C486.76,206.6 486.1,212.18 484.49,216.39C484.26,219.45 484.26,222.55 484.41,225.62C485.14,225.66 485.85,225.61 486.53,225.46C490.07,223.43 494.55,221.46 498.66,221.32C496.93,223.66 495.22,226.12 493.07,228.07C490.78,230.46 488.37,232.21 487.46,235.56C486.47,235.61 485.46,235.61 484.45,235.56C481.61,231.53 481.37,226.75 481.04,222C480.45,218.08 481.76,214.88 482.4,211.06C483.31,207.86 485.28,204.75 486.66,201.75C487.41,200.06 486.4,198.75 485.65,197.32C484.22,196.98 483.12,198.33 482.38,199.35C480.52,202.29 478.94,205.44 477.53,208.62C475.51,214 475.64,220.31 475.8,226C476.47,231.26 478.57,236.53 480.45,241.45C480.99,243.05 482.7,243.97 482.62,245.62C481.11,245.77 480.4,244.61 479.61,243.52C478.46,241.65 477.12,239.95 476.1,237.99C474.54,236.29 472.59,235.5 471.87,233.08C465.07,220.82 464.92,206.14 468.94,192.97C470.37,189.44 471.79,185.25 474.41,182.43C476.71,181.87 478.31,185.92 480.65,185.75C480.06,183.15 477.91,180.09 478.47,177.42C481.63,173.89 485.96,172.24 490.04,170.11C494.27,168.12 498.65,167.7 503.06,166.47C505.05,166.29 509.38,166.19 510.29,164.01C510.34,161.32 510.92,157.69 509.78,155.24C506.06,153.96 500.98,154.8 496.97,154.64C494.07,155.98 493.15,161.26 491.75,163.94C490.85,165.31 490.52,167.83 488.46,167.7C489.89,163.9 491.24,159.93 492.27,156C492.03,153.79 487.94,154.83 486.36,154.55C486.28,153.6 486.65,152.95 487.46,152.59C497.09,147.04 508.59,145.11 519.55,146.57Z" style="fill:rgb(204,0,34);fill-rule:nonzero;"/>
        </g>
        <g transform="matrix(1,0,0,1,-201,32)">
            <path d="M484.52,158.46C485.53,158.39 486.54,158.36 487.55,158.36C486.25,161.86 485.71,165.4 483.58,168.59C482.85,168.7 482.11,168.72 481.35,168.65C480.85,164.8 482.96,161.82 484.52,158.46Z" style="fill:rgb(204,0,34);fill-rule:nonzero;"/>
        </g>
        <g transform="matrix(1,0,0,1,-201,32)">
            <path d="M537.38,158.42C538.13,158.38 538.88,158.39 539.63,158.44C541.91,160.6 542.77,164.6 542.63,167.65C539.63,165.26 537.64,162.34 537.38,158.42Z" style="fill:rgb(204,0,34);fill-rule:nonzero;"/>
        </g>
        <g transform="matrix(1,0,0,1,-201,32)">
            <path d="M436.05,169.42C445.32,169.31 454.75,169.6 464,168.85C466.65,168.73 469.15,168.53 471.72,169.36C472,170.32 471.96,171.4 471.59,172.59C468.7,172.75 465.83,172.84 462.95,172.46C455.3,172.33 447.63,171.92 440,171.27C438.46,171.15 436.6,171.43 435.18,170.76C434.98,169.71 435.27,169.26 436.05,169.42Z" style="fill:rgb(204,0,34);fill-rule:nonzero;"/>
        </g>
        <g transform="matrix(1,0,0,1,-201,32)">
            <path d="M552.37,169.41C555.74,168.64 559.55,168.53 562.95,169.19C564.25,169.79 566.9,170.74 566.62,172.54C562.26,172.58 557.8,173.04 553.47,172.54C552.9,171.52 552.38,170.61 552.37,169.41Z" style="fill:rgb(204,0,34);fill-rule:nonzero;"/>
        </g>
        <g transform="matrix(1,0,0,1,-201,32)">
            <path d="M570.35,169.43C576.89,169.05 583.47,169.57 590.02,169.42C591.56,169.21 592.51,170.4 594,170.33C601.2,170.38 608.43,170.32 615.63,170.47C608.31,170.78 600.39,170.58 592.99,170.78C591.58,170.93 590.48,171.72 589.02,171.58C583.69,171.45 578.34,172.2 573.04,171.82C571.9,171.62 571.11,170.24 570.35,169.43Z" style="fill:rgb(204,0,34);fill-rule:nonzero;"/>
        </g>
        <g transform="matrix(1,0,0,1,-201,32)">
            <path d="M509,170.61C513.26,170.67 516.97,169.92 520.83,172.2C523.22,173.39 526.46,176.81 524.62,179.59C516.23,179.97 507.81,179.46 499.41,179.56C499.48,178.48 499.04,176.71 499.92,175.92C502.19,172.96 505.15,170.74 509,170.61Z" style="fill-rule:nonzero;"/>
        </g>
        <g transform="matrix(1,0,0,1,-201,32)">
            <path d="M573.61,181.45C574.73,181.86 575.8,182.47 576.51,183.46C580.7,188.88 585.34,195.07 587.44,201.64C588.36,205.06 589.21,208.52 589.9,211.99C591.41,217.61 590.47,224.03 590.54,229.93C589.89,231.57 589.44,232.61 589.53,234.47C587.39,231.66 589.44,227.71 586.86,225.25C585,224.88 582.93,225.61 581.01,225.66C576.1,225.85 571.32,227.92 566.42,227.58C566.07,224.88 567.29,222.64 567.33,219.98C567.39,218.54 567.59,217.63 568.35,216.39C573.19,215.15 579.95,216.01 584.75,213.8C585.88,212.59 584.46,208.43 582.98,207.85C577.75,207.27 572.76,209.15 567.45,208.56C566.66,202.53 564.88,196.78 563.22,190.94C562.49,188.16 559.96,185.33 560.39,182.45C564.9,181.93 569,180.91 573.61,181.45Z" style="fill:rgb(204,0,34);fill-rule:nonzero;"/>
        </g>
        <g transform="matrix(1,0,0,1,-201,32)">
            <path d="M551.2,190.78C555.7,195.51 557.13,201.73 558.1,208C558.22,213.49 557.74,219.64 555.4,224.65C555.49,221.81 554.68,219.14 554.56,216.32C553.96,216.83 553.56,217.41 553.36,218.07C552.41,221.15 550.75,223.75 549.4,226.66C549.4,221.4 549.05,216.16 548.07,210.99C547.2,206.46 544.01,202.48 542.51,198.39C544.39,195.48 546.69,192.51 548.89,189.84C549.72,188.69 550.54,190.3 551.2,190.78Z" style="fill:rgb(204,0,34);fill-rule:nonzero;"/>
        </g>
        <g transform="matrix(1,0,0,1,-201,32)">
            <path d="M240.41,194.42C243.87,194.23 247.66,193.93 251.03,194.92C253.07,195.55 255.5,195.2 257.59,195.56C262.6,196.68 267.92,196.44 273,197.23C282.89,197.68 292.73,199.85 302.6,200.48C302.54,201.83 302.88,202.66 301.57,203.5C298.43,204.98 294.72,203.79 291.31,203.52C285.58,202.23 279.71,202.19 273.99,200.88C271.03,200.25 268.06,199.85 265.05,199.56C257.05,197.64 248.4,197.5 240.41,195.51L240.41,194.42Z" style="fill:rgb(204,0,34);fill-rule:nonzero;"/>
        </g>
        <g transform="matrix(1,0,0,1,-201,32)">
            <path d="M530.55,194.49C536.76,197.84 540.48,204.93 542.45,211.43C544.13,216.54 543.65,221.65 543.55,226.94C542.66,229.82 542.05,232.93 540.58,235.57C537.18,236.15 536.76,234.07 535.34,231.65C532.8,228.66 529.44,226.32 527.2,222.96C526.59,221.64 525.22,222.03 525.38,220.4C530.2,221.56 534.8,224.58 539.58,225.64C541.62,217.87 539.03,209.67 534.94,203.02C534.26,202.06 533.55,200.87 532.18,201.25C529.4,203.2 526.96,205.75 524.22,207.68C524.21,203.93 527.71,200.73 528.22,196.98C528.36,195.67 528.83,193.89 530.55,194.49Z" style="fill:rgb(204,0,34);fill-rule:nonzero;"/>
        </g>
        <g transform="matrix(1,0,0,1,-201,32)">
            <path d="M784.6,194.43L784.56,195.47C781.6,196.17 779.07,196.8 775.99,196.79C772.78,198.03 769.48,197.31 766.23,198.33C762.48,198.99 758.8,199.74 755,200.03C748.66,201.08 742.43,202.39 736,202.83C732.19,203.27 726.93,205.46 723.4,203.61C723.17,202.8 723.12,202.01 723.24,201.25C726.48,199.29 731.33,199.67 735,199.02C741.33,198.27 747.64,197.42 754.01,197.06C757.64,195.95 761.33,196.77 764.97,196.01C767.31,195.07 769.57,195.57 772.01,195.25C775.93,193.89 780.5,194.27 784.6,194.43Z" style="fill:rgb(204,0,34);fill-rule:nonzero;"/>
        </g>
        <g transform="matrix(1,0,0,1,-201,32)">
            <path d="M476.99,198.99C476.72,201.83 474.88,204.2 474.42,207.05C474.14,208.75 473.71,210.23 472.69,211.63C470.48,211.22 469.43,209.13 469.88,206.99C470.74,203.62 471.55,199.46 473.84,196.77C475.45,195.48 476.93,197.41 476.99,198.99Z" style="fill-rule:nonzero;"/>
        </g>
        <g transform="matrix(1,0,0,1,-201,32)">
            <path d="M551.91,198.07C553.25,201.4 555.42,205.28 554.77,208.95C554.54,210.32 552.48,212.12 551.21,210.89C550.32,208.84 550.28,206.47 549.54,204.34C548.96,201.53 546.41,198.74 549.61,196.59C550.93,195.67 551.42,197.1 551.91,198.07Z" style="fill-rule:nonzero;"/>
        </g>
        <g transform="matrix(1,0,0,1,-201,32)">
            <path d="M345.33,205.38C349.15,204.67 353.1,205.42 356.99,205.79C364.18,206.5 371.58,206.81 378.62,208.45C376.46,210.84 375.05,215.81 371,214.88C363.15,213.71 355.19,213.08 347.4,211.52C346.02,210.26 345.21,207.23 345.33,205.38Z" style="fill:rgb(204,0,34);fill-rule:nonzero;"/>
        </g>
        <g transform="matrix(1,0,0,1,-201,32)">
            <path d="M679.65,205.41C679.32,207.43 678.73,210.67 676.61,211.54C669.14,213.11 661.49,213.72 654,214.9C651.91,215 651.12,214.84 649.78,213.23C648.76,211.8 646.4,210.32 646.37,208.52C651.14,207.33 656.1,206.94 660.98,206.36C667.18,206.17 673.47,204.84 679.65,205.41Z" style="fill:rgb(204,0,34);fill-rule:nonzero;"/>
        </g>
        <g transform="matrix(1,0,0,1,-201,32)">
            <path d="M317.41,212.47C319.12,212.27 323.19,211.58 322.51,214.55C320.84,216.29 319.07,218.56 316.99,219.77C313.94,219.19 315.46,213.73 317.41,212.47Z" style="fill:rgb(204,0,34);fill-rule:nonzero;"/>
        </g>
        <g transform="matrix(1,0,0,1,-201,32)">
            <path d="M702.37,212.41C703.81,212.3 705.16,212.17 706.59,212.47C708.43,213.76 709.83,215.56 709.6,217.93C709.66,219.25 707.91,220.3 706.89,219.18C705.15,217.32 701.51,215.32 702.37,212.41Z" style="fill:rgb(204,0,34);fill-rule:nonzero;"/>
        </g>
        <g transform="matrix(1,0,0,1,-201,32)">
            <path d="M593.41,213.45C595.44,213.22 597.52,213.31 599.56,213.37C598.29,216.42 596.12,219.34 595.45,222.56L594.51,222.6C594.37,219.34 592.78,216.79 593.41,213.45Z" style="fill:rgb(204,0,34);fill-rule:nonzero;"/>
        </g>
        <g transform="matrix(1,0,0,1,-201,32)">
            <path d="M516.65,217.45C519.82,218.46 522.97,219.42 523.97,223C524.45,226.18 522.72,229.88 522.1,233.02C520.91,238.63 518.39,244.04 517.34,249.62C523.32,250.63 528.83,245.61 532.87,241.84C533.9,240.79 535.34,241.33 536.63,241.42C536.72,242.96 535.55,243.56 534.69,244.67C531.49,248.52 526.5,250.91 521.96,252.82C510.95,256.38 498.22,253.13 490.24,244.79C489.47,243.78 488.24,242.88 488.41,241.49C489.14,241.08 489.89,240.72 490.66,240.42C493.68,242.82 495.72,245.91 499.28,247.67C501.7,248.79 504.96,250.57 507.64,249.63C506.05,243.22 503.05,236.75 501.7,230.17C500.98,227.04 499.06,223.39 501.5,220.51C505.89,217.23 511.32,216 516.65,217.45Z" style="fill:rgb(204,0,34);fill-rule:nonzero;"/>
        </g>
        <g transform="matrix(1,0,0,1,-201,32)">
            <path d="M519.24,222.75C520.92,224.51 520.33,227.67 519.62,229.74C518.34,233.46 517.17,237.69 515.03,241.01C513.74,242.73 511.32,242.59 509.76,241.28C508.11,240.12 508.01,238.49 507.33,236.74C506.21,232.94 503.63,228.27 504.39,224.3C507.23,219.32 515.02,220.01 519.24,222.75Z" style="fill-rule:nonzero;"/>
        </g>
        <g transform="matrix(1,0,0,1,-201,32)">
            <path d="M401.27,225.66C402.36,226.36 403.99,227 403.54,228.58C401.47,230.25 399.52,231.71 397.78,233.78C396.6,234.7 395.1,236.75 393.5,236.58C391.39,233.71 391.06,228.54 394.43,226.47C396.19,225.04 399.23,224.78 401.27,225.66Z" style="fill:rgb(204,0,34);fill-rule:nonzero;"/>
        </g>
        <g transform="matrix(1,0,0,1,-201,32)">
            <path d="M627.02,225.26C632.6,225.07 634.97,233.68 630.65,236.6C627.38,234.27 624.21,231.5 621.48,228.56C621.23,225.75 624.77,224.88 627.02,225.26Z" style="fill:rgb(204,0,34);fill-rule:nonzero;"/>
        </g>
        <g transform="matrix(1,0,0,1,-201,32)">
            <path d="M488.45,254.41C489.16,254.37 489.85,254.42 490.52,254.55C493.92,257.51 497.83,258.47 502.02,259.88C510.02,261.58 519.51,261.84 527.07,258.33C530.32,257.44 533.25,254.89 536.55,254.37C536.58,259.41 536.74,264.53 536.48,269.56C534.29,272.7 531.48,275.08 528.54,277.48L527.45,277.62C527.18,273.76 527.71,269.79 527.16,265.97C526.64,262.03 520.32,261.49 518.79,265C517.87,269.54 519.83,275.53 517.54,279.57C515.05,279.86 512.5,279.86 510,279.8C508.57,279.61 507.33,280.05 506.46,278.64C505.95,275.14 506.34,271.53 505.93,268C505.63,266.28 505.97,264.75 504.41,263.6C501.99,261.51 497.79,263.06 497.42,266.33C496.97,270.08 497.32,273.85 496.62,277.62C492.99,275.44 489.86,272.81 488.45,268.68C488.23,263.93 488.16,259.15 488.45,254.41Z" style="fill:rgb(204,0,34);fill-rule:nonzero;"/>
        </g>
    </g>
</svg>
