<?xml version="1.0" encoding="UTF-8" standalone="no"?>
<!DOCTYPE svg PUBLIC "-//W3C//DTD SVG 1.1//EN" "http://www.w3.org/Graphics/SVG/1.1/DTD/svg11.dtd">
<svg width="100%" height="100%" viewBox="0 0 488 262" version="1.1" xmlns="http://www.w3.org/2000/svg" xmlns:xlink="http://www.w3.org/1999/xlink" xml:space="preserve" xmlns:serif="http://www.serif.com/" style="fill-rule:evenodd;clip-rule:evenodd;stroke-linejoin:round;stroke-miterlimit:2;">
    <g transform="matrix(1,0,0,1,-11.702454,-231.444146)">
        <g transform="matrix(1,0,0,1,-7768,0.647578)">
            <g transform="matrix(1.106587,0,0,1.106587,7456.064217,149.486867)">
                <g transform="matrix(0.90368,0,0,0.90368,281.889976,-135.673422)">
                    <path d="M125.938,493.097L384.344,493.029L406,352L389,348L344,362.275L330,341.508L316,283L331,264L327,256.5L290,240L263,239L230,252L195,286L184,322L173,359.441L152,362.275L121,352L110,391.858L125.938,493.097Z" style="fill:white;"/>
                </g>
                <path d="M536,73.75C544.75,74.56 551.72,79.5 558.78,84.23C563.07,87.29 567.48,90.27 572.92,90.53C577.59,91.71 581.41,90.63 585.49,93.49C588.47,97 587.46,100.75 587.4,105.02C586.06,106.86 586.72,108.98 585.81,111.05C586.1,111.54 586.33,112.04 586.49,112.56L584.99,112.96C584.23,115.58 584.06,118.12 581.06,119.06C579.92,122.29 575.76,123.96 574.73,126.98C577.75,136.33 582.37,146.02 583.59,156.52C586.18,164.2 584.91,173.25 589.12,179.94C591.08,183.46 595.08,185.3 599.01,185.1C604.79,184.13 610.35,182.46 616.02,181.03C623.59,178.61 631.89,176.49 639.06,173.13C644.35,167.08 649.21,158.85 656.51,154.37C657.49,153.72 657.41,152.27 658.31,151.45C658.89,151.7 659.45,151.95 660.02,152.22C662.34,151.4 663.25,149.96 665.84,150.76C669.09,149.58 670.93,151.87 673.01,153.89C676.62,155.53 680.12,157.16 683.08,159.88C684.62,161.33 685.67,163.26 687.21,164.68C689.23,164.19 691.03,162.83 693.08,162.31C696.58,161.37 700.62,161.57 703.94,163.06C710.65,166.77 716.39,172.7 718.96,180.01C719.72,183.27 719.27,187.03 719.56,190.35C722.21,191.32 723.23,194.09 725.93,195.07C726.65,196.69 727.09,197.31 728.67,198.15C728.95,198.92 729.23,199.69 729.5,200.47C730.16,200.75 730.82,201.04 731.47,201.33C730.85,203.98 732.75,206.23 732.5,209.02C732.42,210.86 733.68,212.07 733.37,214C733.81,222.62 728.95,228.71 724.6,235.58C722.02,239.05 719.2,243.25 715.35,245.37C711.75,247.06 706.87,246.88 703.7,244.31C700.65,241.91 698.17,238.3 697.5,234.44C695.32,234.2 692.35,235.51 690.21,236.13C686.38,240.42 685.11,245.72 682.65,250.68C678.66,259.26 674.16,267.93 668.68,275.66C663.54,283.36 658.08,290.96 651.4,297.39C647.65,300.99 644.03,304.82 640.03,308.06C639.1,308.68 638.18,309.95 637,309.86C620.3,309.84 603.59,310.09 586.89,309.78C585.44,308.13 585.84,306.4 585.44,304.42C582.36,292.48 582.17,280.27 582.89,268C583.45,263.96 583.34,258.93 585.15,255.24C586.49,254.8 586.71,258.17 587.09,258.98C588.3,270.74 590.59,282 595.17,292.96C596.84,296.38 597.78,299.66 600.87,302.16C601.26,302.6 601.83,302.72 602.57,302.53C608.32,297.9 611.16,289.63 613.9,282.97C617.92,273.03 619.84,262.48 621.56,251.96C621.4,249.47 622.46,245.73 620.35,243.99C617.02,238.11 614.54,231.77 611.19,225.87C606.73,218.23 608.61,208.66 613.89,201.95C617.8,197.26 623.39,194 627.63,189.72L627.74,189.2C623.7,190.03 619.13,191.84 615.02,192.79C610.75,193.57 606.62,195.08 602.54,196.54C591.2,201.3 584.34,212.64 580.69,223.89L579.94,223.94C578.97,220.58 579.98,216.42 579.82,212.88C580.87,211.2 580.67,209.19 581.43,207.34C582.69,204.25 583.67,201.24 585.5,198.57C586.17,197.48 587.22,196.03 586.2,194.82C583.17,191.35 579.27,187.71 577.64,183.26C574.1,174.78 574.61,165.74 572.5,157.36C568.55,139.17 561.42,122.15 548.67,108.34C547.1,107.01 548.07,105.17 549.95,106.12C554.46,108.05 558.75,111.29 562.41,114.52C566.3,115.64 570.82,111.93 573.18,109.16C575.02,107.12 574.76,105 574.61,102.45C573.54,102.28 572.47,102.12 571.4,101.97C564.25,99.9 557.44,97.12 551.62,92.35C546.59,88.33 541.19,85.88 534.92,84.48C525.63,83.41 515.99,84.98 507.31,88.35L507.24,88.83C509.65,89.39 512.25,88.94 514.7,89.4C510.01,90.82 504.57,91.06 500.03,93.05C494.74,95.06 489.68,97.79 484.99,100.95C475,108.88 467.48,120.61 461.84,131.92C457.43,140.85 455.15,150.34 452.96,159.99C452.23,165.69 451.51,171.37 450.24,176.99C448.76,184.11 444.86,190.65 439.21,195.26L439,196C445.48,204.91 447.08,215.89 446.62,226.67C445.07,223.98 444.52,220.69 443.23,217.86C440.45,212.43 437.31,207.34 433.11,202.89C428.04,198 421.82,195.15 414.98,193.71C409.52,192.74 403.78,189.66 398.34,189.34C403.43,195.73 412.79,199.06 415.41,207.9C417.41,211.73 417.36,215.82 416.95,220.02C415.64,225.63 411.68,231.09 409.45,236.43C408.88,237.94 408.32,239.28 408.69,240.93C406.58,241.27 406.03,244.25 405.82,245.99C407.78,260.15 411.13,274.37 416.38,287.68C418.77,293.42 421.25,298.81 425.43,303.52C426.76,304.05 428.81,304.1 429.68,302.73C433.77,298.03 435.31,290.92 437.34,285.23C438.88,277.4 440.93,270.01 440.76,261.93C442.32,258.17 442.61,254.44 442.5,250.42C444.12,249.85 444.34,253.8 444.57,254.9C444,257.11 444.9,258.83 445.19,260.99C445.51,266.65 445.84,272.33 446.22,278C446.5,286.22 445.44,294.26 445.4,302.51C443.79,304.83 445.17,307.24 444.06,309.7C430.06,310.12 416.01,309.79 402,309.9C397.79,309.79 393.45,310.16 389.28,309.68C378.22,300.82 368.57,290.12 360.55,278.45C352.32,267.26 346.96,255.24 340.72,242.99C340.66,241.97 340.32,241.16 339.7,240.55C337.2,241.37 336.29,239.63 334.39,238.55C333.08,239.07 332.29,238.24 331,238.24C329.75,238 328.45,239.06 327.37,239.58C328.6,239.74 329.11,240.21 328.9,241C327.87,241.34 326.76,241.51 325.57,241.5C324.77,243.57 322.3,244.07 321.02,246C316.76,248.47 312.44,246.85 308.55,244.45C303.73,239.62 299.82,233.48 296.39,227.61C295.29,225.46 293.96,223.25 293.32,220.92C292.1,217.11 292.56,213.02 292.51,208.99C293.47,204.14 295.98,200.12 299.33,196.5C299.99,194.42 301.89,194.8 302.72,192.95C303.65,191.53 305.49,191.03 306.48,189.55C306.79,186.32 306.21,182.49 307.33,179.22C310.09,172.48 315.23,167.14 321.48,163.49C323.63,162.42 325.48,161.22 327.99,161.51C332.02,160.99 334.53,163.28 338.05,164.73C339.24,165.05 339.94,163.3 340.59,162.57C342.85,158.68 347.14,156.93 351.07,155.21C355,154.45 358.15,152.71 362,152.97C365.39,152.97 368.1,154.44 370.99,156.05C375.68,158.88 379.34,164 382.81,168.2C384.84,170.53 385.79,173.07 389.02,173.95C401.1,178.24 413.42,182.42 426,184.94C429.27,185.58 432.82,184.6 435.18,182.2C437.96,179.83 438.93,175.44 439.85,172.02C441.34,161.55 443.33,151.24 446.29,141.07C451.43,124.25 459.67,108.72 472.44,96.45C481.99,86.81 494.1,80.88 506.87,76.71C516.29,73.84 526.2,72.97 536,73.75Z" style="fill-rule:nonzero;"/>
                <path d="M542.98,98.7C547.9,99.19 551.06,103.17 556.09,104.49C558.81,104.78 561.23,103.87 563.57,105.39C565.81,104.12 569.62,103.71 571.4,101.97C572.47,102.12 573.54,102.28 574.61,102.45C574.76,105 575.02,107.12 573.18,109.16C570.82,111.93 566.3,115.64 562.41,114.52C558.75,111.29 554.46,108.05 549.95,106.12C548.07,105.17 547.1,107.01 548.67,108.34C561.42,122.15 568.55,139.17 572.5,157.36C574.61,165.74 574.1,174.78 577.64,183.26C579.27,187.71 583.17,191.35 586.2,194.82C587.22,196.03 586.17,197.48 585.5,198.57C583.67,201.24 582.69,204.25 581.43,207.34C580.67,209.19 580.87,211.2 579.82,212.88C578.14,215.39 578.01,218.22 576.78,220.91C573.71,228.18 570.86,235.62 567.33,242.68C567.37,239.96 568.35,237.71 568.73,234.99C569.58,230.52 569.96,225.84 571.41,221.52C571.89,213.97 572.69,206.56 571.81,198.99C571.52,193.38 569.81,188.1 569.4,182.5C567.96,181.22 568.71,179.71 568.12,178.01C567.16,176.03 567.56,174.11 567.29,172C565.92,169.19 565.55,165.81 563.93,163.14C561.39,162.96 560.33,167.07 560.22,169.02C558.41,173.66 554.81,177.88 550.53,180.44C546.7,181.96 543.18,183.13 539,182.36C542.88,181.18 546.31,180.29 549.4,177.41C553.98,173.37 556.1,166.98 555,161C554.53,158.95 554.76,157.41 555.47,155.46C557.65,154 560.06,153.62 562.63,153.53C562.86,151.97 561.01,150.84 559.98,149.94C557.74,149.38 555.28,149.51 552.99,149.59C554.95,149.06 557.07,149.57 558.95,148.93C558.35,147.09 557.06,145.69 556.62,143.5C556.31,135.85 553.77,128.07 550.78,121.07C547.41,114.87 543.16,109.13 539.65,103.02C539.17,100.25 540.87,99.61 542.98,98.7Z" style="fill:rgb(3,76,178);fill-rule:nonzero;"/>
                <path d="M487.38,136.35C489.94,136.73 492.4,138.16 494.68,139.35C498.2,141.57 501.53,143.54 504.14,146.89C506.21,149.51 506.65,152.76 506.31,156.01C505.95,157.06 506.17,159.1 504.54,158.54C501.56,151.49 496.55,145.18 491.04,139.93C489.74,138.71 488.3,137.92 487.38,136.35Z" style="fill-rule:nonzero;"/>
                <path d="M538.62,136.34C538.27,137.02 537.78,137.62 537.13,138.14C531.99,142.3 527.63,147.58 524.27,153.27C523.12,154.82 522.34,156.77 521.01,158.14C519.75,158.21 519.66,155.87 519.41,154.93C519.1,150.4 521.79,145.94 525.39,143.34C529.2,140.29 533.65,137.04 538.62,136.34Z" style="fill-rule:nonzero;"/>
                <path d="M474.09,149.8C482.88,155.14 487.71,163.14 495.99,169.04C498.56,171.13 503.47,171.21 506.01,169.06C506.93,168.49 507.74,167.14 508.85,167.08C509.12,170.65 508.27,174.12 505.13,176.19C501.65,177.85 501.28,181.87 498.11,184.14C493.28,188.6 487.57,188.81 481.34,188.55C483.02,186.61 486.17,186.86 488.26,185.28C489.22,184.49 491.76,183.42 491.77,182.1C489.5,181.84 487.3,182.45 485.02,181.77C478.61,180.09 473.39,175.85 471.56,169.33C469.49,164.59 471.94,160.02 470.52,155.47C468.52,153.94 466.48,154.34 464.12,154.21L462.29,153.82C464.33,149.96 470.02,147.64 474.09,149.8Z" style="fill-rule:nonzero;"/>
                <path d="M552.99,149.59C555.28,149.51 557.74,149.38 559.98,149.94C561.01,150.84 562.86,151.97 562.63,153.53C560.06,153.62 557.65,154 555.47,155.46C554.76,157.41 554.53,158.95 555,161C556.1,166.98 553.98,173.37 549.4,177.41C546.31,180.29 542.88,181.18 539,182.36C537.42,182.27 535.76,181.91 534.19,182.15C534.26,183.64 537.21,184.84 538.35,185.65C540.35,187.17 543.18,186.63 544.67,188.57C542.14,188.58 539.6,188.6 537.08,188.47C531.27,187.56 526.74,184.08 523.84,179.04C522.78,176.6 520.13,176.51 518.7,174.29C517.43,172.24 516.48,169.36 517.09,166.96C518.27,166.9 518.97,168.56 519.93,169.15C522.03,170.92 525.5,170.8 528.02,170.22C530.77,168.73 533.94,166.28 535.68,163.69C538.21,162.55 539.82,159.77 541.9,157.88C545.1,154.78 548.78,151.2 552.99,149.59Z" style="fill-rule:nonzero;"/>
                <path d="M464.12,154.21C466.48,154.34 468.52,153.94 470.52,155.47C471.94,160.02 469.49,164.59 471.56,169.33C473.39,175.85 478.61,180.09 485.02,181.77C479.89,182.04 474.75,180.67 471.09,176.93C466.42,172.37 464.53,165.37 465.29,158.99C465.9,156.33 462.39,156.46 464.12,154.21Z" style="fill:rgb(3,76,178);fill-rule:nonzero;"/>
                <path d="M361.92,164.41C367.95,165.93 371.2,171.56 374.9,176.05C379.06,182.12 383.82,187.8 388.69,193.33C393.26,198.26 399.2,202.15 403.8,207.14C406.57,210.05 407.54,214.1 407.01,218.02C406.27,221.99 404.13,224.8 402.38,228.37C400.85,230.82 400.22,233.63 398.77,236.11L398.17,235.82C396.57,230.74 396.01,225.23 397.2,220C397.46,217.61 398.12,213.65 396.04,211.93C391.63,209.32 387.41,206.44 382.82,204.23C376.58,200.13 371.2,192.71 366.57,186.96C366.56,184.07 366.11,181.18 365.63,178.34C363.54,179.85 363.87,183.66 362.85,185.96C360.95,191.22 356.15,197.84 350,197.99C347.76,197.8 347.84,195.13 347.39,193.48C346.42,185.91 346.96,177.92 348.53,170.47C351.11,166.51 357.26,163.57 361.92,164.41Z" style="fill:rgb(204,78,16);fill-rule:nonzero;"/>
                <path d="M666.99,164.51C671.19,165.08 676.78,167.41 677.71,172.07C679.18,179.23 679.19,186.75 678.68,194.03C678.69,195.59 677.87,196.71 676.78,197.73C675.1,198.31 672.87,197.39 671.36,196.63C665.42,192.97 662.69,185.99 661.41,179.43C661.12,179.02 660.77,178.66 660.38,178.33C658.79,182.06 660.63,186.76 658.06,189.8C653.68,194.17 649.3,200.41 643.53,203.63C639.78,206.3 635.06,207.68 631.31,210.32C629.99,212.26 628.02,212.28 627.62,214.98C627.95,221.96 628.83,228.35 627.64,235.28C625.79,234.37 625.28,231.59 624.23,229.9C622.15,224.45 617.38,219.18 619.07,212.99C620.31,207.49 624.41,204.83 628.42,201.4C631.82,198.78 634.77,195.82 637.82,192.8C645.31,185.42 650.34,175.17 657.84,167.8C660.48,165.04 663.42,165.7 666.99,164.51Z" style="fill:rgb(204,78,16);fill-rule:nonzero;"/>
                <path d="M327.04,173.04C330.02,172.44 333.41,174.71 336.14,175.78C338.02,176.5 339.33,177.93 338.03,179.93C336.31,179.65 334.74,179.22 332.97,179.58C330.6,180.6 329.87,183.89 329.35,186.17C328.43,192.48 326.46,199.3 322.06,204.08C320.83,206.41 323.57,206.39 325.1,206.41C323.95,206.68 322.74,206.71 321.58,206.52C320,203.9 319.25,201 318.8,198C318.04,193.12 316.75,187.93 318.22,183.1C319.13,178.69 323.12,174.96 327.04,173.04Z" style="fill:rgb(204,78,16);fill-rule:nonzero;"/>
                <path d="M699.62,173.39C703.93,175.87 708.55,180.69 708.44,186C708.73,191.91 707.06,198.21 705.85,203.97C705.85,204.93 705.22,205.42 703.97,205.44C698.67,200.25 696.47,193.24 696.08,185.98C695.93,184.19 694.93,182.39 692.97,182.25C690.96,181.93 689.26,182.61 687.4,183.19C687.36,181.21 687.14,179.19 687.28,177.21C688.24,175.89 690.47,175.47 691.9,174.75C694.32,173.86 697.03,171.91 699.62,173.39Z" style="fill:rgb(204,78,16);fill-rule:nonzero;"/>
                <path d="M332.97,179.58C334.76,179.35 337.49,180.33 338.34,181.98C338.78,186.49 337.63,190.91 339.33,194.96C339.67,198.77 340.54,201.99 342.98,205.01C345.63,207.54 349.02,208.02 352.56,207.45C354.61,206 357.06,205.62 359,204C364.21,200.01 366.44,193.34 366.57,186.96C371.2,192.71 376.58,200.13 382.82,204.23C387.41,206.44 391.63,209.32 396.04,211.93C398.12,213.65 397.46,217.61 397.2,220C396.01,225.23 396.57,230.74 398.17,235.82L398.77,236.11C398.06,237.27 397.47,238.08 397.46,239.52C396.17,239.54 394.88,239.55 393.59,239.48C392.28,236.91 390.54,234.88 389.88,232.02C388.89,225.74 390.56,220.67 391.7,214.42C386.18,217.07 379.18,216.64 373,218C367.07,218.78 360.83,218.36 354.97,217.2C353.39,216.89 351.4,215.82 350.67,217.99C351.11,218.97 351.63,219.9 352.22,220.79C353.08,221.21 354.46,222.08 352.97,222.79C350.92,223.84 348.69,224.52 346.58,225.46C343.27,225.7 339.75,225.86 336.46,225.44C333.55,223.39 329.52,223.76 326.55,221.53C326.16,220.47 325.75,219.42 325.46,218.34C328.28,216.1 331.37,213.52 333.49,210.58C337.09,205.25 337.27,196.06 334.5,190.39C334.16,190.72 333.84,191.06 333.54,191.42C333.39,197.22 330.54,203.77 325.1,206.41C323.57,206.39 320.83,206.41 322.06,204.08C326.46,199.3 328.43,192.48 329.35,186.17C329.87,183.89 330.6,180.6 332.97,179.58Z" style="fill:rgb(3,76,178);fill-rule:nonzero;"/>
                <path d="M692.97,182.25C694.93,182.39 695.93,184.19 696.08,185.98C696.47,193.24 698.67,200.25 703.97,205.44L703.66,206.63C702.07,206.82 700.48,206.98 699.38,205.61C694.99,202.17 692.82,196.87 692.47,191.42C692.15,191.05 691.82,190.69 691.47,190.35C691.43,191.87 691.11,192.95 690.51,194.32C688.79,200.23 689.65,206.76 693.16,211.85C694.89,214.28 697.47,215.42 699.54,217.4C699.65,218.82 700.31,221.79 698.58,222.42C695.67,223.15 692.88,224.16 690.02,225.03C683.97,226.06 677.86,225.58 672.46,222.46L672.48,221.58C674.97,220.37 676.88,218.46 678.62,216.36C672.75,217.03 666.89,217.71 661,218.27C657.02,218.57 653.04,217.75 649.01,217.18C645.27,216.25 641.48,216.41 637.75,215.35C636.6,214.94 635.65,214.35 634.39,214.36C634.08,217.7 636.05,220.59 636.14,223.99C636.58,228.45 636.66,235.58 632.59,238.52C631.56,238.67 630.49,238.67 629.39,238.54C628.21,237.72 628.11,236.54 627.64,235.28C628.83,228.35 627.95,221.96 627.62,214.98C628.02,212.28 629.99,212.26 631.31,210.32C635.06,207.68 639.78,206.3 643.53,203.63C649.3,200.41 653.68,194.17 658.06,189.8C658.88,190.25 659.34,190.96 659.43,191.92C660.49,195.35 661.97,198.9 664.41,201.59C667.84,205.45 672.82,207.63 678.01,207.35C681.54,206.84 684.42,203.93 685.52,200.63C687.12,194.91 687.49,189.11 687.4,183.19C689.26,182.61 690.96,181.93 692.97,182.25Z" style="fill:rgb(3,76,178);fill-rule:nonzero;"/>
                <path d="M526.42,196.59C527.62,199.57 528.56,202.85 530.16,205.66C531.86,204.98 533.01,200.73 534.99,199.56C537.28,199.35 539.46,201.53 540.93,203.06C546.1,208.79 549.94,215.59 551.73,223.13C553.48,228.17 554.4,233.69 554,239.02C553.93,240.63 552.91,242.53 551.01,241.98C548.13,241.15 544.79,240.57 542.46,238.59C541.25,235.2 540.21,231.62 538.65,228.39C536.8,229.52 535.86,232.92 534.78,234.8C533.47,235.69 532.17,234.53 530.99,233.99C527.33,231.84 523.59,230 519.65,228.42C517.07,227.51 514.69,228.04 512.08,228.44C506.46,230.37 500.64,233.4 495.05,235.05C493.15,233.82 493.02,229.91 491,228.46C487.33,231.91 487.88,239.01 482.26,240.35C478.64,241.5 475.11,243.86 471.46,244.6C470.9,240.19 471.31,235.21 472.48,230.92C472.8,226 474.64,221.82 476.29,217.2C478.73,212.29 481.42,207.27 485.62,203.65C486.53,203 487.75,201.72 488.94,202.02C490.53,203.01 490.14,207.46 492,207.97C495.38,205.35 496.6,198.88 500.21,196.19C502.38,194.77 505.4,194.07 507.81,195.21C509.5,196.47 511.05,198.35 512.99,199.17C515.31,198.2 516.13,195.38 518.85,194.69C521.18,194.09 525.54,193.53 526.42,196.59Z" style="fill-rule:nonzero;"/>
                <path d="M310.84,202.31L311.36,203C311.86,205.75 310.8,207.5 309.67,209.85C307.54,217.59 311.74,225.78 314.2,233.03L313.2,232.92C309.83,228.7 306.22,223.83 304.38,218.7C302.82,213.81 304.62,209.44 307.55,205.55C308.29,204.63 309.57,202.23 310.84,202.31Z" style="fill:rgb(204,78,16);fill-rule:nonzero;"/>
                <path d="M715.69,202.28C718.86,205.54 722.53,210.2 722.22,215C722.31,220.72 717.62,226 714.68,230.63C713.76,231.88 712.67,234.46 710.95,234.65C712.95,230.01 714.1,225.26 715.51,220.45C717.66,215.27 717.38,209.74 714.42,204.93C714.7,203.63 713.6,201.92 715.69,202.28Z" style="fill:rgb(204,78,16);fill-rule:nonzero;"/>
                <path d="M311.36,203C311.97,207.55 313.94,211.64 316.46,215.42C316.32,220.17 319.94,223.34 319.61,228C319.96,230.63 318.61,232.34 317.48,234.55C316.49,234.62 315.49,234.66 314.49,234.67C314.56,234.2 314.61,233.74 314.66,233.27L314.2,233.03C311.74,225.78 307.54,217.59 309.67,209.85C310.8,207.5 311.86,205.75 311.36,203Z" style="fill:rgb(3,76,178);fill-rule:nonzero;"/>
                <path d="M714.42,204.93C717.38,209.74 717.66,215.27 715.51,220.45C714.1,225.26 712.95,230.01 710.95,234.65C710.13,234.68 709.33,234.64 708.53,234.52C707.9,233.51 707.25,232.52 706.55,231.55C706.28,229.32 706.31,226.65 706.51,224.4C708.07,221.33 708.8,218.06 709.79,214.79C711.76,211.77 713.14,208.26 714.42,204.93Z" style="fill:rgb(3,76,178);fill-rule:nonzero;"/>
                <path d="M517.93,235.35C523.4,236.91 528.29,240.05 531.65,244.67C529.4,244.9 527.28,243.42 525.04,242.88C518.06,240.34 509.98,240.63 503,243.03C500.67,243.74 498.55,244.72 496.18,244.83C497.6,242.28 502.79,240.09 505.35,238.38C509.29,236.63 513.51,234.45 517.93,235.35Z" style="fill-rule:nonzero;"/>
                <path d="M408.69,240.93C410.18,243.76 410.89,247.01 411.98,250.01C412.58,253.54 414.74,256.39 415.43,259.91C418.42,267.11 420.9,274.61 424.51,281.53C425.17,282.48 426.13,284.61 427.57,283.55C429.92,281.24 431.79,278.33 433.69,275.64C436.78,271.36 438.22,266.54 440.76,261.93C440.93,270.01 438.88,277.4 437.34,285.23C435.31,290.92 433.77,298.03 429.68,302.73C428.81,304.1 426.76,304.05 425.43,303.52C421.25,298.81 418.77,293.42 416.38,287.68C411.13,274.37 407.78,260.15 405.82,245.99C406.03,244.25 406.58,241.27 408.69,240.93Z" style="fill:rgb(3,76,178);fill-rule:nonzero;"/>
                <path d="M586.24,244.24L586.82,244.2C588.3,249.22 590.31,254.03 592.16,258.92C593.45,262.21 595.59,265.17 596.65,268.54C597.24,269.79 599.38,269.98 600.52,270.63C602.46,271.86 604.83,271.37 607.04,271.38C610.76,269.53 611.92,264.42 614.32,261.46C615.59,258.08 617.43,255.02 618.41,251.53C619.17,249.02 620.75,246.59 620.35,243.99C622.46,245.73 621.4,249.47 621.56,251.96C619.84,262.48 617.92,273.03 613.9,282.97C611.16,289.63 608.32,297.9 602.57,302.53C601.83,302.72 601.26,302.6 600.87,302.16C597.78,299.66 596.84,296.38 595.17,292.96C590.59,282 588.3,270.74 587.09,258.98C586.71,258.17 586.49,254.8 585.15,255.24C583.34,258.93 583.45,263.96 582.89,268C582.17,280.27 582.36,292.48 585.44,304.42C585.84,306.4 585.44,308.13 586.89,309.78C582.79,309.7 578.47,310.06 574.37,309.61C573.97,308.75 573.77,307.88 573.77,307.01C573.59,299.14 573.87,291.32 574.61,283.48C576.58,275.57 577.33,266.93 580.23,259.13C581.86,253.99 584.2,249.21 586.24,244.24Z" style="fill:rgb(3,76,178);fill-rule:nonzero;"/>
                <path d="M362.71,254.3C365.05,257.6 367.76,260.54 370.35,263.64C376.15,270.02 382.87,275.04 389.47,280.5C391.89,284.97 392.8,290.24 395.25,294.78C395.69,296.01 397.58,300.05 395.01,299.86C391.34,297.6 388.34,293.77 384.95,291.05C380.4,285.84 375.7,280.92 371.77,275.19C366.93,268.23 362.08,260.86 358.79,253.03C359.91,250.09 361.91,252.8 362.71,254.3Z" style="fill:rgb(3,76,178);fill-rule:nonzero;"/>
                <path d="M667.88,252.17C668.82,253.33 667.69,255.04 667.26,256.24C662.53,265.67 656.42,274.62 649.7,282.73C645.53,288.33 639.96,293.05 635.07,298.06C633.96,299.09 631.3,301.09 630.39,298.8C632.49,293.97 634.44,289.01 635.94,283.96C636.6,282.27 636.96,280.6 638.69,279.69C645.7,273.88 652.76,268.72 658.83,261.83C660.23,259.86 661.59,258.04 663.32,256.34C664.7,254.98 665.68,252.2 667.88,252.17Z" style="fill:rgb(3,76,178);fill-rule:nonzero;"/>
                <path d="M444.57,254.9C450.73,269 453.29,284.99 456.22,300.02C456.69,303.04 458.22,306.61 457.64,309.62C453.14,310 448.57,309.81 444.06,309.7C445.17,307.24 443.79,304.83 445.4,302.51C445.44,294.26 446.5,286.22 446.22,278C445.84,272.33 445.51,266.65 445.19,260.99C444.9,258.83 444,257.11 444.57,254.9Z" style="fill:rgb(3,76,178);fill-rule:nonzero;"/>
                <path d="M553.3,287.53L553.53,287.39C554.13,290.46 555.15,293.86 555.8,296.99C556.25,298.92 558.11,300.58 557.37,302.5C556.32,304.95 558.05,307.07 556.59,309.6C552.2,310 547.69,309.86 543.29,309.66C543.29,307.65 544.69,305.42 545.56,303.62C548.42,298.52 550.51,292.51 553.3,287.53Z" style="fill:rgb(3,76,178);fill-rule:nonzero;"/>
                <path d="M469.17,302.24C470.8,303.51 472.32,307.46 473.6,309.4C472.96,310.07 470.45,309.64 469.49,309.58C469.43,307.23 468.57,304.5 469.17,302.24Z" style="fill:rgb(3,76,178);fill-rule:nonzero;"/>
            </g>
        </g>
    </g>
</svg>
