<?xml version="1.0" encoding="UTF-8" standalone="no"?>
<!DOCTYPE svg PUBLIC "-//W3C//DTD SVG 1.1//EN" "http://www.w3.org/Graphics/SVG/1.1/DTD/svg11.dtd">
<svg width="100%" height="100%" viewBox="0 0 797 946" version="1.1" xmlns="http://www.w3.org/2000/svg" xmlns:xlink="http://www.w3.org/1999/xlink" xml:space="preserve" xmlns:serif="http://www.serif.com/" style="fill-rule:evenodd;clip-rule:evenodd;stroke-linejoin:round;stroke-miterlimit:2;">
    <g transform="matrix(1,0,0,1,-115.215482,-41.114802)">
        <g>
            <path d="M511.52,41.48C513.47,40.57 514.96,41.57 516.8,42.21C539.29,51.82 561.97,60.97 584.52,70.44C612.39,81.86 640.08,93.72 667.99,105.01C696.99,116.99 725.86,129.26 754.94,141.03C769.9,147.52 785.09,153.48 800.07,159.94C837.3,175.45 874.62,190.7 911.74,206.49C912,222.98 911.91,239.5 911.54,256C911.24,285.87 910.03,315.85 907.84,345.64C902.44,426.69 891.01,506.17 868.3,584.29C860.93,609.64 852.15,634.53 841.81,658.82C821.53,707.19 794.37,752.75 761.96,793.96C723.46,843.68 677.34,886.73 626.05,923.04C594.98,945.37 561.87,965.03 527.16,981.16C522.98,983.01 518.82,985.13 514.47,986.54C512.68,987.23 511.05,986.24 509.37,985.66C480.03,972.97 451.87,957.3 425.02,939.98C386.68,914.93 350.56,886.24 317.94,854.07C283.95,820.51 253.87,783.04 228.35,742.67C222.71,733.32 216.65,724.09 211.58,714.42C205.52,703.11 199.19,691.75 193.97,680.04C189.39,670.13 184.82,660.37 180.89,650.14C174.78,634.43 168.43,618.52 163.64,602.36C158.52,585.46 153.47,568.69 149.54,551.47C145.6,535.42 141.98,519.29 138.83,503.07C135.85,487.64 132.7,472.12 130.64,456.54C127.86,437.12 125.27,417.69 123.4,398.16C116.65,334.61 114.83,270.28 115.28,206.4C157.09,188.8 199.07,171.47 240.91,153.92C250.35,150.06 259.81,146.29 269.15,142.19C305.44,127.15 341.64,112 378,97.08C422.32,78.46 467.34,60.14 511.52,41.48Z" style="fill:rgb(0,100,0);fill-rule:nonzero;"/>
            <path d="M518.19,77.75C529.25,82.36 540.12,87.37 551.29,91.72C567.86,98.31 584.1,105.67 600.65,112.32C619.51,120.1 638.2,128.31 657.17,135.8C688.05,148.6 718.87,161.56 749.84,174.15C788.05,190.39 826.57,205.95 864.79,222.16C869.81,224.16 874.86,226.05 879.76,228.33C880.99,235.89 879.41,243.01 879.63,250.65C879.22,262.69 879.82,274.81 878.71,286.81C878.26,295.71 878.75,304.18 877.83,312.93C876.65,342.04 874.45,371.16 871.33,400.12C867.25,437.13 862.58,474.47 854.97,510.93C849.71,537.45 843.54,563.54 835.31,589.31C831.76,601.75 827.77,613.99 823.03,626.02C820.23,632.95 817.91,640.06 815.02,646.94C811.96,654.44 808.27,661.64 805.14,669.11C799.79,681.76 792.83,693.38 786.57,705.56C780.81,716.05 774.11,725.79 767.94,735.94C761.16,746.58 753.45,756.81 746.07,767.06C741.04,773.99 735.5,780.5 730.3,787.3C723.3,796.29 715.43,804.37 707.91,812.92C700.39,820.73 692.89,828.56 685.2,836.2C665.18,855.69 643.91,873.84 621.44,890.44C611.49,898.38 600.79,905.14 590.28,912.29C580.68,918.38 571.12,924.57 561.3,930.3C547.13,938.33 532.76,946.07 518.07,953.1C515.62,954.16 513.58,955.41 510.91,954.15C501.43,949.99 491.99,945.12 482.97,940.05C467.01,932.03 452.13,922.45 437.04,912.96C408.71,894.64 382.09,873.54 356.98,851.03C344.98,840.44 333.76,828.87 322.58,817.42C302.56,796.26 284.25,773.28 267.58,749.41C260.09,739.03 253.58,728.06 246.72,717.27C236.57,700.32 227.24,682.82 219.23,664.75C212.56,650.84 207.37,636.55 201.81,622.17C197.25,610.29 194.01,598.02 190.02,585.94C185.52,572.21 182.31,558.23 178.77,544.24C175.78,531.12 172.49,518.08 170.14,504.81C165.07,480.96 162.18,456.5 158.77,432.06C154.39,395.51 150.67,358.77 149.21,321.98C148.21,313.67 148.75,305.33 147.9,297.01C147.2,283.01 147.79,269 146.72,255.01C146.76,246.36 146.28,237.64 146.65,229.02C150.43,225.81 156,224.47 160.53,222.51C195.84,207.84 231.2,193.14 266.52,178.48C276.32,174.13 286.33,170.31 296.26,166.26C308.99,161.03 321.62,155.56 334.33,150.3C349.79,144.29 364.83,137.27 380.31,131.3C399.41,123.46 418.29,115.05 437.51,107.49C450.14,102.05 462.82,96.68 475.59,91.59C487.28,86.66 499.1,81.6 510.88,76.85C513.56,75.74 515.69,76.82 518.19,77.75Z" style="fill:rgb(255,215,0);fill-rule:nonzero;"/>
            <path d="M511,105.87C517.67,105.31 524.09,106.27 530.74,106.48C564.24,109.36 597.74,115.39 629.1,127.82C635.26,130.16 641.27,132.76 646.85,136.29C646.29,138.19 645.64,140.05 645.07,141.94C654.4,147.37 664.15,151.82 673.15,157.83C684.39,165.17 695.61,172.43 705.84,181.19C710.46,185.07 715.3,188.54 719.3,193.12C716.74,195.11 714.11,196.87 711.29,198.48C718.39,204.46 726.13,209.83 733.47,215.54C734.88,216.69 736.45,217.94 737.46,219.48C737.97,222.66 737.61,226.04 737.29,229.23C735.75,240.49 734.9,251.78 732.88,262.98C732.59,265.29 731.93,268.1 732.65,270.35C734.39,273.71 737.18,276.55 739.35,279.64C744.2,286.46 748.94,293.45 753.55,300.43C759.25,309.8 764.79,319.27 770.13,328.84C773.43,335.75 776.9,342.61 779.85,349.68C771.85,347.56 763.99,344.87 755.93,343.05C761,356.25 768.14,368.64 773.06,381.9C778.43,396.45 784.21,410.69 788.21,425.71C790.13,433.29 792.85,440.63 794.66,448.22C785.62,445.61 777.73,440.03 768.74,437.12C773.01,453.5 779.8,469.19 784.47,485.47C788.46,499.6 792.77,513.7 795.96,528.03C798.53,540.28 801.06,552.55 803.06,564.9C803.84,568.9 804.65,572.82 804.39,576.93C796.07,572.67 788.5,566.82 780.06,563.07C783.23,572.94 787.12,582.58 790.72,592.29C792.3,596.68 794.66,601.3 795.13,605.96C794.32,610.64 792.13,615.14 790.63,619.65C787.19,629.62 783.57,639.5 779,649.02C775.06,657.41 771.63,665.89 766.9,673.9C755.91,667.16 745.47,659.55 734.37,652.97C737.93,660.06 740.88,667.4 744.54,674.44C747.43,679.94 750.04,685.57 752.84,691.12C753.52,692.61 754.38,694.23 754.56,695.86C754.06,697.68 752.95,699.37 752,700.98C748.78,706.1 745.58,711.23 742.28,716.3C733.24,730.6 722.97,744.25 712.64,757.65C702.28,770.5 691.7,783.35 680.06,795.06C660.1,816.09 638.86,836.14 615.88,853.87C604.9,862.3 593.89,870.66 582.4,878.39C562.51,892.5 541.38,904.32 520.04,916.04C517.62,917.18 514.24,919.46 511.52,918.44C507.38,916.92 503.61,914.32 499.68,912.31C463.78,893.19 430.01,870.24 398.7,844.3C393.14,839.83 387.66,835.37 382.78,830.15C379.22,826.28 374.89,823.48 371.06,819.93C358.2,807.74 345.74,795.26 334.14,781.85C327.74,775.19 322.07,767.94 316.21,760.82C305.03,746.8 294.54,732.26 284.84,717.18C280.74,710.67 275.95,704.25 272.82,697.21C271.99,695.46 272.72,694.03 273.33,692.37C279,679.09 286.71,666.57 291.85,653.09C284.54,657.68 277.21,662.19 270.14,667.15C266.69,669.57 263.15,671.84 259.39,673.75C249,654.63 241.06,634.76 233.76,614.3C232.81,611.32 231.03,607.64 231.64,604.48C232.68,600.2 234.54,596.1 235.96,591.93C239.33,582.27 243.64,572.85 246.33,562.98C238.12,567.23 229.72,572.23 222.11,577.48C222.28,574.52 222.33,571.68 222.76,568.75C225.98,549.48 229.29,530.41 234.64,511.58C239.43,494.59 244.04,477.71 250.21,461.16C252.63,453.09 256.17,445.32 258.07,437.1C249.14,439.98 241.15,445.32 232.2,448.02C232.97,442.82 234.56,437.98 235.98,432.94C239.47,420.25 244.01,407.79 248.37,395.37C252.62,383.19 257.98,371.85 263.06,360.05C265.55,354.29 268.73,348.93 270.8,342.98C262.74,344.81 255.12,348.01 247.02,349.71C248.71,344.14 251.43,339.17 254,333.99C263.82,314.75 275.11,296.3 287.88,278.88C290.02,275.99 292.69,273.16 294.24,269.92C294.71,267.46 294.07,264.7 293.73,262.23C291.51,249.24 290.09,236.08 288.88,222.95C288.38,219.53 290.59,217.87 292.89,215.89C300.34,209.85 308.27,204.45 315.64,198.31C312.74,196.82 310.07,195.01 307.46,193.08C311.73,187.88 316.91,184.62 322.15,180.17C331.18,172.63 340.96,166.27 350.67,159.68C360.69,152.99 371.28,147.64 381.83,141.91C381.04,139.98 380.23,138.05 379.41,136.13C388.48,131.55 397.48,127.34 407.17,124.17C416.69,121.18 426.12,118.13 435.84,115.87C455.53,111.37 475.51,108.34 495.62,106.54C500.75,106.26 505.88,106.38 511,105.87Z" style="fill:rgb(0,100,0);fill-rule:nonzero;"/>
            <path d="M510,129.72C528.44,129.37 547.36,131.71 565.54,134.67C580.93,137.48 596.57,141.02 611.31,146.31C605.85,149.17 600.37,151.56 595.68,155.69C590.56,160.2 585.24,164.67 580.75,169.82C593.19,166.46 604.98,163.09 618,162.39C627.34,161.97 636.7,163.91 645.21,167.76C652.38,171.16 659.1,175.81 665.44,180.56C670.15,184.21 674.94,187.65 679.11,191.94C671.73,191.58 664.35,190.85 656.97,190.35C671.79,202.56 687.83,213.3 703.2,224.79C706.22,227.22 709.32,229.95 709.56,234.09C710.5,246.49 707.36,258.37 704,270.13C703.66,272 702.51,274.35 704,275.96C710.03,284.18 717.44,291.38 723.25,299.76C728.25,307.11 733.29,313.74 737.4,321.5C727.26,319.49 717.22,317.05 706.97,315.55C722.37,337.1 736.31,359.82 746.84,384.16C749.99,391.43 753.57,398.76 756.22,406.2C740.03,391.32 724.36,376.9 703.9,367.98C706.2,372.64 708.86,377.12 711.26,381.74C722.72,403.07 732.64,425.25 740.96,447.99C746.1,461.74 751.34,475.4 755.46,489.51C758.92,501.67 763.33,513.81 765.88,526.19C759.92,517.16 754.44,507.71 748.02,498.98C741.66,490.35 735.25,481.95 727.62,474.38C722.67,469.51 718.04,464.72 712.39,460.64C712.7,462 713.02,463.35 713.35,464.7C715.69,485.47 718.79,506.07 719.79,526.98C720.8,537.31 720.43,547.66 721.12,558C721.54,567.84 720.96,577.46 720.35,587.29C711.2,576.29 701.65,565.77 690.37,556.88L690.08,556.62L689.93,556.5L689.69,556.3C689.08,565.2 687.15,574.03 685.72,582.84C682.07,604.95 676.12,626.55 668.69,647.67C667.87,650.07 666.83,652.28 665.41,654.38C662.47,641.56 658.16,628.96 653.2,616.78C648.8,606.51 642.96,596.12 636.63,586.91C635.56,607.54 631.4,627.71 622.38,646.38C618.01,656.51 611.97,665.08 605.86,674.33C599.42,656.15 589.15,639.18 575.81,625.22C573.17,630.46 570.74,635.77 567.94,640.95C553.49,668.43 534.31,691.64 513.31,714.31C510.89,711.52 508.49,708.72 505.95,706.03C495.72,695.15 486.3,683.57 477.52,671.49C467.25,656.94 458.24,641.32 450.69,625.2C447.55,628.31 444.76,631.58 442.18,635.17C433.46,647.05 425.3,660.14 420.71,674.22C417.57,670.2 415.24,665.87 412.43,661.57C405.74,651.26 400.75,639.68 396.98,628.01C392.64,614.58 390.95,600.9 390.14,586.87C383.28,596.76 377.23,607.48 372.62,618.61C367.99,630.59 363.71,642.66 360.88,655.22C357.45,647.5 355.02,639.53 352.52,631.48C344.72,607.27 340.18,581.45 336.72,556.28C336.28,556.61 335.85,556.94 335.42,557.29C324.61,566.74 314.52,577.14 305.46,588.28C305.32,571.27 304.78,553.97 306.2,537C307.13,511.87 310.55,487.49 313.75,462.82L314.01,460.85C291.77,477.82 274.84,503.44 260.21,526.95C267,500.01 275.77,473.51 285.67,447.56C292,431.78 298.06,415.98 305.87,400.85C311.04,389.54 317.05,378.71 322.92,367.75C317.95,370.02 313.27,372.77 308.59,375.58C294.19,384.02 282.45,395.32 270.37,406.32C277.77,386.33 287.15,367.21 297.71,348.71C304.44,337.33 312.13,326.59 319.45,315.61C309.16,317.18 298.96,319.22 288.9,321.86C296.1,309.2 304.78,297.31 314.24,286.24C317.07,282.72 320.37,279.45 322.82,275.65C324.03,273.95 323.04,272.13 322.7,270.28C320.05,260.44 317.04,251.36 317.1,241C317.2,236.74 316.58,231.18 320,228C325.07,222.81 331.8,218.97 337.58,214.58C348.35,206.44 359.47,198.85 369.86,190.22C362.48,190.87 355.09,191.48 347.69,191.9C353.3,186.39 359.57,181.52 366,177C375.12,170.39 384.88,165.15 396.13,163.31C413.28,160.15 429.94,165.49 446.26,170.05C442.36,165.25 437.59,161.13 432.97,157.04C427.69,152.46 421.57,149.63 415.58,146.19C429.23,141.48 443.34,137.99 457.55,135.5C474.86,132.33 492.42,130.36 510,129.72Z" style="fill:white;fill-rule:nonzero;"/>
            <path d="M467.8,234.26C479.74,242.98 490.12,254.19 499.19,265.82C503.83,271.64 508.69,277.27 513.25,283.15C524.76,270.09 535.1,254.61 548.25,243.24C551.47,240.32 554.61,237.12 558.17,234.71C555.03,240.95 551.14,246.78 548.07,253.07C542.01,265.45 536.2,279.12 534.88,292.96C534.66,297.16 533.98,301.61 536.86,305.1C542.18,311.8 547.73,318.18 554.71,323.21C552.31,315.31 550.97,307.28 551.17,299C555.24,306.2 559.02,313.1 565.57,318.42C569.08,321.29 574.11,324.6 578.83,322.93C584,321.34 588.49,316.99 592.02,313.02C597.61,306.18 601.94,298.36 607.37,291.37C611.78,285.74 616.2,279.06 621.85,274.63C619.11,282.99 615.39,290.79 613.62,299.5C623.26,292.62 631.5,283.99 640.96,276.95C647.71,272.06 654.2,266.82 661.03,262.03C668.96,256.41 674.9,249.29 680.81,241.69C680.45,253.36 676.67,264.7 671.2,274.94C676.7,275.78 681.99,277.25 686.73,280.26C693.48,284.37 698.15,289.99 703.4,295.72C696.92,295.75 689.71,294.22 683.87,297.84C678.15,301.22 676.24,307.11 673.91,312.94C669.3,324.96 665.76,337.01 656.21,346.2C649.97,352.54 642.66,356.39 634.03,358.42C646.48,360.76 658.95,358.35 670.44,353.38C673.37,352.06 676.18,350.53 679.06,349.11C666.42,367.01 644.64,376.72 622.96,376.17C615.07,375.84 607.67,374.02 600.09,372.02C607.05,378.58 614.42,385.42 622.56,390.44C629.75,394.89 636.9,399.09 644.77,402.23C651.74,405.09 658.32,407.98 664.22,412.77C669.75,417.26 673.8,423.45 677.62,429.38C680.92,434.61 684.39,439.26 686.61,445.1C678.33,445.04 670.51,444.57 662.31,446.39C653.5,448.17 645.22,451.31 637.1,455.1C623.7,461.85 610.92,470.51 600.28,481.13C609.9,483.64 619.29,486.25 628.21,490.77C636.34,494.95 644.39,499.73 651.43,505.59C662.03,514.82 671.59,524.9 678.74,537.09C677.42,536.79 676.11,536.46 674.81,536.11C665.89,529.85 655.46,525.61 645.39,521.57C630.21,516.37 613.36,511.77 597.21,512.21C601.98,525.85 605.98,539.44 606.74,553.97C607.67,560.97 607.47,567.99 608.17,574.99C608.85,581.88 607.53,588.29 607.17,595.17C606.55,599.97 605.63,604.7 604.83,609.46C602.63,604.33 601.47,598.86 599.3,593.72C595.63,585.25 592,576.96 586.61,569.39C582.72,563.88 578.87,558.03 574.11,553.24C570.46,558.85 568.11,564.92 564.71,570.72C562.62,574.46 560,577.81 557.76,581.45C549.4,596.82 537.79,610.09 530.05,626.01C526.2,631.85 523.33,638.06 520.37,644.38C517.51,650.58 515.27,657.02 514.29,663.8C514.09,664.87 513.87,665.93 513.65,667C511.46,654.07 505.71,643.15 500.36,631.36C498.04,626.21 494.69,622 491.81,617.19C488.06,611 484.11,604.95 480.01,598.99C474.36,590.89 469.29,582.38 463.97,574.03C459.56,567.16 457.66,559.72 452.66,553.32C448.19,556.14 446.25,560.7 442.97,564.97C437.23,572.53 432.82,581.31 428.92,589.94C426.8,595.73 424.16,601.7 423.35,607.83C424.01,608.52 425.11,608.73 425.99,609.07C424.8,610.27 423.66,611.51 422.54,612.76C421.21,604.9 419.81,597.09 418.75,589.18C418.09,574.31 419.17,559.64 420.8,544.86C422.08,533.48 425.96,523.1 429.05,512.17C419.75,512.01 410.64,513.49 401.61,515.6C391.11,518.32 380.78,521.34 370.9,525.89C364.31,529.03 357.86,531.6 351.93,535.94C350.59,536.37 349.23,536.76 347.87,537.13C355.43,524.58 365.3,513.9 376.5,504.51C381.57,500.31 387.11,497.09 392.77,493.78C403.26,487.86 414.58,484.23 426.27,481.56C420.35,473.95 411.17,468.19 403.29,462.72C387.94,453.01 369.36,445.29 351,444.96C347.32,444.86 343.64,445.18 339.96,445.1C344.4,435.72 350.39,426.95 356.79,418.8C363.2,410.3 373.16,405.62 382.82,401.82C388.95,399.57 394.22,396.18 399.97,392.97C410.05,387.28 418.62,380 426.84,371.92C420.86,373.62 414.89,375.19 408.67,375.76C385.46,378.42 361.62,368.08 347.63,349.38C351.09,350.93 354.45,352.7 357.97,354.11C368.66,358.36 380.57,360.83 392.02,358.64C385.24,356.19 378.75,353.6 373.28,348.73C366.14,343.01 361.44,335.36 358.09,326.95C354.73,319.51 352.82,311.27 348.82,304.22C346.13,299.48 341.62,295.95 336.06,295.51C331.94,295.25 327.77,295.49 323.64,295.67C328.21,290.45 332.55,285.28 338.39,281.39C343.61,277.67 349.41,275.66 355.77,275.04C349.61,264.59 346.87,253.05 345.44,241.1C350.41,247.28 355.2,253.56 361.4,258.62C372.57,267.45 384.41,275.51 395.28,284.72C401.19,289.88 407.12,295.03 413.2,299.99C411.16,291.25 407.71,283.06 404.91,274.59C410.09,278.81 414.09,284.58 418.16,289.85C424.27,297.77 429.31,306.6 435.75,314.25C439.42,318.17 444.5,322.68 449.99,323.45C455.1,323.86 459.93,319.69 463.47,316.45C468.97,311.39 471.76,305.13 475.57,298.9C475.37,307.14 474.23,315.23 472.04,323.17C478.46,318.55 483.66,312.73 488.65,306.65C489.91,304.97 491.39,303.26 491.56,301.07C492.24,294.01 491.15,286.63 489.21,279.83C485.77,267.84 480.73,256.36 474.39,245.62C472.22,241.83 469.73,238.16 467.8,234.26Z" style="fill:rgb(0,100,0);fill-rule:nonzero;"/>
            <path d="M703.4,295.72C704.49,296.78 705.63,297.78 706.76,298.78C703.06,301.41 699.49,304.05 696.64,307.63C688.21,317.59 686.19,331.36 678.52,342.52C676.19,346.5 672.23,349.21 670.44,353.38C658.95,358.35 646.48,360.76 634.03,358.42C642.66,356.39 649.97,352.54 656.21,346.2C665.76,337.01 669.3,324.96 673.91,312.94C676.24,307.11 678.15,301.22 683.87,297.84C689.71,294.22 696.92,295.75 703.4,295.72Z" style="fill:rgb(255,215,0);fill-rule:nonzero;"/>
            <path d="M323.64,295.67C327.77,295.49 331.94,295.25 336.06,295.51C341.62,295.95 346.13,299.48 348.82,304.22C352.82,311.27 354.73,319.51 358.09,326.95C361.44,335.36 366.14,343.01 373.28,348.73C378.75,353.6 385.24,356.19 392.02,358.64C380.57,360.83 368.66,358.36 357.97,354.11C353.22,349.32 348.72,344.47 345.46,338.5C340.04,329.28 338.35,319.06 332.34,310.65C329.08,305.89 324.82,302.11 320.09,298.87C321.27,297.79 322.46,296.74 323.64,295.67Z" style="fill:rgb(255,215,0);fill-rule:nonzero;"/>
            <path d="M379.38,297.22C382.73,298.09 385.42,301.32 388.04,303.48C386.06,305.7 384.08,307.71 384.62,310.96C384.99,313.41 387.78,315.01 389.56,316.48C390.73,320.24 391.52,323.72 394.33,326.67C397.56,330.31 402.21,332.07 407,332.24C411.21,332.06 414.41,329.58 418.13,328.35C421.68,328.86 425.09,332.12 428.08,334.03C419.14,342.96 405.22,346.57 393.4,341.61C384.89,338.01 378.33,329.78 375.91,320.95C374.27,313.02 375.64,304.39 379.38,297.22Z" style="fill:rgb(255,215,0);fill-rule:nonzero;"/>
            <path d="M647,296.94C649.78,301.78 651.17,307.43 651.46,312.97C652.06,328.45 638.79,343.68 623,343.7C613.92,344.18 605.32,340.33 598.85,334.11C601.33,331.91 604.45,328.57 607.92,328.29C610.53,328.55 613,330.48 615.51,331.31C621.72,333.8 628.96,331.08 632.94,325.96C634.99,323.31 635.94,319.6 637.03,316.45C639.23,314.61 642.12,313.21 642.3,309.99C642.37,306.94 640.49,305.25 638.19,303.63C641.07,301.29 643.79,298.84 647,296.94Z" style="fill:rgb(255,215,0);fill-rule:nonzero;"/>
            <path d="M388.04,303.48C391.51,306.12 394.81,308.94 397.89,312.02C395.56,314.85 393,315.64 389.56,316.48C387.78,315.01 384.99,313.41 384.62,310.96C384.08,307.71 386.06,305.7 388.04,303.48Z" style="fill:white;fill-rule:nonzero;"/>
            <path d="M638.19,303.63C640.49,305.25 642.37,306.94 642.3,309.99C642.12,313.21 639.23,314.61 637.03,316.45C633.52,315.66 631.09,314.82 628.7,312.01C631.71,309.05 634.83,306.2 638.19,303.63Z" style="fill:white;fill-rule:nonzero;"/>
            <path d="M516.54,320.53C523.54,322.94 530.29,326.43 536.45,330.52C545.53,336.49 553.95,342.06 558.76,352.23C564.52,363.79 561.47,376.56 567.97,387.03C571.65,392.76 576.83,397.62 581.9,402.11C586.52,406.32 592.4,405.74 598.27,406.64C610.12,408.28 622.04,410.21 633.59,413.36C637.32,414.52 641.7,415.51 643.88,419.09C646.81,423.79 649.05,428.99 650.83,434.23C643.91,435.43 637.01,436.32 630.23,438.23C618.82,441.05 608.28,445.77 597.65,450.67C589.06,454.73 581.55,460.16 573.6,465.6C568.78,468.87 564.81,473.04 559.85,476.09C561.95,468.69 566.01,461.7 570.41,455.43C575.08,448.72 581.52,445.4 588.32,441.32C597.67,435.75 607.77,432.36 618.06,429.02C623.35,427.24 628.84,426.6 634.04,424.48C630.04,423.66 626.08,423.35 621.99,423.34C616.85,423.32 611.18,422.95 606.17,424.15C594.6,426.9 584.41,431.95 574.09,437.68C575.11,434.21 576.05,430.72 576.85,427.19C564.96,438.3 556.02,452.89 549.92,467.89C540.06,490.58 531.21,513.68 521.38,536.38C518.85,542.44 516.65,548.52 513.21,554.16C508.97,546.24 505.95,537.88 502.33,529.69C497.46,518.44 493.17,506.95 488.28,495.71C484.84,487.75 481.95,479.55 478.29,471.7C474.75,464.18 471.92,456.58 467.54,449.45C462.32,440.97 456.56,432.95 449.1,426.27C450.49,430.13 451.81,434.02 452.91,437.97C444.82,433.3 436.7,428.97 427.72,426.27C416.41,421.94 403.79,422.93 392.05,424.67C407.84,428.51 423.76,432.93 437.94,441.06C443.73,444.45 450.59,447.89 454.66,453.35C460.07,460.61 464.28,468.61 467.46,477.08C452.44,464.51 435.33,452.01 416.84,445.19C411,442.83 405.22,440.46 399.1,438.89C391.53,436.71 383.71,435.9 376.11,433.86C377.9,428.53 380.12,422.98 383.44,418.43C385.47,415.72 388.8,414.8 391.87,413.82C404.63,410.22 417.47,408.35 430.56,406.48C434.65,405.86 439.9,405.76 443.33,403.28C446.39,401.15 449.01,398.27 451.61,395.61C455.36,391.72 458.66,387.73 460.61,382.62C464.21,373.35 463.32,363.91 466.78,354.81C469.14,348 473.76,342.75 479.24,338.24C486.9,332.11 495.66,326.63 504.58,322.55C508.49,320.94 512.25,318.95 516.54,320.53Z" style="fill:rgb(255,215,0);fill-rule:nonzero;"/>
            <path d="M513.51,322.11C515.7,331.61 516.86,341.29 517.37,351.02C517.52,353.29 517.07,355.41 516.41,357.57C515.34,356.67 514.25,355.8 513.13,354.97C511.71,356.09 510.33,357.25 508.97,358.44C508.51,347.22 509.68,335.8 512.07,324.83C512.33,323.68 512.5,322.82 513.51,322.11Z" style="fill:white;fill-rule:nonzero;"/>
            <path d="M513.13,354.97C514.25,355.8 515.34,356.67 516.41,357.57C528.46,369.37 539.33,383.46 545.59,399.23C535.89,391.85 528.38,382.39 517.89,375.89C516.33,374.75 514.81,373.57 513.21,372.49C511.37,373.9 509.55,375.33 507.68,376.7C497.78,383.16 489.29,392.31 480.49,400.16C485.28,389.16 491.56,378.52 499.41,369.42C502.55,365.74 505.58,361.9 508.97,358.44C510.33,357.25 511.71,356.09 513.13,354.97Z" style="fill:rgb(0,100,0);fill-rule:nonzero;"/>
            <path d="M484.85,360.22C485.78,362.37 484.8,365.14 484.17,367.27C482.06,372.81 479.23,377.86 473.52,380.28C474.5,376.21 475.6,372.29 475.41,368.05C475.53,365.37 475.07,361.88 476.46,359.5C477.96,356.3 484.09,356.53 484.85,360.22Z" style="fill:rgb(0,100,0);fill-rule:nonzero;"/>
            <path d="M545.06,357.41C548.1,357.45 550.8,358.68 551.13,362.01C551.59,368.12 551.22,374.05 552.65,380.1C550.35,378.83 548.19,377.56 546.69,375.31C543.98,371.53 541.53,366.72 541.46,362C541.31,359.99 543.31,358.07 545.06,357.41Z" style="fill:rgb(0,100,0);fill-rule:nonzero;"/>
            <path d="M513.21,372.49C514.81,373.57 516.33,374.75 517.89,375.89C517.4,393.58 517.87,411.31 517.14,429C516.4,438.31 516.78,447.65 516.07,456.96C515.45,464.6 515.74,472.31 515.06,479.99C514.39,486.98 514.6,494 513.97,501C513.46,507.04 513.71,513.09 513.12,519.12C512.12,514.75 512.51,510.42 512.04,506C511.21,498.35 511.6,490.66 510.78,483C510.3,468.32 509.29,453.7 509.28,439C508.47,425.01 508.51,411.01 508.31,397C508.19,390.15 508.65,383.51 507.68,376.7C509.55,375.33 511.37,373.9 513.21,372.49Z" style="fill:white;fill-rule:nonzero;"/>
            <path d="M313.75,462.82C310.55,487.49 307.13,511.87 306.2,537C304.78,553.97 305.32,571.27 305.46,588.28C295.39,600.97 286.57,614.79 277.27,628.06C276.7,623.72 276.51,619.37 276.94,615.01C277.6,609 277.3,602.99 278.08,597C279.36,584.82 281.79,573.01 283.86,560.97C285.61,551.12 287.97,541.36 290.63,531.73C293.96,518.98 297.63,506.31 301.74,493.79C305.36,483.31 309.44,473.03 313.75,462.82Z" style="fill:rgb(255,215,0);fill-rule:nonzero;"/>
            <path d="M713.35,464.7C718.86,475.18 722.68,486.65 726.13,497.95C734.63,524.32 741.52,550.96 745.67,578.38C747.25,588.24 748.66,598.06 749.33,608.03C749.55,614.96 749.46,621.89 749.59,628.82C740.04,614.82 730.85,600.62 720.35,587.29C720.96,577.46 721.54,567.84 721.12,558C720.43,547.66 720.8,537.31 719.79,526.98C718.79,506.07 715.69,485.47 713.35,464.7Z" style="fill:rgb(255,215,0);fill-rule:nonzero;"/>
            <path d="M429.05,512.17C425.96,523.1 422.08,533.48 420.8,544.86C419.17,559.64 418.09,574.31 418.75,589.18C414.74,569.01 412.54,548.62 410.76,528.16C391.44,528.11 370.94,532.85 351.93,535.94C357.86,531.6 364.31,529.03 370.9,525.89C380.78,521.34 391.11,518.32 401.61,515.6C410.64,513.49 419.75,512.01 429.05,512.17Z" style="fill:rgb(255,215,0);fill-rule:nonzero;"/>
            <path d="M597.21,512.21C613.36,511.77 630.21,516.37 645.39,521.57C655.46,525.61 665.89,529.85 674.81,536.11C655.34,532.31 635.74,528.43 615.9,527.85C614.71,541.08 613.36,554.29 611.57,567.45C610.54,576.77 608.3,585.87 607.17,595.17C607.53,588.29 608.85,581.88 608.17,574.99C607.47,567.99 607.67,560.97 606.74,553.97C605.98,539.44 601.98,525.85 597.21,512.21Z" style="fill:rgb(255,215,0);fill-rule:nonzero;"/>
            <path d="M452.66,553.32C457.66,559.72 459.56,567.16 463.97,574.03C469.29,582.38 474.36,590.89 480.01,598.99C484.11,604.95 488.06,611 491.81,617.19C494.69,622 498.04,626.21 500.36,631.36C505.71,643.15 511.46,654.07 513.65,667C513.87,665.93 514.09,664.87 514.29,663.8C514.55,671.69 514.36,679.4 513.21,687.23C508.81,683.36 505.6,678.67 501.66,674.35C487.56,657.83 474.52,640.5 462.77,622.22C455.72,612.23 450.05,601.49 443.69,591.09C437.26,596.42 431.95,603.18 425.99,609.07C425.11,608.73 424.01,608.52 423.35,607.83C424.16,601.7 426.8,595.73 428.92,589.94C432.82,581.31 437.23,572.53 442.97,564.97C446.25,560.7 448.19,556.14 452.66,553.32Z" style="fill:rgb(255,215,0);fill-rule:nonzero;"/>
            <path d="M574.11,553.24C578.87,558.03 582.72,563.88 586.61,569.39C592,576.96 595.63,585.25 599.3,593.72C601.47,598.86 602.63,604.33 604.83,609.46C604.71,610.65 604.57,611.82 604.43,613C601.88,610.71 599.56,608.24 597.39,605.59C592.86,600.07 587.73,595.4 582.82,590.18C578.7,585.82 574.47,581.59 569.88,577.72C567.47,580.09 565.29,582.58 563.3,585.31C558.5,591.79 553.44,598.05 548.21,604.19C542.36,611.64 536.26,618.86 530.05,626.01C537.79,610.09 549.4,596.82 557.76,581.45C560,577.81 562.62,574.46 564.71,570.72C568.11,564.92 570.46,558.85 574.11,553.24Z" style="fill:rgb(255,215,0);fill-rule:nonzero;"/>
            <path d="M336.72,556.28C340.18,581.45 344.72,607.27 352.52,631.48C355.02,639.53 357.45,647.5 360.88,655.22C358.08,666.9 356.72,678.68 355.59,690.63C354.86,703.44 355.81,716.24 354.55,729.04C349.34,719.83 345.88,709.4 342.65,699.35C336.24,679.58 332.56,658.69 330.66,638.02C330.36,628.98 329.29,620.06 329.64,611C330.15,595.9 331.74,580.63 334.98,565.85C335.64,562.99 336.03,560.19 335.42,557.29C335.85,556.94 336.28,556.61 336.72,556.28Z" style="fill:rgb(255,215,0);fill-rule:nonzero;"/>
            <path d="M689.69,556.3L689.93,556.5L690.08,556.62L690.37,556.88C690.76,562.34 692.43,567.52 693.1,572.96C694.28,582.26 695.86,591.64 696.36,601C696.6,610.99 696.64,621.02 696.32,631C695.39,643.88 693.74,656.73 691.49,669.45C689.16,682.68 685.33,695.38 681.11,708.11C678.5,715.64 675.43,723.09 671.57,730.07C671.45,720.38 671.74,710.69 671.51,701C670.88,685.25 668.87,669.76 665.41,654.38C666.83,652.28 667.87,650.07 668.69,647.67C676.12,626.55 682.07,604.95 685.72,582.84C687.15,574.03 689.08,565.2 689.69,556.3Z" style="fill:rgb(255,215,0);fill-rule:nonzero;"/>
            <path d="M588.61,697.22C591.83,713.34 593.81,729.47 596.46,745.69C596.85,748.4 597.55,751.28 597.36,754.01C596.64,757.35 595.01,760.54 593.77,763.72C588.82,776.06 582.78,787.82 576.56,799.56C562.28,826.28 542.67,851.02 522.72,873.71C519.69,877.3 516.59,880.81 513.11,883.98C509.86,880.85 506.84,877.5 503.87,874.1C490.47,858.59 476.7,842.6 465.69,825.29C461.3,818.7 456.63,812.04 452.88,805.09C445.5,791.64 438.54,778.24 433.01,763.93C431.36,759.5 428.73,755.6 429.51,750.74C431.09,740.21 432.61,729.74 434.22,719.23C435.31,711.99 435.99,704.95 437.79,697.84C440.47,701.65 442.01,705.91 443.93,710.11C450.01,722.4 456.49,734.44 464.22,745.78C477,765.55 492.97,783.8 509.24,800.77C510.47,801.89 512.04,803.8 513.83,803.77C516.67,801.8 518.81,798.7 521.24,796.25C529.09,788.42 536.1,779.75 543.35,771.37C556.39,755.61 567.71,738.36 577.25,720.27C581.4,712.76 584.73,704.86 588.61,697.22Z" style="fill:white;fill-rule:nonzero;"/>
        </g>
    </g>
</svg>
