<?xml version="1.0" encoding="UTF-8" standalone="no"?>
<!DOCTYPE svg PUBLIC "-//W3C//DTD SVG 1.1//EN" "http://www.w3.org/Graphics/SVG/1.1/DTD/svg11.dtd">
<svg width="100%" height="100%" viewBox="0 0 887 992" version="1.1" xmlns="http://www.w3.org/2000/svg" xmlns:xlink="http://www.w3.org/1999/xlink" xml:space="preserve" xmlns:serif="http://www.serif.com/" style="fill-rule:evenodd;clip-rule:evenodd;stroke-linejoin:round;stroke-miterlimit:2;">
    <g transform="matrix(1,0,0,1,-68.58,-19.25)">
        <g>
            <path d="M394.98,19.25C398.39,19.31 401.87,21.48 404.55,23.44C409.14,26.89 413.72,30.21 417.73,34.27C421.94,38.47 425.56,43.12 429.15,47.86C436.44,57.06 443.19,66.76 449.03,76.95C453.89,86.06 458.96,95.06 463.87,104.14C472.88,123 479.76,143.65 486.4,163.51C491.54,177.42 496.3,192.7 502.94,206.06C507.26,213.62 510.54,222.96 517,228.89C520.38,222.25 520.7,213.85 521.6,206.55C525.8,214.14 527.89,223.26 532.54,230.49C534.72,233.82 538.71,233.96 542.29,234.3C555.07,235.06 568.26,236.68 581.02,236.06C583.57,235.92 585.28,234.77 586.71,232.72C592.71,224.29 597.93,215.35 603.88,206.87C609.47,199.04 614.54,190.88 619.9,182.89C626.71,173.35 633.54,163.83 640.15,154.16C646.9,144.1 653.7,134.88 658.72,123.73C664.41,110.34 670.01,96.91 675.43,83.41C677.19,79.15 678.05,75.12 681.94,72.19C685.49,74.2 687.01,76.98 688.2,80.74C694.8,103.42 700.21,126.3 703.55,149.69C705.99,164.76 706.92,179.78 708.27,194.95C709.16,210.88 707.98,227.08 707.07,243C706.54,252.35 704.6,261.7 704.42,271.06C705.26,279.68 710.81,284.74 717.08,289.9C722.52,294.46 727.66,299.34 733.16,303.82C741.21,310.43 748.1,318.2 755.47,325.54C759.16,329.23 762.94,332.68 766.29,336.72C769.71,340.74 772.59,345.08 775.57,349.43C780.24,356.38 785.2,363.46 789.19,370.83C790.2,372.43 789.96,373.9 789.54,375.64C787.62,383.11 785.99,391.31 786.74,399.03C787.54,404.26 792.45,407.79 796.67,410.33C808.49,416.85 820.59,423.86 832.98,429.17C839.99,432.41 846.79,436.06 853.9,439.1C865.07,443.8 876.13,448.65 887.02,453.98C902.27,460.42 916.44,468.8 930.41,477.59C934.69,480.61 938.98,483.67 943.1,486.89C948.96,491.42 953.81,498.08 955.56,505.33C955.77,510.59 954.01,516.12 951.9,520.9C949.85,525.32 946.24,527.64 943.05,531.03C941.68,533.53 941.54,536.74 940.45,539.42C939.16,543.56 936.68,546.82 934.46,550.47C931.34,555.56 930.84,560.94 928.42,566.42C925.35,573.31 921.83,580.09 916.71,585.7C912.76,590.19 907.54,593.04 901.96,595C900.37,595.71 898.49,595.95 897.58,597.56C893.4,603.76 891.1,610.46 886.31,616.31C878.96,625.52 868.3,632.96 856.56,635.05C856.54,626.42 856.04,617.59 857.31,609.03C853.02,609.77 850.98,609.76 846.93,608.14C843.1,609.38 840.56,612.75 835.99,612.85C833.64,613 832.05,611.56 830.12,610.46C821.85,623.04 807.83,632.65 792.83,634.77C792.37,628.77 792.71,622.79 793.51,616.84C794.61,608.82 794.62,600.49 794.56,592.39C789.77,595.12 784.03,598.23 778.32,597.55C774.61,597 773.56,591.75 772.17,588.89C769.51,590.03 765.87,590.69 763.95,592.93C760.98,596.08 757.91,599.86 756.56,604.02C756.96,605.74 758.26,607.33 759.3,608.72C764.53,615.36 769.19,622.44 773.03,629.97C777.2,638.09 782.71,645.41 789.77,651.24C800.03,659.83 809.84,667.98 817.8,678.89C822.44,675.47 827.29,672.36 831.97,668.98C835.61,666.33 838.84,663.22 842.4,660.42C846.31,670.13 846.23,681.74 843.73,691.79C842.31,697.94 838.91,703.19 836.84,709.04C837.1,712.05 837.85,714.94 837.74,718C837.48,724.23 835.21,729.76 832.09,735.06C830.23,738.2 828.73,741.64 826.57,744.57C825.46,746.21 823.13,746.63 821.36,747.31C813.01,750.01 805.38,753.28 796.81,754.59C784.62,756.45 772.01,756.21 760.09,752.91C747.76,749.6 737.13,743.96 725.88,738.11C704.89,726.66 684.19,714.83 661,708.03C649.3,704.95 637.06,703.36 624.97,703.19C614.48,703.3 605.37,706.08 597,712.47C605.01,710.87 612.86,710.3 621.01,710.8C629.56,711.06 638.1,714.24 645.71,717.95C642.39,723.57 638.9,728.63 637.14,735.06C636.22,738.68 635.79,742.44 635.46,746.17C635.04,757.31 638.09,768.08 639.07,778.76C633.58,777.26 629.84,773.76 625.24,770.71C626.81,779.74 627.91,788.86 628.54,798.01C630.14,814.74 630.82,831.26 628.92,848C628.19,860.89 625.7,873.48 621.75,885.76C617.16,900.27 611.98,915.84 603.61,928.63C602.71,918.34 604.62,908.58 600.29,898.77C594.44,913.77 587.15,928.13 579,942C568.45,958.72 556.36,974.42 543.01,989C536.33,996.37 529.68,1003.94 522.29,1010.6C512.4,999.51 503.85,987.18 493.65,976.36C484.84,966.49 475.23,957.44 465.38,948.63C443.62,930.43 421.44,912.07 396.33,898.66C377.95,887.62 357.96,878.9 338.8,869.25C331.45,866.04 324.55,861.97 317.21,858.77C312.24,856.53 307.52,853.59 302.4,851.75C306.61,860.2 312.86,867.94 318.59,875.42C326.14,885.12 335.19,893.26 343.49,902.2C327.68,898.11 312.46,891.03 297.46,884.63C283.91,878.95 270.95,872.1 258.21,864.8C247.66,859.22 237.5,853.02 227.53,846.47C209.12,835 191.72,821.98 175.99,807.02C158.02,790.96 141.59,772.95 127.96,753.03C120.08,742.05 113.57,730.22 105.88,719.11C93.42,719.8 81.08,720.88 68.58,720.1C74.22,714.55 80.61,709.78 86.58,704.59C97.06,695.49 107.78,686.42 117.41,676.41C124.05,669.71 130.13,662.37 135.96,654.96C142.39,646.85 148.38,638.45 153.35,629.35C162.61,611.96 169.65,593.07 178.29,575.19C183.44,564.05 188.29,552.76 193.89,541.84C205.93,516.74 219.97,492.77 236,470C250.39,451.12 265.51,432.81 280,414C283.47,409.49 287.13,405.16 290.83,400.84C297.8,391.38 305.77,383.05 313.74,374.42C317.84,378.8 321.88,383.9 326.89,387.15C322.22,371.79 316.14,358.81 313.48,343.31C311.38,327.83 310.63,312.34 312.47,296.78C315.3,302.24 317.47,307.76 321.62,312.44C322.3,298.35 320.71,284.1 321.51,269.98C321.78,262.88 322.94,255.92 323.44,248.84C324.13,239.83 326.12,231.2 328.42,222.47C331.43,210.9 336.41,200.05 339.56,188.52C345.76,169.69 350.97,150.51 355.1,131.12C357.74,116.19 361.83,101.59 364.58,86.69C366.41,77.62 368.31,68.55 370.56,59.57C374.07,46.95 379.62,34.98 387.49,24.49C389.39,22.21 391.8,19.43 394.98,19.25Z" style="fill:rgb(1,1,1);fill-rule:nonzero;"/>
            <path d="M403.79,50.19C409.53,54.34 414.32,59.99 418.01,66C421.85,72.02 425.31,78.24 427.96,84.87C424.17,81.73 420.72,78.21 417.02,74.98C413.59,72.21 409.23,69.5 404.63,70.62C401.05,71.76 398.24,75.36 396.64,78.62C393.65,84.84 392.19,92.18 390.88,98.92C386.57,121.33 383.09,143.91 379.41,166.43C376.14,185.13 372.47,202.86 372.58,222C372.21,237.66 375.19,253.67 379.34,268.74C381.81,278.02 385.92,286.6 388.06,295.96C389.66,302.87 391,309.84 392.24,316.82C393.88,325.59 393.35,335.05 393.37,344.03C393.37,350.6 391.06,356.47 387.59,361.94C386.45,357.66 385.49,353.16 383.91,349.03C381.23,342.25 377.59,335.95 373.3,330.06C378.23,342.64 381.56,356.35 381.82,369.89C378.36,364.78 375.06,359.7 370.77,355.23C364.93,349.09 358.57,343.39 352.25,337.75C348.59,334.44 345.72,330.43 344.38,325.63C343.37,322.12 343.51,318.63 343.45,315C343.37,308.97 343.39,302.97 344.05,296.97C344.74,290.57 344.31,284.19 345.37,277.83C353.78,286.72 355.94,297.14 361.49,307.47C362.15,307.53 362.82,307.61 363.47,307.7C365.96,299.62 366.35,291.11 365.2,282.77C362.51,269.21 358.2,256.29 355.06,242.87C353.61,236.69 353.04,230.3 352.9,223.97C353.76,208.34 357.34,192.99 360.62,177.71C363.25,166.2 366.63,154.85 369.33,143.35C372.32,130.1 374.78,116.73 377.38,103.4C380.13,90.44 383.48,77.6 386.69,64.75C388.23,58.67 390.87,52.71 396.16,49.02C398.72,47.57 401.57,48.59 403.79,50.19Z" style="fill:rgb(143,0,24);fill-rule:nonzero;"/>
            <path d="M673.75,137.89C673.81,154.96 670.54,172.04 669.27,189.06C668.26,195.96 668.89,202.91 667.91,209.81C667.45,213.51 667.56,217.19 667.84,220.89C671.82,216.24 675.25,211.28 679.77,207.1C678.37,216.79 676.36,226.38 675.45,236.16C675.13,239.73 674.58,243.29 674.08,246.83C667.42,243.21 660.53,239.86 654.13,235.8C654.15,227.71 656.14,220.05 656.91,211.99C658.53,197.88 661.14,183.95 663.92,170.03C666,158.91 669.22,148.26 673.75,137.89Z" style="fill:rgb(143,0,24);fill-rule:nonzero;"/>
            <path d="M454.14,144.05C462.21,161.41 467.58,179.72 471.65,198.39C473.79,208.11 474.86,218.04 474.5,228C474.63,240.52 472.94,252.81 469.93,264.94C468.24,274.72 464.22,283.72 459.21,292.21C456.96,295.74 454.63,299.14 453,303.01C459.51,299.05 464.57,293.34 470.98,289.2C468.74,296.55 466.25,303.91 462.89,310.83C457.62,322.22 453.07,334.6 445.89,344.94C442.54,337.56 439.92,329.38 433.57,323.93C431.58,330.61 430.93,337.52 428.59,344.12C423.96,333.13 421.92,320.99 416.83,310.12C413.87,303.86 410.89,297.61 408.08,291.27C411.85,292.93 415.52,294.66 418.81,297.18C423.41,300.5 427.11,304.77 431.77,308.02C431.92,300.82 430.02,294.12 430.8,286.96C431.69,279.05 432.45,271.13 433.19,263.2C434.34,245.85 433.37,228.45 429.47,211.47C427.01,200.79 422.38,190.24 418.46,179.95C422.69,182.94 426.87,185.94 430.81,189.3C434.89,192.74 438.03,197.67 440.88,202.14C445.11,209.07 449.22,216.41 451.99,224.05C453.92,229.35 455.71,234.69 457.78,239.94C458.39,236.49 459,233.01 459.26,229.51C459.78,214.5 459.9,199.49 459.3,184.48C458.03,170.96 456.01,157.5 454.14,144.05Z" style="fill:rgb(143,0,24);fill-rule:nonzero;"/>
            <path d="M593.88,248.72C602.43,247.5 610.41,247.34 619,248.17C626.77,248.22 634.39,249.25 641.93,251.06C650.56,253.44 658.9,257.97 666.74,262.25C671.51,264.86 675.35,267.98 678.9,272.1C683.57,277.62 688.33,282.25 691.4,288.91C685.42,286.67 679.87,283.49 673.94,281.08C667.77,278.58 661.57,276.16 655.45,273.55C643.52,268.1 631.02,264.13 618.9,259.13C610.04,255.41 601.67,253.62 593.88,248.72Z" style="fill:rgb(143,0,24);fill-rule:nonzero;"/>
            <path d="M533.1,249.04C542.94,253.26 551.13,261.34 560.83,265.98C559.3,262.62 557.61,259.35 556.07,256C563.35,256.6 569.54,259.18 576.71,261.24C588.43,265.17 599.95,269.61 611.19,274.75C627.97,281.13 646.41,287.46 661.32,297.64C675.28,306.32 688.39,316.44 700.83,327.17C707.64,332.92 712.65,339.68 719.97,344.83C718.27,332.93 711.82,321.43 707.73,310.19C707.15,308.59 707.44,307.05 707.52,305.36C718.31,310 727.54,320.03 736.82,327.19C746.67,335.91 756.14,345.72 763.07,356.96C767.25,364.05 766.79,372.44 766.12,380.35C759.4,375.14 755.96,367.96 750.16,362C751.04,366.45 752.45,370.74 754.11,374.96C756.53,381.08 758.65,387.24 762.29,392.73C764.66,396.3 767.34,399.66 770.05,402.98C776.4,410.75 785.12,417.05 793.45,422.58C810.28,432.47 827.43,441.2 844.65,450.33C847.28,451.65 849.49,453.19 851.45,455.42C844.22,454.41 837.14,451.19 830.09,448.92C813.38,442.48 796.43,437.21 779.99,430C771.44,426.14 762.79,423 754.54,418.49C746.62,414.19 738.8,410.07 732.43,403.58C730.22,401.3 727.41,398.65 726.41,395.59C725.73,389.98 727.9,383.89 726.73,378.11C725.8,372.66 723.77,366.79 719.77,362.82C717.66,371.31 718.4,378.96 712.85,386.3C709.68,376.63 706.99,367.1 701.71,358.27C695.42,347.3 684.89,338.68 673.16,334.12C675.35,341.21 678.66,347.33 678.66,354.99C675.16,353.33 671.99,351.3 668.9,348.98C663.69,345.13 657.93,343.24 651.81,341.33C643.67,338.7 634.45,338.94 626.05,339.96C627.93,341.66 629.91,343.24 631.86,344.87C626.98,345.45 622.27,345.39 617.47,346.55C608.55,348.71 600.25,352.96 594.04,359.82C596.73,359.3 599.39,358.68 602.04,357.99C612.03,355.31 622.68,353.89 633.01,354.83C642.16,355.8 649.98,360.25 656.83,366.17C659.2,368.17 660.76,370.73 662.2,373.43C656.32,373.51 650.88,371.29 645.02,371.45C637.85,371.28 630.91,372.82 624.22,375.28C613.95,379.29 604.05,386.26 594.75,391.76C582.41,398.36 567.67,402.15 553.68,399.99C557.71,397.75 561.89,395.8 565.95,393.61C558.13,393.65 550.64,393.54 543.19,390.83C535.37,388.13 528.99,383.37 522.75,378.08C517.94,380.29 513.88,383.68 509.12,385.99C510.22,379.36 512.9,372.8 515.72,366.72C518.74,360.26 523.05,355.08 526.83,349.11C520.66,350.77 515.45,353.95 509.84,356.87C500.85,361.67 494.61,368.77 486.05,374.96C488.11,365.12 492.47,356.75 496.72,347.74C499,343.09 501.13,338.22 503.74,333.76C510.79,322.08 519.55,312.65 527.91,302.17C520.75,303.93 513.89,307.09 507.26,310.27C497.37,315.15 489.81,322.23 481.08,328.75C483.97,317.15 489.77,307.2 496.37,297.38C500.67,291.16 504.33,285.1 509.7,279.7C513.22,276.24 516.88,272.85 520.57,269.58C525.07,265.56 530.44,262.83 534.87,258.73C534.39,255.48 533.56,252.3 533.1,249.04Z" style="fill:rgb(143,0,24);fill-rule:nonzero;"/>
            <path d="M464.02,364.31C462.73,376.14 457.56,387.74 452.32,398.3C449.78,403.57 446.41,408.24 442.87,412.87C433.22,425.33 422.42,436.55 409.13,445.16C397.81,453.43 384.59,459.4 371.07,463.02C381.58,450.08 394.77,439.3 405.86,426.86C408.49,423.98 411.01,421.04 413.03,417.69C407.61,417.34 402.4,418.82 396.96,418.36C390.75,417.76 384.51,416.38 378.77,413.92C383.03,413.13 387.36,412.6 391.58,411.58C402.03,408.92 411.85,404.56 421.14,399.12C430.14,394.06 438.64,388.17 446.6,381.59C453.01,376.45 458.88,370.74 464.02,364.31Z" style="fill:rgb(143,0,24);fill-rule:nonzero;"/>
            <path d="M645.01,386.82C650.24,386.85 656.18,387.06 659.01,392.24C656.34,393.84 652.53,393.32 652.58,397.22C652.25,403.12 658.96,406.77 664.08,407.11C669.72,407.45 672.67,403.94 677.14,401.37C678.18,401.79 678.67,402.41 678.61,403.2C679.04,409.99 673.62,416.03 667,416.99C658.79,418.2 651.11,414.1 645.07,408.92C640.96,405.09 636.88,400.08 635.69,394.47C635.31,392.29 634.87,390.18 636.17,388.2C638.78,386.93 642.16,387.09 645.01,386.82Z" style="fill:white;fill-rule:nonzero;"/>
            <path d="M613.63,411.47C624.52,412.75 631.26,420.23 641.71,424.29C648.7,427.32 655.73,427.35 663.1,428.48C657.18,432.42 650.89,433 644.09,434.37C652.31,436.97 660.76,437.16 669.28,436.34C676.13,435.47 682.23,432.52 689.18,432.12C686.57,437.66 682.47,442.21 679.99,447.84C690.99,443.59 701,436.97 712.02,432.87C710.38,440.67 705.64,446.32 703.05,453.87C709.38,450.93 714.69,446.64 721.17,444.1C726.31,442.04 731.68,440.01 737.18,439.26C744.61,437.93 752.69,439.25 759.96,440.98C768.49,443.32 777.79,445.72 785.1,450.81C779.88,450.46 774.94,449.03 769.79,448.26C763,447.15 755.82,447.31 748.96,447.38C741.21,447.41 733.5,449.7 727.14,454.17C718.63,459.62 712.15,467.03 704.25,473.25C695.37,480.36 686.45,490.36 675.05,493.11C667.45,494.26 659.63,493.14 651.96,494.19C643.58,494.47 635.49,496.23 627.46,498.52C615.48,501.31 603.97,507.3 593.24,513.24C585.91,517.17 579.25,522.53 572.63,527.66C565.15,533.51 559.57,541.14 552.07,546.94C552.27,542.42 553.04,538.1 554.94,533.97C557.45,527.69 561.53,522.27 564.07,516.03C558.21,516.77 553.81,519.85 549.13,523.16C541.68,528.72 534.89,534.96 529.81,542.81C523.99,551.3 519.64,560.49 519.55,570.99C518.99,583.53 524.12,595.26 527.85,606.96C518.12,602.44 508.16,597.57 497.99,594.07C487.46,590.76 477.13,587.72 466.04,587.15C458.37,586.37 450.67,586.63 443,585.82C435.69,585.49 428.34,585.42 421.03,585.47C424.86,583.5 428.64,581.32 432.57,579.57C438.53,576.81 444.68,575.58 450.23,571.89C443.77,571.03 437.48,571.34 431,571.44C423.96,571.54 416.75,571.04 409.75,571.66C403.13,572.42 396.54,573.62 390.04,575.09C376.84,577.93 363.78,583.05 351.24,587.83C357.1,576.98 365.89,567.18 373.51,557.52C378.34,551.36 383.47,545.55 388.99,540C393.5,535.48 397.58,530.59 402.19,526.19C405.73,522.78 409.15,519.31 411.96,515.26C403.43,516.25 395.27,519.03 387.47,522.5C381.72,524.88 376.59,528.01 370.67,529.92C375.37,520.35 382.62,511.63 390.21,504.21C397.29,496.16 405.59,489.63 413.67,482.67C422.67,475.11 432.46,468.81 442.01,461.99C447.64,458.17 453.76,455.13 459.52,451.49C466.68,447 474.58,444.1 481.82,439.77C485.32,437.66 488.93,436 492.85,434.82C488.11,443.73 481.06,451.08 475.99,459.7C480.64,457.93 485.14,455.83 489.57,453.57C499.87,448.34 510.76,443.9 521.46,439.38C528.38,436.42 535.34,434.69 542.62,432.59C549.17,430.86 557.06,429.46 563.68,431.3C568.52,432.7 571.12,436.19 574.01,440.01C580.66,448.57 588.53,456.23 596.88,463.12C600.16,465.93 603.66,467.74 606.02,471.5C601.74,473.45 597.24,474.83 592.98,476.83C603.74,482.2 615,482.04 626.74,481.52C638.61,479.98 649.98,474.58 659.6,467.58C662.24,465.65 664.27,463.18 666.25,460.61C656.2,462.87 646.82,464.83 636.5,462.52C621.17,458.94 608.05,448.73 598.39,436.59C596.14,433.88 594.57,430.48 592.04,428.05C586.86,425.86 580.6,425.28 575.01,425.36C571.79,425.41 568.69,424.82 565.61,423.93C568.02,421.56 570.63,420 573.76,418.76C579.83,416.33 586.24,413.71 592.67,412.52C599.52,411.09 606.67,410.99 613.63,411.47Z" style="fill:rgb(143,0,24);fill-rule:nonzero;"/>
            <path d="M321.88,418.86C326.08,422.21 329.13,426.2 332.99,430.01C337.97,435.28 343.36,440.27 347.66,446.01C344.07,452.17 339.04,457.13 335.06,463.05C326.23,475.22 320.41,489.63 315.91,503.9C313.09,513.21 310.01,523.19 310.19,532.98C315.56,528.78 319.99,523.57 325.33,519.31C333.91,511.6 342.7,504.47 353.13,499.37C350.95,503.94 348.27,508.22 345.48,512.44C341.41,518.81 337.5,525.31 334,532.01C326.66,546.15 321.65,561.07 317.41,576.38C315.93,582.18 315.2,588.07 314.13,594.04C313.02,600.82 311.64,607.17 311.41,614.03C310.85,622.04 310.18,630.03 309.42,638.03C307.92,632.88 306.39,627.76 305.43,622.48C303.02,610.53 303.16,597.94 301.86,585.92C299.33,588.31 297.43,590.85 296.07,594.08C292.05,602.4 290.72,611.47 286.79,619.78C283.37,611.88 283.11,602.47 281.97,594C281.1,580.48 279.82,567.79 281.33,554.23C282.29,541.98 284.24,529.92 286.93,517.94C288.39,511.51 291.11,505.72 291.87,499.11C285.75,503.54 281.53,510.9 277,516.98C272.2,524.34 266.98,531.4 262.08,538.69C263.03,531.72 265.27,525.31 267.66,518.74C272.52,502.92 279.36,488.27 286.33,473.32C292.6,461.06 298.64,448.86 306.47,437.48C310.59,431.21 314.54,421.89 321.88,418.86Z" style="fill:rgb(143,0,24);fill-rule:nonzero;"/>
            <path d="M504.94,462.25C501.62,472.34 495.51,480.6 493.2,490.78C497.07,489.54 500.89,488.17 504.82,487.1C502.69,494.51 499.4,501.65 494.94,507.94C490.68,513.9 486.87,519.95 481.41,524.92C481.29,519.06 483,513.9 481.65,508.11C473.52,508.68 469.75,514.46 462.17,516.99C463.71,508.3 468.92,499.89 473.36,492.37C479.29,482.43 487.41,475.47 496.08,468.07C498.83,465.83 501.83,463.94 504.94,462.25Z" style="fill:rgb(1,1,1);fill-rule:nonzero;"/>
            <path d="M890.99,476.77C899.74,476.34 908.69,478.67 916.49,482.53C924.05,486.26 930.99,490.72 936.47,497.22C926.07,497.03 917.1,494.42 906.67,496.61C898.23,498.43 892.1,503.14 884.59,506.69C881.72,508.19 879.12,507.05 876.81,505.17C871.81,500.89 868.66,495.62 865.66,489.86C864.39,491.85 863.16,493.68 862.9,496.09C861.94,503.51 864.16,509.9 865.74,516.99C862.22,512.43 859.76,507.32 858.25,501.77C856.64,495.75 858.98,488.75 864.14,485.17C871.96,479.34 881.34,476.95 890.99,476.77Z" style="fill:white;fill-rule:nonzero;"/>
            <path d="M912.56,518.83C913.62,524.74 910.65,528.77 906.39,532.38C902.52,535.55 897.27,540.2 892.04,540.22C885.72,538.68 879.7,534.4 875.56,529.43C881.35,530.81 886.87,532.15 892.9,531.65C897.18,531.35 901.12,529.12 904.16,526.17C907.04,523.5 908.78,520.4 912.56,518.83Z" style="fill:white;fill-rule:nonzero;"/>
            <path d="M933.81,518.44C934.45,522.61 934.83,526.73 933.87,530.89C932.83,535.11 932.52,539.05 927.76,540.59C927.87,537.66 928.28,534.89 929.13,532.08C930.48,527.54 931.71,522.68 933.81,518.44Z" style="fill:white;fill-rule:nonzero;"/>
            <path d="M693.98,523.26C709.32,522.67 724.49,527.32 737.26,535.74C741.47,538.38 745.55,541.11 748.99,544.73C738.57,541.1 727.98,536.53 716.83,534.17C710.95,532.92 705.06,531.57 699.04,531.53C693.68,531.45 688.32,531.48 682.95,531.53C677.21,531.48 671.59,532.67 665.84,532.67C673.32,526.03 684.09,522.95 693.98,523.26Z" style="fill:rgb(143,0,24);fill-rule:nonzero;"/>
            <path d="M228.88,541.23C229.68,544.9 230.36,548.6 230.79,552.35C232.49,565.06 230.48,578.34 232.22,590.98C233.37,602.47 235.02,613.8 238.17,624.93C243.17,641.89 248.53,658.06 257.7,673.31C272.48,702.01 293.37,726.29 315.33,749.67C322.09,756.86 329.39,763.47 335.87,770.94C323.31,765.25 312.18,757.91 300.74,750.26C293.39,745.06 286.09,739.65 279.42,733.59C272.87,727.71 265.97,722.54 260.22,715.79C255.36,710.59 251.08,704.71 245.72,700.03C245.77,705.58 247.29,711.26 248.33,716.7C250.23,726.35 253.02,735.73 255.37,745.26C251.07,741.25 247.33,736.86 243.95,732.05C239.1,725.21 233.93,718.63 229.51,711.48C223.07,701.57 218.43,691.01 213.69,680.24C206.03,662.32 201.8,643.36 199.76,624.02C199.37,618.71 197.78,612.87 198.64,607.6C199.85,602.54 202.11,597.72 203.65,592.74C206.11,584.91 209.71,577.78 213.49,570.53C218.79,560.54 221.98,550.4 228.88,541.23Z" style="fill:rgb(143,0,24);fill-rule:nonzero;"/>
            <path d="M699,545.25C710.6,545.55 722.47,549.22 732.97,554.02C744.52,558.61 755.09,565.69 766.7,570.27C776.25,573.63 785.81,576.89 795.65,579.33C791.76,583.55 787.19,586.69 781.51,587.89C779.86,584.52 778.23,581.16 776.15,578.03C772.36,579.26 768.1,582.05 764.06,581.49C761.41,579.1 760.25,575.46 757.68,573.08C756.56,572.91 755.54,573.06 754.61,573.55C751.3,575.16 748.1,577.03 744.87,578.79C742.2,573.91 740.1,568.6 737.01,563.98C735.19,560.99 731.36,560.08 728.15,560.96C723.88,562.47 720.08,565.27 715.83,566.84C714.23,567.42 713.7,566.24 712.7,565.3C709.03,561.35 706.95,556.39 703.01,552.63C698.93,554.85 695.55,558.31 691.37,560.25C689.12,561.29 687.15,559.97 685.47,558.53C682.3,555.38 679.68,551.76 678.53,547.38C685.34,546.73 692.16,545.53 699,545.25Z" style="fill:white;fill-rule:nonzero;"/>
            <path d="M629.02,554.34C624.64,558.91 620.67,563.82 616.21,568.31C614,570.51 612.38,572.86 611.02,575.66C607.36,583.06 603.27,589.84 600.61,597.62C598.61,603.29 597.92,609.59 597.5,615.56C597.26,622.02 597.1,628.75 598.26,635.14C591.65,627.42 587.36,618.3 587.74,607.97C588.8,597.08 593.42,586.44 599.31,577.32C606.73,567.07 617.2,558.91 629.02,554.34Z" style="fill:rgb(143,0,24);fill-rule:nonzero;"/>
            <path d="M917.7,556.74C915.85,563.73 909.74,569.64 903.98,573.67C903.67,566.3 909.39,561.68 915.03,558.14C915.91,557.66 916.8,557.19 917.7,556.74Z" style="fill:white;fill-rule:nonzero;"/>
            <path d="M883.05,579.92C885.64,580.61 888.09,581.07 889.65,583.49C890.9,585.27 890.22,587.59 889.43,589.42C886.99,593.82 884.28,597.81 879.25,599.45C878.12,597.48 876.95,595.54 875.77,593.6C872.7,595.22 870.44,597.67 867.83,599.89C865.83,597.55 864.8,594.82 863.65,592.02C860.53,594.81 858.85,598.31 854.42,599C853.66,595.97 853.32,592.89 852.85,589.8C848.06,593.93 843.76,598.02 837.78,600.43C837.38,594.32 838.31,588.54 838.8,582.46C847.85,580.99 856.94,581.26 866.02,580.16C871.49,579.64 877.68,578.64 883.05,579.92Z" style="fill:white;fill-rule:nonzero;"/>
            <path d="M804.82,580.97C812.69,581.29 820.55,582.48 828.41,583.26C827.3,590.04 824.55,596.21 821.13,602.11C817.02,610.29 810.02,616.51 802.9,622.05C803.13,617.91 803.68,613.82 804.11,609.7C804.96,600.17 804.91,590.54 804.82,580.97Z" style="fill:white;fill-rule:nonzero;"/>
            <path d="M635.72,591.83C637.86,595.46 638.79,599.4 639.69,603.46C645.78,604.54 651.92,603.23 657.92,604.04C661.41,604.68 664.69,607.09 664.52,610.97C664.08,616.25 662.42,621.27 662.62,626.66C667.15,626.43 671.5,625.19 676,624.8C677.26,624.88 679.66,624.25 680.46,625.41C682.62,630.89 683.48,636.87 685.64,642.36C686.64,645.04 689.14,646.92 691.98,647.22C696.53,647.65 701.45,646.82 706.05,646.63C708.28,653.94 710.43,661.07 713.23,668.19C706.7,665.15 700.57,661.23 694.3,657.7C677.9,647.38 660.71,636.62 646.03,623.95C640.73,619.04 635.41,613.65 631.33,607.67C629.05,604.06 627.2,598.91 630.18,595.15C631.6,593.08 633.31,592.29 635.72,591.83Z" style="fill:white;fill-rule:nonzero;"/>
            <path d="M677.73,599.16C689.33,598.41 700.68,600.19 710.72,606.27C719.81,612.04 727.39,619.56 733.95,628.04C740.36,635.59 744.77,644.72 751.13,652.24C747.21,636.71 742.03,622.18 730.86,610.29C736.31,611.44 741.33,612.55 745.63,616.35C754.15,623.45 758.74,632.3 764.56,641.44C769.56,649.2 776.01,655.49 782.27,662.18C781.22,664.12 780.1,665.98 778.7,667.69C774.23,673.2 769.82,678.75 765.76,684.57C761.77,683.61 757.9,682.32 754.03,680.98C747.18,678.76 739.68,676.34 733.64,672.35C730.21,669.56 726.72,666.44 724.33,662.69C716.89,650.65 712.06,636.58 704.29,624.71C697.05,614.09 687.47,607.15 677.73,599.16Z" style="fill:rgb(143,0,24);fill-rule:nonzero;"/>
            <path d="M408.96,603.94C415.11,603.39 421.18,603.8 427.31,604.31C442.59,604.76 457.98,608.04 471.94,614.32C459.92,615.62 448,616.14 436.17,618.91C447.39,621.68 458.47,624.9 469.42,628.59C481.56,632.97 492.79,639.22 503.28,646.7C516.52,655.86 528.85,666.45 540.97,677.02C544.7,680.02 548.38,682.86 551.12,686.86C544.17,689.05 537.64,690.25 531.06,693.06C523,696.5 515.52,701.06 509.34,707.34C505.16,711.33 501.64,715.71 499.18,720.97C505.03,719.07 510.29,715.92 516.19,714.16C523.38,711.98 530.67,709.55 538.23,709.57C536.32,713.74 533.7,717.45 531.52,721.46C526.07,731.88 521.3,742.13 520.34,754.04C520.17,760.2 520.09,766.42 520.53,772.56C521.56,781.51 523.61,790.16 526.38,798.72C530.96,812.27 537.85,824.42 545.73,836.29C548.98,841.06 551.7,845.87 555.83,849.97C559.71,841.37 562.78,832.4 566.75,823.85C571.16,814.1 576.44,804.81 581.11,795.18C586.8,784.37 592.17,773.35 598.19,762.73C599.17,765.08 600.16,767.26 600.39,769.83C601.15,782.97 601.45,796.1 603.04,809.18C604.22,820.54 603.51,831.68 602.25,842.98C600.37,835.29 599.22,826.95 595.81,819.8C593.68,824.41 593.25,829.19 592.1,834.07C589.15,846.41 586.16,858.6 581.45,870.43C577.88,880.62 573.25,890.4 567.63,899.62C561.24,909.83 554.75,919.98 547.95,929.91C543.87,935.2 539.83,940.51 535.88,945.91C534.47,948.01 532.84,948.46 530.49,948.96C529.11,943.3 528.49,937.5 527.09,931.85C522.7,913.93 517.47,895.88 510.01,878.97C506.11,869.68 502.29,860.27 497.71,851.29C491.15,838.55 484.24,825.66 476.08,813.89C460.89,790.22 442.29,769.38 421.86,750.13C413.99,742.29 405.47,735.21 397.2,727.81C391.01,722.3 385.71,716.27 379.17,711.21C379.59,724.04 386.05,735.02 387,747.58C380.21,741.69 374.37,735.21 368.81,728.17C362.53,721.46 357.72,713.76 353.13,705.85C343.39,689.1 338.65,669.23 337.53,650C337.37,641.84 337.11,633.86 338.83,625.81C342.13,630.24 344.39,635.15 347.07,639.95C349.86,645 353.26,649.74 356.4,654.62C360.81,661.44 366.43,667.11 371.95,673.04C375.66,676.98 379.25,680.92 383.63,684.14C382.67,678.68 381.23,673.45 381.3,667.85C382.17,667.34 383.03,666.84 383.9,666.33C387.39,670.76 390.8,675.22 394.7,679.31C400.72,685.68 406.32,692.43 412.78,698.22C418.23,703.1 423.3,708.36 428.7,713.3C434.19,718.12 439.2,722.87 445.9,726.05C442.95,717.53 437.97,710.42 435.16,701.8C433.24,695.9 431.91,689.84 430,683.94C425.97,670.9 418.67,659.06 411.27,647.69C407,641.23 402.95,635.08 397.27,629.73C392.48,625.21 387.54,620.6 382.16,616.83C378.67,614.37 375.15,611.98 371.92,609.18C378.17,607.27 384.57,605.94 391.02,604.96C396.97,604.08 402.95,604.55 408.96,603.94Z" style="fill:rgb(143,0,24);fill-rule:nonzero;"/>
            <path d="M878.42,608.2C876.54,613.46 872.23,616.82 867.84,619.97C867.78,617.17 867.25,613.28 868.88,610.85C871.66,608.29 874.85,608.32 878.42,608.2Z" style="fill:white;fill-rule:nonzero;"/>
            <path d="M609.78,612C612.28,616.23 614.6,620.59 617.25,624.74C620.53,629.88 624.73,633.73 628.64,638.36C633.31,644 639.46,648.17 645.36,652.62C660.25,663.47 676.06,669.61 692.58,677.44C699.32,680.77 706.45,682.79 712.94,686.64C703.89,686.41 695.21,683.19 686.22,681.78C669.01,677.52 651.23,673.04 635.87,664.15C626.3,658.22 617.46,649.68 612.55,639.44C608.85,630.9 608.04,621.12 609.78,612Z" style="fill:rgb(143,0,24);fill-rule:nonzero;"/>
            <path d="M794.02,671.23C801.18,674.82 807.56,679.39 810.67,687.07C808.2,689.48 804.6,692.11 801.05,692.27C797.19,691.49 795.6,687.45 795,683.99C794.43,679.78 794.19,675.48 794.02,671.23Z" style="fill:rgb(143,0,24);fill-rule:nonzero;"/>
            <path d="M784.56,674.76C786.16,684.18 786.47,694.52 783.77,703.76C782.69,706.77 780.83,711.43 777.45,712.4C775.54,713.32 773.66,711.9 772.11,710.88C768.82,708.39 765.58,704.4 765.05,700.2C767.19,696.2 770.44,692.75 773.05,689.05C776.64,684.26 780.02,678.62 784.56,674.76Z" style="fill:white;fill-rule:nonzero;"/>
            <path d="M836.67,676.8C837.36,685.15 834.64,692.72 830.02,699.56C826.59,697.8 823.13,696.03 819.91,693.92C821.78,688.86 825.6,685.94 829.54,682.55C831.92,680.62 834.16,678.57 836.67,676.8Z" style="fill:white;fill-rule:nonzero;"/>
            <path d="M721.56,704.66C732.15,705.04 742.83,708.17 752.48,712.46C760.2,715.83 767.23,720.69 774.83,724.17C783.78,728.12 794.48,729.41 804.11,730.72C796.19,733.87 787.84,734.61 779.56,732.48C766.17,729.03 753.15,723.83 741.26,716.75C734.58,712.77 726.86,710.16 721.56,704.66Z" style="fill:rgb(143,0,24);fill-rule:nonzero;"/>
            <path d="M794.24,704.81C796.75,706.15 798.9,708.32 801.15,710.07C802.74,709.42 804.3,708.54 805.97,708.09C807.62,708.43 809.23,709.08 810.84,709.59C813.17,708.39 815.19,706.09 817.99,707.07C821.3,708 823.99,706.13 827.18,705.25C827.83,707.31 828.96,710.62 827.78,712.62C824.26,716.94 818.85,717.61 813.7,718.42C804.9,719.68 796.58,718.18 788.01,716.36C789.75,712.39 791.86,708.44 794.24,704.81Z" style="fill:white;fill-rule:nonzero;"/>
        </g>
    </g>
</svg>
