<?xml version="1.0" encoding="UTF-8" standalone="no"?>
<!DOCTYPE svg PUBLIC "-//W3C//DTD SVG 1.1//EN" "http://www.w3.org/Graphics/SVG/1.1/DTD/svg11.dtd">
<svg width="100%" height="100%" viewBox="0 0 1729 1728" version="1.1" xmlns="http://www.w3.org/2000/svg" xmlns:xlink="http://www.w3.org/1999/xlink" xml:space="preserve" xmlns:serif="http://www.serif.com/" style="fill-rule:evenodd;clip-rule:evenodd;stroke-linejoin:round;stroke-miterlimit:2;">
    <g transform="matrix(1,0,0,1,-20,0)">
        <g id="_1" serif:id="1" transform="matrix(1,0,0,1,20.834324,0)">
            <rect x="0" y="0" width="1728" height="1728" style="fill:none;"/>
            <g transform="matrix(1.635073,0,0,1.635073,195.459604,399.973614)">
                <g>
                    <path d="M449.97,156.19C455.59,155.18 460.75,156.82 465.75,159.25C471.47,162.08 477.06,165.19 482.59,168.38C487.43,171.16 491.82,174.57 496.58,177.45C501.29,180.39 507.58,181.12 513,181.61C517.62,181.96 522.44,182.56 527.07,182.07C528.63,181.92 530.04,180.55 531.36,179.77C532.18,180.81 533,181.86 533.82,182.91C529.92,187.93 524.81,191.23 519.4,194.4C511.78,198.71 502.83,202.89 494,203.48C487.75,204.03 483.98,200.16 478.03,199.35C474.07,198.7 470.02,200.33 466.16,199.76C463.38,199.1 462.02,196.91 460.4,194.79C460.6,202.25 460.84,209.63 461.98,217.02C462.07,219.32 463.07,222.77 461.25,224.53C459.9,223.73 458.64,222.79 457.4,221.84C464.77,236.21 465.69,251.95 470.79,268.11C474.18,269.24 477.98,270.16 481.04,272.04C484.05,273.97 485.79,277.49 487.42,280.56C489.2,284.09 491.18,287.56 492.68,291.21C494.39,295.45 494.44,299.58 494.8,304.06C507.88,309.71 521.9,313.26 534.94,318.99C536.9,319.98 539.8,321.28 540.72,323.4C541.68,327.63 539.86,331.9 537.14,335.1C532.98,340.02 526.67,343.37 520.78,345.76C509.03,350.46 496.04,352.71 483.45,353.49C481.55,358.87 480.32,364.92 475.95,368.93C471.29,373.16 464.92,375.81 459.17,378.22C454.67,380.16 449.8,380.5 445.21,382.02C438.97,386.66 433.61,392.83 426.86,396.93C422.97,399.21 418.66,400.39 415.06,403.07C412.42,405.02 410.4,407.2 407.22,408.35C400.81,410.66 393.79,411.54 387,411.7C379.74,411.78 371.47,410.75 365.23,406.74C360.89,404.01 359.17,399.99 355.46,396.53C350.37,391.66 346.16,386.06 343.53,379.48C341.16,373.22 340.33,366.57 339.48,360C339.28,356.99 337.06,354.96 335.5,352.49C331.16,346.39 329.68,338.87 328.18,331.68C317.75,327.8 309.15,321.81 299.24,316.77C291,312.82 282.96,306.93 277.65,299.44C274.83,292.88 279.16,283.5 285.43,280.38C298.43,273.39 313.52,269.12 327.78,265.52C330.94,264.67 334.16,264.15 337.41,263.77C340.3,258.2 345.13,255.46 350.07,252.03C351.94,250.86 352.31,249.07 353.11,247.17C355.25,241.4 358.1,234.93 362.61,230.61C364.72,228.51 367.48,227.53 369.79,225.77C372.3,222.92 374.11,219.39 376.23,216.24C384.6,202.92 394.14,190.41 405.33,179.33C411.83,172.29 420.25,169.04 428.57,164.57C435.29,161.34 442.57,157.43 449.97,156.19Z" style="fill:rgb(0,28,61);fill-rule:nonzero;"/>
                    <clipPath id="_clip1">
                        <path d="M449.97,156.19C455.59,155.18 460.75,156.82 465.75,159.25C471.47,162.08 477.06,165.19 482.59,168.38C487.43,171.16 491.82,174.57 496.58,177.45C501.29,180.39 507.58,181.12 513,181.61C517.62,181.96 522.44,182.56 527.07,182.07C528.63,181.92 530.04,180.55 531.36,179.77C532.18,180.81 533,181.86 533.82,182.91C529.92,187.93 524.81,191.23 519.4,194.4C511.78,198.71 502.83,202.89 494,203.48C487.75,204.03 483.98,200.16 478.03,199.35C474.07,198.7 470.02,200.33 466.16,199.76C463.38,199.1 462.02,196.91 460.4,194.79C460.6,202.25 460.84,209.63 461.98,217.02C462.07,219.32 463.07,222.77 461.25,224.53C459.9,223.73 458.64,222.79 457.4,221.84C464.77,236.21 465.69,251.95 470.79,268.11C474.18,269.24 477.98,270.16 481.04,272.04C484.05,273.97 485.79,277.49 487.42,280.56C489.2,284.09 491.18,287.56 492.68,291.21C494.39,295.45 494.44,299.58 494.8,304.06C507.88,309.71 521.9,313.26 534.94,318.99C536.9,319.98 539.8,321.28 540.72,323.4C541.68,327.63 539.86,331.9 537.14,335.1C532.98,340.02 526.67,343.37 520.78,345.76C509.03,350.46 496.04,352.71 483.45,353.49C481.55,358.87 480.32,364.92 475.95,368.93C471.29,373.16 464.92,375.81 459.17,378.22C454.67,380.16 449.8,380.5 445.21,382.02C438.97,386.66 433.61,392.83 426.86,396.93C422.97,399.21 418.66,400.39 415.06,403.07C412.42,405.02 410.4,407.2 407.22,408.35C400.81,410.66 393.79,411.54 387,411.7C379.74,411.78 371.47,410.75 365.23,406.74C360.89,404.01 359.17,399.99 355.46,396.53C350.37,391.66 346.16,386.06 343.53,379.48C341.16,373.22 340.33,366.57 339.48,360C339.28,356.99 337.06,354.96 335.5,352.49C331.16,346.39 329.68,338.87 328.18,331.68C317.75,327.8 309.15,321.81 299.24,316.77C291,312.82 282.96,306.93 277.65,299.44C274.83,292.88 279.16,283.5 285.43,280.38C298.43,273.39 313.52,269.12 327.78,265.52C330.94,264.67 334.16,264.15 337.41,263.77C340.3,258.2 345.13,255.46 350.07,252.03C351.94,250.86 352.31,249.07 353.11,247.17C355.25,241.4 358.1,234.93 362.61,230.61C364.72,228.51 367.48,227.53 369.79,225.77C372.3,222.92 374.11,219.39 376.23,216.24C384.6,202.92 394.14,190.41 405.33,179.33C411.83,172.29 420.25,169.04 428.57,164.57C435.29,161.34 442.57,157.43 449.97,156.19Z" clip-rule="nonzero"/>
                    </clipPath>
                    <g clip-path="url(#_clip1)">
                        <path d="M449.03,162.94C454.91,161.7 460.69,163.99 464.79,168.21C471,174.48 478.67,178.53 486.4,182.63C491.78,185.36 496.79,188.06 502.98,188.19C509.38,188.31 515.79,187.23 522.2,187.15C515.55,192.52 506.35,194.24 498.04,192.98C490.49,191.49 483.43,188.7 476.22,186.61C472.38,185.47 468.24,184.94 464.53,183.43C461.26,181.99 458.96,179.31 456.51,176.8C454.76,181.8 453.08,186.66 452.52,191.97C452.14,195.87 451.82,199.72 450.57,203.46C445.07,199.44 440.5,194.52 434.39,191.28C436.04,197.51 438.4,203.42 439.56,209.78C440.99,216.26 441.09,222.85 442.79,229.27C444.24,234.91 443.9,240.36 443.46,246.09C436.55,242.28 430.82,236.75 423.91,233.01C417.92,230.25 411.27,228.76 404.94,226.97C397.56,224.69 390.2,226.79 382.24,226.05C384.15,219.45 388.36,214.67 391.9,208.95C396.56,201.97 400.91,194.66 406.13,188.08C411.24,181.66 418.57,177.75 425.43,173.43C432.68,169.19 440.73,164.56 449.03,162.94Z" style="fill:white;fill-rule:nonzero;"/>
                        <path d="M385.82,230.84C384.37,233.47 382.91,236.09 381.45,238.72C375.09,239.16 368.91,240.43 362.71,241.85C363.88,240.39 364.99,238.66 366.45,237.46C372.24,233.47 378.83,231.43 385.82,230.84Z" style="fill:white;fill-rule:nonzero;"/>
                        <path d="M394.03,231.14C400.31,231.35 406.51,232.59 412.27,235.15C405.24,243.47 400.4,253.05 395.88,262.9C394.78,265.22 393.48,267.43 392.16,269.64C385.68,268.73 379.39,267.62 373.3,265.12C374.33,260.91 376.23,257.18 378.54,253.54C382.53,247.18 386.34,240.7 390.39,234.38C391.24,233.34 392.52,231.01 394.03,231.14Z" style="fill:white;fill-rule:nonzero;"/>
                        <path d="M421.1,239.86C432.28,246.47 442.9,253.62 451.85,263.14C457.91,269.54 462.14,277.92 465.43,286.02C464.52,288.56 462.81,289.81 460.12,289.98C454.56,285.3 451.2,277.03 446.29,271.71C441.6,266.5 436.56,261.27 430.95,257.06C425.23,252.97 419.3,249.22 413,246.08C413.83,243.69 414.42,240.9 415.87,238.81C417.63,237.67 419.51,239.07 421.1,239.86Z" style="fill:white;fill-rule:nonzero;"/>
                        <path d="M377.98,244.24C376.76,246.7 375.45,249.1 374.07,251.47C370.54,251.47 367,251.44 363.47,251.28C367.86,246.91 371.86,245.16 377.98,244.24Z" style="fill:white;fill-rule:nonzero;"/>
                        <path d="M410.96,251.98C415.2,252.37 419.41,254.83 422.98,257.03C429.8,261.5 436.49,267.03 441.18,273.76C439.85,275.58 438.47,277.33 436.97,279.01C428.22,270.79 417.33,264.6 406.53,259.5C407.93,257.01 409.09,254.15 410.96,251.98Z" style="fill:white;fill-rule:nonzero;"/>
                        <path d="M371.02,256.87C370.08,259.37 369.13,261.87 368.16,264.36C360.76,264.12 353.44,265.15 346.06,265.14C347.58,263.28 349.25,261.61 351.19,260.18C356.03,255.8 364.88,257.54 371.02,256.87Z" style="fill:white;fill-rule:nonzero;"/>
                        <path d="M401.84,265.2C408.05,267.05 413.95,271.13 419.38,274.62C426.48,279.32 433.27,284.69 439.36,290.64C442.56,294.01 446.43,298.3 447.32,302.98C447.66,304.87 447.29,305.96 446.04,307.38C442.5,307.85 441.15,303.84 439.37,301.57C434.11,294.17 424.77,288.97 417.76,283.24C411.79,278.18 405.03,275.54 398.07,272.21C399.14,269.76 400.29,267.38 401.84,265.2Z" style="fill:white;fill-rule:nonzero;"/>
                        <path d="M368.27,269.83C373.94,271.69 379.33,271.68 384.45,275.08C372.36,276.25 360.14,276.1 348.01,276.79C344.37,277.03 340.92,277.97 337.42,278.94C349.77,280.36 361.79,283.83 373.14,288.86C388.79,296.08 405.14,301.86 421.23,308C420.88,309.7 420.53,311.4 420.18,313.1C394.96,304.03 368.89,293.07 342.79,287.66C333.8,285.82 324.19,283.7 315,283.78C306.38,283.79 298.43,286.45 289.8,286.94C296.42,282.81 303.81,279.17 311.5,277.68C319.54,275.87 327.79,273.81 336.01,273.17C346.77,272.14 357.97,270.08 368.78,270.64L368.27,269.83Z" style="fill:white;fill-rule:nonzero;"/>
                        <path d="M467.88,276.6C472.35,280.42 477.44,284.42 480.55,289.45C483.26,294.87 484.44,301.2 485.92,307.05C483.87,308.13 481.16,308.85 480.21,311.21C478.85,314.86 478.57,319.15 478.96,323C479.34,326.4 481.96,328.02 484.21,330.22C483.53,333.67 483.03,337.39 481.7,340.65C479.81,340.6 478,340.19 476.1,340.2C473.31,342.27 471.24,345.86 469.91,349.02C468.55,352.73 470.63,355.59 472.14,358.79C468.46,362.44 464.88,365.81 460.21,368.21C457.62,369.53 454.52,369.87 451.67,370.38C454.73,366.31 458.49,362.39 460.82,357.85C462.31,354.66 460.6,351.86 458.05,349.96C455.2,347.96 451.59,345.97 448.06,345.84C444.89,348.45 442.73,352.28 439.99,355.34C435.46,341.88 432.91,328.21 435.39,314.04C431.87,326.55 429.78,339 431.2,352.03C431.61,356.3 433.65,359.93 434.47,364.16C432.78,363.29 431.38,363.39 430.42,361.54C426.89,355.54 424.41,349.01 423.87,342.02C422.75,328.51 426.21,315.29 430.71,302.67C433.16,305.13 435.81,307.26 437.95,310.02C439.94,312.37 441.93,315.4 445.03,316.27C451.16,315.09 455.25,307.98 454.1,302C452.87,294.83 447.73,289.37 442.79,284.42C443.69,282.72 444.63,281.06 445.62,279.41C448.45,283.27 451.29,287.1 453.79,291.18C454.68,292.54 455.6,294.15 456.88,295.17C461.46,295.74 468.4,295.14 471.29,290.96C471,287.1 469.63,283.24 468.65,279.5C468.39,278.54 468.14,277.57 467.88,276.6Z" style="fill:white;fill-rule:nonzero;"/>
                        <path d="M344.49,299.66C343.02,309.01 340.99,319.03 342.01,328.99C343.22,337.28 348.18,343.91 351.97,351.09C353.45,353.71 355.59,356.06 357.4,358.48C349.42,356.09 342.99,350.13 339.33,342.75C334.86,332.05 334.97,321.38 335.14,310C335.23,306.91 335.59,303.04 337.43,300.45C339.18,298.24 342.16,299.41 344.49,299.66Z" style="fill:white;fill-rule:nonzero;"/>
                        <path d="M486.33,313.47C486.92,316.67 485.82,319.39 484.45,322.19C483.85,319.93 482.53,316.72 483.57,314.46C484.29,313.4 485.21,313.57 486.33,313.47Z" style="fill:white;fill-rule:nonzero;"/>
                        <path d="M493.72,313.02C497.53,314.89 500.99,317.39 504.85,319.18C509.52,321.51 514.39,322.6 519.4,323.9C510.62,325.19 501.54,324.83 492.71,324.37C493.07,320.59 493.27,316.79 493.72,313.02Z" style="fill:white;fill-rule:nonzero;"/>
                        <path d="M391.85,326.95C400.48,329.46 408.47,333.2 417.51,334.34C417.68,337.19 417.77,340.05 417.85,342.91C408.27,340.42 398.54,338.53 388.9,336.29C389.87,333.17 390.86,330.06 391.85,326.95Z" style="fill:white;fill-rule:nonzero;"/>
                        <path d="M477.32,345.26C478.09,346.46 478.84,347.65 479.33,348.98C478.52,350.68 477.17,351.76 475.86,353.04C475.26,351.62 474.66,350.2 474.11,348.76C475.08,347.51 476.19,346.37 477.32,345.26Z" style="fill:white;fill-rule:nonzero;"/>
                        <path d="M384.43,347.66C388.78,347.83 392.8,348.89 396.99,349.88C404.51,351.7 412.01,353.4 419.75,353.96C420.61,360.1 425.05,364.57 428.54,369.44C421.95,374.05 415.4,379.21 408.39,383.08C406.21,382.37 404.41,381.32 402.04,381.73C393.16,382.69 385.14,385.05 376.21,382.6C370.88,381.07 365.35,379.04 360.36,376.63C355.52,374.22 355.11,368.87 353.85,364.21C361.19,366.63 368.99,364.51 374.95,359.88C378.76,356.6 381.72,351.85 384.43,347.66Z" style="fill:white;fill-rule:nonzero;"/>
                        <path d="M449.99,351.31C451.42,352.34 453.3,352.96 453.28,355.04C453.24,358.59 449.85,362.1 447.79,364.79C443.3,369.96 440.33,375.74 435.44,380.42C430.17,385.58 424.33,388.97 418.35,393.34C414.82,395.69 410.24,398.63 405.87,398.49C402.83,396.63 403.76,393.83 403.5,390.8C412.53,387.33 420.77,382.27 428.37,376.32C433.4,372.29 438.03,368.09 441.78,362.8C444.54,359.02 446.81,354.66 449.99,351.31Z" style="fill:white;fill-rule:nonzero;"/>
                        <path d="M348.23,369.36C351.16,374.43 353.78,379.26 358.64,382.8C358.32,384.4 358,385.99 357.67,387.59C353.21,383.03 350.69,378.35 349.02,372.21C348.75,371.26 348.49,370.31 348.23,369.36Z" style="fill:white;fill-rule:nonzero;"/>
                        <path d="M366.87,385.07C370.56,386.53 373.94,388.32 377.97,388.75C384.75,390.02 391,388.51 397.78,388.54C397.19,389.85 396.6,391.16 396,392.47C397.07,395.87 397.92,399.28 398.46,402.81C392.47,404.58 386.16,405.01 379.96,404.29C375.38,403.68 370.55,402.15 367.23,398.78C364.17,395.77 362.92,391.16 363.81,387C364.05,385.51 365.4,384.38 366.87,385.07Z" style="fill:white;fill-rule:nonzero;"/>
                        <g transform="matrix(1,0,0,1,-3,-2)">
                            <path d="M463.522,307L465.508,306.988L468.644,316.049L467.609,318.938L463.522,307Z" style="fill:rgb(0,28,61);"/>
                            <path d="M463.514,309.44L465.82,316.027L465.833,331.459L463.562,338.047L463.514,309.44Z" style="fill:rgb(0,28,61);"/>
                            <path d="M463.586,340.026L465.87,340.006L469.239,329.672L468.217,326.531L463.586,340.026Z" style="fill:rgb(0,28,61);"/>
                            <path d="M467.837,327.578L468.228,326.549L469.333,326.531L471.102,331.483L471.132,337.641L468.931,330.681L467.837,327.578Z" style="fill:rgb(0,28,61);"/>
                            <path d="M471.77,340.024L474.073,340.016L473.99,306.959L471.753,306.995L471.77,340.024Z" style="fill:rgb(0,28,61);"/>
                            <path d="M470.849,309.672L470.84,316.141L469.293,320.517L468.19,320.516L467.607,318.939L470.849,309.672Z" style="fill:rgb(0,28,61);"/>
                        </g>
                    </g>
                </g>
            </g>
            <g id="down" transform="matrix(1.298358,0,0,1.298358,201.788103,351.503103)">
                <path d="M532.27,33.61C537.02,47.47 549.35,39.68 549.66,53.69C555.68,51.54 553.35,58.98 559.7,56.67C559.94,60.86 562.82,63.77 562.99,67.86C558.86,67.24 554.34,68.39 550.39,67.58C547.1,64.5 542.04,62.2 545.52,57.22C539.82,56.41 528.14,54.41 529.21,46.7C525.86,45.27 520.12,48.14 515.94,47.54C518.62,49.77 519.92,51.08 519.98,54.78C513.1,52.07 518.29,57.86 510.39,52.79C515.16,64.03 503.86,51.51 499.85,57.84C495.85,62.23 487.39,61.85 486.05,67.56C487.72,67.73 489.37,67.85 491,68.25C489.04,69.14 487.48,70.15 485.88,71.58C482.03,72.12 471.59,77.3 480.42,79.83C477.17,82.08 473.52,83.94 470.53,86.53C466.91,90.13 469.47,95.09 465.15,98.4C464.93,93.22 462.95,91.92 460.48,88.18C463.88,83.55 461.25,80.03 466.23,78.59C469.14,71.66 474.09,65.45 469.97,57.84C471.21,55.3 469.22,45.65 473.41,51.54C479.88,47.09 479.74,50.14 485.06,42.02C487.43,38.39 489.75,43.77 493.65,42.81C498.77,36.59 496.52,48.41 499.96,38.81C497.33,30.16 508.65,37.01 512.64,30.71C512.47,19.16 528.71,30.31 532.27,33.61Z" style="fill:rgb(230,219,194);fill-rule:nonzero;"/>
                <path d="M529.21,46.7C528.14,54.41 539.82,56.41 545.52,57.22C542.04,62.2 547.1,64.5 550.39,67.58C554.34,68.39 558.86,67.24 562.99,67.86C567.92,75.82 577.32,82.12 580.78,91.17C582.02,95.73 585.99,101.21 578.98,103.04C579.92,101.12 582.37,100.12 579.56,98.51C574.36,96.56 574.64,90.92 569.33,89.89C564.25,89 560.91,85.08 555.96,84.06C557.98,86.83 563.15,87.65 564.02,90.9C560.77,90.26 557.68,88.66 554.75,87.15C552.09,84.76 548.98,83.2 545.85,81.54C554.66,82.37 561.28,79.98 568.06,86.94C565.48,81.83 558.16,70.92 551.66,73.1C551.03,80.92 544.81,71.02 544.22,68.02C543.63,64.99 535.57,62.74 538.77,59.79C532.14,54.6 532.79,62.07 526.97,53.66C522.77,57.6 517.8,59.45 511.74,60.75L510.99,60.51C501.58,55.55 506.38,66.81 498.22,65.84C495.75,66.04 493.81,67.18 491.64,68.26L491,68.25C489.37,67.85 487.72,67.73 486.05,67.56C487.39,61.85 495.85,62.23 499.85,57.84C503.86,51.51 515.16,64.03 510.39,52.79C518.29,57.86 513.1,52.07 519.98,54.78C519.92,51.08 518.62,49.77 515.94,47.54C520.12,48.14 525.86,45.27 529.21,46.7Z" style="fill:rgb(219,196,150);fill-rule:nonzero;"/>
                <path d="M526.97,53.66C532.79,62.07 532.14,54.6 538.77,59.79C535.57,62.74 543.63,64.99 544.22,68.02C544.81,71.02 551.03,80.92 551.66,73.1C558.16,70.92 565.48,81.83 568.06,86.94C561.28,79.98 554.66,82.37 545.85,81.54C540.69,78.08 535.02,77.7 529.48,75.46C518.97,67.95 504.02,67.64 491.64,68.26C493.81,67.18 495.75,66.04 498.22,65.84C506.38,66.81 501.58,55.55 510.99,60.51C508.1,61.3 505.86,62.25 503.98,64.67C511.57,62.31 516.95,68.28 523.66,67.71C530.56,64.24 520.27,59.83 517.81,61.77C515.26,63.33 514.05,61.83 511.74,60.75C517.8,59.45 522.77,57.6 526.97,53.66Z" style="fill:rgb(189,164,116);fill-rule:nonzero;"/>
                <path d="M523.66,67.71C516.95,68.28 511.57,62.31 503.98,64.67C505.86,62.25 508.1,61.3 510.99,60.51L511.74,60.75C514.05,61.83 515.26,63.33 517.81,61.77C520.27,59.83 530.56,64.24 523.66,67.71Z" style="fill:rgb(116,90,45);fill-rule:nonzero;"/>
                <path d="M529.48,75.46C535.02,77.7 540.69,78.08 545.85,81.54C548.98,83.2 552.09,84.76 554.75,87.15C555.67,93.45 562.21,93.53 559.63,97.54C560.77,98.9 573.24,106.42 565.44,105.34C565.74,108.6 566.54,111.61 567.18,114.77C568.87,123.85 563.75,126.39 565.69,134.82C563.57,145.03 558.79,157.86 550.56,164.5C546.85,170.04 547.27,168.5 544.83,163.65C532.02,165.14 535.01,152.04 521.81,153.83C507.41,168.2 492.85,179.07 472.08,181.02C471.39,181.7 470.72,182.4 470.06,183.12C459.63,174.17 454.91,166.17 453.98,152.06C456.63,154.86 456.74,158.27 458,152.11C450.48,145.91 450.53,134.26 451.38,125.37C452.12,113.37 461.38,109.09 465.15,98.4C469.47,95.09 466.91,90.13 470.53,86.53C473.52,83.94 477.17,82.08 480.42,79.83C488.16,80.55 482.96,88.23 478.18,86.7C473.27,85.23 469.27,90.3 468.88,94.74C471.31,93.53 473.58,92.11 476.16,91.19C474.4,95.41 467.4,95.37 465.73,100.64C463.91,109.29 459.58,118.49 461.77,127.06C462.2,136.84 461.41,150.26 466.14,159.4C468.59,163.15 470.07,164.29 469.07,169.12C468.92,170.74 469.04,172.12 469.78,173.6C487.04,172.53 506.23,162.03 518.16,149.18C526.24,141.19 517.75,132.38 520.31,121.18C520.81,117.87 521.12,114.54 521.36,111.21C521.99,103.88 524.41,97.21 523.44,90C523.53,86.29 524.66,83.25 520.05,81.99C510.94,75.83 504.84,70.45 492.81,73.72C489.37,74.88 494.04,71.18 491.88,70.51C489.86,71.01 487.99,71.65 485.88,71.58C487.48,70.15 489.04,69.14 491,68.25L491.64,68.26C504.02,67.64 518.97,67.95 529.48,75.46Z" style="fill:rgb(36,31,34);fill-rule:nonzero;"/>
                <path d="M491.88,70.51C494.04,71.18 489.37,74.88 492.81,73.72C504.84,70.45 510.94,75.83 520.05,81.99C520.7,83.06 522.95,89.01 521.09,88.76C515.85,83.18 511.51,78.16 503,78.94C498.01,81.2 491.02,75.14 495.37,83.22C492.66,82.9 490.72,79.96 488.19,78.88C491.24,87.61 496.63,95.09 507,94C517.51,91.48 513.87,104.6 518.34,110.62C516.31,121.92 523.01,130.84 515.44,139.38C520.24,145.22 511.4,152 505.86,153.75C501.42,153.68 494.82,155.86 491.01,153C486.78,147.79 478.01,147.66 471.83,147.78C465.65,147.79 467.7,155.48 466.14,159.4C461.41,150.26 462.2,136.84 461.77,127.06C459.58,118.49 463.91,109.29 465.73,100.64C467.4,95.37 474.4,95.41 476.16,91.19C473.58,92.11 471.31,93.53 468.88,94.74C469.27,90.3 473.27,85.23 478.18,86.7C482.96,88.23 488.16,80.55 480.42,79.83C471.59,77.3 482.03,72.12 485.88,71.58C487.99,71.65 489.86,71.01 491.88,70.51Z" style="fill:rgb(218,173,157);fill-rule:nonzero;"/>
                <path d="M503,78.94C511.51,78.16 515.85,83.18 521.09,88.76C522.95,89.01 520.7,83.06 520.05,81.99C524.66,83.25 523.53,86.29 523.44,90C524.41,97.21 521.99,103.88 521.36,111.21C517.61,103.36 524.3,89.11 514.64,86.39C511.45,85.05 506.98,82.79 503.63,84.64C501,85.95 499.77,89.96 496.53,87.97C497.48,85.07 497.97,85.2 495.37,83.22C491.02,75.14 498.01,81.2 503,78.94Z" style="fill:rgb(98,59,48);fill-rule:nonzero;"/>
                <path d="M488.19,78.88C490.72,79.96 492.66,82.9 495.37,83.22C497.97,85.2 497.48,85.07 496.53,87.97C499.77,89.96 501,85.95 503.63,84.64C506.98,82.79 511.45,85.05 514.64,86.39C524.3,89.11 517.61,103.36 521.36,111.21C521.12,114.54 520.81,117.87 520.31,121.18C517.75,132.38 526.24,141.19 518.16,149.18C506.23,162.03 487.04,172.53 469.78,173.6C477.49,173.41 471.65,160.79 469.07,169.12C470.07,164.29 468.59,163.15 466.14,159.4C467.7,155.48 465.65,147.79 471.83,147.78C478.01,147.66 486.78,147.79 491.01,153C494.82,155.86 501.42,153.68 505.86,153.75C511.4,152 520.24,145.22 515.44,139.38C523.01,130.84 516.31,121.92 518.34,110.62C513.87,104.6 517.51,91.48 507,94C496.63,95.09 491.24,87.61 488.19,78.88Z" style="fill:rgb(174,117,94);fill-rule:nonzero;"/>
                <path d="M555.96,84.06C560.91,85.08 564.25,89 569.33,89.89C574.64,90.92 574.36,96.56 579.56,98.51C582.37,100.12 579.92,101.12 578.98,103.04C575.17,105.95 580.62,117.12 579.78,121.94C576.58,133.35 582.3,141.03 570.79,148.86C571.02,142.15 579.95,127.66 569.3,124.6C575.93,121.53 565.59,120.98 567.18,114.77C566.54,111.61 565.74,108.6 565.44,105.34C573.24,106.42 560.77,98.9 559.63,97.54C562.21,93.53 555.67,93.45 554.75,87.15C557.68,88.66 560.77,90.26 564.02,90.9C563.15,87.65 557.98,86.83 555.96,84.06Z" style="fill:rgb(183,156,112);fill-rule:nonzero;"/>
                <path d="M478.39,95.1C478.46,98.7 482.68,102.94 476.74,102.83C472.87,105.59 472.86,109.76 470.19,113.1C471.82,108.19 473.55,97.43 478.39,95.1Z" style="fill:rgb(142,79,63);fill-rule:nonzero;"/>
                <path d="M482.38,96.29C486.12,94.96 489.37,97.66 492,99.97C490.67,100.24 477.94,98.43 482.38,96.29Z" style="fill:rgb(76,38,32);fill-rule:nonzero;"/>
                <path d="M548.22,101.35C542.08,102.22 532.19,98.84 527.91,104.15C528.4,101.93 527.29,99.87 530.28,99.49C538.41,101.42 540.86,95.02 548.22,101.35Z" style="fill:rgb(110,113,126);fill-rule:nonzero;"/>
                <path d="M525.44,101.38C528.99,99.54 523.59,107.61 527.81,105.14C528.31,110.42 528.98,106.64 531.16,105.44C537.92,106.5 541.07,108.92 547.62,104.96C549.17,112.63 547.75,113.07 540.24,110.66C535.11,107.18 532.53,111.19 527.9,109.41C523.16,110.69 527.45,120.4 522.18,120.94C520.81,113.59 524.25,108.36 525.44,101.38Z" style="fill:rgb(116,115,124);fill-rule:nonzero;"/>
                <path d="M548.22,101.35C554.75,101.41 550.99,103.62 547.62,104.96C541.07,108.92 537.92,106.5 531.16,105.44C528.98,106.64 528.31,110.42 527.81,105.14L527.91,104.15C532.19,98.84 542.08,102.22 548.22,101.35Z" style="fill:rgb(228,229,234);fill-rule:nonzero;"/>
                <path d="M487.4,107.63C493.04,108.46 502.64,118.86 499.05,124.4C498.04,124.06 497.05,123.68 496.07,123.27C499.58,122.26 496.73,120.11 495.88,118.15C490.14,107.78 470.74,111.59 472.66,125.31L470.94,124.96C470.74,111.93 475.44,108.73 487.4,107.63Z" style="fill:rgb(134,71,54);fill-rule:nonzero;"/>
                <path d="M495.88,118.15C496.73,120.11 499.58,122.26 496.07,123.27C490.31,117.69 483.87,116.14 476.34,119.29C473.54,120.62 476.88,127.36 472.66,125.31C470.74,111.59 490.14,107.78 495.88,118.15Z" style="fill:rgb(230,191,169);fill-rule:nonzero;"/>
                <path d="M552.21,112.32C556.46,111.57 562.76,119.94 558.28,121.59C553.76,121.89 548.54,116.07 552.21,112.32Z" style="fill:rgb(177,177,179);fill-rule:nonzero;"/>
                <path d="M567.18,114.77C565.59,120.98 575.93,121.53 569.3,124.6C579.95,127.66 571.02,142.15 570.79,148.86C563.77,161.57 549.45,163.96 545.52,180.13C542.88,175.17 544.6,170.69 543.74,165.42C537.84,164.79 533.22,161.94 527.86,159.87C524.06,161.25 520.77,161.46 516.82,161.48C514.42,171.52 498.78,175.11 490.74,179.84C486.67,181.69 484.08,185.21 480.8,187.92C477.73,187.36 474.64,182.97 472.08,181.02C492.85,179.07 507.41,168.2 521.81,153.83C535.01,152.04 532.02,165.14 544.83,163.65C547.27,168.5 546.85,170.04 550.56,164.5C558.79,157.86 563.57,145.03 565.69,134.82C563.75,126.39 568.87,123.85 567.18,114.77Z" style="fill:rgb(154,117,87);fill-rule:nonzero;"/>
                <path d="M496.07,123.27C497.05,123.68 498.04,124.06 499.05,124.4C495.93,128.17 491.83,128.97 487.19,129.38C482.41,129.47 468.71,134.28 470.94,124.96L472.66,125.31C476.88,127.36 473.54,120.62 476.34,119.29C483.87,116.14 490.31,117.69 496.07,123.27Z" style="fill:rgb(51,18,13);fill-rule:nonzero;"/>
                <path d="M527.86,159.87C533.22,161.94 537.84,164.79 543.74,165.42C544.6,170.69 542.88,175.17 545.52,180.13C548.89,188.92 554.12,196.66 563.18,200.26C551.4,207.92 541.64,218.85 531.79,228.79C520.73,241.71 516.52,257.82 506.63,271.62C499.38,282.14 490.5,299.34 477.36,302.86C472.29,301.6 467.97,305.06 463.44,300.93C464.07,296.4 467.95,292.81 467.98,288.37C464.94,288.61 463.36,289.46 461.52,286.42C464.96,279.43 471.19,279.53 476.8,275.73C476.49,271.2 475.35,264.91 481.11,264.82C485.58,255.38 469.77,258.91 467.35,257.23C473.16,252.15 469.44,248.8 462.82,250.43C467.91,242.2 474.01,238.45 483.35,236.26C484.41,226.22 471.04,231.05 469.45,221.62C463.75,222.1 470.75,217.34 470.86,214.88C471.43,212.08 470.9,209.49 470.29,206.76C469.72,199.17 470,191.5 470.19,183.9C471.57,195.45 478.35,184.38 481.29,193.65C483.25,197.36 477.15,206.98 483.69,206.47C484.15,213.69 483.14,219.8 491.14,222.99C499.39,227.6 494.5,235.47 499,241.3C505.01,234.13 499.43,217.82 507.7,211.7C508.75,206.85 520.87,217.42 515.57,210.49C507.09,206.95 514.31,199.46 508,192.69C504.86,196.36 506.06,204.08 501.83,207.76C495.64,205.12 499.87,196.1 495.43,190.49C492.62,185.53 497.14,183.41 490.74,179.84C498.78,175.11 514.42,171.52 516.82,161.48C520.77,161.46 524.06,161.25 527.86,159.87Z" style="fill:rgb(227,190,170);fill-rule:nonzero;"/>
                <path d="M469.78,173.6C469.04,172.12 468.92,170.74 469.07,169.12C471.65,160.79 477.49,173.41 469.78,173.6Z" style="fill:rgb(232,224,208);fill-rule:nonzero;"/>
                <path d="M490.74,179.84C497.14,183.41 492.62,185.53 495.43,190.49C499.87,196.1 495.64,205.12 501.83,207.76C506.06,204.08 504.86,196.36 508,192.69C514.31,199.46 507.09,206.95 515.57,210.49C520.87,217.42 508.75,206.85 507.7,211.7C499.43,217.82 505.01,234.13 499,241.3C494.5,235.47 499.39,227.6 491.14,222.99C483.14,219.8 484.15,213.69 483.69,206.47C477.15,206.98 483.25,197.36 481.29,193.65C478.35,184.38 471.57,195.45 470.19,183.9L470.06,183.12C470.72,182.4 471.39,181.7 472.08,181.02C474.64,182.97 477.73,187.36 480.8,187.92C484.08,185.21 486.67,181.69 490.74,179.84Z" style="fill:rgb(209,165,140);fill-rule:nonzero;"/>
                <path d="M563.18,200.26C572.43,201.05 577.22,199.47 581.08,209.44C577.1,208 573.98,205.73 569.77,208.1C562.04,213.61 554.25,221.6 547.94,228.77L546.61,230.24C546.11,227.29 549.64,224.67 550.88,222.12C543.44,222.6 541.28,231.53 535.13,232.58C531.68,238.59 527.7,241.17 525.72,248.75C521.57,258.77 513.76,265.4 511.14,276.21C502.81,281.69 500.79,290.67 493.75,297.8C492.19,300.28 486.19,305.4 492.14,306.74C501.12,308.06 511.67,308.32 520.61,308.27C526.78,310.48 519.59,304.47 520.7,303.95C528.83,303.89 522.76,296.44 524.94,291.7C526.56,295.29 528.92,298.84 529.85,302.67C526.19,305.01 528.89,315.31 529.9,319.29C523.16,321.77 521.74,320.5 515.85,317.31C511.95,318.46 504.43,315.65 503.66,320.62C511.22,327.54 521.67,334.21 532.18,334.67C539.97,335.84 546.84,334.9 553.59,339.47C558.77,344.82 565.6,347.21 570.51,353.01C575.6,352.89 569.02,359.92 569.91,362.98C569.5,369.73 564.87,364.02 560.84,364.28C551.39,363.52 536.2,361.62 528.23,363.89C541.36,363.51 555.56,366.49 568.63,368.42C570.46,373.69 566.35,383.1 566.98,388.74C568.46,389 567.9,384.05 568.89,382.86C568.72,387.16 568.94,391.35 570.62,395.36C571.48,398.15 573.15,400.35 575.11,402.46C576.64,405 578.29,407.44 579.92,409.91L578.79,411.16C576.61,406.98 573.43,404.06 570.39,400.59C565.87,383.53 547.65,380.42 531.92,382.27C538.81,386.61 548.73,385.77 555.1,389.84C551.7,390.25 548.52,389.51 545.17,389.17C545.78,395.06 525.73,387.57 527.43,395.88C517.72,395.66 507.59,388.32 498.19,390.27C494.61,392.22 492.11,393.15 487.94,393.43C489.12,394.73 498.83,394.67 494.91,396.86C486.72,399.57 477.29,405.04 468.89,400.08C462.33,400.13 455.36,404.43 448.8,405.87C444.87,406.08 440.92,406.09 436.99,405.84C446.92,401.13 458.38,397.57 468.95,394.59C463.99,392.39 456.26,396.31 450.84,396.94C445.04,400.05 438.82,398.53 433.07,402.86C433.71,401.55 434.77,400.26 435,398.83C439.44,394.54 447.2,396.22 452.94,393.91C467.54,389.11 482.64,395.59 495.98,388.93C508.36,386.35 521.45,390.67 534.09,389.77C522.71,382.75 501.79,387.35 489.55,385.16C493.27,380.21 501.73,376.83 502,370.03C501.73,366.85 503.14,360.47 500.7,358.25C494.41,357.43 487.46,359.08 481.28,360.33C480.86,363.4 481.15,366.61 480.7,369.67C477.72,369.66 469.29,374.95 468.62,370.39C468.54,361.44 467.54,353.09 468.88,344C466.11,337.54 476.08,340.64 479.88,338.39C480.06,341.18 479.92,344.05 480.21,346.88C486.68,346.98 493.21,345.22 499.68,344.62C505.22,330.31 488.45,315.9 474.79,323.64C461.59,323.83 453.55,333.27 453.89,345.98C456.26,360.42 447.37,379.06 460.4,389.2C453.85,392.79 444.13,390.61 436.79,393.64C436.13,392 435.45,390.38 434.77,388.74C440.43,381.5 432.4,376.72 441.66,371.65C447.3,369.2 438.24,368.8 437.23,371.76C436.06,363.63 434.29,355.46 431.32,347.79C428.97,342.9 429.05,338.04 428.39,332.8C426.6,316.05 432.03,297.51 433.94,281.02C434.71,267.54 436.86,256.68 441.22,243.94C443.18,238.19 446.03,233.07 451.32,229.78C450.82,236.76 446.24,244 443.98,250.7C437.29,264.4 438.85,282.03 435.77,296.81C433.24,304.15 433.11,311.53 432.41,319.15C433.44,321.68 435.44,318.72 435.17,316.54C440.45,319.85 440.59,313.76 446.32,319.62C450.04,319.11 464.34,316.41 461.72,310.51C454.15,310.22 454.74,301.63 453.74,296.11C449.18,290.73 454.22,287.07 451.33,281.63C447.91,268.12 453.71,257.56 452.95,243.92C455.81,236.32 460.37,229.56 462.79,221.74C463.26,221.08 463.74,220.42 464.23,219.77C465.8,227.33 469.17,234.1 459.38,237.43C454.2,238.3 455.9,247.84 454.59,251.77C453.64,261.03 453.61,272.96 454.57,282.2C457.72,289.64 454.98,299.02 461.78,303.16C467,305.96 472.13,305.03 477.36,302.86C490.5,299.34 499.38,282.14 506.63,271.62C516.52,257.82 520.73,241.71 531.79,228.79C541.64,218.85 551.4,207.92 563.18,200.26Z" style="fill:rgb(25,33,58);fill-rule:nonzero;"/>
                <path d="M470.29,206.76C470.9,209.49 471.43,212.08 470.86,214.88C470.75,217.34 463.75,222.1 469.45,221.62C471.04,231.05 484.41,226.22 483.35,236.26C474.01,238.45 467.91,242.2 462.82,250.43C469.44,248.8 473.16,252.15 467.35,257.23C469.77,258.91 485.58,255.38 481.11,264.82C475.35,264.91 476.49,271.2 476.8,275.73C471.19,279.53 464.96,279.43 461.52,286.42C463.36,289.46 464.94,288.61 467.98,288.37C467.95,292.81 464.07,296.4 463.44,300.93C467.97,305.06 472.29,301.6 477.36,302.86C472.13,305.03 467,305.96 461.78,303.16C454.98,299.02 457.72,289.64 454.57,282.2C458.63,271.84 455.24,262.63 454.59,251.77C455.9,247.84 454.2,238.3 459.38,237.43C469.17,234.1 465.8,227.33 464.23,219.77C468.54,214.77 470.98,214.41 470.29,206.76Z" style="fill:rgb(236,209,194);fill-rule:nonzero;"/>
                <path d="M581.08,209.44C585.89,213.92 592.01,215.41 596.85,219.13C603.78,227.32 614.19,228.03 620.33,236.68C631.15,248.38 637.18,265.09 635.96,281C635.97,296.11 644.72,312.12 649.76,326.18C653.24,340.45 656.07,355.51 661.96,369.02C665.21,376.04 670.44,380.81 670.16,389C667.73,381.91 665.58,392.8 665.08,395.18C661.02,401.57 652.83,411.83 644.45,406.83C636.84,409.75 643.14,401.53 645.44,399.41C648.83,396.61 646.22,392.03 649.53,388.43C643.12,387.73 639.34,382.4 632.13,382.68C637.68,374.95 644.27,374.39 643.61,362.63C646.34,351.66 638.83,355.76 635.26,347.52C632.32,343.55 630.96,337.77 627.71,334.36C621.8,333.24 631.96,344.19 624.98,342.03C614.69,340.19 616.55,325.17 609.96,319.42C610.3,312.57 604.25,311.6 601.96,305.05C597.21,303.01 597.29,293.77 602.71,298.18C608.43,299.83 606.23,293.62 607.12,290.32C609.34,291.37 611.31,293.15 613.88,292.95C614.71,287.95 610.97,284.21 610.5,279C610.11,274.1 604.65,277.8 602.91,272.04C599.65,264.43 594.83,268.68 591.21,262.77C585.98,256.05 574.18,259.49 568.04,253.02C566.71,251.59 566.43,248.81 564.06,249.07C564.95,255.19 569.04,260.64 569.96,266.9C564.4,268.31 565.37,263.24 561.66,263.63C552.85,266 549.63,260.22 542.42,256.53C538.68,254.12 539.07,244.41 542.99,241.94C545.52,240.27 541.78,239.49 540.59,238.71C541.47,237.34 542.39,235.99 543.3,234.65C544.5,233.25 545.62,231.79 546.61,230.24L547.94,228.77C551.88,229.24 558.38,231.31 554.85,236.46C556.95,237.76 561.33,246.48 562.11,240.35C562.49,232.09 571.09,233.58 567.32,224.96C570.09,221.96 577.03,219.55 581.04,217.86C587.88,212.35 572.96,209.67 569.77,208.1C573.98,205.73 577.1,208 581.08,209.44Z" style="fill:rgb(225,181,158);fill-rule:nonzero;"/>
                <path d="M569.77,208.1C572.96,209.67 587.88,212.35 581.04,217.86C577.03,219.55 570.09,221.96 567.32,224.96C571.09,233.58 562.49,232.09 562.11,240.35C561.33,246.48 556.95,237.76 554.85,236.46C558.38,231.31 551.88,229.24 547.94,228.77C554.25,221.6 562.04,213.61 569.77,208.1Z" style="fill:rgb(195,140,108);fill-rule:nonzero;"/>
                <path d="M462.79,221.74C460.37,229.56 455.81,236.32 452.95,243.92C451.51,246.58 450.63,256.81 449.54,247.97C448.05,250.21 448.4,258.04 445.4,257.88C444.96,255.48 444.58,253.07 443.98,250.7C446.24,244 450.82,236.76 451.32,229.78C455.74,227.8 459.06,224.72 462.79,221.74Z" style="fill:rgb(93,109,141);fill-rule:nonzero;"/>
                <path d="M550.88,222.12C549.64,224.67 546.11,227.29 546.61,230.24C545.62,231.79 544.5,233.25 543.3,234.65C534.3,239.12 530.39,258.69 527.99,268C525.81,275.89 524.6,283.48 524.94,291.7C522.76,296.44 528.83,303.89 520.7,303.95C519.59,304.47 526.78,310.48 520.61,308.27C511.67,308.32 501.12,308.06 492.14,306.74C486.19,305.4 492.19,300.28 493.75,297.8C500.79,290.67 502.81,281.69 511.14,276.21C513.76,265.4 521.57,258.77 525.72,248.75C527.7,241.17 531.68,238.59 535.13,232.58C541.28,231.53 543.44,222.6 550.88,222.12Z" style="fill:rgb(32,49,90);fill-rule:nonzero;"/>
                <path d="M543.3,234.65C542.39,235.99 541.47,237.34 540.59,238.71C533.15,250.58 529.6,266.34 527.17,280.05C525.34,291.14 531.79,303.36 536.73,313.01C539.01,316.67 541.63,320.15 544.72,323.16C556.08,334.31 568.4,344.06 582.06,352.29C582.43,352.88 582.81,353.46 583.18,354.04C580.3,356.41 575.25,356.05 573.36,359.26C573.64,362.19 575.29,364.89 575.27,367.99C566.82,372.63 572.26,376.28 568.89,382.86C567.9,384.05 568.46,389 566.98,388.74C566.35,383.1 570.46,373.69 568.63,368.42C555.56,366.49 541.36,363.51 528.23,363.89C536.2,361.62 551.39,363.52 560.84,364.28C564.87,364.02 569.5,369.73 569.91,362.98C569.02,359.92 575.6,352.89 570.51,353.01C565.6,347.21 558.77,344.82 553.59,339.47C546.84,334.9 539.97,335.84 532.18,334.67C521.67,334.21 511.22,327.54 503.66,320.62C504.43,315.65 511.95,318.46 515.85,317.31C521.74,320.5 523.16,321.77 529.9,319.29C528.89,315.31 526.19,305.01 529.85,302.67C528.92,298.84 526.56,295.29 524.94,291.7C524.6,283.48 525.81,275.89 527.99,268C530.39,258.69 534.3,239.12 543.3,234.65Z" style="fill:rgb(19,18,30);fill-rule:nonzero;"/>
                <path d="M540.59,238.71C541.78,239.49 545.52,240.27 542.99,241.94C539.07,244.41 538.68,254.12 542.42,256.53C549.63,260.22 552.85,266 561.66,263.63C565.37,263.24 564.4,268.31 569.96,266.9C569.04,260.64 564.95,255.19 564.06,249.07C566.43,248.81 566.71,251.59 568.04,253.02C574.18,259.49 585.98,256.05 591.21,262.77C594.83,268.68 599.65,264.43 602.91,272.04C604.65,277.8 610.11,274.1 610.5,279C610.97,284.21 614.71,287.95 613.88,292.95C611.31,293.15 609.34,291.37 607.12,290.32C606.23,293.62 608.43,299.83 602.71,298.18C597.29,293.77 597.21,303.01 601.96,305.05C604.25,311.6 610.3,312.57 609.96,319.42C616.55,325.17 614.69,340.19 624.98,342.03C631.96,344.19 621.8,333.24 627.71,334.36C630.96,337.77 632.32,343.55 635.26,347.52C630.7,346.32 634.45,355.51 629.14,353.9C623.68,352.29 617.1,344.75 615.47,339.39C609.67,331.91 605.68,320.96 601.92,312.09C597.06,307.31 594.71,305.35 594.09,297.96C593.86,290.9 606.43,295.7 602.02,288.98C594.82,280.58 586.39,271.19 580.78,264.2C574.71,264.9 570.31,274.56 569.27,279.89C568.27,275.25 570.31,270.48 563.93,273.96C558.04,272.08 551.14,268.71 544.91,267.45C541.13,272.68 535.38,274.98 533.86,280.91C532.57,283.76 533.5,287.16 531.38,289.16C536.34,296.69 543.79,296.89 543.01,308.09C544.03,311.63 540.14,308.61 540.04,312.11C539.81,316.82 536.82,308.17 536.73,313.01C531.79,303.36 525.34,291.14 527.17,280.05C529.6,266.34 533.15,250.58 540.59,238.71Z" style="fill:rgb(207,161,136);fill-rule:nonzero;"/>
                <path d="M441.22,243.94C436.86,256.68 434.71,267.54 433.94,281.02C432.03,297.51 426.6,316.05 428.39,332.8C428.18,333.88 427.95,334.96 427.7,336.04C421.52,326.56 421.32,317.79 419.84,307.12C422.49,295.5 422.88,295.24 421.78,284.23C416.58,282.88 426.4,274.75 419.58,276.53C412.11,277.35 407.59,297.65 398.96,289.48C396.84,296.64 398.71,304.79 397.72,312.25C396.01,297.36 396.39,280.9 401.74,266.72C407.95,256.87 422.73,253.68 430.44,247.46C433.8,245.31 437,241.85 441.22,243.94Z" style="fill:rgb(225,191,171);fill-rule:nonzero;"/>
                <path d="M452.95,243.92C453.71,257.56 447.91,268.12 451.33,281.63C454.22,287.07 449.18,290.73 453.74,296.11C454.74,301.63 454.15,310.22 461.72,310.51C464.34,316.41 450.04,319.11 446.32,319.62C440.59,313.76 440.45,319.85 435.17,316.54C435.44,318.72 433.44,321.68 432.41,319.15C433.11,311.53 433.24,304.15 435.77,296.81C438.85,282.03 437.29,264.4 443.98,250.7C444.58,253.07 444.96,255.48 445.4,257.88C448.4,258.04 448.05,250.21 449.54,247.97C450.63,256.81 451.51,246.58 452.95,243.92Z" style="fill:rgb(35,54,96);fill-rule:nonzero;"/>
                <path d="M454.59,251.77C455.24,262.63 458.63,271.84 454.57,282.2C453.61,272.96 453.64,261.03 454.59,251.77Z" style="fill:rgb(139,122,121);fill-rule:nonzero;"/>
                <path d="M580.78,264.2C586.39,271.19 594.82,280.58 602.02,288.98C606.43,295.7 593.86,290.9 594.09,297.96C594.71,305.35 597.06,307.31 601.92,312.09C605.68,320.96 609.67,331.91 615.47,339.39C617.1,344.75 623.68,352.29 629.14,353.9C634.45,355.51 630.7,346.32 635.26,347.52C638.83,355.76 646.34,351.66 643.61,362.63C644.27,374.39 637.68,374.95 632.13,382.68C639.34,382.4 643.12,387.73 649.53,388.43C646.22,392.03 648.83,396.61 645.44,399.41C643.14,401.53 636.84,409.75 644.45,406.83C652.83,411.83 661.02,401.57 665.08,395.18C665.58,392.8 667.73,381.91 670.16,389C671.59,397.68 675.21,411.93 667.19,418.3C662.63,413.57 671.03,408.2 666.13,402.77C661.87,406.89 664.91,408.12 664.02,412.72C651.18,416.79 650.67,412.12 637.13,413.9C629.78,411.03 635.09,408.85 636.88,404.1C633.98,404.5 632.47,407.09 631.27,403.14C630.91,406.89 630.72,408.45 627.14,410.14C628.57,404.01 630.15,399.08 633.94,393.95C632.12,392.25 629.95,390.86 627.88,389.49C632.05,386.01 627.07,387.08 624.82,385.17C623.68,378.95 620.97,375.31 625.8,369.84C631.65,360.51 614.68,354.96 612.76,345.32C597.44,330.25 597.75,313.67 588.1,296.35C589.86,294.09 592.14,292.19 594,290.01C588.63,282.99 581.61,281.82 574.9,277.15C570.1,275.86 575.95,284.86 575.41,286.98C578.71,297.29 568.19,308.06 564.15,316.87C568.14,317.21 573.06,305.13 576.42,311.61C584.21,317.56 578.3,324.95 581.98,334C584.61,338.76 583.35,349.16 582.06,352.29C568.4,344.06 556.08,334.31 544.72,323.16C556.44,318.69 562.83,310.84 570.46,301.56C571.34,298.48 575.96,291.37 571.31,289.68C568.75,287.72 565.85,286.45 563.12,284.8C564.55,282.17 566.66,281.04 569.27,279.89C570.31,274.56 574.71,264.9 580.78,264.2Z" style="fill:rgb(202,149,115);fill-rule:nonzero;"/>
                <path d="M544.91,267.45C551.14,268.71 558.04,272.08 563.93,273.96C570.31,270.48 568.27,275.25 569.27,279.89C566.66,281.04 564.55,282.17 563.12,284.8C565.85,286.45 568.75,287.72 571.31,289.68C575.96,291.37 571.34,298.48 570.46,301.56C562.83,310.84 556.44,318.69 544.72,323.16C541.63,320.15 539.01,316.67 536.73,313.01C536.82,308.17 539.81,316.82 540.04,312.11C540.14,308.61 544.03,311.63 543.01,308.09C543.79,296.89 536.34,296.69 531.38,289.16C533.5,287.16 532.57,283.76 533.86,280.91C535.38,274.98 541.13,272.68 544.91,267.45Z" style="fill:rgb(231,183,155);fill-rule:nonzero;"/>
                <path d="M421.78,284.23C422.88,295.24 422.49,295.5 419.84,307.12C419.52,306 419.21,304.87 418.92,303.73C418.43,296.06 415.99,304.67 412.01,305.1C409.3,309.11 410.59,315.78 410.74,320.24C421.57,325.27 416.04,332.51 416.78,341.95C415.89,348.47 415.39,355.22 413.67,361.58C409.19,357.47 410.53,370.54 409.38,373.39C405.99,379.44 407.47,384.91 403.56,390.34C396.06,385.66 398.79,397.44 398.81,401.39C399.53,407.19 396,410.15 402.02,414.12C406.53,411.99 404.51,407.03 405.2,402.97C407.67,410.44 410.2,414.97 415.04,421.13C412.66,423.4 408.13,423.65 406.37,426.31C405.79,436.29 402.23,445.84 395.09,452.99C393.27,455.92 393.92,450.54 394.98,449.98C399.84,446.61 394.59,437.02 389.18,438.07C390.45,441.6 393.95,441.54 393.1,446.76C388.52,443.17 388.65,442.29 382.97,444.85C391.27,437 375.84,438.27 371.28,437.95C374.5,444.83 376.8,455.65 372.64,462.64C367.11,468.7 360.51,464.97 354.58,469.55C349.51,472.75 341.62,469.84 336.18,472.1C331.28,474.44 331.19,458.63 328.67,466.57C326.73,463.57 327.22,464.32 324.14,465.49C317.02,455.12 308.85,462.61 302.49,451.16C304.94,446.67 309.75,444.78 310.98,439.03C303.9,444.01 298.32,457.91 288.65,456.5C285.28,454.01 280.61,451.69 277.57,455.96C272.28,451.03 265.64,449.49 270.92,440.95C276.24,435.16 282.37,420.5 290.71,420.39C298.39,425.59 294,414.36 300.29,413.35C306.03,413.73 315.09,420.65 306.47,425.53C309.69,429.81 313.45,433.6 318.54,435.57C325.27,439.62 322.1,443.02 321.23,448.96C321.18,453.24 319.92,456.36 325.15,457.79C329.87,459.68 322.17,450.42 327.32,453.71C331.06,455.7 342.23,459.65 338.63,451.49C337.45,449.02 346.31,450.25 347.99,447.95C349.71,445.37 359.53,448.55 355.47,444.15C361.87,445.1 360.64,435.52 366.3,434.26C369.4,431.51 379.83,430.3 378.44,425.13C383.9,416.48 399.21,408.53 395.85,396.79C396,381.5 398.25,366.3 401.51,351.39C405.47,337.26 402.04,325.57 397.72,312.25C398.71,304.79 396.84,296.64 398.96,289.48C407.59,297.65 412.11,277.35 419.58,276.53C426.4,274.75 416.58,282.88 421.78,284.23Z" style="fill:rgb(204,158,133);fill-rule:nonzero;"/>
                <path d="M574.9,277.15C581.61,281.82 588.63,282.99 594,290.01C592.14,292.19 589.86,294.09 588.1,296.35C597.75,313.67 597.44,330.25 612.76,345.32C614.68,354.96 631.65,360.51 625.8,369.84C620.97,375.31 623.68,378.95 624.82,385.17C627.07,387.08 632.05,386.01 627.88,389.49C618.86,386.67 619.63,370.35 615.26,362.67C613.47,356.47 606.78,355.79 605.53,349C594.89,328.62 585.2,309.33 579.02,286.98C574.9,281.19 578.98,292.06 578.81,293.9C576.23,298.61 572.55,303.69 571.04,308.98C577.34,304.43 576.41,305.11 579.18,311.85C587.92,319.42 589.85,328.19 592.06,338.99C593.74,343.1 595.84,346.51 595.15,351.15C589.1,349.1 587.83,350.48 583.18,354.04C582.81,353.46 582.43,352.88 582.06,352.29C583.35,349.16 584.61,338.76 581.98,334C578.3,324.95 584.21,317.56 576.42,311.61C573.06,305.13 568.14,317.21 564.15,316.87C568.19,308.06 578.71,297.29 575.41,286.98C575.95,284.86 570.1,275.86 574.9,277.15Z" style="fill:rgb(165,109,73);fill-rule:nonzero;"/>
                <path d="M579.02,286.98C585.2,309.33 594.89,328.62 605.53,349C602.85,346.15 602.67,351.9 600.84,352.97C598.91,352.59 596.99,351.84 595.15,351.15C595.84,346.51 593.74,343.1 592.06,338.99C589.85,328.19 587.92,319.42 579.18,311.85C576.41,305.11 577.34,304.43 571.04,308.98C572.55,303.69 576.23,298.61 578.81,293.9C578.98,292.06 574.9,281.19 579.02,286.98Z" style="fill:rgb(105,52,22);fill-rule:nonzero;"/>
                <path d="M418.92,303.73C414.58,305 421.62,310.42 416.09,312.13C412.88,316.83 420.2,320.07 420.33,324.81C420.1,335.01 422.92,345.87 423.38,357.28C417.32,359.87 420.82,365.88 419.66,370.81C416.58,378.14 421.54,385.69 419.64,393.46C413.99,394.38 413.36,399.71 408.25,401.97C411.26,405.46 408.96,415.41 416.2,410.38C416.77,416.18 418.51,421.47 416.43,426.96C418.41,427.99 419.22,426.82 420.87,425.86C421.51,435.98 416.58,444.59 410.95,452.56C403.01,454.09 402.08,466.64 393.62,463.92C394.68,457.52 388.85,465.74 385.03,462.46C374.87,470.52 361.17,471.07 349.07,474.14C343.21,476.1 338.41,472.64 332.6,475.57C327.28,477.15 329.6,471.36 329.92,468.61C319.46,470.9 318.94,460.53 308.01,458.92C301.41,453.8 296.39,460.89 288.65,456.5C298.32,457.91 303.9,444.01 310.98,439.03C309.75,444.78 304.94,446.67 302.49,451.16C308.85,462.61 317.02,455.12 324.14,465.49C327.22,464.32 326.73,463.57 328.67,466.57C331.19,458.63 331.28,474.44 336.18,472.1C341.62,469.84 349.51,472.75 354.58,469.55C360.51,464.97 367.11,468.7 372.64,462.64C376.8,455.65 374.5,444.83 371.28,437.95C375.84,438.27 391.27,437 382.97,444.85C388.65,442.29 388.52,443.17 393.1,446.76C393.95,441.54 390.45,441.6 389.18,438.07C394.59,437.02 399.84,446.61 394.98,449.98C393.92,450.54 393.27,455.92 395.09,452.99C402.23,445.84 405.79,436.29 406.37,426.31C408.13,423.65 412.66,423.4 415.04,421.13C410.2,414.97 407.67,410.44 405.2,402.97C404.51,407.03 406.53,411.99 402.02,414.12C396,410.15 399.53,407.19 398.81,401.39C398.79,397.44 396.06,385.66 403.56,390.34C407.47,384.91 405.99,379.44 409.38,373.39C410.53,370.54 409.19,357.47 413.67,361.58C415.39,355.22 415.89,348.47 416.78,341.95C416.04,332.51 421.57,325.27 410.74,320.24C410.59,315.78 409.3,309.11 412.01,305.1C415.99,304.67 418.43,296.06 418.92,303.73Z" style="fill:rgb(181,133,107);fill-rule:nonzero;"/>
                <path d="M418.92,303.73C419.21,304.87 419.52,306 419.84,307.12C421.32,317.79 421.52,326.56 427.7,336.04C427.95,334.96 428.18,333.88 428.39,332.8C429.05,338.04 428.97,342.9 431.32,347.79C430.81,358.71 423.57,373.24 430.25,382.79C430.65,385.1 431.47,394.67 434.77,388.74C435.45,390.38 436.13,392 436.79,393.64C434.83,395.19 433.21,396.31 435,398.83C434.77,400.26 433.71,401.55 433.07,402.86C432.22,404.63 431.33,405.98 429.87,407.35C425.62,412.22 422.88,419.74 420.87,425.86C419.22,426.82 418.41,427.99 416.43,426.96C418.51,421.47 416.77,416.18 416.2,410.38C408.96,415.41 411.26,405.46 408.25,401.97C413.36,399.71 413.99,394.38 419.64,393.46C421.54,385.69 416.58,378.14 419.66,370.81C420.82,365.88 417.32,359.87 423.38,357.28C422.92,345.87 420.1,335.01 420.33,324.81C420.2,320.07 412.88,316.83 416.09,312.13C421.62,310.42 414.58,305 418.92,303.73Z" style="fill:rgb(148,99,71);fill-rule:nonzero;"/>
                <path d="M499.68,344.62C493.21,345.22 486.68,346.98 480.21,346.88C479.92,344.05 480.06,341.18 479.88,338.39C476.08,340.64 466.11,337.54 468.88,344C467.54,353.09 468.54,361.44 468.62,370.39C469.29,374.95 477.72,369.66 480.7,369.67C481.15,366.61 480.86,363.4 481.28,360.33C487.46,359.08 494.41,357.43 500.7,358.25C503.14,360.47 501.73,366.85 502,370.03C501.73,376.83 493.27,380.21 489.55,385.16C480.36,386.67 469.54,390.48 460.4,389.2C447.37,379.06 456.26,360.42 453.89,345.98C453.55,333.27 461.59,323.83 474.79,323.64C488.45,315.9 505.22,330.31 499.68,344.62Z" style="fill:rgb(219,198,132);fill-rule:nonzero;"/>
                <path d="M431.32,347.79C434.29,355.46 436.06,363.63 437.23,371.76C438.24,368.8 447.3,369.2 441.66,371.65C432.4,376.72 440.43,381.5 434.77,388.74C431.47,394.67 430.65,385.1 430.25,382.79C423.57,373.24 430.81,358.71 431.32,347.79Z" style="fill:rgb(101,63,41);fill-rule:nonzero;"/>
                <path d="M605.53,349C606.78,355.79 613.47,356.47 615.26,362.67C619.63,370.35 618.86,386.67 627.88,389.49C629.95,390.86 632.12,392.25 633.94,393.95C630.15,399.08 628.57,404.01 627.14,410.14C622.75,412.65 617.91,412.21 613.06,411.79C613.56,405.77 622.17,414.62 622,408.1C619.91,402.43 615.43,411.32 613.05,405.02C610.38,396.36 609.65,392.69 602.06,387.48C597.65,391.6 588.57,379.09 590.49,389.02C588.38,393.58 581.11,389.36 577.22,394.23C573.94,396.53 576.17,399.1 575.11,402.46C573.15,400.35 571.48,398.15 570.62,395.36C576.72,388.19 576.6,390.38 572.13,382.04C578.24,387.44 582.78,374.52 588.69,372.72C594.55,370.81 589.28,367.63 587.03,364.96C583.02,362.3 580.25,365.79 577.07,367.82C580.31,362.18 575.5,361.5 575.27,367.99C575.29,364.89 573.64,362.19 573.36,359.26C575.25,356.05 580.3,356.41 583.18,354.04C587.83,350.48 589.1,349.1 595.15,351.15C596.99,351.84 598.91,352.59 600.84,352.97C602.67,351.9 602.85,346.15 605.53,349Z" style="fill:rgb(223,168,142);fill-rule:nonzero;"/>
                <path d="M577.07,367.82C580.25,365.79 583.02,362.3 587.03,364.96C589.28,367.63 594.55,370.81 588.69,372.72C582.78,374.52 578.24,387.44 572.13,382.04C576.6,390.38 576.72,388.19 570.62,395.36C568.94,391.35 568.72,387.16 568.89,382.86C572.26,376.28 566.82,372.63 575.27,367.99C575.5,361.5 580.31,362.18 577.07,367.82Z" style="fill:rgb(239,217,198);fill-rule:nonzero;"/>
                <path d="M531.92,382.27C547.65,380.42 565.87,383.53 570.39,400.59C573.43,404.06 576.61,406.98 578.79,411.16C576.24,418.95 571.88,424.23 575.87,432.59C575.3,435.92 575.61,436.4 577.73,438.96C571.74,442.28 566.22,433.56 560.56,436.11C560.24,437.77 566.42,439.08 568,439.6C565.76,441.1 562.94,440.89 560.34,441.07C563.73,436.99 558.28,439.98 556.28,440.23C552.78,444.07 548.99,447.85 545.94,452.08C547.39,454.57 551.25,455.29 553.73,456.41C546.53,461.45 538.76,466.54 531.33,471.44C533.92,477.16 539.94,474.95 542.61,481.44C548.54,485.21 562.07,481.9 566.95,476.92C571.35,474.41 576.16,479.75 579.93,474.93C583.3,473.38 585.63,477.36 586.93,479.93C587.17,472.86 586.72,465.81 587.31,458.74C589.18,472.14 587.01,486.31 588.43,499.83C585.57,500.99 586.25,486.75 580.14,486.79C566.97,483.81 562.09,489.99 548.33,489.35C542.46,496.35 536.27,493.16 528.58,495.47C527.5,503.13 508.62,500.52 512,511.01C513.49,519.14 504.91,517.74 507.13,525.9C510.57,530.67 503.7,532.86 508.81,537.35C514.86,539.98 509.6,548.54 517.36,547.04C522.97,549.47 521.54,543.86 527.05,544.01C529.88,544.05 536.09,546.9 538.15,548.87C542.09,551.84 536.32,556.66 539.22,560.78C545.74,565.45 542.49,575.95 542.18,582.87C548.73,583.34 547.32,582.9 543.96,578.89C548.78,572.81 546.01,578.69 550.25,579.63C557.91,578.06 565.58,577.76 572.84,574.76C583.65,574.46 593.97,574.99 603.92,579.74L601.89,580.28C587.59,576.69 571.47,578.96 557.05,581.17C550.65,581.99 544.94,584.58 539.45,587.86C534.16,590.08 528.92,587.08 528.66,581.04C529.36,572.67 516.92,565.58 509.92,565.04C501.47,554.39 496.18,538.61 497.92,525C497.68,519.14 494.27,510.14 486.87,512.13C482.61,510.8 468.35,517.23 471.83,507.89C475.83,502.88 483.15,493.78 472.03,491.93C459.33,489.99 465.58,502.62 463.86,509.89C455.99,519.08 449.39,514.2 439.64,517.67C437.97,522.94 441.25,530.75 442.58,536.09C437.98,546.12 432.45,555.14 421.03,558.1C416.05,560.37 410.13,559.91 406.59,557.75C402.58,562.71 404.83,565.94 396.34,563.63C395.15,568.22 391.73,571.12 391.85,575.98C392.65,579.39 384.14,580.85 386.26,583.79C380.02,587.79 375.53,582.06 368.79,584.69C366.85,584.53 364.01,585.91 363.82,583.05C372.16,560.12 381.4,537.43 389.35,514.37C392.7,501.8 395.04,487.89 399.17,475.72C399.51,474.8 399.78,473.86 399.96,472.88C402.24,472.1 404.46,471.94 406.85,472.07C410.01,473.38 412.76,475.36 415.78,476.91C418.07,478.72 425.44,477.33 423.79,481.74C416.97,484.93 413.53,476.69 408.15,485.73C419.23,486.88 427.11,492.71 437.61,494.84C433.93,499.51 439.02,499.82 439.56,503.53C435.13,503.29 434.09,510.35 439.17,506.28C440.35,511.93 447.26,511.2 452,514.02C461.2,512.39 459,500.67 460,494.01C468.44,486.14 480.78,491.26 490.62,492.53C503.65,492.55 512.11,485.62 520.6,476.66C523.21,468.11 536.53,465.12 538.59,456.66C538.8,450.42 540.7,445.82 543.48,440.36C540.81,439.07 537.01,438.47 535.02,436.21C538.38,433.79 548.17,436.84 546.08,430.78C545.69,427.24 542.75,424.85 543.41,420.45C547.82,418.59 552.08,417.92 556.84,417.72C557.14,414.4 556.91,408.57 554.96,405.94C545.31,406.03 547.17,396.36 535.27,399.17C532.39,405.03 522.58,404.63 517.18,402.79C509.21,397.9 497.82,401.17 489,402.37C493.87,405.26 497.92,402.82 503.05,403.71C510.87,404.3 518.13,407.08 526.01,407.12C527.04,406.98 530.09,408.02 528.28,409.27C518.3,412.22 503.49,406.62 494.96,412.91C489.98,414.06 488.78,411.38 489.7,417.67C476.07,424.62 469.48,417.25 456.19,421.23C449.39,422.16 442.13,422.41 435.31,421.69C431.68,419.45 437.61,418.98 438.99,418.9C448.23,417.06 456.06,419.67 464.56,415.45C466.69,412.15 465.51,410.13 461.64,411.64C454.52,415.88 445.37,414.78 439.05,410.19C445.24,407.88 456.2,408.83 461.24,404.45C457.06,404.89 453.03,405.9 448.8,405.87C455.36,404.43 462.33,400.13 468.89,400.08C477.29,405.04 486.72,399.57 494.91,396.86C498.83,394.67 489.12,394.73 487.94,393.43C492.11,393.15 494.61,392.22 498.19,390.27C507.59,388.32 517.72,395.66 527.43,395.88C525.73,387.57 545.78,395.06 545.17,389.17C548.52,389.51 551.7,390.25 555.1,389.84C548.73,385.77 538.81,386.61 531.92,382.27Z" style="fill:rgb(31,46,80);fill-rule:nonzero;"/>
                <path d="M489.55,385.16C501.79,387.35 522.71,382.75 534.09,389.77C521.45,390.67 508.36,386.35 495.98,388.93C482.64,395.59 467.54,389.11 452.94,393.91C447.2,396.22 439.44,394.54 435,398.83C433.21,396.31 434.83,395.19 436.79,393.64C444.13,390.61 453.85,392.79 460.4,389.2C469.54,390.48 480.36,386.67 489.55,385.16Z" style="fill:rgb(8,11,20);fill-rule:nonzero;"/>
                <path d="M602.06,387.48C609.65,392.69 610.38,396.36 613.05,405.02C615.43,411.32 619.91,402.43 622,408.1C622.17,414.62 613.56,405.77 613.06,411.79C617.91,412.21 622.75,412.65 627.14,410.14C630.72,408.45 630.91,406.89 631.27,403.14C632.47,407.09 633.98,404.5 636.88,404.1C635.09,408.85 629.78,411.03 637.13,413.9C650.67,412.12 651.18,416.79 664.02,412.72C664.91,408.12 661.87,406.89 666.13,402.77C671.03,408.2 662.63,413.57 667.19,418.3C654.72,429.96 638,436.84 622.13,426.85C608.62,420.13 592.56,417.68 579.92,409.91C578.29,407.44 576.64,405 575.11,402.46C576.17,399.1 573.94,396.53 577.22,394.23C581.11,389.36 588.38,393.58 590.49,389.02C588.57,379.09 597.65,391.6 602.06,387.48Z" style="fill:rgb(200,133,78);fill-rule:nonzero;"/>
                <path d="M468.95,394.59C458.38,397.57 446.92,401.13 436.99,405.84C440.92,406.09 444.87,406.08 448.8,405.87C453.03,405.9 457.06,404.89 461.24,404.45C456.2,408.83 445.24,407.88 439.05,410.19C445.37,414.78 454.52,415.88 461.64,411.64C465.51,410.13 466.69,412.15 464.56,415.45C456.06,419.67 448.23,417.06 438.99,418.9C437.61,418.98 431.68,419.45 435.31,421.69C442.13,422.41 449.39,422.16 456.19,421.23C469.48,417.25 476.07,424.62 489.7,417.67C488.78,411.38 489.98,414.06 494.96,412.91C503.49,406.62 518.3,412.22 528.28,409.27C530.09,408.02 527.04,406.98 526.01,407.12C518.13,407.08 510.87,404.3 503.05,403.71C497.92,402.82 493.87,405.26 489,402.37C497.82,401.17 509.21,397.9 517.18,402.79C522.58,404.63 532.39,405.03 535.27,399.17C547.17,396.36 545.31,406.03 554.96,405.94C556.91,408.57 557.14,414.4 556.84,417.72C552.08,417.92 547.82,418.59 543.41,420.45C542.75,424.85 545.69,427.24 546.08,430.78C548.17,436.84 538.38,433.79 535.02,436.21C537.01,438.47 540.81,439.07 543.48,440.36C540.7,445.82 538.8,450.42 538.59,456.66C536.53,465.12 523.21,468.11 520.6,476.66C512.11,485.62 503.65,492.55 490.62,492.53C480.78,491.26 468.44,486.14 460,494.01C459,500.67 461.2,512.39 452,514.02C447.26,511.2 440.35,511.93 439.17,506.28C434.09,510.35 435.13,503.29 439.56,503.53C439.02,499.82 433.93,499.51 437.61,494.84C427.11,492.71 419.23,486.88 408.15,485.73C413.53,476.69 416.97,484.93 423.79,481.74C425.44,477.33 418.07,478.72 415.78,476.91C422.32,475.88 430.64,477.65 433.98,484.06C438.75,487.85 442.53,483.56 445.63,490.32C460.63,486.27 475.6,492.26 486.71,482.02C495.64,483.07 504.06,477.18 514,475.94C519.28,474.62 519.87,464.17 522.86,465.94C521.88,456.9 520.89,452.11 530.37,448.24C538.28,446.32 529.16,438.45 525.01,439.06C522.9,439.1 512.48,438.08 517.29,434.26C523.76,433 534.24,436.03 539.88,432.61C532.15,429.87 528.55,425.55 521.7,422.54C515.51,425.87 515.04,419.05 506.98,420.95C498.1,422.55 509.68,423.36 511.83,423.15C507.82,425.81 501.36,423.29 497.02,421.29C489.43,423.96 481.97,423.78 474.25,426.41C472.88,429.65 481.45,426.33 479.65,429.67C476.71,430.54 474.27,431.53 471.43,429.78C465.84,431.24 458.21,434.49 452.26,434.36C450.68,442.55 457.67,438.17 455.47,443.38C451.18,447.71 445.87,447.48 443.63,453.63C439.77,462.02 429.6,456.13 422.99,455.58C424.84,452.61 431.99,456.1 432.71,452.2C429.76,450.15 423.94,451.08 420.21,450.15C418.23,450.03 416.67,450.95 414.84,451.58C416.21,446.33 420.75,447.02 424.98,445.48C422.31,443.08 419.93,445.05 417.07,445.88C419.48,439.27 423.57,440.52 429.07,438.38C422.89,437.34 421.42,439.31 425.66,433.3C418.53,433.71 422.97,424.51 426.85,422.98C424.56,416.73 438.11,413.05 429.87,407.35C431.33,405.98 432.22,404.63 433.07,402.86C438.82,398.53 445.04,400.05 450.84,396.94C456.26,396.31 463.99,392.39 468.95,394.59Z" style="fill:rgb(35,55,100);fill-rule:nonzero;"/>
                <path d="M395.85,396.79C399.21,408.53 383.9,416.48 378.44,425.13C379.83,430.3 369.4,431.51 366.3,434.26C360.64,435.52 361.87,445.1 355.47,444.15C359.53,448.55 349.71,445.37 347.99,447.95C346.31,450.25 337.45,449.02 338.63,451.49C342.23,459.65 331.06,455.7 327.32,453.71C322.17,450.42 329.87,459.68 325.15,457.79C319.92,456.36 321.18,453.24 321.23,448.96C325.94,451.04 329.13,448.06 333.4,446.45C346.08,441.88 357.86,438.73 367.43,428.45C378.37,420.6 392.74,410.63 395.85,396.79Z" style="fill:rgb(223,199,183);fill-rule:nonzero;"/>
                <path d="M429.87,407.35C438.11,413.05 424.56,416.73 426.85,422.98C422.97,424.51 418.53,433.71 425.66,433.3C421.42,439.31 422.89,437.34 429.07,438.38C423.57,440.52 419.48,439.27 417.07,445.88C419.93,445.05 422.31,443.08 424.98,445.48C420.75,447.02 416.21,446.33 414.84,451.58C416.67,450.95 418.23,450.03 420.21,450.15C419.97,454.32 415.84,452.38 414.24,454.78C416.51,456.12 422.88,455.73 418.3,459.23C414.36,459.71 410.77,459.81 407.26,462.07C408.17,466.69 412.73,468.03 413.97,471.77C411.59,472.07 409.24,472.09 406.85,472.07C404.46,471.94 402.24,472.1 399.96,472.88C401.59,465.78 408.64,459.4 410.95,452.56C416.58,444.59 421.51,435.98 420.87,425.86C422.88,419.74 425.62,412.22 429.87,407.35Z" style="fill:rgb(106,102,125);fill-rule:nonzero;"/>
                <path d="M497.02,421.29C501.36,423.29 507.82,425.81 511.83,423.15C509.68,423.36 498.1,422.55 506.98,420.95C515.04,419.05 515.51,425.87 521.7,422.54C528.55,425.55 532.15,429.87 539.88,432.61C534.24,436.03 523.76,433 517.29,434.26C512.48,438.08 522.9,439.1 525.01,439.06C529.16,438.45 538.28,446.32 530.37,448.24C520.89,452.11 521.88,456.9 522.86,465.94C519.87,464.17 519.28,474.62 514,475.94C504.06,477.18 495.64,483.07 486.71,482.02C475.6,492.26 460.63,486.27 445.63,490.32C442.53,483.56 438.75,487.85 433.98,484.06C430.64,477.65 422.32,475.88 415.78,476.91C412.76,475.36 410.01,473.38 406.85,472.07C409.24,472.09 411.59,472.07 413.97,471.77C412.73,468.03 408.17,466.69 407.26,462.07C410.77,459.81 414.36,459.71 418.3,459.23C422.88,455.73 416.51,456.12 414.24,454.78C415.84,452.38 419.97,454.32 420.21,450.15C423.94,451.08 429.76,450.15 432.71,452.2C431.99,456.1 424.84,452.61 422.99,455.58C429.6,456.13 439.77,462.02 443.63,453.63C445.87,447.48 451.18,447.71 455.47,443.38C457.67,438.17 450.68,442.55 452.26,434.36C458.21,434.49 465.84,431.24 471.43,429.78C474.27,431.53 476.71,430.54 479.65,429.67C481.45,426.33 472.88,429.65 474.25,426.41C481.97,423.78 489.43,423.96 497.02,421.29Z" style="fill:rgb(40,66,120);fill-rule:nonzero;"/>
                <path d="M575.87,432.59C582.15,440.45 583.19,449.76 587.31,458.74C586.72,465.81 587.17,472.86 586.93,479.93C585.63,477.36 583.3,473.38 579.93,474.93C576.16,479.75 571.35,474.41 566.95,476.92C562.07,481.9 548.54,485.21 542.61,481.44C539.94,474.95 533.92,477.16 531.33,471.44C538.76,466.54 546.53,461.45 553.73,456.41C551.25,455.29 547.39,454.57 545.94,452.08C548.99,447.85 552.78,444.07 556.28,440.23C558.28,439.98 563.73,436.99 560.34,441.07C562.94,440.89 565.76,441.1 568,439.6C566.42,439.08 560.24,437.77 560.56,436.11C566.22,433.56 571.74,442.28 577.73,438.96C575.61,436.4 575.3,435.92 575.87,432.59Z" style="fill:rgb(21,26,44);fill-rule:nonzero;"/>
                <path d="M410.95,452.56C408.64,459.4 401.59,465.78 399.96,472.88C399.78,473.86 399.51,474.8 399.17,475.72C382.73,477 368.78,478.08 352,479.01C337.85,477.99 326.68,486.43 313.15,478.81C301.37,471.16 289,464.05 277.57,455.96C280.61,451.69 285.28,454.01 288.65,456.5C296.39,460.89 301.41,453.8 308.01,458.92C318.94,460.53 319.46,470.9 329.92,468.61C329.6,471.36 327.28,477.15 332.6,475.57C338.41,472.64 343.21,476.1 349.07,474.14C361.17,471.07 374.87,470.52 385.03,462.46C388.85,465.74 394.68,457.52 393.62,463.92C402.08,466.64 403.01,454.09 410.95,452.56Z" style="fill:rgb(174,118,72);fill-rule:nonzero;"/>
                <path d="M580.14,486.79C586.25,486.75 585.57,500.99 588.43,499.83C593.41,527.46 602.81,555.44 609.42,582.05C607.13,583.37 604.12,581.03 601.89,580.28L603.92,579.74C593.97,574.99 583.65,574.46 572.84,574.76C565.58,577.76 557.91,578.06 550.25,579.63C546.01,578.69 548.78,572.81 543.96,578.89C547.32,582.9 548.73,583.34 542.18,582.87C542.49,575.95 545.74,565.45 539.22,560.78C536.32,556.66 542.09,551.84 538.15,548.87C536.09,546.9 529.88,544.05 527.05,544.01C521.54,543.86 522.97,549.47 517.36,547.04C509.6,548.54 514.86,539.98 508.81,537.35C503.7,532.86 510.57,530.67 507.13,525.9C504.91,517.74 513.49,519.14 512,511.01C508.62,500.52 527.5,503.13 528.58,495.47C536.27,493.16 542.46,496.35 548.33,489.35C562.09,489.99 566.97,483.81 580.14,486.79Z" style="fill:rgb(36,57,103);fill-rule:nonzero;"/>
                <path d="M472.03,491.93C483.15,493.78 475.83,502.88 471.83,507.89C468.35,517.23 482.61,510.8 486.87,512.13C494.27,510.14 497.68,519.14 497.92,525C496.18,538.61 501.47,554.39 509.92,565.04C516.92,565.58 529.36,572.67 528.66,581.04C528.92,587.08 534.16,590.08 539.45,587.86C535.16,592.71 530.09,596.83 526.13,601.91C526.13,598.4 523.09,603.54 522.47,600.33C520.91,597.05 521.21,590.74 516.04,594.66C518.37,583.65 509.61,573.87 502.78,566.41C503.37,561.15 498.36,552.62 496.8,547.08C493.14,538.21 493.97,530.93 487.35,523.58C481.93,521.43 475.92,529.85 471.7,523.32C467.9,520.48 458.03,515.86 455.82,522.85C454.55,526.32 448.9,525.49 445.99,525.42C447.18,532.78 454.7,538.13 457.78,543.57C454.03,564.35 454.44,586.33 441.03,603.44C437.37,602.32 433.87,599.97 430.02,601.44C424.59,608.06 415.18,599.14 410.87,595.18C404.79,593.35 396.99,589.26 390.67,590.81C383.37,588.86 376.18,586.34 368.79,584.69C375.53,582.06 380.02,587.79 386.26,583.79C384.14,580.85 392.65,579.39 391.85,575.98C391.73,571.12 395.15,568.22 396.34,563.63C404.83,565.94 402.58,562.71 406.59,557.75C410.13,559.91 416.05,560.37 421.03,558.1C432.45,555.14 437.98,546.12 442.58,536.09C441.25,530.75 437.97,522.94 439.64,517.67C449.39,514.2 455.99,519.08 463.86,509.89C465.58,502.62 459.33,489.99 472.03,491.93Z" style="fill:rgb(29,34,52);fill-rule:nonzero;"/>
                <path d="M471.7,523.32C475.92,529.85 481.93,521.43 487.35,523.58C493.97,530.93 493.14,538.21 496.8,547.08C498.36,552.62 503.37,561.15 502.78,566.41C509.61,573.87 518.37,583.65 516.04,594.66C521.21,590.74 520.91,597.05 522.47,600.33C523.09,603.54 526.13,598.4 526.13,601.91C523.65,606.12 522.73,611.7 519.36,615.23C510.18,600.63 502.53,585.31 497.15,568.87C496.23,566.69 495.48,561.7 492.94,561.01C484.93,564.79 480.02,566.47 477.76,575.78C473.98,592.31 467.62,611.39 460.01,627.02C435.34,617.66 415.83,599.64 390.67,590.81C396.99,589.26 404.79,593.35 410.87,595.18C415.18,599.14 424.59,608.06 430.02,601.44C433.87,599.97 437.37,602.32 441.03,603.44C454.44,586.33 454.03,564.35 457.78,543.57C454.7,538.13 447.18,532.78 445.99,525.42C448.9,525.49 454.55,526.32 455.82,522.85C458.03,515.86 467.9,520.48 471.7,523.32Z" style="fill:rgb(25,24,25);fill-rule:nonzero;"/>
                <path d="M601.89,580.28C604.12,581.03 607.13,583.37 609.42,582.05C610.2,584.92 610.66,587.97 611.18,590.9C596.7,583.2 577.5,583.99 561.8,586.73C542.22,588.14 527.17,603.5 522.73,622.03C521.4,619.84 520.29,617.62 519.36,615.23C522.73,611.7 523.65,606.12 526.13,601.91C530.09,596.83 535.16,592.71 539.45,587.86C544.94,584.58 550.65,581.99 557.05,581.17C571.47,578.96 587.59,576.69 601.89,580.28Z" style="fill:rgb(208,188,146);fill-rule:nonzero;"/>
                <path d="M363.82,583.05C364.01,585.91 366.85,584.53 368.79,584.69C376.18,586.34 383.37,588.86 390.67,590.81C415.83,599.64 435.34,617.66 460.01,627.02C459.46,628.35 458.89,629.67 458.33,631C427.43,621.5 394.5,590.93 361.05,591.06C361.93,588.38 362.79,585.68 363.82,583.05Z" style="fill:rgb(190,164,113);fill-rule:nonzero;"/>
                <path d="M611.18,590.9C611.63,592.32 612.06,593.74 612.43,595.19C598.67,588.8 584.8,589.18 570.01,590.92C557.17,592.41 545.64,594.45 537.22,605.22C531.06,611.36 528.82,618.63 525.2,626.2C524.37,624.81 523.54,623.42 522.73,622.03C527.17,603.5 542.22,588.14 561.8,586.73C577.5,583.99 596.7,583.2 611.18,590.9Z" style="fill:rgb(40,30,22);fill-rule:nonzero;"/>
                <path d="M612.43,595.19C615.19,621.62 621.07,647.41 624.26,673.85C624.69,679.73 630.52,674.62 631.92,678.84C637.88,676.25 643.62,676.26 649.87,675.21C650.59,675.82 651.32,676.42 652.06,677C659.76,679.82 666.09,683 671.09,690.05C669.33,694.76 665.05,687.17 665.27,692.2C664.2,694.57 662.14,694.65 662.6,697.93C661.87,702.65 659.77,696.65 658.39,695.74C658.64,699.78 662.76,704.47 658.32,707.34C656.49,710.22 654.27,706.66 652.02,706.06C652.07,708.4 655.6,714.2 650.97,714.01C645.5,714.99 649.93,708.09 644.98,708.87C642.23,709.74 640.91,704.79 637.91,704.14C639.42,707.4 642.01,709.26 641.98,713.01C640.14,711.55 638.75,709.75 637.18,708.03C637.04,710.69 637.06,713.33 636.83,715.97C634.46,712.9 637.11,700.93 629.9,703.79C627.37,700.57 624.21,701.78 620.98,700.03C613.12,693.46 613.35,683.61 603.9,678.83C598.76,675.1 591.09,672.25 595.9,664.51C601.96,667.86 596.77,658.58 593.01,660.44C587.09,654.78 590.19,650.11 586,644.95C585.66,642.48 591.6,639.68 586.23,640.33C583.76,636.35 586.19,629.3 579.44,629.56C579.44,623.28 572.09,618.96 568.56,614.6C568.85,608.67 559.12,608.79 558.86,602.24C566.42,599.39 576.48,600.27 583.07,597.35C567.8,598.21 554.04,597.54 540.86,606.2C545.38,606.07 540.43,609.9 539.62,611.61C532.44,610.46 530.25,623.77 526.92,629.07C526.32,628.13 525.74,627.17 525.2,626.2C528.82,618.63 531.06,611.36 537.22,605.22C545.64,594.45 557.17,592.41 570.01,590.92C584.8,589.18 598.67,588.8 612.43,595.19Z" style="fill:rgb(222,183,149);fill-rule:nonzero;"/>
                <path d="M361.05,591.06C394.5,590.93 427.43,621.5 458.33,631C457.61,632.71 456.88,634.4 456.13,636.1C453.5,635.01 450.88,633.92 448.25,632.82C419.8,620.82 396.67,601.56 364.37,595.57C361.52,594.84 361.14,595.09 360.78,591.9L361.05,591.06Z" style="fill:rgb(38,24,13);fill-rule:nonzero;"/>
                <path d="M360.78,591.9C361.14,595.09 361.52,594.84 364.37,595.57C396.67,601.56 419.8,620.82 448.25,632.82C454.07,642.14 439.15,637.42 435.96,634.79C425,629.33 415.88,621.91 404.04,617.93C395,612.7 384.5,607.07 374,606.04C381.68,611.77 392.04,614.12 399.92,619.01C400.77,620.49 408.17,623.54 403,623.94C396.04,626.24 396.9,635.97 396.94,642.02C395.39,645.42 389.4,653.28 386.19,646.94C390.34,635.26 383.8,630.78 380.65,621.4C376.93,620.46 371.13,618.67 371.3,624.64C363.73,623.4 366.96,625.76 367.83,630.51C359.33,629.49 368.16,646.81 361.35,646.66C356.38,647.18 358.58,644.55 357.71,641.01C353.67,645.98 353.43,650.79 355.5,656.68C353.27,657.93 352.9,658.76 352.02,661.17C354.04,638.41 356.57,614.16 360.78,591.9Z" style="fill:rgb(211,166,122);fill-rule:nonzero;"/>
                <path d="M583.07,597.35C576.48,600.27 566.42,599.39 558.86,602.24C551.43,604.11 539.42,609.75 540.01,618.91C545.64,628.78 544.98,638.58 551.72,648.11C552.03,645.28 551.8,642.31 552.41,639.54C557.13,637.71 557.65,637.18 559.54,632.5C562.44,631.96 565.22,631.64 567.95,630.46C567.74,639.28 570.61,640.26 560.39,640.28C560.72,648.34 553.72,646.56 551.03,653.12C551.57,659.3 554.75,650.73 559.83,653.41C557.62,642.64 566.16,654.42 563.77,657.48C564.78,661.75 567.46,657.8 569.71,656.78C569.39,653.47 565.85,651.32 566.09,648.11C571.32,646.94 574.56,657.18 570.89,660.82C572.75,660.01 574.5,658.99 576.31,658.09C575.96,662.96 579.32,662.43 582.63,664.38C582.46,666.82 581.75,669.23 581.58,671.67C584.54,674.35 587.91,673.03 591.08,674.65C591.39,679.52 594.5,681.18 599.05,679.98C598.59,683.97 589.36,686.54 585.79,688.79C580.68,701.96 586.6,711.68 588.16,724.72C586.65,727.14 591.21,738.11 586.4,735.73C583.19,727 583.82,717.36 580.27,708.93C579.4,710.78 581.49,718.47 577.9,716.23C572.61,714.2 573.79,725.02 570.03,726.16C568.69,724.7 567.48,723.15 565.99,721.84C565.08,720.91 564.17,719.95 563.2,719.1C561.06,716.16 554.43,728.61 551.71,723.05C555.72,715.47 556.71,706.1 554.23,697.86C552.49,690.58 549.75,683.67 548.6,676.24C547.69,676.28 546.77,676.38 545.86,676.52C539.4,678.04 548.85,674.19 547.04,671.01C545.64,655.99 535.36,641.21 526.92,629.07C530.25,623.77 532.44,610.46 539.62,611.61C540.43,609.9 545.38,606.07 540.86,606.2C554.04,597.54 567.8,598.21 583.07,597.35Z" style="fill:rgb(195,140,97);fill-rule:nonzero;"/>
                <path d="M558.86,602.24C559.12,608.79 568.85,608.67 568.56,614.6C572.09,618.96 579.44,623.28 579.44,629.56C586.19,629.3 583.76,636.35 586.23,640.33C591.6,639.68 585.66,642.48 586,644.95C590.19,650.11 587.09,654.78 593.01,660.44C596.77,658.58 601.96,667.86 595.9,664.51C591.09,672.25 598.76,675.1 603.9,678.83C602.25,679.12 600.65,679.5 599.05,679.98C594.5,681.18 591.39,679.52 591.08,674.65C587.91,673.03 584.54,674.35 581.58,671.67C581.75,669.23 582.46,666.82 582.63,664.38C579.32,662.43 575.96,662.96 576.31,658.09C574.5,658.99 572.75,660.01 570.89,660.82C574.56,657.18 571.32,646.94 566.09,648.11C565.85,651.32 569.39,653.47 569.71,656.78C567.46,657.8 564.78,661.75 563.77,657.48C566.16,654.42 557.62,642.64 559.83,653.41C554.75,650.73 551.57,659.3 551.03,653.12C553.72,646.56 560.72,648.34 560.39,640.28C570.61,640.26 567.74,639.28 567.95,630.46C565.22,631.64 562.44,631.96 559.54,632.5C557.65,637.18 557.13,637.71 552.41,639.54C551.8,642.31 552.03,645.28 551.72,648.11C544.98,638.58 545.64,628.78 540.01,618.91C539.42,609.75 551.43,604.11 558.86,602.24Z" style="fill:rgb(210,157,120);fill-rule:nonzero;"/>
                <path d="M374,606.04C384.5,607.07 395,612.7 404.04,617.93C415.88,621.91 425,629.33 435.96,634.79C430.46,635.05 441.51,639.63 439.57,641.46C435.47,644.72 437.65,647.35 437.77,651.69C428.64,654.8 435.08,663.87 431.83,670.92C425.88,672.95 424.51,682.49 424.74,687.9C414.27,683.86 416.17,699.44 415.99,705.53C417.97,703.82 427.47,702.17 424.53,707C420.79,709.8 422.71,716.16 417.2,715C415,713.16 413.73,709.84 412.51,707.32C408.42,711.18 407.4,712.34 401.36,712.3C396.02,711.75 400.54,720.95 395.49,720.76C392.61,724.16 394.48,728.44 388.68,728.57C381.2,728.07 373.91,722.06 366.12,722.03C361.92,723.63 361.47,729.07 361.65,732.95C357.26,730.6 354.09,729.6 350.55,734.09C350.13,732.49 349.85,730.87 349.61,729.23C354.25,719.83 342.66,713.83 355.02,707C359.65,708.86 354.81,719.14 357.06,722.77C361.66,722.27 362.4,719.44 364.87,716.26C370.23,718.55 377.18,719.38 376.12,711.01C378.04,700.11 366.69,697.58 371.72,688.69C376.64,685.09 380.47,695.75 384.78,688.69C387.71,687.11 385.86,677.86 389.37,680.51C391.11,683.76 396.03,692.64 398.83,684.93C403.63,687.23 412.23,680.41 416.69,677.49C422.62,684.82 416.13,668.79 420.65,667.62C428.46,664.27 418.82,647.18 429.56,648.62C429.08,644.2 429.4,640.42 424.72,638.3C421.86,636.06 428.69,638.84 426.45,636.5C423.95,630.78 418.99,630.81 414.25,627.7C408.93,624.9 405.99,620.36 399.92,619.01C392.04,614.12 381.68,611.77 374,606.04Z" style="fill:rgb(190,130,89);fill-rule:nonzero;"/>
                <path d="M399.92,619.01C405.99,620.36 408.93,624.9 414.25,627.7C418.99,630.81 423.95,630.78 426.45,636.5C428.69,638.84 421.86,636.06 424.72,638.3C429.4,640.42 429.08,644.2 429.56,648.62C418.82,647.18 428.46,664.27 420.65,667.62C416.13,668.79 422.62,684.82 416.69,677.49C412.23,680.41 403.63,687.23 398.83,684.93C396.03,692.64 391.11,683.76 389.37,680.51C385.86,677.86 387.71,687.11 384.78,688.69C380.47,695.75 376.64,685.09 371.72,688.69C366.69,697.58 378.04,700.11 376.12,711.01C377.18,719.38 370.23,718.55 364.87,716.26C362.4,719.44 361.66,722.27 357.06,722.77C354.81,719.14 359.65,708.86 355.02,707C342.66,713.83 354.25,719.83 349.61,729.23C345.57,705.97 349.94,684.99 352.02,661.17C352.9,658.76 353.27,657.93 355.5,656.68C353.43,650.79 353.67,645.98 357.71,641.01C358.58,644.55 356.38,647.18 361.35,646.66C368.16,646.81 359.33,629.49 367.83,630.51C366.96,625.76 363.73,623.4 371.3,624.64C371.13,618.67 376.93,620.46 380.65,621.4C383.8,630.78 390.34,635.26 386.19,646.94C389.4,653.28 395.39,645.42 396.94,642.02C396.9,635.97 396.04,626.24 403,623.94C408.17,623.54 400.77,620.49 399.92,619.01Z" style="fill:rgb(201,144,108);fill-rule:nonzero;"/>
                <path d="M448.25,632.82C450.88,633.92 453.5,635.01 456.13,636.1C450.81,650.46 443.27,662.76 435.66,675.89C435.16,677.51 434.83,679.21 434.51,680.88C434.15,685 431.15,690.63 433.76,694.24C435.03,703.24 424.26,717.28 437.02,722.1C432.26,728.44 440.42,729.77 443.93,724.97C448.3,717.37 455.93,720.95 463.19,721C469.23,719.69 473.61,716.66 479.58,720.14C476.51,714.06 480.14,716.6 484.24,715.05C487.62,711.39 488.81,707.62 494.66,710.06C499.69,709.26 504.79,702.3 509.58,701.61C513.17,703.55 511.49,701.81 512.13,699.02C513.58,701.01 515.36,702.65 517.15,704.32C513.6,709.37 509.26,715.58 502.2,712.66C499.56,715 499.13,717.36 494.99,716.56C487.2,722.53 475.52,727.92 465.39,727.44C456.99,732.22 444.9,735.05 435.32,733.65C430.56,731.13 425.94,727.6 421.31,724.69C414.41,718.94 417.68,730.35 408.11,726.79C402.54,721.42 402.18,730.09 401.63,733.7C395.53,733.46 390.56,736.07 384.76,736.65C375.97,737.52 357.92,734.85 360.94,748.97L360.06,748.83C359.46,748.22 358.85,747.6 358.25,746.99C357.65,746.34 357.05,745.69 356.45,745.04C354.99,743.01 353.53,740.99 352.16,738.91C351.58,737.31 351,735.73 350.55,734.09C354.09,729.6 357.26,730.6 361.65,732.95C361.47,729.07 361.92,723.63 366.12,722.03C373.91,722.06 381.2,728.07 388.68,728.57C394.48,728.44 392.61,724.16 395.49,720.76C400.54,720.95 396.02,711.75 401.36,712.3C407.4,712.34 408.42,711.18 412.51,707.32C413.73,709.84 415,713.16 417.2,715C422.71,716.16 420.79,709.8 424.53,707C427.47,702.17 417.97,703.82 415.99,705.53C416.17,699.44 414.27,683.86 424.74,687.9C424.51,682.49 425.88,672.95 431.83,670.92C435.08,663.87 428.64,654.8 437.77,651.69C437.65,647.35 435.47,644.72 439.57,641.46C441.51,639.63 430.46,635.05 435.96,634.79C439.15,637.42 454.07,642.14 448.25,632.82Z" style="fill:rgb(174,115,72);fill-rule:nonzero;"/>
                <path d="M680.15,643.8C669.41,643.49 662.39,643.79 653.87,650.93C657.3,641.94 672.67,639.53 680.15,643.8Z" style="fill:rgb(126,126,123);fill-rule:nonzero;"/>
                <path d="M680.15,643.8C696.03,652.44 701.69,674.57 715.74,686.26C725.66,694.27 730.71,705.06 728.66,717.92C728.28,718.93 727.88,719.94 727.46,720.94L727.01,721.65C718.62,716.15 723.26,708.11 719.09,702.46C720.19,699.48 718.07,699.49 716.42,697.53C715.15,694.39 716.25,689.06 713.36,686.81C711.37,686.26 708.39,687.51 706.69,686.35C705.5,680.18 704.03,675.04 700.08,670C700.29,675.05 701.89,679.79 702.02,684.83C699.45,683.97 693.4,677.49 695.67,684.33C689.8,677.83 684.16,675.01 676.93,670.14C674.98,669.54 673.03,675.45 670.97,673.13C668.58,671.04 664.21,671.07 666.43,667.13C657.39,663.53 663.29,671.13 655.23,673.34C652.2,673.84 656.42,676.57 657.08,677.78C655.4,677.58 653.73,677.31 652.06,677C651.32,676.42 650.59,675.82 649.87,675.21C651.05,667.18 649.91,657.98 653.87,650.93C662.39,643.79 669.41,643.49 680.15,643.8Z" style="fill:rgb(51,50,45);fill-rule:nonzero;"/>
                <path d="M666.43,667.13C664.21,671.07 668.58,671.04 670.97,673.13C673.03,675.45 674.98,669.54 676.93,670.14C684.16,675.01 689.8,677.83 695.67,684.33C698.34,687.31 701.11,690.53 702.88,694.14C703.54,698.42 701.09,703.17 702.24,707.72C705.46,712.51 705.48,701.39 707.7,700C710,704.52 706.7,707.38 707.21,711.69C711.25,716.8 710.72,704.94 714.87,706.34C717.73,706.95 717.63,704.21 719.09,702.46C723.26,708.11 718.62,716.15 727.01,721.65C726.82,723.46 726.57,725.26 726.26,727.05C724.57,728.78 722.89,730.48 720.97,731.94C717.06,732.39 713.15,732.88 709.24,733.28C702.29,732.18 693.79,734.76 687.98,730.83C686.44,729.22 684.77,732.73 683.47,733.46C677.17,738.84 670.59,736.31 662.75,737.41C665.48,734.36 668.83,732.59 670.91,728.79C673.28,727.91 676.01,727.05 678.01,725.48C686.81,717.6 685.05,705.71 687.39,694.95C690.09,703.86 691.5,711.59 691.2,720.96C694.94,721.19 695.58,713.66 695.99,711.02C696.44,695.55 687.89,684.1 673.12,679.7C667.9,678.54 662.38,678.51 657.08,677.78C656.42,676.57 652.2,673.84 655.23,673.34C663.29,671.13 657.39,663.53 666.43,667.13Z" style="fill:rgb(33,29,21);fill-rule:nonzero;"/>
                <path d="M700.08,670C704.03,675.04 705.5,680.18 706.69,686.35C708.39,687.51 711.37,686.26 713.36,686.81C716.25,689.06 715.15,694.39 716.42,697.53C718.07,699.49 720.19,699.48 719.09,702.46C717.63,704.21 717.73,706.95 714.87,706.34C710.72,704.94 711.25,716.8 707.21,711.69C706.7,707.38 710,704.52 707.7,700C705.48,701.39 705.46,712.51 702.24,707.72C701.09,703.17 703.54,698.42 702.88,694.14C701.11,690.53 698.34,687.31 695.67,684.33C693.4,677.49 699.45,683.97 702.02,684.83C701.89,679.79 700.29,675.05 700.08,670Z" style="fill:rgb(114,101,75);fill-rule:nonzero;"/>
                <path d="M435.66,675.89C435.01,680.61 441.25,677.2 444,677.98C464.84,678.28 485.22,679.99 506.62,678.61C510.39,678.49 515.55,676.01 518.93,678.01C513.36,678.46 511.27,682.92 505.77,682.07C503.51,679.18 504.45,679.78 502.42,682.39C492.01,681.61 482.41,685.45 472,683.02C460.28,685.75 449.56,680.13 437.73,682.53C435.78,682.57 435.31,683.11 434.51,680.88C434.83,679.21 435.16,677.51 435.66,675.89Z" style="fill:rgb(216,189,167);fill-rule:nonzero;"/>
                <path d="M548.6,676.24C549.75,683.67 552.49,690.58 554.23,697.86C553.96,702.08 553.08,706.18 551.04,709.91C543.55,709.7 545.55,709.71 544.34,702.76C543.64,699.24 543.44,694 540.77,691.38C534.26,691.13 528.47,694.41 522.07,693.73C523.06,689.19 535.73,688.68 539.91,688.68C539.1,684.35 536.32,681.54 533.04,678.86C536.93,679.31 537.84,679.55 540.14,682.74C543.21,683.8 552.2,679.56 545.86,676.52C546.77,676.38 547.69,676.28 548.6,676.24Z" style="fill:rgb(224,192,175);fill-rule:nonzero;"/>
                <path d="M533.04,678.86C536.32,681.54 539.1,684.35 539.91,688.68C535.73,688.68 523.06,689.19 522.07,693.73C528.47,694.41 534.26,691.13 540.77,691.38C543.44,694 543.64,699.24 544.34,702.76C544.31,708.25 543.71,716.27 538.4,719.39C531.74,721.34 523.85,718.22 516.81,718.37C507.35,719.38 520.95,707.57 517.15,704.32C515.36,702.65 513.58,701.01 512.13,699.02C511.66,695.37 521.29,697.45 519.92,692.07C516.7,692.14 514.24,693.68 511.22,694.58C510,690.32 506.31,686.17 505.77,682.07C511.27,682.92 513.36,678.46 518.93,678.01C523.59,680.19 527.93,676.72 533.04,678.86Z" style="fill:rgb(159,47,30);fill-rule:nonzero;"/>
                <path d="M652.06,677C653.73,677.31 655.4,677.58 657.08,677.78C662.38,678.51 667.9,678.54 673.12,679.7C671.97,680 670.84,680.33 669.72,680.68C666.53,680.72 670.58,683.65 670.85,685.06C673.53,695.06 680.84,698.9 676.02,710.02C673.71,714.14 673.1,719.09 669.94,711.84C666.03,723.29 649.32,726.83 639.53,728.92C634.77,739.3 641.29,723.01 632.74,724.14C632.86,717.56 632.24,710.51 629.9,703.79C637.11,700.93 634.46,712.9 636.83,715.97C637.06,713.33 637.04,710.69 637.18,708.03C638.75,709.75 640.14,711.55 641.98,713.01C642.01,709.26 639.42,707.4 637.91,704.14C640.91,704.79 642.23,709.74 644.98,708.87C649.93,708.09 645.5,714.99 650.97,714.01C655.6,714.2 652.07,708.4 652.02,706.06C654.27,706.66 656.49,710.22 658.32,707.34C662.76,704.47 658.64,699.78 658.39,695.74C659.77,696.65 661.87,702.65 662.6,697.93C662.14,694.65 664.2,694.57 665.27,692.2C665.05,687.17 669.33,694.76 671.09,690.05C666.09,683 659.76,679.82 652.06,677Z" style="fill:rgb(198,148,103);fill-rule:nonzero;"/>
                <path d="M603.9,678.83C613.35,683.61 613.12,693.46 620.98,700.03C624.21,701.78 627.37,700.57 629.9,703.79C632.24,710.51 632.86,717.56 632.74,724.14C641.29,723.01 634.77,739.3 639.53,728.92C641.44,737.85 634.59,737.35 628.19,738.34C625.14,740.19 619.09,743.74 617.52,738.4C615.95,731.68 603.37,737.38 600.25,733.86C599.68,728.31 592.48,726.75 588.16,724.72C586.6,711.68 580.68,701.96 585.79,688.79C589.36,686.54 598.59,683.97 599.05,679.98C600.65,679.5 602.25,679.12 603.9,678.83Z" style="fill:rgb(177,125,74);fill-rule:nonzero;"/>
                <path d="M505.77,682.07C506.31,686.17 510,690.32 511.22,694.58C514.24,693.68 516.7,692.14 519.92,692.07C521.29,697.45 511.66,695.37 512.13,699.02C511.49,701.81 513.17,703.55 509.58,701.61C504.79,702.3 499.69,709.26 494.66,710.06C488.81,707.62 487.62,711.39 484.24,715.05C480.14,716.6 476.51,714.06 479.58,720.14C473.61,716.66 469.23,719.69 463.19,721C455.93,720.95 448.3,717.37 443.93,724.97C440.42,729.77 432.26,728.44 437.02,722.1C424.26,717.28 435.03,703.24 433.76,694.24C431.15,690.63 434.15,685 434.51,680.88C435.31,683.11 435.78,682.57 437.73,682.53C449.56,680.13 460.28,685.75 472,683.02C482.41,685.45 492.01,681.61 502.42,682.39C504.45,679.78 503.51,679.18 505.77,682.07Z" style="fill:rgb(197,150,114);fill-rule:nonzero;"/>
                <path d="M673.12,679.7C687.89,684.1 696.44,695.55 695.99,711.02C695.58,713.66 694.94,721.19 691.2,720.96C691.5,711.59 690.09,703.86 687.39,694.95C685.05,705.71 686.81,717.6 678.01,725.48C672.45,723.67 686.07,714.24 683.33,709.66C679.73,704.22 684.81,698.7 682.35,692.64C680.25,686.44 674.92,683.91 669.72,680.68C670.84,680.33 671.97,680 673.12,679.7Z" style="fill:rgb(215,196,183);fill-rule:nonzero;"/>
                <path d="M669.72,680.68C674.92,683.91 680.25,686.44 682.35,692.64C684.81,698.7 679.73,704.22 683.33,709.66C686.07,714.24 672.45,723.67 678.01,725.48C676.01,727.05 673.28,727.91 670.91,728.79C664.53,730.55 662.66,736.79 654.99,736.08C646.11,736.26 641.79,738.75 635.21,744.2C620.74,750.13 610.35,745.06 595.93,744.28C591.82,744.04 588.37,742.39 584.77,740.57C582.73,738.91 580.59,737.47 578.26,736.24C573.54,732.66 566.55,728.32 565.99,721.84C567.48,723.15 568.69,724.7 570.03,726.16C573.79,725.02 572.61,714.2 577.9,716.23C581.49,718.47 579.4,710.78 580.27,708.93C583.82,717.36 583.19,727 586.4,735.73C591.21,738.11 586.65,727.14 588.16,724.72C592.48,726.75 599.68,728.31 600.25,733.86C603.37,737.38 615.95,731.68 617.52,738.4C619.09,743.74 625.14,740.19 628.19,738.34C634.59,737.35 641.44,737.85 639.53,728.92C649.32,726.83 666.03,723.29 669.94,711.84C673.1,719.09 673.71,714.14 676.02,710.02C680.84,698.9 673.53,695.06 670.85,685.06C670.58,683.65 666.53,680.72 669.72,680.68Z" style="fill:rgb(158,96,45);fill-rule:nonzero;"/>
                <path d="M554.23,697.86C556.71,706.1 555.72,715.47 551.71,723.05C547.52,729.44 544.29,730.09 536.93,729.19C534.76,727.84 532.71,726.37 530.7,724.8C540.12,723.41 547.67,719.23 551.04,709.91C553.08,706.18 553.96,702.08 554.23,697.86Z" style="fill:rgb(30,18,9);fill-rule:nonzero;"/>
                <path d="M597.83,700.51C604.22,702.17 608.35,704.36 612.82,709.22C616.19,714.16 628.32,715.54 625.96,723.57C621.92,722.39 618.47,720.27 614.85,718.24C615.58,722.8 625.55,725.24 620.33,729.33C614.94,735.79 605.43,723.66 605.55,718.47C599.61,718.2 600.95,713.9 598.32,709.87C601.66,709.97 603.98,711.74 606.94,712.99C603.79,706.99 597.27,708.6 597.83,700.51Z" style="fill:rgb(200,152,105);fill-rule:nonzero;"/>
                <path d="M544.34,702.76C545.55,709.71 543.55,709.7 551.04,709.91C547.67,719.23 540.12,723.41 530.7,724.8C513.65,719.6 491.31,731.32 474.7,736.16C473.49,736.45 472.28,736.71 471.06,736.98L469.05,737C474.87,729.35 462.16,736.06 459.84,736.89C449.33,739.75 437.59,739.2 427.1,741.09C418.78,750.21 410.52,744.69 400.41,749.45C397.66,749.63 391.27,752.06 392.52,747.15C382.8,748.03 372.45,747.55 362.52,749.95C361.99,749.62 361.47,749.29 360.94,748.97C357.92,734.85 375.97,737.52 384.76,736.65C390.56,736.07 395.53,733.46 401.63,733.7C402.18,730.09 402.54,721.42 408.11,726.79C417.68,730.35 414.41,718.94 421.31,724.69C425.94,727.6 430.56,731.13 435.32,733.65C444.9,735.05 456.99,732.22 465.39,727.44C475.52,727.92 487.2,722.53 494.99,716.56C499.13,717.36 499.56,715 502.2,712.66C509.26,715.58 513.6,709.37 517.15,704.32C520.95,707.57 507.35,719.38 516.81,718.37C523.85,718.22 531.74,721.34 538.4,719.39C543.71,716.27 544.31,708.25 544.34,702.76Z" style="fill:rgb(150,93,45);fill-rule:nonzero;"/>
                <path d="M563.2,719.1C562.54,723.04 559.59,727.05 556.6,729.57C554.02,731.23 546.34,729.71 547.51,734.1C545.49,739.38 555.99,736.87 553.41,732.15C563.31,730.45 567.52,740.3 578.26,736.24C580.59,737.47 582.73,738.91 584.77,740.57C589.29,749.24 600.28,749.08 608.98,749.95C640.3,749.86 664.01,742.67 693.79,735.67C699.29,734.59 704.07,736.38 709.24,733.28C713.15,732.88 717.06,732.39 720.97,731.94C711.8,740.71 696.2,736.86 684,740.99C665.75,745.51 647.82,749.45 629,751C613.63,752.87 595.95,752.98 581.64,746.36C572.78,743.71 563.3,740.58 553.98,740.93C546.08,741.26 547.68,739.82 543.02,734.98C542.11,734.31 541.18,733.67 540.26,733.02C539.15,731.74 538.06,730.44 536.93,729.19C544.29,730.09 547.52,729.44 551.71,723.05C554.43,728.61 561.06,716.16 563.2,719.1Z" style="fill:rgb(106,101,93);fill-rule:nonzero;"/>
                <path d="M728.66,717.92C730.72,722.76 736.5,721.13 737.48,727.6C738.51,738 728.35,742.06 720.33,745.28C702.3,748.48 685.04,751.65 666.82,753.66C638.15,756.95 601.75,766.21 574.41,754.47C561.21,752.75 548.85,753.86 535.66,754.29C506.18,756.36 477.53,758.06 448.02,760.89C414.87,762.99 379.61,766.76 346.97,760.06C339.95,759.19 338.64,750.56 343.8,746.83C346.85,743.21 354.37,744.76 352.16,738.91C353.53,740.99 354.99,743.01 356.45,745.04C354.16,749.12 346.68,746.8 347.45,753.78C357.73,762.06 376.53,759.46 389,760C427.21,761.78 464.14,754.61 502.01,751.13C510.17,750.5 517.99,748.9 526,747.9C541.86,750.54 557.95,747.23 573.63,750.4C586.77,754.15 599.01,758.33 613.02,756.99C648.52,754.08 684.09,747.24 719.2,741.26C729.01,737.63 736.46,730.81 727.46,720.94C727.88,719.94 728.28,718.93 728.66,717.92Z" style="fill:rgb(228,228,228);fill-rule:nonzero;"/>
                <path d="M563.2,719.1C564.17,719.95 565.08,720.91 565.99,721.84C566.55,728.32 573.54,732.66 578.26,736.24C567.52,740.3 563.31,730.45 553.41,732.15C555.99,736.87 545.49,739.38 547.51,734.1C546.34,729.71 554.02,731.23 556.6,729.57C559.59,727.05 562.54,723.04 563.2,719.1Z" style="fill:rgb(25,13,6);fill-rule:nonzero;"/>
                <path d="M727.01,721.65L727.46,720.94C736.46,730.81 729.01,737.63 719.2,741.26C684.09,747.24 648.52,754.08 613.02,756.99C599.01,758.33 586.77,754.15 573.63,750.4C557.95,747.23 541.86,750.54 526,747.9C517.99,748.9 510.17,750.5 502.01,751.13C464.14,754.61 427.21,761.78 389,760C376.53,759.46 357.73,762.06 347.45,753.78C346.68,746.8 354.16,749.12 356.45,745.04C357.05,745.69 357.65,746.34 358.25,746.99C356.93,748.71 350.43,751.7 354.36,753.64C363.2,758.99 376.87,757.4 386.98,759C416.74,758.22 449.85,756.66 478.44,747.6C480.83,746.78 484.9,745.93 483.73,742.47C478.21,740.34 472.78,739.84 466.91,739.74C468.2,738.67 469.61,737.79 471.06,736.98C472.28,736.71 473.49,736.45 474.7,736.16C488.06,738.87 502.31,737.2 515.98,739.98C527.41,741.91 529.67,734.5 540.26,733.02C541.18,733.67 542.11,734.31 543.02,734.98C537.12,738.78 540.53,743.13 546.15,743.75C563.55,744.13 579.17,749.31 595.8,753.31C636.13,757.46 670.89,744.7 709.07,740.27C715.12,739.79 729.11,735.51 726.26,727.05C726.57,725.26 726.82,723.46 727.01,721.65Z" style="fill:rgb(196,196,195);fill-rule:nonzero;"/>
                <path d="M530.7,724.8C532.71,726.37 534.76,727.84 536.93,729.19C538.06,730.44 539.15,731.74 540.26,733.02C529.67,734.5 527.41,741.91 515.98,739.98C502.31,737.2 488.06,738.87 474.7,736.16C491.31,731.32 513.65,719.6 530.7,724.8Z" style="fill:rgb(238,235,230);fill-rule:nonzero;"/>
                <path d="M726.26,727.05C729.11,735.51 715.12,739.79 709.07,740.27C670.89,744.7 636.13,757.46 595.8,753.31C579.17,749.31 563.55,744.13 546.15,743.75C540.53,743.13 537.12,738.78 543.02,734.98C547.68,739.82 546.08,741.26 553.98,740.93C563.3,740.58 572.78,743.71 581.64,746.36C595.95,752.98 613.63,752.87 629,751C647.82,749.45 665.75,745.51 684,740.99C696.2,736.86 711.8,740.71 720.97,731.94C722.89,730.48 724.57,728.78 726.26,727.05Z" style="fill:rgb(148,148,148);fill-rule:nonzero;"/>
                <path d="M670.91,728.79C668.83,732.59 665.48,734.36 662.75,737.41C670.59,736.31 677.17,738.84 683.47,733.46C684.77,732.73 686.44,729.22 687.98,730.83C693.79,734.76 702.29,732.18 709.24,733.28C704.07,736.38 699.29,734.59 693.79,735.67C664.01,742.67 640.3,749.86 608.98,749.95C600.28,749.08 589.29,749.24 584.77,740.57C588.37,742.39 591.82,744.04 595.93,744.28C610.35,745.06 620.74,750.13 635.21,744.2C641.79,738.75 646.11,736.26 654.99,736.08C662.66,736.79 664.53,730.55 670.91,728.79Z" style="fill:rgb(83,66,48);fill-rule:nonzero;"/>
                <path d="M469.05,737C465.92,737.83 462.92,739 459.85,740.01C451.26,740.68 449.65,747.42 441.84,748.84C422.02,753.73 402.3,754.67 381.98,753.95C376,752.74 367.39,753.68 362.52,749.95C372.45,747.55 382.8,748.03 392.52,747.15C391.27,752.06 397.66,749.63 400.41,749.45C410.52,744.69 418.78,750.21 427.1,741.09C437.59,739.2 449.33,739.75 459.84,736.89C462.16,736.06 474.87,729.35 469.05,737Z" style="fill:rgb(91,63,39);fill-rule:nonzero;"/>
                <path d="M469.05,737L471.06,736.98C469.61,737.79 468.2,738.67 466.91,739.74C472.78,739.84 478.21,740.34 483.73,742.47C484.9,745.93 480.83,746.78 478.44,747.6C449.85,756.66 416.74,758.22 386.98,759C376.87,757.4 363.2,758.99 354.36,753.64C350.43,751.7 356.93,748.71 358.25,746.99C358.85,747.6 359.46,748.22 360.06,748.83C359.28,754.39 363.07,753.64 367.04,754.99C397.24,759.3 429.69,756.01 459.15,748.21C461.81,747.4 464.08,746.41 465.87,744.2C464.24,742.96 458.14,742.78 459.85,740.01C462.92,739 465.92,737.83 469.05,737Z" style="fill:rgb(157,156,154);fill-rule:nonzero;"/>
                <path d="M459.85,740.01C458.14,742.78 464.24,742.96 465.87,744.2C464.08,746.41 461.81,747.4 459.15,748.21C429.69,756.01 397.24,759.3 367.04,754.99C363.07,753.64 359.28,754.39 360.06,748.83L360.94,748.97C361.47,749.29 361.99,749.62 362.52,749.95C367.39,753.68 376,752.74 381.98,753.95C402.3,754.67 422.02,753.73 441.84,748.84C449.65,747.42 451.26,740.68 459.85,740.01Z" style="fill:rgb(109,107,104);fill-rule:nonzero;"/>
            </g>
        </g>
    </g>
</svg>
