<?xml version="1.0" encoding="UTF-8" standalone="no"?>
<!DOCTYPE svg PUBLIC "-//W3C//DTD SVG 1.1//EN" "http://www.w3.org/Graphics/SVG/1.1/DTD/svg11.dtd">
<svg width="100%" height="100%" viewBox="0 0 1729 1728" version="1.1" xmlns="http://www.w3.org/2000/svg" xmlns:xlink="http://www.w3.org/1999/xlink" xml:space="preserve" xmlns:serif="http://www.serif.com/" style="fill-rule:evenodd;clip-rule:evenodd;stroke-linejoin:round;stroke-miterlimit:2;">
    <g transform="matrix(1,0,0,1,-3696,-2084)">
        <g id="_10" serif:id="10" transform="matrix(1,0,0,1,3696.834324,2084)">
            <rect x="0" y="0" width="1728" height="1728" style="fill:none;"/>
            <g transform="matrix(1.261731,-2.185382,2.185382,1.261731,-292.600724,1446.38809)">
                <g>
                    <path d="M449.97,156.19C455.59,155.18 460.75,156.82 465.75,159.25C471.47,162.08 477.06,165.19 482.59,168.38C487.43,171.16 491.82,174.57 496.58,177.45C501.29,180.39 507.58,181.12 513,181.61C517.62,181.96 522.44,182.56 527.07,182.07C528.63,181.92 530.04,180.55 531.36,179.77C532.18,180.81 533,181.86 533.82,182.91C529.92,187.93 524.81,191.23 519.4,194.4C511.78,198.71 502.83,202.89 494,203.48C487.75,204.03 483.98,200.16 478.03,199.35C474.07,198.7 470.02,200.33 466.16,199.76C463.38,199.1 462.02,196.91 460.4,194.79C460.6,202.25 460.84,209.63 461.98,217.02C462.07,219.32 463.07,222.77 461.25,224.53C459.9,223.73 458.64,222.79 457.4,221.84C464.77,236.21 465.69,251.95 470.79,268.11C474.18,269.24 477.98,270.16 481.04,272.04C484.05,273.97 485.79,277.49 487.42,280.56C489.2,284.09 491.18,287.56 492.68,291.21C494.39,295.45 494.44,299.58 494.8,304.06C507.88,309.71 521.9,313.26 534.94,318.99C536.9,319.98 539.8,321.28 540.72,323.4C541.68,327.63 539.86,331.9 537.14,335.1C532.98,340.02 526.67,343.37 520.78,345.76C509.03,350.46 496.04,352.71 483.45,353.49C481.55,358.87 480.32,364.92 475.95,368.93C471.29,373.16 464.92,375.81 459.17,378.22C454.67,380.16 449.8,380.5 445.21,382.02C438.97,386.66 433.61,392.83 426.86,396.93C422.97,399.21 418.66,400.39 415.06,403.07C412.42,405.02 410.4,407.2 407.22,408.35C400.81,410.66 393.79,411.54 387,411.7C379.74,411.78 371.47,410.75 365.23,406.74C360.89,404.01 359.17,399.99 355.46,396.53C350.37,391.66 346.16,386.06 343.53,379.48C341.16,373.22 340.33,366.57 339.48,360C339.28,356.99 337.06,354.96 335.5,352.49C331.16,346.39 329.68,338.87 328.18,331.68C317.75,327.8 309.15,321.81 299.24,316.77C291,312.82 282.96,306.93 277.65,299.44C274.83,292.88 279.16,283.5 285.43,280.38C298.43,273.39 313.52,269.12 327.78,265.52C330.94,264.67 334.16,264.15 337.41,263.77C340.3,258.2 345.13,255.46 350.07,252.03C351.94,250.86 352.31,249.07 353.11,247.17C355.25,241.4 358.1,234.93 362.61,230.61C364.72,228.51 367.48,227.53 369.79,225.77C372.3,222.92 374.11,219.39 376.23,216.24C384.6,202.92 394.14,190.41 405.33,179.33C411.83,172.29 420.25,169.04 428.57,164.57C435.29,161.34 442.57,157.43 449.97,156.19Z" style="fill:rgb(0,28,61);fill-rule:nonzero;"/>
                    <clipPath id="_clip1">
                        <path d="M449.97,156.19C455.59,155.18 460.75,156.82 465.75,159.25C471.47,162.08 477.06,165.19 482.59,168.38C487.43,171.16 491.82,174.57 496.58,177.45C501.29,180.39 507.58,181.12 513,181.61C517.62,181.96 522.44,182.56 527.07,182.07C528.63,181.92 530.04,180.55 531.36,179.77C532.18,180.81 533,181.86 533.82,182.91C529.92,187.93 524.81,191.23 519.4,194.4C511.78,198.71 502.83,202.89 494,203.48C487.75,204.03 483.98,200.16 478.03,199.35C474.07,198.7 470.02,200.33 466.16,199.76C463.38,199.1 462.02,196.91 460.4,194.79C460.6,202.25 460.84,209.63 461.98,217.02C462.07,219.32 463.07,222.77 461.25,224.53C459.9,223.73 458.64,222.79 457.4,221.84C464.77,236.21 465.69,251.95 470.79,268.11C474.18,269.24 477.98,270.16 481.04,272.04C484.05,273.97 485.79,277.49 487.42,280.56C489.2,284.09 491.18,287.56 492.68,291.21C494.39,295.45 494.44,299.58 494.8,304.06C507.88,309.71 521.9,313.26 534.94,318.99C536.9,319.98 539.8,321.28 540.72,323.4C541.68,327.63 539.86,331.9 537.14,335.1C532.98,340.02 526.67,343.37 520.78,345.76C509.03,350.46 496.04,352.71 483.45,353.49C481.55,358.87 480.32,364.92 475.95,368.93C471.29,373.16 464.92,375.81 459.17,378.22C454.67,380.16 449.8,380.5 445.21,382.02C438.97,386.66 433.61,392.83 426.86,396.93C422.97,399.21 418.66,400.39 415.06,403.07C412.42,405.02 410.4,407.2 407.22,408.35C400.81,410.66 393.79,411.54 387,411.7C379.74,411.78 371.47,410.75 365.23,406.74C360.89,404.01 359.17,399.99 355.46,396.53C350.37,391.66 346.16,386.06 343.53,379.48C341.16,373.22 340.33,366.57 339.48,360C339.28,356.99 337.06,354.96 335.5,352.49C331.16,346.39 329.68,338.87 328.18,331.68C317.75,327.8 309.15,321.81 299.24,316.77C291,312.82 282.96,306.93 277.65,299.44C274.83,292.88 279.16,283.5 285.43,280.38C298.43,273.39 313.52,269.12 327.78,265.52C330.94,264.67 334.16,264.15 337.41,263.77C340.3,258.2 345.13,255.46 350.07,252.03C351.94,250.86 352.31,249.07 353.11,247.17C355.25,241.4 358.1,234.93 362.61,230.61C364.72,228.51 367.48,227.53 369.79,225.77C372.3,222.92 374.11,219.39 376.23,216.24C384.6,202.92 394.14,190.41 405.33,179.33C411.83,172.29 420.25,169.04 428.57,164.57C435.29,161.34 442.57,157.43 449.97,156.19Z" clip-rule="nonzero"/>
                    </clipPath>
                    <g clip-path="url(#_clip1)">
                        <path d="M449.03,162.94C454.91,161.7 460.69,163.99 464.79,168.21C471,174.48 478.67,178.53 486.4,182.63C491.78,185.36 496.79,188.06 502.98,188.19C509.38,188.31 515.79,187.23 522.2,187.15C515.55,192.52 506.35,194.24 498.04,192.98C490.49,191.49 483.43,188.7 476.22,186.61C472.38,185.47 468.24,184.94 464.53,183.43C461.26,181.99 458.96,179.31 456.51,176.8C454.76,181.8 453.08,186.66 452.52,191.97C452.14,195.87 451.82,199.72 450.57,203.46C445.07,199.44 440.5,194.52 434.39,191.28C436.04,197.51 438.4,203.42 439.56,209.78C440.99,216.26 441.09,222.85 442.79,229.27C444.24,234.91 443.9,240.36 443.46,246.09C436.55,242.28 430.82,236.75 423.91,233.01C417.92,230.25 411.27,228.76 404.94,226.97C397.56,224.69 390.2,226.79 382.24,226.05C384.15,219.45 388.36,214.67 391.9,208.95C396.56,201.97 400.91,194.66 406.13,188.08C411.24,181.66 418.57,177.75 425.43,173.43C432.68,169.19 440.73,164.56 449.03,162.94Z" style="fill:white;fill-rule:nonzero;"/>
                        <path d="M385.82,230.84C384.37,233.47 382.91,236.09 381.45,238.72C375.09,239.16 368.91,240.43 362.71,241.85C363.88,240.39 364.99,238.66 366.45,237.46C372.24,233.47 378.83,231.43 385.82,230.84Z" style="fill:white;fill-rule:nonzero;"/>
                        <path d="M394.03,231.14C400.31,231.35 406.51,232.59 412.27,235.15C405.24,243.47 400.4,253.05 395.88,262.9C394.78,265.22 393.48,267.43 392.16,269.64C385.68,268.73 379.39,267.62 373.3,265.12C374.33,260.91 376.23,257.18 378.54,253.54C382.53,247.18 386.34,240.7 390.39,234.38C391.24,233.34 392.52,231.01 394.03,231.14Z" style="fill:white;fill-rule:nonzero;"/>
                        <path d="M421.1,239.86C432.28,246.47 442.9,253.62 451.85,263.14C457.91,269.54 462.14,277.92 465.43,286.02C464.52,288.56 462.81,289.81 460.12,289.98C454.56,285.3 451.2,277.03 446.29,271.71C441.6,266.5 436.56,261.27 430.95,257.06C425.23,252.97 419.3,249.22 413,246.08C413.83,243.69 414.42,240.9 415.87,238.81C417.63,237.67 419.51,239.07 421.1,239.86Z" style="fill:white;fill-rule:nonzero;"/>
                        <path d="M377.98,244.24C376.76,246.7 375.45,249.1 374.07,251.47C370.54,251.47 367,251.44 363.47,251.28C367.86,246.91 371.86,245.16 377.98,244.24Z" style="fill:white;fill-rule:nonzero;"/>
                        <path d="M410.96,251.98C415.2,252.37 419.41,254.83 422.98,257.03C429.8,261.5 436.49,267.03 441.18,273.76C439.85,275.58 438.47,277.33 436.97,279.01C428.22,270.79 417.33,264.6 406.53,259.5C407.93,257.01 409.09,254.15 410.96,251.98Z" style="fill:white;fill-rule:nonzero;"/>
                        <path d="M371.02,256.87C370.08,259.37 369.13,261.87 368.16,264.36C360.76,264.12 353.44,265.15 346.06,265.14C347.58,263.28 349.25,261.61 351.19,260.18C356.03,255.8 364.88,257.54 371.02,256.87Z" style="fill:white;fill-rule:nonzero;"/>
                        <path d="M401.84,265.2C408.05,267.05 413.95,271.13 419.38,274.62C426.48,279.32 433.27,284.69 439.36,290.64C442.56,294.01 446.43,298.3 447.32,302.98C447.66,304.87 447.29,305.96 446.04,307.38C442.5,307.85 441.15,303.84 439.37,301.57C434.11,294.17 424.77,288.97 417.76,283.24C411.79,278.18 405.03,275.54 398.07,272.21C399.14,269.76 400.29,267.38 401.84,265.2Z" style="fill:white;fill-rule:nonzero;"/>
                        <path d="M368.27,269.83C373.94,271.69 379.33,271.68 384.45,275.08C372.36,276.25 360.14,276.1 348.01,276.79C344.37,277.03 340.92,277.97 337.42,278.94C349.77,280.36 361.79,283.83 373.14,288.86C388.79,296.08 405.14,301.86 421.23,308C420.88,309.7 420.53,311.4 420.18,313.1C394.96,304.03 368.89,293.07 342.79,287.66C333.8,285.82 324.19,283.7 315,283.78C306.38,283.79 298.43,286.45 289.8,286.94C296.42,282.81 303.81,279.17 311.5,277.68C319.54,275.87 327.79,273.81 336.01,273.17C346.77,272.14 357.97,270.08 368.78,270.64L368.27,269.83Z" style="fill:white;fill-rule:nonzero;"/>
                        <path d="M467.88,276.6C472.35,280.42 477.44,284.42 480.55,289.45C483.26,294.87 484.44,301.2 485.92,307.05C483.87,308.13 481.16,308.85 480.21,311.21C478.85,314.86 478.57,319.15 478.96,323C479.34,326.4 481.96,328.02 484.21,330.22C483.53,333.67 483.03,337.39 481.7,340.65C479.81,340.6 478,340.19 476.1,340.2C473.31,342.27 471.24,345.86 469.91,349.02C468.55,352.73 470.63,355.59 472.14,358.79C468.46,362.44 464.88,365.81 460.21,368.21C457.62,369.53 454.52,369.87 451.67,370.38C454.73,366.31 458.49,362.39 460.82,357.85C462.31,354.66 460.6,351.86 458.05,349.96C455.2,347.96 451.59,345.97 448.06,345.84C444.89,348.45 442.73,352.28 439.99,355.34C435.46,341.88 432.91,328.21 435.39,314.04C431.87,326.55 429.78,339 431.2,352.03C431.61,356.3 433.65,359.93 434.47,364.16C432.78,363.29 431.38,363.39 430.42,361.54C426.89,355.54 424.41,349.01 423.87,342.02C422.75,328.51 426.21,315.29 430.71,302.67C433.16,305.13 435.81,307.26 437.95,310.02C439.94,312.37 441.93,315.4 445.03,316.27C451.16,315.09 455.25,307.98 454.1,302C452.87,294.83 447.73,289.37 442.79,284.42C443.69,282.72 444.63,281.06 445.62,279.41C448.45,283.27 451.29,287.1 453.79,291.18C454.68,292.54 455.6,294.15 456.88,295.17C461.46,295.74 468.4,295.14 471.29,290.96C471,287.1 469.63,283.24 468.65,279.5C468.39,278.54 468.14,277.57 467.88,276.6Z" style="fill:white;fill-rule:nonzero;"/>
                        <path d="M344.49,299.66C343.02,309.01 340.99,319.03 342.01,328.99C343.22,337.28 348.18,343.91 351.97,351.09C353.45,353.71 355.59,356.06 357.4,358.48C349.42,356.09 342.99,350.13 339.33,342.75C334.86,332.05 334.97,321.38 335.14,310C335.23,306.91 335.59,303.04 337.43,300.45C339.18,298.24 342.16,299.41 344.49,299.66Z" style="fill:white;fill-rule:nonzero;"/>
                        <path d="M486.33,313.47C486.92,316.67 485.82,319.39 484.45,322.19C483.85,319.93 482.53,316.72 483.57,314.46C484.29,313.4 485.21,313.57 486.33,313.47Z" style="fill:white;fill-rule:nonzero;"/>
                        <path d="M493.72,313.02C497.53,314.89 500.99,317.39 504.85,319.18C509.52,321.51 514.39,322.6 519.4,323.9C510.62,325.19 501.54,324.83 492.71,324.37C493.07,320.59 493.27,316.79 493.72,313.02Z" style="fill:white;fill-rule:nonzero;"/>
                        <path d="M391.85,326.95C400.48,329.46 408.47,333.2 417.51,334.34C417.68,337.19 417.77,340.05 417.85,342.91C408.27,340.42 398.54,338.53 388.9,336.29C389.87,333.17 390.86,330.06 391.85,326.95Z" style="fill:white;fill-rule:nonzero;"/>
                        <path d="M477.32,345.26C478.09,346.46 478.84,347.65 479.33,348.98C478.52,350.68 477.17,351.76 475.86,353.04C475.26,351.62 474.66,350.2 474.11,348.76C475.08,347.51 476.19,346.37 477.32,345.26Z" style="fill:white;fill-rule:nonzero;"/>
                        <path d="M384.43,347.66C388.78,347.83 392.8,348.89 396.99,349.88C404.51,351.7 412.01,353.4 419.75,353.96C420.61,360.1 425.05,364.57 428.54,369.44C421.95,374.05 415.4,379.21 408.39,383.08C406.21,382.37 404.41,381.32 402.04,381.73C393.16,382.69 385.14,385.05 376.21,382.6C370.88,381.07 365.35,379.04 360.36,376.63C355.52,374.22 355.11,368.87 353.85,364.21C361.19,366.63 368.99,364.51 374.95,359.88C378.76,356.6 381.72,351.85 384.43,347.66Z" style="fill:white;fill-rule:nonzero;"/>
                        <path d="M449.99,351.31C451.42,352.34 453.3,352.96 453.28,355.04C453.24,358.59 449.85,362.1 447.79,364.79C443.3,369.96 440.33,375.74 435.44,380.42C430.17,385.58 424.33,388.97 418.35,393.34C414.82,395.69 410.24,398.63 405.87,398.49C402.83,396.63 403.76,393.83 403.5,390.8C412.53,387.33 420.77,382.27 428.37,376.32C433.4,372.29 438.03,368.09 441.78,362.8C444.54,359.02 446.81,354.66 449.99,351.31Z" style="fill:white;fill-rule:nonzero;"/>
                        <path d="M348.23,369.36C351.16,374.43 353.78,379.26 358.64,382.8C358.32,384.4 358,385.99 357.67,387.59C353.21,383.03 350.69,378.35 349.02,372.21C348.75,371.26 348.49,370.31 348.23,369.36Z" style="fill:white;fill-rule:nonzero;"/>
                        <path d="M366.87,385.07C370.56,386.53 373.94,388.32 377.97,388.75C384.75,390.02 391,388.51 397.78,388.54C397.19,389.85 396.6,391.16 396,392.47C397.07,395.87 397.92,399.28 398.46,402.81C392.47,404.58 386.16,405.01 379.96,404.29C375.38,403.68 370.55,402.15 367.23,398.78C364.17,395.77 362.92,391.16 363.81,387C364.05,385.51 365.4,384.38 366.87,385.07Z" style="fill:white;fill-rule:nonzero;"/>
                        <g transform="matrix(1,0,0,1,-3,-2)">
                            <path d="M463.522,307L465.508,306.988L468.644,316.049L467.609,318.938L463.522,307Z" style="fill:rgb(0,28,61);"/>
                            <path d="M463.514,309.44L465.82,316.027L465.833,331.459L463.562,338.047L463.514,309.44Z" style="fill:rgb(0,28,61);"/>
                            <path d="M463.586,340.026L465.87,340.006L469.239,329.672L468.217,326.531L463.586,340.026Z" style="fill:rgb(0,28,61);"/>
                            <path d="M467.837,327.578L468.228,326.549L469.333,326.531L471.102,331.483L471.132,337.641L468.931,330.681L467.837,327.578Z" style="fill:rgb(0,28,61);"/>
                            <path d="M471.77,340.024L474.073,340.016L473.99,306.959L471.753,306.995L471.77,340.024Z" style="fill:rgb(0,28,61);"/>
                            <path d="M470.849,309.672L470.84,316.141L469.293,320.517L468.19,320.516L467.607,318.939L470.849,309.672Z" style="fill:rgb(0,28,61);"/>
                        </g>
                    </g>
                </g>
            </g>
            <g id="mid" transform="matrix(1.595493,0,0,1.595493,66.296699,213.673384)">
                <path d="M558.19,30.11C562.88,28.11 569.47,32.78 575.36,32.63C580.78,41.5 585.04,49.28 587.23,59.87C578.56,55.78 580.24,53.82 578.3,45.89L578,45.22C576.61,39.1 569.96,40.74 570.4,34.17C568.15,33.1 564.3,45.45 563.58,36.3C557.02,38.27 562.63,33.81 555.32,30.14C557.33,39.38 549.04,33.79 543.89,40.93L542.57,41.07C541.76,36.53 533.47,44.82 537.7,38.11C533.41,39.64 528.7,38.28 527.53,43.54C524.54,47.46 525.75,40.94 525.82,39.43C520.44,40.67 515.84,39.16 511.74,43.18C507.29,43.45 509.82,44.22 510.91,46.89L509.73,48.18C508.08,50.63 505.86,54.26 505.24,57.06C507.55,58.47 508.6,59.23 506.11,61.47C503.6,56.44 500.43,45.59 504.68,40.76C510.82,40.15 510.83,37.44 514.5,33.52C523.35,27.07 533.35,33.44 541,28.01C546.19,27.25 555.6,23.76 558.19,30.11Z" style="fill:rgb(176,160,141);fill-rule:nonzero;"/>
                <path d="M555.32,30.14C562.63,33.81 557.02,38.27 563.58,36.3C564.3,45.45 568.15,33.1 570.4,34.17C569.96,40.74 576.61,39.1 578,45.22C572.48,44.36 574.12,44.69 572.64,49.84C570.18,44.62 570.24,47.16 566.02,48.83C568.96,44.04 566.32,44.7 564.7,40.12C557.11,36.54 559.68,44.79 556.51,48.95C555.84,46.75 555.5,44.11 553.93,42.37C548.8,43.92 548.3,44.28 543.89,40.93C549.04,33.79 557.33,39.38 555.32,30.14Z" style="fill:rgb(105,85,69);fill-rule:nonzero;"/>
                <path d="M537.7,38.11C533.47,44.82 541.76,36.53 542.57,41.07C541.04,42.63 530.1,45.27 530.28,41.25C530.6,49.85 516.06,45.56 510.91,46.89C509.82,44.22 507.29,43.45 511.74,43.18C515.84,39.16 520.44,40.67 525.82,39.43C525.75,40.94 524.54,47.46 527.53,43.54C528.7,38.28 533.41,39.64 537.7,38.11Z" style="fill:rgb(118,96,72);fill-rule:nonzero;"/>
                <path d="M564.7,40.12C566.32,44.7 568.96,44.04 566.02,48.83C570.24,47.16 570.18,44.62 572.64,49.84C574.12,44.69 572.48,44.36 578,45.22L578.3,45.89C577,54.78 572.42,54.5 565.02,56.34C567.67,58.57 569.99,57.58 573.08,57.36C571.88,59 565.38,64.87 571.82,61.83C576.31,58.21 577.59,69.43 572.65,67.47C567.72,66.55 571.78,74.5 570.91,76.97C568.03,77.12 566.48,72.78 565.02,70.83C573.16,57.35 550.05,77.76 559.3,76.97C559.19,72.75 560.72,73.46 564.01,72.07C564.65,74.28 569.88,78.78 565.74,79.76C561.18,81.74 568.94,82.5 565.65,86.65C561.74,88.93 556.28,82.75 552.05,82.04C554.11,86.27 558.2,85.95 561.06,88.94C558.58,89.12 556.73,88.1 554.55,87.17C554.13,90.37 553.78,93.66 553.51,96.88C559.41,96.87 568.58,99.34 566.79,90.02C569.86,85.08 571.56,90.07 573.06,92.89C569.74,94.19 569.19,94.85 567.91,98.18C560.92,98.37 548.77,95.8 544.65,103.17C543.55,98.64 544.36,93.96 543.23,89.39C546.8,79.66 532.76,75.87 526.01,73.96C519.25,73.35 511.96,70.18 505.31,71.3C501.12,73.9 502.93,80.6 503.01,84.61C500.55,89.67 501.22,94.7 500.5,100.08C496.63,90.91 498.65,75.98 501.95,66.92C506.62,66.9 511.33,66.9 515.99,67.37C521.73,68.99 525.22,69.7 530.92,69.48C536.32,70.3 550.6,78.69 552.96,70.97C556.94,64.42 553.92,61.58 554.84,55.11C550.67,54.77 552.66,64.63 550.52,58.58C549.8,52.86 545.55,60.95 544.62,62.63C540.93,70.42 529.79,57.71 526.39,66.5C523.28,67.81 513.96,62.95 517.38,58.25C512.99,55.64 510.83,50.25 517.96,49.46C515.3,48.31 512.57,48.29 509.73,48.18L510.91,46.89C516.06,45.56 530.6,49.85 530.28,41.25C530.1,45.27 541.04,42.63 542.57,41.07L543.89,40.93C548.3,44.28 548.8,43.92 553.93,42.37C555.5,44.11 555.84,46.75 556.51,48.95C559.68,44.79 557.11,36.54 564.7,40.12Z" style="fill:rgb(34,22,19);fill-rule:nonzero;"/>
                <path d="M578.3,45.89C580.24,53.82 578.56,55.78 587.23,59.87C588.66,64.35 587.07,63.7 585.71,66.72C591.69,73.94 584.37,75.86 584.98,83.07C583.7,85.39 582.24,87.59 581.02,89.94C578.43,96.13 578.67,89.72 578.76,87.14C576.49,88.76 575.62,91.88 573.06,92.89C571.56,90.07 569.86,85.08 566.79,90.02C568.58,99.34 559.41,96.87 553.51,96.88C553.78,93.66 554.13,90.37 554.55,87.17C556.73,88.1 558.58,89.12 561.06,88.94C558.2,85.95 554.11,86.27 552.05,82.04C556.28,82.75 561.74,88.93 565.65,86.65C568.94,82.5 561.18,81.74 565.74,79.76C569.88,78.78 564.65,74.28 564.01,72.07L565.02,70.83C566.48,72.78 568.03,77.12 570.91,76.97C571.78,74.5 567.72,66.55 572.65,67.47C577.59,69.43 576.31,58.21 571.82,61.83C565.38,64.87 571.88,59 573.08,57.36C569.99,57.58 567.67,58.57 565.02,56.34C572.42,54.5 577,54.78 578.3,45.89Z" style="fill:rgb(63,57,57);fill-rule:nonzero;"/>
                <path d="M509.73,48.18C512.57,48.29 515.3,48.31 517.96,49.46C510.83,50.25 512.99,55.64 517.38,58.25C513.96,62.95 523.28,67.81 526.39,66.5C529.79,57.71 540.93,70.42 544.62,62.63C545.55,60.95 549.8,52.86 550.52,58.58C552.66,64.63 550.67,54.77 554.84,55.11C553.92,61.58 556.94,64.42 552.96,70.97C552.67,62.61 550.46,64.75 544.38,67.35C539.35,70.93 533.13,63.43 530.92,69.48C525.22,69.7 521.73,68.99 515.99,67.37C518.5,63.82 512.7,62.45 511.03,60.31C507.43,60.51 507.69,63.93 505.01,65.24C501.23,65.26 505.45,62.87 506.11,61.47C508.6,59.23 507.55,58.47 505.24,57.06C505.86,54.26 508.08,50.63 509.73,48.18Z" style="fill:rgb(97,67,54);fill-rule:nonzero;"/>
                <path d="M511.03,60.31C512.7,62.45 518.5,63.82 515.99,67.37C511.33,66.9 506.62,66.9 501.95,66.92C502.95,66.34 503.99,65.81 505.01,65.24C507.69,63.93 507.43,60.51 511.03,60.31Z" style="fill:rgb(184,160,152);fill-rule:nonzero;"/>
                <path d="M587.23,59.87C592.89,65.36 589.52,77.62 584.98,83.07C584.37,75.86 591.69,73.94 585.71,66.72C587.07,63.7 588.66,64.35 587.23,59.87Z" style="fill:rgb(166,159,154);fill-rule:nonzero;"/>
                <path d="M552.96,70.97C550.6,78.69 536.32,70.3 530.92,69.48C533.13,63.43 539.35,70.93 544.38,67.35C550.46,64.75 552.67,62.61 552.96,70.97Z" style="fill:rgb(176,121,105);fill-rule:nonzero;"/>
                <path d="M565.02,70.83L564.01,72.07C560.72,73.46 559.19,72.75 559.3,76.97C550.05,77.76 573.16,57.35 565.02,70.83Z" style="fill:rgb(181,180,181);fill-rule:nonzero;"/>
                <path d="M422.19,74.74C429.19,72.97 441.22,78.16 443.07,85.11C437.39,81.19 429.9,73.05 422.63,78.11C419.03,75.69 415.09,76.75 411.23,74.54C404.72,77.37 407.13,84.73 400.12,88.15C396.14,99.05 394.13,109.43 384.48,117.5C375.86,124.37 376.28,135.1 367.6,141.63C359.5,149.08 360.33,158.83 354.98,168.05C356.53,155.75 362.19,143.54 369.88,133.86C378.65,120.81 387.03,109.33 396.38,94.4C397.48,85.23 403.52,79.84 408.8,72.82C413.82,68.93 415.53,75.14 422.19,74.74Z" style="fill:rgb(232,217,199);fill-rule:nonzero;"/>
                <path d="M505.31,71.3C511.96,70.18 519.25,73.35 526.01,73.96C532.76,75.87 546.8,79.66 543.23,89.39C538.82,87.94 533.59,84.44 529.05,82.27C531.78,81.24 534.32,81.19 537.18,81.38C532.89,75.56 518.35,76.13 518.89,86.01C515.59,85.23 516.51,75.84 514.17,83.28C512.46,76.36 500.23,80.49 507.67,84.15C510.65,84.09 510.46,81.67 513.41,85.04C508.15,91.73 507.49,84.56 503.01,84.61C502.93,80.6 501.12,73.9 505.31,71.3Z" style="fill:rgb(184,140,130);fill-rule:nonzero;"/>
                <path d="M411.23,74.54C415.09,76.75 419.03,75.69 422.63,78.11C429.9,73.05 437.39,81.19 443.07,85.11C436.93,95.16 450.81,93.94 442.3,102.1C438.53,98.97 435.52,95.33 434.64,90.37C430.35,96.37 421.12,86.54 422.29,83.58C419.47,86.08 416.34,85.47 412.96,86.69C413.28,83.52 416.32,80 414.04,77.25C407.98,79.41 410.17,84.71 410.17,89.79C415.54,96.53 427.14,98.08 433.29,102.96C433.71,113.33 427.15,104.8 422.83,103.54C412.76,108.04 409.27,96.77 399.48,99.31C397.74,105.84 393.47,112.92 388.85,117.83C380.4,123.32 377.34,135.64 373.31,144.32C366.48,151.28 363.17,162.77 359.65,171.66C351.93,172.68 357.05,185.37 353.01,191.27L352.7,192.13C350.92,184.65 352.21,175.21 354.98,168.05C360.33,158.83 359.5,149.08 367.6,141.63C376.28,135.1 375.86,124.37 384.48,117.5C394.13,109.43 396.14,99.05 400.12,88.15C407.13,84.73 404.72,77.37 411.23,74.54Z" style="fill:rgb(213,179,152);fill-rule:nonzero;"/>
                <path d="M414.04,77.25C416.32,80 413.28,83.52 412.96,86.69C416.34,85.47 419.47,86.08 422.29,83.58C421.12,86.54 430.35,96.37 434.64,90.37C435.52,95.33 438.53,98.97 442.3,102.1L441.12,103.22C438.47,103.41 435.93,103.3 433.29,102.96C427.14,98.08 415.54,96.53 410.17,89.79C410.17,84.71 407.98,79.41 414.04,77.25Z" style="fill:rgb(122,69,52);fill-rule:nonzero;"/>
                <path d="M537.18,81.38C534.32,81.19 531.78,81.24 529.05,82.27C533.59,84.44 538.82,87.94 543.23,89.39C544.36,93.96 543.55,98.64 544.65,103.17C545.38,105.79 545.49,107.54 544.95,110.23C544.14,113.6 542.92,116.09 547.65,115.58C548.36,112.11 547.64,110.66 551.76,110.02C555.38,117.73 554.64,119.21 550.66,127.9C547.53,128.16 545.33,127.45 542.59,126.02C544.64,123.9 547.95,123.07 549.8,121.07C546.95,119 546.86,119.34 544.03,121.16C541.8,113.02 543.87,103.54 542.67,95.31C542.02,92.88 540.1,92.72 538.07,91.87C533.84,90.08 530.06,91.06 528.35,86.01C526.41,91.26 527.7,89.3 529.99,92.98C526.65,93.73 522.07,84.9 523.57,92.25C523.1,93.54 520.23,87.3 518.89,86.01C518.35,76.13 532.89,75.56 537.18,81.38Z" style="fill:rgb(119,66,54);fill-rule:nonzero;"/>
                <path d="M514.17,83.28C513.94,83.87 513.68,84.46 513.41,85.04C510.46,81.67 510.65,84.09 507.67,84.15C500.23,80.49 512.46,76.36 514.17,83.28Z" style="fill:rgb(86,44,38);fill-rule:nonzero;"/>
                <path d="M518.89,86.01C520.23,87.3 523.1,93.54 523.57,92.25C522.07,84.9 526.65,93.73 529.99,92.98C527.7,89.3 526.41,91.26 528.35,86.01C530.06,91.06 533.84,90.08 538.07,91.87C545.5,99.46 532.86,98.04 529,100.97C523.24,104.17 522.64,98.95 518.4,96.78C518.34,98.4 520.85,102.54 518.58,103.14C514.55,98.51 509.33,97.56 504.31,101.39C506.56,103.44 507.88,104.52 508.49,107.7C511.86,106.36 514.55,105.72 518.23,105.7C524.48,109.84 524.3,114.63 516.03,115.2C512.63,112.9 509.42,111.73 505.29,112.31C503.59,115.52 505.5,116.5 507.13,119.07C504.88,119.5 503.42,123.56 505.73,124.86C509.23,128.37 502.94,124.07 503.65,129.12C502.47,125.33 501.08,122.59 503.45,118.9C500.31,112.6 503.74,106.28 500.5,100.08C501.22,94.7 500.55,89.67 503.01,84.61C507.49,84.56 508.15,91.73 513.41,85.04C513.68,84.46 513.94,83.87 514.17,83.28C516.51,75.84 515.59,85.23 518.89,86.01Z" style="fill:rgb(215,172,164);fill-rule:nonzero;"/>
                <path d="M578.76,87.14C578.67,89.72 578.43,96.13 581.02,89.94C581.48,96.65 579.1,102.52 575.53,108.05C573.61,103.63 573.14,99.75 567.91,98.18C569.19,94.85 569.74,94.19 573.06,92.89C575.62,91.88 576.49,88.76 578.76,87.14Z" style="fill:rgb(124,116,103);fill-rule:nonzero;"/>
                <path d="M538.07,91.87C540.1,92.72 542.02,92.88 542.67,95.31C543.87,103.54 541.8,113.02 544.03,121.16C537.92,125.95 531.41,126.92 524.04,128.01C518.85,127 510.23,120.8 505.73,124.86C503.42,123.56 504.88,119.5 507.13,119.07C511.1,121.07 505.9,115.35 510.66,117.38C513.91,120.78 515.08,120.2 519.92,119.88C518.74,118.25 517.38,116.7 516.03,115.2C524.3,114.63 524.48,109.84 518.23,105.7C518.34,104.85 518.46,103.99 518.58,103.14C520.85,102.54 518.34,98.4 518.4,96.78C522.64,98.95 523.24,104.17 529,100.97C532.86,98.04 545.5,99.46 538.07,91.87Z" style="fill:rgb(184,120,103);fill-rule:nonzero;"/>
                <path d="M567.91,98.18C573.14,99.75 573.61,103.63 575.53,108.05C576.44,115.75 575.44,121.95 578.29,128.8C582.09,139.06 592.64,145.75 600.66,153.37C607.25,156.82 616.97,154.58 623.61,159.41C630.93,165.33 636.12,173.26 636.13,182.96C636.4,188.22 641.17,191.7 643.74,196.29C649.66,204.27 649.58,216.77 643.01,224.29C644.56,212.73 633.76,211.69 627.46,202.55C624.31,198.85 619.22,198.39 626.1,195C616.37,185.04 606.51,172.18 595.93,164.04C591.66,153.6 582.86,144.94 575.15,136.9C566.15,133.24 569.57,124.84 561.92,120.06C558.67,117.23 555.34,108.64 562.96,109.44C560.93,101.87 548.81,110.6 544.95,110.23C545.49,107.54 545.38,105.79 544.65,103.17C548.77,95.8 560.92,98.37 567.91,98.18Z" style="fill:rgb(236,216,198);fill-rule:nonzero;"/>
                <path d="M399.48,99.31C409.27,96.77 412.76,108.04 422.83,103.54C427.15,104.8 433.71,113.33 433.29,102.96C435.93,103.3 438.47,103.41 441.12,103.22C437.47,106.69 435.03,111.47 429.26,110.89C421.54,104.94 412.67,106.05 404.06,101.07C396.06,105.91 400.22,119.54 404.84,125.41C403.48,129.19 402.3,133.02 400.96,136.8C398.6,137.44 400.01,142.07 397.4,139.56C394.98,139.35 394.1,145.51 390.12,144.65C382.5,144.59 383.18,151.98 384.76,157.26C386.86,161.22 391.41,161.72 388.61,166.79C394.68,174.54 395.15,156.45 398.6,164.6C399.73,159.83 402.7,164.89 405.96,163.98C411.13,162.89 421.1,168.26 420.8,174.12C426.67,176.89 435.35,179.68 441.44,176.81C445.51,176.54 455.36,176.07 452.04,169.81C453.16,172.57 455.6,176.13 454.2,179.12C444.44,186.02 434.37,182.26 423.41,182.49C415.76,185.25 408.25,176.17 406.3,169.84C406.02,160.71 399.04,170.99 398.38,174.34C398.28,181.43 396.32,187.87 395.68,194.86C387.93,194.22 383.85,195.73 382.31,186.39C381.65,180.61 380.39,174.64 380.13,169.09C385.22,164.7 378.7,161.91 375.63,159.34C374.46,157.17 375.82,154.31 372.29,155.2C367.03,165.24 361.09,171.35 357.52,181.61C358.98,187.06 356.51,188 353.01,191.27C357.05,185.37 351.93,172.68 359.65,171.66C363.17,162.77 366.48,151.28 373.31,144.32C377.34,135.64 380.4,123.32 388.85,117.83C393.47,112.92 397.74,105.84 399.48,99.31Z" style="fill:rgb(191,151,114);fill-rule:nonzero;"/>
                <path d="M518.58,103.14C518.46,103.99 518.34,104.85 518.23,105.7C514.55,105.72 511.86,106.36 508.49,107.7C507.88,104.52 506.56,103.44 504.31,101.39C509.33,97.56 514.55,98.51 518.58,103.14Z" style="fill:rgb(113,51,48);fill-rule:nonzero;"/>
                <path d="M404.06,101.07C412.67,106.05 421.54,104.94 429.26,110.89C423.95,112.39 418.68,111.67 413.32,112.3C409.61,115.81 406.91,120.78 404.84,125.41C400.22,119.54 396.06,105.91 404.06,101.07Z" style="fill:rgb(128,91,73);fill-rule:nonzero;"/>
                <path d="M562.96,109.44C555.34,108.64 558.67,117.23 561.92,120.06C569.57,124.84 566.15,133.24 575.15,136.9C582.86,144.94 591.66,153.6 595.93,164.04C606.51,172.18 616.37,185.04 626.1,195C619.22,198.39 624.31,198.85 627.46,202.55C633.76,211.69 644.56,212.73 643.01,224.29C641.21,226.68 640.05,229.08 637.19,230.37C631.35,221.28 642.75,216.98 630.88,213.19C622.6,215.31 626.85,209.24 621.15,205.84C613.49,200.91 608.59,193.14 601.62,186.46C598.55,175.08 586.61,171.05 583.66,160.37C584.74,154.06 574.72,154.5 574.85,146.96C576.87,138.97 567.09,137.42 566.08,130.88C564.8,127.48 564.03,123.88 559.88,123.1C554.69,121.36 557.91,129.21 557.7,131.9C555.3,136.33 551.17,130.79 547.35,131.5C543.39,129.8 550.18,129.37 550.66,127.9C554.64,119.21 555.38,117.73 551.76,110.02C547.64,110.66 548.36,112.11 547.65,115.58C542.92,116.09 544.14,113.6 544.95,110.23C548.81,110.6 560.93,101.87 562.96,109.44Z" style="fill:rgb(218,186,156);fill-rule:nonzero;"/>
                <path d="M505.29,112.31C509.42,111.73 512.63,112.9 516.03,115.2C517.38,116.7 518.74,118.25 519.92,119.88C515.08,120.2 513.91,120.78 510.66,117.38C505.9,115.35 511.1,121.07 507.13,119.07C505.5,116.5 503.59,115.52 505.29,112.31Z" style="fill:rgb(103,43,40);fill-rule:nonzero;"/>
                <path d="M549.8,121.07C547.95,123.07 544.64,123.9 542.59,126.02C536.54,128.36 533.08,133.09 527.79,136.38C524.64,137.02 521.73,138.07 518.67,139.07L514.84,139.07C512.2,139.07 510.4,138.66 508.1,137.41C506.11,134.87 504.61,132.21 503.65,129.12C502.94,124.07 509.23,128.37 505.73,124.86C510.23,120.8 518.85,127 524.04,128.01C531.41,126.92 537.92,125.95 544.03,121.16C546.86,119.34 546.95,119 549.8,121.07Z" style="fill:rgb(33,18,18);fill-rule:nonzero;"/>
                <path d="M559.88,123.1C564.03,123.88 564.8,127.48 566.08,130.88C567.09,137.42 576.87,138.97 574.85,146.96C574.72,154.5 584.74,154.06 583.66,160.37C586.61,171.05 598.55,175.08 601.62,186.46C608.59,193.14 613.49,200.91 621.15,205.84C626.85,209.24 622.6,215.31 630.88,213.19C642.75,216.98 631.35,221.28 637.19,230.37L636.02,230.94C629.39,221.98 620.23,214.33 610.96,208.1C608.9,203.98 600.12,193.45 597.03,202.12C595.84,205.04 598.47,208.37 593.89,205.2C590.57,200.59 587.79,195.44 586,190.04C584.19,183.37 581.12,177.02 578.22,170.78C576.19,166.35 574.13,161.95 572.18,157.49C571.52,155.73 570.76,154.14 569.52,152.7C569.01,146.24 562.11,137.77 555.05,137.36C552.35,141.36 552.79,147.55 551.57,152.08C545.62,154.39 551.46,158.41 545.71,160.75C542.07,161.13 544.76,172.1 540.28,167.76C535.65,162.17 536.13,160.95 528.38,161.61C523.16,157.03 512.66,146.52 514.84,139.07L518.67,139.07C521.85,152.23 532.48,148.41 536.83,160.1C539.59,166.46 543.8,160.51 544.65,156.66C545.18,151.17 544.68,146.52 546.75,141.21C542.59,137.96 541.62,148.06 538.21,143.79C535.42,141.54 539.05,139.71 538.19,137.67C535.78,133.61 531.84,136.92 527.79,136.38C533.08,133.09 536.54,128.36 542.59,126.02C545.33,127.45 547.53,128.16 550.66,127.9C550.18,129.37 543.39,129.8 547.35,131.5C551.17,130.79 555.3,136.33 557.7,131.9C557.91,129.21 554.69,121.36 559.88,123.1Z" style="fill:rgb(179,130,98);fill-rule:nonzero;"/>
                <path d="M538.19,137.67C539.05,139.71 535.42,141.54 538.21,143.79C541.62,148.06 542.59,137.96 546.75,141.21C544.68,146.52 545.18,151.17 544.65,156.66C543.8,160.51 539.59,166.46 536.83,160.1C532.48,148.41 521.85,152.23 518.67,139.07C521.73,138.07 524.64,137.02 527.79,136.38C531.84,136.92 535.78,133.61 538.19,137.67Z" style="fill:rgb(131,72,40);fill-rule:nonzero;"/>
                <path d="M400.96,136.8C399.63,144.62 398.67,151.69 398.24,159.65C404.59,163.74 407.39,160.69 413.35,158.4C422.75,157.6 430.23,157.62 438.66,152.86C455.64,151.9 466.42,141.77 484.24,145.7C473.99,144.4 468.82,149.59 461.37,155.31C455.94,156.47 450.12,157.77 445.02,160.02C442.2,161.76 442.29,165.51 438.76,162.35C438.75,167.81 448.35,167.2 452.04,169.81C455.36,176.07 445.51,176.54 441.44,176.81C435.35,179.68 426.67,176.89 420.8,174.12C421.1,168.26 411.13,162.89 405.96,163.98C402.7,164.89 399.73,159.83 398.6,164.6C395.15,156.45 394.68,174.54 388.61,166.79C391.41,161.72 386.86,161.22 384.76,157.26C383.18,151.98 382.5,144.59 390.12,144.65C394.1,145.51 394.98,139.35 397.4,139.56C400.01,142.07 398.6,137.44 400.96,136.8Z" style="fill:rgb(216,186,150);fill-rule:nonzero;"/>
                <path d="M508.1,137.41C510.4,138.66 512.2,139.07 514.84,139.07C512.66,146.52 523.16,157.03 528.38,161.61C536.13,160.95 535.65,162.17 540.28,167.76C544.76,172.1 542.07,161.13 545.71,160.75C551.46,158.41 545.62,154.39 551.57,152.08C552.79,147.55 552.35,141.36 555.05,137.36C562.11,137.77 569.01,146.24 569.52,152.7C562.45,161.78 556.73,173.42 547.6,180.57C537.81,187.33 524.15,183.72 516.2,175.8C505.1,165.67 507.2,154.84 501.14,142.01C503.99,140.96 506.84,140.54 508.1,137.41Z" style="fill:rgb(228,196,166);fill-rule:nonzero;"/>
                <path d="M498,141.2C497.92,147.89 501.63,154.36 503.31,160.93C503.14,165.95 497.63,157.87 498.1,155.95C497.33,153.98 493.15,140.29 492.2,148.34C491.45,147.65 490.7,146.97 489.94,146.29C492.87,143.5 493.42,141.5 498,141.2Z" style="fill:rgb(211,85,100);fill-rule:nonzero;"/>
                <path d="M498,141.2C499.06,141.11 500.11,141.38 501.14,142.01C507.2,154.84 505.1,165.67 516.2,175.8C524.15,183.72 537.81,187.33 547.6,180.57C556.73,173.42 562.45,161.78 569.52,152.7C570.76,154.14 571.52,155.73 572.18,157.49C566.6,160.17 563.5,167.57 560.37,172.65C557.47,174.61 560.94,176.06 562.38,177.61C568.74,182.23 575.34,186.97 582.36,190.52C584.99,191.69 583.77,189.73 583.3,188.33C580.34,182.67 577.42,177.42 578.22,170.78C581.12,177.02 584.19,183.37 586,190.04C582.93,195.7 578.26,189.65 577.91,192.97C574.76,191.48 572.22,188.06 568.81,187.46C563.91,190.84 558.11,188.56 560.28,196.69C563.53,198.64 568.37,204.28 572.25,202.28C571.03,207.79 565.48,204.45 564.13,209.66C561.4,210.13 558.58,210.16 555.82,210.52C542.09,206.3 557.37,230.87 547.2,227.87C546.53,222.08 547.53,216.11 546.72,210.35C543.07,209.51 540.37,207.67 537.61,211.22C533.72,207.65 528.78,206.75 524.16,209.61C518.8,209.78 525.79,227.52 522.35,229.54C520.48,224.39 521.07,219.84 520.26,214.7C512.05,212.92 513.65,213.7 512.32,205.73C509.55,204.31 491.55,205.56 503.81,203.77C499.76,200.66 501.04,196.17 495.38,195.54C488.04,193.66 488.75,189.57 485.29,186.86C488.73,182.76 494.54,182.19 485.48,182.03C489.64,177.37 505.59,172.87 505.43,166.81C504.87,164.81 504.05,162.87 503.31,160.93C501.63,154.36 497.92,147.89 498,141.2Z" style="fill:rgb(37,30,34);fill-rule:nonzero;"/>
                <path d="M498.1,155.95C497.63,157.87 503.14,165.95 503.31,160.93C504.05,162.87 504.87,164.81 505.43,166.81C497.66,173.21 488.17,177.57 479.63,182.91C479.2,168.58 486.46,160.22 492.2,148.34C493.15,140.29 497.33,153.98 498.1,155.95Z" style="fill:rgb(215,12,23);fill-rule:nonzero;"/>
                <path d="M484.24,145.7C485.83,145.88 487.42,146.04 489.01,146.2C480.09,156.74 476.94,173.93 474.78,187.28C471.58,185.45 476.07,182.07 471,179.87C467.49,181.34 469.48,185.66 469.8,188.45C465.15,187.96 465.64,188.33 462.87,184C459.79,178.2 464.08,174.1 458.8,169.22C456.77,167.88 451.03,164.9 452.04,169.81C448.35,167.2 438.75,167.81 438.76,162.35C442.29,165.51 442.2,161.76 445.02,160.02C450.12,157.77 455.94,156.47 461.37,155.31C468.82,149.59 473.99,144.4 484.24,145.7Z" style="fill:rgb(192,151,117);fill-rule:nonzero;"/>
                <path d="M489.01,146.2L489.94,146.29C490.7,146.97 491.45,147.65 492.2,148.34C486.46,160.22 479.2,168.58 479.63,182.91C475.35,187.48 483.74,182.36 485.48,182.03C494.54,182.19 488.73,182.76 485.29,186.86C488.75,189.57 488.04,193.66 495.38,195.54C501.04,196.17 499.76,200.66 503.81,203.77C491.55,205.56 509.55,204.31 512.32,205.73C502.62,206.05 492.44,207.4 483.2,210.29C483.87,218.78 485.53,227.32 486.31,235.85C491.27,236.23 496.61,234.73 501.34,233.31C502.71,227.84 499.83,220.09 500.07,214.16C505.37,214.49 497.92,238.23 509.38,232.4C514.06,228.88 504.69,215.1 511.75,211.71C512.13,209.75 512.19,207.72 512.32,205.73C513.65,213.7 512.05,212.92 520.26,214.7C521.07,219.84 520.48,224.39 522.35,229.54C525.79,227.52 518.8,209.78 524.16,209.61C524.86,217.76 520.32,230.84 531.12,233.88C536.51,236.79 539.14,227.55 539.44,234.61C544.95,236.12 553.07,236.89 558.81,236.86C559.24,232.71 558.81,228.41 559.11,224.24C561.86,227.34 557.19,238.86 565.36,238.69C574.14,241.97 569.53,227.18 573.01,224.17C573.39,229.83 571.05,234.43 572.3,239.65C579,242.24 583.77,246.24 582.47,235.61C573.97,230.72 586.48,233.92 583.07,225.85C575.95,222.52 586.05,225.74 585.05,220.98C584.91,219.21 585.59,217.13 583.35,216.63C574.25,213.68 564.85,212.12 555.82,210.52C558.58,210.16 561.4,210.13 564.13,209.66C565.48,204.45 571.03,207.79 572.25,202.28C575.91,198.36 581.66,201.77 577.91,192.97C578.26,189.65 582.93,195.7 586,190.04C587.79,195.44 590.57,200.59 593.89,205.2C596.26,212.7 597.29,221.79 600.86,229.01C602.28,231.96 603.66,234.93 605.01,237.9C602.56,241.02 608.78,248.05 602.66,244.99C598.63,244.57 599.85,240.76 597.01,238.83C594.16,240.2 594.32,245.35 593.54,248.02C592.13,245.95 592.32,240.76 589.19,241.03C589.52,255.61 592.07,270.63 593.19,285.26L592.82,287.22C587.89,276.14 589.75,261.04 582.06,252.18C579.2,260.57 586.2,272.82 585.22,282.2C584.86,283.54 584.39,284.84 583.93,286.15C581.06,279.16 581.62,270.01 577.19,263.93C572.67,270.1 562.25,268.63 564.98,279.55C559.7,275.8 557.75,284.96 559.48,287.99C551.61,289.51 544.74,286.26 537.21,289.92C535.59,287.38 530.56,283.88 530.15,289.11C529.46,299.7 535.04,311 536.28,321.81C541.12,338.95 542.5,357.29 547.47,374.43C548.8,380.47 555.75,383.96 561.32,381.41C568,381.05 567.57,383.82 571.01,388.15C569.27,391.58 559,392.41 560.76,397.07C557.78,399.38 549.4,400.95 549.04,404.93C557.49,401.83 565.81,397.12 573.71,392.75C570.61,397.82 573.99,395.34 577.58,396.05C573.84,398.88 577.87,408.2 571.12,404.47C568.1,411.76 576.29,408.83 572.04,415.29C565.67,413.39 559.48,410.21 552.94,409.06C550.56,408.72 546.08,410.3 548.78,413.18C556.82,418.26 566.6,419.52 575,424.24C570.04,424.96 575.91,428.58 573,431.94C570.76,434.81 577.96,430.51 575.62,433.68C569.59,434.46 564.13,434.83 558.09,434.07C553.12,435.57 561,437.24 562.3,438.67C570.96,438.62 578.96,436.76 587.78,438.15C584.97,440.23 575.38,438.19 570.93,439.25C572.56,440.68 578.14,440.06 575.53,442.99C576.8,443.9 583.37,443.73 579.22,445.33C574.39,444.2 569.81,442.4 565.16,440.72C563.19,440.04 561.17,439.84 559.1,439.94C553.54,440.97 545.26,440.84 541.06,444.95C540.94,442.49 540.27,440.18 539.49,437.86C539.53,432.92 537.61,428.09 536.92,423.19C535.86,411.16 527.47,403.23 517.76,397.25C513.08,394.48 521.65,397.69 522.99,397.85C522.58,396.21 521.99,394.64 521.43,393.05L521.6,392.06C525.21,391.44 526.67,393.86 528.19,389.24C530.56,390.46 534.97,395.44 537.54,392.68C538.14,389.06 539.01,385.6 539.91,382.05C524.36,365.44 518.51,337.99 506.8,319.19C503.88,315.7 500.54,314.92 496.14,314.73C490.82,314.68 489.49,297.06 485.05,304.04C484.94,294.67 483.66,285.08 482.68,275.75C475.77,269.88 473,261.44 473.41,252.39C473.77,248.36 475.93,239.99 472.31,237.04C469.81,242.08 472.36,246.15 471.47,251.2C469.14,244.36 469.09,240.56 470.11,233.46C474.74,219.24 474.17,202.19 474.78,187.28C476.94,173.93 480.09,156.74 489.01,146.2Z" style="fill:rgb(14,13,17);fill-rule:nonzero;"/>
                <path d="M372.29,155.2C375.82,154.31 374.46,157.17 375.63,159.34C378.7,161.91 385.22,164.7 380.13,169.09C380.39,174.64 381.65,180.61 382.31,186.39C383.85,195.73 387.93,194.22 395.68,194.86C396.32,187.87 398.28,181.43 398.38,174.34C399.04,170.99 406.02,160.71 406.3,169.84C408.25,176.17 415.76,185.25 423.41,182.49C434.37,182.26 444.44,186.02 454.2,179.12C449.1,187.05 441.3,189.57 432.22,186.72C426.5,186.93 407.58,183.24 408.95,192.98C409.14,198.9 415.21,192.24 417.22,197.02C414.56,199.77 408.22,197.8 404.49,198.34C397.39,196.02 383.66,203.72 380.01,193.92C375.61,188.31 379.36,177.44 371.97,174.05C362.96,178.98 362.58,182.03 364.26,191.98C365.45,196.97 362.26,194.32 359.63,196.92C356.57,196.05 354.62,194.65 352.7,192.13L353.01,191.27C356.51,188 358.98,187.06 357.52,181.61C361.09,171.35 367.03,165.24 372.29,155.2Z" style="fill:rgb(158,115,78);fill-rule:nonzero;"/>
                <path d="M572.18,157.49C574.13,161.95 576.19,166.35 578.22,170.78C577.42,177.42 580.34,182.67 583.3,188.33C575.39,185.12 566.49,178.81 560.37,172.65C563.5,167.57 566.6,160.17 572.18,157.49Z" style="fill:rgb(215,18,25);fill-rule:nonzero;"/>
                <path d="M458.8,169.22C464.08,174.1 459.79,178.2 462.87,184C462.14,191.67 478.4,195.7 468,201.7C457.69,196.38 464.34,206.9 460.29,212.19C455.8,206.19 452.19,190.04 441.98,196.96C426.11,204.67 412.37,206.68 394.82,204.33C382.39,203.75 370.65,203.54 359.63,196.92C362.26,194.32 365.45,196.97 364.26,191.98C362.58,182.03 362.96,178.98 371.97,174.05C379.36,177.44 375.61,188.31 380.01,193.92C383.66,203.72 397.39,196.02 404.49,198.34C408.22,197.8 414.56,199.77 417.22,197.02C415.21,192.24 409.14,198.9 408.95,192.98C407.58,183.24 426.5,186.93 432.22,186.72C441.3,189.57 449.1,187.05 454.2,179.12C455.6,176.13 453.16,172.57 452.04,169.81C451.03,164.9 456.77,167.88 458.8,169.22Z" style="fill:rgb(106,77,58);fill-rule:nonzero;"/>
                <path d="M505.43,166.81C505.59,172.87 489.64,177.37 485.48,182.03C483.74,182.36 475.35,187.48 479.63,182.91C488.17,177.57 497.66,173.21 505.43,166.81Z" style="fill:rgb(225,164,157);fill-rule:nonzero;"/>
                <path d="M560.37,172.65C566.49,178.81 575.39,185.12 583.3,188.33C583.77,189.73 584.99,191.69 582.36,190.52C575.34,186.97 568.74,182.23 562.38,177.61C560.94,176.06 557.47,174.61 560.37,172.65Z" style="fill:rgb(215,154,148);fill-rule:nonzero;"/>
                <path d="M471,179.87C476.07,182.07 471.58,185.45 474.78,187.28C474.17,202.19 474.74,219.24 470.11,233.46C466.62,226.52 463.03,219.47 460.29,212.19C464.34,206.9 457.69,196.38 468,201.7C478.4,195.7 462.14,191.67 462.87,184C465.64,188.33 465.15,187.96 469.8,188.45C469.48,185.66 467.49,181.34 471,179.87Z" style="fill:rgb(151,118,80);fill-rule:nonzero;"/>
                <path d="M568.81,187.46C572.22,188.06 574.76,191.48 577.91,192.97C581.66,201.77 575.91,198.36 572.25,202.28C568.37,204.28 563.53,198.64 560.28,196.69C558.11,188.56 563.91,190.84 568.81,187.46Z" style="fill:rgb(140,45,52);fill-rule:nonzero;"/>
                <path d="M610.96,208.1C620.23,214.33 629.39,221.98 636.02,230.94C626.97,234.59 622.42,233.98 615.86,226.76C613.92,224.29 612.05,222.04 608.96,221C605.71,221.99 604.8,230.66 600.98,226.36C600.93,227.24 600.89,228.13 600.86,229.01C597.29,221.79 596.26,212.7 593.89,205.2C598.47,208.37 595.84,205.04 597.03,202.12C600.12,193.45 608.9,203.98 610.96,208.1Z" style="fill:rgb(111,81,63);fill-rule:nonzero;"/>
                <path d="M512.32,205.73C512.19,207.72 512.13,209.75 511.75,211.71C504.69,215.1 514.06,228.88 509.38,232.4C497.92,238.23 505.37,214.49 500.07,214.16C499.83,220.09 502.71,227.84 501.34,233.31C496.61,234.73 491.27,236.23 486.31,235.85C485.53,227.32 483.87,218.78 483.2,210.29C492.44,207.4 502.62,206.05 512.32,205.73Z" style="fill:rgb(219,155,142);fill-rule:nonzero;"/>
                <path d="M500.11,208.22C502.64,208.35 512.88,206.07 509.45,211.29C502.27,213.47 512.72,232.01 505.29,230.85C504.56,225.18 504.41,219.24 503.41,213.65C501.56,211.56 499.28,211.63 500.11,208.22Z" style="fill:rgb(158,33,23);fill-rule:nonzero;"/>
                <path d="M537.61,211.22C540.37,207.67 543.07,209.51 546.72,210.35C547.53,216.11 546.53,222.08 547.2,227.87C557.37,230.87 542.09,206.3 555.82,210.52C564.85,212.12 574.25,213.68 583.35,216.63C585.59,217.13 584.91,219.21 585.05,220.98C586.05,225.74 575.95,222.52 583.07,225.85C586.48,233.92 573.97,230.72 582.47,235.61C583.77,246.24 579,242.24 572.3,239.65C571.05,234.43 573.39,229.83 573.01,224.17C569.53,227.18 574.14,241.97 565.36,238.69C557.19,238.86 561.86,227.34 559.11,224.24C558.81,228.41 559.24,232.71 558.81,236.86C553.07,236.89 544.95,236.12 539.44,234.61C539.14,227.55 536.51,236.79 531.12,233.88C520.32,230.84 524.86,217.76 524.16,209.61C528.78,206.75 533.72,207.65 537.61,211.22Z" style="fill:rgb(197,136,123);fill-rule:nonzero;"/>
                <path d="M497.74,209.14C497.84,216.81 499.91,224.32 499.88,231.93C494.68,233.14 497.41,225.05 495.1,223.1C494.93,226.44 495.09,229.75 494.76,233.09C492.88,231.28 492.38,228.22 491.13,225.93C490.41,228.56 493.58,235.18 488.35,233.81C486.68,228.07 486.93,221.89 485.85,216C485.81,213.76 484.36,210.85 487.94,211C492.04,210.01 489.35,219.68 492.82,218.86C494.11,214.24 490.01,207.21 497.74,209.14Z" style="fill:rgb(177,30,22);fill-rule:nonzero;"/>
                <path d="M537.29,218.94C538.01,223.71 539.56,232.56 532.03,232.03C522.93,231.79 526.52,217.09 526.27,211.3C531.41,207.65 538.58,211.99 537.29,218.94Z" style="fill:rgb(173,31,22);fill-rule:nonzero;"/>
                <path d="M540.53,211.96C547.71,210.47 543.8,225.57 545.32,229.5C555.92,231.95 546.06,236.34 541.28,232.71C540.51,225.81 541.51,218.88 540.53,211.96Z" style="fill:rgb(160,36,23);fill-rule:nonzero;"/>
                <path d="M556.8,213.14C557.16,220.09 557.16,227.92 556.79,234.88C550.14,237.19 554.18,226.59 552.88,222.99C553.03,218.39 548.66,211.18 556.8,213.14Z" style="fill:rgb(151,30,19);fill-rule:nonzero;"/>
                <path d="M530.23,214.08C535.67,211.36 535.06,227.62 532,228.16C528.33,226.31 530.39,217.62 530.23,214.08Z" style="fill:rgb(245,142,118);fill-rule:nonzero;"/>
                <path d="M560.34,214.07C567.32,211.9 564.12,228.29 565.19,232.05C568.8,229.49 566.17,221.08 567.04,217.01C566.01,213.53 573.08,214.69 571.85,217.95C570.83,224.57 569.51,231.13 568.68,237.78C566.56,237.34 564.14,236.91 562.29,235.71C561.63,228.47 560.98,221.3 560.34,214.07Z" style="fill:rgb(119,21,13);fill-rule:nonzero;"/>
                <path d="M575.13,216.31C577.56,217.01 580.93,217.56 582.76,219.34C584.37,225.62 579.72,219.75 577.94,223.89C580.74,226.63 584.04,231.74 577.14,230.25C576.33,235.28 577.65,234.61 581.01,237.21C581.44,241.45 575.13,239.31 573.58,237.86C573.72,230.62 575.12,223.55 575.13,216.31Z" style="fill:rgb(100,20,14);fill-rule:nonzero;"/>
                <path d="M608.96,221C612.05,222.04 613.92,224.29 615.86,226.76C614.01,232.88 611.93,238.63 609.07,244.37C607.75,242.19 606.39,240.04 605.01,237.9C603.66,234.93 602.28,231.96 600.86,229.01C600.89,228.13 600.93,227.24 600.98,226.36C604.8,230.66 605.71,221.99 608.96,221Z" style="fill:rgb(201,182,156);fill-rule:nonzero;"/>
                <path d="M512.18,224.17C519.78,223.22 520.78,224.22 519.83,231.82C511.27,232.58 511.41,232.73 512.18,224.17Z" style="fill:rgb(214,175,161);fill-rule:nonzero;"/>
                <path d="M514.15,226.13C519.06,225.61 517.9,226.36 517.93,230.5C513.12,230.81 513.9,230.87 514.15,226.13Z" style="fill:rgb(118,24,16);fill-rule:nonzero;"/>
                <path d="M472.31,237.04C475.93,239.99 473.77,248.36 473.41,252.39C473,261.44 475.77,269.88 482.68,275.75C478.85,277.39 482.8,285.6 482,288.99C483.31,302.26 480.69,315.2 481.49,328.37C480.23,331.75 481.56,339.61 476.73,339.62C478.05,335.27 471.27,326.11 471.29,318.77C467.36,296 468.8,273.98 471.47,251.2C472.36,246.15 469.81,242.08 472.31,237.04Z" style="fill:rgb(54,45,51);fill-rule:nonzero;"/>
                <path d="M605.01,237.9C606.39,240.04 607.75,242.19 609.07,244.37C604.13,258.44 596.11,270.51 593.19,285.26C592.07,270.63 589.52,255.61 589.19,241.03C592.32,240.76 592.13,245.95 593.54,248.02C594.32,245.35 594.16,240.2 597.01,238.83C599.85,240.76 598.63,244.57 602.66,244.99C608.78,248.05 602.56,241.02 605.01,237.9Z" style="fill:rgb(50,53,60);fill-rule:nonzero;"/>
                <path d="M582.06,252.18C589.75,261.04 587.89,276.14 592.82,287.22C592.97,295.9 593.72,304.92 591.74,313.24C590.4,301.09 590.49,288.2 587.82,276.1C585.82,276.86 585.98,280.41 585.22,282.2C586.2,272.82 579.2,260.57 582.06,252.18Z" style="fill:rgb(52,55,62);fill-rule:nonzero;"/>
                <path d="M577.19,263.93C581.62,270.01 581.06,279.16 583.93,286.15L584.09,286.78C582.3,295.12 582.74,304.6 581.73,313.24C580.3,309.5 582.14,303 578.23,301.02C579.18,309.55 576.09,302.42 575.88,299.03C570.71,300.1 573.94,314.77 568.18,307.16C566.19,312.1 562.95,313.76 568,318.14C568.47,323.81 556.29,319.31 553.13,319.73C546.96,317.65 548.88,311.23 542.88,309.06C541.41,306.46 536.9,286.85 533.33,296.34C534.2,306.49 538.74,317.08 540.45,327.4C545.15,340.77 543.94,353.77 550.35,366.61C551.64,372.07 550.17,378.74 557.02,380.97C561.53,376.7 564.49,369.4 566.75,363.75C572.88,359.67 573.15,370.43 572.88,373.95C572.58,376.97 569.13,384.24 575.16,383.34C583.31,381.8 568.68,387.86 575.18,388.51C570.82,391.97 565.68,394.5 560.76,397.07C559,392.41 569.27,391.58 571.01,388.15C567.57,383.82 568,381.05 561.32,381.41C555.75,383.96 548.8,380.47 547.47,374.43C542.5,357.29 541.12,338.95 536.28,321.81C535.04,311 529.46,299.7 530.15,289.11C530.56,283.88 535.59,287.38 537.21,289.92C544.74,286.26 551.61,289.51 559.48,287.99C557.75,284.96 559.7,275.8 564.98,279.55C562.25,268.63 572.67,270.1 577.19,263.93Z" style="fill:rgb(36,37,47);fill-rule:nonzero;"/>
                <path d="M482.68,275.75C483.66,285.08 484.94,294.67 485.05,304.04C486.05,311.22 482.64,317.04 482.95,324C484.52,337.81 478.31,349.86 477.77,363.17C477.3,362.14 476.84,361.11 476.37,360.09C474.08,369.53 470.65,377.58 472.1,387.67C472.7,387.49 473.29,387.29 473.88,387.08C473.83,400.64 480.83,413.76 482.91,426.92C477.85,428.4 480.4,418.08 475.89,419.48C473.98,421.23 472.52,426.52 472.24,429.33C468.59,432.47 470.91,422.15 468.63,428.17C467.15,420.55 467.07,412.9 466.28,405.22C468.6,395.28 470.16,397.42 468.21,387.56C464.07,388.52 469.32,384.71 466.1,381.92C466.75,370.27 467.68,359.68 472.85,348.87C473.46,346.53 475.86,340.46 473.32,338.88C471.45,336.56 471.86,343.03 469.54,340.97C470.15,333.55 471.24,326.23 471.29,318.77C471.27,326.11 478.05,335.27 476.73,339.62C481.56,339.61 480.23,331.75 481.49,328.37C480.69,315.2 483.31,302.26 482,288.99C482.8,285.6 478.85,277.39 482.68,275.75Z" style="fill:rgb(115,75,85);fill-rule:nonzero;"/>
                <path d="M587.82,276.1C590.49,288.2 590.4,301.09 591.74,313.24C591.72,318.3 590.04,323.32 589.39,328.38C587.64,341.23 592.51,355.2 594.35,366.81C596.61,385.77 593.95,403.44 591.47,422.15C589,419.06 589.32,431.37 588.79,432.88C589.04,438.14 586.8,433.35 583.32,436.02C587.32,424.64 587.2,412.71 590.28,401.23C594.37,392.84 590.18,381.3 589.84,372.2C588.89,356.27 584.45,341.11 584.76,325.13C582.16,312.41 586.03,299.05 584.09,286.78L583.93,286.15C584.39,284.84 584.86,283.54 585.22,282.2C585.98,280.41 585.82,276.86 587.82,276.1Z" style="fill:rgb(113,85,96);fill-rule:nonzero;"/>
                <path d="M584.09,286.78C586.03,299.05 582.16,312.41 584.76,325.13C584.45,341.11 588.89,356.27 589.84,372.2C588.99,370.51 589.13,365.8 587.61,370.13C584.61,351.14 582.43,332.44 581.73,313.24C582.74,304.6 582.3,295.12 584.09,286.78Z" style="fill:rgb(171,114,128);fill-rule:nonzero;"/>
                <path d="M542.88,309.06C548.88,311.23 546.96,317.65 553.13,319.73C556.29,319.31 568.47,323.81 568,318.14C562.95,313.76 566.19,312.1 568.18,307.16C573.94,314.77 570.71,300.1 575.88,299.03C576.09,302.42 579.18,309.55 578.23,301.02C582.14,303 580.3,309.5 581.73,313.24C582.43,332.44 584.61,351.14 587.61,370.13C589.27,378.67 581.38,384.4 575.18,388.51C568.68,387.86 583.31,381.8 575.16,383.34C569.13,384.24 572.58,376.97 572.88,373.95C573.15,370.43 572.88,359.67 566.75,363.75C564.49,369.4 561.53,376.7 557.02,380.97C550.17,378.74 551.64,372.07 550.35,366.61C543.94,353.77 545.15,340.77 540.45,327.4C538.74,317.08 534.2,306.49 533.33,296.34C536.9,286.85 541.41,306.46 542.88,309.06Z" style="fill:rgb(53,53,64);fill-rule:nonzero;"/>
                <path d="M496.14,314.73C500.54,314.92 503.88,315.7 506.8,319.19C518.51,337.99 524.36,365.44 539.91,382.05C539.01,385.6 538.14,389.06 537.54,392.68C534.97,395.44 530.56,390.46 528.19,389.24C526.67,393.86 525.21,391.44 521.6,392.06C520.09,389.28 517.93,387.06 514.99,385.79C514.07,385.44 513.14,385.14 512.2,384.86C502.44,375.96 485.1,373.43 477.77,363.17C478.31,349.86 484.52,337.81 482.95,324C482.64,317.04 486.05,311.22 485.05,304.04C489.49,297.06 490.82,314.68 496.14,314.73Z" style="fill:rgb(28,26,33);fill-rule:nonzero;"/>
                <path d="M473.32,338.88C475.86,340.46 473.46,346.53 472.85,348.87C467.68,359.68 466.75,370.27 466.1,381.92C469.32,384.71 464.07,388.52 468.21,387.56C470.16,397.42 468.6,395.28 466.28,405.22C463.29,383.44 466.01,362.48 469.54,340.97C471.86,343.03 471.45,336.56 473.32,338.88Z" style="fill:rgb(142,140,149);fill-rule:nonzero;"/>
                <path d="M476.37,360.09C476.84,361.11 477.3,362.14 477.77,363.17C485.1,373.43 502.44,375.96 512.2,384.86C501.6,383.7 490.74,371.37 479.33,371.28C474.83,373.06 474.65,382.87 473.88,387.08C473.29,387.29 472.7,387.49 472.1,387.67C470.65,377.58 474.08,369.53 476.37,360.09Z" style="fill:rgb(219,202,187);fill-rule:nonzero;"/>
                <path d="M589.84,372.2C590.18,381.3 594.37,392.84 590.28,401.23C589.47,397.13 590.82,384.09 585.3,383.38C581.63,386.81 577.76,389.79 573.71,392.75C565.81,397.12 557.49,401.83 549.04,404.93C549.4,400.95 557.78,399.38 560.76,397.07C565.68,394.5 570.82,391.97 575.18,388.51C581.38,384.4 589.27,378.67 587.61,370.13C589.13,365.8 588.99,370.51 589.84,372.2Z" style="fill:rgb(208,198,186);fill-rule:nonzero;"/>
                <path d="M479.33,371.28C490.74,371.37 501.6,383.7 512.2,384.86C513.14,385.14 514.07,385.44 514.99,385.79C509.98,385.55 520.43,391.67 521.43,393.05C521.99,394.64 522.58,396.21 522.99,397.85C521.65,397.69 513.08,394.48 517.76,397.25C527.47,403.23 535.86,411.16 536.92,423.19C534.52,418.48 532.64,413.85 529.22,409.72C521.18,406.72 515.29,402.9 506.57,407.53C501.13,412.57 506.8,416.85 509.58,421.45C512.47,422.61 516.66,421.68 519.84,422.17C520.84,424.95 513.37,423.91 511.56,425.02C512.92,427.24 512.25,427.86 511.4,430.1C512.53,432.35 531.42,430.1 529.99,434.38C522.3,432.06 512.71,432.66 504.83,433.91C495.21,434.68 485.72,438.04 476.99,442.02C472.44,443.62 472.13,445.85 471.18,450.2C469.78,443.31 468.58,435.27 468.63,428.17C470.91,422.15 468.59,432.47 472.24,429.33C472.52,426.52 473.98,421.23 475.89,419.48C480.4,418.08 477.85,428.4 482.91,426.92C480.83,413.76 473.83,400.64 473.88,387.08C474.65,382.87 474.83,373.06 479.33,371.28Z" style="fill:rgb(44,42,49);fill-rule:nonzero;"/>
                <path d="M585.3,383.38C590.82,384.09 589.47,397.13 590.28,401.23C587.2,412.71 587.32,424.64 583.32,436.02C586.8,433.35 589.04,438.14 588.79,432.88C589.32,431.37 589,419.06 591.47,422.15C589.22,430.61 592.12,438.53 587.95,446.18C584.88,446.66 581.9,446.3 578.84,446.03L579.22,445.33C583.37,443.73 576.8,443.9 575.53,442.99C578.14,440.06 572.56,440.68 570.93,439.25C575.38,438.19 584.97,440.23 587.78,438.15C578.96,436.76 570.96,438.62 562.3,438.67C561,437.24 553.12,435.57 558.09,434.07C564.13,434.83 569.59,434.46 575.62,433.68C577.96,430.51 570.76,434.81 573,431.94C575.91,428.58 570.04,424.96 575,424.24C578.21,424.73 584.32,431.18 584.91,424.86C587.06,419.18 575.66,417 572.04,415.29C576.29,408.83 568.1,411.76 571.12,404.47C577.87,408.2 573.84,398.88 577.58,396.05C573.99,395.34 570.61,397.82 573.71,392.75C577.76,389.79 581.63,386.81 585.3,383.38Z" style="fill:rgb(52,48,58);fill-rule:nonzero;"/>
                <path d="M514.99,385.79C517.93,387.06 520.09,389.28 521.6,392.06L521.43,393.05C520.43,391.67 509.98,385.55 514.99,385.79Z" style="fill:rgb(157,159,155);fill-rule:nonzero;"/>
                <path d="M529.22,409.72C532.64,413.85 534.52,418.48 536.92,423.19C537.61,428.09 539.53,432.92 539.49,437.86C536.32,436.7 533.16,435.55 529.99,434.38C531.42,430.1 512.53,432.35 511.4,430.1C512.25,427.86 512.92,427.24 511.56,425.02C513.37,423.91 520.84,424.95 519.84,422.17C516.66,421.68 512.47,422.61 509.58,421.45C506.8,416.85 501.13,412.57 506.57,407.53C515.29,402.9 521.18,406.72 529.22,409.72Z" style="fill:rgb(63,64,73);fill-rule:nonzero;"/>
                <path d="M552.94,409.06C559.48,410.21 565.67,413.39 572.04,415.29C575.66,417 587.06,419.18 584.91,424.86C584.32,431.18 578.21,424.73 575,424.24C566.6,419.52 556.82,418.26 548.78,413.18C546.08,410.3 550.56,408.72 552.94,409.06Z" style="fill:rgb(184,104,103);fill-rule:nonzero;"/>
                <path d="M529.99,434.38C533.16,435.55 536.32,436.7 539.49,437.86C540.27,440.18 540.94,442.49 541.06,444.95C541.72,460.02 539.88,475.35 540.65,490.18C540.43,491.53 542.84,497.51 540.24,496.97C533.37,494.21 527.25,491.99 524.77,484.19C518.19,475.45 511.13,467.86 509.53,456.44C503.32,453.14 502.16,444.88 507.05,440.11C514.4,438.27 507.83,436.01 504.83,433.91C512.71,432.66 522.3,432.06 529.99,434.38Z" style="fill:rgb(238,213,180);fill-rule:nonzero;"/>
                <path d="M504.83,433.91C507.83,436.01 514.4,438.27 507.05,440.11C502.16,444.88 503.32,453.14 509.53,456.44C511.13,467.86 518.19,475.45 524.77,484.19C527.25,491.99 533.37,494.21 540.24,496.97C536.28,496.92 532.32,497.06 528.36,496.95C525.79,493.79 517.82,496.95 520.76,491.7C525.63,485.99 505.61,487.73 511.57,482.68C509.73,483.48 508.39,484.83 506.85,486.07C504.34,482.26 505.62,482.41 508.89,480.56C506.13,479.63 503.66,478.88 502.21,476.13C506.77,469.66 494.79,467.97 494.07,460.09C489.97,461.39 489.02,454.81 488.78,461.93C485.45,453.97 484.32,468.25 479.07,463.57C475.25,478.49 489,485.87 485.65,499.23C478.92,483.28 475.42,466.76 471.18,450.2C472.13,445.85 472.44,443.62 476.99,442.02C485.72,438.04 495.21,434.68 504.83,433.91Z" style="fill:rgb(213,185,147);fill-rule:nonzero;"/>
                <path d="M559.1,439.94C562.06,443.96 547.56,440.84 546.35,444.39C543.62,449.21 553.87,443.14 551.01,448.97C547.22,459.24 554.29,452.05 553.07,461.01C552.87,475.18 546.78,485.23 550.55,498.85C549.81,501.45 551.92,510.98 546.85,509.48C543.39,505.88 543.12,505.22 543.73,500.26C541.2,499.59 543.16,506.7 538.94,503.06C535.12,498.34 538.57,507 535.2,501.9L534.94,500.94C536.32,498.13 544.56,500.93 540.24,496.97C542.84,497.51 540.43,491.53 540.65,490.18C539.88,475.35 541.72,460.02 541.06,444.95C545.26,440.84 553.54,440.97 559.1,439.94Z" style="fill:rgb(138,89,51);fill-rule:nonzero;"/>
                <path d="M559.1,439.94C561.17,439.84 563.19,440.04 565.16,440.72C556.22,441.06 565.65,442.66 568.03,444.88C563.61,444.47 559.68,442.69 555.15,442.98C562.77,451.71 561.79,461.41 558.67,471.79C557.08,477.71 560.11,482.12 557.12,487.99C560.4,496.76 557.51,502.3 555.2,510.6C561.54,510.57 564.09,515.59 565.33,521.03C564.92,521.72 564.5,522.42 564.08,523.11C558.41,527.51 555.74,522.45 552.04,518.82C544.76,525.83 554.8,524.68 552.24,533.16C549.85,539.31 556.22,542.21 550.19,547.2C551.41,550.93 551.72,554.07 551.43,557.98C549.99,562.32 542.75,563.62 542.1,568.12C542.39,573.86 545.44,579.4 545.87,585.1C543.27,586.78 539.42,582.11 543.28,581.52C539.95,581.68 534.97,570.39 536.94,563.97C542.45,559.27 540.6,554.36 541.21,548C545.49,549.58 546.8,553.81 547.04,546.05C545.42,541.51 542.92,541.64 538.92,541.27C536.64,540.12 542.56,539.59 542.28,537.45C537.31,531.35 546.39,517.1 546.85,509.48C551.92,510.98 549.81,501.45 550.55,498.85C546.78,485.23 552.87,475.18 553.07,461.01C554.29,452.05 547.22,459.24 551.01,448.97C553.87,443.14 543.62,449.21 546.35,444.39C547.56,440.84 562.06,443.96 559.1,439.94Z" style="fill:rgb(160,122,89);fill-rule:nonzero;"/>
                <path d="M565.16,440.72C569.81,442.4 574.39,444.2 579.22,445.33L578.84,446.03C577.02,446.32 567.36,443.8 573.4,446.54C578.93,449.15 572.47,447.33 570.23,447.22C575.37,451.66 568.18,456.93 568.61,462.8C565.5,472.16 572.96,482.98 566.76,490.54C567.64,498.02 564.12,510.8 567.03,518.17C566.49,519.14 565.92,520.09 565.33,521.03C564.09,515.59 561.54,510.57 555.2,510.6C557.51,502.3 560.4,496.76 557.12,487.99C560.11,482.12 557.08,477.71 558.67,471.79C561.79,461.41 562.77,451.71 555.15,442.98C559.68,442.69 563.61,444.47 568.03,444.88C565.65,442.66 556.22,441.06 565.16,440.72Z" style="fill:rgb(197,162,123);fill-rule:nonzero;"/>
                <path d="M578.84,446.03C581.9,446.3 584.88,446.66 587.95,446.18C582.32,470.74 575.24,494.41 567.03,518.17C564.12,510.8 567.64,498.02 566.76,490.54C572.96,482.98 565.5,472.16 568.61,462.8C568.18,456.93 575.37,451.66 570.23,447.22C572.47,447.33 578.93,449.15 573.4,446.54C567.36,443.8 577.02,446.32 578.84,446.03Z" style="fill:rgb(216,194,167);fill-rule:nonzero;"/>
                <path d="M494.07,460.09C494.79,467.97 506.77,469.66 502.21,476.13C503.66,478.88 506.13,479.63 508.89,480.56C505.62,482.41 504.34,482.26 506.85,486.07C508.39,484.83 509.73,483.48 511.57,482.68C505.61,487.73 525.63,485.99 520.76,491.7C517.82,496.95 525.79,493.79 528.36,496.95C518.34,500.11 502.92,496.53 493.2,501.25C489.8,504.59 491.27,503.47 494.98,504.39C492.46,505.86 489.62,505.82 488.77,509.02C487.83,505.72 486.85,502.45 485.65,499.23C489,485.87 475.25,478.49 479.07,463.57C484.32,468.25 485.45,453.97 488.78,461.93C489.02,454.81 489.97,461.39 494.07,460.09Z" style="fill:rgb(197,159,118);fill-rule:nonzero;"/>
                <path d="M528.36,496.95C532.32,497.06 536.28,496.92 540.24,496.97C544.56,500.93 536.32,498.13 534.94,500.94C532.43,500.2 527.26,496.18 527.29,501.16C525.36,507.31 523.31,502.95 524.41,498.8C518.49,505.64 522.34,494.83 519.01,501.76C515.12,496.96 518.5,507.25 515.79,502.13C510.28,496.31 511.81,510.11 515.65,507.66C520.06,507.1 518.74,505.33 519.01,501.76C518.2,509.07 532.86,505.07 535.2,501.9C538.57,507 535.12,498.34 538.94,503.06C543.16,506.7 541.2,499.59 543.73,500.26C543.12,505.22 543.39,505.88 546.85,509.48C546.39,517.1 537.31,531.35 542.28,537.45C542.56,539.59 536.64,540.12 538.92,541.27C542.92,541.64 545.42,541.51 547.04,546.05C546.8,553.81 545.49,549.58 541.21,548C540.6,554.36 542.45,559.27 536.94,563.97C534.97,570.39 539.95,581.68 543.28,581.52C539.42,582.11 543.27,586.78 545.87,585.1C543.23,589.24 554.81,600.06 547,598.62C547.14,601.59 546.52,601.79 549.84,602.13C549.59,602.75 549.34,603.36 549.08,603.98C541.35,604.7 533.56,605.85 525.79,605.99C519.45,605.93 507.07,608.01 503.86,614.15C497.86,597.96 492.98,578.78 496.45,561.6C495.84,557.23 495.11,553.5 495.91,549.03C497.39,534.24 490.89,523.08 488.77,509.02C489.62,505.82 492.46,505.86 494.98,504.39C491.27,503.47 489.8,504.59 493.2,501.25C502.92,496.53 518.34,500.11 528.36,496.95Z" style="fill:rgb(43,45,56);fill-rule:nonzero;"/>
                <path d="M534.94,500.94L535.2,501.9C532.86,505.07 518.2,509.07 519.01,501.76C522.34,494.83 518.49,505.64 524.41,498.8C523.31,502.95 525.36,507.31 527.29,501.16C527.26,496.18 532.43,500.2 534.94,500.94Z" style="fill:rgb(162,161,169);fill-rule:nonzero;"/>
                <path d="M519.01,501.76C518.74,505.33 520.06,507.1 515.65,507.66C511.81,510.11 510.28,496.31 515.79,502.13C518.5,507.25 515.12,496.96 519.01,501.76Z" style="fill:rgb(149,147,154);fill-rule:nonzero;"/>
                <path d="M541.04,506.2C538.15,509.21 538.18,511.49 537.3,515.34C533.98,517.7 526.07,513.98 522.99,517.76C525.39,519.22 531.41,516.89 530.97,520.87C526.88,521.31 523.14,519.78 519.01,519.99C520.23,522.06 531.72,521.73 526.72,525.75C521.43,525.35 511.8,529.02 509.74,522.2C510.84,518.7 504.08,522.34 506.9,519.76C509.19,516.87 514.49,523.3 516.15,522.01C518.11,518.98 513.88,520.47 512.15,519.7C511.9,517.79 514.78,517.96 516.06,517.18C514.42,516.05 498.41,519.28 506.97,515C504.48,514.4 495.19,518.34 497.14,513.25C512.15,512.59 525.96,507.33 541.04,506.2Z" style="fill:rgb(122,123,134);fill-rule:nonzero;"/>
                <path d="M532.86,511.06C530.08,515.62 517.67,515.1 512.94,513.42C517.24,512.52 521.6,512.27 525.95,511.75C528.5,511.43 530.3,510.05 532.86,511.06Z" style="fill:rgb(23,24,36);fill-rule:nonzero;"/>
                <path d="M552.04,518.82C555.74,522.45 558.41,527.51 564.08,523.11C560.88,532.25 557.77,541.82 555.26,551.17C554.25,568.93 557.3,585.16 549.84,602.13C546.52,601.79 547.14,601.59 547,598.62C554.81,600.06 543.23,589.24 545.87,585.1C545.44,579.4 542.39,573.86 542.1,568.12C542.75,563.62 549.99,562.32 551.43,557.98C551.72,554.07 551.41,550.93 550.19,547.2C556.22,542.21 549.85,539.31 552.24,533.16C554.8,524.68 544.76,525.83 552.04,518.82Z" style="fill:rgb(199,173,144);fill-rule:nonzero;"/>
                <path d="M527.81,542.02C528.13,543.46 524.16,542.79 523.21,543.19C523.78,545.1 528.72,542.72 527.84,545.85C524.88,545.53 522.01,544.91 519.01,544.99C530.66,548.97 508.22,548.44 508.61,547.4C510.92,545.71 515.27,546.75 516.91,545.11C515.19,544.56 508.26,545.88 508.24,544.11C515.45,545.13 520.98,541.69 527.81,542.02Z" style="fill:rgb(134,135,146);fill-rule:nonzero;"/>
                <path d="M525.77,550.14C523.86,556.11 522.69,561.14 515,559.03C521.79,561.49 512.61,562.16 510.3,562.08C514.45,557.69 504.97,562.4 504.96,557C509.04,553.69 514.51,553.29 519.53,552.9C515.48,548.02 523.03,550.54 525.77,550.14Z" style="fill:rgb(137,138,149);fill-rule:nonzero;"/>
                <path d="M524.59,573.41C529.31,580.36 532.98,589.04 538.89,594.92C528.23,596.96 514.74,594.39 503.21,597.79C500.86,595.67 501.62,585.1 505.88,585.18C498.83,584.78 506.17,585.01 503.38,580.24C509.8,576.63 503.74,580.03 504.67,574.89C510.61,573.17 518.44,572.31 524.59,573.41Z" style="fill:rgb(107,106,120);fill-rule:nonzero;"/>
                <path d="M549.08,603.98C548.57,616.11 545.75,629.29 549.16,640.88C541.51,638.01 545.65,643.26 541.03,645.88C531.5,645.56 538.87,638.56 529.33,640.13C530.39,630.47 525.24,616.46 525.79,605.99C533.56,605.85 541.35,604.7 549.08,603.98Z" style="fill:rgb(229,199,177);fill-rule:nonzero;"/>
                <path d="M525.79,605.99C525.24,616.46 530.39,630.47 529.33,640.13C525.58,642.69 520.67,643.41 517.24,646.28C515.67,652.21 519.44,656.37 518.88,662.07C516.44,658.95 517.08,653.03 514.03,650.87C512.6,652.22 511.4,653.77 509.97,655.13C507.25,653.64 505.72,648.7 502.3,650.21C497.88,654.56 500.67,663.75 497.07,668.17C497.43,651.09 507.9,631.27 504.07,614.8L503.86,614.15C507.07,608.01 519.45,605.93 525.79,605.99Z" style="fill:rgb(195,142,109);fill-rule:nonzero;"/>
                <path d="M529.33,640.13C538.87,638.56 531.5,645.56 541.03,645.88C544.71,645.14 545.69,655.32 547.34,658.24C537.59,651.15 544.04,662.86 533.98,665.85C530.69,668.62 527.72,671.7 524.96,674.99C521.9,675.33 522.29,674.99 521.9,678.04C512.76,672.77 505.83,673.44 495.63,675.52C496.02,673.05 496.38,670.59 497.07,668.17C500.67,663.75 497.88,654.56 502.3,650.21C505.72,648.7 507.25,653.64 509.97,655.13C511.4,653.77 512.6,652.22 514.03,650.87C517.08,653.03 516.44,658.95 518.88,662.07C519.44,656.37 515.67,652.21 517.24,646.28C520.67,643.41 525.58,642.69 529.33,640.13Z" style="fill:rgb(220,23,42);fill-rule:nonzero;"/>
                <path d="M549.16,640.88C549.83,649.11 551.17,657.73 550.84,665.95L550.1,666.56C548.3,663.93 547.61,661.37 547.34,658.24C545.69,655.32 544.71,645.14 541.03,645.88C545.65,643.26 541.51,638.01 549.16,640.88Z" style="fill:rgb(212,94,116);fill-rule:nonzero;"/>
                <path d="M547.34,658.24C547.61,661.37 548.3,663.93 550.1,666.56C547.03,666.57 539.44,664.39 533.98,665.85C544.04,662.86 537.59,651.15 547.34,658.24Z" style="fill:rgb(238,187,194);fill-rule:nonzero;"/>
                <path d="M550.1,666.56L550.84,665.95C553.53,671.25 554.62,677.04 556.93,682.45C557.19,683.07 557.46,683.7 557.73,684.31C558.11,685.34 558.49,686.36 558.87,687.39C553.83,688.58 549.9,684.26 544.45,686.53C542.29,687.35 536.14,692.58 535.11,688.31C529.34,687.27 531.01,697.69 525.18,699.99C525.39,691.75 524.09,683.07 524.96,674.99C527.72,671.7 530.69,668.62 533.98,665.85C539.44,664.39 547.03,666.57 550.1,666.56Z" style="fill:rgb(42,43,53);fill-rule:nonzero;"/>
                <path d="M539.14,671.1C541.65,670.95 543.89,670.59 543.96,673.86C541.02,673.6 538.28,675.55 539.14,671.1Z" style="fill:rgb(204,203,210);fill-rule:nonzero;"/>
                <path d="M521.9,678.04C524.05,684.84 522.48,692.77 523.96,699.97C519.73,698.32 516.02,696.25 512.14,693.92C513.45,696.38 519.49,701.54 516.79,704.29C511.53,704.54 505.29,707.85 506.16,699.64C500.63,696.64 506.2,703.37 504.35,705.31C501.45,704.75 494.87,709.52 498.67,703.83C491.07,707.1 498.46,708.9 496.04,713.11C492.69,712.56 494.45,718.14 494.13,720.08C491.79,719.99 490.6,719.68 488.83,718.17C487.92,715.06 487.12,712.44 488.18,709.24C491.55,702.92 493.4,695.71 490.8,688.75C491.59,685.88 491.96,683.04 492.14,680.08C493.13,678.42 494.33,676.94 495.63,675.52C505.83,673.44 512.76,672.77 521.9,678.04Z" style="fill:rgb(33,33,44);fill-rule:nonzero;"/>
                <path d="M524.96,674.99C524.09,683.07 525.39,691.75 525.18,699.99C531.01,697.69 529.34,687.27 535.11,688.31C536.14,692.58 542.29,687.35 544.45,686.53C549.9,684.26 553.83,688.58 558.87,687.39C559.46,688.33 560.07,689.27 560.71,690.18C562.45,693.37 565.88,695.61 566.55,699.09C564.52,699.15 563.48,696.92 561.24,696.85C566.42,704.51 566.47,708 564.31,716.75C564.73,721.91 560.35,723.93 560.78,729.05L560.14,729.03C560.27,723.43 555.15,720.61 560.73,715.9C548.95,718.24 555.71,706.61 544.8,706.8C546.28,702.13 549.99,700.04 552.79,696.37C544.35,689.73 534.95,701.11 531.05,707.99C529.17,711.29 527.31,723.99 522.17,717.15C522.17,714.53 522.17,711.9 522.35,709.28C526.03,713.49 531.28,702.23 529.96,700.93C522.26,699.43 527.87,702.81 525.81,706.97C523.12,705.64 524.39,702.44 523.96,699.97C522.48,692.77 524.05,684.84 521.9,678.04C522.29,674.99 521.9,675.33 524.96,674.99Z" style="fill:rgb(178,123,111);fill-rule:nonzero;"/>
                <path d="M490.8,688.75C493.4,695.71 491.55,702.92 488.18,709.24C488.13,706.92 488.01,704.61 487.82,702.3L487.76,701.42C489.25,697.29 489.46,692.92 490.8,688.75Z" style="fill:rgb(127,96,116);fill-rule:nonzero;"/>
                <path d="M512.14,693.92C516.02,696.25 519.73,698.32 523.96,699.97C524.39,702.44 523.12,705.64 525.81,706.97C527.87,702.81 522.26,699.43 529.96,700.93C531.28,702.23 526.03,713.49 522.35,709.28C522.17,711.9 522.17,714.53 522.17,717.15C515.42,713.56 505.12,715.36 499.89,721C492.34,719.66 504.93,715.59 496.04,713.11C498.46,708.9 491.07,707.1 498.67,703.83C494.87,709.52 501.45,704.75 504.35,705.31C506.2,703.37 500.63,696.64 506.16,699.64C505.29,707.85 511.53,704.54 516.79,704.29C519.49,701.54 513.45,696.38 512.14,693.92Z" style="fill:rgb(68,68,81);fill-rule:nonzero;"/>
                <path d="M552.79,696.37C549.99,700.04 546.28,702.13 544.8,706.8C541.93,708.71 546.24,710 544.8,706.8C555.71,706.61 548.95,718.24 560.73,715.9C555.15,720.61 560.27,723.43 560.14,729.03C556.97,733.2 559.7,731.56 562.86,733.29C558.02,741.51 541.22,736.71 533,738C518.75,737.09 495.48,742.2 489.31,724.8L489.01,722.99C488.96,721.38 488.93,719.77 488.83,718.17C490.6,719.68 491.79,719.99 494.13,720.08C493.52,726.03 492.11,733.09 500.82,727.84C511.24,722.75 519.74,728.44 529.03,731.95C539,734.05 530.07,725.25 527.26,722.73C525.52,720.22 511.95,717.11 522.17,717.15C527.31,723.99 529.17,711.29 531.05,707.99C534.95,701.11 544.35,689.73 552.79,696.37Z" style="fill:rgb(82,44,47);fill-rule:nonzero;"/>
                <path d="M561.24,696.85C563.48,696.92 564.52,699.15 566.55,699.09C566.85,700.33 566.9,701.66 566.99,702.93C565.57,711.39 574.94,703.32 579.02,707.96C582.34,715.37 593.23,708.05 599.96,713.1C603.63,716.68 610.15,715.71 612.85,719.65C603.39,722.88 612.53,721.06 615.8,724.61C611.27,725.61 609.78,726.56 606.9,729.87C599.5,731.18 592.53,735.11 585.12,735.15C591.44,737.7 583.08,738.24 583.21,735.06C573.53,742.94 559.98,743.94 548,743C531.04,742.27 514.97,743.88 498.02,741.11C475.86,736.03 453.33,739.19 431.61,731.38C426.91,730.63 421.36,724.79 420.42,720.61C436.03,710.5 456.48,708.43 474.6,707.51C480.8,705.44 482.54,704.79 487.01,706.59C487.05,705.06 487.05,703.53 487.05,702L487.82,702.3C488.01,704.61 488.13,706.92 488.18,709.24C487.12,712.44 487.92,715.06 488.83,718.17C488.93,719.77 488.96,721.38 489.01,722.99C484.75,721.38 479.25,722.51 479.07,727.91C481.39,735.05 489.52,737.37 496.04,738.96C513.71,742.9 531.23,739.47 548.99,742.08C557.42,741.56 569.81,741.27 576.1,734.91C575.04,729 569.38,727.68 564.67,725.67C564.83,722.6 565.25,719.76 564.31,716.75C566.47,708 566.42,704.51 561.24,696.85Z" style="fill:rgb(194,193,193);fill-rule:nonzero;"/>
                <path d="M544.8,706.8C541.93,708.71 546.24,710 544.8,706.8Z" style="fill:rgb(141,91,64);fill-rule:nonzero;"/>
                <path d="M496.04,713.11C504.93,715.59 492.34,719.66 499.89,721C505.12,715.36 515.42,713.56 522.17,717.15C511.95,717.11 525.52,720.22 527.26,722.73C530.07,725.25 539,734.05 529.03,731.95C519.74,728.44 511.24,722.75 500.82,727.84C492.11,733.09 493.52,726.03 494.13,720.08C494.45,718.14 492.69,712.56 496.04,713.11Z" style="fill:rgb(193,118,131);fill-rule:nonzero;"/>
                <path d="M564.31,716.75C565.25,719.76 564.83,722.6 564.67,725.67C569.38,727.68 575.04,729 576.1,734.91C569.81,741.27 557.42,741.56 548.99,742.08C531.23,739.47 513.71,742.9 496.04,738.96C489.52,737.37 481.39,735.05 479.07,727.91C479.25,722.51 484.75,721.38 489.01,722.99L489.31,724.8C481.66,727.51 485.84,732.79 490.98,735.02C507.32,741.53 528.69,739.73 546,740.01C552.8,740.09 563.15,739.91 568.66,735.66C572.82,731.54 563.89,728.85 560.78,729.05C560.35,723.93 564.73,721.91 564.31,716.75Z" style="fill:rgb(162,158,158);fill-rule:nonzero;"/>
                <path d="M489.31,724.8C495.48,742.2 518.75,737.09 533,738C541.22,736.71 558.02,741.51 562.86,733.29C559.7,731.56 556.97,733.2 560.14,729.03L560.78,729.05C563.89,728.85 572.82,731.54 568.66,735.66C563.15,739.91 552.8,740.09 546,740.01C528.69,739.73 507.32,741.53 490.98,735.02C485.84,732.79 481.66,727.51 489.31,724.8Z" style="fill:rgb(112,110,110);fill-rule:nonzero;"/>
            </g>
        </g>
    </g>
</svg>
