<?xml version="1.0" encoding="UTF-8" standalone="no"?>
<!DOCTYPE svg PUBLIC "-//W3C//DTD SVG 1.1//EN" "http://www.w3.org/Graphics/SVG/1.1/DTD/svg11.dtd">
<svg width="100%" height="100%" viewBox="0 0 1729 1728" version="1.1" xmlns="http://www.w3.org/2000/svg" xmlns:xlink="http://www.w3.org/1999/xlink" xml:space="preserve" xmlns:serif="http://www.serif.com/" style="fill-rule:evenodd;clip-rule:evenodd;stroke-linejoin:round;stroke-miterlimit:2;">
    <g transform="matrix(1,0,0,1,-5534,-2084)">
        <g id="_11" serif:id="11" transform="matrix(1,0,0,1,5534.834324,2084)">
            <rect x="0" y="0" width="1728" height="1728" style="fill:none;"/>
            <g transform="matrix(2.621566,0,0,2.621566,-207.893102,120.011028)">
                <g>
                    <path d="M449.97,156.19C455.59,155.18 460.75,156.82 465.75,159.25C471.47,162.08 477.06,165.19 482.59,168.38C487.43,171.16 491.82,174.57 496.58,177.45C501.29,180.39 507.58,181.12 513,181.61C517.62,181.96 522.44,182.56 527.07,182.07C528.63,181.92 530.04,180.55 531.36,179.77C532.18,180.81 533,181.86 533.82,182.91C529.92,187.93 524.81,191.23 519.4,194.4C511.78,198.71 502.83,202.89 494,203.48C487.75,204.03 483.98,200.16 478.03,199.35C474.07,198.7 470.02,200.33 466.16,199.76C463.38,199.1 462.02,196.91 460.4,194.79C460.6,202.25 460.84,209.63 461.98,217.02C462.07,219.32 463.07,222.77 461.25,224.53C459.9,223.73 458.64,222.79 457.4,221.84C464.77,236.21 465.69,251.95 470.79,268.11C474.18,269.24 477.98,270.16 481.04,272.04C484.05,273.97 485.79,277.49 487.42,280.56C489.2,284.09 491.18,287.56 492.68,291.21C494.39,295.45 494.44,299.58 494.8,304.06C507.88,309.71 521.9,313.26 534.94,318.99C536.9,319.98 539.8,321.28 540.72,323.4C541.68,327.63 539.86,331.9 537.14,335.1C532.98,340.02 526.67,343.37 520.78,345.76C509.03,350.46 496.04,352.71 483.45,353.49C481.55,358.87 480.32,364.92 475.95,368.93C471.29,373.16 464.92,375.81 459.17,378.22C454.67,380.16 449.8,380.5 445.21,382.02C438.97,386.66 433.61,392.83 426.86,396.93C422.97,399.21 418.66,400.39 415.06,403.07C412.42,405.02 410.4,407.2 407.22,408.35C400.81,410.66 393.79,411.54 387,411.7C379.74,411.78 371.47,410.75 365.23,406.74C360.89,404.01 359.17,399.99 355.46,396.53C350.37,391.66 346.16,386.06 343.53,379.48C341.16,373.22 340.33,366.57 339.48,360C339.28,356.99 337.06,354.96 335.5,352.49C331.16,346.39 329.68,338.87 328.18,331.68C317.75,327.8 309.15,321.81 299.24,316.77C291,312.82 282.96,306.93 277.65,299.44C274.83,292.88 279.16,283.5 285.43,280.38C298.43,273.39 313.52,269.12 327.78,265.52C330.94,264.67 334.16,264.15 337.41,263.77C340.3,258.2 345.13,255.46 350.07,252.03C351.94,250.86 352.31,249.07 353.11,247.17C355.25,241.4 358.1,234.93 362.61,230.61C364.72,228.51 367.48,227.53 369.79,225.77C372.3,222.92 374.11,219.39 376.23,216.24C384.6,202.92 394.14,190.41 405.33,179.33C411.83,172.29 420.25,169.04 428.57,164.57C435.29,161.34 442.57,157.43 449.97,156.19Z" style="fill:rgb(0,28,61);fill-rule:nonzero;"/>
                    <clipPath id="_clip1">
                        <path d="M449.97,156.19C455.59,155.18 460.75,156.82 465.75,159.25C471.47,162.08 477.06,165.19 482.59,168.38C487.43,171.16 491.82,174.57 496.58,177.45C501.29,180.39 507.58,181.12 513,181.61C517.62,181.96 522.44,182.56 527.07,182.07C528.63,181.92 530.04,180.55 531.36,179.77C532.18,180.81 533,181.86 533.82,182.91C529.92,187.93 524.81,191.23 519.4,194.4C511.78,198.71 502.83,202.89 494,203.48C487.75,204.03 483.98,200.16 478.03,199.35C474.07,198.7 470.02,200.33 466.16,199.76C463.38,199.1 462.02,196.91 460.4,194.79C460.6,202.25 460.84,209.63 461.98,217.02C462.07,219.32 463.07,222.77 461.25,224.53C459.9,223.73 458.64,222.79 457.4,221.84C464.77,236.21 465.69,251.95 470.79,268.11C474.18,269.24 477.98,270.16 481.04,272.04C484.05,273.97 485.79,277.49 487.42,280.56C489.2,284.09 491.18,287.56 492.68,291.21C494.39,295.45 494.44,299.58 494.8,304.06C507.88,309.71 521.9,313.26 534.94,318.99C536.9,319.98 539.8,321.28 540.72,323.4C541.68,327.63 539.86,331.9 537.14,335.1C532.98,340.02 526.67,343.37 520.78,345.76C509.03,350.46 496.04,352.71 483.45,353.49C481.55,358.87 480.32,364.92 475.95,368.93C471.29,373.16 464.92,375.81 459.17,378.22C454.67,380.16 449.8,380.5 445.21,382.02C438.97,386.66 433.61,392.83 426.86,396.93C422.97,399.21 418.66,400.39 415.06,403.07C412.42,405.02 410.4,407.2 407.22,408.35C400.81,410.66 393.79,411.54 387,411.7C379.74,411.78 371.47,410.75 365.23,406.74C360.89,404.01 359.17,399.99 355.46,396.53C350.37,391.66 346.16,386.06 343.53,379.48C341.16,373.22 340.33,366.57 339.48,360C339.28,356.99 337.06,354.96 335.5,352.49C331.16,346.39 329.68,338.87 328.18,331.68C317.75,327.8 309.15,321.81 299.24,316.77C291,312.82 282.96,306.93 277.65,299.44C274.83,292.88 279.16,283.5 285.43,280.38C298.43,273.39 313.52,269.12 327.78,265.52C330.94,264.67 334.16,264.15 337.41,263.77C340.3,258.2 345.13,255.46 350.07,252.03C351.94,250.86 352.31,249.07 353.11,247.17C355.25,241.4 358.1,234.93 362.61,230.61C364.72,228.51 367.48,227.53 369.79,225.77C372.3,222.92 374.11,219.39 376.23,216.24C384.6,202.92 394.14,190.41 405.33,179.33C411.83,172.29 420.25,169.04 428.57,164.57C435.29,161.34 442.57,157.43 449.97,156.19Z" clip-rule="nonzero"/>
                    </clipPath>
                    <g clip-path="url(#_clip1)">
                        <path d="M449.03,162.94C454.91,161.7 460.69,163.99 464.79,168.21C471,174.48 478.67,178.53 486.4,182.63C491.78,185.36 496.79,188.06 502.98,188.19C509.38,188.31 515.79,187.23 522.2,187.15C515.55,192.52 506.35,194.24 498.04,192.98C490.49,191.49 483.43,188.7 476.22,186.61C472.38,185.47 468.24,184.94 464.53,183.43C461.26,181.99 458.96,179.31 456.51,176.8C454.76,181.8 453.08,186.66 452.52,191.97C452.14,195.87 451.82,199.72 450.57,203.46C445.07,199.44 440.5,194.52 434.39,191.28C436.04,197.51 438.4,203.42 439.56,209.78C440.99,216.26 441.09,222.85 442.79,229.27C444.24,234.91 443.9,240.36 443.46,246.09C436.55,242.28 430.82,236.75 423.91,233.01C417.92,230.25 411.27,228.76 404.94,226.97C397.56,224.69 390.2,226.79 382.24,226.05C384.15,219.45 388.36,214.67 391.9,208.95C396.56,201.97 400.91,194.66 406.13,188.08C411.24,181.66 418.57,177.75 425.43,173.43C432.68,169.19 440.73,164.56 449.03,162.94Z" style="fill:white;fill-rule:nonzero;"/>
                        <path d="M385.82,230.84C384.37,233.47 382.91,236.09 381.45,238.72C375.09,239.16 368.91,240.43 362.71,241.85C363.88,240.39 364.99,238.66 366.45,237.46C372.24,233.47 378.83,231.43 385.82,230.84Z" style="fill:white;fill-rule:nonzero;"/>
                        <path d="M394.03,231.14C400.31,231.35 406.51,232.59 412.27,235.15C405.24,243.47 400.4,253.05 395.88,262.9C394.78,265.22 393.48,267.43 392.16,269.64C385.68,268.73 379.39,267.62 373.3,265.12C374.33,260.91 376.23,257.18 378.54,253.54C382.53,247.18 386.34,240.7 390.39,234.38C391.24,233.34 392.52,231.01 394.03,231.14Z" style="fill:white;fill-rule:nonzero;"/>
                        <path d="M421.1,239.86C432.28,246.47 442.9,253.62 451.85,263.14C457.91,269.54 462.14,277.92 465.43,286.02C464.52,288.56 462.81,289.81 460.12,289.98C454.56,285.3 451.2,277.03 446.29,271.71C441.6,266.5 436.56,261.27 430.95,257.06C425.23,252.97 419.3,249.22 413,246.08C413.83,243.69 414.42,240.9 415.87,238.81C417.63,237.67 419.51,239.07 421.1,239.86Z" style="fill:white;fill-rule:nonzero;"/>
                        <path d="M377.98,244.24C376.76,246.7 375.45,249.1 374.07,251.47C370.54,251.47 367,251.44 363.47,251.28C367.86,246.91 371.86,245.16 377.98,244.24Z" style="fill:white;fill-rule:nonzero;"/>
                        <path d="M410.96,251.98C415.2,252.37 419.41,254.83 422.98,257.03C429.8,261.5 436.49,267.03 441.18,273.76C439.85,275.58 438.47,277.33 436.97,279.01C428.22,270.79 417.33,264.6 406.53,259.5C407.93,257.01 409.09,254.15 410.96,251.98Z" style="fill:white;fill-rule:nonzero;"/>
                        <path d="M371.02,256.87C370.08,259.37 369.13,261.87 368.16,264.36C360.76,264.12 353.44,265.15 346.06,265.14C347.58,263.28 349.25,261.61 351.19,260.18C356.03,255.8 364.88,257.54 371.02,256.87Z" style="fill:white;fill-rule:nonzero;"/>
                        <path d="M401.84,265.2C408.05,267.05 413.95,271.13 419.38,274.62C426.48,279.32 433.27,284.69 439.36,290.64C442.56,294.01 446.43,298.3 447.32,302.98C447.66,304.87 447.29,305.96 446.04,307.38C442.5,307.85 441.15,303.84 439.37,301.57C434.11,294.17 424.77,288.97 417.76,283.24C411.79,278.18 405.03,275.54 398.07,272.21C399.14,269.76 400.29,267.38 401.84,265.2Z" style="fill:white;fill-rule:nonzero;"/>
                        <path d="M368.27,269.83C373.94,271.69 379.33,271.68 384.45,275.08C372.36,276.25 360.14,276.1 348.01,276.79C344.37,277.03 340.92,277.97 337.42,278.94C349.77,280.36 361.79,283.83 373.14,288.86C388.79,296.08 405.14,301.86 421.23,308C420.88,309.7 420.53,311.4 420.18,313.1C394.96,304.03 368.89,293.07 342.79,287.66C333.8,285.82 324.19,283.7 315,283.78C306.38,283.79 298.43,286.45 289.8,286.94C296.42,282.81 303.81,279.17 311.5,277.68C319.54,275.87 327.79,273.81 336.01,273.17C346.77,272.14 357.97,270.08 368.78,270.64L368.27,269.83Z" style="fill:white;fill-rule:nonzero;"/>
                        <path d="M467.88,276.6C472.35,280.42 477.44,284.42 480.55,289.45C483.26,294.87 484.44,301.2 485.92,307.05C483.87,308.13 481.16,308.85 480.21,311.21C478.85,314.86 478.57,319.15 478.96,323C479.34,326.4 481.96,328.02 484.21,330.22C483.53,333.67 483.03,337.39 481.7,340.65C479.81,340.6 478,340.19 476.1,340.2C473.31,342.27 471.24,345.86 469.91,349.02C468.55,352.73 470.63,355.59 472.14,358.79C468.46,362.44 464.88,365.81 460.21,368.21C457.62,369.53 454.52,369.87 451.67,370.38C454.73,366.31 458.49,362.39 460.82,357.85C462.31,354.66 460.6,351.86 458.05,349.96C455.2,347.96 451.59,345.97 448.06,345.84C444.89,348.45 442.73,352.28 439.99,355.34C435.46,341.88 432.91,328.21 435.39,314.04C431.87,326.55 429.78,339 431.2,352.03C431.61,356.3 433.65,359.93 434.47,364.16C432.78,363.29 431.38,363.39 430.42,361.54C426.89,355.54 424.41,349.01 423.87,342.02C422.75,328.51 426.21,315.29 430.71,302.67C433.16,305.13 435.81,307.26 437.95,310.02C439.94,312.37 441.93,315.4 445.03,316.27C451.16,315.09 455.25,307.98 454.1,302C452.87,294.83 447.73,289.37 442.79,284.42C443.69,282.72 444.63,281.06 445.62,279.41C448.45,283.27 451.29,287.1 453.79,291.18C454.68,292.54 455.6,294.15 456.88,295.17C461.46,295.74 468.4,295.14 471.29,290.96C471,287.1 469.63,283.24 468.65,279.5C468.39,278.54 468.14,277.57 467.88,276.6Z" style="fill:white;fill-rule:nonzero;"/>
                        <path d="M344.49,299.66C343.02,309.01 340.99,319.03 342.01,328.99C343.22,337.28 348.18,343.91 351.97,351.09C353.45,353.71 355.59,356.06 357.4,358.48C349.42,356.09 342.99,350.13 339.33,342.75C334.86,332.05 334.97,321.38 335.14,310C335.23,306.91 335.59,303.04 337.43,300.45C339.18,298.24 342.16,299.41 344.49,299.66Z" style="fill:white;fill-rule:nonzero;"/>
                        <path d="M486.33,313.47C486.92,316.67 485.82,319.39 484.45,322.19C483.85,319.93 482.53,316.72 483.57,314.46C484.29,313.4 485.21,313.57 486.33,313.47Z" style="fill:white;fill-rule:nonzero;"/>
                        <path d="M493.72,313.02C497.53,314.89 500.99,317.39 504.85,319.18C509.52,321.51 514.39,322.6 519.4,323.9C510.62,325.19 501.54,324.83 492.71,324.37C493.07,320.59 493.27,316.79 493.72,313.02Z" style="fill:white;fill-rule:nonzero;"/>
                        <path d="M391.85,326.95C400.48,329.46 408.47,333.2 417.51,334.34C417.68,337.19 417.77,340.05 417.85,342.91C408.27,340.42 398.54,338.53 388.9,336.29C389.87,333.17 390.86,330.06 391.85,326.95Z" style="fill:white;fill-rule:nonzero;"/>
                        <path d="M477.32,345.26C478.09,346.46 478.84,347.65 479.33,348.98C478.52,350.68 477.17,351.76 475.86,353.04C475.26,351.62 474.66,350.2 474.11,348.76C475.08,347.51 476.19,346.37 477.32,345.26Z" style="fill:white;fill-rule:nonzero;"/>
                        <path d="M384.43,347.66C388.78,347.83 392.8,348.89 396.99,349.88C404.51,351.7 412.01,353.4 419.75,353.96C420.61,360.1 425.05,364.57 428.54,369.44C421.95,374.05 415.4,379.21 408.39,383.08C406.21,382.37 404.41,381.32 402.04,381.73C393.16,382.69 385.14,385.05 376.21,382.6C370.88,381.07 365.35,379.04 360.36,376.63C355.52,374.22 355.11,368.87 353.85,364.21C361.19,366.63 368.99,364.51 374.95,359.88C378.76,356.6 381.72,351.85 384.43,347.66Z" style="fill:white;fill-rule:nonzero;"/>
                        <path d="M449.99,351.31C451.42,352.34 453.3,352.96 453.28,355.04C453.24,358.59 449.85,362.1 447.79,364.79C443.3,369.96 440.33,375.74 435.44,380.42C430.17,385.58 424.33,388.97 418.35,393.34C414.82,395.69 410.24,398.63 405.87,398.49C402.83,396.63 403.76,393.83 403.5,390.8C412.53,387.33 420.77,382.27 428.37,376.32C433.4,372.29 438.03,368.09 441.78,362.8C444.54,359.02 446.81,354.66 449.99,351.31Z" style="fill:white;fill-rule:nonzero;"/>
                        <path d="M348.23,369.36C351.16,374.43 353.78,379.26 358.64,382.8C358.32,384.4 358,385.99 357.67,387.59C353.21,383.03 350.69,378.35 349.02,372.21C348.75,371.26 348.49,370.31 348.23,369.36Z" style="fill:white;fill-rule:nonzero;"/>
                        <path d="M366.87,385.07C370.56,386.53 373.94,388.32 377.97,388.75C384.75,390.02 391,388.51 397.78,388.54C397.19,389.85 396.6,391.16 396,392.47C397.07,395.87 397.92,399.28 398.46,402.81C392.47,404.58 386.16,405.01 379.96,404.29C375.38,403.68 370.55,402.15 367.23,398.78C364.17,395.77 362.92,391.16 363.81,387C364.05,385.51 365.4,384.38 366.87,385.07Z" style="fill:white;fill-rule:nonzero;"/>
                        <g transform="matrix(1,0,0,1,-3,-2)">
                            <path d="M463.522,307L465.508,306.988L468.644,316.049L467.609,318.938L463.522,307Z" style="fill:rgb(0,28,61);"/>
                            <path d="M463.514,309.44L465.82,316.027L465.833,331.459L463.562,338.047L463.514,309.44Z" style="fill:rgb(0,28,61);"/>
                            <path d="M463.586,340.026L465.87,340.006L469.239,329.672L468.217,326.531L463.586,340.026Z" style="fill:rgb(0,28,61);"/>
                            <path d="M467.837,327.578L468.228,326.549L469.333,326.531L471.102,331.483L471.132,337.641L468.931,330.681L467.837,327.578Z" style="fill:rgb(0,28,61);"/>
                            <path d="M471.77,340.024L474.073,340.016L473.99,306.959L471.753,306.995L471.77,340.024Z" style="fill:rgb(0,28,61);"/>
                            <path d="M470.849,309.672L470.84,316.141L469.293,320.517L468.19,320.516L467.607,318.939L470.849,309.672Z" style="fill:rgb(0,28,61);"/>
                        </g>
                    </g>
                </g>
            </g>
            <g id="half" transform="matrix(1.254718,0,0,1.254718,244.266386,235.212007)">
                <path d="M391.94,24C397.21,21.07 398.54,24.64 401.9,27.8C393.62,28.12 399.97,40.16 391.15,37.89C390.96,34.92 392,32.56 390.44,29.94C388.95,34.41 391.32,40.45 384.79,40.21C379.04,43.43 384.06,30.13 381.12,29.21C380.24,34.43 383.43,44.07 375.11,43.62C374.22,41.51 374.06,39.39 373.76,37.14C372.48,40.96 369.62,40.84 366.79,43.01C365.11,38.06 364.4,35.55 358.86,34.21C360.78,39.67 366.62,40.09 356.94,40.26C363.8,42.14 363.83,41.98 366.42,48.63C372.82,56.02 377.89,53.05 385.97,51.63C392.66,46.33 390.42,54.65 396.67,48.82C394.8,43.08 402.15,48.98 405.2,48.02C403.89,62.63 392.44,64.33 383.35,73.34C376.08,91.44 374.57,112.66 375.13,132.01C377.16,148.1 375.22,164.66 376.22,180.85C377.23,188.18 383.86,192.15 389.34,196.11C379.74,199.31 377.11,190.54 367.75,194.76C364.72,197.09 372.99,198.48 367.37,199.39C363.23,204.1 363.64,204.15 357.03,203.2C358.85,207.78 364.76,216.27 368.4,218.59C370.18,222.93 380.81,230.1 383.75,223.75C388.77,217.89 389.95,222.73 390.9,227.56C397.61,223.29 393.46,230.39 398.54,232.47C402.98,234.09 398.71,242.12 403.71,236.21C405.61,241.67 411.99,240.14 416.51,240.59C417.1,245.84 423.12,246.1 422.95,251C422.89,255.99 428.65,259.67 430.92,264.04C434.68,262.02 433.76,257.69 436.94,256.02C444.95,259.33 445.5,269.51 446.85,276.82C444.79,283.3 443.82,283.6 447.61,289.7C449.22,282.45 450.24,296.49 450.87,298.16C448.01,293.41 444.46,288.33 443,282.97C444.3,276.18 443.11,267.66 439.1,261.94C439.12,270.3 443.57,277.23 441.83,285.97C435.4,282 440.85,274.43 432.39,269.74C426.33,273.22 419.11,260.98 413.29,267.18C414.56,271.38 405.25,271 409.9,272.08C417.81,272 413.45,287.45 422.14,282.21C425.7,294.04 432.6,289 440.34,287.85C437.95,295.52 442.23,297.29 447.78,302.03C445.37,306.3 446.67,304.51 450.42,305.06C448.54,308.23 450.92,309.83 452.64,312.3C454.9,316.53 453.79,309.07 454.32,307.76C455.44,311.56 455.05,316 454.87,319.92C451.61,317.44 448.48,306.18 443.57,309.24C437.51,314.02 446.3,319.76 440.28,324.98C438.09,318.62 438.26,312.35 436.75,307.75C442.36,306.86 445.63,307.81 442.85,300.47C437.07,304.59 442.4,292.66 436.62,297.6C430.95,302.55 430.4,297.73 430.21,292.7C422.16,293.64 425.33,284.45 418.87,287.1C409.19,276.34 396.45,269.81 386.23,259.77C374.69,249.1 367.55,236.09 357.73,224.27C350.49,214.31 341.54,205.27 334.72,195.21C334.55,186.53 339.46,178.06 341.76,169.84C340.39,164.26 342.35,158.54 344.43,153.4C349.01,149.03 344.36,155.86 345.17,157.83C347.98,163.66 352.14,167.54 351.49,174.6C341.84,173.32 350.45,178.64 349.43,184.26C349.48,186.24 352.28,186.29 352.85,187.88C347.15,187.15 347.8,197.93 350.07,200.76C352.38,198.96 361.74,199.14 356.93,195.15C353.76,189.89 361.37,195.52 362.67,194.7C367.1,186.93 366.27,178.67 359.76,172.41C356.05,170.83 358.61,168.52 361.29,168.07C366.81,162.65 366.39,157.32 366.17,150.01C369.22,137.03 365.86,124.14 369.3,111.15C374.01,100.74 373.21,93.04 373.93,82.11C372.5,83.66 371.68,86.71 369.07,85.89C369.65,83.89 371.08,82.06 372.11,80.23C367.22,84.75 366.43,80.04 361.15,79.83C353.62,79.4 355.74,75.64 352.61,70.9C354.26,61.32 350.25,52.79 353.27,43.18C354,34.56 358.02,26.49 367.6,26.25C373.93,23.01 385.53,20.76 391.94,24Z" style="fill:rgb(205,162,138);fill-rule:nonzero;"/>
                <path d="M401.9,27.8C404.42,33.5 409.28,42.13 405.2,48.02C402.15,48.98 394.8,43.08 396.67,48.82C390.42,54.65 392.66,46.33 385.97,51.63C375.95,44.94 383.65,52.34 375.37,50.76C372.74,44.07 368.9,51.88 366.79,43.01C369.62,40.84 372.48,40.96 373.76,37.14C374.06,39.39 374.22,41.51 375.11,43.62C383.43,44.07 380.24,34.43 381.12,29.21C384.06,30.13 379.04,43.43 384.79,40.21C391.32,40.45 388.95,34.41 390.44,29.94C392,32.56 390.96,34.92 391.15,37.89C399.97,40.16 393.62,28.12 401.9,27.8Z" style="fill:rgb(189,127,110);fill-rule:nonzero;"/>
                <path d="M358.86,34.21C364.4,35.55 365.11,38.06 366.79,43.01C368.9,51.88 372.74,44.07 375.37,50.76C383.65,52.34 375.95,44.94 385.97,51.63C377.89,53.05 372.82,56.02 366.42,48.63C363.83,41.98 363.8,42.14 356.94,40.26C366.62,40.09 360.78,39.67 358.86,34.21Z" style="fill:rgb(120,63,44);fill-rule:nonzero;"/>
                <path d="M352.61,70.9C355.74,75.64 353.62,79.4 361.15,79.83C366.43,80.04 367.22,84.75 372.11,80.23C371.08,82.06 369.65,83.89 369.07,85.89C371.68,86.71 372.5,83.66 373.93,82.11C373.21,93.04 374.01,100.74 369.3,111.15C365.86,124.14 369.22,137.03 366.17,150.01C366.39,157.32 366.81,162.65 361.29,168.07C358.61,168.52 356.05,170.83 359.76,172.41C366.27,178.67 367.1,186.93 362.67,194.7C361.37,195.52 353.76,189.89 356.93,195.15C361.74,199.14 352.38,198.96 350.07,200.76C347.8,197.93 347.15,187.15 352.85,187.88C352.28,186.29 349.48,186.24 349.43,184.26C350.45,178.64 341.84,173.32 351.49,174.6C352.14,167.54 347.98,163.66 345.17,157.83C344.36,155.86 349.01,149.03 344.43,153.4C342.35,158.54 340.39,164.26 341.76,169.84C339.46,178.06 334.55,186.53 334.72,195.21C329.93,149.69 345.1,114.15 352.61,70.9Z" style="fill:rgb(219,186,163);fill-rule:nonzero;"/>
                <path d="M540.72,113.09C546.76,115.47 550.4,112.57 555.33,116.71C557.85,124.79 566.53,127.54 569.25,135.79C575.16,136.31 575.54,145.48 577.43,150.02C576.85,155.41 573.25,168.29 583.21,165.6C581.98,167.31 580.37,168.36 578.56,169.4C582.9,173.83 586.89,179.78 583.51,185.92C584.35,187.83 581.23,195.94 581.74,189.82C582.68,187.42 578.29,180.49 579.07,186.97C577.92,186.17 576.78,185.36 575.64,184.55C576.79,182.15 578.84,182.74 581,181.88C580.26,179.74 572.78,176.87 577.99,175.98C584.5,175.27 574.9,171.5 576.54,167.36C577.77,162.77 572.16,166.23 570.07,166.66C572.71,162.24 570.97,157.68 574.81,153.88C571.33,151.54 567.96,148.46 575.11,149.43C574.75,143.63 566.07,146.83 569.15,142.2C571.6,136.48 564.65,139.88 564.59,133.48C558.79,133.21 559.99,128.21 555.52,127.37C557.14,119.53 542.36,127.67 543.32,120.85C543.17,110.73 532.42,112.62 525.96,116.04C528.94,111.56 536.13,110.28 540.72,113.09Z" style="fill:rgb(151,131,120);fill-rule:nonzero;"/>
                <path d="M543.32,120.85C542.36,127.67 557.14,119.53 555.52,127.37C559.99,128.21 558.79,133.21 564.59,133.48C564.65,139.88 571.6,136.48 569.15,142.2C566.07,146.83 574.75,143.63 575.11,149.43C567.96,148.46 571.33,151.54 574.81,153.88C570.97,157.68 572.71,162.24 570.07,166.66C572.16,166.23 577.77,162.77 576.54,167.36C574.9,171.5 584.5,175.27 577.99,175.98C572.78,176.87 580.26,179.74 581,181.88C578.84,182.74 576.79,182.15 575.64,184.55C573.54,188.22 571.11,189.93 567.32,191.72C567.59,184.53 565.53,193.21 562.66,190.41C555.89,183.95 558.7,174.63 551.63,167.38C548.24,163.92 546.08,166.81 545.54,170.55C543.41,169.82 529.95,171.15 537.13,167.16C542.93,165.82 531.47,152.89 531.99,162.03C532.7,168.44 528.22,159.58 524.46,161.37C522.77,157.25 520.65,153.38 519.46,149.07C516.81,153.26 520.86,158.25 515.38,162.65C513.51,160.05 514.27,157.26 512.09,162.22C509.68,167.1 501.85,157.34 499.11,162.07C495.61,166.55 490.25,162.34 489.78,168.83C486.73,174.85 487.16,187.46 479.74,187.58C477.67,190.35 477.52,191.03 475.52,187.66C465.73,191.43 478.8,185.14 467.96,186.31C466.59,185.87 465.23,185.42 463.86,184.99C468.09,181.27 472.29,180.59 474.75,175.01C472.56,174.52 470.33,174.31 468.16,173.72C467.72,171.41 471.33,168.36 468.63,166.94C464.66,162.99 468.79,159.01 464.72,154.91C465.1,154.22 465.5,153.54 465.91,152.87C467.27,152.21 473.65,153.96 471,151.03C467.75,146.43 473.16,143.69 470.08,139.53L470.79,139.44C476.85,139.51 482.57,135.83 481.13,129.02C482.7,127.61 484.22,126.09 485.94,124.87C495.66,126.09 504.46,123.65 512,117.72C517.71,119.04 522.17,122.54 525.96,116.04C532.42,112.62 543.17,110.73 543.32,120.85Z" style="fill:rgb(63,45,33);fill-rule:nonzero;"/>
                <path d="M512,117.72C504.46,123.65 495.66,126.09 485.94,124.87C490.8,124.97 494.61,118.62 488.85,117.08C497.91,116.64 503.37,109.42 512,117.72Z" style="fill:rgb(124,102,89);fill-rule:nonzero;"/>
                <path d="M534.31,116.31C536.28,115.98 539.76,117.76 536.78,119.78C533.55,123.55 529.21,117.6 534.31,116.31Z" style="fill:rgb(185,171,162);fill-rule:nonzero;"/>
                <path d="M488.85,117.08C494.61,118.62 490.8,124.97 485.94,124.87C484.22,126.09 482.7,127.61 481.13,129.02C479.2,122.4 481.29,117.04 488.85,117.08Z" style="fill:rgb(206,195,186);fill-rule:nonzero;"/>
                <path d="M481.13,129.02C482.57,135.83 476.85,139.51 470.79,139.44C472.92,133.36 475.32,131.45 481.13,129.02Z" style="fill:rgb(197,186,176);fill-rule:nonzero;"/>
                <path d="M470.08,139.53C473.16,143.69 467.75,146.43 471,151.03C473.65,153.96 467.27,152.21 465.91,152.87C471.66,148.31 462.34,140.16 470.08,139.53Z" style="fill:rgb(158,143,132);fill-rule:nonzero;"/>
                <path d="M519.46,149.07C520.65,153.38 522.77,157.25 524.46,161.37C528.22,159.58 532.7,168.44 531.99,162.03C531.47,152.89 542.93,165.82 537.13,167.16C529.95,171.15 543.41,169.82 545.54,170.55C546.08,166.81 548.24,163.92 551.63,167.38C558.7,174.63 555.89,183.95 562.66,190.41C565.53,193.21 567.59,184.53 567.32,191.72C571.11,189.93 573.54,188.22 575.64,184.55C576.78,185.36 577.92,186.17 579.07,186.97C581.6,188.31 572.7,202.71 572.98,196.81C572.6,191.57 563.04,194.52 563.87,198.98C565.21,202.24 557.54,201.57 557.71,200.04C560.31,193.77 556.52,183.85 554.3,177.61C553.29,174.24 552.85,172.25 548.8,172.09C546.89,171.91 544.9,172.01 542.99,172.14C544.86,174.28 548.57,175.47 547.93,178.82C543.07,176.81 536.76,180.81 533.61,176.84C531.43,178.15 526.97,180.58 526.97,176.03C528.25,172.38 533.9,165.43 526.51,165.01C521.58,164.58 524.13,157.25 519.26,158.07C520.13,166.04 519.16,165.13 511.98,164.19C513.56,167.19 515.52,168.45 515.6,172.19C519.84,172.4 520.87,179.03 515.98,178.06C510.32,175.94 506.56,178.56 500.77,178.35C490.07,178.55 502.27,173.15 505.04,171.13C499.9,169.24 490.12,176.65 494.86,166.96C490.31,173.75 484.93,185.69 486.07,194.07C483.79,198.38 488.81,202.93 481.38,199.67C480.9,191.86 479.29,193.9 479.83,199.79C476.23,194.52 476.03,197.19 471.27,199.15C471.38,197.92 471.72,190.69 469.07,194.03C465.06,199.7 467.75,188.24 467.96,186.31C478.8,185.14 465.73,191.43 475.52,187.66C477.52,191.03 477.67,190.35 479.74,187.58C487.16,187.46 486.73,174.85 489.78,168.83C490.25,162.34 495.61,166.55 499.11,162.07C501.85,157.34 509.68,167.1 512.09,162.22C514.27,157.26 513.51,160.05 515.38,162.65C520.86,158.25 516.81,153.26 519.46,149.07Z" style="fill:rgb(125,88,72);fill-rule:nonzero;"/>
                <path d="M464.72,154.91C468.79,159.01 464.66,162.99 468.63,166.94C471.33,168.36 467.72,171.41 468.16,173.72C470.33,174.31 472.56,174.52 474.75,175.01C472.29,180.59 468.09,181.27 463.86,184.99C455.21,180.74 468.34,184.17 465.21,178.92C464.2,173.42 467.9,184.45 468.34,179.4C469.6,170.93 459.38,164.94 464.72,154.91Z" style="fill:rgb(150,131,120);fill-rule:nonzero;"/>
                <path d="M519.26,158.07C524.13,157.25 521.58,164.58 526.51,165.01C533.9,165.43 528.25,172.38 526.97,176.03C526.97,180.58 531.43,178.15 533.61,176.84C536.76,180.81 543.07,176.81 547.93,178.82C548.57,175.47 544.86,174.28 542.99,172.14C544.9,172.01 546.89,171.91 548.8,172.09C556.12,183.27 540.39,182.31 533.7,183.61C531.02,191.07 538.67,194.65 543.56,198.37C546.8,199.26 546.49,207.33 542.23,205.64C530.6,205.01 519.6,205.63 507.99,206.03C497.18,202.05 518.57,221.42 514.98,212.8C521.07,210.87 528.63,212.7 534.94,212.14C533.75,213.92 527.59,216.56 532.31,217.71C539.82,217.87 522.94,230.66 527.79,222.31C521.89,224.75 520.59,219.79 516.44,225.63C521.22,231.52 522.88,229.61 529.18,227.58C534.91,230.9 537.58,231.21 539.32,238.4C538.04,241.2 537.65,239.02 535.8,238.17C532.5,240.18 528.1,245.36 528.06,249.23C530.67,256.89 520.13,251.23 517.31,250.1C516.23,253.79 510.68,250.65 509.31,247.83C506.29,242.43 499.43,237.33 498.96,231.01C498.37,219.73 489.33,216.13 494.06,204.09C497.56,206.92 498.26,211.69 501.67,214.36C505.94,219.35 504.12,208.32 502.64,207.64C498.36,209.07 495.98,197.84 501.26,198.48C510.13,197.97 511.49,189.14 512.54,182.09C508.06,181.44 501.43,183.39 497.91,180.15C500.84,179.44 505.86,181.77 508.04,179.41C505.62,179.02 503.19,178.73 500.77,178.35C506.56,178.56 510.32,175.94 515.98,178.06C520.87,179.03 519.84,172.4 515.6,172.19C515.52,168.45 513.56,167.19 511.98,164.19C519.16,165.13 520.13,166.04 519.26,158.07Z" style="fill:rgb(202,144,121);fill-rule:nonzero;"/>
                <path d="M494.86,166.96C490.12,176.65 499.9,169.24 505.04,171.13C502.27,173.15 490.07,178.55 500.77,178.35C503.19,178.73 505.62,179.02 508.04,179.41C505.86,181.77 500.84,179.44 497.91,180.15C501.43,183.39 508.06,181.44 512.54,182.09C511.49,189.14 510.13,197.97 501.26,198.48C495.98,197.84 498.36,209.07 502.64,207.64C504.12,208.32 505.94,219.35 501.67,214.36C498.26,211.69 497.56,206.92 494.06,204.09C489.33,216.13 498.37,219.73 498.96,231.01C499.43,237.33 506.29,242.43 509.31,247.83C510.68,250.65 516.23,253.79 517.31,250.1C520.13,251.23 530.67,256.89 528.06,249.23C528.1,245.36 532.5,240.18 535.8,238.17C537.65,239.02 538.04,241.2 539.32,238.4C537.58,231.21 534.91,230.9 529.18,227.58C522.88,229.61 521.22,231.52 516.44,225.63C520.59,219.79 521.89,224.75 527.79,222.31C522.94,230.66 539.82,217.87 532.31,217.71C527.59,216.56 533.75,213.92 534.94,212.14C537.41,210.01 539.74,207.74 542.23,205.64C546.49,207.33 546.8,199.26 543.56,198.37C538.67,194.65 531.02,191.07 533.7,183.61C540.39,182.31 556.12,183.27 548.8,172.09C552.85,172.25 553.29,174.24 554.3,177.61C551.53,181.96 547.95,186.23 544.7,190.18C546.77,185.23 534.7,186.71 539.59,191.37C540.52,197.48 548.92,188.44 545.89,194.47C548.11,201.89 553.17,206.39 548.05,214.02C547.54,220.92 545.12,224.15 542.07,230.07C544.57,235.49 544.68,224.51 547.72,228.06C544.68,233.39 542.02,238.46 540.37,244.42C534.89,251.13 531.85,262.08 538.53,269.51C542.65,273.48 534.22,271.21 532.24,271.76C532.2,269.14 532.56,266.7 531.78,264.14C527.69,264.85 522.87,267.78 518.86,265.18C516.27,260.52 514.12,252.69 507.19,254.12C504.63,262.57 513.91,269.94 510.26,277.3C507.2,279.53 497.22,286.53 498.3,277.77C496.82,274.8 491.9,272.55 488.55,272.87C487.57,266.16 484.3,260.4 482.68,253.9C494.84,247.24 497.91,238.19 490.2,226.12C494.58,224.29 490.64,211.9 488.96,208.37C479.71,212.39 481.06,203.46 476.61,198.27C475.14,200.06 473.92,202.11 472.77,204.11C471.93,202.55 471.19,200.97 471.27,199.15C476.03,197.19 476.23,194.52 479.83,199.79C479.29,193.9 480.9,191.86 481.38,199.67C488.81,202.93 483.79,198.38 486.07,194.07C484.93,185.69 490.31,173.75 494.86,166.96Z" style="fill:rgb(218,169,143);fill-rule:nonzero;"/>
                <path d="M554.3,177.61C556.52,183.85 560.31,193.77 557.71,200.04C556.26,202.51 555.57,205.14 555.13,207.95C554.05,214.55 551.28,219.72 552.14,226.02C556.23,222.29 556.63,221.76 561.74,224.95C560.55,229.66 552.6,225.26 551.36,228.32C550.99,234.75 549.29,241.48 550.19,247.85C553.75,254.51 560.28,260.42 567.89,261.76C563.44,267.27 563.24,279.48 559.63,286.63C555.24,297.77 550.4,312.44 538.69,317.69C528.31,323.98 513.42,321.35 504.71,313.29C493.49,301.84 491.4,287.95 488.55,272.87C491.9,272.55 496.82,274.8 498.3,277.77C497.22,286.53 507.2,279.53 510.26,277.3C513.91,269.94 504.63,262.57 507.19,254.12C514.12,252.69 516.27,260.52 518.86,265.18C522.87,267.78 527.69,264.85 531.78,264.14C532.56,266.7 532.2,269.14 532.24,271.76C534.22,271.21 542.65,273.48 538.53,269.51C531.85,262.08 534.89,251.13 540.37,244.42C542.02,238.46 544.68,233.39 547.72,228.06C544.68,224.51 544.57,235.49 542.07,230.07C545.12,224.15 547.54,220.92 548.05,214.02C553.17,206.39 548.11,201.89 545.89,194.47C548.92,188.44 540.52,197.48 539.59,191.37C534.7,186.71 546.77,185.23 544.7,190.18C547.95,186.23 551.53,181.96 554.3,177.61Z" style="fill:rgb(234,197,175);fill-rule:nonzero;"/>
                <path d="M389.34,196.11C402.21,203.95 411.57,218.36 422.13,228.83C435.07,233.35 448.41,238.5 459.88,246.08C464.58,248.77 467.36,255.39 472.89,255.2C468.9,258.45 470.39,265.72 468.43,270.4C457.49,304.14 465.37,335.45 442.04,364.2C438.96,353.78 437.32,343.18 433.21,332.82C428.89,318.87 429.65,297.66 418.87,287.1C425.33,284.45 422.16,293.64 430.21,292.7C430.4,297.73 430.95,302.55 436.62,297.6C442.4,292.66 437.07,304.59 442.85,300.47C445.63,307.81 442.36,306.86 436.75,307.75C438.26,312.35 438.09,318.62 440.28,324.98C446.3,319.76 437.51,314.02 443.57,309.24C448.48,306.18 451.61,317.44 454.87,319.92C455.05,316 455.44,311.56 454.32,307.76C453.35,304.5 451.93,301.39 450.87,298.16C450.24,296.49 449.22,282.45 447.61,289.7C443.82,283.6 444.79,283.3 446.85,276.82C445.5,269.51 444.95,259.33 436.94,256.02C433.76,257.69 434.68,262.02 430.92,264.04C428.65,259.67 422.89,255.99 422.95,251C423.12,246.1 417.1,245.84 416.51,240.59C411.99,240.14 405.61,241.67 403.71,236.21C398.71,242.12 402.98,234.09 398.54,232.47C393.46,230.39 397.61,223.29 390.9,227.56C389.95,222.73 388.77,217.89 383.75,223.75C380.81,230.1 370.18,222.93 368.4,218.59C364.76,216.27 358.85,207.78 357.03,203.2C363.64,204.15 363.23,204.1 367.37,199.39C372.99,198.48 364.72,197.09 367.75,194.76C377.11,190.54 379.74,199.31 389.34,196.11Z" style="fill:rgb(223,187,161);fill-rule:nonzero;"/>
                <path d="M524.3,195.55C527.13,194.28 532.2,194.63 533.84,196.22C529.18,200.6 517.92,200.12 512.24,197.66C511.14,192.48 521.59,195.39 524.3,195.55Z" style="fill:rgb(136,78,61);fill-rule:nonzero;"/>
                <path d="M572.98,196.81C564.22,196.96 575.66,207.9 567.11,212.09C561.42,204.7 561.71,212.58 555.13,207.95C555.57,205.14 556.26,202.51 557.71,200.04C557.54,201.57 565.21,202.24 563.87,198.98C563.04,194.52 572.6,191.57 572.98,196.81Z" style="fill:rgb(191,156,144);fill-rule:nonzero;"/>
                <path d="M476.61,198.27C481.06,203.46 479.71,212.39 488.96,208.37C490.64,211.9 494.58,224.29 490.2,226.12C484.79,222.17 479.1,221.87 481.41,213.36C483.26,208.52 475.44,213.5 478.23,208.83C477.74,207.41 473.79,206.56 472.77,204.11C473.92,202.11 475.14,200.06 476.61,198.27Z" style="fill:rgb(109,86,74);fill-rule:nonzero;"/>
                <path d="M542.23,205.64C539.74,207.74 537.41,210.01 534.94,212.14C528.63,212.7 521.07,210.87 514.98,212.8C518.57,221.42 497.18,202.05 507.99,206.03C519.6,205.63 530.6,205.01 542.23,205.64Z" style="fill:rgb(140,83,66);fill-rule:nonzero;"/>
                <path d="M524.58,207.29C526.32,207.23 532.86,206.59 532.58,208.81C527.94,210.32 519.02,211.97 514.74,209C517,206.77 521.61,207.65 524.58,207.29Z" style="fill:rgb(217,168,148);fill-rule:nonzero;"/>
                <path d="M555.13,207.95C561.71,212.58 561.42,204.7 567.11,212.09C563.41,212.71 562.07,211.82 560.13,215.68C568.32,214.05 563.71,221.33 561.74,224.95C556.63,221.76 556.23,222.29 552.14,226.02C551.28,219.72 554.05,214.55 555.13,207.95Z" style="fill:rgb(109,88,76);fill-rule:nonzero;"/>
                <path d="M497.8,221.3C507.33,224.11 507.91,232.46 521,232.07C524.42,232.17 536.44,229.28 529.41,236.1C533.12,238.79 530.99,240.99 528.04,243.07C523.72,244.08 514.18,243.26 510.28,240.74C501.03,236.13 506.01,228.27 497.8,221.3Z" style="fill:rgb(144,101,79);fill-rule:nonzero;"/>
                <path d="M482.68,253.9C484.3,260.4 487.57,266.16 488.55,272.87C491.4,287.95 493.49,301.84 504.71,313.29C513.42,321.35 528.31,323.98 538.69,317.69C550.4,312.44 555.24,297.77 559.63,286.63C563.24,279.48 563.44,267.27 567.89,261.76C570.62,263.51 573.23,265.38 576.17,266.77C574.56,266.59 572.91,266.37 571.29,266.39C567.79,281.73 562.45,297.64 554.02,311.02C540.36,330.22 509.5,330.39 496,311C484.22,295.75 485.67,271.57 476.81,255.5C478.73,254.19 480.39,253.98 482.68,253.9Z" style="fill:rgb(94,61,97);fill-rule:nonzero;"/>
                <path d="M472.89,255.2C473.6,255.28 474.31,255.36 475.03,255.44C475,263.98 473.38,270.72 471.15,279.17C464.79,310.95 462.73,342.49 443.52,369.42C443,371.17 443.65,373.35 443.74,375.16C441.09,370.86 438.32,369.15 442.04,364.2C465.37,335.45 457.49,304.14 468.43,270.4C470.39,265.72 468.9,258.45 472.89,255.2Z" style="fill:rgb(95,66,95);fill-rule:nonzero;"/>
                <path d="M475.03,255.44L476.81,255.5C485.67,271.57 484.22,295.75 496,311C509.5,330.39 540.36,330.22 554.02,311.02C562.45,297.64 567.79,281.73 571.29,266.39C572.91,266.37 574.56,266.59 576.17,266.77C577.2,267.07 578.23,267.37 579.25,267.68C573.3,300.92 579.02,330.97 584.41,363.62C585.36,365.62 587.7,372.12 588.42,366.14C589.97,368.91 591.4,371.73 593.09,374.42C586.87,393.28 581.63,412.13 579.02,431.98C578.39,443.85 582.19,455.18 580.68,467.23C584.22,487.1 591.63,501.43 592.76,521.71C595.8,524.69 597.62,525.47 594.17,529.44C592.92,529.62 591.68,529.79 590.42,529.88C590.53,518.76 585.98,506.34 583.96,496.1C581.92,497.51 580.48,499.2 578.24,500.05C578.14,493.41 584.4,494.84 579.29,489.04C583.58,482.25 577.09,481.52 577.75,476.94C585.74,475.61 578.47,473.58 576.58,469.75C575.98,464.68 578.4,463.68 572.02,462.32C580.18,463.78 575.08,453.49 576.77,448.84C578.08,443.62 570.71,428.67 566.25,439.51C569.81,440.34 571.25,442.01 573.01,445.06C571.86,448.15 567.45,448.03 564.71,449.38C563.71,446.69 564.62,429.37 556.98,434.32C554.9,435.21 552.92,435.86 550.71,436.38C546.93,433.33 554.4,431.1 554.73,427.86C555.49,419.7 558.18,410.39 556.61,402.36C552.15,397.55 546.2,391.22 539.12,391.66C540.06,378.19 540.79,366.72 541.92,353.13C528.62,337.86 514.63,343.28 496.63,339.39C489.33,337.01 480.73,343.31 476.16,348.12C477.31,371.36 476.28,395.01 477.79,417.84C475.81,419.62 470.02,424.42 474.66,426.37C477.25,427.72 472.41,432.37 471.94,434.01C476.48,439.66 476.2,449.05 472.32,455C473.15,458.11 476.76,459.46 472.33,461.36C468.52,466.89 464,471.46 467.11,478.84C467.68,486.91 473.71,483.29 475.89,490.85C473.22,495.45 465.25,488.5 462.25,492.65C469.5,495.91 459.36,498.88 467.62,500.51C476.14,499.21 465.88,505.14 463.03,502.16C454.94,505.67 466.51,508.96 460.73,511.74C455.95,512.06 469.08,518.33 463.41,517.54C455.45,515.28 465.72,523.09 468.38,522.57C469.63,522.58 474.02,524.03 470.99,524.95C464,526.1 456.31,520.36 450.05,522.29C458.01,527.42 466.44,530.86 475.53,533.44C479.51,541.63 488.05,537.72 489.92,547.93C476.93,540.32 462.75,532.06 447.96,528.12C450.37,531.35 456.11,530.9 449.83,534.17C456.73,537.47 467.73,543.77 474.71,543.03C476.71,544.84 483.39,546.11 483.4,548.65C476.09,555.05 480.24,545.37 472,546.58C464.79,545.14 452.99,540.51 445.6,540.91C442.65,540.42 445.04,539.13 446.45,538.68C441.61,534.07 446.72,526.67 443.97,520.99C445.4,516.56 450.33,506.42 451.53,502.01C449.53,494.55 455.34,487.34 458.62,481.15C455.83,474.6 466.33,475.64 458.1,471.97C457.35,464 464.1,455.32 460.55,445.58C459.13,441.57 460.49,437.2 460.86,433.11C458.17,432.58 458.6,439.18 457.41,441.03C457.02,438.95 456.67,436.86 456.31,434.77C454.81,413.8 449.57,395.07 443.74,375.16C443.65,373.35 443,371.17 443.52,369.42C462.73,342.49 464.79,310.95 471.15,279.17C473.38,270.72 475,263.98 475.03,255.44Z" style="fill:rgb(46,39,44);fill-rule:nonzero;"/>
                <path d="M439.1,261.94C443.11,267.66 444.3,276.18 443,282.97C444.46,288.33 448.01,293.41 450.87,298.16C451.93,301.39 453.35,304.5 454.32,307.76C453.79,309.07 454.9,316.53 452.64,312.3C450.92,309.83 448.54,308.23 450.42,305.06C446.67,304.51 445.37,306.3 447.78,302.03C442.23,297.29 437.95,295.52 440.34,287.85C432.6,289 425.7,294.04 422.14,282.21C413.45,287.45 417.81,272 409.9,272.08C405.25,271 414.56,271.38 413.29,267.18C419.11,260.98 426.33,273.22 432.39,269.74C440.85,274.43 435.4,282 441.83,285.97C443.57,277.23 439.12,270.3 439.1,261.94Z" style="fill:rgb(167,128,101);fill-rule:nonzero;"/>
                <path d="M579.25,267.68C581.52,268.32 583.13,268.64 584.31,270.89C579.8,296.89 582.57,322.04 585.22,347.99C588.91,344.65 591.83,336.94 594.21,332.2C594.52,331.52 594.83,330.84 595.14,330.16C596.98,328.9 599.81,323.19 599.04,328.99C595.76,339.77 594.8,351.12 597.69,362.38C598.06,365.59 602.38,371.96 599.12,374.33C598.35,372.24 597.58,370.11 596.65,368.08C594.73,369.69 594.04,372.18 593.09,374.42C591.4,371.73 589.97,368.91 588.42,366.14C587.7,372.12 585.36,365.62 584.41,363.62C579.02,330.97 573.3,300.92 579.25,267.68Z" style="fill:rgb(106,73,84);fill-rule:nonzero;"/>
                <path d="M584.31,270.89C592.31,275.76 603.04,275.87 611.24,280.7C616.33,286.2 611.78,289.56 612.66,295.39C617.98,303.34 617.59,313.92 624.76,319.87C621.33,324.56 627.93,329.17 626.96,334.97C629.32,344.94 624.64,352.71 627.88,362.26C629.84,372.69 633.95,380.52 635.18,391.84C641.32,399.55 643.2,410.28 646.34,419.8C648.02,435.14 651.46,449.18 653.76,464.23C654.87,475.66 652.37,487.52 652,499C650.16,509.06 652.98,518.44 651.34,528.17C650.93,523.3 650.57,523.85 646.3,523.59C642.99,520.65 641.23,513.25 646.69,511.05C646.41,515.23 644.89,516.03 649.91,516.98C648.06,508.49 642.07,501.74 644.35,493.52C655.43,490.11 643.22,479.05 649.41,474.57C648.48,471.75 644.94,466.86 648.08,464.51C646.5,450.37 647.6,429.58 640.17,417.48C639.35,408.19 636.59,399.84 630.24,392.75C627.03,387.56 627.66,381.98 622.46,377.55C618.23,366.66 613.99,356.23 612.36,344.48C625.18,342.18 621.95,327.81 615.63,320.78C611.74,324.39 611.88,313.56 606.99,316.32C604.74,311.76 603.38,307.66 597.4,310.44C590.31,313.21 595.24,326.35 594.21,332.2C591.83,336.94 588.91,344.65 585.22,347.99C582.57,322.04 579.8,296.89 584.31,270.89Z" style="fill:rgb(228,192,169);fill-rule:nonzero;"/>
                <path d="M611.24,280.7C629.49,295.63 630.76,321.08 630.24,342.84C639.67,365.8 638.46,390.4 647.8,413.17C651.05,429.73 654.92,447.3 653.76,464.23C651.46,449.18 648.02,435.14 646.34,419.8C643.2,410.28 641.32,399.55 635.18,391.84C633.95,380.52 629.84,372.69 627.88,362.26C624.64,352.71 629.32,344.94 626.96,334.97C627.93,329.17 621.33,324.56 624.76,319.87C617.59,313.92 617.98,303.34 612.66,295.39C611.78,289.56 616.33,286.2 611.24,280.7Z" style="fill:rgb(239,213,196);fill-rule:nonzero;"/>
                <path d="M568.15,309.43C564.78,309.1 562.64,308.81 560.1,311.44C563.85,311.62 564.92,316.18 567.51,312.5C574.98,309.63 572.04,315.77 573.38,320.37C572.2,324.51 565.17,327.2 562.84,323.58C567.07,325.49 575.15,320.39 569.21,318.1C565.53,323.54 566.2,322.23 560.87,319.52C556.57,324.81 557.32,317.13 557.09,314.13C557.34,309.65 565.8,305.36 568.15,309.43Z" style="fill:rgb(157,151,152);fill-rule:nonzero;"/>
                <path d="M606.99,316.32C611.88,313.56 611.74,324.39 615.63,320.78C621.95,327.81 625.18,342.18 612.36,344.48C613.99,356.23 618.23,366.66 622.46,377.55C627.66,381.98 627.03,387.56 630.24,392.75C636.59,399.84 639.35,408.19 640.17,417.48C647.6,429.58 646.5,450.37 648.08,464.51C644.94,466.86 648.48,471.75 649.41,474.57C643.22,479.05 655.43,490.11 644.35,493.52C642.07,501.74 648.06,508.49 649.91,516.98C644.89,516.03 646.41,515.23 646.69,511.05C641.23,513.25 642.99,520.65 646.3,523.59C650.57,523.85 650.93,523.3 651.34,528.17C647.31,539.74 654.83,553.68 653.15,565.33C647.99,564.46 644.4,564.28 641.48,559.41C638.03,560.69 640.08,565.98 636.18,565.98C635.09,560.3 636.55,559.65 640.12,555.99C638.4,552.96 637.33,553.34 634.21,553.63C638.1,547.64 626.87,550.56 628.54,546.4C621.09,548.68 624.58,541.25 623.32,536.82C625,534.06 626.39,531.18 627.68,528.23C636.21,523.88 626.85,523.57 631.67,515.17C636.54,511.17 633.83,508.94 634.7,503.54C640.11,498.74 633.88,488.29 629.47,485.1C627.65,475.75 634.58,472.52 627.71,465.29C623.13,457.13 626.07,444.71 622.27,435.93C616.89,442.2 617.99,435.8 619.93,432.02C622.01,428.11 615.61,423.78 617.63,420.65C619.93,419.15 623.81,422.6 626.09,423.42C632.21,418.78 630.26,408.31 623.33,404.57C612.24,404.04 609.86,385.19 607.28,376.61C600.24,365.1 598.84,352.48 598.74,339.26C601.39,335.76 602.51,332.15 607.3,331.45C608.03,327.4 598.17,314.62 596.44,325.7C593.96,319.36 595.48,328.02 595.14,330.16C594.83,330.84 594.52,331.52 594.21,332.2C595.24,326.35 590.31,313.21 597.4,310.44C603.38,307.66 604.74,311.76 606.99,316.32Z" style="fill:rgb(212,166,140);fill-rule:nonzero;"/>
                <path d="M607.3,331.45C602.51,332.15 601.39,335.76 598.74,339.26C598.84,352.48 600.24,365.1 607.28,376.61C609.86,385.19 612.24,404.04 623.33,404.57C630.26,408.31 632.21,418.78 626.09,423.42C623.81,422.6 619.93,419.15 617.63,420.65C615.61,423.78 622.01,428.11 619.93,432.02C617.99,435.8 616.89,442.2 622.27,435.93C626.07,444.71 623.13,457.13 627.71,465.29C634.58,472.52 627.65,475.75 629.47,485.1C633.88,488.29 640.11,498.74 634.7,503.54C633.83,508.94 636.54,511.17 631.67,515.17C626.85,523.57 636.21,523.88 627.68,528.23C628.37,511.68 623.66,494.24 619.8,478.18C614.3,458.68 613.67,438.08 610.79,418.04C607.21,403.51 602.98,388.85 599.12,374.33C602.38,371.96 598.06,365.59 597.69,362.38C594.8,351.12 595.76,339.77 599.04,328.99C599.81,323.19 596.98,328.9 595.14,330.16C595.48,328.02 593.96,319.36 596.44,325.7C598.17,314.62 608.03,327.4 607.3,331.45Z" style="fill:rgb(181,144,124);fill-rule:nonzero;"/>
                <path d="M496.63,339.39C514.63,343.28 528.62,337.86 541.92,353.13C540.79,366.72 540.06,378.19 539.12,391.66C546.2,391.22 552.15,397.55 556.61,402.36C558.18,410.39 555.49,419.7 554.73,427.86C554.4,431.1 546.93,433.33 550.71,436.38C556.83,442.57 552.87,454.85 554.05,463.01C555.1,469.73 549.31,470.49 545.31,474.33C540.89,478.61 534.63,476.57 529,477C516.65,477.03 502.46,477.45 490.28,474.67C491.05,469.45 486.03,454.34 495.79,457.79C496.28,448.23 495.89,438.57 496,428.99C497.16,423.82 490.25,427.19 487.43,425.51C484.07,423.16 481.08,420.28 477.79,417.84C476.28,395.01 477.31,371.36 476.16,348.12C480.73,343.31 489.33,337.01 496.63,339.39Z" style="fill:rgb(198,190,202);fill-rule:nonzero;"/>
                <path d="M521.19,344.57C520.02,344.46 513.97,346.01 518.98,345.95C526.71,344.84 532.55,349.15 537.67,354.33C535.46,374.94 535.38,395.31 533.8,415.87C531.31,419.8 517.19,429.28 518.9,417.99C523.47,398.82 521.34,379.4 523.01,358.99C524.31,353.93 516.46,356.31 513.76,356.77C511.71,356.95 509.78,356.76 507.77,356.37C508.96,356.01 512.49,356.52 512.9,355.18C506.31,355.13 499.68,353.34 493.21,354.2C493.35,371.01 492.09,387.27 491.86,404C489.9,411.45 496.37,414.29 493.8,422.89C487.5,421.97 478.15,415.34 479.95,408C480,403.84 480.37,399.84 479.26,395.76C479.64,379.87 477.41,364.07 478.29,348.32C490.44,336.14 505.55,344.38 521.19,344.57Z" style="fill:rgb(92,54,115);fill-rule:nonzero;"/>
                <path d="M521.19,344.57C527.97,344.4 536.01,348.93 539.93,354.11C537.12,375.51 537.2,396.25 535.83,417.79C530.32,422.75 525.27,426.71 517.22,424.78C515.87,417.03 517.65,412.02 519.89,404.97C519.23,388.91 521.67,373.2 520.78,357.25C518.47,356.91 516.1,356.83 513.76,356.77C516.46,356.31 524.31,353.93 523.01,358.99C521.34,379.4 523.47,398.82 518.9,417.99C517.19,429.28 531.31,419.8 533.8,415.87C535.38,395.31 535.46,374.94 537.67,354.33C532.55,349.15 526.71,344.84 518.98,345.95C513.97,346.01 520.02,344.46 521.19,344.57Z" style="fill:rgb(44,27,54);fill-rule:nonzero;"/>
                <path d="M493.21,354.2C499.68,353.34 506.31,355.13 512.9,355.18C512.49,356.52 508.96,356.01 507.77,356.37C503.29,355.87 498.7,355.74 494.21,356.22C493.83,373.37 493.91,390.76 494.16,407.91C497.06,413.38 496.01,418.83 495.78,424.82C492.3,424.41 487.69,424.56 485.22,421.78C474.83,416.21 480.13,405.65 479.26,395.76C480.37,399.84 480,403.84 479.95,408C478.15,415.34 487.5,421.97 493.8,422.89C496.37,414.29 489.9,411.45 491.86,404C492.09,387.27 493.35,371.01 493.21,354.2Z" style="fill:rgb(48,29,58);fill-rule:nonzero;"/>
                <path d="M497.2,358.09C504.37,358.79 511.68,359.02 518.77,360.35C518.62,370.49 517.69,380.62 517.79,390.9C515.17,390.8 512.64,390.21 510.02,390.05C506.41,388.91 493.69,392.96 496.53,385.64C497.74,376.56 496.42,367.22 497.2,358.09Z" style="fill:rgb(39,33,36);fill-rule:nonzero;"/>
                <path d="M496.22,392.22C503.52,391.17 510.44,393.25 517.88,393.22C517.53,405 513.13,414.48 515.21,426.8C522.53,426.23 530.46,428.76 537.4,427.4C538.69,417.12 538.41,404.8 539.67,394.66C544.59,393.05 552.47,400.18 554.84,404.12C554.51,413.41 555.57,427.33 547.38,433.41C546.11,436.59 552.73,440.04 552,443.97C551.84,451.49 552.42,459.21 551.69,466.68C548.48,469.64 544.42,473.06 540.27,474.51C524.47,475.93 507.97,474.54 492.24,472.66C492.65,466.85 488.74,459.09 497.42,459.36C498.75,443.09 497.67,425.48 497.96,408.98C495.51,403.34 495.6,398.3 496.22,392.22Z" style="fill:rgb(55,37,65);fill-rule:nonzero;"/>
                <path d="M498.22,394.21C504.28,394.71 519.69,391.45 515.96,401.94C510.2,407.32 514.29,420.33 512.68,428.44C521.56,429.2 530.87,430.55 539.79,429.78C539.89,418.45 541.27,407.42 541.21,396.06C544.35,395.8 546.06,397.9 548.38,399.59C557.18,403.58 551.05,416.73 551.49,424.42C551.81,430.12 541.41,432.46 546.7,437.3C551.99,442.64 549.45,448.25 550.01,455C550.78,465.46 549.46,467.5 540.86,472.82C526.05,473.9 511.88,471.82 497.13,471.82C492.55,471.44 494.21,467.29 494.02,464.04C493.43,460.39 499.99,463.39 499.83,459.88C500.65,442.14 498.93,423.75 500.94,406.16C497.07,402.51 497.71,399.13 498.22,394.21Z" style="fill:rgb(82,45,104);fill-rule:nonzero;"/>
                <path d="M477.79,417.84C481.08,420.28 484.07,423.16 487.43,425.51C490.25,427.19 497.16,423.82 496,428.99C495.89,438.57 496.28,448.23 495.79,457.79C486.03,454.34 491.05,469.45 490.28,474.67C502.46,477.45 516.65,477.03 529,477C534.63,476.57 540.89,478.61 545.31,474.33C549.31,470.49 555.1,469.73 554.05,463.01C552.87,454.85 556.83,442.57 550.71,436.38C552.92,435.86 554.9,435.21 556.98,434.32C564.62,429.37 563.71,446.69 564.71,449.38C567.45,448.03 571.86,448.15 573.01,445.06C571.25,442.01 569.81,440.34 566.25,439.51C570.71,428.67 578.08,443.62 576.77,448.84C575.08,453.49 580.18,463.78 572.02,462.32C578.4,463.68 575.98,464.68 576.58,469.75C578.47,473.58 585.74,475.61 577.75,476.94C577.09,481.52 583.58,482.25 579.29,489.04C584.4,494.84 578.14,493.41 578.24,500.05C580.48,499.2 581.92,497.51 583.96,496.1C585.98,506.34 590.53,518.76 590.42,529.88C591.68,529.79 592.92,529.62 594.17,529.44C591.7,537.62 601.71,535.17 596.03,541.83C589.93,540.77 597.25,551.23 592.35,552.31C582.01,554.47 572.15,558.16 561.93,560.86C559.83,561.76 554.85,562.18 555.39,565.31C549.57,563.2 537.53,569.33 530.52,571.06C532.1,574.62 533.4,575.18 529,573.12C530.12,579.55 545.38,573.81 549.5,572.28C559.41,566.92 573.69,563.74 580.59,558.7C584.05,560.75 594.22,553.49 597.74,560.12C602.67,564.31 592.82,565.64 590.2,566.32C571.48,567.61 556.96,576.18 539.88,582.86C535.88,585.34 528.66,584.17 532.32,590.77C549.02,587.3 564.47,577.51 581.6,573.55C586.08,572.04 599.8,565.14 598.34,574.85C599.07,577.69 596.72,576.89 594.85,577.83C578.11,582.52 561.31,588.12 545.67,595.76C538.75,597.6 533.3,601.01 525.79,600.14C524.55,589.52 520.43,580.13 520.55,569.2C517.27,569.1 514.6,567.69 514.7,572.21C514.91,581.61 511.53,589.9 510.93,599.04C501.05,600.21 494.14,595.35 485.03,592.89C476.96,589.58 467.99,586.37 459.36,585.07C454.39,583.42 449.25,582.47 444.26,580.89C443.68,577.9 441.08,577.88 439.76,575.46C443.82,576.36 443.65,577.49 446.39,574.1C463.04,575.99 478.9,582.5 494.87,587.11C498.92,588.2 504.66,590.62 502.27,583.74C481.1,575.64 457.91,566.5 434.94,566.71C435.96,564.84 445.11,565.12 440.02,563.97C434.65,562.59 443.68,563.25 445.03,562.76C442.24,561.64 439.84,561.91 438.05,559.07C438.22,557.42 444.03,558.42 443.74,556.27C441.81,555.23 439.48,554.83 438.03,553.11C440.72,550.88 444.84,552.79 448.07,552.84C452.01,552.37 437.41,548.77 443.36,548.67C449.38,549.97 441.92,544.24 439.99,544.04C444.81,543.63 449.26,545.45 454.08,544.83C451.46,543.22 448.45,542.06 445.6,540.91C452.99,540.51 464.79,545.14 472,546.58C480.24,545.37 476.09,555.05 483.4,548.65C483.39,546.11 476.71,544.84 474.71,543.03C467.73,543.77 456.73,537.47 449.83,534.17C456.11,530.9 450.37,531.35 447.96,528.12C462.75,532.06 476.93,540.32 489.92,547.93C488.05,537.72 479.51,541.63 475.53,533.44C466.44,530.86 458.01,527.42 450.05,522.29C456.31,520.36 464,526.1 470.99,524.95C474.02,524.03 469.63,522.58 468.38,522.57C465.72,523.09 455.45,515.28 463.41,517.54C469.08,518.33 455.95,512.06 460.73,511.74C466.51,508.96 454.94,505.67 463.03,502.16C465.88,505.14 476.14,499.21 467.62,500.51C459.36,498.88 469.5,495.91 462.25,492.65C465.25,488.5 473.22,495.45 475.89,490.85C473.71,483.29 467.68,486.91 467.11,478.84C464,471.46 468.52,466.89 472.33,461.36C476.76,459.46 473.15,458.11 472.32,455C476.2,449.05 476.48,439.66 471.94,434.01C472.41,432.37 477.25,427.72 474.66,426.37C470.02,424.42 475.81,419.62 477.79,417.84Z" style="fill:rgb(30,26,30);fill-rule:nonzero;"/>
                <path d="M534.38,421.5C537.66,419.76 536.1,427.76 532.01,426.02C525.52,427 532.43,422.41 534.38,421.5Z" style="fill:rgb(56,51,58);fill-rule:nonzero;"/>
                <path d="M460.86,433.11C460.49,437.2 459.13,441.57 460.55,445.58C464.1,455.32 457.35,464 458.1,471.97C466.33,475.64 455.83,474.6 458.62,481.15C455.34,487.34 449.53,494.55 451.53,502.01C450.33,506.42 445.4,516.56 443.97,520.99C446.72,526.67 441.61,534.07 446.45,538.68C445.04,539.13 442.65,540.42 445.6,540.91C448.45,542.06 451.46,543.22 454.08,544.83C449.26,545.45 444.81,543.63 439.99,544.04C441.92,544.24 449.38,549.97 443.36,548.67C437.41,548.77 452.01,552.37 448.07,552.84C444.84,552.79 440.72,550.88 438.03,553.11C439.48,554.83 441.81,555.23 443.74,556.27C444.03,558.42 438.22,557.42 438.05,559.07C439.84,561.91 442.24,561.64 445.03,562.76C443.68,563.25 434.65,562.59 440.02,563.97C445.11,565.12 435.96,564.84 434.94,566.71C457.91,566.5 481.1,575.64 502.27,583.74C504.66,590.62 498.92,588.2 494.87,587.11C478.9,582.5 463.04,575.99 446.39,574.1C443.65,577.49 443.82,576.36 439.76,575.46C441.08,577.88 443.68,577.9 444.26,580.89C440.64,581 437.03,581.06 433.41,580.87C434.93,573.46 432.07,566.65 435.41,560.02C435.88,549.37 435.7,547.12 439.66,537.19C434.38,528.81 445.53,530.24 440.53,521.61C444.57,509.32 445.74,494.05 450.05,483.11C455.89,467.32 455.98,451.33 456.31,434.77C456.67,436.86 457.02,438.95 457.41,441.03C458.6,439.18 458.17,432.58 460.86,433.11Z" style="fill:rgb(80,68,82);fill-rule:nonzero;"/>
                <path d="M522,441C526.89,441.17 531.93,440.68 536.79,441.21C536.89,447.57 537.74,455.25 536.34,461.34C530.43,462.26 519.84,462.98 514.27,460.71C513.91,454.24 513.5,447.04 514.53,440.65C517.01,440.59 519.51,440.95 522,441Z" style="fill:rgb(204,195,208);fill-rule:nonzero;"/>
                <path d="M516.21,443.21C519.44,442.85 522.75,443 526,442.97C528.91,442.98 531.89,442.88 534.79,443.21C534.99,448.41 535.64,454.35 534.39,459.4C529.6,460.45 521.42,460.37 516.57,459.43C515.42,454.29 515.98,448.46 516.21,443.21Z" style="fill:rgb(34,30,33);fill-rule:nonzero;"/>
                <path d="M623.32,536.82C624.58,541.25 621.09,548.68 628.54,546.4C626.87,550.56 638.1,547.64 634.21,553.63C637.33,553.34 638.4,552.96 640.12,555.99C636.55,559.65 635.09,560.3 636.18,565.98C640.08,565.98 638.03,560.69 641.48,559.41C644.4,564.28 647.99,564.46 653.15,565.33C649.97,573.25 650.52,581.53 643.81,587.81C637.89,593.22 628.7,601.29 620.11,599.86C619.13,589.91 626.29,590.78 629.52,583.49C633.89,578.69 633.6,569.51 632.38,563.6C626.35,560.8 627.45,567.09 626.67,570.82C626.03,575.69 624.36,585.12 617.29,582.77C612.16,578.02 617.02,566.83 617.66,560.82C617.24,552.02 617.13,543.82 623.32,536.82Z" style="fill:rgb(179,126,114);fill-rule:nonzero;"/>
                <path d="M596.03,541.83C595.54,548.75 603.31,549.12 599.57,554.51C597.54,557.89 602.8,559.41 601.61,563.21C600.24,568.67 602,573.43 601.9,578.83C600.25,578.39 598.58,578.07 596.88,577.95L594.85,577.83C596.72,576.89 599.07,577.69 598.34,574.85C599.8,565.14 586.08,572.04 581.6,573.55C564.47,577.51 549.02,587.3 532.32,590.77C528.66,584.17 535.88,585.34 539.88,582.86C556.96,576.18 571.48,567.61 590.2,566.32C592.82,565.64 602.67,564.31 597.74,560.12C594.22,553.49 584.05,560.75 580.59,558.7C573.69,563.74 559.41,566.92 549.5,572.28C545.38,573.81 530.12,579.55 529,573.12C533.4,575.18 532.1,574.62 530.52,571.06C537.53,569.33 549.57,563.2 555.39,565.31C554.85,562.18 559.83,561.76 561.93,560.86C572.15,558.16 582.01,554.47 592.35,552.31C597.25,551.23 589.93,540.77 596.03,541.83Z" style="fill:rgb(80,63,91);fill-rule:nonzero;"/>
                <path d="M594.85,577.83L596.88,577.95C601.38,604.46 600.5,630.61 599.27,657.25C597.26,669.14 592.59,679.09 595.56,691.41C592.9,714.68 605.4,735.15 603,759C603.1,777.3 598.35,795.58 597.72,813.93C596.83,814.41 595.95,814.88 595.06,815.33C589.66,815.94 594.42,808.75 593.99,806C596.42,797.55 594.84,789.03 595.91,780.48C594.14,777.39 598.5,775.17 594.41,774.64C598.89,769.18 597.27,758.14 597.59,751.34C593.19,748.63 601.8,734.96 595.33,739.83C593.31,730.95 594.42,721.39 593.98,712.32C588.7,716.89 594.48,708.76 589.58,707.45C584.29,704.48 590,701.75 587.53,697.67C583.23,692.6 590.43,687.5 589.35,679.99C593.62,687.11 593.73,673.96 592.86,671.08C591.55,665.06 597.04,653.65 592.35,648.62C587.63,644.2 595.3,644.2 591.34,639.99C592.99,638.77 598.39,631.85 593.06,632.93C586.39,633.05 597.69,621.78 589.55,626.35C588.95,625.84 593.15,613.79 595.45,615.25C595.96,614.26 599.46,602.24 594.18,604.52C594.05,597.04 599.33,595.79 590.6,590.89C593.01,597.46 585.03,601.62 588.58,606.13C587.24,606.33 580.8,603.78 584.45,606.56C589.55,610.89 584.25,616.9 579.27,618.32C579.92,623.37 580.11,628.08 576.36,632.06C577.41,623.88 575.26,632.35 573.07,627.52C567.27,627.72 573.84,634.5 565.12,633.17C564.48,632.01 569.04,614.63 562.38,620.86C563.06,616.85 561.95,616.39 559.02,614.03C556.95,619.86 552.41,612.32 554.26,609.2C554.49,607.27 557.79,604.89 553.88,605.64C548.2,606.07 552.87,595.66 547.66,598.64C544.82,600.95 546.32,597.53 545.67,595.76C561.31,588.12 578.11,582.52 594.85,577.83Z" style="fill:rgb(205,166,142);fill-rule:nonzero;"/>
                <path d="M596.88,577.95C598.58,578.07 600.25,578.39 601.9,578.83C603.74,605.42 605.29,630.87 599.27,657.25C600.5,630.61 601.38,604.46 596.88,577.95Z" style="fill:rgb(224,203,189);fill-rule:nonzero;"/>
                <path d="M433.41,580.87C437.03,581.06 440.64,581 444.26,580.89C449.25,582.47 454.39,583.42 459.36,585.07C454.59,586.72 448.76,584.03 446.23,589.24C444.14,596.53 438.9,593.2 437.02,600.02C431.69,619.98 437.49,637.49 436.77,656.23C431,631.28 432.6,606.08 433.41,580.87Z" style="fill:rgb(217,191,173);fill-rule:nonzero;"/>
                <path d="M459.36,585.07C467.99,586.37 476.96,589.58 485.03,592.89C488.98,597.57 494.54,595.69 497.89,601.91C495.25,605.11 492.24,598.49 491.41,602.87C494.24,611.57 487.16,605.7 485.82,614.47C476.29,610.75 481.92,624.58 483.14,628.64C477.81,624.13 484.31,634.79 480,630.94C478.18,628.21 473.78,636.67 479.68,635.27C473.62,641.22 483.26,641.72 474.98,645.82C473.12,643.9 472.26,639.42 473.41,636.72C468.3,641.85 467.48,643.95 460.3,640.17C460.93,634.85 460.64,635.42 455.85,633.52C456.29,629.21 448.84,617.27 447.71,626.85C445.26,633.15 445.07,622.79 445.83,621.24C443.92,621.78 442.02,622.32 440.07,622.73C443.63,626.04 445.75,632.81 442.47,636.9C438.08,628.36 441.6,643.66 439.46,645.12C441.35,649.33 440.09,651.82 439.53,656.28C444.69,659.22 440.75,672.86 445.32,677.13C450.7,676.74 445.88,683.88 448.11,686.99C453.67,691.65 441.88,693.45 448.03,701.02C447.38,704.86 443.95,706.32 444.51,710.4C445.19,715.6 441.13,705.62 442.04,710.95C440.54,721.19 442.91,734.57 437.41,743.38C431.67,743.62 438.78,744.67 437.94,747.54C430.53,745.94 440.62,757.37 437.77,760.85C441.58,771.81 438.88,781.82 441.06,793.78C444.74,800.03 442.79,806.18 446.71,811.91C445.81,812.45 444.88,812.94 443.92,813.39C438.1,809.66 440.55,812.18 439.78,817.18C438.94,798.36 434.87,778.18 433.92,759.99C432.12,743.9 436.69,729.87 439.34,714.36C442.13,694.56 442.67,675.53 436.77,656.23C437.49,637.49 431.69,619.98 437.02,600.02C438.9,593.2 444.14,596.53 446.23,589.24C448.76,584.03 454.59,586.72 459.36,585.07Z" style="fill:rgb(203,163,138);fill-rule:nonzero;"/>
                <path d="M590.6,590.89C599.33,595.79 594.05,597.04 594.18,604.52C599.46,602.24 595.96,614.26 595.45,615.25C593.15,613.79 588.95,625.84 589.55,626.35C597.69,621.78 586.39,633.05 593.06,632.93C598.39,631.85 592.99,638.77 591.34,639.99C595.3,644.2 587.63,644.2 592.35,648.62C597.04,653.65 591.55,665.06 592.86,671.08C593.73,673.96 593.62,687.11 589.35,679.99C590.43,687.5 583.23,692.6 587.53,697.67C590,701.75 584.29,704.48 589.58,707.45C594.48,708.76 588.7,716.89 593.98,712.32C594.42,721.39 593.31,730.95 595.33,739.83C601.8,734.96 593.19,748.63 597.59,751.34C597.27,758.14 598.89,769.18 594.41,774.64C598.5,775.17 594.14,777.39 595.91,780.48C594.84,789.03 596.42,797.55 593.99,806C594.42,808.75 589.66,815.94 595.06,815.33C589.83,819.02 567.14,816.57 562.3,812.16C562.3,803.34 559.31,794.21 557.4,785.61C552.33,769.33 554.01,753.67 555.24,737.06C558.66,723.05 551.94,713.78 547.83,701.13C542.31,682.81 543.65,662.78 537.69,644.36C534.3,629.74 526.54,614.86 525.79,600.14C533.3,601.01 538.75,597.6 545.67,595.76C546.32,597.53 544.82,600.95 547.66,598.64C552.87,595.66 548.2,606.07 553.88,605.64C557.79,604.89 554.49,607.27 554.26,609.2C552.41,612.32 556.95,619.86 559.02,614.03C561.95,616.39 563.06,616.85 562.38,620.86C569.04,614.63 564.48,632.01 565.12,633.17C573.84,634.5 567.27,627.72 573.07,627.52C575.26,632.35 577.41,623.88 576.36,632.06C580.11,628.08 579.92,623.37 579.27,618.32C584.25,616.9 589.55,610.89 584.45,606.56C580.8,603.78 587.24,606.33 588.58,606.13C585.03,601.62 593.01,597.46 590.6,590.89Z" style="fill:rgb(186,143,119);fill-rule:nonzero;"/>
                <path d="M485.03,592.89C494.14,595.35 501.05,600.21 510.93,599.04C510.36,610.58 506.22,622.05 503.11,633.12C495.62,650.35 494.31,667.73 492.37,686.18C491.98,701.13 483.11,713.5 481.92,727.98C482.87,743.95 486,762.79 482.68,778.82C479.48,790.68 476.33,801.89 476.38,814.21C476.25,812.91 476.07,811.61 475.85,810.33C465.63,814.4 454.72,815.58 443.92,813.39C444.88,812.94 445.81,812.45 446.71,811.91C442.79,806.18 444.74,800.03 441.06,793.78C438.88,781.82 441.58,771.81 437.77,760.85C440.62,757.37 430.53,745.94 437.94,747.54C438.78,744.67 431.67,743.62 437.41,743.38C442.91,734.57 440.54,721.19 442.04,710.95C441.13,705.62 445.19,715.6 444.51,710.4C443.95,706.32 447.38,704.86 448.03,701.02C454.8,705.34 443.72,709.09 446.55,714.58C446.9,718 449.33,726.87 443.59,725.84C443.87,731.47 446.03,743.13 454.68,740.7C459.65,736.23 448.04,740.56 448.05,735.88C446.57,731.62 453.53,733.18 456.08,732.42C460.3,732.48 457.66,740.07 459.82,742.02C460.56,739.54 458.59,732.52 462.16,732.2C470.96,731.49 475,719.34 477.23,712.23C473.68,703.69 481.61,705.51 484.5,699.18C476.51,694.9 486.3,690.26 483.01,682C481.46,676.52 479.09,685.13 476.56,685.65C471.94,691.32 466.03,683.12 464.46,678.76C458.71,679.45 464.05,666.15 459.22,670C458.38,680.6 455.34,667.29 454.03,665C452.51,656.65 452.89,670.39 446.95,668.46C441.19,676.89 456.44,673.23 451.68,683.41C452.49,685.87 456.84,699.23 450.04,695.74C449.11,697.35 448.53,699.24 448.03,701.02C441.88,693.45 453.67,691.65 448.11,686.99C445.88,683.88 450.7,676.74 445.32,677.13C440.75,672.86 444.69,659.22 439.53,656.28C440.09,651.82 441.35,649.33 439.46,645.12C441.6,643.66 438.08,628.36 442.47,636.9C445.75,632.81 443.63,626.04 440.07,622.73C442.02,622.32 443.92,621.78 445.83,621.24C445.07,622.79 445.26,633.15 447.71,626.85C448.84,617.27 456.29,629.21 455.85,633.52C460.64,635.42 460.93,634.85 460.3,640.17C467.48,643.95 468.3,641.85 473.41,636.72C472.26,639.42 473.12,643.9 474.98,645.82C483.26,641.72 473.62,641.22 479.68,635.27C473.78,636.67 478.18,628.21 480,630.94C484.31,634.79 477.81,624.13 483.14,628.64C481.92,624.58 476.29,610.75 485.82,614.47C487.16,605.7 494.24,611.57 491.41,602.87C492.24,598.49 495.25,605.11 497.89,601.91C494.54,595.69 488.98,597.57 485.03,592.89Z" style="fill:rgb(181,139,116);fill-rule:nonzero;"/>
                <path d="M454.03,665C455.34,667.29 458.38,680.6 459.22,670C464.05,666.15 458.71,679.45 464.46,678.76C466.03,683.12 471.94,691.32 476.56,685.65C479.09,685.13 481.46,676.52 483.01,682C486.3,690.26 476.51,694.9 484.5,699.18C481.61,705.51 473.68,703.69 477.23,712.23C475,719.34 470.96,731.49 462.16,732.2C458.59,732.52 460.56,739.54 459.82,742.02C457.66,740.07 460.3,732.48 456.08,732.42C453.53,733.18 446.57,731.62 448.05,735.88C448.04,740.56 459.65,736.23 454.68,740.7C446.03,743.13 443.87,731.47 443.59,725.84C449.33,726.87 446.9,718 446.55,714.58C443.72,709.09 454.8,705.34 448.03,701.02C448.53,699.24 449.11,697.35 450.04,695.74C456.84,699.23 452.49,685.87 451.68,683.41C456.44,673.23 441.19,676.89 446.95,668.46C452.89,670.39 452.51,656.65 454.03,665Z" style="fill:rgb(171,123,100);fill-rule:nonzero;"/>
                <path d="M584.82,666.49C587.06,660.8 589.94,671.05 591.21,672.79C594.86,680 582.76,671.76 582.52,678.59C581.44,683.51 583.18,683.55 586.12,680.22C586.7,686.96 582.04,682.88 584.24,689.23C579.34,686.78 579.72,692.49 580.04,695.94C587.59,702.06 580.43,707.36 590.93,710.98C587.82,716.23 588.27,716.13 589.67,721.83C587.13,727.21 587.79,727.16 590.86,731.82C586.38,733 585.51,737.46 581.75,732.06C575.26,733.82 582.94,739.18 579.4,740.42C575.11,746.03 577.98,729.37 573.6,735.64C570.66,740.45 562.23,734.34 566.56,729.56C570.56,722.54 560,719.94 561.05,714.19C563.57,714.81 569.29,717.65 569.69,713.25C562.67,711.81 563.69,706.3 557.67,703.33C556.2,702.23 552.84,700.92 554.66,698.66C557.97,694.04 553.01,689.7 554.88,684.22C556.09,678.44 549.7,676.32 554.89,673C560.48,678.44 559.86,678.22 558.94,685.94C559.87,684.64 560.74,683.29 561.65,681.98C560.3,687.03 563.55,684.79 566.2,688.07C568.03,686.38 567.1,681.82 570.14,684.8C571.53,681.11 576.66,673.78 577.05,670.81C571.16,664.3 581.76,662.86 584.82,666.49Z" style="fill:rgb(172,123,101);fill-rule:nonzero;"/>
                <path d="M475.85,810.33C476.07,811.61 476.25,812.91 476.38,814.21C475.29,825.47 470.61,840.72 475.89,850.92C464.64,852.91 451.45,854.65 439.95,852.32C440.36,850.54 440.47,848.77 440.51,846.96C443.76,851.14 452.45,853.52 451.25,845.13C452.81,856.73 473.52,840.74 459.86,839.21C454.38,838.28 447.82,840.2 442.8,837.86C441.83,831.05 441.85,823.69 439.78,817.18C440.55,812.18 438.1,809.66 443.92,813.39C454.72,815.58 465.63,814.4 475.85,810.33Z" style="fill:rgb(29,25,28);fill-rule:nonzero;"/>
                <path d="M562.3,812.16C567.14,816.57 589.83,819.02 595.06,815.33C595.95,814.88 596.83,814.41 597.72,813.93C597.98,822.17 595.72,830.85 595.05,839.15C587.77,842.5 578.14,835.61 572.2,841.22C567,845.17 575.45,843.92 576.48,848.59C579.84,850.61 586.86,849.76 591.02,850.1C595.12,850.48 594.55,845.76 598.31,846.63C598.66,848.33 598.72,849.38 597.9,850.94C594.78,851.88 591.61,852.65 588.41,853.27C578.39,848.64 568.95,858.2 565.39,843.83C564.36,838.53 564.04,833.2 563.49,827.84C568.42,827.75 572.56,835.14 577.21,830.02C576.04,828.68 573.48,824.93 573.24,828.94C567.13,828.33 563.49,826.44 563.21,819.76C562.74,817.2 562.11,814.78 562.3,812.16Z" style="fill:rgb(28,24,27);fill-rule:nonzero;"/>
                <path d="M563.21,819.76C563.49,826.44 567.13,828.33 573.24,828.94C573.48,824.93 576.04,828.68 577.21,830.02C572.56,835.14 568.42,827.75 563.49,827.84C562.95,825.15 563.07,822.48 563.21,819.76Z" style="fill:rgb(144,144,145);fill-rule:nonzero;"/>
                <path d="M442.8,837.86C447.82,840.2 454.38,838.28 459.86,839.21C473.52,840.74 452.81,856.73 451.25,845.13C452.45,853.52 443.76,851.14 440.51,846.96C440.47,848.77 440.36,850.54 439.95,852.32L438.37,851.91C439.47,847.54 438.94,840.64 442.8,837.86Z" style="fill:rgb(93,66,100);fill-rule:nonzero;"/>
                <path d="M595.05,839.15C595.69,839.41 596.32,839.69 596.95,839.99C597.46,842.19 597.97,844.39 598.31,846.63C594.55,845.76 595.12,850.48 591.02,850.1C586.86,849.76 579.84,850.61 576.48,848.59C575.45,843.92 567,845.17 572.2,841.22C578.14,835.61 587.77,842.5 595.05,839.15Z" style="fill:rgb(88,59,102);fill-rule:nonzero;"/>
                <path d="M565.39,843.83C568.95,858.2 578.39,848.64 588.41,853.27C579.36,855.09 570.9,853.9 562.06,851.83C561.97,849 564.15,846.29 565.39,843.83Z" style="fill:rgb(101,89,99);fill-rule:nonzero;"/>
                <path d="M475.89,850.92C476.28,857.24 479.24,865.12 477.07,871.11L477.02,869.99C476.7,868.91 477.71,863.69 475.98,864.15C465.34,863.75 454.64,864.16 443.98,863.95C442.2,864.22 439.37,863.39 438.78,865.68L438.07,867.1C440.96,860.23 439.33,859.83 438.37,851.91L439.95,852.32C451.45,854.65 464.64,852.91 475.89,850.92Z" style="fill:rgb(206,198,196);fill-rule:nonzero;"/>
                <path d="M597.9,850.94C595.42,854.85 597.81,858.49 594.4,861.87C595.63,862.05 596.86,862.23 598.09,862.4C586.91,866.03 572.96,864.64 561.37,865.13C562.11,860.69 562,856.31 562.06,851.83C570.9,853.9 579.36,855.09 588.41,853.27C591.61,852.65 594.78,851.88 597.9,850.94Z" style="fill:rgb(205,196,194);fill-rule:nonzero;"/>
                <path d="M598.09,862.4C600.36,862.66 599.76,868.3 600.17,869.98C604.74,884.67 614.51,892.19 625.03,902.39C625.42,903.22 625.79,904.05 626.13,904.9C626.14,909.16 626.39,913.1 624.12,916.9C614.48,913.18 606.87,915.16 596.94,914.56C597.6,919.15 601.98,921.78 604.48,916.47C608.08,918.53 608.28,917.93 605.07,920.88C610.69,921.66 615.66,920.32 621.06,919.19C620.3,920.71 619.14,921.86 617.94,923.02C607.1,927.26 595.23,924.35 584.9,920.08C580.95,914.31 585.94,919.24 588.95,918.97C586.04,913.88 580.14,906.83 573.95,906.01C568.88,903.63 565.4,900.28 562.08,895.84C561.88,895.2 561.68,894.56 561.48,893.92C559.28,888.61 560.69,884.1 562.07,878.84C565.2,882.19 565.53,895.18 569.9,892.12C570.95,895.44 573.93,897.68 575.48,900.84C576.25,895.08 579.77,903.33 578.91,897.02C576.5,892.63 583.19,887.82 579.08,885.92C577.2,886.96 576.29,890.45 574.24,887.76C570.83,885.37 579.53,884.11 576.23,881.79C572.91,878.52 573.41,886.49 570.39,884.68C567.3,882.43 565.52,878.38 563,875.5C562.43,872.12 561.15,868.56 561.37,865.13C572.96,864.64 586.91,866.03 598.09,862.4Z" style="fill:rgb(47,43,49);fill-rule:nonzero;"/>
                <path d="M443.98,863.95C454.64,864.16 465.34,863.75 475.98,864.15C477.44,871.43 472.87,862.06 467,864.96C460.73,865.17 454.4,864.68 448.15,865.2C447,870.81 449.23,870.88 453.05,873.65C448.38,872.53 444.87,873.73 440.49,875.16C441.1,870.94 447.22,862.02 438.78,865.68C439.37,863.39 442.2,864.22 443.98,863.95Z" style="fill:rgb(96,78,102);fill-rule:nonzero;"/>
                <path d="M475.98,864.15C477.71,863.69 476.7,868.91 477.02,869.99C474.58,875.38 470.07,887.66 462.58,881.45C456.52,880.47 458.82,886.05 463.7,886.39C459.96,890 459.9,889.5 455.17,888C455.83,890.27 456.63,892.49 457.35,894.73C458.68,892.75 459.6,890.97 461.96,890.04C461.54,891.87 458.51,893.63 461.99,893.73C460.67,898.35 455.97,896.85 456.92,902.89C458.43,901.7 459.4,897.79 459.71,902.08C463.11,900.07 464.34,899.22 463.12,895.09C464.21,894.43 477.95,893.55 470.7,888.59C473.96,886.88 475.55,876.31 477.86,877.94C478.73,882.13 479.71,886.49 479.78,890.78C479.51,891.8 479.23,892.81 478.94,893.82C473.68,902.68 471.36,903.95 461.95,907.93C458.17,909.75 452.77,910.72 449.99,913.96C448.79,916.54 445.26,920.05 450.03,920.82C439.98,924.63 427.38,928.07 416.94,924.11C415.96,922.78 415.01,921.45 414.14,920.04C419.23,920.15 432.13,921.64 436.3,919.34C442.71,912.68 430.12,916.34 426.82,914C423.41,912.67 423.18,915.57 421.4,917.66C420.48,911.41 413.58,914.81 409.88,916.16L409.13,914.83C407.41,903.18 415.17,899.34 422.15,892.31C427.99,886.22 436.55,875.12 438.07,867.1L438.78,865.68C447.22,862.02 441.1,870.94 440.49,875.16C444.87,873.73 448.38,872.53 453.05,873.65C449.23,870.88 447,870.81 448.15,865.2C454.4,864.68 460.73,865.17 467,864.96C472.87,862.06 477.44,871.43 475.98,864.15Z" style="fill:rgb(40,37,41);fill-rule:nonzero;"/>
                <path d="M477.02,869.99L477.07,871.11C477.07,873.42 477.39,875.68 477.86,877.94C475.55,876.31 473.96,886.88 470.7,888.59C477.95,893.55 464.21,894.43 463.12,895.09C464.34,899.22 463.11,900.07 459.71,902.08C459.4,897.79 458.43,901.7 456.92,902.89C455.97,896.85 460.67,898.35 461.99,893.73C458.51,893.63 461.54,891.87 461.96,890.04C459.6,890.97 458.68,892.75 457.35,894.73C456.63,892.49 455.83,890.27 455.17,888C459.9,889.5 459.96,890 463.7,886.39C458.82,886.05 456.52,880.47 462.58,881.45C470.07,887.66 474.58,875.38 477.02,869.99Z" style="fill:rgb(102,93,107);fill-rule:nonzero;"/>
                <path d="M563,875.5C565.52,878.38 567.3,882.43 570.39,884.68C573.41,886.49 572.91,878.52 576.23,881.79C579.53,884.11 570.83,885.37 574.24,887.76C576.29,890.45 577.2,886.96 579.08,885.92C583.19,887.82 576.5,892.63 578.91,897.02C579.77,903.33 576.25,895.08 575.48,900.84C573.93,897.68 570.95,895.44 569.9,892.12C565.53,895.18 565.2,882.19 562.07,878.84C562.35,877.72 562.66,876.61 563,875.5Z" style="fill:rgb(102,92,107);fill-rule:nonzero;"/>
                <path d="M478.94,893.82C480.07,897.64 474.78,903.88 479.41,905.51C487.9,908.7 478.71,917.76 473.37,918.54C462.95,920.19 456.85,926.73 446.16,926.18C446.75,926.8 447.36,927.41 447.98,928L411.37,928C413.19,927.45 422,926.15 414.99,926.02C407.73,925.73 407.8,920.49 409.13,914.83L409.88,916.16C411.68,920.59 411.45,923.25 416.94,924.11C427.38,928.07 439.98,924.63 450.03,920.82C457.13,918.55 458.26,913.49 461.95,907.93C471.36,903.95 473.68,902.68 478.94,893.82Z" style="fill:rgb(204,201,200);fill-rule:nonzero;"/>
                <path d="M562.08,895.84C565.4,900.28 568.88,903.63 573.95,906.01C579.47,911.31 575.76,916.34 584.9,920.08C595.23,924.35 607.1,927.26 617.94,923.02C621.88,922.36 622.55,920.12 624.12,916.9C626.39,913.1 626.14,909.16 626.13,904.9C627.77,909.35 626.8,915.66 626.37,920.38C622.23,929.88 607.29,923.75 601.24,926.88C606.48,927.53 612.54,925.98 617.39,928L584.48,928C577.3,923.16 566.54,921.42 559.53,915.44C554.89,910.76 558.91,907.64 563.47,905.57C563.35,902.39 561.38,899.67 562.08,895.84Z" style="fill:rgb(204,201,200);fill-rule:nonzero;"/>
                <path d="M573.95,906.01C580.14,906.83 586.04,913.88 588.95,918.97C585.94,919.24 580.95,914.31 584.9,920.08C575.76,916.34 579.47,911.31 573.95,906.01Z" style="fill:rgb(130,118,132);fill-rule:nonzero;"/>
                <path d="M461.95,907.93C458.26,913.49 457.13,918.55 450.03,920.82C445.26,920.05 448.79,916.54 449.99,913.96C452.77,910.72 458.17,909.75 461.95,907.93Z" style="fill:rgb(128,117,131);fill-rule:nonzero;"/>
                <path d="M426.82,914C430.12,916.34 442.71,912.68 436.3,919.34C432.13,921.64 419.23,920.15 414.14,920.04C415.01,921.45 415.96,922.78 416.94,924.11C411.45,923.25 411.68,920.59 409.88,916.16C413.58,914.81 420.48,911.41 421.4,917.66C423.18,915.57 423.41,912.67 426.82,914Z" style="fill:rgb(129,115,134);fill-rule:nonzero;"/>
                <path d="M596.94,914.56C606.87,915.16 614.48,913.18 624.12,916.9C622.55,920.12 621.88,922.36 617.94,923.02C619.14,921.86 620.3,920.71 621.06,919.19C615.66,920.32 610.69,921.66 605.07,920.88C608.28,917.93 608.08,918.53 604.48,916.47C601.98,921.78 597.6,919.15 596.94,914.56Z" style="fill:rgb(119,104,130);fill-rule:nonzero;"/>
            </g>
        </g>
    </g>
</svg>
