<?xml version="1.0" encoding="UTF-8" standalone="no"?>
<!DOCTYPE svg PUBLIC "-//W3C//DTD SVG 1.1//EN" "http://www.w3.org/Graphics/SVG/1.1/DTD/svg11.dtd">
<svg width="100%" height="100%" viewBox="0 0 1729 1728" version="1.1" xmlns="http://www.w3.org/2000/svg" xmlns:xlink="http://www.w3.org/1999/xlink" xml:space="preserve" xmlns:serif="http://www.serif.com/" style="fill-rule:evenodd;clip-rule:evenodd;stroke-linejoin:round;stroke-miterlimit:2;">
    <g transform="matrix(1,0,0,1,-9210,-2084)">
        <g id="_13" serif:id="13" transform="matrix(1,0,0,1,9210.834324,2084)">
            <rect x="0" y="0" width="1728" height="1728" style="fill:none;"/>
            <g transform="matrix(1.411613,2.444985,-2.444985,1.411613,948.222316,-573.125359)">
                <g>
                    <path d="M449.97,156.19C455.59,155.18 460.75,156.82 465.75,159.25C471.47,162.08 477.06,165.19 482.59,168.38C487.43,171.16 491.82,174.57 496.58,177.45C501.29,180.39 507.58,181.12 513,181.61C517.62,181.96 522.44,182.56 527.07,182.07C528.63,181.92 530.04,180.55 531.36,179.77C532.18,180.81 533,181.86 533.82,182.91C529.92,187.93 524.81,191.23 519.4,194.4C511.78,198.71 502.83,202.89 494,203.48C487.75,204.03 483.98,200.16 478.03,199.35C474.07,198.7 470.02,200.33 466.16,199.76C463.38,199.1 462.02,196.91 460.4,194.79C460.6,202.25 460.84,209.63 461.98,217.02C462.07,219.32 463.07,222.77 461.25,224.53C459.9,223.73 458.64,222.79 457.4,221.84C464.77,236.21 465.69,251.95 470.79,268.11C474.18,269.24 477.98,270.16 481.04,272.04C484.05,273.97 485.79,277.49 487.42,280.56C489.2,284.09 491.18,287.56 492.68,291.21C494.39,295.45 494.44,299.58 494.8,304.06C507.88,309.71 521.9,313.26 534.94,318.99C536.9,319.98 539.8,321.28 540.72,323.4C541.68,327.63 539.86,331.9 537.14,335.1C532.98,340.02 526.67,343.37 520.78,345.76C509.03,350.46 496.04,352.71 483.45,353.49C481.55,358.87 480.32,364.92 475.95,368.93C471.29,373.16 464.92,375.81 459.17,378.22C454.67,380.16 449.8,380.5 445.21,382.02C438.97,386.66 433.61,392.83 426.86,396.93C422.97,399.21 418.66,400.39 415.06,403.07C412.42,405.02 410.4,407.2 407.22,408.35C400.81,410.66 393.79,411.54 387,411.7C379.74,411.78 371.47,410.75 365.23,406.74C360.89,404.01 359.17,399.99 355.46,396.53C350.37,391.66 346.16,386.06 343.53,379.48C341.16,373.22 340.33,366.57 339.48,360C339.28,356.99 337.06,354.96 335.5,352.49C331.16,346.39 329.68,338.87 328.18,331.68C317.75,327.8 309.15,321.81 299.24,316.77C291,312.82 282.96,306.93 277.65,299.44C274.83,292.88 279.16,283.5 285.43,280.38C298.43,273.39 313.52,269.12 327.78,265.52C330.94,264.67 334.16,264.15 337.41,263.77C340.3,258.2 345.13,255.46 350.07,252.03C351.94,250.86 352.31,249.07 353.11,247.17C355.25,241.4 358.1,234.93 362.61,230.61C364.72,228.51 367.48,227.53 369.79,225.77C372.3,222.92 374.11,219.39 376.23,216.24C384.6,202.92 394.14,190.41 405.33,179.33C411.83,172.29 420.25,169.04 428.57,164.57C435.29,161.34 442.57,157.43 449.97,156.19Z" style="fill:rgb(0,28,61);fill-rule:nonzero;"/>
                    <clipPath id="_clip1">
                        <path d="M449.97,156.19C455.59,155.18 460.75,156.82 465.75,159.25C471.47,162.08 477.06,165.19 482.59,168.38C487.43,171.16 491.82,174.57 496.58,177.45C501.29,180.39 507.58,181.12 513,181.61C517.62,181.96 522.44,182.56 527.07,182.07C528.63,181.92 530.04,180.55 531.36,179.77C532.18,180.81 533,181.86 533.82,182.91C529.92,187.93 524.81,191.23 519.4,194.4C511.78,198.71 502.83,202.89 494,203.48C487.75,204.03 483.98,200.16 478.03,199.35C474.07,198.7 470.02,200.33 466.16,199.76C463.38,199.1 462.02,196.91 460.4,194.79C460.6,202.25 460.84,209.63 461.98,217.02C462.07,219.32 463.07,222.77 461.25,224.53C459.9,223.73 458.64,222.79 457.4,221.84C464.77,236.21 465.69,251.95 470.79,268.11C474.18,269.24 477.98,270.16 481.04,272.04C484.05,273.97 485.79,277.49 487.42,280.56C489.2,284.09 491.18,287.56 492.68,291.21C494.39,295.45 494.44,299.58 494.8,304.06C507.88,309.71 521.9,313.26 534.94,318.99C536.9,319.98 539.8,321.28 540.72,323.4C541.68,327.63 539.86,331.9 537.14,335.1C532.98,340.02 526.67,343.37 520.78,345.76C509.03,350.46 496.04,352.71 483.45,353.49C481.55,358.87 480.32,364.92 475.95,368.93C471.29,373.16 464.92,375.81 459.17,378.22C454.67,380.16 449.8,380.5 445.21,382.02C438.97,386.66 433.61,392.83 426.86,396.93C422.97,399.21 418.66,400.39 415.06,403.07C412.42,405.02 410.4,407.2 407.22,408.35C400.81,410.66 393.79,411.54 387,411.7C379.74,411.78 371.47,410.75 365.23,406.74C360.89,404.01 359.17,399.99 355.46,396.53C350.37,391.66 346.16,386.06 343.53,379.48C341.16,373.22 340.33,366.57 339.48,360C339.28,356.99 337.06,354.96 335.5,352.49C331.16,346.39 329.68,338.87 328.18,331.68C317.75,327.8 309.15,321.81 299.24,316.77C291,312.82 282.96,306.93 277.65,299.44C274.83,292.88 279.16,283.5 285.43,280.38C298.43,273.39 313.52,269.12 327.78,265.52C330.94,264.67 334.16,264.15 337.41,263.77C340.3,258.2 345.13,255.46 350.07,252.03C351.94,250.86 352.31,249.07 353.11,247.17C355.25,241.4 358.1,234.93 362.61,230.61C364.72,228.51 367.48,227.53 369.79,225.77C372.3,222.92 374.11,219.39 376.23,216.24C384.6,202.92 394.14,190.41 405.33,179.33C411.83,172.29 420.25,169.04 428.57,164.57C435.29,161.34 442.57,157.43 449.97,156.19Z" clip-rule="nonzero"/>
                    </clipPath>
                    <g clip-path="url(#_clip1)">
                        <path d="M449.03,162.94C454.91,161.7 460.69,163.99 464.79,168.21C471,174.48 478.67,178.53 486.4,182.63C491.78,185.36 496.79,188.06 502.98,188.19C509.38,188.31 515.79,187.23 522.2,187.15C515.55,192.52 506.35,194.24 498.04,192.98C490.49,191.49 483.43,188.7 476.22,186.61C472.38,185.47 468.24,184.94 464.53,183.43C461.26,181.99 458.96,179.31 456.51,176.8C454.76,181.8 453.08,186.66 452.52,191.97C452.14,195.87 451.82,199.72 450.57,203.46C445.07,199.44 440.5,194.52 434.39,191.28C436.04,197.51 438.4,203.42 439.56,209.78C440.99,216.26 441.09,222.85 442.79,229.27C444.24,234.91 443.9,240.36 443.46,246.09C436.55,242.28 430.82,236.75 423.91,233.01C417.92,230.25 411.27,228.76 404.94,226.97C397.56,224.69 390.2,226.79 382.24,226.05C384.15,219.45 388.36,214.67 391.9,208.95C396.56,201.97 400.91,194.66 406.13,188.08C411.24,181.66 418.57,177.75 425.43,173.43C432.68,169.19 440.73,164.56 449.03,162.94Z" style="fill:white;fill-rule:nonzero;"/>
                        <path d="M385.82,230.84C384.37,233.47 382.91,236.09 381.45,238.72C375.09,239.16 368.91,240.43 362.71,241.85C363.88,240.39 364.99,238.66 366.45,237.46C372.24,233.47 378.83,231.43 385.82,230.84Z" style="fill:white;fill-rule:nonzero;"/>
                        <path d="M394.03,231.14C400.31,231.35 406.51,232.59 412.27,235.15C405.24,243.47 400.4,253.05 395.88,262.9C394.78,265.22 393.48,267.43 392.16,269.64C385.68,268.73 379.39,267.62 373.3,265.12C374.33,260.91 376.23,257.18 378.54,253.54C382.53,247.18 386.34,240.7 390.39,234.38C391.24,233.34 392.52,231.01 394.03,231.14Z" style="fill:white;fill-rule:nonzero;"/>
                        <path d="M421.1,239.86C432.28,246.47 442.9,253.62 451.85,263.14C457.91,269.54 462.14,277.92 465.43,286.02C464.52,288.56 462.81,289.81 460.12,289.98C454.56,285.3 451.2,277.03 446.29,271.71C441.6,266.5 436.56,261.27 430.95,257.06C425.23,252.97 419.3,249.22 413,246.08C413.83,243.69 414.42,240.9 415.87,238.81C417.63,237.67 419.51,239.07 421.1,239.86Z" style="fill:white;fill-rule:nonzero;"/>
                        <path d="M377.98,244.24C376.76,246.7 375.45,249.1 374.07,251.47C370.54,251.47 367,251.44 363.47,251.28C367.86,246.91 371.86,245.16 377.98,244.24Z" style="fill:white;fill-rule:nonzero;"/>
                        <path d="M410.96,251.98C415.2,252.37 419.41,254.83 422.98,257.03C429.8,261.5 436.49,267.03 441.18,273.76C439.85,275.58 438.47,277.33 436.97,279.01C428.22,270.79 417.33,264.6 406.53,259.5C407.93,257.01 409.09,254.15 410.96,251.98Z" style="fill:white;fill-rule:nonzero;"/>
                        <path d="M371.02,256.87C370.08,259.37 369.13,261.87 368.16,264.36C360.76,264.12 353.44,265.15 346.06,265.14C347.58,263.28 349.25,261.61 351.19,260.18C356.03,255.8 364.88,257.54 371.02,256.87Z" style="fill:white;fill-rule:nonzero;"/>
                        <path d="M401.84,265.2C408.05,267.05 413.95,271.13 419.38,274.62C426.48,279.32 433.27,284.69 439.36,290.64C442.56,294.01 446.43,298.3 447.32,302.98C447.66,304.87 447.29,305.96 446.04,307.38C442.5,307.85 441.15,303.84 439.37,301.57C434.11,294.17 424.77,288.97 417.76,283.24C411.79,278.18 405.03,275.54 398.07,272.21C399.14,269.76 400.29,267.38 401.84,265.2Z" style="fill:white;fill-rule:nonzero;"/>
                        <path d="M368.27,269.83C373.94,271.69 379.33,271.68 384.45,275.08C372.36,276.25 360.14,276.1 348.01,276.79C344.37,277.03 340.92,277.97 337.42,278.94C349.77,280.36 361.79,283.83 373.14,288.86C388.79,296.08 405.14,301.86 421.23,308C420.88,309.7 420.53,311.4 420.18,313.1C394.96,304.03 368.89,293.07 342.79,287.66C333.8,285.82 324.19,283.7 315,283.78C306.38,283.79 298.43,286.45 289.8,286.94C296.42,282.81 303.81,279.17 311.5,277.68C319.54,275.87 327.79,273.81 336.01,273.17C346.77,272.14 357.97,270.08 368.78,270.64L368.27,269.83Z" style="fill:white;fill-rule:nonzero;"/>
                        <path d="M467.88,276.6C472.35,280.42 477.44,284.42 480.55,289.45C483.26,294.87 484.44,301.2 485.92,307.05C483.87,308.13 481.16,308.85 480.21,311.21C478.85,314.86 478.57,319.15 478.96,323C479.34,326.4 481.96,328.02 484.21,330.22C483.53,333.67 483.03,337.39 481.7,340.65C479.81,340.6 478,340.19 476.1,340.2C473.31,342.27 471.24,345.86 469.91,349.02C468.55,352.73 470.63,355.59 472.14,358.79C468.46,362.44 464.88,365.81 460.21,368.21C457.62,369.53 454.52,369.87 451.67,370.38C454.73,366.31 458.49,362.39 460.82,357.85C462.31,354.66 460.6,351.86 458.05,349.96C455.2,347.96 451.59,345.97 448.06,345.84C444.89,348.45 442.73,352.28 439.99,355.34C435.46,341.88 432.91,328.21 435.39,314.04C431.87,326.55 429.78,339 431.2,352.03C431.61,356.3 433.65,359.93 434.47,364.16C432.78,363.29 431.38,363.39 430.42,361.54C426.89,355.54 424.41,349.01 423.87,342.02C422.75,328.51 426.21,315.29 430.71,302.67C433.16,305.13 435.81,307.26 437.95,310.02C439.94,312.37 441.93,315.4 445.03,316.27C451.16,315.09 455.25,307.98 454.1,302C452.87,294.83 447.73,289.37 442.79,284.42C443.69,282.72 444.63,281.06 445.62,279.41C448.45,283.27 451.29,287.1 453.79,291.18C454.68,292.54 455.6,294.15 456.88,295.17C461.46,295.74 468.4,295.14 471.29,290.96C471,287.1 469.63,283.24 468.65,279.5C468.39,278.54 468.14,277.57 467.88,276.6Z" style="fill:white;fill-rule:nonzero;"/>
                        <path d="M344.49,299.66C343.02,309.01 340.99,319.03 342.01,328.99C343.22,337.28 348.18,343.91 351.97,351.09C353.45,353.71 355.59,356.06 357.4,358.48C349.42,356.09 342.99,350.13 339.33,342.75C334.86,332.05 334.97,321.38 335.14,310C335.23,306.91 335.59,303.04 337.43,300.45C339.18,298.24 342.16,299.41 344.49,299.66Z" style="fill:white;fill-rule:nonzero;"/>
                        <path d="M486.33,313.47C486.92,316.67 485.82,319.39 484.45,322.19C483.85,319.93 482.53,316.72 483.57,314.46C484.29,313.4 485.21,313.57 486.33,313.47Z" style="fill:white;fill-rule:nonzero;"/>
                        <path d="M493.72,313.02C497.53,314.89 500.99,317.39 504.85,319.18C509.52,321.51 514.39,322.6 519.4,323.9C510.62,325.19 501.54,324.83 492.71,324.37C493.07,320.59 493.27,316.79 493.72,313.02Z" style="fill:white;fill-rule:nonzero;"/>
                        <path d="M391.85,326.95C400.48,329.46 408.47,333.2 417.51,334.34C417.68,337.19 417.77,340.05 417.85,342.91C408.27,340.42 398.54,338.53 388.9,336.29C389.87,333.17 390.86,330.06 391.85,326.95Z" style="fill:white;fill-rule:nonzero;"/>
                        <path d="M477.32,345.26C478.09,346.46 478.84,347.65 479.33,348.98C478.52,350.68 477.17,351.76 475.86,353.04C475.26,351.62 474.66,350.2 474.11,348.76C475.08,347.51 476.19,346.37 477.32,345.26Z" style="fill:white;fill-rule:nonzero;"/>
                        <path d="M384.43,347.66C388.78,347.83 392.8,348.89 396.99,349.88C404.51,351.7 412.01,353.4 419.75,353.96C420.61,360.1 425.05,364.57 428.54,369.44C421.95,374.05 415.4,379.21 408.39,383.08C406.21,382.37 404.41,381.32 402.04,381.73C393.16,382.69 385.14,385.05 376.21,382.6C370.88,381.07 365.35,379.04 360.36,376.63C355.52,374.22 355.11,368.87 353.85,364.21C361.19,366.63 368.99,364.51 374.95,359.88C378.76,356.6 381.72,351.85 384.43,347.66Z" style="fill:white;fill-rule:nonzero;"/>
                        <path d="M449.99,351.31C451.42,352.34 453.3,352.96 453.28,355.04C453.24,358.59 449.85,362.1 447.79,364.79C443.3,369.96 440.33,375.74 435.44,380.42C430.17,385.58 424.33,388.97 418.35,393.34C414.82,395.69 410.24,398.63 405.87,398.49C402.83,396.63 403.76,393.83 403.5,390.8C412.53,387.33 420.77,382.27 428.37,376.32C433.4,372.29 438.03,368.09 441.78,362.8C444.54,359.02 446.81,354.66 449.99,351.31Z" style="fill:white;fill-rule:nonzero;"/>
                        <path d="M348.23,369.36C351.16,374.43 353.78,379.26 358.64,382.8C358.32,384.4 358,385.99 357.67,387.59C353.21,383.03 350.69,378.35 349.02,372.21C348.75,371.26 348.49,370.31 348.23,369.36Z" style="fill:white;fill-rule:nonzero;"/>
                        <path d="M366.87,385.07C370.56,386.53 373.94,388.32 377.97,388.75C384.75,390.02 391,388.51 397.78,388.54C397.19,389.85 396.6,391.16 396,392.47C397.07,395.87 397.92,399.28 398.46,402.81C392.47,404.58 386.16,405.01 379.96,404.29C375.38,403.68 370.55,402.15 367.23,398.78C364.17,395.77 362.92,391.16 363.81,387C364.05,385.51 365.4,384.38 366.87,385.07Z" style="fill:white;fill-rule:nonzero;"/>
                        <g transform="matrix(1,0,0,1,-3,-2)">
                            <path d="M463.522,307L465.508,306.988L468.644,316.049L467.609,318.938L463.522,307Z" style="fill:rgb(0,28,61);"/>
                            <path d="M463.514,309.44L465.82,316.027L465.833,331.459L463.562,338.047L463.514,309.44Z" style="fill:rgb(0,28,61);"/>
                            <path d="M463.586,340.026L465.87,340.006L469.239,329.672L468.217,326.531L463.586,340.026Z" style="fill:rgb(0,28,61);"/>
                            <path d="M467.837,327.578L468.228,326.549L469.333,326.531L471.102,331.483L471.132,337.641L468.931,330.681L467.837,327.578Z" style="fill:rgb(0,28,61);"/>
                            <path d="M471.77,340.024L474.073,340.016L473.99,306.959L471.753,306.995L471.77,340.024Z" style="fill:rgb(0,28,61);"/>
                            <path d="M470.849,309.672L470.84,316.141L469.293,320.517L468.19,320.516L467.607,318.939L470.849,309.672Z" style="fill:rgb(0,28,61);"/>
                        </g>
                    </g>
                </g>
            </g>
            <g id="down" transform="matrix(2.474918,0,0,2.474918,-414.475516,171.339162)">
                <path d="M510.91,22.34C514.82,22.84 518.64,24.09 522.49,24.9C519.31,26.07 516.55,27.43 513.04,27.28C509.4,27.05 505.82,26.76 502.18,27.14C498.97,27.48 495.02,26.5 492.06,27.84C487.83,30.01 485.89,34.51 482.95,38.02C480.05,41.43 479.56,45.27 477.44,49.46C475.88,45 477.51,41.63 479.83,37.9C482.42,33.71 485.26,29.14 489.44,26.38C492.1,24.52 495.84,24.52 498.97,23.93C502.88,23.4 507.04,21.82 510.91,22.34Z" style="fill:rgb(157,142,129);fill-rule:nonzero;"/>
                <path d="M522.49,24.9C527.26,25.72 531.64,27.4 534.67,31.35C538.76,36.19 539.18,42.51 540.35,48.55C541.37,54.33 539.73,59.18 539.56,64.95C538.49,65.66 537.45,66.41 536.4,67.14C537.4,61.97 538.32,56.66 538.38,51.39C538.62,46.96 531.91,46 531.57,41.72C530.99,39.59 533.95,37.65 535.06,36.15C533.79,35.47 532.45,34.55 531.02,34.31C527.81,34.77 524.66,36.7 521.79,38.16C521.09,37.18 519.18,36.16 519.64,34.8C520.65,34.13 521.69,33.49 522.74,32.89C520.11,31.92 517.54,30.79 514.87,29.94C510.84,29.97 506.98,30.86 503.12,31.27C499.72,31.68 495.93,30.39 492.65,29.61C493.36,32.1 494.04,34.6 494.7,37.1C491.15,37.91 487.61,38.71 484.17,39.91C484.67,40.33 485.17,40.75 485.67,41.17C485.07,43.76 485.31,46.33 485.06,48.93C484.17,50.43 482.59,51.58 481.3,52.74C481.75,56.17 482.28,59.53 483.08,62.9C481.19,58.38 478.8,54.21 477.44,49.46C479.56,45.27 480.05,41.43 482.95,38.02C485.89,34.51 487.83,30.01 492.06,27.84C495.02,26.5 498.97,27.48 502.18,27.14C505.82,26.76 509.4,27.05 513.04,27.28C516.55,27.43 519.31,26.07 522.49,24.9Z" style="fill:rgb(112,94,79);fill-rule:nonzero;"/>
                <path d="M514.87,29.94C517.54,30.79 520.11,31.92 522.74,32.89C521.69,33.49 520.65,34.13 519.64,34.8C519.18,36.16 521.09,37.18 521.79,38.16C524.66,36.7 527.81,34.77 531.02,34.31C532.45,34.55 533.79,35.47 535.06,36.15C533.95,37.65 530.99,39.59 531.57,41.72C531.91,46 538.62,46.96 538.38,51.39C538.32,56.66 537.4,61.97 536.4,67.14C535.4,67.79 534.4,68.42 533.41,69.08C532.72,63.8 531.32,59.35 528.29,54.94C528.18,53.37 528.28,51.58 527.71,50.09C526.26,48.1 523.29,47.27 520.93,47.31C518.68,47.21 517,49.42 515.39,50.72L514.84,51.2C511.48,53.11 508.3,53.84 504.45,53.41L502.72,52.56C501.41,51.55 500.2,50.45 498.94,49.39C501.72,48.89 504.51,48.44 507.3,47.99C506.33,46.73 505.45,45.1 504.13,44.18C502.31,43.24 499.76,43.93 497.83,44.2C497.19,48.13 496.57,50.29 493.43,52.8C494.64,53.06 495.84,53.33 497.05,53.6C496.28,53.9 495.51,54.22 494.75,54.54C490.94,56.25 489.86,58.98 488.99,62.83L488.84,63.74C488.5,65.85 488.14,67.97 487.78,70.08C486.37,68.4 484.94,66.7 483.61,64.95C483.44,64.27 483.26,63.59 483.08,62.9C482.28,59.53 481.75,56.17 481.3,52.74C482.59,51.58 484.17,50.43 485.06,48.93C485.31,46.33 485.07,43.76 485.67,41.17C485.17,40.75 484.67,40.33 484.17,39.91C487.61,38.71 491.15,37.91 494.7,37.1C494.04,34.6 493.36,32.1 492.65,29.61C495.93,30.39 499.72,31.68 503.12,31.27C506.98,30.86 510.84,29.97 514.87,29.94Z" style="fill:rgb(56,43,32);fill-rule:nonzero;"/>
                <path d="M504.13,44.18C505.45,45.1 506.33,46.73 507.3,47.99C504.51,48.44 501.72,48.89 498.94,49.39C500.2,50.45 501.41,51.55 502.72,52.56C500.8,52.72 498.9,53.07 497.05,53.6C495.84,53.33 494.64,53.06 493.43,52.8C496.57,50.29 497.19,48.13 497.83,44.2C499.76,43.93 502.31,43.24 504.13,44.18Z" style="fill:rgb(108,89,73);fill-rule:nonzero;"/>
                <path d="M520.93,47.31C523.29,47.27 526.26,48.1 527.71,50.09C528.28,51.58 528.18,53.37 528.29,54.94C524.29,51.77 520.53,50.27 515.39,50.72C517,49.42 518.68,47.21 520.93,47.31Z" style="fill:rgb(111,85,71);fill-rule:nonzero;"/>
                <path d="M528.29,54.94C531.32,59.35 532.72,63.8 533.41,69.08C534.4,68.42 535.4,67.79 536.4,67.14C537.45,66.41 538.49,65.66 539.56,64.95C539.42,67.16 539.38,69.58 538.75,71.71C538.05,73.85 536.56,75.87 535.4,77.81C534.32,76.86 533.23,75.92 532.14,74.98C532.01,79.45 531.71,83.85 530.4,88.16C530.36,84.19 530.55,80.24 530.86,76.29C529.73,75.36 528.6,74.42 527.47,73.49C525.62,71.94 523.86,70.31 521.97,68.79C525.3,70.27 528.72,71.47 532.16,72.67C532.11,69.34 531.92,66.03 531.59,62.72C530.34,62.45 529.09,62.18 527.84,61.91C526.72,60.31 526.04,58.48 524.99,56.85C521.65,54.93 517.48,54.24 513.82,53.07C514.15,52.45 514.49,51.82 514.84,51.2L515.39,50.72C520.53,50.27 524.29,51.77 528.29,54.94Z" style="fill:rgb(169,134,120);fill-rule:nonzero;"/>
                <path d="M514.84,51.2C514.49,51.82 514.15,52.45 513.82,53.07C517.48,54.24 521.65,54.93 524.99,56.85C526.04,58.48 526.72,60.31 527.84,61.91C525.75,62.48 523.71,63.2 521.64,63.84C519.41,63.94 516.33,64.2 514.62,62.48C513.49,60.64 512.92,58.39 512.13,56.38C511.27,56.3 510.4,56.23 509.54,56.18C509.01,57.92 508.54,59.68 508.01,61.42C507.07,62.64 506.01,64.09 504.63,64.82C499.8,65.99 495.15,64.67 491.09,61.98C490.39,62.27 489.69,62.55 488.99,62.83C489.86,58.98 490.94,56.25 494.75,54.54C494.68,55.41 494.61,56.27 494.54,57.14C498.07,56.37 501.35,55.32 504.45,53.41C508.3,53.84 511.48,53.11 514.84,51.2Z" style="fill:rgb(109,76,61);fill-rule:nonzero;"/>
                <path d="M502.72,52.56L504.45,53.41C501.35,55.32 498.07,56.37 494.54,57.14C494.61,56.27 494.68,55.41 494.75,54.54C495.51,54.22 496.28,53.9 497.05,53.6C498.9,53.07 500.8,52.72 502.72,52.56Z" style="fill:rgb(168,138,124);fill-rule:nonzero;"/>
                <path d="M509.54,56.18C510.4,56.23 511.27,56.3 512.13,56.38C512.92,58.39 513.49,60.64 514.62,62.48C516.33,64.2 519.41,63.94 521.64,63.84C521.01,65.16 520.37,66.49 519.74,67.81C518.46,67.66 517.18,67.57 515.9,67.49C514.25,64.1 511.42,62.63 508.01,61.42C508.54,59.68 509.01,57.92 509.54,56.18Z" style="fill:rgb(170,129,115);fill-rule:nonzero;"/>
                <path d="M491.09,61.98C495.15,64.67 499.8,65.99 504.63,64.82C506.01,64.09 507.07,62.64 508.01,61.42C511.42,62.63 514.25,64.1 515.9,67.49C516.24,68.23 516.57,68.96 516.89,69.7C513.07,69.38 509.29,69.36 505.47,69.84C505.82,68.76 506.16,67.69 506.5,66.61C505.03,67.72 503.54,68.79 502.07,69.9C500.28,70.23 497.84,70.27 496.38,71.47C494.84,72.73 493.49,74.25 492.14,75.7C491.37,74.53 490.59,73.38 489.86,72.18C489.3,69.39 488.97,66.58 488.84,63.74L488.99,62.83C489.69,62.55 490.39,62.27 491.09,61.98Z" style="fill:rgb(206,164,151);fill-rule:nonzero;"/>
                <path d="M527.84,61.91C529.09,62.18 530.34,62.45 531.59,62.72C531.92,66.03 532.11,69.34 532.16,72.67C528.72,71.47 525.3,70.27 521.97,68.79C521.23,68.45 520.49,68.12 519.74,67.81C520.37,66.49 521.01,65.16 521.64,63.84C523.71,63.2 525.75,62.48 527.84,61.91Z" style="fill:rgb(194,153,141);fill-rule:nonzero;"/>
                <path d="M488.84,63.74C488.97,66.58 489.3,69.39 489.86,72.18C490,72.98 490.15,73.78 490.29,74.58C489.36,74 488.43,73.43 487.5,72.85C487.09,73.4 486.68,73.94 486.27,74.48C485.42,73.74 484.57,73.01 483.74,72.25C482.9,70.06 483.52,67.26 483.61,64.95C484.94,66.7 486.37,68.4 487.78,70.08C488.14,67.97 488.5,65.85 488.84,63.74Z" style="fill:rgb(131,101,94);fill-rule:nonzero;"/>
                <path d="M506.5,66.61C506.16,67.69 505.82,68.76 505.47,69.84C509.29,69.36 513.07,69.38 516.89,69.7C516.57,68.96 516.24,68.23 515.9,67.49C517.18,67.57 518.46,67.66 519.74,67.81C520.49,68.12 521.23,68.45 521.97,68.79C523.86,70.31 525.62,71.94 527.47,73.49C525.97,77.86 524.63,82.27 523.59,86.77C523.01,85.08 522.37,83.41 521.67,81.76C521.09,81.05 520.5,80.35 519.89,79.66C517.24,80.2 514.77,80.97 512.04,80.97C508.45,81.06 505.56,79.96 502.26,81.83C504.43,82.62 506.44,83.13 508.77,82.9C507.34,83.2 505.93,83.58 504.53,84C502.68,85.7 500.7,87.76 500.92,90.48C502.01,91.86 503.41,92.91 504.75,94.1C504.09,94.09 503.42,94.08 502.75,94.06C502.5,96.95 501.76,100.4 502.65,103.21C505.89,106.79 509.81,106.93 514.22,106.01C514.67,108.52 514.78,110.81 514.39,113.34C513.51,112.09 512.67,110.82 511.81,109.55C510.85,110.57 509.89,111.58 508.92,112.6C509.88,113.79 510.84,114.97 511.8,116.15C511.11,116.97 510.45,117.84 509.84,118.74C507.86,115.68 505.85,112.65 503.78,109.65C501.97,106.89 500.74,104.12 500.18,100.87C499.23,95.7 497.22,90.96 495.08,86.19C496.42,85.47 497.76,84.74 499.09,84.02C497.32,82.51 493.36,81.04 494.07,78.17C494.32,74.53 499.59,72.14 502.07,69.9C503.54,68.79 505.03,67.72 506.5,66.61Z" style="fill:rgb(132,94,76);fill-rule:nonzero;"/>
                <path d="M502.07,69.9C499.59,72.14 494.32,74.53 494.07,78.17C493.36,81.04 497.32,82.51 499.09,84.02C497.76,84.74 496.42,85.47 495.08,86.19C497.22,90.96 499.23,95.7 500.18,100.87C500.74,104.12 501.97,106.89 503.78,109.65C497.43,108 495.27,100.57 493.9,94.96C493.58,91.03 493.46,86.71 492.06,82.99C490.45,81.03 487.85,79.72 486.35,77.64C485.23,76.02 484.43,74.08 483.74,72.25C484.57,73.01 485.42,73.74 486.27,74.48C486.68,73.94 487.09,73.4 487.5,72.85C488.43,73.43 489.36,74 490.29,74.58C490.15,73.78 490,72.98 489.86,72.18C490.59,73.38 491.37,74.53 492.14,75.7C493.49,74.25 494.84,72.73 496.38,71.47C497.84,70.27 500.28,70.23 502.07,69.9Z" style="fill:rgb(163,128,109);fill-rule:nonzero;"/>
                <path d="M517.79,71.66C513.69,73.88 510.62,74.68 505.98,73.92L504.3,72.39C508.72,70.08 513.11,70.51 517.79,71.66Z" style="fill:rgb(90,54,40);fill-rule:nonzero;"/>
                <path d="M504.3,72.39L505.98,73.92C507.34,75.18 508.54,76.55 509.81,77.89C507.54,78.31 505.26,78.67 502.98,79.03C503.35,76.8 503.72,74.58 504.3,72.39Z" style="fill:rgb(176,138,125);fill-rule:nonzero;"/>
                <path d="M527.47,73.49C528.6,74.42 529.73,75.36 530.86,76.29C530.55,80.24 530.36,84.19 530.4,88.16C531.71,83.85 532.01,79.45 532.14,74.98C533.23,75.92 534.32,76.86 535.4,77.81C534.11,80.32 533.9,82.97 533.64,85.72C532.37,88.91 530.28,91.98 529.5,95.32C529.41,97.86 530.54,100.48 530.95,102.98C531.44,105.33 531.16,107.53 530.93,109.87C531.38,110.44 531.83,111 532.27,111.57C530.82,112.64 529.49,113.83 528.08,114.96C526.23,116.23 524.37,115.94 522.26,116.04C520.75,117.95 519.47,120.12 518.2,122.19C516.87,120.55 515.54,118.91 514.21,117.27C513.97,118.34 513.73,119.41 513.5,120.48C512.65,120.45 511.79,120.42 510.94,120.39C510.57,119.84 510.2,119.3 509.84,118.74C510.45,117.84 511.11,116.97 511.8,116.15C510.84,114.97 509.88,113.79 508.92,112.6C509.89,111.58 510.85,110.57 511.81,109.55C512.67,110.82 513.51,112.09 514.39,113.34C515.63,115.16 517.18,116.67 518.8,118.14C520.02,113.25 519.11,108.71 518.78,103.84C518.61,98.98 521.48,95.98 524.3,92.46C518.02,94.28 512.07,94.64 505.58,94.08C509.83,93.25 513.82,92.75 517.5,90.27C513.91,89.4 510.22,89.14 506.64,88.32C505.72,87.04 505.15,85.44 504.53,84C505.93,83.58 507.34,83.2 508.77,82.9C513.07,82.45 517.39,82.43 521.67,81.76C522.37,83.41 523.01,85.08 523.59,86.77C524.63,82.27 525.97,77.86 527.47,73.49Z" style="fill:rgb(151,111,91);fill-rule:nonzero;"/>
                <path d="M519.89,79.66C520.5,80.35 521.09,81.05 521.67,81.76C517.39,82.43 513.07,82.45 508.77,82.9C506.44,83.13 504.43,82.62 502.26,81.83C505.56,79.96 508.45,81.06 512.04,80.97C514.77,80.97 517.24,80.2 519.89,79.66Z" style="fill:rgb(82,48,34);fill-rule:nonzero;"/>
                <path d="M504.53,84C505.15,85.44 505.72,87.04 506.64,88.32C510.22,89.14 513.91,89.4 517.5,90.27C513.82,92.75 509.83,93.25 505.58,94.08L504.75,94.1C503.41,92.91 502.01,91.86 500.92,90.48C500.7,87.76 502.68,85.7 504.53,84Z" style="fill:rgb(200,159,148);fill-rule:nonzero;"/>
                <path d="M533.64,85.72C533.69,88.49 533.8,91.26 534,94.03C534.16,95.37 534.34,96.9 535,98.1C535.99,98.87 537.42,99.13 538.62,99.47C537.62,102.8 536.56,105.88 536.99,109.43C535.4,110.11 533.82,110.78 532.27,111.57C531.83,111 531.38,110.44 530.93,109.87C531.16,107.53 531.44,105.33 530.95,102.98C530.54,100.48 529.41,97.86 529.5,95.32C530.28,91.98 532.37,88.91 533.64,85.72Z" style="fill:rgb(183,143,123);fill-rule:nonzero;"/>
                <path d="M524.3,92.46C521.48,95.98 518.61,98.98 518.78,103.84C519.11,108.71 520.02,113.25 518.8,118.14C517.18,116.67 515.63,115.16 514.39,113.34C514.78,110.81 514.67,108.52 514.22,106.01C509.81,106.93 505.89,106.79 502.65,103.21C501.76,100.4 502.5,96.95 502.75,94.06C503.42,94.08 504.09,94.09 504.75,94.1L505.58,94.08C512.07,94.64 518.02,94.28 524.3,92.46Z" style="fill:rgb(112,75,55);fill-rule:nonzero;"/>
                <path d="M534,94.03C535.78,94.68 537.54,95.41 539.32,96.07C539.09,97.21 538.86,98.34 538.62,99.47C537.42,99.13 535.99,98.87 535,98.1C534.34,96.9 534.16,95.37 534,94.03Z" style="fill:rgb(220,192,178);fill-rule:nonzero;"/>
                <path d="M493.9,94.96C495.27,100.57 497.43,108 503.78,109.65C505.85,112.65 507.86,115.68 509.84,118.74C510.2,119.3 510.57,119.84 510.94,120.39C512.11,122.09 513.32,123.75 514.55,125.4C515.83,124.79 517.18,123.83 518.6,123.66C520.88,123.97 523.1,125.1 525.22,125.97C521.5,127.62 517.85,129.38 514.21,131.19C516.63,132.14 518.55,133.22 520.49,134.94C518.21,135.35 515.92,135.68 513.62,136C514.06,136.62 514.49,137.24 514.92,137.86C517.23,138.15 519.81,138.25 521.99,139.07C523.47,139.78 524.06,141.03 523.89,142.64C520.23,143.16 516.44,143.11 512.74,143.26C514.19,144.51 515.65,146.15 517.41,146.95C520.32,146.68 523.1,145.32 526.02,145.03C528.74,145.42 531.35,147.62 533.57,149.15C529.54,156.16 518.89,155.62 513.67,150.35C505.04,142.42 503.63,131.06 498.72,120.96C500.68,120.54 502.64,120.12 504.6,119.71C504.04,119.35 503.49,118.99 502.93,118.62C502.98,117 503.14,115.27 502.89,113.67C500.99,111.47 496.95,109.47 494.42,111.86C493.94,110.74 493.44,109.63 492.93,108.54C493.81,107.41 494.68,106.28 495.55,105.14C494.15,101.9 493.76,99.47 493.91,95.93L493.9,94.96Z" style="fill:rgb(199,154,136);fill-rule:nonzero;"/>
                <path d="M493.91,95.93C493.76,99.47 494.15,101.9 495.55,105.14C494.68,106.28 493.81,107.41 492.93,108.54C491.45,105.44 489.7,102.51 487.37,99.98C489.66,98.79 491.78,97.38 493.91,95.93Z" style="fill:rgb(220,178,160);fill-rule:nonzero;"/>
                <path d="M539.32,96.07C543.12,97.55 547.05,98.36 550.96,99.43C550.75,101.56 550.58,103.71 550.56,105.86C550.37,108.97 551.51,111.59 552.48,114.46C553.49,117.34 553.12,120.05 553.22,123.04C552.13,118.87 550.68,115.25 548.56,111.51C546.1,107.15 547.21,102.47 543.83,98.48C539.01,107.12 543.19,116.3 538.88,125.37C538.27,123.88 537.64,122.4 537.12,120.87C537.27,117.05 537.29,113.25 536.99,109.43C536.56,105.88 537.62,102.8 538.62,99.47C538.86,98.34 539.09,97.21 539.32,96.07Z" style="fill:rgb(153,54,58);fill-rule:nonzero;"/>
                <path d="M543.83,98.48C547.21,102.47 546.1,107.15 548.56,111.51C550.68,115.25 552.13,118.87 553.22,123.04C553.41,123.9 553.62,124.77 553.82,125.63L554.23,127.31C553.05,128.19 551.87,129.06 550.7,129.95C549.22,125.09 547.31,120.47 544.6,116.15C542.52,120.66 540.87,125.16 540.59,130.17C540.28,135.3 540.77,140.11 539.26,145.14C539.36,142.99 539.32,140.88 539.32,138.73C538.48,138.8 537.64,138.85 536.8,138.9L536.72,137.74C536.79,133.08 536.79,128.42 536.91,123.76C536.99,122.8 537.06,121.84 537.12,120.87C537.64,122.4 538.27,123.88 538.88,125.37C543.19,116.3 539.01,107.12 543.83,98.48Z" style="fill:rgb(89,42,43);fill-rule:nonzero;"/>
                <path d="M550.96,99.43L552.47,99.91C553.44,102.81 553.34,105 552.63,107.93C559.97,108.53 567.07,110.28 574.36,111.24C578.6,111.92 582.81,112.03 586.5,114.43C590.03,116.75 593.59,118.7 597.38,120.56C602.16,122.96 604.6,127.28 609.56,129.33C615.37,131.68 621.35,132.95 626.89,136.08C629.9,138.47 632.79,140.93 636.11,142.88C642.95,146.88 650.69,152.24 654.31,159.51C653.14,159.53 651.98,159.53 650.81,159.52C652.74,166.15 657.54,174.36 653.96,181.07C651.49,186.08 650.27,190.82 645.86,194.48C643.39,188.59 642.99,182.53 642.41,176.27C642.1,172.91 642.89,169.59 642.75,166.26C641.27,163.88 638.7,162.22 637.05,159.93C635.05,157.29 634.51,153.74 632.6,151.11C629.75,148.96 625.79,148.29 622.93,146.07C620.61,144.15 619,141.3 616.58,139.54C613.34,137.45 609.95,136.74 607.25,133.76C603.08,129.26 599.95,124.56 594.28,121.64C590.93,119.8 586.16,121.67 582.79,120.1C580.15,118.65 577.85,116.43 575.55,114.49C575.15,115.14 574.76,115.79 574.36,116.44C568.39,113.62 561.98,111.99 555.86,109.51C554.36,109.08 552.84,108.71 551.34,108.28C551.06,107.48 550.8,106.68 550.56,105.86C550.58,103.71 550.75,101.56 550.96,99.43Z" style="fill:rgb(219,189,176);fill-rule:nonzero;"/>
                <path d="M487.37,99.98C489.7,102.51 491.45,105.44 492.93,108.54C493.44,109.63 493.94,110.74 494.42,111.86C495.54,114.5 496.81,117.09 498.1,119.67C497.33,120.86 496.59,122.06 495.83,123.26C493.13,117.82 491.11,111.99 488.11,106.73C486.76,103.95 482.7,104.65 480.17,104.51C481.05,106.23 481.99,107.92 482.88,109.64L482.33,111.35C481.75,110.91 481.17,110.48 480.58,110.05C479.2,109.01 477.84,107.94 476.53,106.81L476.22,105.51C479.86,103.5 483.62,101.79 487.37,99.98Z" style="fill:rgb(152,63,64);fill-rule:nonzero;"/>
                <path d="M552.47,99.91C556.21,101.25 559.97,103.14 563.77,104.29C569.13,105.94 574.44,105.08 579.79,107.24C588.26,110.78 595.19,116.02 602.22,121.8C608.2,126.79 615.35,128.15 621.74,132.31C623.54,133.46 625.21,134.76 626.89,136.08C621.35,132.95 615.37,131.68 609.56,129.33C604.6,127.28 602.16,122.96 597.38,120.56C593.59,118.7 590.03,116.75 586.5,114.43C582.81,112.03 578.6,111.92 574.36,111.24C567.07,110.28 559.97,108.53 552.63,107.93C553.34,105 553.44,102.81 552.47,99.91Z" style="fill:rgb(230,217,213);fill-rule:nonzero;"/>
                <path d="M480.17,104.51C482.7,104.65 486.76,103.95 488.11,106.73C491.11,111.99 493.13,117.82 495.83,123.26L496.14,123.96C494.62,123.56 493.08,123.22 491.53,122.92C491.29,123.97 491.09,125 490.79,126.03L490.1,127.23C489.45,124.84 488.72,122.47 487.91,120.14C486.65,116.42 484.84,113.02 482.88,109.64C481.99,107.92 481.05,106.23 480.17,104.51Z" style="fill:rgb(75,52,53);fill-rule:nonzero;"/>
                <path d="M476.22,105.51L476.53,106.81C476.39,108.27 476.24,109.72 476.09,111.17C473.75,112.6 471.56,114.04 469.02,115.13C463.6,117.4 456.77,116.89 451.45,119.35C447.15,121.36 444.26,125.86 440.14,128.02C437.84,129.22 435.17,129.95 432.74,130.86C437.74,125.28 443.79,121.04 450.08,117.06C455.12,113.91 460.47,112.94 465.91,110.87C469.6,109.49 472.79,107.41 476.22,105.51Z" style="fill:rgb(230,219,213);fill-rule:nonzero;"/>
                <path d="M550.56,105.86C550.8,106.68 551.06,107.48 551.34,108.28C552.84,108.71 554.36,109.08 555.86,109.51C557.33,111.6 558.77,113.72 560.17,115.86C562.93,116.14 565.78,116.31 568.48,116.96C571.47,117.68 573.5,119.56 576.22,120.74C578.39,121.45 580.62,121.32 582.79,122.12C586.12,123.34 589.07,125.18 592.55,126.13C594.82,126.82 597.52,127.11 599.56,128.35C601.85,130.05 603.45,132.88 605.05,135.22C601.23,135.33 597.44,135.6 593.64,136.09C601.67,144.56 612.95,141.98 622.41,147.57C625.39,149.39 628.62,151.42 630.82,154.17C632.16,156.56 632.15,159.8 632.79,162.45C633.58,167.01 636.3,170.58 637.02,175.11C637.55,178.42 637.87,181.68 639.16,184.81C641.28,190.19 642.3,196.09 642.04,201.87C642.03,203.8 640.21,205.27 639.1,206.71C638.16,201.85 637.57,196.95 636.81,192.07C636.02,186.56 633.09,181.86 632.46,176.3C632.9,171.1 632.33,165.99 631.25,160.9C630.74,158.89 630.44,156.52 628.89,155.03C626.86,152.99 624.4,151.35 621.93,149.89C619.98,148.95 618.45,147.63 616.39,149.16C616.44,151.34 616.85,153.54 617.22,155.69C608.78,148.24 597.06,144.43 586.69,140.6C587.86,137.6 589.28,135.12 591.24,132.56C588.2,130.24 585.07,128.45 581.37,127.38C576.49,125.93 571.6,124.11 566.57,123.3C563.8,122.86 561.44,124.04 558.92,124.99C560.95,129.79 563.37,133.35 566.98,137.08C566.34,138.48 565.65,139.86 564.98,141.24C565.76,142.79 566.64,144.39 567.19,146.03C566.81,149.32 565.08,150.76 562.1,151.65C561.53,149.05 560.93,146.46 560.28,143.88L559.86,142.47C560.86,140.75 562.05,138.95 562.6,137.02C560.48,132.83 557.66,128.43 553.82,125.63C553.62,124.77 553.41,123.9 553.22,123.04C553.12,120.05 553.49,117.34 552.48,114.46C551.51,111.59 550.37,108.97 550.56,105.86Z" style="fill:rgb(171,128,111);fill-rule:nonzero;"/>
                <path d="M476.53,106.81C477.84,107.94 479.2,109.01 480.58,110.05C473.78,115.62 464.78,118.75 456.75,122.12C454.78,123.11 453.1,124.92 451.36,126.29C448.75,128.46 445.13,129.59 442.1,131.21C437.21,133.94 432.73,136.69 430.68,142.2C434.33,142.16 437.96,142.3 441.58,142.9C438.73,146.49 435.19,148.38 430.99,149.98C425.34,152.14 421.47,155.4 415.77,156.19C410.92,156.87 406.53,158.79 402.23,161.04C398.94,162.83 398.64,165.87 397.53,169.08C396.64,172.15 395.23,174.95 393.84,177.81C391.53,182.53 391.03,187.31 389.25,192.31C387.99,195.75 387.34,199.17 387.03,202.82C388.94,204.13 390.86,205.44 392.78,206.75C393.03,206.14 393.28,205.52 393.54,204.91C393.8,205.66 394.06,206.42 394.33,207.18C400.23,208.25 403.93,209.84 408.69,213.46C408.58,214.68 408.49,215.91 408.38,217.13C408.09,216.01 407.76,214.9 407.41,213.79C401.74,214.37 398.02,210.08 392.7,211.85L390.63,212.36C393.67,215.42 398.78,214.97 402.72,216.97C399.75,217.9 396.94,218 393.87,217.81C390.41,217.59 387.13,218.29 383.77,218.96L382.06,219.17C380.83,216.15 378.98,212.87 378.55,209.62C378.19,205.84 379.99,201.91 379.89,198.2C379.27,194.66 377.03,191.72 377.23,187.79C377.41,182.1 380.03,177.92 381.75,172.75C382.22,171.59 381.92,170.65 381.53,169.53C382.69,167.86 384.05,166.32 385.34,164.75C384.8,167.43 384.46,170.14 384.07,172.84C385.03,172.9 385.99,172.96 386.95,173.02C390.24,168.48 392.82,163.75 397.76,160.81C401.94,158.39 405.66,155.75 409.03,152.29C408.57,150.59 408.1,148.89 407.58,147.21C415.3,140.52 425,137.48 432.74,130.86C435.17,129.95 437.84,129.22 440.14,128.02C444.26,125.86 447.15,121.36 451.45,119.35C456.77,116.89 463.6,117.4 469.02,115.13C471.56,114.04 473.75,112.6 476.09,111.17C476.24,109.72 476.39,108.27 476.53,106.81Z" style="fill:rgb(222,193,181);fill-rule:nonzero;"/>
                <path d="M536.99,109.43C537.29,113.25 537.27,117.05 537.12,120.87C537.06,121.84 536.99,122.8 536.91,123.76C536.61,124.72 536.3,125.68 535.99,126.63C532.06,124.57 528.38,122.24 524.94,119.42C526.69,118.58 528.41,117.69 530.16,116.86C529.47,116.23 528.77,115.59 528.08,114.96C529.49,113.83 530.82,112.64 532.27,111.57C533.82,110.78 535.4,110.11 536.99,109.43Z" style="fill:rgb(206,168,152);fill-rule:nonzero;"/>
                <path d="M555.86,109.51C561.98,111.99 568.39,113.62 574.36,116.44C574.76,115.79 575.15,115.14 575.55,114.49C577.85,116.43 580.15,118.65 582.79,120.1C586.16,121.67 590.93,119.8 594.28,121.64C599.95,124.56 603.08,129.26 607.25,133.76C609.95,136.74 613.34,137.45 616.58,139.54C619,141.3 620.61,144.15 622.93,146.07C625.79,148.29 629.75,148.96 632.6,151.11C634.51,153.74 635.05,157.29 637.05,159.93C638.7,162.22 641.27,163.88 642.75,166.26C642.89,169.59 642.1,172.91 642.41,176.27C642.99,182.53 643.39,188.59 645.86,194.48C650.27,190.82 651.49,186.08 653.96,181.07C657.54,174.36 652.74,166.15 650.81,159.52C651.98,159.53 653.14,159.53 654.31,159.51C656.42,166.28 657.5,173.43 657.99,180.48C657.43,180.67 656.87,180.86 656.31,181.06C654.4,185.36 653.32,190.08 653.44,194.8C653.48,199.17 654.36,203.65 654.1,207.98C654.06,209.71 652.69,211.39 651.88,212.89C650.22,215.48 649.74,218.63 648.15,221.21C646.24,223.67 643.65,225.66 641.33,227.72C634.77,226.67 629.37,228.83 623.31,230.84C624.55,226.43 627.99,225.58 631.59,223.63C631.62,222.39 631.66,221.15 631.7,219.91C627.15,221.26 622.67,222.69 617.94,223.34C619.06,221.82 620.28,220.4 621.64,219.1C624.95,218.35 628.05,217.07 631.12,215.67C630.98,216.4 630.84,217.14 630.71,217.88C632.94,219.58 634.38,221.87 636.26,223.88C637.97,224.92 640.78,225.63 642.69,224.76C646.67,221.42 646.21,216.82 645.51,212.21C647.2,210.37 648.9,208.54 650.62,206.72C650.18,203.98 649.81,201.23 649.3,198.5L648.88,198.62C647.37,199.1 645.87,199.66 644.38,200.21C643.26,203.6 641.98,206.8 639.57,209.49C639.41,208.56 639.26,207.63 639.1,206.71C640.21,205.27 642.03,203.8 642.04,201.87C642.3,196.09 641.28,190.19 639.16,184.81C637.87,181.68 637.55,178.42 637.02,175.11C636.3,170.58 633.58,167.01 632.79,162.45C632.15,159.8 632.16,156.56 630.82,154.17C628.62,151.42 625.39,149.39 622.41,147.57C612.95,141.98 601.67,144.56 593.64,136.09C597.44,135.6 601.23,135.33 605.05,135.22C603.45,132.88 601.85,130.05 599.56,128.35C597.52,127.11 594.82,126.82 592.55,126.13C589.07,125.18 586.12,123.34 582.79,122.12C580.62,121.32 578.39,121.45 576.22,120.74C573.5,119.56 571.47,117.68 568.48,116.96C565.78,116.31 562.93,116.14 560.17,115.86C558.77,113.72 557.33,111.6 555.86,109.51Z" style="fill:rgb(203,166,149);fill-rule:nonzero;"/>
                <path d="M480.58,110.05C481.17,110.48 481.75,110.91 482.33,111.35C482.91,116.92 484.07,122.36 484.24,127.99C484.43,134.29 484.51,140.65 483.96,146.93C483.62,148.24 483.24,149.53 482.86,150.83C479.73,149.27 473.84,147.36 473.92,143.11C476.7,137.71 479.83,133.11 478.89,126.59C476.33,123.06 471.91,124.45 468.41,125.39C462.61,127.36 456.04,128.63 451.14,132.15C447.29,134.87 443.11,136.88 438.76,138.67C444.01,140.28 449.15,142.16 454.35,143.93C448.25,147.21 441.69,149.1 435.79,152.79C430.19,156.3 424.61,159.71 418.44,162.15C418.98,160.45 419.52,158.75 420.07,157.05C416.95,158.65 413.81,160.21 410.58,161.56C409.7,161.1 408.8,160.62 407.86,160.29C406.69,160.37 405.62,161.76 404.83,162.54C403.95,164.3 403.21,166.09 402.46,167.91L402.22,168.52C402.42,166.04 402.43,163.53 402.23,161.04C406.53,158.79 410.92,156.87 415.77,156.19C421.47,155.4 425.34,152.14 430.99,149.98C435.19,148.38 438.73,146.49 441.58,142.9C437.96,142.3 434.33,142.16 430.68,142.2C432.73,136.69 437.21,133.94 442.1,131.21C445.13,129.59 448.75,128.46 451.36,126.29C453.1,124.92 454.78,123.11 456.75,122.12C464.78,118.75 473.78,115.62 480.58,110.05Z" style="fill:rgb(188,145,128);fill-rule:nonzero;"/>
                <path d="M482.88,109.64C484.84,113.02 486.65,116.42 487.91,120.14C487.35,130.28 487.84,140.59 486.25,150.62C485.38,150.4 484.52,150.18 483.65,149.97C483.76,148.96 483.86,147.95 483.96,146.93C484.51,140.65 484.43,134.29 484.24,127.99C484.07,122.36 482.91,116.92 482.33,111.35L482.88,109.64Z" style="fill:rgb(132,45,42);fill-rule:nonzero;"/>
                <path d="M502.89,113.67C503.14,115.27 502.98,117 502.93,118.62C503.49,118.99 504.04,119.35 504.6,119.71C502.64,120.12 500.68,120.54 498.72,120.96L498.1,119.67C496.81,117.09 495.54,114.5 494.42,111.86C496.95,109.47 500.99,111.47 502.89,113.67Z" style="fill:rgb(223,190,175);fill-rule:nonzero;"/>
                <path d="M522.26,116.04C524.37,115.94 526.23,116.23 528.08,114.96C528.77,115.59 529.47,116.23 530.16,116.86C528.41,117.69 526.69,118.58 524.94,119.42C528.38,122.24 532.06,124.57 535.99,126.63C536.3,125.68 536.61,124.72 536.91,123.76C536.79,128.42 536.79,133.08 536.72,137.74C536.18,141.67 535.19,145.52 533.57,149.15C531.35,147.62 528.74,145.42 526.02,145.03C523.1,145.32 520.32,146.68 517.41,146.95C515.65,146.15 514.19,144.51 512.74,143.26C516.44,143.11 520.23,143.16 523.89,142.64C524.06,141.03 523.47,139.78 521.99,139.07C519.81,138.25 517.23,138.15 514.92,137.86C514.49,137.24 514.06,136.62 513.62,136C515.92,135.68 518.21,135.35 520.49,134.94C518.55,133.22 516.63,132.14 514.21,131.19C517.85,129.38 521.5,127.62 525.22,125.97C523.1,125.1 520.88,123.97 518.6,123.66C517.18,123.83 515.83,124.79 514.55,125.4C513.32,123.75 512.11,122.09 510.94,120.39C511.79,120.42 512.65,120.45 513.5,120.48C513.73,119.41 513.97,118.34 514.21,117.27C515.54,118.91 516.87,120.55 518.2,122.19C519.47,120.12 520.75,117.95 522.26,116.04Z" style="fill:rgb(174,129,111);fill-rule:nonzero;"/>
                <path d="M544.6,116.15C547.31,120.47 549.22,125.09 550.7,129.95C552.22,134.94 554.63,139.49 556.66,144.26L557.16,145.67C555.98,145.42 554.79,145.14 553.59,144.95C551.56,147.05 549.58,149.77 547.09,151.31C545.74,152.21 543.7,151.95 542.12,151.97C540.61,154.47 538.94,155.21 536.28,156.18C535.79,155.57 535.3,154.97 534.81,154.37C536.38,151.42 538.31,148.36 539.26,145.14C540.77,140.11 540.28,135.3 540.59,130.17C540.87,125.16 542.52,120.66 544.6,116.15Z" style="fill:rgb(39,35,33);fill-rule:nonzero;"/>
                <path d="M487.91,120.14C488.72,122.47 489.45,124.84 490.1,127.23C487.34,134.41 489.53,140.88 487.92,148.55C486.82,152.53 485.37,156.38 484.42,160.41C483.38,164.39 482.69,168.83 480.26,172.23C477.05,176.72 472.74,179.43 468.02,182.08C467.61,181.36 467.21,180.64 466.81,179.92C471.28,176.19 476.97,172.87 479.24,167.29C481.01,162.95 482.01,158.27 483.05,153.71C483.28,152.46 483.48,151.21 483.65,149.97C484.52,150.18 485.38,150.4 486.25,150.62C487.84,140.59 487.35,130.28 487.91,120.14Z" style="fill:rgb(77,28,24);fill-rule:nonzero;"/>
                <path d="M498.1,119.67L498.72,120.96C503.63,131.06 505.04,142.42 513.67,150.35C518.89,155.62 529.54,156.16 533.57,149.15C535.19,145.52 536.18,141.67 536.72,137.74L536.8,138.9C537.64,138.85 538.48,138.8 539.32,138.73C539.32,140.88 539.36,142.99 539.26,145.14C538.31,148.36 536.38,151.42 534.81,154.37C531.84,155.69 528.82,157.12 525.54,157.36C523.11,157.54 520.63,157.35 518.2,157.28C514.65,155.44 511.39,153.27 508.91,150.08C502.98,142.64 499.45,132.77 496.14,123.96L495.83,123.26C496.59,122.06 497.33,120.86 498.1,119.67Z" style="fill:rgb(128,41,42);fill-rule:nonzero;"/>
                <path d="M491.53,122.92C493.08,123.22 494.62,123.56 496.14,123.96C499.45,132.77 502.98,142.64 508.91,150.08C511.39,153.27 514.65,155.44 518.2,157.28C516.28,157.57 514.36,158.07 512.42,158.23C510.35,158.4 508.1,157.31 506.19,156.59C506.46,157.61 506.73,158.63 507.01,159.66C504.98,158.51 502.87,157.1 500.61,156.52C498.45,156.39 496.18,157.06 494.08,157.49C494.46,156.75 494.84,156.01 495.23,155.28C494.4,154.67 493.57,154.06 492.74,153.46C492.59,151.95 492.45,150.45 492.3,148.94C491.73,150.2 491.15,151.45 490.58,152.71C489.7,151.32 488.81,149.94 487.92,148.55C489.53,140.88 487.34,134.41 490.1,127.23L490.79,126.03C491.09,125 491.29,123.97 491.53,122.92Z" style="fill:rgb(42,36,35);fill-rule:nonzero;"/>
                <path d="M566.57,123.3C571.6,124.11 576.49,125.93 581.37,127.38C585.07,128.45 588.2,130.24 591.24,132.56C589.28,135.12 587.86,137.6 586.69,140.6C597.06,144.43 608.78,148.24 617.22,155.69C616.85,153.54 616.44,151.34 616.39,149.16C618.45,147.63 619.98,148.95 621.93,149.89C624.4,151.35 626.86,152.99 628.89,155.03C630.44,156.52 630.74,158.89 631.25,160.9C628.18,156.29 624.22,153.4 619.19,151.19C619.39,153.5 619.61,155.81 619.8,158.13C614.41,157.54 610.25,155.11 605.88,152.12C602.12,149.63 598.09,147.78 593.83,146.33C588.04,144.35 582.85,141.35 577.65,138.16C581.16,136.32 584.71,134.55 588.26,132.77C580.54,130.04 572.56,128.03 564.5,126.6C564.65,130.04 566.24,132.7 567.51,135.79L566.98,137.08C563.37,133.35 560.95,129.79 558.92,124.99C561.44,124.04 563.8,122.86 566.57,123.3Z" style="fill:rgb(139,103,83);fill-rule:nonzero;"/>
                <path d="M478.89,126.59C479.83,133.11 476.7,137.71 473.92,143.11C473.84,147.36 479.73,149.27 482.86,150.83C483.24,149.53 483.62,148.24 483.96,146.93C483.86,147.95 483.76,148.96 483.65,149.97C483.48,151.21 483.28,152.46 483.05,153.71C480.72,153.19 478.61,152.97 476.88,151.13C472.9,147.41 472.6,140.29 470.65,135.25C472.66,133.16 474.15,131.11 475.48,128.53C469.77,130.18 463.93,130.94 458.13,132.14C453.05,133.31 449.49,135.32 445.84,139.02C450,140.83 454.42,141.22 458.72,142.45L459.04,143.76C456.27,146.13 453.1,148.07 450.08,150.09C445.91,152.84 441.2,153.38 436.72,155.72C432.24,157.8 428.55,160.85 424.52,163.63C421.3,165.83 417.85,166.59 414.17,167.67C413.99,166.2 413.8,164.74 413.61,163.27C410.95,164.43 408.29,165.59 405.64,166.78C405.37,165.37 405.11,163.95 404.83,162.54C405.62,161.76 406.69,160.37 407.86,160.29C408.8,160.62 409.7,161.1 410.58,161.56C413.81,160.21 416.95,158.65 420.07,157.05C419.52,158.75 418.98,160.45 418.44,162.15C424.61,159.71 430.19,156.3 435.79,152.79C441.69,149.1 448.25,147.21 454.35,143.93C449.15,142.16 444.01,140.28 438.76,138.67C443.11,136.88 447.29,134.87 451.14,132.15C456.04,128.63 462.61,127.36 468.41,125.39C471.91,124.45 476.33,123.06 478.89,126.59Z" style="fill:rgb(155,116,96);fill-rule:nonzero;"/>
                <path d="M553.82,125.63C557.66,128.43 560.48,132.83 562.6,137.02C562.05,138.95 560.86,140.75 559.86,142.47C557.91,137.4 555.46,132.65 554.23,127.31L553.82,125.63Z" style="fill:rgb(204,151,135);fill-rule:nonzero;"/>
                <path d="M564.5,126.6C572.56,128.03 580.54,130.04 588.26,132.77C584.71,134.55 581.16,136.32 577.65,138.16C582.85,141.35 588.04,144.35 593.83,146.33C598.09,147.78 602.12,149.63 605.88,152.12C610.25,155.11 614.41,157.54 619.8,158.13C619.61,155.81 619.39,153.5 619.19,151.19C624.22,153.4 628.18,156.29 631.25,160.9C632.33,165.99 632.9,171.1 632.46,176.3C631.45,172.62 630.35,169.21 627.49,166.52C623.16,162.13 616.89,161.64 611.34,159.61C601.33,155.85 591.69,151.26 582.91,145.09L584.55,144.74C580.9,142.5 577.47,140.07 574.16,137.35C576.12,136.27 578.06,135.17 579.98,134.02C576.03,133.1 571.99,134.23 569.34,137.35C567.34,140.19 567.8,144.76 567.68,148.11C569.62,148.08 571.67,147.92 573.57,148.29C575.15,149.15 576.53,150.52 577.87,151.71C574.14,159.03 572.53,167.06 569.03,174.49C568.48,173.78 567.94,173.07 567.41,172.35C569.24,168.22 569.61,164.66 567.66,160.49C566.85,158.11 565.03,157.51 562.95,156.52C562.7,154.89 562.44,153.26 562.1,151.65C565.08,150.76 566.81,149.32 567.19,146.03C566.64,144.39 565.76,142.79 564.98,141.24C565.65,139.86 566.34,138.48 566.98,137.08L567.51,135.79C566.24,132.7 564.65,130.04 564.5,126.6Z" style="fill:rgb(103,74,57);fill-rule:nonzero;"/>
                <path d="M475.48,128.53C474.15,131.11 472.66,133.16 470.65,135.25C472.6,140.29 472.9,147.41 476.88,151.13C478.61,152.97 480.72,153.19 483.05,153.71C482.01,158.27 481.01,162.95 479.24,167.29C476.97,172.87 471.28,176.19 466.81,179.92C465.77,178 464.81,176.04 463.93,174.04C460.44,166.47 460.68,158.57 455.35,151.73C458.07,152.62 460.49,153.48 461.58,156.38C463.16,160.75 464.04,165.24 466.31,169.37C470.16,167.17 469.63,163.85 470.44,159.99C472.97,160.43 475.5,160.89 478.03,161.35C476.87,156.55 474.9,152.12 472.38,147.89C470.68,144.75 468.56,142.5 465.27,141.02C462.45,143.24 459.78,145.64 456.93,147.83C455.03,149.11 453.1,150.31 451.42,151.88C447.45,155.82 442.8,158.23 438,160.99C431.4,164.6 424.48,167.96 417.34,170.35C413.45,171.67 409.61,173.02 405.91,174.83C406.11,173.87 406.28,172.91 406.46,171.95C405.11,170.61 403.81,169.24 402.46,167.91C403.21,166.09 403.95,164.3 404.83,162.54C405.11,163.95 405.37,165.37 405.64,166.78C408.29,165.59 410.95,164.43 413.61,163.27C413.8,164.74 413.99,166.2 414.17,167.67C417.85,166.59 421.3,165.83 424.52,163.63C428.55,160.85 432.24,157.8 436.72,155.72C441.2,153.38 445.91,152.84 450.08,150.09C453.1,148.07 456.27,146.13 459.04,143.76L458.72,142.45C454.42,141.22 450,140.83 445.84,139.02C449.49,135.32 453.05,133.31 458.13,132.14C463.93,130.94 469.77,130.18 475.48,128.53Z" style="fill:rgb(123,90,70);fill-rule:nonzero;"/>
                <path d="M554.23,127.31C555.46,132.65 557.91,137.4 559.86,142.47L560.28,143.88C559.07,144.01 557.86,144.13 556.66,144.26C554.63,139.49 552.22,134.94 550.7,129.95C551.87,129.06 553.05,128.19 554.23,127.31Z" style="fill:rgb(139,46,49);fill-rule:nonzero;"/>
                <path d="M579.98,134.02C578.06,135.17 576.12,136.27 574.16,137.35C577.47,140.07 580.9,142.5 584.55,144.74L582.91,145.09C582.16,145.25 581.41,145.41 580.66,145.57C579.75,147.63 578.81,149.67 577.87,151.71C576.53,150.52 575.15,149.15 573.57,148.29C571.67,147.92 569.62,148.08 567.68,148.11C567.8,144.76 567.34,140.19 569.34,137.35C571.99,134.23 576.03,133.1 579.98,134.02Z" style="fill:rgb(64,44,31);fill-rule:nonzero;"/>
                <path d="M465.27,141.02C468.56,142.5 470.68,144.75 472.38,147.89C472.37,149.87 472.25,151.83 472.17,153.8C469.88,152.62 467.41,151.01 464.79,150.84C461.6,150.61 458.38,150.83 455.18,150.84C455.76,149.83 456.32,148.82 456.93,147.83C459.78,145.64 462.45,143.24 465.27,141.02Z" style="fill:rgb(53,36,19);fill-rule:nonzero;"/>
                <path d="M553.59,144.95C554.79,145.14 555.98,145.42 557.16,145.67C559.74,153.59 560.09,162.13 563.09,169.84C564.09,172.63 565.92,174.72 568.15,176.6C566.32,180.98 564.95,185.36 564.11,190.04C562.53,198.68 559.84,206.38 559.19,214.96C558.73,221.35 557.39,227.9 558.84,234.14C560.43,241.27 562.84,248.04 563.57,255.37C564.07,260.9 565,266.41 565.37,271.96C562.83,274.08 560.62,276.27 557.33,277.16C557.42,278.75 557.56,280.34 557.7,281.93C560.12,280.91 562.56,279.9 565.03,278.97C565.24,279.96 565.44,280.94 565.64,281.92L565.67,282.74L565.54,284.24C558.47,286.29 551.74,289.41 544.82,291.94C538.78,294.89 532.45,296.72 526.04,298.65C526.74,299.8 527.43,300.95 528.13,302.1C524.1,302.92 520.09,302.8 516.02,302.37C515.76,300.23 515.62,297.97 514.99,295.9C514.13,293.86 513.12,291.91 512.05,289.97C511.58,289.08 511.11,288.2 510.62,287.32C511.42,286.24 512.28,285.14 512.94,283.96C511.55,282.34 509.61,281.12 508.38,279.39C507.99,277.42 508.49,275.1 507.77,273.24C506.78,271.37 505.13,269.77 503.63,268.3C503.3,264.37 501.69,261.73 499.24,258.71C505.72,262.65 510.41,268.21 517.33,270.98C516.43,269.03 516.03,267.18 514.1,265.95C510.19,263.42 506.11,261.36 502.61,258.21C503.43,257.72 504.26,257.23 505.09,256.74C507.82,258.39 510.53,260.23 513.46,261.49C516.89,262.94 521.37,261.79 524.87,263.31C526.76,264 528.63,265.12 530.61,265.49C532.1,265.37 533.56,264.18 534.89,263.53C533.71,260.14 532.98,256.15 530.02,253.81C527.95,251.88 525.46,251 522.8,250.22C522.37,252.1 521.92,253.98 521.49,255.86C518.22,254.07 515.12,252.13 512.11,249.94C507.49,246.61 502.58,244.13 497.6,241.41C492.49,238.57 486.83,237.23 481.87,234.07C485.59,234.5 489.28,235.14 492.98,235.76C487.65,233.21 482.03,231.65 476.44,229.81C478.93,229.44 481.43,229.1 483.93,228.8C481.87,227.98 479.82,227.16 477.77,226.3C479.78,226.2 481.78,226.01 483.79,225.95C481.32,223.93 480.04,221.8 478.77,218.94C477.95,218.95 477.13,218.98 476.3,218.98C476.78,213.35 475.47,207.78 474.55,202.2C473.15,195.1 471.8,188.37 468.02,182.08C472.74,179.43 477.05,176.72 480.26,172.23C482.69,168.83 483.38,164.39 484.42,160.41C485.37,156.38 486.82,152.53 487.92,148.55C488.81,149.94 489.7,151.32 490.58,152.71C491.15,151.45 491.73,150.2 492.3,148.94C492.45,150.45 492.59,151.95 492.74,153.46C493.57,154.06 494.4,154.67 495.23,155.28C494.84,156.01 494.46,156.75 494.08,157.49C496.18,157.06 498.45,156.39 500.61,156.52C502.87,157.1 504.98,158.51 507.01,159.66C506.73,158.63 506.46,157.61 506.19,156.59C508.1,157.31 510.35,158.4 512.42,158.23C514.36,158.07 516.28,157.57 518.2,157.28C520.63,157.35 523.11,157.54 525.54,157.36C528.82,157.12 531.84,155.69 534.81,154.37C535.3,154.97 535.79,155.57 536.28,156.18C538.94,155.21 540.61,154.47 542.12,151.97C543.7,151.95 545.74,152.21 547.09,151.31C549.58,149.77 551.56,147.05 553.59,144.95Z" style="fill:rgb(19,17,15);fill-rule:nonzero;"/>
                <path d="M556.66,144.26C557.86,144.13 559.07,144.01 560.28,143.88C560.93,146.46 561.53,149.05 562.1,151.65C562.44,153.26 562.7,154.89 562.95,156.52C563.57,162.3 563.66,167.55 567.41,172.35C567.94,173.07 568.48,173.78 569.03,174.49C568.73,175.19 568.44,175.9 568.15,176.6C565.92,174.72 564.09,172.63 563.09,169.84C560.09,162.13 559.74,153.59 557.16,145.67L556.66,144.26Z" style="fill:rgb(88,30,25);fill-rule:nonzero;"/>
                <path d="M407.58,147.21C408.1,148.89 408.57,150.59 409.03,152.29C405.66,155.75 401.94,158.39 397.76,160.81C392.82,163.75 390.24,168.48 386.95,173.02C385.99,172.96 385.03,172.9 384.07,172.84C384.46,170.14 384.8,167.43 385.34,164.75C391.44,156.55 400.11,153.9 407.58,147.21Z" style="fill:rgb(228,205,197);fill-rule:nonzero;"/>
                <path d="M456.93,147.83C456.32,148.82 455.76,149.83 455.18,150.84C458.38,150.83 461.6,150.61 464.79,150.84C467.41,151.01 469.88,152.62 472.17,153.8C472.25,151.83 472.37,149.87 472.38,147.89C474.9,152.12 476.87,156.55 478.03,161.35C475.5,160.89 472.97,160.43 470.44,159.99C469.63,163.85 470.16,167.17 466.31,169.37C464.04,165.24 463.16,160.75 461.58,156.38C460.49,153.48 458.07,152.62 455.35,151.73C454.04,151.74 452.73,151.82 451.42,151.88C453.1,150.31 455.03,149.11 456.93,147.83Z" style="fill:rgb(96,70,48);fill-rule:nonzero;"/>
                <path d="M562.95,156.52C565.03,157.51 566.85,158.11 567.66,160.49C569.61,164.66 569.24,168.22 567.41,172.35C563.66,167.55 563.57,162.3 562.95,156.52Z" style="fill:rgb(139,99,83);fill-rule:nonzero;"/>
                <path d="M402.23,161.04C402.43,163.53 402.42,166.04 402.22,168.52C401.16,172.26 400.12,175.83 398.16,179.22C396.66,181.93 394.61,184.56 393.5,187.43C392.37,190.72 392.51,194.61 392.21,198.08C390.33,199.53 388.66,201.09 387.03,202.82C387.34,199.17 387.99,195.75 389.25,192.31C391.03,187.31 391.53,182.53 393.84,177.81C395.23,174.95 396.64,172.15 397.53,169.08C398.64,165.87 398.94,162.83 402.23,161.04Z" style="fill:rgb(205,169,149);fill-rule:nonzero;"/>
                <path d="M402.22,168.52L402.46,167.91C403.81,169.24 405.11,170.61 406.46,171.95C406.28,172.91 406.11,173.87 405.91,174.83C402.16,180.2 402.18,186.49 399.15,192.15C397.03,196.3 395.27,200.59 393.54,204.91C393.28,205.52 393.03,206.14 392.78,206.75C390.86,205.44 388.94,204.13 387.03,202.82C388.66,201.09 390.33,199.53 392.21,198.08C392.51,194.61 392.37,190.72 393.5,187.43C394.61,184.56 396.66,181.93 398.16,179.22C400.12,175.83 401.16,172.26 402.22,168.52Z" style="fill:rgb(156,126,108);fill-rule:nonzero;"/>
                <path d="M517.92,168.11C518.34,172.64 518.53,177.11 518.54,181.65C517.13,181.95 515.72,182.25 514.31,182.55C514.28,186.04 514.34,189.53 514.49,193.02C518.6,190.28 522.37,187.13 525.96,183.74C525.33,178.53 524.99,173.33 524.9,168.09C528.59,168.26 532.26,168.52 535.91,169.08C537.71,169.62 539.49,170.21 541.28,170.76C536.85,170.9 532.44,171.23 528.01,171.27C528.1,174.05 528.16,176.84 528.21,179.62C530.11,179.88 532.02,180.14 533.93,180.41C526.94,186.47 520.04,192.87 512.43,198.14C511.92,192.35 511.77,186.55 511.67,180.74C513.03,180.27 514.39,179.8 515.75,179.34C515.55,176.56 515.32,173.78 515.07,171C508.63,170.41 502.31,170.31 495.86,170.88C496.19,173.08 496.22,175.61 497.11,177.66C498.27,178.79 499.69,179.7 501.01,180.63C501.61,186.1 501.44,191.55 501.35,197.04C501.26,202.82 502.12,208.44 502.96,214.14C501.7,214.25 500.44,214.36 499.17,214.47C499.53,216.86 499.9,219.24 500.26,221.62C506.53,222.62 512.8,223.26 519.17,223.1C518.86,221.12 518.7,218.98 518.07,217.09C517.21,215.09 512.42,213.81 513.36,211.31C515.52,207.48 519.44,204.33 523.18,202.13C527.69,204.6 530.83,209.74 534.49,213.33C533.32,214.23 531.82,215.04 531,216.28C530.71,218.47 530.92,220.77 531.02,222.96C536.04,222.6 541.27,222.38 546.17,221.19C548.8,221.06 549.21,217.29 548.98,215.28C547.7,212.82 544.97,211 543.15,208.89C539.16,204.45 535.09,200.07 531.37,195.41C536.08,191.45 540.48,187.17 544.88,182.88C547.53,180.12 550.5,178.56 550.05,174.19C550.07,173.35 550.09,172.51 550.1,171.67C550.77,171.73 551.44,171.79 552.11,171.85C552.41,174.87 552.57,177.88 552.6,180.92C545.81,184 540.29,190.41 535.41,195.91C540.17,201.92 544.28,208.11 550.54,212.73C551.36,215.81 550.61,219.45 550.48,222.62C543.39,224.33 536.33,225.33 529.02,225.01C528.25,220.81 528.22,216.69 528.37,212.44C528.84,208.93 525.36,207.04 523.23,204.88C520.69,206.98 518.29,209.19 516.05,211.6C517.48,212.09 518.92,212.57 520.36,213.03C521.13,217.21 521.44,221 521.33,225.26C513.58,225.73 505.99,224.78 498.35,223.57C497.56,220.03 496.94,216.5 496.51,212.9C497.74,212.23 498.94,211.51 500.07,210.69C499.89,207.05 498.84,203.49 498.56,199.84C498.13,195.2 498.71,190.57 498.45,185.95C498.56,182.82 494.65,181.04 494.27,177.99C493.79,174.95 493.72,171.83 493.5,168.76C501.65,168.04 509.75,168.11 517.92,168.11Z" style="fill:rgb(167,146,149);fill-rule:nonzero;"/>
                <path d="M551.7,168.29C551.81,169.48 551.95,170.66 552.11,171.85C551.44,171.79 550.77,171.73 550.1,171.67C550.09,172.51 550.07,173.35 550.05,174.19C549.64,173.19 549.24,172.19 548.84,171.19C546.31,171.08 543.8,170.92 541.28,170.76C539.49,170.21 537.71,169.62 535.91,169.08C541.13,169.21 546.48,168.67 551.7,168.29Z" style="fill:rgb(120,97,97);fill-rule:nonzero;"/>
                <path d="M381.53,169.53C381.92,170.65 382.22,171.59 381.75,172.75C380.03,177.92 377.41,182.1 377.23,187.79C377.03,191.72 379.27,194.66 379.89,198.2C379.99,201.91 378.19,205.84 378.55,209.62C378.98,212.87 380.83,216.15 382.06,219.17C382.61,221.11 382.85,223.09 382.99,225.1C381.51,224.34 379.97,223.65 378.53,222.82C377.32,220.71 375.85,218.25 375.65,215.8C375.44,212.89 375.75,209.92 375.73,206.99C375.77,202.27 375,197.68 375.11,192.97C375.2,188.64 376.11,184.38 377.18,180.2C378.19,176.39 379.21,172.8 381.53,169.53Z" style="fill:rgb(191,163,152);fill-rule:nonzero;"/>
                <path d="M495.86,170.88C502.31,170.31 508.63,170.41 515.07,171C515.32,173.78 515.55,176.56 515.75,179.34C514.39,179.8 513.03,180.27 511.67,180.74C511.77,186.55 511.92,192.35 512.43,198.14C520.04,192.87 526.94,186.47 533.93,180.41C532.02,180.14 530.11,179.88 528.21,179.62C528.16,176.84 528.1,174.05 528.01,171.27C532.44,171.23 536.85,170.9 541.28,170.76C543.8,170.92 546.31,171.08 548.84,171.19C549.24,172.19 549.64,173.19 550.05,174.19C550.5,178.56 547.53,180.12 544.88,182.88C540.48,187.17 536.08,191.45 531.37,195.41C535.09,200.07 539.16,204.45 543.15,208.89C544.97,211 547.7,212.82 548.98,215.28C549.21,217.29 548.8,221.06 546.17,221.19C541.27,222.38 536.04,222.6 531.02,222.96C530.92,220.77 530.71,218.47 531,216.28C531.82,215.04 533.32,214.23 534.49,213.33C530.83,209.74 527.69,204.6 523.18,202.13C519.44,204.33 515.52,207.48 513.36,211.31C512.42,213.81 517.21,215.09 518.07,217.09C518.7,218.98 518.86,221.12 519.17,223.1C512.8,223.26 506.53,222.62 500.26,221.62C499.9,219.24 499.53,216.86 499.17,214.47C500.44,214.36 501.7,214.25 502.96,214.14C502.12,208.44 501.26,202.82 501.35,197.04C501.44,191.55 501.61,186.1 501.01,180.63C499.69,179.7 498.27,178.79 497.11,177.66C496.22,175.61 496.19,173.08 495.86,170.88Z" style="fill:rgb(103,22,24);fill-rule:nonzero;"/>
                <path d="M656.31,181.06C656.87,180.86 657.43,180.67 657.99,180.48C658.4,189.96 656.46,198.63 655.9,208.01C655.57,212.03 655.58,216.22 653.86,219.95C652.18,223.6 650.02,227 648.4,230.68C646.3,231.66 644.3,232.8 642.32,234.01C642.24,231.8 642.28,229.78 641.33,227.72C643.65,225.66 646.24,223.67 648.15,221.21C649.74,218.63 650.22,215.48 651.88,212.89C652.69,211.39 654.06,209.71 654.1,207.98C654.36,203.65 653.48,199.17 653.44,194.8C653.32,190.08 654.4,185.36 656.31,181.06Z" style="fill:rgb(168,138,121);fill-rule:nonzero;"/>
                <path d="M648.88,198.62L649.3,198.5C649.81,201.23 650.18,203.98 650.62,206.72C648.9,208.54 647.2,210.37 645.51,212.21C646.21,216.82 646.67,221.42 642.69,224.76C640.78,225.63 637.97,224.92 636.26,223.88C634.38,221.87 632.94,219.58 630.71,217.88C630.84,217.14 630.98,216.4 631.12,215.67C628.05,217.07 624.95,218.35 621.64,219.1C626.84,213.69 633.93,214.09 639.57,209.49C641.98,206.8 643.26,203.6 644.38,200.21C645.87,199.66 647.37,199.1 648.88,198.62Z" style="fill:rgb(228,204,192);fill-rule:nonzero;"/>
                <path d="M407.41,213.79C404.59,215.33 403.12,217.7 401.62,220.42C396.65,219.4 391.73,219.04 386.66,219.05L385.77,219.02L383.77,218.96C387.13,218.29 390.41,217.59 393.87,217.81C396.94,218 399.75,217.9 402.72,216.97C398.78,214.97 393.67,215.42 390.63,212.36L392.7,211.85C398.02,210.08 401.74,214.37 407.41,213.79Z" style="fill:rgb(166,112,97);fill-rule:nonzero;"/>
                <path d="M407.41,213.79C407.76,214.9 408.09,216.01 408.38,217.13C408.13,221.32 405.52,223.75 404.31,227.54C403.59,229.74 403.08,232.02 402.54,234.27C402.15,231.73 401.77,229.19 401.38,226.65C396.56,226.27 391.55,225.48 386.72,225.9C384.58,226 383.28,227.27 381.72,228.55C380.6,226.67 379.61,224.71 378.53,222.82C379.97,223.65 381.51,224.34 382.99,225.1C382.85,223.09 382.61,221.11 382.06,219.17L383.77,218.96L385.77,219.02C385.09,219.84 384.43,220.68 383.77,221.52C388.69,224.82 395.76,224.52 401.12,222.51C396.25,221.49 391.39,220.7 386.66,219.05C391.73,219.04 396.65,219.4 401.62,220.42C403.12,217.7 404.59,215.33 407.41,213.79Z" style="fill:rgb(138,96,82);fill-rule:nonzero;"/>
                <path d="M478.77,218.94C480.04,221.8 481.32,223.93 483.79,225.95C481.78,226.01 479.78,226.2 477.77,226.3C479.82,227.16 481.87,227.98 483.93,228.8C481.43,229.1 478.93,229.44 476.44,229.81C482.03,231.65 487.65,233.21 492.98,235.76C489.28,235.14 485.59,234.5 481.87,234.07C486.83,237.23 492.49,238.57 497.6,241.41C502.58,244.13 507.49,246.61 512.11,249.94C515.12,252.13 518.22,254.07 521.49,255.86C521.92,253.98 522.37,252.1 522.8,250.22C525.46,251 527.95,251.88 530.02,253.81C532.98,256.15 533.71,260.14 534.89,263.53C533.56,264.18 532.1,265.37 530.61,265.49C528.63,265.12 526.76,264 524.87,263.31C521.37,261.79 516.89,262.94 513.46,261.49C510.53,260.23 507.82,258.39 505.09,256.74C504.26,257.23 503.43,257.72 502.61,258.21C506.11,261.36 510.19,263.42 514.1,265.95C516.03,267.18 516.43,269.03 517.33,270.98C510.41,268.21 505.72,262.65 499.24,258.71C501.69,261.73 503.3,264.37 503.63,268.3C500.32,265.5 496.82,261.52 492.61,260.33C482.62,257.45 471.26,259.03 463.29,266.03C464.29,267.35 465.58,268.74 466.13,270.31C466.56,272.24 466.09,274.45 465.81,276.39C464.6,277.48 463.68,278.63 462.86,280.06C463.24,272.55 461.43,265.53 462.94,258.22C464.1,252.01 464.02,246.29 466.51,240.53C468.28,236.11 471.22,232.44 473.06,228.08C474.32,225.13 475.42,222.07 476.3,218.98C477.13,218.98 477.95,218.95 478.77,218.94Z" style="fill:rgb(28,28,29);fill-rule:nonzero;"/>
                <path d="M385.77,219.02L386.66,219.05C391.39,220.7 396.25,221.49 401.12,222.51C395.76,224.52 388.69,224.82 383.77,221.52C384.43,220.68 385.09,219.84 385.77,219.02Z" style="fill:rgb(91,55,43);fill-rule:nonzero;"/>
                <path d="M631.7,219.91C631.66,221.15 631.62,222.39 631.59,223.63C627.99,225.58 624.55,226.43 623.31,230.84C629.37,228.83 634.77,226.67 641.33,227.72C642.28,229.78 642.24,231.8 642.32,234.01C644.3,232.8 646.3,231.66 648.4,230.68C646.95,233.83 645.47,238.48 642.35,240.37C638.33,241.25 633.48,239.54 629.6,238.41C622.81,236.59 619.79,229.45 617.94,223.34C622.67,222.69 627.15,221.26 631.7,219.91Z" style="fill:rgb(99,70,55);fill-rule:nonzero;"/>
                <path d="M401.38,226.65C401.77,229.19 402.15,231.73 402.54,234.27C398.22,235.35 392.75,236.92 388.37,235.65C385.54,234.29 383.45,231.06 381.72,228.55C383.28,227.27 384.58,226 386.72,225.9C391.55,225.48 396.56,226.27 401.38,226.65Z" style="fill:rgb(94,62,51);fill-rule:nonzero;"/>
                <path d="M492.61,260.33C496.82,261.52 500.32,265.5 503.63,268.3C505.13,269.77 506.78,271.37 507.77,273.24C508.49,275.1 507.99,277.42 508.38,279.39C509.61,281.12 511.55,282.34 512.94,283.96C512.28,285.14 511.42,286.24 510.62,287.32C507.03,282.69 502.01,279.09 496.26,277.74C488.26,275.95 479.56,277.22 472.6,281.61C468.99,283.93 466.39,288.21 463.81,291.59C463.25,287.77 462.92,283.92 462.86,280.06C463.68,278.63 464.6,277.48 465.81,276.39C466.09,274.45 466.56,272.24 466.13,270.31C465.58,268.74 464.29,267.35 463.29,266.03C471.26,259.03 482.62,257.45 492.61,260.33Z" style="fill:rgb(39,38,42);fill-rule:nonzero;"/>
                <path d="M484.06,268.23C484.53,269.49 484.94,270.76 485.36,272.03C481.74,272.61 478.15,273.41 474.55,274.09C474.78,272.79 475.01,271.49 475.23,270.18C478.13,269.28 481.02,268.48 484.06,268.23Z" style="fill:rgb(186,185,190);fill-rule:nonzero;"/>
                <path d="M481.27,270.27C481.9,270.9 481.9,270.9 481.27,270.27Z" style="fill:rgb(0,0,5);fill-rule:nonzero;"/>
                <path d="M485.36,272.03C486.4,272.74 487.41,273.5 488.42,274.25C482.85,275.84 477.19,277.08 471.6,278.62C472.57,277.1 473.57,275.6 474.55,274.09C478.15,273.41 481.74,272.61 485.36,272.03Z" style="fill:rgb(117,114,118);fill-rule:nonzero;"/>
                <path d="M565.37,271.96C565.53,275.3 565.55,278.57 565.64,281.92C565.44,280.94 565.24,279.96 565.03,278.97C562.56,279.9 560.12,280.91 557.7,281.93C557.56,280.34 557.42,278.75 557.33,277.16C560.62,276.27 562.83,274.08 565.37,271.96Z" style="fill:rgb(117,100,100);fill-rule:nonzero;"/>
                <path d="M496.26,277.74C502.01,279.09 507.03,282.69 510.62,287.32C511.11,288.2 511.58,289.08 512.05,289.97C506.49,285.28 500.15,281.53 492.83,280.52C486.99,279.89 480.88,281.23 475.54,283.58C470.62,285.84 467.53,290.27 464.18,294.32C464.06,293.41 463.94,292.5 463.81,291.59C466.39,288.21 468.99,283.93 472.6,281.61C479.56,277.22 488.26,275.95 496.26,277.74Z" style="fill:rgb(151,69,81);fill-rule:nonzero;"/>
                <path d="M554,277.26C554.8,278.83 555.52,280.43 556.25,282.04C554,282.81 551.75,283.6 549.48,284.33C550.53,281.55 551.71,279.24 554,277.26Z" style="fill:rgb(127,107,107);fill-rule:nonzero;"/>
                <path d="M492.83,280.52C500.15,281.53 506.49,285.28 512.05,289.97C513.12,291.91 514.13,293.86 514.99,295.9C511.23,291.91 506.62,288.67 501.7,286.28C493.17,282.13 482.23,283.5 474.19,288.19C469.88,290.67 467.47,294.4 464.68,298.35C464.52,297.01 464.36,295.66 464.18,294.32C467.53,290.27 470.62,285.84 475.54,283.58C480.88,281.23 486.99,279.89 492.83,280.52Z" style="fill:rgb(252,207,218);fill-rule:nonzero;"/>
                <path d="M547.7,279.81C548.11,281.63 548.45,283.46 548.79,285.29C547.75,285.03 546.7,284.77 545.66,284.51C546.11,282.77 546.63,281.27 547.7,279.81Z" style="fill:rgb(110,97,97);fill-rule:nonzero;"/>
                <path d="M542.61,281.92C543.45,282.37 544.27,282.84 545.08,283.34C544.19,284.72 543.32,286.1 542.3,287.39C542.37,285.58 542.37,283.71 542.61,281.92Z" style="fill:rgb(102,89,89);fill-rule:nonzero;"/>
                <path d="M541.07,283.27C541.06,284.53 541.05,285.8 541.06,287.07C538.8,287.86 536.54,288.64 534.27,289.37C534.51,288.28 534.74,287.19 534.98,286.09C537.71,285.91 539.02,285.04 541.07,283.27Z" style="fill:rgb(91,82,80);fill-rule:nonzero;"/>
                <path d="M565.67,282.74C565.81,285.78 566.02,288.82 566.24,291.85C561.45,294.81 556.49,296.84 551.08,298.38C549.59,297.68 548.09,296.98 546.57,296.34C551.67,294.07 557.15,292.61 562.15,290.15C564.76,288.94 564.99,286.76 565.54,284.24L565.67,282.74Z" style="fill:rgb(191,152,156);fill-rule:nonzero;"/>
                <path d="M501.7,286.28C506.62,288.67 511.23,291.91 514.99,295.9C515.62,297.97 515.76,300.23 516.02,302.37C514.59,300.2 512.99,297.99 511.07,296.23C508.34,293.85 505.41,291.5 502.17,289.86C495.7,286.52 488.24,286.35 481.34,288.34C475.68,290.08 470.66,293.36 467.81,298.67C467.41,299.43 467.03,300.2 466.66,300.98C466.22,301.94 465.8,302.91 465.37,303.88C465.11,302.04 464.9,300.19 464.68,298.35C467.47,294.4 469.88,290.67 474.19,288.19C482.23,283.5 493.17,282.13 501.7,286.28Z" style="fill:rgb(154,72,79);fill-rule:nonzero;"/>
                <path d="M565.54,284.24C564.99,286.76 564.76,288.94 562.15,290.15C557.15,292.61 551.67,294.07 546.57,296.34C541.02,298.2 535.49,300.3 529.82,301.73L528.13,302.1C527.43,300.95 526.74,299.8 526.04,298.65C532.45,296.72 538.78,294.89 544.82,291.94C551.74,289.41 558.47,286.29 565.54,284.24Z" style="fill:rgb(87,26,31);fill-rule:nonzero;"/>
                <path d="M502.17,289.86C499.58,292.08 497.05,294.33 494.13,296.12C492.3,297.18 491.25,298.82 490.08,300.51C491.34,301 492.6,301.49 493.87,301.97C492.89,304.55 491.87,307.11 490.79,309.65C491.35,310.54 491.89,311.43 492.42,312.33C487.86,311.78 483.35,310.96 478.85,310.08C477.96,308.7 477.14,307.14 475.96,305.98C474.28,304.97 472.16,304.55 470.56,303.42C469.34,302.11 468.65,300.24 467.81,298.67C470.66,293.36 475.68,290.08 481.34,288.34C488.24,286.35 495.7,286.52 502.17,289.86Z" style="fill:rgb(202,172,157);fill-rule:nonzero;"/>
                <path d="M502.17,289.86C505.41,291.5 508.34,293.85 511.07,296.23C509.38,297.46 507.3,298.81 507.07,301.09C506.38,305.58 510.32,310.09 509.53,314.38C507.92,317.77 504.13,320.19 501.68,323.04C498.02,321.61 495.16,322.86 491.67,324.1C490.24,326.32 488.77,330.4 485.7,330.5C482.28,330.24 478.85,327.82 476.1,325.84C476.1,322.25 474.38,319.6 472.69,316.57C470.13,311.31 466.85,307.11 466.66,300.98C467.03,300.2 467.41,299.43 467.81,298.67C468.65,300.24 469.34,302.11 470.56,303.42C472.16,304.55 474.28,304.97 475.96,305.98C477.14,307.14 477.96,308.7 478.85,310.08C483.35,310.96 487.86,311.78 492.42,312.33C491.89,311.43 491.35,310.54 490.79,309.65C491.87,307.11 492.89,304.55 493.87,301.97C492.6,301.49 491.34,301 490.08,300.51C491.25,298.82 492.3,297.18 494.13,296.12C497.05,294.33 499.58,292.08 502.17,289.86Z" style="fill:rgb(186,149,131);fill-rule:nonzero;"/>
                <path d="M566.24,291.85C566.11,293.45 565.97,295.04 565.84,296.63C562.86,298.14 559.91,299.65 556.8,300.9C551.78,302.81 546.59,304.57 541.45,306.15L540.03,306.39C539.65,305.13 539.27,303.88 538.89,302.63C542.98,301.28 546.96,299.64 551.08,298.38C556.49,296.84 561.45,294.81 566.24,291.85Z" style="fill:rgb(94,23,25);fill-rule:nonzero;"/>
                <path d="M566.24,291.85C566.99,303.92 567.41,316.16 566.21,328.2C566.18,326.81 566.13,325.42 566.06,324.04C565.47,324.88 564.88,325.74 564.3,326.6C564.15,323.18 563.98,319.88 562.65,316.68C561.42,313.67 561.1,310.54 560.49,307.38C560.09,304.99 558.17,302.84 556.8,300.9C559.91,299.65 562.86,298.14 565.84,296.63C565.97,295.04 566.11,293.45 566.24,291.85Z" style="fill:rgb(138,111,97);fill-rule:nonzero;"/>
                <path d="M511.07,296.23C512.99,297.99 514.59,300.2 516.02,302.37C516.32,303.36 516.59,304.36 516.83,305.36C516.92,306.34 516.97,307.33 517,308.33C516.97,309.09 516.95,309.85 516.93,310.61C514.85,312.19 512.87,313.43 512.11,316.1C510.31,321.77 512.1,326.85 513.6,332.3C513.67,333.12 513.74,333.94 513.81,334.76C513.49,337.5 513.23,340.64 511.89,343.09C509.32,344.21 506.33,344.33 503.74,345.33C502.89,345.57 502.45,346.94 502.77,347.72C503.36,349.74 504.4,351.65 505.33,353.54C503.67,355.87 502.05,358.22 500.45,360.59C496.62,357.97 492.78,355.5 487.92,355.91C485.53,357.23 483.81,360.41 483.2,363C484.39,367.02 487.39,369.65 487.73,374.09C488.12,378.84 489.63,383.31 491.56,387.64C493.03,390.9 495.82,393.75 498,396.62C497.16,397.25 496.33,397.88 495.49,398.51C496.98,399.48 498.46,400.46 499.93,401.46C499.46,402.1 499,402.73 498.54,403.37C498.19,406.63 496.24,408.26 493.96,410.39C494.65,411.56 495.35,412.71 496.05,413.86C496.02,415.55 495.93,417.24 495.86,418.93C494.41,416.55 492.98,414.17 491.5,411.82C489.21,411.96 487,411.95 484.71,411.77C483.99,412.92 483.28,414.08 482.57,415.23C481.44,413.48 480.03,412.26 480,410.06C479.91,407.59 479.71,405.8 478.32,403.69C478.03,405.54 477.75,407.38 477.6,409.25C477.28,406.5 476.99,403.77 476.97,401C476.82,391.06 480.58,382.05 480.25,372C479.94,364.28 480.02,356.38 478.66,348.77C480.71,348.17 482.69,348.11 484.8,348.3C488.24,344.94 490.65,341.01 492.69,336.69C489.67,337.21 486.33,338.1 483.26,337.72C479.84,336.81 476.78,334.25 473.66,332.59L473.8,334.15C470.13,324.26 467.03,314.32 465.37,303.88C465.8,302.91 466.22,301.94 466.66,300.98C466.85,307.11 470.13,311.31 472.69,316.57C474.38,319.6 476.1,322.25 476.1,325.84C478.85,327.82 482.28,330.24 485.7,330.5C488.77,330.4 490.24,326.32 491.67,324.1C495.16,322.86 498.02,321.61 501.68,323.04C504.13,320.19 507.92,317.77 509.53,314.38C510.32,310.09 506.38,305.58 507.07,301.09C507.3,298.81 509.38,297.46 511.07,296.23Z" style="fill:rgb(170,134,116);fill-rule:nonzero;"/>
                <path d="M546.57,296.34C548.09,296.98 549.59,297.68 551.08,298.38C546.96,299.64 542.98,301.28 538.89,302.63C536.68,303.29 534.43,303.79 532.17,304.22C530.88,304.23 529.59,304.23 528.3,304.22C528.81,303.39 529.31,302.56 529.82,301.73C535.49,300.3 541.02,298.2 546.57,296.34Z" style="fill:rgb(151,116,117);fill-rule:nonzero;"/>
                <path d="M556.8,300.9C558.17,302.84 560.09,304.99 560.49,307.38C561.1,310.54 561.42,313.67 562.65,316.68C563.98,319.88 564.15,323.18 564.3,326.6C564.88,325.74 565.47,324.88 566.06,324.04C566.13,325.42 566.18,326.81 566.21,328.2C565.43,335.84 565.15,343.88 563.15,351.27C562.08,347.63 561.53,344.4 561.45,340.6C561.32,335.78 558.77,332.05 557.22,327.45C557.1,325.21 557.12,322.67 556.32,320.56C555.63,318.86 553.53,317.73 552.12,316.68C551.51,313.75 550.91,310.82 550.31,307.89C546.87,308.23 544.57,307.59 541.45,306.15C546.59,304.57 551.78,302.81 556.8,300.9Z" style="fill:rgb(118,88,71);fill-rule:nonzero;"/>
                <path d="M516.02,302.37C520.09,302.8 524.1,302.92 528.13,302.1L529.82,301.73C529.31,302.56 528.81,303.39 528.3,304.22C529.59,304.23 530.88,304.23 532.17,304.22C526.94,305.48 522.2,305.93 516.83,305.36C516.59,304.36 516.32,303.36 516.02,302.37Z" style="fill:rgb(112,83,82);fill-rule:nonzero;"/>
                <path d="M538.89,302.63C539.27,303.88 539.65,305.13 540.03,306.39C537.56,306.85 535.16,307.51 532.73,308.13C527.45,309.42 522.25,310.1 517,308.33C516.97,307.33 516.92,306.34 516.83,305.36C522.2,305.93 526.94,305.48 532.17,304.22C534.43,303.79 536.68,303.29 538.89,302.63Z" style="fill:rgb(62,15,14);fill-rule:nonzero;"/>
                <path d="M540.03,306.39L541.45,306.15C544.57,307.59 546.87,308.23 550.31,307.89C550.91,310.82 551.51,313.75 552.12,316.68C553.53,317.73 555.63,318.86 556.32,320.56C557.12,322.67 557.1,325.21 557.22,327.45C558.77,332.05 561.32,335.78 561.45,340.6C561.53,344.4 562.08,347.63 563.15,351.27C562.53,354.05 561.7,356.78 561.09,359.56C557.34,361.73 556.31,365.03 554.97,368.88C557.05,369.26 559.09,369.76 561.17,370.13C561.2,372.32 561.26,374.51 561.28,376.69C560.35,380.29 559.07,383.37 559.65,387.15C560.32,391.77 561.19,396.25 560.8,400.95C560.38,406.6 561.08,411.94 562.39,417.42C562.13,422.75 561.12,427.99 560.69,433.3C559.64,433.85 558.57,434.4 557.51,434.93C557.41,430.51 558.21,426.24 558.69,421.87C559.28,416.19 557.25,411.76 556.61,406.09C556.02,400.71 555.18,394.71 556.38,389.37C557.15,385.35 559.43,379.97 557.99,375.99C556.47,373.8 553.56,372.45 551.36,371.02C551.87,368.49 552.35,365.95 552.75,363.4C551.7,362.8 550.57,362.27 549.6,361.54C549.06,360.01 549.25,358.27 550.33,357.03C552.2,354.79 554.59,352.94 556.77,351.01C555.93,349.92 555.09,348.84 554.25,347.75C552.32,348.05 549.66,349.17 547.86,348.12C545.59,346.97 543.09,345.55 541.45,343.58C541.14,339.94 541.64,336.43 540.48,332.85C539.51,327.94 535.63,325.32 535.41,320.34C535.07,316.14 533.95,312.15 532.73,308.13C535.16,307.51 537.56,306.85 540.03,306.39Z" style="fill:rgb(99,71,59);fill-rule:nonzero;"/>
                <path d="M517,308.33C522.25,310.1 527.45,309.42 532.73,308.13C533.95,312.15 535.07,316.14 535.41,320.34C535.63,325.32 539.51,327.94 540.48,332.85C541.64,336.43 541.14,339.94 541.45,343.58C543.09,345.55 545.59,346.97 547.86,348.12C549.66,349.17 552.32,348.05 554.25,347.75C555.09,348.84 555.93,349.92 556.77,351.01C554.59,352.94 552.2,354.79 550.33,357.03C549.25,358.27 549.06,360.01 549.6,361.54C550.57,362.27 551.7,362.8 552.75,363.4C552.35,365.95 551.87,368.49 551.36,371.02C553.56,372.45 556.47,373.8 557.99,375.99C559.43,379.97 557.15,385.35 556.38,389.37C555.18,394.71 556.02,400.71 556.61,406.09C557.25,411.76 559.28,416.19 558.69,421.87C558.21,426.24 557.41,430.51 557.51,434.93C550.99,438.27 544.89,436.24 538.78,433.18L538.74,432.28C539.41,429.38 540.82,426.13 540.58,423.13C539.69,418.98 537.1,415.82 537.06,411.31C537.03,403.81 538.77,397.14 536.51,389.58C535.44,386.13 534.74,383.49 536.03,379.99C534.68,376.02 533.67,371.63 531.6,367.98C530.67,367.9 529.74,367.84 528.81,367.79C528.29,365.9 527.86,363.99 527.48,362.07C529.35,359.47 531.99,357.44 533.73,354.78C534.64,351.5 533.7,348.03 531.63,345.36C529.14,342.01 526.49,339.07 525.19,334.99C523.7,331.88 523.93,328.24 520.02,327.34C518.88,323.8 517.7,320.28 516.76,316.68C516.82,314.66 516.89,312.63 516.93,310.61C516.95,309.85 516.97,309.09 517,308.33Z" style="fill:rgb(77,58,46);fill-rule:nonzero;"/>
                <path d="M516.93,310.61C516.89,312.63 516.82,314.66 516.76,316.68C515.46,321.84 514.31,327.02 513.6,332.3C512.1,326.85 510.31,321.77 512.11,316.1C512.87,313.43 514.85,312.19 516.93,310.61Z" style="fill:rgb(139,109,90);fill-rule:nonzero;"/>
                <path d="M525.19,334.99C526.49,339.07 529.14,342.01 531.63,345.36C533.7,348.03 534.64,351.5 533.73,354.78C531.99,357.44 529.35,359.47 527.48,362.07C525.89,350.17 523.53,338.82 520.02,327.34C523.93,328.24 523.7,331.88 525.19,334.99Z" style="fill:rgb(110,84,73);fill-rule:nonzero;"/>
                <path d="M473.66,332.59C476.78,334.25 479.84,336.81 483.26,337.72C486.33,338.1 489.67,337.21 492.69,336.69C490.65,341.01 488.24,344.94 484.8,348.3C482.69,348.11 480.71,348.17 478.66,348.77C477.37,343.81 475.31,339.05 473.8,334.15L473.66,332.59Z" style="fill:rgb(130,101,84);fill-rule:nonzero;"/>
                <path d="M513.81,334.76C514.2,338.59 514.8,342.18 514.7,346.05C514.61,350.14 513.87,353.99 513.52,358.05C513.13,362.4 513.14,366.88 512.51,371.17C508.23,369.39 506.23,365.93 503.59,362.39C499.92,363.25 496.24,364.63 492.68,365.87C491.74,371.83 491.86,376.59 493.09,382.53C495.24,382.64 497.41,382.85 499.56,382.79C501.72,382.98 503.35,380.19 505.13,379.21C506.84,379.55 508.54,380.33 510.14,381.01C509.57,383.58 509.12,386.18 508.66,388.78C507.59,392.16 505.94,395.31 506.12,398.93C506.05,401.63 506.88,404.75 506.14,407.36C505.21,408.75 503.9,409.91 502.74,411.11C503.83,413.68 504.41,416.19 504.74,418.96C506.19,417.76 507.84,416.58 509,415.09C510.29,412.21 510.55,408.78 510.92,405.67C511.98,411.58 512.35,417.34 511.43,423.3C510.47,430.93 509.7,438.59 509.19,446.25C507.7,445.79 506.23,445.33 504.73,444.92C506.32,441.33 508.65,437.07 508.6,433.08C508.03,431.35 506.34,429.92 505.17,428.56C506.15,428.44 507.14,428.32 508.13,428.22C507.61,427.41 507.09,426.61 506.57,425.8C505.16,427.35 503.01,428.73 503.19,431.09C503.44,433.36 504.44,435.62 505.23,437.75C504.27,437.93 503.31,438.12 502.34,438.3C502.32,437.39 502.31,436.48 502.3,435.57C501.72,435.46 501.14,435.35 500.56,435.23C500.85,431.83 500.71,429.05 499.27,425.91C499.85,423.76 500.68,421.84 500.11,419.58C499.62,416.97 497.73,415.73 496.05,413.86C495.35,412.71 494.65,411.56 493.96,410.39C496.24,408.26 498.19,406.63 498.54,403.37C499,402.73 499.46,402.1 499.93,401.46C498.46,400.46 496.98,399.48 495.49,398.51C496.33,397.88 497.16,397.25 498,396.62C495.82,393.75 493.03,390.9 491.56,387.64C489.63,383.31 488.12,378.84 487.73,374.09C487.39,369.65 484.39,367.02 483.2,363C483.81,360.41 485.53,357.23 487.92,355.91C492.78,355.5 496.62,357.97 500.45,360.59C502.05,358.22 503.67,355.87 505.33,353.54C504.4,351.65 503.36,349.74 502.77,347.72C502.45,346.94 502.89,345.57 503.74,345.33C506.33,344.33 509.32,344.21 511.89,343.09C513.23,340.64 513.49,337.5 513.81,334.76Z" style="fill:rgb(143,113,95);fill-rule:nonzero;"/>
                <path d="M561.09,359.56C561.02,363.08 561.12,366.61 561.17,370.13C559.09,369.76 557.05,369.26 554.97,368.88C556.31,365.03 557.34,361.73 561.09,359.56Z" style="fill:rgb(130,105,92);fill-rule:nonzero;"/>
                <path d="M503.59,362.39C506.23,365.93 508.23,369.39 512.51,371.17C511.89,374.52 510.92,377.71 510.14,381.01C508.54,380.33 506.84,379.55 505.13,379.21C503.35,380.19 501.72,382.98 499.56,382.79C497.41,382.85 495.24,382.64 493.09,382.53C491.86,376.59 491.74,371.83 492.68,365.87C496.24,364.63 499.92,363.25 503.59,362.39Z" style="fill:rgb(118,90,76);fill-rule:nonzero;"/>
                <path d="M531.6,367.98C533.67,371.63 534.68,376.02 536.03,379.99C534.74,383.49 535.44,386.13 536.51,389.58C538.77,397.14 537.03,403.81 537.06,411.31C537.1,415.82 539.69,418.98 540.58,423.13C540.82,426.13 539.41,429.38 538.74,432.28C537.93,428.2 536.88,424.17 535.8,420.15C534.32,414.64 532.31,409.79 531.88,404.05C531.27,396.83 532.55,390.08 532.83,382.98C533.16,377.56 530.25,373.21 528.81,367.79C529.74,367.84 530.67,367.9 531.6,367.98Z" style="fill:rgb(105,87,76);fill-rule:nonzero;"/>
                <path d="M561.28,376.69C564.44,390.14 564.7,403.81 562.39,417.42C561.08,411.94 560.38,406.6 560.8,400.95C561.19,396.25 560.32,391.77 559.65,387.15C559.07,383.37 560.35,380.29 561.28,376.69Z" style="fill:rgb(111,95,85);fill-rule:nonzero;"/>
                <path d="M508.66,388.78C509.17,394.5 510.23,400 510.92,405.67C510.55,408.78 510.29,412.21 509,415.09C507.84,416.58 506.19,417.76 504.74,418.96C504.41,416.19 503.83,413.68 502.74,411.11C503.9,409.91 505.21,408.75 506.14,407.36C506.88,404.75 506.05,401.63 506.12,398.93C505.94,395.31 507.59,392.16 508.66,388.78Z" style="fill:rgb(161,132,112);fill-rule:nonzero;"/>
                <path d="M478.32,403.69C479.71,405.8 479.91,407.59 480,410.06C480.03,412.26 481.44,413.48 482.57,415.23C483.28,414.08 483.99,412.92 484.71,411.77C487,411.95 489.21,411.96 491.5,411.82C492.98,414.17 494.41,416.55 495.86,418.93C495.93,417.24 496.02,415.55 496.05,413.86C497.73,415.73 499.62,416.97 500.11,419.58C500.68,421.84 499.85,423.76 499.27,425.91C500.71,429.05 500.85,431.83 500.56,435.23C501.14,435.35 501.72,435.46 502.3,435.57C502.31,436.48 502.32,437.39 502.34,438.3C503.31,438.12 504.27,437.93 505.23,437.75C504.44,435.62 503.44,433.36 503.19,431.09C503.01,428.73 505.16,427.35 506.57,425.8C507.09,426.61 507.61,427.41 508.13,428.22C507.14,428.32 506.15,428.44 505.17,428.56C506.34,429.92 508.03,431.35 508.6,433.08C508.65,437.07 506.32,441.33 504.73,444.92C497.88,443.74 491.27,445.19 485.03,448.07C482.51,435.15 479.46,422.27 477.6,409.25C477.75,407.38 478.03,405.54 478.32,403.69Z" style="fill:rgb(150,121,106);fill-rule:nonzero;"/>
                <path d="M538.78,433.18C544.89,436.24 550.99,438.27 557.51,434.93C558.57,434.4 559.64,433.85 560.69,433.3C560.69,434.93 560.82,436.52 560.91,438.15C558.33,439.22 555.91,440.31 553.06,440.36C548.67,440.41 544.05,439.14 539.79,438.15C539.78,439.82 539.75,441.48 539.79,443.15C539.3,439.84 538.94,436.53 538.78,433.18Z" style="fill:rgb(131,109,110);fill-rule:nonzero;"/>
                <path d="M539.79,438.15C544.05,439.14 548.67,440.41 553.06,440.36C555.91,440.31 558.33,439.22 560.91,438.15C561.08,440.74 561.17,443.35 561.49,445.93C562.12,447.19 562.81,448.41 563.51,449.63C560.32,449.44 556.68,448.71 553.57,449.5C551.59,450.8 549.91,452.74 547.86,453.92C545.35,453.79 542.81,452.87 540.4,452.18C540.75,449.06 540.17,446.23 539.79,443.15C539.75,441.48 539.78,439.82 539.79,438.15Z" style="fill:rgb(84,24,24);fill-rule:nonzero;"/>
                <path d="M504.73,444.92C506.23,445.33 507.7,445.79 509.19,446.25C509.13,447.47 509.09,448.69 509.08,449.91C507.34,449.46 505.6,448.97 503.85,448.59C500.91,448.09 497.96,448.01 494.98,448.17C490.52,449.45 486.49,451.74 486.79,457.01C486.22,454.03 485.63,451.05 485.03,448.07C491.27,445.19 497.88,443.74 504.73,444.92Z" style="fill:rgb(194,173,172);fill-rule:nonzero;"/>
                <path d="M561.49,445.93C563.06,446.07 564.63,446.22 566.21,446.37C565.99,448.75 565.64,450.84 564.38,452.92C558.93,456.12 555.6,462.44 551.03,466.92C552.27,466.5 553.52,466.07 554.76,465.65C554.7,467.16 554.66,468.68 554.63,470.19C556.66,467.66 558.02,464.96 559.17,461.93C559.01,463.63 558.84,465.33 558.65,467.02C558.49,468.67 558.13,470.47 558.4,472.12C559.22,473.45 560.83,474.49 561.38,475.95C561.21,477.12 560.68,478.29 560.22,479.38C558.64,479.03 557.07,478.64 555.48,478.32C555.52,477.45 555.56,476.59 555.6,475.72C553.72,475.42 551.31,475.42 549.71,474.3C545.14,471.03 542.05,466.64 539.45,461.72C539.59,458.51 539.94,455.35 540.4,452.18C542.81,452.87 545.35,453.79 547.86,453.92C549.91,452.74 551.59,450.8 553.57,449.5C556.68,448.71 560.32,449.44 563.51,449.63C562.81,448.41 562.12,447.19 561.49,445.93Z" style="fill:rgb(16,13,13);fill-rule:nonzero;"/>
                <path d="M503.85,448.59C505.88,452.54 507.66,456.41 507.67,460.96C504.63,457.99 502.28,457.93 498.21,458.04C496.04,457.85 493.89,457.55 491.73,457.27C493.32,455.79 495.96,454.18 496.57,452.01C497.01,450.24 496.05,449.41 494.98,448.17C497.96,448.01 500.91,448.09 503.85,448.59Z" style="fill:rgb(183,78,79);fill-rule:nonzero;"/>
                <path d="M494.98,448.17C496.05,449.41 497.01,450.24 496.57,452.01C495.96,454.18 493.32,455.79 491.73,457.27C493.89,457.55 496.04,457.85 498.21,458.04C494.99,459.49 491.75,460.79 488.37,461.82C487.88,460.52 487.39,459.22 486.95,457.9L486.79,457.01C486.49,451.74 490.52,449.45 494.98,448.17Z" style="fill:rgb(144,53,58);fill-rule:nonzero;"/>
                <path d="M503.85,448.59C505.6,448.97 507.34,449.46 509.08,449.91C509.13,455.03 509.04,460.39 510.18,465.4C509.17,466.67 507.91,467.99 507.31,469.51C506.98,470.85 507.28,472.39 507.37,473.75C507.22,474.79 507.06,475.84 506.9,476.88C504.39,473.44 501.77,470.26 498.3,467.74C499.28,467.73 500.25,467.73 501.23,467.74C503.05,467.81 504.87,467.79 506.7,467.81C507.04,465.53 507.39,463.25 507.67,460.96C507.66,456.41 505.88,452.54 503.85,448.59Z" style="fill:rgb(118,56,61);fill-rule:nonzero;"/>
                <path d="M564.38,452.92C565.51,456.11 567.95,457.85 570.25,460.16C568.38,459.5 566.52,458.81 564.67,458.1C565.29,460.01 565.87,461.94 566.48,463.85C565.47,463.3 564.43,462.82 563.34,462.45C561.54,463.63 560.04,465.4 558.65,467.02C558.84,465.33 559.01,463.63 559.17,461.93C558.02,464.96 556.66,467.66 554.63,470.19C554.66,468.68 554.7,467.16 554.76,465.65C553.52,466.07 552.27,466.5 551.03,466.92C555.6,462.44 558.93,456.12 564.38,452.92Z" style="fill:rgb(82,33,36);fill-rule:nonzero;"/>
                <path d="M486.95,457.9C487.39,459.22 487.88,460.52 488.37,461.82C491.75,460.79 494.99,459.49 498.21,458.04C502.28,457.93 504.63,457.99 507.67,460.96C507.39,463.25 507.04,465.53 506.7,467.81C504.87,467.79 503.05,467.81 501.23,467.74C500.25,467.45 499.28,467.16 498.3,466.88C497.86,465.17 497.39,463.47 496.85,461.78C494.61,462.83 492.56,464.18 490.57,465.65C491.78,466.99 492.99,468.33 494.2,469.66C493.01,470.16 491.82,470.66 490.62,471.16C491.49,475.57 492,479.92 491.13,484.38C490.31,486.65 489.31,488.86 488.21,491C488.46,486.34 487.72,481.68 487.79,477.01C487.57,470.67 487.9,464.17 486.95,457.9Z" style="fill:rgb(26,19,22);fill-rule:nonzero;"/>
                <path d="M496.85,461.78C497.39,463.47 497.86,465.17 498.3,466.88C497.45,466.7 496.6,466.54 495.75,466.39C495.87,467.22 495.98,468.05 496.1,468.88C495.47,469.14 494.84,469.4 494.2,469.66C492.99,468.33 491.78,466.99 490.57,465.65C492.56,464.18 494.61,462.83 496.85,461.78Z" style="fill:rgb(76,50,48);fill-rule:nonzero;"/>
                <path d="M539.45,461.72C542.05,466.64 545.14,471.03 549.71,474.3C551.31,475.42 553.72,475.42 555.6,475.72C555.56,476.59 555.52,477.45 555.48,478.32C557.07,478.64 558.64,479.03 560.22,479.38C558.74,481.96 559.05,484.17 559.45,486.97C558.08,486.16 556.49,485.47 555.32,484.38C554.54,482.8 554.25,481.01 553.46,479.41C551.26,477.59 548.42,476.65 546.18,474.85C542.46,471.98 540.8,467.95 538.85,463.85C539.06,463.14 539.26,462.43 539.45,461.72Z" style="fill:rgb(110,69,73);fill-rule:nonzero;"/>
                <path d="M563.34,462.45C564.43,462.82 565.47,463.3 566.48,463.85C567.72,467.2 569.29,470.14 571.36,473.05C568.64,472.86 565.95,472.78 563.22,472.8C564.92,476.29 564.91,481.92 569.28,483.03C573.08,484.92 576.42,484.35 580.29,483.03C581.61,484.09 582.99,485.04 584.35,486.04C580.05,485.96 575.92,486.27 571.7,487.15C573.83,489.01 576.03,490.78 578.27,492.5C572.01,493.49 565.94,492.36 559.67,492.78C559.29,492.38 558.9,491.99 558.5,491.63L557.54,490.78L556.78,490.18C551.39,485.35 542.82,485 538.31,479.71C534.62,474.97 537.44,468.9 538.85,463.85C540.8,467.95 542.46,471.98 546.18,474.85C548.42,476.65 551.26,477.59 553.46,479.41C554.25,481.01 554.54,482.8 555.32,484.38C556.49,485.47 558.08,486.16 559.45,486.97C559.05,484.17 558.74,481.96 560.22,479.38C560.68,478.29 561.21,477.12 561.38,475.95C560.83,474.49 559.22,473.45 558.4,472.12C558.13,470.47 558.49,468.67 558.65,467.02C560.04,465.4 561.54,463.63 563.34,462.45Z" style="fill:rgb(33,28,27);fill-rule:nonzero;"/>
                <path d="M498.3,466.88C499.28,467.16 500.25,467.45 501.23,467.74C500.25,467.73 499.28,467.73 498.3,467.74C501.77,470.26 504.39,473.44 506.9,476.88C507.06,475.84 507.22,474.79 507.37,473.75C507.96,474.87 508.98,476 509.23,477.27C509.1,478.66 507.61,479.92 506.74,480.94C504.92,480.56 502.97,480 501.1,480.06C497.64,481.02 494.47,483.04 491.13,484.38C492,479.92 491.49,475.57 490.62,471.16C491.82,470.66 493.01,470.16 494.2,469.66C494.84,469.4 495.47,469.14 496.1,468.88C495.98,468.05 495.87,467.22 495.75,466.39C496.6,466.54 497.45,466.7 498.3,466.88Z" style="fill:rgb(69,18,21);fill-rule:nonzero;"/>
                <path d="M510.18,465.4C512.8,469.45 513.98,474.02 514.4,478.79C514.43,480.76 514.4,482.84 513.99,484.77C511.43,486.19 509.02,486.23 507.24,488.93C506.98,486.27 506.74,483.61 506.74,480.94C507.61,479.92 509.1,478.66 509.23,477.27C508.98,476 507.96,474.87 507.37,473.75C507.28,472.39 506.98,470.85 507.31,469.51C507.91,467.99 509.17,466.67 510.18,465.4Z" style="fill:rgb(27,24,27);fill-rule:nonzero;"/>
                <path d="M571.36,473.05C573.92,476.7 577.03,480 580.29,483.03C576.42,484.35 573.08,484.92 569.28,483.03C564.91,481.92 564.92,476.29 563.22,472.8C565.95,472.78 568.64,472.86 571.36,473.05Z" style="fill:rgb(87,43,45);fill-rule:nonzero;"/>
                <path d="M514.4,478.79C514.79,483.16 514.94,487.57 515.16,491.95C514.13,492.94 513.1,493.92 512.07,494.91C509.19,493.68 506.02,491.9 502.86,491.66C499.3,491.63 495.59,493.06 492.11,493.8C489.97,494.19 487.83,494.46 485.68,494.73C486.14,494.15 486.6,493.56 487.06,492.98C487.47,492.33 487.85,491.67 488.21,491C489.31,488.86 490.31,486.65 491.13,484.38C494.47,483.04 497.64,481.02 501.1,480.06C502.97,480 504.92,480.56 506.74,480.94C506.74,483.61 506.98,486.27 507.24,488.93C509.02,486.23 511.43,486.19 513.99,484.77C514.4,482.84 514.43,480.76 514.4,478.79Z" style="fill:rgb(83,59,59);fill-rule:nonzero;"/>
                <path d="M584.35,486.04C586.82,487.85 589.19,489.79 591.52,491.78L591.3,492.67C586.76,491.83 582.83,491.77 578.27,492.5C576.03,490.78 573.83,489.01 571.7,487.15C575.92,486.27 580.05,485.96 584.35,486.04Z" style="fill:rgb(63,63,63);fill-rule:nonzero;"/>
                <path d="M484.68,490.07C485.5,491.01 486.28,492 487.06,492.98C486.6,493.56 486.14,494.15 485.68,494.73C483.26,497.55 482.19,499.75 482.15,503.55C478.5,503.82 475.49,504.01 472.66,506.57C478.25,508.56 483.99,509.83 489.93,510.08C499.65,510.51 509.67,510.2 519.21,508.16C525.58,507.06 531.82,505.74 538.09,504.17C544.36,502.73 550.86,502.78 557.24,501.74C557.44,500.66 557.64,499.57 557.83,498.48C559.7,497.95 561.51,497.28 563.39,496.81C565.47,496.82 567.56,496.86 569.64,496.83C576.25,497.14 582.56,497.89 589.13,496.56C590.45,496.58 590.78,493.6 591.3,492.67L591.52,491.78C596.7,493.98 602.58,495.24 608.03,496.62C605.43,498.17 602.81,499.43 599.75,499.77C595.21,500.31 590.96,501.31 586.86,503.37C594.19,503.84 601.23,502.99 608.51,504.52C606.59,505.65 604.86,506.4 602.62,506.66C591.22,508.32 579.52,508.22 568.02,508.41C563.87,508.67 560.25,510.7 556.03,510.89C551.72,511.06 547.47,511.25 543.2,512L444.61,512C437.69,510.28 430.66,510.81 423.72,509.47C427.89,508.28 432.19,507.85 436.37,506.73C429.89,505.45 423.32,504.76 416.85,503.45C424.56,501.67 432.45,501.22 440.15,499.41C436.07,498.17 431.93,497.21 427.78,496.23C433.48,495.69 438.95,496.15 444.55,497.17C444.17,496.46 443.79,495.74 443.4,495.02C453.63,494.51 463.82,493.49 474.05,492.99C477.91,492.91 481.22,491.55 484.68,490.07Z" style="fill:rgb(235,235,237);fill-rule:nonzero;"/>
                <path d="M556.78,490.18L557.54,490.78C549.17,494.33 541.09,490.87 532.74,494.71C526.6,497.61 521.75,502.25 515.17,504.39C515.28,500.57 515.37,496.76 515.21,492.93C521.46,492.08 527.75,490.81 533.98,490.86C538.1,490.85 542.21,491.34 546.33,491.31C549.92,491.28 553.23,490.53 556.78,490.18Z" style="fill:rgb(227,227,228);fill-rule:nonzero;"/>
                <path d="M557.54,490.78L558.5,491.63C555.31,492.54 552.18,493.62 549,494.56C552.98,495.19 556.95,495.79 560.93,496.43C561.75,496.57 562.57,496.7 563.39,496.81C561.51,497.28 559.7,497.95 557.83,498.48C557.64,499.57 557.44,500.66 557.24,501.74C550.86,502.78 544.36,502.73 538.09,504.17C531.82,505.74 525.58,507.06 519.21,508.16C509.67,510.2 499.65,510.51 489.93,510.08C483.99,509.83 478.25,508.56 472.66,506.57C475.49,504.01 478.5,503.82 482.15,503.55L482.66,504.31C483.67,505.66 484.72,506.98 485.79,508.29C494.07,508.55 503.62,508.83 511.46,505.84C512.7,505.37 513.94,504.88 515.17,504.39C521.75,502.25 526.6,497.61 532.74,494.71C541.09,490.87 549.17,494.33 557.54,490.78Z" style="fill:rgb(207,208,208);fill-rule:nonzero;"/>
                <path d="M502.86,491.66C506.02,491.9 509.19,493.68 512.07,494.91C512.55,496.35 513.03,497.78 513.52,499.22C510.27,496.57 506.27,494.74 502.02,494.82C497.96,494.93 493.76,496.1 489.8,496.95C490.6,495.93 491.36,494.87 492.11,493.8C495.59,493.06 499.3,491.63 502.86,491.66Z" style="fill:rgb(145,118,87);fill-rule:nonzero;"/>
                <path d="M558.5,491.63C558.9,491.99 559.29,492.38 559.67,492.78C560.11,493.99 560.52,495.21 560.93,496.43C556.95,495.79 552.98,495.19 549,494.56C552.18,493.62 555.31,492.54 558.5,491.63Z" style="fill:rgb(146,151,151);fill-rule:nonzero;"/>
                <path d="M515.16,491.95L515.21,492.93C515.37,496.76 515.28,500.57 515.17,504.39C513.94,504.88 512.7,505.37 511.46,505.84C508.61,502.72 505.19,502.38 501.22,502.14C495.67,502.2 490.22,504.89 484.68,505.84C487.15,502.75 489.48,499.64 493.35,498.27C496.6,497.23 500.22,497.01 503.6,497.41C507.22,498.07 510.64,499.96 514.15,501.09L513.52,499.22C513.03,497.78 512.55,496.35 512.07,494.91C513.1,493.92 514.13,492.94 515.16,491.95Z" style="fill:rgb(64,39,21);fill-rule:nonzero;"/>
                <path d="M578.27,492.5C582.83,491.77 586.76,491.83 591.3,492.67C590.78,493.6 590.45,496.58 589.13,496.56C582.13,495.16 576.59,495.32 569.64,496.83C567.56,496.86 565.47,496.82 563.39,496.81C562.57,496.7 561.75,496.57 560.93,496.43C560.52,495.21 560.11,493.99 559.67,492.78C565.94,492.36 572.01,493.49 578.27,492.5Z" style="fill:rgb(85,70,54);fill-rule:nonzero;"/>
                <path d="M492.11,493.8C491.36,494.87 490.6,495.93 489.8,496.95C487.65,499.56 485.1,501.97 482.66,504.31L482.15,503.55C482.19,499.75 483.26,497.55 485.68,494.73C487.83,494.46 489.97,494.19 492.11,493.8Z" style="fill:rgb(44,38,34);fill-rule:nonzero;"/>
                <path d="M502.02,494.82C506.27,494.74 510.27,496.57 513.52,499.22L514.15,501.09C510.64,499.96 507.22,498.07 503.6,497.41C500.22,497.01 496.6,497.23 493.35,498.27C489.48,499.64 487.15,502.75 484.68,505.84C485.05,506.66 485.42,507.47 485.79,508.29C484.72,506.98 483.67,505.66 482.66,504.31C485.1,501.97 487.65,499.56 489.8,496.95C493.76,496.1 497.96,494.93 502.02,494.82Z" style="fill:rgb(96,72,48);fill-rule:nonzero;"/>
                <path d="M589.13,496.56C582.56,497.89 576.25,497.14 569.64,496.83C576.59,495.32 582.13,495.16 589.13,496.56Z" style="fill:rgb(8,2,1);fill-rule:nonzero;"/>
                <path d="M501.22,502.14C505.19,502.38 508.61,502.72 511.46,505.84C503.62,508.83 494.07,508.55 485.79,508.29C485.42,507.47 485.05,506.66 484.68,505.84C490.22,504.89 495.67,502.2 501.22,502.14Z" style="fill:rgb(13,7,5);fill-rule:nonzero;"/>
            </g>
        </g>
    </g>
</svg>
