<?xml version="1.0" encoding="UTF-8" standalone="no"?>
<!DOCTYPE svg PUBLIC "-//W3C//DTD SVG 1.1//EN" "http://www.w3.org/Graphics/SVG/1.1/DTD/svg11.dtd">
<svg width="100%" height="100%" viewBox="0 0 1729 1728" version="1.1" xmlns="http://www.w3.org/2000/svg" xmlns:xlink="http://www.w3.org/1999/xlink" xml:space="preserve" xmlns:serif="http://www.serif.com/" style="fill-rule:evenodd;clip-rule:evenodd;stroke-linejoin:round;stroke-miterlimit:2;">
    <g transform="matrix(1,0,0,1,-11,-4162)">
        <g id="_15" serif:id="15" transform="matrix(1,0,0,1,11.834324,4162)">
            <rect x="0" y="0" width="1728" height="1728" style="fill:none;"/>
            <g transform="matrix(-1.509717,2.614907,-2.614907,-1.509717,2247.923977,167.146865)">
                <g>
                    <path d="M449.97,156.19C455.59,155.18 460.75,156.82 465.75,159.25C471.47,162.08 477.06,165.19 482.59,168.38C487.43,171.16 491.82,174.57 496.58,177.45C501.29,180.39 507.58,181.12 513,181.61C517.62,181.96 522.44,182.56 527.07,182.07C528.63,181.92 530.04,180.55 531.36,179.77C532.18,180.81 533,181.86 533.82,182.91C529.92,187.93 524.81,191.23 519.4,194.4C511.78,198.71 502.83,202.89 494,203.48C487.75,204.03 483.98,200.16 478.03,199.35C474.07,198.7 470.02,200.33 466.16,199.76C463.38,199.1 462.02,196.91 460.4,194.79C460.6,202.25 460.84,209.63 461.98,217.02C462.07,219.32 463.07,222.77 461.25,224.53C459.9,223.73 458.64,222.79 457.4,221.84C464.77,236.21 465.69,251.95 470.79,268.11C474.18,269.24 477.98,270.16 481.04,272.04C484.05,273.97 485.79,277.49 487.42,280.56C489.2,284.09 491.18,287.56 492.68,291.21C494.39,295.45 494.44,299.58 494.8,304.06C507.88,309.71 521.9,313.26 534.94,318.99C536.9,319.98 539.8,321.28 540.72,323.4C541.68,327.63 539.86,331.9 537.14,335.1C532.98,340.02 526.67,343.37 520.78,345.76C509.03,350.46 496.04,352.71 483.45,353.49C481.55,358.87 480.32,364.92 475.95,368.93C471.29,373.16 464.92,375.81 459.17,378.22C454.67,380.16 449.8,380.5 445.21,382.02C438.97,386.66 433.61,392.83 426.86,396.93C422.97,399.21 418.66,400.39 415.06,403.07C412.42,405.02 410.4,407.2 407.22,408.35C400.81,410.66 393.79,411.54 387,411.7C379.74,411.78 371.47,410.75 365.23,406.74C360.89,404.01 359.17,399.99 355.46,396.53C350.37,391.66 346.16,386.06 343.53,379.48C341.16,373.22 340.33,366.57 339.48,360C339.28,356.99 337.06,354.96 335.5,352.49C331.16,346.39 329.68,338.87 328.18,331.68C317.75,327.8 309.15,321.81 299.24,316.77C291,312.82 282.96,306.93 277.65,299.44C274.83,292.88 279.16,283.5 285.43,280.38C298.43,273.39 313.52,269.12 327.78,265.52C330.94,264.67 334.16,264.15 337.41,263.77C340.3,258.2 345.13,255.46 350.07,252.03C351.94,250.86 352.31,249.07 353.11,247.17C355.25,241.4 358.1,234.93 362.61,230.61C364.72,228.51 367.48,227.53 369.79,225.77C372.3,222.92 374.11,219.39 376.23,216.24C384.6,202.92 394.14,190.41 405.33,179.33C411.83,172.29 420.25,169.04 428.57,164.57C435.29,161.34 442.57,157.43 449.97,156.19Z" style="fill:rgb(0,28,61);fill-rule:nonzero;"/>
                    <clipPath id="_clip1">
                        <path d="M449.97,156.19C455.59,155.18 460.75,156.82 465.75,159.25C471.47,162.08 477.06,165.19 482.59,168.38C487.43,171.16 491.82,174.57 496.58,177.45C501.29,180.39 507.58,181.12 513,181.61C517.62,181.96 522.44,182.56 527.07,182.07C528.63,181.92 530.04,180.55 531.36,179.77C532.18,180.81 533,181.86 533.82,182.91C529.92,187.93 524.81,191.23 519.4,194.4C511.78,198.71 502.83,202.89 494,203.48C487.75,204.03 483.98,200.16 478.03,199.35C474.07,198.7 470.02,200.33 466.16,199.76C463.38,199.1 462.02,196.91 460.4,194.79C460.6,202.25 460.84,209.63 461.98,217.02C462.07,219.32 463.07,222.77 461.25,224.53C459.9,223.73 458.64,222.79 457.4,221.84C464.77,236.21 465.69,251.95 470.79,268.11C474.18,269.24 477.98,270.16 481.04,272.04C484.05,273.97 485.79,277.49 487.42,280.56C489.2,284.09 491.18,287.56 492.68,291.21C494.39,295.45 494.44,299.58 494.8,304.06C507.88,309.71 521.9,313.26 534.94,318.99C536.9,319.98 539.8,321.28 540.72,323.4C541.68,327.63 539.86,331.9 537.14,335.1C532.98,340.02 526.67,343.37 520.78,345.76C509.03,350.46 496.04,352.71 483.45,353.49C481.55,358.87 480.32,364.92 475.95,368.93C471.29,373.16 464.92,375.81 459.17,378.22C454.67,380.16 449.8,380.5 445.21,382.02C438.97,386.66 433.61,392.83 426.86,396.93C422.97,399.21 418.66,400.39 415.06,403.07C412.42,405.02 410.4,407.2 407.22,408.35C400.81,410.66 393.79,411.54 387,411.7C379.74,411.78 371.47,410.75 365.23,406.74C360.89,404.01 359.17,399.99 355.46,396.53C350.37,391.66 346.16,386.06 343.53,379.48C341.16,373.22 340.33,366.57 339.48,360C339.28,356.99 337.06,354.96 335.5,352.49C331.16,346.39 329.68,338.87 328.18,331.68C317.75,327.8 309.15,321.81 299.24,316.77C291,312.82 282.96,306.93 277.65,299.44C274.83,292.88 279.16,283.5 285.43,280.38C298.43,273.39 313.52,269.12 327.78,265.52C330.94,264.67 334.16,264.15 337.41,263.77C340.3,258.2 345.13,255.46 350.07,252.03C351.94,250.86 352.31,249.07 353.11,247.17C355.25,241.4 358.1,234.93 362.61,230.61C364.72,228.51 367.48,227.53 369.79,225.77C372.3,222.92 374.11,219.39 376.23,216.24C384.6,202.92 394.14,190.41 405.33,179.33C411.83,172.29 420.25,169.04 428.57,164.57C435.29,161.34 442.57,157.43 449.97,156.19Z" clip-rule="nonzero"/>
                    </clipPath>
                    <g clip-path="url(#_clip1)">
                        <path d="M449.03,162.94C454.91,161.7 460.69,163.99 464.79,168.21C471,174.48 478.67,178.53 486.4,182.63C491.78,185.36 496.79,188.06 502.98,188.19C509.38,188.31 515.79,187.23 522.2,187.15C515.55,192.52 506.35,194.24 498.04,192.98C490.49,191.49 483.43,188.7 476.22,186.61C472.38,185.47 468.24,184.94 464.53,183.43C461.26,181.99 458.96,179.31 456.51,176.8C454.76,181.8 453.08,186.66 452.52,191.97C452.14,195.87 451.82,199.72 450.57,203.46C445.07,199.44 440.5,194.52 434.39,191.28C436.04,197.51 438.4,203.42 439.56,209.78C440.99,216.26 441.09,222.85 442.79,229.27C444.24,234.91 443.9,240.36 443.46,246.09C436.55,242.28 430.82,236.75 423.91,233.01C417.92,230.25 411.27,228.76 404.94,226.97C397.56,224.69 390.2,226.79 382.24,226.05C384.15,219.45 388.36,214.67 391.9,208.95C396.56,201.97 400.91,194.66 406.13,188.08C411.24,181.66 418.57,177.75 425.43,173.43C432.68,169.19 440.73,164.56 449.03,162.94Z" style="fill:white;fill-rule:nonzero;"/>
                        <path d="M385.82,230.84C384.37,233.47 382.91,236.09 381.45,238.72C375.09,239.16 368.91,240.43 362.71,241.85C363.88,240.39 364.99,238.66 366.45,237.46C372.24,233.47 378.83,231.43 385.82,230.84Z" style="fill:white;fill-rule:nonzero;"/>
                        <path d="M394.03,231.14C400.31,231.35 406.51,232.59 412.27,235.15C405.24,243.47 400.4,253.05 395.88,262.9C394.78,265.22 393.48,267.43 392.16,269.64C385.68,268.73 379.39,267.62 373.3,265.12C374.33,260.91 376.23,257.18 378.54,253.54C382.53,247.18 386.34,240.7 390.39,234.38C391.24,233.34 392.52,231.01 394.03,231.14Z" style="fill:white;fill-rule:nonzero;"/>
                        <path d="M421.1,239.86C432.28,246.47 442.9,253.62 451.85,263.14C457.91,269.54 462.14,277.92 465.43,286.02C464.52,288.56 462.81,289.81 460.12,289.98C454.56,285.3 451.2,277.03 446.29,271.71C441.6,266.5 436.56,261.27 430.95,257.06C425.23,252.97 419.3,249.22 413,246.08C413.83,243.69 414.42,240.9 415.87,238.81C417.63,237.67 419.51,239.07 421.1,239.86Z" style="fill:white;fill-rule:nonzero;"/>
                        <path d="M377.98,244.24C376.76,246.7 375.45,249.1 374.07,251.47C370.54,251.47 367,251.44 363.47,251.28C367.86,246.91 371.86,245.16 377.98,244.24Z" style="fill:white;fill-rule:nonzero;"/>
                        <path d="M410.96,251.98C415.2,252.37 419.41,254.83 422.98,257.03C429.8,261.5 436.49,267.03 441.18,273.76C439.85,275.58 438.47,277.33 436.97,279.01C428.22,270.79 417.33,264.6 406.53,259.5C407.93,257.01 409.09,254.15 410.96,251.98Z" style="fill:white;fill-rule:nonzero;"/>
                        <path d="M371.02,256.87C370.08,259.37 369.13,261.87 368.16,264.36C360.76,264.12 353.44,265.15 346.06,265.14C347.58,263.28 349.25,261.61 351.19,260.18C356.03,255.8 364.88,257.54 371.02,256.87Z" style="fill:white;fill-rule:nonzero;"/>
                        <path d="M401.84,265.2C408.05,267.05 413.95,271.13 419.38,274.62C426.48,279.32 433.27,284.69 439.36,290.64C442.56,294.01 446.43,298.3 447.32,302.98C447.66,304.87 447.29,305.96 446.04,307.38C442.5,307.85 441.15,303.84 439.37,301.57C434.11,294.17 424.77,288.97 417.76,283.24C411.79,278.18 405.03,275.54 398.07,272.21C399.14,269.76 400.29,267.38 401.84,265.2Z" style="fill:white;fill-rule:nonzero;"/>
                        <path d="M368.27,269.83C373.94,271.69 379.33,271.68 384.45,275.08C372.36,276.25 360.14,276.1 348.01,276.79C344.37,277.03 340.92,277.97 337.42,278.94C349.77,280.36 361.79,283.83 373.14,288.86C388.79,296.08 405.14,301.86 421.23,308C420.88,309.7 420.53,311.4 420.18,313.1C394.96,304.03 368.89,293.07 342.79,287.66C333.8,285.82 324.19,283.7 315,283.78C306.38,283.79 298.43,286.45 289.8,286.94C296.42,282.81 303.81,279.17 311.5,277.68C319.54,275.87 327.79,273.81 336.01,273.17C346.77,272.14 357.97,270.08 368.78,270.64L368.27,269.83Z" style="fill:white;fill-rule:nonzero;"/>
                        <path d="M467.88,276.6C472.35,280.42 477.44,284.42 480.55,289.45C483.26,294.87 484.44,301.2 485.92,307.05C483.87,308.13 481.16,308.85 480.21,311.21C478.85,314.86 478.57,319.15 478.96,323C479.34,326.4 481.96,328.02 484.21,330.22C483.53,333.67 483.03,337.39 481.7,340.65C479.81,340.6 478,340.19 476.1,340.2C473.31,342.27 471.24,345.86 469.91,349.02C468.55,352.73 470.63,355.59 472.14,358.79C468.46,362.44 464.88,365.81 460.21,368.21C457.62,369.53 454.52,369.87 451.67,370.38C454.73,366.31 458.49,362.39 460.82,357.85C462.31,354.66 460.6,351.86 458.05,349.96C455.2,347.96 451.59,345.97 448.06,345.84C444.89,348.45 442.73,352.28 439.99,355.34C435.46,341.88 432.91,328.21 435.39,314.04C431.87,326.55 429.78,339 431.2,352.03C431.61,356.3 433.65,359.93 434.47,364.16C432.78,363.29 431.38,363.39 430.42,361.54C426.89,355.54 424.41,349.01 423.87,342.02C422.75,328.51 426.21,315.29 430.71,302.67C433.16,305.13 435.81,307.26 437.95,310.02C439.94,312.37 441.93,315.4 445.03,316.27C451.16,315.09 455.25,307.98 454.1,302C452.87,294.83 447.73,289.37 442.79,284.42C443.69,282.72 444.63,281.06 445.62,279.41C448.45,283.27 451.29,287.1 453.79,291.18C454.68,292.54 455.6,294.15 456.88,295.17C461.46,295.74 468.4,295.14 471.29,290.96C471,287.1 469.63,283.24 468.65,279.5C468.39,278.54 468.14,277.57 467.88,276.6Z" style="fill:white;fill-rule:nonzero;"/>
                        <path d="M344.49,299.66C343.02,309.01 340.99,319.03 342.01,328.99C343.22,337.28 348.18,343.91 351.97,351.09C353.45,353.71 355.59,356.06 357.4,358.48C349.42,356.09 342.99,350.13 339.33,342.75C334.86,332.05 334.97,321.38 335.14,310C335.23,306.91 335.59,303.04 337.43,300.45C339.18,298.24 342.16,299.41 344.49,299.66Z" style="fill:white;fill-rule:nonzero;"/>
                        <path d="M486.33,313.47C486.92,316.67 485.82,319.39 484.45,322.19C483.85,319.93 482.53,316.72 483.57,314.46C484.29,313.4 485.21,313.57 486.33,313.47Z" style="fill:white;fill-rule:nonzero;"/>
                        <path d="M493.72,313.02C497.53,314.89 500.99,317.39 504.85,319.18C509.52,321.51 514.39,322.6 519.4,323.9C510.62,325.19 501.54,324.83 492.71,324.37C493.07,320.59 493.27,316.79 493.72,313.02Z" style="fill:white;fill-rule:nonzero;"/>
                        <path d="M391.85,326.95C400.48,329.46 408.47,333.2 417.51,334.34C417.68,337.19 417.77,340.05 417.85,342.91C408.27,340.42 398.54,338.53 388.9,336.29C389.87,333.17 390.86,330.06 391.85,326.95Z" style="fill:white;fill-rule:nonzero;"/>
                        <path d="M477.32,345.26C478.09,346.46 478.84,347.65 479.33,348.98C478.52,350.68 477.17,351.76 475.86,353.04C475.26,351.62 474.66,350.2 474.11,348.76C475.08,347.51 476.19,346.37 477.32,345.26Z" style="fill:white;fill-rule:nonzero;"/>
                        <path d="M384.43,347.66C388.78,347.83 392.8,348.89 396.99,349.88C404.51,351.7 412.01,353.4 419.75,353.96C420.61,360.1 425.05,364.57 428.54,369.44C421.95,374.05 415.4,379.21 408.39,383.08C406.21,382.37 404.41,381.32 402.04,381.73C393.16,382.69 385.14,385.05 376.21,382.6C370.88,381.07 365.35,379.04 360.36,376.63C355.52,374.22 355.11,368.87 353.85,364.21C361.19,366.63 368.99,364.51 374.95,359.88C378.76,356.6 381.72,351.85 384.43,347.66Z" style="fill:white;fill-rule:nonzero;"/>
                        <path d="M449.99,351.31C451.42,352.34 453.3,352.96 453.28,355.04C453.24,358.59 449.85,362.1 447.79,364.79C443.3,369.96 440.33,375.74 435.44,380.42C430.17,385.58 424.33,388.97 418.35,393.34C414.82,395.69 410.24,398.63 405.87,398.49C402.83,396.63 403.76,393.83 403.5,390.8C412.53,387.33 420.77,382.27 428.37,376.32C433.4,372.29 438.03,368.09 441.78,362.8C444.54,359.02 446.81,354.66 449.99,351.31Z" style="fill:white;fill-rule:nonzero;"/>
                        <path d="M348.23,369.36C351.16,374.43 353.78,379.26 358.64,382.8C358.32,384.4 358,385.99 357.67,387.59C353.21,383.03 350.69,378.35 349.02,372.21C348.75,371.26 348.49,370.31 348.23,369.36Z" style="fill:white;fill-rule:nonzero;"/>
                        <path d="M366.87,385.07C370.56,386.53 373.94,388.32 377.97,388.75C384.75,390.02 391,388.51 397.78,388.54C397.19,389.85 396.6,391.16 396,392.47C397.07,395.87 397.92,399.28 398.46,402.81C392.47,404.58 386.16,405.01 379.96,404.29C375.38,403.68 370.55,402.15 367.23,398.78C364.17,395.77 362.92,391.16 363.81,387C364.05,385.51 365.4,384.38 366.87,385.07Z" style="fill:white;fill-rule:nonzero;"/>
                        <g transform="matrix(1,0,0,1,-3,-2)">
                            <path d="M463.522,307L465.508,306.988L468.644,316.049L467.609,318.938L463.522,307Z" style="fill:rgb(0,28,61);"/>
                            <path d="M463.514,309.44L465.82,316.027L465.833,331.459L463.562,338.047L463.514,309.44Z" style="fill:rgb(0,28,61);"/>
                            <path d="M463.586,340.026L465.87,340.006L469.239,329.672L468.217,326.531L463.586,340.026Z" style="fill:rgb(0,28,61);"/>
                            <path d="M467.837,327.578L468.228,326.549L469.333,326.531L471.102,331.483L471.132,337.641L468.931,330.681L467.837,327.578Z" style="fill:rgb(0,28,61);"/>
                            <path d="M471.77,340.024L474.073,340.016L473.99,306.959L471.753,306.995L471.77,340.024Z" style="fill:rgb(0,28,61);"/>
                            <path d="M470.849,309.672L470.84,316.141L469.293,320.517L468.19,320.516L467.607,318.939L470.849,309.672Z" style="fill:rgb(0,28,61);"/>
                        </g>
                    </g>
                </g>
            </g>
            <g id="half" transform="matrix(2.132875,0,0,2.132875,-280.9228,116.942081)">
                <path d="M458.67,34.62C457.53,36.38 456.95,37.69 456.92,39.84C459.47,37.93 460.09,34.13 463.25,37.73C462.31,40.79 460.16,49.59 456.36,43.37C455.38,47.98 452.92,45.21 451.64,42.69C449.71,43.79 449.53,44.11 447.39,42.85C447.96,40.35 448.38,38.02 449.95,35.92C453.28,34.37 454.98,33.84 458.67,34.62Z" style="fill:rgb(215,175,160);fill-rule:nonzero;"/>
                <path d="M468.74,34.37C475.82,40.46 472.31,50.63 468.92,57.74C465.75,60.65 462.77,63.72 459.75,66.79C454.89,67.6 452.75,60.57 448.3,58.58C446.71,60.27 444.71,60.37 446.4,62.88C443.77,64.3 443.39,65.41 442.22,68.01C441.86,63.26 442.15,58.5 441.64,53.75C442.32,50.01 443.65,46.53 444.94,42.99C446.29,39.73 445.88,36.89 449.95,35.92C448.38,38.02 447.96,40.35 447.39,42.85C446.49,44.19 445.81,45.64 445.25,47.15C447.58,50.1 453.74,50.63 452.63,55.06C459.08,50.3 465.07,51.17 467.56,43.99C465.97,41.74 467.01,35.69 463.25,37.73C460.09,34.13 459.47,37.93 456.92,39.84C456.95,37.69 457.53,36.38 458.67,34.62C462.89,33.03 464.55,36.34 468.74,34.37Z" style="fill:rgb(203,160,140);fill-rule:nonzero;"/>
                <path d="M467.56,43.99C465.07,51.17 459.08,50.3 452.63,55.06C453.74,50.63 447.58,50.1 445.25,47.15C445.81,45.64 446.49,44.19 447.39,42.85C449.53,44.11 449.71,43.79 451.64,42.69C452.92,45.21 455.38,47.98 456.36,43.37C460.16,49.59 462.31,40.79 463.25,37.73C467.01,35.69 465.97,41.74 467.56,43.99Z" style="fill:rgb(168,109,88);fill-rule:nonzero;"/>
                <path d="M441.64,53.75C442.15,58.5 441.86,63.26 442.22,68.01C443.39,65.41 443.77,64.3 446.4,62.88C444.71,60.37 446.71,60.27 448.3,58.58C452.75,60.57 454.89,67.6 459.75,66.79C458.69,72.77 458.3,78.95 457.87,85.01C455.14,99.33 460.47,113.66 458.82,128.33C455.59,121.44 452.37,131.63 450.11,134.09C446.19,137.01 451.61,134.87 451.2,138.94C452.21,142.21 450.71,144.63 450.2,147.78C454.97,150.12 458.67,153.52 463.12,156.35C461.9,160.94 465.53,160.62 466.25,164.83C467.23,170.23 474.69,173.04 476.63,177.1C475.17,181.55 481.09,184.92 478.16,188.14C475.14,190.38 468.97,196.64 466.7,190.28C465.18,186.22 464.7,191.82 462.25,188.74C461.58,183.5 462.66,178.47 460.89,173.31C456.33,179.74 457.26,169.07 451.72,168.68C453.82,165.9 447.21,166.28 447.57,162.68C447.44,158.99 447.17,160.42 444.15,160.52C447.03,154.61 444.55,150.41 441.68,145.26C438.74,145.11 436.88,147.54 434.03,145.45C433.9,147.02 433.83,148.6 433.77,150.17C432.86,148.07 432.94,145.49 432.67,143.23C433.2,134.88 433.2,126.12 432.67,117.77C433.9,105.14 436.91,92.81 438.34,80.19C441.36,71.42 440.45,62.64 441.64,53.75Z" style="fill:rgb(213,179,163);fill-rule:nonzero;"/>
                <path d="M443.05,72.1C444.74,73.65 446.11,75.44 447.4,77.33C448.58,76.61 449.7,75.77 450.91,75.08C452.94,77.69 452.06,83.33 455.7,83.82C455.88,87.43 457.56,93.74 453.63,95.67C451.32,100.54 456.21,105.05 453.24,109.01C459.36,111.38 449.71,116.28 451.65,121.14C452.63,125.1 447,122.64 447.28,125.93C447.09,128.9 444,132.58 444.87,135.52C447.59,138.81 443.33,142.3 442.23,137.95C442.33,134.29 444.9,129.52 440.76,127.3C439.21,123.03 439.74,117.67 439.29,113.05C440.48,106.11 437.82,100.15 439.79,93.24C444.14,87.09 439.59,79.21 443.05,72.1Z" style="fill:rgb(220,187,169);fill-rule:nonzero;"/>
                <path d="M432.67,117.77C433.2,126.12 433.2,134.88 432.67,143.23C431.57,135.94 431.58,125.06 432.67,117.77Z" style="fill:rgb(228,214,207);fill-rule:nonzero;"/>
                <path d="M532.03,118.08C535.34,120.42 537,124.79 540.86,125.98C543.09,133.38 548.77,130.5 554.87,131.91C554.64,130.6 554.3,129.32 553.95,128.03C556.8,129.52 555.47,133.54 558.23,134.53C561.34,135.3 558.92,138.92 558.84,141.03C555.41,139.2 551.81,137 548.02,136.05C549.76,138.37 552.07,139.72 554.11,141.76L552.76,143.11C552.09,142.63 551.42,142.14 550.75,141.65C545.34,132.76 537.97,134.84 528.98,133.74C530.95,132.88 532.98,132.17 534.95,131.32C532.11,130.77 529.81,129.64 526.98,130.87C525.54,126.27 535.21,130.3 537.82,128.9C535.38,125.49 533.02,122.25 532.03,118.08Z" style="fill:rgb(214,184,183);fill-rule:nonzero;"/>
                <path d="M549.08,124.88C549.92,127.26 550.95,127.56 553.35,127.54L553.95,128.03C554.3,129.32 554.64,130.6 554.87,131.91C548.77,130.5 543.09,133.38 540.86,125.98C543.55,125.13 546.24,124.29 549.08,124.88Z" style="fill:rgb(101,77,70);fill-rule:nonzero;"/>
                <path d="M458.82,128.33C459.3,133.84 458.64,139.4 459.18,144.88C460.81,151.24 465.88,153.07 469.23,158.78C473.98,165.1 476.84,172.35 481.04,178.99C483.46,183.13 488.35,185.23 491.91,188.65C489.81,190.61 494.86,192.52 495.69,194.28C497.75,200.99 503.85,203.55 504.4,211.15C504.02,211.78 503.64,212.4 503.26,213.03C502.3,206.25 497.71,203.02 494.22,197.84C493.54,193.92 484.76,191.76 485.04,196.9C486.75,200.88 489.96,202.91 489.77,207.74C490.84,213.54 485.71,215.4 484.24,221.3C483.3,222.86 482.11,228.44 479.49,226.66C478.49,224.52 477.73,222.32 477.23,220.01C473.18,222.38 473.92,223.11 469.75,220.24C462.14,210.91 454.98,201.73 450.53,190.4C444.25,177.34 440.56,162.95 433.77,150.17C433.83,148.6 433.9,147.02 434.03,145.45C436.88,147.54 438.74,145.11 441.68,145.26C444.55,150.41 447.03,154.61 444.15,160.52C447.17,160.42 447.44,158.99 447.57,162.68C447.21,166.28 453.82,165.9 451.72,168.68C457.26,169.07 456.33,179.74 460.89,173.31C462.66,178.47 461.58,183.5 462.25,188.74C464.7,191.82 465.18,186.22 466.7,190.28C468.97,196.64 475.14,190.38 478.16,188.14C481.09,184.92 475.17,181.55 476.63,177.1C474.69,173.04 467.23,170.23 466.25,164.83C465.53,160.62 461.9,160.94 463.12,156.35C458.67,153.52 454.97,150.12 450.2,147.78C450.71,144.63 452.21,142.21 451.2,138.94C451.61,134.87 446.19,137.01 450.11,134.09C452.37,131.63 455.59,121.44 458.82,128.33Z" style="fill:rgb(205,169,148);fill-rule:nonzero;"/>
                <path d="M549.08,124.88C551.36,125.09 552.2,125.55 553.35,127.54C550.95,127.56 549.92,127.26 549.08,124.88Z" style="fill:rgb(181,172,168);fill-rule:nonzero;"/>
                <path d="M534.95,131.32C532.98,132.17 530.95,132.88 528.98,133.74C537.97,134.84 545.34,132.76 550.75,141.65C550.75,147.22 555.52,147.24 554.3,152.23C557.29,152.5 555.28,155.29 555.17,157.18C550,154.14 550.94,146.11 545.66,142.41C538.13,140.83 529.5,140.2 521.99,141.97C516,146.07 512.4,156.04 513.02,163.1C513.01,167.72 512.95,172.34 513.01,176.96C511.63,177.05 510.25,177.13 508.86,177.22C507.6,176.87 506.34,176.49 505.1,176.07C504.81,172.48 503.68,168.66 504.18,165.09C505.52,165.03 506.87,164.98 508.22,164.95C509.37,168.2 505.86,178.2 511.77,175.86C511.56,173.1 514,163.61 509.09,164.91C512.53,162.45 511.28,155.09 508.98,152.09C506.64,149.67 514.41,144.69 515.98,142.95C518.86,140.52 523.37,138.02 524.29,134.17C525.22,133.1 526.13,132.01 526.98,130.87C529.81,129.64 532.11,130.77 534.95,131.32Z" style="fill:rgb(100,78,70);fill-rule:nonzero;"/>
                <path d="M524.29,134.17C523.37,138.02 518.86,140.52 515.98,142.95C515.66,142.32 515.35,141.69 515.03,141.07C517.98,138.64 521.1,136.26 524.29,134.17Z" style="fill:rgb(150,140,133);fill-rule:nonzero;"/>
                <path d="M548.02,136.05C551.81,137 555.41,139.2 558.84,141.03C560.61,142.38 562.4,143.72 564.14,145.1C561.99,151.51 557.06,143.67 554.11,141.76C552.07,139.72 549.76,138.37 548.02,136.05Z" style="fill:rgb(104,88,81);fill-rule:nonzero;"/>
                <path d="M515.03,141.07C515.35,141.69 515.66,142.32 515.98,142.95C514.41,144.69 506.64,149.67 508.98,152.09C508.58,155.53 509.86,165.08 504.44,164.31C505.34,160.1 503.54,152.77 506.78,148.78C509.62,146.23 512.42,143.88 515.03,141.07Z" style="fill:rgb(213,204,199);fill-rule:nonzero;"/>
                <path d="M545.66,142.41C550.94,146.11 550,154.14 555.17,157.18C556.43,161.61 556.53,167.79 555.19,172.2C554.16,167.31 557.59,158.46 550.58,157.38C549,153.95 547.97,150.39 545.85,147.12C542.29,150.79 542.86,150.24 539.86,146.42C538.75,139.72 530.37,145.36 525.86,143.34C519.3,145.91 519.99,149.34 518.27,155.12C518.03,158.59 513.89,157.86 514.12,160.84L515.06,162.21C514.38,162.51 513.7,162.81 513.02,163.1C512.4,156.04 516,146.07 521.99,141.97C529.5,140.2 538.13,140.83 545.66,142.41Z" style="fill:rgb(169,134,117);fill-rule:nonzero;"/>
                <path d="M550.75,141.65C551.42,142.14 552.09,142.63 552.76,143.11C555.92,147.36 561.12,148.46 558.9,154.62C558.06,157.02 557.89,159.49 557.69,162.01C556.33,164.4 556.61,166.45 557.33,168.99C557.06,171.81 556.62,174.52 555.88,177.25C555.47,176.14 555.08,175.01 554.7,173.88L555.19,172.2C556.53,167.79 556.43,161.61 555.17,157.18C555.28,155.29 557.29,152.5 554.3,152.23C555.52,147.24 550.75,147.22 550.75,141.65Z" style="fill:rgb(73,55,47);fill-rule:nonzero;"/>
                <path d="M554.11,141.76C557.06,143.67 561.99,151.51 564.14,145.1C568.13,148.09 568.25,153.88 567.23,158.34C565.08,159.34 561.03,155.52 558.9,154.62C561.12,148.46 555.92,147.36 552.76,143.11L554.11,141.76Z" style="fill:rgb(225,217,212);fill-rule:nonzero;"/>
                <path d="M525.86,143.34C530.37,145.36 538.75,139.72 539.86,146.42C542.86,150.24 542.29,150.79 545.85,147.12C547.97,150.39 549,153.95 550.58,157.38C557.59,158.46 554.16,167.31 555.19,172.2L554.7,173.88C552.13,179.92 554.3,186.43 551.4,192.17C553.74,191.23 554.44,190.18 555.43,187.9C555.74,190.41 556.22,193.62 555.04,195.96C544.95,197.39 552.47,204.1 547.63,210.67C543.64,212.82 541.85,208.81 537.74,211.77C537.88,208.64 531.1,210.29 529.14,210.15C524.1,213.36 530.95,221.61 524.14,223.2C522.09,224.74 523.27,230.7 522.69,233.24C522.18,231.26 521.92,229.26 521.63,227.23C521.92,224.18 522.08,221.13 522.13,218.06C522.69,218.03 525.41,219.77 524.6,218.16C523.4,213.77 525.46,205.71 531.08,205.73C534.72,207.81 536.7,205.39 540.04,204.11C543.5,203.18 546.07,202.4 547.96,199.12C545.96,199.64 544.02,200.35 542.03,200.87C543.21,199.48 544.55,198.26 545.83,196.97C540.07,196.69 535.92,199.79 529.99,198.09C524.29,198.31 523.25,195.32 521.09,190.95C522,187 524.65,192.2 527.11,191.94C529.19,191.94 533.6,192.96 534.17,190.13C534.81,187.23 539.06,189.01 538.9,186.18C535.33,185.89 531.73,186.02 528.15,185.82C520.2,182.99 532.41,184.66 533.65,181.64C539.21,175.72 522.07,183.68 526.8,175.77C527.96,172.83 528.65,168.95 527.38,165.99C524.69,160.31 519.87,159.13 514.12,160.84C513.89,157.86 518.03,158.59 518.27,155.12C519.99,149.34 519.3,145.91 525.86,143.34Z" style="fill:rgb(214,168,150);fill-rule:nonzero;"/>
                <path d="M535.62,149.42C541.02,149.95 541.27,152.08 543.84,156.12C547.05,155.94 552.69,161.69 546.06,160.42C543.09,160.02 540.11,159.91 537.12,159.99C534.48,160.4 531.41,158.89 530.67,162.34C528.37,161.2 525.1,160.51 523.33,158.72C523.18,155.56 526.49,153.88 524.7,150.32C529.5,146.57 530.36,147.88 535.62,149.42Z" style="fill:rgb(226,185,171);fill-rule:nonzero;"/>
                <path d="M508.98,152.09C511.28,155.09 512.53,162.45 509.09,164.91L508.22,164.95C506.87,164.98 505.52,165.03 504.18,165.09L504.44,164.31C509.86,165.08 508.58,155.53 508.98,152.09Z" style="fill:rgb(150,130,122);fill-rule:nonzero;"/>
                <path d="M562.17,154.17C561.21,159.21 567.22,153.21 562.17,154.17Z" style="fill:rgb(125,119,115);fill-rule:nonzero;"/>
                <path d="M558.9,154.62C561.44,159.95 556.92,168.41 560.58,172.81L559.91,173.36C553.95,177.44 564.93,178.89 567.54,179.1C566.9,183.15 566.82,186.77 567.8,190.79C563.54,186.2 561.18,189.94 560.94,194.74C552.33,191.46 562.48,201.89 557.97,206.23C554.75,202.19 551.84,201.4 555.04,195.96C556.22,193.62 555.74,190.41 555.43,187.9C554.71,184.25 555.19,180.84 555.88,177.25C556.62,174.52 557.06,171.81 557.33,168.99C558.62,166.6 558.4,164.55 557.69,162.01C557.89,159.49 558.06,157.02 558.9,154.62Z" style="fill:rgb(230,216,209);fill-rule:nonzero;"/>
                <path d="M527.38,165.99C525.6,170.18 523.04,171.72 519.63,167.85C517.31,168.77 516.39,169.8 514.85,166.99C515.88,164.86 518.88,164.41 520.88,163.47C518.86,162.22 517.43,162.01 515.06,162.21L514.12,160.84C519.87,159.13 524.69,160.31 527.38,165.99Z" style="fill:rgb(134,95,81);fill-rule:nonzero;"/>
                <path d="M537.12,159.99C540.11,159.91 543.09,160.02 546.06,160.42C544.44,161.09 542.82,161.76 541.2,162.43C543.39,163.75 545.72,164.78 547.88,166.18C544.26,168.45 539.71,173.19 535.44,169.58C530.8,168.07 533.38,160.98 537.12,159.99Z" style="fill:rgb(156,114,101);fill-rule:nonzero;"/>
                <path d="M515.06,162.21C517.43,162.01 518.86,162.22 520.88,163.47C518.88,164.41 515.88,164.86 514.85,166.99C516.39,169.8 517.31,168.77 519.63,167.85C523.04,171.72 525.6,170.18 527.38,165.99C528.65,168.95 527.96,172.83 526.8,175.77C522.07,183.68 539.21,175.72 533.65,181.64C532.41,184.66 520.2,182.99 528.15,185.82C525.58,185.86 523.32,186.11 521.09,187.46C524.51,188.13 525.26,189.23 527.11,191.94C524.65,192.2 522,187 521.09,190.95C523.25,195.32 524.29,198.31 529.99,198.09C535.92,199.79 540.07,196.69 545.83,196.97C544.55,198.26 543.21,199.48 542.03,200.87C544.02,200.35 545.96,199.64 547.96,199.12C546.07,202.4 543.5,203.18 540.04,204.11C537.38,201.77 539.34,202.17 540.94,200.12C535.14,200.53 529.59,200.01 523.85,199.3C523.19,201.13 522.5,200.46 520.85,200.68C523.06,203.54 527.89,204.22 531.08,205.73C525.46,205.71 523.4,213.77 524.6,218.16C525.41,219.77 522.69,218.03 522.13,218.06C521.88,216.64 521.59,215.22 521.17,213.83C520.18,210.79 519.57,207.97 519.25,204.79C519.66,203.24 520.01,201.69 520.05,200.08C520.47,196.76 518.88,195.31 516.85,193.08C514.17,187.88 514.24,182.5 513.01,176.96C512.95,172.34 513.01,167.72 513.02,163.1C513.7,162.81 514.38,162.51 515.06,162.21Z" style="fill:rgb(194,145,128);fill-rule:nonzero;"/>
                <path d="M557.69,162.01C558.4,164.55 558.62,166.6 557.33,168.99C556.61,166.45 556.33,164.4 557.69,162.01Z" style="fill:rgb(153,134,123);fill-rule:nonzero;"/>
                <path d="M508.22,164.95L509.09,164.91C514,163.61 511.56,173.1 511.77,175.86C505.86,178.2 509.37,168.2 508.22,164.95Z" style="fill:rgb(52,18,23);fill-rule:nonzero;"/>
                <path d="M537.02,166.15C539.68,165.94 542.35,165.95 545.01,166.16C541.08,168.22 540.63,169.78 537.02,166.15Z" style="fill:rgb(90,52,41);fill-rule:nonzero;"/>
                <path d="M567.54,179.1C565.88,175.46 563.25,174.74 559.91,173.36L560.58,172.81C566.22,170.75 569.03,173.3 567.54,179.1Z" style="fill:rgb(220,207,208);fill-rule:nonzero;"/>
                <path d="M559.91,173.36C563.25,174.74 565.88,175.46 567.54,179.1C564.93,178.89 553.95,177.44 559.91,173.36Z" style="fill:rgb(178,159,161);fill-rule:nonzero;"/>
                <path d="M554.7,173.88C555.08,175.01 555.47,176.14 555.88,177.25C555.19,180.84 554.71,184.25 555.43,187.9C554.44,190.18 553.74,191.23 551.4,192.17C554.3,186.43 552.13,179.92 554.7,173.88Z" style="fill:rgb(145,107,94);fill-rule:nonzero;"/>
                <path d="M505.1,176.07C506.34,176.49 507.6,176.87 508.86,177.22C509.17,181.83 512.55,186.72 510.93,191.11C508.86,186.11 507.18,181.05 505.1,176.07Z" style="fill:rgb(207,188,185);fill-rule:nonzero;"/>
                <path d="M508.86,177.22C510.25,177.13 511.63,177.05 513.01,176.96C514.24,182.5 514.17,187.88 516.85,193.08C515.19,193.2 513.53,193.34 511.87,193.32C511.54,192.59 511.23,191.85 510.93,191.11C512.55,186.72 509.17,181.83 508.86,177.22Z" style="fill:rgb(158,125,117);fill-rule:nonzero;"/>
                <path d="M562.25,182.1C564.08,181.52 564.01,183.07 563.23,184.19C561.15,186.44 560,183.15 562.25,182.1Z" style="fill:rgb(150,139,130);fill-rule:nonzero;"/>
                <path d="M528.15,185.82C531.73,186.02 535.33,185.89 538.9,186.18C539.06,189.01 534.81,187.23 534.17,190.13C533.6,192.96 529.19,191.94 527.11,191.94C525.26,189.23 524.51,188.13 521.09,187.46C523.32,186.11 525.58,185.86 528.15,185.82Z" style="fill:rgb(166,110,99);fill-rule:nonzero;"/>
                <path d="M491.91,188.65C499.02,194.1 503.49,198.99 508.95,206.02C506.77,206.67 505.71,209.42 504.4,211.15C503.85,203.55 497.75,200.99 495.69,194.28C494.86,192.52 489.81,190.61 491.91,188.65Z" style="fill:rgb(169,141,125);fill-rule:nonzero;"/>
                <path d="M511.87,193.32C513.53,193.34 515.19,193.2 516.85,193.08C518.88,195.31 520.47,196.76 520.05,200.08C516.66,198.25 513.33,197.27 511.87,193.32Z" style="fill:rgb(221,207,200);fill-rule:nonzero;"/>
                <path d="M494.22,197.84C497.71,203.02 502.3,206.25 503.26,213.03C495.39,224.19 492.41,237.42 484.86,248.67C482.75,252.65 480.84,256.45 480.81,261.06C476.67,245.7 479.18,232.07 469.75,220.24C473.92,223.11 473.18,222.38 477.23,220.01C477.73,222.32 478.49,224.52 479.49,226.66C482.11,228.44 483.3,222.86 484.24,221.3C485.71,215.4 490.84,213.54 489.77,207.74C489.96,202.91 486.75,200.88 485.04,196.9C484.76,191.76 493.54,193.92 494.22,197.84Z" style="fill:rgb(220,187,164);fill-rule:nonzero;"/>
                <path d="M560.94,194.74C566.11,201.85 559.05,203.78 560.76,210.08L560.03,210.31C559.33,208.96 558.66,207.59 557.97,206.23C562.48,201.89 552.33,191.46 560.94,194.74Z" style="fill:rgb(188,175,164);fill-rule:nonzero;"/>
                <path d="M555.04,195.96C551.84,201.4 554.75,202.19 557.97,206.23C558.66,207.59 559.33,208.96 560.03,210.31C557.81,218.51 555.44,226.79 552.87,234.89C550.73,240.54 547.11,247.53 540.02,247.09C531.73,248.12 524.32,240.95 522.69,233.24C523.27,230.7 522.09,224.74 524.14,223.2C530.95,221.61 524.1,213.36 529.14,210.15C531.1,210.29 537.88,208.64 537.74,211.77C541.85,208.81 543.64,212.82 547.63,210.67C552.47,204.1 544.95,197.39 555.04,195.96Z" style="fill:rgb(227,193,173);fill-rule:nonzero;"/>
                <path d="M523.85,199.3C529.59,200.01 535.14,200.53 540.94,200.12C539.34,202.17 537.38,201.77 540.04,204.11C536.7,205.39 534.72,207.81 531.08,205.73C527.89,204.22 523.06,203.54 520.85,200.68C522.5,200.46 523.19,201.13 523.85,199.3Z" style="fill:rgb(169,121,101);fill-rule:nonzero;"/>
                <path d="M471.2,202.33C477.66,202.12 476.27,201 477.67,207.33C481.26,210.68 483.32,210.84 480.3,216.09C476.29,216.07 472.45,221.38 469.77,217.24C466.27,213.01 460.13,206.39 461.74,200.79C465.45,201.36 467.83,199.6 471.2,202.33Z" style="fill:rgb(191,148,122);fill-rule:nonzero;"/>
                <path d="M518.15,204.85C517.06,207.05 516.91,209.37 516.71,211.77C516.33,213.52 515.97,215.27 515.56,217.01C514.5,215.52 513.77,213.89 512.88,212.31C511.45,214.3 508.21,214.43 505.88,215.15C508.16,212.08 509.39,210.03 508.95,206.02C511.95,206.52 514.88,204.37 518.15,204.85Z" style="fill:rgb(168,151,145);fill-rule:nonzero;"/>
                <path d="M518.15,204.85L519.25,204.79C519.57,207.97 520.18,210.79 521.17,213.83C521.05,218.4 520.56,222.72 521.63,227.23C521.92,229.26 522.18,231.26 522.69,233.24C524.32,240.95 531.73,248.12 540.02,247.09C547.11,247.53 550.73,240.54 552.87,234.89C555.44,226.79 557.81,218.51 560.03,210.31L560.76,210.08C561.64,210.35 562.53,210.61 563.41,210.88C561.86,217.47 559.26,224.67 556.74,231.07C556.2,239.78 551.93,248.19 542.38,249.48C535.9,249.77 527.71,247.92 523.59,242.39C520.62,238.85 520.48,234.59 518.88,230.45C516.43,231.19 516.68,232.38 515.42,229.42C512.35,228.05 513.74,231.14 513,232.91C509.27,230.46 511.06,229.96 511.74,226.38C510.44,225.94 509.11,225.56 507.79,225.18C510.62,225.1 513.45,224.93 516.29,224.74L517.92,224.66C520.32,224.5 519.1,220.32 518.36,219C518.01,216.49 517.49,214.17 516.71,211.77C516.91,209.37 517.06,207.05 518.15,204.85Z" style="fill:rgb(69,36,35);fill-rule:nonzero;"/>
                <path d="M508.95,206.02C509.39,210.03 508.16,212.08 505.88,215.15C503.98,217.8 501.7,220.74 500.94,223.95C501.29,225.58 505.53,224.82 506.92,225.17C505.45,229.14 503.72,232.64 503.46,236.92C501.43,236.48 500.16,233.85 498.66,232.5C497.07,233.62 495.14,234.97 494.31,236.78C492.29,241.97 491,247.49 489.66,252.89C488.52,247.99 487.56,252.52 485.4,253.94C485.51,252.06 485.5,250.47 484.86,248.67C492.41,237.42 495.39,224.19 503.26,213.03C503.64,212.4 504.02,211.78 504.4,211.15C505.71,209.42 506.77,206.67 508.95,206.02Z" style="fill:rgb(65,37,38);fill-rule:nonzero;"/>
                <path d="M563.41,210.88L564.1,211.07C565.07,211.56 566.04,212.05 567,212.54C564.32,214.9 572.84,216.26 574.2,216.87C576.21,217.5 578.28,218.02 580.25,218.77C575.69,219.08 575.89,227.38 574.66,230.76C573.79,234.27 574.3,237.81 573.23,241.28C571.27,239.77 569.48,238.24 567.1,237.42C564.01,235.52 557.65,234.95 556.74,231.07C559.26,224.67 561.86,217.47 563.41,210.88Z" style="fill:rgb(223,210,210);fill-rule:nonzero;"/>
                <path d="M512.88,212.31C513.77,213.89 514.5,215.52 515.56,217.01C515.97,215.27 516.33,213.52 516.71,211.77C517.49,214.17 518.01,216.49 518.36,219C517.86,220.93 517.7,222.67 517.92,224.66L516.29,224.74C511.47,223.39 505.97,224.21 500.94,223.95C501.7,220.74 503.98,217.8 505.88,215.15C508.21,214.43 511.45,214.3 512.88,212.31Z" style="fill:rgb(215,201,199);fill-rule:nonzero;"/>
                <path d="M567,212.54C569.61,213.68 572.06,214.95 574.2,216.87C572.84,216.26 564.32,214.9 567,212.54Z" style="fill:rgb(167,161,160);fill-rule:nonzero;"/>
                <path d="M521.17,213.83C521.59,215.22 521.88,216.64 522.13,218.06C522.08,221.13 521.92,224.18 521.63,227.23C520.56,222.72 521.05,218.4 521.17,213.83Z" style="fill:rgb(143,100,86);fill-rule:nonzero;"/>
                <path d="M518.36,219C519.1,220.32 520.32,224.5 517.92,224.66C517.7,222.67 517.86,220.93 518.36,219Z" style="fill:rgb(151,119,122);fill-rule:nonzero;"/>
                <path d="M580.25,218.77C580.49,224.08 578.15,229.43 577.66,234.75C576.79,238.02 576.65,240.99 577.71,244.24C578.79,248.79 580.44,253.2 581.33,257.78L580.89,259.89C578.67,259.59 578.28,258.87 576.91,261.04C573.95,257.06 572.4,254.01 571.57,249.05C569.67,250.54 570.25,252.47 569.79,254.63C566.98,252.74 561.77,250.95 567.7,248.35C563.65,249.21 564.27,238.15 567.1,237.42C569.48,238.24 571.27,239.77 573.23,241.28C573.71,241.69 574.23,241.9 574.78,241.92C575.27,238.16 574.99,234.52 574.66,230.76C575.89,227.38 575.69,219.08 580.25,218.77Z" style="fill:rgb(65,35,38);fill-rule:nonzero;"/>
                <path d="M580.25,218.77C585.66,221.9 591.34,222.65 596.18,226.83C603.53,235.34 607.17,247.91 608.17,258.96C609.98,269.05 613.64,278.95 615.89,289.12C619.46,305.3 627.65,319.35 630.18,335.94C632.35,347.8 633.43,360.02 633.97,372.03C631.94,370.5 625.94,370.83 627.94,366.98C629.53,364.18 626.91,356.07 631.84,357.57C633.45,352.71 627.56,349.59 624.93,346.14C624.92,349.39 627.49,351.18 627.04,354.54C623.95,353.54 620.92,354.08 619.66,350.37C618.8,346.73 619.07,344.02 616.42,341.03C619.65,337.3 614.59,335.34 616.49,330.6C615.55,325.05 611.53,316.82 614.05,310.86C616.99,308.31 613.07,304.28 611.86,301.58C606.49,302.68 608.16,299.5 605.7,296.2C605.69,289.5 608.53,283.56 599.78,281.74C595.32,281.9 596.93,279.51 599.76,278.27C594.13,277.98 601.71,275.02 599.44,271.63C598.01,267.39 601.39,267.36 603.65,264.83C601.86,261.77 601.7,255.69 597.87,254.9C594.23,253.13 590.99,251.66 588.08,248.84C585.23,247.24 585.21,249.55 585.01,251.78C584.95,253.15 584.9,254.53 584.86,255.9C584.64,257.54 584.44,259.17 584.35,260.82C581.02,265.38 582.44,260.22 581.33,257.78C580.44,253.2 578.79,248.79 577.71,244.24C578.01,241.02 578.02,237.97 577.66,234.75C578.15,229.43 580.49,224.08 580.25,218.77Z" style="fill:rgb(221,188,170);fill-rule:nonzero;"/>
                <path d="M500.94,223.95C505.97,224.21 511.47,223.39 516.29,224.74C513.45,224.93 510.62,225.1 507.79,225.18L506.92,225.17C505.53,224.82 501.29,225.58 500.94,223.95Z" style="fill:rgb(140,117,121);fill-rule:nonzero;"/>
                <path d="M506.92,225.17L507.79,225.18C509.11,225.56 510.44,225.94 511.74,226.38C511.06,229.96 509.27,230.46 513,232.91C513.74,231.14 512.35,228.05 515.42,229.42C516.68,232.38 516.43,231.19 518.88,230.45C520.48,234.59 520.62,238.85 523.59,242.39C527.71,247.92 535.9,249.77 542.38,249.48C551.93,248.19 556.2,239.78 556.74,231.07C557.65,234.95 564.01,235.52 567.1,237.42C564.27,238.15 563.65,249.21 567.7,248.35C561.77,250.95 566.98,252.74 569.79,254.63C570.25,252.47 569.67,250.54 571.57,249.05C572.4,254.01 573.95,257.06 576.91,261.04C576.89,264.26 575.86,267.18 575.24,270.29C578.61,269.85 575.38,275.96 573.67,276.25C570.3,278.22 569.24,282.19 565.3,283.84C565.83,280.39 565.74,280.06 563.17,277.7L562.85,276.76C562.87,275.46 564.18,273.59 562.63,272.82C562.92,268.99 559.8,271.94 559.28,273.82C559.08,272.65 558.85,271.49 558.58,270.34C540.04,264.49 522.78,261.23 503.28,259.2C502.5,260.18 502.11,261.53 501.61,262.68C500.4,260.11 499.17,257.08 496.24,260.28C495.69,264.49 496.34,268.75 495.51,272.97C494.52,275.68 496.8,276.24 498.01,278.28C497.64,282.45 499.43,286.78 500.17,290.87C500.32,292.77 503.67,292.48 505.03,292.67C504.97,294.75 500.95,298.96 504.99,298.72C502.48,302.29 504.14,306.33 501.11,308.32C501,310.45 501.66,312.67 501.97,314.78C501.04,313.89 500.14,312.96 499.18,312.09C499.02,314.75 499.01,317.41 498.72,320.06C497.26,316.7 496.72,313.24 497.08,309.58C501.01,310.48 501.15,306.66 497.21,307.38C496.11,300.07 497.01,289.61 494.11,282.99C494.42,293.85 495.87,304.74 495.71,315.68C494.78,318.42 490.95,317.6 492.81,321.11C493.62,324.56 493.87,321.24 494.9,320C495.59,328.29 492.84,335.02 490.89,342.93C490.23,346.33 486.97,345.11 485.23,347.99C484.74,346.9 484.24,345.81 483.73,344.73L484.24,343.18C485.91,338.81 487.43,333.37 486.37,328.72L486.11,327.05C487.49,325.82 487.39,324.65 486.93,322.98L487.18,322.19C487.55,321.21 487.91,320.22 488.28,319.23C495.47,313.4 489.41,306.28 489.05,299.02C488.73,294.75 489.36,290.37 488.82,286.14C486.94,282.93 484.3,279.9 485.88,275.91C487.24,272.28 487.64,270.15 487.04,266.29C490.64,269.61 488.12,265.19 488.18,263.12C489.57,264.33 490.91,266.19 492.7,266.71C495.16,263.57 495.64,259.02 495.73,255.16C493.84,250.69 493.64,247.82 495.06,243.2C495.42,241.55 496.34,237.52 494.31,236.78C495.14,234.97 497.07,233.62 498.66,232.5C500.16,233.85 501.43,236.48 503.46,236.92C503.72,232.64 505.45,229.14 506.92,225.17Z" style="fill:rgb(72,47,54);fill-rule:nonzero;"/>
                <path d="M574.66,230.76C574.99,234.52 575.27,238.16 574.78,241.92C574.23,241.9 573.71,241.69 573.23,241.28C574.3,237.81 573.79,234.27 574.66,230.76Z" style="fill:rgb(162,134,138);fill-rule:nonzero;"/>
                <path d="M577.66,234.75C578.02,237.97 578.01,241.02 577.71,244.24C576.65,240.99 576.79,238.02 577.66,234.75Z" style="fill:rgb(124,87,79);fill-rule:nonzero;"/>
                <path d="M494.31,236.78C496.34,237.52 495.42,241.55 495.06,243.2C493.64,247.82 493.84,250.69 495.73,255.16C495.64,259.02 495.16,263.57 492.7,266.71C490.91,266.19 489.57,264.33 488.18,263.12C488.12,265.19 490.64,269.61 487.04,266.29C487.64,270.15 487.24,272.28 485.88,275.91C484.3,279.9 486.94,282.93 488.82,286.14C489.36,290.37 488.73,294.75 489.05,299.02C489.41,306.28 495.47,313.4 488.28,319.23C488.98,315.09 489.83,311.51 487.27,307.78C487.1,306.54 486.93,305.3 486.77,304.05C487.38,302.13 487.6,300.6 486.2,298.96C486.36,289.41 481.93,280.82 481.67,271.23C481.92,267.92 482.59,264.99 481.06,261.87L480.81,261.06C480.84,256.45 482.75,252.65 484.86,248.67C485.5,250.47 485.51,252.06 485.4,253.94C487.56,252.52 488.52,247.99 489.66,252.89C491,247.49 492.29,241.97 494.31,236.78Z" style="fill:rgb(83,72,75);fill-rule:nonzero;"/>
                <path d="M588.08,248.84C590.99,251.66 594.23,253.13 597.87,254.9C601.7,255.69 601.86,261.77 603.65,264.83C601.39,267.36 598.01,267.39 599.44,271.63C601.71,275.02 594.13,277.98 599.76,278.27C596.93,279.51 595.32,281.9 599.78,281.74C608.53,283.56 605.69,289.5 605.7,296.2C608.16,299.5 606.49,302.68 611.86,301.58C613.07,304.28 616.99,308.31 614.05,310.86C611.53,316.82 615.55,325.05 616.49,330.6C614.59,335.34 619.65,337.3 616.42,341.03C619.07,344.02 618.8,346.73 619.66,350.37C620.92,354.08 623.95,353.54 627.04,354.54C627.49,351.18 624.92,349.39 624.93,346.14C627.56,349.59 633.45,352.71 631.84,357.57C626.91,356.07 629.53,364.18 627.94,366.98C625.94,370.83 631.94,370.5 633.97,372.03C634.92,375.71 636.14,379.12 635.99,382.99C635.38,390.89 639.38,396.81 641.31,404.82C636.59,406.38 635.28,399.48 632.09,396.85C629.84,394.68 630.84,390.64 630.21,387.68C636.63,388.67 636.46,381.13 632.6,378.4C629.29,374.09 633.31,385.59 629.58,383.35C627.65,382.77 625.84,381.97 623.99,381.16C622.31,373.56 621.71,365.44 619.09,357.98C617.48,351.18 613.07,346.34 612.81,339.04C612.66,333.28 609.4,329.97 606.21,325.64C606.19,323.34 604.46,316.74 608.64,318.37C612.5,319.09 610.34,313.87 610.21,311.92C609.71,304.85 598.4,305.09 599.4,297.69C596.47,290.31 592.86,283.47 592.11,275.37C588.86,268.83 589.83,264.78 590.54,258.1C588.35,256.79 587.44,250.45 585.01,251.78C585.21,249.55 585.23,247.24 588.08,248.84Z" style="fill:rgb(215,175,157);fill-rule:nonzero;"/>
                <path d="M590.54,258.1C589.83,264.78 588.86,268.83 592.11,275.37C592.86,283.47 596.47,290.31 599.4,297.69C598.4,305.09 609.71,304.85 610.21,311.92C610.34,313.87 612.5,319.09 608.64,318.37C604.46,316.74 606.19,323.34 606.21,325.64C609.4,329.97 612.66,333.28 612.81,339.04C613.07,346.34 617.48,351.18 619.09,357.98C621.71,365.44 622.31,373.56 623.99,381.16C623.94,385.81 620.7,390.01 621,394.93C622.24,397.89 623.82,398.68 622,402C619.81,406.06 621.88,408.4 623.69,411.93C623.98,409.85 624.07,407.83 624.95,405.88L625.93,405.92C626.07,410.31 626.24,414.62 625.41,418.96C623.23,419.87 622.39,420.35 620.77,418.3C618.73,413.13 619.71,406.33 617.88,401.12C615.28,394.69 619.13,390.85 621.41,385.27C624.37,380.84 620.42,374.33 619.5,369.63C618.98,363.62 616.76,359.05 614.53,353.63C613.62,346.43 610.06,340.66 606.93,334.02C604.69,329.77 601.03,324.81 603.69,319.96C601.26,315.66 597.93,309.48 599.11,304.45C597.97,302.98 596.78,301.57 595.89,299.92C592.51,286.23 586.33,274.66 586.99,259.99C586.45,257.9 588.47,254 584.86,255.9C584.9,254.53 584.95,253.15 585.01,251.78C587.44,250.45 588.35,256.79 590.54,258.1Z" style="fill:rgb(191,154,137);fill-rule:nonzero;"/>
                <path d="M586.99,259.99C586.33,274.66 592.51,286.23 595.89,299.92C593.8,303.83 594.5,303.35 590.91,301.07C589.88,298.85 588.87,296.63 588.01,294.34C589.13,294.01 589.75,293.49 589.88,292.79C588.6,281.95 585.27,271.71 584.35,260.82C584.44,259.17 584.64,257.54 584.86,255.9C588.47,254 586.45,257.9 586.99,259.99Z" style="fill:rgb(155,124,108);fill-rule:nonzero;"/>
                <path d="M581.33,257.78C582.44,260.22 581.02,265.38 584.35,260.82C585.27,271.71 588.6,281.95 589.88,292.79C589.75,293.49 589.13,294.01 588.01,294.34C585.52,289.62 584.29,284.17 581.29,279.79C585.63,274.54 581.69,265.32 580.89,259.89L581.33,257.78Z" style="fill:rgb(116,95,86);fill-rule:nonzero;"/>
                <path d="M501.61,262.68C502.11,261.53 502.5,260.18 503.28,259.2C522.78,261.23 540.04,264.49 558.58,270.34C558.85,271.49 559.08,272.65 559.28,273.82C559.8,271.94 562.92,268.99 562.63,272.82C561.74,275.12 561.31,277.29 559.38,278.97C558.31,277.06 559,269.92 555.71,271.17C554.87,275.13 552.52,279.22 552.78,283.26C549.36,281.28 544.25,281.86 541.69,278.96C542.12,275.46 541.66,272.22 541.09,268.78C545.14,266.7 528.7,263.03 535.82,267.21C539.59,268.9 533.22,275.98 536.2,277.52C538.75,277.95 536.38,265.77 541.09,268.78C537.81,271.97 540.9,280.28 535.1,278.98C530.03,278.7 538.16,268.62 533.76,268.35C528.29,266.41 530.98,279.21 525.29,276.62C523.39,275.34 521.85,276.73 520.03,276.05C517.7,274.23 519,266.17 517.14,265.41C510.12,268.6 520.74,271.14 515.76,275.69C509.3,274.36 501.46,275.06 495.51,272.97C496.34,268.75 495.69,264.49 496.24,260.28C499.17,257.08 500.4,260.11 501.61,262.68Z" style="fill:rgb(116,102,107);fill-rule:nonzero;"/>
                <path d="M580.89,259.89C581.69,265.32 585.63,274.54 581.29,279.79C578.28,283.39 577.68,287.58 575.53,291.57C571.65,297.45 573.65,304.17 571.34,311.01C567.77,311.04 569.89,312.49 569.87,314.69C568.07,322.5 573.17,329.29 574.8,337.3C577.05,340.87 574.43,348.04 579.55,348.31L579.64,349.83C579.09,351.99 578.92,352.98 580.1,354.97C582.11,358.91 582.21,363.13 583.49,367.39C584.41,371.88 582.15,376.26 587.09,378.97C584.68,378.35 582.86,385.9 586.15,384.93C585.51,386.17 584.66,387.5 584.43,388.88C583.68,392.34 583.83,395.61 584.72,399.02C583.41,404.63 585.57,404.68 590.13,406.87L590.73,407.12L591.26,408.94C590.85,410.68 590.57,412.4 590.91,414.18C590.45,412.51 590.05,410.82 589.57,409.15C586.75,409.45 585.75,410.55 584.91,413.1L584.16,412.78C582.16,411.83 580.31,411.28 578.1,411.06L577.29,410.94C576.19,410.61 575.09,410.29 573.99,409.96C579.45,406.04 567.02,409.12 572.6,403.09C565.46,402.28 558.07,401.82 550.95,402.87C554.42,400.46 557.75,401.36 561.65,400.69C565.05,395.94 568.16,391.75 566.88,385.57C565.24,385.62 563.6,385.77 561.96,385.8C566.93,382.56 573.3,384.23 578.05,381.3C575.71,381.04 573.37,380.95 571.03,380.79C572.96,379.34 578.29,379.06 576.11,375.74C575.98,373.3 573.61,374.86 572.01,374.64C573.84,373.08 575.86,371.8 577.75,370.32C574.86,368.97 572.65,367.25 569.31,367.84C570.3,366.42 574.35,363.78 569.98,364.48C566.6,363.62 566.96,369.44 564.11,366.87C565.41,363.59 569.31,362.09 571.13,358.99C569.65,355.64 566.28,357.76 564.75,355.26C569.27,352.12 565.56,352.34 563.38,349.59C563,346.75 563.96,344.63 561.2,342.81C558.64,342.02 564.13,338.23 561.96,337.16C558.61,335.82 559.75,328.75 555.87,327.96C551.45,325.67 546.17,328.93 541.15,327.96C544.43,326.08 553.16,326.15 557.84,323.82C553.45,318.3 549.04,320.81 543.94,318.3C548.28,317.96 552.54,317.94 556.77,316.75C553.64,308.75 549.22,314.31 543.95,310.24C548.58,309.33 554.75,311.19 558.84,308.95C557.19,306.93 556.26,306.25 556.44,303.47C554.53,302.8 552.63,302.37 550.92,301.23C554.07,300.47 557.78,301.93 560.68,300.98C559.4,297.41 558.54,296.54 560.67,293.03C552.44,288.55 544.85,291.7 539.01,282.44C542.98,282.75 541.25,281.9 541.69,278.96C544.25,281.86 549.36,281.28 552.78,283.26C555.46,283.69 555.19,281.88 557.51,284.51C561.77,287.16 562.11,280.23 563.17,277.7C565.74,280.06 565.83,280.39 565.3,283.84C569.24,282.19 570.3,278.22 573.67,276.25C575.38,275.96 578.61,269.85 575.24,270.29C575.86,267.18 576.89,264.26 576.91,261.04C578.28,258.87 578.67,259.59 580.89,259.89Z" style="fill:rgb(36,29,32);fill-rule:nonzero;"/>
                <path d="M498.19,261.05C500.66,261.38 501,266.23 502.71,268.03C503.72,264.41 501.04,260.15 506.62,260.97C504.64,264.8 505.07,268.92 503.72,272.94C502.07,270.38 500.89,267.56 499.23,264.99C498.69,266.44 499.75,272.97 498.12,272.73C497.85,268.91 497.86,264.85 498.19,261.05Z" style="fill:rgb(34,24,27);fill-rule:nonzero;"/>
                <path d="M508.59,261C510.98,261.12 513.35,261.65 515.63,262.35C517.38,265.5 511.22,261.77 510.94,263.96C510.23,265.75 509.83,265.69 511.56,266.82C512.49,265.11 511.62,263.13 513.84,265.23C512.93,267.21 511.3,268.33 509.98,270.1C509.63,272.92 513.17,272.37 515,272.66C515.15,274.95 509.62,273.8 508.16,273.83C507.45,269.47 509.02,265.4 508.59,261Z" style="fill:rgb(46,34,38);fill-rule:nonzero;"/>
                <path d="M481.06,261.87C482.59,264.99 481.92,267.92 481.67,271.23C480.84,268.13 480.99,265.04 481.06,261.87Z" style="fill:rgb(181,180,180);fill-rule:nonzero;"/>
                <path d="M518.07,262.11C522.1,263.15 520.53,265.68 521.32,268.91C523.65,269.12 523.63,266.67 524.6,265.13C526.14,266.23 525.55,270.57 527.63,269.66C528.97,267.21 528.07,263.65 531.76,263.96C530.13,267.93 528.51,271.97 526.67,275.85C524.64,275 525.14,271.82 524.6,270C523.19,271.38 522.24,274.72 520.19,274.96C519.65,270.27 520.99,266.25 518.07,262.11Z" style="fill:rgb(40,28,33);fill-rule:nonzero;"/>
                <path d="M517.14,265.41C519,266.17 517.7,274.23 520.03,276.05C521.85,276.73 523.39,275.34 525.29,276.62C530.98,279.21 528.29,266.41 533.76,268.35C538.16,268.62 530.03,278.7 535.1,278.98C540.9,280.28 537.81,271.97 541.09,268.78C541.66,272.22 542.12,275.46 541.69,278.96C541.25,281.9 542.98,282.75 539.01,282.44C544.85,291.7 552.44,288.55 560.67,293.03C558.54,296.54 559.4,297.41 560.68,300.98C557.78,301.93 554.07,300.47 550.92,301.23C552.63,302.37 554.53,302.8 556.44,303.47C556.26,306.25 557.19,306.93 558.84,308.95C554.75,311.19 548.58,309.33 543.95,310.24C549.22,314.31 553.64,308.75 556.77,316.75C552.54,317.94 548.28,317.96 543.94,318.3C549.04,320.81 553.45,318.3 557.84,323.82C553.16,326.15 544.43,326.08 541.15,327.96C546.17,328.93 551.45,325.67 555.87,327.96C559.75,328.75 558.61,335.82 561.96,337.16C564.13,338.23 558.64,342.02 561.2,342.81C563.96,344.63 563,346.75 563.38,349.59C565.56,352.34 569.27,352.12 564.75,355.26C559.58,356.77 555.51,358.77 549.99,357.25C543.41,358.73 536.88,359.33 530.22,360.32C529.83,362.75 529.85,365.28 530.2,367.71C532.06,367.97 533.94,368.03 535.8,368.29C536.16,370.77 536.14,373.33 535.81,375.81C533.31,376.14 530.73,376.15 528.23,375.81C527.95,373.3 528.05,370.72 527.77,368.23C525.26,367.95 522.69,368.05 520.17,367.78C519.73,364.85 520.21,362.14 520.46,359.24C517.19,358.9 513.1,357.55 510.05,359.05C504.73,362.83 496.52,358.36 490.26,359.01C490.27,363.54 494.5,364.31 493.61,368.7C498,367.78 494.88,370.29 494.65,372.7C496.48,374.28 497.79,378.09 498.27,373.22C499.42,377.71 504.83,376.29 501.78,380.81C499.4,380.05 491.72,372.92 495.64,380.09C493.81,379.06 492.09,377.87 490.22,376.92C491.04,378.31 491.95,379.65 492.78,381.03C489.44,379.52 486.23,377.58 482.82,376.22C482.31,379.44 476.22,376.65 477.89,381.2C480.05,384.17 475.57,382.62 473.91,383.28C473.7,381.07 475.26,378.43 475.34,376.06C475.84,375.06 476.18,374.05 476.37,373.01C480.21,374.02 479.81,374.18 480.58,370.24C484.08,366.73 482.6,362.03 485.6,358C484.57,354.35 484.94,351.63 485.23,347.99C486.97,345.11 490.23,346.33 490.89,342.93C492.84,335.02 495.59,328.29 494.9,320C493.87,321.24 493.62,324.56 492.81,321.11C490.95,317.6 494.78,318.42 495.71,315.68C495.87,304.74 494.42,293.85 494.11,282.99C497.01,289.61 496.11,300.07 497.21,307.38C501.15,306.66 501.01,310.48 497.08,309.58C496.72,313.24 497.26,316.7 498.72,320.06C499.01,317.41 499.02,314.75 499.18,312.09C500.14,312.96 501.04,313.89 501.97,314.78C501.66,312.67 501,310.45 501.11,308.32C504.14,306.33 502.48,302.29 504.99,298.72C500.95,298.96 504.97,294.75 505.03,292.67C503.67,292.48 500.32,292.77 500.17,290.87C499.43,286.78 497.64,282.45 498.01,278.28C496.8,276.24 494.52,275.68 495.51,272.97C501.46,275.06 509.3,274.36 515.76,275.69C520.74,271.14 510.12,268.6 517.14,265.41Z" style="fill:rgb(63,35,45);fill-rule:nonzero;"/>
                <path d="M541.09,268.78C536.38,265.77 538.75,277.95 536.2,277.52C533.22,275.98 539.59,268.9 535.82,267.21C528.7,263.03 545.14,266.7 541.09,268.78Z" style="fill:rgb(35,21,25);fill-rule:nonzero;"/>
                <path d="M551.78,270.31C551.67,274.67 551.37,282.6 544.79,279.41C550.09,278.96 550.4,274.39 549.84,270.1C544.03,268.45 545.48,275.92 544.79,279.41C541.3,278.97 543.87,272.46 544.43,270.37C545.84,266.77 549.7,268.52 551.78,270.31Z" style="fill:rgb(45,32,37);fill-rule:nonzero;"/>
                <path d="M549.84,270.1C550.4,274.39 550.09,278.96 544.79,279.41C545.48,275.92 544.03,268.45 549.84,270.1Z" style="fill:rgb(119,108,113);fill-rule:nonzero;"/>
                <path d="M547.35,271.04C549.8,272.12 547.85,276.87 546.27,278.04C546.51,275.69 546.9,273.36 547.35,271.04Z" style="fill:rgb(38,28,33);fill-rule:nonzero;"/>
                <path d="M555.71,271.17C559,269.92 558.31,277.06 559.38,278.97C561.31,277.29 561.74,275.12 562.63,272.82C564.18,273.59 562.87,275.46 562.85,276.76C561.42,279.17 560.4,281.78 559,284.2C557.2,281.97 557.37,277.73 556.54,274.97C554.93,277.84 555.64,280.74 552.78,283.26C552.52,279.22 554.87,275.13 555.71,271.17Z" style="fill:rgb(32,20,24);fill-rule:nonzero;"/>
                <path d="M556.54,274.97C557.37,277.73 557.2,281.97 559,284.2C560.4,281.78 561.42,279.17 562.85,276.76L563.17,277.7C562.11,280.23 561.77,287.16 557.51,284.51C555.19,281.88 555.46,283.69 552.78,283.26C555.64,280.74 554.93,277.84 556.54,274.97Z" style="fill:rgb(97,84,87);fill-rule:nonzero;"/>
                <path d="M486.2,298.96C487.6,300.6 487.38,302.13 486.77,304.05C485.44,302.4 485.62,300.88 486.2,298.96Z" style="fill:rgb(162,162,162);fill-rule:nonzero;"/>
                <path d="M595.89,299.92C596.78,301.57 597.97,302.98 599.11,304.45C597.93,309.48 601.26,315.66 603.69,319.96C601.03,324.81 604.69,329.77 606.93,334.02C610.06,340.66 613.62,346.43 614.53,353.63C616.76,359.05 618.98,363.62 619.5,369.63C620.42,374.33 624.37,380.84 621.41,385.27C617.44,371.77 610.99,359.11 606.16,345.88C601.26,330.86 596.96,315.71 590.91,301.07C594.5,303.35 593.8,303.83 595.89,299.92Z" style="fill:rgb(170,146,136);fill-rule:nonzero;"/>
                <path d="M487.27,307.78C489.83,311.51 488.98,315.09 488.28,319.23C487.91,320.22 487.55,321.21 487.18,322.19C486.57,317.19 486.67,312.79 487.27,307.78Z" style="fill:rgb(174,170,173);fill-rule:nonzero;"/>
                <path d="M571.34,311.01C572.22,317.06 570.18,321.62 573.5,327.59C576.18,334.26 578.08,341.29 579.55,348.31C574.43,348.04 577.05,340.87 574.8,337.3C573.17,329.29 568.07,322.5 569.87,314.69C569.89,312.49 567.77,311.04 571.34,311.01Z" style="fill:rgb(118,113,114);fill-rule:nonzero;"/>
                <path d="M486.93,322.98C487.39,324.65 487.49,325.82 486.11,327.05C485.59,325.36 485.5,324.22 486.93,322.98Z" style="fill:rgb(157,157,159);fill-rule:nonzero;"/>
                <path d="M486.37,328.72C487.43,333.37 485.91,338.81 484.24,343.18C484.13,338.22 484.58,333.39 486.37,328.72Z" style="fill:rgb(141,140,143);fill-rule:nonzero;"/>
                <path d="M483.73,344.73C484.24,345.81 484.74,346.9 485.23,347.99C484.94,351.63 484.57,354.35 485.6,358C482.6,362.03 484.08,366.73 480.58,370.24C479.81,374.18 480.21,374.02 476.37,373.01L475.74,371.05C478,362.07 481.36,353.68 483.73,344.73Z" style="fill:rgb(77,73,76);fill-rule:nonzero;"/>
                <path d="M579.64,349.83C580.34,351.56 581.14,353.23 582.11,354.82L580.1,354.97C578.92,352.98 579.09,351.99 579.64,349.83Z" style="fill:rgb(162,160,161);fill-rule:nonzero;"/>
                <path d="M564.75,355.26C566.28,357.76 569.65,355.64 571.13,358.99C569.31,362.09 565.41,363.59 564.11,366.87C566.96,369.44 566.6,363.62 569.98,364.48C574.35,363.78 570.3,366.42 569.31,367.84C572.65,367.25 574.86,368.97 577.75,370.32C575.86,371.8 573.84,373.08 572.01,374.64C573.61,374.86 575.98,373.3 576.11,375.74C571.23,375.95 568.34,378.88 564.08,380.95C562.58,385.08 557.61,383.63 554.07,385C554.7,383.38 555.37,381.78 555.93,380.14C554.25,381.36 552.68,382.71 550.93,383.85C552.32,380.51 554.99,378.53 556,375.05C552.61,377.13 550.91,381.8 547.98,384.35C544.3,381.98 543.13,389.28 538.67,388.45C538.58,393.76 534.74,399.83 529.59,401.65C525.93,404.71 523.48,399.58 520.96,397.68C516.73,399.91 516.67,394.79 513.18,393.9C516.2,400.86 520.53,406.71 525.19,412.58C523.8,412.09 522.44,411.53 521.02,411.12C521.01,413.23 526.61,417.49 521.75,416.62C517.65,419.09 525.09,424.13 520.96,426.09C520.06,425.64 519.16,425.2 518.26,424.76C516.99,424.1 515.71,423.47 514.42,422.87L513.07,421.97C513.8,420.79 515.65,420.43 513.72,419.31C507.65,415.05 497.3,410.46 491.85,406.29C496.22,407.31 500.23,409.23 504.66,410.11C504.21,409.37 503.76,408.62 503.32,407.88C507.5,408.12 510.69,410.16 514.65,411.16C513.07,408.61 512.98,409.45 515.89,408.52C511.27,405.45 506.41,402.64 501.97,399.32C504.52,399.08 507.64,401.68 506.41,397.43C501.33,395.77 498.86,392.85 493.16,393.72C487.65,390.84 480.87,392.57 475.93,389.18C481.35,388.24 485.64,391.38 491.01,390.92C488.79,389.66 486.56,389.16 484.96,387.13C487.34,387.19 489.66,387.6 492.03,387.77C488.08,385.87 478.03,381.69 474.83,385.97C474.51,385.08 474.2,384.18 473.91,383.28C475.57,382.62 480.05,384.17 477.89,381.2C476.22,376.65 482.31,379.44 482.82,376.22C486.23,377.58 489.44,379.52 492.78,381.03C491.95,379.65 491.04,378.31 490.22,376.92C492.09,377.87 493.81,379.06 495.64,380.09C491.72,372.92 499.4,380.05 501.78,380.81C504.83,376.29 499.42,377.71 498.27,373.22C497.79,378.09 496.48,374.28 494.65,372.7C494.88,370.29 498,367.78 493.61,368.7C494.5,364.31 490.27,363.54 490.26,359.01C496.52,358.36 504.73,362.83 510.05,359.05C513.1,357.55 517.19,358.9 520.46,359.24C520.21,362.14 519.73,364.85 520.17,367.78C522.69,368.05 525.26,367.95 527.77,368.23C528.05,370.72 527.95,373.3 528.23,375.81C530.73,376.15 533.31,376.14 535.81,375.81C536.14,373.33 536.16,370.77 535.8,368.29C533.94,368.03 532.06,367.97 530.2,367.71C529.85,365.28 529.83,362.75 530.22,360.32C536.88,359.33 543.41,358.73 549.99,357.25C555.51,358.77 559.58,356.77 564.75,355.26Z" style="fill:rgb(56,30,41);fill-rule:nonzero;"/>
                <path d="M580.1,354.97L582.11,354.82C585.26,361.68 585.79,371.59 587.09,378.97C582.15,376.26 584.41,371.88 583.49,367.39C582.21,363.13 582.11,358.91 580.1,354.97Z" style="fill:rgb(106,103,104);fill-rule:nonzero;"/>
                <path d="M475.74,371.05L476.37,373.01C476.18,374.05 475.84,375.06 475.34,376.06C474.6,374.19 474.29,372.66 475.74,371.05Z" style="fill:rgb(161,159,162);fill-rule:nonzero;"/>
                <path d="M556,375.05C554.99,378.53 552.32,380.51 550.93,383.85C552.68,382.71 554.25,381.36 555.93,380.14C555.37,381.78 554.7,383.38 554.07,385C552,387 545.23,388.77 550.76,391.32C547.14,394.7 539.82,398.85 541.99,404.21C537.52,409.22 544.37,405.06 547.05,406.11C544.36,407.7 540.91,406.92 540.83,410.83L539.47,411.71C536.59,412.57 534.75,413.5 532.77,415.79L531.69,416.78C530.66,417.63 529.78,418.48 529.2,419.71C526.73,423.28 526.8,426.93 526.94,431.09C526.01,430.34 525.07,429.6 524.15,428.85C523.52,428.28 522.88,427.73 522.23,427.18L520.96,426.09C525.09,424.13 517.65,419.09 521.75,416.62C526.61,417.49 521.01,413.23 521.02,411.12C522.44,411.53 523.8,412.09 525.19,412.58C520.53,406.71 516.2,400.86 513.18,393.9C516.67,394.79 516.73,399.91 520.96,397.68C523.48,399.58 525.93,404.71 529.59,401.65C534.74,399.83 538.58,393.76 538.67,388.45C543.13,389.28 544.3,381.98 547.98,384.35C550.91,381.8 552.61,377.13 556,375.05Z" style="fill:rgb(32,17,23);fill-rule:nonzero;"/>
                <path d="M576.11,375.74C578.29,379.06 572.96,379.34 571.03,380.79C573.37,380.95 575.71,381.04 578.05,381.3C573.3,384.23 566.93,382.56 561.96,385.8C563.6,385.77 565.24,385.62 566.88,385.57C568.16,391.75 565.05,395.94 561.65,400.69C557.75,401.36 554.42,400.46 550.95,402.87C558.07,401.82 565.46,402.28 572.6,403.09C567.02,409.12 579.45,406.04 573.99,409.96L572.25,409.66C566.39,408.6 558.63,408.59 552.77,409.66C549.74,409.92 546.81,410.3 543.85,411.04C542.84,410.97 541.84,410.9 540.83,410.83C540.91,406.92 544.36,407.7 547.05,406.11C544.37,405.06 537.52,409.22 541.99,404.21C539.82,398.85 547.14,394.7 550.76,391.32C545.23,388.77 552,387 554.07,385C557.61,383.63 562.58,385.08 564.08,380.95C568.34,378.88 571.23,375.95 576.11,375.74Z" style="fill:rgb(62,39,49);fill-rule:nonzero;"/>
                <path d="M632.6,378.4C636.46,381.13 636.63,388.67 630.21,387.68C630.84,390.64 629.84,394.68 632.09,396.85C635.28,399.48 636.59,406.38 641.31,404.82C641.88,406.36 641.84,407.6 641.49,409.17C641.03,404.94 639.58,406.1 636.21,406.13C635.09,410.88 638.54,416.56 631.21,415.78C630.33,410.32 632.79,405.99 628.02,401.99C625.35,397.26 626.34,404.06 624.95,405.88C624.07,407.83 623.98,409.85 623.69,411.93C621.88,408.4 619.81,406.06 622,402C623.82,398.68 622.24,397.89 621,394.93C620.7,390.01 623.94,385.81 623.99,381.16C625.84,381.97 627.65,382.77 629.58,383.35C633.31,385.59 629.29,374.09 632.6,378.4Z" style="fill:rgb(211,160,143);fill-rule:nonzero;"/>
                <path d="M587.09,378.97C586.48,380.93 586.4,382.92 586.15,384.93C582.86,385.9 584.68,378.35 587.09,378.97Z" style="fill:rgb(114,106,109);fill-rule:nonzero;"/>
                <path d="M492.03,387.77C489.66,387.6 487.34,387.19 484.96,387.13C486.56,389.16 488.79,389.66 491.01,390.92C485.64,391.38 481.35,388.24 475.93,389.18C480.87,392.57 487.65,390.84 493.16,393.72C498.86,392.85 501.33,395.77 506.41,397.43C507.64,401.68 504.52,399.08 501.97,399.32C506.41,402.64 511.27,405.45 515.89,408.52C512.98,409.45 513.07,408.61 514.65,411.16C510.69,410.16 507.5,408.12 503.32,407.88C503.76,408.62 504.21,409.37 504.66,410.11C500.23,409.23 496.22,407.31 491.85,406.29C497.3,410.46 507.65,415.05 513.72,419.31C515.65,420.43 513.8,420.79 513.07,421.97C507.84,419.16 502.18,416.36 496.38,415.03C489.11,412.64 475.92,410.75 469.89,416.42C469.02,413.94 468.79,411.39 468.67,408.78C469.75,404.81 469.59,400.22 471.78,396.79C473.93,393.32 472.05,389.41 474.83,385.97C478.03,381.69 488.08,385.87 492.03,387.77Z" style="fill:rgb(68,48,55);fill-rule:nonzero;"/>
                <path d="M586.15,384.93L586.98,385.25C586.7,388.49 586.75,394.29 585.2,396.91C584.98,394.22 584.88,391.54 584.43,388.88C584.66,387.5 585.51,386.17 586.15,384.93Z" style="fill:rgb(86,76,77);fill-rule:nonzero;"/>
                <path d="M586.98,385.25C588.4,388.27 589.41,397.84 590.18,402.04C588.34,401.07 586.52,400.06 584.72,399.02C583.83,395.61 583.68,392.34 584.43,388.88C584.88,391.54 584.98,394.22 585.2,396.91C586.75,394.29 586.7,388.49 586.98,385.25Z" style="fill:rgb(152,144,144);fill-rule:nonzero;"/>
                <path d="M487.28,397.36C492.57,398.75 501.06,396.44 498.96,404.68C494.21,403.65 488.34,402.43 484.75,398.95C485.54,398.29 486.38,397.76 487.28,397.36Z" style="fill:rgb(154,137,146);fill-rule:nonzero;"/>
                <path d="M584.72,399.02C586.52,400.06 588.34,401.07 590.18,402.04C589.82,403.68 589.64,405.24 590.13,406.87C585.57,404.68 583.41,404.63 584.72,399.02Z" style="fill:rgb(70,64,64);fill-rule:nonzero;"/>
                <path d="M628.02,401.99C628.03,403.3 628.05,404.6 628.07,405.91L625.93,405.92L624.95,405.88C626.34,404.06 625.35,397.26 628.02,401.99Z" style="fill:rgb(141,94,81);fill-rule:nonzero;"/>
                <path d="M590.18,402.04C591.49,403.72 591.4,405.19 590.73,407.12L590.13,406.87C589.64,405.24 589.82,403.68 590.18,402.04Z" style="fill:rgb(187,183,181);fill-rule:nonzero;"/>
                <path d="M628.02,401.99C632.79,405.99 630.33,410.32 631.21,415.78C638.54,416.56 635.09,410.88 636.21,406.13C639.58,406.1 641.03,404.94 641.49,409.17C640.39,414.66 639.77,420.38 635.27,424.27C632.18,426.77 628.52,429.14 624.86,430.69C623.23,430.47 619.29,431.81 620.02,428.98C619.73,425.99 624.84,424.49 626.24,422.06C629.72,417.24 630.48,411.39 628.07,405.91C628.05,404.6 628.03,403.3 628.02,401.99Z" style="fill:rgb(184,139,127);fill-rule:nonzero;"/>
                <path d="M625.93,405.92L628.07,405.91C630.48,411.39 629.72,417.24 626.24,422.06C625.97,421.03 625.7,419.99 625.41,418.96C626.24,414.62 626.07,410.31 625.93,405.92Z" style="fill:rgb(247,225,214);fill-rule:nonzero;"/>
                <path d="M468.67,408.78C468.79,411.39 469.02,413.94 469.89,416.42C468.9,417.26 468.83,417.49 467.48,417.06C467.86,414.28 468.08,411.53 468.67,408.78Z" style="fill:rgb(136,127,126);fill-rule:nonzero;"/>
                <path d="M572.25,409.66C565.8,410.19 559.22,410.19 552.77,409.66C558.63,408.59 566.39,408.6 572.25,409.66Z" style="fill:rgb(129,110,104);fill-rule:nonzero;"/>
                <path d="M589.57,409.15C590.05,410.82 590.45,412.51 590.91,414.18L591.14,416.19C588.5,417.11 586.92,414.37 584.91,413.1C585.75,410.55 586.75,409.45 589.57,409.15Z" style="fill:rgb(80,65,65);fill-rule:nonzero;"/>
                <path d="M591.26,408.94C592.56,410.96 592.72,412.4 590.91,414.18C590.57,412.4 590.85,410.68 591.26,408.94Z" style="fill:rgb(123,118,121);fill-rule:nonzero;"/>
                <path d="M552.77,409.66C559.22,410.19 565.8,410.19 572.25,409.66L573.99,409.96C575.09,410.29 576.19,410.61 577.29,410.94C574.74,412.03 571.9,413.06 569.56,414.56C567.39,417.19 566.55,420.78 563.11,421.97C560.4,418.81 559.72,418.17 555.46,417.51C554.85,415.98 549.64,412.29 550.33,416.01C548.34,413.98 546.54,412.15 543.85,411.04C546.81,410.3 549.74,409.92 552.77,409.66Z" style="fill:rgb(218,186,168);fill-rule:nonzero;"/>
                <path d="M540.83,410.83C541.84,410.9 542.84,410.97 543.85,411.04C546.54,412.15 548.34,413.98 550.33,416.01C549.64,412.29 554.85,415.98 555.46,417.51C559.72,418.17 560.4,418.81 563.11,421.97C566.55,420.78 567.39,417.19 569.56,414.56C571.9,413.06 574.74,412.03 577.29,410.94L578.1,411.06C581.77,412.44 574.21,417.79 574.72,420.39C576.27,425.83 574.69,431.18 572.27,436.07C573.06,440.83 572.99,440.23 569.66,443.43C568.94,446.25 568.11,452.12 563.87,450.21C560.2,449.08 560.29,447.79 560.93,444.41C555.77,448.19 560.68,440.66 560.82,439.01C557.07,438.11 555.78,441.76 552.46,440.02C556.32,435.52 549.78,435.95 548.2,431.78C545.33,428.73 550.15,428.11 547.61,424.41C550.65,423.55 549.39,421.55 549.43,419.15C546.03,418.54 545.1,418.53 542.69,415.8C539.32,415.55 539.66,414.7 539.47,411.71L540.83,410.83Z" style="fill:rgb(211,168,149);fill-rule:nonzero;"/>
                <path d="M578.1,411.06C580.31,411.28 582.16,411.83 584.16,412.78C579.61,412.73 585.73,414.65 584.59,416.64C582.52,421.8 582.73,427.02 580.66,432.2C582.31,439.95 577.92,445.96 581.95,453.03C581.61,458.24 581.58,463.73 580.95,468.88C577.99,476.8 577.19,483.83 578.28,492.28C578.97,492.61 579.67,492.93 580.38,493.23C580.27,500.11 579.14,507.02 579.24,513.83C578.39,521.38 574.28,527.35 573.22,534.72C572.3,539.28 566.67,538.23 563.23,539.35C562.99,542.26 561.85,546.38 565.64,547.34C569.74,547.65 570.51,547.98 573.37,551.07C570.58,552.76 568.4,553.85 565.06,553.42C566.37,559.48 566.68,566.91 569.93,571.92C567.48,571.96 561.05,566.78 562.34,572.65C561.7,580.05 567.24,581.34 570.58,586.67C571.52,585.24 571.8,582.38 573.63,582.02C573.62,584.07 573.78,586.26 573.33,588.27C569.37,589.75 565.89,587.46 567.74,593.45C564.63,593.44 564,592.21 563.51,596.02C563.7,599.75 560.09,599.1 559.19,601.64C562.4,602.15 566.45,603.58 569.62,602.68C571.78,600.57 572.01,597.83 575.66,598.49C580.54,598.05 572.96,604.74 578.1,605.42C570.76,605.86 563.33,603.04 555.65,603.84C553.86,596.31 553.7,588.59 551.92,581.05C549.8,571.46 548.1,562.1 549.26,552.23C550.4,546.49 550.55,537.49 549.21,531.81C547.52,525.19 545.46,518.65 543.93,511.99C545.78,513.74 547.01,519.29 550.07,516.45C552.4,519.29 549.62,523.68 550.85,527C552.11,532.01 550.3,538.46 556.81,539.82C556.97,538 557,536.18 557.17,534.36C560.99,535.49 564.31,536.54 568.27,535.25C571.35,531.84 572.67,526.22 573.82,521.84C574.71,519.63 571.71,517.98 570.44,516.52C568.3,514.28 566.87,517.4 564.14,515.88C565.8,513.19 568.73,511.15 569.98,508.27C564.75,507.52 562.3,509.51 561.21,503.05C565.13,505.21 569.34,504.59 573.58,505.86C575.25,500.53 574.97,495.7 575.98,490.25C576.84,485.2 574.87,482.65 573.35,478.31C570.9,477.2 567.84,482.29 570.63,484.22C567.14,483.89 567.91,480.17 564.58,479.9C564.68,482.78 565.59,485.51 561.38,484.83C560.82,479.6 558.65,475.01 556.92,470.11C553.98,468.16 551.86,464.32 548,465.47C549.65,463.35 554.08,457.35 548.12,458.61C548.17,454.69 548.51,447.56 553.87,447.93C552.02,445.22 552.79,443.69 549.35,445.82C550.74,441.04 546.4,442.16 548.79,438.07C547.56,434.78 546.02,431.59 544.74,428.32C543.45,428.69 540.79,432.34 540.43,429.66C540.63,425.99 539.96,423.65 538.52,420.3C535.98,420 534.57,422.49 532.76,419.8C532.73,418.47 532.74,417.13 532.77,415.79C534.75,413.5 536.59,412.57 539.47,411.71C539.66,414.7 539.32,415.55 542.69,415.8C545.1,418.53 546.03,418.54 549.43,419.15C549.39,421.55 550.65,423.55 547.61,424.41C550.15,428.11 545.33,428.73 548.2,431.78C549.78,435.95 556.32,435.52 552.46,440.02C555.78,441.76 557.07,438.11 560.82,439.01C560.68,440.66 555.77,448.19 560.93,444.41C560.29,447.79 560.2,449.08 563.87,450.21C568.11,452.12 568.94,446.25 569.66,443.43C572.99,440.23 573.06,440.83 572.27,436.07C574.69,431.18 576.27,425.83 574.72,420.39C574.21,417.79 581.77,412.44 578.1,411.06Z" style="fill:rgb(197,155,139);fill-rule:nonzero;"/>
                <path d="M496.38,415.03C491.96,416.2 487.51,417.53 483.06,415.95C480.35,414.89 477.44,418.6 474.67,418.45C471.71,418.36 469.12,420.73 469.47,423.76C469.3,434.72 467.37,445.32 468.11,456.27C467.95,460.18 468.03,464.08 467.95,467.99L467.04,468.03C467.27,451.1 466.39,433.91 467.48,417.06C468.83,417.49 468.9,417.26 469.89,416.42C475.92,410.75 489.11,412.64 496.38,415.03Z" style="fill:rgb(214,190,179);fill-rule:nonzero;"/>
                <path d="M584.16,412.78L584.91,413.1C586.92,414.37 588.5,417.11 591.14,416.19C592.16,428.47 586.72,441.47 585.72,453.77C583.27,466.75 582.2,480.13 580.38,493.23C579.67,492.93 578.97,492.61 578.28,492.28C577.19,483.83 577.99,476.8 580.95,468.88C581.58,463.73 581.61,458.24 581.95,453.03C577.92,445.96 582.31,439.95 580.66,432.2C582.73,427.02 582.52,421.8 584.59,416.64C585.73,414.65 579.61,412.73 584.16,412.78Z" style="fill:rgb(209,180,167);fill-rule:nonzero;"/>
                <path d="M483.06,415.95C487.51,417.53 491.96,416.2 496.38,415.03C502.18,416.36 507.84,419.16 513.07,421.97L514.42,422.87C512.67,424.04 510.94,425.2 509,426.04C506.58,427.49 504.6,423.81 502.75,426.73C500.14,429.18 506.32,431.78 501.31,432.5C496.61,432.67 493.01,435.1 488.3,434.87C488.18,433 488.73,431.02 487.76,429.39C486.31,429.11 484.53,430.6 483.05,430.92C483.13,428.73 484.82,427.31 484.97,425.14C481.36,426.58 479.94,427.21 476.28,425.52C475.78,429.49 475.67,429.39 472.33,431.33C471.92,438.07 469.53,444.23 470.01,451.01C469.73,453.1 470.77,455.59 468.11,456.27C467.37,445.32 469.3,434.72 469.47,423.76C469.12,420.73 471.71,418.36 474.67,418.45C477.44,418.6 480.35,414.89 483.06,415.95Z" style="fill:rgb(213,176,158);fill-rule:nonzero;"/>
                <path d="M532.77,415.79C532.74,417.13 532.73,418.47 532.76,419.8C533.84,423.33 533.13,426.24 533.46,429.55C539.35,433.36 538.95,435.31 540.35,441.81C546.24,437.95 545.48,445.43 543.74,448.91C545.14,455.33 544.41,462.13 546.64,468.25C548.22,468.81 551.4,467.43 548.99,470.02C545.67,472.42 550.05,476.12 549.39,479.83C554.2,476.77 557.42,478.74 556.97,484.44C551.13,482.48 551.55,490.09 548.42,493.43C546.83,500.14 566.75,496.42 558.52,491.6C560.73,489.62 562.82,487.43 565.16,485.63C569.87,486.54 572.43,486.46 575.98,490.25C574.97,495.7 575.25,500.53 573.58,505.86C569.34,504.59 565.13,505.21 561.21,503.05C562.3,509.51 564.75,507.52 569.98,508.27C568.73,511.15 565.8,513.19 564.14,515.88C566.87,517.4 568.3,514.28 570.44,516.52C571.71,517.98 574.71,519.63 573.82,521.84C572.67,526.22 571.35,531.84 568.27,535.25C564.31,536.54 560.99,535.49 557.17,534.36C557,536.18 556.97,538 556.81,539.82C550.3,538.46 552.11,532.01 550.85,527C549.62,523.68 552.4,519.29 550.07,516.45C547.01,519.29 545.78,513.74 543.93,511.99C542.99,509.52 542.15,507.03 541.69,504.43C547.08,502.85 543.74,496.65 543.11,492.82C541.14,486.04 540.35,478.73 539.26,471.78C535.98,457.97 533.56,444.1 530.66,430.24C530.97,425.74 530.97,421.25 531.69,416.78L532.77,415.79Z" style="fill:rgb(185,137,120);fill-rule:nonzero;"/>
                <path d="M531.69,416.78C530.97,421.25 530.97,425.74 530.66,430.24C529.79,426.74 530.27,423.18 529.2,419.71C529.78,418.48 530.66,417.63 531.69,416.78Z" style="fill:rgb(213,198,194);fill-rule:nonzero;"/>
                <path d="M532.76,419.8C534.57,422.49 535.98,420 538.52,420.3C539.96,423.65 540.63,425.99 540.43,429.66C540.79,432.34 543.45,428.69 544.74,428.32C546.02,431.59 547.56,434.78 548.79,438.07C546.4,442.16 550.74,441.04 549.35,445.82C552.79,443.69 552.02,445.22 553.87,447.93C548.51,447.56 548.17,454.69 548.12,458.61C554.08,457.35 549.65,463.35 548,465.47C551.86,464.32 553.98,468.16 556.92,470.11C558.65,475.01 560.82,479.6 561.38,484.83C565.59,485.51 564.68,482.78 564.58,479.9C567.91,480.17 567.14,483.89 570.63,484.22C567.84,482.29 570.9,477.2 573.35,478.31C574.87,482.65 576.84,485.2 575.98,490.25C572.43,486.46 569.87,486.54 565.16,485.63C562.82,487.43 560.73,489.62 558.52,491.6C566.75,496.42 546.83,500.14 548.42,493.43C551.55,490.09 551.13,482.48 556.97,484.44C557.42,478.74 554.2,476.77 549.39,479.83C550.05,476.12 545.67,472.42 548.99,470.02C551.4,467.43 548.22,468.81 546.64,468.25C544.41,462.13 545.14,455.33 543.74,448.91C545.48,445.43 546.24,437.95 540.35,441.81C538.95,435.31 539.35,433.36 533.46,429.55C533.13,426.24 533.84,423.33 532.76,419.8Z" style="fill:rgb(194,146,128);fill-rule:nonzero;"/>
                <path d="M514.42,422.87C515.71,423.47 516.99,424.1 518.26,424.76C519.21,427.45 521.15,427.74 517.09,428.19C513.71,430.56 520.53,440.3 515.13,442.05C512.72,439.52 512.13,437.55 508.09,437.97C509.05,439.03 512.96,440.45 508.99,439.98C505.03,440.49 507.75,437.58 504.77,438.22C502.3,445.69 498.68,451.23 499.45,459.57C503.03,459.11 501.91,461.27 502.59,463.86C499.99,465.39 497.85,464.3 495.09,464.17C493.96,467.55 499.26,470.17 493.97,470.76C491.66,470.85 493.44,463.74 494.58,462.08C488.58,461.41 482.55,460.48 478.28,455.68C477.82,453.3 479.03,450.6 478.92,448.12C475.89,447.14 473.51,450.13 471.01,448.52C470.33,455.96 473.05,465.11 470.4,472.21C469.6,479.14 473.1,485.22 471.79,492.27C469.17,484.53 467.9,476.15 467.95,467.99C468.03,464.08 467.95,460.18 468.11,456.27C470.77,455.59 469.73,453.1 470.01,451.01C469.53,444.23 471.92,438.07 472.33,431.33C475.67,429.39 475.78,429.49 476.28,425.52C479.94,427.21 481.36,426.58 484.97,425.14C484.82,427.31 483.13,428.73 483.05,430.92C484.53,430.6 486.31,429.11 487.76,429.39C488.73,431.02 488.18,433 488.3,434.87C493.01,435.1 496.61,432.67 501.31,432.5C506.32,431.78 500.14,429.18 502.75,426.73C504.6,423.81 506.58,427.49 509,426.04C510.94,425.2 512.67,424.04 514.42,422.87Z" style="fill:rgb(207,165,146);fill-rule:nonzero;"/>
                <path d="M518.26,424.76C519.16,425.2 520.06,425.64 520.96,426.09L522.23,427.18C517.6,431.42 521.79,432.91 520.43,438.14C519.75,440.36 523.41,444.15 519.77,444.37C516.01,444.94 516.83,455.22 512.28,451.45C512.71,457.75 506.53,454.97 510.35,460.62C512.33,465.26 509.59,463.2 506.73,463.74C505.62,468.55 506.31,470.9 500.59,468.12C501.09,473.41 498.21,477.49 500.33,482.46C498.72,487.43 497.37,489.41 498.88,494.87C496.37,493.64 493.9,492.51 491.1,492.07C492.9,494.85 495.8,496.12 494.86,499.9C490.38,500.76 491.99,496.18 488.32,494.7C483.94,493.34 487.33,487.22 489.51,485.21C487.04,483.66 486.09,480.52 483.36,479.67C475.92,478.05 480.9,470.55 472.38,470.87C473.46,473.92 475.43,476.18 477,478.86C471.06,481.95 473.59,486.54 472.74,492.05L471.79,492.27C473.1,485.22 469.6,479.14 470.4,472.21C473.05,465.11 470.33,455.96 471.01,448.52C473.51,450.13 475.89,447.14 478.92,448.12C479.03,450.6 477.82,453.3 478.28,455.68C482.55,460.48 488.58,461.41 494.58,462.08C493.44,463.74 491.66,470.85 493.97,470.76C499.26,470.17 493.96,467.55 495.09,464.17C497.85,464.3 499.99,465.39 502.59,463.86C501.91,461.27 503.03,459.11 499.45,459.57C498.68,451.23 502.3,445.69 504.77,438.22C507.75,437.58 505.03,440.49 508.99,439.98C512.96,440.45 509.05,439.03 508.09,437.97C512.13,437.55 512.72,439.52 515.13,442.05C520.53,440.3 513.71,430.56 517.09,428.19C521.15,427.74 519.21,427.45 518.26,424.76Z" style="fill:rgb(199,153,134);fill-rule:nonzero;"/>
                <path d="M522.23,427.18C522.88,427.73 523.52,428.28 524.15,428.85C524.62,436.5 523.19,444.82 524.77,452.24C523.76,459.27 520.31,465.46 518.36,472.36C511.98,488.54 515.13,505.25 507.16,521.05C503.94,521.49 503.05,527.66 501.22,530.14C501.9,533.7 505.22,536.57 504.89,540.76C502.76,541.41 503.95,538.21 502.11,538.32C498.55,539.69 494.8,540.94 491.04,541.57C489.12,541.09 487.73,539.46 485.82,540.85C482.85,543.4 481.11,538.52 478.06,538.4C477.01,538.21 475.95,538.03 474.88,537.87C476.37,533.22 474.19,527.73 476.81,523.71C478.22,526.28 480.5,527.37 478.36,530.29C476.89,536.13 487.89,535.49 489.71,531.82C490.44,527.95 493.72,527.44 495.76,524.46C493.65,523.27 491.56,522.29 490,520.34C494.65,521.13 493.69,520.55 495.95,516.95C502.08,514.69 505.68,506.09 503.85,500.16C500.36,501.21 500.78,505.47 497.36,503.86C493.84,502.61 486.33,506.71 490.46,510.56C491.42,512.55 494.44,513.81 491.71,515.77C488.5,515.9 485.46,514.89 482.15,515.42C480.8,513.98 480.09,509.26 477.58,512.07C477.13,503.66 476.12,499.65 472.74,492.05C473.59,486.54 471.06,481.95 477,478.86C475.43,476.18 473.46,473.92 472.38,470.87C480.9,470.55 475.92,478.05 483.36,479.67C486.09,480.52 487.04,483.66 489.51,485.21C487.33,487.22 483.94,493.34 488.32,494.7C491.99,496.18 490.38,500.76 494.86,499.9C495.8,496.12 492.9,494.85 491.1,492.07C493.9,492.51 496.37,493.64 498.88,494.87C497.37,489.41 498.72,487.43 500.33,482.46C498.21,477.49 501.09,473.41 500.59,468.12C506.31,470.9 505.62,468.55 506.73,463.74C509.59,463.2 512.33,465.26 510.35,460.62C506.53,454.97 512.71,457.75 512.28,451.45C516.83,455.22 516.01,444.94 519.77,444.37C523.41,444.15 519.75,440.36 520.43,438.14C521.79,432.91 517.6,431.42 522.23,427.18Z" style="fill:rgb(190,143,126);fill-rule:nonzero;"/>
                <path d="M524.15,428.85C525.07,429.6 526.01,430.34 526.94,431.09C529.55,437.46 526.08,445.76 524.77,452.24C523.19,444.82 524.62,436.5 524.15,428.85Z" style="fill:rgb(157,125,114);fill-rule:nonzero;"/>
                <path d="M539.26,471.78C540.35,478.73 541.14,486.04 543.11,492.82C543.74,496.65 547.08,502.85 541.69,504.43C540.23,493.86 538.52,482.41 539.26,471.78Z" style="fill:rgb(192,166,156);fill-rule:nonzero;"/>
                <path d="M471.79,492.27L472.74,492.05C476.12,499.65 477.13,503.66 477.58,512.07C478.76,516.63 475.05,518.87 476.81,523.71C474.19,527.73 476.37,533.22 474.88,537.87C471.99,546.56 473.01,557.49 475.94,566.05C475.39,575.19 479.67,583.62 475.79,593.02C473.31,574.67 469.96,555.69 471.28,537.16C475.37,522.32 474.64,507.26 471.79,492.27Z" style="fill:rgb(199,172,161);fill-rule:nonzero;"/>
                <path d="M547.26,498.48C550.54,499.18 553.39,499.35 556.73,499.3C559.59,503.19 554.07,502.73 553.3,505.76C557.25,509.27 560.41,511.7 565.94,510.18C565.78,513.78 563.51,512.3 561.11,512.36C559.5,517.35 568.42,517.64 567.75,522.76C569.47,527.16 560.77,527.63 558,528.07C554.08,528.79 551.47,521.83 553.46,518.95C550.52,515.42 551.03,512.32 550.77,508.01C548.41,509.68 548.32,510.33 548.31,513.15C543.27,508.97 547.04,503.69 547.26,498.48Z" style="fill:rgb(167,120,108);fill-rule:nonzero;"/>
                <path d="M503.85,500.16C505.68,506.09 502.08,514.69 495.95,516.95C493.69,520.55 494.65,521.13 490,520.34C491.56,522.29 493.65,523.27 495.76,524.46C493.72,527.44 490.44,527.95 489.71,531.82C487.89,535.49 476.89,536.13 478.36,530.29C480.5,527.37 478.22,526.28 476.81,523.71C475.05,518.87 478.76,516.63 477.58,512.07C480.09,509.26 480.8,513.98 482.15,515.42C485.46,514.89 488.5,515.9 491.71,515.77C494.44,513.81 491.42,512.55 490.46,510.56C486.33,506.71 493.84,502.61 497.36,503.86C500.78,505.47 500.36,501.21 503.85,500.16Z" style="fill:rgb(171,125,111);fill-rule:nonzero;"/>
                <path d="M579.24,513.83C581.35,522.48 583.67,531.06 585.3,539.82C588,557.99 583.95,574.08 581.65,591.81C581.22,593.96 580.78,596.11 580.29,598.24C579.64,595.46 579.04,592.69 578.19,589.96C579.6,584.18 584.24,573.86 579.79,569.23C574.71,567.85 578.97,568.34 581.47,567.73C581.66,565.13 581.22,562.48 581.56,559.9C586.94,556.52 577.59,543.3 573.37,551.07C570.51,547.98 569.74,547.65 565.64,547.34C561.85,546.38 562.99,542.26 563.23,539.35C566.67,538.23 572.3,539.28 573.22,534.72C574.28,527.35 578.39,521.38 579.24,513.83Z" style="fill:rgb(204,171,156);fill-rule:nonzero;"/>
                <path d="M507.16,521.05C504.29,529.75 507.83,537.27 508.33,546.77C507.82,552.91 507.82,559.11 508.35,565.25C505.87,574.6 503.81,583.63 502.38,593.22C498.41,592.7 500.59,587.36 499.9,584.51C498.35,584.89 496.81,585.24 495.24,585.55C495.69,588.7 497.78,590.74 495.72,593.77C492.25,594.59 489.65,590.87 486.58,592.37C483.24,593.68 481.89,588.7 480.92,586.46C484.49,587.02 489.34,590.23 491.79,586.08C489.77,582.23 490.99,579.16 490.95,575.09C486.61,576.88 487.07,579.7 485.62,583.52C483.94,583.78 482.22,583.86 480.52,583.85C481.51,578.71 478.92,575.51 485.97,575.65C484.11,574.56 482.16,573.67 480.28,572.64C483.52,568.34 489.36,569.16 489.07,563C489.32,559.67 488.06,559.85 485.57,558.59C485.93,557.32 487.43,555.9 486.28,554.71C484.63,553.16 480.48,556.4 480.08,552.92C481.46,548.34 478.4,543.35 475.3,540.16C476.66,539.61 479.85,540.75 478.06,538.4C481.11,538.52 482.85,543.4 485.82,540.85C487.73,539.46 489.12,541.09 491.04,541.57C494.8,540.94 498.55,539.69 502.11,538.32C503.95,538.21 502.76,541.41 504.89,540.76C505.22,536.57 501.9,533.7 501.22,530.14C503.05,527.66 503.94,521.49 507.16,521.05Z" style="fill:rgb(196,159,143);fill-rule:nonzero;"/>
                <path d="M549.21,531.81C550.55,537.49 550.4,546.49 549.26,552.23C548.83,545.44 548.92,538.61 549.21,531.81Z" style="fill:rgb(218,201,192);fill-rule:nonzero;"/>
                <path d="M474.88,537.87C475.95,538.03 477.01,538.21 478.06,538.4C479.85,540.75 476.66,539.61 475.3,540.16C478.4,543.35 481.46,548.34 480.08,552.92C480.48,556.4 484.63,553.16 486.28,554.71C487.43,555.9 485.93,557.32 485.57,558.59C488.06,559.85 489.32,559.67 489.07,563C489.36,569.16 483.52,568.34 480.28,572.64C482.16,573.67 484.11,574.56 485.97,575.65C478.92,575.51 481.51,578.71 480.52,583.85C482.22,583.86 483.94,583.78 485.62,583.52C487.07,579.7 486.61,576.88 490.95,575.09C490.99,579.16 489.77,582.23 491.79,586.08C489.34,590.23 484.49,587.02 480.92,586.46C481.89,588.7 483.24,593.68 486.58,592.37C489.65,590.87 492.25,594.59 495.72,593.77C497.78,590.74 495.69,588.7 495.24,585.55C496.81,585.24 498.35,584.89 499.9,584.51C500.59,587.36 498.41,592.7 502.38,593.22C502.23,594.09 502.08,594.96 501.93,595.83C501.23,596.21 500.52,596.6 499.81,596.98C492.36,596.37 486.22,598.7 479.36,595.67C475.62,593.49 477.45,599.17 476.73,601.22C476.04,598.53 475.7,595.8 475.79,593.02C479.67,583.62 475.39,575.19 475.94,566.05C473.01,557.49 471.99,546.56 474.88,537.87Z" style="fill:rgb(184,150,137);fill-rule:nonzero;"/>
                <path d="M508.33,546.77C509.4,552.32 509.4,559.7 508.35,565.25C507.82,559.11 507.82,552.91 508.33,546.77Z" style="fill:rgb(221,203,193);fill-rule:nonzero;"/>
                <path d="M581.56,559.9C581.22,562.48 581.66,565.13 581.47,567.73C578.97,568.34 574.71,567.85 579.79,569.23C584.24,573.86 579.6,584.18 578.19,589.96C579.04,592.69 579.64,595.46 580.29,598.24C579.96,600.59 579.53,602.91 579.02,605.22L578.1,605.42C572.96,604.74 580.54,598.05 575.66,598.49C572.01,597.83 571.78,600.57 569.62,602.68C566.45,603.58 562.4,602.15 559.19,601.64C560.09,599.1 563.7,599.75 563.51,596.02C564,592.21 564.63,593.44 567.74,593.45C565.89,587.46 569.37,589.75 573.33,588.27C573.78,586.26 573.62,584.07 573.63,582.02C571.8,582.38 571.52,585.24 570.58,586.67C567.24,581.34 561.7,580.05 562.34,572.65C561.05,566.78 567.48,571.96 569.93,571.92C566.68,566.91 566.37,559.48 565.06,553.42C568.4,553.85 570.58,552.76 573.37,551.07C577.59,543.3 586.94,556.52 581.56,559.9Z" style="fill:rgb(198,160,148);fill-rule:nonzero;"/>
                <path d="M479.36,595.67C486.22,598.7 492.36,596.37 499.81,596.98C497.71,603.42 504.33,611.47 494.71,613.03C490.21,613.23 490.25,602.49 485.07,604.13C483.1,605.06 475.93,603.74 479.68,607.16C478.7,606.8 477.72,606.4 476.76,605.97C476.79,604.39 476.79,602.8 476.73,601.22C477.45,599.17 475.62,593.49 479.36,595.67Z" style="fill:rgb(47,68,64);fill-rule:nonzero;"/>
                <path d="M501.93,595.83C501.86,597.14 501.78,598.46 501.7,599.78C500.51,604.36 501,608.66 501.22,613.32C499.57,613.61 497.92,613.86 496.25,614.06L494.71,613.03C504.33,611.47 497.71,603.42 499.81,596.98C500.52,596.6 501.23,596.21 501.93,595.83Z" style="fill:rgb(89,99,98);fill-rule:nonzero;"/>
                <path d="M501.7,599.78C501.98,604.39 502.58,608.84 501.22,613.32C501,608.66 500.51,604.36 501.7,599.78Z" style="fill:rgb(178,188,188);fill-rule:nonzero;"/>
                <path d="M485.07,604.13C490.25,602.49 490.21,613.23 494.71,613.03L496.25,614.06L495.3,614.23C492.36,614 489.6,613.78 486.76,614.77C484.88,614.91 483.01,615.01 481.13,614.99C479.13,611.76 478.53,608.45 474.69,606.86C475.37,606.54 476.06,606.25 476.76,605.97C477.72,606.4 478.7,606.8 479.68,607.16C475.93,603.74 483.1,605.06 485.07,604.13Z" style="fill:rgb(55,36,40);fill-rule:nonzero;"/>
                <path d="M555.65,603.84C563.33,603.04 570.76,605.86 578.1,605.42L579.02,605.22C578.53,609.57 578.79,613.88 579.09,618.23C577.44,611.16 571.15,612.58 565.64,610.43C561.75,609.09 559.04,610.81 555.84,612.74L555.04,613.18C554.97,610.01 554.79,606.94 555.65,603.84Z" style="fill:rgb(204,195,195);fill-rule:nonzero;"/>
                <path d="M474.69,606.86C478.53,608.45 479.13,611.76 481.13,614.99C479.02,615.05 477.08,614.87 475.11,614.12C474.77,613.32 474.43,612.53 474.08,611.73C474.1,610.03 473.76,608.35 474.69,606.86Z" style="fill:rgb(134,118,123);fill-rule:nonzero;"/>
                <path d="M565.64,610.43C571.15,612.58 577.44,611.16 579.09,618.23L579.3,619.13C574.85,620.8 569.47,619.68 564.76,620.17L563.97,619.93C562.44,618.29 560.87,618.63 558.94,619.29C552.08,619.18 557.92,617.06 555.84,612.74C559.04,610.81 561.75,609.09 565.64,610.43Z" style="fill:rgb(66,41,45);fill-rule:nonzero;"/>
                <path d="M501.22,613.32C501.48,618.87 501.96,624.4 502.68,629.92C500.28,633.51 490.6,637.85 496.18,642.2L494.99,643.09C489.05,639.5 491.82,644.81 486.27,644.78C485.64,645.75 485.25,646.89 484.81,647.95C483.9,647.91 483.26,647.42 482.9,646.49C485.56,642.37 484.79,638.24 485.57,633.66C486.82,632.71 488.26,632.27 489.72,631.78C488.29,635.63 489.56,636.03 492.73,637.68C497.04,633.33 502.43,630.25 500.84,623.19C497.82,622.71 494.8,622.94 491.83,623.61C489.58,623.91 487.34,624.05 485.07,624.07L483.45,623.79C479.97,622.86 476.59,621.92 473.82,624.87C474.59,621.32 475.1,617.77 475.11,614.12C477.08,614.87 479.02,615.05 481.13,614.99C483.01,615.01 484.88,614.91 486.76,614.77C489.69,615.02 492.47,615.2 495.3,614.23L496.25,614.06C497.92,613.86 499.57,613.61 501.22,613.32Z" style="fill:rgb(206,199,197);fill-rule:nonzero;"/>
                <path d="M555.04,613.18L555.84,612.74C557.92,617.06 552.08,619.18 558.94,619.29C560.57,620.49 562.09,620.36 563.97,619.93L564.76,620.17C569.1,621.75 574.35,620.72 578.94,621.07C579.01,624.06 579,627.04 578.97,630.03L577.23,629.96L576.29,629.74C573.19,628.74 570.14,628.99 566.94,629.04L565.04,628.95C563.11,628.54 561.2,628.1 559.21,628.08C557.46,628.02 555.71,628.02 553.96,628.01L553.02,627.98C553.25,623.02 554.18,618.07 555.04,613.18Z" style="fill:rgb(211,207,206);fill-rule:nonzero;"/>
                <path d="M495.3,614.23C492.47,615.2 489.69,615.02 486.76,614.77C489.6,613.78 492.36,614 495.3,614.23Z" style="fill:rgb(128,117,116);fill-rule:nonzero;"/>
                <path d="M570.35,614.6C574.52,615.68 568.62,622.25 568.05,616.93C567.03,614.89 568.2,613.33 570.35,614.6Z" style="fill:rgb(167,142,146);fill-rule:nonzero;"/>
                <path d="M558.94,619.29C560.87,618.63 562.44,618.29 563.97,619.93C562.09,620.36 560.57,620.49 558.94,619.29Z" style="fill:rgb(131,112,114);fill-rule:nonzero;"/>
                <path d="M579.3,619.13C579.47,619.78 579.63,620.43 579.78,621.08L578.94,621.07C574.35,620.72 569.1,621.75 564.76,620.17C569.47,619.68 574.85,620.8 579.3,619.13Z" style="fill:rgb(156,143,146);fill-rule:nonzero;"/>
                <path d="M483.45,623.79C482.03,624.84 480.59,625.87 479.07,626.79C477.36,627.45 475.67,628.21 473.99,628.95C471.5,627.37 473.05,626.99 473.82,624.87C476.59,621.92 479.97,622.86 483.45,623.79Z" style="fill:rgb(131,115,116);fill-rule:nonzero;"/>
                <path d="M500.84,623.19C502.43,630.25 497.04,633.33 492.73,637.68C489.56,636.03 488.29,635.63 489.72,631.78C491.8,630.58 497.87,622.6 491.83,623.61C494.8,622.94 497.82,622.71 500.84,623.19Z" style="fill:rgb(151,141,139);fill-rule:nonzero;"/>
                <path d="M483.45,623.79L485.07,624.07C485.89,626.01 489.02,628.68 484.61,627.39C480.41,626.1 483.78,628.88 483.91,630.95C481.28,630.88 480.4,628.67 479.07,626.79C480.59,625.87 482.03,624.84 483.45,623.79Z" style="fill:rgb(187,162,165);fill-rule:nonzero;"/>
                <path d="M485.07,624.07C487.34,624.05 489.58,623.91 491.83,623.61C497.87,622.6 491.8,630.58 489.72,631.78C488.26,632.27 486.82,632.71 485.57,633.66C483.48,635.1 481.56,636.78 479.49,638.25C479.18,636.46 482.19,633.43 478.65,635.72C475.7,637.93 477.5,634.7 477.13,632.94C477.88,632.98 480.6,634.94 479.92,633C480.47,627.98 473.73,631.08 470.89,630.47C471.92,629.96 472.95,629.45 473.99,628.95C475.67,628.21 477.36,627.45 479.07,626.79C480.4,628.67 481.28,630.88 483.91,630.95C483.78,628.88 480.41,626.1 484.61,627.39C489.02,628.68 485.89,626.01 485.07,624.07Z" style="fill:rgb(57,29,33);fill-rule:nonzero;"/>
                <path d="M553.02,627.98L553.96,628.01C552.76,635.67 558.32,639.27 553.2,646.13C552.88,640.38 553.04,634.64 552.97,628.89L553.02,627.98Z" style="fill:rgb(178,162,165);fill-rule:nonzero;"/>
                <path d="M553.96,628.01C555.71,628.02 557.46,628.02 559.21,628.08C557.25,631.25 555.93,632.27 557.82,635.89C561.02,638.88 556.15,641.26 560.99,641.11C564.02,640.86 555.75,643.75 558.89,643.9C563.21,644.84 567.5,646.3 571.86,646.91C572.15,645.78 570.65,644.84 570.05,643.99L569.88,643.14C574.23,646.49 571.99,638.11 569.9,637.09C574.85,640.24 571.65,631.79 570.25,630.13C572.26,629.95 574.28,629.84 576.29,629.74L577.23,629.96C574.76,637.09 572.47,644.05 579.91,649.09C581.01,650.59 582.3,652.12 582.73,653.97C581.9,655.99 581,657.97 580,659.91C577.05,659.21 574.09,659.77 571.21,658.86C565.68,653.62 555.94,652.36 549.15,655.52L548.8,654.03C550.4,651.45 551.87,648.86 553.2,646.13C558.32,639.27 552.76,635.67 553.96,628.01Z" style="fill:rgb(86,55,61);fill-rule:nonzero;"/>
                <path d="M559.21,628.08C561.2,628.1 563.11,628.54 565.04,628.95C563.24,633.13 561.46,633.69 557.82,635.89C555.93,632.27 557.25,631.25 559.21,628.08Z" style="fill:rgb(159,139,141);fill-rule:nonzero;"/>
                <path d="M565.04,628.95L566.94,629.04C568.1,631.72 568.44,634.55 569.9,637.09C565.64,635.43 562.36,634.37 557.82,635.89C561.46,633.69 563.24,633.13 565.04,628.95Z" style="fill:rgb(62,36,39);fill-rule:nonzero;"/>
                <path d="M566.94,629.04C570.14,628.99 573.19,628.74 576.29,629.74C574.28,629.84 572.26,629.95 570.25,630.13C571.65,631.79 574.85,640.24 569.9,637.09C568.44,634.55 568.1,631.72 566.94,629.04Z" style="fill:rgb(171,150,152);fill-rule:nonzero;"/>
                <path d="M470.89,630.47C473.73,631.08 480.47,627.98 479.92,633C480.6,634.94 477.88,632.98 477.13,632.94C474.32,631.27 472.51,632 470,633.66C473.71,633.9 476.48,632.38 476.06,637.64C474.14,636.79 472.35,636.01 470.21,635.87C471.53,637.51 473.23,638.29 472.96,640.69C470.32,640.36 467.8,639.93 465.14,640.36C460.25,639.79 466.77,638.22 467.97,637.19C466.58,637.05 465.19,636.92 463.79,636.8L464.27,636.15C466.3,634.21 468.31,631.65 470.89,630.47Z" style="fill:rgb(187,167,168);fill-rule:nonzero;"/>
                <path d="M502.68,629.92L502.84,631.82C501.31,635.54 499.31,639.58 496.18,642.2C490.6,637.85 500.28,633.51 502.68,629.92Z" style="fill:rgb(138,126,125);fill-rule:nonzero;"/>
                <path d="M577.23,629.96L578.97,630.03C578.8,634.13 579.87,638.93 577.78,642.51C578.34,643.44 579.16,644.23 579.87,645.06C579.89,646.4 579.9,647.75 579.91,649.09C572.47,644.05 574.76,637.09 577.23,629.96Z" style="fill:rgb(175,161,163);fill-rule:nonzero;"/>
                <path d="M477.13,632.94C477.5,634.7 475.7,637.93 478.65,635.72C482.19,633.43 479.18,636.46 479.49,638.25C478.84,641.08 481.74,644.03 482.9,646.49C483.26,647.42 483.9,647.91 484.81,647.95C488.44,647.36 491.82,644.89 494.99,643.09L496.18,642.2C499.31,639.58 501.31,635.54 502.84,631.82C503.14,633.27 503.51,634.7 503.92,636.12C504.22,639.4 503.9,642.03 502.88,645.14C501.82,645.41 500.76,645.67 499.7,645.93C496.29,646.4 494.29,648.75 491.99,651.06C486.3,650.16 483.37,655.04 478.11,652.18C470.26,658.7 464.05,649.42 455.02,649.97C453.04,649.38 447.83,651.8 447.52,648.93C450.69,645.56 455.32,643.94 458.87,640.93C460.99,640.92 463.07,640.82 465.14,640.36C467.8,639.93 470.32,640.36 472.96,640.69C473.23,638.29 471.53,637.51 470.21,635.87C472.35,636.01 474.14,636.79 476.06,637.64C476.48,632.38 473.71,633.9 470,633.66C472.51,632 474.32,631.27 477.13,632.94Z" style="fill:rgb(75,46,51);fill-rule:nonzero;"/>
                <path d="M485.57,633.66C484.79,638.24 485.56,642.37 482.9,646.49C481.74,644.03 478.84,641.08 479.49,638.25C481.56,636.78 483.48,635.1 485.57,633.66Z" style="fill:rgb(150,135,134);fill-rule:nonzero;"/>
                <path d="M569.9,637.09C571.99,638.11 574.23,646.49 569.88,643.14C567.57,641.68 565.81,640.71 562.95,641.15C565.06,642.79 567.5,643.39 570.05,643.99C570.65,644.84 572.15,645.78 571.86,646.91C567.5,646.3 563.21,644.84 558.89,643.9C555.75,643.75 564.02,640.86 560.99,641.11C556.15,641.26 561.02,638.88 557.82,635.89C562.36,634.37 565.64,635.43 569.9,637.09Z" style="fill:rgb(177,154,157);fill-rule:nonzero;"/>
                <path d="M486.16,635.9C487.36,636.79 492.58,639.14 489.83,640.87C487.61,639.91 486.98,637.99 486.16,635.9Z" style="fill:rgb(144,141,136);fill-rule:nonzero;"/>
                <path d="M463.79,636.8C465.19,636.92 466.58,637.05 467.97,637.19C466.77,638.22 460.25,639.79 465.14,640.36C463.07,640.82 460.99,640.92 458.87,640.93C460.47,639.51 462.15,638.18 463.79,636.8Z" style="fill:rgb(128,109,112);fill-rule:nonzero;"/>
                <path d="M562.43,638.26C563.44,637.57 565.56,637.57 566.57,638.26C567.2,639.58 561.8,639.58 562.43,638.26Z" style="fill:rgb(88,68,70);fill-rule:nonzero;"/>
                <path d="M494.99,643.09C491.82,644.89 488.44,647.36 484.81,647.95C485.25,646.89 485.64,645.75 486.27,644.78C491.82,644.81 489.05,639.5 494.99,643.09Z" style="fill:rgb(144,129,130);fill-rule:nonzero;"/>
                <path d="M562.95,641.15C565.81,640.71 567.57,641.68 569.88,643.14L570.05,643.99C567.5,643.39 565.06,642.79 562.95,641.15Z" style="fill:rgb(71,51,52);fill-rule:nonzero;"/>
                <path d="M502.88,645.14C503.37,646.44 503.96,647.7 504.46,648.99C502.42,652.18 494.98,650.97 498.57,655.86C487.35,657.35 478.53,661.4 467,660.04C459.77,658.18 453.42,660.65 446.42,656.88C446.95,655.95 447.55,655.06 448.11,654.14C448.97,655.09 449.78,656.04 450.74,656.89C458.14,659.01 468.61,658.34 476.25,656.8C481.73,656.61 486.67,652.66 491.99,651.06C495.13,650.19 502.16,651.02 499.7,645.93C500.76,645.67 501.82,645.41 502.88,645.14Z" style="fill:rgb(199,198,199);fill-rule:nonzero;"/>
                <path d="M499.7,645.93C502.16,651.02 495.13,650.19 491.99,651.06C494.29,648.75 496.29,646.4 499.7,645.93Z" style="fill:rgb(137,126,128);fill-rule:nonzero;"/>
                <path d="M447.52,648.93C447.83,651.8 453.04,649.38 455.02,649.97C464.05,649.42 470.26,658.7 478.11,652.18C483.37,655.04 486.3,650.16 491.99,651.06C486.67,652.66 481.73,656.61 476.25,656.8C469.57,655.73 462.8,657.06 455.95,655.14C453.9,655.09 451.33,654.19 450.74,656.89C449.78,656.04 448.97,655.09 448.11,654.14L447.2,653.08C447.18,651.66 447.09,650.3 447.52,648.93Z" style="fill:rgb(150,140,140);fill-rule:nonzero;"/>
                <path d="M548.8,654.03L549.15,655.52C555.94,652.36 565.68,653.62 571.21,658.86C567.47,657.96 566.09,657.55 562.88,660C561.22,659.46 559.56,657.63 557.86,658.85C554.25,658.87 548.21,655.66 552.67,661.92C558.55,664.26 566.2,662.37 572.52,663.07L571.83,663.79C565.74,664.03 559.38,664.37 553.33,663.65C549.02,663.23 549.97,658.73 547.79,655.64C548.13,655.1 548.46,654.57 548.8,654.03Z" style="fill:rgb(173,162,164);fill-rule:nonzero;"/>
                <path d="M582.73,653.97C583.73,658.55 585.15,661.57 578.96,662.06C579.31,661.34 579.66,660.63 580,659.91C581,657.97 581.9,655.99 582.73,653.97Z" style="fill:rgb(191,182,185);fill-rule:nonzero;"/>
                <path d="M455.95,655.14C462.8,657.06 469.57,655.73 476.25,656.8C468.61,658.34 458.14,659.01 450.74,656.89C451.33,654.19 453.9,655.09 455.95,655.14Z" style="fill:rgb(48,46,46);fill-rule:nonzero;"/>
                <path d="M547.79,655.64C549.97,658.73 549.02,663.23 553.33,663.65C559.38,664.37 565.74,664.03 571.83,663.79C564.57,668.6 553.64,665.61 545.97,663.02C542.2,661.65 544.13,655.76 547.79,655.64Z" style="fill:rgb(215,213,217);fill-rule:nonzero;"/>
                <path d="M557.86,658.85C558.34,663.11 553.4,658.68 552.67,661.92C548.21,655.66 554.25,658.87 557.86,658.85Z" style="fill:rgb(97,90,91);fill-rule:nonzero;"/>
                <path d="M562.88,660C565.97,661.36 569.42,661.65 572.52,663.07C566.2,662.37 558.55,664.26 552.67,661.92C553.4,658.68 558.34,663.11 557.86,658.85C559.56,657.63 561.22,659.46 562.88,660Z" style="fill:rgb(42,37,39);fill-rule:nonzero;"/>
                <path d="M571.21,658.86C574.09,659.77 577.05,659.21 580,659.91C579.66,660.63 579.31,661.34 578.96,662.06C576.81,662.39 574.67,662.74 572.52,663.07C569.42,661.65 565.97,661.36 562.88,660C566.09,657.55 567.47,657.96 571.21,658.86Z" style="fill:rgb(127,118,121);fill-rule:nonzero;"/>
            </g>
        </g>
    </g>
</svg>
