<?xml version="1.0" encoding="UTF-8" standalone="no"?>
<!DOCTYPE svg PUBLIC "-//W3C//DTD SVG 1.1//EN" "http://www.w3.org/Graphics/SVG/1.1/DTD/svg11.dtd">
<svg width="100%" height="100%" viewBox="0 0 1729 1728" version="1.1" xmlns="http://www.w3.org/2000/svg" xmlns:xlink="http://www.w3.org/1999/xlink" xml:space="preserve" xmlns:serif="http://www.serif.com/" style="fill-rule:evenodd;clip-rule:evenodd;stroke-linejoin:round;stroke-miterlimit:2;">
    <g transform="matrix(1,0,0,1,-3687,-4162)">
        <g id="_17" serif:id="17" transform="matrix(1,0,0,1,3687.834324,4162)">
            <rect x="0" y="0" width="1728" height="1728" style="fill:none;"/>
            <g transform="matrix(-3.215643,0,-0,-3.215643,2178.796113,1776.585226)">
                <g>
                    <path d="M449.97,156.19C455.59,155.18 460.75,156.82 465.75,159.25C471.47,162.08 477.06,165.19 482.59,168.38C487.43,171.16 491.82,174.57 496.58,177.45C501.29,180.39 507.58,181.12 513,181.61C517.62,181.96 522.44,182.56 527.07,182.07C528.63,181.92 530.04,180.55 531.36,179.77C532.18,180.81 533,181.86 533.82,182.91C529.92,187.93 524.81,191.23 519.4,194.4C511.78,198.71 502.83,202.89 494,203.48C487.75,204.03 483.98,200.16 478.03,199.35C474.07,198.7 470.02,200.33 466.16,199.76C463.38,199.1 462.02,196.91 460.4,194.79C460.6,202.25 460.84,209.63 461.98,217.02C462.07,219.32 463.07,222.77 461.25,224.53C459.9,223.73 458.64,222.79 457.4,221.84C464.77,236.21 465.69,251.95 470.79,268.11C474.18,269.24 477.98,270.16 481.04,272.04C484.05,273.97 485.79,277.49 487.42,280.56C489.2,284.09 491.18,287.56 492.68,291.21C494.39,295.45 494.44,299.58 494.8,304.06C507.88,309.71 521.9,313.26 534.94,318.99C536.9,319.98 539.8,321.28 540.72,323.4C541.68,327.63 539.86,331.9 537.14,335.1C532.98,340.02 526.67,343.37 520.78,345.76C509.03,350.46 496.04,352.71 483.45,353.49C481.55,358.87 480.32,364.92 475.95,368.93C471.29,373.16 464.92,375.81 459.17,378.22C454.67,380.16 449.8,380.5 445.21,382.02C438.97,386.66 433.61,392.83 426.86,396.93C422.97,399.21 418.66,400.39 415.06,403.07C412.42,405.02 410.4,407.2 407.22,408.35C400.81,410.66 393.79,411.54 387,411.7C379.74,411.78 371.47,410.75 365.23,406.74C360.89,404.01 359.17,399.99 355.46,396.53C350.37,391.66 346.16,386.06 343.53,379.48C341.16,373.22 340.33,366.57 339.48,360C339.28,356.99 337.06,354.96 335.5,352.49C331.16,346.39 329.68,338.87 328.18,331.68C317.75,327.8 309.15,321.81 299.24,316.77C291,312.82 282.96,306.93 277.65,299.44C274.83,292.88 279.16,283.5 285.43,280.38C298.43,273.39 313.52,269.12 327.78,265.52C330.94,264.67 334.16,264.15 337.41,263.77C340.3,258.2 345.13,255.46 350.07,252.03C351.94,250.86 352.31,249.07 353.11,247.17C355.25,241.4 358.1,234.93 362.61,230.61C364.72,228.51 367.48,227.53 369.79,225.77C372.3,222.92 374.11,219.39 376.23,216.24C384.6,202.92 394.14,190.41 405.33,179.33C411.83,172.29 420.25,169.04 428.57,164.57C435.29,161.34 442.57,157.43 449.97,156.19Z" style="fill:rgb(0,28,61);fill-rule:nonzero;"/>
                    <clipPath id="_clip1">
                        <path d="M449.97,156.19C455.59,155.18 460.75,156.82 465.75,159.25C471.47,162.08 477.06,165.19 482.59,168.38C487.43,171.16 491.82,174.57 496.58,177.45C501.29,180.39 507.58,181.12 513,181.61C517.62,181.96 522.44,182.56 527.07,182.07C528.63,181.92 530.04,180.55 531.36,179.77C532.18,180.81 533,181.86 533.82,182.91C529.92,187.93 524.81,191.23 519.4,194.4C511.78,198.71 502.83,202.89 494,203.48C487.75,204.03 483.98,200.16 478.03,199.35C474.07,198.7 470.02,200.33 466.16,199.76C463.38,199.1 462.02,196.91 460.4,194.79C460.6,202.25 460.84,209.63 461.98,217.02C462.07,219.32 463.07,222.77 461.25,224.53C459.9,223.73 458.64,222.79 457.4,221.84C464.77,236.21 465.69,251.95 470.79,268.11C474.18,269.24 477.98,270.16 481.04,272.04C484.05,273.97 485.79,277.49 487.42,280.56C489.2,284.09 491.18,287.56 492.68,291.21C494.39,295.45 494.44,299.58 494.8,304.06C507.88,309.71 521.9,313.26 534.94,318.99C536.9,319.98 539.8,321.28 540.72,323.4C541.68,327.63 539.86,331.9 537.14,335.1C532.98,340.02 526.67,343.37 520.78,345.76C509.03,350.46 496.04,352.71 483.45,353.49C481.55,358.87 480.32,364.92 475.95,368.93C471.29,373.16 464.92,375.81 459.17,378.22C454.67,380.16 449.8,380.5 445.21,382.02C438.97,386.66 433.61,392.83 426.86,396.93C422.97,399.21 418.66,400.39 415.06,403.07C412.42,405.02 410.4,407.2 407.22,408.35C400.81,410.66 393.79,411.54 387,411.7C379.74,411.78 371.47,410.75 365.23,406.74C360.89,404.01 359.17,399.99 355.46,396.53C350.37,391.66 346.16,386.06 343.53,379.48C341.16,373.22 340.33,366.57 339.48,360C339.28,356.99 337.06,354.96 335.5,352.49C331.16,346.39 329.68,338.87 328.18,331.68C317.75,327.8 309.15,321.81 299.24,316.77C291,312.82 282.96,306.93 277.65,299.44C274.83,292.88 279.16,283.5 285.43,280.38C298.43,273.39 313.52,269.12 327.78,265.52C330.94,264.67 334.16,264.15 337.41,263.77C340.3,258.2 345.13,255.46 350.07,252.03C351.94,250.86 352.31,249.07 353.11,247.17C355.25,241.4 358.1,234.93 362.61,230.61C364.72,228.51 367.48,227.53 369.79,225.77C372.3,222.92 374.11,219.39 376.23,216.24C384.6,202.92 394.14,190.41 405.33,179.33C411.83,172.29 420.25,169.04 428.57,164.57C435.29,161.34 442.57,157.43 449.97,156.19Z" clip-rule="nonzero"/>
                    </clipPath>
                    <g clip-path="url(#_clip1)">
                        <path d="M449.03,162.94C454.91,161.7 460.69,163.99 464.79,168.21C471,174.48 478.67,178.53 486.4,182.63C491.78,185.36 496.79,188.06 502.98,188.19C509.38,188.31 515.79,187.23 522.2,187.15C515.55,192.52 506.35,194.24 498.04,192.98C490.49,191.49 483.43,188.7 476.22,186.61C472.38,185.47 468.24,184.94 464.53,183.43C461.26,181.99 458.96,179.31 456.51,176.8C454.76,181.8 453.08,186.66 452.52,191.97C452.14,195.87 451.82,199.72 450.57,203.46C445.07,199.44 440.5,194.52 434.39,191.28C436.04,197.51 438.4,203.42 439.56,209.78C440.99,216.26 441.09,222.85 442.79,229.27C444.24,234.91 443.9,240.36 443.46,246.09C436.55,242.28 430.82,236.75 423.91,233.01C417.92,230.25 411.27,228.76 404.94,226.97C397.56,224.69 390.2,226.79 382.24,226.05C384.15,219.45 388.36,214.67 391.9,208.95C396.56,201.97 400.91,194.66 406.13,188.08C411.24,181.66 418.57,177.75 425.43,173.43C432.68,169.19 440.73,164.56 449.03,162.94Z" style="fill:white;fill-rule:nonzero;"/>
                        <path d="M385.82,230.84C384.37,233.47 382.91,236.09 381.45,238.72C375.09,239.16 368.91,240.43 362.71,241.85C363.88,240.39 364.99,238.66 366.45,237.46C372.24,233.47 378.83,231.43 385.82,230.84Z" style="fill:white;fill-rule:nonzero;"/>
                        <path d="M394.03,231.14C400.31,231.35 406.51,232.59 412.27,235.15C405.24,243.47 400.4,253.05 395.88,262.9C394.78,265.22 393.48,267.43 392.16,269.64C385.68,268.73 379.39,267.62 373.3,265.12C374.33,260.91 376.23,257.18 378.54,253.54C382.53,247.18 386.34,240.7 390.39,234.38C391.24,233.34 392.52,231.01 394.03,231.14Z" style="fill:white;fill-rule:nonzero;"/>
                        <path d="M421.1,239.86C432.28,246.47 442.9,253.62 451.85,263.14C457.91,269.54 462.14,277.92 465.43,286.02C464.52,288.56 462.81,289.81 460.12,289.98C454.56,285.3 451.2,277.03 446.29,271.71C441.6,266.5 436.56,261.27 430.95,257.06C425.23,252.97 419.3,249.22 413,246.08C413.83,243.69 414.42,240.9 415.87,238.81C417.63,237.67 419.51,239.07 421.1,239.86Z" style="fill:white;fill-rule:nonzero;"/>
                        <path d="M377.98,244.24C376.76,246.7 375.45,249.1 374.07,251.47C370.54,251.47 367,251.44 363.47,251.28C367.86,246.91 371.86,245.16 377.98,244.24Z" style="fill:white;fill-rule:nonzero;"/>
                        <path d="M410.96,251.98C415.2,252.37 419.41,254.83 422.98,257.03C429.8,261.5 436.49,267.03 441.18,273.76C439.85,275.58 438.47,277.33 436.97,279.01C428.22,270.79 417.33,264.6 406.53,259.5C407.93,257.01 409.09,254.15 410.96,251.98Z" style="fill:white;fill-rule:nonzero;"/>
                        <path d="M371.02,256.87C370.08,259.37 369.13,261.87 368.16,264.36C360.76,264.12 353.44,265.15 346.06,265.14C347.58,263.28 349.25,261.61 351.19,260.18C356.03,255.8 364.88,257.54 371.02,256.87Z" style="fill:white;fill-rule:nonzero;"/>
                        <path d="M401.84,265.2C408.05,267.05 413.95,271.13 419.38,274.62C426.48,279.32 433.27,284.69 439.36,290.64C442.56,294.01 446.43,298.3 447.32,302.98C447.66,304.87 447.29,305.96 446.04,307.38C442.5,307.85 441.15,303.84 439.37,301.57C434.11,294.17 424.77,288.97 417.76,283.24C411.79,278.18 405.03,275.54 398.07,272.21C399.14,269.76 400.29,267.38 401.84,265.2Z" style="fill:white;fill-rule:nonzero;"/>
                        <path d="M368.27,269.83C373.94,271.69 379.33,271.68 384.45,275.08C372.36,276.25 360.14,276.1 348.01,276.79C344.37,277.03 340.92,277.97 337.42,278.94C349.77,280.36 361.79,283.83 373.14,288.86C388.79,296.08 405.14,301.86 421.23,308C420.88,309.7 420.53,311.4 420.18,313.1C394.96,304.03 368.89,293.07 342.79,287.66C333.8,285.82 324.19,283.7 315,283.78C306.38,283.79 298.43,286.45 289.8,286.94C296.42,282.81 303.81,279.17 311.5,277.68C319.54,275.87 327.79,273.81 336.01,273.17C346.77,272.14 357.97,270.08 368.78,270.64L368.27,269.83Z" style="fill:white;fill-rule:nonzero;"/>
                        <path d="M467.88,276.6C472.35,280.42 477.44,284.42 480.55,289.45C483.26,294.87 484.44,301.2 485.92,307.05C483.87,308.13 481.16,308.85 480.21,311.21C478.85,314.86 478.57,319.15 478.96,323C479.34,326.4 481.96,328.02 484.21,330.22C483.53,333.67 483.03,337.39 481.7,340.65C479.81,340.6 478,340.19 476.1,340.2C473.31,342.27 471.24,345.86 469.91,349.02C468.55,352.73 470.63,355.59 472.14,358.79C468.46,362.44 464.88,365.81 460.21,368.21C457.62,369.53 454.52,369.87 451.67,370.38C454.73,366.31 458.49,362.39 460.82,357.85C462.31,354.66 460.6,351.86 458.05,349.96C455.2,347.96 451.59,345.97 448.06,345.84C444.89,348.45 442.73,352.28 439.99,355.34C435.46,341.88 432.91,328.21 435.39,314.04C431.87,326.55 429.78,339 431.2,352.03C431.61,356.3 433.65,359.93 434.47,364.16C432.78,363.29 431.38,363.39 430.42,361.54C426.89,355.54 424.41,349.01 423.87,342.02C422.75,328.51 426.21,315.29 430.71,302.67C433.16,305.13 435.81,307.26 437.95,310.02C439.94,312.37 441.93,315.4 445.03,316.27C451.16,315.09 455.25,307.98 454.1,302C452.87,294.83 447.73,289.37 442.79,284.42C443.69,282.72 444.63,281.06 445.62,279.41C448.45,283.27 451.29,287.1 453.79,291.18C454.68,292.54 455.6,294.15 456.88,295.17C461.46,295.74 468.4,295.14 471.29,290.96C471,287.1 469.63,283.24 468.65,279.5C468.39,278.54 468.14,277.57 467.88,276.6Z" style="fill:white;fill-rule:nonzero;"/>
                        <path d="M344.49,299.66C343.02,309.01 340.99,319.03 342.01,328.99C343.22,337.28 348.18,343.91 351.97,351.09C353.45,353.71 355.59,356.06 357.4,358.48C349.42,356.09 342.99,350.13 339.33,342.75C334.86,332.05 334.97,321.38 335.14,310C335.23,306.91 335.59,303.04 337.43,300.45C339.18,298.24 342.16,299.41 344.49,299.66Z" style="fill:white;fill-rule:nonzero;"/>
                        <path d="M486.33,313.47C486.92,316.67 485.82,319.39 484.45,322.19C483.85,319.93 482.53,316.72 483.57,314.46C484.29,313.4 485.21,313.57 486.33,313.47Z" style="fill:white;fill-rule:nonzero;"/>
                        <path d="M493.72,313.02C497.53,314.89 500.99,317.39 504.85,319.18C509.52,321.51 514.39,322.6 519.4,323.9C510.62,325.19 501.54,324.83 492.71,324.37C493.07,320.59 493.27,316.79 493.72,313.02Z" style="fill:white;fill-rule:nonzero;"/>
                        <path d="M391.85,326.95C400.48,329.46 408.47,333.2 417.51,334.34C417.68,337.19 417.77,340.05 417.85,342.91C408.27,340.42 398.54,338.53 388.9,336.29C389.87,333.17 390.86,330.06 391.85,326.95Z" style="fill:white;fill-rule:nonzero;"/>
                        <path d="M477.32,345.26C478.09,346.46 478.84,347.65 479.33,348.98C478.52,350.68 477.17,351.76 475.86,353.04C475.26,351.62 474.66,350.2 474.11,348.76C475.08,347.51 476.19,346.37 477.32,345.26Z" style="fill:white;fill-rule:nonzero;"/>
                        <path d="M384.43,347.66C388.78,347.83 392.8,348.89 396.99,349.88C404.51,351.7 412.01,353.4 419.75,353.96C420.61,360.1 425.05,364.57 428.54,369.44C421.95,374.05 415.4,379.21 408.39,383.08C406.21,382.37 404.41,381.32 402.04,381.73C393.16,382.69 385.14,385.05 376.21,382.6C370.88,381.07 365.35,379.04 360.36,376.63C355.52,374.22 355.11,368.87 353.85,364.21C361.19,366.63 368.99,364.51 374.95,359.88C378.76,356.6 381.72,351.85 384.43,347.66Z" style="fill:white;fill-rule:nonzero;"/>
                        <path d="M449.99,351.31C451.42,352.34 453.3,352.96 453.28,355.04C453.24,358.59 449.85,362.1 447.79,364.79C443.3,369.96 440.33,375.74 435.44,380.42C430.17,385.58 424.33,388.97 418.35,393.34C414.82,395.69 410.24,398.63 405.87,398.49C402.83,396.63 403.76,393.83 403.5,390.8C412.53,387.33 420.77,382.27 428.37,376.32C433.4,372.29 438.03,368.09 441.78,362.8C444.54,359.02 446.81,354.66 449.99,351.31Z" style="fill:white;fill-rule:nonzero;"/>
                        <path d="M348.23,369.36C351.16,374.43 353.78,379.26 358.64,382.8C358.32,384.4 358,385.99 357.67,387.59C353.21,383.03 350.69,378.35 349.02,372.21C348.75,371.26 348.49,370.31 348.23,369.36Z" style="fill:white;fill-rule:nonzero;"/>
                        <path d="M366.87,385.07C370.56,386.53 373.94,388.32 377.97,388.75C384.75,390.02 391,388.51 397.78,388.54C397.19,389.85 396.6,391.16 396,392.47C397.07,395.87 397.92,399.28 398.46,402.81C392.47,404.58 386.16,405.01 379.96,404.29C375.38,403.68 370.55,402.15 367.23,398.78C364.17,395.77 362.92,391.16 363.81,387C364.05,385.51 365.4,384.38 366.87,385.07Z" style="fill:white;fill-rule:nonzero;"/>
                        <g transform="matrix(1,0,0,1,-3,-2)">
                            <path d="M463.522,307L465.508,306.988L468.644,316.049L467.609,318.938L463.522,307Z" style="fill:rgb(0,28,61);"/>
                            <path d="M463.514,309.44L465.82,316.027L465.833,331.459L463.562,338.047L463.514,309.44Z" style="fill:rgb(0,28,61);"/>
                            <path d="M463.586,340.026L465.87,340.006L469.239,329.672L468.217,326.531L463.586,340.026Z" style="fill:rgb(0,28,61);"/>
                            <path d="M467.837,327.578L468.228,326.549L469.333,326.531L471.102,331.483L471.132,337.641L468.931,330.681L467.837,327.578Z" style="fill:rgb(0,28,61);"/>
                            <path d="M471.77,340.024L474.073,340.016L473.99,306.959L471.753,306.995L471.77,340.024Z" style="fill:rgb(0,28,61);"/>
                            <path d="M470.849,309.672L470.84,316.141L469.293,320.517L468.19,320.516L467.607,318.939L470.849,309.672Z" style="fill:rgb(0,28,61);"/>
                        </g>
                    </g>
                </g>
            </g>
            <g id="down" transform="matrix(1.430208,0,0,1.430208,423.35432,80.476095)">
                <path d="M342.65,94.4C354.02,101.59 364.82,106 371.06,118.92C374.68,130.24 377.62,136.75 372.11,148.25C371.43,149.16 370.75,150.08 370.1,151.01C373.42,147.51 362.06,141.08 370.06,144.48C370.88,138.17 371.08,132.35 366.64,127.27C364.64,124.28 367.52,114.39 361.45,116.86C364.59,112.72 356.43,113.4 355.73,107.72C354.14,113.65 348.73,102.17 346.22,99.77C344.6,97.1 336.85,91.1 337.33,97.82C335.24,98.61 330.72,96.53 333.55,100.03C330.34,101.25 326.81,100.65 323.63,101.65C319.74,108.57 305.82,105.16 301.39,114.23C294.47,121.06 290.84,128.88 281.15,133.09C287.04,124.93 294.02,111.98 299.16,105.13C306.72,98.96 294.16,104.26 292.09,106.16C288.63,109.86 287.54,112.95 282.04,114.08C277.44,120.31 273.29,127.32 268.18,133.19C265.55,135.31 267.66,137.88 269,140C272.05,143.64 270.53,148.71 269.96,152.94C267.84,145.58 264,137.55 263.73,129.86C269.74,122.37 276.5,115.17 282.87,107.94C293.16,103.34 299.99,96.11 311.37,94.46C322.02,92.03 331.99,93.74 342.65,94.4Z" style="fill:rgb(104,88,76);fill-rule:nonzero;"/>
                <path d="M346.22,99.77C348.73,102.17 354.14,113.65 355.73,107.72C356.43,113.4 364.59,112.72 361.45,116.86C367.52,114.39 364.64,124.28 366.64,127.27C371.08,132.35 370.88,138.17 370.06,144.48C362.06,141.08 373.42,147.51 370.1,151.01L369.83,151.82C366.4,156.4 370.98,166.8 363.24,165.31C362.81,161.43 361.99,157.94 360.8,154.23C361.07,144.82 360.22,142.67 351.54,139.08C356.91,131.92 339.01,123.02 340.69,133.98C339.57,130.76 340,129.28 336.07,128.65C339.38,127.41 342.33,124.93 345.85,126.32C351.69,118.89 355.47,128.24 358.2,132.83C361.99,137.12 361.72,129.3 359.13,127.86C353.86,124.29 349.4,114.9 342.61,116.81C338.06,117.52 336.79,110.84 331.55,113.53C329.41,118.34 311.95,107.8 325.08,110.47C322.99,101.02 305.54,112.05 314.04,118.85C309.28,119.16 304.79,117.91 300.05,118C302.06,120.11 304.89,117.77 305.8,121.77C302.65,123.18 297.53,123.37 295.76,126.62C302.58,123.47 308.47,125.97 315.05,122.04C324.53,120.65 322.12,133.71 330.67,130.5C332.62,130.22 334.27,129.43 336.07,128.65C333.88,134.92 325.31,137.05 319.66,139.34L318.68,139C320.87,136.88 325,136.62 325.24,133.37C321.49,136.4 323.77,131.78 322.31,129.68C319.05,128.28 316.01,128.47 313.89,125.2C309.89,127.9 305.76,130.37 301.7,132.96C301.96,128.26 298.01,134.34 297.61,135.76C297.65,144.99 289.27,148.55 289.7,157.85C290.14,165.01 278.57,165.71 275.46,160.86C270.89,160.27 274.86,155.84 270.75,154.06L269.96,152.94C270.53,148.71 272.05,143.64 269,140C267.66,137.88 265.55,135.31 268.18,133.19C273.29,127.32 277.44,120.31 282.04,114.08C287.54,112.95 288.63,109.86 292.09,106.16C294.16,104.26 306.72,98.96 299.16,105.13C294.02,111.98 287.04,124.93 281.15,133.09C290.84,128.88 294.47,121.06 301.39,114.23C305.82,105.16 319.74,108.57 323.63,101.65C326.81,100.65 330.34,101.25 333.55,100.03C330.72,96.53 335.24,98.61 337.33,97.82C336.85,91.1 344.6,97.1 346.22,99.77Z" style="fill:rgb(56,37,24);fill-rule:nonzero;"/>
                <path d="M325.08,110.47C311.95,107.8 329.41,118.34 331.55,113.53C336.79,110.84 338.06,117.52 342.61,116.81C349.4,114.9 353.86,124.29 359.13,127.86C361.72,129.3 361.99,137.12 358.2,132.83C355.47,128.24 351.69,118.89 345.85,126.32C342.33,124.93 339.38,127.41 336.07,128.65C334.27,129.43 332.62,130.22 330.67,130.5C322.12,133.71 324.53,120.65 315.05,122.04C308.47,125.97 302.58,123.47 295.76,126.62C297.53,123.37 302.65,123.18 305.8,121.77C304.89,117.77 302.06,120.11 300.05,118C304.79,117.91 309.28,119.16 314.04,118.85C305.54,112.05 322.99,101.02 325.08,110.47Z" style="fill:rgb(24,12,6);fill-rule:nonzero;"/>
                <path d="M371.06,118.92C378.48,128.57 382.38,138.87 372.11,148.25C377.62,136.75 374.68,130.24 371.06,118.92Z" style="fill:rgb(176,166,157);fill-rule:nonzero;"/>
                <path d="M313.89,125.2C316.01,128.47 319.05,128.28 322.31,129.68C323.77,131.78 321.49,136.4 325.24,133.37C325,136.62 320.87,136.88 318.68,139C313.92,137.77 314.58,132.94 309.01,133.99C315.22,135.99 307.28,138.23 304.75,137.71C301.55,138.73 299.17,143.38 300.12,146.73C312.33,146.48 319.04,146.72 328.24,152.61C324.84,156.16 325.85,163.26 319.07,162.68C324.4,154.85 312.39,163.16 311.28,160.2C318.19,155.58 304.74,157.17 302.25,159.06C305.01,153.14 301.09,152.11 298.48,157.88C297.4,149.75 293.97,154.18 291.87,158.61C292.31,166.08 284.77,168.67 283.42,176.33C276.02,177.17 282.55,178.07 279.17,182.3C276.36,178.93 274.72,174.48 273.82,170.24C275.22,163.87 270.11,160.03 270.75,154.06C274.86,155.84 270.89,160.27 275.46,160.86C278.57,165.71 290.14,165.01 289.7,157.85C289.27,148.55 297.65,144.99 297.61,135.76C298.01,134.34 301.96,128.26 301.7,132.96C305.76,130.37 309.89,127.9 313.89,125.2Z" style="fill:rgb(111,61,49);fill-rule:nonzero;"/>
                <path d="M336.07,128.65C340,129.28 339.57,130.76 340.69,133.98C339.01,123.02 356.91,131.92 351.54,139.08C360.22,142.67 361.07,144.82 360.8,154.23C359.95,153.26 358.03,146.36 358,150.97C358.53,154.61 353.94,151.12 352.13,151.12C352.49,153.8 355.06,155.87 351.75,157.57C346.52,156.95 341.35,157.09 336.11,156.81C334.33,147.1 343.48,147.27 350.33,146.84C354.21,147.8 357.7,151.25 356.79,144.33C350.61,141.94 349.71,143.41 348.78,136.31C345.4,137.26 338.81,140.09 338.5,134.32C332.08,136.92 327.45,142.03 319.66,139.34C325.31,137.05 333.88,134.92 336.07,128.65Z" style="fill:rgb(106,56,46);fill-rule:nonzero;"/>
                <path d="M263.73,129.86C264,137.55 267.84,145.58 269.96,152.94L270.75,154.06C270.11,160.03 275.22,163.87 273.82,170.24C273.12,164.62 268.55,161.93 268.73,156.06C267.9,147.64 260.89,137.87 263.73,129.86Z" style="fill:rgb(173,161,158);fill-rule:nonzero;"/>
                <path d="M309.01,133.99C314.58,132.94 313.92,137.77 318.68,139L319.66,139.34C327.45,142.03 332.08,136.92 338.5,134.32C338.81,140.09 345.4,137.26 348.78,136.31C349.71,143.41 350.61,141.94 356.79,144.33C357.7,151.25 354.21,147.8 350.33,146.84C343.48,147.27 334.33,147.1 336.11,156.81C341.35,157.09 346.52,156.95 351.75,157.57C355.06,155.87 352.49,153.8 352.13,151.12C353.94,151.12 358.53,154.61 358,150.97C358.03,146.36 359.95,153.26 360.8,154.23C361.99,157.94 362.81,161.43 363.24,165.31C370.98,166.8 366.4,156.4 369.83,151.82C371.28,160.14 367.6,165.72 365.3,173.17C364.67,186.01 354.01,192.56 354.85,206.16C353.42,201.84 353.45,203.15 351.04,205.77C355.96,209.52 353.73,214.93 353.36,220.19C353.86,230.2 348.33,234.93 345.85,243.94C345.33,250.01 343.01,255.78 336.5,257.37C332.76,258.73 327.24,262.35 327.38,266.86C324.05,267.65 324.14,263.33 321.8,262.08C317.13,261.2 313.65,264.31 309.97,266.59C308.55,259.36 293.38,256.54 287.02,251.93C283.65,249.71 280.33,247.8 276.16,248.86C275.42,241.19 270.92,238.85 277.93,230.85C280.31,232.8 279.43,238.29 279.28,241.07C281.88,236.35 287.3,230.3 280.42,226.61C282.79,215.34 285.33,201.26 289.56,191.35C287.44,190.5 285.22,190.03 283.16,189.02C282.84,186.02 280.89,184.5 279.17,182.3C282.55,178.07 276.02,177.17 283.42,176.33C284.77,168.67 292.31,166.08 291.87,158.61C293.97,154.18 297.4,149.75 298.48,157.88C301.09,152.11 305.01,153.14 302.25,159.06C304.74,157.17 318.19,155.58 311.28,160.2C312.39,163.16 324.4,154.85 319.07,162.68C325.85,163.26 324.84,156.16 328.24,152.61C319.04,146.72 312.33,146.48 300.12,146.73C299.17,143.38 301.55,138.73 304.75,137.71C307.28,138.23 315.22,135.99 309.01,133.99Z" style="fill:rgb(165,99,86);fill-rule:nonzero;"/>
                <path d="M322.58,165.03C321.43,172.04 336.09,176.47 339.81,170.47C340.93,173.22 341.89,175.97 342.01,178.97C340.14,177.93 338.14,172.73 336.51,176.44C333.68,183.29 320.94,185.04 320.69,175.06C317.81,177.32 317.8,181.59 315.24,184.01C312.86,177.9 318.74,169.5 322.58,165.03Z" style="fill:rgb(123,49,45);fill-rule:nonzero;"/>
                <path d="M336.12,186.78C328.39,187.65 317.84,185.45 318.68,196.86C317.15,206.54 325.71,202.54 331.6,202.8C339.53,205.37 339.03,192.81 338.14,188C341.99,190.58 339.76,199.24 337.77,202.72C335.96,208.58 341.59,220.64 332.63,221.52C327.88,222.5 317.33,225.18 315.25,218.72C311.73,209.08 315.68,202.38 315.11,193.11C319.33,185.66 328.46,184.57 336.12,186.78Z" style="fill:rgb(144,67,66);fill-rule:nonzero;"/>
                <path d="M336.12,186.78C336.82,187.13 337.49,187.53 338.14,188C339.03,192.81 339.53,205.37 331.6,202.8C325.71,202.54 317.15,206.54 318.68,196.86C317.84,185.45 328.39,187.65 336.12,186.78Z" style="fill:rgb(69,21,18);fill-rule:nonzero;"/>
                <path d="M283.16,189.02C285.22,190.03 287.44,190.5 289.56,191.35C285.33,201.26 282.79,215.34 280.42,226.61C287.3,230.3 281.88,236.35 279.28,241.07C279.43,238.29 280.31,232.8 277.93,230.85C270.92,238.85 275.42,241.19 276.16,248.86C280.33,247.8 283.65,249.71 287.02,251.93C293.38,256.54 308.55,259.36 309.97,266.59C313.65,264.31 317.13,261.2 321.8,262.08C324.14,263.33 324.05,267.65 327.38,266.86C327.24,262.35 332.76,258.73 336.5,257.37C343.01,255.78 345.33,250.01 345.85,243.94C348.33,234.93 353.86,230.2 353.36,220.19C353.73,214.93 355.96,209.52 351.04,205.77C353.45,203.15 353.42,201.84 354.85,206.16C355.33,210.21 354.2,215.61 355.76,219.27C359.67,224.68 361.4,220.31 365.9,222.57C366.78,234.89 362.71,246.76 361.47,259.08C358.92,255.16 354.87,260.06 351.16,260.26C346.77,260.97 349.32,264.54 346.52,267.47C344.7,271.3 340.55,269.48 337.05,270.26C321.07,272.87 318.05,267.96 300.21,270.25C297.2,274.45 290.64,271.26 288.51,267.48C285.79,261.22 276.95,273.34 282.4,264.63C280.18,260.37 275.6,259.15 276.73,266.64C279.22,268.98 277.75,269.41 276.78,272.17C270.79,257.4 264.49,242.92 258.91,228.01C266.82,223.31 281.52,221.69 281.07,209.91C282.25,203.15 283.05,195.89 283.16,189.02Z" style="fill:rgb(188,131,118);fill-rule:nonzero;"/>
                <path d="M293.17,202.04C295.78,207.82 299.71,212.74 302.6,218.36C307.6,229.01 316.56,230.84 327,233.08C330.32,233.84 340.91,227.41 334.46,234.44C331.11,242.81 332.36,248.73 323,253.99C318.34,249.57 313.68,249.88 307.7,249.24C303.48,240.77 297.7,234.1 302,224.14C300.64,225.15 295.12,226.89 298.56,223.53C300.94,220.89 300.02,221.94 297.32,221.46C294.95,215.63 291.58,208.42 293.17,202.04Z" style="fill:rgb(143,80,59);fill-rule:nonzero;"/>
                <path d="M281.07,209.91C281.52,221.69 266.82,223.31 258.91,228.01C258.21,227 257.5,225.99 256.8,224.98C265.14,220.67 274.21,216.41 281.07,209.91Z" style="fill:rgb(210,186,178);fill-rule:nonzero;"/>
                <path d="M365.9,222.57C367.63,223.32 369.34,224.14 371.06,224.92C372.4,240.69 366.63,258.19 363.72,273.8C360.22,287.09 358,305 348.29,315.29C329.3,335.38 296.49,328.77 284.71,304.32C276.79,290.49 272.48,274.62 265.86,260.12C261.82,249.26 255.42,238.62 252.98,227.27C254.22,226.44 255.48,225.66 256.8,224.98C257.5,225.99 258.21,227 258.91,228.01C264.49,242.92 270.79,257.4 276.78,272.17C281.55,285.45 286.81,300.21 295.71,311.29C311.01,328.6 345.42,323.42 351.4,299.38C355.63,286.26 358.62,272.56 361.47,259.08C362.71,246.76 366.78,234.89 365.9,222.57Z" style="fill:rgb(48,33,52);fill-rule:nonzero;"/>
                <path d="M371.06,224.92C373.79,225.84 376.31,226.98 378.62,228.73C382.44,261.33 380.89,293.56 389.37,325.77C388.85,330.87 389.33,332.79 384.48,328.93C374.69,328.11 366.54,333.77 357.02,329.98C348.28,328.69 336.55,330.1 328.72,333.63C326.59,336.51 323.99,337.93 320.65,335.88C315.51,341.28 302.29,346.98 294.28,342.74C288.59,337.55 281.25,335.79 275.31,330.91C271.47,322.31 251.03,323.67 249.61,314.85C254.71,288.93 254.92,256.94 242.74,232.92C246.26,231.23 249.73,229.45 252.98,227.27C255.42,238.62 261.82,249.26 265.86,260.12C272.48,274.62 276.79,290.49 284.71,304.32C296.49,328.77 329.3,335.38 348.29,315.29C358,305 360.22,287.09 363.72,273.8C366.63,258.19 372.4,240.69 371.06,224.92Z" style="fill:rgb(228,224,233);fill-rule:nonzero;"/>
                <path d="M378.62,228.73C380.05,229.54 381.56,230.28 382.93,231.19C383.31,232.46 383.64,233.73 383.97,235.01C387.49,264.84 384.52,293.95 393.13,323.4C393.86,328.74 394.17,333.88 394.17,339.26C393.15,349.93 394.73,361.04 400.24,370.33C399.81,371.69 399.37,373.05 398.92,374.41C393.27,369.78 392.18,359.51 390.27,352.8C389.86,347.84 390.01,342.9 390,337.93C390.01,333.75 390.31,329.88 389.37,325.77C380.89,293.56 382.44,261.33 378.62,228.73Z" style="fill:rgb(52,33,47);fill-rule:nonzero;"/>
                <path d="M382.93,231.19C386.51,234.18 390.26,236.66 394.63,238.37C403.95,242.13 407.46,251.56 418.15,251.82C428.09,257.31 440.39,262.75 445.04,274.04C441.19,272.57 439.7,267.55 436.78,273.02C427.23,266.37 418.73,258.7 408,252.99C404.67,251.63 402.59,249.27 400.55,246.42C396.22,240.32 389.03,240.56 383.97,235.01C383.64,233.73 383.31,232.46 382.93,231.19Z" style="fill:rgb(231,204,201);fill-rule:nonzero;"/>
                <path d="M242.74,232.92C254.92,256.94 254.71,288.93 249.61,314.85C248.52,319.32 246.97,323.47 245.59,327.84C241.86,342.53 236.55,354.8 224.25,364.27C220.87,366.37 218.26,369.58 213.91,368.3C213.42,366.91 212.96,365.52 212.58,364.1C213.37,361.22 217.81,364.04 219.96,361.07C221.03,360.25 222.03,359.36 222.99,358.43C232.86,350.58 236.25,340.27 239.9,328.72C240.26,327.58 240.6,326.44 240.93,325.3C243.5,318.39 246.08,310.71 245.84,303.27C248.87,282.31 246.83,256.93 239.33,236.93C239.49,235.94 239.66,234.95 239.85,233.96C240.8,233.58 241.76,233.24 242.74,232.92Z" style="fill:rgb(46,27,41);fill-rule:nonzero;"/>
                <path d="M239.85,233.96C239.66,234.95 239.49,235.94 239.33,236.93C232.98,242.23 234.41,248.24 226.13,248.3C221.69,249.66 225.26,251.32 228.02,251.51C222.36,255.66 214.25,254.86 208.76,258.78C204.81,262.85 202.85,269.2 198.3,272.92C196.93,270.95 197.61,267.22 195.03,271.01C189.44,277.18 196.84,262.66 191.43,266.47C188.02,267.19 184.66,274.67 181.95,270.02C188.11,262.13 197.06,255.66 206.63,252.67C218.87,249.75 229.94,241.42 239.85,233.96Z" style="fill:rgb(228,199,194);fill-rule:nonzero;"/>
                <path d="M383.97,235.01C389.03,240.56 396.22,240.32 400.55,246.42C402.59,249.27 404.67,251.63 408,252.99C418.73,258.7 427.23,266.37 436.78,273.02C439.7,267.55 441.19,272.57 445.04,274.04C445.44,275 445.84,275.96 446.23,276.92C443.48,276.45 442.3,275.52 440.41,273.61C438.23,278.34 434.1,276.38 430.07,276.21C430.17,281.36 437.67,283.45 436.96,289.97C436.53,295.02 439.47,301.42 437.02,305.9C434.63,303.02 426.43,294.69 422.77,297.6C417.71,294.55 408.66,287.66 402.51,287.35C400.23,286.55 396.03,284.27 395.48,288.16C396.53,292.02 399.22,294.87 400.96,298.15C396.09,298.53 401.81,307.29 400.04,310.01C396.64,314.31 395.51,318.9 393.13,323.4C384.52,293.95 387.49,264.84 383.97,235.01Z" style="fill:rgb(211,145,137);fill-rule:nonzero;"/>
                <path d="M239.33,236.93C246.83,256.93 248.87,282.31 245.84,303.27C245.28,300.82 245.07,298.27 244.35,295.88C238.2,295.98 240.7,290.13 239.74,286.07C229.35,284.87 227.58,298.53 222.04,288.26C220.09,289.5 214.66,290.95 217.57,286.87C212.36,278.34 211.9,270.53 218.91,262.94C221.92,256.18 212.36,265.28 211.07,259.15C203.57,266.48 201.31,276.65 194.05,283.88C194.41,278.22 195.88,279.17 190.13,279.85C189.67,276.04 190.73,272.77 190.92,269.02C180.66,273.03 180.13,286.69 172.83,294.71C172.13,294.12 171.46,293.52 170.8,292.88C172.99,284.83 176.27,276.29 181.95,270.02C184.66,274.67 188.02,267.19 191.43,266.47C196.84,262.66 189.44,277.18 195.03,271.01C197.61,267.22 196.93,270.95 198.3,272.92C202.85,269.2 204.81,262.85 208.76,258.78C214.25,254.86 222.36,255.66 228.02,251.51C225.26,251.32 221.69,249.66 226.13,248.3C234.41,248.24 232.98,242.23 239.33,236.93Z" style="fill:rgb(209,145,136);fill-rule:nonzero;"/>
                <path d="M361.47,259.08C358.62,272.56 355.63,286.26 351.4,299.38C345.42,323.42 311.01,328.6 295.71,311.29C286.81,300.21 281.55,285.45 276.78,272.17C277.75,269.41 279.22,268.98 276.73,266.64C275.6,259.15 280.18,260.37 282.4,264.63C276.95,273.34 285.79,261.22 288.51,267.48C290.64,271.26 297.2,274.45 300.21,270.25C318.05,267.96 321.07,272.87 337.05,270.26C340.55,269.48 344.7,271.3 346.52,267.47C349.32,264.54 346.77,260.97 351.16,260.26C354.87,260.06 358.92,255.16 361.47,259.08Z" style="fill:rgb(225,156,147);fill-rule:nonzero;"/>
                <path d="M211.07,259.15C212.36,265.28 221.92,256.18 218.91,262.94C211.9,270.53 212.36,278.34 217.57,286.87C214.66,290.95 220.09,289.5 222.04,288.26C227.58,298.53 229.35,284.87 239.74,286.07C240.7,290.13 238.2,295.98 244.35,295.88C245.07,298.27 245.28,300.82 245.84,303.27C246.08,310.71 243.5,318.39 240.93,325.3C237.81,320.54 239.64,310.96 233.57,309.55C234.42,307.71 235.5,306.07 235.97,304.05C232.13,303.68 230.75,306.64 228.1,308.75C225.26,301.67 233.18,298.11 234.12,292.19C227.01,296.87 218.5,300.19 211.88,305.25C214.98,310.02 203.17,303.65 204.56,302.68C210.56,302.65 201.9,291.77 202.85,298.97C198.36,302.58 200.28,286.15 195.94,292.97C194.05,294.89 197.81,296.75 195.19,297.2C189.51,298.3 193.28,305.2 188.04,308.05C185.63,308.87 185.71,316.13 183.86,311.13C182.29,305.58 176.78,308.64 177.31,302.99C169.7,307.57 168.64,316.9 171.08,324.71C175.59,319.79 178.5,326.43 181.49,329.62C182.98,327.17 184.45,324.56 186.34,322.39C194.1,323.58 203.01,323.37 209.67,327.39C214.22,342.22 196.78,350.33 192.66,362.35C185.71,363.63 181.3,367.64 175.34,370.82C177.12,363.44 167.92,372.91 166.66,374.65C159.07,378.42 171.32,384.09 168.57,391.61C167.21,393.24 169.64,406.24 171.33,399.64C172.99,400.16 174.21,400.76 175.99,400.25C175.64,401.51 175.3,402.78 174.98,404.05C171.92,403.79 169.18,406.2 166.45,405.69C164.19,401.53 163.64,397.51 158.73,395.6C160.45,389.81 164.99,386.25 159.66,380.26C153.36,384.99 161.35,388.94 154.64,388.83C153.94,395.68 150.08,403.12 153.77,410.21C158.27,415.82 151.49,416.32 156.41,421.32C153.37,428.7 151.31,433.01 156.99,439.99C159.73,444.18 156.09,449.19 156.22,453.63C163.24,455.37 168.87,466.46 173.95,471.26C172.84,477.07 165.67,474.84 169.98,482.71C170.18,494.28 179.33,499.37 178.26,510.82C181.48,514.74 180.65,519.19 182.7,523.32C189.41,528.7 186.41,536.11 196.01,537.99C197.84,537.48 204.82,534.34 202.2,531.58C198.23,530.35 202.95,527.86 204.57,526.9C207.86,526.2 208.91,522.93 211.97,522.11C218.31,523.17 220.69,537.38 225.08,526.53C227.46,528.97 227.06,530.63 226.67,533.77C225.32,537.54 227.04,542.84 225.03,545.97L224.3,545.76C222.17,542 221.98,541.98 217.65,542.37C210.5,542.15 203.52,539.36 196.1,540.2C187.79,539.8 184.62,530.81 178.92,525.05C178.88,518.05 174.37,514.12 173.56,507.4C165.69,509.1 171.7,494.11 165.56,489.68C164.39,483.75 168.38,477.44 163.57,473.51C161.68,470.12 163.17,468.18 158.38,468.58C156.61,460.78 146.47,463.56 152.38,455.94C146.32,450.87 155.51,454.77 149.01,446.71C157.23,446.17 147.46,444.79 153.65,442.4C149.69,438.28 144.09,425.17 149.89,421.2C148.6,419.78 146.84,419.26 146.71,417.17C150.07,406.55 134.11,405.88 132.66,395.21C129.21,392.76 134.51,382.31 129.91,384.8C136.89,367.57 147.03,352.51 152.64,334.65C161.68,320.26 168.5,310.33 170.8,292.88C171.46,293.52 172.13,294.12 172.83,294.71C180.13,286.69 180.66,273.03 190.92,269.02C190.73,272.77 189.67,276.04 190.13,279.85C195.88,279.17 194.41,278.22 194.05,283.88C201.31,276.65 203.57,266.48 211.07,259.15Z" style="fill:rgb(198,131,114);fill-rule:nonzero;"/>
                <path d="M440.41,273.61C442.3,275.52 443.48,276.45 446.23,276.92C452.15,287.09 453.84,300.27 455.14,311.8C455.26,318.69 456.84,323.51 452.67,329.7C445.92,329.96 445.67,329.37 441.67,324.28C434.57,324.57 428.05,323.43 421.24,326.32C423.93,333.12 429.29,343.02 433.52,349.48C435.97,352.5 435.69,360.89 441.15,356.44C439.7,363.24 440.47,365.06 444.93,371.07C449.69,364.87 448.93,373.2 453.19,374.54C459.27,373.7 456,378.53 460.08,383.1C462.47,388.12 461.91,393.86 464.5,399.04C461.87,406.92 464.65,411.85 464.18,419.4C460.42,421.98 465.68,425.68 462.21,427.26C458.52,428.53 465.05,432.29 462.93,432.83C457.36,433.72 459.62,435.02 460.94,438.8C454.13,442.94 463.35,449.83 457.43,453.55C466.48,455.22 455.13,462.05 456.68,467.47C461.54,465.94 456.23,472.73 457.61,475.17C457.32,480.9 465.57,489.2 457.44,492.31C458.51,497.49 455.02,498.66 457.67,503.74C453.37,502.29 449.15,513.6 450.52,505.6C451.4,501.34 447.29,506.77 446.81,507.82C447.77,489.93 446.66,472.71 443.74,455.06C440.8,439.22 446.46,424.47 442.15,408.88C443.87,410.32 446.27,413.67 448.76,412.84C449.53,409.82 440.06,408.69 446.29,406.26C453.05,402.26 449.98,409.78 454.98,411.02C457.15,408.68 458.15,404.56 459.54,401.61C461.92,395.31 455.62,394.46 455.94,388.02C454.65,382.33 452.89,379.84 446.76,381.06C437.52,379.26 436.49,366.72 430.43,359.6C427,347.14 420.21,337.73 413.45,327.06C418.21,321.32 433.04,324.97 436.08,316.94C427.53,310.55 419.6,304.38 409.59,300.42C404.05,296.25 410.39,306.39 408.71,308.68C407.48,315.03 400.6,303.5 402.15,310.97C404.65,319.19 396.07,323.44 398.08,331.33C397.27,334.31 396.22,336.9 394.17,339.26C394.17,333.88 393.86,328.74 393.13,323.4C395.51,318.9 396.64,314.31 400.04,310.01C401.81,307.29 396.09,298.53 400.96,298.15C399.22,294.87 396.53,292.02 395.48,288.16C396.03,284.27 400.23,286.55 402.51,287.35C408.66,287.66 417.71,294.55 422.77,297.6C426.43,294.69 434.63,303.02 437.02,305.9C439.47,301.42 436.53,295.02 436.96,289.97C437.67,283.45 430.17,281.36 430.07,276.21C434.1,276.38 438.23,278.34 440.41,273.61Z" style="fill:rgb(181,126,110);fill-rule:nonzero;"/>
                <path d="M202.85,298.97C201.9,291.77 210.56,302.65 204.56,302.68C203.17,303.65 214.98,310.02 211.88,305.25C218.5,300.19 227.01,296.87 234.12,292.19C233.18,298.11 225.26,301.67 228.1,308.75C230.75,306.64 232.13,303.68 235.97,304.05C235.5,306.07 234.42,307.71 233.57,309.55C239.64,310.96 237.81,320.54 240.93,325.3C240.6,326.44 240.26,327.58 239.9,328.72C236.94,328.3 232.72,329.62 232.79,325.17C233.22,319.49 228.75,316.87 230.78,311.23C228.72,312.18 226.94,315.67 225.87,311.76C225.75,307.35 221.39,308.11 223.5,303.89C219.16,303.71 217.4,309.87 213.05,311.1C206.39,313.12 199.41,316.28 194.01,320.72C200.96,322.33 205.4,323.51 212.32,323.67C217.51,342.77 195.97,358.4 194.65,377.23C190.55,386.98 179.79,391.13 175.99,400.25C174.21,400.76 172.99,400.16 171.33,399.64C169.64,406.24 167.21,393.24 168.57,391.61C171.32,384.09 159.07,378.42 166.66,374.65C167.92,372.91 177.12,363.44 175.34,370.82C181.3,367.64 185.71,363.63 192.66,362.35C196.78,350.33 214.22,342.22 209.67,327.39C203.01,323.37 194.1,323.58 186.34,322.39C184.45,324.56 182.98,327.17 181.49,329.62C178.5,326.43 175.59,319.79 171.08,324.71C168.64,316.9 169.7,307.57 177.31,302.99C176.78,308.64 182.29,305.58 183.86,311.13C185.71,316.13 185.63,308.87 188.04,308.05C193.28,305.2 189.51,298.3 195.19,297.2C197.81,296.75 194.05,294.89 195.94,292.97C200.28,286.15 198.36,302.58 202.85,298.97Z" style="fill:rgb(175,112,88);fill-rule:nonzero;"/>
                <path d="M409.59,300.42C419.6,304.38 427.53,310.55 436.08,316.94C433.04,324.97 418.21,321.32 413.45,327.06C420.21,337.73 427,347.14 430.43,359.6C436.49,366.72 437.52,379.26 446.76,381.06C452.89,379.84 454.65,382.33 455.94,388.02C455.62,394.46 461.92,395.31 459.54,401.61C458.15,404.56 457.15,408.68 454.98,411.02C449.98,409.78 453.05,402.26 446.29,406.26C440.06,408.69 449.53,409.82 448.76,412.84C446.27,413.67 443.87,410.32 442.15,408.88C434.92,391.31 423.3,376.2 418.23,357.32C418.99,350.67 417.45,343.35 412.79,338.32C411.74,330.81 405,322.21 416.78,320.71C415.69,313.79 410.78,310.58 404.88,315.63C402.49,321.95 401.32,325.1 398.08,331.33C396.07,323.44 404.65,319.19 402.15,310.97C400.6,303.5 407.48,315.03 408.71,308.68C410.39,306.39 404.05,296.25 409.59,300.42Z" style="fill:rgb(149,96,77);fill-rule:nonzero;"/>
                <path d="M223.5,303.89C221.39,308.11 225.75,307.35 225.87,311.76C226.94,315.67 228.72,312.18 230.78,311.23C228.75,316.87 233.22,319.49 232.79,325.17C232.72,329.62 236.94,328.3 239.9,328.72C236.25,340.27 232.86,350.58 222.99,358.43C218.45,350.62 225.64,351.02 226.71,343.63C228.8,337.31 225.7,332.65 223.57,327.21C223.76,324.85 232.23,313.22 225.14,317.57C224.93,311.72 215.71,316.48 215.39,319.25C220.65,325.56 216.26,334.09 214.12,340.99C217.03,347.48 216.09,355.23 219.96,361.07C217.81,364.04 213.37,361.22 212.58,364.1C211.19,359.46 211,354.77 210.75,349.97C204.17,357.8 200.89,368.81 194.65,377.23C195.97,358.4 217.51,342.77 212.32,323.67C205.4,323.51 200.96,322.33 194.01,320.72C199.41,316.28 206.39,313.12 213.05,311.1C217.4,309.87 219.16,303.71 223.5,303.89Z" style="fill:rgb(140,89,67);fill-rule:nonzero;"/>
                <path d="M455.14,311.8C458.98,323.14 468.84,331.31 471.23,343.81C475.01,361.15 484.15,377.77 487.12,395.79C481.78,395.32 484.06,412.16 481.73,415.8C477.6,424.12 484.01,428.06 482.27,436.41C484.96,447.15 481.19,458.84 479.76,469.84C478.16,467.09 476.98,461.17 474.49,467.2C479.5,466.33 475.16,477.52 473.8,480.81C470.46,484.08 467.85,487.24 466.42,491.83C469,494.9 469.57,495.72 473.21,493.4C473.85,497.41 472.73,501.87 472.78,505.98C469.14,504.53 469.03,499.17 470.82,496.05C466.37,497.74 466.59,501.41 468.66,505.18C466.34,511.4 468.93,517.25 466.74,523.56C465.31,524.48 463.59,520.39 464.02,523.97C465.03,536.5 457.05,543.32 454.56,554.54C450.83,554.37 446.98,554.3 443.33,553.47C442.51,547.81 442.58,545.43 437.61,541.77C440.38,536.73 436.52,535.54 433.14,539.01C431.19,546.14 423.8,546.14 425.27,553.88C419.8,561.87 416.39,546.72 416.89,558.06C414.06,552.66 418.24,548.1 420.33,543.33C423.64,533.63 431.34,528.53 439.98,523.94C445.65,521.46 445.1,512.95 446.81,507.82C447.29,506.77 451.4,501.34 450.52,505.6C449.15,513.6 453.37,502.29 457.67,503.74C455.02,498.66 458.51,497.49 457.44,492.31C465.57,489.2 457.32,480.9 457.61,475.17C456.23,472.73 461.54,465.94 456.68,467.47C455.13,462.05 466.48,455.22 457.43,453.55C463.35,449.83 454.13,442.94 460.94,438.8C459.62,435.02 457.36,433.72 462.93,432.83C465.05,432.29 458.52,428.53 462.21,427.26C465.68,425.68 460.42,421.98 464.18,419.4C464.65,411.85 461.87,406.92 464.5,399.04C461.91,393.86 462.47,388.12 460.08,383.1C456,378.53 459.27,373.7 453.19,374.54C448.93,373.2 449.69,364.87 444.93,371.07C440.47,365.06 439.7,363.24 441.15,356.44C435.69,360.89 435.97,352.5 433.52,349.48C429.29,343.02 423.93,333.12 421.24,326.32C428.05,323.43 434.57,324.57 441.67,324.28C445.67,329.37 445.92,329.96 452.67,329.7C456.84,323.51 455.26,318.69 455.14,311.8Z" style="fill:rgb(208,144,129);fill-rule:nonzero;"/>
                <path d="M416.78,320.71C405,322.21 411.74,330.81 412.79,338.32C417.45,343.35 418.99,350.67 418.23,357.32C414.66,349.53 411.19,340.13 405.17,333.95C404.8,345.48 406.68,360.14 400.24,370.33C394.73,361.04 393.15,349.93 394.17,339.26C396.22,336.9 397.27,334.31 398.08,331.33C401.32,325.1 402.49,321.95 404.88,315.63C410.78,310.58 415.69,313.79 416.78,320.71Z" style="fill:rgb(95,59,44);fill-rule:nonzero;"/>
                <path d="M225.14,317.57C232.23,313.22 223.76,324.85 223.57,327.21C225.7,332.65 228.8,337.31 226.71,343.63C225.64,351.02 218.45,350.62 222.99,358.43C222.03,359.36 221.03,360.25 219.96,361.07C216.09,355.23 217.03,347.48 214.12,340.99C216.26,334.09 220.65,325.56 215.39,319.25C215.71,316.48 224.93,311.72 225.14,317.57Z" style="fill:rgb(102,54,29);fill-rule:nonzero;"/>
                <path d="M249.61,314.85C251.03,323.67 271.47,322.31 275.31,330.91C281.25,335.79 288.59,337.55 294.28,342.74C302.29,346.98 315.51,341.28 320.65,335.88C323.99,337.93 326.59,336.51 328.72,333.63C336.55,330.1 348.28,328.69 357.02,329.98C366.54,333.77 374.69,328.11 384.48,328.93C389.33,332.79 388.85,330.87 389.37,325.77C390.31,329.88 390.01,333.75 390,337.93C383.93,335.29 375.02,338.74 375.41,346.89C372.26,346.91 369.37,343.79 367.04,341.97C357.47,340.29 350.08,338.9 341.06,343.95C332.97,342.97 335.74,348.36 340.65,350.36C350.94,354.88 357.15,362.9 365.17,370.24L364.58,372C353.98,365.83 343.8,357.4 332.06,352.04C335.78,360.44 350.59,362.25 354.26,369.4C354.58,374.04 360.1,372.24 360.11,376.91C353.62,387.23 352.83,401.96 343.75,409.74C341.58,411.1 337.49,414.99 335.85,411C339.75,406.45 345.59,405.44 348.04,399.03C350.28,395.66 350.99,387.29 345.01,387.92C335.62,389.49 329.9,396.69 327.57,405.58C322.45,405.88 332.97,393.02 327.69,390.26C323.03,388.8 321.3,391.51 317.91,393.86C323.01,386.53 330.36,373.34 327.64,364.4C321.64,359.78 312.64,373.65 310,378C302.41,386.5 300.79,398.29 293.32,406.32C290.88,408.72 286.35,412.38 283.8,408.04C290.38,403.83 296.32,400.6 298.45,392.4C299.77,389.29 298.55,386.25 295,385.98C285.02,385.21 276.57,393.43 275,403.03C274.14,405.63 274.18,405.44 272.23,403.76C267.13,399.36 265.18,392.63 264.46,386.16C275.29,383.16 285.34,379.95 289.2,368.14C290.5,359.5 306.51,359.19 313.18,358.25C315.16,356.65 311.89,356.74 310.86,356.18C302.75,354.81 295.78,359.21 288.33,361.01L286.85,359.65C289.56,357.63 293.76,356.93 295.85,354.33C292.43,352.38 289.93,351.2 286.12,353.14C271.22,359.52 255.86,360.93 240,363.02C238.04,362.82 232.28,365.77 234.62,361.66C250.18,357.71 264.77,361.1 279.69,351.73C284.08,348.51 273.41,351.65 274.37,347.92C275.48,340.12 265.87,349.36 263.13,342.81C260.33,335.28 245.81,335.88 245.59,327.84C246.97,323.47 248.52,319.32 249.61,314.85Z" style="fill:rgb(213,204,211);fill-rule:nonzero;"/>
                <path d="M245.59,327.84C245.81,335.88 260.33,335.28 263.13,342.81C265.87,349.36 275.48,340.12 274.37,347.92C273.41,351.65 284.08,348.51 279.69,351.73C264.77,361.1 250.18,357.71 234.62,361.66C232.28,365.77 238.04,362.82 240,363.02C255.86,360.93 271.22,359.52 286.12,353.14C289.93,351.2 292.43,352.38 295.85,354.33C293.76,356.93 289.56,357.63 286.85,359.65C277.29,354.77 264.29,362.17 253.98,363.56C265.08,364.07 257.45,373.6 255.41,379.06C254.7,375.69 251.21,377.55 248.99,377.98C242.26,380.56 235.14,379.77 228.44,382.52C222.29,383.69 227.99,392.98 225.99,397.51C221.84,387.61 216.56,378.87 213.91,368.3C218.26,369.58 220.87,366.37 224.25,364.27C236.55,354.8 241.86,342.53 245.59,327.84Z" style="fill:rgb(174,151,147);fill-rule:nonzero;"/>
                <path d="M390,337.93C390.01,342.9 389.86,347.84 390.27,352.8C390.15,354.18 390,355.55 389.82,356.91C383.12,350.68 377.57,347.11 368.05,347.2C369.42,362.1 380.12,356.88 388.25,365.72C390.54,373.53 385.01,389.49 389.97,395.5C385.96,404.68 383.85,413.91 382.87,423.86C379.43,431.42 382.71,420.28 380.19,417.89C379.52,409.33 387.39,399.64 386.55,389.65C380.2,386.84 376.68,381.64 371.07,377.81C372.18,374.31 370.4,371.41 372.6,368C369.55,368.12 366.86,366.99 365.17,370.24C357.15,362.9 350.94,354.88 340.65,350.36C335.74,348.36 332.97,342.97 341.06,343.95C350.08,338.9 357.47,340.29 367.04,341.97C369.37,343.79 372.26,346.91 375.41,346.89C375.02,338.74 383.93,335.29 390,337.93Z" style="fill:rgb(189,173,176);fill-rule:nonzero;"/>
                <path d="M368.05,347.2C377.57,347.11 383.12,350.68 389.82,356.91C390,355.55 390.15,354.18 390.27,352.8C392.18,359.51 393.27,369.78 398.92,374.41C396.91,381.87 393.79,388.81 389.97,395.5C385.01,389.49 390.54,373.53 388.25,365.72C380.12,356.88 369.42,362.1 368.05,347.2Z" style="fill:rgb(157,135,136);fill-rule:nonzero;"/>
                <path d="M332.06,352.04C343.8,357.4 353.98,365.83 364.58,372C362.71,373.46 361.1,374.65 360.11,376.91C360.1,372.24 354.58,374.04 354.26,369.4C350.59,362.25 335.78,360.44 332.06,352.04Z" style="fill:rgb(165,154,159);fill-rule:nonzero;"/>
                <path d="M310.86,356.18C311.89,356.74 315.16,356.65 313.18,358.25C306.51,359.19 290.5,359.5 289.2,368.14C289.1,365.73 288.82,363.37 288.33,361.01C295.78,359.21 302.75,354.81 310.86,356.18Z" style="fill:rgb(158,147,151);fill-rule:nonzero;"/>
                <path d="M286.85,359.65L288.33,361.01C288.82,363.37 289.1,365.73 289.2,368.14C285.34,379.95 275.29,383.16 264.46,386.16C265.18,392.63 267.13,399.36 272.23,403.76C274.18,405.44 274.14,405.63 275,403.03C276.57,393.43 285.02,385.21 295,385.98C298.55,386.25 299.77,389.29 298.45,392.4C296.32,400.6 290.38,403.83 283.8,408.04C286.35,412.38 290.88,408.72 293.32,406.32C300.79,398.29 302.41,386.5 310,378C312.64,373.65 321.64,359.78 327.64,364.4C330.36,373.34 323.01,386.53 317.91,393.86C321.3,391.51 323.03,388.8 327.69,390.26C332.97,393.02 322.45,405.88 327.57,405.58C329.9,396.69 335.62,389.49 345.01,387.92C350.99,387.29 350.28,395.66 348.04,399.03C345.59,405.44 339.75,406.45 335.85,411C337.49,414.99 341.58,411.1 343.75,409.74C352.83,401.96 353.62,387.23 360.11,376.91C361.1,374.65 362.71,373.46 364.58,372L365.17,370.24C366.86,366.99 369.55,368.12 372.6,368C370.4,371.41 372.18,374.31 371.07,377.81C366.89,387.6 363.37,397.2 356.82,405.78C355.87,406.79 354.98,413.69 357.69,411.6C365.02,406.53 367.4,386.65 375.88,385.07C374.94,394.82 375.1,403.82 371.1,413.02C373.77,411.12 374.58,408.15 376.92,405.95C376.69,410.18 373.86,418.43 368.99,419.03C362.8,420.35 362.87,413.59 356.81,417.77C350.44,421.26 350.39,414.38 348.86,410.25C345.08,414.95 339.41,420.4 332.95,417.04C329.3,413.91 325.64,409.06 320.35,409.33C314.03,413.16 310.47,417.97 302.1,415.97C298.74,415.65 298.91,408.07 295.75,411.65C291.07,414.49 286.91,418.12 281.34,414.64C276.47,410 272.14,415.17 267.86,411.17C263.47,404 261.6,400.5 258.02,393.13C255.01,397.21 255.51,408.49 251.01,412.12C244.8,409.13 246.68,400.95 248.76,395.85C250.89,390.21 253.12,384.63 255.41,379.06C257.45,373.6 265.08,364.07 253.98,363.56C264.29,362.17 277.29,354.77 286.85,359.65Z" style="fill:rgb(30,24,40);fill-rule:nonzero;"/>
                <path d="M275.21,365.45C286.69,367.59 268.49,379.27 266.44,375.27C268.6,372.17 271.19,366.09 275.21,365.45Z" style="fill:rgb(174,164,171);fill-rule:nonzero;"/>
                <path d="M255.41,379.06C253.12,384.63 250.89,390.21 248.76,395.85C246.68,400.95 244.8,409.13 251.01,412.12C255.51,408.49 255.01,397.21 258.02,393.13C261.6,400.5 263.47,404 267.86,411.17C272.14,415.17 276.47,410 281.34,414.64C286.91,418.12 291.07,414.49 295.75,411.65C296.18,417.23 291.14,413.69 290.98,418.91C291.61,423.14 301.59,420.36 300.82,423.84C296.53,424.08 292.36,423.04 288.09,423.13C287.1,427.53 290.72,426.62 292.63,429.29C294.04,431.89 290.45,430.68 288.99,431.09C281.86,430.82 275.24,426.6 268.07,425.8C260.06,424.18 254.74,425.08 247.28,421.65C244.37,421.4 233.64,433.12 238.41,424.41C244.76,416.02 245.53,416.36 255.87,417.91C258.04,412.94 246.73,415.46 244.13,415.19C236.11,417.36 235.56,425.79 228.98,428.91C227.89,423.75 238.2,415.55 229.9,414.55C229.3,408.32 228.1,403.37 225.99,397.51C227.99,392.98 222.29,383.69 228.44,382.52C235.14,379.77 242.26,380.56 248.99,377.98C251.21,377.55 254.7,375.69 255.41,379.06Z" style="fill:rgb(198,183,185);fill-rule:nonzero;"/>
                <path d="M317.6,378.69C319.74,376.65 318.22,378.95 318.05,380.1C315.8,384.37 312.7,393.46 308.06,394.98C309.51,389.64 313.58,382.51 317.6,378.69Z" style="fill:rgb(178,174,189);fill-rule:nonzero;"/>
                <path d="M371.07,377.81C376.68,381.64 380.2,386.84 386.55,389.65C387.39,399.64 379.52,409.33 380.19,417.89C382.71,420.28 379.43,431.42 382.87,423.86C382.99,438.46 381,453.13 380.75,467.76C379.46,472.59 380.24,477.09 379.85,482.03C379.03,479.98 378.3,477.9 377.3,475.92C377.03,478.58 376.96,481.25 376.89,483.92C375.81,482.52 376.29,481.08 374.18,482.16C370.41,484.1 369.72,479.37 368.73,476.86C374.65,473 362.38,468.81 367.6,462.77C364.37,456.88 366.92,453.66 368.78,448.01C362.17,449.17 358.43,447.33 352.29,445.61C351.76,443.6 355.86,443.99 356.95,442.48C343.96,437.14 332.56,438.05 318.82,439.78C313.29,441.04 322.95,447.04 318.44,449.47C317.29,462 302.07,450.59 295.9,448.1C292.12,442.18 276.88,457.84 288.01,455.94C291.93,455.2 289.23,458.69 291.94,460.06C299.38,465.64 307.79,462.53 311.74,473.08C306.77,476.02 312.19,473.73 312.13,477.61C299.94,477.07 307.42,471.83 297.29,473.91C293.98,468.98 288.08,471.31 284.4,466.62C280.82,460.92 272.61,461.31 266.62,459.39C262.71,458.24 261.21,459.68 259.15,462.72C264.6,465.19 270.01,465.72 275.1,468.92C262.73,466.78 253.33,460.76 240.4,463.93C237.33,458.05 227.24,467.86 224.01,469.98C223.55,463.69 228.51,461.59 230.07,456.11C227.55,457.09 224.5,462.84 224.64,456.82C227.8,443.03 226.13,428 229.9,414.55C238.2,415.55 227.89,423.75 228.98,428.91C235.56,425.79 236.11,417.36 244.13,415.19C246.73,415.46 258.04,412.94 255.87,417.91C245.53,416.36 244.76,416.02 238.41,424.41C233.64,433.12 244.37,421.4 247.28,421.65C254.74,425.08 260.06,424.18 268.07,425.8C275.24,426.6 281.86,430.82 288.99,431.09C290.45,430.68 294.04,431.89 292.63,429.29C290.72,426.62 287.1,427.53 288.09,423.13C292.36,423.04 296.53,424.08 300.82,423.84C301.59,420.36 291.61,423.14 290.98,418.91C291.14,413.69 296.18,417.23 295.75,411.65C298.91,408.07 298.74,415.65 302.1,415.97C310.47,417.97 314.03,413.16 320.35,409.33C325.64,409.06 329.3,413.91 332.95,417.04C339.41,420.4 345.08,414.95 348.86,410.25C350.39,414.38 350.44,421.26 356.81,417.77C362.87,413.59 362.8,420.35 368.99,419.03C373.86,418.43 376.69,410.18 376.92,405.95C374.58,408.15 373.77,411.12 371.1,413.02C375.1,403.82 374.94,394.82 375.88,385.07C367.4,386.65 365.02,406.53 357.69,411.6C354.98,413.69 355.87,406.79 356.82,405.78C363.37,397.2 366.89,387.6 371.07,377.81Z" style="fill:rgb(214,205,211);fill-rule:nonzero;"/>
                <path d="M364.78,379C364.39,385.22 361.52,390.97 358.06,396.03C357.93,392.26 359.52,389.27 360.77,385.85C361.83,383.99 362.21,379.06 364.78,379Z" style="fill:rgb(179,174,188);fill-rule:nonzero;"/>
                <path d="M159.66,380.26C164.99,386.25 160.45,389.81 158.73,395.6C163.64,397.51 164.19,401.53 166.45,405.69C169.18,406.2 171.92,403.79 174.98,404.05C173.17,417.04 179.73,427.29 180.01,439.99C179.89,459.49 181.49,480.22 188.4,498.62C190.37,507.89 203.57,508.44 211.23,510.99C217.2,513.75 220.59,521.76 225.08,526.53C220.69,537.38 218.31,523.17 211.97,522.11C208.91,522.93 207.86,526.2 204.57,526.9C202.95,527.86 198.23,530.35 202.2,531.58C204.82,534.34 197.84,537.48 196.01,537.99C186.41,536.11 189.41,528.7 182.7,523.32C180.65,519.19 181.48,514.74 178.26,510.82C179.33,499.37 170.18,494.28 169.98,482.71C165.67,474.84 172.84,477.07 173.95,471.26C168.87,466.46 163.24,455.37 156.22,453.63C156.09,449.19 159.73,444.18 156.99,439.99C151.31,433.01 153.37,428.7 156.41,421.32C151.49,416.32 158.27,415.82 153.77,410.21C150.08,403.12 153.94,395.68 154.64,388.83C161.35,388.94 153.36,384.99 159.66,380.26Z" style="fill:rgb(212,153,138);fill-rule:nonzero;"/>
                <path d="M132.66,395.21C134.11,405.88 150.07,406.55 146.71,417.17C146.84,419.26 148.6,419.78 149.89,421.2C144.09,425.17 149.69,438.28 153.65,442.4C147.46,444.79 157.23,446.17 149.01,446.71C155.51,454.77 146.32,450.87 152.38,455.94C146.47,463.56 156.61,460.78 158.38,468.58C163.17,468.18 161.68,470.12 163.57,473.51C168.38,477.44 164.39,483.75 165.56,489.68C171.7,494.11 165.69,509.1 173.56,507.4C174.37,514.12 178.88,518.05 178.92,525.05C184.62,530.81 187.79,539.8 196.1,540.2C194.87,541.68 191.46,543.44 192.15,545.6C197.62,546.19 202.38,547.8 207.03,550.72C200.21,552.58 186.27,548.15 189.85,560.02C179.79,547.49 173.99,533.07 165.48,518.59C159.09,503.04 153.7,487.21 145.67,472.33C137.4,457.71 133.31,441.88 127.88,426.13C122.94,412.34 125.13,398.26 129.91,384.8C134.51,382.31 129.21,392.76 132.66,395.21Z" style="fill:rgb(169,116,98);fill-rule:nonzero;"/>
                <path d="M290.3,392.42C292.72,394.82 286.07,401.63 282.13,402.08C283.76,398.38 286.27,393.84 290.3,392.42Z" style="fill:rgb(171,166,179);fill-rule:nonzero;"/>
                <path d="M316.67,395C315.88,401.85 317.13,408.31 308.13,408.94C307.08,404.47 309.57,403.1 312.14,400.16C313.67,398.45 315.06,396.64 316.67,395Z" style="fill:rgb(192,187,198);fill-rule:nonzero;"/>
                <path d="M341.37,395.37C347.92,393.15 339.89,402.26 338.28,403.29C330.94,409.21 338.6,396.01 341.37,395.37Z" style="fill:rgb(179,174,192);fill-rule:nonzero;"/>
                <path d="M487.12,395.79C494.88,424.46 490.3,456.03 482.2,484.18C477.98,498.59 475.87,513.22 472.76,527.82C466.43,542.05 466.22,558.59 459.21,573.23C456.54,571.09 456.56,570.69 456.56,567.38C452.03,565.52 447.68,566.08 443.01,566.82C447.31,564.47 451.32,562.75 453.93,558.31C443.61,554.88 437.47,562.52 427.13,561.93C424.42,561.56 425.53,555.92 425.27,553.88C423.8,546.14 431.19,546.14 433.14,539.01C436.52,535.54 440.38,536.73 437.61,541.77C442.58,545.43 442.51,547.81 443.33,553.47C446.98,554.3 450.83,554.37 454.56,554.54C457.05,543.32 465.03,536.5 464.02,523.97C463.59,520.39 465.31,524.48 466.74,523.56C468.93,517.25 466.34,511.4 468.66,505.18C466.59,501.41 466.37,497.74 470.82,496.05C469.03,499.17 469.14,504.53 472.78,505.98C472.73,501.87 473.85,497.41 473.21,493.4C469.57,495.72 469,494.9 466.42,491.83C467.85,487.24 470.46,484.08 473.8,480.81C475.16,477.52 479.5,466.33 474.49,467.2C476.98,461.17 478.16,467.09 479.76,469.84C481.19,458.84 484.96,447.15 482.27,436.41C484.01,428.06 477.6,424.12 481.73,415.8C484.06,412.16 481.78,395.32 487.12,395.79Z" style="fill:rgb(181,123,110);fill-rule:nonzero;"/>
                <path d="M369.34,401.49C370.6,400.82 369.34,413.51 365.24,408.91C366.15,406.31 367.34,403.44 369.34,401.49Z" style="fill:rgb(184,175,189);fill-rule:nonzero;"/>
                <path d="M356.95,442.48C355.86,443.99 351.76,443.6 352.29,445.61C358.43,447.33 362.17,449.17 368.78,448.01C366.92,453.66 364.37,456.88 367.6,462.77C362.38,468.81 374.65,473 368.73,476.86C369.72,479.37 370.41,484.1 374.18,482.16C376.29,481.08 375.81,482.52 376.89,483.92C376.96,481.25 377.03,478.58 377.3,475.92C378.3,477.9 379.03,479.98 379.85,482.03C380.24,477.09 379.46,472.59 380.75,467.76C379.79,491.06 389.3,511.3 390.97,534.26C388.93,534.63 389.16,533.59 388.15,532.18C385.58,542.53 389.19,555.16 386.04,566C382.09,568.84 378.11,569.19 379.41,575.34C373.99,572.91 369.88,585.22 373.61,590.91C370.4,593.28 370.89,596.37 369.67,599.79C365.83,601.32 366.27,594.41 364.68,592.22C360.9,590.61 362.09,597.76 360.51,600C359.63,596.09 358.54,590.39 354.35,588.67C347.44,587.48 341.86,575.45 343.38,569.32C347.95,563.66 337.98,564.91 336.3,561.77C335.57,553.21 325.18,552.89 318.53,551.88C308.95,547.18 300.06,551.1 290.35,546.63C286.94,544.55 283.96,543.46 279.93,543.25C283.22,546.27 293.1,549.38 292.9,554.92C287.85,555.02 278.62,549.16 274.57,551.04C276.53,553.59 283.35,554.89 284.73,559.51C275.55,562.63 276.34,569.83 285.73,572.13C287.47,573.83 295.64,577.35 289.97,579.4C283.17,576.67 277.05,571.85 269.96,570.1C276.93,577.18 292.22,580.57 294.36,590.86C293.57,591.62 292.69,592.3 291.86,593.03C290.52,594.11 289.92,595.54 289.06,596.99C282.03,597.27 283.4,601.93 279.65,605.72C277.63,601.71 276.17,601.5 272.56,603.82C270.24,610.63 265.67,617.79 265.42,625.03C266.18,628.71 256.82,631.66 260.6,626.67C262.69,621.27 257.74,628.06 257.66,623.94C258.58,622.02 259.46,620.11 259.93,618.02C254.69,618.61 254.88,630.56 249.06,631C250.08,626.38 253.28,622.49 254.79,617.93C248.72,618.15 248.98,629.68 241.96,631C235.37,627.3 249.07,628.84 245.76,622.33C241.42,617.52 238.03,625.91 235,628C227.51,632.42 238.72,620.07 236.01,620.05C232.45,620.5 229.97,626.68 227.96,629.38C223.31,627.14 232.42,620.21 230,619.05C224.96,619.01 224.56,628.06 220.06,627.94C220.08,624.74 222.9,621.98 223.85,618.93C218.52,618.44 218.3,626.62 214.13,627C215.19,622.07 218.68,619.03 211.66,617.11C212.27,611.4 221.15,612.33 220.03,604C217.73,595.58 220.39,588.87 223.92,581.29C221.94,581.04 219.95,580.91 217.97,580.67C222.31,577.27 225.72,574.52 231.55,576.05C227.14,570.61 242.09,572.43 239.36,566.82C238.59,563.87 242.58,554.32 236.16,558.84C240.17,544.94 226.72,544.49 226.67,533.77C227.06,530.63 227.46,528.97 225.08,526.53C220.59,521.76 217.2,513.75 211.23,510.99C211.86,491.49 221.76,475.53 224.64,456.82C224.5,462.84 227.55,457.09 230.07,456.11C228.51,461.59 223.55,463.69 224.01,469.98C227.24,467.86 237.33,458.05 240.4,463.93C235.81,465.71 229.59,467.43 227.01,471.99C236.3,469.89 245.42,468.79 255.02,468.97C275.06,469.84 288.2,483.79 304.17,490.76C298.29,480.89 284.92,474.23 275.1,468.92C270.01,465.72 264.6,465.19 259.15,462.72C261.21,459.68 262.71,458.24 266.62,459.39C272.61,461.31 280.82,460.92 284.4,466.62C288.08,471.31 293.98,468.98 297.29,473.91C307.42,471.83 299.94,477.07 312.13,477.61C312.19,473.73 306.77,476.02 311.74,473.08C307.79,462.53 299.38,465.64 291.94,460.06C289.23,458.69 291.93,455.2 288.01,455.94C276.88,457.84 292.12,442.18 295.9,448.1C302.07,450.59 317.29,462 318.44,449.47C322.95,447.04 313.29,441.04 318.82,439.78C332.56,438.05 343.96,437.14 356.95,442.48Z" style="fill:rgb(228,226,236);fill-rule:nonzero;"/>
                <path d="M275.1,468.92C284.92,474.23 298.29,480.89 304.17,490.76C288.2,483.79 275.06,469.84 255.02,468.97C245.42,468.79 236.3,469.89 227.01,471.99C229.59,467.43 235.81,465.71 240.4,463.93C253.33,460.76 262.73,466.78 275.1,468.92Z" style="fill:rgb(184,173,179);fill-rule:nonzero;"/>
                <path d="M388.15,532.18C389.16,533.59 388.93,534.63 390.97,534.26C392.13,548.29 396.23,562.13 396.91,576.16C395.96,573.89 395.11,571.54 393.93,569.37C385.08,570.79 380.99,582.97 384.56,590.39C386.68,594.99 384.52,598.21 384.09,602.77C388.49,605.63 388.72,612.18 393.63,613.38C398.31,614.43 398.24,619.53 402.73,620.98C403.05,618.25 403.2,615.5 403.37,612.76C404.32,628.05 405.63,643.59 404.82,658.69C386.73,658.53 368.08,657.18 350.09,655.07C348.21,654.06 346.42,652.98 344.98,651.37C349.26,651.22 350.47,650.42 353.37,647.58C351.6,642.35 347.71,645.07 343.92,642.33C346.92,641.74 354.77,642.9 354.95,638.31C352.45,638.01 344.06,637.95 344.13,634.24C352.02,627.5 341.36,619.85 338.7,613.33C332.11,610.15 333.58,606.18 331.73,600.37C321.18,601.77 328.98,591.74 330.73,586.8C330.32,580.33 331.12,574.12 332.35,567.78C332.23,565.08 325.3,565.44 324.28,563.65C327.41,556.93 313.39,554.62 308.99,553.87C299.59,551.38 295.81,559.63 287.34,555.73C281.96,553.59 288.92,558.66 289.78,560.04C287.74,563.94 287.28,568.09 285.73,572.13C276.34,569.83 275.55,562.63 284.73,559.51C283.35,554.89 276.53,553.59 274.57,551.04C278.62,549.16 287.85,555.02 292.9,554.92C293.1,549.38 283.22,546.27 279.93,543.25C283.96,543.46 286.94,544.55 290.35,546.63C300.06,551.1 308.95,547.18 318.53,551.88C325.18,552.89 335.57,553.21 336.3,561.77C337.98,564.91 347.95,563.66 343.38,569.32C341.86,575.45 347.44,587.48 354.35,588.67C358.54,590.39 359.63,596.09 360.51,600C362.09,597.76 360.9,590.61 364.68,592.22C366.27,594.41 365.83,601.32 369.67,599.79C370.89,596.37 370.4,593.28 373.61,590.91C369.88,585.22 373.99,572.91 379.41,575.34C378.11,569.19 382.09,568.84 386.04,566C389.19,555.16 385.58,542.53 388.15,532.18Z" style="fill:rgb(213,211,222);fill-rule:nonzero;"/>
                <path d="M226.67,533.77C226.72,544.49 240.17,544.94 236.16,558.84C242.58,554.32 238.59,563.87 239.36,566.82C242.09,572.43 227.14,570.61 231.55,576.05C225.72,574.52 222.31,577.27 217.97,580.67C219.95,580.91 221.94,581.04 223.92,581.29C220.39,588.87 217.73,595.58 220.03,604C221.15,612.33 212.27,611.4 211.66,617.11C207.39,619.84 201.92,628.41 209.95,629.92C215.97,626.33 223.28,632.71 227.96,629.38C234.11,633.54 234.24,626.21 239.65,632.35C245.88,630.97 249.56,633.4 255.56,633.2C252.97,629.76 256.28,627.16 257.66,623.94C257.74,628.06 262.69,621.27 260.6,626.67C256.82,631.66 266.18,628.71 265.42,625.03C265.67,617.79 270.24,610.63 272.56,603.82C276.17,601.5 277.63,601.71 279.65,605.72C283.4,601.93 282.03,597.27 289.06,596.99C286.7,612.74 281.66,628.52 276.86,643.66C272.66,640.35 267.89,640.31 262.79,640.19C239.47,636.65 215.62,633.97 192.04,634.03L189.79,633.87C190.91,607.88 199.05,584.68 199.82,559.87C201.51,559.08 203.21,558.29 204.92,557.53C211.92,561.24 197.43,578.7 206.27,582.61C214.83,582.15 220.06,576.66 228.06,572.15C228.58,568.29 230.25,564.16 230.49,560.65C226.05,558.58 230.18,554.4 224.51,553.34C219.13,550.35 222.47,549.37 225.03,545.97C227.04,542.84 225.32,537.54 226.67,533.77Z" style="fill:rgb(211,208,218);fill-rule:nonzero;"/>
                <path d="M196.1,540.2C203.52,539.36 210.5,542.15 217.65,542.37C221.98,541.98 222.17,542 224.3,545.76C217.76,543.53 221.2,550.71 214.99,552.97C211.74,554.7 208.21,555.87 204.92,557.53C203.21,558.29 201.51,559.08 199.82,559.87C196.45,560.62 193.1,561.93 189.85,560.02C186.27,548.15 200.21,552.58 207.03,550.72C202.38,547.8 197.62,546.19 192.15,545.6C191.46,543.44 194.87,541.68 196.1,540.2Z" style="fill:rgb(126,67,59);fill-rule:nonzero;"/>
                <path d="M224.3,545.76L225.03,545.97C222.47,549.37 219.13,550.35 224.51,553.34C230.18,554.4 226.05,558.58 230.49,560.65C230.25,564.16 228.58,568.29 228.06,572.15C220.06,576.66 214.83,582.15 206.27,582.61C197.43,578.7 211.92,561.24 204.92,557.53C208.21,555.87 211.74,554.7 214.99,552.97C221.2,550.71 217.76,543.53 224.3,545.76Z" style="fill:rgb(187,173,176);fill-rule:nonzero;"/>
                <path d="M308.99,553.87C313.39,554.62 327.41,556.93 324.28,563.65C325.3,565.44 332.23,565.08 332.35,567.78C331.12,574.12 330.32,580.33 330.73,586.8C328.98,591.74 321.18,601.77 331.73,600.37C333.58,606.18 332.11,610.15 338.7,613.33C341.36,619.85 352.02,627.5 344.13,634.24C344.06,637.95 352.45,638.01 354.95,638.31C354.77,642.9 346.92,641.74 343.92,642.33C347.71,645.07 351.6,642.35 353.37,647.58C350.47,650.42 349.26,651.22 344.98,651.37C346.42,652.98 348.21,654.06 350.09,655.07C342.39,654.93 334.69,653.49 326.99,652.84C324.75,649.81 324.04,649.56 327.96,648.09C325.14,641.8 321.9,651.05 321.28,643C317.83,627.86 317.27,611.56 313.19,596.84C315.16,594.67 315.94,601.65 318.64,599.72C323.06,584.95 325.13,572.32 314.07,560.96C306.47,560.22 302.57,555.44 294.45,559.4C292.57,563.89 293.27,568.78 291.41,573.2C293.14,575.99 299.05,579.36 292.94,581.45C291.95,580.76 290.98,580.06 289.97,579.4C295.64,577.35 287.47,573.83 285.73,572.13C287.28,568.09 287.74,563.94 289.78,560.04C288.92,558.66 281.96,553.59 287.34,555.73C295.81,559.63 299.59,551.38 308.99,553.87Z" style="fill:rgb(193,188,199);fill-rule:nonzero;"/>
                <path d="M425.27,553.88C425.53,555.92 424.42,561.56 427.13,561.93C437.47,562.52 443.61,554.88 453.93,558.31C451.32,562.75 447.31,564.47 443.01,566.82C447.68,566.08 452.03,565.52 456.56,567.38C456.56,570.69 456.54,571.09 459.21,573.23C450.06,578.8 431.18,579.03 424.64,568.75C417.17,572.52 419.91,561.75 416.89,558.06C416.39,546.72 419.8,561.87 425.27,553.88Z" style="fill:rgb(121,68,59);fill-rule:nonzero;"/>
                <path d="M314.07,560.96C325.13,572.32 323.06,584.95 318.64,599.72C315.94,601.65 315.16,594.67 313.19,596.84C312.84,594.12 303.02,588.67 310.17,590.7C316.85,592.47 310.43,583.18 308.61,581.39C305.48,576.96 303.19,584.97 302.13,578.94C300.36,583.98 296.96,584.96 292.94,581.45C299.05,579.36 293.14,575.99 291.41,573.2C293.27,568.78 292.57,563.89 294.45,559.4C302.57,555.44 306.47,560.22 314.07,560.96Z" style="fill:rgb(169,162,171);fill-rule:nonzero;"/>
                <path d="M393.93,569.37C395.11,571.54 395.96,573.89 396.91,576.16C400.38,587.89 401.72,600.89 403.37,612.76C403.2,615.5 403.05,618.25 402.73,620.98C398.24,619.53 398.31,614.43 393.63,613.38C388.72,612.18 388.49,605.63 384.09,602.77C384.52,598.21 386.68,594.99 384.56,590.39C380.99,582.97 385.08,570.79 393.93,569.37Z" style="fill:rgb(182,177,184);fill-rule:nonzero;"/>
                <path d="M269.96,570.1C277.05,571.85 283.17,576.67 289.97,579.4C290.98,580.06 291.95,580.76 292.94,581.45C296.96,584.96 300.36,583.98 302.13,578.94C303.19,584.97 305.48,576.96 308.61,581.39C310.43,583.18 316.85,592.47 310.17,590.7C303.02,588.67 312.84,594.12 313.19,596.84C307.04,601.96 304,610.5 305.55,618.4C305.59,621.74 306.53,630.33 301.66,624.25C298.58,615.67 300.39,601.23 294.34,594.8C293.53,594.2 292.7,593.61 291.86,593.03C292.69,592.3 293.57,591.62 294.36,590.86C292.22,580.57 276.93,577.18 269.96,570.1Z" style="fill:rgb(134,125,133);fill-rule:nonzero;"/>
                <path d="M291.86,593.03C292.7,593.61 293.53,594.2 294.34,594.8C290.71,618.45 281.96,640.16 273.26,662.25C270.31,656.14 280.83,644.37 271.9,643.11C268.89,642.05 265.83,641.15 262.79,640.19C267.89,640.31 272.66,640.35 276.86,643.66C281.66,628.52 286.7,612.74 289.06,596.99C289.92,595.54 290.52,594.11 291.86,593.03Z" style="fill:rgb(179,176,186);fill-rule:nonzero;"/>
                <path d="M313.19,596.84C317.27,611.56 317.83,627.86 321.28,643C321.9,651.05 325.14,641.8 327.96,648.09C324.04,649.56 324.75,649.81 326.99,652.84C325.37,653.37 322.21,652.14 323.3,654.86C325.46,661.76 325.03,668.45 325.05,675.56C321.7,675.13 319.78,675.54 316.72,676.96C312.56,658.94 305.13,642.38 301.66,624.25C306.53,630.33 305.59,621.74 305.55,618.4C304,610.5 307.04,601.96 313.19,596.84Z" style="fill:rgb(165,160,166);fill-rule:nonzero;"/>
                <path d="M204.78,610.97C203.17,614.4 199.97,618.09 200.06,621.95C205.36,621.97 205.08,610.05 210.88,610.96C207.45,616.86 204.41,622.51 201.83,628.85C198.63,632.94 201.34,624.34 200.9,623.08C197.7,622.68 198.77,628.73 196.08,630.04C196.59,626.62 197.85,624.22 196.26,620.89C199.08,620.36 203.12,612.36 198.13,612.39C200.32,611.17 202.28,610.87 204.78,610.97Z" style="fill:rgb(51,48,61);fill-rule:nonzero;"/>
                <path d="M211.66,617.11C218.68,619.03 215.19,622.07 214.13,627C218.3,626.62 218.52,618.44 223.85,618.93C222.9,621.98 220.08,624.74 220.06,627.94C224.56,628.06 224.96,619.01 230,619.05C232.42,620.21 223.31,627.14 227.96,629.38C223.28,632.71 215.97,626.33 209.95,629.92C201.92,628.41 207.39,619.84 211.66,617.11Z" style="fill:rgb(47,43,64);fill-rule:nonzero;"/>
                <path d="M254.79,617.93C253.28,622.49 250.08,626.38 249.06,631C254.88,630.56 254.69,618.61 259.93,618.02C259.46,620.11 258.58,622.02 257.66,623.94C256.28,627.16 252.97,629.76 255.56,633.2C249.56,633.4 245.88,630.97 239.65,632.35C234.24,626.21 234.11,633.54 227.96,629.38C229.97,626.68 232.45,620.5 236.01,620.05C238.72,620.07 227.51,632.42 235,628C238.03,625.91 241.42,617.52 245.76,622.33C249.07,628.84 235.37,627.3 241.96,631C248.98,629.68 248.72,618.15 254.79,617.93Z" style="fill:rgb(53,50,68);fill-rule:nonzero;"/>
                <path d="M211.31,620.37C214.69,618.32 211.88,625.97 210.78,626.79C206.42,630.67 208.68,620.88 211.31,620.37Z" style="fill:rgb(199,196,214);fill-rule:nonzero;"/>
                <path d="M189.79,633.87L192.04,634.03C190.7,642.35 190.54,650.88 188.82,659.12C187.58,651.67 189.22,641.64 189.79,633.87Z" style="fill:rgb(131,126,141);fill-rule:nonzero;"/>
                <path d="M192.04,634.03C215.62,633.97 239.47,636.65 262.79,640.19C265.83,641.15 268.89,642.05 271.9,643.11C280.83,644.37 270.31,656.14 273.26,662.25C273,663.21 272.73,664.15 272.42,665.08C270.86,660.56 271.46,667.43 268.39,665.57C244.15,659.2 217.65,659.17 192.79,657.65C190,658.15 190.25,658.6 189.59,661.17C189.33,660.49 189.07,659.81 188.82,659.12C190.54,650.88 190.7,642.35 192.04,634.03Z" style="fill:rgb(37,32,62);fill-rule:nonzero;"/>
                <path d="M326.99,652.84C334.69,653.49 342.39,654.93 350.09,655.07C368.08,657.18 386.73,658.53 404.82,658.69C403.22,666.77 404.41,676.33 401.44,683.91C378.09,684.08 355.16,680.39 332.39,675.56C327.04,673.79 327.07,672.82 326.75,667.4C324.84,666.75 327.23,675.86 325.05,675.56C325.03,668.45 325.46,661.76 323.3,654.86C322.21,652.14 325.37,653.37 326.99,652.84Z" style="fill:rgb(33,28,58);fill-rule:nonzero;"/>
                <path d="M268.39,665.57C271.46,667.43 270.86,660.56 272.42,665.08C269.16,671.48 267.44,677.88 265.77,684.82C262.31,699.2 253.81,711.59 250.92,725.98C246.81,739.38 240.1,752.21 236.74,765.79C224.88,794.46 180.83,783.79 175.7,755.78C180.76,742.75 181.92,729.43 185.03,716.09C189.88,709.1 187.66,702.43 190.38,694.25C191.34,686.43 191.48,676.54 190.31,668.76C190.08,666.23 189.9,663.7 189.59,661.17C190.25,658.6 190,658.15 192.79,657.65C217.65,659.17 244.15,659.2 268.39,665.57Z" style="fill:rgb(7,6,10);fill-rule:nonzero;"/>
                <path d="M326.75,667.4C327.07,672.82 327.04,673.79 332.39,675.56C355.16,680.39 378.09,684.08 401.44,683.91C400.02,687.45 399.42,691.04 398.69,694.76C387.85,723.65 392.8,748.56 391.98,778.83C390.09,782.97 387.68,786.32 383.85,788.87C365.31,796.04 335.54,782.05 334.15,760.85C332.86,747.25 328.27,734.81 325.61,721.39C323.89,706.47 320.77,691.43 316.72,676.96C319.78,675.54 321.7,675.13 325.05,675.56C327.23,675.86 324.84,666.75 326.75,667.4Z" style="fill:rgb(4,4,6);fill-rule:nonzero;"/>
                <path d="M190.31,668.76C191.48,676.54 191.34,686.43 190.38,694.25C189.74,685.84 189.85,677.18 190.31,668.76Z" style="fill:rgb(132,132,134);fill-rule:nonzero;"/>
                <path d="M202.06,721.97C203.75,723.91 213.04,726.82 209.07,730.03C206.78,732.74 192.16,730.84 201.93,729.67C199.94,729.07 195.12,724.77 195.15,729.08C188.38,723.8 196.98,718.78 202.06,721.97Z" style="fill:rgb(76,75,80);fill-rule:nonzero;"/>
                <path d="M175.7,755.78C180.83,783.79 224.88,794.46 236.74,765.79C237.44,780.89 235.34,797.78 231.41,812.39C225.78,827.42 221.44,842.54 217,857.95C214.77,866.76 206.04,872.96 197,872.05C188.69,871.86 180.82,873.5 175.38,865.65C173.89,853.12 173.89,840.2 172.31,827.75C170.27,802.68 167,780.21 175.7,755.78Z" style="fill:rgb(145,108,91);fill-rule:nonzero;"/>
                <path d="M334.15,760.85C335.54,782.05 365.31,796.04 383.85,788.87C381.23,790.59 379.23,792.04 377.51,794.73C377.32,790.65 369.4,791.01 372.22,795.35C371.39,799.09 363.04,806.09 365.7,810.24C367.74,810.56 375.69,808.75 372.73,813.49C370.14,820.15 376.47,823.7 372.11,827.87C378.18,827.86 378.81,829.47 376.14,823.38C386.21,821.96 381.58,829.64 381.87,835.9C381.23,834.84 380.67,833.72 379.94,832.72C375.26,834.23 372.97,829.76 367.92,829.46C368.05,833.1 369.58,836.12 370.7,839.49C367.55,839.97 361.32,845.64 362.29,847.39C359.08,843.35 356.48,854.08 360.57,850.75C362.83,849.19 361.54,856.56 365.4,855.35C370.67,853.13 364.26,862.51 362,859.05C357.27,856.21 361.56,863.05 362.91,864.19C364.19,868.01 361.37,873.41 359.07,876.44C356.61,877.98 352.75,876.4 355.57,880.26C351.32,879.15 351.11,878.31 351.67,874.15C348.57,875.26 346.1,877.4 342.94,878.37C339.72,877.09 336.66,875.24 333.83,873.26C333.06,857 330.45,842.22 328.77,826.01C328.57,821.42 331.38,808.37 328.71,805.38C326.12,797.45 335.13,783.88 331.7,776.72C332.86,771.39 334.47,766.4 334.15,760.85Z" style="fill:rgb(144,104,88);fill-rule:nonzero;"/>
                <path d="M331.7,776.72C335.13,783.88 326.12,797.45 328.71,805.38C331.38,808.37 328.57,821.42 328.77,826.01C330.45,842.22 333.06,857 333.83,873.26C329.74,871.56 331.52,865.46 330.34,861.77C329.3,849.78 327.79,837.88 326.21,825.95C325.23,809.55 328.33,792.72 331.7,776.72Z" style="fill:rgb(164,140,128);fill-rule:nonzero;"/>
                <path d="M391.98,778.83C397.26,811.04 381.69,849.32 374.96,880.9C369.76,890.42 350.64,880.64 342.94,878.37C346.1,877.4 348.57,875.26 351.67,874.15C351.11,878.31 351.32,879.15 355.57,880.26C352.75,876.4 356.61,877.98 359.07,876.44C361.37,873.41 364.19,868.01 362.91,864.19C361.56,863.05 357.27,856.21 362,859.05C364.26,862.51 370.67,853.13 365.4,855.35C361.54,856.56 362.83,849.19 360.57,850.75C356.48,854.08 359.08,843.35 362.29,847.39C361.32,845.64 367.55,839.97 370.7,839.49C369.58,836.12 368.05,833.1 367.92,829.46C372.97,829.76 375.26,834.23 379.94,832.72C380.67,833.72 381.23,834.84 381.87,835.9C381.58,829.64 386.21,821.96 376.14,823.38C378.81,829.47 378.18,827.86 372.11,827.87C376.47,823.7 370.14,820.15 372.73,813.49C375.69,808.75 367.74,810.56 365.7,810.24C363.04,806.09 371.39,799.09 372.22,795.35C369.4,791.01 377.32,790.65 377.51,794.73C379.23,792.04 381.23,790.59 383.85,788.87C387.68,786.32 390.09,782.97 391.98,778.83Z" style="fill:rgb(155,118,104);fill-rule:nonzero;"/>
                <path d="M172.31,827.75C173.89,840.2 173.89,853.12 175.38,865.65C180.82,873.5 188.69,871.86 197,872.05C206.04,872.96 214.77,866.76 217,857.95C216.69,867.13 214.64,875.96 214.35,885.24C214.7,873.87 211.42,883 205.86,884.42C205.7,881.08 212.44,879.44 212.87,874.9C202.49,881.91 193.31,884 180.91,882.11C178.54,880.84 176.2,879.49 173.91,878.08C173.27,875.72 172.54,873.3 172.31,870.87C176.41,857.01 169.91,842.28 172.31,827.75Z" style="fill:rgb(188,182,180);fill-rule:nonzero;"/>
                <path d="M330.34,861.77C331.52,865.46 329.74,871.56 333.83,873.26C336.66,875.24 339.72,877.09 342.94,878.37C350.64,880.64 369.76,890.42 374.96,880.9C375.12,886.44 374.63,890.96 372.34,896.05C371.89,893.2 364.4,895.84 361.8,894.42C350.53,893.39 344.2,889.54 334.98,883.99C330.03,881.31 335.16,886.31 329.99,886.28C327.45,878.43 329.95,869.69 330.34,861.77Z" style="fill:rgb(185,182,182);fill-rule:nonzero;"/>
                <path d="M212.87,874.9C212.44,879.44 205.7,881.08 205.86,884.42C196.83,888.88 189.07,887.5 180.91,882.11C193.31,884 202.49,881.91 212.87,874.9Z" style="fill:rgb(107,110,109);fill-rule:nonzero;"/>
                <path d="M173.91,878.08C176.2,879.49 178.54,880.84 180.91,882.11C189.07,887.5 196.83,888.88 205.86,884.42C211.42,883 214.7,873.87 214.35,885.24C214.89,893.27 211.31,899.45 210.16,906.74C211.99,912.34 206.47,915.38 210.07,918.34C199.57,918.89 211.4,913.21 206.92,908.05C205.43,905.16 202.64,900.22 199.12,899.98C196.7,901.63 195.85,906.41 194.84,909.1C193.52,908.85 192.21,908.59 190.91,908.31C193.56,905.58 187.97,907.71 188.27,905.76C187.95,902.78 189.56,897.01 184.75,897.48C179.15,896.3 176.88,903.33 173.98,899.06C173.38,898 172.78,896.94 172.18,895.87C172.64,889.66 175.16,884.75 173.91,878.08Z" style="fill:rgb(44,44,57);fill-rule:nonzero;"/>
                <path d="M334.98,883.99C344.2,889.54 350.53,893.39 361.8,894.42C364.4,895.84 371.89,893.2 372.34,896.05C371.54,898.25 370.97,900.47 370.57,902.78C369.55,908.47 367.62,914.37 367.99,920.05C366.35,914.83 359.05,917.73 355.31,918.62C354.68,921.54 354.98,924.75 355.23,927.71C354.18,927.76 353.12,927.82 352.07,927.87C347.14,925.34 347.16,921.53 344.77,917.26C341.31,917.68 337.93,918.62 334.45,918.95C333.79,917.9 328.05,916.46 329.5,915.6C333.29,913.04 330.51,912.93 328.93,910.11C326.23,905.88 325.23,889.33 329.99,886.28C335.16,886.31 330.03,881.31 334.98,883.99Z" style="fill:rgb(38,52,53);fill-rule:nonzero;"/>
                <path d="M184.75,897.48C189.56,897.01 187.95,902.78 188.27,905.76C187.97,907.71 193.56,905.58 190.91,908.31C185.23,906.27 186.9,917.8 186.08,921.01C189.53,918.9 187.33,917.99 191.98,919.62C193.85,916.66 194.15,912.49 194.84,909.1C195.85,906.41 196.7,901.63 199.12,899.98C202.64,900.22 205.43,905.16 206.92,908.05C211.4,913.21 199.57,918.89 210.07,918.34C208.91,920.51 201.96,924.98 207.84,925.5C199.03,927.78 210.53,938.23 210.87,944.06C214.47,952.77 206.02,944.86 211.28,950.63C214.29,953.02 206.35,949.85 205.46,949.85C204.38,948.45 201.49,941.7 199.29,943.97C200.39,946.18 201.64,948.22 202.18,950.65C194.78,946.6 196.61,955.04 199.16,958.78C194.41,955.77 195.22,955.5 193.24,960.97C194.92,964.69 198.62,966.75 192.1,964.39C187.33,971.2 190.15,968.46 193.83,973.02C182.55,973.95 180.16,976.93 166.06,975.73C169.69,973.94 175.27,965.62 167.15,967.73C169.35,965.73 173.98,959.46 169.11,958.18C170.88,956.09 175.23,947.59 169.04,951.67C169.68,948.88 173.1,946.66 167.93,947.07C162,945.94 165.55,937.29 168.9,934.84C171.03,933.23 174.93,931.49 175.9,928.96C172.04,923.34 174.33,914.73 170.77,907.89C173.14,905.34 173.33,902.3 173.98,899.06C176.88,903.33 179.15,896.3 184.75,897.48Z" style="fill:rgb(23,14,27);fill-rule:nonzero;"/>
                <path d="M210.16,906.74C216.18,907.7 216.75,913.23 215.38,918.21C215.18,917.12 214.95,916.03 214.71,914.95C213.61,920.12 208.19,931.72 213.79,935.33C213.9,939.32 213.99,943.25 214.95,947.15C215.17,950.23 215.05,953.25 214.36,956.26C213.46,951.87 215.79,946.25 210.87,944.06C210.53,938.23 199.03,927.78 207.84,925.5C201.96,924.98 208.91,920.51 210.07,918.34C206.47,915.38 211.99,912.34 210.16,906.74Z" style="fill:rgb(167,128,74);fill-rule:nonzero;"/>
                <path d="M170.77,907.89C174.33,914.73 172.04,923.34 175.9,928.96C174.93,931.49 171.03,933.23 168.9,934.84C170.78,926.6 166.98,914.64 170.77,907.89Z" style="fill:rgb(165,133,94);fill-rule:nonzero;"/>
                <path d="M190.91,908.31C192.21,908.59 193.52,908.85 194.84,909.1C194.15,912.49 193.85,916.66 191.98,919.62C187.33,917.99 189.53,918.9 186.08,921.01C186.9,917.8 185.23,906.27 190.91,908.31Z" style="fill:rgb(178,170,178);fill-rule:nonzero;"/>
                <path d="M214.71,914.95C214.95,916.03 215.18,917.12 215.38,918.21C214.7,924 215.5,929.64 213.79,935.33C208.19,931.72 213.61,920.12 214.71,914.95Z" style="fill:rgb(70,43,44);fill-rule:nonzero;"/>
                <path d="M344.77,917.26C347.16,921.53 347.14,925.34 352.07,927.87C346.91,926.33 349.23,936.95 353.71,932.79C356.78,931.47 355.99,930.38 355.23,927.71C354.98,924.75 354.68,921.54 355.31,918.62C359.05,917.73 366.35,914.83 367.99,920.05C369.64,925.26 367.19,929.47 367.27,934.7C370.39,938.24 379.38,941.49 379.09,947C379.15,951.15 377.69,951.09 374.09,950.74C374.76,950.23 375.4,949.7 376.01,949.14C379.48,947.06 371.31,940.28 369.06,939.99C369.62,943.25 371.46,945.69 373.15,948.45C370.15,947.84 368.99,943.55 366.22,942.07C364.27,946.69 364.43,946.86 368.45,949.57C367.99,955.43 375.16,960.6 376.25,965.8C377.54,966.91 379.37,967.48 380.91,968.17L381.97,968.99C377.69,971.84 384.17,974.11 386.08,975.76C377.93,977.5 370.94,973.13 362.96,974.79C368.26,971.63 363.9,967.62 360.08,968.04C354.2,974.43 362.47,961.17 354.82,962.93C347.94,967.81 356.45,959.97 351.8,958.22C349.67,955.71 348.22,958.84 346.11,959.78C345.51,958.19 345.82,956.58 344.15,955.7C342.32,954.54 342.49,953.9 340.85,955.79C338.13,951.14 346.36,947.8 337.27,946.61C341.68,941.32 343.31,940.57 335.25,938.71C342.46,934.76 336.91,934.96 333.19,931.6C338.48,930.47 334.76,925.51 332.04,923.97C330.56,923.14 327.2,924.76 328.93,922.04C331.08,921.33 332.69,920.36 334.45,918.95C337.93,918.62 341.31,917.68 344.77,917.26Z" style="fill:rgb(24,15,27);fill-rule:nonzero;"/>
                <path d="M328.93,922.04C327.2,924.76 330.56,923.14 332.04,923.97C334.76,925.51 338.48,930.47 333.19,931.6C336.91,934.96 342.46,934.76 335.25,938.71C343.31,940.57 341.68,941.32 337.27,946.61C346.36,947.8 338.13,951.14 340.85,955.79C341.85,957.76 341.3,959.54 340.95,961.59C335.48,956.4 325.42,959 323.02,966.12C322.74,963.62 322.03,961.24 321.32,958.84C321.45,957.3 321.58,955.77 321.68,954.23C322.05,953.09 322.42,951.95 322.8,950.82C322.14,956.19 330.36,946.25 330.68,944.67C330.53,937.89 326.32,930.89 325.65,923.85C326.57,922.87 327.72,922.51 328.93,922.04Z" style="fill:rgb(171,126,51);fill-rule:nonzero;"/>
                <path d="M325.65,923.85C326.32,930.89 330.53,937.89 330.68,944.67C330.36,946.25 322.14,956.19 322.8,950.82C322.01,942.98 320.82,930.38 325.65,923.85Z" style="fill:rgb(64,45,66);fill-rule:nonzero;"/>
                <path d="M352.07,927.87C353.12,927.82 354.18,927.76 355.23,927.71C355.99,930.38 356.78,931.47 353.71,932.79C349.23,936.95 346.91,926.33 352.07,927.87Z" style="fill:rgb(160,157,161);fill-rule:nonzero;"/>
                <path d="M186.3,930.23C189.42,929.47 191.42,929.96 192.98,932.86C190.93,935.17 181.71,934.17 186.3,930.23Z" style="fill:rgb(128,129,130);fill-rule:nonzero;"/>
                <path d="M172.36,935.43C177.49,933.96 169.1,944.12 167.89,945.13C163.07,943 170.2,937.06 172.36,935.43Z" style="fill:rgb(160,139,111);fill-rule:nonzero;"/>
                <path d="M183.3,938.26C192.11,934.46 190.68,945.66 185.86,946.91C178.49,948.23 181.9,942.03 183.3,938.26Z" style="fill:rgb(192,189,200);fill-rule:nonzero;"/>
                <path d="M369.06,939.99C371.31,940.28 379.48,947.06 376.01,949.14C375.05,948.94 374.09,948.71 373.15,948.45C371.46,945.69 369.62,943.25 369.06,939.99Z" style="fill:rgb(210,210,212);fill-rule:nonzero;"/>
                <path d="M354.33,941.24C356.51,940.27 357.97,942.24 358.98,943.87C356.15,945.97 350.09,945.6 354.33,941.24Z" style="fill:rgb(163,163,161);fill-rule:nonzero;"/>
                <path d="M366.22,942.07C368.99,943.55 370.15,947.84 373.15,948.45C374.09,948.71 375.05,948.94 376.01,949.14C375.4,949.7 374.76,950.23 374.09,950.74C373.42,950.69 372.74,950.63 372.07,950.57C374.06,957.18 377.03,962.52 380.91,968.17C379.37,967.48 377.54,966.91 376.25,965.8C375.16,960.6 367.99,955.43 368.45,949.57C364.43,946.86 364.27,946.69 366.22,942.07Z" style="fill:rgb(115,101,95);fill-rule:nonzero;"/>
                <path d="M205.46,949.85C200.92,958.76 201.61,978.42 189.65,979.6C181.81,979.83 171.66,982.86 164.4,979.6C161.03,975.29 164.54,968.46 163.29,963.7C165.3,958.03 164.73,952.37 167.93,947.07C173.1,946.66 169.68,948.88 169.04,951.67C175.23,947.59 170.88,956.09 169.11,958.18C173.98,959.46 169.35,965.73 167.15,967.73C175.27,965.62 169.69,973.94 166.06,975.73C180.16,976.93 182.55,973.95 193.83,973.02C190.15,968.46 187.33,971.2 192.1,964.39C198.62,966.75 194.92,964.69 193.24,960.97C195.22,955.5 194.41,955.77 199.16,958.78C196.61,955.04 194.78,946.6 202.18,950.65C201.64,948.22 200.39,946.18 199.29,943.97C201.49,941.7 204.38,948.45 205.46,949.85Z" style="fill:rgb(178,136,74);fill-rule:nonzero;"/>
                <path d="M210.87,944.06C215.79,946.25 213.46,951.87 214.36,956.26C213.85,965.87 204.39,970.59 204.7,979.81C201.25,984.86 202.09,990.79 194.7,991.47C184.32,990.43 174.29,991.06 163.97,992.07C158.05,991.86 155.4,990.27 152.98,984.86C153.94,982.28 155.57,980.07 156.32,977.39C158.25,972.65 161,968.26 163.29,963.7C164.54,968.46 161.03,975.29 164.4,979.6C171.66,982.86 181.81,979.83 189.65,979.6C201.61,978.42 200.92,958.76 205.46,949.85C206.35,949.85 214.29,953.02 211.28,950.63C206.02,944.86 214.47,952.77 210.87,944.06Z" style="fill:rgb(62,43,83);fill-rule:nonzero;"/>
                <path d="M355.08,948.11C362.18,946.74 363.22,950.66 365.59,956.09C358.45,956.92 357.89,953.37 355.08,948.11Z" style="fill:rgb(191,190,190);fill-rule:nonzero;"/>
                <path d="M344.15,955.7C337.35,962.97 350.51,970.45 355.39,974.59C362.81,980.07 370.41,978.92 379.02,980.09C383.86,980.57 387.45,981.91 391.39,978.05C395.68,980.59 400.82,983.97 403.11,988.55C403.67,995.43 396.3,988.47 393.66,987.37C383.97,985.5 373.91,993.07 362.96,989.04C359.32,987.45 356.51,983.05 352.16,984.99C341.38,988.31 337.48,980.54 328.84,976.11C326.13,973.69 322.71,970.02 323.02,966.12C325.42,959 335.48,956.4 340.95,961.59C341.3,959.54 341.85,957.76 340.85,955.79C342.49,953.9 342.32,954.54 344.15,955.7Z" style="fill:rgb(58,39,76);fill-rule:nonzero;"/>
                <path d="M344.15,955.7C345.82,956.58 345.51,958.19 346.11,959.78C348.22,958.84 349.67,955.71 351.8,958.22C356.45,959.97 347.94,967.81 354.82,962.93C362.47,961.17 354.2,974.43 360.08,968.04C363.9,967.62 368.26,971.63 362.96,974.79C370.94,973.13 377.93,977.5 386.08,975.76C384.17,974.11 377.69,971.84 381.97,968.99C385.55,971.61 388.32,974.87 391.39,978.05C387.45,981.91 383.86,980.57 379.02,980.09C370.41,978.92 362.81,980.07 355.39,974.59C350.51,970.45 337.35,962.97 344.15,955.7Z" style="fill:rgb(176,131,69);fill-rule:nonzero;"/>
                <path d="M321.32,958.84C322.03,961.24 322.74,963.62 323.02,966.12C322.71,970.02 326.13,973.69 328.84,976.11C337.48,980.54 341.38,988.31 352.16,984.99C356.51,983.05 359.32,987.45 362.96,989.04C373.91,993.07 383.97,985.5 393.66,987.37C396.3,988.47 403.67,995.43 403.11,988.55C404.67,991.57 405.47,994.65 404.85,998.07C391.43,991.69 379.44,997.25 366.37,1001.4C361.99,1003.5 358.89,997.29 355.37,995.63C345.43,995.9 336.31,989.39 326.1,987.88C320.43,984.66 329.04,986.88 330.92,986.86C327.51,984.14 323.96,981.67 319.95,979.91C317.48,973.66 319.98,965.2 321.32,958.84Z" style="fill:rgb(25,23,24);fill-rule:nonzero;"/>
                <path d="M204.7,979.81C205.19,980.84 205.66,981.89 206.11,982.94C206.66,990.66 205.57,994.59 202.17,1001.32C188.17,1000.45 175.29,997.77 161.4,1002.44C159.08,1003.07 157.76,1003.12 155.55,1002.04C155.15,1000.99 154.73,999.94 154.32,998.89C152.72,994.16 151.2,989.82 152.98,984.86C155.4,990.27 158.05,991.86 163.97,992.07C174.29,991.06 184.32,990.43 194.7,991.47C202.09,990.79 201.25,984.86 204.7,979.81Z" style="fill:rgb(26,24,25);fill-rule:nonzero;"/>
                <path d="M319.95,979.91C323.96,981.67 327.51,984.14 330.92,986.86C329.04,986.88 320.43,984.66 326.1,987.88C336.31,989.39 345.43,995.9 355.37,995.63C358.89,997.29 361.99,1003.5 366.37,1001.4C379.44,997.25 391.43,991.69 404.85,998.07C404.44,1000.02 403.81,1001.92 403.34,1003.86C401.44,1011.15 384.52,1009.82 378.78,1009.3C385.23,1008.16 392.51,1008.75 398.63,1006.64C402.43,1004.34 397.42,1003.91 395.67,1003.18C386.35,1000.41 376.02,1007.29 367.31,1003.69C362.68,1004.35 359.13,1002.36 354.8,1001.3C356.01,1004.01 360.7,1004.53 363.16,1005.91C350.73,1005.49 343.13,998.18 332.06,994.87C328.53,991.84 323.33,990.53 322.17,986.02C321.63,983.88 320.74,981.96 319.95,979.91Z" style="fill:rgb(129,121,107);fill-rule:nonzero;"/>
                <path d="M206.11,982.94C208.07,989.35 207.71,996.9 203.01,1002.13C205.85,1004.42 209.69,1005.45 212.54,1007.42C213.86,1013.18 214.16,1018.23 212.68,1024L160.29,1024C149.33,1015.89 151.21,1010.98 154.32,998.89C154.73,999.94 155.15,1000.99 155.55,1002.04C152.05,1007.7 158.33,1007.04 161.98,1008.11C174.81,1010.55 187.13,1011.23 199.37,1005.86C201.8,1005.23 201.41,1003.28 202.17,1001.32C205.57,994.59 206.66,990.66 206.11,982.94Z" style="fill:rgb(190,192,197);fill-rule:nonzero;"/>
                <path d="M322.17,986.02C323.33,990.53 328.53,991.84 332.06,994.87C343.13,998.18 350.73,1005.49 363.16,1005.91C368.27,1007.76 373.6,1007.86 378.78,1009.3C384.52,1009.82 401.44,1011.15 403.34,1003.86C406.62,1011.18 405.23,1017.63 400.8,1024L321.98,1024C323.07,1014.18 313.87,993.19 322.17,986.02Z" style="fill:rgb(184,186,193);fill-rule:nonzero;"/>
                <path d="M202.17,1001.32C201.41,1003.28 201.8,1005.23 199.37,1005.86C187.91,1007.22 178.63,1006.65 167.16,1006.79C163.34,1006.48 154.65,1001.34 161.98,1008.11C158.33,1007.04 152.05,1007.7 155.55,1002.04C157.76,1003.12 159.08,1003.07 161.4,1002.44C175.29,997.77 188.17,1000.45 202.17,1001.32Z" style="fill:rgb(139,126,101);fill-rule:nonzero;"/>
                <path d="M354.8,1001.3C359.13,1002.36 362.68,1004.35 367.31,1003.69C376.02,1007.29 386.35,1000.41 395.67,1003.18C397.42,1003.91 402.43,1004.34 398.63,1006.64C392.51,1008.75 385.23,1008.16 378.78,1009.3C373.6,1007.86 368.27,1007.76 363.16,1005.91C360.7,1004.53 356.01,1004.01 354.8,1001.3Z" style="fill:rgb(45,37,28);fill-rule:nonzero;"/>
                <path d="M167.16,1006.79C178.63,1006.65 187.91,1007.22 199.37,1005.86C187.13,1011.23 174.81,1010.55 161.98,1008.11C154.65,1001.34 163.34,1006.48 167.16,1006.79Z" style="fill:rgb(59,51,43);fill-rule:nonzero;"/>
            </g>
        </g>
    </g>
</svg>
