<?xml version="1.0" encoding="UTF-8" standalone="no"?>
<!DOCTYPE svg PUBLIC "-//W3C//DTD SVG 1.1//EN" "http://www.w3.org/Graphics/SVG/1.1/DTD/svg11.dtd">
<svg width="100%" height="100%" viewBox="0 0 1729 1728" version="1.1" xmlns="http://www.w3.org/2000/svg" xmlns:xlink="http://www.w3.org/1999/xlink" xml:space="preserve" xmlns:serif="http://www.serif.com/" style="fill-rule:evenodd;clip-rule:evenodd;stroke-linejoin:round;stroke-miterlimit:2;">
    <g transform="matrix(1,0,0,1,-5525,-4162)">
        <g id="_18" serif:id="18" transform="matrix(1,0,0,1,5525.834324,4162)">
            <rect x="0" y="0" width="1728" height="1728" style="fill:none;"/>
            <g transform="matrix(-2.869789,-1.656874,1.656874,-2.869789,1628.777448,2382.819094)">
                <g>
                    <path d="M449.97,156.19C455.59,155.18 460.75,156.82 465.75,159.25C471.47,162.08 477.06,165.19 482.59,168.38C487.43,171.16 491.82,174.57 496.58,177.45C501.29,180.39 507.58,181.12 513,181.61C517.62,181.96 522.44,182.56 527.07,182.07C528.63,181.92 530.04,180.55 531.36,179.77C532.18,180.81 533,181.86 533.82,182.91C529.92,187.93 524.81,191.23 519.4,194.4C511.78,198.71 502.83,202.89 494,203.48C487.75,204.03 483.98,200.16 478.03,199.35C474.07,198.7 470.02,200.33 466.16,199.76C463.38,199.1 462.02,196.91 460.4,194.79C460.6,202.25 460.84,209.63 461.98,217.02C462.07,219.32 463.07,222.77 461.25,224.53C459.9,223.73 458.64,222.79 457.4,221.84C464.77,236.21 465.69,251.95 470.79,268.11C474.18,269.24 477.98,270.16 481.04,272.04C484.05,273.97 485.79,277.49 487.42,280.56C489.2,284.09 491.18,287.56 492.68,291.21C494.39,295.45 494.44,299.58 494.8,304.06C507.88,309.71 521.9,313.26 534.94,318.99C536.9,319.98 539.8,321.28 540.72,323.4C541.68,327.63 539.86,331.9 537.14,335.1C532.98,340.02 526.67,343.37 520.78,345.76C509.03,350.46 496.04,352.71 483.45,353.49C481.55,358.87 480.32,364.92 475.95,368.93C471.29,373.16 464.92,375.81 459.17,378.22C454.67,380.16 449.8,380.5 445.21,382.02C438.97,386.66 433.61,392.83 426.86,396.93C422.97,399.21 418.66,400.39 415.06,403.07C412.42,405.02 410.4,407.2 407.22,408.35C400.81,410.66 393.79,411.54 387,411.7C379.74,411.78 371.47,410.75 365.23,406.74C360.89,404.01 359.17,399.99 355.46,396.53C350.37,391.66 346.16,386.06 343.53,379.48C341.16,373.22 340.33,366.57 339.48,360C339.28,356.99 337.06,354.96 335.5,352.49C331.16,346.39 329.68,338.87 328.18,331.68C317.75,327.8 309.15,321.81 299.24,316.77C291,312.82 282.96,306.93 277.65,299.44C274.83,292.88 279.16,283.5 285.43,280.38C298.43,273.39 313.52,269.12 327.78,265.52C330.94,264.67 334.16,264.15 337.41,263.77C340.3,258.2 345.13,255.46 350.07,252.03C351.94,250.86 352.31,249.07 353.11,247.17C355.25,241.4 358.1,234.93 362.61,230.61C364.72,228.51 367.48,227.53 369.79,225.77C372.3,222.92 374.11,219.39 376.23,216.24C384.6,202.92 394.14,190.41 405.33,179.33C411.83,172.29 420.25,169.04 428.57,164.57C435.29,161.34 442.57,157.43 449.97,156.19Z" style="fill:rgb(0,28,61);fill-rule:nonzero;"/>
                    <clipPath id="_clip1">
                        <path d="M449.97,156.19C455.59,155.18 460.75,156.82 465.75,159.25C471.47,162.08 477.06,165.19 482.59,168.38C487.43,171.16 491.82,174.57 496.58,177.45C501.29,180.39 507.58,181.12 513,181.61C517.62,181.96 522.44,182.56 527.07,182.07C528.63,181.92 530.04,180.55 531.36,179.77C532.18,180.81 533,181.86 533.82,182.91C529.92,187.93 524.81,191.23 519.4,194.4C511.78,198.71 502.83,202.89 494,203.48C487.75,204.03 483.98,200.16 478.03,199.35C474.07,198.7 470.02,200.33 466.16,199.76C463.38,199.1 462.02,196.91 460.4,194.79C460.6,202.25 460.84,209.63 461.98,217.02C462.07,219.32 463.07,222.77 461.25,224.53C459.9,223.73 458.64,222.79 457.4,221.84C464.77,236.21 465.69,251.95 470.79,268.11C474.18,269.24 477.98,270.16 481.04,272.04C484.05,273.97 485.79,277.49 487.42,280.56C489.2,284.09 491.18,287.56 492.68,291.21C494.39,295.45 494.44,299.58 494.8,304.06C507.88,309.71 521.9,313.26 534.94,318.99C536.9,319.98 539.8,321.28 540.72,323.4C541.68,327.63 539.86,331.9 537.14,335.1C532.98,340.02 526.67,343.37 520.78,345.76C509.03,350.46 496.04,352.71 483.45,353.49C481.55,358.87 480.32,364.92 475.95,368.93C471.29,373.16 464.92,375.81 459.17,378.22C454.67,380.16 449.8,380.5 445.21,382.02C438.97,386.66 433.61,392.83 426.86,396.93C422.97,399.21 418.66,400.39 415.06,403.07C412.42,405.02 410.4,407.2 407.22,408.35C400.81,410.66 393.79,411.54 387,411.7C379.74,411.78 371.47,410.75 365.23,406.74C360.89,404.01 359.17,399.99 355.46,396.53C350.37,391.66 346.16,386.06 343.53,379.48C341.16,373.22 340.33,366.57 339.48,360C339.28,356.99 337.06,354.96 335.5,352.49C331.16,346.39 329.68,338.87 328.18,331.68C317.75,327.8 309.15,321.81 299.24,316.77C291,312.82 282.96,306.93 277.65,299.44C274.83,292.88 279.16,283.5 285.43,280.38C298.43,273.39 313.52,269.12 327.78,265.52C330.94,264.67 334.16,264.15 337.41,263.77C340.3,258.2 345.13,255.46 350.07,252.03C351.94,250.86 352.31,249.07 353.11,247.17C355.25,241.4 358.1,234.93 362.61,230.61C364.72,228.51 367.48,227.53 369.79,225.77C372.3,222.92 374.11,219.39 376.23,216.24C384.6,202.92 394.14,190.41 405.33,179.33C411.83,172.29 420.25,169.04 428.57,164.57C435.29,161.34 442.57,157.43 449.97,156.19Z" clip-rule="nonzero"/>
                    </clipPath>
                    <g clip-path="url(#_clip1)">
                        <path d="M449.03,162.94C454.91,161.7 460.69,163.99 464.79,168.21C471,174.48 478.67,178.53 486.4,182.63C491.78,185.36 496.79,188.06 502.98,188.19C509.38,188.31 515.79,187.23 522.2,187.15C515.55,192.52 506.35,194.24 498.04,192.98C490.49,191.49 483.43,188.7 476.22,186.61C472.38,185.47 468.24,184.94 464.53,183.43C461.26,181.99 458.96,179.31 456.51,176.8C454.76,181.8 453.08,186.66 452.52,191.97C452.14,195.87 451.82,199.72 450.57,203.46C445.07,199.44 440.5,194.52 434.39,191.28C436.04,197.51 438.4,203.42 439.56,209.78C440.99,216.26 441.09,222.85 442.79,229.27C444.24,234.91 443.9,240.36 443.46,246.09C436.55,242.28 430.82,236.75 423.91,233.01C417.92,230.25 411.27,228.76 404.94,226.97C397.56,224.69 390.2,226.79 382.24,226.05C384.15,219.45 388.36,214.67 391.9,208.95C396.56,201.97 400.91,194.66 406.13,188.08C411.24,181.66 418.57,177.75 425.43,173.43C432.68,169.19 440.73,164.56 449.03,162.94Z" style="fill:white;fill-rule:nonzero;"/>
                        <path d="M385.82,230.84C384.37,233.47 382.91,236.09 381.45,238.72C375.09,239.16 368.91,240.43 362.71,241.85C363.88,240.39 364.99,238.66 366.45,237.46C372.24,233.47 378.83,231.43 385.82,230.84Z" style="fill:white;fill-rule:nonzero;"/>
                        <path d="M394.03,231.14C400.31,231.35 406.51,232.59 412.27,235.15C405.24,243.47 400.4,253.05 395.88,262.9C394.78,265.22 393.48,267.43 392.16,269.64C385.68,268.73 379.39,267.62 373.3,265.12C374.33,260.91 376.23,257.18 378.54,253.54C382.53,247.18 386.34,240.7 390.39,234.38C391.24,233.34 392.52,231.01 394.03,231.14Z" style="fill:white;fill-rule:nonzero;"/>
                        <path d="M421.1,239.86C432.28,246.47 442.9,253.62 451.85,263.14C457.91,269.54 462.14,277.92 465.43,286.02C464.52,288.56 462.81,289.81 460.12,289.98C454.56,285.3 451.2,277.03 446.29,271.71C441.6,266.5 436.56,261.27 430.95,257.06C425.23,252.97 419.3,249.22 413,246.08C413.83,243.69 414.42,240.9 415.87,238.81C417.63,237.67 419.51,239.07 421.1,239.86Z" style="fill:white;fill-rule:nonzero;"/>
                        <path d="M377.98,244.24C376.76,246.7 375.45,249.1 374.07,251.47C370.54,251.47 367,251.44 363.47,251.28C367.86,246.91 371.86,245.16 377.98,244.24Z" style="fill:white;fill-rule:nonzero;"/>
                        <path d="M410.96,251.98C415.2,252.37 419.41,254.83 422.98,257.03C429.8,261.5 436.49,267.03 441.18,273.76C439.85,275.58 438.47,277.33 436.97,279.01C428.22,270.79 417.33,264.6 406.53,259.5C407.93,257.01 409.09,254.15 410.96,251.98Z" style="fill:white;fill-rule:nonzero;"/>
                        <path d="M371.02,256.87C370.08,259.37 369.13,261.87 368.16,264.36C360.76,264.12 353.44,265.15 346.06,265.14C347.58,263.28 349.25,261.61 351.19,260.18C356.03,255.8 364.88,257.54 371.02,256.87Z" style="fill:white;fill-rule:nonzero;"/>
                        <path d="M401.84,265.2C408.05,267.05 413.95,271.13 419.38,274.62C426.48,279.32 433.27,284.69 439.36,290.64C442.56,294.01 446.43,298.3 447.32,302.98C447.66,304.87 447.29,305.96 446.04,307.38C442.5,307.85 441.15,303.84 439.37,301.57C434.11,294.17 424.77,288.97 417.76,283.24C411.79,278.18 405.03,275.54 398.07,272.21C399.14,269.76 400.29,267.38 401.84,265.2Z" style="fill:white;fill-rule:nonzero;"/>
                        <path d="M368.27,269.83C373.94,271.69 379.33,271.68 384.45,275.08C372.36,276.25 360.14,276.1 348.01,276.79C344.37,277.03 340.92,277.97 337.42,278.94C349.77,280.36 361.79,283.83 373.14,288.86C388.79,296.08 405.14,301.86 421.23,308C420.88,309.7 420.53,311.4 420.18,313.1C394.96,304.03 368.89,293.07 342.79,287.66C333.8,285.82 324.19,283.7 315,283.78C306.38,283.79 298.43,286.45 289.8,286.94C296.42,282.81 303.81,279.17 311.5,277.68C319.54,275.87 327.79,273.81 336.01,273.17C346.77,272.14 357.97,270.08 368.78,270.64L368.27,269.83Z" style="fill:white;fill-rule:nonzero;"/>
                        <path d="M467.88,276.6C472.35,280.42 477.44,284.42 480.55,289.45C483.26,294.87 484.44,301.2 485.92,307.05C483.87,308.13 481.16,308.85 480.21,311.21C478.85,314.86 478.57,319.15 478.96,323C479.34,326.4 481.96,328.02 484.21,330.22C483.53,333.67 483.03,337.39 481.7,340.65C479.81,340.6 478,340.19 476.1,340.2C473.31,342.27 471.24,345.86 469.91,349.02C468.55,352.73 470.63,355.59 472.14,358.79C468.46,362.44 464.88,365.81 460.21,368.21C457.62,369.53 454.52,369.87 451.67,370.38C454.73,366.31 458.49,362.39 460.82,357.85C462.31,354.66 460.6,351.86 458.05,349.96C455.2,347.96 451.59,345.97 448.06,345.84C444.89,348.45 442.73,352.28 439.99,355.34C435.46,341.88 432.91,328.21 435.39,314.04C431.87,326.55 429.78,339 431.2,352.03C431.61,356.3 433.65,359.93 434.47,364.16C432.78,363.29 431.38,363.39 430.42,361.54C426.89,355.54 424.41,349.01 423.87,342.02C422.75,328.51 426.21,315.29 430.71,302.67C433.16,305.13 435.81,307.26 437.95,310.02C439.94,312.37 441.93,315.4 445.03,316.27C451.16,315.09 455.25,307.98 454.1,302C452.87,294.83 447.73,289.37 442.79,284.42C443.69,282.72 444.63,281.06 445.62,279.41C448.45,283.27 451.29,287.1 453.79,291.18C454.68,292.54 455.6,294.15 456.88,295.17C461.46,295.74 468.4,295.14 471.29,290.96C471,287.1 469.63,283.24 468.65,279.5C468.39,278.54 468.14,277.57 467.88,276.6Z" style="fill:white;fill-rule:nonzero;"/>
                        <path d="M344.49,299.66C343.02,309.01 340.99,319.03 342.01,328.99C343.22,337.28 348.18,343.91 351.97,351.09C353.45,353.71 355.59,356.06 357.4,358.48C349.42,356.09 342.99,350.13 339.33,342.75C334.86,332.05 334.97,321.38 335.14,310C335.23,306.91 335.59,303.04 337.43,300.45C339.18,298.24 342.16,299.41 344.49,299.66Z" style="fill:white;fill-rule:nonzero;"/>
                        <path d="M486.33,313.47C486.92,316.67 485.82,319.39 484.45,322.19C483.85,319.93 482.53,316.72 483.57,314.46C484.29,313.4 485.21,313.57 486.33,313.47Z" style="fill:white;fill-rule:nonzero;"/>
                        <path d="M493.72,313.02C497.53,314.89 500.99,317.39 504.85,319.18C509.52,321.51 514.39,322.6 519.4,323.9C510.62,325.19 501.54,324.83 492.71,324.37C493.07,320.59 493.27,316.79 493.72,313.02Z" style="fill:white;fill-rule:nonzero;"/>
                        <path d="M391.85,326.95C400.48,329.46 408.47,333.2 417.51,334.34C417.68,337.19 417.77,340.05 417.85,342.91C408.27,340.42 398.54,338.53 388.9,336.29C389.87,333.17 390.86,330.06 391.85,326.95Z" style="fill:white;fill-rule:nonzero;"/>
                        <path d="M477.32,345.26C478.09,346.46 478.84,347.65 479.33,348.98C478.52,350.68 477.17,351.76 475.86,353.04C475.26,351.62 474.66,350.2 474.11,348.76C475.08,347.51 476.19,346.37 477.32,345.26Z" style="fill:white;fill-rule:nonzero;"/>
                        <path d="M384.43,347.66C388.78,347.83 392.8,348.89 396.99,349.88C404.51,351.7 412.01,353.4 419.75,353.96C420.61,360.1 425.05,364.57 428.54,369.44C421.95,374.05 415.4,379.21 408.39,383.08C406.21,382.37 404.41,381.32 402.04,381.73C393.16,382.69 385.14,385.05 376.21,382.6C370.88,381.07 365.35,379.04 360.36,376.63C355.52,374.22 355.11,368.87 353.85,364.21C361.19,366.63 368.99,364.51 374.95,359.88C378.76,356.6 381.72,351.85 384.43,347.66Z" style="fill:white;fill-rule:nonzero;"/>
                        <path d="M449.99,351.31C451.42,352.34 453.3,352.96 453.28,355.04C453.24,358.59 449.85,362.1 447.79,364.79C443.3,369.96 440.33,375.74 435.44,380.42C430.17,385.58 424.33,388.97 418.35,393.34C414.82,395.69 410.24,398.63 405.87,398.49C402.83,396.63 403.76,393.83 403.5,390.8C412.53,387.33 420.77,382.27 428.37,376.32C433.4,372.29 438.03,368.09 441.78,362.8C444.54,359.02 446.81,354.66 449.99,351.31Z" style="fill:white;fill-rule:nonzero;"/>
                        <path d="M348.23,369.36C351.16,374.43 353.78,379.26 358.64,382.8C358.32,384.4 358,385.99 357.67,387.59C353.21,383.03 350.69,378.35 349.02,372.21C348.75,371.26 348.49,370.31 348.23,369.36Z" style="fill:white;fill-rule:nonzero;"/>
                        <path d="M366.87,385.07C370.56,386.53 373.94,388.32 377.97,388.75C384.75,390.02 391,388.51 397.78,388.54C397.19,389.85 396.6,391.16 396,392.47C397.07,395.87 397.92,399.28 398.46,402.81C392.47,404.58 386.16,405.01 379.96,404.29C375.38,403.68 370.55,402.15 367.23,398.78C364.17,395.77 362.92,391.16 363.81,387C364.05,385.51 365.4,384.38 366.87,385.07Z" style="fill:white;fill-rule:nonzero;"/>
                        <g transform="matrix(1,0,0,1,-3,-2)">
                            <path d="M463.522,307L465.508,306.988L468.644,316.049L467.609,318.938L463.522,307Z" style="fill:rgb(0,28,61);"/>
                            <path d="M463.514,309.44L465.82,316.027L465.833,331.459L463.562,338.047L463.514,309.44Z" style="fill:rgb(0,28,61);"/>
                            <path d="M463.586,340.026L465.87,340.006L469.239,329.672L468.217,326.531L463.586,340.026Z" style="fill:rgb(0,28,61);"/>
                            <path d="M467.837,327.578L468.228,326.549L469.333,326.531L471.102,331.483L471.132,337.641L468.931,330.681L467.837,327.578Z" style="fill:rgb(0,28,61);"/>
                            <path d="M471.77,340.024L474.073,340.016L473.99,306.959L471.753,306.995L471.77,340.024Z" style="fill:rgb(0,28,61);"/>
                            <path d="M470.849,309.672L470.84,316.141L469.293,320.517L468.19,320.516L467.607,318.939L470.849,309.672Z" style="fill:rgb(0,28,61);"/>
                        </g>
                    </g>
                </g>
            </g>
            <g id="mid" transform="matrix(1.490168,0,0,1.490168,221.147131,104.352055)">
                <path d="M466.04,124.78C458.82,127.42 462.69,118.67 457.25,121.81C464.17,126.78 452.8,126.77 451.48,123.7C443.9,126.27 442.77,119.15 433.18,125.23C432.48,132.72 428.03,128.55 423.95,132.97C422.02,134.72 420.4,131.61 417.82,133.62C422.4,124.26 431.35,120.78 441.07,119.16C448.76,116.43 460.89,117.88 466.04,124.78Z" style="fill:rgb(117,100,84);fill-rule:nonzero;"/>
                <path d="M466.04,124.78C480.95,129.63 492.76,139.83 498.42,154.59C500.86,164.74 495.83,176.69 493.12,186.52C489.63,184.01 492.33,177.17 486.95,178.49C486,178.89 483.37,173.06 483.21,176C483.76,181.79 479.04,177.98 475.19,180.86C479.29,170.37 473.4,160.93 479.85,153.04C479.5,149.59 466.13,152.36 470.55,146.97C463.68,151.83 464.2,135.13 462.38,146.04C463.06,141.79 450.41,132.19 454.59,141.13C448.19,139.4 442.07,132.67 434.99,138.96C431.76,146.74 416.8,137.18 415.8,148.76C414.93,151.98 413.92,155.09 412.26,158C407.39,148.07 416.54,143.37 417.82,133.62C420.4,131.61 422.02,134.72 423.95,132.97C428.03,128.55 432.48,132.72 433.18,125.23C442.77,119.15 443.9,126.27 451.48,123.7C452.8,126.77 464.17,126.78 457.25,121.81C462.69,118.67 458.82,127.42 466.04,124.78Z" style="fill:rgb(69,49,36);fill-rule:nonzero;"/>
                <path d="M454.59,141.13C450.41,132.19 463.06,141.79 462.38,146.04C464.2,135.13 463.68,151.83 470.55,146.97C466.13,152.36 479.5,149.59 479.85,153.04C473.4,160.93 479.29,170.37 475.19,180.86C479.04,177.98 483.76,181.79 483.21,176C483.37,173.06 486,178.89 486.95,178.49C492.33,177.17 489.63,184.01 493.12,186.52C492.23,188.87 491.07,190.89 489.47,192.83C485.63,193.09 484.17,196.53 480.34,193.67C473.19,190.41 479.83,203.22 471.75,202.25C469.34,200.3 465.44,193.77 463.13,191.19C459.73,194.2 467.16,200.6 460.64,200.64C456.93,202.46 451.77,196.73 450.53,201.62C448.96,203.9 447.09,206.2 445.01,208.03C440.87,210.35 434.13,205.92 430.72,209.77C427.81,211.95 423.87,212.51 420.61,214.16C419.08,212.53 417.75,210.77 416.61,208.85C418.48,207.64 419.54,210.11 421.04,210.93C425.32,208.78 426.84,203.96 432,204.97C435.37,204.97 440.11,207.26 442.92,204.9C440.88,199.23 426.92,200.64 422.28,202.83C421.33,197.39 423.6,196.53 417.19,197.74C418.42,192.03 423.4,189.1 428.91,188.6C422.17,182.29 423.3,184.28 417.82,190.14C413.31,186.36 420.46,178.74 423.83,176.76C427.91,173.17 442.55,180.32 435.16,172.06C440.61,171.37 442.31,181.36 448.41,178.48C454.59,174.52 461.75,177.75 467.21,174.21C472.35,168.68 463.43,168.01 459.85,167.37C452.44,167.73 447.19,174.5 439.98,168.34C446.29,169.88 460.46,167.97 462.96,160.96C458.2,152.7 443.37,151.41 435.29,154.31C433.55,160.67 436.72,163.57 439.98,168.34C433.94,170.92 431.93,157.89 432.45,154.47C439.96,149.18 455.28,151.9 462.8,157.06C458.85,153.65 461.5,140.42 455.2,142.52C452.37,145.54 449.07,144.89 445.23,145.47C445.52,138.08 442.15,138.59 436.47,140.05C440.94,145.97 430.45,144.91 427.09,146.91C423.48,141.9 421.14,147.91 415.8,148.76C416.8,137.18 431.76,146.74 434.99,138.96C442.07,132.67 448.19,139.4 454.59,141.13Z" style="fill:rgb(129,89,74);fill-rule:nonzero;"/>
                <path d="M445.23,145.47C449.07,144.89 452.37,145.54 455.2,142.52C461.5,140.42 458.85,153.65 462.8,157.06C455.28,151.9 439.96,149.18 432.45,154.47C431.93,157.89 433.94,170.92 439.98,168.34C447.19,174.5 452.44,167.73 459.85,167.37C463.43,168.01 472.35,168.68 467.21,174.21C461.75,177.75 454.59,174.52 448.41,178.48C442.31,181.36 440.61,171.37 435.16,172.06C442.55,180.32 427.91,173.17 423.83,176.76C420.46,178.74 413.31,186.36 417.82,190.14C423.3,184.28 422.17,182.29 428.91,188.6C423.4,189.1 418.42,192.03 417.19,197.74C423.6,196.53 421.33,197.39 422.28,202.83C426.92,200.64 440.88,199.23 442.92,204.9C440.11,207.26 435.37,204.97 432,204.97C426.84,203.96 425.32,208.78 421.04,210.93C419.54,210.11 418.48,207.64 416.61,208.85C408.46,192.16 411.85,175.85 412.26,158C413.92,155.09 414.93,151.98 415.8,148.76C421.14,147.91 423.48,141.9 427.09,146.91C430.45,144.91 440.94,145.97 436.47,140.05C442.15,138.59 445.52,138.08 445.23,145.47Z" style="fill:rgb(182,139,122);fill-rule:nonzero;"/>
                <path d="M462.96,160.96C460.46,167.97 446.29,169.88 439.98,168.34C436.72,163.57 433.55,160.67 435.29,154.31C443.37,151.41 458.2,152.7 462.96,160.96Z" style="fill:rgb(82,51,38);fill-rule:nonzero;"/>
                <path d="M422.21,155.55C431.81,154.91 425.14,169.42 421.4,172.37C414.16,172.36 411.88,165.91 412.91,159.76C415.51,157.57 418.89,156.16 422.21,155.55Z" style="fill:rgb(93,62,47);fill-rule:nonzero;"/>
                <path d="M463.13,191.19C465.44,193.77 469.34,200.3 471.75,202.25C479.83,203.22 473.19,190.41 480.34,193.67C484.17,196.53 485.63,193.09 489.47,192.83C487.94,196.69 486.68,200.62 484.83,204.35C483.95,201.58 483.55,198.81 483.32,195.94C480.7,197.15 483.43,202.22 479.53,203.43C472.02,206.87 475.75,215.28 468.79,218.91C470.47,226.79 464.39,231.08 467.13,237.6C460.61,232.71 467.71,243.94 464.37,246.22C467.56,247.3 466.37,247.88 466.42,250.77C470.46,250.6 471.36,249.01 472.31,254.01C465.88,257.82 459.3,258.72 452.21,260.47C451.9,259.39 450.5,253.44 449.11,257.1C449.04,263.75 444.63,266.92 441.07,271.95C434.58,260.11 440.24,249.82 436.43,237.6C434.77,229.75 431.59,223.74 425.07,218.91C423.55,217.36 422.04,215.8 420.61,214.16C423.87,212.51 427.81,211.95 430.72,209.77C434.13,205.92 440.87,210.35 445.01,208.03C447.09,206.2 448.96,203.9 450.53,201.62C451.77,196.73 456.93,202.46 460.64,200.64C467.16,200.6 459.73,194.2 463.13,191.19Z" style="fill:rgb(101,69,48);fill-rule:nonzero;"/>
                <path d="M483.32,195.94C483.55,198.81 483.95,201.58 484.83,204.35C483.89,209.59 483.68,214.61 484.33,219.91C484.08,222.42 473.95,232.43 483.13,228.41C483.33,233.16 473.82,241.18 477.4,246.54C482.09,251.16 475.7,252.61 472.31,254.01C471.36,249.01 470.46,250.6 466.42,250.77C466.37,247.88 467.56,247.3 464.37,246.22C467.71,243.94 460.61,232.71 467.13,237.6C464.39,231.08 470.47,226.79 468.79,218.91C475.75,215.28 472.02,206.87 479.53,203.43C483.43,202.22 480.7,197.15 483.32,195.94Z" style="fill:rgb(129,95,68);fill-rule:nonzero;"/>
                <path d="M425.07,218.91C431.59,223.74 434.77,229.75 436.43,237.6C440.24,249.82 434.58,260.11 441.07,271.95C444.63,266.92 449.04,263.75 449.11,257.1C450.5,253.44 451.9,259.39 452.21,260.47C459.3,258.72 465.88,257.82 472.31,254.01C475.7,252.61 482.09,251.16 477.4,246.54C473.82,241.18 483.33,233.16 483.13,228.41C473.95,232.43 484.08,222.42 484.33,219.91C485.11,223.58 486.79,226.74 488.77,229.88C487.79,233.72 493.19,236.87 496.06,238.21C491.21,243.1 486.98,248.15 483.04,253.81C478.37,251.64 473.31,256.38 468.6,257.55C462.28,260.62 453.37,261.38 448.61,266.63C445.73,268.81 441.66,277.36 438.1,271.86C436.09,268.48 433.66,274.2 430.07,273C430.73,270.29 440.38,264.58 433.14,264.35C427.96,265.88 430.92,256.1 429,253.09C426.15,257.97 420.6,259.32 418.5,264.44C415.66,272.23 411.58,281.24 415.74,289.3C416.89,291.64 416.91,293.74 416.75,296.29C408.8,290.14 414.02,284.79 411.17,276.97C411.23,270.42 418.35,264.89 418.14,258.87C419.91,255.89 421.86,253.16 422.88,249.8C425.13,248.17 427.39,246.91 427.82,243.88C427.05,235.54 426.03,227.24 425.07,218.91Z" style="fill:rgb(159,122,80);fill-rule:nonzero;"/>
                <path d="M488.77,229.88C496.55,237.41 506.23,236.91 514.86,243.14C528.42,245.61 540.21,243.61 551.56,253.46C561.09,259.91 566.24,268.38 572.23,277.76C585.43,284.85 601.41,287.5 615.37,293.61C624.67,296.43 635.36,294.25 645.01,295.12C661.05,297.34 675.81,300.27 692.2,298.96C694.02,306.14 692.31,306.66 686.11,309.28C678.96,309.24 669.8,305.13 663.15,308.11C651.59,314.7 640.74,311.96 628.44,313.42C626.9,317.5 614.68,321.67 619.6,314.2C609.92,317.69 615.4,307.78 605.98,314.93C598.31,316.34 607.28,310.77 602.56,306.4C597.59,298.56 612.71,308.49 612.45,305.39C609.76,302.48 607.23,296.3 603.35,295.29C594.37,298.02 583.58,292.99 574.99,290.04C564.92,284.86 556,284.99 547.85,276C550.03,272.31 555.87,270.98 559.67,269.63C551.31,259.46 542.96,261.11 531.6,258.35C524.41,253.95 508.81,253.94 504.57,244.98C512.54,239.69 499.88,237.39 496.06,238.21C493.19,236.87 487.79,233.72 488.77,229.88Z" style="fill:rgb(225,191,160);fill-rule:nonzero;"/>
                <path d="M496.06,238.21C499.88,237.39 512.54,239.69 504.57,244.98C492.46,251.21 491.79,262.45 486.79,273.74C482.76,280.01 481.6,288.07 477.23,294.26C473.42,300 469,293.76 462.89,297.93C459.39,303.04 449.1,309.62 442.17,308.92C445.58,299.26 458.96,297.51 462,288.97C464.01,280.63 459.52,290.09 460.29,281.83C467.02,271.74 475.3,263.05 483.04,253.81C486.98,248.15 491.21,243.1 496.06,238.21Z" style="fill:rgb(239,199,27);fill-rule:nonzero;"/>
                <path d="M504.57,244.98C508.81,253.94 524.41,253.95 531.6,258.35C542.96,261.11 551.31,259.46 559.67,269.63C555.87,270.98 550.03,272.31 547.85,276C556,284.99 564.92,284.86 574.99,290.04C583.58,292.99 594.37,298.02 603.35,295.29C607.23,296.3 609.76,302.48 612.45,305.39C612.71,308.49 597.59,298.56 602.56,306.4C607.28,310.77 598.31,316.34 605.98,314.93C597.08,320.27 600.68,314.16 600.74,308.32C592.3,303.64 588.2,296.79 577.82,296.16C566.86,291.43 554.75,288.84 544.24,283.73C542.47,280.75 546.18,273.36 549.53,271.58C547.71,264.99 533.18,264.33 527.8,261.24C520.44,260.23 511,259.36 504.44,258.61C499.38,263.76 504.57,266.94 500.7,272.48C496.31,272.38 498.97,273.24 499.66,275.93C498.15,278.16 496.62,278.11 498.3,280.93C497.14,284.97 488.85,287.5 485.13,287.93C485.45,285.14 486.06,282.4 486.28,279.59C486.53,277.65 486.67,275.7 486.79,273.74C491.79,262.45 492.46,251.21 504.57,244.98Z" style="fill:rgb(202,159,122);fill-rule:nonzero;"/>
                <path d="M422.88,249.8C421.86,253.16 419.91,255.89 418.14,258.87C408.37,263.22 405.62,273.36 398.4,281.39C395.98,285.71 394.46,290.55 392.53,295.11C386.46,288.67 391.11,273.54 398.01,269.34C394.24,270.1 391.35,269.39 387.71,268.53C380.63,271.12 371.33,280.49 363.64,279.95C368.95,270.41 378.59,259.53 389.94,257.87C402.73,253.83 411.97,260.27 422.88,249.8Z" style="fill:rgb(224,189,149);fill-rule:nonzero;"/>
                <path d="M429,253.09C430.92,256.1 427.96,265.88 433.14,264.35C440.38,264.58 430.73,270.29 430.07,273C433.66,274.2 436.09,268.48 438.1,271.86C441.66,277.36 445.73,268.81 448.61,266.63C453.37,261.38 462.28,260.62 468.6,257.55C473.31,256.38 478.37,251.64 483.04,253.81C475.3,263.05 467.02,271.74 460.29,281.83C452.27,290.86 448.33,300.59 436.19,305.25C427.47,305.32 421.19,304.6 416.75,296.29C416.91,293.74 416.89,291.64 415.74,289.3C411.58,281.24 415.66,272.23 418.5,264.44C420.6,259.32 426.15,257.97 429,253.09Z" style="fill:rgb(209,167,126);fill-rule:nonzero;"/>
                <path d="M504.44,258.61C511,259.36 520.44,260.23 527.8,261.24C533.18,264.33 547.71,264.99 549.53,271.58C546.18,273.36 542.47,280.75 544.24,283.73C554.75,288.84 566.86,291.43 577.82,296.16C588.2,296.79 592.3,303.64 600.74,308.32C600.68,314.16 597.08,320.27 605.98,314.93C611.74,315.74 610.81,324.85 620.15,320.61C629.67,322.34 632.15,324.06 638.38,315.42C648.58,317.46 658.33,317.11 668.53,316.47C673.77,311.36 679.99,312.1 686.11,309.28C692.31,306.66 694.02,306.14 692.2,298.96C693.88,291.03 697.62,284.76 702.36,278.34C706.73,275.33 709.97,277.6 713.3,280.67C720.66,286.6 727.99,272.3 733.18,283.62C726.73,285.95 720.2,284.77 713.6,286.59C708.79,288.34 713.06,280.41 708.01,280.97C701.3,281.59 700.38,291.83 695.01,296.01C691.42,308.61 701.2,312.26 711.81,309.72C715.91,309.07 721.67,300.44 721.88,309.29C733.58,310.34 723.53,315.63 720,320C705.96,324.83 693.53,314.91 681.88,320.74C678.94,322.09 682.58,315.58 677.29,317.18C671.54,322.85 669.19,320.16 662,323.11C658.56,323.97 644.91,314.53 649.58,323.83C638.03,323.47 626.89,328.79 615.96,325.16C609.55,323.57 600.17,329.05 604.85,318.12C597.07,319.82 594.87,316.7 595.53,309.22C586.77,309.38 583.02,303.09 574.22,302.84C561.37,296.61 545.17,293.37 534.78,284.04C539.89,279.85 544.99,276.39 539.6,269.69C531.92,269.31 521.92,262.47 515.67,269.64C505.95,274.34 508.73,284.04 497.83,288.89C493.57,289.6 485.65,302.55 482.54,296.9C483.02,292.91 483.5,288.92 483.87,284.91C484.63,283.12 485.46,281.36 486.28,279.59C486.06,282.4 485.45,285.14 485.13,287.93C488.85,287.5 497.14,284.97 498.3,280.93C496.62,278.11 498.15,278.16 499.66,275.93C498.97,273.24 496.31,272.38 500.7,272.48C504.57,266.94 499.38,263.76 504.44,258.61Z" style="fill:rgb(172,131,103);fill-rule:nonzero;"/>
                <path d="M418.14,258.87C418.35,264.89 411.23,270.42 411.17,276.97C414.02,284.79 408.8,290.14 416.75,296.29C421.19,304.6 427.47,305.32 436.19,305.25C426.54,310.3 422.51,307.39 414.96,301.11C415.36,304.53 417.27,307.49 417.72,310.84C414.65,315.6 399.07,319.27 397.29,312.63C395.94,310.81 398.18,306.71 394.98,307.08C387.39,309.2 398.11,291.99 391.83,297.9C392.07,296.97 392.3,296.04 392.53,295.11C394.46,290.55 395.98,285.71 398.4,281.39C405.62,273.36 408.37,263.22 418.14,258.87Z" style="fill:rgb(233,195,23);fill-rule:nonzero;"/>
                <path d="M539.6,269.69C544.99,276.39 539.89,279.85 534.78,284.04C545.17,293.37 561.37,296.61 574.22,302.84C583.02,303.09 586.77,309.38 595.53,309.22C594.87,316.7 597.07,319.82 604.85,318.12C600.17,329.05 609.55,323.57 615.96,325.16C626.89,328.79 638.03,323.47 649.58,323.83C644.91,314.53 658.56,323.97 662,323.11C669.19,320.16 671.54,322.85 677.29,317.18C682.58,315.58 678.94,322.09 681.88,320.74C693.53,314.91 705.96,324.83 720,320C723.53,315.63 733.58,310.34 721.88,309.29C721.67,300.44 715.91,309.07 711.81,309.72C701.2,312.26 691.42,308.61 695.01,296.01C700.38,291.83 701.3,281.59 708.01,280.97C713.06,280.41 708.79,288.34 713.6,286.59C720.2,284.77 726.73,285.95 733.18,283.62C735.62,286.99 738.08,290.26 740.26,293.81C743.61,292.27 752.02,284.02 751.99,292.94C751.72,302.59 741.39,299.51 739.06,304.91C745.35,304.95 751.63,302.85 757.9,303.06C760.6,303.27 760.62,307.48 758.78,308.8C752.2,313.69 742.07,312.91 735.23,315.33C733.92,322.6 744.92,318.16 748.64,322.37C753.43,326.77 742.72,327.81 740.04,326.85C726.87,322.78 715.78,329.54 702.23,325.86C697.17,324.24 694.78,319.78 689.04,323.1C678.54,328.89 669.99,327.08 658.81,326.32C647.8,324.85 641.79,331.17 632.15,332.19C624.99,329.79 613.35,336.32 606.3,330.64C604.81,328.4 602.2,330.23 601.01,331.82C598.78,329.83 599.61,324.37 597.91,321.96C589.51,320.94 585.46,310.63 578.6,309.66C567.84,311.87 561.01,300.11 550.8,299.38C543.19,297.47 534.36,294.97 531.44,286.81C531.94,283.27 535.35,279.99 537.1,276.94C531.05,272.4 519.39,269.99 514.29,277.23C509.83,288.85 498.96,290.52 491,299.97C488.77,303.08 486.37,305.48 482.92,307.22C482.49,305.76 482.05,304.3 481.65,302.82C481.93,300.85 482.22,298.87 482.54,296.9C485.65,302.55 493.57,289.6 497.83,288.89C508.73,284.04 505.95,274.34 515.67,269.64C521.92,262.47 531.92,269.31 539.6,269.69Z" style="fill:rgb(129,92,72);fill-rule:nonzero;"/>
                <path d="M387.71,268.53C391.35,269.39 394.24,270.1 398.01,269.34C391.11,273.54 386.46,288.67 392.53,295.11C392.3,296.04 392.07,296.97 391.83,297.9C391.11,300.11 390.45,302.32 390.11,304.62C389.44,307.08 388.62,309.35 387.16,311.46C380.94,304.27 381.35,297.61 380.22,288.82C378.84,281.29 362.57,284.88 362.52,292.03C360.86,296.51 365.61,301.87 363.19,305.16C353.09,309.94 342.69,315.71 334.08,322.98C325.94,327.6 317.24,336.08 315.54,345.55C310.4,345.46 308.93,349.42 304.31,350.24C307.47,347.06 302.14,342.81 308.81,344.34C315.66,346.93 315.07,338.45 315.87,334.11C313.72,334.65 312.55,337.48 310.18,338.16C314.53,329.46 323.08,321.74 332.37,318.36C340.19,312.56 349,307.52 356.46,301.47C358.95,298.29 360.97,294.73 358.97,290.72C360.27,287.07 361.71,283.31 363.64,279.95C371.33,280.49 380.63,271.12 387.71,268.53Z" style="fill:rgb(188,149,113);fill-rule:nonzero;"/>
                <path d="M537.1,276.94C535.35,279.99 531.94,283.27 531.44,286.81C534.36,294.97 543.19,297.47 550.8,299.38C561.01,300.11 567.84,311.87 578.6,309.66C585.46,310.63 589.51,320.94 597.91,321.96C599.61,324.37 598.78,329.83 601.01,331.82C602.2,330.23 604.81,328.4 606.3,330.64C613.35,336.32 624.99,329.79 632.15,332.19C641.79,331.17 647.8,324.85 658.81,326.32C669.99,327.08 678.54,328.89 689.04,323.1C694.78,319.78 697.17,324.24 702.23,325.86C682.49,334.92 659.87,339.02 638.39,341.49C623.81,342.44 610.98,338.89 597.64,333.33C581.38,328.67 564.42,332.46 550.13,320.54C549.05,309.75 541.72,315.7 537.03,307.96C534.31,305.09 533.7,302.32 533.38,298.53C527.82,294.24 525.48,285.79 531.81,280.98C526.41,278.68 520.21,274.29 517.58,282.57C511.53,286.11 518.16,294.28 511.52,293.83C514.26,299.77 504.07,296.61 502.47,302.29C495.03,301.37 501.39,309.03 494.69,305.2C494,306.98 491.5,309.84 495.02,309.72C490.39,312.22 494,316.34 490.25,320.13C492.1,319.99 493.49,319.26 495.06,318.37C498.14,323.83 509.79,324.35 514.15,328.28C514.4,332.03 516.27,335.75 515.43,339.39C513.59,345.09 520.79,346.5 520.43,352.54C525.19,349.38 521.17,355.3 524.6,354.73C524.65,351.39 528.55,346.41 524.03,344.87C528.57,339.64 528.21,339.02 528.14,332.47C531.65,335.43 529.1,330.17 532.52,329.46C536.46,327.52 534.89,323.91 535.36,320.45C539.38,318.91 539.21,311.51 543.94,316.61C534.32,335.33 533.92,360.12 523.13,378.17C523.3,375.17 525.75,371.26 524.63,368.45C513.66,362.45 503.71,357.2 494.01,349.25C492.48,348.83 493.08,355.59 492.35,357.24C491.99,352.42 490.92,348.58 494.42,344.64C489.12,333.98 479.19,320.02 482.92,307.22C486.37,305.48 488.77,303.08 491,299.97C498.96,290.52 509.83,288.85 514.29,277.23C519.39,269.99 531.05,272.4 537.1,276.94Z" style="fill:rgb(99,73,52);fill-rule:nonzero;"/>
                <path d="M486.79,273.74C486.67,275.7 486.53,277.65 486.28,279.59C485.46,281.36 484.63,283.12 483.87,284.91C481.93,288.75 481.69,292.71 481.02,296.87C479.74,299.39 479.04,301.31 476.02,302.05C467.59,304.82 461.87,314.01 454.56,317.53C447.41,319.85 441.89,323.86 435.11,326.94C435.77,330.83 428.92,331.87 427.5,327.42C418.57,323.17 407.72,330.32 399.71,327.84C397.67,328.16 394.81,332.32 393.32,331.65C389.33,321.38 390.76,314.71 390.11,304.62C390.45,302.32 391.11,300.11 391.83,297.9C398.11,291.99 387.39,309.2 394.98,307.08C398.18,306.71 395.94,310.81 397.29,312.63C399.07,319.27 414.65,315.6 417.72,310.84C417.27,307.49 415.36,304.53 414.96,301.11C422.51,307.39 426.54,310.3 436.19,305.25C448.33,300.59 452.27,290.86 460.29,281.83C459.52,290.09 464.01,280.63 462,288.97C458.96,297.51 445.58,299.26 442.17,308.92C449.1,309.62 459.39,303.04 462.89,297.93C469,293.76 473.42,300 477.23,294.26C481.6,288.07 482.76,280.01 486.79,273.74Z" style="fill:rgb(206,164,7);fill-rule:nonzero;"/>
                <path d="M531.81,280.98C525.48,285.79 527.82,294.24 533.38,298.53C533.7,302.32 534.31,305.09 537.03,307.96C541.72,315.7 549.05,309.75 550.13,320.54C548.01,319.31 545.94,318.03 543.94,316.61C539.21,311.51 539.38,318.91 535.36,320.45C534.89,323.91 536.46,327.52 532.52,329.46C529.1,330.17 531.65,335.43 528.14,332.47C528.21,339.02 528.57,339.64 524.03,344.87C528.55,346.41 524.65,351.39 524.6,354.73C521.17,355.3 525.19,349.38 520.43,352.54C520.79,346.5 513.59,345.09 515.43,339.39C516.27,335.75 514.4,332.03 514.15,328.28C509.79,324.35 498.14,323.83 495.06,318.37C493.49,319.26 492.1,319.99 490.25,320.13C494,316.34 490.39,312.22 495.02,309.72C491.5,309.84 494,306.98 494.69,305.2C501.39,309.03 495.03,301.37 502.47,302.29C504.07,296.61 514.26,299.77 511.52,293.83C518.16,294.28 511.53,286.11 517.58,282.57C520.21,274.29 526.41,278.68 531.81,280.98Z" style="fill:rgb(72,49,30);fill-rule:nonzero;"/>
                <path d="M380.22,288.82C381.35,297.61 380.94,304.27 387.16,311.46C386.98,314.04 386.84,316.63 386.77,319.22C383.83,311 380.53,303.19 378.27,294.79C378.26,288.65 365.33,290.03 367.42,296.59C373.02,302.24 364.75,307.76 361.04,312.04C350.81,316.48 343.07,322.64 334.25,329.25C329.22,335.56 320.35,337.67 318.65,346.68C312.5,351.97 308.05,355.97 299.4,356.41C292.49,362.93 286.26,368.64 276.28,363.8C266.62,363.28 262.29,374.43 250.61,371.62C238.91,369.06 228.67,373.29 217.02,369.93C208.48,368.84 204.97,365.38 196.88,362.43C191.14,363.52 188.09,358.08 181.97,358.84C184.7,357.84 187.46,356.61 190.3,355.99C189.67,360.29 194.04,359.36 196.97,359.73C208.93,358.99 218.3,373 229.61,367.55C241.43,366.85 254.02,365.77 264.98,360.95C266.95,360.67 271.69,358.47 271.79,361.84C279.91,355.38 286.18,363.55 295.9,356.84C292.23,350.55 300.34,352.35 304.31,350.24C308.93,349.42 310.4,345.46 315.54,345.55C317.24,336.08 325.94,327.6 334.08,322.98C342.69,315.71 353.09,309.94 363.19,305.16C365.61,301.87 360.86,296.51 362.52,292.03C362.57,284.88 378.84,281.29 380.22,288.82Z" style="fill:rgb(139,104,80);fill-rule:nonzero;"/>
                <path d="M483.87,284.91C483.5,288.92 483.02,292.91 482.54,296.9C482.22,298.87 481.93,300.85 481.65,302.82C480.95,305.71 480.29,308.81 478.92,311.47C474.79,308.79 473.89,315.83 470.5,317.46C465.08,320.32 465.54,328.69 458.35,328.43C451.98,324.51 451.6,332.33 444.19,333.27C435.96,338.13 443.86,342.45 439.98,348.88C441.24,348.54 443.05,346.66 444.24,347.7C445.83,354.66 450.87,359.14 450.61,366.81C453.52,368.04 455.6,366.82 458.06,369.58C461.03,368.38 462.23,367.2 463.87,370.78C465.38,368.41 470.42,368.9 473.38,368.21C477.29,367.05 481.2,368.18 481.47,372.85C483.93,371.81 484.2,368.34 486.75,367.96C484.12,372.46 488.75,371.46 488.07,375.98C486.93,386.71 485.43,397.2 486.04,408.03C486.59,412.83 482.55,413.51 480.1,416.96C482.65,417.33 486.8,414.39 486.05,418.81C483.63,417.73 482.94,419 480.98,420.19C474.65,420.28 476.31,417.42 477.53,413.15C474.84,414.22 472.1,414.61 469.28,415.09C468.93,420.39 463.12,413.11 465.4,422.06C461.57,423.93 460.01,426.25 456.86,428.59C452.04,426.45 449.17,421.92 443.83,420.4C442.12,425.39 455.02,424.35 446.19,428.85C443.86,421.88 442.71,427.34 442.41,431.05C439.68,425.99 434.55,424.14 432.18,419.12C432.02,420.77 431.87,422.43 431.66,424.07C428.43,416.06 426.16,400.53 435.97,396.98C431.05,391.15 428.5,382.15 431.71,374.86C439.49,374.07 439.1,371.86 437.41,365.03C442.34,360.94 434.91,362.16 436.46,356.22C435.2,352.53 433.11,349.3 430.45,346.45C436.8,344.8 430.58,340.01 434.03,336.02C440.26,328.45 448.1,323.64 457.93,322.36C465.88,317.42 467.96,310.52 475.43,305.91C480.98,308.18 480.3,300.1 481.02,296.87C481.69,292.71 481.93,288.75 483.87,284.91Z" style="fill:rgb(159,119,6);fill-rule:nonzero;"/>
                <path d="M358.97,290.72C360.97,294.73 358.95,298.29 356.46,301.47C349,307.52 340.19,312.56 332.37,318.36C323.08,321.74 314.53,329.46 310.18,338.16C312.55,337.48 313.72,334.65 315.87,334.11C315.07,338.45 315.66,346.93 308.81,344.34C302.14,342.81 307.47,347.06 304.31,350.24C293.6,349.28 285.29,357.86 274.4,356.1C266.11,353.28 257.62,359.01 248.82,360.61C247.11,359.1 237.12,359.9 233.73,361.67C222.85,368.48 216.64,363.36 206.43,359.49C200.24,355.41 195.89,360.7 191.31,353.62C187.35,352.28 182.54,358.12 177.95,357.81C168.65,358.2 170.9,362.78 163.61,367.95C161.09,364.66 158.86,360.19 164.09,358.11C172.01,356.06 179.68,354.27 187.38,351.39C197.83,350.91 207.83,360.82 218.01,357.03C236.13,354.27 253.5,350.25 270.01,342.05C283.62,335.55 297.33,331.85 311.63,327.62C318.81,324.52 323.4,317.19 330.41,313.44C340.93,305.96 353.36,301.95 358.97,290.72Z" style="fill:rgb(216,180,151);fill-rule:nonzero;"/>
                <path d="M378.27,294.79C380.53,303.19 383.83,311 386.77,319.22C387.7,323.71 388.15,328.27 389.05,332.76C373.58,345.24 355.34,350.05 337.99,358.97C309.27,377.91 277.83,381.81 244.24,384.31C234.02,384.18 222.82,383.1 212.81,384.8C209.01,386.18 205.33,387.94 201.66,389.66C190,395.39 177.7,392.43 165.83,397.82C162.7,398.55 153.43,401.25 153.21,396.14C157.2,392.47 164.21,392.45 169.15,390.17C171.21,389.3 176.22,387.93 172.78,385.24C165.21,386.67 157.83,389.01 150.21,390.32C146.86,391.45 141.11,391.37 142.34,386.42C149.77,381.46 162.23,382.78 169.07,377.19C159.12,374.96 148.55,382.47 139.55,379.96C146.38,375.01 159.7,374.09 167.92,369.93C167.14,369.03 166.29,368.2 165.49,367.32C171.61,365.2 175.31,360.14 181.97,358.84C188.09,358.08 191.14,363.52 196.88,362.43C204.97,365.38 208.48,368.84 217.02,369.93C228.67,373.29 238.91,369.06 250.61,371.62C262.29,374.43 266.62,363.28 276.28,363.8C286.26,368.64 292.49,362.93 299.4,356.41C308.05,355.97 312.5,351.97 318.65,346.68C320.35,337.67 329.22,335.56 334.25,329.25C343.07,322.64 350.81,316.48 361.04,312.04C364.75,307.76 373.02,302.24 367.42,296.59C365.33,290.03 378.26,288.65 378.27,294.79Z" style="fill:rgb(94,65,47);fill-rule:nonzero;"/>
                <path d="M481.02,296.87C480.3,300.1 480.98,308.18 475.43,305.91C467.96,310.52 465.88,317.42 457.93,322.36C448.1,323.64 440.26,328.45 434.03,336.02C430.58,340.01 436.8,344.8 430.45,346.45C433.11,349.3 435.2,352.53 436.46,356.22C434.91,362.16 442.34,360.94 437.41,365.03C439.1,371.86 439.49,374.07 431.71,374.86C428.5,382.15 431.05,391.15 435.97,396.98C426.16,400.53 428.43,416.06 431.66,424.07C431.87,422.43 432.02,420.77 432.18,419.12C434.55,424.14 439.68,425.99 442.41,431.05C442.71,427.34 443.86,421.88 446.19,428.85C455.02,424.35 442.12,425.39 443.83,420.4C449.17,421.92 452.04,426.45 456.86,428.59C460.01,426.25 461.57,423.93 465.4,422.06C463.12,413.11 468.93,420.39 469.28,415.09C472.1,414.61 474.84,414.22 477.53,413.15C476.31,417.42 474.65,420.28 480.98,420.19C476.33,423.7 470.93,420.76 466.69,425.68C456.58,431.6 455.6,441.95 446.75,448.7C445.61,451.21 447.9,453.18 444.29,455.02C435.79,459.52 429.54,449.66 422.65,448.17C419.03,442.83 417.71,441.12 415.31,448.45C424.42,452.26 416.74,448.08 415.27,452.72C413.66,445.01 414.01,458.31 411.52,452.67C410.63,445.71 407.26,448.76 403.29,444.34C402.53,446.61 401.89,448.92 401.19,451.21C401.2,435.9 400.81,420.92 398.33,405.76C397.86,401.24 397.15,396.76 396.66,392.24C397.73,378.8 396.41,365.03 394.24,351.76C392.65,345.39 390.72,339.11 389.05,332.76C388.15,328.27 387.7,323.71 386.77,319.22C386.84,316.63 386.98,314.04 387.16,311.46C388.62,309.35 389.44,307.08 390.11,304.62C390.76,314.71 389.33,321.38 393.32,331.65C394.81,332.32 397.67,328.16 399.71,327.84C407.72,330.32 418.57,323.17 427.5,327.42C428.92,331.87 435.77,330.83 435.11,326.94C441.89,323.86 447.41,319.85 454.56,317.53C461.87,314.01 467.59,304.82 476.02,302.05C479.04,301.31 479.74,299.39 481.02,296.87Z" style="fill:rgb(174,135,8);fill-rule:nonzero;"/>
                <path d="M481.65,302.82C482.05,304.3 482.49,305.76 482.92,307.22C479.19,320.02 489.12,333.98 494.42,344.64C490.92,348.58 491.99,352.42 492.35,357.24C489.28,376.43 486.27,395.46 487,415C486.38,424.38 488.87,440.66 481.26,447.17C480.83,451.95 481.35,454.99 477.12,458.13C478.07,455.86 478.9,453.61 479.06,451.13C465.94,459.31 458.55,474.7 445.17,483.13C453.43,469.64 463.72,457.96 475.75,447.74C477.51,444.78 483.99,444.11 483.81,440.76C484.33,433.33 486.03,426.35 486.05,418.81C486.8,414.39 482.65,417.33 480.1,416.96C482.55,413.51 486.59,412.83 486.04,408.03C485.43,397.2 486.93,386.71 488.07,375.98C488.75,371.46 484.12,372.46 486.75,367.96C484.2,368.34 483.93,371.81 481.47,372.85C481.2,368.18 477.29,367.05 473.38,368.21C470.42,368.9 465.38,368.41 463.87,370.78C462.23,367.2 461.03,368.38 458.06,369.58C455.6,366.82 453.52,368.04 450.61,366.81C450.87,359.14 445.83,354.66 444.24,347.7C443.05,346.66 441.24,348.54 439.98,348.88C443.86,342.45 435.96,338.13 444.19,333.27C451.6,332.33 451.98,324.51 458.35,328.43C465.54,328.69 465.08,320.32 470.5,317.46C473.89,315.83 474.79,308.79 478.92,311.47C480.29,308.81 480.95,305.71 481.65,302.82Z" style="fill:rgb(130,95,6);fill-rule:nonzero;"/>
                <path d="M686.11,309.28C679.99,312.1 673.77,311.36 668.53,316.47C658.33,317.11 648.58,317.46 638.38,315.42C632.15,324.06 629.67,322.34 620.15,320.61C610.81,324.85 611.74,315.74 605.98,314.93C615.4,307.78 609.92,317.69 619.6,314.2C614.68,321.67 626.9,317.5 628.44,313.42C640.74,311.96 651.59,314.7 663.15,308.11C669.8,305.13 678.96,309.24 686.11,309.28Z" style="fill:rgb(202,162,128);fill-rule:nonzero;"/>
                <path d="M494.01,349.25C503.71,357.2 513.66,362.45 524.63,368.45C525.75,371.26 523.3,375.17 523.13,378.17C515.53,395.66 509.92,412.73 509.08,431.95C512.29,438.88 506.71,443.66 510.76,451.32C518.61,465.8 523.66,481.38 524.26,497.94C525.72,514.73 526.34,533.79 518.76,549.24C518.45,539.91 511.42,533.86 505.14,527.85C500.76,522.74 493.63,520.06 487.93,516.62C483.09,514.45 478.05,514.01 472.8,514.14C466.28,512.9 458.5,509.35 451.79,510.51C436.97,510.38 430.24,530.84 431.31,542.93C433.88,540.9 436.03,538.51 438.03,535.94C445.28,532.05 452.96,532.45 460.76,534.18C477.93,538.39 502.34,546.27 506.31,566.17C502.95,578.08 500.84,589.93 499.08,602.16C488.83,585.22 467.03,575.79 447.82,575.11C443.57,573.67 440.11,573.61 435.74,574.58C433.8,575.01 432.04,575.17 430.7,576.8C425.5,585.75 428.58,599.83 425.72,609.8C424.68,617.33 424.53,625.08 423.66,632.65C422.98,634.46 419.47,632.31 417.83,632.78C406.77,606.29 402.56,575.39 399.04,547.02C397.56,534.96 401.17,522.66 397.82,511.14L398.12,509.12C406.19,505.06 409.49,514.58 417.24,507.24C437.65,486.75 461.42,481.54 477.12,458.13C481.35,454.99 480.83,451.95 481.26,447.17C488.87,440.66 486.38,424.38 487,415C486.27,395.46 489.28,376.43 492.35,357.24C493.08,355.59 492.48,348.83 494.01,349.25Z" style="fill:rgb(24,21,15);fill-rule:nonzero;"/>
                <path d="M304.31,350.24C300.34,352.35 292.23,350.55 295.9,356.84C286.18,363.55 279.91,355.38 271.79,361.84C271.69,358.47 266.95,360.67 264.98,360.95C254.02,365.77 241.43,366.85 229.61,367.55C218.3,373 208.93,358.99 196.97,359.73C194.04,359.36 189.67,360.29 190.3,355.99C187.46,356.61 184.7,357.84 181.97,358.84C175.31,360.14 171.61,365.2 165.49,367.32C166.29,368.2 167.14,369.03 167.92,369.93C159.7,374.09 146.38,375.01 139.55,379.96C138.3,377.79 139.11,375.44 141.39,374.42C147.68,372.53 158.55,371.66 163.61,367.95C170.9,362.78 168.65,358.2 177.95,357.81C182.54,358.12 187.35,352.28 191.31,353.62C195.89,360.7 200.24,355.41 206.43,359.49C216.64,363.36 222.85,368.48 233.73,361.67C237.12,359.9 247.11,359.1 248.82,360.61C257.62,359.01 266.11,353.28 274.4,356.1C285.29,357.86 293.6,349.28 304.31,350.24Z" style="fill:rgb(178,138,114);fill-rule:nonzero;"/>
                <path d="M394.24,351.76C396.41,365.03 397.73,378.8 396.66,392.24C396.1,378.77 394.42,365.18 394.24,351.76Z" style="fill:rgb(213,199,138);fill-rule:nonzero;"/>
                <path d="M244.24,384.31C234.01,385.78 223.16,384.8 212.81,384.8C222.82,383.1 234.02,384.18 244.24,384.31Z" style="fill:rgb(171,163,156);fill-rule:nonzero;"/>
                <path d="M398.33,405.76C400.81,420.92 401.2,435.9 401.19,451.21C398.78,462.88 400.33,475.79 400.23,487.72C398.51,494.66 398.92,502.02 398.12,509.12L397.82,511.14C396.29,506.65 396.94,501.24 397.54,496.61C399.79,481.07 398.58,465.65 399.23,450.05C401.59,435.55 397.43,420.33 398.33,405.76Z" style="fill:rgb(244,237,180);fill-rule:nonzero;"/>
                <path d="M486.05,418.81C486.03,426.35 484.33,433.33 483.81,440.76C473.15,444.2 464.72,454.17 455.76,460.75C445.68,472.56 437.23,491.52 421.45,496.46C418.28,499 416.91,509 411.16,507.87C401.52,506.06 403.31,493.97 400.23,487.72C400.33,475.79 398.78,462.88 401.19,451.21C401.89,448.92 402.53,446.61 403.29,444.34C407.26,448.76 410.63,445.71 411.52,452.67C414.01,458.31 413.66,445.01 415.27,452.72C416.74,448.08 424.42,452.26 415.31,448.45C417.71,441.12 419.03,442.83 422.65,448.17C429.54,449.66 435.79,459.52 444.29,455.02C447.9,453.18 445.61,451.21 446.75,448.7C455.6,441.95 456.58,431.6 466.69,425.68C470.93,420.76 476.33,423.7 480.98,420.19C482.94,419 483.63,417.73 486.05,418.81Z" style="fill:rgb(193,154,7);fill-rule:nonzero;"/>
                <path d="M483.81,440.76C483.99,444.11 477.51,444.78 475.75,447.74C463.72,457.96 453.43,469.64 445.17,483.13C458.55,474.7 465.94,459.31 479.06,451.13C478.9,453.61 478.07,455.86 477.12,458.13C461.42,481.54 437.65,486.75 417.24,507.24C409.49,514.58 406.19,505.06 398.12,509.12C398.92,502.02 398.51,494.66 400.23,487.72C403.31,493.97 401.52,506.06 411.16,507.87C416.91,509 418.28,499 421.45,496.46C437.23,491.52 445.68,472.56 455.76,460.75C464.72,454.17 473.15,444.2 483.81,440.76Z" style="fill:rgb(209,177,40);fill-rule:nonzero;"/>
                <path d="M472.8,514.14C478.05,514.01 483.09,514.45 487.93,516.62C485.55,518.56 493.01,522.2 487.71,520.26C474.42,513.82 460.55,516.96 446.69,515.31C440.33,513.5 462.79,512.79 451.79,510.51C458.5,509.35 466.28,512.9 472.8,514.14Z" style="fill:rgb(106,82,14);fill-rule:nonzero;"/>
                <path d="M451.79,510.51C462.79,512.79 440.33,513.5 446.69,515.31C460.55,516.96 474.42,513.82 487.71,520.26C493.01,522.2 485.55,518.56 487.93,516.62C493.63,520.06 500.76,522.74 505.14,527.85C510.41,536.57 500.7,531.49 499.03,527.42C487.95,523.45 478.65,519.13 466.16,518.99C479.06,522.05 480.11,523.98 492.63,528.4C496.19,529.82 498.08,532.15 499.09,535.81C491.38,533.58 481.65,523.23 473.64,526.43C466.57,525.64 458.37,522.49 450.97,523.06C459.94,526.76 469.04,526.51 477.59,531.46C483.1,534.93 486.66,529.27 491.48,534.95C488.87,537.9 492.94,540.23 495.04,541.92C502.89,544.76 505.39,555.03 508.8,562.07C507.95,563.43 507.11,564.78 506.31,566.17C502.34,546.27 477.93,538.39 460.76,534.18C465.61,533.37 469.37,535.9 474.03,535.98C478.52,536.53 472.56,534.45 471.71,533.32C468.79,527.26 459.27,532.29 455.01,527.99C446.74,519.38 433.67,528.52 432.9,538.73C434.62,537.81 436.28,536.8 438.03,535.94C436.03,538.51 433.88,540.9 431.31,542.93C430.24,530.84 436.97,510.38 451.79,510.51Z" style="fill:rgb(182,147,30);fill-rule:nonzero;"/>
                <path d="M466.16,518.99C478.65,519.13 487.95,523.45 499.03,527.42C500.7,531.49 510.41,536.57 505.14,527.85C511.42,533.86 518.45,539.91 518.76,549.24C516.59,554.13 512.21,558.06 508.8,562.07C505.39,555.03 502.89,544.76 495.04,541.92C492.94,540.23 488.87,537.9 491.48,534.95C486.66,529.27 483.1,534.93 477.59,531.46C469.04,526.51 459.94,526.76 450.97,523.06C458.37,522.49 466.57,525.64 473.64,526.43C481.65,523.23 491.38,533.58 499.09,535.81C498.08,532.15 496.19,529.82 492.63,528.4C480.11,523.98 479.06,522.05 466.16,518.99Z" style="fill:rgb(136,101,11);fill-rule:nonzero;"/>
                <path d="M455.01,527.99C459.27,532.29 468.79,527.26 471.71,533.32C472.56,534.45 478.52,536.53 474.03,535.98C469.37,535.9 465.61,533.37 460.76,534.18C452.96,532.45 445.28,532.05 438.03,535.94C436.28,536.8 434.62,537.81 432.9,538.73C433.67,528.52 446.74,519.38 455.01,527.99Z" style="fill:rgb(227,195,46);fill-rule:nonzero;"/>
                <path d="M471.42,558.74C477.11,563.67 489.01,562.05 495.05,567.9C486.18,565.79 477.23,565.3 468.37,563.58C462.72,560.95 473.71,550 471.42,558.74Z" style="fill:rgb(124,121,117);fill-rule:nonzero;"/>
                <path d="M447.82,575.11C458.74,577.06 466.67,579.46 473.83,588.53C466.57,588.48 474.5,590.97 469.87,595.59C469.34,600.77 470.3,599.53 465.16,600.7C466.14,605.04 467.51,610.01 461.04,606.28C463.9,608.41 460.9,615.51 458.92,610.3C456.49,612.02 460.25,617.37 453.65,616.49C449.54,616.02 452.22,624.62 448.46,625.61C451.37,630.32 455.41,629.02 449.08,634.26C449.67,638.45 450.46,647.96 443.36,644.07C446.32,648.12 440.85,646.79 439.13,650.17C435.15,653.67 433.59,661.57 428.97,662.6C433.3,665.66 439.59,659.07 439.82,666.25C446.74,670.11 447.05,674.4 443.33,681C448.52,682.75 449.98,677.38 454.9,684.96C450.53,690.13 456.95,693.03 449.64,693.42C448.16,702.89 440.97,698.16 436.29,702.2C436.67,706.36 453.41,703.6 446,709.96C442.74,709.14 434.41,715.47 440.88,715.94C450.7,711.46 447.93,703.76 455.75,696.79C456.36,684.81 467.78,699.9 471.65,692.37C469.6,690.68 465.31,690.77 466.43,687.27C466.2,684.71 470.13,680.45 465.33,681.63C467.33,673.82 468.78,664.92 473.7,658.79C475.72,662.27 478.49,652.41 479.81,651.04C481.03,654.38 478.6,656.41 481.2,659.33C480.11,666.58 477.24,674.81 478.78,682.08C481.6,693.21 478.01,703.43 479.08,714.67C478.64,720.39 478.31,726.1 477.73,731.81C477.42,733.88 475.87,738.95 473.88,739.53C468.95,736.39 468.32,740.83 470.39,744.43C466.95,749.62 469.57,754.04 461.25,751.58C466.86,749.78 458.66,741.27 459.84,748.06C461.31,752.12 455.97,750.67 455.57,747.31C451.45,751.71 445.84,755.75 450.87,761.74C442.74,759.3 448.76,765.78 443.98,770.09C438.59,770.39 441.73,772.14 438.1,776.04C436.77,781.72 429.44,785.33 431.65,790.91C433.23,795.75 433.68,804.42 428.67,807.48C435.77,812.46 426.73,820.87 420.88,821.35C419.53,820.7 418.19,820.03 416.83,819.4C423.42,819.71 420.64,813.49 423.35,809.36C425.04,806.54 422.48,805.11 421.19,802.86C425.69,800.08 426.54,797.18 427.7,792.24C426.43,789.77 425.38,790.26 428.17,788.62C426.26,788.76 425.96,781.38 429.52,782.48C431.25,778.09 438.59,773.25 432.28,768.84C434.43,762.95 437.93,753.85 439.63,748.12C439.78,743.98 438.55,739.32 442.76,736.79C447.43,733.94 446.59,729.39 447.79,724.66C447.74,721.64 450.29,715.31 444.57,718.29C437.92,722.31 436.08,710.43 433.34,717.34C435.59,730 428.71,741.92 427.59,754.62C427.45,760.25 423.98,764.46 423.8,769.99C422.41,775.94 425.06,780.31 420.17,784.93C419.97,783.89 419.79,782.85 419.63,781.81C423.27,756.94 432.93,729.39 431.62,704.34C422.55,688.98 418.4,667.1 424.69,649.99C422.29,644.28 419.78,638.7 417.83,632.78C419.47,632.31 422.98,634.46 423.66,632.65C424.53,625.08 424.68,617.33 425.72,609.8C428.58,599.83 425.5,585.75 430.7,576.8C428.16,591.62 428.38,606.22 426.06,620.98C426.51,626.5 424.33,632.5 426.34,637.61C429.28,639.03 425.93,634.36 428.87,635.29C432.23,636.7 431.9,630.21 433.25,628.28C437.04,623.46 437.93,617.69 442.14,613.09C445.19,610.65 439.64,602.28 444.48,601.67C437.99,596.85 448.29,593.82 445.33,589.45C450.59,590.54 446.7,580.91 452.84,581.4C449.89,576.52 441.17,574.51 435.74,574.58C440.11,573.61 443.57,573.67 447.82,575.11Z" style="fill:rgb(135,103,77);fill-rule:nonzero;"/>
                <path d="M435.74,574.58C441.17,574.51 449.89,576.52 452.84,581.4C446.7,580.91 450.59,590.54 445.33,589.45C448.29,593.82 437.99,596.85 444.48,601.67C439.64,602.28 445.19,610.65 442.14,613.09C437.93,617.69 437.04,623.46 433.25,628.28C431.9,630.21 432.23,636.7 428.87,635.29C425.93,634.36 429.28,639.03 426.34,637.61C424.33,632.5 426.51,626.5 426.06,620.98C428.38,606.22 428.16,591.62 430.7,576.8C432.04,575.17 433.8,575.01 435.74,574.58Z" style="fill:rgb(163,125,97);fill-rule:nonzero;"/>
                <path d="M447.82,575.11C467.03,575.79 488.83,585.22 499.08,602.16C497.48,619.86 487.06,633.85 487.7,651.25C486.99,649.83 487.48,644.1 486.26,644.45C486.08,650.03 483.47,654.41 481.2,659.33C478.6,656.41 481.03,654.38 479.81,651.04C478.49,652.41 475.72,662.27 473.7,658.79C468.78,664.92 467.33,673.82 465.33,681.63C470.13,680.45 466.2,684.71 466.43,687.27C465.31,690.77 469.6,690.68 471.65,692.37C467.78,699.9 456.36,684.81 455.75,696.79C447.93,703.76 450.7,711.46 440.88,715.94C434.41,715.47 442.74,709.14 446,709.96C453.41,703.6 436.67,706.36 436.29,702.2C440.97,698.16 448.16,702.89 449.64,693.42C456.95,693.03 450.53,690.13 454.9,684.96C449.98,677.38 448.52,682.75 443.33,681C447.05,674.4 446.74,670.11 439.82,666.25C439.59,659.07 433.3,665.66 428.97,662.6C433.59,661.57 435.15,653.67 439.13,650.17C440.85,646.79 446.32,648.12 443.36,644.07C450.46,647.96 449.67,638.45 449.08,634.26C455.41,629.02 451.37,630.32 448.46,625.61C452.22,624.62 449.54,616.02 453.65,616.49C460.25,617.37 456.49,612.02 458.92,610.3C460.9,615.51 463.9,608.41 461.04,606.28C467.51,610.01 466.14,605.04 465.16,600.7C470.3,599.53 469.34,600.77 469.87,595.59C474.5,590.97 466.57,588.48 473.83,588.53C466.67,579.46 458.74,577.06 447.82,575.11Z" style="fill:rgb(108,78,56);fill-rule:nonzero;"/>
                <path d="M486.26,644.45C487.48,644.1 486.99,649.83 487.7,651.25C488.59,655.92 489.64,660.57 490.77,665.19C491.86,676.43 503.29,684.63 509.23,693.9C509.01,699.4 508.28,705.68 504.9,710.23C498.76,718.87 491.1,731.33 480.09,733.78C477.26,728.1 482.68,721.42 479.08,714.67C478.01,703.43 481.6,693.21 478.78,682.08C477.24,674.81 480.11,666.58 481.2,659.33C483.47,654.41 486.08,650.03 486.26,644.45Z" style="fill:rgb(24,19,15);fill-rule:nonzero;"/>
                <path d="M509.23,693.9C514.55,702.16 520.57,710.08 525.34,718.66C533.58,732.28 537.97,749.18 547.02,762.7C546.02,764.15 545.06,765.62 544.16,767.13C538.37,772.98 528.92,759.47 528.36,754.33C533.39,745.58 525.41,737.51 521.05,730.34C517.13,733.72 520,726.98 517.38,725.63C514.29,722.9 512.55,719.83 510.84,716.14C509.63,713.03 505,713.87 504.9,710.23C508.28,705.68 509.01,699.4 509.23,693.9Z" style="fill:rgb(136,107,85);fill-rule:nonzero;"/>
                <path d="M504.9,710.23C505,713.87 509.63,713.03 510.84,716.14C512.55,719.83 514.29,722.9 517.38,725.63C520,726.98 517.13,733.72 521.05,730.34C525.41,737.51 533.39,745.58 528.36,754.33C528.92,759.47 538.37,772.98 544.16,767.13C539.03,775.33 523.14,777.67 514.74,781.35C502.88,766.95 490,753.52 478.55,738.74C478.19,736.44 477.89,734.13 477.73,731.81C478.31,726.1 478.64,720.39 479.08,714.67C482.68,721.42 477.26,728.1 480.09,733.78C491.1,731.33 498.76,718.87 504.9,710.23Z" style="fill:rgb(77,49,29);fill-rule:nonzero;"/>
                <path d="M444.57,718.29C450.29,715.31 447.74,721.64 447.79,724.66C446.59,729.39 447.43,733.94 442.76,736.79C438.55,739.32 439.78,743.98 439.63,748.12C437.93,753.85 434.43,762.95 432.28,768.84C438.59,773.25 431.25,778.09 429.52,782.48C425.96,781.38 426.26,788.76 428.17,788.62C425.38,790.26 426.43,789.77 427.7,792.24C426.54,797.18 425.69,800.08 421.19,802.86C422.48,805.11 425.04,806.54 423.35,809.36C420.64,813.49 423.42,819.71 416.83,819.4C415.18,818.84 413.53,818.29 411.88,817.74C415.64,805.95 417.27,793.9 419.63,781.81C419.79,782.85 419.97,783.89 420.17,784.93C425.06,780.31 422.41,775.94 423.8,769.99C423.98,764.46 427.45,760.25 427.59,754.62C428.71,741.92 435.59,730 433.34,717.34C436.08,710.43 437.92,722.31 444.57,718.29Z" style="fill:rgb(160,125,98);fill-rule:nonzero;"/>
                <path d="M477.73,731.81C477.89,734.13 478.19,736.44 478.55,738.74C477.86,739.39 477.31,740.1 476.89,740.89C468.92,772.12 453.64,803.17 441.13,832.48C434.38,828.75 428.04,824.56 420.88,821.35C426.73,820.87 435.77,812.46 428.67,807.48C433.68,804.42 433.23,795.75 431.65,790.91C429.44,785.33 436.77,781.72 438.1,776.04C441.73,772.14 438.59,770.39 443.98,770.09C448.76,765.78 442.74,759.3 450.87,761.74C445.84,755.75 451.45,751.71 455.57,747.31C455.97,750.67 461.31,752.12 459.84,748.06C458.66,741.27 466.86,749.78 461.25,751.58C469.57,754.04 466.95,749.62 470.39,744.43C468.32,740.83 468.95,736.39 473.88,739.53C475.87,738.95 477.42,733.88 477.73,731.81Z" style="fill:rgb(108,77,57);fill-rule:nonzero;"/>
                <path d="M547.02,762.7C549.41,765.98 551.42,769.4 553.17,773.07C552.78,774.03 552.36,774.99 551.93,775.94C543.64,780.28 530.74,789.25 528.11,798.28C523.31,792.76 518.52,787.69 514.74,781.35C523.14,777.67 539.03,775.33 544.16,767.13C545.06,765.62 546.02,764.15 547.02,762.7Z" style="fill:rgb(25,14,11);fill-rule:nonzero;"/>
                <path d="M553.17,773.07C555.7,778.72 559.89,783.41 563.15,788.71C562.69,789.51 562.22,790.3 561.74,791.09C558.1,788.52 557.89,784.82 555.78,781.27C554.39,777.76 549.89,780.58 551.93,775.94C552.36,774.99 552.78,774.03 553.17,773.07Z" style="fill:rgb(146,106,102);fill-rule:nonzero;"/>
                <path d="M551.93,775.94C549.89,780.58 554.39,777.76 555.78,781.27C557.89,784.82 558.1,788.52 561.74,791.09C556.24,798.04 545.19,798.01 537.64,803.68C534.46,805.95 533.63,802.95 530.87,801.72C529.89,800.62 528.98,799.47 528.11,798.28C530.74,789.25 543.64,780.28 551.93,775.94Z" style="fill:rgb(88,21,22);fill-rule:nonzero;"/>
                <path d="M563.15,788.71C565.13,790.64 566.85,792.7 568.46,794.94C566.3,800.57 562,799.53 557.95,802.62C562.45,802.56 565.79,802.38 568.1,806.87C563.11,808.61 556.36,819.72 557.91,824.54C561.66,830.11 566.09,827.82 571.02,825.11C569.25,832.36 562.39,829.23 556.91,830.24C560.48,832.37 563.96,831.78 567.9,832.26C568.05,834.85 567.47,837.21 567.02,839.73C569.01,837.91 576.43,832.39 572.41,839.2C572.24,844.75 582.79,837.22 586.57,840.09C588.05,840.56 590.88,837.77 589.85,840.84C587.38,844.76 579.59,845.29 576.88,848.7C579.92,848.56 582.22,847 585.27,847.73C574.42,853.27 562.25,856.36 551.5,861.98C550.47,862.6 549.49,863.31 548.52,864.02C547.94,864.42 547.37,864.82 546.81,865.24C541.89,868.62 539.66,873.73 533.09,874.26C518.5,875.52 504.47,877.09 489.91,874.2C489.18,873.52 488.45,872.83 487.73,872.14C493.59,871.33 498.05,874.02 503.68,872.13C507.09,873.45 505.06,871.41 505.38,869.23C507.4,867.61 509.92,866.63 512.06,865.15C510.65,862.99 505.98,861.38 508.2,858.45C510.47,859.87 514.53,854.99 515.16,853.12C519.8,840.97 536.26,827.47 528.85,814.13C526.78,809.97 530.37,806.34 530.87,801.72C533.63,802.95 534.46,805.95 537.64,803.68C545.19,798.01 556.24,798.04 561.74,791.09C562.22,790.3 562.69,789.51 563.15,788.71Z" style="fill:rgb(25,22,18);fill-rule:nonzero;"/>
                <path d="M568.46,794.94C577.24,804.87 584.42,817.19 591.74,828.29C596.46,836.71 594.44,844.2 585.27,847.73C582.22,847 579.92,848.56 576.88,848.7C579.59,845.29 587.38,844.76 589.85,840.84C590.88,837.77 588.05,840.56 586.57,840.09C582.79,837.22 572.24,844.75 572.41,839.2C576.43,832.39 569.01,837.91 567.02,839.73C567.47,837.21 568.05,834.85 567.9,832.26C563.96,831.78 560.48,832.37 556.91,830.24C562.39,829.23 569.25,832.36 571.02,825.11C566.09,827.82 561.66,830.11 557.91,824.54C556.36,819.72 563.11,808.61 568.1,806.87C565.79,802.38 562.45,802.56 557.95,802.62C562,799.53 566.3,800.57 568.46,794.94Z" style="fill:rgb(54,51,45);fill-rule:nonzero;"/>
                <path d="M411.88,817.74C413.53,818.29 415.18,818.84 416.83,819.4C418.19,820.03 419.53,820.7 420.88,821.35C428.04,824.56 434.38,828.75 441.13,832.48C441.8,845.67 427.98,849.03 435.29,859.71C437.47,865.48 428.58,864.55 428.4,870.35C424.57,880.47 429.87,888.03 428.78,897.86C428.47,898.52 428.17,899.19 427.86,899.85C426.87,901.54 425.92,903.26 424.97,904.97C409.4,908.04 398.94,916.21 383,915.06C375.05,915.67 368.71,912.29 361.12,910.85C359.88,910.54 358.63,910.27 357.37,910.01C356.05,909.64 354.73,909.26 353.41,908.9C348.85,906.86 343.52,905.25 340.63,900.87C349.94,898.09 359.7,905.63 368.06,906.85C361.11,899.58 371.29,906.24 375.45,903.64C379.95,907.74 381.2,904.82 386.2,906.69C390.09,901.23 385.9,910 392.17,907.24C393.68,911.29 393.81,907.03 393.65,905.34C400.32,905.59 408.87,903.36 414.02,899.02C408.6,894.11 402.53,888.36 395.32,894.33C388.23,901.31 381.5,896.47 373.7,894.22C369.52,893.06 366.21,892.68 363.11,889.32C361.08,887.72 359.17,886.14 357.7,883.98C369.5,879.62 381.87,870.08 387.9,858.91C391.78,851.23 390.41,835.68 402.63,837.67C402.72,830.23 409.12,824.62 411.88,817.74Z" style="fill:rgb(31,28,25);fill-rule:nonzero;"/>
                <path d="M515.16,853.12C514.53,854.99 510.47,859.87 508.2,858.45C505.98,861.38 510.65,862.99 512.06,865.15C509.92,866.63 507.4,867.61 505.38,869.23C505.06,871.41 507.09,873.45 503.68,872.13C498.05,874.02 493.59,871.33 487.73,872.14L486.82,872.13C486.43,870.46 486.11,868.78 485.86,867.09C492.72,853.97 503.06,855.37 515.16,853.12Z" style="fill:rgb(89,81,75);fill-rule:nonzero;"/>
                <path d="M551.5,861.98C561.5,864.78 572.76,859.95 583.21,862.66C586.24,863.7 593.84,863.63 591.76,868.66C589.06,871.53 584.34,872.64 580.63,873.51C564.79,875.76 548.75,877.27 533.01,879.99C519.32,881.41 502.98,884.12 489.65,880.36C482.29,877.87 483.19,873.11 485.86,867.09C486.11,868.78 486.43,870.46 486.82,872.13C487.13,881.96 499.37,879.5 506,880.02C524.12,879.95 542.57,876.57 560.39,873.5C564.26,872.47 572.73,871.63 572.92,866.35C564.86,864.06 556.34,866.16 548.52,864.02C549.49,863.31 550.47,862.6 551.5,861.98Z" style="fill:rgb(222,223,222);fill-rule:nonzero;"/>
                <path d="M548.52,864.02C556.34,866.16 564.86,864.06 572.92,866.35C572.73,871.63 564.26,872.47 560.39,873.5C542.57,876.57 524.12,879.95 506,880.02C499.37,879.5 487.13,881.96 486.82,872.13L487.73,872.14C488.45,872.83 489.18,873.52 489.91,874.2C494.31,879.3 498.99,877.92 505,878C521.57,878.69 538.25,875.78 554.37,872.34C562.52,868.51 549.33,866.59 546.81,865.24C547.37,864.82 547.94,864.42 548.52,864.02Z" style="fill:rgb(179,179,178);fill-rule:nonzero;"/>
                <path d="M546.81,865.24C549.33,866.59 562.52,868.51 554.37,872.34C538.25,875.78 521.57,878.69 505,878C498.99,877.92 494.31,879.3 489.91,874.2C504.47,877.09 518.5,875.52 533.09,874.26C539.66,873.73 541.89,868.62 546.81,865.24Z" style="fill:rgb(123,122,120);fill-rule:nonzero;"/>
                <path d="M357.7,883.98C359.17,886.14 361.08,887.72 363.11,889.32C359.29,899.02 357.83,894.11 350.5,894.48C350.23,900.56 342.8,895.16 339.82,898.92C339.19,890 351.41,887.2 357.7,883.98Z" style="fill:rgb(122,118,112);fill-rule:nonzero;"/>
                <path d="M363.11,889.32C366.21,892.68 369.52,893.06 373.7,894.22C381.5,896.47 388.23,901.31 395.32,894.33C402.53,888.36 408.6,894.11 414.02,899.02C408.87,903.36 400.32,905.59 393.65,905.34C393.81,907.03 393.68,911.29 392.17,907.24C385.9,910 390.09,901.23 386.2,906.69C381.2,904.82 379.95,907.74 375.45,903.64C371.29,906.24 361.11,899.58 368.06,906.85C359.7,905.63 349.94,898.09 340.63,900.87C340.29,900.26 340.02,899.61 339.82,898.92C342.8,895.16 350.23,900.56 350.5,894.48C357.83,894.11 359.29,899.02 363.11,889.32Z" style="fill:rgb(76,70,63);fill-rule:nonzero;"/>
                <path d="M428.78,897.86C429.68,902.41 433.04,906.42 427.21,909.17C401.81,920.23 372.51,923.99 345.21,921.69C335.46,916.53 349.77,911.74 353.41,908.9C354.73,909.26 356.05,909.64 357.37,910.01C355.15,912.45 342.32,917.13 351.58,919.44C374.7,921.31 397.57,918.41 419.39,910.43C425.66,909.09 429,906.89 427.86,899.85C428.17,899.19 428.47,898.52 428.78,897.86Z" style="fill:rgb(206,206,206);fill-rule:nonzero;"/>
                <path d="M427.86,899.85C429,906.89 425.66,909.09 419.39,910.43C397.57,918.41 374.7,921.31 351.58,919.44C342.32,917.13 355.15,912.45 357.37,910.01C358.63,910.27 359.88,910.54 361.12,910.85C365.14,914.27 359.03,911.99 358.09,914.72C371.5,920.53 389.17,917.13 403.01,914.02C409.13,910.95 421.62,910.82 424.97,904.97C425.92,903.26 426.87,901.54 427.86,899.85Z" style="fill:rgb(150,149,149);fill-rule:nonzero;"/>
                <path d="M424.97,904.97C421.62,910.82 409.13,910.95 403.01,914.02C389.17,917.13 371.5,920.53 358.09,914.72C359.03,911.99 365.14,914.27 361.12,910.85C368.71,912.29 375.05,915.67 383,915.06C398.94,916.21 409.4,908.04 424.97,904.97Z" style="fill:rgb(99,98,97);fill-rule:nonzero;"/>
            </g>
        </g>
    </g>
</svg>
