<?xml version="1.0" encoding="UTF-8" standalone="no"?>
<!DOCTYPE svg PUBLIC "-//W3C//DTD SVG 1.1//EN" "http://www.w3.org/Graphics/SVG/1.1/DTD/svg11.dtd">
<svg width="100%" height="100%" viewBox="0 0 1729 1728" version="1.1" xmlns="http://www.w3.org/2000/svg" xmlns:xlink="http://www.w3.org/1999/xlink" xml:space="preserve" xmlns:serif="http://www.serif.com/" style="fill-rule:evenodd;clip-rule:evenodd;stroke-linejoin:round;stroke-miterlimit:2;">
    <g transform="matrix(1,0,0,1,-1848,0)">
        <g id="Artboard2" transform="matrix(1,0,0,1,20.834324,0)">
            <rect x="1828" y="0" width="1728" height="1728" style="fill:none;"/>
            <g transform="matrix(1.500975,0.866588,-0.866588,1.500975,2292.001269,69.617645)">
                <g>
                    <path d="M449.97,156.19C455.59,155.18 460.75,156.82 465.75,159.25C471.47,162.08 477.06,165.19 482.59,168.38C487.43,171.16 491.82,174.57 496.58,177.45C501.29,180.39 507.58,181.12 513,181.61C517.62,181.96 522.44,182.56 527.07,182.07C528.63,181.92 530.04,180.55 531.36,179.77C532.18,180.81 533,181.86 533.82,182.91C529.92,187.93 524.81,191.23 519.4,194.4C511.78,198.71 502.83,202.89 494,203.48C487.75,204.03 483.98,200.16 478.03,199.35C474.07,198.7 470.02,200.33 466.16,199.76C463.38,199.1 462.02,196.91 460.4,194.79C460.6,202.25 460.84,209.63 461.98,217.02C462.07,219.32 463.07,222.77 461.25,224.53C459.9,223.73 458.64,222.79 457.4,221.84C464.77,236.21 465.69,251.95 470.79,268.11C474.18,269.24 477.98,270.16 481.04,272.04C484.05,273.97 485.79,277.49 487.42,280.56C489.2,284.09 491.18,287.56 492.68,291.21C494.39,295.45 494.44,299.58 494.8,304.06C507.88,309.71 521.9,313.26 534.94,318.99C536.9,319.98 539.8,321.28 540.72,323.4C541.68,327.63 539.86,331.9 537.14,335.1C532.98,340.02 526.67,343.37 520.78,345.76C509.03,350.46 496.04,352.71 483.45,353.49C481.55,358.87 480.32,364.92 475.95,368.93C471.29,373.16 464.92,375.81 459.17,378.22C454.67,380.16 449.8,380.5 445.21,382.02C438.97,386.66 433.61,392.83 426.86,396.93C422.97,399.21 418.66,400.39 415.06,403.07C412.42,405.02 410.4,407.2 407.22,408.35C400.81,410.66 393.79,411.54 387,411.7C379.74,411.78 371.47,410.75 365.23,406.74C360.89,404.01 359.17,399.99 355.46,396.53C350.37,391.66 346.16,386.06 343.53,379.48C341.16,373.22 340.33,366.57 339.48,360C339.28,356.99 337.06,354.96 335.5,352.49C331.16,346.39 329.68,338.87 328.18,331.68C317.75,327.8 309.15,321.81 299.24,316.77C291,312.82 282.96,306.93 277.65,299.44C274.83,292.88 279.16,283.5 285.43,280.38C298.43,273.39 313.52,269.12 327.78,265.52C330.94,264.67 334.16,264.15 337.41,263.77C340.3,258.2 345.13,255.46 350.07,252.03C351.94,250.86 352.31,249.07 353.11,247.17C355.25,241.4 358.1,234.93 362.61,230.61C364.72,228.51 367.48,227.53 369.79,225.77C372.3,222.92 374.11,219.39 376.23,216.24C384.6,202.92 394.14,190.41 405.33,179.33C411.83,172.29 420.25,169.04 428.57,164.57C435.29,161.34 442.57,157.43 449.97,156.19Z" style="fill:rgb(0,28,61);fill-rule:nonzero;"/>
                    <clipPath id="_clip1">
                        <path d="M449.97,156.19C455.59,155.18 460.75,156.82 465.75,159.25C471.47,162.08 477.06,165.19 482.59,168.38C487.43,171.16 491.82,174.57 496.58,177.45C501.29,180.39 507.58,181.12 513,181.61C517.62,181.96 522.44,182.56 527.07,182.07C528.63,181.92 530.04,180.55 531.36,179.77C532.18,180.81 533,181.86 533.82,182.91C529.92,187.93 524.81,191.23 519.4,194.4C511.78,198.71 502.83,202.89 494,203.48C487.75,204.03 483.98,200.16 478.03,199.35C474.07,198.7 470.02,200.33 466.16,199.76C463.38,199.1 462.02,196.91 460.4,194.79C460.6,202.25 460.84,209.63 461.98,217.02C462.07,219.32 463.07,222.77 461.25,224.53C459.9,223.73 458.64,222.79 457.4,221.84C464.77,236.21 465.69,251.95 470.79,268.11C474.18,269.24 477.98,270.16 481.04,272.04C484.05,273.97 485.79,277.49 487.42,280.56C489.2,284.09 491.18,287.56 492.68,291.21C494.39,295.45 494.44,299.58 494.8,304.06C507.88,309.71 521.9,313.26 534.94,318.99C536.9,319.98 539.8,321.28 540.72,323.4C541.68,327.63 539.86,331.9 537.14,335.1C532.98,340.02 526.67,343.37 520.78,345.76C509.03,350.46 496.04,352.71 483.45,353.49C481.55,358.87 480.32,364.92 475.95,368.93C471.29,373.16 464.92,375.81 459.17,378.22C454.67,380.16 449.8,380.5 445.21,382.02C438.97,386.66 433.61,392.83 426.86,396.93C422.97,399.21 418.66,400.39 415.06,403.07C412.42,405.02 410.4,407.2 407.22,408.35C400.81,410.66 393.79,411.54 387,411.7C379.74,411.78 371.47,410.75 365.23,406.74C360.89,404.01 359.17,399.99 355.46,396.53C350.37,391.66 346.16,386.06 343.53,379.48C341.16,373.22 340.33,366.57 339.48,360C339.28,356.99 337.06,354.96 335.5,352.49C331.16,346.39 329.68,338.87 328.18,331.68C317.75,327.8 309.15,321.81 299.24,316.77C291,312.82 282.96,306.93 277.65,299.44C274.83,292.88 279.16,283.5 285.43,280.38C298.43,273.39 313.52,269.12 327.78,265.52C330.94,264.67 334.16,264.15 337.41,263.77C340.3,258.2 345.13,255.46 350.07,252.03C351.94,250.86 352.31,249.07 353.11,247.17C355.25,241.4 358.1,234.93 362.61,230.61C364.72,228.51 367.48,227.53 369.79,225.77C372.3,222.92 374.11,219.39 376.23,216.24C384.6,202.92 394.14,190.41 405.33,179.33C411.83,172.29 420.25,169.04 428.57,164.57C435.29,161.34 442.57,157.43 449.97,156.19Z" clip-rule="nonzero"/>
                    </clipPath>
                    <g clip-path="url(#_clip1)">
                        <path d="M449.03,162.94C454.91,161.7 460.69,163.99 464.79,168.21C471,174.48 478.67,178.53 486.4,182.63C491.78,185.36 496.79,188.06 502.98,188.19C509.38,188.31 515.79,187.23 522.2,187.15C515.55,192.52 506.35,194.24 498.04,192.98C490.49,191.49 483.43,188.7 476.22,186.61C472.38,185.47 468.24,184.94 464.53,183.43C461.26,181.99 458.96,179.31 456.51,176.8C454.76,181.8 453.08,186.66 452.52,191.97C452.14,195.87 451.82,199.72 450.57,203.46C445.07,199.44 440.5,194.52 434.39,191.28C436.04,197.51 438.4,203.42 439.56,209.78C440.99,216.26 441.09,222.85 442.79,229.27C444.24,234.91 443.9,240.36 443.46,246.09C436.55,242.28 430.82,236.75 423.91,233.01C417.92,230.25 411.27,228.76 404.94,226.97C397.56,224.69 390.2,226.79 382.24,226.05C384.15,219.45 388.36,214.67 391.9,208.95C396.56,201.97 400.91,194.66 406.13,188.08C411.24,181.66 418.57,177.75 425.43,173.43C432.68,169.19 440.73,164.56 449.03,162.94Z" style="fill:white;fill-rule:nonzero;"/>
                        <path d="M385.82,230.84C384.37,233.47 382.91,236.09 381.45,238.72C375.09,239.16 368.91,240.43 362.71,241.85C363.88,240.39 364.99,238.66 366.45,237.46C372.24,233.47 378.83,231.43 385.82,230.84Z" style="fill:white;fill-rule:nonzero;"/>
                        <path d="M394.03,231.14C400.31,231.35 406.51,232.59 412.27,235.15C405.24,243.47 400.4,253.05 395.88,262.9C394.78,265.22 393.48,267.43 392.16,269.64C385.68,268.73 379.39,267.62 373.3,265.12C374.33,260.91 376.23,257.18 378.54,253.54C382.53,247.18 386.34,240.7 390.39,234.38C391.24,233.34 392.52,231.01 394.03,231.14Z" style="fill:white;fill-rule:nonzero;"/>
                        <path d="M421.1,239.86C432.28,246.47 442.9,253.62 451.85,263.14C457.91,269.54 462.14,277.92 465.43,286.02C464.52,288.56 462.81,289.81 460.12,289.98C454.56,285.3 451.2,277.03 446.29,271.71C441.6,266.5 436.56,261.27 430.95,257.06C425.23,252.97 419.3,249.22 413,246.08C413.83,243.69 414.42,240.9 415.87,238.81C417.63,237.67 419.51,239.07 421.1,239.86Z" style="fill:white;fill-rule:nonzero;"/>
                        <path d="M377.98,244.24C376.76,246.7 375.45,249.1 374.07,251.47C370.54,251.47 367,251.44 363.47,251.28C367.86,246.91 371.86,245.16 377.98,244.24Z" style="fill:white;fill-rule:nonzero;"/>
                        <path d="M410.96,251.98C415.2,252.37 419.41,254.83 422.98,257.03C429.8,261.5 436.49,267.03 441.18,273.76C439.85,275.58 438.47,277.33 436.97,279.01C428.22,270.79 417.33,264.6 406.53,259.5C407.93,257.01 409.09,254.15 410.96,251.98Z" style="fill:white;fill-rule:nonzero;"/>
                        <path d="M371.02,256.87C370.08,259.37 369.13,261.87 368.16,264.36C360.76,264.12 353.44,265.15 346.06,265.14C347.58,263.28 349.25,261.61 351.19,260.18C356.03,255.8 364.88,257.54 371.02,256.87Z" style="fill:white;fill-rule:nonzero;"/>
                        <path d="M401.84,265.2C408.05,267.05 413.95,271.13 419.38,274.62C426.48,279.32 433.27,284.69 439.36,290.64C442.56,294.01 446.43,298.3 447.32,302.98C447.66,304.87 447.29,305.96 446.04,307.38C442.5,307.85 441.15,303.84 439.37,301.57C434.11,294.17 424.77,288.97 417.76,283.24C411.79,278.18 405.03,275.54 398.07,272.21C399.14,269.76 400.29,267.38 401.84,265.2Z" style="fill:white;fill-rule:nonzero;"/>
                        <path d="M368.27,269.83C373.94,271.69 379.33,271.68 384.45,275.08C372.36,276.25 360.14,276.1 348.01,276.79C344.37,277.03 340.92,277.97 337.42,278.94C349.77,280.36 361.79,283.83 373.14,288.86C388.79,296.08 405.14,301.86 421.23,308C420.88,309.7 420.53,311.4 420.18,313.1C394.96,304.03 368.89,293.07 342.79,287.66C333.8,285.82 324.19,283.7 315,283.78C306.38,283.79 298.43,286.45 289.8,286.94C296.42,282.81 303.81,279.17 311.5,277.68C319.54,275.87 327.79,273.81 336.01,273.17C346.77,272.14 357.97,270.08 368.78,270.64L368.27,269.83Z" style="fill:white;fill-rule:nonzero;"/>
                        <path d="M467.88,276.6C472.35,280.42 477.44,284.42 480.55,289.45C483.26,294.87 484.44,301.2 485.92,307.05C483.87,308.13 481.16,308.85 480.21,311.21C478.85,314.86 478.57,319.15 478.96,323C479.34,326.4 481.96,328.02 484.21,330.22C483.53,333.67 483.03,337.39 481.7,340.65C479.81,340.6 478,340.19 476.1,340.2C473.31,342.27 471.24,345.86 469.91,349.02C468.55,352.73 470.63,355.59 472.14,358.79C468.46,362.44 464.88,365.81 460.21,368.21C457.62,369.53 454.52,369.87 451.67,370.38C454.73,366.31 458.49,362.39 460.82,357.85C462.31,354.66 460.6,351.86 458.05,349.96C455.2,347.96 451.59,345.97 448.06,345.84C444.89,348.45 442.73,352.28 439.99,355.34C435.46,341.88 432.91,328.21 435.39,314.04C431.87,326.55 429.78,339 431.2,352.03C431.61,356.3 433.65,359.93 434.47,364.16C432.78,363.29 431.38,363.39 430.42,361.54C426.89,355.54 424.41,349.01 423.87,342.02C422.75,328.51 426.21,315.29 430.71,302.67C433.16,305.13 435.81,307.26 437.95,310.02C439.94,312.37 441.93,315.4 445.03,316.27C451.16,315.09 455.25,307.98 454.1,302C452.87,294.83 447.73,289.37 442.79,284.42C443.69,282.72 444.63,281.06 445.62,279.41C448.45,283.27 451.29,287.1 453.79,291.18C454.68,292.54 455.6,294.15 456.88,295.17C461.46,295.74 468.4,295.14 471.29,290.96C471,287.1 469.63,283.24 468.65,279.5C468.39,278.54 468.14,277.57 467.88,276.6Z" style="fill:white;fill-rule:nonzero;"/>
                        <path d="M344.49,299.66C343.02,309.01 340.99,319.03 342.01,328.99C343.22,337.28 348.18,343.91 351.97,351.09C353.45,353.71 355.59,356.06 357.4,358.48C349.42,356.09 342.99,350.13 339.33,342.75C334.86,332.05 334.97,321.38 335.14,310C335.23,306.91 335.59,303.04 337.43,300.45C339.18,298.24 342.16,299.41 344.49,299.66Z" style="fill:white;fill-rule:nonzero;"/>
                        <path d="M486.33,313.47C486.92,316.67 485.82,319.39 484.45,322.19C483.85,319.93 482.53,316.72 483.57,314.46C484.29,313.4 485.21,313.57 486.33,313.47Z" style="fill:white;fill-rule:nonzero;"/>
                        <path d="M493.72,313.02C497.53,314.89 500.99,317.39 504.85,319.18C509.52,321.51 514.39,322.6 519.4,323.9C510.62,325.19 501.54,324.83 492.71,324.37C493.07,320.59 493.27,316.79 493.72,313.02Z" style="fill:white;fill-rule:nonzero;"/>
                        <path d="M391.85,326.95C400.48,329.46 408.47,333.2 417.51,334.34C417.68,337.19 417.77,340.05 417.85,342.91C408.27,340.42 398.54,338.53 388.9,336.29C389.87,333.17 390.86,330.06 391.85,326.95Z" style="fill:white;fill-rule:nonzero;"/>
                        <path d="M477.32,345.26C478.09,346.46 478.84,347.65 479.33,348.98C478.52,350.68 477.17,351.76 475.86,353.04C475.26,351.62 474.66,350.2 474.11,348.76C475.08,347.51 476.19,346.37 477.32,345.26Z" style="fill:white;fill-rule:nonzero;"/>
                        <path d="M384.43,347.66C388.78,347.83 392.8,348.89 396.99,349.88C404.51,351.7 412.01,353.4 419.75,353.96C420.61,360.1 425.05,364.57 428.54,369.44C421.95,374.05 415.4,379.21 408.39,383.08C406.21,382.37 404.41,381.32 402.04,381.73C393.16,382.69 385.14,385.05 376.21,382.6C370.88,381.07 365.35,379.04 360.36,376.63C355.52,374.22 355.11,368.87 353.85,364.21C361.19,366.63 368.99,364.51 374.95,359.88C378.76,356.6 381.72,351.85 384.43,347.66Z" style="fill:white;fill-rule:nonzero;"/>
                        <path d="M449.99,351.31C451.42,352.34 453.3,352.96 453.28,355.04C453.24,358.59 449.85,362.1 447.79,364.79C443.3,369.96 440.33,375.74 435.44,380.42C430.17,385.58 424.33,388.97 418.35,393.34C414.82,395.69 410.24,398.63 405.87,398.49C402.83,396.63 403.76,393.83 403.5,390.8C412.53,387.33 420.77,382.27 428.37,376.32C433.4,372.29 438.03,368.09 441.78,362.8C444.54,359.02 446.81,354.66 449.99,351.31Z" style="fill:white;fill-rule:nonzero;"/>
                        <path d="M348.23,369.36C351.16,374.43 353.78,379.26 358.64,382.8C358.32,384.4 358,385.99 357.67,387.59C353.21,383.03 350.69,378.35 349.02,372.21C348.75,371.26 348.49,370.31 348.23,369.36Z" style="fill:white;fill-rule:nonzero;"/>
                        <path d="M366.87,385.07C370.56,386.53 373.94,388.32 377.97,388.75C384.75,390.02 391,388.51 397.78,388.54C397.19,389.85 396.6,391.16 396,392.47C397.07,395.87 397.92,399.28 398.46,402.81C392.47,404.58 386.16,405.01 379.96,404.29C375.38,403.68 370.55,402.15 367.23,398.78C364.17,395.77 362.92,391.16 363.81,387C364.05,385.51 365.4,384.38 366.87,385.07Z" style="fill:white;fill-rule:nonzero;"/>
                        <g transform="matrix(1,0,0,1,-3,-2)">
                            <path d="M463.522,307L465.508,306.988L468.644,316.049L467.609,318.938L463.522,307Z" style="fill:rgb(0,28,61);"/>
                            <path d="M463.514,309.44L465.82,316.027L465.833,331.459L463.562,338.047L463.514,309.44Z" style="fill:rgb(0,28,61);"/>
                            <path d="M463.586,340.026L465.87,340.006L469.239,329.672L468.217,326.531L463.586,340.026Z" style="fill:rgb(0,28,61);"/>
                            <path d="M467.837,327.578L468.228,326.549L469.333,326.531L471.102,331.483L471.132,337.641L468.931,330.681L467.837,327.578Z" style="fill:rgb(0,28,61);"/>
                            <path d="M471.77,340.024L474.073,340.016L473.99,306.959L471.753,306.995L471.77,340.024Z" style="fill:rgb(0,28,61);"/>
                            <path d="M470.849,309.672L470.84,316.141L469.293,320.517L468.19,320.516L467.607,318.939L470.849,309.672Z" style="fill:rgb(0,28,61);"/>
                        </g>
                    </g>
                </g>
            </g>
            <g id="side" transform="matrix(1.602608,0,0,1.602608,2056.167804,244.573888)">
                <path d="M542.61,28.41C549.46,34.05 555,42.66 558.35,50.69C561.36,50.41 563.89,42.2 567.6,40.6C575.52,38.24 572.8,42 570.82,46.74C565.57,54.68 564.44,65.09 562.41,74.38C559.58,99.77 580.54,125.2 575.34,151.18C573.16,164.13 576.51,181.19 569.13,192.15C566.67,185.99 570.88,183.1 571.41,177.2C571.57,165.02 571.63,154.11 572.21,141.83C568.17,135.81 571.99,131.92 566.12,127.27C570.48,125.73 563.78,117.53 565.43,112.73C559.22,110.59 565.55,97.87 556.52,94.65C560.4,89.15 557.15,76.55 554.93,70.09C550.78,64.38 551.79,70.97 550.77,73.79C544.3,73.22 543.02,65.01 539.31,60.68C538.27,58.03 536.6,60.52 535.78,61.85C531.38,56.09 526.75,50.51 521.85,45.18C520.07,43.33 520.99,39.03 524.18,40.71C529.05,42.65 532.45,48.14 537.04,50.92C536.16,44.71 525.06,39.48 526.24,33.31C528.41,29.79 535.23,36.28 536.45,38.57C540.56,43.43 545.9,46 549.01,51.94C548.19,44.58 543.78,39.78 540.49,33.57C539.85,31.62 538.88,26.3 542.61,28.41Z" style="fill:rgb(190,150,136);fill-rule:nonzero;"/>
                <path d="M521.31,53.24C525.55,51.7 527.99,59.09 530.7,61.3C532.35,63.23 539.31,68.06 535.78,61.85C536.6,60.52 538.27,58.03 539.31,60.68C543.02,65.01 544.3,73.22 550.77,73.79C551.79,70.97 550.78,64.38 554.93,70.09C557.15,76.55 560.4,89.15 556.52,94.65C565.55,97.87 559.22,110.59 565.43,112.73C563.78,117.53 570.48,125.73 566.12,127.27C571.99,131.92 568.17,135.81 572.21,141.83C571.63,154.11 571.57,165.02 571.41,177.2C570.88,183.1 566.67,185.99 569.13,192.15C568.17,193.75 567.11,195.28 565.99,196.76C559.7,198.1 559.31,212.8 557.08,218.07C557.68,222.74 558.79,225.91 557.54,230.79C552.79,226.38 547.63,220.53 543.02,215.97C536.8,210.86 537.62,221.35 531.73,222.25C528.84,222.41 524.95,223.91 523.49,220.46C520.53,212.06 521.14,205.17 525.36,197.39C527.45,191.43 525.96,185.35 529.28,180.29C531.35,175.94 536.11,176.61 536.46,171.15C539.48,172.16 542.2,180.8 544.71,174.7C550.92,167.27 541.31,160.51 543.85,150.98C548.36,135.82 545.22,121.66 544.31,105.77C542.6,98.74 543.07,109.31 542.71,111.24C541.56,101.84 543.18,97.45 535.91,90.12C531.38,80.84 535.04,72.72 526.79,65.63C526.07,64.91 525.29,64.27 524.51,63.6C524.65,60.32 517.68,55.35 521.31,53.24Z" style="fill:rgb(175,105,85);fill-rule:nonzero;"/>
                <path d="M243.83,61.19C249.54,71.12 258.13,77.35 263.14,87.82C260.51,102.73 270.75,100.74 278.87,109.14C285.64,115.72 294.88,117.53 301.97,123.36C312.48,123.86 320.22,133.09 331.06,134.9C334.44,136.44 341.25,137.74 343,140.97C341.85,146.29 335.7,143.7 332.09,143.11C337.19,149.67 348.77,154.16 355.88,148.92C370.55,144.55 380.94,151.24 394.93,152.15C407.28,153.54 417.59,158.84 429.99,160.03C440.8,163.98 445.39,152.7 455.67,158.35C460.86,160.25 470.99,159.58 468.39,168.37C468.53,171.29 456.53,179.93 463.9,179.11C446.04,201.43 441.62,227.21 435.1,254.2C435.43,242.12 435.96,230.94 435.11,218.84C435.78,221.09 436.07,223.2 437.59,225.08C438.39,220.2 437.58,217.2 442.52,214.62C442.02,203.97 441.09,193.79 441.71,182.99C439.98,175.66 435.45,165.79 426.2,167.25C413.5,165.25 404.97,155.4 390.21,156.3C384.88,158.03 378.61,156.12 374.94,158.96C368.14,159.22 362.06,155.06 355.85,157.69C353.41,158.01 350.62,155.69 348.23,155.07C343.97,161.87 334.43,155.02 329.76,152.14C324.99,146.42 316.99,144.26 310.28,140.77C309.21,135.8 303.41,138.48 301.48,133.46C296.91,128.64 291.64,128.6 287.39,122.63C282.11,118.78 274.06,116.95 271.64,110.32C272.93,105.41 269.01,101.18 264.21,103.08C265.52,106.67 269.05,108.33 264.08,110.98C258.58,107.21 253.89,102.64 246.64,103.27C240.07,100.58 227.05,95.23 225.18,87.85C224.05,82.09 227.22,87.59 229.04,88.82C226.75,80.12 233.01,75.35 226.86,69.12C225.53,67.38 225.45,66.87 225.96,64.74C227.16,69.25 241.02,81.1 243.64,75.25C241.05,70.71 232.5,63.63 235.72,57.71C239.36,53.23 241.52,58.74 243.83,61.19Z" style="fill:rgb(199,166,150);fill-rule:nonzero;"/>
                <path d="M225.96,64.74C225.45,66.87 225.53,67.38 226.86,69.12C233.01,75.35 226.75,80.12 229.04,88.82C227.22,87.59 224.05,82.09 225.18,87.85C227.05,95.23 240.07,100.58 246.64,103.27C249.71,107.88 254.88,105.22 258.73,109.27C267.16,115.14 271.43,124.9 281.12,126.08C287.1,134.63 293.05,132.6 300.35,140.65C307.01,147.48 314.02,149.1 322.25,152.72C327.32,154.86 329.05,165.3 335.3,162.25C340.04,160.1 343.74,163.74 348.8,162.69C352.84,161.74 356.01,162.18 359.94,163.34C358.23,165.35 349.7,166.34 353.42,169.52C360.04,172.77 368.79,172.04 375.97,171.88C380,171.02 386.7,169.23 382.4,163.95C391.86,164.72 398.46,159.67 408.18,164.89C413.58,167.44 421.67,173.39 427.76,172.72C432.68,169.08 435.98,174.6 435.87,179.15C433.97,177.69 432.08,172.27 431.81,177.92C429.64,181.86 411,169.81 416.24,180.67C417.09,185.67 413.08,174.58 412.32,180.45C409.19,182.33 394.79,182.2 391.5,183.83C393.46,190.86 402.01,184.15 399.82,189.33C402.77,190.69 406.17,190.55 409.24,191.74C393.03,193.06 375.14,183.36 360.13,177.88C347.01,173.81 334.2,173.74 322.18,165.85C301.91,154.35 284.03,139.85 266.22,124.95C257.85,119.24 251.99,111.71 242.34,108.62C233.78,102.97 222.31,98.23 219.68,87.2C215.12,78.68 218,66.87 221.41,58.4C226.21,54.12 226.05,61.83 225.96,64.74Z" style="fill:rgb(172,112,95);fill-rule:nonzero;"/>
                <path d="M524.51,63.6C525.29,64.27 526.07,64.91 526.79,65.63C522.51,67.91 529.51,73.92 524.02,73.05C522.17,72.89 510.9,78.79 517.13,79.97C520.59,81.67 522.37,72.76 524,78.07C523.59,84 518.59,79.96 516.74,85.72C511.43,82.56 501.58,81.17 506.92,73C505.93,67.51 493.73,72.24 491.17,75.67C501.24,77.33 488.98,79.62 486.14,79.25C489.76,85.61 485.96,80.55 483.17,83.37C491.7,87.18 476.24,84.98 481.39,89.68C472.57,92.07 484.48,96.52 485.74,91.71C486.69,89.4 494.15,84.33 494.92,88.8C497.77,86.36 498.26,86.9 498.48,90.34C504.49,90.31 498.15,93.52 495.8,92.01L495.5,91.05C492.2,88.55 486.29,89.94 486.63,95.12C487.55,100.08 475.87,107.39 475.99,99.02C474.61,92.31 478.2,87 477.99,80.87C483.76,72.83 493.66,65.04 503.98,64.99C511.69,65.17 516.95,66.02 524.51,63.6Z" style="fill:rgb(114,105,86);fill-rule:nonzero;"/>
                <path d="M526.79,65.63C535.04,72.72 531.38,80.84 535.91,90.12C531.23,81.63 529.03,86.05 521.23,86.23C517.05,92.46 530.13,85.62 529.56,87.74C527.05,91.51 530.31,89.49 532.81,90.15C531.82,91.74 529.65,92.43 530.89,94.48C534.02,98.68 524.67,98.38 525.68,102.36C526.01,106.34 526.01,111.99 523.28,115.2C525.81,107.42 519.87,101.92 518.09,93.93C513.71,86.82 513.37,96.49 511.05,98.84C506.75,93.47 494.68,99.18 495.8,92.01C498.15,93.52 504.49,90.31 498.48,90.34C498.26,86.9 497.77,86.36 494.92,88.8C494.15,84.33 486.69,89.4 485.74,91.71C484.48,96.52 472.57,92.07 481.39,89.68C476.24,84.98 491.7,87.18 483.17,83.37C485.96,80.55 489.76,85.61 486.14,79.25C488.98,79.62 501.24,77.33 491.17,75.67C493.73,72.24 505.93,67.51 506.92,73C501.58,81.17 511.43,82.56 516.74,85.72C518.59,79.96 523.59,84 524,78.07C522.37,72.76 520.59,81.67 517.13,79.97C510.9,78.79 522.17,72.89 524.02,73.05C529.51,73.92 522.51,67.91 526.79,65.63Z" style="fill:rgb(70,56,38);fill-rule:nonzero;"/>
                <path d="M477.99,80.87C478.2,87 474.61,92.31 475.99,99.02C475.87,107.39 487.55,100.08 486.63,95.12C486.29,89.94 492.2,88.55 495.5,91.05C494.81,97.12 490.13,95.98 490.01,101.64C495.08,100.22 494.95,103.19 498.62,105.36C505.05,106.72 515.14,109.4 514.36,99.11C521.68,100.8 524.5,113.91 516.92,119C509.84,123.61 508.78,130.17 506.64,137.69C494.46,140.13 483.09,133.82 471.3,135.64C470.51,130.4 470.26,125.01 469.3,119.78C470.42,114.17 472.46,110.6 477.15,107.27C473.98,101.08 473.33,87.43 477.99,80.87Z" style="fill:rgb(181,137,127);fill-rule:nonzero;"/>
                <path d="M535.91,90.12C543.18,97.45 541.56,101.84 542.71,111.24C544.11,121.62 540.21,132.31 541.26,142.65C537.1,146.36 533.52,152.29 529.19,155.13C520.85,160.37 515.08,146.5 508.88,143.07C499.81,143.47 493.76,154.59 482.85,153.22C481.3,152.85 479.77,152.39 478.25,151.94C468.38,148.76 467.82,128.18 469.3,119.78C470.26,125.01 470.51,130.4 471.3,135.64C483.09,133.82 494.46,140.13 506.64,137.69C508.78,130.17 509.84,123.61 516.92,119C519.5,118.27 521.62,117.4 523.28,115.2C526.01,111.99 526.01,106.34 525.68,102.36C524.67,98.38 534.02,98.68 530.89,94.48C529.65,92.43 531.82,91.74 532.81,90.15C530.31,89.49 527.05,91.51 529.56,87.74C530.13,85.62 517.05,92.46 521.23,86.23C529.03,86.05 531.23,81.63 535.91,90.12Z" style="fill:rgb(40,32,28);fill-rule:nonzero;"/>
                <path d="M263.14,87.82C264.31,94.27 268.76,98.59 274.18,101.84C287.42,110.84 301.75,117.22 316.35,123.63C331.01,127.81 342.48,136.99 356.15,142.76C377.19,142.2 396.15,148.14 416.03,153.93C427.09,152.81 438,153.44 449.01,151.97C455.61,152.6 461.86,157.37 467.65,160.4C471.38,163.23 477.69,170.08 477.78,160.76C477.91,163.24 478,165.51 477.13,167.88C471.85,170.07 468.61,175.81 463.9,179.11C456.53,179.93 468.53,171.29 468.39,168.37C470.99,159.58 460.86,160.25 455.67,158.35C445.39,152.7 440.8,163.98 429.99,160.03C417.59,158.84 407.28,153.54 394.93,152.15C380.94,151.24 370.55,144.55 355.88,148.92C348.77,154.16 337.19,149.67 332.09,143.11C335.7,143.7 341.85,146.29 343,140.97C341.25,137.74 334.44,136.44 331.06,134.9C320.22,133.09 312.48,123.86 301.97,123.36C294.88,117.53 285.64,115.72 278.87,109.14C270.75,100.74 260.51,102.73 263.14,87.82Z" style="fill:rgb(215,199,186);fill-rule:nonzero;"/>
                <path d="M495.5,91.05L495.8,92.01C494.68,99.18 506.75,93.47 511.05,98.84C513.37,96.49 513.71,86.82 518.09,93.93C519.87,101.92 525.81,107.42 523.28,115.2C521.62,117.4 519.5,118.27 516.92,119C524.5,113.91 521.68,100.8 514.36,99.11C515.14,109.4 505.05,106.72 498.62,105.36C494.95,103.19 495.08,100.22 490.01,101.64C490.13,95.98 494.81,97.12 495.5,91.05Z" style="fill:rgb(136,97,83);fill-rule:nonzero;"/>
                <path d="M271.64,110.32C274.06,116.95 282.11,118.78 287.39,122.63C291.64,128.6 296.91,128.64 301.48,133.46C303.41,138.48 309.21,135.8 310.28,140.77C316.99,144.26 324.99,146.42 329.76,152.14C334.43,155.02 343.97,161.87 348.23,155.07C350.62,155.69 353.41,158.01 355.85,157.69C362.06,155.06 368.14,159.22 374.94,158.96C378.61,156.12 384.88,158.03 390.21,156.3C404.97,155.4 413.5,165.25 426.2,167.25C435.45,165.79 439.98,175.66 441.71,182.99C441.09,193.79 442.02,203.97 442.52,214.62C437.58,217.2 438.39,220.2 437.59,225.08C436.07,223.2 435.78,221.09 435.11,218.84C434.21,215.12 433.24,211.41 432.26,207.71C442.04,209.53 440.02,197.01 439.86,191.03C439.34,186.99 437.28,182.97 435.87,179.15C435.98,174.6 432.68,169.08 427.76,172.72C421.67,173.39 413.58,167.44 408.18,164.89C398.46,159.67 391.86,164.72 382.4,163.95C386.7,169.23 380,171.02 375.97,171.88C368.79,172.04 360.04,172.77 353.42,169.52C349.7,166.34 358.23,165.35 359.94,163.34C356.01,162.18 352.84,161.74 348.8,162.69C343.74,163.74 340.04,160.1 335.3,162.25C329.05,165.3 327.32,154.86 322.25,152.72C314.02,149.1 307.01,147.48 300.35,140.65C293.05,132.6 287.1,134.63 281.12,126.08C271.43,124.9 267.16,115.14 258.73,109.27C254.88,105.22 249.71,107.88 246.64,103.27C253.89,102.64 258.58,107.21 264.08,110.98C269.05,108.33 265.52,106.67 264.21,103.08C269.01,101.18 272.93,105.41 271.64,110.32Z" style="fill:rgb(187,140,122);fill-rule:nonzero;"/>
                <path d="M544.31,105.77C545.22,121.66 548.36,135.82 543.85,150.98C541.31,160.51 550.92,167.27 544.71,174.7C542.2,180.8 539.48,172.16 536.46,171.15C536.11,176.61 531.35,175.94 529.28,180.29C525.96,185.35 527.45,191.43 525.36,197.39C521.14,205.17 520.53,212.06 523.49,220.46C524.95,223.91 528.84,222.41 531.73,222.25C537.62,221.35 536.8,210.86 543.02,215.97C547.63,220.53 552.79,226.38 557.54,230.79C558.79,225.91 557.68,222.74 557.08,218.07C559.31,212.8 559.7,198.1 565.99,196.76C564.34,203.25 565.01,210.36 565.13,217.01C567.67,232.15 561.91,243.77 556.16,257.12C552.75,271.06 547.95,284.99 546.32,299.21C542.07,292.2 535.29,286.3 531.52,278.43C522.72,264.5 519.89,245.44 515.24,229.82C511.85,216.47 508.26,204.54 510.57,190.59C512.78,183.6 519.32,178.43 522.82,171.93C521.17,172.55 519.57,173.3 518,174.12C515.4,173.73 513.54,173.26 511.97,170.96C513.21,167.38 514.97,172.35 517.35,170.4C521.6,167.73 519.64,162.85 524.56,159.97C529.04,170.32 534.64,161.38 538.15,156.14C540.54,151.35 543.5,148.39 541.26,142.65C540.21,132.31 544.11,121.62 542.71,111.24C543.07,109.31 542.6,98.74 544.31,105.77Z" style="fill:rgb(190,150,133);fill-rule:nonzero;"/>
                <path d="M538.09,117.07C533.16,124.52 546.44,119.6 538.09,117.07Z" style="fill:rgb(169,176,181);fill-rule:nonzero;"/>
                <path d="M474.91,124.53C479.62,124.93 485.49,124.73 489.58,127.26C489.56,129.89 483.56,127.11 481.94,127.2C479.3,126.75 474.76,128.9 474.91,124.53Z" style="fill:rgb(58,29,25);fill-rule:nonzero;"/>
                <path d="M523.31,132.2C526.96,131.23 527.78,134.4 526.09,137.06C520.51,140.25 519.51,136.2 523.31,132.2Z" style="fill:rgb(178,168,166);fill-rule:nonzero;"/>
                <path d="M508.88,143.07C515.08,146.5 520.85,160.37 529.19,155.13C528.14,156.19 527.12,157.28 526.07,158.35C521.09,157.87 516.04,152.49 511.27,156.29C504.11,161.4 499.11,156.61 490.3,158.51C481.66,156.68 492.48,154.12 482.85,153.22C493.76,154.59 499.81,143.47 508.88,143.07Z" style="fill:rgb(143,84,66);fill-rule:nonzero;"/>
                <path d="M541.26,142.65C543.5,148.39 540.54,151.35 538.15,156.14C534.64,161.38 529.04,170.32 524.56,159.97C525.06,159.43 525.57,158.89 526.07,158.35C527.12,157.28 528.14,156.19 529.19,155.13C533.52,152.29 537.1,146.36 541.26,142.65Z" style="fill:rgb(241,237,232);fill-rule:nonzero;"/>
                <path d="M478.25,151.94C479.77,152.39 481.3,152.85 482.85,153.22C492.48,154.12 481.66,156.68 490.3,158.51C499.11,156.61 504.11,161.4 511.27,156.29C516.04,152.49 521.09,157.87 526.07,158.35C525.57,158.89 525.06,159.43 524.56,159.97C519.64,162.85 521.6,167.73 517.35,170.4C514.97,172.35 513.21,167.38 511.97,170.96C513.54,173.26 515.4,173.73 518,174.12C514.68,177.58 511.9,181.55 508.42,184.85C504.36,184.55 501.2,187.16 495.69,186.12C493.58,183.64 496.7,181.08 497.79,178.9C492.4,178.51 493.75,188.92 489.87,191C486.16,191.41 486.17,182.78 481.65,184.6C478.69,185.19 476.59,184.79 473.79,183.8C476.4,178.7 476.66,173.47 477.13,167.88C478,165.51 477.91,163.24 477.78,160.76C478.16,157.67 479.1,155.04 478.25,151.94Z" style="fill:rgb(168,122,106);fill-rule:nonzero;"/>
                <path d="M477.13,167.88C476.66,173.47 476.4,178.7 473.79,183.8C466.67,196.63 464.81,212.59 463.96,227.01C465.17,231.91 462.86,242.45 471,241.07C482.02,239.94 487.38,226.21 491.68,217.67C493.38,213.74 495.41,210.21 492.58,206.21C498.16,206.09 496.24,201.07 498.6,197.64C501.64,193.27 504.95,188.89 508.42,184.85C511.9,181.55 514.68,177.58 518,174.12C519.57,173.3 521.17,172.55 522.82,171.93C519.32,178.43 512.78,183.6 510.57,190.59C508.26,204.54 511.85,216.47 515.24,229.82C519.89,245.44 522.72,264.5 531.52,278.43C535.29,286.3 542.07,292.2 546.32,299.21L545.94,300.12C540.45,298.73 538.8,294.52 535.13,290.81C531.68,283.88 527.44,277.29 522.99,270.98C510.31,267.5 495.2,269.49 481.98,269.05C465.95,272.27 452.05,265.95 436.05,266.95C433.44,267.14 434.23,265.66 433.52,263.8C433.65,262.59 433.78,261.37 433.93,260.15C450.12,261.16 464.37,267.01 480.39,264.48C493.73,262.52 507.51,262.35 520.89,264C520.2,259.13 514.42,261.64 510.98,260.98C498.24,258.76 485.04,262.02 472.01,262.88C461.92,262.15 452.07,259.36 441.98,258.89C439.7,258.58 435.36,258.7 434.65,255.94L435.1,254.2C441.62,227.21 446.04,201.43 463.9,179.11C468.61,175.81 471.85,170.07 477.13,167.88Z" style="fill:rgb(48,55,84);fill-rule:nonzero;"/>
                <path d="M435.87,179.15C437.28,182.97 439.34,186.99 439.86,191.03C440.02,197.01 442.04,209.53 432.26,207.71C429.13,193.21 422.75,192.34 409.24,191.74C406.17,190.55 402.77,190.69 399.82,189.33C402.01,184.15 393.46,190.86 391.5,183.83C394.79,182.2 409.19,182.33 412.32,180.45C413.08,174.58 417.09,185.67 416.24,180.67C411,169.81 429.64,181.86 431.81,177.92C432.08,172.27 433.97,177.69 435.87,179.15Z" style="fill:rgb(150,84,62);fill-rule:nonzero;"/>
                <path d="M497.79,178.9C496.7,181.08 493.58,183.64 495.69,186.12C501.2,187.16 504.36,184.55 508.42,184.85C504.95,188.89 501.64,193.27 498.6,197.64C496.24,201.07 498.16,206.09 492.58,206.21C495.41,210.21 493.38,213.74 491.68,217.67C487.38,226.21 482.02,239.94 471,241.07C462.86,242.45 465.17,231.91 463.96,227.01C464.81,212.59 466.67,196.63 473.79,183.8C476.59,184.79 478.69,185.19 481.65,184.6C486.17,182.78 486.16,191.41 489.87,191C493.75,188.92 492.4,178.51 497.79,178.9Z" style="fill:rgb(198,168,158);fill-rule:nonzero;"/>
                <path d="M537.18,183.79C545.59,188.35 552.51,192.97 559.17,199.91C556.01,202.46 552.34,203.86 548.86,205.86C547.77,208.67 548.07,215.7 546.57,208.21C540.02,209.05 536.28,208.68 532.9,215.24C529.39,208.69 532.96,199.38 531.07,192.01C531.71,188.77 531.66,177.94 537.18,183.79Z" style="fill:rgb(133,69,47);fill-rule:nonzero;"/>
                <path d="M451.61,240.02C459.4,242.69 445.36,256.27 443.61,247.39C440.29,243.1 449.19,231.46 451.61,240.02Z" style="fill:rgb(118,125,155);fill-rule:nonzero;"/>
                <path d="M434.65,255.94C435.36,258.7 439.7,258.58 441.98,258.89C452.07,259.36 461.92,262.15 472.01,262.88C485.04,262.02 498.24,258.76 510.98,260.98C514.42,261.64 520.2,259.13 520.89,264C507.51,262.35 493.73,262.52 480.39,264.48C464.37,267.01 450.12,261.16 433.93,260.15C434.09,258.74 434.3,257.33 434.65,255.94Z" style="fill:rgb(158,165,190);fill-rule:nonzero;"/>
                <path d="M433.52,263.8C434.23,265.66 433.44,267.14 436.05,266.95C452.05,265.95 465.95,272.27 481.98,269.05C495.2,269.49 510.31,267.5 522.99,270.98C527.44,277.29 531.68,283.88 535.13,290.81C537.16,295.54 539.32,298.56 536.67,303.76C527.78,304.08 516.8,297.94 507.86,300.88C502.62,303.16 496,298.16 490.64,297.38C481.41,297.42 471.6,295.18 463,298.12C454.48,295.94 443.98,293.08 435.26,296.31C437.3,309.05 440.82,322.05 444.74,333.32C452.04,333.76 446.08,329.7 451.3,327.72C447.08,324.2 460.55,323.3 459.5,327.67C459.3,331.49 461.98,332.95 464.27,335.45C463.8,337.48 462.11,342.29 465.87,341.84C470.43,339.63 475.68,338.16 479.87,335.43C479.63,342.05 482.05,339.26 486.89,340.24C486.81,343.97 478.76,340.71 480.09,345.93C484.14,345.94 490.52,342.69 493.87,346.22C495.86,348.7 499.59,344.79 499.2,342.44C496.6,344.58 495.08,342.64 497.09,340.26C500.07,341.02 500.68,340.6 500.69,343.97C505.78,343.62 512.06,340.86 516.95,339.04C516.46,342.29 515.57,345.16 515.65,348.52C511.59,350.23 506.69,350.94 502.89,353.02C505.87,357.93 515.24,364.42 514.51,353.7C517.77,351.95 523.27,354.61 528.74,352.05C529.4,357.04 528.45,362.87 530.92,353.83C533.19,368.47 539.08,381.88 536.06,395.98C537.04,420.37 528.52,444.98 521.46,468.17C517.35,456.47 502.21,454.15 491.82,451.33C481.6,448.07 474.41,451.38 465.1,454.93C464.65,449.5 466.51,444.28 468.01,439.15C470.84,435.63 474.27,432.61 476.92,428.96C475.18,429.79 473.54,430.79 471.85,431.72C474.47,425.18 483.33,421.47 489.02,418.09C483.84,418.22 480.58,421.17 476.03,422.99C477.18,418.17 493.17,416.74 486.65,414.25C492.69,410.95 499.12,410.2 505.68,408.66C506.83,405.95 503.58,407.29 502.05,407.08C494.78,408.47 488.58,411.73 482.07,415.01C490.73,403.38 510.5,400.13 524.06,399.7C513.83,395.49 498.25,401.98 488.79,406.79C484.64,408.3 478.99,415.05 474.87,411.52C472.19,412.23 463.66,417.43 465.8,410.94C467.29,407.03 460.6,406.35 458.04,406.02C452.96,404.82 459.34,418.54 453.37,416.49C442.16,419.03 439.82,406.6 431.08,402.93C435.46,408.37 440.86,414.31 445.22,419.55C434.83,415.16 450.08,429.7 450.21,429.72C446.15,428.53 443.11,425.3 439.03,424C443.58,429.69 450.28,430.09 452.77,438.07C450.49,437.12 448.31,435.96 446.01,435.06C450.75,438.73 450.14,440.64 451.88,445.87C450.25,444.6 448.64,443.31 446.93,442.15C447.7,444.62 451.24,446.47 447.94,448.42C437.64,440.61 424.29,432.34 410.92,432.82C406.72,429.54 411.38,427.04 413.57,425.22C410,422.23 421.09,419.51 414.41,420.46C409.88,422.06 411.86,414.71 416.01,416.03C422.78,415.35 415.36,414.82 413.3,414.82C414.76,409.91 415.99,405.1 417.06,400.09C417.97,395.79 423.78,399.96 425.87,397.55C423.42,396.36 413.85,393.6 422.66,392.78C416.68,389.17 423.48,380.29 422.84,374.63C425.15,373.5 441.65,382.18 434.55,374.69C432.84,370.9 423.89,375.63 426.77,368.84C433.41,353.32 432.85,338.32 435,322C438.11,308.69 431.27,297.03 435.62,283.81C436.15,285.81 435.41,288.36 437.22,285.15C441.59,280.36 436.13,292.82 439.66,290.73C439.85,284.82 442.07,279.48 442.69,273.71C442.43,269.52 435.75,271.71 433.14,271.66C432.75,268.99 433.12,266.43 433.52,263.8Z" style="fill:rgb(188,186,196);fill-rule:nonzero;"/>
                <path d="M438.43,273.76C438.28,276.15 438,278.51 438.08,280.91C441.19,281.07 439.6,275.14 442.69,273.71C442.07,279.48 439.85,284.82 439.66,290.73C436.13,292.82 441.59,280.36 437.22,285.15C435.41,288.36 436.15,285.81 435.62,283.81C436.28,280.94 435.92,275.64 438.43,273.76Z" style="fill:rgb(107,110,124);fill-rule:nonzero;"/>
                <path d="M450.8,275.21C452.84,280.22 443.55,274.1 446.63,281.17C455.93,282.17 441.81,282.95 445.08,288.88C446.79,288.45 448.43,287.85 450.12,287.37C450.19,292.72 444.8,290.71 441.31,290.93C445.4,285.71 441.62,271.81 450.8,275.21Z" style="fill:rgb(62,66,84);fill-rule:nonzero;"/>
                <path d="M453.5,275.21C456.26,275.68 463.42,275.21 461.89,279.81C458.24,284.42 458.91,285.73 462.7,289.98C464.19,285.45 464.4,280.83 464.45,276.11C470.16,274.88 468.69,280.38 470.35,283.93C473.75,281.74 474.18,275.33 478.74,276.02C478.14,281.49 476.42,286.37 477.45,291.96C470.34,293.52 475.02,287.87 474.52,283.75C472.06,285.72 471.05,288.27 469.31,290.81C468.35,288.49 467.53,286.15 466.29,283.95C465.89,286.55 465.79,289.17 465.53,291.79C459.16,293.38 458.18,289.32 455.13,285.1C454.07,288.55 456.46,291.84 451.09,290.89C451.3,285.57 453.52,280.65 453.5,275.21Z" style="fill:rgb(61,67,92);fill-rule:nonzero;"/>
                <path d="M485.81,276.14C484.1,280.29 487.06,291.92 482.1,292.89C480.41,289.69 482.76,284.44 482.61,280.81C483.08,277.11 480.37,275.41 485.81,276.14Z" style="fill:rgb(62,64,87);fill-rule:nonzero;"/>
                <path d="M496.99,278.98C493.3,279.36 495.65,289.54 494.56,292.78C486.03,295.96 494.37,283.59 491.8,279.33C490.08,278.51 485.62,279.99 487.98,276.98C489.19,275.03 507.24,275.38 496.99,278.98Z" style="fill:rgb(57,62,87);fill-rule:nonzero;"/>
                <path d="M510.1,280.62C508.05,279.85 506.39,278.76 504.09,279.1C503.19,283.76 510.09,283.86 510.04,289.04C511.31,295.77 498.27,295.94 499.95,289.19C502.05,290.19 504.8,293.84 506.77,290.68C508.68,286.51 498.46,285.13 500.77,279.85C501.64,274.55 511.34,273.97 510.1,280.62Z" style="fill:rgb(60,66,89);fill-rule:nonzero;"/>
                <path d="M535.13,290.81C538.8,294.52 540.45,298.73 545.94,300.12C536.94,317.67 534.02,334.63 530.92,353.83C528.45,362.87 529.4,357.04 528.74,352.05C523.27,354.61 517.77,351.95 514.51,353.7C515.24,364.42 505.87,357.93 502.89,353.02C506.69,350.94 511.59,350.23 515.65,348.52C515.57,345.16 516.46,342.29 516.95,339.04C512.06,340.86 505.78,343.62 500.69,343.97C500.68,340.6 500.07,341.02 497.09,340.26C495.08,342.64 496.6,344.58 499.2,342.44C499.59,344.79 495.86,348.7 493.87,346.22C490.52,342.69 484.14,345.94 480.09,345.93C478.76,340.71 486.81,343.97 486.89,340.24C482.05,339.26 479.63,342.05 479.87,335.43C475.68,338.16 470.43,339.63 465.87,341.84C462.11,342.29 463.8,337.48 464.27,335.45C461.98,332.95 459.3,331.49 459.5,327.67C460.55,323.3 447.08,324.2 451.3,327.72C446.08,329.7 452.04,333.76 444.74,333.32C440.82,322.05 437.3,309.05 435.26,296.31C443.98,293.08 454.48,295.94 463,298.12C471.6,295.18 481.41,297.42 490.64,297.38C496,298.16 502.62,303.16 507.86,300.88C516.8,297.94 527.78,304.08 536.67,303.76C539.32,298.56 537.16,295.54 535.13,290.81Z" style="fill:rgb(182,168,177);fill-rule:nonzero;"/>
                <path d="M524.06,399.7C510.5,400.13 490.73,403.38 482.07,415.01C488.58,411.73 494.78,408.47 502.05,407.08C503.58,407.29 506.83,405.95 505.68,408.66C499.12,410.2 492.69,410.95 486.65,414.25C493.17,416.74 477.18,418.17 476.03,422.99C480.58,421.17 483.84,418.22 489.02,418.09C483.33,421.47 474.47,425.18 471.85,431.72C473.54,430.79 475.18,429.79 476.92,428.96C474.27,432.61 470.84,435.63 468.01,439.15C467.85,434.18 471.66,430.98 471.87,426C469.06,428.64 467.09,432.54 463.88,434.64C461.26,433.53 458.86,432 456.17,431.03C458.06,435.43 455.92,437.99 458.99,442.49C452.73,441.47 459.57,444.31 460.67,446.34C461.37,449.79 461.1,453.51 460.78,456.99C456.13,455.01 451.8,451.65 447.94,448.42C451.24,446.47 447.7,444.62 446.93,442.15C448.64,443.31 450.25,444.6 451.88,445.87C450.14,440.64 450.75,438.73 446.01,435.06C448.31,435.96 450.49,437.12 452.77,438.07C450.28,430.09 443.58,429.69 439.03,424C443.11,425.3 446.15,428.53 450.21,429.72C450.08,429.7 434.83,415.16 445.22,419.55C440.86,414.31 435.46,408.37 431.08,402.93C439.82,406.6 442.16,419.03 453.37,416.49C459.34,418.54 452.96,404.82 458.04,406.02C460.6,406.35 467.29,407.03 465.8,410.94C463.66,417.43 472.19,412.23 474.87,411.52C478.99,415.05 484.64,408.3 488.79,406.79C498.25,401.98 513.83,395.49 524.06,399.7Z" style="fill:rgb(148,131,141);fill-rule:nonzero;"/>
                <path d="M518.35,420.5C516.06,423.12 514.07,425.89 512.23,428.85C516.29,428.42 516.8,427.61 518.7,431.66C513.19,433.29 503.04,437.86 498.73,432.27C492.26,429.22 496.43,420.22 489.37,424.41C485.98,430.1 494.01,437.04 496.85,441.31C490.6,438.89 480.25,421.73 492.97,421.92C495.48,421.44 491.26,415.33 495.12,415.22C501.64,413.67 514.55,414.03 518.35,420.5Z" style="fill:rgb(73,80,111);fill-rule:nonzero;"/>
                <path d="M507.23,416.16C510.54,416.54 516.61,418.96 509.03,419.39C510.97,420.35 513.02,421.18 514.91,422.24C513.92,425.34 510.35,422.4 508.31,422.12C508.11,425.01 511.11,430.14 506,429.01C501.64,429.02 502.78,424.67 504.41,422.22C502.86,421.54 498.66,421.77 499.1,419.36C502.8,418.94 504.6,419.01 507.23,416.16Z" style="fill:rgb(175,181,205);fill-rule:nonzero;"/>
                <path d="M471.87,426C471.66,430.98 467.85,434.18 468.01,439.15C466.51,444.28 464.65,449.5 465.1,454.93C474.41,451.38 481.6,448.07 491.82,451.33C502.21,454.15 517.35,456.47 521.46,468.17C521.19,469.14 520.91,470.11 520.62,471.07C513.97,459.42 496.68,453.99 484,453.91C476.93,453.71 462.11,456.11 463.05,465.94C473.88,461.36 483.27,457.55 495.13,461.88C503.97,464.75 515.79,468.31 517.31,479.08C516.43,481.4 515.59,483.74 514.69,486.05C513,478.01 507.24,474.94 500.41,471.71C489.03,466.49 477.71,464.71 466.58,471.72C462.29,471.89 463.95,481.6 461.55,478.83C462.94,469.17 459.56,477 458.86,480.79C455.16,489.91 454.33,478.49 452.73,475.18C451.93,472.7 449.25,470.78 447.38,469.06C445.07,467.02 442.67,465.07 440.2,463.22C431.43,456.18 412.09,443.03 401.64,452.28C402.64,449.44 403.96,446.73 404.96,443.89C413.35,438.25 427.29,445.39 434.79,450.21C442.99,454.45 449.49,462.52 457.77,465.94C457.73,462.77 458.33,459.71 455.54,457.47C440.78,445.67 426.98,433.02 406.59,435.15C407.9,434.12 409.37,433.42 410.92,432.82C424.29,432.34 437.64,440.61 447.94,448.42C451.8,451.65 456.13,455.01 460.78,456.99C461.1,453.51 461.37,449.79 460.67,446.34C459.57,444.31 452.73,441.47 458.99,442.49C455.92,437.99 458.06,435.43 456.17,431.03C458.86,432 461.26,433.53 463.88,434.64C467.09,432.54 469.06,428.64 471.87,426Z" style="fill:rgb(63,63,84);fill-rule:nonzero;"/>
                <path d="M520.66,436.66C517.03,442.71 502.08,445.39 496.85,441.31C503.09,442.6 510.36,442.08 516.03,439.03C519.01,438.33 522.18,428.71 520.66,436.66Z" style="fill:rgb(99,98,110);fill-rule:nonzero;"/>
                <path d="M406.59,435.15C426.98,433.02 440.78,445.67 455.54,457.47C458.33,459.71 457.73,462.77 457.77,465.94C449.49,462.52 442.99,454.45 434.79,450.21C427.29,445.39 413.35,438.25 404.96,443.89C405.34,441.45 404,436.47 406.59,435.15Z" style="fill:rgb(166,171,185);fill-rule:nonzero;"/>
                <path d="M440.2,463.22C437.53,463.45 427.02,470.18 435.1,469.62C433.67,473.3 431.98,476.52 431.81,480.58C427.97,477.87 431.13,481.21 431.56,483.12C428.73,487.36 427.81,493.82 423.64,496.65C422.62,497.05 425.31,499.72 425.47,500.46C428.05,508.65 412.77,495.84 419.29,504.9C417.77,510.28 428.89,512.4 421.38,514.23C415.4,514.7 421.35,518.77 417.26,521.17C414.59,522.07 411.4,523.58 408.53,523.15C410.44,520.07 408.32,520.88 406.29,519.15C407.81,515.98 409.96,511.28 404.13,512.71C403.76,510.2 406.84,502.47 402.01,507.99C398.59,513.35 395.94,505.82 391.84,506.7C394.08,488.3 398.41,470.43 401.64,452.28C412.09,443.03 431.43,456.18 440.2,463.22Z" style="fill:rgb(192,159,141);fill-rule:nonzero;"/>
                <path d="M484,453.91C496.68,453.99 513.97,459.42 520.62,471.07C519.76,473.8 518.39,476.42 517.31,479.08C515.79,468.31 503.97,464.75 495.13,461.88C483.27,457.55 473.88,461.36 463.05,465.94C462.11,456.11 476.93,453.71 484,453.91Z" style="fill:rgb(177,177,191);fill-rule:nonzero;"/>
                <path d="M440.2,463.22C442.67,465.07 445.07,467.02 447.38,469.06C439.23,471.79 441.75,478.67 436.44,483.42C436.37,488.98 435.23,491.76 432.66,496.55C432.29,507.53 432.74,516.91 428.6,527.43C415.01,529.89 418.93,558.06 402.01,552.14C402.46,555.8 404.5,558.9 405.1,562.57C401.61,562.61 396.49,559.59 393.43,561.28C392.89,563.63 394.38,570.54 390.03,566.37C389.89,568.32 389.79,570.27 389.73,572.23C384.96,551.23 390.48,528.06 391.84,506.7C395.94,505.82 398.59,513.35 402.01,507.99C406.84,502.47 403.76,510.2 404.13,512.71C409.96,511.28 407.81,515.98 406.29,519.15C408.32,520.88 410.44,520.07 408.53,523.15C411.4,523.58 414.59,522.07 417.26,521.17C421.35,518.77 415.4,514.7 421.38,514.23C428.89,512.4 417.77,510.28 419.29,504.9C412.77,495.84 428.05,508.65 425.47,500.46C425.31,499.72 422.62,497.05 423.64,496.65C427.81,493.82 428.73,487.36 431.56,483.12C431.13,481.21 427.97,477.87 431.81,480.58C431.98,476.52 433.67,473.3 435.1,469.62C427.02,470.18 437.53,463.45 440.2,463.22Z" style="fill:rgb(180,139,120);fill-rule:nonzero;"/>
                <path d="M500.41,471.71C500.32,474.43 501.37,476.46 498.32,477.79C502.66,477.96 498.98,479.26 498.02,481.15C502.9,482.13 500.44,485.89 496.5,483.3C495.18,487.67 492.73,493.34 490,485.87C487.45,489.69 483.97,496.35 479.81,498.2C484.8,499.02 486.89,499.15 480.36,500.9C484.78,508.23 476.31,501.23 473.34,503.18C472.63,508.14 473.46,511.5 467.06,510.41C473.09,516.12 463.88,520.25 461.25,516.75C456.81,513.4 467.51,515 464.22,510.8C458.11,509.23 461.89,499.78 462.03,495.1C462.52,485.65 469.88,487.07 468.07,477.62C465.9,475.94 466.6,474.13 466.58,471.72C477.71,464.71 489.03,466.49 500.41,471.71Z" style="fill:rgb(189,151,134);fill-rule:nonzero;"/>
                <path d="M447.38,469.06C449.25,470.78 451.93,472.7 452.73,475.18C454.33,478.49 455.16,489.91 458.86,480.79C454.55,496.7 444.27,510.48 439.37,526.37C435.54,538.32 425.66,555.39 430.31,567.68C439.05,582.13 433.26,597.97 439.56,611.95C443.89,598.58 449.34,587.79 446.66,573.18C443.95,558.48 447.84,545.99 450.2,531.76C452.08,535.75 451.68,546.45 450.94,550.7C445.35,552.96 451.38,556.2 450.01,560.18C447.91,564.08 450.94,566.97 453.96,569.06C459.59,566.26 456.61,561.13 462.86,561.43C465.57,563.18 465.46,567.89 467.02,570.61C470.31,569.65 471.53,569.62 474.75,570.66C476.56,565.1 477.83,557.99 474.17,552.92C477.22,545.23 475.21,536.4 469.86,530.28C467.84,530.79 465.83,531.83 463.9,532.64C465.77,526.55 471.11,524.86 473.7,519.67C475.03,516.87 479.9,514.05 479.16,519.58C484.46,513.47 485.34,525.91 490.68,521.16C492.65,527.36 490.65,532.25 490.58,538.37C491.45,544 484.21,539.91 489.91,545.22C488.27,552.17 478.11,551.08 483.11,560.26C476.36,565.98 480.93,570.47 474.29,577.25C474.89,581.15 472.11,589.77 467.49,585.53C464.77,581.83 458.33,581.89 454.13,580.49C448.37,588.34 449.13,597.5 452.55,606.25C452.36,608.63 451.22,606.81 449.86,606.53C448.69,609.36 452.91,611.78 449.19,613.21C444.89,614.68 446.99,618.91 442.98,621.18C439.44,619.95 443.71,615.02 439.74,616.25C438.79,619 435.62,624.21 441.21,622.29C446.83,620.27 444.36,629.3 441.23,629.31C434.16,628.49 439.53,640.06 434.12,642.05C435.3,631.87 435.95,622.04 438.08,612.06C436.35,614.71 434.58,617.24 432.26,619.42C426.78,621.23 434.06,611.69 433.48,608.65C427.33,602.59 436.77,592.95 430.82,585.21C425.36,581.12 427.42,574.48 422.71,569.43C423.01,565.23 425.25,558.44 423.75,554.26C409.85,555.88 412.28,566.61 401.64,571.43C403.71,575.82 401.2,573.2 398.39,573.16C398.1,577.8 406.41,580.94 400.91,583.01C395.09,582.67 399.5,577.84 394.92,576.07C394.13,578.14 393.65,578.4 391.68,579.28C390.92,576.96 390.25,574.61 389.73,572.23C389.79,570.27 389.89,568.32 390.03,566.37C394.38,570.54 392.89,563.63 393.43,561.28C396.49,559.59 401.61,562.61 405.1,562.57C404.5,558.9 402.46,555.8 402.01,552.14C418.93,558.06 415.01,529.89 428.6,527.43C432.74,516.91 432.29,507.53 432.66,496.55C435.23,491.76 436.37,488.98 436.44,483.42C441.75,478.67 439.23,471.79 447.38,469.06Z" style="fill:rgb(155,108,87);fill-rule:nonzero;"/>
                <path d="M466.58,471.72C466.6,474.13 465.9,475.94 468.07,477.62C469.88,487.07 462.52,485.65 462.03,495.1C461.89,499.78 458.11,509.23 464.22,510.8C467.51,515 456.81,513.4 461.25,516.75C463.88,520.25 473.09,516.12 467.06,510.41C473.46,511.5 472.63,508.14 473.34,503.18C476.31,501.23 484.78,508.23 480.36,500.9C486.89,499.15 484.8,499.02 479.81,498.2C483.97,496.35 487.45,489.69 490,485.87C492.73,493.34 495.18,487.67 496.5,483.3C500.44,485.89 502.9,482.13 498.02,481.15C498.98,479.26 502.66,477.96 498.32,477.79C501.37,476.46 500.32,474.43 500.41,471.71C507.24,474.94 513,478.01 514.69,486.05C502.88,516.38 489.12,542.67 487,576C486.45,592 485.11,606.46 480.75,621.96C473.47,638.61 467.75,656.3 459.19,672.44C451.63,668.95 443.64,667.32 435.6,665.36C428.74,664.94 434.65,656.45 432.83,652.08C429.46,652.24 426.47,653.23 423.05,652.88C422.37,646.54 430.24,645.8 434.12,642.05C439.53,640.06 434.16,628.49 441.23,629.31C444.36,629.3 446.83,620.27 441.21,622.29C435.62,624.21 438.79,619 439.74,616.25C443.71,615.02 439.44,619.95 442.98,621.18C446.99,618.91 444.89,614.68 449.19,613.21C452.91,611.78 448.69,609.36 449.86,606.53C451.22,606.81 452.36,608.63 452.55,606.25C449.13,597.5 448.37,588.34 454.13,580.49C458.33,581.89 464.77,581.83 467.49,585.53C472.11,589.77 474.89,581.15 474.29,577.25C480.93,570.47 476.36,565.98 483.11,560.26C478.11,551.08 488.27,552.17 489.91,545.22C484.21,539.91 491.45,544 490.58,538.37C490.65,532.25 492.65,527.36 490.68,521.16C485.34,525.91 484.46,513.47 479.16,519.58C479.9,514.05 475.03,516.87 473.7,519.67C471.11,524.86 465.77,526.55 463.9,532.64C465.83,531.83 467.84,530.79 469.86,530.28C475.21,536.4 477.22,545.23 474.17,552.92C477.83,557.99 476.56,565.1 474.75,570.66C471.53,569.62 470.31,569.65 467.02,570.61C465.46,567.89 465.57,563.18 462.86,561.43C456.61,561.13 459.59,566.26 453.96,569.06C450.94,566.97 447.91,564.08 450.01,560.18C451.38,556.2 445.35,552.96 450.94,550.7C451.68,546.45 452.08,535.75 450.2,531.76C451.2,512.63 462.72,498.21 461.55,478.83C463.95,481.6 462.29,471.89 466.58,471.72Z" style="fill:rgb(173,129,109);fill-rule:nonzero;"/>
                <path d="M423.75,554.26C425.25,558.44 423.01,565.23 422.71,569.43C427.42,574.48 425.36,581.12 430.82,585.21C436.77,592.95 427.33,602.59 433.48,608.65C434.06,611.69 426.78,621.23 432.26,619.42C426.83,627.12 417.03,622.9 412.76,626.04C406.17,610.23 396.3,596.15 391.68,579.28C393.65,578.4 394.13,578.14 394.92,576.07C399.5,577.84 395.09,582.67 400.91,583.01C406.41,580.94 398.1,577.8 398.39,573.16C401.2,573.2 403.71,575.82 401.64,571.43C412.28,566.61 409.85,555.88 423.75,554.26Z" style="fill:rgb(145,79,57);fill-rule:nonzero;"/>
                <path d="M438.08,612.06C435.95,622.04 435.3,631.87 434.12,642.05C430.24,645.8 422.37,646.54 423.05,652.88C426.47,653.23 429.46,652.24 432.83,652.08C434.65,656.45 428.74,664.94 435.6,665.36C443.64,667.32 451.63,668.95 459.19,672.44C456.4,680.88 453.14,689.04 449.8,697.25C442.09,695.09 434.7,689.34 425.32,690.28C422.18,691.93 420.14,696.62 418.99,699.86C422.03,697.16 437.12,699.17 434.73,703.41C437.54,703.63 447.88,707 448.36,711.86C447.58,714.66 446.32,717.22 445.06,719.82C441.83,722.23 440.25,718.97 437.83,717.23C438.6,720.87 439.78,723.11 438.37,726.76C441.56,729.58 445.06,731.42 447.37,735.23C446.16,738.37 446.7,743.04 442.42,743.43C434.3,744.56 426.17,745.41 417.96,744.99C413.86,745.52 414.72,740.65 410.42,739.5C403.22,734.81 406.6,730.25 409.67,724.31C395.14,721.53 399.9,697.83 402.93,688.02C413,682.12 417.41,665.67 417.49,654.83L417.25,653.19C422.18,648.55 420.78,646.63 417.2,641.86C414.63,636.84 414.83,631.28 412.76,626.04C417.03,622.9 426.83,627.12 432.26,619.42C434.58,617.24 436.35,614.71 438.08,612.06Z" style="fill:rgb(40,37,36);fill-rule:nonzero;"/>
                <path d="M417.2,641.86C420.78,646.63 422.18,648.55 417.25,653.19C416.23,649.29 416.6,645.78 417.2,641.86Z" style="fill:rgb(164,154,145);fill-rule:nonzero;"/>
                <path d="M417.49,654.83C417.41,665.67 413,682.12 402.93,688.02C408.54,677.24 414.66,667.15 417.49,654.83Z" style="fill:rgb(155,148,133);fill-rule:nonzero;"/>
                <path d="M434.98,671.04C439.12,671.25 442.82,673.44 444.97,676.99C441.16,675.96 437.57,674.05 434.98,671.04Z" style="fill:rgb(159,157,155);fill-rule:nonzero;"/>
                <path d="M425.32,690.28C434.7,689.34 442.09,695.09 449.8,697.25C448.66,702.24 448.95,707.09 449.04,712.16L448.36,711.86C447.88,707 437.54,703.63 434.73,703.41C437.12,699.17 422.03,697.16 418.99,699.86C420.14,696.62 422.18,691.93 425.32,690.28Z" style="fill:rgb(191,186,182);fill-rule:nonzero;"/>
                <path d="M429.16,706.06C432.33,707.31 430.28,709.97 430,712.34C429.56,716.16 428.64,721.21 426.04,724.17C420.36,721.43 428.07,710.33 429.16,706.06Z" style="fill:rgb(118,127,128);fill-rule:nonzero;"/>
                <path d="M437.83,717.23C440.25,718.97 441.83,722.23 445.06,719.82C448.03,724.87 448.93,729.48 447.37,735.23C445.06,731.42 441.56,729.58 438.37,726.76C439.78,723.11 438.6,720.87 437.83,717.23Z" style="fill:rgb(151,144,123);fill-rule:nonzero;"/>
            </g>
        </g>
    </g>
</svg>
