<?xml version="1.0" encoding="UTF-8" standalone="no"?>
<!DOCTYPE svg PUBLIC "-//W3C//DTD SVG 1.1//EN" "http://www.w3.org/Graphics/SVG/1.1/DTD/svg11.dtd">
<svg width="100%" height="100%" viewBox="0 0 1729 1728" version="1.1" xmlns="http://www.w3.org/2000/svg" xmlns:xlink="http://www.w3.org/1999/xlink" xml:space="preserve" xmlns:serif="http://www.serif.com/" style="fill-rule:evenodd;clip-rule:evenodd;stroke-linejoin:round;stroke-miterlimit:2;">
    <g transform="matrix(1,0,0,1,-11039,-4162)">
        <g id="_21" serif:id="21" transform="matrix(1,0,0,1,11039.834324,4162)">
            <rect x="0" y="0" width="1728" height="1728" style="fill:none;"/>
            <g transform="matrix(1.806755,-3.129392,3.129392,1.806755,-792.212269,1697.959619)">
                <g>
                    <path d="M449.97,156.19C455.59,155.18 460.75,156.82 465.75,159.25C471.47,162.08 477.06,165.19 482.59,168.38C487.43,171.16 491.82,174.57 496.58,177.45C501.29,180.39 507.58,181.12 513,181.61C517.62,181.96 522.44,182.56 527.07,182.07C528.63,181.92 530.04,180.55 531.36,179.77C532.18,180.81 533,181.86 533.82,182.91C529.92,187.93 524.81,191.23 519.4,194.4C511.78,198.71 502.83,202.89 494,203.48C487.75,204.03 483.98,200.16 478.03,199.35C474.07,198.7 470.02,200.33 466.16,199.76C463.38,199.1 462.02,196.91 460.4,194.79C460.6,202.25 460.84,209.63 461.98,217.02C462.07,219.32 463.07,222.77 461.25,224.53C459.9,223.73 458.64,222.79 457.4,221.84C464.77,236.21 465.69,251.95 470.79,268.11C474.18,269.24 477.98,270.16 481.04,272.04C484.05,273.97 485.79,277.49 487.42,280.56C489.2,284.09 491.18,287.56 492.68,291.21C494.39,295.45 494.44,299.58 494.8,304.06C507.88,309.71 521.9,313.26 534.94,318.99C536.9,319.98 539.8,321.28 540.72,323.4C541.68,327.63 539.86,331.9 537.14,335.1C532.98,340.02 526.67,343.37 520.78,345.76C509.03,350.46 496.04,352.71 483.45,353.49C481.55,358.87 480.32,364.92 475.95,368.93C471.29,373.16 464.92,375.81 459.17,378.22C454.67,380.16 449.8,380.5 445.21,382.02C438.97,386.66 433.61,392.83 426.86,396.93C422.97,399.21 418.66,400.39 415.06,403.07C412.42,405.02 410.4,407.2 407.22,408.35C400.81,410.66 393.79,411.54 387,411.7C379.74,411.78 371.47,410.75 365.23,406.74C360.89,404.01 359.17,399.99 355.46,396.53C350.37,391.66 346.16,386.06 343.53,379.48C341.16,373.22 340.33,366.57 339.48,360C339.28,356.99 337.06,354.96 335.5,352.49C331.16,346.39 329.68,338.87 328.18,331.68C317.75,327.8 309.15,321.81 299.24,316.77C291,312.82 282.96,306.93 277.65,299.44C274.83,292.88 279.16,283.5 285.43,280.38C298.43,273.39 313.52,269.12 327.78,265.52C330.94,264.67 334.16,264.15 337.41,263.77C340.3,258.2 345.13,255.46 350.07,252.03C351.94,250.86 352.31,249.07 353.11,247.17C355.25,241.4 358.1,234.93 362.61,230.61C364.72,228.51 367.48,227.53 369.79,225.77C372.3,222.92 374.11,219.39 376.23,216.24C384.6,202.92 394.14,190.41 405.33,179.33C411.83,172.29 420.25,169.04 428.57,164.57C435.29,161.34 442.57,157.43 449.97,156.19Z" style="fill:rgb(0,28,61);fill-rule:nonzero;"/>
                    <clipPath id="_clip1">
                        <path d="M449.97,156.19C455.59,155.18 460.75,156.82 465.75,159.25C471.47,162.08 477.06,165.19 482.59,168.38C487.43,171.16 491.82,174.57 496.58,177.45C501.29,180.39 507.58,181.12 513,181.61C517.62,181.96 522.44,182.56 527.07,182.07C528.63,181.92 530.04,180.55 531.36,179.77C532.18,180.81 533,181.86 533.82,182.91C529.92,187.93 524.81,191.23 519.4,194.4C511.78,198.71 502.83,202.89 494,203.48C487.75,204.03 483.98,200.16 478.03,199.35C474.07,198.7 470.02,200.33 466.16,199.76C463.38,199.1 462.02,196.91 460.4,194.79C460.6,202.25 460.84,209.63 461.98,217.02C462.07,219.32 463.07,222.77 461.25,224.53C459.9,223.73 458.64,222.79 457.4,221.84C464.77,236.21 465.69,251.95 470.79,268.11C474.18,269.24 477.98,270.16 481.04,272.04C484.05,273.97 485.79,277.49 487.42,280.56C489.2,284.09 491.18,287.56 492.68,291.21C494.39,295.45 494.44,299.58 494.8,304.06C507.88,309.71 521.9,313.26 534.94,318.99C536.9,319.98 539.8,321.28 540.72,323.4C541.68,327.63 539.86,331.9 537.14,335.1C532.98,340.02 526.67,343.37 520.78,345.76C509.03,350.46 496.04,352.71 483.45,353.49C481.55,358.87 480.32,364.92 475.95,368.93C471.29,373.16 464.92,375.81 459.17,378.22C454.67,380.16 449.8,380.5 445.21,382.02C438.97,386.66 433.61,392.83 426.86,396.93C422.97,399.21 418.66,400.39 415.06,403.07C412.42,405.02 410.4,407.2 407.22,408.35C400.81,410.66 393.79,411.54 387,411.7C379.74,411.78 371.47,410.75 365.23,406.74C360.89,404.01 359.17,399.99 355.46,396.53C350.37,391.66 346.16,386.06 343.53,379.48C341.16,373.22 340.33,366.57 339.48,360C339.28,356.99 337.06,354.96 335.5,352.49C331.16,346.39 329.68,338.87 328.18,331.68C317.75,327.8 309.15,321.81 299.24,316.77C291,312.82 282.96,306.93 277.65,299.44C274.83,292.88 279.16,283.5 285.43,280.38C298.43,273.39 313.52,269.12 327.78,265.52C330.94,264.67 334.16,264.15 337.41,263.77C340.3,258.2 345.13,255.46 350.07,252.03C351.94,250.86 352.31,249.07 353.11,247.17C355.25,241.4 358.1,234.93 362.61,230.61C364.72,228.51 367.48,227.53 369.79,225.77C372.3,222.92 374.11,219.39 376.23,216.24C384.6,202.92 394.14,190.41 405.33,179.33C411.83,172.29 420.25,169.04 428.57,164.57C435.29,161.34 442.57,157.43 449.97,156.19Z" clip-rule="nonzero"/>
                    </clipPath>
                    <g clip-path="url(#_clip1)">
                        <path d="M449.03,162.94C454.91,161.7 460.69,163.99 464.79,168.21C471,174.48 478.67,178.53 486.4,182.63C491.78,185.36 496.79,188.06 502.98,188.19C509.38,188.31 515.79,187.23 522.2,187.15C515.55,192.52 506.35,194.24 498.04,192.98C490.49,191.49 483.43,188.7 476.22,186.61C472.38,185.47 468.24,184.94 464.53,183.43C461.26,181.99 458.96,179.31 456.51,176.8C454.76,181.8 453.08,186.66 452.52,191.97C452.14,195.87 451.82,199.72 450.57,203.46C445.07,199.44 440.5,194.52 434.39,191.28C436.04,197.51 438.4,203.42 439.56,209.78C440.99,216.26 441.09,222.85 442.79,229.27C444.24,234.91 443.9,240.36 443.46,246.09C436.55,242.28 430.82,236.75 423.91,233.01C417.92,230.25 411.27,228.76 404.94,226.97C397.56,224.69 390.2,226.79 382.24,226.05C384.15,219.45 388.36,214.67 391.9,208.95C396.56,201.97 400.91,194.66 406.13,188.08C411.24,181.66 418.57,177.75 425.43,173.43C432.68,169.19 440.73,164.56 449.03,162.94Z" style="fill:white;fill-rule:nonzero;"/>
                        <path d="M385.82,230.84C384.37,233.47 382.91,236.09 381.45,238.72C375.09,239.16 368.91,240.43 362.71,241.85C363.88,240.39 364.99,238.66 366.45,237.46C372.24,233.47 378.83,231.43 385.82,230.84Z" style="fill:white;fill-rule:nonzero;"/>
                        <path d="M394.03,231.14C400.31,231.35 406.51,232.59 412.27,235.15C405.24,243.47 400.4,253.05 395.88,262.9C394.78,265.22 393.48,267.43 392.16,269.64C385.68,268.73 379.39,267.62 373.3,265.12C374.33,260.91 376.23,257.18 378.54,253.54C382.53,247.18 386.34,240.7 390.39,234.38C391.24,233.34 392.52,231.01 394.03,231.14Z" style="fill:white;fill-rule:nonzero;"/>
                        <path d="M421.1,239.86C432.28,246.47 442.9,253.62 451.85,263.14C457.91,269.54 462.14,277.92 465.43,286.02C464.52,288.56 462.81,289.81 460.12,289.98C454.56,285.3 451.2,277.03 446.29,271.71C441.6,266.5 436.56,261.27 430.95,257.06C425.23,252.97 419.3,249.22 413,246.08C413.83,243.69 414.42,240.9 415.87,238.81C417.63,237.67 419.51,239.07 421.1,239.86Z" style="fill:white;fill-rule:nonzero;"/>
                        <path d="M377.98,244.24C376.76,246.7 375.45,249.1 374.07,251.47C370.54,251.47 367,251.44 363.47,251.28C367.86,246.91 371.86,245.16 377.98,244.24Z" style="fill:white;fill-rule:nonzero;"/>
                        <path d="M410.96,251.98C415.2,252.37 419.41,254.83 422.98,257.03C429.8,261.5 436.49,267.03 441.18,273.76C439.85,275.58 438.47,277.33 436.97,279.01C428.22,270.79 417.33,264.6 406.53,259.5C407.93,257.01 409.09,254.15 410.96,251.98Z" style="fill:white;fill-rule:nonzero;"/>
                        <path d="M371.02,256.87C370.08,259.37 369.13,261.87 368.16,264.36C360.76,264.12 353.44,265.15 346.06,265.14C347.58,263.28 349.25,261.61 351.19,260.18C356.03,255.8 364.88,257.54 371.02,256.87Z" style="fill:white;fill-rule:nonzero;"/>
                        <path d="M401.84,265.2C408.05,267.05 413.95,271.13 419.38,274.62C426.48,279.32 433.27,284.69 439.36,290.64C442.56,294.01 446.43,298.3 447.32,302.98C447.66,304.87 447.29,305.96 446.04,307.38C442.5,307.85 441.15,303.84 439.37,301.57C434.11,294.17 424.77,288.97 417.76,283.24C411.79,278.18 405.03,275.54 398.07,272.21C399.14,269.76 400.29,267.38 401.84,265.2Z" style="fill:white;fill-rule:nonzero;"/>
                        <path d="M368.27,269.83C373.94,271.69 379.33,271.68 384.45,275.08C372.36,276.25 360.14,276.1 348.01,276.79C344.37,277.03 340.92,277.97 337.42,278.94C349.77,280.36 361.79,283.83 373.14,288.86C388.79,296.08 405.14,301.86 421.23,308C420.88,309.7 420.53,311.4 420.18,313.1C394.96,304.03 368.89,293.07 342.79,287.66C333.8,285.82 324.19,283.7 315,283.78C306.38,283.79 298.43,286.45 289.8,286.94C296.42,282.81 303.81,279.17 311.5,277.68C319.54,275.87 327.79,273.81 336.01,273.17C346.77,272.14 357.97,270.08 368.78,270.64L368.27,269.83Z" style="fill:white;fill-rule:nonzero;"/>
                        <path d="M467.88,276.6C472.35,280.42 477.44,284.42 480.55,289.45C483.26,294.87 484.44,301.2 485.92,307.05C483.87,308.13 481.16,308.85 480.21,311.21C478.85,314.86 478.57,319.15 478.96,323C479.34,326.4 481.96,328.02 484.21,330.22C483.53,333.67 483.03,337.39 481.7,340.65C479.81,340.6 478,340.19 476.1,340.2C473.31,342.27 471.24,345.86 469.91,349.02C468.55,352.73 470.63,355.59 472.14,358.79C468.46,362.44 464.88,365.81 460.21,368.21C457.62,369.53 454.52,369.87 451.67,370.38C454.73,366.31 458.49,362.39 460.82,357.85C462.31,354.66 460.6,351.86 458.05,349.96C455.2,347.96 451.59,345.97 448.06,345.84C444.89,348.45 442.73,352.28 439.99,355.34C435.46,341.88 432.91,328.21 435.39,314.04C431.87,326.55 429.78,339 431.2,352.03C431.61,356.3 433.65,359.93 434.47,364.16C432.78,363.29 431.38,363.39 430.42,361.54C426.89,355.54 424.41,349.01 423.87,342.02C422.75,328.51 426.21,315.29 430.71,302.67C433.16,305.13 435.81,307.26 437.95,310.02C439.94,312.37 441.93,315.4 445.03,316.27C451.16,315.09 455.25,307.98 454.1,302C452.87,294.83 447.73,289.37 442.79,284.42C443.69,282.72 444.63,281.06 445.62,279.41C448.45,283.27 451.29,287.1 453.79,291.18C454.68,292.54 455.6,294.15 456.88,295.17C461.46,295.74 468.4,295.14 471.29,290.96C471,287.1 469.63,283.24 468.65,279.5C468.39,278.54 468.14,277.57 467.88,276.6Z" style="fill:white;fill-rule:nonzero;"/>
                        <path d="M344.49,299.66C343.02,309.01 340.99,319.03 342.01,328.99C343.22,337.28 348.18,343.91 351.97,351.09C353.45,353.71 355.59,356.06 357.4,358.48C349.42,356.09 342.99,350.13 339.33,342.75C334.86,332.05 334.97,321.38 335.14,310C335.23,306.91 335.59,303.04 337.43,300.45C339.18,298.24 342.16,299.41 344.49,299.66Z" style="fill:white;fill-rule:nonzero;"/>
                        <path d="M486.33,313.47C486.92,316.67 485.82,319.39 484.45,322.19C483.85,319.93 482.53,316.72 483.57,314.46C484.29,313.4 485.21,313.57 486.33,313.47Z" style="fill:white;fill-rule:nonzero;"/>
                        <path d="M493.72,313.02C497.53,314.89 500.99,317.39 504.85,319.18C509.52,321.51 514.39,322.6 519.4,323.9C510.62,325.19 501.54,324.83 492.71,324.37C493.07,320.59 493.27,316.79 493.72,313.02Z" style="fill:white;fill-rule:nonzero;"/>
                        <path d="M391.85,326.95C400.48,329.46 408.47,333.2 417.51,334.34C417.68,337.19 417.77,340.05 417.85,342.91C408.27,340.42 398.54,338.53 388.9,336.29C389.87,333.17 390.86,330.06 391.85,326.95Z" style="fill:white;fill-rule:nonzero;"/>
                        <path d="M477.32,345.26C478.09,346.46 478.84,347.65 479.33,348.98C478.52,350.68 477.17,351.76 475.86,353.04C475.26,351.62 474.66,350.2 474.11,348.76C475.08,347.51 476.19,346.37 477.32,345.26Z" style="fill:white;fill-rule:nonzero;"/>
                        <path d="M384.43,347.66C388.78,347.83 392.8,348.89 396.99,349.88C404.51,351.7 412.01,353.4 419.75,353.96C420.61,360.1 425.05,364.57 428.54,369.44C421.95,374.05 415.4,379.21 408.39,383.08C406.21,382.37 404.41,381.32 402.04,381.73C393.16,382.69 385.14,385.05 376.21,382.6C370.88,381.07 365.35,379.04 360.36,376.63C355.52,374.22 355.11,368.87 353.85,364.21C361.19,366.63 368.99,364.51 374.95,359.88C378.76,356.6 381.72,351.85 384.43,347.66Z" style="fill:white;fill-rule:nonzero;"/>
                        <path d="M449.99,351.31C451.42,352.34 453.3,352.96 453.28,355.04C453.24,358.59 449.85,362.1 447.79,364.79C443.3,369.96 440.33,375.74 435.44,380.42C430.17,385.58 424.33,388.97 418.35,393.34C414.82,395.69 410.24,398.63 405.87,398.49C402.83,396.63 403.76,393.83 403.5,390.8C412.53,387.33 420.77,382.27 428.37,376.32C433.4,372.29 438.03,368.09 441.78,362.8C444.54,359.02 446.81,354.66 449.99,351.31Z" style="fill:white;fill-rule:nonzero;"/>
                        <path d="M348.23,369.36C351.16,374.43 353.78,379.26 358.64,382.8C358.32,384.4 358,385.99 357.67,387.59C353.21,383.03 350.69,378.35 349.02,372.21C348.75,371.26 348.49,370.31 348.23,369.36Z" style="fill:white;fill-rule:nonzero;"/>
                        <path d="M366.87,385.07C370.56,386.53 373.94,388.32 377.97,388.75C384.75,390.02 391,388.51 397.78,388.54C397.19,389.85 396.6,391.16 396,392.47C397.07,395.87 397.92,399.28 398.46,402.81C392.47,404.58 386.16,405.01 379.96,404.29C375.38,403.68 370.55,402.15 367.23,398.78C364.17,395.77 362.92,391.16 363.81,387C364.05,385.51 365.4,384.38 366.87,385.07Z" style="fill:white;fill-rule:nonzero;"/>
                        <g transform="matrix(1,0,0,1,-3,-2)">
                            <path d="M463.522,307L465.508,306.988L468.644,316.049L467.609,318.938L463.522,307Z" style="fill:rgb(0,28,61);"/>
                            <path d="M463.514,309.44L465.82,316.027L465.833,331.459L463.562,338.047L463.514,309.44Z" style="fill:rgb(0,28,61);"/>
                            <path d="M463.586,340.026L465.87,340.006L469.239,329.672L468.217,326.531L463.586,340.026Z" style="fill:rgb(0,28,61);"/>
                            <path d="M467.837,327.578L468.228,326.549L469.333,326.531L471.102,331.483L471.132,337.641L468.931,330.681L467.837,327.578Z" style="fill:rgb(0,28,61);"/>
                            <path d="M471.77,340.024L474.073,340.016L473.99,306.959L471.753,306.995L471.77,340.024Z" style="fill:rgb(0,28,61);"/>
                            <path d="M470.849,309.672L470.84,316.141L469.293,320.517L468.19,320.516L467.607,318.939L470.849,309.672Z" style="fill:rgb(0,28,61);"/>
                        </g>
                    </g>
                </g>
            </g>
            <g id="down" transform="matrix(1.312744,0,0,1.312744,227.34553,355.681942)">
                <path d="M565.86,21.27C572.2,25.12 577.66,19.68 584.25,24.67C574.98,23.36 570.03,25.21 562.31,30.27C556.55,33.59 557.18,25.75 551.62,28.95C555.02,33.39 544.6,41.88 553.16,41.64C545.11,42.03 550.28,45.84 555.02,45.02C560.44,43.97 561.79,50.26 563.83,53.94C566.72,64.73 555.59,71.95 546.73,66.06C550.03,65.19 546.47,62.49 546.73,66.06C541.13,69.56 536.1,65.35 534.94,73.96C534.27,80.93 530.4,69.67 528.99,75.99C528.54,81.18 524.62,74.88 522.04,80.15C520.69,85.44 528.39,80.97 530.06,84.85C524.12,84.09 518.79,86.39 513,84.73C520.17,84.93 514.84,73.89 513.71,70.12C510.04,71.7 514.81,82.93 509.32,78.11C509.66,82.95 511.01,84.4 506.4,80.45C502.52,85.99 501.76,92.19 499.37,98.24C498.89,97.17 498.4,96.11 497.89,95.06C495.9,87.12 500.17,81.14 496.78,72.89C498.11,70.56 499.47,68.25 500.9,65.98C508.12,55.86 510.94,45.78 523.2,40.35C528.87,39.25 534.24,36.04 539.3,33.33C542.34,30.67 547.09,33.54 548.99,29.99C550.71,27.55 552.28,26.64 555.08,25.68C560.96,29.03 561.37,23.47 565.86,21.27Z" style="fill:rgb(115,92,71);fill-rule:nonzero;"/>
                <path d="M584.25,24.67C588.14,27.49 590.92,28.16 595.6,28.65C601.16,32.12 605.98,40.47 613.05,42.38C615.86,42.7 615.9,44 617.03,46.3C617.35,47.19 617.67,48.07 617.99,48.96C618.61,57.38 626.36,59.57 631.03,64.93C632.12,68.61 630.59,68.78 634.7,67.38C635.1,70.43 647.07,83.08 637.38,78.22C637.2,85.2 634.01,78.07 630.04,79.05C630.9,85.63 638.35,84.56 637.95,90.99C639.72,101.73 641.65,111.19 641.3,122.25C633.76,140.31 636.75,158.41 631.59,176.97L630.69,177.43C624.98,176.8 632.22,164.66 625.61,169.57C619.05,175.75 612.61,182.34 605.04,173.35C609.24,168.63 608.73,161.37 613.31,157.35C617.36,154.96 616.66,150.62 612.12,150.04C601.94,155.09 604.91,165.26 596.05,171.48C587.01,157.94 591.53,144.91 587.79,130.07C585.17,118.71 584.02,105.65 587.8,94.46C589.26,96.52 590.69,98.6 592.13,100.67C582.57,104.96 588.91,121.62 590.77,129.05C591.75,132.01 591.71,148.85 593.47,137.32C597.95,133.94 605.69,140.59 610.33,133.31C612.94,129.49 621.9,130.45 616.5,136.31C619.49,138.46 624.32,136.01 625.37,131.06C626.48,134.28 627.86,137.06 629.77,139.86C632.46,131.01 626.48,127.59 632.79,118.59C633.48,112.54 632.95,106.09 632.19,100.09C637.08,99.15 635.93,103.01 637.8,106.07C639.87,97.35 633.73,94.31 632.42,86.5C625.27,82.74 621.84,80.07 618.28,72.6C613.7,69.06 612.24,72.55 608.89,75.11C594.45,63.91 579.8,51.57 563.12,43.9C562.88,42.18 561.61,41.53 560.48,43.07L559.85,42.76C557.81,41.5 556.26,40.77 553.88,41.69L553.16,41.64C544.6,41.88 555.02,33.39 551.62,28.95C557.18,25.75 556.55,33.59 562.31,30.27C570.03,25.21 574.98,23.36 584.25,24.67Z" style="fill:rgb(94,76,50);fill-rule:nonzero;"/>
                <path d="M555.08,25.68C552.28,26.64 550.71,27.55 548.99,29.99C547.09,33.54 542.34,30.67 539.3,33.33C534.24,36.04 528.87,39.25 523.2,40.35C510.94,45.78 508.12,55.86 500.9,65.98C500.39,63.37 500,62.03 501.78,59.79C506.9,53.44 508.83,43.22 517.2,40.28C527.55,37.61 537.26,32.09 546.9,29.91C549.74,27.61 550.67,23.52 555.08,25.68Z" style="fill:rgb(187,178,169);fill-rule:nonzero;"/>
                <path d="M559.85,42.76C557.28,43.46 555.96,43.52 553.88,41.69C556.26,40.77 557.81,41.5 559.85,42.76Z" style="fill:rgb(137,119,96);fill-rule:nonzero;"/>
                <path d="M553.16,41.64L553.88,41.69C555.96,43.52 557.28,43.46 559.85,42.76L560.48,43.07C561.24,43.63 562.12,43.91 563.12,43.9C579.8,51.57 594.45,63.91 608.89,75.11C613.84,78.9 614.64,80.58 613.83,86.98C611,86.95 609.51,82.88 607.96,80.95C601.14,73.42 591.06,67.86 582.21,62.93C586.95,71.32 588.41,78.96 595.91,86.14C599.18,90.83 596.93,95.79 602.15,98.9C605.3,101.06 607.63,106.03 602.66,107.72C599.03,108.69 594.87,102.64 592.13,100.67C590.69,98.6 589.26,96.52 587.8,94.46L587.77,93.54C588.33,82.72 586.26,74.04 577.4,67.09C573.44,61.64 570.46,56.51 563.83,53.94C561.79,50.26 560.44,43.97 555.02,45.02C550.28,45.84 545.11,42.03 553.16,41.64Z" style="fill:rgb(232,217,198);fill-rule:nonzero;"/>
                <path d="M563.12,43.9C562.12,43.91 561.24,43.63 560.48,43.07C561.61,41.53 562.88,42.18 563.12,43.9Z" style="fill:rgb(127,109,85);fill-rule:nonzero;"/>
                <path d="M621.26,43.97C622.77,47.6 623.64,51.22 626.19,54.35C628.44,53.02 630.68,51.65 632.98,50.41C632.9,53.2 630.28,57.41 635.17,56.26C640.75,54.45 639.68,61.57 638.6,64.84C642.19,66.45 646.41,67.21 649.78,69.24C651.91,74.04 649.96,77.08 647.48,81.21C649.33,84.45 648.75,87.21 649.68,90.6C642.58,88.48 644.77,97.6 641.58,102.13C640.58,99.08 639.42,96.43 640.12,93.13C640.6,86.83 648.98,91.4 645.08,83.87C640.85,79.2 645.18,80.14 648.06,77.23C644.28,74.02 645.59,74.7 647.78,71.06C645.68,71.64 643.59,72.36 641.46,72.82C641.73,67.17 635.96,66.42 636.79,59.22C628.89,61.6 631.57,53.61 625.18,58.76C623.43,53.85 621.96,52.22 617.99,48.96C617.67,48.07 617.35,47.19 617.03,46.3C619.24,46.79 619.72,45.17 621.26,43.97Z" style="fill:rgb(191,184,172);fill-rule:nonzero;"/>
                <path d="M617.99,48.96C621.96,52.22 623.43,53.85 625.18,58.76C631.57,53.61 628.89,61.6 636.79,59.22C635.96,66.42 641.73,67.17 641.46,72.82C643.59,72.36 645.68,71.64 647.78,71.06C645.59,74.7 644.28,74.02 648.06,77.23C645.18,80.14 640.85,79.2 645.08,83.87C648.98,91.4 640.6,86.83 640.12,93.13C639.42,96.43 640.58,99.08 641.58,102.13C641.5,103.65 642.1,104.54 643.36,104.78C640.7,110.69 643.04,116.25 641.3,122.25C641.65,111.19 639.72,101.73 637.95,90.99C638.35,84.56 630.9,85.63 630.04,79.05C634.01,78.07 637.2,85.2 637.38,78.22C647.07,83.08 635.1,70.43 634.7,67.38C630.59,68.78 632.12,68.61 631.03,64.93C626.36,59.57 618.61,57.38 617.99,48.96Z" style="fill:rgb(128,113,93);fill-rule:nonzero;"/>
                <path d="M563.83,53.94C570.46,56.51 573.44,61.64 577.4,67.09C571,64.31 571.11,77.12 565.6,74.75C561.08,83.04 562.74,71.82 561.89,69.1C557.55,69.98 554.23,82.57 554.9,72.25C550.41,72.13 546.59,67.06 545.78,74.92C543.47,82.65 548.27,78.94 552.07,82.77C548.64,83.16 544.93,83.31 541.55,82.51C541.57,78.84 542.67,75.1 543.03,71.44C540.31,72.21 537.61,73.06 534.94,73.96C536.1,65.35 541.13,69.56 546.73,66.06C555.59,71.95 566.72,64.73 563.83,53.94Z" style="fill:rgb(156,116,94);fill-rule:nonzero;"/>
                <path d="M582.21,62.93C591.06,67.86 601.14,73.42 607.96,80.95C607.05,84.37 600.04,87.43 599.64,82.18C599.26,78.44 596.69,85.4 595.91,86.14C588.41,78.96 586.95,71.32 582.21,62.93Z" style="fill:rgb(133,110,91);fill-rule:nonzero;"/>
                <path d="M546.73,66.06C550.03,65.19 546.47,62.49 546.73,66.06Z" style="fill:rgb(141,108,87);fill-rule:nonzero;"/>
                <path d="M577.4,67.09C586.26,74.04 588.33,82.72 587.77,93.54C582.27,96.83 585.3,106.86 576.46,103.48C564.24,95.51 552.34,92.76 537.95,95.93C534.02,97.76 532.27,99.13 533.12,103.83C535.81,103.9 538.25,103.45 540.9,104.07C538.62,111.68 525.99,106.39 532.08,114.91C537.57,121.25 552.07,128.19 560.39,124.8C567.01,125.64 571.62,119.85 577.69,120.1C578.19,132.64 580.94,143.65 585.53,154.48C590.91,158.64 587.2,162.02 588.97,167.58C583.44,163.11 589.85,173.31 583.53,175.21C577.24,171.38 578.42,181.65 571.82,183.57C566.03,182.44 565.94,188.64 559.48,188.55C558.13,193.96 553.49,191.69 549.94,194.88C546.38,197.83 542.71,193.17 538.97,196.94C534.09,200.76 533.14,193.24 528.31,196.22C523.98,197.88 516.76,197.01 514.73,192.16C510.92,180.38 506.47,168.84 502.41,157.14C503.87,150.21 500.79,143.39 502.27,136.25C503.77,134.11 501.51,122.7 505.31,124.61C504.58,138.22 518.64,127.5 521.98,121.93C521.28,128.22 514.87,134.56 515.56,140.43C518,141.53 528.97,139.71 528.46,136.35C527.08,126.64 537.11,136.47 535.83,126.46C529.21,131.64 533.36,116.69 527.67,115.27C524.76,114.27 525.15,117.23 524.07,119.01C524.3,114.26 523.87,111.78 519.47,109.49C523.73,106.49 519.4,104.78 516.63,103.24C513.5,102.06 512.37,96.48 508.62,98.58C505.51,98.85 501.26,104.1 500.11,99.07C500.08,102.17 500.04,105.22 499.28,108.25C499.04,104.89 498.86,101.58 499.37,98.24C501.76,92.19 502.52,85.99 506.4,80.45C511.01,84.4 509.66,82.95 509.32,78.11C514.81,82.93 510.04,71.7 513.71,70.12C514.84,73.89 520.17,84.93 513,84.73C518.79,86.39 524.12,84.09 530.06,84.85C528.39,80.97 520.69,85.44 522.04,80.15C524.62,74.88 528.54,81.18 528.99,75.99C530.4,69.67 534.27,80.93 534.94,73.96C537.61,73.06 540.31,72.21 543.03,71.44C542.67,75.1 541.57,78.84 541.55,82.51C544.93,83.31 548.64,83.16 552.07,82.77C548.27,78.94 543.47,82.65 545.78,74.92C546.59,67.06 550.41,72.13 554.9,72.25C554.23,82.57 557.55,69.98 561.89,69.1C562.74,71.82 561.08,83.04 565.6,74.75C571.11,77.12 571,64.31 577.4,67.09Z" style="fill:rgb(204,149,124);fill-rule:nonzero;"/>
                <path d="M438.75,86.2C443,100.32 444.51,114.84 447.93,127.16C459.94,117.49 465.21,104.7 473.56,92.57C478.37,85.9 486.2,93.54 483.55,99.61C477.27,113 473.09,126.91 466.38,140.13C465.29,134.57 461.09,146.7 461.75,148.66C456.41,146.4 449.32,148.53 444.7,146.36C441.31,143.73 443.95,137.78 444,134.14C437.55,139 434.27,133.02 427.42,135.46C425.08,137.46 422.99,139.05 420.27,140.51C428.01,144.49 431.54,151.28 437.05,156.91C441.8,152.92 452.16,148.29 456.66,155.36C460.79,164.75 442.37,154.86 442.26,161.63C445.41,164.65 451.17,162.1 451.49,168.2C449.88,172.28 447.55,181.19 442.03,176C438.97,175.37 431.16,176.39 439.65,173.48C443.07,169.62 436.96,157.75 431.15,159.05C427.57,160.98 426.6,164.69 421.94,162.09C416.96,160.7 418.79,151.47 415.83,148.55C412.46,149.62 411.3,149.67 407.96,148.41C408.33,152.34 409.78,155.23 412.03,158.39C407.62,156.39 405.74,165.12 403.81,159.81C404.7,157.88 399.91,149.04 399.6,154.14C398.06,149.74 396.11,140.55 401.46,138.74C409.28,145.17 403.02,132.97 411.13,131.18C416.79,125.49 431.24,131.81 429.09,122.01C428.11,111.65 426.45,101.27 425.15,90.93C425.05,85.27 420.61,74.19 424.97,69.96C435.53,65.11 437.3,79.28 438.75,86.2Z" style="fill:rgb(217,171,137);fill-rule:nonzero;"/>
                <path d="M618.28,72.6C621.84,80.07 625.27,82.74 632.42,86.5C633.73,94.31 639.87,97.35 637.8,106.07C635.93,103.01 637.08,99.15 632.19,100.09C632.95,106.09 633.48,112.54 632.79,118.59C626.48,127.59 632.46,131.01 629.77,139.86C627.86,137.06 626.48,134.28 625.37,131.06C624.32,136.01 619.49,138.46 616.5,136.31C621.9,130.45 612.94,129.49 610.33,133.31C605.69,140.59 597.95,133.94 593.47,137.32C591.71,148.85 591.75,132.01 590.77,129.05C588.91,121.62 582.57,104.96 592.13,100.67C594.87,102.64 599.03,108.69 602.66,107.72C607.63,106.03 605.3,101.06 602.15,98.9C596.93,95.79 599.18,90.83 595.91,86.14C596.69,85.4 599.26,78.44 599.64,82.18C600.04,87.43 607.05,84.37 607.96,80.95C609.51,82.88 611,86.95 613.83,86.98C614.64,80.58 613.84,78.9 608.89,75.11C612.24,72.55 613.7,69.06 618.28,72.6Z" style="fill:rgb(65,52,34);fill-rule:nonzero;"/>
                <path d="M496.78,72.89C500.17,81.14 495.9,87.12 497.89,95.06C493.55,89.95 493.18,78.31 496.78,72.89Z" style="fill:rgb(181,171,162);fill-rule:nonzero;"/>
                <path d="M612.06,89.06C614.74,89.04 616.31,91.76 616.77,94.09C615.89,97.54 611.14,91.29 612.06,89.06Z" style="fill:rgb(202,189,172);fill-rule:nonzero;"/>
                <path d="M587.77,93.54L587.8,94.46C584.02,105.65 585.17,118.71 587.79,130.07C591.53,144.91 587.01,157.94 596.05,171.48C585.43,190.82 563.2,215.46 538.96,213.03C526.77,208.52 514.94,208.7 514.73,192.16C516.76,197.01 523.98,197.88 528.31,196.22C533.14,193.24 534.09,200.76 538.97,196.94C542.71,193.17 546.38,197.83 549.94,194.88C553.49,191.69 558.13,193.96 559.48,188.55C565.94,188.64 566.03,182.44 571.82,183.57C578.42,181.65 577.24,171.38 583.53,175.21C589.85,173.31 583.44,163.11 588.97,167.58C587.2,162.02 590.91,158.64 585.53,154.48C580.94,143.65 578.19,132.64 577.69,120.1C571.62,119.85 567.01,125.64 560.39,124.8C552.07,128.19 537.57,121.25 532.08,114.91C525.99,106.39 538.62,111.68 540.9,104.07C538.25,103.45 535.81,103.9 533.12,103.83C532.27,99.13 534.02,97.76 537.95,95.93C552.34,92.76 564.24,95.51 576.46,103.48C585.3,106.86 582.27,96.83 587.77,93.54Z" style="fill:rgb(179,125,89);fill-rule:nonzero;"/>
                <path d="M516.63,103.24C519.4,104.78 523.73,106.49 519.47,109.49C523.87,111.78 524.3,114.26 524.07,119.01C523.44,120.03 522.7,120.96 521.98,121.93C518.64,127.5 504.58,138.22 505.31,124.61C501.51,122.7 503.77,134.11 502.27,136.25C500.97,131.15 505.08,117.67 496.1,118.94C497.82,117.15 502.07,118.84 501.84,115.47C495.82,114.9 499.04,112.35 499.28,108.25C500.04,105.22 500.08,102.17 500.11,99.07C501.26,104.1 505.51,98.85 508.62,98.58C512.37,96.48 513.5,102.06 516.63,103.24Z" style="fill:rgb(140,97,69);fill-rule:nonzero;"/>
                <path d="M641.58,102.13C642.87,102.41 643.46,103.3 643.36,104.78C642.1,104.54 641.5,103.65 641.58,102.13Z" style="fill:rgb(193,189,180);fill-rule:nonzero;"/>
                <path d="M643.36,104.78C644.86,123.41 638.47,136.13 636.02,154.99C637.22,160.88 636.14,173.19 631.59,176.97C636.75,158.41 633.76,140.31 641.3,122.25C643.04,116.25 640.7,110.69 643.36,104.78Z" style="fill:rgb(182,175,161);fill-rule:nonzero;"/>
                <path d="M569.98,116.84C562.92,118.39 563.25,115.12 558.41,112.15C558.98,122.05 543.68,122.98 538.97,116.93C541.99,103.98 566.88,103.56 569.98,116.84Z" style="fill:rgb(138,87,58);fill-rule:nonzero;"/>
                <path d="M634.2,113.03C637.83,111.52 640.03,128.85 634.92,123.07C633.46,120.16 633.91,116.18 634.2,113.03Z" style="fill:rgb(205,188,159);fill-rule:nonzero;"/>
                <path d="M527.67,115.27C533.36,116.69 529.21,131.64 535.83,126.46C537.11,136.47 527.08,126.64 528.46,136.35C528.97,139.71 518,141.53 515.56,140.43C514.87,134.56 521.28,128.22 521.98,121.93C522.7,120.96 523.44,120.03 524.07,119.01C525.15,117.23 524.76,114.27 527.67,115.27Z" style="fill:rgb(231,180,164);fill-rule:nonzero;"/>
                <path d="M496.1,118.94C505.08,117.67 500.97,131.15 502.27,136.25C500.79,143.39 503.87,150.21 502.41,157.14C496.81,144.68 492.7,132.76 496.1,118.94Z" style="fill:rgb(73,54,43);fill-rule:nonzero;"/>
                <path d="M444,134.14C443.95,137.78 441.31,143.73 444.7,146.36C449.32,148.53 456.41,146.4 461.75,148.66C461.09,146.7 465.29,134.57 466.38,140.13C461.81,153.02 465.9,166.45 459.35,179.37C457.14,193.67 449.29,207.02 437.73,215.73C426.16,226.44 418.48,235.95 410.01,249.21C410.21,244 402.08,256.67 402.27,259.14C401.37,265.27 399.7,257.32 397.08,262.09C393.67,269.92 388.68,276.37 384.95,283.98C385.16,291.7 375.12,293.58 375.03,303.19C377.92,307.03 365.18,303.4 370.48,306.41C374.45,306.74 375.99,311.29 370.99,311.02C362.94,310.42 365.52,322.4 357.44,319.69C355.67,312.1 350.65,311.72 352.14,303C353.87,298.89 346.21,296.07 351.88,295.51C346.15,292.48 341.61,286.13 335.16,288.15C327.47,292.28 337.06,301.73 326.88,300.55C325.47,305.74 317.05,300.81 318.52,306.98C317.55,309.37 313.6,306.22 313.95,311.04C314.37,315.98 309.6,307.5 309.68,312.02C308.96,310.81 308.3,309.59 307.78,308.28C307.85,303.28 311.36,304.29 314.37,301.37C317.91,298.66 316.78,293.84 321.84,292.74C325.36,292 322.75,289.5 322.5,287.23C328.21,285.63 329.28,286.47 331.4,280.42C339.29,280.36 337.79,277.87 341.44,272.41C349.65,274.37 351.72,265.85 359.99,266.89C364.74,264.58 372.45,274.65 368.67,264.85C371.89,262.07 373.46,264.86 369.22,260.21C377.2,257.3 370.06,252.46 377.37,248.46C386.41,247.61 375.24,245.84 385.28,241.35C393.39,242.19 385.76,238.04 392.7,234.66C400.36,221.43 399.49,211.86 405.21,198.2C414.04,195.22 406.56,185.33 405.86,178.85C404.33,170.19 402.96,162.34 399.6,154.14C399.91,149.04 404.7,157.88 403.81,159.81C405.74,165.12 407.62,156.39 412.03,158.39C409.78,155.23 408.33,152.34 407.96,148.41C411.3,149.67 412.46,149.62 415.83,148.55C418.79,151.47 416.96,160.7 421.94,162.09C426.6,164.69 427.57,160.98 431.15,159.05C436.96,157.75 443.07,169.62 439.65,173.48C431.16,176.39 438.97,175.37 442.03,176C447.55,181.19 449.88,172.28 451.49,168.2C451.17,162.1 445.41,164.65 442.26,161.63C442.37,154.86 460.79,164.75 456.66,155.36C452.16,148.29 441.8,152.92 437.05,156.91C431.54,151.28 428.01,144.49 420.27,140.51C422.99,139.05 425.08,137.46 427.42,135.46C434.27,133.02 437.55,139 444,134.14Z" style="fill:rgb(199,152,109);fill-rule:nonzero;"/>
                <path d="M542.07,138.21C546.53,141.39 543.4,152 537.72,152.43C533.87,152.06 530.5,152.67 529.23,156.81C536.19,159.77 543.63,163.73 548.99,169.18C550.22,174.07 535.25,175.1 536.52,179.28C545.08,183.47 535.06,185.36 530.98,185.08C526.88,184 520.11,192.85 519.08,185.91C517.39,178.34 514.28,168.23 517.97,160.96C518.96,157.12 526.95,160.68 528.16,157.68C519.5,157.4 517.97,153.45 514.41,147.27C516.61,143.49 522.41,149.33 525.37,147.28C529.06,142.49 533.21,143.44 538.13,145.68C542.3,145.37 539.9,138.54 542.07,138.21Z" style="fill:rgb(170,110,82);fill-rule:nonzero;"/>
                <path d="M612.12,150.04C616.66,150.62 617.36,154.96 613.31,157.35C608.73,161.37 609.24,168.63 605.04,173.35C598.4,188.08 587.05,197.48 575.6,208.58C565.03,217.65 556.03,219.07 542.73,215.8C541.46,214.89 540.23,213.94 538.96,213.03C563.2,215.46 585.43,190.82 596.05,171.48C604.91,165.26 601.94,155.09 612.12,150.04Z" style="fill:rgb(223,192,143);fill-rule:nonzero;"/>
                <path d="M529.98,167.61C537.06,167.1 541.53,162.14 546.82,169.83C543.12,173.44 539.07,169.99 534.42,172.52C530.62,174.27 519.84,175.76 518.03,170.87C519,163.79 525.09,165.05 529.98,167.61Z" style="fill:rgb(102,56,35);fill-rule:nonzero;"/>
                <path d="M630.69,177.43C630.06,180.55 631.32,183.01 632.22,185.93C632.35,187.67 631.9,187.93 630.88,186.71C625.93,182.71 622.9,184.45 623.32,176.61C620.24,174.96 615.13,181.93 612.69,183.67C606.34,188.77 597.73,189.22 596.05,198.81C595.41,206.46 585.6,206.89 585.96,213.97C586.52,217.33 590.17,220.24 592.06,223C587.06,225.01 589.02,227.15 583.52,228.54C577.16,236.94 587.81,242.87 580.69,248.67C577.15,258.6 564.44,255.89 556.17,258.6C557.41,256.05 554.25,246.17 551.17,246.56L549.93,246.11C548.61,245.57 547.27,245.09 545.92,244.63C548.66,240.78 548.39,232.5 541.93,236.92C548.14,232.02 545.05,227.4 544.28,220.76C544.05,219.8 543.78,218.84 543.45,217.89L542.73,215.8C556.03,219.07 565.03,217.65 575.6,208.58C587.05,197.48 598.4,188.08 605.04,173.35C612.61,182.34 619.05,175.75 625.61,169.57C632.22,164.66 624.98,176.8 630.69,177.43Z" style="fill:rgb(182,133,91);fill-rule:nonzero;"/>
                <path d="M623.32,176.61C622.9,184.45 625.93,182.71 630.88,186.71C624.44,186.87 624.91,196.91 617.45,195.88C617.24,193.95 618.6,190.82 615.37,191.19C614.48,195.56 613.38,199.59 611.92,203.79C615.43,203.29 617.22,201.11 619.62,198.83C617.76,209.2 615.48,217.43 606.02,222.99C597.02,222.76 604.83,232.7 604.18,237.95C606.13,244.5 598.5,246.11 596.92,251.07C590.67,251 585.78,252.29 580.25,255.29C580.76,257.05 582.01,258.06 583.2,259.35C583.45,262.76 566.18,259.59 574.21,264.61C575.94,263.78 580.33,262.4 579.6,265.4C573.16,266.35 578.72,270.64 574.58,274.6C572.7,278.35 569.58,272.3 567.24,275.23C561.62,283.57 554.17,282.86 550.08,293.02C549.61,297.41 547.25,300.54 544.34,303.69C543.7,299.2 536.81,293.24 540.28,289.35C549.43,285.07 561.96,275.77 560.63,264.32C560.14,260.41 556.01,264.07 553.7,262.33C551.28,257.23 551.14,252.08 551.17,246.56C554.25,246.17 557.41,256.05 556.17,258.6C564.44,255.89 577.15,258.6 580.69,248.67C587.81,242.87 577.16,236.94 583.52,228.54C589.02,227.15 587.06,225.01 592.06,223C590.17,220.24 586.52,217.33 585.96,213.97C585.6,206.89 595.41,206.46 596.05,198.81C597.73,189.22 606.34,188.77 612.69,183.67C615.13,181.93 620.24,174.96 623.32,176.61Z" style="fill:rgb(198,147,114);fill-rule:nonzero;"/>
                <path d="M405.86,178.85C406.56,185.33 414.04,195.22 405.21,198.2C399.49,211.86 400.36,221.43 392.7,234.66C385.76,238.04 393.39,242.19 385.28,241.35C375.24,245.84 386.41,247.61 377.37,248.46C370.06,252.46 377.2,257.3 369.22,260.21C373.46,264.86 371.89,262.07 368.67,264.85C372.45,274.65 364.74,264.58 359.99,266.89C351.72,265.85 349.65,274.37 341.44,272.41C337.79,277.87 339.29,280.36 331.4,280.42C329.28,286.47 328.21,285.63 322.5,287.23C322.75,289.5 325.36,292 321.84,292.74C316.78,293.84 317.91,298.66 314.37,301.37C311.36,304.29 307.85,303.28 307.78,308.28C305.24,294.29 312.37,277.22 320.32,265.72C322.21,266.55 320.81,270.18 321.12,271.84C323.44,271.13 324.64,269.99 326.98,271.38C327.02,267.1 330.64,266.12 331.54,261.64C341.78,255.99 345.34,260.44 355.72,250.79C362.3,240.6 377.94,231.34 383.06,221.04C391.09,213.92 396.95,208.93 398.89,197.69C401.84,194.87 400.06,183.48 404.24,191.05C408.4,188.24 405.56,184.62 404.81,180.83C405.16,180.17 405.51,179.51 405.86,178.85Z" style="fill:rgb(211,171,139);fill-rule:nonzero;"/>
                <path d="M404.81,180.83C405.56,184.62 408.4,188.24 404.24,191.05C400.06,183.48 401.84,194.87 398.89,197.69C396.95,208.93 391.09,213.92 383.06,221.04C377.94,231.34 362.3,240.6 355.72,250.79C345.34,260.44 341.78,255.99 331.54,261.64C330.64,266.12 327.02,267.1 326.98,271.38C324.64,269.99 323.44,271.13 321.12,271.84C320.81,270.18 322.21,266.55 320.32,265.72C333.12,244.19 349.5,228.1 370.28,214.29C383.56,204.73 394.49,193.45 404.81,180.83Z" style="fill:rgb(226,196,173);fill-rule:nonzero;"/>
                <path d="M632.22,185.93C633.81,189.87 635.64,193.67 638.16,197.12C636.94,202.66 630.63,190.47 627.81,192.78C627.17,197.95 623.3,199.28 621.68,203.66C620.13,212.44 622.39,220.53 615.08,227.12C612.96,230.96 608.97,236.26 614.03,239.54C593.58,263.01 576.37,288.71 557.02,313.02C551.06,319.64 543.88,328.85 534.85,330.84C527.05,331.95 519.96,326.75 517.58,319.4C512.55,307.37 516.25,293.45 520.73,281.8C521.02,283.64 518.27,291.21 522.38,288.34C530.17,281.3 540.05,288.14 548.79,282.76C551.3,280.61 556.26,273.44 549.07,275.67C543.97,274.88 548.69,264.37 550.57,261.6C551.13,256.72 549.37,251.3 549.93,246.11L551.17,246.56C551.14,252.08 551.28,257.23 553.7,262.33C556.01,264.07 560.14,260.41 560.63,264.32C561.96,275.77 549.43,285.07 540.28,289.35C536.81,293.24 543.7,299.2 544.34,303.69C547.25,300.54 549.61,297.41 550.08,293.02C554.17,282.86 561.62,283.57 567.24,275.23C569.58,272.3 572.7,278.35 574.58,274.6C578.72,270.64 573.16,266.35 579.6,265.4C580.33,262.4 575.94,263.78 574.21,264.61C566.18,259.59 583.45,262.76 583.2,259.35C582.01,258.06 580.76,257.05 580.25,255.29C585.78,252.29 590.67,251 596.92,251.07C598.5,246.11 606.13,244.5 604.18,237.95C604.83,232.7 597.02,222.76 606.02,222.99C615.48,217.43 617.76,209.2 619.62,198.83C617.22,201.11 615.43,203.29 611.92,203.79C613.38,199.59 614.48,195.56 615.37,191.19C618.6,190.82 617.24,193.95 617.45,195.88C624.91,196.91 624.44,186.87 630.88,186.71C631.9,187.93 632.35,187.67 632.22,185.93Z" style="fill:rgb(209,162,136);fill-rule:nonzero;"/>
                <path d="M638.16,197.12C643.29,203.68 649.56,208.8 656.13,213.83C636.35,212.57 624.82,225 614.03,239.54C608.97,236.26 612.96,230.96 615.08,227.12C622.39,220.53 620.13,212.44 621.68,203.66C623.3,199.28 627.17,197.95 627.81,192.78C630.63,190.47 636.94,202.66 638.16,197.12Z" style="fill:rgb(226,189,168);fill-rule:nonzero;"/>
                <path d="M656.13,213.83C659.08,216.14 661.99,218.45 665.31,220.24C658.23,221.45 651.46,221.46 644.85,224.77C634.03,229.52 626.01,241.75 618.89,250.86C604.99,270.32 591.45,288.32 584.77,311.76C581.03,323.95 579.31,337.04 580.15,349.77C579.8,365.93 585.82,381.91 592.65,396.34C603.18,419.59 616.07,440.69 634.86,458.23C648.21,465.93 663.54,461.86 674.86,452.22C676.34,455.05 677.47,458.05 679.02,460.85C678.34,463.05 677.64,465.24 676.95,467.43C674.03,464.57 677.13,462.58 671.29,460.52C669.72,464.61 667.15,466.37 669.65,470.91C665.31,473.22 669.37,478.56 667.73,482.83C666.12,487.24 665.3,494.1 663.65,497.8C655.79,502.44 656.41,503.29 659.97,511.01C655.78,508.06 654.07,506.07 655.2,512.96C645.61,516.05 659.73,526.05 648.47,528.46C649.96,531.97 650.2,532.95 647.26,535.71C644.39,533.01 641.83,537.77 639.07,538.7C630.26,535.71 644.13,541.69 639.88,547.04C636.88,537.97 638.93,549.57 636.54,552.45C635.54,555.89 631.35,555.31 629.28,558.32C626.79,559.46 631.07,565.93 627.18,562.38C627.31,567.69 624.06,571.09 622.34,576.06C622.09,574.98 621.85,573.9 621.63,572.81C627.83,555.17 629.62,536.56 636.12,519.12C641.16,501.45 650.86,486.73 658.01,470.32C649.01,472.7 642.12,468.61 633.45,468.5C625.54,461.2 618.93,452.86 611.81,444.85C607.27,458.47 605.16,473.01 598.39,486.27C596.73,485.71 594.56,482.32 594.59,485.96C595.02,492.37 586.93,489.27 586.79,496.17C582.33,496.66 582.89,497.72 581.48,501.55C578.81,503.44 581.09,495.88 578.83,496.04C573.99,495 569.1,497.75 564.01,496.98C570.16,494.6 562.97,491.74 559.86,494.62C560.24,490.1 564.64,486.55 566.06,482.06C567.99,476.75 573.73,481 578.03,479.94C575.59,478.02 562.69,475.58 570.86,472.1C562.19,474.92 571.59,461.74 567.26,458.55C559.75,460.64 560.14,460.02 559.68,468C555.87,466.03 551.41,461.68 547.02,461.94C541.8,462.41 544.56,459.22 545.75,456.58C538.63,455.91 540.62,455.77 539.59,449.31C536.7,444.77 532.88,453.84 530.59,447.81C530.49,451.03 529.85,452.94 532.38,455.39C530.63,457.7 526.97,470.76 525.69,460.87C527.86,454.36 529.12,447.62 523.81,442.19C519.17,438.32 513.16,435.8 507.49,433.85C507.42,431.47 508.01,432.24 509.98,431.79C514.01,433.53 518.24,436.42 522.63,436.91C523.86,431.32 523.95,425.73 524.17,420.04C525.24,412.95 529.22,407.76 527.21,400.29C534.09,403.08 529.88,390.65 531.03,386.97C532.58,381.66 523.21,378.88 519.38,378.09C519.77,384.97 513.12,391.22 518.37,396.31C512.16,404.77 519.96,410.71 515.88,419.51C514.7,419.4 513.52,419.2 512.34,419.03C502.26,417.22 510.31,415.11 507.63,409.4C503.92,402.54 510.11,400.41 512.93,394.97C516.58,389.63 513.72,383.25 512.33,377.6C508.39,377.45 494.96,376.38 499.05,383.92C499.4,385.07 499.29,386.17 499.19,387.35C489.67,369.9 490.32,348.2 488.61,328.17C492.72,315.22 497.43,302.65 502,289.92C511.38,268.76 523.28,251.01 541.93,236.92C548.39,232.5 548.66,240.78 545.92,244.63C533.57,253 526.12,268.31 520.73,281.8C516.25,293.45 512.55,307.37 517.58,319.4C519.96,326.75 527.05,331.95 534.85,330.84C543.88,328.85 551.06,319.64 557.02,313.02C576.37,288.71 593.58,263.01 614.03,239.54C624.82,225 636.35,212.57 656.13,213.83Z" style="fill:rgb(102,66,47);fill-rule:nonzero;"/>
                <path d="M528.82,217.29C533.32,217.41 539.44,220.33 543.45,217.89C543.78,218.84 544.05,219.8 544.28,220.76C544.19,223.57 544.16,226.51 543.46,229.24C531.08,230.34 517.42,232 506.04,237.07C495.71,244.93 483.89,239.47 471.37,244.45C460.88,246.28 460.47,264.19 451.98,267.55C448.46,277.14 435.93,273.38 427.4,274.41C420.91,270.03 403.83,272.82 404.66,262.88C406.01,258.41 408.84,254.65 409.81,250.12C417.49,252.38 427.57,248.77 435.39,247.38C448.5,242.08 459.58,232.11 472.85,226.81C490.38,219.75 509.92,215.79 528.82,217.29Z" style="fill:rgb(244,223,204);fill-rule:nonzero;"/>
                <path d="M665.31,220.24C676.22,224.48 684.49,230 691.38,239.62C699.64,251.94 712.2,257.59 721.92,267.57C721.15,272.5 720.39,274.13 724.88,277.31C714.81,282.46 709.67,277.02 699.85,275.15C691.13,271.37 681.22,261.13 671.38,264.44C662.68,266.71 655.12,265.16 647.15,269.98C642.11,264.96 630.93,262.33 630.39,254.35C633.38,250.96 626.25,249.11 624.34,247.61C626.96,244.32 627.85,238.26 632.99,241.45C644.47,238.11 636.1,231.51 644.85,224.77C651.46,221.46 658.23,221.45 665.31,220.24Z" style="fill:rgb(244,221,204);fill-rule:nonzero;"/>
                <path d="M544.28,220.76C545.05,227.4 548.14,232.02 541.93,236.92C523.28,251.01 511.38,268.76 502,289.92C499.48,292.38 498.83,297.97 496.35,299.53C491.35,295.81 490.93,289.18 486.9,284.23C487.82,272.31 491.23,266.97 489.77,256.16C490.41,250.16 481.8,248.28 477.23,248.28C470.23,254.69 467.37,264.79 464.48,273.42C459.66,275.76 456.31,278.94 451.98,281.94C443.39,283.5 434.88,284.29 427.03,280.26C416.8,283.16 415.08,275.12 406.11,272.88C403.54,271.93 403.16,271.57 402.49,268.83C403.22,266.85 403.94,264.86 404.66,262.88C403.83,272.82 420.91,270.03 427.4,274.41C435.93,273.38 448.46,277.14 451.98,267.55C460.47,264.19 460.88,246.28 471.37,244.45C483.89,239.47 495.71,244.93 506.04,237.07C517.42,232 531.08,230.34 543.46,229.24C544.16,226.51 544.19,223.57 544.28,220.76Z" style="fill:rgb(232,193,165);fill-rule:nonzero;"/>
                <path d="M644.85,224.77C636.1,231.51 644.47,238.11 632.99,241.45C627.85,238.26 626.96,244.32 624.34,247.61C626.25,249.11 633.38,250.96 630.39,254.35C630.93,262.33 642.11,264.96 647.15,269.98C655.12,265.16 662.68,266.71 671.38,264.44C681.22,261.13 691.13,271.37 699.85,275.15C709.67,277.02 714.81,282.46 724.88,277.31C720.39,274.13 721.15,272.5 721.92,267.57C730.32,275.38 738.16,284.92 739.93,296.61C737.86,298.28 737.5,301.72 736.57,297.22C734.21,292.31 733.71,303.23 732.15,298.88C728.82,294.67 722.08,296.39 718.17,298.97C713.13,293.25 713.53,300.66 706.99,299.03C702.57,299.33 697.48,294.55 693.76,297.35C691.85,291.65 679.42,285.52 679.61,276.14C676.66,275.67 671.66,279.01 671.82,274.16C663.76,271.4 656.04,285.46 649.75,275.34C644.31,280.19 637.61,276.11 633.25,285.24C632.21,294.03 624.71,305.34 616.41,308.37C616.14,315.48 609.68,322.82 606.1,328.05C605.88,333.67 605.16,328.37 603.26,326.97C599.95,332.35 594.29,330.03 590.08,334.46C585.54,331.03 585.19,331.45 581.91,335.88C582.11,327.74 584.62,319.82 584.77,311.76C591.45,288.32 604.99,270.32 618.89,250.86C626.01,241.75 634.03,229.52 644.85,224.77Z" style="fill:rgb(236,199,174);fill-rule:nonzero;"/>
                <path d="M545.92,244.63C547.27,245.09 548.61,245.57 549.93,246.11C549.37,251.3 551.13,256.72 550.57,261.6C548.69,264.37 543.97,274.88 549.07,275.67C556.26,273.44 551.3,280.61 548.79,282.76C540.05,288.14 530.17,281.3 522.38,288.34C518.27,291.21 521.02,283.64 520.73,281.8C526.12,268.31 533.57,253 545.92,244.63Z" style="fill:rgb(225,181,160);fill-rule:nonzero;"/>
                <path d="M410.01,249.21L409.81,250.12C408.84,254.65 406.01,258.41 404.66,262.88C403.94,264.86 403.22,266.85 402.49,268.83C402.22,269.51 401.96,270.2 401.69,270.88C398.23,275.53 403.83,286.28 407.26,288.85C402.96,298.04 400.17,306.48 398.55,316.43C404.77,318.62 409.39,315.16 414.73,312.54C413.53,311.61 410.2,310.99 413.94,310.85C421.21,310.92 427.53,312.76 434.41,308.43C437.86,305.78 440.67,308.7 444.3,307.23C449.5,304.67 451.42,311.15 456,305C459.14,298.31 469.07,306.78 467.83,299.26C470.44,292.34 478.13,293.2 480.46,285.41C480.81,280.69 479.32,276.58 481.81,271.94C482.45,277.68 481.27,282.66 482.7,288.25C484.51,294.71 486.54,301.2 488.39,307.7C490.38,310.64 488.84,311.79 487.02,314.12C483.23,313.84 480.57,315.53 477.6,317.59C465.53,326.71 447.95,326.92 433.38,329.44C417.55,331.96 401.09,332.02 385.06,333.24C358.21,335.68 327.66,335.43 309.68,312.02C309.6,307.5 314.37,315.98 313.95,311.04C313.6,306.22 317.55,309.37 318.52,306.98C317.05,300.81 325.47,305.74 326.88,300.55C337.06,301.73 327.47,292.28 335.16,288.15C341.61,286.13 346.15,292.48 351.88,295.51C346.21,296.07 353.87,298.89 352.14,303C350.65,311.72 355.67,312.1 357.44,319.69C365.52,322.4 362.94,310.42 370.99,311.02C375.99,311.29 374.45,306.74 370.48,306.41C365.18,303.4 377.92,307.03 375.03,303.19C375.12,293.58 385.16,291.7 384.95,283.98C388.68,276.37 393.67,269.92 397.08,262.09C399.7,257.32 401.37,265.27 402.27,259.14C402.08,256.67 410.21,244 410.01,249.21Z" style="fill:rgb(176,134,94);fill-rule:nonzero;"/>
                <path d="M477.23,248.28C481.8,248.28 490.41,250.16 489.77,256.16C491.23,266.97 487.82,272.31 486.9,284.23C490.93,289.18 491.35,295.81 496.35,299.53C498.83,297.97 499.48,292.38 502,289.92C497.43,302.65 492.72,315.22 488.61,328.17C487.97,323.51 487.4,318.81 487.02,314.12C488.84,311.79 490.38,310.64 488.39,307.7C486.54,301.2 484.51,294.71 482.7,288.25C483.09,280.59 483.23,272.78 482.82,265.13C482.22,262.3 481.53,261.33 478.57,262.54C477.71,269.16 476.77,276.75 473.8,282.81C470.53,285.49 466.47,281.75 466.56,287.87C459.35,289.53 458.71,293.48 450,293.05C441.62,292.49 427.48,295.3 422.19,286.86C419.6,281.63 414.65,282.57 410.59,279.39C406.39,273.85 401.19,278.46 401.69,270.88C401.96,270.2 402.22,269.51 402.49,268.83C403.16,271.57 403.54,271.93 406.11,272.88C415.08,275.12 416.8,283.16 427.03,280.26C434.88,284.29 443.39,283.5 451.98,281.94C456.31,278.94 459.66,275.76 464.48,273.42C467.37,264.79 470.23,254.69 477.23,248.28Z" style="fill:rgb(212,167,134);fill-rule:nonzero;"/>
                <path d="M482.82,265.13C483.23,272.78 483.09,280.59 482.7,288.25C481.27,282.66 482.45,277.68 481.81,271.94C479.32,276.58 480.81,280.69 480.46,285.41C478.13,293.2 470.44,292.34 467.83,299.26C469.07,306.78 459.14,298.31 456,305C451.42,311.15 449.5,304.67 444.3,307.23C440.67,308.7 437.86,305.78 434.41,308.43C427.53,312.76 421.21,310.92 413.94,310.85C410.2,310.99 413.53,311.61 414.73,312.54C409.39,315.16 404.77,318.62 398.55,316.43C400.17,306.48 402.96,298.04 407.26,288.85C403.83,286.28 398.23,275.53 401.69,270.88C401.19,278.46 406.39,273.85 410.59,279.39C414.65,282.57 419.6,281.63 422.19,286.86C427.48,295.3 441.62,292.49 450,293.05C458.71,293.48 459.35,289.53 466.56,287.87C466.47,281.75 470.53,285.49 473.8,282.81C476.77,276.75 477.71,269.16 478.57,262.54C481.53,261.33 482.22,262.3 482.82,265.13Z" style="fill:rgb(195,148,107);fill-rule:nonzero;"/>
                <path d="M671.82,274.16C671.66,279.01 676.66,275.67 679.61,276.14C679.42,285.52 691.85,291.65 693.76,297.35C697.48,294.55 702.57,299.33 706.99,299.03C713.53,300.66 713.13,293.25 718.17,298.97C722.08,296.39 728.82,294.67 732.15,298.88C733.71,303.23 734.21,292.31 736.57,297.22C737.5,301.72 737.86,298.28 739.93,296.61C742.67,306.81 743.49,317.35 745.92,327.63C743.76,328.33 745.05,331.33 744.72,333.07C742.02,326.32 743.15,321.52 736.27,317.24C741.7,310.08 731.45,316.17 727.71,312.82C724.08,313.31 723.26,320.31 720.68,322.71C717.08,318.27 715.32,313.83 709.03,313.03C708.06,309.16 703.41,305.01 701.72,310.76C702.1,318.01 693.1,320.67 691.44,312.26C683.01,316.11 679.37,305.02 674.89,314.97C666.1,319.4 673.02,309.27 665.96,308.11C663.34,309.07 660.12,311.31 657.26,310.84C654.09,305.15 646.04,314.48 644.88,317.98C640.62,322.58 630.73,317.87 626.09,316.07C620.62,316.89 623.28,324.02 621.06,327.01C616.58,329.7 616.22,333.83 615.59,338.55C610.63,339.28 606.63,341.93 601.67,342.73C596.73,346.29 594.83,352.7 587.61,350.53C583.92,349.44 583.32,355.04 581.96,357.32C581.4,354.79 580.77,352.29 580.15,349.77C579.31,337.04 581.03,323.95 584.77,311.76C584.62,319.82 582.11,327.74 581.91,335.88C585.19,331.45 585.54,331.03 590.08,334.46C594.29,330.03 599.95,332.35 603.26,326.97C605.16,328.37 605.88,333.67 606.1,328.05C609.68,322.82 616.14,315.48 616.41,308.37C624.71,305.34 632.21,294.03 633.25,285.24C637.61,276.11 644.31,280.19 649.75,275.34C656.04,285.46 663.76,271.4 671.82,274.16Z" style="fill:rgb(231,187,153);fill-rule:nonzero;"/>
                <path d="M657.26,310.84C660.12,311.31 663.34,309.07 665.96,308.11C673.02,309.27 666.1,319.4 674.89,314.97C679.37,305.02 683.01,316.11 691.44,312.26C693.1,320.67 702.1,318.01 701.72,310.76C703.41,305.01 708.06,309.16 709.03,313.03C715.32,313.83 717.08,318.27 720.68,322.71C723.26,320.31 724.08,313.31 727.71,312.82C731.45,316.17 741.7,310.08 736.27,317.24C743.15,321.52 742.02,326.32 744.72,333.07C745.05,331.33 743.76,328.33 745.92,327.63C750.36,345.34 750.33,362.9 749.9,381.01C748.72,393.54 744.21,403.51 746.63,416.19C749.33,435.68 751.33,455.07 751.26,474.76C751,478.77 751.07,482.79 750.9,486.81C749.44,486.94 750.19,482.11 749.76,480.99C749.12,484.9 746.53,486.81 745.08,490.12C745.56,493.83 747.24,496.45 745.71,500.31C742,501.68 735.1,502.8 736.5,496.65C732.56,495.8 728.56,496.1 731.29,490.75C726.87,491.11 725.11,476 732.9,479.84C731.61,474.01 734.06,470.17 734.38,464.49C739.83,463.86 737.82,460.91 736.99,457.08C736.42,450.11 729.08,455.02 723.73,451.79C723.4,457.15 725,453.57 727.82,455.76C724,453.92 718.95,461.97 719.99,456.02C720.75,447.98 704.31,459.47 713,462.9C723.58,465.99 706.23,470.56 708.28,477.18C708.65,485.67 704.59,483.04 700.91,488.87C702.74,474.74 697.4,463.04 690.88,451.12C690.13,443.29 683.15,452.08 679.95,445.05C678.25,433.37 675.13,428.44 675.16,416.78C666.6,412.89 670.59,403.13 666.19,396.85C665.33,392.37 666.49,388.52 666.85,384.17C662.08,380.01 664.28,366.7 657.99,364.01C653.4,362.87 655.02,356.52 659.41,356.75C655.92,353.65 667.33,354.62 662.8,352.26C658.83,350.38 663.57,343.72 658.01,343.77C654.24,342.09 664.37,341.16 661.04,339.85C655.58,334.2 648.99,338.91 646.43,331.51C639.03,329.54 636.29,329.1 630.72,323.13C619.21,325.53 628.3,333.38 628.91,339.86C622.73,344.7 622.86,350.77 615.05,352.11C610.35,351.77 611.92,360.47 609.21,361.66C603.07,357.67 609.41,365 603.44,366.22C603.64,364.15 606.78,360.97 602.57,362.36C600.52,370.35 589.64,364.48 590.78,375.72C588.24,371.92 592.54,369.69 586.12,373.89C583.11,369.23 582.6,362.73 581.96,357.32C583.32,355.04 583.92,349.44 587.61,350.53C594.83,352.7 596.73,346.29 601.67,342.73C606.63,341.93 610.63,339.28 615.59,338.55C616.22,333.83 616.58,329.7 621.06,327.01C623.28,324.02 620.62,316.89 626.09,316.07C630.73,317.87 640.62,322.58 644.88,317.98C646.04,314.48 654.09,305.15 657.26,310.84Z" style="fill:rgb(227,178,136);fill-rule:nonzero;"/>
                <path d="M630.72,323.13C636.29,329.1 639.03,329.54 646.43,331.51C648.99,338.91 655.58,334.2 661.04,339.85C664.37,341.16 654.24,342.09 658.01,343.77C663.57,343.72 658.83,350.38 662.8,352.26C667.33,354.62 655.92,353.65 659.41,356.75C655.02,356.52 653.4,362.87 657.99,364.01C664.28,366.7 662.08,380.01 666.85,384.17C666.49,388.52 665.33,392.37 666.19,396.85C670.59,403.13 666.6,412.89 675.16,416.78C675.13,428.44 678.25,433.37 679.95,445.05C683.15,452.08 690.13,443.29 690.88,451.12C697.4,463.04 702.74,474.74 700.91,488.87C699.06,492.92 696.06,496.3 694.09,500.07C694.19,506.41 694.16,511.23 691.18,517C690.94,513.6 690.89,510.17 690.73,506.76C691.95,498.44 689.4,491.32 688.17,483.27C690.27,477.41 692.28,472.99 695.37,481.77C699.67,478.02 691.13,464.72 686.3,463.61C676.76,452.74 672.52,441.38 669.7,427.18C666.76,414.62 662.04,402.29 661.42,389.59C655.33,379.41 654.36,367.03 647.58,357.4C646.38,355.04 648.88,351.28 646.32,349.77C638.43,351.16 639.41,337.35 634.53,334.86C626.16,333.55 633.85,341.64 635.82,345.18C639.42,351.36 635.35,353.19 631.85,357.4C632.06,361.23 631.53,363.42 630.21,366.94C629.64,369.75 641.61,365.72 638.21,370.29C631.76,384.65 650.94,397.53 648.35,409.68C650.64,413.3 651.62,417.38 653.56,421.16C651.6,421.78 644.27,423.34 645.12,428C647.48,427.59 649.68,426.74 651.99,426.14C651.81,434.6 645.66,438.61 648.58,447.05C645.36,453.19 643.41,459.62 634.86,458.23C616.07,440.69 603.18,419.59 592.65,396.34C585.82,381.91 579.8,365.93 580.15,349.77C580.77,352.29 581.4,354.79 581.96,357.32C582.6,362.73 583.11,369.23 586.12,373.89C592.54,369.69 588.24,371.92 590.78,375.72C589.64,364.48 600.52,370.35 602.57,362.36C606.78,360.97 603.64,364.15 603.44,366.22C609.41,365 603.07,357.67 609.21,361.66C611.92,360.47 610.35,351.77 615.05,352.11C622.86,350.77 622.73,344.7 628.91,339.86C628.3,333.38 619.21,325.53 630.72,323.13Z" style="fill:rgb(216,171,121);fill-rule:nonzero;"/>
                <path d="M634.53,334.86C639.41,337.35 638.43,351.16 646.32,349.77C648.88,351.28 646.38,355.04 647.58,357.4C654.36,367.03 655.33,379.41 661.42,389.59C662.04,402.29 666.76,414.62 669.7,427.18C672.52,441.38 676.76,452.74 686.3,463.61C691.13,464.72 699.67,478.02 695.37,481.77C692.28,472.99 690.27,477.41 688.17,483.27C685.82,475.15 684.73,467.5 679.02,460.85C677.47,458.05 676.34,455.05 674.86,452.22C663.54,461.86 648.21,465.93 634.86,458.23C643.41,459.62 645.36,453.19 648.58,447.05C645.66,438.61 651.81,434.6 651.99,426.14C649.68,426.74 647.48,427.59 645.12,428C644.27,423.34 651.6,421.78 653.56,421.16C651.62,417.38 650.64,413.3 648.35,409.68C650.94,397.53 631.76,384.65 638.21,370.29C641.61,365.72 629.64,369.75 630.21,366.94C631.53,363.42 632.06,361.23 631.85,357.4C635.35,353.19 639.42,351.36 635.82,345.18C633.85,341.64 626.16,333.55 634.53,334.86Z" style="fill:rgb(195,149,95);fill-rule:nonzero;"/>
                <path d="M512.33,377.6C513.72,383.25 516.58,389.63 512.93,394.97C510.11,400.41 503.92,402.54 507.63,409.4C510.31,415.11 502.26,417.22 512.34,419.03C509.78,419.43 507.4,418.94 504.89,418.43C509.91,423.3 508.96,426.05 504.26,430.19C499.55,427.74 500.4,432.02 501.59,434.9C504.3,433.46 506.66,429.49 509.98,431.79C508.01,432.24 507.42,431.47 507.49,433.85C507.14,441.3 499.81,446.12 500.6,455.49C503.53,461.57 502,468.72 498.2,474.05C498.31,464.88 499.11,460.53 495.27,451.85C494.43,445.99 497.08,439.9 498.11,434.12C503.21,425.03 499.13,416.14 502.73,406.82C503.95,400.74 499.89,393.33 499.19,387.35C499.29,386.17 499.4,385.07 499.05,383.92C494.96,376.38 508.39,377.45 512.33,377.6Z" style="fill:rgb(153,138,121);fill-rule:nonzero;"/>
                <path d="M519.38,378.09C523.21,378.88 532.58,381.66 531.03,386.97C529.88,390.65 534.09,403.08 527.21,400.29C529.22,407.76 525.24,412.95 524.17,420.04C523.95,425.73 523.86,431.32 522.63,436.91C518.24,436.42 514.01,433.53 509.98,431.79C506.66,429.49 504.3,433.46 501.59,434.9C500.4,432.02 499.55,427.74 504.26,430.19C508.96,426.05 509.91,423.3 504.89,418.43C507.4,418.94 509.78,419.43 512.34,419.03C513.52,419.2 514.7,419.4 515.88,419.51C519.96,410.71 512.16,404.77 518.37,396.31C513.12,391.22 519.77,384.97 519.38,378.09Z" style="fill:rgb(194,177,159);fill-rule:nonzero;"/>
                <path d="M507.49,433.85C513.16,435.8 519.17,438.32 523.81,442.19C529.12,447.62 527.86,454.36 525.69,460.87C524.55,471.26 520.57,468.15 514.09,463.9C508.83,459.18 514.52,468.63 511.29,470.3C508.9,473.81 508.62,477.67 507.74,481.68C503.45,480.87 500.74,478.25 497.09,476.2C494.12,480.38 493.82,486.63 490.16,490.13C482.18,495.46 486.5,503.52 478.31,508.42C477.2,510.16 486.72,514.36 486.45,509.41C487.91,500.58 495.88,508.87 499.64,511.32C496.65,521.66 489.81,527.88 479.13,529.97C474.61,526.59 471.16,522.42 465.87,519.87C471.75,514.5 471.76,507.61 475.51,501.15C484.18,502.51 482.85,491.22 485.23,486.21C488.47,480.92 488.03,478.55 486.28,472.82C489.26,465.74 494.37,460.03 495.27,451.85C499.11,460.53 498.31,464.88 498.2,474.05C502,468.72 503.53,461.57 500.6,455.49C499.81,446.12 507.14,441.3 507.49,433.85Z" style="fill:rgb(205,190,177);fill-rule:nonzero;"/>
                <path d="M611.81,444.85C618.93,452.86 625.54,461.2 633.45,468.5C642.12,468.61 649.01,472.7 658.01,470.32C650.86,486.73 641.16,501.45 636.12,519.12C629.62,536.56 627.83,555.17 621.63,572.81C619.21,579.88 617.66,587.18 615.15,594.23C614.54,587.85 617.75,582.9 618.98,576.4C613.85,574.62 615.28,591.41 611.31,593.33C607.66,592.7 604.1,591.99 600.4,591.65C600.15,589.04 598.84,581.13 595.63,586.66C592.45,588.77 589.5,583.69 595.94,583.51C591.22,580.17 593.9,575.32 590.63,571.33C584.41,566.49 594.65,559.35 596.29,554.24C604,543.71 607.02,530.28 613.72,518.9C612.14,513.37 610.27,523.85 607.32,523.66C603.23,519.48 599.64,515.36 593.61,519.61C591.21,521.49 580.45,526 582.52,519.22C582.98,516.5 588.27,514.18 583.97,512.55C589.2,504.28 595.1,495.53 598.39,486.27C605.16,473.01 607.27,458.47 611.81,444.85Z" style="fill:rgb(168,144,103);fill-rule:nonzero;"/>
                <path d="M530.59,447.81C532.88,453.84 536.7,444.77 539.59,449.31C540.62,455.77 538.63,455.91 545.75,456.58C544.56,459.22 541.8,462.41 547.02,461.94C551.41,461.68 555.87,466.03 559.68,468C560.14,460.02 559.75,460.64 567.26,458.55C571.59,461.74 562.19,474.92 570.86,472.1C562.69,475.58 575.59,478.02 578.03,479.94C573.73,481 567.99,476.75 566.06,482.06C564.64,486.55 560.24,490.1 559.86,494.62C562.97,491.74 570.16,494.6 564.01,496.98C569.1,497.75 573.99,495 578.83,496.04C581.09,495.88 578.81,503.44 581.48,501.55C582.89,497.72 582.33,496.66 586.79,496.17C586.93,489.27 595.02,492.37 594.59,485.96C594.56,482.32 596.73,485.71 598.39,486.27C595.1,495.53 589.2,504.28 583.97,512.55C573.9,525.11 561.67,535.4 548.32,544.29C531.05,552.07 513.13,556.56 494.79,560.63C484.58,562.15 474.7,564.94 464.59,567.01C461.68,567.13 459.62,567.91 457.2,569.47C459.03,570.38 459.85,569.66 459.16,572.02C456.7,572.18 455.09,570.77 452.96,569.8C446.56,569.04 439.28,573.59 431.76,572.28C425.47,571.36 418.71,573 412.67,571.17C413.59,559.84 420.14,555.41 430.08,551.9C440.78,547.23 447.55,539.6 455.17,531.18C458.43,527 461.86,523.34 465.87,519.87C471.16,522.42 474.61,526.59 479.13,529.97C489.81,527.88 496.65,521.66 499.64,511.32C495.88,508.87 487.91,500.58 486.45,509.41C486.72,514.36 477.2,510.16 478.31,508.42C486.5,503.52 482.18,495.46 490.16,490.13C493.82,486.63 494.12,480.38 497.09,476.2C500.74,478.25 503.45,480.87 507.74,481.68C508.62,477.67 508.9,473.81 511.29,470.3C514.52,468.63 508.83,459.18 514.09,463.9C520.57,468.15 524.55,471.26 525.69,460.87C526.97,470.76 530.63,457.7 532.38,455.39C529.85,452.94 530.49,451.03 530.59,447.81Z" style="fill:rgb(111,73,57);fill-rule:nonzero;"/>
                <path d="M512.63,453.38C517.68,453.48 513.5,465.02 512.47,456.41C510.52,455.56 508.31,455.2 506.28,454.56C504.56,450.02 510.48,453.12 512.63,453.38Z" style="fill:rgb(120,106,89);fill-rule:nonzero;"/>
                <path d="M723.73,451.79C729.08,455.02 736.42,450.11 736.99,457.08C737.82,460.91 739.83,463.86 734.38,464.49C734.06,470.17 731.61,474.01 732.9,479.84C725.11,476 726.87,491.11 731.29,490.75C728.56,496.1 732.56,495.8 736.5,496.65C735.1,502.8 742,501.68 745.71,500.31C747.24,496.45 745.56,493.83 745.08,490.12C746.53,486.81 749.12,484.9 749.76,480.99C750.19,482.11 749.44,486.94 750.9,486.81C751.07,482.79 751,478.77 751.26,474.76C752.53,479.87 752.06,485.51 751.72,490.76C750.78,494.59 751.19,498.46 750.58,502.31C745.07,500.04 747.53,506.33 744.71,508.44C740.78,509.54 742.5,506.6 741.58,503.97C738.47,508.77 740.2,511.54 742.89,515.79C739.26,519.29 738.51,521.7 737.45,526.54C735.06,531.11 737.45,520.67 733.28,521.54C723.92,515.26 727.4,533.96 720.84,535.68C713.64,535.51 706.51,547.5 713.57,552.39C718.5,554.79 711.41,556.6 716.12,561.01C722.04,567.02 709.95,564.17 712.54,570.58C714.44,574.62 711.22,579.5 710.57,583.76C708.87,595.79 710.09,608.67 709.07,620.05C701.85,625.36 698.75,634 698.67,642.79C696.29,646.76 692.85,652.61 694.24,657.37C686.51,657.59 690.91,663.27 683.64,662.57C684.2,669.76 677.22,668.62 682.77,673.07C676.48,679.37 683.87,684.37 678.4,690.23C676.25,694.71 677.49,698.48 672.39,698.31C671.3,703.73 673.45,703.93 667.31,703.3C663.79,706.95 665.67,716.6 660.68,719.7C657.55,720.43 653.98,719.39 650.74,719.51C656.12,702.3 665.62,686.83 670.51,669.61C674.34,651.33 679.04,633.51 680.65,614.82C683.96,595.53 682.04,576.3 684.16,556.99C686.26,540.22 688.82,523.56 690.73,506.76C690.89,510.17 690.94,513.6 691.18,517C694.16,511.23 694.19,506.41 694.09,500.07C696.06,496.3 699.06,492.92 700.91,488.87C704.59,483.04 708.65,485.67 708.28,477.18C706.23,470.56 723.58,465.99 713,462.9C704.31,459.47 720.75,447.98 719.99,456.02C718.95,461.97 724,453.92 727.82,455.76C725,453.57 723.4,457.15 723.73,451.79Z" style="fill:rgb(232,191,158);fill-rule:nonzero;"/>
                <path d="M671.29,460.52C677.13,462.58 674.03,464.57 676.95,467.43C671.13,494.22 661.44,520.34 650.46,545.4C638.08,572.58 624.49,596.27 619.17,626.85C623.11,635.11 626.68,642.96 629.07,651.88C630.37,657.94 631.58,663.61 628.38,669.39C626.76,671.97 622.53,673.41 627.31,675.71C637.79,679.93 635.65,689.76 644.26,695.73C648.05,699.66 650.98,695.95 655.41,697.85C638.89,705.79 614.9,700.29 599.16,709.95L598.38,710.18C598.37,703.35 593.1,696.57 593.35,690.43C599.75,685.79 603.67,680.71 604.61,672.63C608.26,651.08 607.23,629.43 612,607.95C613.4,603.5 614.1,598.79 615.15,594.23C617.66,587.18 619.21,579.88 621.63,572.81C621.85,573.9 622.09,574.98 622.34,576.06C624.06,571.09 627.31,567.69 627.18,562.38C631.07,565.93 626.79,559.46 629.28,558.32C631.35,555.31 635.54,555.89 636.54,552.45C638.93,549.57 636.88,537.97 639.88,547.04C644.13,541.69 630.26,535.71 639.07,538.7C641.83,537.77 644.39,533.01 647.26,535.71C650.2,532.95 649.96,531.97 648.47,528.46C659.73,526.05 645.61,516.05 655.2,512.96C654.07,506.07 655.78,508.06 659.97,511.01C656.41,503.29 655.79,502.44 663.65,497.8C665.3,494.1 666.12,487.24 667.73,482.83C669.37,478.56 665.31,473.22 669.65,470.91C667.15,466.37 669.72,464.61 671.29,460.52Z" style="fill:rgb(115,85,56);fill-rule:nonzero;"/>
                <path d="M486.28,472.82C488.03,478.55 488.47,480.92 485.23,486.21C482.85,491.22 484.18,502.51 475.51,501.15C479.63,492.14 483.66,482.37 486.28,472.82Z" style="fill:rgb(114,100,92);fill-rule:nonzero;"/>
                <path d="M751.72,490.76C754.03,528.83 746.5,565.19 735.4,601.38C729.67,619.33 721.13,635.28 718.15,654.07C718.11,665.5 710.26,674.32 714.2,684.81C711.84,692.23 717.07,697.37 718.18,704.86C725.36,708.91 708.24,712.98 717.38,713.36C725.61,709.86 725.65,715.64 730.81,720.09C725.53,720.72 722.8,716.74 717.96,719.58C723.37,718.96 725.52,723.65 719.97,724.98C717.86,725.14 706.92,729.96 711.39,724.44C708.54,721.63 709.1,713.82 703.38,720.29C705.01,723.98 709.67,730.46 715.16,728.23C725.55,723.39 733.57,727.97 743.86,729.97C739.07,731.72 723.69,724.92 718.76,730.74C721.98,741.06 698.99,727.02 700.53,739.59C700.48,743.17 703.51,743.2 706.18,742.22C711.88,740.06 717.56,742.22 723,739.41C726.61,742.48 731.7,747.1 736.8,746.73C743.15,744.87 751.49,744.82 756.31,750.04C751.25,751.23 746.14,751.23 740.98,750.94C725.54,748.85 709.69,750.75 694.16,749.78C687.74,749.44 683.22,742.44 677.63,739.38C668.91,733.44 664.93,739.25 658.76,744.76C651.65,753.66 639.94,753.91 629.61,752.39C624.92,750.26 627.85,748.65 630.27,746.3C640.58,740.1 647.23,730.95 650.74,719.51C653.98,719.39 657.55,720.43 660.68,719.7C665.67,716.6 663.79,706.95 667.31,703.3C673.45,703.93 671.3,703.73 672.39,698.31C677.49,698.48 676.25,694.71 678.4,690.23C683.87,684.37 676.48,679.37 682.77,673.07C677.22,668.62 684.2,669.76 683.64,662.57C690.91,663.27 686.51,657.59 694.24,657.37C692.85,652.61 696.29,646.76 698.67,642.79C698.75,634 701.85,625.36 709.07,620.05C710.09,608.67 708.87,595.79 710.57,583.76C711.22,579.5 714.44,574.62 712.54,570.58C709.95,564.17 722.04,567.02 716.12,561.01C711.41,556.6 718.5,554.79 713.57,552.39C706.51,547.5 713.64,535.51 720.84,535.68C727.4,533.96 723.92,515.26 733.28,521.54C737.45,520.67 735.06,531.11 737.45,526.54C738.51,521.7 739.26,519.29 742.89,515.79C740.2,511.54 738.47,508.77 741.58,503.97C742.5,506.6 740.78,509.54 744.71,508.44C747.53,506.33 745.07,500.04 750.58,502.31C751.19,498.46 750.78,494.59 751.72,490.76Z" style="fill:rgb(224,179,136);fill-rule:nonzero;"/>
                <path d="M583.97,512.55C588.27,514.18 582.98,516.5 582.52,519.22C580.45,526 591.21,521.49 593.61,519.61C599.64,515.36 603.23,519.48 607.32,523.66C610.27,523.85 612.14,513.37 613.72,518.9C607.02,530.28 604,543.71 596.29,554.24C594.65,559.35 584.41,566.49 590.63,571.33C593.9,575.32 591.22,580.17 595.94,583.51C589.5,583.69 592.45,588.77 595.63,586.66C598.84,581.13 600.15,589.04 600.4,591.65C604.1,591.99 607.66,592.7 611.31,593.33C615.28,591.41 613.85,574.62 618.98,576.4C617.75,582.9 614.54,587.85 615.15,594.23C614.1,598.79 613.4,603.5 612,607.95C609.53,612.68 609.66,617.91 606.76,622.59C608.53,628.35 606.62,635.93 604.91,641.69C607.59,648.19 605.79,655.38 598.03,655.94C595.87,661.22 595.1,660.66 592.98,656.28C593.73,658.57 582.68,670.82 583.57,662.19C579.29,662.12 584.34,664.71 580.72,665.65C575.28,666.41 577.13,673.71 572.98,668.09C569.27,674.14 570.59,671.38 569.68,666.17C564.99,666.21 562.82,670.37 557.79,668.85C545.26,666.69 535.04,674.36 523.18,674.88C519.86,670.14 513.82,676.38 510.9,678.78C511.17,675.1 511.76,671.46 511.78,667.76C513.26,656.87 518.03,648.08 517.08,636.94C518.42,640.36 517.21,644.41 520.94,646.06C524.06,648.01 527.42,644.95 530.22,647.77C533.55,655.73 544.87,654.84 551.9,653.81C549.62,651.4 546.93,649.56 544.34,647.53C546.32,642.36 551.15,649.11 554.01,650.11C560.12,646.27 566.07,643.88 568.67,636.55C573.87,634.39 575.63,637.42 577.35,630.4C579.44,632.24 583.83,638.08 585.16,632.54C582.56,625.1 594.16,626.8 588.25,621.78C582.36,618.85 583.74,612.92 576.78,611.1C575.02,608.41 580.01,605.83 577.23,601.67C574.47,597.72 582.27,592.24 574.53,591.71C575.79,587.88 576.96,588.55 572.3,587.67C576.38,582.18 579.2,576.81 580.84,570.08C577.8,570.19 576.23,569.02 575.74,572.85C557.29,580.28 546.67,573.43 529.07,568.13C517.58,566.03 506.25,562.52 494.79,560.63C513.13,556.56 531.05,552.07 548.32,544.29C561.67,535.4 573.9,525.11 583.97,512.55Z" style="fill:rgb(181,159,124);fill-rule:nonzero;"/>
                <path d="M455.17,531.18C447.55,539.6 440.78,547.23 430.08,551.9C431.59,546.93 428.24,537.26 435.19,536.12C442.07,533.61 447.62,531.32 455.17,531.18Z" style="fill:rgb(150,111,101);fill-rule:nonzero;"/>
                <path d="M435.19,536.12C428.24,537.26 431.59,546.93 430.08,551.9C420.14,555.41 413.59,559.84 412.67,571.17C408.92,576.73 396.95,572.82 390.99,576.91C385.15,579.03 396.38,576.82 395.7,578.91C390.78,579.74 386.67,578.22 382.01,577.17C373.78,578.58 365.68,581.05 357.52,582.61C357.97,584.6 360.47,585.8 361.27,587.79C354.38,582.05 348.35,582.46 339.86,583.47C342.79,578.41 345.89,573.66 348.44,568.36C352.35,566.31 349.87,573 350.49,575.01C362.4,569 375.13,563.82 388,560.15C392.57,562.65 392.97,557.97 398.94,558.92C402.76,559.2 402.64,551.68 403.44,549.01C400.83,549.37 398.41,549.9 395.78,549.35C408.85,545.33 421.98,538.96 435.19,536.12Z" style="fill:rgb(222,208,203);fill-rule:nonzero;"/>
                <path d="M395.78,549.35C398.41,549.9 400.83,549.37 403.44,549.01C402.64,551.68 402.76,559.2 398.94,558.92C392.97,557.97 392.57,562.65 388,560.15C375.13,563.82 362.4,569 350.49,575.01C349.87,573 352.35,566.31 348.44,568.36C345.89,573.66 342.79,578.41 339.86,583.47C348.35,582.46 354.38,582.05 361.27,587.79C362.04,589.11 362.58,590.58 363.11,592.01C365.43,599.64 362.68,606.33 367.87,613.01C365.03,615.15 360.19,619.79 356.7,616.34C353.94,612.45 346.75,616.03 349.36,610.43C345.23,610.49 332.69,611.76 334.92,616.93C324.46,616.29 323.47,624.22 313.95,622.91C315.78,622.12 317.63,621.48 319.42,620.58C320.45,619 301.16,620.97 311.79,622.25C309.42,625.11 305.92,626.41 303.61,629.25C299.26,625.49 297.55,622.83 291.14,624.03C292.14,625.76 295.81,624.45 297.07,626.75C291.92,625.6 287.21,630.02 283.08,627.8C284.02,625.43 288.02,626.85 287.91,624.15C282.28,623.22 270.12,628.19 265.45,631.25C260.98,629.37 252.42,630.59 249.63,635.65C244.07,638.04 234.06,635.94 229.27,639.34C229.56,646.35 220.69,646.56 215.59,646.47C209.2,644.16 201.33,632.75 200.16,627.82C216.39,614.62 241.66,610.03 260.87,602.88C276.04,597.89 294.21,596.63 307.18,587.16C334.11,569.83 364.61,556.64 395.78,549.35Z" style="fill:rgb(244,226,210);fill-rule:nonzero;"/>
                <path d="M494.79,560.63C506.25,562.52 517.58,566.03 529.07,568.13C527.74,568.95 526.4,569.81 525.14,570.75C539.86,575.68 553.95,580.41 563.54,591.77C561.53,594.48 561.57,593.5 559.63,591.43C555.31,591.25 560.72,599.64 557.27,602.24C553.76,607.09 552.56,602.69 548.04,602.99C551.86,606.21 551.78,609.17 552.82,613.68C542.96,611.69 535.05,600 526.55,594.48C514.37,585.4 499.77,578.12 486.72,570.49C508.49,574.84 530.15,588.78 550.66,597.28C552.87,598.4 553.92,595.36 551.57,594.53C535.64,585.62 518.91,577.15 501.37,571.64C489.13,567.39 476.9,568.37 464.59,567.01C474.7,564.94 484.58,562.15 494.79,560.63Z" style="fill:rgb(213,197,184);fill-rule:nonzero;"/>
                <path d="M464.59,567.01C476.9,568.37 489.13,567.39 501.37,571.64C518.91,577.15 535.64,585.62 551.57,594.53C553.92,595.36 552.87,598.4 550.66,597.28C530.15,588.78 508.49,574.84 486.72,570.49C499.77,578.12 514.37,585.4 526.55,594.48C535.05,600 542.96,611.69 552.82,613.68C551.78,609.17 551.86,606.21 548.04,602.99C552.56,602.69 553.76,607.09 557.27,602.24C560.72,599.64 555.31,591.25 559.63,591.43C561.57,593.5 561.53,594.48 563.54,591.77C553.95,580.41 539.86,575.68 525.14,570.75C526.4,569.81 527.74,568.95 529.07,568.13C546.67,573.43 557.29,580.28 575.74,572.85C576.23,569.02 577.8,570.19 580.84,570.08C579.2,576.81 576.38,582.18 572.3,587.67C576.96,588.55 575.79,587.88 574.53,591.71C582.27,592.24 574.47,597.72 577.23,601.67C580.01,605.83 575.02,608.41 576.78,611.1C583.74,612.92 582.36,618.85 588.25,621.78C594.16,626.8 582.56,625.1 585.16,632.54C583.83,638.08 579.44,632.24 577.35,630.4C575.63,637.42 573.87,634.39 568.67,636.55C566.07,643.88 560.12,646.27 554.01,650.11C551.15,649.11 546.32,642.36 544.34,647.53C546.93,649.56 549.62,651.4 551.9,653.81C544.87,654.84 533.55,655.73 530.22,647.77C527.42,644.95 524.06,648.01 520.94,646.06C517.21,644.41 518.42,640.36 517.08,636.94C516.06,633.29 515.34,629.6 514.08,626.02C514.73,626.27 515.39,626.51 516.05,626.74C512.64,615.61 504.7,607.25 500.01,597.03C508.1,606.31 518.13,614.45 525.42,624.19C521.74,630.31 528.45,626.27 531.86,626.67C533.58,621.79 523.83,619.89 521.29,616.69C512.92,608.33 504.93,598.56 497.9,589.11C506.38,594.43 513.75,605.89 522.44,609.53C520.96,605.25 514.94,602.05 514.06,597.03C518.34,598.88 526.73,605.95 525.71,611.19C531.81,610.33 534.12,621.72 541.98,619.91C537.73,607.58 528.98,604.07 521.23,594.79C510.71,585.54 499.66,579.33 486.69,574.28C480.17,568.03 475.49,573.42 467.93,571.19C464.81,570.66 462.2,571.57 459.16,572.02C459.85,569.66 459.03,570.38 457.2,569.47C459.62,567.91 461.68,567.13 464.59,567.01Z" style="fill:rgb(185,166,141);fill-rule:nonzero;"/>
                <path d="M452.96,569.8C450.46,570.27 448.15,571.07 446.12,572.64C460.87,578.26 474.32,585.05 483.27,598.63C479.76,602.84 476.11,595.93 471.63,596.19C468.07,596.38 452.05,594.06 457.4,601.31C449.54,602.15 440.43,600.32 432.52,600.62C427.1,604.15 422.78,597.7 418.47,602.34C416.03,604.66 418.87,599.19 416.36,600.43C409,600.67 399.03,601.33 392.36,604.29C386.08,606.97 391.07,613.88 387.89,616.91C381.19,619.54 381.54,612.56 375.16,614.12C375.99,619.06 376.35,623.04 374.91,627.94C373.55,622.71 376.52,618.33 372.22,612.77C369.85,605.64 366.9,598.32 363.71,591.52C373.37,589.74 383.94,594.24 393.21,587.46C399.92,588.81 407.11,585.24 412.8,585.02C420.68,580.92 431.37,583.94 440.21,581.32C443.62,579.63 443.63,581.99 445.9,583.96C445.65,579.99 443.25,577.36 442.1,573.74C439.22,572.47 435,573.28 431.76,572.28C439.28,573.59 446.56,569.04 452.96,569.8Z" style="fill:rgb(138,90,77);fill-rule:nonzero;"/>
                <path d="M452.96,569.8C455.09,570.77 456.7,572.18 459.16,572.02C462.2,571.57 464.81,570.66 467.93,571.19C475.49,573.42 480.17,568.03 486.69,574.28C499.66,579.33 510.71,585.54 521.23,594.79C528.98,604.07 537.73,607.58 541.98,619.91C534.12,621.72 531.81,610.33 525.71,611.19C526.73,605.95 518.34,598.88 514.06,597.03C514.94,602.05 520.96,605.25 522.44,609.53C513.75,605.89 506.38,594.43 497.9,589.11C504.93,598.56 512.92,608.33 521.29,616.69C523.83,619.89 533.58,621.79 531.86,626.67C528.45,626.27 521.74,630.31 525.42,624.19C518.13,614.45 508.1,606.31 500.01,597.03C504.7,607.25 512.64,615.61 516.05,626.74C515.39,626.51 514.73,626.27 514.08,626.02C504.08,616.7 493.3,608.09 483.27,598.63C474.32,585.05 460.87,578.26 446.12,572.64C448.15,571.07 450.46,570.27 452.96,569.8Z" style="fill:rgb(208,191,180);fill-rule:nonzero;"/>
                <path d="M412.67,571.17C418.71,573 425.47,571.36 431.76,572.28C435,573.28 439.22,572.47 442.1,573.74C443.25,577.36 445.65,579.99 445.9,583.96C443.63,581.99 443.62,579.63 440.21,581.32C431.37,583.94 420.68,580.92 412.8,585.02C407.11,585.24 399.92,588.81 393.21,587.46C383.94,594.24 373.37,589.74 363.71,591.52L363.11,592.01C362.58,590.58 362.04,589.11 361.27,587.79C360.47,585.8 357.97,584.6 357.52,582.61C365.68,581.05 373.78,578.58 382.01,577.17C386.67,578.22 390.78,579.74 395.7,578.91C396.38,576.82 385.15,579.03 390.99,576.91C396.95,572.82 408.92,576.73 412.67,571.17Z" style="fill:rgb(158,110,99);fill-rule:nonzero;"/>
                <path d="M363.11,592.01L363.71,591.52C366.9,598.32 369.85,605.64 372.22,612.77C376.66,622.87 363.88,629.36 358.47,635.4C358.09,643.78 344.6,634.58 345.98,641.08C338.82,644.6 335.36,644.6 327.72,642.56C320.53,645.26 312.98,645.82 307.37,640.05C309.15,644.95 300.19,646.45 296.99,648.22C284.76,643.28 278.03,649.64 266.34,651.24C260.35,652.42 256.88,658.06 250.75,654.33C243,650.42 241.49,660.27 232.99,657.92C224.59,654.79 221.16,662.73 213.13,658.89C208.44,654.49 206.73,650.16 199.37,650.12C195.92,644.11 201.04,641.83 192.07,636.82C194.25,633.24 196.79,630.32 200.16,627.82C201.33,632.75 209.2,644.16 215.59,646.47C220.69,646.56 229.56,646.35 229.27,639.34C234.06,635.94 244.07,638.04 249.63,635.65C252.42,630.59 260.98,629.37 265.45,631.25C270.12,628.19 282.28,623.22 287.91,624.15C288.02,626.85 284.02,625.43 283.08,627.8C287.21,630.02 291.92,625.6 297.07,626.75C295.81,624.45 292.14,625.76 291.14,624.03C297.55,622.83 299.26,625.49 303.61,629.25C305.92,626.41 309.42,625.11 311.79,622.25C301.16,620.97 320.45,619 319.42,620.58C317.63,621.48 315.78,622.12 313.95,622.91C323.47,624.22 324.46,616.29 334.92,616.93C332.69,611.76 345.23,610.49 349.36,610.43C346.75,616.03 353.94,612.45 356.7,616.34C360.19,619.79 365.03,615.15 367.87,613.01C362.68,606.33 365.43,599.64 363.11,592.01Z" style="fill:rgb(240,211,186);fill-rule:nonzero;"/>
                <path d="M471.63,596.19C476.11,595.93 479.76,602.84 483.27,598.63C493.3,608.09 504.08,616.7 514.08,626.02C515.34,629.6 516.06,633.29 517.08,636.94C518.03,648.08 513.26,656.87 511.78,667.76C510.02,672.81 509.68,678.09 508.3,683.25C507.82,680.84 509.96,672.3 505.16,673.36C499.61,675.49 499.78,665.29 503.76,663.74C505.64,661.07 504.6,655.32 503.67,652.32C500.2,652.24 489.83,650.41 488.06,653.15C490.56,660.22 487.51,668.1 479.16,667.81C472.91,666.63 464.73,674.83 461.25,666.71C455.99,661.29 464.01,656.97 456.11,654.21C460.37,654.75 465.6,651.94 462.68,647.35C459.91,641.06 472.66,643.38 471.83,640.21C465.87,639.75 459.76,639.64 453.83,639.2C451.67,638.04 451.13,637.89 453.95,637.22C454.56,634.07 448.16,633.23 445.99,632.96C441.4,631.77 441.73,638.62 440.78,641.46C446.16,644.94 438.03,647.94 438.28,642.83C436.52,635.92 434.21,643 432.13,644.99C431.15,642.58 432.98,637.57 429.07,637.98C425.82,639.56 426.59,640.05 427.82,642.84C420.91,647.28 427.51,656.21 419.09,661.11C414.17,665.41 407.28,656.43 407.58,663.81C406.26,662.89 401.96,662.27 404.32,660.3C408,657.3 402.55,653.94 400.91,651.21C397.61,651.94 402.77,665.13 396.99,661.76C394.13,662.66 397.66,666.25 396.55,668.67C396.42,672.28 391.81,669.42 391.59,674.13C391.14,673 390.68,671.89 390.22,670.77C387.54,658.99 383.89,647.37 380.32,635.83C379.22,631.99 377.98,630.4 374.91,627.94C376.35,623.04 375.99,619.06 375.16,614.12C381.54,612.56 381.19,619.54 387.89,616.91C391.07,613.88 386.08,606.97 392.36,604.29C399.03,601.33 409,600.67 416.36,600.43C418.87,599.19 416.03,604.66 418.47,602.34C422.78,597.7 427.1,604.15 432.52,600.62C440.43,600.32 449.54,602.15 457.4,601.31C452.05,594.06 468.07,596.38 471.63,596.19Z" style="fill:rgb(116,74,53);fill-rule:nonzero;"/>
                <path d="M612,607.95C607.23,629.43 608.26,651.08 604.61,672.63C603.67,680.71 599.75,685.79 593.35,690.43C593.1,696.57 598.37,703.35 598.38,710.18C597.54,712.89 597.27,715.09 593.96,713.08C589.44,709.24 588.1,700.74 585.28,695.7C563.09,695.16 549.14,696.33 526.99,699.72C518.78,697.84 515.76,697.43 507.51,699.54C507.57,703.01 501.89,709.85 502.97,702.02C505.33,696.29 507.2,689.36 508.3,683.25C509.68,678.09 510.02,672.81 511.78,667.76C511.76,671.46 511.17,675.1 510.9,678.78C513.82,676.38 519.86,670.14 523.18,674.88C535.04,674.36 545.26,666.69 557.79,668.85C562.82,670.37 564.99,666.21 569.68,666.17C570.59,671.38 569.27,674.14 572.98,668.09C577.13,673.71 575.28,666.41 580.72,665.65C584.34,664.71 579.29,662.12 583.57,662.19C582.68,670.82 593.73,658.57 592.98,656.28C595.1,660.66 595.87,661.22 598.03,655.94C605.79,655.38 607.59,648.19 604.91,641.69C606.62,635.93 608.53,628.35 606.76,622.59C609.66,617.91 609.53,612.68 612,607.95Z" style="fill:rgb(185,157,99);fill-rule:nonzero;"/>
                <path d="M372.22,612.77C376.52,618.33 373.55,622.71 374.91,627.94C377.98,630.4 379.22,631.99 380.32,635.83C376.22,643.31 386.14,645.72 378.91,646.89C376.02,644.48 374.93,657.31 370.04,653.98C366.27,652.04 364.25,654.27 360.74,655.3C353.84,655.44 344,658.28 340.8,664.91C335.99,667.95 334.56,660.97 329.66,665.66C323.79,672.27 315.32,668.59 309.99,674.07C303.84,677.21 288.74,667.79 284.49,675.54C280.33,669.67 267.93,669.91 265.18,675.81C262.76,670.15 260.73,671.66 255.06,673.15C248.2,671 241.25,673.11 234.59,671.06C237.56,667.54 228.93,667.03 227.02,666.84C218.75,665.39 212.57,667.88 204.63,669.45C203.74,665.78 202.93,656.32 196.99,659.56C190.97,656.68 192.31,649.76 186.97,647.63C188.02,643.68 189.73,640.15 192.07,636.82C201.04,641.83 195.92,644.11 199.37,650.12C206.73,650.16 208.44,654.49 213.13,658.89C221.16,662.73 224.59,654.79 232.99,657.92C241.49,660.27 243,650.42 250.75,654.33C256.88,658.06 260.35,652.42 266.34,651.24C278.03,649.64 284.76,643.28 296.99,648.22C300.19,646.45 309.15,644.95 307.37,640.05C312.98,645.82 320.53,645.26 327.72,642.56C335.36,644.6 338.82,644.6 345.98,641.08C344.6,634.58 358.09,643.78 358.47,635.4C363.88,629.36 376.66,622.87 372.22,612.77Z" style="fill:rgb(232,195,160);fill-rule:nonzero;"/>
                <path d="M445.99,632.96C448.16,633.23 454.56,634.07 453.95,637.22C451.13,637.89 451.67,638.04 453.83,639.2C459.76,639.64 465.87,639.75 471.83,640.21C472.66,643.38 459.91,641.06 462.68,647.35C465.6,651.94 460.37,654.75 456.11,654.21C464.01,656.97 455.99,661.29 461.25,666.71C464.73,674.83 472.91,666.63 479.16,667.81C487.51,668.1 490.56,660.22 488.06,653.15C489.83,650.41 500.2,652.24 503.67,652.32C504.6,655.32 505.64,661.07 503.76,663.74C499.78,665.29 499.61,675.49 505.16,673.36C509.96,672.3 507.82,680.84 508.3,683.25C507.2,689.36 505.33,696.29 502.97,702.02C501.92,704.07 500.82,706.08 499.55,707.99C498.08,709.53 497.28,710.74 496.74,712.85C492.6,714.31 488.34,714.83 483.99,715.17C479.06,714.08 481.59,724.22 481.04,727C482.15,731.3 477.78,738.46 482.24,740.84C450.73,744.01 419.55,744.12 388.23,748.37C386.88,748.09 378.77,748.14 384.02,746.98C396.74,745.68 409.04,741.87 421.77,741.34C427.07,739.83 432.71,742.2 436.04,737.02C439.28,730.62 439.72,722.41 437.35,715.63C426.24,714.14 415.86,710.71 404.59,710.51C401.61,709.97 400.29,710.06 399.11,706.99C398.24,703.2 397.69,699.41 396.25,695.77C394.62,688.57 393.22,681.32 391.59,674.13C391.81,669.42 396.42,672.28 396.55,668.67C397.66,666.25 394.13,662.66 396.99,661.76C402.77,665.13 397.61,651.94 400.91,651.21C402.55,653.94 408,657.3 404.32,660.3C401.96,662.27 406.26,662.89 407.58,663.81C407.28,656.43 414.17,665.41 419.09,661.11C427.51,656.21 420.91,647.28 427.82,642.84C426.59,640.05 425.82,639.56 429.07,637.98C432.98,637.57 431.15,642.58 432.13,644.99C434.21,643 436.52,635.92 438.28,642.83C438.03,647.94 446.16,644.94 440.78,641.46C441.73,638.62 441.4,631.77 445.99,632.96Z" style="fill:rgb(112,73,39);fill-rule:nonzero;"/>
                <path d="M380.32,635.83C383.89,647.37 387.54,658.99 390.22,670.77C388.59,677.51 396.7,689.28 391.57,694.53C387.93,689.98 388.43,693.16 385.1,695.6C380.48,691.61 376.19,699.08 370.91,695.03C369.16,692.16 374.24,680.52 367.12,684.05C364.06,686.48 359.76,691.54 362.3,695.66C364.61,700.46 358.44,695.4 356.85,695.32C352.47,696.02 349.29,693.26 345.11,693.24C342.01,694.31 340,696.26 336.5,695.76C335.98,685.84 327.56,701.47 324.08,694.25C317.12,693.06 320.96,696.5 318.61,699.94C317.59,692.69 309.43,695.62 304.74,696.66C305.27,690.85 295.9,693.83 298.21,697.49C298.67,701.77 294.85,698.59 292.6,698.37C286.55,696.16 274.44,702.32 270.7,696.22C268.01,695.86 265.18,696.14 262.51,695.66C262.22,689.37 252.73,688.87 248.07,689.98C240.44,686.9 231.05,678.42 223.89,686.88C221.24,692.2 216.82,695.65 212.95,699.95C208.18,699.37 213.09,693.19 207.76,698.34C204.65,693.81 203.6,686.01 195.58,689.6C190.48,681.13 199.95,677.01 195.46,668.44C194.04,661.78 189.02,658.61 186.06,652.82C186.1,651.04 186.45,649.32 186.97,647.63C192.31,649.76 190.97,656.68 196.99,659.56C202.93,656.32 203.74,665.78 204.63,669.45C212.57,667.88 218.75,665.39 227.02,666.84C228.93,667.03 237.56,667.54 234.59,671.06C241.25,673.11 248.2,671 255.06,673.15C260.73,671.66 262.76,670.15 265.18,675.81C267.93,669.91 280.33,669.67 284.49,675.54C288.74,667.79 303.84,677.21 309.99,674.07C315.32,668.59 323.79,672.27 329.66,665.66C334.56,660.97 335.99,667.95 340.8,664.91C344,658.28 353.84,655.44 360.74,655.3C364.25,654.27 366.27,652.04 370.04,653.98C374.93,657.31 376.02,644.48 378.91,646.89C386.14,645.72 376.22,643.31 380.32,635.83Z" style="fill:rgb(226,183,136);fill-rule:nonzero;"/>
                <path d="M629.07,651.88C634.93,661.57 643.66,668.74 649.9,678.13C652.61,683.17 663.75,693.33 655.41,697.85C650.98,695.95 648.05,699.66 644.26,695.73C635.65,689.76 637.79,679.93 627.31,675.71C622.53,673.41 626.76,671.97 628.38,669.39C631.58,663.61 630.37,657.94 629.07,651.88Z" style="fill:rgb(192,174,126);fill-rule:nonzero;"/>
                <path d="M186.06,652.82C189.02,658.61 194.04,661.78 195.46,668.44C199.95,677.01 190.48,681.13 195.58,689.6C196.85,693.83 202.6,689.45 203.69,696.17C205.88,701.42 209.09,709.56 215.37,710.78C218.5,712.21 221.47,708.82 224.97,710.79C224.11,715.6 234.89,716.21 238.69,716.35C243.46,717.78 233.76,725.02 238.95,723.91C245.79,724.23 242.94,716.61 249.67,719.45C254.58,713.81 254.15,713.11 261,716.98C264.95,713.41 266.95,713.42 272.26,715.27C268.9,717.35 257.94,718.36 258.53,723.5C269.57,725.63 274.68,722.1 284.61,718.9C309.6,715.74 334.16,714.37 359,719.86C366.02,722.15 369.03,720.36 375.88,719.95C368.11,724.84 375.05,725.39 379.56,726.92C386.56,728.14 379.38,735.38 377.17,738.13C366.45,741.2 358.3,740.7 347.36,741.16C345.9,744.64 340.58,739.89 337.19,740.6C320.11,742.66 300.75,738.97 284.33,737.55C276.28,731.86 267.83,731.77 258.19,730.66C251.08,731.34 237.4,722.49 234.01,730.92C221.46,729.14 214.23,721.67 206.24,712.76C195.49,703.01 192.64,692.24 190.53,678.38C187.69,669.9 185.08,661.95 186.06,652.82Z" style="fill:rgb(204,162,106);fill-rule:nonzero;"/>
                <path d="M390.22,670.77C390.68,671.89 391.14,673 391.59,674.13C393.22,681.32 394.62,688.57 396.25,695.77C395.94,699.66 399.1,707.57 394.68,709.68C370.96,712.07 344.73,707.83 321,705.94C304.14,706.6 287.72,707.91 272.26,715.27C266.95,713.42 264.95,713.41 261,716.98C254.15,713.11 254.58,713.81 249.67,719.45C242.94,716.61 245.79,724.23 238.95,723.91C233.76,725.02 243.46,717.78 238.69,716.35C234.89,716.21 224.11,715.6 224.97,710.79C221.47,708.82 218.5,712.21 215.37,710.78C209.09,709.56 205.88,701.42 203.69,696.17C202.6,689.45 196.85,693.83 195.58,689.6C203.6,686.01 204.65,693.81 207.76,698.34C213.09,693.19 208.18,699.37 212.95,699.95C216.82,695.65 221.24,692.2 223.89,686.88C231.05,678.42 240.44,686.9 248.07,689.98C252.73,688.87 262.22,689.37 262.51,695.66C265.18,696.14 268.01,695.86 270.7,696.22C274.44,702.32 286.55,696.16 292.6,698.37C294.85,698.59 298.67,701.77 298.21,697.49C295.9,693.83 305.27,690.85 304.74,696.66C309.43,695.62 317.59,692.69 318.61,699.94C320.96,696.5 317.12,693.06 324.08,694.25C327.56,701.47 335.98,685.84 336.5,695.76C340,696.26 342.01,694.31 345.11,693.24C349.29,693.26 352.47,696.02 356.85,695.32C358.44,695.4 364.61,700.46 362.3,695.66C359.76,691.54 364.06,686.48 367.12,684.05C374.24,680.52 369.16,692.16 370.91,695.03C376.19,699.08 380.48,691.61 385.1,695.6C388.43,693.16 387.93,689.98 391.57,694.53C396.7,689.28 388.59,677.51 390.22,670.77Z" style="fill:rgb(221,175,116);fill-rule:nonzero;"/>
                <path d="M714.2,684.81C718.33,701.65 722.19,713.99 738.8,722.19C751.17,730.63 764.23,733.85 778.44,737.48C782.46,738.69 787.44,743.8 781.05,746.09C772.83,747.69 764.51,747.49 756.31,750.04C751.49,744.82 743.15,744.87 736.8,746.73C731.7,747.1 726.61,742.48 723,739.41C717.56,742.22 711.88,740.06 706.18,742.22C703.51,743.2 700.48,743.17 700.53,739.59C698.99,727.02 721.98,741.06 718.76,730.74C723.69,724.92 739.07,731.72 743.86,729.97C733.57,727.97 725.55,723.39 715.16,728.23C709.67,730.46 705.01,723.98 703.38,720.29C709.1,713.82 708.54,721.63 711.39,724.44C706.92,729.96 717.86,725.14 719.97,724.98C725.52,723.65 723.37,718.96 717.96,719.58C722.8,716.74 725.53,720.72 730.81,720.09C725.65,715.64 725.61,709.86 717.38,713.36C708.24,712.98 725.36,708.91 718.18,704.86C717.07,697.37 711.84,692.23 714.2,684.81Z" style="fill:rgb(235,201,170);fill-rule:nonzero;"/>
                <path d="M585.28,695.7C588.1,700.74 589.44,709.24 593.96,713.08C597.27,715.09 597.54,712.89 598.38,710.18L599.16,709.95C599.06,714.9 597.83,719.69 595.39,724.01C593.29,715.33 581.19,724.9 576.74,726.76C570.66,731.46 570.98,726.56 573.49,722.1C562.96,723.73 563.31,716.4 559.93,709.11C558.78,706.2 557.56,704.05 559.21,701.01C564.42,704.69 563.97,715.96 568.92,717.95C569.17,712.01 565.3,705.97 563.78,700.14C563.73,697.45 558.84,698.36 557.08,698.23C542.03,700.55 526.48,703.63 511.9,707.99C508.39,708.84 501.62,712.81 499.55,707.99C500.82,706.08 501.92,704.07 502.97,702.02C501.89,709.85 507.57,703.01 507.51,699.54C515.76,697.43 518.78,697.84 526.99,699.72C549.14,696.33 563.09,695.16 585.28,695.7Z" style="fill:rgb(156,130,75);fill-rule:nonzero;"/>
                <path d="M396.25,695.77C397.69,699.41 398.24,703.2 399.11,706.99C397.75,709.54 395.97,718.39 401.33,716.62C409.34,713.51 417.85,720.21 425.95,721.96C430.54,718.19 436.26,724.33 431.98,729.01C426.43,733.1 414.6,730.56 410.53,736.52C400.89,736.49 391.36,739.48 383.22,744.21C370.09,745.32 358.03,749.18 345,749.02C328.42,748.73 313.1,750.81 297.19,745.66C286.11,744.84 276.5,735.36 266.04,737.05C262.39,735.99 259.56,734.25 255.67,735.79C248.38,734.31 241.44,731.86 234.01,730.92C237.4,722.49 251.08,731.34 258.19,730.66C267.83,731.77 276.28,731.86 284.33,737.55C300.75,738.97 320.11,742.66 337.19,740.6C340.58,739.89 345.9,744.64 347.36,741.16C358.3,740.7 366.45,741.2 377.17,738.13C379.38,735.38 386.56,728.14 379.56,726.92C375.05,725.39 368.11,724.84 375.88,719.95C369.03,720.36 366.02,722.15 359,719.86C334.16,714.37 309.6,715.74 284.61,718.9C274.68,722.1 269.57,725.63 258.53,723.5C257.94,718.36 268.9,717.35 272.26,715.27C287.72,707.91 304.14,706.6 321,705.94C344.73,707.83 370.96,712.07 394.68,709.68C399.1,707.57 395.94,699.66 396.25,695.77Z" style="fill:rgb(184,140,80);fill-rule:nonzero;"/>
                <path d="M557.08,698.23C558.84,698.36 563.73,697.45 563.78,700.14C565.3,705.97 569.17,712.01 568.92,717.95C563.97,715.96 564.42,704.69 559.21,701.01C557.56,704.05 558.78,706.2 559.93,709.11C563.31,716.4 562.96,723.73 573.49,722.1C570.98,726.56 570.66,731.46 576.74,726.76C581.19,724.9 593.29,715.33 595.39,724.01C591.86,728.79 583.4,728.25 578.3,731.28C563.25,739.5 545.74,738.84 529,739C513.08,738.29 498.1,741.99 482.24,740.84C477.78,738.46 482.15,731.3 481.04,727C481.59,724.22 479.06,714.08 483.99,715.17C485.66,721.45 484.57,732.72 486.98,738.07C494.87,742.13 493.87,732.83 501.25,734.28C506.68,734.48 506.77,726.5 505.03,722.99C501.99,717.85 505.63,709.71 496.74,712.85C497.28,710.74 498.08,709.53 499.55,707.99C501.62,712.81 508.39,708.84 511.9,707.99C526.48,703.63 542.03,700.55 557.08,698.23Z" style="fill:rgb(119,92,51);fill-rule:nonzero;"/>
                <path d="M399.11,706.99C400.29,710.06 401.61,709.97 404.59,710.51C415.86,710.71 426.24,714.14 437.35,715.63C439.72,722.41 439.28,730.62 436.04,737.02C432.71,742.2 427.07,739.83 421.77,741.34C409.04,741.87 396.74,745.68 384.02,746.98C378.77,748.14 386.88,748.09 388.23,748.37C361.85,751.48 333.48,755.2 307.06,751.84C289.62,747.85 272.46,741.95 255.67,735.79C259.56,734.25 262.39,735.99 266.04,737.05C276.5,735.36 286.11,744.84 297.19,745.66C313.1,750.81 328.42,748.73 345,749.02C358.03,749.18 370.09,745.32 383.22,744.21C391.36,739.48 400.89,736.49 410.53,736.52C414.6,730.56 426.43,733.1 431.98,729.01C436.26,724.33 430.54,718.19 425.95,721.96C417.85,720.21 409.34,713.51 401.33,716.62C395.97,718.39 397.75,709.54 399.11,706.99Z" style="fill:rgb(154,118,68);fill-rule:nonzero;"/>
                <path d="M505.03,722.99C506.77,726.5 506.68,734.48 501.25,734.28C493.87,732.83 494.87,742.13 486.98,738.07C484.57,732.72 485.66,721.45 483.99,715.17C488.34,714.83 492.6,714.31 496.74,712.85C505.63,709.71 501.99,717.85 505.03,722.99Z" style="fill:rgb(170,138,102);fill-rule:nonzero;"/>
            </g>
        </g>
    </g>
</svg>
