<?xml version="1.0" encoding="UTF-8" standalone="no"?>
<!DOCTYPE svg PUBLIC "-//W3C//DTD SVG 1.1//EN" "http://www.w3.org/Graphics/SVG/1.1/DTD/svg11.dtd">
<svg width="100%" height="100%" viewBox="0 0 1728 1728" version="1.1" xmlns="http://www.w3.org/2000/svg" xmlns:xlink="http://www.w3.org/1999/xlink" xml:space="preserve" xmlns:serif="http://www.serif.com/" style="fill-rule:evenodd;clip-rule:evenodd;stroke-linejoin:round;stroke-miterlimit:2;">
    <g transform="matrix(1,0,0,1,-8,-6075)">
        <g id="_22" serif:id="22" transform="matrix(1,0,0,1,8,6075)">
            <rect x="0" y="0" width="1728" height="1728" style="fill:none;"/>
            <g transform="matrix(3.214353,-1.855807,1.855807,3.214353,-1025.348203,753.275295)">
                <g>
                    <path d="M449.97,156.19C455.59,155.18 460.75,156.82 465.75,159.25C471.47,162.08 477.06,165.19 482.59,168.38C487.43,171.16 491.82,174.57 496.58,177.45C501.29,180.39 507.58,181.12 513,181.61C517.62,181.96 522.44,182.56 527.07,182.07C528.63,181.92 530.04,180.55 531.36,179.77C532.18,180.81 533,181.86 533.82,182.91C529.92,187.93 524.81,191.23 519.4,194.4C511.78,198.71 502.83,202.89 494,203.48C487.75,204.03 483.98,200.16 478.03,199.35C474.07,198.7 470.02,200.33 466.16,199.76C463.38,199.1 462.02,196.91 460.4,194.79C460.6,202.25 460.84,209.63 461.98,217.02C462.07,219.32 463.07,222.77 461.25,224.53C459.9,223.73 458.64,222.79 457.4,221.84C464.77,236.21 465.69,251.95 470.79,268.11C474.18,269.24 477.98,270.16 481.04,272.04C484.05,273.97 485.79,277.49 487.42,280.56C489.2,284.09 491.18,287.56 492.68,291.21C494.39,295.45 494.44,299.58 494.8,304.06C507.88,309.71 521.9,313.26 534.94,318.99C536.9,319.98 539.8,321.28 540.72,323.4C541.68,327.63 539.86,331.9 537.14,335.1C532.98,340.02 526.67,343.37 520.78,345.76C509.03,350.46 496.04,352.71 483.45,353.49C481.55,358.87 480.32,364.92 475.95,368.93C471.29,373.16 464.92,375.81 459.17,378.22C454.67,380.16 449.8,380.5 445.21,382.02C438.97,386.66 433.61,392.83 426.86,396.93C422.97,399.21 418.66,400.39 415.06,403.07C412.42,405.02 410.4,407.2 407.22,408.35C400.81,410.66 393.79,411.54 387,411.7C379.74,411.78 371.47,410.75 365.23,406.74C360.89,404.01 359.17,399.99 355.46,396.53C350.37,391.66 346.16,386.06 343.53,379.48C341.16,373.22 340.33,366.57 339.48,360C339.28,356.99 337.06,354.96 335.5,352.49C331.16,346.39 329.68,338.87 328.18,331.68C317.75,327.8 309.15,321.81 299.24,316.77C291,312.82 282.96,306.93 277.65,299.44C274.83,292.88 279.16,283.5 285.43,280.38C298.43,273.39 313.52,269.12 327.78,265.52C330.94,264.67 334.16,264.15 337.41,263.77C340.3,258.2 345.13,255.46 350.07,252.03C351.94,250.86 352.31,249.07 353.11,247.17C355.25,241.4 358.1,234.93 362.61,230.61C364.72,228.51 367.48,227.53 369.79,225.77C372.3,222.92 374.11,219.39 376.23,216.24C384.6,202.92 394.14,190.41 405.33,179.33C411.83,172.29 420.25,169.04 428.57,164.57C435.29,161.34 442.57,157.43 449.97,156.19Z" style="fill:rgb(0,28,61);fill-rule:nonzero;"/>
                    <clipPath id="_clip1">
                        <path d="M449.97,156.19C455.59,155.18 460.75,156.82 465.75,159.25C471.47,162.08 477.06,165.19 482.59,168.38C487.43,171.16 491.82,174.57 496.58,177.45C501.29,180.39 507.58,181.12 513,181.61C517.62,181.96 522.44,182.56 527.07,182.07C528.63,181.92 530.04,180.55 531.36,179.77C532.18,180.81 533,181.86 533.82,182.91C529.92,187.93 524.81,191.23 519.4,194.4C511.78,198.71 502.83,202.89 494,203.48C487.75,204.03 483.98,200.16 478.03,199.35C474.07,198.7 470.02,200.33 466.16,199.76C463.38,199.1 462.02,196.91 460.4,194.79C460.6,202.25 460.84,209.63 461.98,217.02C462.07,219.32 463.07,222.77 461.25,224.53C459.9,223.73 458.64,222.79 457.4,221.84C464.77,236.21 465.69,251.95 470.79,268.11C474.18,269.24 477.98,270.16 481.04,272.04C484.05,273.97 485.79,277.49 487.42,280.56C489.2,284.09 491.18,287.56 492.68,291.21C494.39,295.45 494.44,299.58 494.8,304.06C507.88,309.71 521.9,313.26 534.94,318.99C536.9,319.98 539.8,321.28 540.72,323.4C541.68,327.63 539.86,331.9 537.14,335.1C532.98,340.02 526.67,343.37 520.78,345.76C509.03,350.46 496.04,352.71 483.45,353.49C481.55,358.87 480.32,364.92 475.95,368.93C471.29,373.16 464.92,375.81 459.17,378.22C454.67,380.16 449.8,380.5 445.21,382.02C438.97,386.66 433.61,392.83 426.86,396.93C422.97,399.21 418.66,400.39 415.06,403.07C412.42,405.02 410.4,407.2 407.22,408.35C400.81,410.66 393.79,411.54 387,411.7C379.74,411.78 371.47,410.75 365.23,406.74C360.89,404.01 359.17,399.99 355.46,396.53C350.37,391.66 346.16,386.06 343.53,379.48C341.16,373.22 340.33,366.57 339.48,360C339.28,356.99 337.06,354.96 335.5,352.49C331.16,346.39 329.68,338.87 328.18,331.68C317.75,327.8 309.15,321.81 299.24,316.77C291,312.82 282.96,306.93 277.65,299.44C274.83,292.88 279.16,283.5 285.43,280.38C298.43,273.39 313.52,269.12 327.78,265.52C330.94,264.67 334.16,264.15 337.41,263.77C340.3,258.2 345.13,255.46 350.07,252.03C351.94,250.86 352.31,249.07 353.11,247.17C355.25,241.4 358.1,234.93 362.61,230.61C364.72,228.51 367.48,227.53 369.79,225.77C372.3,222.92 374.11,219.39 376.23,216.24C384.6,202.92 394.14,190.41 405.33,179.33C411.83,172.29 420.25,169.04 428.57,164.57C435.29,161.34 442.57,157.43 449.97,156.19Z" clip-rule="nonzero"/>
                    </clipPath>
                    <g clip-path="url(#_clip1)">
                        <path d="M449.03,162.94C454.91,161.7 460.69,163.99 464.79,168.21C471,174.48 478.67,178.53 486.4,182.63C491.78,185.36 496.79,188.06 502.98,188.19C509.38,188.31 515.79,187.23 522.2,187.15C515.55,192.52 506.35,194.24 498.04,192.98C490.49,191.49 483.43,188.7 476.22,186.61C472.38,185.47 468.24,184.94 464.53,183.43C461.26,181.99 458.96,179.31 456.51,176.8C454.76,181.8 453.08,186.66 452.52,191.97C452.14,195.87 451.82,199.72 450.57,203.46C445.07,199.44 440.5,194.52 434.39,191.28C436.04,197.51 438.4,203.42 439.56,209.78C440.99,216.26 441.09,222.85 442.79,229.27C444.24,234.91 443.9,240.36 443.46,246.09C436.55,242.28 430.82,236.75 423.91,233.01C417.92,230.25 411.27,228.76 404.94,226.97C397.56,224.69 390.2,226.79 382.24,226.05C384.15,219.45 388.36,214.67 391.9,208.95C396.56,201.97 400.91,194.66 406.13,188.08C411.24,181.66 418.57,177.75 425.43,173.43C432.68,169.19 440.73,164.56 449.03,162.94Z" style="fill:white;fill-rule:nonzero;"/>
                        <path d="M385.82,230.84C384.37,233.47 382.91,236.09 381.45,238.72C375.09,239.16 368.91,240.43 362.71,241.85C363.88,240.39 364.99,238.66 366.45,237.46C372.24,233.47 378.83,231.43 385.82,230.84Z" style="fill:white;fill-rule:nonzero;"/>
                        <path d="M394.03,231.14C400.31,231.35 406.51,232.59 412.27,235.15C405.24,243.47 400.4,253.05 395.88,262.9C394.78,265.22 393.48,267.43 392.16,269.64C385.68,268.73 379.39,267.62 373.3,265.12C374.33,260.91 376.23,257.18 378.54,253.54C382.53,247.18 386.34,240.7 390.39,234.38C391.24,233.34 392.52,231.01 394.03,231.14Z" style="fill:white;fill-rule:nonzero;"/>
                        <path d="M421.1,239.86C432.28,246.47 442.9,253.62 451.85,263.14C457.91,269.54 462.14,277.92 465.43,286.02C464.52,288.56 462.81,289.81 460.12,289.98C454.56,285.3 451.2,277.03 446.29,271.71C441.6,266.5 436.56,261.27 430.95,257.06C425.23,252.97 419.3,249.22 413,246.08C413.83,243.69 414.42,240.9 415.87,238.81C417.63,237.67 419.51,239.07 421.1,239.86Z" style="fill:white;fill-rule:nonzero;"/>
                        <path d="M377.98,244.24C376.76,246.7 375.45,249.1 374.07,251.47C370.54,251.47 367,251.44 363.47,251.28C367.86,246.91 371.86,245.16 377.98,244.24Z" style="fill:white;fill-rule:nonzero;"/>
                        <path d="M410.96,251.98C415.2,252.37 419.41,254.83 422.98,257.03C429.8,261.5 436.49,267.03 441.18,273.76C439.85,275.58 438.47,277.33 436.97,279.01C428.22,270.79 417.33,264.6 406.53,259.5C407.93,257.01 409.09,254.15 410.96,251.98Z" style="fill:white;fill-rule:nonzero;"/>
                        <path d="M371.02,256.87C370.08,259.37 369.13,261.87 368.16,264.36C360.76,264.12 353.44,265.15 346.06,265.14C347.58,263.28 349.25,261.61 351.19,260.18C356.03,255.8 364.88,257.54 371.02,256.87Z" style="fill:white;fill-rule:nonzero;"/>
                        <path d="M401.84,265.2C408.05,267.05 413.95,271.13 419.38,274.62C426.48,279.32 433.27,284.69 439.36,290.64C442.56,294.01 446.43,298.3 447.32,302.98C447.66,304.87 447.29,305.96 446.04,307.38C442.5,307.85 441.15,303.84 439.37,301.57C434.11,294.17 424.77,288.97 417.76,283.24C411.79,278.18 405.03,275.54 398.07,272.21C399.14,269.76 400.29,267.38 401.84,265.2Z" style="fill:white;fill-rule:nonzero;"/>
                        <path d="M368.27,269.83C373.94,271.69 379.33,271.68 384.45,275.08C372.36,276.25 360.14,276.1 348.01,276.79C344.37,277.03 340.92,277.97 337.42,278.94C349.77,280.36 361.79,283.83 373.14,288.86C388.79,296.08 405.14,301.86 421.23,308C420.88,309.7 420.53,311.4 420.18,313.1C394.96,304.03 368.89,293.07 342.79,287.66C333.8,285.82 324.19,283.7 315,283.78C306.38,283.79 298.43,286.45 289.8,286.94C296.42,282.81 303.81,279.17 311.5,277.68C319.54,275.87 327.79,273.81 336.01,273.17C346.77,272.14 357.97,270.08 368.78,270.64L368.27,269.83Z" style="fill:white;fill-rule:nonzero;"/>
                        <path d="M467.88,276.6C472.35,280.42 477.44,284.42 480.55,289.45C483.26,294.87 484.44,301.2 485.92,307.05C483.87,308.13 481.16,308.85 480.21,311.21C478.85,314.86 478.57,319.15 478.96,323C479.34,326.4 481.96,328.02 484.21,330.22C483.53,333.67 483.03,337.39 481.7,340.65C479.81,340.6 478,340.19 476.1,340.2C473.31,342.27 471.24,345.86 469.91,349.02C468.55,352.73 470.63,355.59 472.14,358.79C468.46,362.44 464.88,365.81 460.21,368.21C457.62,369.53 454.52,369.87 451.67,370.38C454.73,366.31 458.49,362.39 460.82,357.85C462.31,354.66 460.6,351.86 458.05,349.96C455.2,347.96 451.59,345.97 448.06,345.84C444.89,348.45 442.73,352.28 439.99,355.34C435.46,341.88 432.91,328.21 435.39,314.04C431.87,326.55 429.78,339 431.2,352.03C431.61,356.3 433.65,359.93 434.47,364.16C432.78,363.29 431.38,363.39 430.42,361.54C426.89,355.54 424.41,349.01 423.87,342.02C422.75,328.51 426.21,315.29 430.71,302.67C433.16,305.13 435.81,307.26 437.95,310.02C439.94,312.37 441.93,315.4 445.03,316.27C451.16,315.09 455.25,307.98 454.1,302C452.87,294.83 447.73,289.37 442.79,284.42C443.69,282.72 444.63,281.06 445.62,279.41C448.45,283.27 451.29,287.1 453.79,291.18C454.68,292.54 455.6,294.15 456.88,295.17C461.46,295.74 468.4,295.14 471.29,290.96C471,287.1 469.63,283.24 468.65,279.5C468.39,278.54 468.14,277.57 467.88,276.6Z" style="fill:white;fill-rule:nonzero;"/>
                        <path d="M344.49,299.66C343.02,309.01 340.99,319.03 342.01,328.99C343.22,337.28 348.18,343.91 351.97,351.09C353.45,353.71 355.59,356.06 357.4,358.48C349.42,356.09 342.99,350.13 339.33,342.75C334.86,332.05 334.97,321.38 335.14,310C335.23,306.91 335.59,303.04 337.43,300.45C339.18,298.24 342.16,299.41 344.49,299.66Z" style="fill:white;fill-rule:nonzero;"/>
                        <path d="M486.33,313.47C486.92,316.67 485.82,319.39 484.45,322.19C483.85,319.93 482.53,316.72 483.57,314.46C484.29,313.4 485.21,313.57 486.33,313.47Z" style="fill:white;fill-rule:nonzero;"/>
                        <path d="M493.72,313.02C497.53,314.89 500.99,317.39 504.85,319.18C509.52,321.51 514.39,322.6 519.4,323.9C510.62,325.19 501.54,324.83 492.71,324.37C493.07,320.59 493.27,316.79 493.72,313.02Z" style="fill:white;fill-rule:nonzero;"/>
                        <path d="M391.85,326.95C400.48,329.46 408.47,333.2 417.51,334.34C417.68,337.19 417.77,340.05 417.85,342.91C408.27,340.42 398.54,338.53 388.9,336.29C389.87,333.17 390.86,330.06 391.85,326.95Z" style="fill:white;fill-rule:nonzero;"/>
                        <path d="M477.32,345.26C478.09,346.46 478.84,347.65 479.33,348.98C478.52,350.68 477.17,351.76 475.86,353.04C475.26,351.62 474.66,350.2 474.11,348.76C475.08,347.51 476.19,346.37 477.32,345.26Z" style="fill:white;fill-rule:nonzero;"/>
                        <path d="M384.43,347.66C388.78,347.83 392.8,348.89 396.99,349.88C404.51,351.7 412.01,353.4 419.75,353.96C420.61,360.1 425.05,364.57 428.54,369.44C421.95,374.05 415.4,379.21 408.39,383.08C406.21,382.37 404.41,381.32 402.04,381.73C393.16,382.69 385.14,385.05 376.21,382.6C370.88,381.07 365.35,379.04 360.36,376.63C355.52,374.22 355.11,368.87 353.85,364.21C361.19,366.63 368.99,364.51 374.95,359.88C378.76,356.6 381.72,351.85 384.43,347.66Z" style="fill:white;fill-rule:nonzero;"/>
                        <path d="M449.99,351.31C451.42,352.34 453.3,352.96 453.28,355.04C453.24,358.59 449.85,362.1 447.79,364.79C443.3,369.96 440.33,375.74 435.44,380.42C430.17,385.58 424.33,388.97 418.35,393.34C414.82,395.69 410.24,398.63 405.87,398.49C402.83,396.63 403.76,393.83 403.5,390.8C412.53,387.33 420.77,382.27 428.37,376.32C433.4,372.29 438.03,368.09 441.78,362.8C444.54,359.02 446.81,354.66 449.99,351.31Z" style="fill:white;fill-rule:nonzero;"/>
                        <path d="M348.23,369.36C351.16,374.43 353.78,379.26 358.64,382.8C358.32,384.4 358,385.99 357.67,387.59C353.21,383.03 350.69,378.35 349.02,372.21C348.75,371.26 348.49,370.31 348.23,369.36Z" style="fill:white;fill-rule:nonzero;"/>
                        <path d="M366.87,385.07C370.56,386.53 373.94,388.32 377.97,388.75C384.75,390.02 391,388.51 397.78,388.54C397.19,389.85 396.6,391.16 396,392.47C397.07,395.87 397.92,399.28 398.46,402.81C392.47,404.58 386.16,405.01 379.96,404.29C375.38,403.68 370.55,402.15 367.23,398.78C364.17,395.77 362.92,391.16 363.81,387C364.05,385.51 365.4,384.38 366.87,385.07Z" style="fill:white;fill-rule:nonzero;"/>
                        <g transform="matrix(1,0,0,1,-3,-2)">
                            <path d="M463.522,307L465.508,306.988L468.644,316.049L467.609,318.938L463.522,307Z" style="fill:rgb(0,28,61);"/>
                            <path d="M463.514,309.44L465.82,316.027L465.833,331.459L463.562,338.047L463.514,309.44Z" style="fill:rgb(0,28,61);"/>
                            <path d="M463.586,340.026L465.87,340.006L469.239,329.672L468.217,326.531L463.586,340.026Z" style="fill:rgb(0,28,61);"/>
                            <path d="M467.837,327.578L468.228,326.549L469.333,326.531L471.102,331.483L471.132,337.641L468.931,330.681L467.837,327.578Z" style="fill:rgb(0,28,61);"/>
                            <path d="M471.77,340.024L474.073,340.016L473.99,306.959L471.753,306.995L471.77,340.024Z" style="fill:rgb(0,28,61);"/>
                            <path d="M470.849,309.672L470.84,316.141L469.293,320.517L468.19,320.516L467.607,318.939L470.849,309.672Z" style="fill:rgb(0,28,61);"/>
                        </g>
                    </g>
                </g>
            </g>
            <g id="mid" transform="matrix(2.168705,0,0,2.168705,-240.930193,45.144828)">
                <path d="M513.43,90.51C515.75,89.39 518.03,90.82 519.98,92.03C528.06,99.95 537.41,99.66 537.85,113.37C535.29,111.48 535.49,108.84 534.24,106.15C527.97,103.67 525.75,98.09 519,97.39C516.06,92.85 511.84,97.99 509.42,93.75C505.6,94.14 501.82,95.06 497.93,95.36C493.73,96.7 490.99,100.89 486.57,97.4C484.06,94.16 481.5,98.73 477.39,97.23C477.22,100.12 478.97,100.93 475.12,100.58C475.79,102.55 477.4,103.81 476.23,105.92C475.23,103.85 473.01,101.65 472.59,99.45C476.19,94.36 484.54,93.69 489.97,90.91C497.18,87.97 506.37,94.21 513.43,90.51Z" style="fill:rgb(143,130,116);fill-rule:nonzero;"/>
                <path d="M509.42,93.75C511.84,97.99 516.06,92.85 519,97.39C525.75,98.09 527.97,103.67 534.24,106.15C529.27,108.96 536.41,112.21 534.05,116.03C535.18,112.82 530.8,114.76 534.05,116.03C533.46,122.35 534.32,126.99 533.19,134.65C536.33,135.52 537.81,134.17 534.74,136.92C533.02,141.98 530.96,150.36 526.39,153.37C519.72,152.68 514.22,154.92 507.55,153.89C509.16,148.68 499.94,144.95 495.31,148.53C494.72,144.31 494.69,144.3 490.77,142.69C490.8,137.02 486.82,135.33 483.39,131.75C483.53,130.4 483.06,129.47 481.97,128.94C481.94,128.09 481.91,127.24 481.87,126.39C483.77,122.3 481.94,118.33 483.28,114.2C486,108.55 481.64,112.31 481,104.46C483.66,105.67 492.01,107.44 488.47,101.96C492.1,101.31 495.9,102.27 499.6,101.97C498.94,99.78 498.25,97.63 497.93,95.36C501.82,95.06 505.6,94.14 509.42,93.75Z" style="fill:rgb(43,31,22);fill-rule:nonzero;"/>
                <path d="M486.57,97.4C490.99,100.89 493.73,96.7 497.93,95.36C498.25,97.63 498.94,99.78 499.6,101.97C495.9,102.27 492.1,101.31 488.47,101.96C492.01,107.44 483.66,105.67 481,104.46C481.64,112.31 486,108.55 483.28,114.2C481.94,118.33 483.77,122.3 481.87,126.39C480.78,122.67 480.3,118.87 479.88,115.03C479.93,108.18 472.31,114.07 476.23,105.92C477.4,103.81 475.79,102.55 475.12,100.58C478.97,100.93 477.22,100.12 477.39,97.23C481.5,98.73 484.06,94.16 486.57,97.4Z" style="fill:rgb(92,79,68);fill-rule:nonzero;"/>
                <path d="M534.24,106.15C535.49,108.84 535.29,111.48 537.85,113.37C541.42,121.71 533.87,129.73 540.7,135.33C541.43,140.42 538.53,153.77 531.17,152.29C528.53,153.03 528.04,157.15 525.75,158.67C517.18,156.38 508.06,156.89 499.2,155.31C490.86,158.8 492.01,147.66 490.77,142.69C494.69,144.3 494.72,144.31 495.31,148.53C499.94,144.95 509.16,148.68 507.55,153.89C514.22,154.92 519.72,152.68 526.39,153.37C530.96,150.36 533.02,141.98 534.74,136.92C537.81,134.17 536.33,135.52 533.19,134.65C534.32,126.99 533.46,122.35 534.05,116.03C536.41,112.21 529.27,108.96 534.24,106.15Z" style="fill:rgb(110,77,62);fill-rule:nonzero;"/>
                <path d="M534.05,116.03C535.18,112.82 530.8,114.76 534.05,116.03Z" style="fill:rgb(71,62,53);fill-rule:nonzero;"/>
                <path d="M481.97,128.94C483.06,129.47 483.53,130.4 483.39,131.75C481.98,131.41 481.51,130.47 481.97,128.94Z" style="fill:rgb(141,133,122);fill-rule:nonzero;"/>
                <path d="M483.39,131.75C486.82,135.33 490.8,137.02 490.77,142.69C488.75,147.12 492.38,157.5 484.72,151.18C483.6,144.82 482.69,138.16 483.39,131.75Z" style="fill:rgb(135,77,63);fill-rule:nonzero;"/>
                <path d="M490.77,142.69C492.01,147.66 490.86,158.8 499.2,155.31C508.06,156.89 517.18,156.38 525.75,158.67C528.04,157.15 528.53,153.03 531.17,152.29C529.72,160.53 528.2,168.84 527.34,177.16C527.05,178.83 528.14,178.89 529.21,179.75C519.33,180.38 511.72,194.9 506.01,202.01C502.66,206.51 495.54,219.2 488.76,213.23C480.87,204.32 482.53,187.57 478.95,176.56C492.29,173.17 487.69,160.56 484.72,151.18C492.38,157.5 488.75,147.12 490.77,142.69Z" style="fill:rgb(190,138,110);fill-rule:nonzero;"/>
                <path d="M294.26,155.55C296.35,155.71 299.77,161.79 301.13,163.81C301.26,168.39 303.77,171.74 304.96,175.97C298.22,175.24 302.17,170.23 296.68,167.43C293.56,169.84 290.84,171.61 287.19,173.2C293.74,179.82 299.17,182.65 308.07,184.94C312.43,193.37 317.4,187.7 324.34,192.65C328.86,195.5 333.38,193.22 335.36,199.15C345.37,201.19 351.13,204.84 358.91,208.04C361.92,211.23 365.86,208.94 367.88,205.16C360.84,203.57 353.66,201.55 346.94,199.7C343.75,197.67 345.44,195.74 348.58,196.44C356.45,198.3 363.37,194.67 369.27,199.71C375.24,198.81 381.45,199.7 384.63,205.43C395.29,210.28 403.36,206.9 414,209.81C419.81,209.53 420.9,208.1 423.34,203.19C431.46,203.72 436.15,201.66 443.77,206.47C448.43,199.73 454.55,199.18 461.03,203.93C458.25,218.56 450.74,231.14 446.54,245.15C445.37,239.96 443.31,235.04 442.22,229.81C440.76,225.88 441.57,221.27 435.91,221.81C440.67,220.31 443.39,220.03 440.09,214.99C433.4,207.11 429.87,218.89 420.05,218.04C410.69,211.79 395.01,216.32 384.01,212.65C370.63,212.82 359.67,214.81 348.23,205.87C336.17,202.27 324.58,199.25 313.01,193.99C307.42,192.12 298.25,193.18 295.01,187C296.5,187.33 307.45,191.31 301.16,186.84C293.38,184.77 287.07,180.08 279.04,178.59C282.62,175.78 284.8,179.29 289.02,178.97C285.77,176.16 271.76,168.24 276.98,178.89C271.11,180.19 266.01,174.38 260.67,175.81C257.39,175 247.63,172.69 251.95,167.92C257.75,167.64 265.67,172.5 272.01,172.97C268.1,168.39 261.45,165.8 256.39,162.57C253.7,161.42 252.6,157.01 256.19,156.43C263.12,158.29 269.71,163.68 275.94,166.91C278.13,163.72 274.06,159.95 278.62,157.6C284.51,156.64 288.52,159.92 294.26,155.55Z" style="fill:rgb(187,131,105);fill-rule:nonzero;"/>
                <path d="M301.13,163.81C306.04,168.65 305.62,174.99 311.96,177.09C328.26,183.7 344.63,184.94 361.82,187.21C370.55,188.86 376.83,193.87 386.38,192.46C400.8,189.85 414.15,195.77 425.67,187.67C438.06,179.99 451.84,179.35 465.97,180.68C461.15,187.66 464.1,195.83 461.03,203.93C454.55,199.18 448.43,199.73 443.77,206.47C436.15,201.66 431.46,203.72 423.34,203.19C420.9,208.1 419.81,209.53 414,209.81C403.36,206.9 395.29,210.28 384.63,205.43C381.45,199.7 375.24,198.81 369.27,199.71C363.37,194.67 356.45,198.3 348.58,196.44C345.44,195.74 343.75,197.67 346.94,199.7C353.66,201.55 360.84,203.57 367.88,205.16C365.86,208.94 361.92,211.23 358.91,208.04C351.13,204.84 345.37,201.19 335.36,199.15C333.38,193.22 328.86,195.5 324.34,192.65C317.4,187.7 312.43,193.37 308.07,184.94C299.17,182.65 293.74,179.82 287.19,173.2C290.84,171.61 293.56,169.84 296.68,167.43C302.17,170.23 298.22,175.24 304.96,175.97C303.77,171.74 301.26,168.39 301.13,163.81Z" style="fill:rgb(201,149,125);fill-rule:nonzero;"/>
                <path d="M289.02,178.97C284.8,179.29 282.62,175.78 279.04,178.59C287.07,180.08 293.38,184.77 301.16,186.84C307.45,191.31 296.5,187.33 295.01,187C298.25,193.18 307.42,192.12 313.01,193.99C324.58,199.25 336.17,202.27 348.23,205.87C359.67,214.81 370.63,212.82 384.01,212.65C395.01,216.32 410.69,211.79 420.05,218.04C429.87,218.89 433.4,207.11 440.09,214.99C443.39,220.03 440.67,220.31 435.91,221.81C422.56,227.16 407.75,225.26 394.19,221.76C381.4,217.22 368.69,221.16 355.62,216.37C337.81,210.97 322.15,201.96 305.13,194.88C291.4,191.59 277.45,187.85 263.79,185.28C260.9,184.28 257.4,184.2 258.06,180.13C262.96,179.71 268.04,181.42 273,181.71C271.93,178.39 263.68,178.02 260.67,175.81C266.01,174.38 271.11,180.19 276.98,178.89C271.76,168.24 285.77,176.16 289.02,178.97Z" style="fill:rgb(156,104,79);fill-rule:nonzero;"/>
                <path d="M478.02,176.9C476,186.3 479.66,199.37 482.28,208.7C485.38,216.65 491.92,219.9 499.18,214.16C510.02,204.14 515.61,188.53 529.97,180.21C533.22,181.95 531.03,181.47 529.06,182.78C532.68,183.32 536.48,183.62 539.98,184.72C530.15,187 524.29,199.86 521.65,208.61C517.7,220.36 521.41,231.77 527.91,241.74C530.58,252.36 521.69,242.75 517.88,250.24C521.16,256.44 519.91,254.81 515.95,251.08C519.49,259.22 513.93,256.94 516.17,265.86C513.18,266.48 512.55,279.81 510.71,273.9C511.89,265.59 516.13,261.27 511.25,252.93C508.75,255.36 509.43,255.83 506.13,254.2C508.79,259.91 505.68,263.4 505.24,269.19C504.66,270.39 504.72,274.67 502.6,273.06C505.27,263.96 505.83,251.83 505.74,242.36C492.64,240.52 477.48,239.91 464.21,240.21C463.8,244.07 464.03,248.01 463.94,251.89C457.73,257.22 462.09,246.62 461.86,243.96C459.19,247.48 459.26,252.27 456.58,255.6C452.96,261.94 452.18,250.56 454.09,248.43C448.34,252.76 454,241.79 453.81,239.91C454.96,234.35 450.6,245.53 450.64,239.91C458.36,223.05 468.51,199.09 465.97,180.68C470.27,180.12 474.05,178.55 478.02,176.9Z" style="fill:rgb(217,215,208);fill-rule:nonzero;"/>
                <path d="M478.02,176.9L478.95,176.56C482.53,187.57 480.87,204.32 488.76,213.23C495.54,219.2 502.66,206.51 506.01,202.01C511.72,194.9 519.33,180.38 529.21,179.75L529.97,180.21C515.61,188.53 510.02,204.14 499.18,214.16C491.92,219.9 485.38,216.65 482.28,208.7C479.66,199.37 476,186.3 478.02,176.9Z" style="fill:rgb(39,61,39);fill-rule:nonzero;"/>
                <path d="M465.97,180.68C468.51,199.09 458.36,223.05 450.64,239.91C449.27,242.88 448.35,246.07 447.21,249.15C446.92,247.83 446.72,246.49 446.54,245.15C450.74,231.14 458.25,218.56 461.03,203.93C464.1,195.83 461.15,187.66 465.97,180.68Z" style="fill:rgb(48,69,46);fill-rule:nonzero;"/>
                <path d="M539.98,184.72C540.6,185.12 541.22,185.53 541.82,185.95C540.45,189.33 541.82,190.4 543.8,192.93C553.11,205.61 567.91,216.52 582.31,222.71C592.68,228.8 602.53,226.4 613.96,227.91C612.02,221.01 606.53,212.12 599.24,210.17C598.18,209.18 597.16,209.32 597.86,207.64C601.52,208.87 605.22,209.97 608.94,210.99C615.53,215.63 619.26,222.61 625.59,227.46C627.11,229.05 626.78,230.19 625.95,232.03C622.73,233.76 618.75,241.46 614.82,238.15C606.44,231.7 598.06,237.76 588.99,233.03C578.54,229.66 570.26,225.6 561.18,219.46C550.13,210.94 543.57,202.54 535.78,191.21C522.8,200.22 519.37,227.1 529.59,239.06C533.83,246.46 543.64,255.36 552.37,256.07C551.99,257.52 551.55,258.95 551,260.34C544.21,258.25 539.91,253.73 534.84,249.11C532.53,246.63 530.46,243.99 527.91,241.74C521.41,231.77 517.7,220.36 521.65,208.61C524.29,199.86 530.15,187 539.98,184.72Z" style="fill:rgb(31,31,23);fill-rule:nonzero;"/>
                <path d="M541.82,185.95C549.53,190.4 561.08,187.23 569.4,190.54C579.92,194.36 587.32,204.31 597.86,207.64C597.16,209.32 598.18,209.18 599.24,210.17C597,212.4 594.7,212.7 592.01,210.96C582.44,203.75 570.19,192.37 557.97,190.94C553.4,190.25 557.34,194.51 553.91,194.87C549.86,195.12 548.01,191.19 543.8,192.93C541.82,190.4 540.45,189.33 541.82,185.95Z" style="fill:rgb(200,171,155);fill-rule:nonzero;"/>
                <path d="M535.78,191.21C543.57,202.54 550.13,210.94 561.18,219.46C554.53,218.01 551.34,214.58 545.97,221.57C536.69,216.81 535.72,229.99 536.25,235.37C532.64,237.23 534.83,240.16 529.59,239.06C519.37,227.1 522.8,200.22 535.78,191.21Z" style="fill:rgb(186,138,107);fill-rule:nonzero;"/>
                <path d="M557.97,190.94C570.19,192.37 582.44,203.75 592.01,210.96C594.7,212.7 597,212.4 599.24,210.17C606.53,212.12 612.02,221.01 613.96,227.91C602.53,226.4 592.68,228.8 582.31,222.71C567.91,216.52 553.11,205.61 543.8,192.93C548.01,191.19 549.86,195.12 553.91,194.87C557.34,194.51 553.4,190.25 557.97,190.94Z" style="fill:rgb(185,135,110);fill-rule:nonzero;"/>
                <path d="M741.97,198.14C751.19,199.25 747.4,202.14 745.03,207.94C751.01,208.22 763.43,199.98 768.09,204.19C760.92,204.54 753.35,209.8 745.97,210.9C743.28,211.7 743.73,206.94 742.67,205.34C734.25,206.08 728.54,219.41 719.84,216.12C713.66,214.45 710.72,219.18 704.51,218.63C691.6,223.98 683.05,222.68 672.92,230.94C665.7,232.09 659.5,233.67 652.83,236.81C648.53,236.21 644.66,234.5 640.02,234.71C640.71,227.83 659.54,232.77 661.85,227.19C657.1,227.09 653.35,227.12 648.95,225.1C642.76,224.36 636.24,227.99 630.1,229.12C628.2,229 625.87,236.68 625.95,232.03C626.78,230.19 627.11,229.05 625.59,227.46C619.26,222.61 615.53,215.63 608.94,210.99C619.43,212.37 627.92,217.54 638.03,217.03C651.61,214.1 665.29,214.58 679.02,216.03C689.79,213.8 701.24,213.26 711.6,209.56C716.49,205.19 720.1,198.68 726.28,195.25C733.52,191.1 732.84,200.35 741.97,198.14Z" style="fill:rgb(191,141,118);fill-rule:nonzero;"/>
                <path d="M768.09,204.19C767.14,213.6 743.59,209.38 744.11,221.92C748.03,222.73 747.81,220.08 750.18,218.04C755.97,218.76 762.35,219.13 767.79,221.29C769.6,227.32 763.33,223.99 759.83,225.29C758.94,234.18 745.69,226.49 740,227.92C729.49,229.7 719.45,226.71 709.61,230.61C692.02,235.01 673.28,243.81 655.06,245.27C638.47,248.65 623.39,243.57 606.82,242.34C592.98,241.94 580.34,237.25 568.33,230.68C564.3,228.85 563.6,230.75 561.95,233.97C558.76,241.39 553.74,248.25 552.37,256.07C543.64,255.36 533.83,246.46 529.59,239.06C534.83,240.16 532.64,237.23 536.25,235.37C535.72,229.99 536.69,216.81 545.97,221.57C551.34,214.58 554.53,218.01 561.18,219.46C570.26,225.6 578.54,229.66 588.99,233.03C598.06,237.76 606.44,231.7 614.82,238.15C618.75,241.46 622.73,233.76 625.95,232.03C625.87,236.68 628.2,229 630.1,229.12C636.24,227.99 642.76,224.36 648.95,225.1C653.35,227.12 657.1,227.09 661.85,227.19C659.54,232.77 640.71,227.83 640.02,234.71C644.66,234.5 648.53,236.21 652.83,236.81C659.5,233.67 665.7,232.09 672.92,230.94C683.05,222.68 691.6,223.98 704.51,218.63C710.72,219.18 713.66,214.45 719.84,216.12C728.54,219.41 734.25,206.08 742.67,205.34C743.73,206.94 743.28,211.7 745.97,210.9C753.35,209.8 760.92,204.54 768.09,204.19Z" style="fill:rgb(173,114,72);fill-rule:nonzero;"/>
                <path d="M453.81,239.91C454,241.79 448.34,252.76 454.09,248.43C452.18,250.56 452.96,261.94 456.58,255.6C459.26,252.27 459.19,247.48 461.86,243.96C462.09,246.62 457.73,257.22 463.94,251.89C464.34,262.64 462.13,277.17 470.24,285.76C472.37,288.04 474.33,290.38 476.21,292.88C470.68,292.81 468.09,289.31 464.22,286.1C464.54,292.01 461.95,297.3 462.13,303.1C463.8,300.57 463.74,297.93 464.35,295.06C465.82,299.7 466.61,304.82 467.43,309.64C468.38,315.91 463.94,320.41 464.49,326.76C464.54,330.54 458.73,334.96 459.74,327.81C462.56,299.34 451.7,277.3 447.21,249.15C448.35,246.07 449.27,242.88 450.64,239.91C450.6,245.53 454.96,234.35 453.81,239.91Z" style="fill:rgb(169,160,149);fill-rule:nonzero;"/>
                <path d="M464.21,240.21C477.48,239.91 492.64,240.52 505.74,242.36C505.83,251.83 505.27,263.96 502.6,273.06C500.88,276.8 499.73,280.64 497.23,284C494.01,289.03 491.48,293.15 485.99,296.02C482.55,299.7 479.98,293.76 476.21,292.88C474.33,290.38 472.37,288.04 470.24,285.76C462.13,277.17 464.34,262.64 463.94,251.89C464.03,248.01 463.8,244.07 464.21,240.21Z" style="fill:rgb(41,60,46);fill-rule:nonzero;"/>
                <path d="M527.91,241.74C530.46,243.99 532.53,246.63 534.84,249.11C533.62,256.13 537.64,263.96 528.33,266.92C527.16,278.2 521.67,287.33 515.6,296.63C512.89,301.78 519.39,301.3 519.85,304.78C514.19,305.12 508.61,304.91 503,305.98C505.16,298.63 506.52,294.55 501.44,288.04C505.83,284.22 508.78,279.35 510.71,273.9C512.55,279.81 513.18,266.48 516.17,265.86C513.93,256.94 519.49,259.22 515.95,251.08C519.91,254.81 521.16,256.44 517.88,250.24C521.69,242.75 530.58,252.36 527.91,241.74Z" style="fill:rgb(210,197,180);fill-rule:nonzero;"/>
                <path d="M483.35,244.49C485.1,244.62 490.23,243.42 487.76,246.63C486.69,251.04 485.61,259.31 486.19,263.78C492.36,266.41 504.08,258.48 500.2,269.55C495.37,265.79 487.28,270.89 485.03,265.11C485.5,273.47 483.72,282.74 486.28,290.73C484.13,292.91 483.54,295.66 482.04,291.06C481.56,283.83 482.38,275.63 481.94,268.2C478.96,265.9 461.81,271.76 466.92,262.39C472.05,264.92 477.71,263.98 483.46,263.88C482.03,257.18 484.3,251.06 483.35,244.49Z" style="fill:rgb(187,188,177);fill-rule:nonzero;"/>
                <path d="M494.02,245.86C496.71,247.54 494.85,252.82 497.22,255.81C500.19,259.04 493.63,267.21 495.82,259.42C484.84,265.01 503.49,248.88 490.21,255.11C495.72,249.3 487.8,249.86 494.02,245.86Z" style="fill:rgb(173,178,172);fill-rule:nonzero;"/>
                <path d="M534.84,249.11C539.91,253.73 544.21,258.25 551,260.34C546.61,269.38 543.45,279.22 541.08,288.98C535.23,299.07 533.16,309.23 532.46,320.77C533.92,330.52 520.78,324.64 514.73,326.3C517.31,325.49 519.83,324.71 522.09,323.18C514.25,322.5 505.61,325.58 497.97,326.94C503.98,321.19 517.16,322.74 524.95,319.83C520.68,316.65 516.27,311.31 512.06,308.62C497.65,312.01 487.74,324.12 474.83,328.76C481.61,319.55 493.05,311.61 503,305.98C508.61,304.91 514.19,305.12 519.85,304.78C519.39,301.3 512.89,301.78 515.6,296.63C521.67,287.33 527.16,278.2 528.33,266.92C537.64,263.96 533.62,256.13 534.84,249.11Z" style="fill:rgb(190,172,145);fill-rule:nonzero;"/>
                <path d="M470.37,250.18C471.33,251.59 471.52,254.32 473.77,253.93C474.87,253.44 479.18,247.62 477.65,251.78C477.4,254.61 474.63,256.37 475.18,259.09C470.08,261.1 467.37,253.81 470.37,250.18Z" style="fill:rgb(167,167,158);fill-rule:nonzero;"/>
                <path d="M511.25,252.93C516.13,261.27 511.89,265.59 510.71,273.9C508.78,279.35 505.83,284.22 501.44,288.04L500.79,288.46C502.01,284.02 501.01,285.24 497.23,284C499.73,280.64 500.88,276.8 502.6,273.06C504.72,274.67 504.66,270.39 505.24,269.19C505.68,263.4 508.79,259.91 506.13,254.2C509.43,255.83 508.75,255.36 511.25,252.93Z" style="fill:rgb(129,123,113);fill-rule:nonzero;"/>
                <path d="M474.79,270.5C475.58,276.08 480.98,280.14 476.17,286.13C474.29,283.22 474.98,283.48 471.79,284.54C472.37,280.96 476.15,281.08 473.87,277.24C472.63,278.02 471.49,278.92 470.29,279.75C472.21,273.9 466.47,269.91 474.79,270.5Z" style="fill:rgb(153,151,138);fill-rule:nonzero;"/>
                <path d="M490.42,278.71C492.48,277.84 493.88,276.3 495.6,274.9C494.57,278.05 495.87,284.79 490.33,282.73C485.72,280.73 486.73,270.19 490.42,278.71Z" style="fill:rgb(171,170,157);fill-rule:nonzero;"/>
                <path d="M497.23,284C501.01,285.24 502.01,284.02 500.79,288.46C499.2,289.87 494.14,292.05 493.79,293.71C497.56,301.14 490.94,301.83 488.24,308.02C482.87,308.11 474.33,313.24 472.05,318.09C472.78,329.95 482.89,308.35 485.8,312.94C478.79,322.18 467.3,327.42 461.19,338.15C456.73,346.75 455.49,364.61 457.18,373.87C459.52,379.35 458.4,370.36 461.47,373.2C463.65,367.88 472.36,355.68 480.26,357.69C480.92,365.56 483.81,382.28 492.97,383.89C497.06,384.02 510.79,382.62 498.27,381.67C500.14,372.79 500.02,371.28 501.26,362.16C502.74,353.84 511.97,348.71 516.59,341.6C521.9,339.12 519.3,325.72 512.89,327.71C510.25,327.87 514.26,326.4 514.73,326.3C520.78,324.64 533.92,330.52 532.46,320.77C533.16,309.23 535.23,299.07 541.08,288.98C537.08,307.61 541.01,325.57 537.93,343.99C537.98,353.5 540.9,363.32 541.54,373.01C529.64,366.72 519.02,369.54 506.73,372.75C501.6,375.14 512.9,371.95 510.35,376.69C516.68,373.26 523.33,372.21 530.39,371.44C532.91,370.91 531.69,371.86 531.7,373.56C523.86,375.6 516.24,378.22 508.67,381.09C509.24,392.08 522.29,374.38 528.18,378.7C524.09,391.03 513.45,400.36 509.12,412.23C501.32,414.5 493.21,414.72 485.44,417.03C485.87,412.69 490.97,414.04 494.08,412.27C488.22,410.84 483,415.2 486.34,406.32C493.36,405.94 502.39,404.89 508.07,400.37C498.91,401.63 509.78,398.23 510.99,395.14C507.27,392.08 501.11,399.99 496.83,399.93C496.84,396.37 492.07,400.4 490,400.01C494.01,394.19 503.68,393.82 509,389.01C502.86,390.5 495.3,394.08 489.95,397.5C482.76,384.53 473.73,376.03 476.82,360.05C467.57,365.97 469.53,378.17 465.15,385.11C460.72,386.19 454.81,400.76 450.97,395.05C447.45,381.6 453.03,365.25 453.28,351.16C452.81,348.23 459.63,339.01 452.84,343.86C455.99,338.63 458.93,334.05 459.74,327.81C458.73,334.96 464.54,330.54 464.49,326.76C463.94,320.41 468.38,315.91 467.43,309.64C466.61,304.82 465.82,299.7 464.35,295.06C463.74,297.93 463.8,300.57 462.13,303.1C461.95,297.3 464.54,292.01 464.22,286.1C468.09,289.31 470.68,292.81 476.21,292.88C479.98,293.76 482.55,299.7 485.99,296.02C491.48,293.15 494.01,289.03 497.23,284Z" style="fill:rgb(202,196,184);fill-rule:nonzero;"/>
                <path d="M500.79,288.46L501.44,288.04C506.52,294.55 505.16,298.63 503,305.98C493.05,311.61 481.61,319.55 474.83,328.76C487.74,324.12 497.65,312.01 512.06,308.62C516.27,311.31 520.68,316.65 524.95,319.83C517.16,322.74 503.98,321.19 497.97,326.94C505.61,325.58 514.25,322.5 522.09,323.18C519.83,324.71 517.31,325.49 514.73,326.3C514.26,326.4 510.25,327.87 512.89,327.71C519.3,325.72 521.9,339.12 516.59,341.6C511.97,348.71 502.74,353.84 501.26,362.16C500.02,371.28 500.14,372.79 498.27,381.67C510.79,382.62 497.06,384.02 492.97,383.89C483.81,382.28 480.92,365.56 480.26,357.69C472.36,355.68 463.65,367.88 461.47,373.2C458.4,370.36 459.52,379.35 457.18,373.87C455.49,364.61 456.73,346.75 461.19,338.15C467.3,327.42 478.79,322.18 485.8,312.94C482.89,308.35 472.78,329.95 472.05,318.09C474.33,313.24 482.87,308.11 488.24,308.02C490.94,301.83 497.56,301.14 493.79,293.71C494.14,292.05 499.2,289.87 500.79,288.46Z" style="fill:rgb(218,216,211);fill-rule:nonzero;"/>
                <path d="M453.28,351.16C453.03,365.25 447.45,381.6 450.97,395.05C454.81,400.76 460.72,386.19 465.15,385.11C469.53,378.17 467.57,365.97 476.82,360.05C473.73,376.03 482.76,384.53 489.95,397.5C482.89,403.39 477.64,385.44 472.14,384.09C472.07,387.35 471.15,392.08 473.19,394.86C476.62,398.14 471.43,402.32 472.51,406.94C470.47,406.28 465.17,404.86 468.25,402.16C471.49,401.31 467.93,400.12 466.75,399.34C462.09,400.22 457.33,402.34 452.9,403.91C455.91,407.87 466.35,405.84 467.97,409.71C463.64,409.32 459.33,408.55 454.99,408.2C462.1,415.73 473.48,407.24 477.99,413.89C473.23,416.2 465.97,411.81 460.95,414.53C466.99,417.42 476.4,414.28 480.94,416.76C475.3,419.13 468.8,417.16 462.96,419.62C467.87,420.59 472.79,420.95 477.78,421.18C477.29,422.9 470.29,421.52 468.24,422.13C469.95,425.2 483.25,419.73 482.35,426.14C474.51,428.26 462.83,426.47 456.18,421.31L455.86,422.94C452.7,408.83 443.24,398.6 443.12,384.01C442.62,370.39 445.49,355.52 452.84,343.86C459.63,339.01 452.81,348.23 453.28,351.16Z" style="fill:rgb(181,172,158);fill-rule:nonzero;"/>
                <path d="M541.54,373.01C540.94,376.53 538.46,373.74 541.25,378.7C534.52,377.51 535.05,378.69 533.69,372.15C532.11,374.72 531.36,377.76 528.18,378.7C522.29,374.38 509.24,392.08 508.67,381.09C516.24,378.22 523.86,375.6 531.7,373.56C531.69,371.86 532.91,370.91 530.39,371.44C523.33,372.21 516.68,373.26 510.35,376.69C512.9,371.95 501.6,375.14 506.73,372.75C519.02,369.54 529.64,366.72 541.54,373.01Z" style="fill:rgb(167,156,134);fill-rule:nonzero;"/>
                <path d="M533.69,372.15C535.05,378.69 534.52,377.51 541.25,378.7C541,388.16 541.62,397.8 540.82,406.94C529.72,406.68 519.82,410.37 509.12,412.23C513.45,400.36 524.09,391.03 528.18,378.7C531.36,377.76 532.11,374.72 533.69,372.15Z" style="fill:rgb(42,69,46);fill-rule:nonzero;"/>
                <path d="M533.31,381.33C535.03,380.77 543.84,380.31 538.18,383.21C535.36,385.17 525.28,385.12 533.31,381.33Z" style="fill:rgb(162,169,153);fill-rule:nonzero;"/>
                <path d="M472.14,384.09C477.64,385.44 482.89,403.39 489.95,397.5C495.3,394.08 502.86,390.5 509,389.01C503.68,393.82 494.01,394.19 490,400.01C492.07,400.4 496.84,396.37 496.83,399.93C501.11,399.99 507.27,392.08 510.99,395.14C509.78,398.23 498.91,401.63 508.07,400.37C502.39,404.89 493.36,405.94 486.34,406.32C483,415.2 488.22,410.84 494.08,412.27C490.97,414.04 485.87,412.69 485.44,417.03C484.22,420.01 483.26,423.05 482.35,426.14C483.25,419.73 469.95,425.2 468.24,422.13C470.29,421.52 477.29,422.9 477.78,421.18C472.79,420.95 467.87,420.59 462.96,419.62C468.8,417.16 475.3,419.13 480.94,416.76C476.4,414.28 466.99,417.42 460.95,414.53C465.97,411.81 473.23,416.2 477.99,413.89C473.48,407.24 462.1,415.73 454.99,408.2C459.33,408.55 463.64,409.32 467.97,409.71C466.35,405.84 455.91,407.87 452.9,403.91C457.33,402.34 462.09,400.22 466.75,399.34C467.93,400.12 471.49,401.31 468.25,402.16C465.17,404.86 470.47,406.28 472.51,406.94C471.43,402.32 476.62,398.14 473.19,394.86C471.15,392.08 472.07,387.35 472.14,384.09Z" style="fill:rgb(150,134,111);fill-rule:nonzero;"/>
                <path d="M540.82,406.94C540.19,411.62 540.16,416.39 539.22,421.02C532.36,421.1 525.65,422.97 518.81,423.59C507.66,425.64 496.44,426.75 485.12,427.19C482.76,427.59 482.01,428.38 481.68,430.75C480.85,434.43 480.76,438.05 479.67,441.72C473.01,443.11 467.67,441.13 461.97,437.93C459.09,433.2 458.33,427.83 455.86,422.94L456.18,421.31C462.83,426.47 474.51,428.26 482.35,426.14C483.26,423.05 484.22,420.01 485.44,417.03C493.21,414.72 501.32,414.5 509.12,412.23C519.82,410.37 529.72,406.68 540.82,406.94Z" style="fill:rgb(21,20,18);fill-rule:nonzero;"/>
                <path d="M539.22,421.02C538.6,429.7 536.35,438.77 533.47,446.96C527.67,449.27 529.66,439.28 531.08,436.58C520.17,438.4 526.47,446.48 517.65,451.55C516.35,461.5 512.41,469.89 512.19,478.58C506.85,480.71 512.17,487.59 505.18,486.72C501.09,485.38 503.65,491.47 507.03,488.2C504.1,493.14 502.95,494.59 503.7,500.56C495.48,502.95 495.89,509.58 492.45,516.13C498.1,519.48 493.9,526.47 490.01,528.37C488.12,526.8 490.09,522.25 489.97,520.03C487.95,522.72 480.4,538.65 486.8,538.98C483.12,532.07 493.85,528.01 495.98,532.99C494.46,535.9 493.35,538.82 492.23,541.9C486.38,535.44 487.84,553.59 478.95,548.42C477.36,556.29 467.11,587.17 461.56,592.16C459.73,591.28 457.9,590.43 456.02,589.67C458.47,588.75 458.65,589.56 457.56,586.93C459.09,584.92 462.65,585.87 460.37,582.83C466.19,574.06 473.91,560.92 470.95,550.21C473.37,538.2 481.64,530.5 485.38,519.39C496.56,505.24 499.13,490.58 500.73,473.2C500.19,468.12 496.94,464.58 500.95,460C506.79,455.35 502.25,449.13 511.56,450.58C515.75,446.09 514.79,436.01 517.37,430.36C517.09,426.44 525.58,423.65 518.81,423.59C525.65,422.97 532.36,421.1 539.22,421.02Z" style="fill:rgb(180,128,87);fill-rule:nonzero;"/>
                <path d="M518.81,423.59C525.58,423.65 517.09,426.44 517.37,430.36C514.79,436.01 515.75,446.09 511.56,450.58C502.25,449.13 506.79,455.35 500.95,460C496.94,464.58 500.19,468.12 500.73,473.2C499.13,490.58 496.56,505.24 485.38,519.39C481.64,530.5 473.37,538.2 470.95,550.21C473.91,560.92 466.19,574.06 460.37,582.83C462.65,585.87 459.09,584.92 457.56,586.93C458.65,589.56 458.47,588.75 456.02,589.67C453.77,588.98 449.14,589.69 448.56,586.9C454.44,568.72 454.96,550.92 462.47,533.4C467.49,518.92 475.48,506.45 476.69,490.88C477.45,494.42 477.56,492.38 478.5,490.63C482.89,472.01 482.14,450.03 481.68,430.75C482.01,428.38 482.76,427.59 485.12,427.19C496.44,426.75 507.66,425.64 518.81,423.59Z" style="fill:rgb(199,154,115);fill-rule:nonzero;"/>
                <path d="M481.68,430.75C482.14,450.03 482.89,472.01 478.5,490.63C477.56,492.38 477.45,494.42 476.69,490.88C477.74,486.12 479.72,482.38 477.44,477.6C471.64,464.64 466.34,451.45 461.97,437.93C467.67,441.13 473.01,443.11 479.67,441.72C480.76,438.05 480.85,434.43 481.68,430.75Z" style="fill:rgb(153,120,98);fill-rule:nonzero;"/>
                <path d="M531.08,436.58C529.66,439.28 527.67,449.27 533.47,446.96C529.43,459.97 525.56,472.26 517.55,483.47C513.87,498.15 513.87,515.69 514.29,530.83C519.04,545.81 521.88,560.45 523.94,576C524.6,581.67 530.81,579.95 534.01,584.69C529.8,585.02 525.27,584.72 529.71,589.33C538.86,587.85 530.67,594.26 534.17,600.01C532.83,601.25 529.03,603.62 529.05,600.14C531.79,601.68 532.41,597.69 530.85,596.15C528.07,592.39 527.1,588.08 525.2,583.91C521.24,589.99 507.38,591.9 500.98,589.91L501.09,588.9C500.41,579.97 494.57,569.18 491.06,560.71C485.54,573.83 478.14,586.11 473.17,599.42C469.17,597.21 465.3,594.77 461.56,592.16C467.11,587.17 477.36,556.29 478.95,548.42C487.84,553.59 486.38,535.44 492.23,541.9C493.35,538.82 494.46,535.9 495.98,532.99C493.85,528.01 483.12,532.07 486.8,538.98C480.4,538.65 487.95,522.72 489.97,520.03C490.09,522.25 488.12,526.8 490.01,528.37C493.9,526.47 498.1,519.48 492.45,516.13C495.89,509.58 495.48,502.95 503.7,500.56C502.95,494.59 504.1,493.14 507.03,488.2C503.65,491.47 501.09,485.38 505.18,486.72C512.17,487.59 506.85,480.71 512.19,478.58C512.41,469.89 516.35,461.5 517.65,451.55C526.47,446.48 520.17,438.4 531.08,436.58Z" style="fill:rgb(162,112,70);fill-rule:nonzero;"/>
                <path d="M523.94,576C537.4,580.18 551.61,592.59 548.32,607.94C545.94,606.9 543.49,606.03 541.02,605.23C542.43,602.08 541.58,599.3 540.66,596.17C538.23,596.12 536.04,598.66 534.17,600.01C530.67,594.26 538.86,587.85 529.71,589.33C525.27,584.72 529.8,585.02 534.01,584.69C530.81,579.95 524.6,581.67 523.94,576Z" style="fill:rgb(192,187,168);fill-rule:nonzero;"/>
                <path d="M525.2,583.91C527.1,588.08 528.07,592.39 530.85,596.15C532.41,597.69 531.79,601.68 529.05,600.14C528.53,597.86 528.17,594.55 526.06,593.11C520.03,596.38 513.69,597.41 507.23,599.36C506.86,603.85 509.37,608.55 510.14,612.99C500.97,614.68 510.96,601.94 501.85,601.3C494.36,601.92 500.94,593.78 500.98,589.91C507.38,591.9 521.24,589.99 525.2,583.91Z" style="fill:rgb(203,194,176);fill-rule:nonzero;"/>
                <path d="M448.56,586.9C449.14,589.69 453.77,588.98 456.02,589.67C457.9,590.43 459.73,591.28 461.56,592.16C465.3,594.77 469.17,597.21 473.17,599.42C473,601.34 472.87,603.19 472.38,605.06C466.36,601.58 454.33,599.91 445.98,595.09C446.68,592.3 447.64,589.62 448.56,586.9Z" style="fill:rgb(205,194,168);fill-rule:nonzero;"/>
                <path d="M501.09,588.9L500.98,589.91C500.94,593.78 494.36,601.92 501.85,601.3C510.96,601.94 500.97,614.68 510.14,612.99C515.46,621.13 503.95,611.76 503.11,616.85C506.29,619.27 510.83,616.55 514.11,619.75C514.01,622.47 516.24,625.45 511.94,625.27C504.85,624.47 501.54,620.55 499.01,629.87C504.35,630.41 510.13,628.82 515.32,627.63C516.6,628.93 517.33,630.47 518.18,632.05L517.36,631.6C509.69,630.2 496.38,631.49 489.14,634.73C485.98,634.48 483.09,633.4 480.29,631.98C474.53,625.52 479.59,609.78 487.54,606.56C490.06,606.01 491.84,597.96 492.39,603.74C494.06,603.06 496.42,601.92 496.89,600.03C493.89,596.53 499.69,592.22 501.09,588.9Z" style="fill:rgb(25,23,18);fill-rule:nonzero;"/>
                <path d="M526.06,593.11C528.17,594.55 528.53,597.86 529.05,600.14C529.03,603.62 532.83,601.25 534.17,600.01C536.04,598.66 538.23,596.12 540.66,596.17C541.58,599.3 542.43,602.08 541.02,605.23C538.93,606.03 534.7,605.67 534.97,608.8C538.04,611.28 540.01,610.69 538.36,615.42C536.42,613.91 534.34,608.08 531.79,611.75C527.33,616.85 520.51,617.23 514.11,619.75C510.83,616.55 506.29,619.27 503.11,616.85C503.95,611.76 515.46,621.13 510.14,612.99C509.37,608.55 506.86,603.85 507.23,599.36C513.69,597.41 520.03,596.38 526.06,593.11Z" style="fill:rgb(29,69,45);fill-rule:nonzero;"/>
                <path d="M445.98,595.09C454.33,599.91 466.36,601.58 472.38,605.06C470.53,610.5 467.86,616.04 467.06,621.75C469.83,622.74 476.33,620.17 474.99,624.98C474.8,628.27 472.71,629.98 470.04,631.49C465.24,633.99 459.36,634.29 454.16,635.82C451.11,632.78 449.18,633.04 445.92,631.26C449.41,631.56 462.65,629.08 464.8,626.94C464.3,624.95 455.15,629.66 460.85,623.86C466.14,619.79 457.71,621.36 455.8,622.8C450.42,622.14 446.34,617.29 441.03,615.77C442,608.78 444.52,602.01 445.98,595.09Z" style="fill:rgb(31,65,35);fill-rule:nonzero;"/>
                <path d="M541.02,605.23C543.49,606.03 545.94,606.9 548.32,607.94C537.18,616.25 542.24,628.24 548.16,637.83C546.63,639.75 545.09,641.59 543.14,643.1C540.84,637.67 536.27,638.77 531.55,636.86C534.36,632.77 529.4,635.93 527.8,636.75C524.31,638.71 521.51,640.66 519.02,643.84C519.25,639 518.3,636.37 522.78,633.37C521.25,632.93 519.71,632.53 518.18,632.05C517.33,630.47 516.6,628.93 515.32,627.63C514.39,626.54 513.2,625.89 511.94,625.27C516.24,625.45 514.01,622.47 514.11,619.75C515.7,619.84 517.28,619.94 518.87,620C515.28,626.73 529.56,623.46 532.44,622.5C537.74,621.92 530.93,619.7 529.76,618.12C531.92,617.4 538.49,618.87 538.36,615.42C540.01,610.69 538.04,611.28 534.97,608.8C534.7,605.67 538.93,606.03 541.02,605.23Z" style="fill:rgb(100,95,81);fill-rule:nonzero;"/>
                <path d="M538.36,615.42C538.49,618.87 531.92,617.4 529.76,618.12C526,618.04 522.43,618.86 518.87,620C517.28,619.94 515.7,619.84 514.11,619.75C520.51,617.23 527.33,616.85 531.79,611.75C534.34,608.08 536.42,613.91 538.36,615.42Z" style="fill:rgb(164,168,151);fill-rule:nonzero;"/>
                <path d="M484.35,611.29C484.76,609.58 488.55,614.77 487.37,615.4C486.13,619.85 480.54,612.9 484.35,611.29Z" style="fill:rgb(146,142,129);fill-rule:nonzero;"/>
                <path d="M441.03,615.77C446.34,617.29 450.42,622.14 455.8,622.8C462.87,625.12 450.84,625.66 449.41,626.27C447.11,629.06 444.25,627.91 441.05,627.81C443.3,623.28 441.08,623.03 438.93,619.29C439.65,618.13 440.35,616.96 441.03,615.77Z" style="fill:rgb(163,165,150);fill-rule:nonzero;"/>
                <path d="M438.93,619.29C441.08,623.03 443.3,623.28 441.05,627.81C444.25,627.91 447.11,629.06 449.41,626.27C450.84,625.66 462.87,625.12 455.8,622.8C457.71,621.36 466.14,619.79 460.85,623.86C455.15,629.66 464.3,624.95 464.8,626.94C462.65,629.08 449.41,631.56 445.92,631.26C449.18,633.04 451.11,632.78 454.16,635.82C459.36,634.29 465.24,633.99 470.04,631.49C469.8,635.71 475.25,635.49 477.78,638.2C489.12,648.63 505,646.09 517.03,650.05C512.99,654.94 507.17,652.92 501.98,656.92C493.58,653.61 486.86,657.8 479.26,651.76C482.66,654.34 482.62,659.39 478.34,654.53C475.3,661.49 475.8,656.5 472.99,654.55C467.39,665.42 456.33,657.58 449.35,652.57C442.17,652.36 436.24,643.64 429.83,639.71C431.86,633.42 435.45,628.19 434.71,621.74C434.66,619.05 436.51,616.86 438.93,619.29Z" style="fill:rgb(94,90,77);fill-rule:nonzero;"/>
                <path d="M529.76,618.12C530.93,619.7 537.74,621.92 532.44,622.5C529.56,623.46 515.28,626.73 518.87,620C522.43,618.86 526,618.04 529.76,618.12Z" style="fill:rgb(32,32,26);fill-rule:nonzero;"/>
                <path d="M511.94,625.27C513.2,625.89 514.39,626.54 515.32,627.63C510.13,628.82 504.35,630.41 499.01,629.87C501.54,620.55 504.85,624.47 511.94,625.27Z" style="fill:rgb(230,230,229);fill-rule:nonzero;"/>
                <path d="M517.36,631.6C517.17,633.43 516.99,635.26 516.85,637.09C504.78,638.54 491.02,639.2 479.05,636.94C474.18,634.48 481.76,635.3 480.29,631.98C483.09,633.4 485.98,634.48 489.14,634.73C496.38,631.49 509.69,630.2 517.36,631.6Z" style="fill:rgb(164,164,163);fill-rule:nonzero;"/>
                <path d="M517.36,631.6L518.18,632.05C518.1,635.11 517.9,638.15 517.59,641.19C517.36,639.82 517.09,638.46 516.85,637.09C516.99,635.26 517.17,633.43 517.36,631.6Z" style="fill:rgb(105,105,106);fill-rule:nonzero;"/>
                <path d="M518.18,632.05C519.71,632.53 521.25,632.93 522.78,633.37C518.3,636.37 519.25,639 519.02,643.84C521.51,640.66 524.31,638.71 527.8,636.75C529.4,635.93 534.36,632.77 531.55,636.86C536.27,638.77 540.84,637.67 543.14,643.1C545.09,641.59 546.63,639.75 548.16,637.83C549.96,642.96 545.95,645.6 542.49,648.41L541.76,648.19C533.47,643.66 524.94,642.2 521.92,653.33C520.9,652.22 519.96,651.04 519.04,649.85C518.01,646.97 517.22,644.28 517.59,641.19C517.9,638.15 518.1,635.11 518.18,632.05Z" style="fill:rgb(42,41,34);fill-rule:nonzero;"/>
                <path d="M429.83,639.71C436.24,643.64 442.17,652.36 449.35,652.57C456.33,657.58 467.39,665.42 472.99,654.55C475.8,656.5 475.3,661.49 478.34,654.53C482.62,659.39 482.66,654.34 479.26,651.76C486.86,657.8 493.58,653.61 501.98,656.92C507.17,652.92 512.99,654.94 517.03,650.05L518.27,651.2L518.01,652.98C511.1,663.94 499.2,663.34 487.93,660.08C471.21,663.47 451.59,662.52 435.04,658.13C430.56,655.02 427.89,649.33 427.78,643.95C428.4,642.51 429.14,641.11 429.83,639.71Z" style="fill:rgb(43,39,28);fill-rule:nonzero;"/>
                <path d="M427.78,643.95C427.89,649.33 430.56,655.02 435.04,658.13C434.03,659.09 433.04,660.03 432.08,661.05C445.34,664.89 457.93,661.53 471.98,663.94C485.6,664.37 499.39,663.53 512.89,661.72C516.42,661.46 514.68,658.82 516.75,656.97C517.97,658.71 521.74,659.73 518.66,661.66C510.81,665.16 500.46,665.18 492,665C473.24,664.74 454.64,665.77 435.97,663.96C431.4,663.67 421.22,661.81 429.32,656.55C427.08,652.42 425.89,648.56 427.78,643.95Z" style="fill:rgb(183,182,177);fill-rule:nonzero;"/>
                <path d="M541.76,648.19C545.53,658.24 535.12,654.06 529.22,655.29C526.85,655.1 523.44,655.49 521.92,653.33C524.94,642.2 533.47,643.66 541.76,648.19Z" style="fill:rgb(114,108,88);fill-rule:nonzero;"/>
                <path d="M541.76,648.19L542.49,648.41C543.65,650.51 553.16,651.87 548.04,654C539.71,657.93 526.45,657.93 517.69,655.9C517.8,654.92 517.91,653.95 518.01,652.98L518.27,651.2L519.04,649.85C519.96,651.04 520.9,652.22 521.92,653.33C523.44,655.49 526.85,655.1 529.22,655.29C535.12,654.06 545.53,658.24 541.76,648.19Z" style="fill:rgb(188,187,185);fill-rule:nonzero;"/>
                <path d="M518.01,652.98C517.91,653.95 517.8,654.92 517.69,655.9L516.75,656.97C514.68,658.82 516.42,661.46 512.89,661.72C499.39,663.53 485.6,664.37 471.98,663.94C457.93,661.53 445.34,664.89 432.08,661.05C433.04,660.03 434.03,659.09 435.04,658.13C451.59,662.52 471.21,663.47 487.93,660.08C499.2,663.34 511.1,663.94 518.01,652.98Z" style="fill:rgb(118,115,109);fill-rule:nonzero;"/>
            </g>
        </g>
    </g>
</svg>
