<?xml version="1.0" encoding="UTF-8" standalone="no"?>
<!DOCTYPE svg PUBLIC "-//W3C//DTD SVG 1.1//EN" "http://www.w3.org/Graphics/SVG/1.1/DTD/svg11.dtd">
<svg width="100%" height="100%" viewBox="0 0 1728 1728" version="1.1" xmlns="http://www.w3.org/2000/svg" xmlns:xlink="http://www.w3.org/1999/xlink" xml:space="preserve" xmlns:serif="http://www.serif.com/" style="fill-rule:evenodd;clip-rule:evenodd;stroke-linejoin:round;stroke-miterlimit:2;">
    <g transform="matrix(1,0,0,1,-3684,-6075)">
        <g id="_24" serif:id="24" transform="matrix(1,0,0,1,3684,6075)">
            <rect x="0" y="0" width="1728" height="1728" style="fill:none;"/>
            <g transform="matrix(3.388995,1.956637,-1.956637,3.388995,-39.141789,-929.605443)">
                <g>
                    <path d="M449.97,156.19C455.59,155.18 460.75,156.82 465.75,159.25C471.47,162.08 477.06,165.19 482.59,168.38C487.43,171.16 491.82,174.57 496.58,177.45C501.29,180.39 507.58,181.12 513,181.61C517.62,181.96 522.44,182.56 527.07,182.07C528.63,181.92 530.04,180.55 531.36,179.77C532.18,180.81 533,181.86 533.82,182.91C529.92,187.93 524.81,191.23 519.4,194.4C511.78,198.71 502.83,202.89 494,203.48C487.75,204.03 483.98,200.16 478.03,199.35C474.07,198.7 470.02,200.33 466.16,199.76C463.38,199.1 462.02,196.91 460.4,194.79C460.6,202.25 460.84,209.63 461.98,217.02C462.07,219.32 463.07,222.77 461.25,224.53C459.9,223.73 458.64,222.79 457.4,221.84C464.77,236.21 465.69,251.95 470.79,268.11C474.18,269.24 477.98,270.16 481.04,272.04C484.05,273.97 485.79,277.49 487.42,280.56C489.2,284.09 491.18,287.56 492.68,291.21C494.39,295.45 494.44,299.58 494.8,304.06C507.88,309.71 521.9,313.26 534.94,318.99C536.9,319.98 539.8,321.28 540.72,323.4C541.68,327.63 539.86,331.9 537.14,335.1C532.98,340.02 526.67,343.37 520.78,345.76C509.03,350.46 496.04,352.71 483.45,353.49C481.55,358.87 480.32,364.92 475.95,368.93C471.29,373.16 464.92,375.81 459.17,378.22C454.67,380.16 449.8,380.5 445.21,382.02C438.97,386.66 433.61,392.83 426.86,396.93C422.97,399.21 418.66,400.39 415.06,403.07C412.42,405.02 410.4,407.2 407.22,408.35C400.81,410.66 393.79,411.54 387,411.7C379.74,411.78 371.47,410.75 365.23,406.74C360.89,404.01 359.17,399.99 355.46,396.53C350.37,391.66 346.16,386.06 343.53,379.48C341.16,373.22 340.33,366.57 339.48,360C339.28,356.99 337.06,354.96 335.5,352.49C331.16,346.39 329.68,338.87 328.18,331.68C317.75,327.8 309.15,321.81 299.24,316.77C291,312.82 282.96,306.93 277.65,299.44C274.83,292.88 279.16,283.5 285.43,280.38C298.43,273.39 313.52,269.12 327.78,265.52C330.94,264.67 334.16,264.15 337.41,263.77C340.3,258.2 345.13,255.46 350.07,252.03C351.94,250.86 352.31,249.07 353.11,247.17C355.25,241.4 358.1,234.93 362.61,230.61C364.72,228.51 367.48,227.53 369.79,225.77C372.3,222.92 374.11,219.39 376.23,216.24C384.6,202.92 394.14,190.41 405.33,179.33C411.83,172.29 420.25,169.04 428.57,164.57C435.29,161.34 442.57,157.43 449.97,156.19Z" style="fill:rgb(0,28,61);fill-rule:nonzero;"/>
                    <clipPath id="_clip1">
                        <path d="M449.97,156.19C455.59,155.18 460.75,156.82 465.75,159.25C471.47,162.08 477.06,165.19 482.59,168.38C487.43,171.16 491.82,174.57 496.58,177.45C501.29,180.39 507.58,181.12 513,181.61C517.62,181.96 522.44,182.56 527.07,182.07C528.63,181.92 530.04,180.55 531.36,179.77C532.18,180.81 533,181.86 533.82,182.91C529.92,187.93 524.81,191.23 519.4,194.4C511.78,198.71 502.83,202.89 494,203.48C487.75,204.03 483.98,200.16 478.03,199.35C474.07,198.7 470.02,200.33 466.16,199.76C463.38,199.1 462.02,196.91 460.4,194.79C460.6,202.25 460.84,209.63 461.98,217.02C462.07,219.32 463.07,222.77 461.25,224.53C459.9,223.73 458.64,222.79 457.4,221.84C464.77,236.21 465.69,251.95 470.79,268.11C474.18,269.24 477.98,270.16 481.04,272.04C484.05,273.97 485.79,277.49 487.42,280.56C489.2,284.09 491.18,287.56 492.68,291.21C494.39,295.45 494.44,299.58 494.8,304.06C507.88,309.71 521.9,313.26 534.94,318.99C536.9,319.98 539.8,321.28 540.72,323.4C541.68,327.63 539.86,331.9 537.14,335.1C532.98,340.02 526.67,343.37 520.78,345.76C509.03,350.46 496.04,352.71 483.45,353.49C481.55,358.87 480.32,364.92 475.95,368.93C471.29,373.16 464.92,375.81 459.17,378.22C454.67,380.16 449.8,380.5 445.21,382.02C438.97,386.66 433.61,392.83 426.86,396.93C422.97,399.21 418.66,400.39 415.06,403.07C412.42,405.02 410.4,407.2 407.22,408.35C400.81,410.66 393.79,411.54 387,411.7C379.74,411.78 371.47,410.75 365.23,406.74C360.89,404.01 359.17,399.99 355.46,396.53C350.37,391.66 346.16,386.06 343.53,379.48C341.16,373.22 340.33,366.57 339.48,360C339.28,356.99 337.06,354.96 335.5,352.49C331.16,346.39 329.68,338.87 328.18,331.68C317.75,327.8 309.15,321.81 299.24,316.77C291,312.82 282.96,306.93 277.65,299.44C274.83,292.88 279.16,283.5 285.43,280.38C298.43,273.39 313.52,269.12 327.78,265.52C330.94,264.67 334.16,264.15 337.41,263.77C340.3,258.2 345.13,255.46 350.07,252.03C351.94,250.86 352.31,249.07 353.11,247.17C355.25,241.4 358.1,234.93 362.61,230.61C364.72,228.51 367.48,227.53 369.79,225.77C372.3,222.92 374.11,219.39 376.23,216.24C384.6,202.92 394.14,190.41 405.33,179.33C411.83,172.29 420.25,169.04 428.57,164.57C435.29,161.34 442.57,157.43 449.97,156.19Z" clip-rule="nonzero"/>
                    </clipPath>
                    <g clip-path="url(#_clip1)">
                        <path d="M449.03,162.94C454.91,161.7 460.69,163.99 464.79,168.21C471,174.48 478.67,178.53 486.4,182.63C491.78,185.36 496.79,188.06 502.98,188.19C509.38,188.31 515.79,187.23 522.2,187.15C515.55,192.52 506.35,194.24 498.04,192.98C490.49,191.49 483.43,188.7 476.22,186.61C472.38,185.47 468.24,184.94 464.53,183.43C461.26,181.99 458.96,179.31 456.51,176.8C454.76,181.8 453.08,186.66 452.52,191.97C452.14,195.87 451.82,199.72 450.57,203.46C445.07,199.44 440.5,194.52 434.39,191.28C436.04,197.51 438.4,203.42 439.56,209.78C440.99,216.26 441.09,222.85 442.79,229.27C444.24,234.91 443.9,240.36 443.46,246.09C436.55,242.28 430.82,236.75 423.91,233.01C417.92,230.25 411.27,228.76 404.94,226.97C397.56,224.69 390.2,226.79 382.24,226.05C384.15,219.45 388.36,214.67 391.9,208.95C396.56,201.97 400.91,194.66 406.13,188.08C411.24,181.66 418.57,177.75 425.43,173.43C432.68,169.19 440.73,164.56 449.03,162.94Z" style="fill:white;fill-rule:nonzero;"/>
                        <path d="M385.82,230.84C384.37,233.47 382.91,236.09 381.45,238.72C375.09,239.16 368.91,240.43 362.71,241.85C363.88,240.39 364.99,238.66 366.45,237.46C372.24,233.47 378.83,231.43 385.82,230.84Z" style="fill:white;fill-rule:nonzero;"/>
                        <path d="M394.03,231.14C400.31,231.35 406.51,232.59 412.27,235.15C405.24,243.47 400.4,253.05 395.88,262.9C394.78,265.22 393.48,267.43 392.16,269.64C385.68,268.73 379.39,267.62 373.3,265.12C374.33,260.91 376.23,257.18 378.54,253.54C382.53,247.18 386.34,240.7 390.39,234.38C391.24,233.34 392.52,231.01 394.03,231.14Z" style="fill:white;fill-rule:nonzero;"/>
                        <path d="M421.1,239.86C432.28,246.47 442.9,253.62 451.85,263.14C457.91,269.54 462.14,277.92 465.43,286.02C464.52,288.56 462.81,289.81 460.12,289.98C454.56,285.3 451.2,277.03 446.29,271.71C441.6,266.5 436.56,261.27 430.95,257.06C425.23,252.97 419.3,249.22 413,246.08C413.83,243.69 414.42,240.9 415.87,238.81C417.63,237.67 419.51,239.07 421.1,239.86Z" style="fill:white;fill-rule:nonzero;"/>
                        <path d="M377.98,244.24C376.76,246.7 375.45,249.1 374.07,251.47C370.54,251.47 367,251.44 363.47,251.28C367.86,246.91 371.86,245.16 377.98,244.24Z" style="fill:white;fill-rule:nonzero;"/>
                        <path d="M410.96,251.98C415.2,252.37 419.41,254.83 422.98,257.03C429.8,261.5 436.49,267.03 441.18,273.76C439.85,275.58 438.47,277.33 436.97,279.01C428.22,270.79 417.33,264.6 406.53,259.5C407.93,257.01 409.09,254.15 410.96,251.98Z" style="fill:white;fill-rule:nonzero;"/>
                        <path d="M371.02,256.87C370.08,259.37 369.13,261.87 368.16,264.36C360.76,264.12 353.44,265.15 346.06,265.14C347.58,263.28 349.25,261.61 351.19,260.18C356.03,255.8 364.88,257.54 371.02,256.87Z" style="fill:white;fill-rule:nonzero;"/>
                        <path d="M401.84,265.2C408.05,267.05 413.95,271.13 419.38,274.62C426.48,279.32 433.27,284.69 439.36,290.64C442.56,294.01 446.43,298.3 447.32,302.98C447.66,304.87 447.29,305.96 446.04,307.38C442.5,307.85 441.15,303.84 439.37,301.57C434.11,294.17 424.77,288.97 417.76,283.24C411.79,278.18 405.03,275.54 398.07,272.21C399.14,269.76 400.29,267.38 401.84,265.2Z" style="fill:white;fill-rule:nonzero;"/>
                        <path d="M368.27,269.83C373.94,271.69 379.33,271.68 384.45,275.08C372.36,276.25 360.14,276.1 348.01,276.79C344.37,277.03 340.92,277.97 337.42,278.94C349.77,280.36 361.79,283.83 373.14,288.86C388.79,296.08 405.14,301.86 421.23,308C420.88,309.7 420.53,311.4 420.18,313.1C394.96,304.03 368.89,293.07 342.79,287.66C333.8,285.82 324.19,283.7 315,283.78C306.38,283.79 298.43,286.45 289.8,286.94C296.42,282.81 303.81,279.17 311.5,277.68C319.54,275.87 327.79,273.81 336.01,273.17C346.77,272.14 357.97,270.08 368.78,270.64L368.27,269.83Z" style="fill:white;fill-rule:nonzero;"/>
                        <path d="M467.88,276.6C472.35,280.42 477.44,284.42 480.55,289.45C483.26,294.87 484.44,301.2 485.92,307.05C483.87,308.13 481.16,308.85 480.21,311.21C478.85,314.86 478.57,319.15 478.96,323C479.34,326.4 481.96,328.02 484.21,330.22C483.53,333.67 483.03,337.39 481.7,340.65C479.81,340.6 478,340.19 476.1,340.2C473.31,342.27 471.24,345.86 469.91,349.02C468.55,352.73 470.63,355.59 472.14,358.79C468.46,362.44 464.88,365.81 460.21,368.21C457.62,369.53 454.52,369.87 451.67,370.38C454.73,366.31 458.49,362.39 460.82,357.85C462.31,354.66 460.6,351.86 458.05,349.96C455.2,347.96 451.59,345.97 448.06,345.84C444.89,348.45 442.73,352.28 439.99,355.34C435.46,341.88 432.91,328.21 435.39,314.04C431.87,326.55 429.78,339 431.2,352.03C431.61,356.3 433.65,359.93 434.47,364.16C432.78,363.29 431.38,363.39 430.42,361.54C426.89,355.54 424.41,349.01 423.87,342.02C422.75,328.51 426.21,315.29 430.71,302.67C433.16,305.13 435.81,307.26 437.95,310.02C439.94,312.37 441.93,315.4 445.03,316.27C451.16,315.09 455.25,307.98 454.1,302C452.87,294.83 447.73,289.37 442.79,284.42C443.69,282.72 444.63,281.06 445.62,279.41C448.45,283.27 451.29,287.1 453.79,291.18C454.68,292.54 455.6,294.15 456.88,295.17C461.46,295.74 468.4,295.14 471.29,290.96C471,287.1 469.63,283.24 468.65,279.5C468.39,278.54 468.14,277.57 467.88,276.6Z" style="fill:white;fill-rule:nonzero;"/>
                        <path d="M344.49,299.66C343.02,309.01 340.99,319.03 342.01,328.99C343.22,337.28 348.18,343.91 351.97,351.09C353.45,353.71 355.59,356.06 357.4,358.48C349.42,356.09 342.99,350.13 339.33,342.75C334.86,332.05 334.97,321.38 335.14,310C335.23,306.91 335.59,303.04 337.43,300.45C339.18,298.24 342.16,299.41 344.49,299.66Z" style="fill:white;fill-rule:nonzero;"/>
                        <path d="M486.33,313.47C486.92,316.67 485.82,319.39 484.45,322.19C483.85,319.93 482.53,316.72 483.57,314.46C484.29,313.4 485.21,313.57 486.33,313.47Z" style="fill:white;fill-rule:nonzero;"/>
                        <path d="M493.72,313.02C497.53,314.89 500.99,317.39 504.85,319.18C509.52,321.51 514.39,322.6 519.4,323.9C510.62,325.19 501.54,324.83 492.71,324.37C493.07,320.59 493.27,316.79 493.72,313.02Z" style="fill:white;fill-rule:nonzero;"/>
                        <path d="M391.85,326.95C400.48,329.46 408.47,333.2 417.51,334.34C417.68,337.19 417.77,340.05 417.85,342.91C408.27,340.42 398.54,338.53 388.9,336.29C389.87,333.17 390.86,330.06 391.85,326.95Z" style="fill:white;fill-rule:nonzero;"/>
                        <path d="M477.32,345.26C478.09,346.46 478.84,347.65 479.33,348.98C478.52,350.68 477.17,351.76 475.86,353.04C475.26,351.62 474.66,350.2 474.11,348.76C475.08,347.51 476.19,346.37 477.32,345.26Z" style="fill:white;fill-rule:nonzero;"/>
                        <path d="M384.43,347.66C388.78,347.83 392.8,348.89 396.99,349.88C404.51,351.7 412.01,353.4 419.75,353.96C420.61,360.1 425.05,364.57 428.54,369.44C421.95,374.05 415.4,379.21 408.39,383.08C406.21,382.37 404.41,381.32 402.04,381.73C393.16,382.69 385.14,385.05 376.21,382.6C370.88,381.07 365.35,379.04 360.36,376.63C355.52,374.22 355.11,368.87 353.85,364.21C361.19,366.63 368.99,364.51 374.95,359.88C378.76,356.6 381.72,351.85 384.43,347.66Z" style="fill:white;fill-rule:nonzero;"/>
                        <path d="M449.99,351.31C451.42,352.34 453.3,352.96 453.28,355.04C453.24,358.59 449.85,362.1 447.79,364.79C443.3,369.96 440.33,375.74 435.44,380.42C430.17,385.58 424.33,388.97 418.35,393.34C414.82,395.69 410.24,398.63 405.87,398.49C402.83,396.63 403.76,393.83 403.5,390.8C412.53,387.33 420.77,382.27 428.37,376.32C433.4,372.29 438.03,368.09 441.78,362.8C444.54,359.02 446.81,354.66 449.99,351.31Z" style="fill:white;fill-rule:nonzero;"/>
                        <path d="M348.23,369.36C351.16,374.43 353.78,379.26 358.64,382.8C358.32,384.4 358,385.99 357.67,387.59C353.21,383.03 350.69,378.35 349.02,372.21C348.75,371.26 348.49,370.31 348.23,369.36Z" style="fill:white;fill-rule:nonzero;"/>
                        <path d="M366.87,385.07C370.56,386.53 373.94,388.32 377.97,388.75C384.75,390.02 391,388.51 397.78,388.54C397.19,389.85 396.6,391.16 396,392.47C397.07,395.87 397.92,399.28 398.46,402.81C392.47,404.58 386.16,405.01 379.96,404.29C375.38,403.68 370.55,402.15 367.23,398.78C364.17,395.77 362.92,391.16 363.81,387C364.05,385.51 365.4,384.38 366.87,385.07Z" style="fill:white;fill-rule:nonzero;"/>
                        <g transform="matrix(1,0,0,1,-3,-2)">
                            <path d="M463.522,307L465.508,306.988L468.644,316.049L467.609,318.938L463.522,307Z" style="fill:rgb(0,28,61);"/>
                            <path d="M463.514,309.44L465.82,316.027L465.833,331.459L463.562,338.047L463.514,309.44Z" style="fill:rgb(0,28,61);"/>
                            <path d="M463.586,340.026L465.87,340.006L469.239,329.672L468.217,326.531L463.586,340.026Z" style="fill:rgb(0,28,61);"/>
                            <path d="M467.837,327.578L468.228,326.549L469.333,326.531L471.102,331.483L471.132,337.641L468.931,330.681L467.837,327.578Z" style="fill:rgb(0,28,61);"/>
                            <path d="M471.77,340.024L474.073,340.016L473.99,306.959L471.753,306.995L471.77,340.024Z" style="fill:rgb(0,28,61);"/>
                            <path d="M470.849,309.672L470.84,316.141L469.293,320.517L468.19,320.516L467.607,318.939L470.849,309.672Z" style="fill:rgb(0,28,61);"/>
                        </g>
                    </g>
                </g>
            </g>
            <g id="up" transform="matrix(2.441183,0,0,2.441183,-416.244977,15.414309)">
                <path d="M512,308L508,332L512,377L546,402L565.993,403L613,396L607,345L591,296L512,308Z" style="fill:rgb(235,235,235);"/>
                <path d="M657.62,27.33C663.24,28.61 661.1,43.56 666.9,37.32C672.03,38.9 673.35,34.87 675.58,41.4C687.74,42.82 675.45,53.81 671.96,57C667.44,56.96 663.53,50.06 659.65,50.82C658.04,45.97 658.32,40.93 655.8,36.29C654.72,33.7 651.73,25.52 657.62,27.33Z" style="fill:rgb(227,185,141);fill-rule:nonzero;"/>
                <path d="M375.02,46C383.65,49.17 377.33,59.17 380.13,66.94C377.23,68.97 377.13,68.97 374.02,67.37C374.78,72.72 374.37,72.94 371.17,76.97C373.26,80.48 373.92,87.58 378.9,87.24C382.79,88.06 384.08,91.82 388.58,90.91C386.82,85.64 394.25,83.45 393.24,90.14C392.81,91.65 392.2,93.25 392.08,94.82C391.37,99.99 395.51,103.26 398.2,107.1C395.39,111.91 385.07,98.59 383.05,99.99C388.17,111.61 393.76,123.81 402.47,132.6C405.77,139.5 413.68,139.81 415.13,147.84C415.95,153.95 420.29,153.78 424.71,155.58C427.53,153.88 427.44,148.68 431.67,150.21C434.48,156.46 437.16,170.26 446.53,166.58C450.82,169.04 448.02,165.53 448.29,163.02C451.53,165.03 460.17,162.82 459.34,167.64C462.76,165.83 463.26,165.36 467.04,166.74C466.81,163.51 461.07,163.7 462.11,160.12C468.16,157.07 474.68,176.51 474.55,165.01C479.12,167.1 479.84,171.26 484.11,165.87C485.82,170.18 487.2,173.13 490.57,176.42C494.32,180.19 493.24,185.4 497.52,188.48C502.2,192.76 507.22,194.61 505.9,202.13C504.95,201.08 503.97,200.08 502.96,199.09C501.97,198.06 501,197.01 500.1,195.9C498.49,192.96 496.39,189.92 493.71,187.87C490.94,188.14 486,188.5 483.7,187.1C482.16,182.67 475.38,178.57 479.95,186.6C469.98,182.41 460.07,189.22 450.58,180.41C439.79,174.96 433.53,163.84 422.62,160.36C417.43,156.09 413.38,156.71 409.75,150.24C406.4,148.12 406.15,139.29 400.46,141.99C392.87,131.73 387.61,119.59 381.54,108.42C374.61,98.97 372.64,87.86 368.04,76.96C369.92,67.83 367.36,52.51 375.02,46Z" style="fill:rgb(198,144,105);fill-rule:nonzero;"/>
                <path d="M665.3,60.81C665.35,67.2 675.79,59.41 676.87,65.12C673.78,81.77 673.31,96.74 662.44,110.41C658.8,113.62 662.11,121.5 656.4,119.92C657.16,115.82 656.11,114.3 654.22,110.86C655.27,107.35 656.84,105.79 654.83,102.09C652.41,104.96 651.12,105.97 652.36,109.68C648.16,114.69 650.52,116.67 650.13,122.41C651.97,122.72 655.26,121 655.23,123.86C656.98,128.16 650.3,128.47 649.96,131.96C648.62,135.92 649.5,141.96 644.61,143.5C635.67,144.8 628.8,149.19 621.79,154.69C613.2,156.86 618.12,162.53 609.94,165.94C605.22,166.85 604.49,181.79 599.95,175.98C599.93,173.3 600.41,170.73 600.73,168.1C594.99,169.86 598.09,175.01 595.25,179.29C588.96,191.75 579.75,196.54 584.24,212.24C584.17,225.78 592.66,238.46 593.42,251.21C585.29,231.86 581.4,214.54 578.65,193.8C577.41,186.23 575,178.9 573.52,171.36C570.33,168.19 569.21,173.73 567.88,175.87C563.22,188.73 564.84,202.22 552.62,211.6C540.86,218.37 531.92,210.44 527.08,199.93C525.32,191.92 523.32,183.86 520.92,176.03C514.8,179.02 513.68,191.69 512.62,197.81C512.16,216.92 510.33,234.6 505.61,253.2C504.82,238.78 511.72,223.21 509.42,208.74C508.91,206.07 507.29,204.36 505.9,202.13C507.22,194.61 502.2,192.76 497.52,188.48C493.24,185.4 494.32,180.19 490.57,176.42C487.2,173.13 485.82,170.18 484.11,165.87C479.84,171.26 479.12,167.1 474.55,165.01C474.68,176.51 468.16,157.07 462.11,160.12C461.07,163.7 466.81,163.51 467.04,166.74C463.26,165.36 462.76,165.83 459.34,167.64C460.17,162.82 451.53,165.03 448.29,163.02C448.02,165.53 450.82,169.04 446.53,166.58C437.16,170.26 434.48,156.46 431.67,150.21C427.44,148.68 427.53,153.88 424.71,155.58C420.29,153.78 415.95,153.95 415.13,147.84C413.68,139.81 405.77,139.5 402.47,132.6C393.76,123.81 388.17,111.61 383.05,99.99C385.07,98.59 395.39,111.91 398.2,107.1C407.15,120.71 420.44,129.93 429.32,143.7C435.61,152.89 443.65,148.74 455.09,152.95C462.86,156.2 470.21,160.17 477.44,164.47C488.9,166.16 500.74,165.44 510.94,172.1C517.37,176.09 522.41,176.69 526.96,169.85C526.89,177.74 525.55,180.36 534.07,182.83C529.42,177.2 534.02,171.44 530.11,165.05C531.67,161.35 535.28,166.3 538.41,163.47C543.24,161.03 553.29,159.96 557.65,163.28C554.32,170.51 558.93,174.64 556.39,181C559.13,180.22 570.25,176.02 561.52,174.8C562.2,169.94 564.46,165.67 565.2,160.83C565.7,168.9 575.8,173.34 580.89,165.91C591.39,154.33 607.76,158.67 616.76,146.76C624.59,138.42 632.81,131.27 644.08,128.24C648.58,104.38 662.8,84.47 665.3,60.81Z" style="fill:rgb(223,168,123);fill-rule:nonzero;"/>
                <path d="M374.02,67.37C377.13,68.97 377.23,68.97 380.13,66.94C380.47,70.17 383.49,76.81 387.48,75.71C388.89,72.14 388.98,67.23 393.91,66.99C398.11,67.64 394.64,76.4 394.15,79C388.51,77 397.06,86.14 393.24,90.14C394.25,83.45 386.82,85.64 388.58,90.91C384.08,91.82 382.79,88.06 378.9,87.24C373.92,87.58 373.26,80.48 371.17,76.97C374.37,72.94 374.78,72.72 374.02,67.37Z" style="fill:rgb(228,194,159);fill-rule:nonzero;"/>
                <path d="M566.29,108.3C564.66,108.66 563.51,108.67 561.92,108.08C560.55,105.7 560,99.36 556.08,103.1C552.29,108.31 554.29,97.08 553.01,97.28C551.82,100.84 543.07,105.06 547.91,98.15C544.19,100.33 542.21,98.68 538.63,98.77C533.03,103.55 526.07,103.18 524.02,109.76C526.61,109.81 530.38,105.89 528.1,111.03C525.82,111.34 523.78,111.1 521.93,112.73C519.99,111.23 521.53,109.03 522.4,107.38C530.49,89.19 559.72,88.17 566.29,108.3Z" style="fill:rgb(117,110,101);fill-rule:nonzero;"/>
                <path d="M392.08,94.82C401.8,113.59 420.49,124.32 431.09,142.88C437.19,153.58 446.26,145.72 455.09,152.95C443.65,148.74 435.61,152.89 429.32,143.7C420.44,129.93 407.15,120.71 398.2,107.1C395.51,103.26 391.37,99.99 392.08,94.82Z" style="fill:rgb(233,205,187);fill-rule:nonzero;"/>
                <path d="M553.01,97.28C554.29,97.08 552.29,108.31 556.08,103.1C560,99.36 560.55,105.7 561.92,108.08C559.21,107.18 556.76,106.79 553.9,107.14C556.44,110.02 561.21,109.66 564.03,112.5C562.06,113.76 560.5,115.36 559.03,117.16C558,114.61 555.74,109.38 552.4,110.35C550.04,115.64 546.8,113.79 542.01,113.93C550.54,110.94 533.74,109.06 531.76,110.63C530.54,110.79 529.32,110.92 528.1,111.03C530.38,105.89 526.61,109.81 524.02,109.76C526.07,103.18 533.03,103.55 538.63,98.77C542.21,98.68 544.19,100.33 547.91,98.15C543.07,105.06 551.82,100.84 553.01,97.28Z" style="fill:rgb(56,42,31);fill-rule:nonzero;"/>
                <path d="M675.4,109.16C672.98,119.3 671.25,132.34 664.71,140.71C652.77,149.14 647.35,165.46 636.79,175.79C628.71,184.35 615.07,187.65 610,197.9C606.72,194.43 605.24,198.21 601.66,197.49C598.1,196.1 593.94,199.38 591.01,201.02C588.36,208.49 584.5,204.17 584.24,212.24C579.75,196.54 588.96,191.75 595.25,179.29C598.09,175.01 594.99,169.86 600.73,168.1C600.41,170.73 599.93,173.3 599.95,175.98C599.95,177.56 599.98,179.14 600.07,180.71C606.84,177.23 612.99,173.32 620.51,171.64C626.81,168.84 636.51,169.46 638.31,161.18C643.46,153.98 650.48,150.11 653.01,140.98C655.1,135.92 662.87,137.29 661.63,130.12C669.1,124.54 665.06,115.62 670.75,106.81C672.78,102.66 675.18,106.23 675.4,109.16Z" style="fill:rgb(166,118,68);fill-rule:nonzero;"/>
                <path d="M553.9,107.14C556.76,106.79 559.21,107.18 561.92,108.08C563.51,108.67 564.66,108.66 566.29,108.3C568.5,110.2 570.69,111.69 571.9,114.47C569.91,114.24 568.73,112.93 567.03,112.02C567.07,116.91 574.64,118.36 567.68,121.51C565.78,120.6 567.72,114.36 564.03,112.5C561.21,109.66 556.44,110.02 553.9,107.14Z" style="fill:rgb(219,181,179);fill-rule:nonzero;"/>
                <path d="M542.01,113.93C546.8,113.79 550.04,115.64 552.4,110.35C555.74,109.38 558,114.61 559.03,117.16C559.53,124.41 559.41,131.75 559.13,139C555.13,139.91 557.77,130.57 557.32,128.19C557.7,123.19 552.96,122.15 549.01,121.85C547.05,122.42 541.42,117.47 544.52,121.88C540.96,122.46 537.8,124.36 535.98,119.94C536.74,116.74 538.7,114.49 540.63,111.96C537.72,111.04 534.79,110.83 531.76,110.63C533.74,109.06 550.54,110.94 542.01,113.93Z" style="fill:rgb(162,113,86);fill-rule:nonzero;"/>
                <path d="M528.1,111.03C529.32,110.92 530.54,110.79 531.76,110.63C534.79,110.83 537.72,111.04 540.63,111.96C538.7,114.49 536.74,116.74 535.98,119.94C537.8,124.36 540.96,122.46 544.52,121.88C541.42,117.47 547.05,122.42 549.01,121.85C552.96,122.15 557.7,123.19 557.32,128.19C557.77,130.57 555.13,139.91 559.13,139L561.12,139.24C554.65,141.69 546.77,137.48 539.8,137.66C541.87,136.77 544.57,135.97 546.01,134.18C542.78,131.95 538.82,130.91 534.93,131.76C531.87,131.74 529.52,135.21 528.13,131.17C527.36,135.63 526.1,137.77 530.94,140.13C528.04,141.8 525.76,144.25 522.94,146.01C519.75,140.78 521.31,134.19 521.01,128.08C524.84,122.84 530.81,126.16 532.82,119.21C529.02,113.69 527.96,115.29 522.53,113.39L521.93,112.73C523.78,111.1 525.82,111.34 528.1,111.03Z" style="fill:rgb(212,156,125);fill-rule:nonzero;"/>
                <path d="M567.03,112.02C568.73,112.93 569.91,114.24 571.9,114.47C578.29,125.8 578.27,147.79 565.52,155.01C561.93,151.84 560.35,147.35 556.78,144.18C561.15,142.57 568.23,144.59 567.9,138.06C565.48,137.79 563.37,138.49 561.12,139.24L559.13,139C559.41,131.75 559.53,124.41 559.03,117.16C560.5,115.36 562.06,113.76 564.03,112.5C567.72,114.36 565.78,120.6 567.68,121.51C574.64,118.36 567.07,116.91 567.03,112.02Z" style="fill:rgb(167,29,24);fill-rule:nonzero;"/>
                <path d="M522.53,113.39C527.96,115.29 529.02,113.69 532.82,119.21C530.81,126.16 524.84,122.84 521.01,128.08C520.78,124.3 522.15,120.12 520.35,116.83C521.08,115.69 521.82,114.55 522.53,113.39Z" style="fill:rgb(145,107,88);fill-rule:nonzero;"/>
                <path d="M520.35,116.83C522.15,120.12 520.78,124.3 521.01,128.08C521.31,134.19 519.75,140.78 522.94,146.01C520.85,147.22 519.19,148.51 517.5,150.24L516.65,150.24L515.82,150.22C509.68,138.29 510.74,126.31 520.35,116.83Z" style="fill:rgb(149,29,26);fill-rule:nonzero;"/>
                <path d="M528.13,131.17C529.52,135.21 531.87,131.74 534.93,131.76C538.82,130.91 542.78,131.95 546.01,134.18C544.57,135.97 541.87,136.77 539.8,137.66C536.61,138.01 533.83,138.73 530.94,140.13C526.1,137.77 527.36,135.63 528.13,131.17Z" style="fill:rgb(151,103,87);fill-rule:nonzero;"/>
                <path d="M539.8,137.66C546.77,137.48 554.65,141.69 561.12,139.24C563.37,138.49 565.48,137.79 567.9,138.06C568.23,144.59 561.15,142.57 556.78,144.18C550.9,144.2 545.42,155.46 539.79,149.41C537.94,150.14 525.69,150.64 532.78,152.55C531.5,153.23 530.18,153.81 528.85,154.36C525.05,152.58 519.24,154.33 517.5,150.24C519.19,148.51 520.85,147.22 522.94,146.01C525.76,144.25 528.04,141.8 530.94,140.13C533.83,138.73 536.61,138.01 539.8,137.66Z" style="fill:rgb(244,228,208);fill-rule:nonzero;"/>
                <path d="M409.75,150.24C413.38,156.71 417.43,156.09 422.62,160.36C433.53,163.84 439.79,174.96 450.58,180.41C460.07,189.22 469.98,182.41 479.95,186.6C475.38,178.57 482.16,182.67 483.7,187.1C486,188.5 490.94,188.14 493.71,187.87C496.39,189.92 498.49,192.96 500.1,195.9C492.95,193.99 480.03,182.17 475.45,193.73C480.13,195.52 482.48,197.08 486.03,200.57C492.64,198.92 497.78,200.34 503.95,202.65C503.67,201.45 503.33,200.27 502.96,199.09C503.97,200.08 504.95,201.08 505.9,202.13C507.29,204.36 508.91,206.07 509.42,208.74C505.14,212.86 504.63,206.82 500.81,205.22C497.86,203.97 495.25,203.36 492.86,201.03C487.38,203.63 492.86,208.03 490.13,213.37C486.41,198.58 474.16,198.82 462.29,193.77C447.9,188.55 439.24,176.33 426.05,169.9C413.92,164.64 408.06,152.5 400.46,141.99C406.15,139.29 406.4,148.12 409.75,150.24Z" style="fill:rgb(154,109,73);fill-rule:nonzero;"/>
                <path d="M556.78,144.18C560.35,147.35 561.93,151.84 565.52,155.01C565.31,156.94 565.21,158.88 565.2,160.83C564.46,165.67 562.2,169.94 561.52,174.8C570.25,176.02 559.13,180.22 556.39,181C558.93,174.64 554.32,170.51 557.65,163.28C553.29,159.96 543.24,161.03 538.41,163.47C535.28,166.3 531.67,161.35 530.11,165.05C534.02,171.44 529.42,177.2 534.07,182.83C525.55,180.36 526.89,177.74 526.96,169.85C527.01,167.62 526.78,165.42 526.4,163.24C526.09,154.23 529.74,163.22 536.43,161.34C542.18,161.11 541.66,158.12 539.27,154.22C535.59,154.21 532.54,155.7 528.85,154.36C530.18,153.81 531.5,153.23 532.78,152.55C525.69,150.64 537.94,150.14 539.79,149.41C545.42,155.46 550.9,144.2 556.78,144.18Z" style="fill:rgb(185,128,82);fill-rule:nonzero;"/>
                <path d="M515.82,150.22L516.65,150.24C517.17,150.96 517.34,151.85 517.14,152.9C515.94,152.37 515.5,151.48 515.82,150.22Z" style="fill:rgb(221,192,187);fill-rule:nonzero;"/>
                <path d="M516.65,150.24L517.5,150.24C519.24,154.33 525.05,152.58 528.85,154.36C532.54,155.7 535.59,154.21 539.27,154.22C541.66,158.12 542.18,161.11 536.43,161.34C529.74,163.22 526.09,154.23 526.4,163.24C521.72,160.98 519.62,157.19 517.14,152.9C517.34,151.85 517.17,150.96 516.65,150.24Z" style="fill:rgb(119,60,29);fill-rule:nonzero;"/>
                <path d="M573.52,171.36C575,178.9 577.41,186.23 578.65,193.8C576.71,200.48 580.32,205.88 579.35,212.6C578.8,218.15 573.75,224.05 576.57,229.12C576.63,232.58 571.36,227.3 568.77,229.43C567.54,232.84 568.26,236.7 567.27,240.24C566.75,238.82 567.69,225.22 565.91,230.94C562.79,227.17 555.68,225.56 556.76,232.8L556.01,234.32C554.29,231.39 553.97,226.57 549.34,228.25C543.41,233.53 550.26,247.02 547.27,249.86C546.52,249.77 545.77,249.71 545.02,249.68C537.34,251.84 546.67,227.44 538.95,228.22C537.25,228.03 535.83,228.16 534.21,228.73L532.9,229.13C529.85,229.23 527.09,230.18 524.15,230.88C520.92,227.85 521.69,226.78 517.08,228.6C510.36,216.94 513.2,202.04 515.49,189.38C517.39,183.63 516.7,191.18 517.37,193.06C519.97,190.61 517.99,184.17 519.9,183.28C520.46,188.85 518.84,195.23 521.75,200.09C522.13,196.02 521.85,191.96 522.27,187.89C524.02,190.8 523.11,193.38 522.98,196.54C525.54,194.23 525.53,198.49 527.08,199.93C531.92,210.44 540.86,218.37 552.62,211.6C564.84,202.22 563.22,188.73 567.88,175.87C569.21,173.73 570.33,168.19 573.52,171.36Z" style="fill:rgb(237,59,43);fill-rule:nonzero;"/>
                <path d="M520.92,176.03C523.32,183.86 525.32,191.92 527.08,199.93C525.53,198.49 525.54,194.23 522.98,196.54C523.11,193.38 524.02,190.8 522.27,187.89C521.85,191.96 522.13,196.02 521.75,200.09C518.84,195.23 520.46,188.85 519.9,183.28C517.99,184.17 519.97,190.61 517.37,193.06C516.7,191.18 517.39,183.63 515.49,189.38C513.2,202.04 510.36,216.94 517.08,228.6C521.69,226.78 520.92,227.85 524.15,230.88C527.09,230.18 529.85,229.23 532.9,229.13C530.44,230.67 527.63,230.31 528.01,233.97C528.1,244.93 527.72,255.96 528.21,266.91C539.65,268.71 536.6,256.64 534.15,249.9C532.83,244.76 539.69,232.76 534.21,228.73C535.83,228.16 537.25,228.03 538.95,228.22C534.04,236.41 538.83,254.82 538.2,264.91C549.35,266.18 546.31,257.02 545.02,249.68C545.77,249.71 546.52,249.77 547.27,249.86C546.65,254.65 547.16,259.42 549.31,263.77C557.14,267.04 556.56,251.45 555.49,247.41C551.44,241.2 557.09,240.92 556.01,234.32L556.76,232.8C557.29,242.18 556.83,251.62 557.01,261.02C555.77,265.39 563.07,264.06 565.78,264.81C566.02,258.81 567.06,253.36 564.13,247.9C563.42,242.03 567.35,237.26 565.91,230.94C567.69,225.22 566.75,238.82 567.27,240.24C566.8,247.76 566.95,255.47 567.06,263C566.48,266.79 572.33,266.14 574.81,266.75C575.93,255.32 573.83,244.37 573.93,233.01C574.48,230.31 570.48,230.36 568.77,229.43C571.36,227.3 576.63,232.58 576.57,229.12C573.75,224.05 578.8,218.15 579.35,212.6C580.32,205.88 576.71,200.48 578.65,193.8C581.4,214.54 585.29,231.86 593.42,251.21C593.71,253.86 594.05,256.48 594.18,259.14C590.55,269.84 590.06,278.8 592.2,289.9C574.37,285.25 557.02,286.81 538.94,288.73C529.14,290.2 519.66,290.76 511.03,295.01C511.58,282.76 510.45,271.63 505.89,260.18C505.87,257.85 505.84,255.52 505.61,253.2C510.33,234.6 512.16,216.92 512.62,197.81C513.68,191.69 514.8,179.02 520.92,176.03Z" style="fill:rgb(211,39,18);fill-rule:nonzero;"/>
                <path d="M617.57,182.52C622.04,184.12 617.63,183.69 616.08,185.07C612.29,192.75 602.42,192.64 595.73,196.03C593.75,195.43 588.41,197.12 590.71,193.67C593.12,184.9 603.74,182.76 611.16,178.2C616.68,176.53 618.23,176.03 617.57,182.52Z" style="fill:rgb(112,74,31);fill-rule:nonzero;"/>
                <path d="M500.1,195.9C501,197.01 501.97,198.06 502.96,199.09C503.33,200.27 503.67,201.45 503.95,202.65C497.78,200.34 492.64,198.92 486.03,200.57C482.48,197.08 480.13,195.52 475.45,193.73C480.03,182.17 492.95,193.99 500.1,195.9Z" style="fill:rgb(96,65,34);fill-rule:nonzero;"/>
                <path d="M601.66,197.49C605.24,198.21 606.72,194.43 610,197.9C606.22,218.89 600.97,238.91 594.18,259.14C594.05,256.48 593.71,253.86 593.42,251.21C592.66,238.46 584.17,225.78 584.24,212.24C584.5,204.17 588.36,208.49 591.01,201.02C593.94,199.38 598.1,196.1 601.66,197.49Z" style="fill:rgb(193,147,103);fill-rule:nonzero;"/>
                <path d="M492.86,201.03C495.25,203.36 497.86,203.97 500.81,205.22C504.63,206.82 505.14,212.86 509.42,208.74C511.72,223.21 504.82,238.78 505.61,253.2C505.84,255.52 505.87,257.85 505.89,260.18C500.4,244.82 493.44,229.34 490.13,213.37C492.86,208.03 487.38,203.63 492.86,201.03Z" style="fill:rgb(195,152,111);fill-rule:nonzero;"/>
                <path d="M545.02,249.68C546.31,257.02 549.35,266.18 538.2,264.91C538.83,254.82 534.04,236.41 538.95,228.22C546.67,227.44 537.34,251.84 545.02,249.68Z" style="fill:rgb(245,205,157);fill-rule:nonzero;"/>
                <path d="M549.34,228.25C553.97,226.57 554.29,231.39 556.01,234.32C557.09,240.92 551.44,241.2 555.49,247.41C556.56,251.45 557.14,267.04 549.31,263.77C547.16,259.42 546.65,254.65 547.27,249.86C550.26,247.02 543.41,233.53 549.34,228.25Z" style="fill:rgb(244,208,162);fill-rule:nonzero;"/>
                <path d="M565.91,230.94C567.35,237.26 563.42,242.03 564.13,247.9C567.06,253.36 566.02,258.81 565.78,264.81C563.07,264.06 555.77,265.39 557.01,261.02C556.83,251.62 557.29,242.18 556.76,232.8C555.68,225.56 562.79,227.17 565.91,230.94Z" style="fill:rgb(243,206,158);fill-rule:nonzero;"/>
                <path d="M534.21,228.73C539.69,232.76 532.83,244.76 534.15,249.9C536.6,256.64 539.65,268.71 528.21,266.91C527.72,255.96 528.1,244.93 528.01,233.97C527.63,230.31 530.44,230.67 532.9,229.13L534.21,228.73Z" style="fill:rgb(239,202,154);fill-rule:nonzero;"/>
                <path d="M568.77,229.43C570.48,230.36 574.48,230.31 573.93,233.01C573.83,244.37 575.93,255.32 574.81,266.75C572.33,266.14 566.48,266.79 567.06,263C566.95,255.47 566.8,247.76 567.27,240.24C568.26,236.7 567.54,232.84 568.77,229.43Z" style="fill:rgb(242,195,146);fill-rule:nonzero;"/>
                <path d="M526.65,236.33C527.45,246.08 526.86,256.18 526.95,266C527.5,269.13 520.43,272.22 520.54,267.41C519.18,259.81 520.56,251.7 519.87,243.99C519.65,241.62 519.12,239.37 519,237C518,232.26 526.06,231.32 526.65,236.33Z" style="fill:rgb(248,201,151);fill-rule:nonzero;"/>
                <path d="M592.2,289.9C592.98,293.59 593.32,297.32 593.97,301.04C589.59,292.87 573.78,295.65 566,294.96C547.9,296.29 528.01,296.92 510.73,302.81C510.98,300.21 511.01,297.61 511.03,295.01C519.66,290.76 529.14,290.2 538.94,288.73C557.02,286.81 574.37,285.25 592.2,289.9Z" style="fill:rgb(239,187,109);fill-rule:nonzero;"/>
                <path d="M566,294.96C573.78,295.65 589.59,292.87 593.97,301.04C594.46,302.7 594.97,304.36 595.46,306.03C585.96,303 576.76,300.86 565.94,302.78C548.64,303.29 530.49,304.81 513.86,309.89C509,312.88 511.67,305.42 510.73,302.81C528.01,296.92 547.9,296.29 566,294.96Z" style="fill:rgb(199,38,18);fill-rule:nonzero;"/>
                <path d="M595.46,306.03C595.7,307.8 598.35,312.68 595.07,312.75C586.12,308.32 576.38,310.32 566,310.14C547.58,312.22 527.8,312.79 510.19,318.86C509.91,313.6 509.49,307.96 510.73,302.81C511.67,305.42 509,312.88 513.86,309.89C530.49,304.81 548.64,303.29 565.94,302.78C576.76,300.86 585.96,303 595.46,306.03Z" style="fill:rgb(227,188,111);fill-rule:nonzero;"/>
                <path d="M577.91,339.91C573.12,346.38 566.93,349.81 564.16,357.92C563.88,353.59 561.86,359.24 560.75,360.19C554.91,358.59 548.33,359.89 542.14,358.24C545.68,368.9 559.73,369.96 556.85,380.94C552.49,392.8 553.9,404.31 553.21,416.07C552.21,416.43 551.21,416.78 550.2,417.12C542.53,420.86 528.2,421.22 522.8,424.93C514.05,398.59 509.48,368.83 508,341.19C515.95,346.92 508.76,353.8 513.49,361.55C517.89,366.93 516.54,373.04 519,379.05C521.6,382.53 531.36,378.3 530.78,384.45C534.47,383.71 532.16,390.92 534.76,385.81C538.5,384.65 546.63,378.57 544.47,373.37C545.67,372.7 548.79,373.36 547.45,371.33C543.73,362.18 536.39,353.53 528.76,347.4C536.42,347.45 544.24,355.39 550.88,352.99C554.75,344.2 560.02,348.72 567.64,347.36C571.44,345.55 574.04,341.41 577.91,339.91Z" style="fill:rgb(237,233,218);fill-rule:nonzero;"/>
                <path d="M564.16,357.92C553.84,373.35 570.16,394.07 564.93,412.98C560.98,413.88 557.03,414.68 553.21,416.07C553.9,404.31 552.49,392.8 556.85,380.94C559.73,369.96 545.68,368.9 542.14,358.24C548.33,359.89 554.91,358.59 560.75,360.19C561.86,359.24 563.88,353.59 564.16,357.92Z" style="fill:rgb(198,184,153);fill-rule:nonzero;"/>
                <path d="M584.02,359.45C587.9,360.11 600.23,356.91 600.89,361.79C597.08,364.07 600.18,364.35 599.69,367.99C597.79,370.38 595.16,373.71 591.9,371.42C599.53,367.61 588.2,370.32 590.63,364.21C591.31,359.35 584.57,366.62 584.02,359.45Z" style="fill:rgb(133,92,94);fill-rule:nonzero;"/>
                <path d="M599.69,367.99C602.33,368.48 602.16,369.15 603.07,371.35C604.53,370.76 606.14,369.85 605.41,372.4C605.04,377.59 600.42,374.44 597,374.95C591.1,374.23 586.69,378.05 581.05,377.95C581.39,371.94 587.37,372.19 591.9,371.42C595.16,373.71 597.79,370.38 599.69,367.99Z" style="fill:rgb(182,175,174);fill-rule:nonzero;"/>
                <path d="M607.35,389.66C615.21,393.31 611.9,400.54 611.38,407.23C611.25,405.31 611.17,403.34 610.76,401.45C608.58,400.2 611.9,409.94 608.4,406.77C604.08,413.35 590.63,414.04 591.22,423.2C590.18,427.58 597.55,425.6 598.23,429.3C604.32,427.31 603.27,437.81 599.28,433.71C596.4,429.38 591.68,439.68 587.42,440.03C587.52,436.52 587.27,433.25 588.86,429.99C586.61,426.99 584.28,424.66 580.43,426.62C578.07,417.33 574.69,407.19 575.4,397.57C575.16,394.83 572.73,395.6 570.73,394.84C579.27,385.86 596.41,385.47 607.35,389.66Z" style="fill:rgb(191,141,105);fill-rule:nonzero;"/>
                <path d="M570.73,394.84C572.73,395.6 575.16,394.83 575.4,397.57C574.69,407.19 578.07,417.33 580.43,426.62C584.28,424.66 586.61,426.99 588.86,429.99C587.27,433.25 587.52,436.52 587.42,440.03C591.68,439.68 596.4,429.38 599.28,433.71C603.27,437.81 604.32,427.31 598.23,429.3C597.55,425.6 590.18,427.58 591.22,423.2C590.63,414.04 604.08,413.35 608.4,406.77C611.9,409.94 608.58,400.2 610.76,401.45C611.17,403.34 611.25,405.31 611.38,407.23C610.37,414.03 609.11,420.74 608.5,427.61C605.83,443.22 616.67,453.99 615.01,469.98C608.5,475.52 615.43,464.28 609.31,465.38C606.7,458.08 605.35,451.41 604.4,443.76C602.44,438.03 601.11,447.71 600.26,449.06C600.04,446.38 600.01,443.69 599.75,441.02C595.18,441.73 596.24,448.68 590.69,444.31C583.78,441.73 586.68,433.3 579.74,435.29C577.58,435.19 577.56,438.85 576.73,440.32C574.06,433.89 572.86,427.18 571.6,420.39C570.74,412.22 564.28,402.09 570.73,394.84Z" style="fill:rgb(163,120,88);fill-rule:nonzero;"/>
                <path d="M564.93,412.98C564.1,427.1 567.41,440.55 565.44,454.39C560.65,468.55 570.61,484.3 569.99,499.02C569.15,504.75 568.78,510.15 568.88,515.95C566.32,516.44 563.76,516.94 561.19,517.38C556.24,516.96 558.81,516.9 560.99,514.86C559.57,511.01 556.97,508.22 554.15,505.35C559.28,507.62 555.79,496.9 552.53,496.83C554,493.49 555.46,486.75 552.44,484.03C551.82,486.34 551.32,488.68 550.63,490.98C547.23,487.06 552.5,484.61 550.41,480.6C549.11,477.75 547.6,474.37 545.21,472.28C538.58,477.54 543.23,456.73 539.43,465.92C535.55,457.55 545.22,461.52 545.05,453.92C546.93,449.89 542.29,447.09 543.6,443.66C547.81,443.15 551.42,444.32 552.88,439.12C540.07,438.96 554.94,422.84 550.2,417.12C551.21,416.78 552.21,416.43 553.21,416.07C557.03,414.68 560.98,413.88 564.93,412.98Z" style="fill:rgb(130,89,55);fill-rule:nonzero;"/>
                <path d="M550.2,417.12C554.94,422.84 540.07,438.96 552.88,439.12C551.42,444.32 547.81,443.15 543.6,443.66C542.29,447.09 546.93,449.89 545.05,453.92C545.22,461.52 535.55,457.55 539.43,465.92C543.23,456.73 538.58,477.54 545.21,472.28C547.6,474.37 549.11,477.75 550.41,480.6C552.5,484.61 547.23,487.06 550.63,490.98C551.32,488.68 551.82,486.34 552.44,484.03C555.46,486.75 554,493.49 552.53,496.83C555.79,496.9 559.28,507.62 554.15,505.35C556.97,508.22 559.57,511.01 560.99,514.86C558.81,516.9 556.24,516.96 561.19,517.38C556.26,518.02 549.92,520.85 545.15,519.08C540.9,501.94 533.75,487.12 535.9,469.01C535.7,452.68 527.84,439.99 522.8,424.93C528.2,421.22 542.53,420.86 550.2,417.12Z" style="fill:rgb(149,107,76);fill-rule:nonzero;"/>
                <path d="M579.74,435.29C586.68,433.3 583.78,441.73 590.69,444.31C596.24,448.68 595.18,441.73 599.75,441.02C600.01,443.69 600.04,446.38 600.26,449.06C601.11,447.71 602.44,438.03 604.4,443.76C605.35,451.41 606.7,458.08 609.31,465.38C615.43,464.28 608.5,475.52 615.01,469.98C615.37,479.58 613.19,489.23 612.86,498.82C612.18,509.17 595.04,507.44 589.94,501.97C588.55,493.4 584.09,485.84 582.5,477.4C582.04,463.66 582.3,453.3 576.73,440.32C577.56,438.85 577.58,435.19 579.74,435.29Z" style="fill:rgb(135,94,63);fill-rule:nonzero;"/>
                <path d="M612.86,498.82C612.5,502.64 613.74,508.47 611.8,511.8C608.49,513.4 601.93,510.87 598.91,513.78C603.34,514.28 612,511.67 613.04,517.97C607.16,519.05 596.75,515.06 594.08,521.83C593.1,521.26 592.17,520.6 591.22,519.98C593.18,513.75 590.16,508.71 589.94,501.97C595.04,507.44 612.18,509.17 612.86,498.82Z" style="fill:rgb(204,196,190);fill-rule:nonzero;"/>
                <path d="M568.88,515.95C569.18,518.97 569.67,521.96 569.94,524.98C565.32,519.99 552.71,524.71 547.77,528.06C546.85,525.09 545.98,522.08 545.15,519.08C549.92,520.85 556.26,518.02 561.19,517.38C563.76,516.94 566.32,516.44 568.88,515.95Z" style="fill:rgb(223,200,195);fill-rule:nonzero;"/>
                <path d="M613.04,517.97C615.29,530.49 614.32,542.3 622.35,553.27C620.82,554.2 613.26,550.42 617.23,553.73C620.1,555.25 620.47,555.51 618.12,558.01C611.2,559.43 623.12,572.17 623.99,564.43C624.49,563.38 625.49,562.54 626.21,561.64C627.82,567.33 627.12,571.86 622.76,576L605.19,576C600.62,572.56 598.2,568.88 599.19,562.93C602.57,563.59 605.18,565.31 608.13,566.9C611.52,567.86 611.28,561.42 611.72,559.32C607.26,559.65 599.37,554.88 599.23,562.09C598.98,559.27 598.37,556.59 596.78,554.21C589.29,545.47 590.74,530.65 591.22,519.98C592.17,520.6 593.1,521.26 594.08,521.83C596.75,515.06 607.16,519.05 613.04,517.97Z" style="fill:rgb(80,54,54);fill-rule:nonzero;"/>
                <path d="M569.94,524.98C570.33,530.29 571,535.63 572.14,540.83C571.12,541.96 566.29,545.87 566.51,542.08C569.02,532.89 554.5,536.17 549.94,537.9C549.9,534.44 548.81,531.31 547.77,528.06C552.71,524.71 565.32,519.99 569.94,524.98Z" style="fill:rgb(191,44,41);fill-rule:nonzero;"/>
                <path d="M566.51,542.08C566.29,545.87 571.12,541.96 572.14,540.83C574.1,542.93 574.59,545.26 574.81,548.04C574.49,559.29 581.62,565.98 577.91,576L532.38,576C534.79,568.34 544.73,567.93 548.08,560.05C554.28,551.22 549.77,546.64 549.94,537.9C554.5,536.17 569.02,532.89 566.51,542.08Z" style="fill:rgb(73,54,53);fill-rule:nonzero;"/>
                <path d="M622.35,553.27C624.19,555.87 625.82,558.4 626.21,561.64C625.49,562.54 624.49,563.38 623.99,564.43C623.12,572.17 611.2,559.43 618.12,558.01C620.47,555.51 620.1,555.25 617.23,553.73C613.26,550.42 620.82,554.2 622.35,553.27Z" style="fill:rgb(134,129,126);fill-rule:nonzero;"/>
                <path d="M611.72,559.32C611.28,561.42 611.52,567.86 608.13,566.9C605.18,565.31 602.57,563.59 599.19,562.93L599.23,562.09C599.37,554.88 607.26,559.65 611.72,559.32Z" style="fill:rgb(123,124,114);fill-rule:nonzero;"/>
                <path d="M559.05,570.05C554.42,570.99 548.72,568.99 543.96,568.63C545.97,565.84 551.1,567.63 554.13,566.69C553.68,563.18 564.66,569.01 559.05,570.05Z" style="fill:rgb(151,141,130);fill-rule:nonzero;"/>
            </g>
        </g>
    </g>
</svg>
