<?xml version="1.0" encoding="UTF-8" standalone="no"?>
<!DOCTYPE svg PUBLIC "-//W3C//DTD SVG 1.1//EN" "http://www.w3.org/Graphics/SVG/1.1/DTD/svg11.dtd">
<svg width="100%" height="100%" viewBox="0 0 1728 1728" version="1.1" xmlns="http://www.w3.org/2000/svg" xmlns:xlink="http://www.w3.org/1999/xlink" xml:space="preserve" xmlns:serif="http://www.serif.com/" style="fill-rule:evenodd;clip-rule:evenodd;stroke-linejoin:round;stroke-miterlimit:2;">
    <g transform="matrix(1,0,0,1,-7360,-6075)">
        <g id="_26" serif:id="26" transform="matrix(1,0,0,1,7360,6075)">
            <rect x="0" y="0" width="1728" height="1728" style="fill:none;"/>
            <g transform="matrix(0,4.109483,-4.109483,0,2030.252983,-816.264863)">
                <g>
                    <path d="M449.97,156.19C455.59,155.18 460.75,156.82 465.75,159.25C471.47,162.08 477.06,165.19 482.59,168.38C487.43,171.16 491.82,174.57 496.58,177.45C501.29,180.39 507.58,181.12 513,181.61C517.62,181.96 522.44,182.56 527.07,182.07C528.63,181.92 530.04,180.55 531.36,179.77C532.18,180.81 533,181.86 533.82,182.91C529.92,187.93 524.81,191.23 519.4,194.4C511.78,198.71 502.83,202.89 494,203.48C487.75,204.03 483.98,200.16 478.03,199.35C474.07,198.7 470.02,200.33 466.16,199.76C463.38,199.1 462.02,196.91 460.4,194.79C460.6,202.25 460.84,209.63 461.98,217.02C462.07,219.32 463.07,222.77 461.25,224.53C459.9,223.73 458.64,222.79 457.4,221.84C464.77,236.21 465.69,251.95 470.79,268.11C474.18,269.24 477.98,270.16 481.04,272.04C484.05,273.97 485.79,277.49 487.42,280.56C489.2,284.09 491.18,287.56 492.68,291.21C494.39,295.45 494.44,299.58 494.8,304.06C507.88,309.71 521.9,313.26 534.94,318.99C536.9,319.98 539.8,321.28 540.72,323.4C541.68,327.63 539.86,331.9 537.14,335.1C532.98,340.02 526.67,343.37 520.78,345.76C509.03,350.46 496.04,352.71 483.45,353.49C481.55,358.87 480.32,364.92 475.95,368.93C471.29,373.16 464.92,375.81 459.17,378.22C454.67,380.16 449.8,380.5 445.21,382.02C438.97,386.66 433.61,392.83 426.86,396.93C422.97,399.21 418.66,400.39 415.06,403.07C412.42,405.02 410.4,407.2 407.22,408.35C400.81,410.66 393.79,411.54 387,411.7C379.74,411.78 371.47,410.75 365.23,406.74C360.89,404.01 359.17,399.99 355.46,396.53C350.37,391.66 346.16,386.06 343.53,379.48C341.16,373.22 340.33,366.57 339.48,360C339.28,356.99 337.06,354.96 335.5,352.49C331.16,346.39 329.68,338.87 328.18,331.68C317.75,327.8 309.15,321.81 299.24,316.77C291,312.82 282.96,306.93 277.65,299.44C274.83,292.88 279.16,283.5 285.43,280.38C298.43,273.39 313.52,269.12 327.78,265.52C330.94,264.67 334.16,264.15 337.41,263.77C340.3,258.2 345.13,255.46 350.07,252.03C351.94,250.86 352.31,249.07 353.11,247.17C355.25,241.4 358.1,234.93 362.61,230.61C364.72,228.51 367.48,227.53 369.79,225.77C372.3,222.92 374.11,219.39 376.23,216.24C384.6,202.92 394.14,190.41 405.33,179.33C411.83,172.29 420.25,169.04 428.57,164.57C435.29,161.34 442.57,157.43 449.97,156.19Z" style="fill:rgb(0,28,61);fill-rule:nonzero;"/>
                    <clipPath id="_clip1">
                        <path d="M449.97,156.19C455.59,155.18 460.75,156.82 465.75,159.25C471.47,162.08 477.06,165.19 482.59,168.38C487.43,171.16 491.82,174.57 496.58,177.45C501.29,180.39 507.58,181.12 513,181.61C517.62,181.96 522.44,182.56 527.07,182.07C528.63,181.92 530.04,180.55 531.36,179.77C532.18,180.81 533,181.86 533.82,182.91C529.92,187.93 524.81,191.23 519.4,194.4C511.78,198.71 502.83,202.89 494,203.48C487.75,204.03 483.98,200.16 478.03,199.35C474.07,198.7 470.02,200.33 466.16,199.76C463.38,199.1 462.02,196.91 460.4,194.79C460.6,202.25 460.84,209.63 461.98,217.02C462.07,219.32 463.07,222.77 461.25,224.53C459.9,223.73 458.64,222.79 457.4,221.84C464.77,236.21 465.69,251.95 470.79,268.11C474.18,269.24 477.98,270.16 481.04,272.04C484.05,273.97 485.79,277.49 487.42,280.56C489.2,284.09 491.18,287.56 492.68,291.21C494.39,295.45 494.44,299.58 494.8,304.06C507.88,309.71 521.9,313.26 534.94,318.99C536.9,319.98 539.8,321.28 540.72,323.4C541.68,327.63 539.86,331.9 537.14,335.1C532.98,340.02 526.67,343.37 520.78,345.76C509.03,350.46 496.04,352.71 483.45,353.49C481.55,358.87 480.32,364.92 475.95,368.93C471.29,373.16 464.92,375.81 459.17,378.22C454.67,380.16 449.8,380.5 445.21,382.02C438.97,386.66 433.61,392.83 426.86,396.93C422.97,399.21 418.66,400.39 415.06,403.07C412.42,405.02 410.4,407.2 407.22,408.35C400.81,410.66 393.79,411.54 387,411.7C379.74,411.78 371.47,410.75 365.23,406.74C360.89,404.01 359.17,399.99 355.46,396.53C350.37,391.66 346.16,386.06 343.53,379.48C341.16,373.22 340.33,366.57 339.48,360C339.28,356.99 337.06,354.96 335.5,352.49C331.16,346.39 329.68,338.87 328.18,331.68C317.75,327.8 309.15,321.81 299.24,316.77C291,312.82 282.96,306.93 277.65,299.44C274.83,292.88 279.16,283.5 285.43,280.38C298.43,273.39 313.52,269.12 327.78,265.52C330.94,264.67 334.16,264.15 337.41,263.77C340.3,258.2 345.13,255.46 350.07,252.03C351.94,250.86 352.31,249.07 353.11,247.17C355.25,241.4 358.1,234.93 362.61,230.61C364.72,228.51 367.48,227.53 369.79,225.77C372.3,222.92 374.11,219.39 376.23,216.24C384.6,202.92 394.14,190.41 405.33,179.33C411.83,172.29 420.25,169.04 428.57,164.57C435.29,161.34 442.57,157.43 449.97,156.19Z" clip-rule="nonzero"/>
                    </clipPath>
                    <g clip-path="url(#_clip1)">
                        <path d="M449.03,162.94C454.91,161.7 460.69,163.99 464.79,168.21C471,174.48 478.67,178.53 486.4,182.63C491.78,185.36 496.79,188.06 502.98,188.19C509.38,188.31 515.79,187.23 522.2,187.15C515.55,192.52 506.35,194.24 498.04,192.98C490.49,191.49 483.43,188.7 476.22,186.61C472.38,185.47 468.24,184.94 464.53,183.43C461.26,181.99 458.96,179.31 456.51,176.8C454.76,181.8 453.08,186.66 452.52,191.97C452.14,195.87 451.82,199.72 450.57,203.46C445.07,199.44 440.5,194.52 434.39,191.28C436.04,197.51 438.4,203.42 439.56,209.78C440.99,216.26 441.09,222.85 442.79,229.27C444.24,234.91 443.9,240.36 443.46,246.09C436.55,242.28 430.82,236.75 423.91,233.01C417.92,230.25 411.27,228.76 404.94,226.97C397.56,224.69 390.2,226.79 382.24,226.05C384.15,219.45 388.36,214.67 391.9,208.95C396.56,201.97 400.91,194.66 406.13,188.08C411.24,181.66 418.57,177.75 425.43,173.43C432.68,169.19 440.73,164.56 449.03,162.94Z" style="fill:white;fill-rule:nonzero;"/>
                        <path d="M385.82,230.84C384.37,233.47 382.91,236.09 381.45,238.72C375.09,239.16 368.91,240.43 362.71,241.85C363.88,240.39 364.99,238.66 366.45,237.46C372.24,233.47 378.83,231.43 385.82,230.84Z" style="fill:white;fill-rule:nonzero;"/>
                        <path d="M394.03,231.14C400.31,231.35 406.51,232.59 412.27,235.15C405.24,243.47 400.4,253.05 395.88,262.9C394.78,265.22 393.48,267.43 392.16,269.64C385.68,268.73 379.39,267.62 373.3,265.12C374.33,260.91 376.23,257.18 378.54,253.54C382.53,247.18 386.34,240.7 390.39,234.38C391.24,233.34 392.52,231.01 394.03,231.14Z" style="fill:white;fill-rule:nonzero;"/>
                        <path d="M421.1,239.86C432.28,246.47 442.9,253.62 451.85,263.14C457.91,269.54 462.14,277.92 465.43,286.02C464.52,288.56 462.81,289.81 460.12,289.98C454.56,285.3 451.2,277.03 446.29,271.71C441.6,266.5 436.56,261.27 430.95,257.06C425.23,252.97 419.3,249.22 413,246.08C413.83,243.69 414.42,240.9 415.87,238.81C417.63,237.67 419.51,239.07 421.1,239.86Z" style="fill:white;fill-rule:nonzero;"/>
                        <path d="M377.98,244.24C376.76,246.7 375.45,249.1 374.07,251.47C370.54,251.47 367,251.44 363.47,251.28C367.86,246.91 371.86,245.16 377.98,244.24Z" style="fill:white;fill-rule:nonzero;"/>
                        <path d="M410.96,251.98C415.2,252.37 419.41,254.83 422.98,257.03C429.8,261.5 436.49,267.03 441.18,273.76C439.85,275.58 438.47,277.33 436.97,279.01C428.22,270.79 417.33,264.6 406.53,259.5C407.93,257.01 409.09,254.15 410.96,251.98Z" style="fill:white;fill-rule:nonzero;"/>
                        <path d="M371.02,256.87C370.08,259.37 369.13,261.87 368.16,264.36C360.76,264.12 353.44,265.15 346.06,265.14C347.58,263.28 349.25,261.61 351.19,260.18C356.03,255.8 364.88,257.54 371.02,256.87Z" style="fill:white;fill-rule:nonzero;"/>
                        <path d="M401.84,265.2C408.05,267.05 413.95,271.13 419.38,274.62C426.48,279.32 433.27,284.69 439.36,290.64C442.56,294.01 446.43,298.3 447.32,302.98C447.66,304.87 447.29,305.96 446.04,307.38C442.5,307.85 441.15,303.84 439.37,301.57C434.11,294.17 424.77,288.97 417.76,283.24C411.79,278.18 405.03,275.54 398.07,272.21C399.14,269.76 400.29,267.38 401.84,265.2Z" style="fill:white;fill-rule:nonzero;"/>
                        <path d="M368.27,269.83C373.94,271.69 379.33,271.68 384.45,275.08C372.36,276.25 360.14,276.1 348.01,276.79C344.37,277.03 340.92,277.97 337.42,278.94C349.77,280.36 361.79,283.83 373.14,288.86C388.79,296.08 405.14,301.86 421.23,308C420.88,309.7 420.53,311.4 420.18,313.1C394.96,304.03 368.89,293.07 342.79,287.66C333.8,285.82 324.19,283.7 315,283.78C306.38,283.79 298.43,286.45 289.8,286.94C296.42,282.81 303.81,279.17 311.5,277.68C319.54,275.87 327.79,273.81 336.01,273.17C346.77,272.14 357.97,270.08 368.78,270.64L368.27,269.83Z" style="fill:white;fill-rule:nonzero;"/>
                        <path d="M467.88,276.6C472.35,280.42 477.44,284.42 480.55,289.45C483.26,294.87 484.44,301.2 485.92,307.05C483.87,308.13 481.16,308.85 480.21,311.21C478.85,314.86 478.57,319.15 478.96,323C479.34,326.4 481.96,328.02 484.21,330.22C483.53,333.67 483.03,337.39 481.7,340.65C479.81,340.6 478,340.19 476.1,340.2C473.31,342.27 471.24,345.86 469.91,349.02C468.55,352.73 470.63,355.59 472.14,358.79C468.46,362.44 464.88,365.81 460.21,368.21C457.62,369.53 454.52,369.87 451.67,370.38C454.73,366.31 458.49,362.39 460.82,357.85C462.31,354.66 460.6,351.86 458.05,349.96C455.2,347.96 451.59,345.97 448.06,345.84C444.89,348.45 442.73,352.28 439.99,355.34C435.46,341.88 432.91,328.21 435.39,314.04C431.87,326.55 429.78,339 431.2,352.03C431.61,356.3 433.65,359.93 434.47,364.16C432.78,363.29 431.38,363.39 430.42,361.54C426.89,355.54 424.41,349.01 423.87,342.02C422.75,328.51 426.21,315.29 430.71,302.67C433.16,305.13 435.81,307.26 437.95,310.02C439.94,312.37 441.93,315.4 445.03,316.27C451.16,315.09 455.25,307.98 454.1,302C452.87,294.83 447.73,289.37 442.79,284.42C443.69,282.72 444.63,281.06 445.62,279.41C448.45,283.27 451.29,287.1 453.79,291.18C454.68,292.54 455.6,294.15 456.88,295.17C461.46,295.74 468.4,295.14 471.29,290.96C471,287.1 469.63,283.24 468.65,279.5C468.39,278.54 468.14,277.57 467.88,276.6Z" style="fill:white;fill-rule:nonzero;"/>
                        <path d="M344.49,299.66C343.02,309.01 340.99,319.03 342.01,328.99C343.22,337.28 348.18,343.91 351.97,351.09C353.45,353.71 355.59,356.06 357.4,358.48C349.42,356.09 342.99,350.13 339.33,342.75C334.86,332.05 334.97,321.38 335.14,310C335.23,306.91 335.59,303.04 337.43,300.45C339.18,298.24 342.16,299.41 344.49,299.66Z" style="fill:white;fill-rule:nonzero;"/>
                        <path d="M486.33,313.47C486.92,316.67 485.82,319.39 484.45,322.19C483.85,319.93 482.53,316.72 483.57,314.46C484.29,313.4 485.21,313.57 486.33,313.47Z" style="fill:white;fill-rule:nonzero;"/>
                        <path d="M493.72,313.02C497.53,314.89 500.99,317.39 504.85,319.18C509.52,321.51 514.39,322.6 519.4,323.9C510.62,325.19 501.54,324.83 492.71,324.37C493.07,320.59 493.27,316.79 493.72,313.02Z" style="fill:white;fill-rule:nonzero;"/>
                        <path d="M391.85,326.95C400.48,329.46 408.47,333.2 417.51,334.34C417.68,337.19 417.77,340.05 417.85,342.91C408.27,340.42 398.54,338.53 388.9,336.29C389.87,333.17 390.86,330.06 391.85,326.95Z" style="fill:white;fill-rule:nonzero;"/>
                        <path d="M477.32,345.26C478.09,346.46 478.84,347.65 479.33,348.98C478.52,350.68 477.17,351.76 475.86,353.04C475.26,351.62 474.66,350.2 474.11,348.76C475.08,347.51 476.19,346.37 477.32,345.26Z" style="fill:white;fill-rule:nonzero;"/>
                        <path d="M384.43,347.66C388.78,347.83 392.8,348.89 396.99,349.88C404.51,351.7 412.01,353.4 419.75,353.96C420.61,360.1 425.05,364.57 428.54,369.44C421.95,374.05 415.4,379.21 408.39,383.08C406.21,382.37 404.41,381.32 402.04,381.73C393.16,382.69 385.14,385.05 376.21,382.6C370.88,381.07 365.35,379.04 360.36,376.63C355.52,374.22 355.11,368.87 353.85,364.21C361.19,366.63 368.99,364.51 374.95,359.88C378.76,356.6 381.72,351.85 384.43,347.66Z" style="fill:white;fill-rule:nonzero;"/>
                        <path d="M449.99,351.31C451.42,352.34 453.3,352.96 453.28,355.04C453.24,358.59 449.85,362.1 447.79,364.79C443.3,369.96 440.33,375.74 435.44,380.42C430.17,385.58 424.33,388.97 418.35,393.34C414.82,395.69 410.24,398.63 405.87,398.49C402.83,396.63 403.76,393.83 403.5,390.8C412.53,387.33 420.77,382.27 428.37,376.32C433.4,372.29 438.03,368.09 441.78,362.8C444.54,359.02 446.81,354.66 449.99,351.31Z" style="fill:white;fill-rule:nonzero;"/>
                        <path d="M348.23,369.36C351.16,374.43 353.78,379.26 358.64,382.8C358.32,384.4 358,385.99 357.67,387.59C353.21,383.03 350.69,378.35 349.02,372.21C348.75,371.26 348.49,370.31 348.23,369.36Z" style="fill:white;fill-rule:nonzero;"/>
                        <path d="M366.87,385.07C370.56,386.53 373.94,388.32 377.97,388.75C384.75,390.02 391,388.51 397.78,388.54C397.19,389.85 396.6,391.16 396,392.47C397.07,395.87 397.92,399.28 398.46,402.81C392.47,404.58 386.16,405.01 379.96,404.29C375.38,403.68 370.55,402.15 367.23,398.78C364.17,395.77 362.92,391.16 363.81,387C364.05,385.51 365.4,384.38 366.87,385.07Z" style="fill:white;fill-rule:nonzero;"/>
                        <g transform="matrix(1,0,0,1,-3,-2)">
                            <path d="M463.522,307L465.508,306.988L468.644,316.049L467.609,318.938L463.522,307Z" style="fill:rgb(0,28,61);"/>
                            <path d="M463.514,309.44L465.82,316.027L465.833,331.459L463.562,338.047L463.514,309.44Z" style="fill:rgb(0,28,61);"/>
                            <path d="M463.586,340.026L465.87,340.006L469.239,329.672L468.217,326.531L463.586,340.026Z" style="fill:rgb(0,28,61);"/>
                            <path d="M467.837,327.578L468.228,326.549L469.333,326.531L471.102,331.483L471.132,337.641L468.931,330.681L467.837,327.578Z" style="fill:rgb(0,28,61);"/>
                            <path d="M471.77,340.024L474.073,340.016L473.99,306.959L471.753,306.995L471.77,340.024Z" style="fill:rgb(0,28,61);"/>
                            <path d="M470.849,309.672L470.84,316.141L469.293,320.517L468.19,320.516L467.607,318.939L470.849,309.672Z" style="fill:rgb(0,28,61);"/>
                        </g>
                    </g>
                </g>
            </g>
            <g id="mid" transform="matrix(1.901713,0,0,1.901713,-246.653586,-173.163297)">
                <path d="M548.05,134.84C541.05,130.88 534.61,138.44 544.96,141.03C530.78,136.25 513.65,142.51 504.63,154.18C501.96,156.2 499.31,158.13 497.02,160.59C490.06,166.35 484.26,173.77 476.94,178.8C474.18,177.44 477.67,170.31 481.83,171.43C478.27,160.64 491.17,158.22 497.16,152.14C502.48,147.69 508.6,144.36 513.95,140C502.89,143.16 491.41,149.21 480.9,154.15C479.84,151.03 480.31,151.08 482.75,149.34C497.82,144.79 514.47,130.85 531.55,129.7C529.29,127.68 521.09,129.97 516.92,129.97C524.61,125.67 541.86,128.51 548.05,134.84Z" style="fill:rgb(215,211,204);fill-rule:nonzero;"/>
                <path d="M531.55,129.7C514.47,130.85 497.82,144.79 482.75,149.34C492.84,137.8 502.8,134.54 516.92,129.97C521.09,129.97 529.29,127.68 531.55,129.7Z" style="fill:rgb(45,41,39);fill-rule:nonzero;"/>
                <path d="M554.19,138.85C559.13,142.45 568.26,149.97 569.63,155.34C581.45,161.93 582.52,172.52 584.03,184.74C574.6,177.02 580.08,192.67 581.61,196.86C582.88,193.3 583.36,189.45 584.8,185.96C585.32,193.5 585.32,200.9 583.26,208.23C582.49,206.23 584.69,199.08 580.88,202.65C579.8,200.31 579.56,186.74 577.55,197.02C574.9,192.26 577.54,186.56 575.03,181.01C578.19,182.03 577.59,186.39 578.4,180.4C579.86,180.07 580.33,170.22 579.18,169.79C569.93,161.28 563.77,150.7 553.87,142.91C555.26,140.87 550,136.18 554.19,138.85Z" style="fill:rgb(131,130,131);fill-rule:nonzero;"/>
                <path d="M544.96,141.03C548.24,143.17 551.53,145.27 554.57,147.75C552.68,153.09 550.3,147.38 545.77,151.61C539.56,149.88 538.44,145.12 531.38,151.22C524.39,148.73 522.25,153 515.13,151.76C510.67,150.72 508.66,156.1 504.63,154.18C513.65,142.51 530.78,136.25 544.96,141.03Z" style="fill:rgb(67,49,41);fill-rule:nonzero;"/>
                <path d="M513.95,140C508.6,144.36 502.48,147.69 497.16,152.14C491.17,158.22 478.27,160.64 481.83,171.43C477.67,170.31 474.18,177.44 476.94,178.8C484.26,173.77 490.06,166.35 497.02,160.59C500.07,165.4 497.51,170.25 501.99,174.26C501.29,178.21 502.39,181.38 499.98,185.03C498.1,188 499.41,190.82 495.12,188.5C490.95,192.04 488.54,205.68 491.08,210.21C486.31,214.19 488.16,219.3 488.32,224.76C488.18,227.88 487.89,230.98 487.49,234.06C485.29,230.63 483.36,226.53 480.38,223.79C478.77,222.26 475.54,214.73 473.12,218.15C474.99,220.81 476.88,223.42 480.38,223.79C476.5,231.27 478.6,233.21 483.42,239.08C479.67,240.76 479.32,239.86 477.03,237.03C468.33,225.06 463.7,210.95 462.24,196.31C463.44,196.84 464.63,197.44 465.8,198.04C468.45,201.14 479.13,205.08 476.27,197.17C479.43,190.81 477.73,186.2 471.86,182.65C471.17,180.92 471.13,173.85 469.23,179.11C468.08,183.4 469.24,193.78 465.61,196.17C466.05,191.02 462.22,194.04 463.02,189.04C464.99,177.75 467.51,162.8 476.7,155.01C474.97,163.99 478.15,157.32 480.9,154.15C491.41,149.21 502.89,143.16 513.95,140Z" style="fill:rgb(50,43,42);fill-rule:nonzero;"/>
                <path d="M545.77,151.61C550.3,147.38 552.68,153.09 554.57,147.75C555.56,148.48 556.54,149.22 557.44,150.06C551.45,157.08 538.53,149.92 533.3,154.32C537.02,155.88 531.4,162.47 532.68,167.34C535.75,169.25 537.11,165.42 537.59,163.02C538.5,165.06 540.74,173.02 538.01,173.78C532.02,169.81 526.3,173.01 521,176.52C527.84,176.32 529.23,177.51 533.38,182.64C537.42,185.7 535.61,180.81 538.84,179.99C537.03,185.83 542.71,196.46 535.95,198.94C531.49,199.57 533.14,204.62 533.2,207.76C536.94,206.92 543.17,208.92 541.78,213.66C538.76,216.27 535.14,216.18 534.91,220.95C534.66,226.42 527.43,223.57 524.33,223.33C522.06,225 516.65,234.7 520.95,236.21C523.49,233.23 524.93,228.01 528.82,226.76C533.69,223.93 540.18,227.03 545.74,227C557.08,230.82 551.59,249.33 548.19,257.15C546.09,257.49 544.01,257.59 541.88,257.51C543.49,255.18 547.53,253.81 545,250.7C551.38,251.8 551.15,238.6 549.4,234.78C548.76,230.78 546.86,228.37 543.74,232.34C542.3,228.12 537.15,236.37 533.09,228.84C528.8,229.29 519.96,236.97 530.14,238.8C519.84,238.05 525.24,242.44 527.28,248.04C523.27,254.16 531.13,255.96 535.45,257.33C530.84,263.13 544.1,263.07 547.02,261.22C542.62,267.54 536.4,263.76 531.39,267.38C532.12,270.47 531.09,276.2 534,277.99C537.02,277.13 537.83,274.33 540.41,272.99C537.83,278.98 554.27,278.03 546.54,282.09C542.28,279.52 541.6,282.42 538.02,283.72C532.27,282.63 526.95,279.03 522.03,276.53C519.37,276.54 521.73,281.26 519.38,279.47C512.89,273.59 506.06,269.34 500.98,261.94C496.72,265.61 502.35,272.81 500.72,279.16C503.99,287.2 496.72,278.54 495.24,284.84C495.95,278.37 487.24,277.3 484.03,272.09C489.63,276.14 490.36,260.53 491.99,257.15C487.2,252.54 491.75,254.31 490.71,247.76C492.21,249.63 493.77,251.46 495.33,253.28C498.79,257.04 497.29,253.71 497.37,250.99C500.94,256.75 507.4,254.76 505.39,262.01C515.19,260.05 511.95,245.59 513.79,238.06C509.73,237.2 510.33,242.87 506.89,241.21C502.83,237.55 501.77,232.17 504.78,227.31C506.12,228.48 512.09,232.95 511.86,227.99C512.63,221.8 514.51,223.38 518.79,220.82C523.61,215.97 512.5,212.36 517.59,207.6C519.69,204.21 525.71,199.11 517.02,200.78C512.66,198.46 504.95,206.46 505.5,198.17C503.56,199.72 499.2,199.7 498.2,201.69C496.02,204.68 493.67,207.57 491.08,210.21C488.54,205.68 490.95,192.04 495.12,188.5C499.41,190.82 498.1,188 499.98,185.03C499.27,192.74 504.25,187.5 503.71,183.42C504.16,178.22 504.67,173.12 505.91,168.07C503.31,167.69 503.04,172.55 501.99,174.26C497.51,170.25 500.07,165.4 497.02,160.59C499.31,158.13 501.96,156.2 504.63,154.18C508.66,156.1 510.67,150.72 515.13,151.76C522.25,153 524.39,148.73 531.38,151.22C538.44,145.12 539.56,149.88 545.77,151.61Z" style="fill:rgb(135,84,65);fill-rule:nonzero;"/>
                <path d="M557.44,150.06C558.45,151.15 559.3,152.47 560.14,153.7C557.57,157.67 559.05,168.33 563.75,169.24C562.27,176.81 562.91,177.69 568.02,182.98C569.95,186.52 569.03,187.66 565.23,187.44C567.15,191.74 569.28,195.53 571.78,188.9C571.72,196.07 572.68,203.03 572.91,210.15C570.81,205.2 567.31,201.14 565.26,196.16C566.88,191.26 555.03,187.61 553.51,186.12C555.46,180.82 566.39,187.34 565.86,183.19C560.18,178.51 551.86,177.39 546.41,183.57C551.13,185.19 546.91,186.1 546.02,189.01C547.98,191.89 551.13,196.74 554.3,198.13C552.75,193.55 562,193.92 564.3,195.7C562.45,195.87 561.87,196.49 562.57,197.57C565.34,201.98 560.55,204.05 557.19,205.63C552.46,202.07 547.88,201.15 545.95,194.9C541.87,193.07 549.12,202.81 544.34,204.4C539.1,207.79 546.78,209.29 549.22,210.93C550.67,212.04 553.25,221.5 548.17,217.89C541.53,214.3 548.3,223.82 545.74,227C540.18,227.03 533.69,223.93 528.82,226.76C524.93,228.01 523.49,233.23 520.95,236.21C516.65,234.7 522.06,225 524.33,223.33C527.43,223.57 534.66,226.42 534.91,220.95C535.14,216.18 538.76,216.27 541.78,213.66C543.17,208.92 536.94,206.92 533.2,207.76C533.14,204.62 531.49,199.57 535.95,198.94C542.71,196.46 537.03,185.83 538.84,179.99C535.61,180.81 537.42,185.7 533.38,182.64C529.23,177.51 527.84,176.32 521,176.52C526.3,173.01 532.02,169.81 538.01,173.78C540.74,173.02 538.5,165.06 537.59,163.02C537.11,165.42 535.75,169.25 532.68,167.34C531.4,162.47 537.02,155.88 533.3,154.32C538.53,149.92 551.45,157.08 557.44,150.06Z" style="fill:rgb(176,123,103);fill-rule:nonzero;"/>
                <path d="M560.14,153.7C564.32,159.15 569.08,164.68 572.12,170.83C567.09,168.47 571.5,185.98 571.78,188.9C569.28,195.53 567.15,191.74 565.23,187.44C569.03,187.66 569.95,186.52 568.02,182.98C562.91,177.69 562.27,176.81 563.75,169.24C559.05,168.33 557.57,157.67 560.14,153.7Z" style="fill:rgb(219,202,198);fill-rule:nonzero;"/>
                <path d="M505.91,168.07C504.67,173.12 504.16,178.22 503.71,183.42C504.25,187.5 499.27,192.74 499.98,185.03C502.39,181.38 501.29,178.21 501.99,174.26C503.04,172.55 503.31,167.69 505.91,168.07Z" style="fill:rgb(198,164,160);fill-rule:nonzero;"/>
                <path d="M572.12,170.83C574.41,173.91 576.68,176.94 578.4,180.4C577.59,186.39 578.19,182.03 575.03,181.01C577.54,186.56 574.9,192.26 577.55,197.02C579.56,186.74 579.8,200.31 580.88,202.65C584.69,199.08 582.49,206.23 583.26,208.23C581.36,215.19 579.18,221.96 575.13,228C573.19,229.17 571.83,232.93 571.82,228.24C574.26,221.87 573.56,216.7 572.91,210.15C572.68,203.03 571.72,196.07 571.78,188.9C571.5,185.98 567.09,168.47 572.12,170.83Z" style="fill:rgb(51,44,45);fill-rule:nonzero;"/>
                <path d="M471.86,182.65C467.65,186.9 469.82,198.18 476.27,197.17C479.13,205.08 468.45,201.14 465.8,198.04C465.73,197.41 465.67,196.79 465.61,196.17C469.24,193.78 468.08,183.4 469.23,179.11C471.13,173.85 471.17,180.92 471.86,182.65Z" style="fill:rgb(103,106,118);fill-rule:nonzero;"/>
                <path d="M565.86,183.19C566.39,187.34 555.46,180.82 553.51,186.12C555.03,187.61 566.88,191.26 565.26,196.16L564.3,195.7C562,193.92 552.75,193.55 554.3,198.13C551.13,196.74 547.98,191.89 546.02,189.01C546.91,186.1 551.13,185.19 546.41,183.57C551.86,177.39 560.18,178.51 565.86,183.19Z" style="fill:rgb(103,62,45);fill-rule:nonzero;"/>
                <path d="M471.86,182.65C477.73,186.2 479.43,190.81 476.27,197.17C469.82,198.18 467.65,186.9 471.86,182.65Z" style="fill:rgb(217,220,227);fill-rule:nonzero;"/>
                <path d="M545.95,194.9C547.88,201.15 552.46,202.07 557.19,205.63C560.55,204.05 565.34,201.98 562.57,197.57C568.3,199.33 565.45,206.45 561.93,208.92C557.44,211.74 562.13,217.34 563.38,220.8C566.11,219.67 565.74,216.15 568.55,215.87C566.76,221.59 566.11,224.86 571.82,228.24C571.83,232.93 573.19,229.17 575.13,228C572.58,234.3 568.05,239.54 566.54,246.54C563.62,249.01 565.33,255.37 565.35,258.81C565.06,261.53 564.38,264.15 563.69,266.8C563.56,276.64 560.25,283.33 559.67,292.65C554.19,300.01 555,291.4 557.69,287.96C554.44,281.88 553.42,271.16 561.04,267.83C560.56,266.28 559.76,262.94 558.2,262.33C556.33,265.7 556.01,269.71 553.9,272.86C544.8,270.31 560.95,262.83 553.59,259.22C550.2,265.48 549.7,260.58 548.19,257.15C551.59,249.33 557.08,230.82 545.74,227C548.3,223.82 541.53,214.3 548.17,217.89C553.25,221.5 550.67,212.04 549.22,210.93C546.78,209.29 539.1,207.79 544.34,204.4C549.12,202.81 541.87,193.07 545.95,194.9Z" style="fill:rgb(201,167,155);fill-rule:nonzero;"/>
                <path d="M564.3,195.7L565.26,196.16C567.31,201.14 570.81,205.2 572.91,210.15C573.56,216.7 574.26,221.87 571.82,228.24C566.11,224.86 566.76,221.59 568.55,215.87C565.74,216.15 566.11,219.67 563.38,220.8C562.13,217.34 557.44,211.74 561.93,208.92C565.45,206.45 568.3,199.33 562.57,197.57C561.87,196.49 562.45,195.87 564.3,195.7Z" style="fill:rgb(229,209,202);fill-rule:nonzero;"/>
                <path d="M505.5,198.17C504.95,206.46 512.66,198.46 517.02,200.78C525.71,199.11 519.69,204.21 517.59,207.6C512.5,212.36 523.61,215.97 518.79,220.82C514.51,223.38 512.63,221.8 511.86,227.99C512.09,232.95 506.12,228.48 504.78,227.31C501.77,232.17 502.83,237.55 506.89,241.21C510.33,242.87 509.73,237.2 513.79,238.06C511.95,245.59 515.19,260.05 505.39,262.01C507.4,254.76 500.94,256.75 497.37,250.99C497.29,253.71 498.79,257.04 495.33,253.28C494.64,247.03 490.29,239.83 487.49,234.06C487.89,230.98 488.18,227.88 488.32,224.76C489.05,228.18 489.02,231.62 489.26,235.09C492.18,231.1 487.88,226.29 492.85,224.81C499.24,222.61 494.56,212.7 497.67,207.78C498.55,205.53 498.94,204.06 498.2,201.69C499.2,199.7 503.56,199.72 505.5,198.17Z" style="fill:rgb(160,118,102);fill-rule:nonzero;"/>
                <path d="M498.2,201.69C498.94,204.06 498.55,205.53 497.67,207.78C494.56,212.7 499.24,222.61 492.85,224.81C487.88,226.29 492.18,231.1 489.26,235.09C489.02,231.62 489.05,228.18 488.32,224.76C488.16,219.3 486.31,214.19 491.08,210.21C493.67,207.57 496.02,204.68 498.2,201.69Z" style="fill:rgb(192,167,162);fill-rule:nonzero;"/>
                <path d="M480.38,223.79C476.88,223.42 474.99,220.81 473.12,218.15C475.54,214.73 478.77,222.26 480.38,223.79Z" style="fill:rgb(201,197,184);fill-rule:nonzero;"/>
                <path d="M480.38,223.79C483.36,226.53 485.29,230.63 487.49,234.06C490.29,239.83 494.64,247.03 495.33,253.28C493.77,251.46 492.21,249.63 490.71,247.76C487.9,243.41 487.62,244.42 483.05,245.64C483.92,242.92 486.22,241.5 483.42,239.08C478.6,233.21 476.5,231.27 480.38,223.79Z" style="fill:rgb(217,206,194);fill-rule:nonzero;"/>
                <path d="M533.09,228.84C537.15,236.37 542.3,228.12 543.74,232.34C546.86,228.37 548.76,230.78 549.4,234.78C551.15,238.6 551.38,251.8 545,250.7C537.89,252.3 549.71,246.61 546.56,243.5C541.58,238.5 536.38,244.26 530.14,238.8C519.96,236.97 528.8,229.29 533.09,228.84Z" style="fill:rgb(36,18,15);fill-rule:nonzero;"/>
                <path d="M477.03,237.03C479.32,239.86 479.67,240.76 483.42,239.08C486.22,241.5 483.92,242.92 483.05,245.64C487.62,244.42 487.9,243.41 490.71,247.76C491.75,254.31 487.2,252.54 491.99,257.15C490.36,260.53 489.63,276.14 484.03,272.09C479.32,265.12 476.8,255.37 476.8,247.02C470.52,252.27 465.94,253.51 471.72,262.14C461.2,260.8 471.47,248.97 460.54,251.71C468.94,248.61 479.31,249.42 477.03,237.03Z" style="fill:rgb(178,148,139);fill-rule:nonzero;"/>
                <path d="M530.14,238.8C536.38,244.26 541.58,238.5 546.56,243.5C549.71,246.61 537.89,252.3 545,250.7C547.53,253.81 543.49,255.18 541.88,257.51C544.01,257.59 546.09,257.49 548.19,257.15C549.7,260.58 550.2,265.48 553.59,259.22C560.95,262.83 544.8,270.31 553.9,272.86C556.01,269.71 556.33,265.7 558.2,262.33C559.76,262.94 560.56,266.28 561.04,267.83C553.42,271.16 554.44,281.88 557.69,287.96C555,291.4 554.19,300.01 559.67,292.65C560.25,283.33 563.56,276.64 563.69,266.8C564.94,276.22 567.38,285.34 568.31,294.84C569.83,300.88 574.6,299.12 578.14,303.93C583.21,326.25 583.98,353.34 579.54,375.64C578.27,381.23 574.89,386.47 571.78,391.22C570.39,384.09 560.56,375.36 568.57,370.55C567.96,364.86 561.33,371.35 559.9,366.2C557.79,359.36 553.79,366.05 556.41,369.5C559.54,374.88 548.78,376.66 554.19,380.79C557.25,383.25 558.33,390.79 553.14,390.71C550.08,390.43 547.06,390.05 543.98,390.11C548.99,394.3 550.64,394.93 550.27,402.16C544,407.9 543.24,403.96 542.1,414.15C535.61,414.24 527.1,418.27 528.77,408.24C520.29,406.59 524.59,391.07 525.36,384.38C525.13,381.89 519.6,373.84 525.63,375.19C524.75,384.53 535.32,378.49 531.97,373.08C531.21,366.75 521.81,369.35 522.35,364.4C523.15,360.99 536.07,355.53 527.17,355.59C526.68,349.76 531.75,343.86 531.93,338.06C526.91,339.25 526.98,350.35 525.15,354.24C521.31,360.76 525.71,350.71 518.95,356.81C519.85,350.78 522.85,345.81 524.64,340.13C520.54,335.12 517.77,339.69 514.59,342.57C510.6,344.07 506.68,346.55 502.69,347.72C499.78,349.3 501.95,340.51 499.61,343.99C498.85,344.96 498.13,345.97 497.37,346.95C495.75,340.03 494.04,333.14 492.64,326.17C493.13,319.63 498.6,314.09 505.02,317.94C506.59,318.49 515.02,322.51 511.55,318.07C519.43,312.68 520.23,320.19 525.91,322.91C529.68,320.04 518.28,311.59 523.87,307.93C525.81,314.21 530.7,311.38 534.24,316.56C537.92,320.55 534.85,328.75 537.3,333.78C542.14,335.04 540.47,329.88 541.23,327.04C542.63,320.6 545.59,314.72 546.03,307.99C545.96,303.21 550.97,302.63 549.2,297.86C548.49,292.08 543.41,303.22 542.54,298.61C542.25,294.01 541.28,289.58 540.7,285.02C542.68,284.11 544.63,283.14 546.54,282.09C554.27,278.03 537.83,278.98 540.41,272.99C537.83,274.33 537.02,277.13 534,277.99C531.09,276.2 532.12,270.47 531.39,267.38C536.4,263.76 542.62,267.54 547.02,261.22C544.1,263.07 530.84,263.13 535.45,257.33C531.13,255.96 523.27,254.16 527.28,248.04C525.24,242.44 519.84,238.05 530.14,238.8Z" style="fill:rgb(192,141,113);fill-rule:nonzero;"/>
                <path d="M476.8,247.02C476.8,255.37 479.32,265.12 484.03,272.09C487.24,277.3 495.95,278.37 495.24,284.84C496.72,278.54 503.99,287.2 500.72,279.16C502.35,272.81 496.72,265.61 500.98,261.94C506.06,269.34 512.89,273.59 519.38,279.47C521.73,281.26 519.37,276.54 522.03,276.53C526.95,279.03 532.27,282.63 538.02,283.72C541.6,282.42 542.28,279.52 546.54,282.09C544.63,283.14 542.68,284.11 540.7,285.02C533.59,288.54 528.37,284.12 520.98,283.17C522.64,288.41 526.66,289.9 520.23,293.89C519.16,291.06 518.64,288.08 517.62,285.25C511.45,285.22 501.6,289.59 506.01,297.43C508.7,300.56 511.14,312.87 503.34,309.67C496.73,305.5 490.17,301.7 483.87,297.04C479.83,294.75 472.87,296.44 473.32,302.16C471.52,297.35 463.72,301.32 459.04,296.62C448.54,295 442.91,292.92 435.11,285.5C440.51,284.02 440.59,284.36 440.83,278.76C449.13,277.67 448.41,267.93 449.59,261.72C449.91,259.14 449.6,259.05 447.42,257.78L445.8,256.84C447.93,255.92 449.63,254.96 451.97,255.85C453.82,257.56 455.69,259.27 457.67,260.84C456.63,255.92 459.74,258.91 462.72,258.78C461.72,256.42 460.49,254.37 460.54,251.71C471.47,248.97 461.2,260.8 471.72,262.14C465.94,253.51 470.52,252.27 476.8,247.02Z" style="fill:rgb(111,51,28);fill-rule:nonzero;"/>
                <path d="M566.54,246.54C568.74,247.62 570.97,248.65 573.17,249.71C583.94,263.77 585.46,280.29 591.63,297.37C598.18,319.04 607.66,350.93 610.28,373.16C609.98,373.86 609.68,374.55 609.38,375.25C607.89,368.35 605.9,361.4 603.12,354.92C603.02,358.25 605.7,371.43 600.05,362.13C598.82,366.37 600.89,369.85 597.92,373.86C593.63,369.33 591.24,371.42 596.09,365.32C584.85,364.85 587.96,374.35 583.56,381.6C579.89,388.18 574.62,400.35 565.96,400.9C574.2,390.76 581.85,382.11 583.48,368.4C585.2,348.12 586.91,322.76 578.14,303.93C574.08,288.91 567.62,274.19 565.35,258.81C565.33,255.37 563.62,249.01 566.54,246.54Z" style="fill:rgb(187,37,35);fill-rule:nonzero;"/>
                <path d="M573.17,249.71C579.38,251.46 584.64,254.81 590.39,257.47C605.24,260.01 615.89,270.18 630.21,274.89C630.22,280.53 632.68,285.27 633.85,290.65C627.54,289.24 630.85,292.62 630.67,296.68C622.34,294.41 628.76,300.06 627.63,304.67C622.53,304.61 619.49,301.55 622.3,308.79C632.31,307.06 634.03,311.3 637.46,319.6C641.39,328.06 646.49,336.14 650.3,344.63C651.42,355.18 660.76,358.07 669.19,361.73C677.28,365.44 678.21,372.93 682.86,379.28C680.59,385.01 676.45,375.98 671.88,376C664.42,369.46 655.59,363.01 648.81,356.11C644.02,346.05 648.09,339.75 637.22,332.69C629.69,330.35 615.72,321.94 608.35,327.01C614.15,332.25 606.3,336.34 614.93,341.2C610.41,348.23 619.92,343.36 623.32,347.11C621.05,352.25 617.4,356.27 615.65,361.61C613.85,365.47 612.29,369.41 610.28,373.16C607.66,350.93 598.18,319.04 591.63,297.37C585.46,280.29 583.94,263.77 573.17,249.71Z" style="fill:rgb(200,147,116);fill-rule:nonzero;"/>
                <path d="M460.54,251.71C460.49,254.37 461.72,256.42 462.72,258.78C459.74,258.91 456.63,255.92 457.67,260.84C455.69,259.27 453.82,257.56 451.97,255.85C454.71,254.19 457.43,252.61 460.54,251.71Z" style="fill:rgb(193,164,157);fill-rule:nonzero;"/>
                <path d="M445.8,256.84L447.42,257.78C447.09,261.34 442.51,272.33 439.23,273.81C435.26,269.45 433.85,277.02 430.14,278.15C425.04,280.33 430.7,283.51 432.12,286.1C426.4,290.15 416.5,290.01 411.68,293.69C404.97,301.38 404.67,316.33 400.09,325.01C398.91,326.94 399.63,332.59 396.36,331.47C391.37,329.96 394.76,335.97 390.32,338.34C382.66,342.25 378.09,348.94 372.73,355.68C367.32,368.37 363.51,382.08 359.18,395.19C357.55,404.96 367.85,396.07 372.21,398.96C364.55,405.65 375.3,403.79 379.1,402.06C381.4,401.27 388.28,397.67 387.65,402.66C388.3,405.55 392.64,403.92 394.59,406.5C397.77,397.29 403.1,409.64 398.21,413.23C394.22,418.74 395.63,414.79 395.74,410.93C393.61,416.19 388.18,417.88 395.59,421.48C392.98,428.83 385.96,422 383.25,428.26C379.41,429.74 377.66,430.82 374.79,433.76C365.13,433.92 356.19,436.19 351.47,445.33C350.12,448.02 352.23,452.56 348.72,453.24C337.43,422.94 353.04,398.23 361.43,369.39C367.04,356.06 375.49,344.73 384.71,333.71C389.12,328.78 387.58,320.73 389.46,314.37C393.41,299.73 401.58,289.62 415.6,283.59C429.6,277.92 433.79,264.5 445.8,256.84Z" style="fill:rgb(179,147,131);fill-rule:nonzero;"/>
                <path d="M447.42,257.78C449.6,259.05 449.91,259.14 449.59,261.72C448.41,267.93 449.13,277.67 440.83,278.76C440.59,284.36 440.51,284.02 435.11,285.5C442.91,292.92 448.54,295 459.04,296.62C455.68,298.15 458.73,302.62 454.07,304.1C449.03,308.01 446.16,291.59 441.1,299.89C434.94,300.52 434.16,306.14 427.66,302.93C428.31,307.83 424.41,309.3 425.76,314.44C420.56,314.1 421.66,327.88 419.97,331.08C416.86,334.79 418.95,337.96 418.3,342.14C416.33,349.98 423.25,349.66 421.64,357.49C412.58,360.63 410.3,374.69 402.91,379.21C406.58,383.35 410.47,382.83 405.38,388.55C412.56,390.1 419.63,391.91 426.89,393.2C433.46,395.86 430.76,396.27 425.81,397.78C419.19,397.08 426.04,409.69 420.33,404.98C424.13,397.57 406.05,400.43 413.87,397.42C405.54,395.25 398.78,389.92 390.34,392.38C385.36,392.08 384.98,394.92 381.18,390.4C378.08,393.14 375.46,396.36 372.21,398.96C367.85,396.07 357.55,404.96 359.18,395.19C363.51,382.08 367.32,368.37 372.73,355.68C378.09,348.94 382.66,342.25 390.32,338.34C394.76,335.97 391.37,329.96 396.36,331.47C399.63,332.59 398.91,326.94 400.09,325.01C404.67,316.33 404.97,301.38 411.68,293.69C416.5,290.01 426.4,290.15 432.12,286.1C430.7,283.51 425.04,280.33 430.14,278.15C433.85,277.02 435.26,269.45 439.23,273.81C442.51,272.33 447.09,261.34 447.42,257.78Z" style="fill:rgb(152,99,66);fill-rule:nonzero;"/>
                <path d="M565.35,258.81C567.62,274.19 574.08,288.91 578.14,303.93C574.6,299.12 569.83,300.88 568.31,294.84C567.38,285.34 564.94,276.22 563.69,266.8C564.38,264.15 565.06,261.53 565.35,258.81Z" style="fill:rgb(97,22,13);fill-rule:nonzero;"/>
                <path d="M630.21,274.89C634.8,276.98 638.74,280.65 642.31,284.15C641.27,287.21 636.64,283.45 637.08,287.87C640.72,295.54 651.32,301.45 640.98,309.21C637.7,304.83 635.95,301.41 630.13,300.06C632.88,308.06 638.29,316.74 644.37,322.47C645.85,327.25 649.25,330.07 653.76,331.87C652.94,341.23 650.63,348.44 659.19,354.99C666.26,355.97 662.16,344.71 663.07,341.08C669.16,343.54 671.94,352.68 678.2,355.63C681.69,355.55 683.04,356.2 685.86,358.19C698.77,366.22 708.35,377.02 721.26,384.74C732.15,393.98 745.08,408.07 753.21,419.8C738.85,412.92 733.61,399.36 723.28,389.69C719.87,385.86 717.98,392.21 714.71,388.31C709.99,382.51 705.92,376.22 700.6,370.88C694.51,372.31 690.61,369.46 685.9,366.17C686.08,367.59 686.43,368.85 687.02,370.15C686.74,373.82 685.18,376.53 682.86,379.28C678.21,372.93 677.28,365.44 669.19,361.73C660.76,358.07 651.42,355.18 650.3,344.63C646.49,336.14 641.39,328.06 637.46,319.6C634.03,311.3 632.31,307.06 622.3,308.79C619.49,301.55 622.53,304.61 627.63,304.67C628.76,300.06 622.34,294.41 630.67,296.68C630.85,292.62 627.54,289.24 633.85,290.65C632.68,285.27 630.22,280.53 630.21,274.89Z" style="fill:rgb(215,188,172);fill-rule:nonzero;"/>
                <path d="M520.98,283.17C528.37,284.12 533.59,288.54 540.7,285.02C541.28,289.58 542.25,294.01 542.54,298.61C543.41,303.22 548.49,292.08 549.2,297.86C550.97,302.63 545.96,303.21 546.03,307.99C545.59,314.72 542.63,320.6 541.23,327.04C540.47,329.88 542.14,335.04 537.3,333.78C534.85,328.75 537.92,320.55 534.24,316.56C530.7,311.38 525.81,314.21 523.87,307.93C518.28,311.59 529.68,320.04 525.91,322.91C520.23,320.19 519.43,312.68 511.55,318.07C515.02,322.51 506.59,318.49 505.02,317.94C498.6,314.09 493.13,319.63 492.64,326.17C490.16,316.4 485.95,306.83 483.87,297.04C490.17,301.7 496.73,305.5 503.34,309.67C511.14,312.87 508.7,300.56 506.01,297.43C501.6,289.59 511.45,285.22 517.62,285.25C518.64,288.08 519.16,291.06 520.23,293.89C526.66,289.9 522.64,288.41 520.98,283.17Z" style="fill:rgb(163,100,63);fill-rule:nonzero;"/>
                <path d="M642.31,284.15C647.87,289.72 652.22,299.43 653.95,307.01C652.03,305.53 648.65,294.06 647.65,301.57C651.34,306.18 651.18,314.13 655.62,317.96C656.52,312 656.29,314.72 657.83,318.29C666.17,332.32 675.48,345.58 685.86,358.19C683.04,356.2 681.69,355.55 678.2,355.63C671.94,352.68 669.16,343.54 663.07,341.08C662.16,344.71 666.26,355.97 659.19,354.99C650.63,348.44 652.94,341.23 653.76,331.87C649.25,330.07 645.85,327.25 644.37,322.47C638.29,316.74 632.88,308.06 630.13,300.06C635.95,301.41 637.7,304.83 640.98,309.21C651.32,301.45 640.72,295.54 637.08,287.87C636.64,283.45 641.27,287.21 642.31,284.15Z" style="fill:rgb(236,220,212);fill-rule:nonzero;"/>
                <path d="M483.87,297.04C485.95,306.83 490.16,316.4 492.64,326.17C494.04,333.14 495.75,340.03 497.37,346.95C498.13,345.97 498.85,344.96 499.61,343.99C498.17,352.14 497.2,348.32 500.02,356C499.12,365.05 506.19,369.73 497.08,377.03C495.61,378.11 494.14,379.14 492.51,379.97C489.05,378.49 483.6,379.75 481.28,376.71C480.86,373.84 480.98,370.88 480.81,367.99C478.49,371.5 477.19,380.08 472.03,379.95C472.71,374.05 477.23,370.32 475.39,363.78C476.63,350.78 476.69,338.26 473.16,325.77C471.23,323.76 469.87,315.19 473.69,314.59C474.54,310.62 473.9,306.14 473.32,302.16C472.87,296.44 479.83,294.75 483.87,297.04Z" style="fill:rgb(175,32,29);fill-rule:nonzero;"/>
                <path d="M454.07,304.1C458.73,302.62 455.68,298.15 459.04,296.62C463.72,301.32 471.52,297.35 473.32,302.16C473.9,306.14 474.54,310.62 473.69,314.59C469.87,315.19 471.23,323.76 473.16,325.77C476.69,338.26 476.63,350.78 475.39,363.78C474.44,366.58 473.59,369.41 472.73,372.24C468.87,367.96 468.01,362.04 462.12,358.82C458.9,356.81 461.48,355.5 461.28,352.81C461.26,349.18 456.55,348.2 454.96,345.03C455.88,341.8 460.5,339.41 459.92,336.06C455.74,339.1 451.51,337.35 447.65,340.64C445.02,342.27 445.35,346.21 442.15,346.82C440.77,344.69 443.78,342.99 441.3,340.2C437.32,340.6 431.82,341.61 429.38,345.12C432.72,348.46 430.21,353.89 435.88,352.4C437.29,356.76 432.6,360.05 435.63,363.3C441.06,369.48 439.1,379.36 435.03,385.68C436.99,385.93 438.97,386.05 440.94,386.32C440.52,389.6 429.92,394.59 434.86,386.98C431.84,389.67 431.58,392.65 426.89,393.2C419.63,391.91 412.56,390.1 405.38,388.55C410.47,382.83 406.58,383.35 402.91,379.21C410.3,374.69 412.58,360.63 421.64,357.49C423.25,349.66 416.33,349.98 418.3,342.14C418.95,337.96 416.86,334.79 419.97,331.08C421.66,327.88 420.56,314.1 425.76,314.44C424.41,309.3 428.31,307.83 427.66,302.93C434.16,306.14 434.94,300.52 441.1,299.89C446.16,291.59 449.03,308.01 454.07,304.1Z" style="fill:rgb(188,131,97);fill-rule:nonzero;"/>
                <path d="M578.14,303.93C586.91,322.76 585.2,348.12 583.48,368.4C581.85,382.11 574.2,390.76 565.96,400.9C574.62,400.35 579.89,388.18 583.56,381.6C587.96,374.35 584.85,364.85 596.09,365.32C591.24,371.42 593.63,369.33 597.92,373.86C600.89,369.85 598.82,366.37 600.05,362.13C605.7,371.43 603.02,358.25 603.12,354.92C605.9,361.4 607.89,368.35 609.38,375.25C601.9,388.31 591.69,402.71 578.38,410.4C572.36,416.64 568.6,428.83 566.06,437.2C564.82,436.28 563.54,435.41 562.33,434.46C567.32,433.69 562.85,428.94 562.47,426.1C560.2,430.02 560.42,430.86 555.5,431.4C556.31,435.28 553.37,438.07 555.6,441.34C558.5,446.51 552.59,444.75 555.16,450.37C554.14,450.4 553.11,450.44 552.09,450.48C549.77,450.34 547.47,450.48 545.16,450.49C545.69,443.16 546.4,438.17 537.63,436.57C530.83,435.24 522.74,438.9 516.36,440.93C508.4,441.82 514.03,434.02 516.56,431.19C517.41,427.52 508.54,424.61 505.8,424.07C513.96,423.9 518.93,423.58 526.08,419C531.82,413.85 537.49,419.2 542.1,414.15C543.24,403.96 544,407.9 550.27,402.16C551.51,391.16 552.73,404.63 558.88,400.97C564.25,399.44 568.59,395.71 571.78,391.22C574.89,386.47 578.27,381.23 579.54,375.64C583.98,353.34 583.21,326.25 578.14,303.93Z" style="fill:rgb(131,15,10);fill-rule:nonzero;"/>
                <path d="M637.22,332.69C648.09,339.75 644.02,346.05 648.81,356.11C655.59,363.01 664.42,369.46 671.88,376C676.45,375.98 680.59,385.01 682.86,379.28C685.18,376.53 686.74,373.82 687.02,370.15C693.87,377.81 708.08,381.31 706.88,393.18C715.26,400.79 719.71,410.04 725.9,419.16C729.3,422.58 731.33,414.98 733.36,413.44C746.12,417.57 753.68,423.45 760,436.07C762.89,438.97 758.66,447.03 764.64,446.6C772.63,446.71 772.63,452.35 776.85,457.24C783.25,458.22 788.52,468.67 795.35,472.63C800.58,475 796.31,480.2 801.65,482.35C804.73,484.3 810.5,485.56 812.03,489.08C811.08,492.8 807.31,496.05 805.42,499.53C800.54,502.25 802.86,493.65 798.24,495.18C797.84,496.86 797.7,498.56 797.52,500.28C793.18,500.01 796.22,496.4 796.64,493.9C794.05,495.26 793.11,497.27 790.17,495.35C789.05,492.12 793.12,489.81 794.78,487.43C791.83,486.57 790.03,486.84 789.35,483.35C791.49,481.46 793.48,480.51 793.57,477.3C789.23,473.85 786.4,471.01 783.69,466.14C779.32,463.38 773.33,463.39 768.5,461.49C768.13,452.17 755.7,450.39 755.49,441.44C751.03,438.93 746.53,439.41 741.77,438.43C741.47,435.63 741.65,433.06 740.61,430.33C733.01,428.29 720.24,426.25 717.98,417.1C717.97,410.08 707.81,408.89 709.47,403.02C702.43,395.78 700.63,386.72 692.28,379.78C689.28,375.07 688,378.18 684.94,380.71C676.93,388.16 675.48,387.14 668.3,379.74C665.02,377.57 661.6,377.33 660.98,372.83C650.75,368.55 643.94,361.66 638.95,351.97C638.62,347.49 646.02,342.99 638.89,340.13C631.69,341.69 629.18,337.04 623.04,334.9C614.17,330.61 623.94,343.42 623.32,347.11C619.92,343.36 610.41,348.23 614.93,341.2C606.3,336.34 614.15,332.25 608.35,327.01C615.72,321.94 629.69,330.35 637.22,332.69Z" style="fill:rgb(172,121,81);fill-rule:nonzero;"/>
                <path d="M623.04,334.9C629.18,337.04 631.69,341.69 638.89,340.13C646.02,342.99 638.62,347.49 638.95,351.97C643.94,361.66 650.75,368.55 660.98,372.83C661.6,377.33 665.02,377.57 668.3,379.74C675.48,387.14 676.93,388.16 684.94,380.71C684.1,385.25 679.29,386.24 677.73,390.68C675.84,395.16 675.96,399.27 670.04,399.93C669.53,396.19 674.99,394.61 671.96,391.06C667.6,386.09 661.57,385.88 658.74,379.22C649.96,370.59 637.87,364.71 633.84,352.12C631.97,349.12 636.52,348.48 638.18,346.84C633.89,341.83 627.98,343.98 623.32,347.11C623.94,343.42 614.17,330.61 623.04,334.9Z" style="fill:rgb(145,88,52);fill-rule:nonzero;"/>
                <path d="M459.92,336.06C460.5,339.41 455.88,341.8 454.96,345.03C456.55,348.2 461.26,349.18 461.28,352.81C461.48,355.5 458.9,356.81 462.12,358.82C468.01,362.04 468.87,367.96 472.73,372.24C472.15,374.36 471.4,376.39 470.17,378.22C465.7,368.91 457.14,363.94 453.32,354.68C450.82,351.97 439.57,351.23 442.28,357.83C442.53,365.67 437.13,371.72 441.34,380.53C442.77,386.75 454.92,380.39 451.32,375.67C449.46,371.3 446.11,366.89 446.08,362.02C449.88,363.32 453.9,367.82 456.22,371.06C453.5,376.08 459.53,383.08 463.14,385.89C472.76,385.68 484.1,385.09 492.51,379.97C494.14,379.14 495.61,378.11 497.08,377.03C492.69,380.41 496.32,392.21 491.9,391.34C493.03,393.13 496.07,405.31 491.2,406.93C490.48,405.27 488.3,392.34 487.61,401.38C486.62,411.28 496.56,407.79 496.43,416.85C503.19,415.86 507.16,397.92 506.52,391.66C506.72,382.94 514.74,386.34 518.68,378.64C520.67,374.44 518.79,372.31 515.59,369.72C519.49,360.95 507.12,353.69 500.02,356C497.2,348.32 498.17,352.14 499.61,343.99C501.95,340.51 499.78,349.3 502.69,347.72C506.68,346.55 510.6,344.07 514.59,342.57C517.77,339.69 520.54,335.12 524.64,340.13C522.85,345.81 519.85,350.78 518.95,356.81C525.71,350.71 521.31,360.76 525.15,354.24C526.98,350.35 526.91,339.25 531.93,338.06C531.75,343.86 526.68,349.76 527.17,355.59C536.07,355.53 523.15,360.99 522.35,364.4C521.81,369.35 531.21,366.75 531.97,373.08C535.32,378.49 524.75,384.53 525.63,375.19C519.6,373.84 525.13,381.89 525.36,384.38C524.59,391.07 520.29,406.59 528.77,408.24C527.1,418.27 535.61,414.24 542.1,414.15C537.49,419.2 531.82,413.85 526.08,419C521.83,417.33 520.5,419.3 516.85,420.89C509.59,419.67 503.23,421.85 496.2,418.75C492.94,414.25 492.21,411.32 486.12,414.48C482.79,409.97 480.75,409.2 475.24,408.38C476.5,416.03 468.44,418.42 462.67,417.4C460.31,412.93 458.3,417.55 454.55,415.67C450.16,413.76 444.8,415.65 441.03,412.86C444.4,409.1 446.61,408.9 444.86,403.2C437.65,410.37 442.36,400.47 442.96,397.05C438.57,398.24 433.5,399.13 437.06,404.9C444.43,397.29 436.09,411.67 436.22,414.36C432.16,420.67 436.8,403.7 430.67,408.64C427.36,412.75 421.19,411.67 418.97,416.07C415.09,423.98 405.87,425.84 398.21,428.24C395.81,429.62 394.65,434.37 398.13,434.97C401.75,435.34 403.95,431.3 407.97,432.09C407.59,434.75 404.48,436.48 403.32,438.89C402.06,443.67 397.5,450.47 391.79,448.35C387.37,447.9 382.57,456.77 378.34,451.66C374.64,448.71 375.89,446.19 375.83,442.06C372.01,441.51 371.82,444.7 369.9,447.06C367.24,446.29 367.01,442.9 364.88,442.07C355.54,446.52 354.39,447.86 351.95,458.21C350.67,456.69 349.57,455.03 348.72,453.24C352.23,452.56 350.12,448.02 351.47,445.33C356.19,436.19 365.13,433.92 374.79,433.76C377.66,430.82 379.41,429.74 383.25,428.26C385.96,422 392.98,428.83 395.59,421.48C388.18,417.88 393.61,416.19 395.74,410.93C395.63,414.79 394.22,418.74 398.21,413.23C403.1,409.64 397.77,397.29 394.59,406.5C392.64,403.92 388.3,405.55 387.65,402.66C388.28,397.67 381.4,401.27 379.1,402.06C375.3,403.79 364.55,405.65 372.21,398.96C375.46,396.36 378.08,393.14 381.18,390.4C384.98,394.92 385.36,392.08 390.34,392.38C398.78,389.92 405.54,395.25 413.87,397.42C406.05,400.43 424.13,397.57 420.33,404.98C426.04,409.69 419.19,397.08 425.81,397.78C430.76,396.27 433.46,395.86 426.89,393.2C431.58,392.65 431.84,389.67 434.86,386.98C429.92,394.59 440.52,389.6 440.94,386.32C438.97,386.05 436.99,385.93 435.03,385.68C439.1,379.36 441.06,369.48 435.63,363.3C432.6,360.05 437.29,356.76 435.88,352.4C430.21,353.89 432.72,348.46 429.38,345.12C431.82,341.61 437.32,340.6 441.3,340.2C443.78,342.99 440.77,344.69 442.15,346.82C445.35,346.21 445.02,342.27 447.65,340.64C451.51,337.35 455.74,339.1 459.92,336.06Z" style="fill:rgb(162,116,85);fill-rule:nonzero;"/>
                <path d="M638.18,346.84C636.52,348.48 631.97,349.12 633.84,352.12C637.87,364.71 649.96,370.59 658.74,379.22C661.57,385.88 667.6,386.09 671.96,391.06C674.99,394.61 669.53,396.19 670.04,399.93C675.96,399.27 675.84,395.16 677.73,390.68C679.29,386.24 684.1,385.25 684.94,380.71C689.05,379.13 690.88,383.23 693.1,385.91C695.51,390.19 700.42,395.11 699.3,400.33C694.41,400.75 686.35,404.32 688.64,410.35C693.2,413.32 703.1,401.7 706.69,408.24C709.88,414.02 714.14,422.61 719.26,426.6C729.41,428.15 731.25,437.17 738.41,439.46C740.26,444.36 750.28,441.1 753.84,444.28C754,451.14 754.33,448.84 759.47,451.45C761.06,458.91 764.97,463.19 770.88,467.63C775.56,465.47 782.01,469.29 780.28,475.03C780.59,481.76 773.74,486.67 776.25,492.69C777.96,495.86 772.07,498.49 770.81,501.17C768.66,498.04 767.92,494.77 768.01,491C769.44,482.32 757.54,476.67 751.86,472.12C738.05,462.58 725.43,452.82 709.68,446.3C696.28,439.87 680.83,433.59 669.92,423.31C669.25,415.42 674.97,413.76 678.88,408.18C673.8,403.95 669.94,413.78 666.8,409.29C665.29,404.9 665.42,399.87 663.46,395.51C659.59,392.46 654.91,389.82 650.38,387.89C652.26,391.96 652,390.9 648.02,392.32C634.51,384.34 626.75,372.75 615.65,361.61C617.4,356.27 621.05,352.25 623.32,347.11C627.98,343.98 633.89,341.83 638.18,346.84Z" style="fill:rgb(108,57,23);fill-rule:nonzero;"/>
                <path d="M453.32,354.68C457.14,363.94 465.7,368.91 470.17,378.22C471.4,376.39 472.15,374.36 472.73,372.24C473.59,369.41 474.44,366.58 475.39,363.78C477.23,370.32 472.71,374.05 472.03,379.95C477.19,380.08 478.49,371.5 480.81,367.99C480.98,370.88 480.86,373.84 481.28,376.71C483.6,379.75 489.05,378.49 492.51,379.97C484.1,385.09 472.76,385.68 463.14,385.89C459.53,383.08 453.5,376.08 456.22,371.06C453.9,367.82 449.88,363.32 446.08,362.02C446.11,366.89 449.46,371.3 451.32,375.67C454.92,380.39 442.77,386.75 441.34,380.53C437.13,371.72 442.53,365.67 442.28,357.83C439.57,351.23 450.82,351.97 453.32,354.68Z" style="fill:rgb(109,46,19);fill-rule:nonzero;"/>
                <path d="M515.59,369.72C518.79,372.31 520.67,374.44 518.68,378.64C514.74,386.34 506.72,382.94 506.52,391.66C507.16,397.92 503.19,415.86 496.43,416.85C496.56,407.79 486.62,411.28 487.61,401.38C488.3,392.34 490.48,405.27 491.2,406.93C496.07,405.31 493.03,393.13 491.9,391.34C496.32,392.21 492.69,380.41 497.08,377.03C506.19,369.73 499.12,365.05 500.02,356C507.12,353.69 519.49,360.95 515.59,369.72Z" style="fill:rgb(183,142,116);fill-rule:nonzero;"/>
                <path d="M559.9,366.2C561.33,371.35 567.96,364.86 568.57,370.55C560.56,375.36 570.39,384.09 571.78,391.22C568.59,395.71 564.25,399.44 558.88,400.97C552.73,404.63 551.51,391.16 550.27,402.16C550.64,394.93 548.99,394.3 543.98,390.11C547.06,390.05 550.08,390.43 553.14,390.71C558.33,390.79 557.25,383.25 554.19,380.79C548.78,376.66 559.54,374.88 556.41,369.5C553.79,366.05 557.79,359.36 559.9,366.2Z" style="fill:rgb(171,110,74);fill-rule:nonzero;"/>
                <path d="M685.9,366.17C690.61,369.46 694.51,372.31 700.6,370.88C705.92,376.22 709.99,382.51 714.71,388.31C717.98,392.21 719.87,385.86 723.28,389.69C733.61,399.36 738.85,412.92 753.21,419.8C768.67,439.87 785.1,460.13 803.72,477.28C810.88,485.84 826.66,492.13 822.65,505.67C819.52,514.02 808.75,519.9 803.09,526.71C799.18,522.36 797.13,523.24 802.95,519.12C799.03,512.68 794.64,508.28 797.52,500.28C797.7,498.56 797.84,496.86 798.24,495.18C802.86,493.65 800.54,502.25 805.42,499.53C807.31,496.05 811.08,492.8 812.03,489.08C810.5,485.56 804.73,484.3 801.65,482.35C796.31,480.2 800.58,475 795.35,472.63C788.52,468.67 783.25,458.22 776.85,457.24C772.63,452.35 772.63,446.71 764.64,446.6C758.66,447.03 762.89,438.97 760,436.07C753.68,423.45 746.12,417.57 733.36,413.44C731.33,414.98 729.3,422.58 725.9,419.16C719.71,410.04 715.26,400.79 706.88,393.18C708.08,381.31 693.87,377.81 687.02,370.15C686.43,368.85 686.08,367.59 685.9,366.17Z" style="fill:rgb(192,152,119);fill-rule:nonzero;"/>
                <path d="M692.28,379.78C700.63,386.72 702.43,395.78 709.47,403.02C707.81,408.89 717.97,410.08 717.98,417.1C720.24,426.25 733.01,428.29 740.61,430.33C741.65,433.06 741.47,435.63 741.77,438.43C746.53,439.41 751.03,438.93 755.49,441.44C755.7,450.39 768.13,452.17 768.5,461.49C773.33,463.39 779.32,463.38 783.69,466.14C786.4,471.01 789.23,473.85 793.57,477.3C793.48,480.51 791.49,481.46 789.35,483.35C790.03,486.84 791.83,486.57 794.78,487.43C793.12,489.81 789.05,492.12 790.17,495.35C793.11,497.27 794.05,495.26 796.64,493.9C796.22,496.4 793.18,500.01 797.52,500.28C794.64,508.28 799.03,512.68 802.95,519.12C797.13,523.24 799.18,522.36 803.09,526.71C799.74,531.52 794.5,524.69 789.13,525.71C779.11,521.31 777.53,508.9 770.81,501.17C772.07,498.49 777.96,495.86 776.25,492.69C773.74,486.67 780.59,481.76 780.28,475.03C782.01,469.29 775.56,465.47 770.88,467.63C764.97,463.19 761.06,458.91 759.47,451.45C754.33,448.84 754,451.14 753.84,444.28C750.28,441.1 740.26,444.36 738.41,439.46C731.25,437.17 729.41,428.15 719.26,426.6C714.14,422.61 709.88,414.02 706.69,408.24C703.1,401.7 693.2,413.32 688.64,410.35C686.35,404.32 694.41,400.75 699.3,400.33C700.42,395.11 695.51,390.19 693.1,385.91C690.88,383.23 689.05,379.13 684.94,380.71C688,378.18 689.28,375.07 692.28,379.78Z" style="fill:rgb(140,90,53);fill-rule:nonzero;"/>
                <path d="M650.38,387.89C654.91,389.82 659.59,392.46 663.46,395.51C665.42,399.87 665.29,404.9 666.8,409.29C669.94,413.78 673.8,403.95 678.88,408.18C674.97,413.76 669.25,415.42 669.92,423.31C661.6,413.77 656.54,401.87 648.02,392.32C652,390.9 652.26,391.96 650.38,387.89Z" style="fill:rgb(156,113,91);fill-rule:nonzero;"/>
                <path d="M442.96,397.05C442.36,400.47 437.65,410.37 444.86,403.2C446.61,408.9 444.4,409.1 441.03,412.86C444.8,415.65 450.16,413.76 454.55,415.67C458.3,417.55 460.31,412.93 462.67,417.4C468.44,418.42 476.5,416.03 475.24,408.38C480.75,409.2 482.79,409.97 486.12,414.48C492.21,411.32 492.94,414.25 496.2,418.75C488.2,415.47 478.22,413.78 471.19,420.2C468.83,421.89 472.4,424.29 471.01,425.14C453.41,430.06 433.93,437.24 415.92,439.67C412.12,439.21 411.09,441.36 408.12,443.03C406.58,440.98 406.27,439.06 403.32,438.89C404.48,436.48 407.59,434.75 407.97,432.09C403.95,431.3 401.75,435.34 398.13,434.97C394.65,434.37 395.81,429.62 398.21,428.24C405.87,425.84 415.09,423.98 418.97,416.07C421.19,411.67 427.36,412.75 430.67,408.64C436.8,403.7 432.16,420.67 436.22,414.36C436.09,411.67 444.43,397.29 437.06,404.9C433.5,399.13 438.57,398.24 442.96,397.05Z" style="fill:rgb(148,100,65);fill-rule:nonzero;"/>
                <path d="M496.2,418.75C503.23,421.85 509.59,419.67 516.85,420.89C520.5,419.3 521.83,417.33 526.08,419C518.93,423.58 513.96,423.9 505.8,424.07C493.39,419.28 484.19,421.08 473.44,428.49C462.68,432.92 451.62,436.29 441.69,442.7C439.88,444.07 437.15,442.93 435.04,443.88C429.13,446.07 424.78,452.02 419.89,455.93C417.62,457.85 417.5,460.45 417.1,463.17C415.05,457.49 411.07,460.65 407.32,462.32C400.45,466.98 393.15,461.98 389.09,469.05C389.39,467.77 389.66,466.48 389.81,465.18C378.65,464.73 360.94,465.95 351.95,458.21C354.39,447.86 355.54,446.52 364.88,442.07C367.01,442.9 367.24,446.29 369.9,447.06C371.82,444.7 372.01,441.51 375.83,442.06C375.89,446.19 374.64,448.71 378.34,451.66C382.57,456.77 387.37,447.9 391.79,448.35C397.5,450.47 402.06,443.67 403.32,438.89C406.27,439.06 406.58,440.98 408.12,443.03C411.09,441.36 412.12,439.21 415.92,439.67C433.93,437.24 453.41,430.06 471.01,425.14C472.4,424.29 468.83,421.89 471.19,420.2C478.22,413.78 488.2,415.47 496.2,418.75Z" style="fill:rgb(130,78,42);fill-rule:nonzero;"/>
                <path d="M505.8,424.07C508.54,424.61 517.41,427.52 516.56,431.19C514.03,434.02 508.4,441.82 516.36,440.93C501.56,441.59 484.68,441.6 469.95,438.05C462.74,434.79 462.03,442.6 463.57,447.51C469.29,452.94 462.86,464.07 459.29,469.22C453.85,470.22 449.79,472.08 450.78,478.32C463.58,488.29 472.63,481.31 485.72,487.34C487.71,492.65 481.27,492.02 478.72,494.7C476.77,500.15 477.49,505.08 484.14,505.84C495.15,505.54 506.86,504.51 517.08,500C511.19,510.83 502.71,501.76 497.39,511.39C496.17,513.93 495.16,509.87 493.14,509.98C491.96,513.37 495.69,518.8 491.47,519.92C488.23,530.31 492.28,541.85 488.96,551.98C488.72,556.58 490.25,561.34 491.4,565.75C498.37,565.45 509.16,567.11 513,559.92C509.12,574.74 486.23,574.08 480.43,561.63C475.45,560.79 474.07,558.65 470.99,555.1C470.46,559.39 468.35,567.23 470.82,570.25C467.55,566.92 464.84,565.84 467.56,560.92C465.46,552.35 457.81,544.28 452.4,537.61C443.57,540.48 440.86,530.62 434.34,526.65C430.09,521.1 425.4,524.21 421.19,520.86C423.21,517.3 424.81,516.73 422.76,512.47C421.61,506.62 420.58,490.41 412.21,490.97C405.39,499.86 402.3,513.42 399.33,524.13C392.14,516.12 400.52,523.07 400.42,513.19C403.13,505.4 403.98,497.53 408.34,490.34C409.77,486.4 413.88,482.87 409.52,479.43C407.06,475.22 412.96,477 414.66,474.65C416.59,471.37 416.93,466.89 417.1,463.17C417.5,460.45 417.62,457.85 419.89,455.93C421.26,463.58 418.1,469.69 418.07,476.98C427.61,469.57 433.04,455.47 435.04,443.88C437.15,442.93 439.88,444.07 441.69,442.7C451.62,436.29 462.68,432.92 473.44,428.49C484.19,421.08 493.39,419.28 505.8,424.07Z" style="fill:rgb(111,11,6);fill-rule:nonzero;"/>
                <path d="M562.47,426.1C562.85,428.94 567.32,433.69 562.33,434.46C563.54,435.41 564.82,436.28 566.06,437.2C568.34,447.14 558.3,451.89 567.68,457.35C581.11,470.16 579.37,497.35 589.34,511.77C590.44,526.96 598.76,543.33 606.21,556.39C604.46,555.94 603.29,554.79 601.88,553.74C601.34,553.35 600.78,553 600.2,552.7C590.52,551.22 582.15,550.02 572.85,554.11C573.73,544.67 567.47,551 562.09,550.96C563.33,547.01 567.1,548.23 561.2,545.88C564.33,541.64 568.36,538.4 573.74,537.71C570.87,535.81 570.65,536.76 572.81,533.77C570.15,532.94 567.84,531.58 565,531.37C566.61,529.87 568.38,528.54 569.98,527.02C565.68,526.55 563.01,529.23 558.95,529.93C561.55,526.5 566.98,526.37 569.09,522.84C557.11,516.76 551.59,531.51 538.95,529.87C547.21,520.51 559.13,519.5 568.05,512.21C565,512.75 562.05,513.56 558.96,513.89C560.73,512.3 562.65,511.12 564.25,509.36C557.9,509.97 553.81,514.36 547.99,515.97C550.8,512.7 554.39,511.3 558,509.2C556.32,503.8 567.16,501.86 570.05,498.13C561.32,500.47 553.7,503.94 546.85,509.92C541.11,511.48 542.21,512.37 538.07,517.03C539.33,508.62 551.32,498.88 549.83,491.03C540.48,507.48 528.03,523.38 521.96,541.44C517.65,537.17 515.22,548.39 512.27,550.3C507.67,555.27 509.18,544.44 504.2,548.85C506.24,545.04 504.32,536.41 509.24,545.12C509.71,534.73 518.08,531.11 521.29,522.23C525.59,516.59 527.52,509.98 530.87,503.81C532.8,501.48 529.1,499.37 529.83,497.61C531.85,495.8 532.79,502.01 533.74,498.84C534.46,494.42 538.18,493.53 535.31,488.97C540.85,491.44 546.7,476.86 545.77,470.82C547.05,467.91 550.53,461.58 545.4,460.59C548.74,457.56 553.09,454.44 555.16,450.37C552.59,444.75 558.5,446.51 555.6,441.34C553.37,438.07 556.31,435.28 555.5,431.4C560.42,430.86 560.2,430.02 562.47,426.1Z" style="fill:rgb(170,26,27);fill-rule:nonzero;"/>
                <path d="M537.63,436.57C546.4,438.17 545.69,443.16 545.16,450.49C547.47,450.48 549.77,450.34 552.09,450.48C546.58,452.76 540.02,455.46 533.97,454.9C537.09,450.34 543.64,449.39 541.67,442.39C533.17,436.19 518.98,443.3 509.19,444.13C495.41,444.11 482.19,444.37 468.85,440.26C464.07,441.17 465.22,447.82 470.74,448.42C470.94,455.8 466.39,464.15 464.14,471.15C462.46,478.27 455,468.09 455.33,477.7C461.18,480.71 473.86,481.25 481.05,482.8C483.44,483.64 491.25,481.55 491.21,485.04C490.03,487.54 489.53,494.22 487.69,495.46C481.63,494.88 481.55,495.67 482.2,501.64C496.68,505.11 510.82,501.06 523.34,493.67C523.16,496.37 518.81,498.1 517.08,500C506.86,504.51 495.15,505.54 484.14,505.84C477.49,505.08 476.77,500.15 478.72,494.7C481.27,492.02 487.71,492.65 485.72,487.34C472.63,481.31 463.58,488.29 450.78,478.32C449.79,472.08 453.85,470.22 459.29,469.22C462.86,464.07 469.29,452.94 463.57,447.51C462.03,442.6 462.74,434.79 469.95,438.05C484.68,441.6 501.56,441.59 516.36,440.93C522.74,438.9 530.83,435.24 537.63,436.57Z" style="fill:rgb(80,19,15);fill-rule:nonzero;"/>
                <path d="M468.85,440.26C482.19,444.37 495.41,444.11 509.19,444.13C503.88,445.61 507.75,445.7 509.86,447.85C502.77,450.97 496.32,449.15 489.17,449.97C486.14,450.92 491.44,451.35 492.1,451.7C489.15,453.35 487.54,458.58 487.04,461.78C495.58,462.5 503.57,462.13 511.86,459.89C515.67,461.8 511.56,463.23 510.05,465.07C505.68,468.94 501.12,471.89 495.1,472.02C499.99,465.73 481.18,466.33 482.14,472.26C477.98,479.28 489.29,476.73 492.74,476.77C498.43,472.06 499.19,475.99 495.11,480.29C492.38,481.65 492.09,482.15 491.21,485.04C491.25,481.55 483.44,483.64 481.05,482.8C473.86,481.25 461.18,480.71 455.33,477.7C455,468.09 462.46,478.27 464.14,471.15C466.39,464.15 470.94,455.8 470.74,448.42C465.22,447.82 464.07,441.17 468.85,440.26Z" style="fill:rgb(190,156,138);fill-rule:nonzero;"/>
                <path d="M541.67,442.39C543.64,449.39 537.09,450.34 533.97,454.9C540.02,455.46 546.58,452.76 552.09,450.48C553.11,450.44 554.14,450.4 555.16,450.37C553.09,454.44 548.74,457.56 545.4,460.59C550.53,461.58 547.05,467.91 545.77,470.82C539.02,479.69 533.28,488.01 523.34,493.67C510.82,501.06 496.68,505.11 482.2,501.64C481.55,495.67 481.63,494.88 487.69,495.46C489.53,494.22 490.03,487.54 491.21,485.04C492.09,482.15 492.38,481.65 495.11,480.29C499.19,475.99 498.43,472.06 492.74,476.77C493.56,475.2 494.32,473.61 495.1,472.02C501.12,471.89 505.68,468.94 510.05,465.07C511.56,463.23 515.67,461.8 511.86,459.89C515.97,459.92 529.23,452.93 524.68,448.28C514.16,449.21 503.56,451.71 492.1,451.7C491.44,451.35 486.14,450.92 489.17,449.97C496.32,449.15 502.77,450.97 509.86,447.85C507.75,445.7 503.88,445.61 509.19,444.13C518.98,443.3 533.17,436.19 541.67,442.39Z" style="fill:rgb(223,204,199);fill-rule:nonzero;"/>
                <path d="M435.04,443.88C433.04,455.47 427.61,469.57 418.07,476.98C418.1,469.69 421.26,463.58 419.89,455.93C424.78,452.02 429.13,446.07 435.04,443.88Z" style="fill:rgb(225,213,213);fill-rule:nonzero;"/>
                <path d="M524.68,448.28C529.23,452.93 515.97,459.92 511.86,459.89C503.57,462.13 495.58,462.5 487.04,461.78C487.54,458.58 489.15,453.35 492.1,451.7C503.56,451.71 514.16,449.21 524.68,448.28Z" style="fill:rgb(92,26,20);fill-rule:nonzero;"/>
                <path d="M542.39,458.45C545.22,458.94 531.6,469.68 535.92,461.94C536.97,459.77 540.25,459.02 542.39,458.45Z" style="fill:rgb(81,58,56);fill-rule:nonzero;"/>
                <path d="M417.1,463.17C416.93,466.89 416.59,471.37 414.66,474.65C412.96,477 407.06,475.22 409.52,479.43C413.88,482.87 409.77,486.4 408.34,490.34C403.98,497.53 403.13,505.4 400.42,513.19C400.52,523.07 392.14,516.12 399.33,524.13C400.74,527.98 400.71,529.04 399,532.78C401.51,535.88 400.78,549.59 396.63,552.14C389.23,552.53 402.69,555.13 398.91,557.57C396.26,556.99 393.66,556.27 390.95,555.96C387.82,553.23 391.45,549.66 391.06,546.01C389.02,534.78 392.9,525.8 387.4,514.77C384.84,500.36 382.27,482.62 389.09,469.05C393.15,461.98 400.45,466.98 407.32,462.32C411.07,460.65 415.05,457.49 417.1,463.17Z" style="fill:rgb(179,39,40);fill-rule:nonzero;"/>
                <path d="M517.37,464.3C530.28,463.24 511.81,475.4 510.27,473.1C512.08,468.45 511.17,464.76 517.37,464.3Z" style="fill:rgb(77,38,35);fill-rule:nonzero;"/>
                <path d="M495.1,472.02C494.32,473.61 493.56,475.2 492.74,476.77C489.29,476.73 477.98,479.28 482.14,472.26C481.18,466.33 499.99,465.73 495.1,472.02Z" style="fill:rgb(67,17,14);fill-rule:nonzero;"/>
                <path d="M538,470.09C534.39,482.9 517.15,491.29 505.16,493.93C506.72,483.77 504.51,481.13 515.88,478.85C523.09,475.76 530.37,472 538,470.09Z" style="fill:rgb(104,25,23);fill-rule:nonzero;"/>
                <path d="M545.77,470.82C546.7,476.86 540.85,491.44 535.31,488.97C538.18,493.53 534.46,494.42 533.74,498.84C532.79,502.01 531.85,495.8 529.83,497.61C529.1,499.37 532.8,501.48 530.87,503.81C527.52,509.98 525.59,516.59 521.29,522.23C518.08,531.11 509.71,534.73 509.24,545.12C504.32,536.41 506.24,545.04 504.2,548.85C509.18,544.44 507.67,555.27 512.27,550.3C515.22,548.39 517.65,537.17 521.96,541.44C528.03,523.38 540.48,507.48 549.83,491.03C551.32,498.88 539.33,508.62 538.07,517.03C542.21,512.37 541.11,511.48 546.85,509.92C553.7,503.94 561.32,500.47 570.05,498.13C567.16,501.86 556.32,503.8 558,509.2C554.39,511.3 550.8,512.7 547.99,515.97C553.81,514.36 557.9,509.97 564.25,509.36C562.65,511.12 560.73,512.3 558.96,513.89C562.05,513.56 565,512.75 568.05,512.21C559.13,519.5 547.21,520.51 538.95,529.87C551.59,531.51 557.11,516.76 569.09,522.84C566.98,526.37 561.55,526.5 558.95,529.93C563.01,529.23 565.68,526.55 569.98,527.02C568.38,528.54 566.61,529.87 565,531.37C567.84,531.58 570.15,532.94 572.81,533.77C570.65,536.76 570.87,535.81 573.74,537.71C568.36,538.4 564.33,541.64 561.2,545.88C567.1,548.23 563.33,547.01 562.09,550.96C567.47,551 573.73,544.67 572.85,554.11C571.1,554.72 569.34,555.3 567.63,556C556.26,562.33 545.95,571.14 535.33,578.71C529.97,577.93 524.86,589.03 520.37,591.42C513.05,597.37 509.98,580.91 514.69,577.89C515.96,571.28 520.88,568.55 524.28,563.36C527.02,559.66 519,565.86 521.58,562.47C524.21,554.91 528.87,547.91 528.8,539.94C526.11,542.9 525.13,547.3 522.36,550.07C517.71,548.28 515.02,556.86 513,559.92C509.16,567.11 498.37,565.45 491.4,565.75C490.25,561.34 488.72,556.58 488.96,551.98C492.28,541.85 488.23,530.31 491.47,519.92C495.69,518.8 491.96,513.37 493.14,509.98C495.16,509.87 496.17,513.93 497.39,511.39C502.71,501.76 511.19,510.83 517.08,500C518.81,498.1 523.16,496.37 523.34,493.67C533.28,488.01 539.02,479.69 545.77,470.82Z" style="fill:rgb(135,11,10);fill-rule:nonzero;"/>
                <path d="M782.01,486.85C784.91,488.46 784.34,491.34 785.53,494.03C789.49,495.61 787.43,499.59 788.08,503.02C788.09,507.36 790.82,512.23 786.02,515.06C778.87,511.72 780.37,505.02 777.32,498.04C781.08,493.84 777.25,489.23 782.01,486.85Z" style="fill:rgb(195,146,111);fill-rule:nonzero;"/>
                <path d="M412.21,490.97C420.58,490.41 421.61,506.62 422.76,512.47C424.81,516.73 423.21,517.3 421.19,520.86C425.4,524.21 430.09,521.1 434.34,526.65C440.86,530.62 443.57,540.48 452.4,537.61C457.81,544.28 465.46,552.35 467.56,560.92C464.84,565.84 467.55,566.92 470.82,570.25C473.29,575.41 472.91,575.8 478.56,578.49C479.61,584.03 472.48,589.8 469.62,594.08C470.61,600.95 464.5,602.51 466.26,609.71C462.39,612.62 462.69,617.54 458.89,619.9C457.93,620.27 456.98,620.64 456.02,621.02C443.57,621.67 431.24,622.06 418.76,622.34C416.49,622.09 414.26,621.82 412.06,621.16C416.25,612.23 407.56,611.39 401.99,607.1C404.93,607.43 407.75,608.28 410.66,608.74C411.24,605.27 413.39,599.54 410.15,596.88C406.9,594.85 403.73,592.92 400.73,590.51C398.84,588.98 401.48,600.67 398.65,596.85C398.87,594.59 398.91,592.34 398.86,590.07C398.61,586.23 402.95,589.93 404.74,590.23C408.39,593.43 408.56,585.42 407.66,583.5C407.46,578.84 393.26,578.09 402.81,574.55C401.53,572.74 394.6,567.55 393.13,570.81C393.96,566.03 394,560 390.95,555.96C393.66,556.27 396.26,556.99 398.91,557.57C402.69,555.13 389.23,552.53 396.63,552.14C400.78,549.59 401.51,535.88 399,532.78C400.71,529.04 400.74,527.98 399.33,524.13C402.3,513.42 405.39,499.86 412.21,490.97Z" style="fill:rgb(155,23,21);fill-rule:nonzero;"/>
                <path d="M528.8,539.94C528.87,547.91 524.21,554.91 521.58,562.47C519,565.86 527.02,559.66 524.28,563.36C520.88,568.55 515.96,571.28 514.69,577.89C509.98,580.91 513.05,597.37 520.37,591.42C524.86,589.03 529.97,577.93 535.33,578.71C533.08,581.32 530.53,583.56 527.96,585.83C521.22,593.12 514.04,605.91 515.61,616.07C513.94,614.34 514.13,612.31 513.57,610.1C511.02,611.35 508.97,613.64 506.68,615.32C506.43,612.21 510.13,606.43 512.83,605.8C512.07,603.11 508.53,605.31 507.16,600.54C512.62,592.55 502.33,599.24 501.91,602.95C500.67,605.17 499.63,607.46 498.7,609.82C496.32,610.13 499.54,614.24 498.82,615.88C492.47,619.57 498.08,630.84 492.27,636.32C491.03,639.45 493.19,642.5 488.47,642.13C491.07,638.57 485.53,640.82 485.94,636.97C486.23,634.09 491.16,619.23 486.21,620.07C477.04,620.81 468.09,619.72 458.89,619.9C462.69,617.54 462.39,612.62 466.26,609.71C464.5,602.51 470.61,600.95 469.62,594.08C472.48,589.8 479.61,584.03 478.56,578.49C472.91,575.8 473.29,575.41 470.82,570.25C468.35,567.23 470.46,559.39 470.99,555.1C474.07,558.65 475.45,560.79 480.43,561.63C486.23,574.08 509.12,574.74 513,559.92C515.02,556.86 517.71,548.28 522.36,550.07C525.13,547.3 526.11,542.9 528.8,539.94Z" style="fill:rgb(72,9,7);fill-rule:nonzero;"/>
                <path d="M600.2,552.7C598.28,552.78 596.35,552.88 594.44,553.06C600.8,562.46 596.99,565.71 603.46,572.89C598.82,576.24 604.6,580.96 600.66,584.66C595.39,587.86 603.3,588.94 600.01,595.75C605.15,594.87 603.46,594.26 603.38,589.97C607.7,590.96 603.26,599.35 606.69,602.29C608.41,606.52 610.05,599 611.8,604.06C608.68,605.34 605.75,610.17 609.46,612.51C615.66,617.18 605.89,614.89 613.95,618.95C608.3,619.23 609.8,629 612.76,632.26C617.78,639.19 612.29,644.91 618.4,651.37C618.14,655.4 615.45,662.21 611.94,664.39C606.86,664.32 610.73,669.81 609.95,672.76C602.18,676.56 600.83,687.95 600.14,695.73C602.14,696.05 604.18,696.18 606.2,696.3C605.52,696.63 604.83,696.96 604.15,697.28C600.71,697.11 597.49,696.97 594.25,695.69C592.08,689.85 601.32,683 592.27,682.69C598.45,678.43 595.42,678.8 590.46,680.95C594.29,673.39 585.78,678.37 587.79,668.79C593.18,665.22 590.86,662.21 595.87,659.89C598.82,658.32 596.52,653.83 597.12,651.03C600.14,650.8 600.1,655.65 602.89,655.99C602.84,653.98 602.55,652.02 602.31,650.03C604.11,652.15 605.68,654.55 608,656.14C610.96,655.16 609.67,650.91 609.32,648.59C602.3,648.13 601.83,639.82 600.28,634.75C594.88,632.33 590.18,625.6 595.9,620.84C597.95,612.18 589.22,613.28 584.2,610.78C579.45,604.9 583.06,604.12 587.61,600.84C584.39,597.66 585.93,590.35 580.17,593.17C576.54,595.02 577.33,588.88 578.12,587.03C578.8,584.56 580.1,574.83 574.9,579.62C576.72,569.67 576.38,570.58 568.27,565.05C571.56,559.98 567.9,560.45 567.63,556C569.34,555.3 571.1,554.72 572.85,554.11C582.15,550.02 590.52,551.22 600.2,552.7Z" style="fill:rgb(187,141,104);fill-rule:nonzero;"/>
                <path d="M594.44,553.06C596.35,552.88 598.28,552.78 600.2,552.7C600.78,553 601.34,553.35 601.88,553.74C597.79,554.73 602.15,559.01 602.75,561.18C606.76,574.83 614.31,585.84 615.6,600.4C616.76,611.42 621.6,619.29 626.22,628.78C630.47,632.43 632.34,627.14 633.02,623.65C635.83,637.09 636.5,651.15 637.69,664.8C635.55,674.08 633.08,681.39 624.83,687.01C618.72,690.43 612.9,694.06 606.2,696.3C604.18,696.18 602.14,696.05 600.14,695.73C600.83,687.95 602.18,676.56 609.95,672.76C610.73,669.81 606.86,664.32 611.94,664.39C615.45,662.21 618.14,655.4 618.4,651.37C612.29,644.91 617.78,639.19 612.76,632.26C609.8,629 608.3,619.23 613.95,618.95C605.89,614.89 615.66,617.18 609.46,612.51C605.75,610.17 608.68,605.34 611.8,604.06C610.05,599 608.41,606.52 606.69,602.29C603.26,599.35 607.7,590.96 603.38,589.97C603.46,594.26 605.15,594.87 600.01,595.75C603.3,588.94 595.39,587.86 600.66,584.66C604.6,580.96 598.82,576.24 603.46,572.89C596.99,565.71 600.8,562.46 594.44,553.06Z" style="fill:rgb(194,157,129);fill-rule:nonzero;"/>
                <path d="M601.88,553.74C603.29,554.79 604.46,555.94 606.21,556.39C615.21,577.34 628.82,600.18 633.02,623.65C632.34,627.14 630.47,632.43 626.22,628.78C621.6,619.29 616.76,611.42 615.6,600.4C614.31,585.84 606.76,574.83 602.75,561.18C602.15,559.01 597.79,554.73 601.88,553.74Z" style="fill:rgb(229,211,199);fill-rule:nonzero;"/>
                <path d="M567.63,556C567.9,560.45 571.56,559.98 568.27,565.05C576.38,570.58 576.72,569.67 574.9,579.62C580.1,574.83 578.8,584.56 578.12,587.03C575.9,588.2 569,590.51 574.83,592.24C579.3,596.18 570.04,593.47 572.65,597.41C572.56,601.75 580.31,591.05 577.22,597.32C575.25,601.16 576.29,602.51 580.18,600.4C579.79,603.61 576.34,606.14 573.89,607.92C568.49,608.56 575.79,600.91 572.16,599.92C568.1,599.84 567.36,588.33 565.58,592.46C563.52,601.62 558.03,598.91 550.87,600.6C548.72,601.58 546.55,602.98 545.1,604.88C543.44,609.35 542.58,611.46 538.34,613.98C535.66,611.34 531.99,604.78 531.51,601.45C535.08,595.5 533.42,597.81 528.25,595.59C530.24,589 527.19,592.92 527.96,585.83C530.53,583.56 533.08,581.32 535.33,578.71C545.95,571.14 556.26,562.33 567.63,556Z" style="fill:rgb(129,79,50);fill-rule:nonzero;"/>
                <path d="M402.81,574.55C393.26,578.09 407.46,578.84 407.66,583.5C408.56,585.42 408.39,593.43 404.74,590.23C402.95,589.93 398.61,586.23 398.86,590.07C396.98,585.71 393.33,583.14 395.11,578.07C396.33,574.63 394.72,573.58 393.13,570.81C394.6,567.55 401.53,572.74 402.81,574.55Z" style="fill:rgb(192,65,69);fill-rule:nonzero;"/>
                <path d="M527.96,585.83C527.19,592.92 530.24,589 528.25,595.59C533.42,597.81 535.08,595.5 531.51,601.45C531.99,604.78 535.66,611.34 538.34,613.98C536.29,624.69 534.62,633.58 534.38,644.62C537.65,657.33 542.31,670.88 551.04,680.9C554.19,688.01 554.34,696.73 559.07,702.82C556.22,702.3 556.19,701.16 556.03,704.71C552.66,706.35 549.09,708.54 551.64,702.06C547.1,699.19 551.52,697.58 550.75,693.38C551.2,687.21 546.24,682.75 544.32,676.67C541.34,668.77 531.9,671.07 529.09,662.91C525.26,653.37 527.67,644.82 527.93,635.16C527.01,629.45 524.24,620.79 518.3,619.41C513.24,621.36 515.07,633.67 509,627.98C502.1,627.46 504.69,635.65 506.48,639.28C506.35,640.93 504.96,641.56 503.73,640.29C500.33,631.28 501.03,623.32 506.68,615.32C508.97,613.64 511.02,611.35 513.57,610.1C514.13,612.31 513.94,614.34 515.61,616.07C514.04,605.91 521.22,593.12 527.96,585.83Z" style="fill:rgb(111,57,40);fill-rule:nonzero;"/>
                <path d="M578.12,587.03C577.33,588.88 576.54,595.02 580.17,593.17C585.93,590.35 584.39,597.66 587.61,600.84C583.06,604.12 579.45,604.9 584.2,610.78C589.22,613.28 597.95,612.18 595.9,620.84C590.18,625.6 594.88,632.33 600.28,634.75C601.83,639.82 602.3,648.13 609.32,648.59C609.67,650.91 610.96,655.16 608,656.14C605.68,654.55 604.11,652.15 602.31,650.03C602.55,652.02 602.84,653.98 602.89,655.99C600.1,655.65 600.14,650.8 597.12,651.03C596.52,653.83 598.82,658.32 595.87,659.89C590.86,662.21 593.18,665.22 587.79,668.79C585.78,678.37 594.29,673.39 590.46,680.95C595.42,678.8 598.45,678.43 592.27,682.69C601.32,683 592.08,689.85 594.25,695.69C597.49,696.97 600.71,697.11 604.15,697.28C597.17,701.08 579.95,702.4 572.81,699.35C579.64,702.08 578.23,689.94 574.16,689.76C573.19,675.27 574.43,662.46 564.51,650.32C568.59,649.94 564.34,647.1 564.2,644.84C563.27,640.38 562.54,636.64 559.58,632.96C561.61,626.81 556.06,619.22 555.4,613.63C554.96,608.37 554.37,604.76 550.87,600.6C558.03,598.91 563.52,601.62 565.58,592.46C567.36,588.33 568.1,599.84 572.16,599.92C575.79,600.91 568.49,608.56 573.89,607.92C576.34,606.14 579.79,603.61 580.18,600.4C576.29,602.51 575.25,601.16 577.22,597.32C580.31,591.05 572.56,601.75 572.65,597.41C570.04,593.47 579.3,596.18 574.83,592.24C569,590.51 575.9,588.2 578.12,587.03Z" style="fill:rgb(151,108,78);fill-rule:nonzero;"/>
                <path d="M400.73,590.51C403.73,592.92 406.9,594.85 410.15,596.88C413.39,599.54 411.24,605.27 410.66,608.74C407.75,608.28 404.93,607.43 401.99,607.1C407.56,611.39 416.25,612.23 412.06,621.16C408.98,620.23 405.94,619.18 402.88,618.22C400.66,615.43 397.24,612.33 398.44,608.4C399.89,603.56 395.24,601.39 398.65,596.85C401.48,600.67 398.84,588.98 400.73,590.51Z" style="fill:rgb(189,59,64);fill-rule:nonzero;"/>
                <path d="M507.16,600.54C503.57,602.78 502.62,608.85 498.7,609.82C499.63,607.46 500.67,605.17 501.91,602.95C502.33,599.24 512.62,592.55 507.16,600.54Z" style="fill:rgb(193,180,181);fill-rule:nonzero;"/>
                <path d="M507.16,600.54C508.53,605.31 512.07,603.11 512.83,605.8C510.13,606.43 506.43,612.21 506.68,615.32C501.03,623.32 500.33,631.28 503.73,640.29C504.96,641.56 506.35,640.93 506.48,639.28C507.11,635.44 507.73,631.68 509,627.98C515.07,633.67 513.24,621.36 518.3,619.41C524.24,620.79 527.01,629.45 527.93,635.16C526.22,632.52 524.89,628.73 522.17,627.03C514.53,639.36 517.28,650.75 519.92,664.02C516.96,661.42 514.84,657.95 512.04,655.15C511.84,660.33 512.52,665.07 511.3,670.17C509.5,662.57 513.26,652.75 510.28,646.08C509.03,650.39 508.43,654.86 507.28,659.2C504.53,651.53 501.74,636.08 498.97,630.23C496.35,638.46 495.3,650.17 496.19,659.85C498.91,664.92 502.71,668.8 507.21,672.31C510.92,676 512.45,678.11 511.35,670.95C513.39,676.23 518.09,676.07 521.02,679.96C517.29,680.1 514.61,678.2 511.02,677.06C503.73,674.57 501.44,668.7 496.2,663.99C494.66,673 497.97,680.2 501.79,688.03C502.81,691.1 503.63,694.23 504.29,697.4C500.86,696.34 489.85,711.5 493.61,700.28C491.78,698.71 487.14,699.61 486.17,697.84C484.73,689.78 478.23,692.62 479.67,683.19C474.07,676.33 477.64,662.8 474.72,657.35C476.74,644.71 482.14,632.45 486.21,620.07C491.16,619.23 486.23,634.09 485.94,636.97C485.53,640.82 491.07,638.57 488.47,642.13C493.19,642.5 491.03,639.45 492.27,636.32C498.08,630.84 492.47,619.57 498.82,615.88C499.54,614.24 496.32,610.13 498.7,609.82C502.62,608.85 503.57,602.78 507.16,600.54Z" style="fill:rgb(69,37,23);fill-rule:nonzero;"/>
                <path d="M550.87,600.6C554.37,604.76 554.96,608.37 555.4,613.63C556.06,619.22 561.61,626.81 559.58,632.96C562.54,636.64 563.27,640.38 564.2,644.84C564.34,647.1 568.59,649.94 564.51,650.32C574.43,662.46 573.19,675.27 574.16,689.76C578.23,689.94 579.64,702.08 572.81,699.35C566.46,696.74 562.5,689.99 556.8,686.05C560.34,683.47 562.22,684.39 566.04,685.68C572.19,681.53 566.23,673.32 566.25,666.8C562.76,655.46 556.48,647 556.28,634.63C554.15,625.73 553.73,614.68 549.55,606.44C547.97,604.12 547.72,604.34 545.1,604.88C546.55,602.98 548.72,601.58 550.87,600.6Z" style="fill:rgb(165,128,108);fill-rule:nonzero;"/>
                <path d="M549.55,606.44C553.73,614.68 554.15,625.73 556.28,634.63C556.48,647 562.76,655.46 566.25,666.8C566.23,673.32 572.19,681.53 566.04,685.68C562.22,684.39 560.34,683.47 556.8,686.05C554.85,684.38 552.95,682.63 551.04,680.9C542.31,670.88 537.65,657.33 534.38,644.62C534.62,633.58 536.29,624.69 538.34,613.98C542.58,611.46 543.44,609.35 545.1,604.88C547.72,604.34 547.97,604.12 549.55,606.44Z" style="fill:rgb(186,154,138);fill-rule:nonzero;"/>
                <path d="M460.03,612.07C456.13,616.13 447.42,617.8 441.93,617.91C443.05,616.1 445.61,616 447.49,615.28C451.56,614.06 455.81,612.59 460.03,612.07Z" style="fill:rgb(231,143,143);fill-rule:nonzero;"/>
                <path d="M402.88,618.22C405.94,619.18 408.98,620.23 412.06,621.16C414.26,621.82 416.49,622.09 418.76,622.34C420.44,622.88 426.13,622.67 426.46,624.28C425.56,635.79 429.94,646.42 428.63,657.65C428.78,669.01 432.6,680.71 430.34,691.89C433.22,698.67 430.88,707.97 429.8,715.19C416.71,684.05 408.27,651.5 402.88,618.22Z" style="fill:rgb(182,144,117);fill-rule:nonzero;"/>
                <path d="M458.89,619.9C468.09,619.72 477.04,620.81 486.21,620.07C482.14,632.45 476.74,644.71 474.72,657.35C477.64,662.8 474.07,676.33 479.67,683.19C478.23,692.62 484.73,689.78 486.17,697.84C487.14,699.61 491.78,698.71 493.61,700.28C489.85,711.5 500.86,696.34 504.29,697.4C505.54,702.62 506.15,707.64 506.13,713.01C506.13,716.7 506.02,720.3 504.96,723.86C501.06,735.15 490.64,748.17 479.17,752.29C473.05,754.26 483.96,755.4 477.65,759.59C479.32,764.76 478.16,768.93 481.44,773.58C488.09,778.3 480.94,790.06 476.34,793.63C480.06,794.2 481.9,797.81 483.72,800.73C478.69,805.37 477.12,810.01 469.54,806.41C469.22,810.83 465.67,815.53 470.53,818.53C473.66,820.43 468.63,821.85 470.33,824.74C473.27,831.1 470.05,831.77 470.92,839.54C472.37,839.2 474.23,837.82 475.67,838.27C479.19,843.05 472.9,845.06 474.8,850.85C472.03,854.74 465.38,854.75 469.81,861.02C464.49,862.72 458.19,862.48 453.07,860.19C455.55,851.64 449.56,840.86 449.39,832.19C446.12,817.8 454.39,800.77 456.06,785.46C462,789.87 459.96,778.12 459.43,775.4C456.25,764.79 466.18,768.16 464.89,758.03C464.83,751.31 467.95,746.44 465.2,739.83C464.4,735.72 459.63,739.24 457.89,740.82C453.71,740.95 453.8,742.83 451.77,745.78C447.52,745.33 444.23,732.79 447.84,730.1C447.99,726.22 444.58,723.97 445.08,720.25C451.18,719.15 452.73,722.39 449.91,715.12C451.78,717.54 455.95,719.45 454.41,714.76C448.92,711.57 454.98,707.56 456.21,704.01C456.91,695.89 448.68,692.64 454.83,685.88C463.64,680.7 471.41,669.24 465.02,659.62C459.92,662.08 462.21,659.2 464.27,656.77C462.98,653.41 459.78,649.24 462.94,645.98C466.66,642.27 458.48,639.33 460.86,635.82C463.28,632.87 457.71,632 457.73,628.38C460.66,632.82 467.99,621.88 461.94,621.36C459.95,621.38 458,621.32 456.02,621.02C456.98,620.64 457.93,620.27 458.89,619.9Z" style="fill:rgb(104,57,25);fill-rule:nonzero;"/>
                <path d="M456.02,621.02C451.63,629.44 442.93,629.4 437.16,636.16C435.94,638.8 429.69,632.8 432.85,637.23C433.19,639.63 440.83,637.29 436.25,639.17C429.89,640.62 436.71,643.43 439.37,641.34C442.76,646.24 437.37,643.61 434.52,644.13C435.14,649.23 431.51,658.37 438.08,660.01C429.49,663.13 439.6,668.97 439.76,673.49C432.18,674.79 437.31,679.06 435.3,684.76C440.05,689.68 433.08,703.52 440.91,703.61C433.86,702.64 440.33,712.82 439.4,716.67C440.42,729.12 444.76,739.82 450.08,751.01C457.85,757.12 452.02,743.6 457.89,740.82C459.63,739.24 464.4,735.72 465.2,739.83C467.95,746.44 464.83,751.31 464.89,758.03C466.18,768.16 456.25,764.79 459.43,775.4C459.96,778.12 462,789.87 456.06,785.46C454.39,800.77 446.12,817.8 449.39,832.19C449.56,840.86 455.55,851.64 453.07,860.19C444.15,856.58 442.15,849.64 441.18,840.82C438.16,831.76 435.02,822.77 431.6,813.86C434.78,812.46 436.22,822.77 439.79,815.22C437.03,809.14 439.03,793.53 444.42,787.56C440.58,784.69 451.26,786.89 445.04,783.97C436.08,781.56 445.81,777.37 444.68,772.01C445.7,766.5 443.31,763.34 446.89,759.07C441.28,754.41 443.47,752.97 443.24,746.54C437.04,738.17 439.59,728.88 435.05,719.85C435.01,718.12 433.11,720.93 432.55,721.1C431.6,719.15 430.63,717.2 429.8,715.19C430.88,707.97 433.22,698.67 430.34,691.89C432.6,680.71 428.78,669.01 428.63,657.65C429.94,646.42 425.56,635.79 426.46,624.28C426.13,622.67 420.44,622.88 418.76,622.34C431.24,622.06 443.57,621.67 456.02,621.02Z" style="fill:rgb(148,102,69);fill-rule:nonzero;"/>
                <path d="M456.02,621.02C458,621.32 459.95,621.38 461.94,621.36C467.99,621.88 460.66,632.82 457.73,628.38C457.71,632 463.28,632.87 460.86,635.82C458.48,639.33 466.66,642.27 462.94,645.98C459.78,649.24 462.98,653.41 464.27,656.77C462.21,659.2 459.92,662.08 465.02,659.62C471.41,669.24 463.64,680.7 454.83,685.88C448.68,692.64 456.91,695.89 456.21,704.01C454.98,707.56 448.92,711.57 454.41,714.76C455.95,719.45 451.78,717.54 449.91,715.12C452.73,722.39 451.18,719.15 445.08,720.25C444.58,723.97 447.99,726.22 447.84,730.1C444.23,732.79 447.52,745.33 451.77,745.78C453.8,742.83 453.71,740.95 457.89,740.82C452.02,743.6 457.85,757.12 450.08,751.01C444.76,739.82 440.42,729.12 439.4,716.67C440.33,712.82 433.86,702.64 440.91,703.61C433.08,703.52 440.05,689.68 435.3,684.76C437.31,679.06 432.18,674.79 439.76,673.49C439.6,668.97 429.49,663.13 438.08,660.01C431.51,658.37 435.14,649.23 434.52,644.13C437.37,643.61 442.76,646.24 439.37,641.34C436.71,643.43 429.89,640.62 436.25,639.17C440.83,637.29 433.19,639.63 432.85,637.23C429.69,632.8 435.94,638.8 437.16,636.16C442.93,629.4 451.63,629.44 456.02,621.02Z" style="fill:rgb(130,76,34);fill-rule:nonzero;"/>
                <path d="M522.17,627.03C524.89,628.73 526.22,632.52 527.93,635.16C527.67,644.82 525.26,653.37 529.09,662.91C531.9,671.07 541.34,668.77 544.32,676.67C546.24,682.75 551.2,687.21 550.75,693.38C551.52,697.58 547.1,699.19 551.64,702.06C549.09,708.54 552.66,706.35 556.03,704.71C554.6,714.43 553.42,724.72 550.18,734.03C545.39,734.97 544.98,740.51 542.19,743.81C538.86,740.38 540.33,748.02 534.57,746.36C525.13,743.75 524.22,736.33 517.62,730.8C517.18,726.85 511.6,720.7 516.86,718.83C519.95,717.55 512.31,712.87 516.8,712.29C520.21,713.86 523.96,717.81 524.41,711.28C527.34,713.42 534.53,714.22 532.35,708.62C530.7,705.22 534.01,699.3 528.13,700.03C530.17,704.6 531.85,710.19 524.27,706.9C526.32,704.32 529.4,699.22 523.2,701.15C518.22,704.74 517.08,691.92 513.22,689.95C510.8,688.36 499.82,690.55 506.97,686.88C509.17,684.89 499.8,681.19 502,676.03C504.14,678.56 506.77,684.7 510.78,683.93C511.05,681.67 511.04,679.34 511.02,677.06C514.61,678.2 517.29,680.1 521.02,679.96C518.09,676.07 513.39,676.23 511.35,670.95L511.3,670.17C512.52,665.07 511.84,660.33 512.04,655.15C514.84,657.95 516.96,661.42 519.92,664.02C517.28,650.75 514.53,639.36 522.17,627.03Z" style="fill:rgb(24,18,19);fill-rule:nonzero;"/>
                <path d="M509,627.98C507.73,631.68 507.11,635.44 506.48,639.28C504.69,635.65 502.1,627.46 509,627.98Z" style="fill:rgb(195,170,174);fill-rule:nonzero;"/>
                <path d="M498.97,630.23C501.74,636.08 504.53,651.53 507.28,659.2C508.04,663.64 508.62,667.91 507.21,672.31C502.71,668.8 498.91,664.92 496.19,659.85C495.3,650.17 496.35,638.46 498.97,630.23Z" style="fill:rgb(247,244,242);fill-rule:nonzero;"/>
                <path d="M510.28,646.08C513.26,652.75 509.5,662.57 511.3,670.17L511.35,670.95C512.45,678.11 510.92,676 507.21,672.31C508.62,667.91 508.04,663.64 507.28,659.2C508.43,654.86 509.03,650.39 510.28,646.08Z" style="fill:rgb(131,126,128);fill-rule:nonzero;"/>
                <path d="M496.2,663.99C501.44,668.7 503.73,674.57 511.02,677.06C511.04,679.34 511.05,681.67 510.78,683.93C506.77,684.7 504.14,678.56 502,676.03C499.8,681.19 509.17,684.89 506.97,686.88C505.24,687.23 503.51,687.59 501.79,688.03C497.97,680.2 494.66,673 496.2,663.99Z" style="fill:rgb(233,230,225);fill-rule:nonzero;"/>
                <path d="M637.69,664.8C643.66,677.79 638.41,688.67 640.76,701.94C641.55,713.87 628.46,724.01 619.21,729.34C614.73,726.14 622.4,722.83 623.27,721.18C618.29,717 627.47,720.74 623.15,715.31C626.54,715.61 628.89,716.28 624.54,713.51C629.42,706.44 637.94,700.79 635.51,691.43C640.79,683.44 627.95,691.45 624.83,687.01C633.08,681.39 635.55,674.08 637.69,664.8Z" style="fill:rgb(57,53,55);fill-rule:nonzero;"/>
                <path d="M551.04,680.9C552.95,682.63 554.85,684.38 556.8,686.05C562.5,689.99 566.46,696.74 572.81,699.35C579.95,702.4 597.17,701.08 604.15,697.28C604.83,696.96 605.52,696.63 606.2,696.3C612.9,694.06 618.72,690.43 624.83,687.01C627.95,691.45 640.79,683.44 635.51,691.43C637.94,700.79 629.42,706.44 624.54,713.51C628.89,716.28 626.54,715.61 623.15,715.31C627.47,720.74 618.29,717 623.27,721.18C622.4,722.83 614.73,726.14 619.21,729.34C611.66,733.85 603.02,733.77 594.64,732.35C581.22,724.2 568.75,715.41 559.07,702.82C554.34,696.73 554.19,688.01 551.04,680.9Z" style="fill:rgb(31,27,29);fill-rule:nonzero;"/>
                <path d="M506.97,686.88C499.82,690.55 510.8,688.36 513.22,689.95C512.87,692.3 512.42,694.62 511.75,696.89C510.28,695.83 508.9,693.38 507.13,693.09C505.47,700.46 511.4,697.84 513.11,704.77C509.36,704.04 508.8,703.36 507.06,700.08C506.97,704.34 506.94,708.59 507.04,712.85L506.13,713.01C506.15,707.64 505.54,702.62 504.29,697.4C503.63,694.23 502.81,691.1 501.79,688.03C503.51,687.59 505.24,687.23 506.97,686.88Z" style="fill:rgb(173,150,142);fill-rule:nonzero;"/>
                <path d="M513.22,689.95C517.08,691.92 518.22,704.74 523.2,701.15C529.4,699.22 526.32,704.32 524.27,706.9C531.85,710.19 530.17,704.6 528.13,700.03C534.01,699.3 530.7,705.22 532.35,708.62C534.53,714.22 527.34,713.42 524.41,711.28C523.96,717.81 520.21,713.86 516.8,712.29C512.31,712.87 519.95,717.55 516.86,718.83C511.6,720.7 517.18,726.85 517.62,730.8C524.22,736.33 525.13,743.75 534.57,746.36C540.33,748.02 538.86,740.38 542.19,743.81C544.98,740.51 545.39,734.97 550.18,734.03C546.68,746.4 535.65,754.65 523.24,747.74C514.58,738.99 510.65,724.4 507.04,712.85C506.94,708.59 506.97,704.34 507.06,700.08C508.8,703.36 509.36,704.04 513.11,704.77C511.4,697.84 505.47,700.46 507.13,693.09C508.9,693.38 510.28,695.83 511.75,696.89C512.42,694.62 512.87,692.3 513.22,689.95Z" style="fill:rgb(86,48,42);fill-rule:nonzero;"/>
                <path d="M435.05,719.85C439.59,728.88 437.04,738.17 443.24,746.54C443.47,752.97 441.28,754.41 446.89,759.07C443.31,763.34 445.7,766.5 444.68,772.01C445.81,777.37 436.08,781.56 445.04,783.97C451.26,786.89 440.58,784.69 444.42,787.56C439.03,793.53 437.03,809.14 439.79,815.22C436.22,822.77 434.78,812.46 431.6,813.86C429.84,809.31 428.17,804.63 427.23,799.83C425.38,784.68 434.16,775.67 438.32,762.82C436.75,749.09 437.76,734.01 432.55,721.1C433.11,720.93 435.01,718.12 435.05,719.85Z" style="fill:rgb(167,133,108);fill-rule:nonzero;"/>
                <path d="M504.96,723.86C505.54,735.72 501.08,746.4 501.49,758.4C499.83,766.82 496.07,774.85 494.55,783.32C494.35,789.32 496.88,795.96 495.8,801.86C489.36,813.96 490.99,827.85 485.76,840.65C483.21,849.5 478.5,857.16 469.81,861.02C465.38,854.75 472.03,854.74 474.8,850.85C472.9,845.06 479.19,843.05 475.67,838.27C474.23,837.82 472.37,839.2 470.92,839.54C470.05,831.77 473.27,831.1 470.33,824.74C468.63,821.85 473.66,820.43 470.53,818.53C465.67,815.53 469.22,810.83 469.54,806.41C477.12,810.01 478.69,805.37 483.72,800.73C481.9,797.81 480.06,794.2 476.34,793.63C480.94,790.06 488.09,778.3 481.44,773.58C478.16,768.93 479.32,764.76 477.65,759.59C483.96,755.4 473.05,754.26 479.17,752.29C490.64,748.17 501.06,735.15 504.96,723.86Z" style="fill:rgb(130,90,64);fill-rule:nonzero;"/>
                <path d="M441.18,840.82C442.15,849.64 444.15,856.58 453.07,860.19C458.19,862.48 464.49,862.72 469.81,861.02C478.5,857.16 483.21,849.5 485.76,840.65C491.48,845.1 484.32,851.76 485.48,857.76C482.71,863.62 489.67,874.49 481.1,874.35C477.09,873.67 484.76,866.47 480.78,862.23C474.32,866.9 467.38,871.61 458.96,869.11C452.08,866.84 448.77,861.81 444.11,856.94C442.49,854.68 442.81,864.72 441.14,866.23C442.25,857.41 441.09,849.56 441.18,840.82Z" style="fill:rgb(212,185,179);fill-rule:nonzero;"/>
                <path d="M444.11,856.94C443.52,876.95 466.41,884.68 481.1,874.35C489.67,874.49 482.71,863.62 485.48,857.76C496.46,867.74 493.42,880.32 492.42,893.4C490.6,901.8 487.45,905.97 491.96,913.86C485.07,918.07 486.65,922.44 485.93,930C483.65,927.62 473.45,921.79 478.66,930.05C471.52,934.94 482.21,932.69 479.57,939.96C482.44,939.81 485.25,939.42 488.13,939.65C489.03,941.33 489.92,942.93 490.45,944.78C490.28,954.52 482.88,943.47 476.3,947.35C473.72,950.62 462.77,950.41 470.04,955.19C468.72,958.1 463.73,956.83 461.15,956.88C465.99,950.04 458.24,952.14 454.02,948.6C449.45,948.52 442.09,947.25 441.07,941.87C439.03,934.96 454.72,941.11 449.15,934.31C458.41,933.94 445.4,933.5 445.98,930.31C440.85,931.46 435.49,932.18 430.66,934.26C432.44,930.48 434.72,927.05 436,923.03C439.59,917.51 445.48,911.5 446.93,904.97C445.04,905.57 443.9,907.23 442.12,907.95C443.07,897.41 441.76,888.92 441.27,877.76C440.89,873.92 440.94,870.08 441.14,866.23C442.81,864.72 442.49,854.68 444.11,856.94Z" style="fill:rgb(26,22,25);fill-rule:nonzero;"/>
                <path d="M444.11,856.94C448.77,861.81 452.08,866.84 458.96,869.11C467.38,871.61 474.32,866.9 480.78,862.23C484.76,866.47 477.09,873.67 481.1,874.35C466.41,884.68 443.52,876.95 444.11,856.94Z" style="fill:rgb(145,40,36);fill-rule:nonzero;"/>
                <path d="M441.27,877.76C441.76,888.92 443.07,897.41 442.12,907.95C443.9,907.23 445.04,905.57 446.93,904.97C445.48,911.5 439.59,917.51 436,923.03C437.76,908.04 439.74,892.71 441.27,877.76Z" style="fill:rgb(164,152,147);fill-rule:nonzero;"/>
                <path d="M449.02,892.12C450.97,900.91 457.08,890.16 449.02,892.12Z" style="fill:rgb(180,179,185);fill-rule:nonzero;"/>
                <path d="M485.93,930C486.47,933.27 487.08,936.5 488.13,939.65C485.25,939.42 482.44,939.81 479.57,939.96C482.21,932.69 471.52,934.94 478.66,930.05C473.45,921.79 483.65,927.62 485.93,930Z" style="fill:rgb(110,65,59);fill-rule:nonzero;"/>
                <path d="M445.98,930.31C445.4,933.5 458.41,933.94 449.15,934.31C454.72,941.11 439.03,934.96 441.07,941.87C442.09,947.25 449.45,948.52 454.02,948.6C458.24,952.14 465.99,950.04 461.15,956.88C463.73,956.83 468.72,958.1 470.04,955.19C462.77,950.41 473.72,950.62 476.3,947.35C482.88,943.47 490.28,954.52 490.45,944.78C491.43,948.49 491.18,952.37 490.05,956.01C477.15,957.17 466.38,959.52 452.82,957.3C447.64,956.14 443.98,958.58 438.97,959.27C426.94,953.75 426.14,945.84 430.66,934.26C435.49,932.18 440.85,931.46 445.98,930.31Z" style="fill:rgb(106,70,63);fill-rule:nonzero;"/>
                <path d="M490.05,956.01C488.84,963.58 476.28,961.2 470.82,962.67C461.4,962.92 447.37,963.54 438.97,959.27C443.98,958.58 447.64,956.14 452.82,957.3C466.38,959.52 477.15,957.17 490.05,956.01Z" style="fill:rgb(198,180,156);fill-rule:nonzero;"/>
            </g>
        </g>
    </g>
</svg>
