<?xml version="1.0" encoding="UTF-8" standalone="no"?>
<!DOCTYPE svg PUBLIC "-//W3C//DTD SVG 1.1//EN" "http://www.w3.org/Graphics/SVG/1.1/DTD/svg11.dtd">
<svg width="100%" height="100%" viewBox="0 0 1728 1728" version="1.1" xmlns="http://www.w3.org/2000/svg" xmlns:xlink="http://www.w3.org/1999/xlink" xml:space="preserve" xmlns:serif="http://www.serif.com/" style="fill-rule:evenodd;clip-rule:evenodd;stroke-linejoin:round;stroke-miterlimit:2;">
    <g transform="matrix(1,0,0,1,-9198,-6075)">
        <g id="_27" serif:id="27" transform="matrix(1,0,0,1,9198,6075)">
            <rect x="0" y="0" width="1728" height="1728" style="fill:none;"/>
            <g transform="matrix(-2.103793,3.643877,-3.643877,-2.103793,2792.50056,-107.066102)">
                <g>
                    <path d="M449.97,156.19C455.59,155.18 460.75,156.82 465.75,159.25C471.47,162.08 477.06,165.19 482.59,168.38C487.43,171.16 491.82,174.57 496.58,177.45C501.29,180.39 507.58,181.12 513,181.61C517.62,181.96 522.44,182.56 527.07,182.07C528.63,181.92 530.04,180.55 531.36,179.77C532.18,180.81 533,181.86 533.82,182.91C529.92,187.93 524.81,191.23 519.4,194.4C511.78,198.71 502.83,202.89 494,203.48C487.75,204.03 483.98,200.16 478.03,199.35C474.07,198.7 470.02,200.33 466.16,199.76C463.38,199.1 462.02,196.91 460.4,194.79C460.6,202.25 460.84,209.63 461.98,217.02C462.07,219.32 463.07,222.77 461.25,224.53C459.9,223.73 458.64,222.79 457.4,221.84C464.77,236.21 465.69,251.95 470.79,268.11C474.18,269.24 477.98,270.16 481.04,272.04C484.05,273.97 485.79,277.49 487.42,280.56C489.2,284.09 491.18,287.56 492.68,291.21C494.39,295.45 494.44,299.58 494.8,304.06C507.88,309.71 521.9,313.26 534.94,318.99C536.9,319.98 539.8,321.28 540.72,323.4C541.68,327.63 539.86,331.9 537.14,335.1C532.98,340.02 526.67,343.37 520.78,345.76C509.03,350.46 496.04,352.71 483.45,353.49C481.55,358.87 480.32,364.92 475.95,368.93C471.29,373.16 464.92,375.81 459.17,378.22C454.67,380.16 449.8,380.5 445.21,382.02C438.97,386.66 433.61,392.83 426.86,396.93C422.97,399.21 418.66,400.39 415.06,403.07C412.42,405.02 410.4,407.2 407.22,408.35C400.81,410.66 393.79,411.54 387,411.7C379.74,411.78 371.47,410.75 365.23,406.74C360.89,404.01 359.17,399.99 355.46,396.53C350.37,391.66 346.16,386.06 343.53,379.48C341.16,373.22 340.33,366.57 339.48,360C339.28,356.99 337.06,354.96 335.5,352.49C331.16,346.39 329.68,338.87 328.18,331.68C317.75,327.8 309.15,321.81 299.24,316.77C291,312.82 282.96,306.93 277.65,299.44C274.83,292.88 279.16,283.5 285.43,280.38C298.43,273.39 313.52,269.12 327.78,265.52C330.94,264.67 334.16,264.15 337.41,263.77C340.3,258.2 345.13,255.46 350.07,252.03C351.94,250.86 352.31,249.07 353.11,247.17C355.25,241.4 358.1,234.93 362.61,230.61C364.72,228.51 367.48,227.53 369.79,225.77C372.3,222.92 374.11,219.39 376.23,216.24C384.6,202.92 394.14,190.41 405.33,179.33C411.83,172.29 420.25,169.04 428.57,164.57C435.29,161.34 442.57,157.43 449.97,156.19Z" style="fill:rgb(0,28,61);fill-rule:nonzero;"/>
                    <clipPath id="_clip1">
                        <path d="M449.97,156.19C455.59,155.18 460.75,156.82 465.75,159.25C471.47,162.08 477.06,165.19 482.59,168.38C487.43,171.16 491.82,174.57 496.58,177.45C501.29,180.39 507.58,181.12 513,181.61C517.62,181.96 522.44,182.56 527.07,182.07C528.63,181.92 530.04,180.55 531.36,179.77C532.18,180.81 533,181.86 533.82,182.91C529.92,187.93 524.81,191.23 519.4,194.4C511.78,198.71 502.83,202.89 494,203.48C487.75,204.03 483.98,200.16 478.03,199.35C474.07,198.7 470.02,200.33 466.16,199.76C463.38,199.1 462.02,196.91 460.4,194.79C460.6,202.25 460.84,209.63 461.98,217.02C462.07,219.32 463.07,222.77 461.25,224.53C459.9,223.73 458.64,222.79 457.4,221.84C464.77,236.21 465.69,251.95 470.79,268.11C474.18,269.24 477.98,270.16 481.04,272.04C484.05,273.97 485.79,277.49 487.42,280.56C489.2,284.09 491.18,287.56 492.68,291.21C494.39,295.45 494.44,299.58 494.8,304.06C507.88,309.71 521.9,313.26 534.94,318.99C536.9,319.98 539.8,321.28 540.72,323.4C541.68,327.63 539.86,331.9 537.14,335.1C532.98,340.02 526.67,343.37 520.78,345.76C509.03,350.46 496.04,352.71 483.45,353.49C481.55,358.87 480.32,364.92 475.95,368.93C471.29,373.16 464.92,375.81 459.17,378.22C454.67,380.16 449.8,380.5 445.21,382.02C438.97,386.66 433.61,392.83 426.86,396.93C422.97,399.21 418.66,400.39 415.06,403.07C412.42,405.02 410.4,407.2 407.22,408.35C400.81,410.66 393.79,411.54 387,411.7C379.74,411.78 371.47,410.75 365.23,406.74C360.89,404.01 359.17,399.99 355.46,396.53C350.37,391.66 346.16,386.06 343.53,379.48C341.16,373.22 340.33,366.57 339.48,360C339.28,356.99 337.06,354.96 335.5,352.49C331.16,346.39 329.68,338.87 328.18,331.68C317.75,327.8 309.15,321.81 299.24,316.77C291,312.82 282.96,306.93 277.65,299.44C274.83,292.88 279.16,283.5 285.43,280.38C298.43,273.39 313.52,269.12 327.78,265.52C330.94,264.67 334.16,264.15 337.41,263.77C340.3,258.2 345.13,255.46 350.07,252.03C351.94,250.86 352.31,249.07 353.11,247.17C355.25,241.4 358.1,234.93 362.61,230.61C364.72,228.51 367.48,227.53 369.79,225.77C372.3,222.92 374.11,219.39 376.23,216.24C384.6,202.92 394.14,190.41 405.33,179.33C411.83,172.29 420.25,169.04 428.57,164.57C435.29,161.34 442.57,157.43 449.97,156.19Z" clip-rule="nonzero"/>
                    </clipPath>
                    <g clip-path="url(#_clip1)">
                        <path d="M449.03,162.94C454.91,161.7 460.69,163.99 464.79,168.21C471,174.48 478.67,178.53 486.4,182.63C491.78,185.36 496.79,188.06 502.98,188.19C509.38,188.31 515.79,187.23 522.2,187.15C515.55,192.52 506.35,194.24 498.04,192.98C490.49,191.49 483.43,188.7 476.22,186.61C472.38,185.47 468.24,184.94 464.53,183.43C461.26,181.99 458.96,179.31 456.51,176.8C454.76,181.8 453.08,186.66 452.52,191.97C452.14,195.87 451.82,199.72 450.57,203.46C445.07,199.44 440.5,194.52 434.39,191.28C436.04,197.51 438.4,203.42 439.56,209.78C440.99,216.26 441.09,222.85 442.79,229.27C444.24,234.91 443.9,240.36 443.46,246.09C436.55,242.28 430.82,236.75 423.91,233.01C417.92,230.25 411.27,228.76 404.94,226.97C397.56,224.69 390.2,226.79 382.24,226.05C384.15,219.45 388.36,214.67 391.9,208.95C396.56,201.97 400.91,194.66 406.13,188.08C411.24,181.66 418.57,177.75 425.43,173.43C432.68,169.19 440.73,164.56 449.03,162.94Z" style="fill:white;fill-rule:nonzero;"/>
                        <path d="M385.82,230.84C384.37,233.47 382.91,236.09 381.45,238.72C375.09,239.16 368.91,240.43 362.71,241.85C363.88,240.39 364.99,238.66 366.45,237.46C372.24,233.47 378.83,231.43 385.82,230.84Z" style="fill:white;fill-rule:nonzero;"/>
                        <path d="M394.03,231.14C400.31,231.35 406.51,232.59 412.27,235.15C405.24,243.47 400.4,253.05 395.88,262.9C394.78,265.22 393.48,267.43 392.16,269.64C385.68,268.73 379.39,267.62 373.3,265.12C374.33,260.91 376.23,257.18 378.54,253.54C382.53,247.18 386.34,240.7 390.39,234.38C391.24,233.34 392.52,231.01 394.03,231.14Z" style="fill:white;fill-rule:nonzero;"/>
                        <path d="M421.1,239.86C432.28,246.47 442.9,253.62 451.85,263.14C457.91,269.54 462.14,277.92 465.43,286.02C464.52,288.56 462.81,289.81 460.12,289.98C454.56,285.3 451.2,277.03 446.29,271.71C441.6,266.5 436.56,261.27 430.95,257.06C425.23,252.97 419.3,249.22 413,246.08C413.83,243.69 414.42,240.9 415.87,238.81C417.63,237.67 419.51,239.07 421.1,239.86Z" style="fill:white;fill-rule:nonzero;"/>
                        <path d="M377.98,244.24C376.76,246.7 375.45,249.1 374.07,251.47C370.54,251.47 367,251.44 363.47,251.28C367.86,246.91 371.86,245.16 377.98,244.24Z" style="fill:white;fill-rule:nonzero;"/>
                        <path d="M410.96,251.98C415.2,252.37 419.41,254.83 422.98,257.03C429.8,261.5 436.49,267.03 441.18,273.76C439.85,275.58 438.47,277.33 436.97,279.01C428.22,270.79 417.33,264.6 406.53,259.5C407.93,257.01 409.09,254.15 410.96,251.98Z" style="fill:white;fill-rule:nonzero;"/>
                        <path d="M371.02,256.87C370.08,259.37 369.13,261.87 368.16,264.36C360.76,264.12 353.44,265.15 346.06,265.14C347.58,263.28 349.25,261.61 351.19,260.18C356.03,255.8 364.88,257.54 371.02,256.87Z" style="fill:white;fill-rule:nonzero;"/>
                        <path d="M401.84,265.2C408.05,267.05 413.95,271.13 419.38,274.62C426.48,279.32 433.27,284.69 439.36,290.64C442.56,294.01 446.43,298.3 447.32,302.98C447.66,304.87 447.29,305.96 446.04,307.38C442.5,307.85 441.15,303.84 439.37,301.57C434.11,294.17 424.77,288.97 417.76,283.24C411.79,278.18 405.03,275.54 398.07,272.21C399.14,269.76 400.29,267.38 401.84,265.2Z" style="fill:white;fill-rule:nonzero;"/>
                        <path d="M368.27,269.83C373.94,271.69 379.33,271.68 384.45,275.08C372.36,276.25 360.14,276.1 348.01,276.79C344.37,277.03 340.92,277.97 337.42,278.94C349.77,280.36 361.79,283.83 373.14,288.86C388.79,296.08 405.14,301.86 421.23,308C420.88,309.7 420.53,311.4 420.18,313.1C394.96,304.03 368.89,293.07 342.79,287.66C333.8,285.82 324.19,283.7 315,283.78C306.38,283.79 298.43,286.45 289.8,286.94C296.42,282.81 303.81,279.17 311.5,277.68C319.54,275.87 327.79,273.81 336.01,273.17C346.77,272.14 357.97,270.08 368.78,270.64L368.27,269.83Z" style="fill:white;fill-rule:nonzero;"/>
                        <path d="M467.88,276.6C472.35,280.42 477.44,284.42 480.55,289.45C483.26,294.87 484.44,301.2 485.92,307.05C483.87,308.13 481.16,308.85 480.21,311.21C478.85,314.86 478.57,319.15 478.96,323C479.34,326.4 481.96,328.02 484.21,330.22C483.53,333.67 483.03,337.39 481.7,340.65C479.81,340.6 478,340.19 476.1,340.2C473.31,342.27 471.24,345.86 469.91,349.02C468.55,352.73 470.63,355.59 472.14,358.79C468.46,362.44 464.88,365.81 460.21,368.21C457.62,369.53 454.52,369.87 451.67,370.38C454.73,366.31 458.49,362.39 460.82,357.85C462.31,354.66 460.6,351.86 458.05,349.96C455.2,347.96 451.59,345.97 448.06,345.84C444.89,348.45 442.73,352.28 439.99,355.34C435.46,341.88 432.91,328.21 435.39,314.04C431.87,326.55 429.78,339 431.2,352.03C431.61,356.3 433.65,359.93 434.47,364.16C432.78,363.29 431.38,363.39 430.42,361.54C426.89,355.54 424.41,349.01 423.87,342.02C422.75,328.51 426.21,315.29 430.71,302.67C433.16,305.13 435.81,307.26 437.95,310.02C439.94,312.37 441.93,315.4 445.03,316.27C451.16,315.09 455.25,307.98 454.1,302C452.87,294.83 447.73,289.37 442.79,284.42C443.69,282.72 444.63,281.06 445.62,279.41C448.45,283.27 451.29,287.1 453.79,291.18C454.68,292.54 455.6,294.15 456.88,295.17C461.46,295.74 468.4,295.14 471.29,290.96C471,287.1 469.63,283.24 468.65,279.5C468.39,278.54 468.14,277.57 467.88,276.6Z" style="fill:white;fill-rule:nonzero;"/>
                        <path d="M344.49,299.66C343.02,309.01 340.99,319.03 342.01,328.99C343.22,337.28 348.18,343.91 351.97,351.09C353.45,353.71 355.59,356.06 357.4,358.48C349.42,356.09 342.99,350.13 339.33,342.75C334.86,332.05 334.97,321.38 335.14,310C335.23,306.91 335.59,303.04 337.43,300.45C339.18,298.24 342.16,299.41 344.49,299.66Z" style="fill:white;fill-rule:nonzero;"/>
                        <path d="M486.33,313.47C486.92,316.67 485.82,319.39 484.45,322.19C483.85,319.93 482.53,316.72 483.57,314.46C484.29,313.4 485.21,313.57 486.33,313.47Z" style="fill:white;fill-rule:nonzero;"/>
                        <path d="M493.72,313.02C497.53,314.89 500.99,317.39 504.85,319.18C509.52,321.51 514.39,322.6 519.4,323.9C510.62,325.19 501.54,324.83 492.71,324.37C493.07,320.59 493.27,316.79 493.72,313.02Z" style="fill:white;fill-rule:nonzero;"/>
                        <path d="M391.85,326.95C400.48,329.46 408.47,333.2 417.51,334.34C417.68,337.19 417.77,340.05 417.85,342.91C408.27,340.42 398.54,338.53 388.9,336.29C389.87,333.17 390.86,330.06 391.85,326.95Z" style="fill:white;fill-rule:nonzero;"/>
                        <path d="M477.32,345.26C478.09,346.46 478.84,347.65 479.33,348.98C478.52,350.68 477.17,351.76 475.86,353.04C475.26,351.62 474.66,350.2 474.11,348.76C475.08,347.51 476.19,346.37 477.32,345.26Z" style="fill:white;fill-rule:nonzero;"/>
                        <path d="M384.43,347.66C388.78,347.83 392.8,348.89 396.99,349.88C404.51,351.7 412.01,353.4 419.75,353.96C420.61,360.1 425.05,364.57 428.54,369.44C421.95,374.05 415.4,379.21 408.39,383.08C406.21,382.37 404.41,381.32 402.04,381.73C393.16,382.69 385.14,385.05 376.21,382.6C370.88,381.07 365.35,379.04 360.36,376.63C355.52,374.22 355.11,368.87 353.85,364.21C361.19,366.63 368.99,364.51 374.95,359.88C378.76,356.6 381.72,351.85 384.43,347.66Z" style="fill:white;fill-rule:nonzero;"/>
                        <path d="M449.99,351.31C451.42,352.34 453.3,352.96 453.28,355.04C453.24,358.59 449.85,362.1 447.79,364.79C443.3,369.96 440.33,375.74 435.44,380.42C430.17,385.58 424.33,388.97 418.35,393.34C414.82,395.69 410.24,398.63 405.87,398.49C402.83,396.63 403.76,393.83 403.5,390.8C412.53,387.33 420.77,382.27 428.37,376.32C433.4,372.29 438.03,368.09 441.78,362.8C444.54,359.02 446.81,354.66 449.99,351.31Z" style="fill:white;fill-rule:nonzero;"/>
                        <path d="M348.23,369.36C351.16,374.43 353.78,379.26 358.64,382.8C358.32,384.4 358,385.99 357.67,387.59C353.21,383.03 350.69,378.35 349.02,372.21C348.75,371.26 348.49,370.31 348.23,369.36Z" style="fill:white;fill-rule:nonzero;"/>
                        <path d="M366.87,385.07C370.56,386.53 373.94,388.32 377.97,388.75C384.75,390.02 391,388.51 397.78,388.54C397.19,389.85 396.6,391.16 396,392.47C397.07,395.87 397.92,399.28 398.46,402.81C392.47,404.58 386.16,405.01 379.96,404.29C375.38,403.68 370.55,402.15 367.23,398.78C364.17,395.77 362.92,391.16 363.81,387C364.05,385.51 365.4,384.38 366.87,385.07Z" style="fill:white;fill-rule:nonzero;"/>
                        <g transform="matrix(1,0,0,1,-3,-2)">
                            <path d="M463.522,307L465.508,306.988L468.644,316.049L467.609,318.938L463.522,307Z" style="fill:rgb(0,28,61);"/>
                            <path d="M463.514,309.44L465.82,316.027L465.833,331.459L463.562,338.047L463.514,309.44Z" style="fill:rgb(0,28,61);"/>
                            <path d="M463.586,340.026L465.87,340.006L469.239,329.672L468.217,326.531L463.586,340.026Z" style="fill:rgb(0,28,61);"/>
                            <path d="M467.837,327.578L468.228,326.549L469.333,326.531L471.102,331.483L471.132,337.641L468.931,330.681L467.837,327.578Z" style="fill:rgb(0,28,61);"/>
                            <path d="M471.77,340.024L474.073,340.016L473.99,306.959L471.753,306.995L471.77,340.024Z" style="fill:rgb(0,28,61);"/>
                            <path d="M470.849,309.672L470.84,316.141L469.293,320.517L468.19,320.516L467.607,318.939L470.849,309.672Z" style="fill:rgb(0,28,61);"/>
                        </g>
                    </g>
                </g>
            </g>
            <g id="half" transform="matrix(1.984527,0,0,1.984527,-402.08305,111.852747)">
                <path d="M471,24.91C475.41,24.44 475.32,28.76 478.26,30.67C484.32,32.3 483.6,41.11 485.76,46.19C484.85,53.19 480.16,60.58 480.09,67.93C482,76.27 483.9,84.71 485.99,93C488.83,108.18 499,119.9 503.2,134.86C508.77,145.61 507.02,160.69 520.53,164.85C518.38,167.81 507.61,163.15 504.19,167.86C508.91,173.89 498.5,173.23 499.89,180C502.93,193.02 513.58,195.06 522.79,202.15C525.26,211.93 534.58,215.58 543.66,213.61C548.45,213.01 550.38,205.06 556.41,209.35C553.89,211.3 562.43,220.1 565.62,218.57C569.64,217.55 566.52,222.27 569.96,221.95C573.91,221.25 570.33,216.34 570.13,214.01C574.98,213.66 573.57,217.04 574.56,220.38C575.16,225.41 577.14,229.95 578.19,234.88C568.64,234.15 577.28,230.33 573.26,224.97C569.71,230.92 564.19,223.65 558.58,223.47C551.86,221.94 552.29,226.71 553.06,231.54C549.73,229.51 545.52,228.85 542.62,231.98C516.45,221.01 508.47,199.16 488.76,181.24C478.3,174.67 475.29,159.19 470.81,148.23C472.99,143.67 469.44,140.28 473.77,138.05C475.86,142.75 477.23,146.06 481.78,148.9C476.63,154.29 481.39,155 485.35,158.15C484.28,162.67 487.76,168.32 492.74,165.77C495.33,167.12 497.13,168.92 500.27,168.87C502.53,163.76 503.42,154.47 496.81,152.33C490.69,151.52 497.25,145.3 494.23,140.92C495.56,134.16 491.01,128.98 492.44,122.36C494.27,118.04 487.01,116.57 485.3,112.73C482.82,104.99 480.94,95.97 478.19,87.86C475.91,82.07 475.71,78.21 468.3,79.18C470.92,76.67 470.49,73.69 471.79,70.55C466,71.55 471.09,67.52 464.22,70.4C472.25,70.74 460.64,78.68 458.11,78.26C457.52,70.53 452.15,66.27 449.48,59.63C448.27,52.28 445.22,41.5 452.25,36.28C457.25,29.5 463.81,27.74 471,24.91Z" style="fill:rgb(202,170,155);fill-rule:nonzero;"/>
                <path d="M476.43,38.25C477.19,46.71 471.99,43.78 467.17,49.15C465.2,51.42 451,54.52 459.17,49.57C458.16,49.62 457.16,49.66 456.15,49.69C458.42,44.85 466.46,43.16 469.53,40.03C467.28,35.31 475.26,34.15 476.43,38.25Z" style="fill:rgb(144,90,76);fill-rule:nonzero;"/>
                <path d="M471.79,70.55C470.49,73.69 470.92,76.67 468.3,79.18C475.71,78.21 475.91,82.07 478.19,87.86C480.94,95.97 482.82,104.99 485.3,112.73C487.01,116.57 494.27,118.04 492.44,122.36C491.01,128.98 495.56,134.16 494.23,140.92C497.25,145.3 490.69,151.52 496.81,152.33C503.42,154.47 502.53,163.76 500.27,168.87C497.13,168.92 495.33,167.12 492.74,165.77C487.76,168.32 484.28,162.67 485.35,158.15C481.39,155 476.63,154.29 481.78,148.9C477.23,146.06 475.86,142.75 473.77,138.05C469.44,140.28 472.99,143.67 470.81,148.23C463.36,125.92 461.25,101.5 458.11,78.26C460.64,78.68 472.25,70.74 464.22,70.4C471.09,67.52 466,71.55 471.79,70.55Z" style="fill:rgb(216,194,183);fill-rule:nonzero;"/>
                <path d="M633.35,107.57C643.88,106.3 647.12,113.62 656.38,114.7C664.1,121.48 669.75,126.96 667.06,138.4C665.05,136.46 666.87,126.08 659.49,125.88C661.4,133.99 656.98,125.16 653.39,124.96C653.48,127.69 654.71,130.3 651.14,131.2C646.26,131.41 652.16,134.41 653.12,135.85C654.25,142.64 657.39,149.27 659.26,156.65C663.04,153.57 666.44,152.31 666.78,146.8C667.14,154.13 669.34,160.46 666.87,167.79C659.1,173.82 662.35,182.51 662.59,191.19C661.9,202.42 673.86,203.92 681.93,206.8C678.27,209.04 679.59,221.53 678.81,225.95C677.58,236.84 672.49,251.28 662.25,256.76C661.24,255.97 660.19,255.21 659.26,254.33C664.04,250.87 668.09,246.77 671.17,241.72C671.6,236.01 673.05,230.45 673.51,224.81C672.14,222.73 664.41,219.68 670.11,218.23C676.42,220.44 673.56,211.79 674.93,208.08C671.21,209.63 670.46,213.29 667.66,215.56C663.58,215.94 659.92,217.14 655.99,218.03C648.58,220.81 655.32,205.1 648.51,207.61C642.5,211.23 639.4,201.24 632.02,205.02C628.04,208.06 636.31,207.96 636.01,210.87C631.35,211.08 626.84,205.22 623.51,210.29C623.42,213.62 626.67,217.58 625.62,220.63C624.86,224.92 619.64,214.57 620.26,220.21C620.93,224.75 613.92,215.93 614.98,220.96C613.3,226.96 621.5,239.7 613.51,242.12C609.01,230.49 611.4,218.49 607.87,206.93C610.39,205.57 613.21,204.9 615.72,203.65C616.72,198.31 614.66,192.32 614.02,186.96C614.84,187.93 615.68,188.9 616.57,189.82C618.19,191.69 619.94,193.43 621.75,195.12C624.62,203.57 637.78,200.55 644.9,201.65C653.21,198.71 644.52,196.12 652.4,192.54C654.99,190.08 652.44,197.38 654.49,194.38C660.49,182.72 660.24,172.4 658.76,159.93C656.08,164.83 656.45,173.51 654.21,177.27C649.22,178.89 648.36,179.5 650.67,184.51C640.7,186.96 631.88,184.03 622.22,186.64C618.45,188.05 612.7,178.53 612.81,183.02C608.34,175.05 602.1,164.03 606.24,154.91C606.72,156.64 607.14,158.38 607.79,160.07C606.93,153.54 611.16,144.13 606.53,139.05C604.94,145.81 604.26,137.23 603.71,135.2C602.6,136.28 602.63,138.75 602.18,140.24C601.56,134.81 603.46,129.85 603.6,124.41C606.24,122.34 611.26,117.69 608.63,114.07C617.06,106.8 622.76,107.8 633.35,107.57Z" style="fill:rgb(207,180,165);fill-rule:nonzero;"/>
                <path d="M628.4,118.56C631.84,118.8 634.86,123.33 636.59,118.38C642.43,119.5 632.93,125.13 639.98,123.85C644.09,121.82 650.2,126.14 646.68,129.71C640,126.55 628.98,126.85 621.2,128.37C615.83,128.71 617.7,124.44 612.17,124.63C615.57,116.85 616.35,123.91 619.16,127.24C622.25,125.46 618.15,119.12 622.43,122.54C627.25,126.61 623.71,116.35 628.4,118.56Z" style="fill:rgb(132,111,92);fill-rule:nonzero;"/>
                <path d="M653.39,124.96C656.98,125.16 661.4,133.99 659.49,125.88C666.87,126.08 665.05,136.46 667.06,138.4C666.99,141.2 666.93,144 666.78,146.8C666.44,152.31 663.04,153.57 659.26,156.65C657.39,149.27 654.25,142.64 653.12,135.85C652.16,134.41 646.26,131.41 651.14,131.2C654.71,130.3 653.48,127.69 653.39,124.96Z" style="fill:rgb(109,93,82);fill-rule:nonzero;"/>
                <path d="M603.71,135.2C604.26,137.23 604.94,145.81 606.53,139.05C611.16,144.13 606.93,153.54 607.79,160.07C607.14,158.38 606.72,156.64 606.24,154.91C604.52,150 602.3,145.59 602.18,140.24C602.63,138.75 602.6,136.28 603.71,135.2Z" style="fill:rgb(128,114,104);fill-rule:nonzero;"/>
                <path d="M641.24,144.72C644.57,143.9 655.52,150.01 645.98,149.32C642.85,147.11 629.34,151.12 634.02,144.12C634.05,139.48 649.35,139.22 641.24,144.72Z" style="fill:rgb(147,110,96);fill-rule:nonzero;"/>
                <path d="M624.37,150.28C620.08,150.81 616.26,151.63 612.12,152.91C613.63,149.66 616.07,147.93 618.95,146.01C617.33,145.48 609.69,148.43 612.76,144.75C616.3,140.24 627.45,143.84 624.37,150.28Z" style="fill:rgb(141,106,91);fill-rule:nonzero;"/>
                <path d="M658.76,159.93C660.24,172.4 660.49,182.72 654.49,194.38C652.44,197.38 654.99,190.08 652.4,192.54C644.52,196.12 653.21,198.71 644.9,201.65C637.78,200.55 624.62,203.57 621.75,195.12C631.58,198.74 640.64,204.02 647.97,192.96C654.23,187.54 646.58,188.72 642.65,187.76C637.61,190.03 632.66,186.95 627.93,189C623.64,192.11 621.09,189.26 616.57,189.82C615.68,188.9 614.84,187.93 614.02,186.96C613.62,185.64 613.21,184.34 612.81,183.02C612.7,178.53 618.45,188.05 622.22,186.64C631.88,184.03 640.7,186.96 650.67,184.51C648.36,179.5 649.22,178.89 654.21,177.27C656.45,173.51 656.08,164.83 658.76,159.93Z" style="fill:rgb(165,132,116);fill-rule:nonzero;"/>
                <path d="M520.53,164.85C531.36,167.86 540.27,178.19 549.6,184.42C554.32,188.94 555.69,193.24 563.18,193.8C578.56,195.44 591.72,198.89 602.94,210.16C605.22,216.48 600.56,222.01 599.89,228.94C595.46,247.46 594.99,266.66 587.26,283.31C584.37,290.29 579.68,296.78 577.72,304.08C575.53,284.26 567.54,266.93 563.28,247.65C561.28,243.2 555.52,240.27 551.86,237.21C555.25,237.47 558.26,239.7 559.3,235.17C563.44,240.32 563.02,239.74 569.55,239.1C569.68,243.48 568.58,246.2 574.16,243.6C575.19,247.34 581.66,251.21 584.73,254.86C583.76,249.43 585.78,253.66 588.05,254.88C588.11,247.69 581.65,240.98 578.19,234.88C577.14,229.95 575.16,225.41 574.56,220.38C573.57,217.04 574.98,213.66 570.13,214.01C570.33,216.34 573.91,221.25 569.96,221.95C566.52,222.27 569.64,217.55 565.62,218.57C562.43,220.1 553.89,211.3 556.41,209.35C550.38,205.06 548.45,213.01 543.66,213.61C534.58,215.58 525.26,211.93 522.79,202.15C513.58,195.06 502.93,193.02 499.89,180C498.5,173.23 508.91,173.89 504.19,167.86C507.61,163.15 518.38,167.81 520.53,164.85Z" style="fill:rgb(215,193,177);fill-rule:nonzero;"/>
                <path d="M639.98,171.97C640.02,173.6 634.43,172.7 633.05,173.24C630.75,173.12 621.22,176.89 623.34,171.37C626.33,165.54 636.47,167.51 639.98,171.97Z" style="fill:rgb(121,79,72);fill-rule:nonzero;"/>
                <path d="M647.97,192.96C640.64,204.02 631.58,198.74 621.75,195.12C619.94,193.43 618.19,191.69 616.57,189.82C621.09,189.26 623.64,192.11 627.93,189C632.66,186.95 637.61,190.03 642.65,187.76C646.58,188.72 654.23,187.54 647.97,192.96Z" style="fill:rgb(100,70,53);fill-rule:nonzero;"/>
                <path d="M648.51,207.61C655.32,205.1 648.58,220.81 655.99,218.03C659.92,217.14 663.58,215.94 667.66,215.56C670.46,213.29 671.21,209.63 674.93,208.08C673.56,211.79 676.42,220.44 670.11,218.23C664.41,219.68 672.14,222.73 673.51,224.81C673.05,230.45 671.6,236.01 671.17,241.72C668.09,246.77 664.04,250.87 659.26,254.33C660.19,255.21 661.24,255.97 662.25,256.76C645.77,267.78 620.1,261.76 613.51,242.12C621.5,239.7 613.3,226.96 614.98,220.96C613.92,215.93 620.93,224.75 620.26,220.21C619.64,214.57 624.86,224.92 625.62,220.63C626.67,217.58 623.42,213.62 623.51,210.29C626.84,205.22 631.35,211.08 636.01,210.87C636.31,207.96 628.04,208.06 632.02,205.02C639.4,201.24 642.5,211.23 648.51,207.61Z" style="fill:rgb(229,206,195);fill-rule:nonzero;"/>
                <path d="M607.87,206.93C611.4,218.49 609.01,230.49 613.51,242.12C620.1,261.76 645.77,267.78 662.25,256.76C672.49,251.28 677.58,236.84 678.81,225.95C679.59,221.53 678.27,209.04 681.93,206.8C684,207.61 686.08,208.38 688.22,209.02C687.04,228.73 689.67,247.88 694.04,267.05C693.55,266.18 693.06,265.29 692.5,264.45C686.07,272.28 682.51,279.97 673.78,285.68C667.11,286.39 663.82,290.82 657.19,287.66C649.36,286.74 638.31,281.1 631.06,284.09C632.64,290.24 641.39,284.74 642.03,291.83C627.85,286.62 643.42,296.13 648.12,295.75C648.09,302.84 630.68,298.92 625.97,300.02C619.28,300.33 612.43,308.76 606.11,302.93C602.4,301.41 597.38,303.81 593,302.34C592.81,311.06 609.72,305.58 613.39,312.6C615.37,316.62 618.56,317.68 622.13,319.84C619.66,325.25 607.6,325.97 602.77,328.54C601.16,336.42 593.55,340.33 593.03,348.02C595.57,345.67 596.92,342.81 599.75,340.79C598.93,342.86 597.91,344.83 597,346.85C599.44,345.39 601.72,343.69 604.13,342.2C601.21,348.12 595.19,351.86 592.92,357.87C600.35,350.26 601.91,354.7 609.96,351.03C605.9,357.56 594.83,360.51 591.87,367.86C596.38,366.34 598.24,362.25 603.35,363.65C602.69,359.48 606.64,362.16 609.16,361.3C613.6,360.48 621.23,358.28 624.81,360.87C620.65,361.19 617.2,360.28 613.79,363.28C614.15,366.64 613.93,372.27 608.95,370.18C607.07,370.64 599.57,364.14 602.29,369.75C599.84,370.41 598.28,370.5 596.98,372.94C601.76,373.85 603.68,369.31 608.01,372.53C603.16,373.36 598.56,374.88 593.92,376.44C587.78,378 594.67,377.67 596.6,379.4C599.66,380.73 593.68,381.44 594.44,384.59C597.28,386.1 600.25,387.32 603.02,388.96C598.37,389.23 594.52,387.33 590.11,386.42C587.68,387.77 589.53,390.45 588.69,393C592.53,393.92 595.64,391.66 598.02,395.84C596.89,395.83 584.88,395.13 590.96,397.5C597.72,399.07 587.2,398.81 586.02,398.19C589.6,400.96 594.29,401.08 594.88,406.18C601.52,409.48 607.77,407.62 613.04,413.93C602.52,413.79 595.58,407.17 586.05,405.04C587.44,409.81 597.4,409.83 600.6,414.97C603,414.83 611.38,418.62 605.95,420.4C601.45,418.89 596.73,416.1 591.96,416.04C602.54,421.33 617,425.81 624.62,435.27C624.34,439.35 621.04,437.01 618.61,436.47C612.56,434.72 607.18,430.52 601.07,430.02C602.43,433.72 611.64,434.19 614.94,437.47C614.03,437.77 613.13,438.07 612.22,438.37C616.83,443.1 623.52,441.71 628.09,445.79C620.38,444.37 613.15,441.87 604.91,442.12C612.49,445.68 623.32,444.88 630.09,449.75C624.8,449.51 620.15,446.75 614.93,447.08C619.77,451.34 630.3,449.38 635.06,454.83C628.66,453.52 622.68,450.95 615.94,451.08C619.5,453.38 625.94,452.24 622.66,458.21C623.01,459.71 629.26,460.3 631.05,461.85C628.34,461.69 625.65,461.31 622.93,461.18C624.64,462.75 628.98,462.24 626.29,465.13C628.08,467.22 631.05,466.88 628.52,469.92C631.07,470.88 633.66,471.59 636.07,472.9C632.87,473.99 625.94,469.19 629.88,475.12L630.17,475.83C615.41,478.24 600.57,480.03 585.8,482.33C583.25,470.29 582.4,458.15 578.65,446.36C576.97,423.92 580.73,406.73 584.28,384.13C590.97,374.11 588.53,359.04 590.99,347C589.97,332.52 581.78,318.09 577.72,304.08C579.68,296.78 584.37,290.29 587.26,283.31C594.99,266.66 595.46,247.46 599.89,228.94C600.56,222.01 605.22,216.48 602.94,210.16C604.54,209 606.13,207.86 607.87,206.93Z" style="fill:rgb(45,92,80);fill-rule:nonzero;"/>
                <path d="M688.22,209.02C696.38,214.03 704.5,212.81 712.29,216.58C710.92,217.21 706.14,215.88 708.16,218.49C703.9,222.44 701.37,232.58 700.45,238.88C708.37,238.15 710.24,239.71 711.54,247.73C702.75,253.18 703.19,261.11 699.19,269.21C696.04,273.31 697.51,268.21 696.71,266C696.11,267.41 695.55,268.84 694.99,270.27C694.68,269.19 694.36,268.12 694.04,267.05C689.67,247.88 687.04,228.73 688.22,209.02Z" style="fill:rgb(212,195,181);fill-rule:nonzero;"/>
                <path d="M712.29,216.58C722.19,223.62 728.89,234.18 734.03,244.99C737.43,257.9 747.25,265.41 753.31,276.9C752.3,279.27 751.12,281.59 750.21,284C759.63,283 760.93,294 763.44,300.61C766.18,305.54 762.47,303.6 763.04,309.53C760.18,305.95 760.05,300.3 756.16,299.7C757.12,290.85 751.99,294.9 753.82,286.94C751.96,289.84 751.12,294.87 750.44,288.22C744.4,292.51 751.81,283.33 746.4,285.38C740.25,286.47 747.11,282.76 748.83,282.48C740.8,280.03 738.93,276.42 735,269.57C728.67,274.36 727.35,260.58 723.36,262.29C719.02,267.08 728.68,265.64 726.74,270.65C725.73,273.84 717.47,270.53 723.63,269.67C721.88,266.81 714.93,262.78 719.67,259.57C722.72,256.16 716,256.54 714.19,256.82C715.02,254.2 716.76,254 713.11,253.25C710.73,256.12 710.91,260.73 708.1,263.09C708.09,260.02 708.67,257.06 708.92,254.01C703.5,257.81 700.21,267.4 705.11,272.96C708.49,276.99 710.78,279.77 711.8,285.16C712.61,291.84 710.03,297.09 708.04,303.25C700.26,293.68 694.86,282.87 694.99,270.27C695.55,268.84 696.11,267.41 696.71,266C697.51,268.21 696.04,273.31 699.19,269.21C703.19,261.11 702.75,253.18 711.54,247.73C710.24,239.71 708.37,238.15 700.45,238.88C701.37,232.58 703.9,222.44 708.16,218.49C706.14,215.88 710.92,217.21 712.29,216.58Z" style="fill:rgb(164,154,147);fill-rule:nonzero;"/>
                <path d="M558.58,223.47C564.19,223.65 569.71,230.92 573.26,224.97C577.28,230.33 568.64,234.15 578.19,234.88C581.65,240.98 588.11,247.69 588.05,254.88C585.78,253.66 583.76,249.43 584.73,254.86C581.66,251.21 575.19,247.34 574.16,243.6C568.58,246.2 569.68,243.48 569.55,239.1C563.02,239.74 563.44,240.32 559.3,235.17C558.26,239.7 555.25,237.47 551.86,237.21C548.82,235.4 545.71,233.71 542.62,231.98C545.52,228.85 549.73,229.51 553.06,231.54C552.29,226.71 551.86,221.94 558.58,223.47Z" style="fill:rgb(172,141,116);fill-rule:nonzero;"/>
                <path d="M713.11,253.25C716.76,254 715.02,254.2 714.19,256.82C716,256.54 722.72,256.16 719.67,259.57C714.93,262.78 721.88,266.81 723.63,269.67C717.47,270.53 725.73,273.84 726.74,270.65C728.68,265.64 719.02,267.08 723.36,262.29C727.35,260.58 728.67,274.36 735,269.57C738.93,276.42 740.8,280.03 748.83,282.48C747.11,282.76 740.25,286.47 746.4,285.38C751.81,283.33 744.4,292.51 750.44,288.22C751.12,294.87 751.96,289.84 753.82,286.94C751.99,294.9 757.12,290.85 756.16,299.7C760.05,300.3 760.18,305.95 763.04,309.53C762.26,313.34 759.89,315.54 759.87,319.84C753.6,320.97 754.21,325.36 750.15,328.04C750.89,323.68 753.67,321.24 747.88,325.05C745.92,320.53 743.72,316.22 741.13,312.03C737.78,300.84 729.02,296.39 723.52,287.36C720.44,287.84 726.18,294.97 725.96,297.17C720.33,293.74 716.68,286.76 712.23,281.99C712.07,283.04 711.92,284.1 711.8,285.16C710.78,279.77 708.49,276.99 705.11,272.96C700.21,267.4 703.5,257.81 708.92,254.01C708.67,257.06 708.09,260.02 708.1,263.09C710.91,260.73 710.73,256.12 713.11,253.25Z" style="fill:rgb(91,90,91);fill-rule:nonzero;"/>
                <path d="M611.81,269.79C608.58,270.5 614.75,273.6 609.62,272.4C603.89,269.88 603.35,281.31 609.82,278.76C616.11,278.14 607.69,282.82 605.29,280.76C601.45,277.4 603.15,271.74 607.82,270.25C603.07,270.97 602.06,264.78 607.05,265.27C607.68,261.67 619.01,267.24 611.81,269.79Z" style="fill:rgb(141,174,151);fill-rule:nonzero;"/>
                <path d="M692.5,264.45C693.06,265.29 693.55,266.18 694.04,267.05C694.36,268.12 694.68,269.19 694.99,270.27C694.86,282.87 700.26,293.68 708.04,303.25C706.46,320.17 697.44,335.7 695.96,352.98C695.78,360.14 696.78,367.13 696.55,374.31C691.35,368.1 683.45,366.97 677.91,362.02C678.63,357.44 687.51,366.89 689.61,364.04C689.46,359.23 692.88,362.97 694.73,364.16C693.92,359.16 691.04,355.79 688.15,351.87C690.84,353.14 692.7,355.18 695.05,356.91C693.63,351.78 688.79,349.69 686.89,345.08C690.2,346.43 691.88,349.93 694.9,351.99C694.64,348.43 690.8,344.24 694.35,341.53C692.67,329.87 701.81,322.47 699.89,313.16C696.18,314.92 693.97,317.42 691.8,320.82C688.49,324.37 681.58,324.53 678.57,328.56C674.36,336.4 663.49,328.33 657.27,327.24C657.83,321.46 653.53,315.94 659.23,312.23C667.12,307.17 671.4,307.5 678.07,313.94C680.04,315.09 681.66,320.22 683.74,316.68C684.3,309.88 678.81,302.25 676.27,295.99C672.79,301.85 665.88,294.73 659.89,295.66C657.4,296.38 648.37,289.99 652.16,295.79C653.99,298.18 649.02,295.53 648.12,295.75C643.42,296.13 627.85,286.62 642.03,291.83C641.39,284.74 632.64,290.24 631.06,284.09C638.31,281.1 649.36,286.74 657.19,287.66C663.82,290.82 667.11,286.39 673.78,285.68C682.51,279.97 686.07,272.28 692.5,264.45Z" style="fill:rgb(38,78,66);fill-rule:nonzero;"/>
                <path d="M753.31,276.9C764.46,295.38 779.99,309.01 789.04,328.98C795.6,343.51 798.08,358.82 806.28,372.67C807.05,389.56 818.8,405.41 814.15,422.09C813.33,416.79 814.25,411.61 813.91,406.32C810.99,407.87 810.07,405.83 807.33,405.11C805.57,410.3 806.31,415.41 805.71,420.71C796.51,425.45 804.36,407.21 801.43,406.61C798.28,411.1 802.23,418.7 797.7,421.67C796.1,422.43 789.81,430.99 789.68,425.94C793.2,419.72 792.94,410.93 789.09,404.93C788.06,401.9 779.72,402.36 785.99,399.95C780.98,399.51 779.56,402.52 778.9,406.89C783.6,400.92 782.98,402.97 781.18,408.8C785.34,413.02 784.5,413.48 779.13,413.82C769.9,408.11 773.85,403.5 774.51,394.43C777.94,389.09 784.63,383.74 785.4,377.26C785.72,373.25 788.1,367.78 787.02,364.02C782.7,360.57 781.48,357.09 779.39,352.23C785.07,354.33 781.03,347.79 785.36,346.67C793.15,347.71 790.55,337.23 788.06,333.87C785.28,339.43 781.05,336.19 778.17,341.22C777.12,345.05 777.59,349.15 776.67,353.06C774.06,349.84 775.81,347.2 775.38,343.66C772.93,341.61 773.2,342.75 774.61,339.74C774.55,331.62 767.31,327.41 759.96,328.91C756.8,329.4 758.07,338.95 754.69,336.41C753.74,329.22 755.62,323.62 764.02,324.53C762.32,323.03 758.29,322.77 759.87,319.84C759.89,315.54 762.26,313.34 763.04,309.53C762.47,303.6 766.18,305.54 763.44,300.61C760.93,294 759.63,283 750.21,284C751.12,281.59 752.3,279.27 753.31,276.9Z" style="fill:rgb(201,173,165);fill-rule:nonzero;"/>
                <path d="M723.52,287.36C729.02,296.39 737.78,300.84 741.13,312.03C735.63,307.63 730.75,302.31 725.96,297.17C726.18,294.97 720.44,287.84 723.52,287.36Z" style="fill:rgb(144,144,144);fill-rule:nonzero;"/>
                <path d="M659.89,295.66C665.88,294.73 672.79,301.85 676.27,295.99C678.81,302.25 684.3,309.88 683.74,316.68C681.66,320.22 680.04,315.09 678.07,313.94C671.4,307.5 667.12,307.17 659.23,312.23C653.53,315.94 657.83,321.46 657.27,327.24C652.29,329.17 648.47,324.82 643.13,327.23C645.19,330.08 648.65,332.26 648.95,335.95C644.92,336.5 641.84,332.57 638.71,330.57C635.78,331.29 633.13,332.7 630.07,333.04C630.88,331.03 632.31,329.58 633.72,327.98C627.81,326.92 626.17,323.5 622.13,319.84C618.56,317.68 615.37,316.62 613.39,312.6C609.72,305.58 592.81,311.06 593,302.34C597.38,303.81 602.4,301.41 606.11,302.93C612.43,308.76 619.28,300.33 625.97,300.02C630.68,298.92 648.09,302.84 648.12,295.75C649.02,295.53 653.99,298.18 652.16,295.79C648.37,289.99 657.4,296.38 659.89,295.66Z" style="fill:rgb(199,200,152);fill-rule:nonzero;"/>
                <path d="M699.89,313.16C701.81,322.47 692.67,329.87 694.35,341.53C690.8,344.24 694.64,348.43 694.9,351.99C691.88,349.93 690.2,346.43 686.89,345.08C688.79,349.69 693.63,351.78 695.05,356.91C692.7,355.18 690.84,353.14 688.15,351.87C691.04,355.79 693.92,359.16 694.73,364.16C692.88,362.97 689.46,359.23 689.61,364.04C687.51,366.89 678.63,357.44 677.91,362.02C683.45,366.97 691.35,368.1 696.55,374.31C696.66,375.25 696.77,376.19 696.87,377.13C692.63,379.41 696.12,374.58 692.69,373.33C690.38,372.04 684,370.08 687.36,374.85C680.29,379.75 673.71,375.21 666.89,379.8C671.08,380.35 674.94,379.06 679.1,379.14C669.12,382.33 661.08,388.12 650.35,388.41C646.69,393.82 641.07,397.87 634.44,394.64C628.38,392.32 638.38,392.45 640.02,391.55C632.42,387.16 614.88,393.66 609.1,386.22C620.43,384.32 631.58,388.33 642.67,386.66C645.95,383.58 651.02,381.29 653.21,377.39C644.37,380.06 635.74,378.42 626.75,379.32C614.79,381.82 605.39,378.32 593.92,376.44C598.56,374.88 603.16,373.36 608.01,372.53C603.68,369.31 601.76,373.85 596.98,372.94C598.28,370.5 599.84,370.41 602.29,369.75C599.57,364.14 607.07,370.64 608.95,370.18C613.93,372.27 614.15,366.64 613.79,363.28C617.2,360.28 620.65,361.19 624.81,360.87C621.23,358.28 613.6,360.48 609.16,361.3C606.64,362.16 602.69,359.48 603.35,363.65C598.24,362.25 596.38,366.34 591.87,367.86C594.83,360.51 605.9,357.56 609.96,351.03C601.91,354.7 600.35,350.26 592.92,357.87C595.19,351.86 601.21,348.12 604.13,342.2C601.72,343.69 599.44,345.39 597,346.85C597.91,344.83 598.93,342.86 599.75,340.79C596.92,342.81 595.57,345.67 593.03,348.02C593.55,340.33 601.16,336.42 602.77,328.54C607.6,325.97 619.66,325.25 622.13,319.84C626.17,323.5 627.81,326.92 633.72,327.98C632.31,329.58 630.88,331.03 630.07,333.04C633.13,332.7 635.78,331.29 638.71,330.57C641.84,332.57 644.92,336.5 648.95,335.95C648.65,332.26 645.19,330.08 643.13,327.23C648.47,324.82 652.29,329.17 657.27,327.24C663.49,328.33 674.36,336.4 678.57,328.56C681.58,324.53 688.49,324.37 691.8,320.82C693.97,317.42 696.18,314.92 699.89,313.16Z" style="fill:rgb(14,62,49);fill-rule:nonzero;"/>
                <path d="M632.97,316.2C636.95,316.9 640.86,317.84 644.87,318.39C645.67,323.88 640.48,320.89 637.44,321.13C639.1,329.29 628.94,316.58 632.97,316.2Z" style="fill:rgb(66,84,49);fill-rule:nonzero;"/>
                <path d="M759.87,319.84C758.29,322.77 762.32,323.03 764.02,324.53C755.62,323.62 753.74,329.22 754.69,336.41C758.07,338.95 756.8,329.4 759.96,328.91C767.31,327.41 774.55,331.62 774.61,339.74C773.2,342.75 772.93,341.61 775.38,343.66C775.81,347.2 774.06,349.84 776.67,353.06C777.59,349.15 777.12,345.05 778.17,341.22C781.05,336.19 785.28,339.43 788.06,333.87C790.55,337.23 793.15,347.71 785.36,346.67C781.03,347.79 785.07,354.33 779.39,352.23C781.48,357.09 782.7,360.57 787.02,364.02C788.1,367.78 785.72,373.25 785.4,377.26C781.8,371.06 776.86,366.18 771.75,361.25C760.49,351.42 753.93,338.56 747.88,325.05C753.67,321.24 750.89,323.68 750.15,328.04C754.21,325.36 753.6,320.97 759.87,319.84Z" style="fill:rgb(140,133,130);fill-rule:nonzero;"/>
                <path d="M692.69,373.33C696.12,374.58 692.63,379.41 696.87,377.13C701.52,391.42 703.46,401.39 706.19,416.05C704.76,419.21 694.62,406.97 689.46,413.44C684.62,416.62 696.37,413.57 695.73,415.9C690.67,416.45 684.22,414.86 679.93,417.86C683.28,418 691.99,415.57 693.74,417.77C679.1,419.44 666.17,421.38 657.1,434.1C657.33,432.18 660.9,425.29 656.81,429.81C651.13,437.32 643.98,435.51 636.32,439.18C632.46,440.58 627.48,433.62 633.37,433.56C643.37,433.8 628.2,420.65 625.74,430.68C618.56,428.8 613.12,422.81 605.95,420.4C611.38,418.62 603,414.83 600.6,414.97C597.4,409.83 587.44,409.81 586.05,405.04C595.58,407.17 602.52,413.79 613.04,413.93C607.77,407.62 601.52,409.48 594.88,406.18C594.29,401.08 589.6,400.96 586.02,398.19C587.2,398.81 597.72,399.07 590.96,397.5C584.88,395.13 596.89,395.83 598.02,395.84C595.64,391.66 592.53,393.92 588.69,393C589.53,390.45 587.68,387.77 590.11,386.42C594.52,387.33 598.37,389.23 603.02,388.96C600.25,387.32 597.28,386.1 594.44,384.59C593.68,381.44 599.66,380.73 596.6,379.4C594.67,377.67 587.78,378 593.92,376.44C605.39,378.32 614.79,381.82 626.75,379.32C635.74,378.42 644.37,380.06 653.21,377.39C651.02,381.29 645.95,383.58 642.67,386.66C631.58,388.33 620.43,384.32 609.1,386.22C614.88,393.66 632.42,387.16 640.02,391.55C638.38,392.45 628.38,392.32 634.44,394.64C641.07,397.87 646.69,393.82 650.35,388.41C661.08,388.12 669.12,382.33 679.1,379.14C674.94,379.06 671.08,380.35 666.89,379.8C673.71,375.21 680.29,379.75 687.36,374.85C684,370.08 690.38,372.04 692.69,373.33Z" style="fill:rgb(23,79,69);fill-rule:nonzero;"/>
                <path d="M785.99,399.95C779.72,402.36 788.06,401.9 789.09,404.93C792.94,410.93 793.2,419.72 789.68,425.94C787.08,434.5 794.93,430.37 798.03,427.1C799,433.71 789.57,440.92 797.77,444.89C799.86,442.72 799.77,437.47 802.23,442.76C795.88,449.99 793.83,446.86 788.83,440.85C786.85,444.03 788.17,447.83 783.09,446.91C782.19,440.49 789.51,433.92 782.51,429.59C783.76,423.18 785.12,421.42 789.88,417.12C787.16,416.88 784.71,416.05 782.11,415.28C780.99,417.57 780.22,420.03 779.29,422.41C777.5,419.06 778.03,417.25 779.13,413.82C784.5,413.48 785.34,413.02 781.18,408.8C782.98,402.97 783.6,400.92 778.9,406.89C779.56,402.52 780.98,399.51 785.99,399.95Z" style="fill:rgb(93,59,55);fill-rule:nonzero;"/>
                <path d="M807.33,405.11C810.07,405.83 810.99,407.87 813.91,406.32C814.25,411.61 813.33,416.79 814.15,422.09C809.3,426.81 807.72,429.93 806.82,436.71C804.4,435.94 803.97,439.22 803.73,440.94C803.25,441.56 802.75,442.17 802.23,442.76C799.77,437.47 799.86,442.72 797.77,444.89C789.57,440.92 799,433.71 798.03,427.1C794.93,430.37 787.08,434.5 789.68,425.94C789.81,430.99 796.1,422.43 797.7,421.67C802.23,418.7 798.28,411.1 801.43,406.61C804.36,407.21 796.51,425.45 805.71,420.71C806.31,415.41 805.57,410.3 807.33,405.11Z" style="fill:rgb(179,130,121);fill-rule:nonzero;"/>
                <path d="M706.19,416.05C706.96,426.43 710.45,436.47 712.14,446.92C705.17,439.87 697.55,435 687.18,436.25C673.41,437.9 657.03,445.52 650.15,458.13C648,450.23 654,441.27 657.1,434.1C666.17,421.38 679.1,419.44 693.74,417.77C691.99,415.57 683.28,418 679.93,417.86C684.22,414.86 690.67,416.45 695.73,415.9C696.37,413.57 684.62,416.62 689.46,413.44C694.62,406.97 704.76,419.21 706.19,416.05Z" style="fill:rgb(60,101,95);fill-rule:nonzero;"/>
                <path d="M782.11,415.28C784.71,416.05 787.16,416.88 789.88,417.12C785.12,421.42 783.76,423.18 782.51,429.59C776.65,439.97 772.3,457.14 770.88,469.05L770.95,469.9C768.85,474.91 766.08,473.66 764.97,468.98C768.94,453.13 774.31,437.96 779.29,422.41C780.22,420.03 780.99,417.57 782.11,415.28Z" style="fill:rgb(161,86,86);fill-rule:nonzero;"/>
                <path d="M591.96,416.04C596.73,416.1 601.45,418.89 605.95,420.4C613.12,422.81 618.56,428.8 625.74,430.68C628.2,420.65 643.37,433.8 633.37,433.56C627.48,433.62 632.46,440.58 636.32,439.18C643.98,435.51 651.13,437.32 656.81,429.81C660.9,425.29 657.33,432.18 657.1,434.1C654,441.27 648,450.23 650.15,458.13C650.2,459.05 650.25,459.97 650.29,460.88C647.1,465.54 649.54,468.32 649.26,473.23C643.39,474.2 635.99,475.15 629.88,475.12C625.94,469.19 632.87,473.99 636.07,472.9C633.66,471.59 631.07,470.88 628.52,469.92C631.05,466.88 628.08,467.22 626.29,465.13C628.98,462.24 624.64,462.75 622.93,461.18C625.65,461.31 628.34,461.69 631.05,461.85C629.26,460.3 623.01,459.71 622.66,458.21C625.94,452.24 619.5,453.38 615.94,451.08C622.68,450.95 628.66,453.52 635.06,454.83C630.3,449.38 619.77,451.34 614.93,447.08C620.15,446.75 624.8,449.51 630.09,449.75C623.32,444.88 612.49,445.68 604.91,442.12C613.15,441.87 620.38,444.37 628.09,445.79C623.52,441.71 616.83,443.1 612.22,438.37C613.13,438.07 614.03,437.77 614.94,437.47C611.64,434.19 602.43,433.72 601.07,430.02C607.18,430.52 612.56,434.72 618.61,436.47C621.04,437.01 624.34,439.35 624.62,435.27C617,425.81 602.54,421.33 591.96,416.04Z" style="fill:rgb(13,46,36);fill-rule:nonzero;"/>
                <path d="M782.51,429.59C789.51,433.92 782.19,440.49 783.09,446.91C788.17,447.83 786.85,444.03 788.83,440.85C793.83,446.86 795.88,449.99 802.23,442.76C802.75,442.17 803.25,441.56 803.73,440.94C809.56,452.07 804.38,467.41 797.98,477.33C794.39,474.12 790.11,472.51 785.63,470.99C785.58,463.82 786.07,456.46 786.72,449.3C785.26,448.62 784.22,447.49 782.66,448.62C780.94,455.4 781.12,461.93 780.8,468.79C777.53,469.16 774.17,469.03 770.88,469.05C772.3,457.14 776.65,439.97 782.51,429.59Z" style="fill:rgb(248,239,240);fill-rule:nonzero;"/>
                <path d="M687.18,436.25C697.55,435 705.17,439.87 712.14,446.92C713.87,457.32 715.59,467.54 715.01,478.19C710.38,479.96 711.11,471.68 714.01,469.84C711.36,468.18 702.86,465.64 708.16,471.29C702.92,473.75 709.43,484.59 701.04,478C704.31,483.9 699.7,483.83 697.48,488.93C701.99,493.66 703.26,499.72 704.51,505.96C702.5,509.48 703.52,515.65 698.05,512.33C701.31,516.08 697.83,518.78 699.24,523.04C699.54,526.97 701.23,530.67 695.9,531.54C691.32,530.96 689.71,535.12 685.24,535.87C682.55,529.23 690.72,522.02 694.49,518.06C695.22,512.1 695.9,507.16 695.58,501.03C684.06,500.42 691.39,517.58 684.84,521.84C679.61,527.06 675.91,525.01 672.53,519.24C667.51,517.39 672.41,513.06 666.93,511C664.44,505.06 667.04,498.73 666.68,491.62C668.54,484.91 664.76,479.12 667.77,472.32C664.69,468.01 665.04,469.13 661.32,472.04C662.95,463.27 659.11,473.79 654.94,471.17C650.07,471.63 658.91,465.05 654.24,465.34C650.72,464.92 651.21,463.82 650.29,460.88C650.25,459.97 650.2,459.05 650.15,458.13C657.03,445.52 673.41,437.9 687.18,436.25Z" style="fill:rgb(208,189,170);fill-rule:nonzero;"/>
                <path d="M806.82,436.71C813.36,452.23 809.7,465.62 802.87,480.01C801.05,479.38 799.4,478.66 797.98,477.33C804.38,467.41 809.56,452.07 803.73,440.94C803.97,439.22 804.4,435.94 806.82,436.71Z" style="fill:rgb(131,66,72);fill-rule:nonzero;"/>
                <path d="M786.72,449.3C786.07,456.46 785.58,463.82 785.63,470.99C788.1,479.18 777.95,476.45 781.58,470.98C778.77,469.25 774.19,470.16 770.95,469.9L770.88,469.05C774.17,469.03 777.53,469.16 780.8,468.79C781.12,461.93 780.94,455.4 782.66,448.62C784.22,447.49 785.26,448.62 786.72,449.3Z" style="fill:rgb(152,77,78);fill-rule:nonzero;"/>
                <path d="M820.73,451.29C826.22,455.65 829.64,461.44 827.57,468.63C824.48,478.56 812.39,485.29 802.98,487.95C798.87,485.01 802.71,484.8 805.14,482.96C807.52,488.03 814.24,480.67 817.17,479.14C823.41,474.21 829.17,464.46 824.14,456.83C823.01,455.29 814.46,447.38 820.73,451.29Z" style="fill:rgb(157,146,149);fill-rule:nonzero;"/>
                <path d="M650.29,460.88C651.21,463.82 650.72,464.92 654.24,465.34C658.91,465.05 650.07,471.63 654.94,471.17C659.11,473.79 662.95,463.27 661.32,472.04C665.04,469.13 664.69,468.01 667.77,472.32C664.76,479.12 668.54,484.91 666.68,491.62C667.04,498.73 664.44,505.06 666.93,511C672.41,513.06 667.51,517.39 672.53,519.24C675.91,525.01 679.61,527.06 684.84,521.84C691.39,517.58 684.06,500.42 695.58,501.03C695.9,507.16 695.22,512.1 694.49,518.06C690.72,522.02 682.55,529.23 685.24,535.87C689.71,535.12 691.32,530.96 695.9,531.54C701.23,530.67 699.54,526.97 699.24,523.04C697.83,518.78 701.31,516.08 698.05,512.33C703.52,515.65 702.5,509.48 704.51,505.96C703.26,499.72 701.99,493.66 697.48,488.93C699.7,483.83 704.31,483.9 701.04,478C709.43,484.59 702.92,473.75 708.16,471.29C702.86,465.64 711.36,468.18 714.01,469.84C711.11,471.68 710.38,479.96 715.01,478.19C715.66,493.18 711.78,508.76 709.54,523.61C705.74,535.86 709.94,548.64 708.08,560.53C707.29,555.72 706.45,550.9 707.03,546.13C701.7,555.13 706.68,537.57 705.24,537.34C700.58,544.44 703.18,531.53 696.98,535.94C692.3,541.75 695.16,530.97 690.5,537.26C692.38,544.82 685.09,544.51 684.11,550.41C691.41,550.82 683.52,555.81 690.36,560.4C688.89,565.8 688.82,563.32 694.09,563.36C691.68,566 690.02,564.88 687.23,563.77C685.05,565.77 683,574.64 681.55,566.39C674.62,565.31 678.52,576.06 675.95,575.11C675.26,568.68 675.25,576.54 670.94,573.35C669.54,575.32 668.43,577.46 666.86,579.32C662.24,568.43 666.73,555.64 669.9,544.96C670.59,537.02 666,528.3 664.61,520.4C663.27,504.85 654.11,492.61 651.43,477.63C650.65,475.82 651.79,469.48 649.27,474.01L649.26,473.23C649.54,468.32 647.1,465.54 650.29,460.88Z" style="fill:rgb(195,169,150);fill-rule:nonzero;"/>
                <path d="M764.97,468.98C766.08,473.66 768.85,474.91 770.95,469.9C774.19,470.16 778.77,469.25 781.58,470.98C777.95,476.45 788.1,479.18 785.63,470.99C790.11,472.51 794.39,474.12 797.98,477.33C799.4,478.66 801.05,479.38 802.87,480.01C803.65,480.97 804.38,481.97 805.14,482.96C802.71,484.8 798.87,485.01 802.98,487.95C800.69,488.49 798.38,488.86 796.03,488.98C801.26,482.2 791.84,486.75 789.02,486.97C777.5,488.12 764.98,481.86 756.46,474.44C758.41,473.18 759.91,472.03 761.19,470.05C762.45,469.66 763.71,469.33 764.97,468.98Z" style="fill:rgb(44,39,45);fill-rule:nonzero;"/>
                <path d="M761.19,470.05C759.91,472.03 758.41,473.18 756.46,474.44C764.98,481.86 777.5,488.12 789.02,486.97C791.84,486.75 801.26,482.2 796.03,488.98C784.02,490.26 774.19,487.15 763.09,483.32C759.68,487.51 759.14,497.32 764.95,499.79C762.9,500.8 760.93,501.92 758.95,503.05C754.75,495.13 759.26,489.09 759.59,481.4C754.01,476.53 751.93,471.73 761.19,470.05Z" style="fill:rgb(105,96,102);fill-rule:nonzero;"/>
                <path d="M649.26,473.23L649.27,474.01C649.24,478.85 650.74,482.91 649,487.68C644.58,495.74 648.94,506.76 643.43,515.31C642.38,524.06 644.49,532.85 643.6,541.9C636.18,540.83 633.45,540.56 630.47,533.22C633.51,526.82 631.87,520.5 634.01,514.07C635.65,506.25 631.41,498.46 633.95,491.08C630.31,490.96 627.32,492.37 623.74,491.26C628.28,489.41 642.1,490.59 632.27,483.36C639.28,479.66 632.91,481.52 629.03,480.85C632.88,479.2 639.03,475.37 630.17,475.83L629.88,475.12C635.99,475.15 643.39,474.2 649.26,473.23Z" style="fill:rgb(147,121,93);fill-rule:nonzero;"/>
                <path d="M630.17,475.83C639.03,475.37 632.88,479.2 629.03,480.85C632.91,481.52 639.28,479.66 632.27,483.36C642.1,490.59 628.28,489.41 623.74,491.26C615.87,492.95 602.75,495.1 596.07,496.97C604.92,497.6 613.96,493.95 622,493.02C626.27,492.18 629.06,494.14 627.46,498.48C623.34,502.27 629.66,508.22 626.89,512.92C623.2,518 620.76,525.83 622.01,531.98C625.46,535.4 627.69,537.64 627.94,542.81C625.27,542.57 622.68,542.06 620,542.09C620.73,545.8 624.6,547.23 622.39,551.38C618.61,553.84 620.6,547.19 619.77,545.19C617.38,546.12 614.67,547.1 612.77,548.87C617.21,551.92 621.2,553.97 626.67,554.46C628.92,558.06 624.21,568.51 621.91,571.56C624.46,575.55 618.66,573.67 616.37,574.42C618.56,586.15 628.94,591.74 628.47,603.44C626.56,607.3 626.83,606.23 623.21,605.28C620.7,609.85 626.94,612.49 626.48,616.72C625.27,619.69 627.15,621.91 627.75,625.03C625.77,624.12 623.86,623.07 621.86,622.21C625.63,628.75 633.29,628.19 635.96,637.15C632.56,637.27 635.51,641.22 635.07,643.56C639.22,645.85 634.76,649.15 633.53,651.89C637.07,654.12 640.84,655.83 644.19,658.4C638.59,659.19 631.51,662.16 626.07,660.11C622.26,645.18 617.14,630.7 613.18,615.82C608.81,602.21 610.68,589.82 611.03,576C609.49,541.23 592.93,514.89 585.8,482.33C600.57,480.03 615.41,478.24 630.17,475.83Z" style="fill:rgb(199,177,151);fill-rule:nonzero;"/>
                <path d="M649,487.68C650.73,504.01 644.49,519.9 648.43,536.62C652.55,551.06 646.99,562.85 645.96,577C646.47,590.32 656.82,606.17 653.35,621.25C654.74,607.77 647.25,599.47 644.71,587.37C643.65,586.01 641.06,587.38 640.8,585.12C641.58,575.39 647.42,563.42 646.41,553.87C640.05,554.11 644.27,546.49 638.42,544.65C635.86,545.64 625.45,549.5 630.69,553.29C635.75,556.97 622.51,566.41 633.16,565.45C635.99,568.38 624.85,574.78 623.79,576.71C634.88,578.98 631.41,589.24 633.62,597.98C632.01,604.05 637.19,608.63 634.99,614.04C631.72,619.17 638.18,616.12 633.24,620.54C642.94,622.05 635.82,629.47 639.63,633.85C637.97,639.11 644.16,643.61 645.51,648.88C647.13,640.82 649.4,655.17 649.41,657.19C647.68,657.65 645.95,658.05 644.19,658.4C640.84,655.83 637.07,654.12 633.53,651.89C634.76,649.15 639.22,645.85 635.07,643.56C635.51,641.22 632.56,637.27 635.96,637.15C633.29,628.19 625.63,628.75 621.86,622.21C623.86,623.07 625.77,624.12 627.75,625.03C627.15,621.91 625.27,619.69 626.48,616.72C626.94,612.49 620.7,609.85 623.21,605.28C626.83,606.23 626.56,607.3 628.47,603.44C628.94,591.74 618.56,586.15 616.37,574.42C618.66,573.67 624.46,575.55 621.91,571.56C624.21,568.51 628.92,558.06 626.67,554.46C621.2,553.97 617.21,551.92 612.77,548.87C614.67,547.1 617.38,546.12 619.77,545.19C620.6,547.19 618.61,553.84 622.39,551.38C624.6,547.23 620.73,545.8 620,542.09C622.68,542.06 625.27,542.57 627.94,542.81C627.69,537.64 625.46,535.4 622.01,531.98C620.76,525.83 623.2,518 626.89,512.92C629.66,508.22 623.34,502.27 627.46,498.48C629.06,494.14 626.27,492.18 622,493.02C613.96,493.95 604.92,497.6 596.07,496.97C602.75,495.1 615.87,492.95 623.74,491.26C627.32,492.37 630.31,490.96 633.95,491.08C631.41,498.46 635.65,506.25 634.01,514.07C631.87,520.5 633.51,526.82 630.47,533.22C633.45,540.56 636.18,540.83 643.6,541.9C644.49,532.85 642.38,524.06 643.43,515.31C648.94,506.76 644.58,495.74 649,487.68Z" style="fill:rgb(178,149,130);fill-rule:nonzero;"/>
                <path d="M764.95,499.79C775.66,504.85 783.88,515.9 783.95,527.93C782.79,530.78 781.76,530.55 779.02,531.1C767.06,523.2 762.79,517.06 758.95,503.05C760.93,501.92 762.9,500.8 764.95,499.79Z" style="fill:rgb(32,34,40);fill-rule:nonzero;"/>
                <path d="M783.95,527.93C783.78,536.67 802.19,541.31 801.02,550.1C792.23,546.45 785.4,537.93 779.02,531.1C781.76,530.55 782.79,530.78 783.95,527.93Z" style="fill:rgb(143,88,90);fill-rule:nonzero;"/>
                <path d="M696.98,535.94C703.18,531.53 700.58,544.44 705.24,537.34C706.68,537.57 701.7,555.13 707.03,546.13C706.45,550.9 707.29,555.72 708.08,560.53C706.91,573.86 699.69,586.78 696.93,599.95C689.14,609.72 669.63,600.06 669.23,588.76C668.73,585.54 667.88,582.42 666.86,579.32C668.43,577.46 669.54,575.32 670.94,573.35C675.25,576.54 675.26,568.68 675.95,575.11C678.52,576.06 674.62,565.31 681.55,566.39C683,574.64 685.05,565.77 687.23,563.77C690.02,564.88 691.68,566 694.09,563.36C688.82,563.32 688.89,565.8 690.36,560.4C683.52,555.81 691.41,550.82 684.11,550.41C685.09,544.51 692.38,544.82 690.5,537.26C695.16,530.97 692.3,541.75 696.98,535.94Z" style="fill:rgb(178,152,134);fill-rule:nonzero;"/>
                <path d="M638.42,544.65C644.27,546.49 640.05,554.11 646.41,553.87C647.42,563.42 641.58,575.39 640.8,585.12C641.06,587.38 643.65,586.01 644.71,587.37C647.25,599.47 654.74,607.77 653.35,621.25C651.69,632.22 650.89,645.27 653.27,656.1C651.99,656.5 650.7,656.86 649.41,657.19C649.4,655.17 647.13,640.82 645.51,648.88C644.16,643.61 637.97,639.11 639.63,633.85C635.82,629.47 642.94,622.05 633.24,620.54C638.18,616.12 631.72,619.17 634.99,614.04C637.19,608.63 632.01,604.05 633.62,597.98C631.41,589.24 634.88,578.98 623.79,576.71C624.85,574.78 635.99,568.38 633.16,565.45C622.51,566.41 635.75,556.97 630.69,553.29C625.45,549.5 635.86,545.64 638.42,544.65Z" style="fill:rgb(150,123,104);fill-rule:nonzero;"/>
                <path d="M669.23,588.76C669.63,600.06 689.14,609.72 696.93,599.95C695.38,604.97 694.29,609.8 691.06,614.09C685.88,616.91 681.96,616 676.6,614.43C672.37,612.71 680.84,619.36 676.16,617.84C671.58,617.91 670.58,615.13 669.85,611.12C671.68,604.72 668.76,595.14 669.23,588.76Z" style="fill:rgb(183,186,189);fill-rule:nonzero;"/>
                <path d="M669.85,611.12C670.58,615.13 671.58,617.91 676.16,617.84C680.84,619.36 672.37,612.71 676.6,614.43C681.96,616 685.88,616.91 691.06,614.09C696.38,619.27 693.32,623.83 692.23,629.88C693.88,634.64 696.35,639.14 698.2,643.84C694.52,647.56 701.31,652.74 700.52,658.13C696.41,655.62 685.64,653.24 682,655.47C689.74,657.8 698.05,659.46 706.08,660.28C712.39,672.88 715.53,687.73 704.7,698.92C698.64,702.4 691.78,703.47 685.8,699.19C678.74,693.46 674.93,682.87 675,673.99C677.8,661.3 670.79,648.77 665.11,637.89C661.36,627.49 666.77,621.69 669.85,611.12Z" style="fill:rgb(49,94,81);fill-rule:nonzero;"/>
                <path d="M679.39,626.58C675.24,621.92 683.6,623.42 686.01,622.8C699.11,620.54 683.92,632.19 679.39,626.58Z" style="fill:rgb(145,161,153);fill-rule:nonzero;"/>
                <path d="M698.2,643.84C700.57,649.45 703.46,654.79 706.08,660.28C698.05,659.46 689.74,657.8 682,655.47C685.64,653.24 696.41,655.62 700.52,658.13C701.31,652.74 694.52,647.56 698.2,643.84Z" style="fill:rgb(120,153,138);fill-rule:nonzero;"/>
                <path d="M653.27,656.1C654.91,660.61 652.91,666.26 653.03,671.01C649.25,672.35 644.44,672.5 640.57,671.56C638.4,666.4 637.12,672.1 640.69,673.97C632.82,676.64 635.01,677.68 636.4,684.58C632.4,686.62 632.99,687.97 632.78,692.15C631.49,688.13 632.38,683.94 631.39,679.78C630.24,672.94 628.4,666.63 626.07,660.11C631.51,662.16 638.59,659.19 644.19,658.4C645.95,658.05 647.68,657.65 649.41,657.19C650.7,656.86 651.99,656.5 653.27,656.1Z" style="fill:rgb(196,204,207);fill-rule:nonzero;"/>
                <path d="M686.93,658.14C682.08,664.6 693.22,662.85 695.97,660.29C691.9,666.37 698.85,663.16 702.19,665.83C698.04,668.97 694.11,669.26 701.79,671.42C696.69,675.82 690.51,676.37 684.04,675.93C686.1,674.73 688.15,673.7 689.98,672.15C687.58,670.34 684.92,670.1 682.07,669.6C683.58,667.54 685.66,666.39 687.85,665.18C680.29,665.33 689.15,662.7 683.21,662.7C677.96,663.35 685.98,659.2 686.93,658.14Z" style="fill:rgb(108,142,135);fill-rule:nonzero;"/>
                <path d="M640.57,671.56C644.44,672.5 649.25,672.35 653.03,671.01C656.43,674.71 658.62,676.51 658.06,682.03C659.6,690.73 661.35,699.4 662.77,708.19C664.55,715.89 665.68,721.49 657.72,725.77C652.36,735.87 639.42,732.53 630.04,732.87C623.52,732.73 616.09,726.86 621.01,720.12C628.19,725.48 630.2,716.53 638.69,717.8C639.03,716.37 633.13,717.22 631.91,716.7C637.84,715.55 642.24,712.18 648.05,713.65C646.52,708.72 637.42,711.68 633.95,712.84C638.18,708.15 643.93,708.17 649.46,710.4C653.04,712.16 648.44,707.83 647.4,707.62C642.16,705.64 638.58,707.78 634.02,709.97C637.66,704.46 647.27,703.03 652.07,707.88C654.6,704.37 643.84,702.08 640.93,702.69C645.79,699.02 649.23,702.32 653.99,703.92C650.98,698.99 646.83,700.35 641.9,699.68C646.05,697.69 649.96,698.46 654.19,699.52C653.15,694.97 644.48,697.52 641.18,697.77C642.49,696.01 643.84,694.29 645.12,692.51C648.99,693.12 655.9,698.18 655.97,691.01C655.41,685.13 651.92,682.33 646.02,683.07C651.43,686.79 642.8,691.14 638.37,691.39C636.61,694.3 643.62,691.43 645.12,692.51C641.14,691.76 636.43,705.61 634.27,699.98C634.08,697.23 633.62,694.77 632.78,692.15C632.99,687.97 632.4,686.62 636.4,684.58C635.01,677.68 632.82,676.64 640.69,673.97C637.12,672.1 638.4,666.4 640.57,671.56Z" style="fill:rgb(52,91,79);fill-rule:nonzero;"/>
                <path d="M650.38,675.44C660.76,678.92 642.22,684.13 641.03,680.93C639.52,674.89 646.63,676.33 650.38,675.44Z" style="fill:rgb(153,175,171);fill-rule:nonzero;"/>
                <path d="M646.02,683.07C651.92,682.33 655.41,685.13 655.97,691.01C655.9,698.18 648.99,693.12 645.12,692.51C643.62,691.43 636.61,694.3 638.37,691.39C642.8,691.14 651.43,686.79 646.02,683.07Z" style="fill:rgb(123,145,144);fill-rule:nonzero;"/>
                <path d="M645.12,692.51C643.84,694.29 642.49,696.01 641.18,697.77C644.48,697.52 653.15,694.97 654.19,699.52C649.96,698.46 646.05,697.69 641.9,699.68C646.83,700.35 650.98,698.99 653.99,703.92C649.23,702.32 645.79,699.02 640.93,702.69C643.84,702.08 654.6,704.37 652.07,707.88C647.27,703.03 637.66,704.46 634.02,709.97C638.58,707.78 642.16,705.64 647.4,707.62C648.44,707.83 653.04,712.16 649.46,710.4C643.93,708.17 638.18,708.15 633.95,712.84C637.42,711.68 646.52,708.72 648.05,713.65C642.24,712.18 637.84,715.55 631.91,716.7C633.13,717.22 639.03,716.37 638.69,717.8C630.2,716.53 628.19,725.48 621.01,720.12C626.87,715.09 631.37,712.38 633.24,704.23C633.7,702.84 634,701.41 634.27,699.98C636.43,705.61 641.14,691.76 645.12,692.51Z" style="fill:rgb(103,146,136);fill-rule:nonzero;"/>
                <path d="M648.75,730.1C648.46,732.21 640.48,730.33 638.08,730.43C634.04,730.22 629.94,730.83 625.84,730.47C632.94,724.85 641.74,724.84 648.75,730.1Z" style="fill:rgb(158,163,100);fill-rule:nonzero;"/>
            </g>
        </g>
    </g>
</svg>
