<?xml version="1.0" encoding="UTF-8" standalone="no"?>
<!DOCTYPE svg PUBLIC "-//W3C//DTD SVG 1.1//EN" "http://www.w3.org/Graphics/SVG/1.1/DTD/svg11.dtd">
<svg width="100%" height="100%" viewBox="0 0 1728 1728" version="1.1" xmlns="http://www.w3.org/2000/svg" xmlns:xlink="http://www.w3.org/1999/xlink" xml:space="preserve" xmlns:serif="http://www.serif.com/" style="fill-rule:evenodd;clip-rule:evenodd;stroke-linejoin:round;stroke-miterlimit:2;">
    <g transform="matrix(1,0,0,1,-11036,-6075)">
        <g id="_28" serif:id="28" transform="matrix(1,0,0,1,11036,6075)">
            <rect x="0" y="0" width="1728" height="1728" style="fill:none;"/>
            <g transform="matrix(-3.728838,2.152846,-2.152846,-3.728838,3055.754891,992.447162)">
                <g>
                    <path d="M449.97,156.19C455.59,155.18 460.75,156.82 465.75,159.25C471.47,162.08 477.06,165.19 482.59,168.38C487.43,171.16 491.82,174.57 496.58,177.45C501.29,180.39 507.58,181.12 513,181.61C517.62,181.96 522.44,182.56 527.07,182.07C528.63,181.92 530.04,180.55 531.36,179.77C532.18,180.81 533,181.86 533.82,182.91C529.92,187.93 524.81,191.23 519.4,194.4C511.78,198.71 502.83,202.89 494,203.48C487.75,204.03 483.98,200.16 478.03,199.35C474.07,198.7 470.02,200.33 466.16,199.76C463.38,199.1 462.02,196.91 460.4,194.79C460.6,202.25 460.84,209.63 461.98,217.02C462.07,219.32 463.07,222.77 461.25,224.53C459.9,223.73 458.64,222.79 457.4,221.84C464.77,236.21 465.69,251.95 470.79,268.11C474.18,269.24 477.98,270.16 481.04,272.04C484.05,273.97 485.79,277.49 487.42,280.56C489.2,284.09 491.18,287.56 492.68,291.21C494.39,295.45 494.44,299.58 494.8,304.06C507.88,309.71 521.9,313.26 534.94,318.99C536.9,319.98 539.8,321.28 540.72,323.4C541.68,327.63 539.86,331.9 537.14,335.1C532.98,340.02 526.67,343.37 520.78,345.76C509.03,350.46 496.04,352.71 483.45,353.49C481.55,358.87 480.32,364.92 475.95,368.93C471.29,373.16 464.92,375.81 459.17,378.22C454.67,380.16 449.8,380.5 445.21,382.02C438.97,386.66 433.61,392.83 426.86,396.93C422.97,399.21 418.66,400.39 415.06,403.07C412.42,405.02 410.4,407.2 407.22,408.35C400.81,410.66 393.79,411.54 387,411.7C379.74,411.78 371.47,410.75 365.23,406.74C360.89,404.01 359.17,399.99 355.46,396.53C350.37,391.66 346.16,386.06 343.53,379.48C341.16,373.22 340.33,366.57 339.48,360C339.28,356.99 337.06,354.96 335.5,352.49C331.16,346.39 329.68,338.87 328.18,331.68C317.75,327.8 309.15,321.81 299.24,316.77C291,312.82 282.96,306.93 277.65,299.44C274.83,292.88 279.16,283.5 285.43,280.38C298.43,273.39 313.52,269.12 327.78,265.52C330.94,264.67 334.16,264.15 337.41,263.77C340.3,258.2 345.13,255.46 350.07,252.03C351.94,250.86 352.31,249.07 353.11,247.17C355.25,241.4 358.1,234.93 362.61,230.61C364.72,228.51 367.48,227.53 369.79,225.77C372.3,222.92 374.11,219.39 376.23,216.24C384.6,202.92 394.14,190.41 405.33,179.33C411.83,172.29 420.25,169.04 428.57,164.57C435.29,161.34 442.57,157.43 449.97,156.19Z" style="fill:rgb(0,28,61);fill-rule:nonzero;"/>
                    <clipPath id="_clip1">
                        <path d="M449.97,156.19C455.59,155.18 460.75,156.82 465.75,159.25C471.47,162.08 477.06,165.19 482.59,168.38C487.43,171.16 491.82,174.57 496.58,177.45C501.29,180.39 507.58,181.12 513,181.61C517.62,181.96 522.44,182.56 527.07,182.07C528.63,181.92 530.04,180.55 531.36,179.77C532.18,180.81 533,181.86 533.82,182.91C529.92,187.93 524.81,191.23 519.4,194.4C511.78,198.71 502.83,202.89 494,203.48C487.75,204.03 483.98,200.16 478.03,199.35C474.07,198.7 470.02,200.33 466.16,199.76C463.38,199.1 462.02,196.91 460.4,194.79C460.6,202.25 460.84,209.63 461.98,217.02C462.07,219.32 463.07,222.77 461.25,224.53C459.9,223.73 458.64,222.79 457.4,221.84C464.77,236.21 465.69,251.95 470.79,268.11C474.18,269.24 477.98,270.16 481.04,272.04C484.05,273.97 485.79,277.49 487.42,280.56C489.2,284.09 491.18,287.56 492.68,291.21C494.39,295.45 494.44,299.58 494.8,304.06C507.88,309.71 521.9,313.26 534.94,318.99C536.9,319.98 539.8,321.28 540.72,323.4C541.68,327.63 539.86,331.9 537.14,335.1C532.98,340.02 526.67,343.37 520.78,345.76C509.03,350.46 496.04,352.71 483.45,353.49C481.55,358.87 480.32,364.92 475.95,368.93C471.29,373.16 464.92,375.81 459.17,378.22C454.67,380.16 449.8,380.5 445.21,382.02C438.97,386.66 433.61,392.83 426.86,396.93C422.97,399.21 418.66,400.39 415.06,403.07C412.42,405.02 410.4,407.2 407.22,408.35C400.81,410.66 393.79,411.54 387,411.7C379.74,411.78 371.47,410.75 365.23,406.74C360.89,404.01 359.17,399.99 355.46,396.53C350.37,391.66 346.16,386.06 343.53,379.48C341.16,373.22 340.33,366.57 339.48,360C339.28,356.99 337.06,354.96 335.5,352.49C331.16,346.39 329.68,338.87 328.18,331.68C317.75,327.8 309.15,321.81 299.24,316.77C291,312.82 282.96,306.93 277.65,299.44C274.83,292.88 279.16,283.5 285.43,280.38C298.43,273.39 313.52,269.12 327.78,265.52C330.94,264.67 334.16,264.15 337.41,263.77C340.3,258.2 345.13,255.46 350.07,252.03C351.94,250.86 352.31,249.07 353.11,247.17C355.25,241.4 358.1,234.93 362.61,230.61C364.72,228.51 367.48,227.53 369.79,225.77C372.3,222.92 374.11,219.39 376.23,216.24C384.6,202.92 394.14,190.41 405.33,179.33C411.83,172.29 420.25,169.04 428.57,164.57C435.29,161.34 442.57,157.43 449.97,156.19Z" clip-rule="nonzero"/>
                    </clipPath>
                    <g clip-path="url(#_clip1)">
                        <path d="M449.03,162.94C454.91,161.7 460.69,163.99 464.79,168.21C471,174.48 478.67,178.53 486.4,182.63C491.78,185.36 496.79,188.06 502.98,188.19C509.38,188.31 515.79,187.23 522.2,187.15C515.55,192.52 506.35,194.24 498.04,192.98C490.49,191.49 483.43,188.7 476.22,186.61C472.38,185.47 468.24,184.94 464.53,183.43C461.26,181.99 458.96,179.31 456.51,176.8C454.76,181.8 453.08,186.66 452.52,191.97C452.14,195.87 451.82,199.72 450.57,203.46C445.07,199.44 440.5,194.52 434.39,191.28C436.04,197.51 438.4,203.42 439.56,209.78C440.99,216.26 441.09,222.85 442.79,229.27C444.24,234.91 443.9,240.36 443.46,246.09C436.55,242.28 430.82,236.75 423.91,233.01C417.92,230.25 411.27,228.76 404.94,226.97C397.56,224.69 390.2,226.79 382.24,226.05C384.15,219.45 388.36,214.67 391.9,208.95C396.56,201.97 400.91,194.66 406.13,188.08C411.24,181.66 418.57,177.75 425.43,173.43C432.68,169.19 440.73,164.56 449.03,162.94Z" style="fill:white;fill-rule:nonzero;"/>
                        <path d="M385.82,230.84C384.37,233.47 382.91,236.09 381.45,238.72C375.09,239.16 368.91,240.43 362.71,241.85C363.88,240.39 364.99,238.66 366.45,237.46C372.24,233.47 378.83,231.43 385.82,230.84Z" style="fill:white;fill-rule:nonzero;"/>
                        <path d="M394.03,231.14C400.31,231.35 406.51,232.59 412.27,235.15C405.24,243.47 400.4,253.05 395.88,262.9C394.78,265.22 393.48,267.43 392.16,269.64C385.68,268.73 379.39,267.62 373.3,265.12C374.33,260.91 376.23,257.18 378.54,253.54C382.53,247.18 386.34,240.7 390.39,234.38C391.24,233.34 392.52,231.01 394.03,231.14Z" style="fill:white;fill-rule:nonzero;"/>
                        <path d="M421.1,239.86C432.28,246.47 442.9,253.62 451.85,263.14C457.91,269.54 462.14,277.92 465.43,286.02C464.52,288.56 462.81,289.81 460.12,289.98C454.56,285.3 451.2,277.03 446.29,271.71C441.6,266.5 436.56,261.27 430.95,257.06C425.23,252.97 419.3,249.22 413,246.08C413.83,243.69 414.42,240.9 415.87,238.81C417.63,237.67 419.51,239.07 421.1,239.86Z" style="fill:white;fill-rule:nonzero;"/>
                        <path d="M377.98,244.24C376.76,246.7 375.45,249.1 374.07,251.47C370.54,251.47 367,251.44 363.47,251.28C367.86,246.91 371.86,245.16 377.98,244.24Z" style="fill:white;fill-rule:nonzero;"/>
                        <path d="M410.96,251.98C415.2,252.37 419.41,254.83 422.98,257.03C429.8,261.5 436.49,267.03 441.18,273.76C439.85,275.58 438.47,277.33 436.97,279.01C428.22,270.79 417.33,264.6 406.53,259.5C407.93,257.01 409.09,254.15 410.96,251.98Z" style="fill:white;fill-rule:nonzero;"/>
                        <path d="M371.02,256.87C370.08,259.37 369.13,261.87 368.16,264.36C360.76,264.12 353.44,265.15 346.06,265.14C347.58,263.28 349.25,261.61 351.19,260.18C356.03,255.8 364.88,257.54 371.02,256.87Z" style="fill:white;fill-rule:nonzero;"/>
                        <path d="M401.84,265.2C408.05,267.05 413.95,271.13 419.38,274.62C426.48,279.32 433.27,284.69 439.36,290.64C442.56,294.01 446.43,298.3 447.32,302.98C447.66,304.87 447.29,305.96 446.04,307.38C442.5,307.85 441.15,303.84 439.37,301.57C434.11,294.17 424.77,288.97 417.76,283.24C411.79,278.18 405.03,275.54 398.07,272.21C399.14,269.76 400.29,267.38 401.84,265.2Z" style="fill:white;fill-rule:nonzero;"/>
                        <path d="M368.27,269.83C373.94,271.69 379.33,271.68 384.45,275.08C372.36,276.25 360.14,276.1 348.01,276.79C344.37,277.03 340.92,277.97 337.42,278.94C349.77,280.36 361.79,283.83 373.14,288.86C388.79,296.08 405.14,301.86 421.23,308C420.88,309.7 420.53,311.4 420.18,313.1C394.96,304.03 368.89,293.07 342.79,287.66C333.8,285.82 324.19,283.7 315,283.78C306.38,283.79 298.43,286.45 289.8,286.94C296.42,282.81 303.81,279.17 311.5,277.68C319.54,275.87 327.79,273.81 336.01,273.17C346.77,272.14 357.97,270.08 368.78,270.64L368.27,269.83Z" style="fill:white;fill-rule:nonzero;"/>
                        <path d="M467.88,276.6C472.35,280.42 477.44,284.42 480.55,289.45C483.26,294.87 484.44,301.2 485.92,307.05C483.87,308.13 481.16,308.85 480.21,311.21C478.85,314.86 478.57,319.15 478.96,323C479.34,326.4 481.96,328.02 484.21,330.22C483.53,333.67 483.03,337.39 481.7,340.65C479.81,340.6 478,340.19 476.1,340.2C473.31,342.27 471.24,345.86 469.91,349.02C468.55,352.73 470.63,355.59 472.14,358.79C468.46,362.44 464.88,365.81 460.21,368.21C457.62,369.53 454.52,369.87 451.67,370.38C454.73,366.31 458.49,362.39 460.82,357.85C462.31,354.66 460.6,351.86 458.05,349.96C455.2,347.96 451.59,345.97 448.06,345.84C444.89,348.45 442.73,352.28 439.99,355.34C435.46,341.88 432.91,328.21 435.39,314.04C431.87,326.55 429.78,339 431.2,352.03C431.61,356.3 433.65,359.93 434.47,364.16C432.78,363.29 431.38,363.39 430.42,361.54C426.89,355.54 424.41,349.01 423.87,342.02C422.75,328.51 426.21,315.29 430.71,302.67C433.16,305.13 435.81,307.26 437.95,310.02C439.94,312.37 441.93,315.4 445.03,316.27C451.16,315.09 455.25,307.98 454.1,302C452.87,294.83 447.73,289.37 442.79,284.42C443.69,282.72 444.63,281.06 445.62,279.41C448.45,283.27 451.29,287.1 453.79,291.18C454.68,292.54 455.6,294.15 456.88,295.17C461.46,295.74 468.4,295.14 471.29,290.96C471,287.1 469.63,283.24 468.65,279.5C468.39,278.54 468.14,277.57 467.88,276.6Z" style="fill:white;fill-rule:nonzero;"/>
                        <path d="M344.49,299.66C343.02,309.01 340.99,319.03 342.01,328.99C343.22,337.28 348.18,343.91 351.97,351.09C353.45,353.71 355.59,356.06 357.4,358.48C349.42,356.09 342.99,350.13 339.33,342.75C334.86,332.05 334.97,321.38 335.14,310C335.23,306.91 335.59,303.04 337.43,300.45C339.18,298.24 342.16,299.41 344.49,299.66Z" style="fill:white;fill-rule:nonzero;"/>
                        <path d="M486.33,313.47C486.92,316.67 485.82,319.39 484.45,322.19C483.85,319.93 482.53,316.72 483.57,314.46C484.29,313.4 485.21,313.57 486.33,313.47Z" style="fill:white;fill-rule:nonzero;"/>
                        <path d="M493.72,313.02C497.53,314.89 500.99,317.39 504.85,319.18C509.52,321.51 514.39,322.6 519.4,323.9C510.62,325.19 501.54,324.83 492.71,324.37C493.07,320.59 493.27,316.79 493.72,313.02Z" style="fill:white;fill-rule:nonzero;"/>
                        <path d="M391.85,326.95C400.48,329.46 408.47,333.2 417.51,334.34C417.68,337.19 417.77,340.05 417.85,342.91C408.27,340.42 398.54,338.53 388.9,336.29C389.87,333.17 390.86,330.06 391.85,326.95Z" style="fill:white;fill-rule:nonzero;"/>
                        <path d="M477.32,345.26C478.09,346.46 478.84,347.65 479.33,348.98C478.52,350.68 477.17,351.76 475.86,353.04C475.26,351.62 474.66,350.2 474.11,348.76C475.08,347.51 476.19,346.37 477.32,345.26Z" style="fill:white;fill-rule:nonzero;"/>
                        <path d="M384.43,347.66C388.78,347.83 392.8,348.89 396.99,349.88C404.51,351.7 412.01,353.4 419.75,353.96C420.61,360.1 425.05,364.57 428.54,369.44C421.95,374.05 415.4,379.21 408.39,383.08C406.21,382.37 404.41,381.32 402.04,381.73C393.16,382.69 385.14,385.05 376.21,382.6C370.88,381.07 365.35,379.04 360.36,376.63C355.52,374.22 355.11,368.87 353.85,364.21C361.19,366.63 368.99,364.51 374.95,359.88C378.76,356.6 381.72,351.85 384.43,347.66Z" style="fill:white;fill-rule:nonzero;"/>
                        <path d="M449.99,351.31C451.42,352.34 453.3,352.96 453.28,355.04C453.24,358.59 449.85,362.1 447.79,364.79C443.3,369.96 440.33,375.74 435.44,380.42C430.17,385.58 424.33,388.97 418.35,393.34C414.82,395.69 410.24,398.63 405.87,398.49C402.83,396.63 403.76,393.83 403.5,390.8C412.53,387.33 420.77,382.27 428.37,376.32C433.4,372.29 438.03,368.09 441.78,362.8C444.54,359.02 446.81,354.66 449.99,351.31Z" style="fill:white;fill-rule:nonzero;"/>
                        <path d="M348.23,369.36C351.16,374.43 353.78,379.26 358.64,382.8C358.32,384.4 358,385.99 357.67,387.59C353.21,383.03 350.69,378.35 349.02,372.21C348.75,371.26 348.49,370.31 348.23,369.36Z" style="fill:white;fill-rule:nonzero;"/>
                        <path d="M366.87,385.07C370.56,386.53 373.94,388.32 377.97,388.75C384.75,390.02 391,388.51 397.78,388.54C397.19,389.85 396.6,391.16 396,392.47C397.07,395.87 397.92,399.28 398.46,402.81C392.47,404.58 386.16,405.01 379.96,404.29C375.38,403.68 370.55,402.15 367.23,398.78C364.17,395.77 362.92,391.16 363.81,387C364.05,385.51 365.4,384.38 366.87,385.07Z" style="fill:white;fill-rule:nonzero;"/>
                        <g transform="matrix(1,0,0,1,-3,-2)">
                            <path d="M463.522,307L465.508,306.988L468.644,316.049L467.609,318.938L463.522,307Z" style="fill:rgb(0,28,61);"/>
                            <path d="M463.514,309.44L465.82,316.027L465.833,331.459L463.562,338.047L463.514,309.44Z" style="fill:rgb(0,28,61);"/>
                            <path d="M463.586,340.026L465.87,340.006L469.239,329.672L468.217,326.531L463.586,340.026Z" style="fill:rgb(0,28,61);"/>
                            <path d="M467.837,327.578L468.228,326.549L469.333,326.531L471.102,331.483L471.132,337.641L468.931,330.681L467.837,327.578Z" style="fill:rgb(0,28,61);"/>
                            <path d="M471.77,340.024L474.073,340.016L473.99,306.959L471.753,306.995L471.77,340.024Z" style="fill:rgb(0,28,61);"/>
                            <path d="M470.849,309.672L470.84,316.141L469.293,320.517L468.19,320.516L467.607,318.939L470.849,309.672Z" style="fill:rgb(0,28,61);"/>
                        </g>
                    </g>
                </g>
            </g>
            <g id="up" transform="matrix(2.594662,0,0,2.594662,-455.479784,104.756994)">
                <path d="M391.71,18.3C392.57,25.07 391.5,32.09 392.2,38.91L393.73,38.69C396.02,32.83 397.09,26.35 398.38,20.19C405.42,18.49 402.55,26.22 402.25,30.06C401.78,39.11 395.56,47.81 402.26,55.66C403.18,59.63 398.23,64.9 397.78,69.07C397.23,69.29 396.68,69.48 396.13,69.67C394.27,65.05 390.84,62.04 391.52,57.28C389.62,54.25 389.29,57.48 387.9,58.93C386.37,60.73 387.88,63.54 387.04,65.65C384.22,64.36 383.62,63.73 382.11,67C383.69,70.36 383.69,72.68 382.75,76.25C379.57,72 380.63,67.65 379.29,62.83C378.44,59.01 381.06,53.89 378.42,50.63C374.61,45.02 371.76,38.9 368.16,33.15L367.66,35.12C366.48,33.5 366.64,25.49 369.76,29.24C372.77,33.42 374,38.73 377.23,42.89C379.83,41.77 378.85,39.77 378.42,37.62C376.69,32.21 377.07,26.67 376.11,21.1C376.05,18.75 380.01,18.19 380.59,20.36C382.09,26.48 383.59,32.74 384.35,39C388.41,34.31 384.13,23.41 386.74,17.72C389.07,15 389.71,16.01 391.71,18.3Z" style="fill:rgb(211,180,166);fill-rule:nonzero;"/>
                <path d="M633,28.98C638.82,33.2 643.43,39.33 645.86,46.11C645.57,49.14 643.14,52.22 641.99,55.07C639.9,51.38 635.56,52.89 632.08,50.35C629.87,54.83 627.51,58.83 627.97,64.03C628.59,67.79 624.43,69 627.07,72.07C626.26,77.07 625.82,82.49 624.26,87.29C622.32,89.89 621.72,84.73 620.92,83.59C622.98,73.56 624.45,63.22 624.02,52.96C625.88,58.4 625.19,56.69 628.16,53.23C628.04,47.57 625.22,39.82 628.05,34.32C632.8,38.37 631.94,29.79 628,30.78C629.49,29.58 630.97,27.32 633,28.98Z" style="fill:rgb(181,150,141);fill-rule:nonzero;"/>
                <path d="M628,30.78C631.94,29.79 632.8,38.37 628.05,34.32C625.22,39.82 628.04,47.57 628.16,53.23C625.19,56.69 625.88,58.4 624.02,52.96C621.76,48.92 620.25,44.78 620.09,40.11C621.03,36.34 625.35,33.44 628,30.78Z" style="fill:rgb(144,117,113);fill-rule:nonzero;"/>
                <path d="M368.16,33.15C371.76,38.9 374.61,45.02 378.42,50.63C381.06,53.89 378.44,59.01 379.29,62.83C380.63,67.65 379.57,72 382.75,76.25C383.17,77.47 383.6,78.68 384.07,79.89C383.64,84.21 385.22,87.9 385.83,92.05C384.39,102.75 393.22,114.12 391.06,125C391.04,127.59 391.69,130.22 392.01,132.79C390.1,132.54 390.23,131.95 389.59,134.12C385.09,116.97 380.78,100.94 380.98,82.99C381.39,71.82 373.73,64.01 374.02,53C374.32,45.83 370.15,41.38 367.66,35.12L368.16,33.15Z" style="fill:rgb(169,148,142);fill-rule:nonzero;"/>
                <path d="M632.08,50.35C635.56,52.89 639.9,51.38 641.99,55.07C642.06,58.47 642.11,61.82 641.47,65.17C640.7,63.24 641.58,61.18 638.75,62.6C638.62,66.89 638.09,70.35 636.52,74.39C635.3,79.97 636.3,91.55 633.3,96.2C632.1,102.37 629.13,104.28 627.8,110.74C624.14,112.83 623.82,120.3 619.56,120.05C620.24,115.23 618.7,109.47 621.31,105.37C625.18,97.7 625.55,89.62 627.46,81.38C627.84,78.65 630.18,73.94 627.07,72.07C624.43,69 628.59,67.79 627.97,64.03C627.51,58.83 629.87,54.83 632.08,50.35Z" style="fill:rgb(221,182,164);fill-rule:nonzero;"/>
                <path d="M391.52,57.28C390.84,62.04 394.27,65.05 396.13,69.67C396.68,69.48 397.23,69.29 397.78,69.07C398.36,75.69 399.87,82.31 401.23,88.82C400.23,92.38 400.09,93.82 401.84,97.13C407.07,106.86 410.99,117.16 416.07,126.96L416.02,128.89C412.3,125.8 412.04,129.29 408.99,131.13C407.51,128.69 406.9,123.13 402.77,124.94C399.03,120.98 400.55,114.77 396.64,111.37C395.35,109.38 390.98,107.81 393.03,105.2C393.76,102.58 392.95,97.42 389.08,98.53C391.81,93.75 387.72,91.93 386.7,87.37C385.98,84.72 385.76,82.18 384.07,79.89C383.6,78.68 383.17,77.47 382.75,76.25C383.69,72.68 383.69,70.36 382.11,67C383.62,63.73 384.22,64.36 387.04,65.65C387.88,63.54 386.37,60.73 387.9,58.93C389.29,57.48 389.62,54.25 391.52,57.28Z" style="fill:rgb(236,202,180);fill-rule:nonzero;"/>
                <path d="M641.47,65.17C639.21,74.54 640.69,83.79 639.44,93.15C639.11,92.44 638.76,91.74 638.4,91.04C636,99.67 630.55,107.65 628.37,116.54C625.65,121.39 625.05,126.09 619.5,128.55C616.4,132.93 619.52,136.59 613.14,139.11C614.78,133.37 612.87,127.68 619.1,124.67C617.16,124.35 615.2,124.13 613.28,123.7C612.89,120.75 612.88,117.74 612.66,114.77C614.18,103.28 616.42,94.26 620.92,83.59C621.72,84.73 622.32,89.89 624.26,87.29C625.82,82.49 626.26,77.07 627.07,72.07C630.18,73.94 627.84,78.65 627.46,81.38C625.55,89.62 625.18,97.7 621.31,105.37C618.7,109.47 620.24,115.23 619.56,120.05C623.82,120.3 624.14,112.83 627.8,110.74C629.13,104.28 632.1,102.37 633.3,96.2C636.3,91.55 635.3,79.97 636.52,74.39C638.09,70.35 638.62,66.89 638.75,62.6C641.58,61.18 640.7,63.24 641.47,65.17Z" style="fill:rgb(207,174,154);fill-rule:nonzero;"/>
                <path d="M522.84,80.19C527.91,87.02 533.01,91.45 535.91,100.03C535.64,103.01 534.97,105.93 534.83,108.93L533.97,109.1C532.88,104.6 536.6,95.93 529.06,96.79L527.81,95.83C526.17,94.47 524.59,93.18 523.24,91.52C524.88,90.62 528.16,90.21 526.41,87.64C525.36,84.31 521.73,85.61 519.92,83.55C518.89,80.37 514.06,80.27 511.23,79.5C509.26,81.1 507.69,82.98 505.4,84.19C509.59,78.13 501.53,79.12 497.89,79.84C494.92,81.57 491.32,83.65 489.7,86.8C486.67,89.07 485.26,92.86 482.98,95.87C484.68,97.47 486.51,97.34 485.54,100.13C483.57,101.27 481.94,102.36 479.61,102.48C479.96,105.56 479.88,108.47 479.71,111.55C483.15,112.51 480.1,114.09 479.53,116.26C476.5,111.83 477.4,106.27 477.78,101.26C483.24,94.01 483.98,86.64 492.16,81.14C501.29,74.01 513.42,73.33 522.84,80.19Z" style="fill:rgb(178,166,144);fill-rule:nonzero;"/>
                <path d="M505.4,84.19C507.69,82.98 509.26,81.1 511.23,79.5C514.06,80.27 518.89,80.37 519.92,83.55C521.73,85.61 525.36,84.31 526.41,87.64C528.16,90.21 524.88,90.62 523.24,91.52C524.59,93.18 526.17,94.47 527.81,95.83C526.23,99.14 525.3,99.32 521.88,100.52C520.91,103.39 520.3,100.35 519.06,99.42C516.42,95.17 521.87,98.61 523.95,97.92C523.57,93.23 518.66,90.87 515.25,88.46C516.27,87.1 517.47,87.71 518.96,87.54C516.74,85.51 513.61,86.17 516.73,82.86C509.62,81.01 507,85.86 501.13,88.8L502.14,90.2C499.91,95.76 500.48,85.86 496.85,87.68C491.55,88 499.58,85.26 499.06,83.32C495.69,83.25 493.06,85.71 489.7,86.8C491.32,83.65 494.92,81.57 497.89,79.84C501.53,79.12 509.59,78.13 505.4,84.19Z" style="fill:rgb(114,97,69);fill-rule:nonzero;"/>
                <path d="M384.07,79.89C385.76,82.18 385.98,84.72 386.7,87.37C387.72,91.93 391.81,93.75 389.08,98.53C392.95,97.42 393.76,102.58 393.03,105.2C390.98,107.81 395.35,109.38 396.64,111.37C400.55,114.77 399.03,120.98 402.77,124.94C405.26,128.79 407.25,132.65 409.21,136.78C414.11,138.32 415.24,141.11 418.12,144.9C422.48,146.95 426.76,148.22 430.09,151.99C432.96,155.15 437.08,154.83 436.96,160.11C433.6,157.43 430.46,154.43 427.05,151.83C418.85,145.78 410.61,149.56 402.28,143.7C398.09,140.73 395.09,136.81 392.01,132.79C391.69,130.22 391.04,127.59 391.06,125C393.22,114.12 384.39,102.75 385.83,92.05C385.22,87.9 383.64,84.21 384.07,79.89Z" style="fill:rgb(216,179,157);fill-rule:nonzero;"/>
                <path d="M516.73,82.86C513.61,86.17 516.74,85.51 518.96,87.54C517.47,87.71 516.27,87.1 515.25,88.46C518.66,90.87 523.57,93.23 523.95,97.92C521.87,98.61 516.42,95.17 519.06,99.42C517.01,98.45 515.33,97.25 512.97,97.31C512.92,100.17 517.05,102.55 512.5,103.63C510.44,100.47 511.28,98.49 508.99,103.2C506.83,96.01 506.03,107.03 501.32,104.1C501.44,102.28 504.19,98.95 501,98.84C498.46,98.28 505.51,97.11 503.2,95.7C499.54,94.58 495.73,94.07 492.15,92.64C493.51,89.25 499.69,95.07 502.39,93.37C505.18,92.96 502.77,91.56 502.14,90.2L501.13,88.8C507,85.86 509.62,81.01 516.73,82.86Z" style="fill:rgb(51,36,21);fill-rule:nonzero;"/>
                <path d="M499.06,83.32C499.58,85.26 491.55,88 496.85,87.68C500.48,85.86 499.91,95.76 502.14,90.2C502.77,91.56 505.18,92.96 502.39,93.37C499.69,95.07 493.51,89.25 492.15,92.64C495.73,94.07 499.54,94.58 503.2,95.7C505.51,97.11 498.46,98.28 501,98.84C504.19,98.95 501.44,102.28 501.32,104.1C498.78,108.83 502.43,107.68 505.37,106.66C508.02,106.46 507.51,112.71 511,110.01C515.98,107.25 515.31,113.71 520.64,114.35C521.48,109.74 525.73,116.36 526.57,111.63C527.96,106.72 529.67,110.2 532.07,112C531.82,113.82 534.97,121.23 531.1,117.34C530.45,121.14 530.28,123.68 532.07,127.2L531.09,128.21C526.45,133.32 519.39,126.62 516.28,132.38C515.09,133.58 510.41,134.26 510.06,131.94C511.42,128.59 511.72,124.22 516.02,127.7C515.68,125.69 515.18,123.68 514.74,121.67C515.13,121.15 515.54,120.64 515.95,120.15C515.12,127.93 521.78,122.72 525.96,124.46C529.05,120.9 525.01,119.7 521.92,119.82C522.35,119.7 526.39,117.62 524.42,117.51C520.76,117.68 514.31,113.19 512.39,117.37C509.21,122.01 508.83,114.16 503.89,115.17C500.22,111.24 496.39,113.09 494.21,107.75C490.92,105.49 499.15,104.36 496.2,103.4C490.86,104.03 495.94,99.71 497.93,98.96C495.45,99.43 484.76,100.74 488.49,104.86C486.66,107.1 484.22,108.72 482.49,111.08C480.43,105.85 486.29,104.78 485.54,100.13C486.51,97.34 484.68,97.47 482.98,95.87C485.26,92.86 486.67,89.07 489.7,86.8C493.06,85.71 495.69,83.25 499.06,83.32Z" style="fill:rgb(74,56,37);fill-rule:nonzero;"/>
                <path d="M401.23,88.82C405.45,101.51 413.63,113.85 416.07,126.96C410.99,117.16 407.07,106.86 401.84,97.13C400.09,93.82 400.23,92.38 401.23,88.82Z" style="fill:rgb(240,223,207);fill-rule:nonzero;"/>
                <path d="M638.4,91.04C638.76,91.74 639.11,92.44 639.44,93.15C638.84,102.89 637.13,112.45 635.49,122.05C633.2,120.42 632.72,128.07 628.33,128.12C628.9,124.17 630.42,120.6 631.69,116.86C625.72,118.97 628.26,128.3 622.21,129.31C622.71,135.07 622.98,139.11 617.02,142.03C613.44,142.5 611.74,142.04 609.1,145.09C609.63,142.45 611.44,141.01 613.14,139.11C619.52,136.59 616.4,132.93 619.5,128.55C625.05,126.09 625.65,121.39 628.37,116.54C630.55,107.65 636,99.67 638.4,91.04Z" style="fill:rgb(194,161,141);fill-rule:nonzero;"/>
                <path d="M527.81,95.83L529.06,96.79C531.37,99.37 534.66,102.86 528.71,102.9C527.81,104.65 532.5,108.91 532.07,112C529.67,110.2 527.96,106.72 526.57,111.63C525.73,116.36 521.48,109.74 520.64,114.35C515.31,113.71 515.98,107.25 511,110.01C507.51,112.71 508.02,106.46 505.37,106.66C502.43,107.68 498.78,108.83 501.32,104.1C506.03,107.03 506.83,96.01 508.99,103.2C511.28,98.49 510.44,100.47 512.5,103.63C517.05,102.55 512.92,100.17 512.97,97.31C515.33,97.25 517.01,98.45 519.06,99.42C520.3,100.35 520.91,103.39 521.88,100.52C525.3,99.32 526.23,99.14 527.81,95.83Z" style="fill:rgb(98,79,54);fill-rule:nonzero;"/>
                <path d="M529.06,96.79C536.6,95.93 532.88,104.6 533.97,109.1C532.54,113.63 535.09,116.76 535.45,121.21C534.87,123.59 533.95,125.57 532.07,127.2C530.28,123.68 530.45,121.14 531.1,117.34C534.97,121.23 531.82,113.82 532.07,112C532.5,108.91 527.81,104.65 528.71,102.9C534.66,102.86 531.37,99.37 529.06,96.79Z" style="fill:rgb(137,112,94);fill-rule:nonzero;"/>
                <path d="M497.93,98.96C495.94,99.71 490.86,104.03 496.2,103.4C499.15,104.36 490.92,105.49 494.21,107.75C496.39,113.09 500.22,111.24 503.89,115.17C508.83,114.16 509.21,122.01 512.39,117.37C514.31,113.19 520.76,117.68 524.42,117.51C526.39,117.62 522.35,119.7 521.92,119.82C519.94,119.89 517.92,119.92 515.95,120.15C515.54,120.64 515.13,121.15 514.74,121.67C511.46,121.46 507.57,122.75 504.23,123.24C504.36,126.64 506.63,130.4 507.51,133.8C503.22,134.97 498.22,136.07 495.8,131.22C494.27,129.26 492.31,121.46 489.21,125.62C488.92,123.98 488.89,122.46 488.18,120.93C484.64,118.06 483.62,115.4 482.49,111.08C484.22,108.72 486.66,107.1 488.49,104.86C484.76,100.74 495.45,99.43 497.93,98.96Z" style="fill:rgb(42,28,19);fill-rule:nonzero;"/>
                <path d="M485.54,100.13C486.29,104.78 480.43,105.85 482.49,111.08C483.62,115.4 484.64,118.06 488.18,120.93C488.09,123.7 487.88,126.46 487.72,129.23C487.13,122.05 483.74,120.94 479.53,116.26C480.1,114.09 483.15,112.51 479.71,111.55C479.88,108.47 479.96,105.56 479.61,102.48C481.94,102.36 483.57,101.27 485.54,100.13Z" style="fill:rgb(129,113,94);fill-rule:nonzero;"/>
                <path d="M533.97,109.1L534.83,108.93C535.13,113.32 536.76,117.09 535.45,121.21C535.09,116.76 532.54,113.63 533.97,109.1Z" style="fill:rgb(208,186,180);fill-rule:nonzero;"/>
                <path d="M612.66,114.77C612.88,117.74 612.89,120.75 613.28,123.7C615.2,124.13 617.16,124.35 619.1,124.67C612.87,127.68 614.78,133.37 613.14,139.11C611.44,141.01 609.63,142.45 609.1,145.09C608.82,146.04 608.51,146.98 608.16,147.9L607.91,147.04C607.26,145.07 600.55,148.5 598.83,148.92C595.98,150.79 591.99,147.94 589.5,149.49C585.94,153.83 577.73,152.64 573.86,149.13C569.76,149.1 566.8,149.65 562.96,147.74C567.09,145.22 570.41,147.63 574.85,146.79C579.09,146.39 582.74,144.55 586.81,143.55C586.16,141.71 584.14,141.03 586.27,139.3C591.23,135.93 595.85,132.21 600.66,128.66C604.65,125.73 613.34,126.91 611.97,119.93C612.12,118.2 612.32,116.48 612.66,114.77Z" style="fill:rgb(230,186,159);fill-rule:nonzero;"/>
                <path d="M631.69,116.86C630.42,120.6 628.9,124.17 628.33,128.12C632.72,128.07 633.2,120.42 635.49,122.05C635.16,123.76 634.81,125.45 634.29,127.1C628.24,128.04 631.15,132.97 626.7,135.67C622.18,139.04 619.86,143.96 614.82,146.84C612.15,148.8 608.32,148.9 607.17,152.13C604.88,157.16 600.34,159.55 597.09,164.09C592.05,171.19 583.48,168.37 578.93,175.95C575.6,179.21 578.94,180.82 579.97,184.24L579.84,186.27C577.35,187.05 575.06,182.64 574.04,180.88C575.6,171.22 582.36,167.33 588.96,160.91C590.04,162.25 590.93,163.7 592.01,165.04C596.77,160.95 603.09,156.52 606.14,151.04C606.83,149.99 607.54,148.99 608.16,147.9C608.51,146.98 608.82,146.04 609.1,145.09C611.74,142.04 613.44,142.5 617.02,142.03C622.98,139.11 622.71,135.07 622.21,129.31C628.26,128.3 625.72,118.97 631.69,116.86Z" style="fill:rgb(175,135,115);fill-rule:nonzero;"/>
                <path d="M515.95,120.15C517.92,119.92 519.94,119.89 521.92,119.82C525.01,119.7 529.05,120.9 525.96,124.46C521.78,122.72 515.12,127.93 515.95,120.15Z" style="fill:rgb(123,103,76);fill-rule:nonzero;"/>
                <path d="M611.97,119.93C613.34,126.91 604.65,125.73 600.66,128.66C595.85,132.21 591.23,135.93 586.27,139.3C584.14,141.03 586.16,141.71 586.81,143.55C582.74,144.55 579.09,146.39 574.85,146.79C570.41,147.63 567.09,145.22 562.96,147.74C560.33,148.83 557.72,149.93 555.14,151.12C554.4,151.37 553.67,151.61 552.93,151.86L552,151.77C544.49,151.54 534.78,147.8 531.41,140.6C530.45,139.02 531.41,137.25 531.85,135.67C533.86,145.65 547.76,153.69 556.89,147.9C564.45,144.83 571.96,144.78 579.74,142.69C585.99,136.61 593.02,132.86 600.24,127.2C604.35,123.7 609.11,124.6 611.97,119.93Z" style="fill:rgb(243,222,202);fill-rule:nonzero;"/>
                <path d="M488.18,120.93C488.89,122.46 488.92,123.98 489.21,125.62C492.31,121.46 494.27,129.26 495.8,131.22C498.22,136.07 503.22,134.97 507.51,133.8C506.63,130.4 504.36,126.64 504.23,123.24C507.57,122.75 511.46,121.46 514.74,121.67C515.18,123.68 515.68,125.69 516.02,127.7C511.72,124.22 511.42,128.59 510.06,131.94C510.41,134.26 515.09,133.58 516.28,132.38C519.39,126.62 526.45,133.32 531.09,128.21L531.01,129.99C528.46,131.71 525.64,132.73 522.81,133.85C520.94,134.28 519.09,134.77 517.23,135.22C512.8,134.74 509.59,135.12 505.38,136.42C501.82,137.74 499.06,135.25 495.2,135.06C494.81,137.03 496.46,139.91 493.8,140.54C492.64,136.12 488.93,133.35 487.72,129.23C487.88,126.46 488.09,123.7 488.18,120.93Z" style="fill:rgb(105,77,59);fill-rule:nonzero;"/>
                <path d="M408.99,131.13C412.04,129.29 412.3,125.8 416.02,128.89C418.55,138.04 428.61,138.61 435.4,143.58C441.27,148.09 447.99,150.32 455.19,151.69C452.61,152.11 449.56,153.95 447.13,152.63C445.36,158.37 446.99,159.9 448.96,164.92C445.34,165.2 444.04,163.5 442.3,160.72C435.6,158.85 438.39,151.74 430.09,151.99C426.76,148.22 422.48,146.95 418.12,144.9C415.24,141.11 414.11,138.32 409.21,136.78C407.25,132.65 405.26,128.79 402.77,124.94C406.9,123.13 407.51,128.69 408.99,131.13Z" style="fill:rgb(237,192,165);fill-rule:nonzero;"/>
                <path d="M416.07,126.96C418.6,130.47 420.13,133.77 424.44,135.49C432.65,138.28 438.92,143.88 446.99,147.03C457.9,153.14 471.83,147.22 482.18,151.73C472.81,152.7 464.58,153.87 455.19,151.69C447.99,150.32 441.27,148.09 435.4,143.58C428.61,138.61 418.55,138.04 416.02,128.89L416.07,126.96Z" style="fill:rgb(248,228,205);fill-rule:nonzero;"/>
                <path d="M634.29,127.1C633.41,130.16 632.24,133.67 630.07,136.05C619.91,144.23 612.48,154.29 603.76,163.76C594.79,172.72 583.76,172.87 579.97,184.24C578.94,180.82 575.6,179.21 578.93,175.95C583.48,168.37 592.05,171.19 597.09,164.09C600.34,159.55 604.88,157.16 607.17,152.13C608.32,148.9 612.15,148.8 614.82,146.84C619.86,143.96 622.18,139.04 626.7,135.67C631.15,132.97 628.24,128.04 634.29,127.1Z" style="fill:rgb(142,116,106);fill-rule:nonzero;"/>
                <path d="M531.01,129.99L531.32,131.78C528.45,133.22 526.07,133.98 522.81,133.85C525.64,132.73 528.46,131.71 531.01,129.99Z" style="fill:rgb(168,141,116);fill-rule:nonzero;"/>
                <path d="M392.01,132.79C392.3,134.78 392.88,136.3 393.92,138.01C392.87,145.47 398.18,146.4 403.88,148.17C408.88,150.17 411.13,155.79 415.96,158.07C421.52,160.87 425.33,165.79 430.98,168.61C432.8,167.7 429.59,164.29 429.29,162.9C433.78,164.56 435.58,167.17 437.91,171.12C445.91,178.31 454.73,179.19 465.01,179.94C468.13,178.97 472.69,184.91 471.37,179.03C477.74,180.79 472.29,188.96 469.04,191.46C464.9,183.73 458.38,183.48 450.83,181.24C430.18,177.38 414.49,160.18 396.78,149.23C391.05,146.63 391.16,139.4 389.59,134.12C390.23,131.95 390.1,132.54 392.01,132.79Z" style="fill:rgb(122,102,99);fill-rule:nonzero;"/>
                <path d="M531.32,131.78C531.58,133.07 531.74,134.37 531.85,135.67C531.41,137.25 530.45,139.02 531.41,140.6C534.78,147.8 544.49,151.54 552,151.77C551.36,154.77 549.54,156.9 548.45,159.68C543.88,159.79 540.08,157.99 535.49,160.18C537.3,164.59 534.99,169.75 530.91,171.84C529.18,169.42 528.27,168.61 525.57,167.46C523.37,163.86 522.2,162.52 518.44,160.51C517.69,157.87 518.15,154.85 517.77,152.12C515.04,151.13 513.36,156.47 511.24,157.86C509.83,151.13 507.15,143.15 510.87,136.83C513,136.32 515.12,135.81 517.23,135.22C519.09,134.77 520.94,134.28 522.81,133.85C526.07,133.98 528.45,133.22 531.32,131.78Z" style="fill:rgb(240,189,161);fill-rule:nonzero;"/>
                <path d="M392.01,132.79C395.09,136.81 398.09,140.73 402.28,143.7C410.61,149.56 418.85,145.78 427.05,151.83C430.47,159.25 439.46,165.12 445.69,170.33C448.45,172.32 451.27,174.47 454.87,173.91C455.22,170.26 453.91,167.04 455.02,163.42C460.3,166.32 464.92,169.51 469.47,173.45C475.36,172.7 477.24,178.76 483.21,180.16C482.2,183.05 486.21,183.16 484.93,186.88C484.13,192.17 478.06,189.43 475.97,192.26C479.65,192.34 480.81,195.29 481.7,198.36C482.91,202.24 488.01,207.29 492.4,205.44C496.54,203.75 497.06,212.72 501.2,208.17C499.91,213.72 497.79,218.91 493.79,223.06C490.5,223.4 494.21,219.5 494.47,218.04C493.71,216.41 492.39,214.96 491.41,213.45C492.59,212.78 493.69,212.96 493.88,211.37C486.73,211.49 483.67,204.12 479.24,199.77C476.55,196.47 471.54,194.28 474.32,189.37C477.53,188.19 482.47,189.64 481.46,184.39C480.6,182.04 476.77,180.14 475.24,177.76C471.58,173.12 466.7,178.55 463.29,172.6C458.68,170.49 459.21,173.08 458.66,176.8C451.99,177.79 446.15,175.23 441.71,170.36C435.36,167.52 432.41,157.71 425.54,156.93C425.7,160.53 426.72,162.5 422.6,159.41C415.12,153.06 406.62,147.18 397.48,143.52C396.11,141.85 395.05,139.86 393.92,138.01C392.88,136.3 392.3,134.78 392.01,132.79Z" style="fill:rgb(183,140,121);fill-rule:nonzero;"/>
                <path d="M495.2,135.06C499.06,135.25 501.82,137.74 505.38,136.42C509.59,135.12 512.8,134.74 517.23,135.22C515.12,135.81 513,136.32 510.87,136.83C501.76,135.2 505.82,147.87 499.5,152.3C497.89,148.23 495.38,144.61 493.8,140.54C496.46,139.91 494.81,137.03 495.2,135.06Z" style="fill:rgb(165,134,109);fill-rule:nonzero;"/>
                <path d="M510.87,136.83C507.15,143.15 509.83,151.13 511.24,157.86C513.36,156.47 515.04,151.13 517.77,152.12C518.15,154.85 517.69,157.87 518.44,160.51C522.2,162.52 523.37,163.86 525.57,167.46C528.27,168.61 529.18,169.42 530.91,171.84C534.99,169.75 537.3,164.59 535.49,160.18C540.08,157.99 543.88,159.79 548.45,159.68C549.54,156.9 551.36,154.77 552,151.77C551.22,159.45 554.63,165.4 552.14,172.13C548.65,181.2 543.92,194.84 531.92,194.1C529.2,188.22 528.73,179.61 524.42,174.16C522.63,177.78 521.7,180.7 517.69,182.44C512.69,173.42 507.92,164.27 502.65,155.39C501.83,154.06 500.32,154.21 498.96,153.79L499.5,152.3C505.82,147.87 501.76,135.2 510.87,136.83Z" style="fill:rgb(228,172,143);fill-rule:nonzero;"/>
                <path d="M393.92,138.01C395.05,139.86 396.11,141.85 397.48,143.52C406.62,147.18 415.12,153.06 422.6,159.41C426.72,162.5 425.7,160.53 425.54,156.93C432.41,157.71 435.36,167.52 441.71,170.36C446.15,175.23 451.99,177.79 458.66,176.8C459.21,173.08 458.68,170.49 463.29,172.6C466.7,178.55 471.58,173.12 475.24,177.76C476.77,180.14 480.6,182.04 481.46,184.39C482.47,189.64 477.53,188.19 474.32,189.37C471.54,194.28 476.55,196.47 479.24,199.77C483.67,204.12 486.73,211.49 493.88,211.37C493.69,212.96 492.59,212.78 491.41,213.45C492.39,214.96 493.71,216.41 494.47,218.04C494.21,219.5 490.5,223.4 493.79,223.06C491.62,225.22 489.57,227.27 486.6,228.27C485.69,226.98 484.69,225.77 483.68,224.55C486.07,222.38 488.96,219.59 486.94,216.16C483.35,206.95 475.77,201.58 471.14,193.17L470.57,195.15C470.04,193.92 469.53,192.7 469.04,191.46C472.29,188.96 477.74,180.79 471.37,179.03C472.69,184.91 468.13,178.97 465.01,179.94C454.73,179.19 445.91,178.31 437.91,171.12C435.58,167.17 433.78,164.56 429.29,162.9C429.59,164.29 432.8,167.7 430.98,168.61C425.33,165.79 421.52,160.87 415.96,158.07C411.13,155.79 408.88,150.17 403.88,148.17C398.18,146.4 392.87,145.47 393.92,138.01Z" style="fill:rgb(156,121,107);fill-rule:nonzero;"/>
                <path d="M607.91,147.04C603.19,149.71 599.9,153.38 596.2,157.21C592.51,160.93 593.1,148.63 589.21,153.2C584.91,157.42 579.39,154.24 575.29,158.2C574.33,160.27 581.26,159.35 579.32,161.43C578.12,166.4 570.5,166.25 566.62,168.16C566.39,171.01 567.95,171.87 564.15,172.13C563.83,170.98 563.5,169.83 563.16,168.69L563.03,167.72C562.97,165.47 560.94,154.11 557.69,155.89C556.89,154.27 556.04,152.68 555.14,151.12C557.72,149.93 560.33,148.83 562.96,147.74C566.8,149.65 569.76,149.1 573.86,149.13C577.73,152.64 585.94,153.83 589.5,149.49C591.99,147.94 595.98,150.79 598.83,148.92C600.55,148.5 607.26,145.07 607.91,147.04Z" style="fill:rgb(227,173,142);fill-rule:nonzero;"/>
                <path d="M607.91,147.04L608.16,147.9C607.54,148.99 606.83,149.99 606.14,151.04C600.7,153.18 597.99,159.82 592.37,160.57C590.5,158.48 591,154.67 587.67,157.59C583.04,159.4 583.21,162.16 580.75,165.74C577.18,168.74 572.64,169.54 570.05,174.12C569.18,178.38 572.3,181.3 573.84,185.03C570.62,187.91 569.09,194.75 564.01,194.26C564.03,186.88 563.86,179.5 564.15,172.13C567.95,171.87 566.39,171.01 566.62,168.16C570.5,166.25 578.12,166.4 579.32,161.43C581.26,159.35 574.33,160.27 575.29,158.2C579.39,154.24 584.91,157.42 589.21,153.2C593.1,148.63 592.51,160.93 596.2,157.21C599.9,153.38 603.19,149.71 607.91,147.04Z" style="fill:rgb(210,155,128);fill-rule:nonzero;"/>
                <path d="M555.14,151.12C556.04,152.68 556.89,154.27 557.69,155.89C559.58,160.52 560.58,165.35 561.71,170.19C562.05,173.4 562.1,176.57 561.74,179.77C560.54,184.04 561.05,188.02 561.01,192.42C557.68,184.04 563.39,174.12 557.38,166.06C556.39,169.67 556.54,173.07 553.92,175.94C555.82,168.16 554.25,159.63 552.93,151.86C553.67,151.61 554.4,151.37 555.14,151.12Z" style="fill:rgb(245,217,115);fill-rule:nonzero;"/>
                <path d="M606.14,151.04C603.09,156.52 596.77,160.95 592.01,165.04C590.93,163.7 590.04,162.25 588.96,160.91C582.36,167.33 575.6,171.22 574.04,180.88C575.06,182.64 577.35,187.05 579.84,186.27C579.52,189.59 578.99,192.94 578.35,196.21C578.16,194.78 577.94,193.37 577.68,191.96C575.12,196.59 574.86,201.28 569.2,203.26C564.2,206.66 568.37,209.64 567.58,214.67C568.89,217.87 571.18,219.82 567.13,222.32C564.96,218.04 565.06,213.84 563.74,209.23C564.09,204.24 564.01,199.26 564.01,194.26C569.09,194.75 570.62,187.91 573.84,185.03C572.3,181.3 569.18,178.38 570.05,174.12C572.64,169.54 577.18,168.74 580.75,165.74C583.21,162.16 583.04,159.4 587.67,157.59C591,154.67 590.5,158.48 592.37,160.57C597.99,159.82 600.7,153.18 606.14,151.04Z" style="fill:rgb(193,146,122);fill-rule:nonzero;"/>
                <path d="M427.05,151.83C430.46,154.43 433.6,157.43 436.96,160.11C440.51,162.82 445.81,169.56 450.71,167.77C453.1,166.41 450.44,161.47 451.08,159.08C463.32,161.13 470.32,171.04 481.09,174.97C486.25,177.67 486.31,170.71 491.88,174.1C493.48,175.48 500.01,181.69 499.35,175.84C501.48,187.23 505.47,196.49 501.2,208.17C497.06,212.72 496.54,203.75 492.4,205.44C488.01,207.29 482.91,202.24 481.7,198.36C480.81,195.29 479.65,192.34 475.97,192.26C478.06,189.43 484.13,192.17 484.93,186.88C486.21,183.16 482.2,183.05 483.21,180.16C477.24,178.76 475.36,172.7 469.47,173.45C464.92,169.51 460.3,166.32 455.02,163.42C453.91,167.04 455.22,170.26 454.87,173.91C451.27,174.47 448.45,172.32 445.69,170.33C439.46,165.12 430.47,159.25 427.05,151.83Z" style="fill:rgb(205,155,130);fill-rule:nonzero;"/>
                <path d="M430.09,151.99C438.39,151.74 435.6,158.85 442.3,160.72C444.04,163.5 445.34,165.2 448.96,164.92C446.99,159.9 445.36,158.37 447.13,152.63C449.56,153.95 452.61,152.11 455.19,151.69C464.58,153.87 472.81,152.7 482.18,151.73C486.36,153.58 489.98,155.85 494.71,156.09C494.8,157.04 494.9,158 495.01,158.95C493.25,157.63 493.26,155.91 492.15,158.97C494.42,164.74 498.05,169.58 499.35,175.84C500.01,181.69 493.48,175.48 491.88,174.1C486.31,170.71 486.25,177.67 481.09,174.97C470.32,171.04 463.32,161.13 451.08,159.08C450.44,161.47 453.1,166.41 450.71,167.77C445.81,169.56 440.51,162.82 436.96,160.11C437.08,154.83 432.96,155.15 430.09,151.99Z" style="fill:rgb(231,179,147);fill-rule:nonzero;"/>
                <path d="M552,151.77L552.93,151.86C554.25,159.63 555.82,168.16 553.92,175.94C548.21,184.86 547.19,194.86 534.63,196.62C520.47,196.9 516.97,186.34 511.21,175.93C507.96,168.27 503.76,160.58 498.96,153.79C500.32,154.21 501.83,154.06 502.65,155.39C507.92,164.27 512.69,173.42 517.69,182.44C520.56,188.77 524.62,193.37 531.92,194.1C543.92,194.84 548.65,181.2 552.14,172.13C554.63,165.4 551.22,159.45 552,151.77Z" style="fill:rgb(143,68,24);fill-rule:nonzero;"/>
                <path d="M498.96,153.79C503.76,160.58 507.96,168.27 511.21,175.93C506.39,175.58 508.16,170.95 504.91,169.05C501.7,168.07 503.45,172.68 503.51,174.39C506.03,184.2 507.72,192.66 507.04,202.91C505.71,201.91 505.97,199.29 505.63,197.78C504.78,184.42 501.62,170.69 495.01,158.95C494.9,158 494.8,157.04 494.71,156.09C496.12,155.31 497.55,154.57 498.96,153.79Z" style="fill:rgb(249,223,113);fill-rule:nonzero;"/>
                <path d="M563.03,167.72C562.58,168.54 562.14,169.37 561.71,170.19C560.58,165.35 559.58,160.52 557.69,155.89C560.94,154.11 562.97,165.47 563.03,167.72Z" style="fill:rgb(151,83,34);fill-rule:nonzero;"/>
                <path d="M495.01,158.95C501.62,170.69 504.78,184.42 505.63,197.78C504.76,210.16 501.56,220.94 491.56,228.98C489.71,229.93 487.91,230.98 486.09,231.99C484.34,232.05 482.58,232.11 480.83,232.16C480.41,231.18 480.13,230.18 479.98,229.17C482.78,230.37 484.06,229.49 486.6,228.27C489.57,227.27 491.62,225.22 493.79,223.06C497.79,218.91 499.91,213.72 501.2,208.17C505.47,196.49 501.48,187.23 499.35,175.84C498.05,169.58 494.42,164.74 492.15,158.97C493.26,155.91 493.25,157.63 495.01,158.95Z" style="fill:rgb(126,55,20);fill-rule:nonzero;"/>
                <path d="M557.38,166.06C563.39,174.12 557.68,184.04 561.01,192.42C560.59,201.05 561.29,208.49 563.33,216.87L562.74,218.94C558.39,210.94 558.7,200.82 558.85,192.15C556.69,192.21 550.01,191.15 555.55,193.4C554.15,195.06 552.49,197.86 550.15,197.99C550.21,196.99 553.4,192.5 550.52,194.6C548.41,196.76 546.35,196.28 543.65,196.71C543.91,201.2 541.18,205.96 536.14,202.97C528.2,201.53 526.36,193.14 519.5,197.45C516.42,201.34 514.31,200.2 509.97,200.49C512.43,205.08 510.96,205.44 507.04,202.91C507.72,192.66 506.03,184.2 503.51,174.39C503.45,172.68 501.7,168.07 504.91,169.05C508.16,170.95 506.39,175.58 511.21,175.93C516.97,186.34 520.47,196.9 534.63,196.62C547.19,194.86 548.21,184.86 553.92,175.94C556.54,173.07 556.39,169.67 557.38,166.06Z" style="fill:rgb(241,227,87);fill-rule:nonzero;"/>
                <path d="M563.03,167.72L563.16,168.69C563.29,182.03 562.12,196.05 563.74,209.23C565.06,213.84 564.96,218.04 567.13,222.32C568.55,226.15 572.42,226.68 572.32,231.25C571.29,230.51 570.27,229.77 569.26,229.01C568.18,227.69 567.11,226.37 566.08,225.03C564.92,222.39 564.07,219.65 563.33,216.87C561.29,208.49 560.59,201.05 561.01,192.42C562.74,188.56 561.88,183.92 561.74,179.77C562.1,176.57 562.05,173.4 561.71,170.19C562.14,169.37 562.58,168.54 563.03,167.72Z" style="fill:rgb(108,45,10);fill-rule:nonzero;"/>
                <path d="M563.16,168.69C563.5,169.83 563.83,170.98 564.15,172.13C563.86,179.5 564.03,186.88 564.01,194.26C564.01,199.26 564.09,204.24 563.74,209.23C562.12,196.05 563.29,182.03 563.16,168.69Z" style="fill:rgb(171,92,74);fill-rule:nonzero;"/>
                <path d="M524.42,174.16C528.73,179.61 529.2,188.22 531.92,194.1C524.62,193.37 520.56,188.77 517.69,182.44C521.7,180.7 522.63,177.78 524.42,174.16Z" style="fill:rgb(213,155,124);fill-rule:nonzero;"/>
                <path d="M561.74,179.77C561.88,183.92 562.74,188.56 561.01,192.42C561.05,188.02 560.54,184.04 561.74,179.77Z" style="fill:rgb(192,143,62);fill-rule:nonzero;"/>
                <path d="M558.85,192.15C558.7,200.82 558.39,210.94 562.74,218.94L563.33,216.87C564.07,219.65 564.92,222.39 566.08,225.03C566.08,231.22 559.13,229.65 558.73,236.76C557.55,238.85 553.39,242.64 556.33,244.69C560.08,247.46 557.26,252.71 563.14,250.05C567.06,249.98 562.64,251.8 561.77,252.86C559.94,253.86 558.13,254.85 556.24,255.72C547.77,255.52 537.6,260.1 529.39,262.48C521.74,265.02 514.08,264.75 506.35,266.43C502.74,266.72 503.99,272.07 503.63,274.63C503.88,277.53 501.47,278.55 499.91,280.74L499.11,280.97C495.34,276.98 493.29,267.57 499.25,264.2C515.06,264.08 534.73,261.98 547.02,251.1C536.96,250.43 529.47,258.86 519.01,259.07C513.02,259.43 508.37,262.67 502.2,261.81C500.85,261.42 499.49,261.04 498.14,260.63C499.53,259.47 501,258.42 502.31,257.18C506.47,255.69 510.39,255.2 514.04,253.12C506.66,253.54 499.72,256.69 492.04,256C489.16,255.58 493.48,254.77 494.17,254.98C496.76,254.91 504.14,253.81 503.93,250.27C501.99,250.03 500.08,249.96 498.13,249.77C500.03,247.29 502.68,244.74 503.94,241.87C504.77,237.19 496.76,234.32 498.12,230.69C495.73,230.06 493.69,230.72 491.56,228.98C501.56,220.94 504.76,210.16 505.63,197.78C505.97,199.29 505.71,201.91 507.04,202.91C510.96,205.44 512.43,205.08 509.97,200.49C514.31,200.2 516.42,201.34 519.5,197.45C526.36,193.14 528.2,201.53 536.14,202.97C541.18,205.96 543.91,201.2 543.65,196.71C546.35,196.28 548.41,196.76 550.52,194.6C553.4,192.5 550.21,196.99 550.15,197.99C552.49,197.86 554.15,195.06 555.55,193.4C550.01,191.15 556.69,192.21 558.85,192.15Z" style="fill:rgb(229,223,77);fill-rule:nonzero;"/>
                <path d="M577.68,191.96C577.94,193.37 578.16,194.78 578.35,196.21C575.51,207.93 573.28,219.22 572.32,231.25C572.42,226.68 568.55,226.15 567.13,222.32C571.18,219.82 568.89,217.87 567.58,214.67C568.37,209.64 564.2,206.66 569.2,203.26C574.86,201.28 575.12,196.59 577.68,191.96Z" style="fill:rgb(167,137,123);fill-rule:nonzero;"/>
                <path d="M471.14,193.17C475.77,201.58 483.35,206.95 486.94,216.16C488.96,219.59 486.07,222.38 483.68,224.55C484.69,225.77 485.69,226.98 486.6,228.27C484.06,229.49 482.78,230.37 479.98,229.17C481.19,216.49 475,206.87 470.57,195.15L471.14,193.17Z" style="fill:rgb(132,110,103);fill-rule:nonzero;"/>
                <path d="M527.91,221.08C531.09,221.96 532.32,225.9 529.39,228C529.15,220.26 526.17,221.39 520.24,223.32C520.97,228.02 521.06,231.16 520.14,235.86C521.35,235.95 522.53,235.96 523.7,235.9C523.96,234.18 521.54,228.97 524.86,230.12C527.22,229.98 524.52,235.94 528.03,234.94C531.01,235.65 529.06,232.65 529.34,230.97C531.12,232.58 531.23,233.29 530.79,235.66C526.97,236.65 523.04,237.26 519.13,237.75C518.69,234.72 519.42,231.95 519.78,228.98C520.08,227.08 517.35,224.3 518.7,222.71C521.5,221.22 524.77,220.62 527.91,221.08Z" style="fill:rgb(197,173,44);fill-rule:nonzero;"/>
                <path d="M535.34,221.29C537.47,220.81 539.75,220.84 541.92,221.09C544.84,221.61 547.18,229.72 541.91,228.34C538.27,227.22 541.74,233.97 538.03,232.91C535.15,232.86 537.23,227.72 537.2,226.11C537.62,222.1 541.71,226.2 543.86,226.07C542.82,223.4 542.41,221.58 539,221.94C534.74,220.93 534.88,227.27 534.06,230.05C532.31,235.42 539.97,237.4 543.16,234.37C544.03,238.65 536.37,237.13 534.33,235.7C530.13,231.6 533.5,225.71 535.34,221.29Z" style="fill:rgb(200,174,50);fill-rule:nonzero;"/>
                <path d="M514.78,223.3C514.8,225.18 517.19,229.11 514.21,229.41C512.27,229.77 512.7,233.28 514.98,233.02C519.13,234.23 518.25,240.09 513.04,239.06C514.73,237.84 516.52,237.67 515.87,235.08C513.35,235.06 511.6,236.95 509.07,236.93C508.57,233.86 514.36,228.18 508.05,231.9C507.93,227.48 514.33,229.72 514.07,225.26C510.78,226.24 507.08,227.3 504.24,229.26C505.28,233.43 507.06,236.24 506.18,240.83C508.48,240.25 510.7,239.49 513.04,239.06C510.53,240.71 508.26,242.31 505.25,242.94C505.76,237.33 503.06,233.53 502.26,228.35C506.4,226.64 510.49,224.57 514.78,223.3Z" style="fill:rgb(198,174,49);fill-rule:nonzero;"/>
                <path d="M548.33,223.14C552.12,222.52 560.57,226.42 557.39,231.39C558.11,233.86 550.35,232.06 551.11,230.85C549.96,225.54 554.46,229.48 556.96,229.89C556.91,226.64 552.25,224.37 549.4,225.19C548.9,229.36 547.35,232.97 545.99,236.88C547.66,238.72 551.43,239.74 553.91,239.94C554.65,236.77 547.2,237.68 549.59,234.63C550.49,230.28 555.68,236.55 555.88,237.95C554.98,245.11 547.64,239.7 544.32,237.71C545.41,232.77 548.48,228.91 548.33,223.14Z" style="fill:rgb(199,174,51);fill-rule:nonzero;"/>
                <path d="M514.07,225.26C514.33,229.72 507.93,227.48 508.05,231.9C514.36,228.18 508.57,233.86 509.07,236.93C511.6,236.95 513.35,235.06 515.87,235.08C516.52,237.67 514.73,237.84 513.04,239.06C510.7,239.49 508.48,240.25 506.18,240.83C507.06,236.24 505.28,233.43 504.24,229.26C507.08,227.3 510.78,226.24 514.07,225.26Z" style="fill:rgb(232,210,83);fill-rule:nonzero;"/>
                <path d="M566.08,225.03C567.11,226.37 568.18,227.69 569.26,229.01C568.77,231.08 568.09,233.09 567.29,235.06C564.13,232.27 562.59,240.59 564,242.4C562.81,244.1 562.58,249.33 560.11,248.92C559.62,245.26 561.18,242.53 561.89,239.07C559.46,238.78 559.77,243.32 558.75,244.93C555.37,243.43 558.61,239.38 558.73,236.76C559.13,229.65 566.08,231.22 566.08,225.03Z" style="fill:rgb(207,193,69);fill-rule:nonzero;"/>
                <path d="M491.56,228.98C493.69,230.72 495.73,230.06 498.12,230.69C496.76,234.32 504.77,237.19 503.94,241.87C502.68,244.74 500.03,247.29 498.13,249.77C500.08,249.96 501.99,250.03 503.93,250.27C504.14,253.81 496.76,254.91 494.17,254.98C493.39,251.85 494.72,251.8 496.52,249.56C493.44,246.19 491.57,242.45 488.17,239.22C490.3,237.32 492.8,235.9 494.94,234C491.74,234.14 489.9,236.31 487.13,237.76C486.66,235.85 486.45,233.92 486.09,231.99C487.91,230.98 489.71,229.93 491.56,228.98Z" style="fill:rgb(199,186,62);fill-rule:nonzero;"/>
                <path d="M569.26,229.01C570.27,229.77 571.29,230.51 572.32,231.25C569.79,241.53 565.9,251.51 563.78,261.87L563.15,262.49C559.46,263.06 560.83,260.28 561.35,258.09C560.44,255.9 560.9,254.99 561.77,252.86C562.64,251.8 567.06,249.98 563.14,250.05C563.84,245.28 571.2,239.11 567.29,235.06C568.09,233.09 568.77,231.08 569.26,229.01Z" style="fill:rgb(177,178,87);fill-rule:nonzero;"/>
                <path d="M480.83,232.16C482.58,232.11 484.34,232.05 486.09,231.99C486.45,233.92 486.66,235.85 487.13,237.76C489.9,236.31 491.74,234.14 494.94,234C492.8,235.9 490.3,237.32 488.17,239.22C491.57,242.45 493.44,246.19 496.52,249.56C494.72,251.8 493.39,251.85 494.17,254.98C493.48,254.77 489.16,255.58 492.04,256C499.72,256.69 506.66,253.54 514.04,253.12C510.39,255.2 506.47,255.69 502.31,257.18C497.82,256.68 493.58,257.51 489.17,258.23C487.89,258.11 486.61,257.93 485.34,257.69C483,249.96 484.95,239.89 481.11,232.9L480.83,232.16Z" style="fill:rgb(157,161,49);fill-rule:nonzero;"/>
                <path d="M481.11,232.9C484.95,239.89 483,249.96 485.34,257.69C486.61,257.93 487.89,258.11 489.17,258.23L488.75,258.95C485.76,260.26 484.43,259.34 486,263.18C486.07,266.17 485.65,268.99 484.91,271.87C482.67,276.58 483.13,279.36 484.72,284.17C485.29,286.16 486.02,288.04 486.91,289.9C481.44,289.48 487.02,294.17 483.77,296.78C480.97,299.87 479.94,302.24 478.86,306.26C478.51,305.51 478.17,304.76 477.82,304C480.24,297.46 484.79,289.67 482.34,282.8C480.38,272.3 485.7,263.13 483.36,252.83C482.94,246.14 481.34,239.59 481.11,232.9Z" style="fill:rgb(201,209,125);fill-rule:nonzero;"/>
                <path d="M567.29,235.06C571.2,239.11 563.84,245.28 563.14,250.05C557.26,252.71 560.08,247.46 556.33,244.69C553.39,242.64 557.55,238.85 558.73,236.76C558.61,239.38 555.37,243.43 558.75,244.93C559.77,243.32 559.46,238.78 561.89,239.07C561.18,242.53 559.62,245.26 560.11,248.92C562.58,249.33 562.81,244.1 564,242.4C562.59,240.59 564.13,232.27 567.29,235.06Z" style="fill:rgb(178,165,44);fill-rule:nonzero;"/>
                <path d="M547.02,251.1C534.73,261.98 515.06,264.08 499.25,264.2C497.81,264.09 496.38,263.93 494.96,263.74C496.53,261.26 499.67,262.13 502.2,261.81C508.37,262.67 513.02,259.43 519.01,259.07C529.47,258.86 536.96,250.43 547.02,251.1Z" style="fill:rgb(241,241,87);fill-rule:nonzero;"/>
                <path d="M561.77,252.86C560.9,254.99 560.44,255.9 561.35,258.09C560.83,260.28 559.46,263.06 563.15,262.49C563.04,265.41 562.97,268.28 562.24,271.13C560.42,272.53 558.28,274.49 555.88,274.59C551.36,274.42 548.57,278.21 543.99,278.93C547.48,275.29 552.85,274.29 556.23,270.18C558.46,269.18 559.62,268.13 560.95,266.1C556.36,267.72 557.41,268.72 554.76,264.47C551.01,264.91 547.79,266.62 543.98,266.89C548.31,263.93 553.8,263.61 558.03,260.17C547.97,258.57 538.42,267.08 530.02,267.94C537.51,262.19 548.01,260.36 556.24,255.72C558.13,254.85 559.94,253.86 561.77,252.86Z" style="fill:rgb(206,210,65);fill-rule:nonzero;"/>
                <path d="M556.24,255.72C548.01,260.36 537.51,262.19 530.02,267.94C538.42,267.08 547.97,258.57 558.03,260.17C553.8,263.61 548.31,263.93 543.98,266.89C547.79,266.62 551.01,264.91 554.76,264.47C557.41,268.72 556.36,267.72 560.95,266.1C559.62,268.13 558.46,269.18 556.23,270.18C552.87,270.91 550.58,273.37 547.4,274.39C543.47,275.62 539.67,275.08 535.87,276.82C526.82,282.4 517.49,276.49 508.34,283.39C504.35,285.63 513.22,285.51 509.81,288.57C509.8,292.5 508.62,298.96 513.52,300.15C512.55,303.23 512.61,305.98 512.86,309.18C511.92,306.08 511.64,304.9 508.68,303.31C506.15,298.46 504.95,292.95 502.83,288.13C499.55,285.5 503.41,282.88 499.91,280.74C501.47,278.55 503.88,277.53 503.63,274.63C503.99,272.07 502.74,266.72 506.35,266.43C514.08,264.75 521.74,265.02 529.39,262.48C537.6,260.1 547.77,255.52 556.24,255.72Z" style="fill:rgb(238,241,86);fill-rule:nonzero;"/>
                <path d="M502.31,257.18C501,258.42 499.53,259.47 498.14,260.63C499.49,261.04 500.85,261.42 502.2,261.81C499.67,262.13 496.53,261.26 494.96,263.74C496.38,263.93 497.81,264.09 499.25,264.2C493.29,267.57 495.34,276.98 499.11,280.97C493.98,280.48 492.48,291.61 487.79,286.18C492.69,283.66 491.98,280.56 491.15,275.89C489.44,272.92 488.91,268.3 484.91,271.87C485.65,268.99 486.07,266.17 486,263.18C490.25,261.29 494.46,260.87 498,258.2C494.92,258.54 491.87,258.98 488.75,258.95L489.17,258.23C493.58,257.51 497.82,256.68 502.31,257.18Z" style="fill:rgb(201,208,67);fill-rule:nonzero;"/>
                <path d="M498,258.2C494.46,260.87 490.25,261.29 486,263.18C484.43,259.34 485.76,260.26 488.75,258.95C491.87,258.98 494.92,258.54 498,258.2Z" style="fill:rgb(159,164,41);fill-rule:nonzero;"/>
                <path d="M563.15,262.49L563.78,261.87C563.16,278.74 567.05,294.5 570.08,310.92C571.17,323.58 576.43,336.17 576.13,349.01C576.92,357.11 578.52,364.78 577.94,372.96L575.97,373.05L576.16,372.17C577.43,363.11 572.53,353.45 574.39,344.14C573.48,340.49 572.23,343.12 570.16,344C575.05,338.18 570.76,330.6 569.52,323.96C568.65,315.95 568.2,307.69 566.27,299.85C565.46,295.35 563.42,291.06 562.7,286.59C562.94,281.39 562.24,276.31 562.24,271.13C562.97,268.28 563.04,265.41 563.15,262.49Z" style="fill:rgb(227,231,155);fill-rule:nonzero;"/>
                <path d="M491.15,275.89C491.98,280.56 492.69,283.66 487.79,286.18C486.78,285.49 485.75,284.83 484.72,284.17C483.13,279.36 482.67,276.58 484.91,271.87C488.91,268.3 489.44,272.92 491.15,275.89Z" style="fill:rgb(173,187,62);fill-rule:nonzero;"/>
                <path d="M556.23,270.18C552.85,274.29 547.48,275.29 543.99,278.93C548.57,278.21 551.36,274.42 555.88,274.59C558.28,274.49 560.42,272.53 562.24,271.13C562.24,276.31 562.94,281.39 562.7,286.59C563.42,291.06 565.46,295.35 566.27,299.85C563.76,297.26 560.9,291.16 556.68,294.63C553.89,295.96 555.89,295.47 557.5,296.33C554.47,305.78 559.93,317.48 558.12,327.17C556.45,329.91 558.97,328.58 560.74,329.25C559.92,330.52 558.99,331.71 558.16,332.97C560.12,332.83 562.06,332.52 564.01,332.31C561.9,334.27 559.69,335.94 556.81,336.56C553.18,334.41 549.5,333.48 549.26,328.64C543.42,326.43 547.7,320.41 541.42,319.76C544.34,313.98 540.36,317.04 536.62,316.69C535.15,318.73 533.78,320.18 531.41,321.15C531.91,319.77 532.47,318.42 532.89,317.02C525.48,320.19 520.97,325.4 512.38,321.59C507.9,315.27 516.58,316.63 512.86,309.18C512.61,305.98 512.55,303.23 513.52,300.15C508.62,298.96 509.8,292.5 509.81,288.57C513.22,285.51 504.35,285.63 508.34,283.39C517.49,276.49 526.82,282.4 535.87,276.82C539.67,275.08 543.47,275.62 547.4,274.39C550.58,273.37 552.87,270.91 556.23,270.18Z" style="fill:rgb(236,242,100);fill-rule:nonzero;"/>
                <path d="M499.11,280.97L499.91,280.74C503.41,282.88 499.55,285.5 502.83,288.13C504.95,292.95 506.15,298.46 508.68,303.31C511.64,304.9 511.92,306.08 512.86,309.18C516.58,316.63 507.9,315.27 512.38,321.59C520.97,325.4 525.48,320.19 532.89,317.02C532.47,318.42 531.91,319.77 531.41,321.15C533.78,320.18 535.15,318.73 536.62,316.69C540.36,317.04 544.34,313.98 541.42,319.76C547.7,320.41 543.42,326.43 549.26,328.64C549.5,333.48 553.18,334.41 556.81,336.56C559.69,335.94 561.9,334.27 564.01,332.31C562.06,332.52 560.12,332.83 558.16,332.97C558.99,331.71 559.92,330.52 560.74,329.25C558.97,328.58 556.45,329.91 558.12,327.17C559.93,317.48 554.47,305.78 557.5,296.33C555.89,295.47 553.89,295.96 556.68,294.63C560.9,291.16 563.76,297.26 566.27,299.85C568.2,307.69 568.65,315.95 569.52,323.96C570.76,330.6 575.05,338.18 570.16,344C572.23,343.12 573.48,340.49 574.39,344.14C572.53,353.45 577.43,363.11 576.16,372.17C573.26,371.47 565.95,373.1 569.89,368.17C562.13,366.97 555.69,369.98 548.15,370.55C544.62,369.74 541.6,370.93 538.06,371.02C539.35,370.16 540.67,369.38 541.93,368.46C537.99,367.83 537.16,367.15 537.45,363.25C539.23,362.45 541.18,361.93 543.02,361.26C540.66,361.05 538.3,360.94 535.94,360.69C538.42,358.5 544.99,359.81 545.75,358.05C541.01,357.45 536.71,359.22 532,358.96C537.9,353.92 543.93,357.3 550.84,354.85C554.65,353.8 558.91,353.72 562.02,351.11C552.91,353.22 544.77,355.39 535.42,352.71C535.18,351.78 534.97,350.84 534.78,349.89C541.88,350.42 549.26,351.61 556.09,348.18C552.61,347.79 549.4,348.74 545.96,348.86C547.25,347.97 548.61,347.25 550.06,346.64C551.79,346.03 553.42,345.28 555,344.34C549.31,345.94 545.24,336.79 541.16,333.86C537.91,331.12 535.01,325.33 535.58,321.02C534.71,321.87 533.88,322.67 533.32,323.77C532.08,326.05 530.99,328.41 530,330.8C526.57,336.86 517.1,332.14 512.63,335.81C513.85,340.24 508.99,339.28 506.06,339.97C502.97,340.2 505.26,336.48 502.1,338.36C499.79,335.96 501.39,330.58 502.97,328.34C501.27,320.97 506.96,310.07 502.25,303.88C501.68,299.03 496.67,299.36 495.79,293.58C496.42,288.11 490.26,290.54 486.91,289.9C486.02,288.04 485.29,286.16 484.72,284.17C485.75,284.83 486.78,285.49 487.79,286.18C492.48,291.61 493.98,280.48 499.11,280.97Z" style="fill:rgb(215,225,89);fill-rule:nonzero;"/>
                <path d="M482.34,282.8C484.79,289.67 480.24,297.46 477.82,304C478.64,296.8 481.64,290.13 482.34,282.8Z" style="fill:rgb(232,238,182);fill-rule:nonzero;"/>
                <path d="M486.91,289.9C490.26,290.54 496.42,288.11 495.79,293.58C496.67,299.36 501.68,299.03 502.25,303.88C506.96,310.07 501.27,320.97 502.97,328.34C501.39,330.58 499.79,335.96 502.1,338.36C505.26,336.48 502.97,340.2 506.06,339.97C508.99,339.28 513.85,340.24 512.63,335.81C517.1,332.14 526.57,336.86 530,330.8L530.23,331.72C529.62,333.56 528.92,335.37 528.12,337.14C524.26,339.47 519.44,338.29 516.17,341.17C513.55,343.5 510.38,344.79 507.85,347.27C506.94,347.49 506.03,347.72 505.14,347.99C500.11,349.34 493.74,346.73 489.97,343.33C491.32,343.42 492.66,343.58 494,343.68C488.67,339.29 482.89,335.65 477.01,332.06C484.03,332.17 489.21,339.74 495.65,339.96C496.2,335.73 492.86,335.04 489.98,333.04C485.33,330.29 480.52,328.32 475.1,327.8C475.95,326.16 476.42,324.74 476.45,322.88C479.16,324.11 481.96,325.12 484.71,326.26C488.25,327.42 489.56,331.38 493.01,332.99C498.47,330.98 499.33,321.59 495.49,317.64C494.28,316.13 496.73,316.94 496.92,315.67C498.35,312.06 495.32,309.88 494.61,305.93C494.2,301.75 491.23,298.69 488.69,295.15C485.05,297.26 479.09,303.65 483.92,308.06C487.36,311.6 480.36,307.88 478.98,307.86L478.86,306.26C479.94,302.24 480.97,299.87 483.77,296.78C487.02,294.17 481.44,289.48 486.91,289.9Z" style="fill:rgb(194,211,80);fill-rule:nonzero;"/>
                <path d="M488.69,295.15C491.23,298.69 494.2,301.75 494.61,305.93C495.32,309.88 498.35,312.06 496.92,315.67C496.73,316.94 494.28,316.13 495.49,317.64C499.33,321.59 498.47,330.98 493.01,332.99C489.56,331.38 488.25,327.42 484.71,326.26C481.96,325.12 479.16,324.11 476.45,322.88C477.46,318.14 476.76,312.07 478.98,307.86C480.36,307.88 487.36,311.6 483.92,308.06C479.09,303.65 485.05,297.26 488.69,295.15Z" style="fill:rgb(169,190,68);fill-rule:nonzero;"/>
                <path d="M477.82,304C478.17,304.76 478.51,305.51 478.86,306.26L478.98,307.86C476.76,312.07 477.46,318.14 476.45,322.88C476.42,324.74 475.95,326.16 475.1,327.8C474.28,328.52 473.48,329.24 472.67,329.96C474.47,321.47 475.24,312.26 477.82,304Z" style="fill:rgb(226,231,160);fill-rule:nonzero;"/>
                <path d="M535.58,321.02C535.01,325.33 537.91,331.12 541.16,333.86C545.24,336.79 549.31,345.94 555,344.34C553.42,345.28 551.79,346.03 550.06,346.64C543.56,346.93 534.09,338.8 532.39,332.71C533.07,329.27 534.97,327.69 533.32,323.77C533.88,322.67 534.71,321.87 535.58,321.02Z" style="fill:rgb(190,200,72);fill-rule:nonzero;"/>
                <path d="M533.32,323.77C534.97,327.69 533.07,329.27 532.39,332.71C534.09,338.8 543.56,346.93 550.06,346.64C548.61,347.25 547.25,347.97 545.96,348.86C549.4,348.74 552.61,347.79 556.09,348.18C549.26,351.61 541.88,350.42 534.78,349.89L533.85,349.68C535.92,348.46 542.23,349.81 542.75,348.2C537.78,348.26 533.85,346.83 529.4,344.84C533.05,342.48 530.69,335.32 530.23,331.72L530,330.8C530.99,328.41 532.08,326.05 533.32,323.77Z" style="fill:rgb(165,173,44);fill-rule:nonzero;"/>
                <path d="M475.1,327.8C480.52,328.32 485.33,330.29 489.98,333.04C492.86,335.04 496.2,335.73 495.65,339.96C489.21,339.74 484.03,332.17 477.01,332.06C482.89,335.65 488.67,339.29 494,343.68C492.66,343.58 491.32,343.42 489.97,343.33C493.74,346.73 500.11,349.34 505.14,347.99C508.2,348.99 511.15,350.31 514.2,351.33C507.89,353.65 501.64,349.8 496.06,352.74C490.13,351.47 486.21,347.58 481.07,344.97C482.62,347.53 484.96,348.84 486.97,350.96C480.84,346.88 474.24,350.98 474.27,343.24C473.39,338.16 477.83,344.25 479.9,343.88C479.39,340.16 475.02,338.91 474.34,334.8C475.01,332.15 474.52,331.85 472.67,329.96C473.48,329.24 474.28,328.52 475.1,327.8Z" style="fill:rgb(173,187,60);fill-rule:nonzero;"/>
                <path d="M472.67,329.96C474.52,331.85 475.01,332.15 474.34,334.8C473.26,339.37 472.87,344.13 472.02,348.76C471.9,353.63 471.73,358.16 470.85,362.98L470.55,364.92C470.05,367.95 469.79,371.02 469.29,374.05L469.17,375.01C468.81,379.75 469.15,384.49 468.74,389.23C465.81,371.04 471.58,348.27 472.67,329.96Z" style="fill:rgb(221,223,166);fill-rule:nonzero;"/>
                <path d="M530.23,331.72C530.69,335.32 533.05,342.48 529.4,344.84C533.85,346.83 537.78,348.26 542.75,348.2C542.23,349.81 535.92,348.46 533.85,349.68C528.55,349.76 529.8,356.28 528.7,359.91C528.11,358.91 527.57,357.89 527.01,356.87C526.19,353.24 526.03,349.6 525.76,345.9C524.77,342.29 526.91,340.3 528.12,337.14C528.92,335.37 529.62,333.56 530.23,331.72Z" style="fill:rgb(119,119,16);fill-rule:nonzero;"/>
                <path d="M474.34,334.8C475.02,338.91 479.39,340.16 479.9,343.88C477.83,344.25 473.39,338.16 474.27,343.24C474.24,350.98 480.84,346.88 486.97,350.96C484.96,348.84 482.62,347.53 481.07,344.97C486.21,347.58 490.13,351.47 496.06,352.74C501.64,349.8 507.89,353.65 514.2,351.33C516.97,350.96 518.16,350.67 520.24,352.76C520.35,361.32 518.32,373.93 513.08,380.59C510.24,379.42 510.39,377.19 508.94,374.97C503.88,372.88 498,372.62 492.7,371.26L494.15,370.14C499.45,370.63 504.56,372.35 509.83,372.97C511.41,371.12 514.31,366.89 513.72,364.4C505.02,360.99 495.18,360.99 486.03,359.04C487.15,360.32 490.41,360.58 488.67,362.62C487.14,364.32 490.15,366.38 490.84,368.01C486.33,367.87 482.45,366.28 477.9,367.54C475.29,367.13 472.86,366.19 470.55,364.92L470.85,362.98C474.43,365.62 476.97,366.63 481.53,365.87C481.53,362.98 481.15,360.12 481.34,357.22C483.58,357.38 485.78,357.79 488.03,357.86C485.65,356.62 482.91,356.07 480.94,354.36C482.63,354.47 484.31,354.68 485.99,354.79C481.6,352.1 476.88,350.39 472.02,348.76C472.87,344.13 473.26,339.37 474.34,334.8Z" style="fill:rgb(213,222,82);fill-rule:nonzero;"/>
                <path d="M528.12,337.14C526.91,340.3 524.77,342.29 525.76,345.9C523.64,344.71 523.55,345.7 521.89,346.92C517.02,349.88 512.91,349.63 507.85,347.27C510.38,344.79 513.55,343.5 516.17,341.17C519.44,338.29 524.26,339.47 528.12,337.14Z" style="fill:rgb(178,183,69);fill-rule:nonzero;"/>
                <path d="M481.05,340C484.2,341.02 486.92,343.43 489.82,345.14C491.7,346.34 493.58,347.16 495.02,348.93C490.87,348.55 483.65,343.26 481.05,340Z" style="fill:rgb(219,230,96);fill-rule:nonzero;"/>
                <path d="M507.85,347.27C512.91,349.63 517.02,349.88 521.89,346.92C521.94,349.32 521.99,351.73 521.99,354.13C521.41,353.67 520.82,353.21 520.24,352.76C518.16,350.67 516.97,350.96 514.2,351.33C511.15,350.31 508.2,348.99 505.14,347.99C506.03,347.72 506.94,347.49 507.85,347.27Z" style="fill:rgb(142,146,31);fill-rule:nonzero;"/>
                <path d="M472.02,348.76C476.88,350.39 481.6,352.1 485.99,354.79C484.31,354.68 482.63,354.47 480.94,354.36C482.91,356.07 485.65,356.62 488.03,357.86C485.78,357.79 483.58,357.38 481.34,357.22C481.15,360.12 481.53,362.98 481.53,365.87C476.97,366.63 474.43,365.62 470.85,362.98C471.73,358.16 471.9,353.63 472.02,348.76Z" style="fill:rgb(181,192,70);fill-rule:nonzero;"/>
                <path d="M533.85,349.68C534.01,353.47 531.69,355.8 530.64,359.2C530.78,363.54 531.07,368.24 532.69,372.3C534.43,373.03 537.1,372.03 539.02,372.15C537.04,373.3 533.83,373.73 532.7,375.83C532.08,375.25 531.46,374.66 530.85,374.07C529.43,368.43 527.47,362.67 527.01,356.87C527.57,357.89 528.11,358.91 528.7,359.91C529.8,356.28 528.55,349.76 533.85,349.68Z" style="fill:rgb(172,169,53);fill-rule:nonzero;"/>
                <path d="M533.85,349.68L534.78,349.89C534.97,350.84 535.18,351.78 535.42,352.71C544.77,355.39 552.91,353.22 562.02,351.11C558.91,353.72 554.65,353.8 550.84,354.85C543.93,357.3 537.9,353.92 532,358.96C536.71,359.22 541.01,357.45 545.75,358.05C544.99,359.81 538.42,358.5 535.94,360.69C538.3,360.94 540.66,361.05 543.02,361.26C541.18,361.93 539.23,362.45 537.45,363.25C537.16,367.15 537.99,367.83 541.93,368.46C540.67,369.38 539.35,370.16 538.06,371.02C541.6,370.93 544.62,369.74 548.15,370.55C543.43,371.69 544.37,375.34 540.94,377.92C537.6,378.09 535.02,378.77 532.7,375.83C533.83,373.73 537.04,373.3 539.02,372.15C537.1,372.03 534.43,373.03 532.69,372.3C531.07,368.24 530.78,363.54 530.64,359.2C531.69,355.8 534.01,353.47 533.85,349.68Z" style="fill:rgb(205,209,66);fill-rule:nonzero;"/>
                <path d="M490.97,353.14C493.82,353.33 496.42,354.09 499.18,354.75C501.44,355.35 504.02,355.73 506.06,356.88C501.43,356.96 494.89,355.67 490.97,353.14Z" style="fill:rgb(177,188,45);fill-rule:nonzero;"/>
                <path d="M520.24,352.76C520.82,353.21 521.41,353.67 521.99,354.13C522.23,363.33 518.48,373.38 516.24,382.2C515.15,382.44 514.06,382.69 512.98,382.95C511.31,382.65 509.64,382.3 507.97,382.01C506.2,381.49 504.48,380.86 502.77,380.2C506.26,379.73 509.69,381.12 513.08,380.59C518.32,373.93 520.35,361.32 520.24,352.76Z" style="fill:rgb(194,189,110);fill-rule:nonzero;"/>
                <path d="M565.68,355.01C560.88,359.83 571.99,353.68 569.36,357.34C566.23,358.49 568.21,362.2 568.31,364.64C569.68,365.06 571.93,364.74 572.94,365.76C564.33,366.22 555.95,368.49 547.39,369.08C550.72,365.79 541.4,366.19 544.65,361.71C549.85,359.75 555.65,359.48 560.83,357.54C554.12,355.51 563.64,355.89 565.68,355.01Z" style="fill:rgb(238,244,105);fill-rule:nonzero;"/>
                <path d="M486.03,359.04C495.18,360.99 505.02,360.99 513.72,364.4C514.31,366.89 511.41,371.12 509.83,372.97C504.56,372.35 499.45,370.63 494.15,370.14C488.72,369.29 483.28,368.66 477.9,367.54C482.45,366.28 486.33,367.87 490.84,368.01C490.15,366.38 487.14,364.32 488.67,362.62C490.41,360.58 487.15,360.32 486.03,359.04Z" style="fill:rgb(232,242,98);fill-rule:nonzero;"/>
                <path d="M470.55,364.92C472.86,366.19 475.29,367.13 477.9,367.54C483.28,368.66 488.72,369.29 494.15,370.14L492.7,371.26C490.88,371.22 480.26,369.69 484.57,373.84C482.61,374.47 480.51,373.07 481.9,376C477.6,375.36 473.69,374.08 469.29,374.05C469.79,371.02 470.05,367.95 470.55,364.92Z" style="fill:rgb(185,192,75);fill-rule:nonzero;"/>
                <path d="M569.89,368.17C565.95,373.1 573.26,371.47 576.16,372.17L575.97,373.05C573.62,373.57 571.26,374.02 568.87,374.32C565.53,374.75 562.07,374.91 558.82,375.76L557.18,376.14C551.56,375.94 546.53,377.33 540.94,377.92C544.37,375.34 543.43,371.69 548.15,370.55C555.69,369.98 562.13,366.97 569.89,368.17Z" style="fill:rgb(240,241,113);fill-rule:nonzero;"/>
                <path d="M492.7,371.26C498,372.62 503.88,372.88 508.94,374.97C510.39,377.19 510.24,379.42 513.08,380.59C509.69,381.12 506.26,379.73 502.77,380.2C500.59,379.67 498.42,379.11 496.23,378.66C494.57,378.28 492.9,377.94 491.22,377.62C489.18,377.17 487.15,376.77 485.08,376.5C484.02,376.34 482.96,376.17 481.9,376C480.51,373.07 482.61,374.47 484.57,373.84C480.26,369.69 490.88,371.22 492.7,371.26Z" style="fill:rgb(234,238,108);fill-rule:nonzero;"/>
                <path d="M575.97,373.05L577.94,372.96C578.36,385.95 576.64,399 575.86,411.96C575.31,412.6 574.75,413.22 574.18,413.83C572.48,407.69 574.57,401.92 572.27,395.84C570.31,388.61 575.45,383.28 573.72,376.32C572.93,374.98 570.28,374.86 568.87,374.32C571.26,374.02 573.62,373.57 575.97,373.05Z" style="fill:rgb(190,175,159);fill-rule:nonzero;"/>
                <path d="M469.29,374.05C473.69,374.08 477.6,375.36 481.9,376C482.96,376.17 484.02,376.34 485.08,376.5C482.43,376.92 479.81,377.11 477.13,376.94C474.17,375.72 471.63,377.24 469.17,375.01L469.29,374.05Z" style="fill:rgb(145,140,84);fill-rule:nonzero;"/>
                <path d="M530.85,374.07C531.46,374.66 532.08,375.25 532.7,375.83C535.02,378.77 537.6,378.09 540.94,377.92C546.53,377.33 551.56,375.94 557.18,376.14C554.81,376.88 552.4,377.46 549.97,377.97C548.21,378.26 546.49,378.63 544.77,379.1C543.14,379.51 541.57,380.04 539.97,380.56C537.54,380.33 535.13,380.15 532.69,380.19C531.92,378.19 531.34,376.15 530.85,374.07Z" style="fill:rgb(193,183,104);fill-rule:nonzero;"/>
                <path d="M568.87,374.32C570.28,374.86 572.93,374.98 573.72,376.32C575.45,383.28 570.31,388.61 572.27,395.84C574.57,401.92 572.48,407.69 574.18,413.83C574.75,413.22 575.31,412.6 575.86,411.96C576.22,420.75 579.25,429.04 579.37,437.89L578.73,439.93C575.77,436.77 576.76,432.74 574.55,429.46C570,423.45 576.36,418.65 571.44,412.14C570.7,414.83 569.74,417.34 568.56,419.86C564.89,414.26 566.08,411.04 566.49,405.02C564.76,402.8 559.38,406.74 557.9,408.23C562.17,408.24 558.65,411.85 557.65,413.63C554.86,416.7 558.87,420.38 558.4,424.37C557.88,430.03 559.57,435.03 561.65,440.19C562.29,445.36 561.27,448.38 565.74,452.04C563.31,456.18 564.24,454.6 567.33,457.24C567.07,464.29 568.86,469.34 576.69,469.57C580.23,459.98 577.97,450.21 579.74,440.76C581.31,445.66 583.09,450.63 583.87,455.72C582.22,461.32 582.05,467.4 581.75,473.19C584.98,481.28 580.85,487.64 580.86,496C580.45,498.71 581.53,501.17 579.01,503.04C576.31,503.07 573.62,502.97 570.92,502.96L570.87,502.04C570.4,499.38 573.61,495.19 568.99,496.44C568.63,493.02 570.37,493.83 571.76,491.78C571.28,487.15 569.72,482.97 570.41,478.23C569,478.01 567.57,477.9 566.16,477.71C567.15,475.65 568.37,474.1 567.95,471.65C563.54,472.6 563,467.21 562.36,464.09C562.36,455.61 558.83,448.7 560.25,440.3C558.06,436.35 558.04,431.28 554.6,428.39C551.83,425.76 552.97,422.5 554.42,419.53C556.41,415.55 553.24,411.19 553.03,407.38C557.73,402.04 551.54,395.1 548.76,390.32C547.94,386.25 546.26,382.9 544.77,379.1C546.49,378.63 548.21,378.26 549.97,377.97C550.52,383.8 554.1,388.19 553.44,393.62C555.77,396.48 558.26,399.62 561.38,401.65C564.09,403.26 566.13,399.73 567.71,398C567.8,395.43 563.74,389.56 569.01,390.67C569.58,390.21 567.2,383.05 570.62,383.75C566.89,380.65 567.78,380.05 569.64,376.09C566.03,375.96 562.42,375.97 558.82,375.76C562.07,374.91 565.53,374.75 568.87,374.32Z" style="fill:rgb(209,185,162);fill-rule:nonzero;"/>
                <path d="M469.17,375.01C471.63,377.24 474.17,375.72 477.13,376.94C479.11,383.01 476.76,387.12 477.15,393.01C478.95,392.52 479.54,390.24 480.81,388.92C481.5,393.44 479.83,397.49 480,401.99C479.72,404.98 480.95,407.34 478.27,409.36C477.46,414.52 475.19,419.22 474.44,424.34C474.43,427.96 477.13,430.57 475.27,434.32C472.98,439.15 473.8,444.11 472.32,449.16C470.87,456.05 471.61,459.74 475.27,465.67C476.05,471.5 477.94,476.14 479.85,481.59C473.42,481.34 476.6,488.11 476.77,492.07C477.5,497.23 479.93,501.88 480.92,507.02C478.06,506.4 475.54,506.88 476.01,503.02C476.8,494.39 474.23,486.67 473.64,478.19C471.08,472.33 469.97,466.5 470.91,460.13C470.26,460.76 469.62,461.4 469,462.06C469.7,451.67 472.71,441.83 472.26,431.23C473.45,426.39 473.39,420.62 472.31,415.76C470.79,406.86 468.72,398.28 468.74,389.23C469.15,384.49 468.81,379.75 469.17,375.01Z" style="fill:rgb(165,148,135);fill-rule:nonzero;"/>
                <path d="M485.08,376.5C487.15,376.77 489.18,377.17 491.22,377.62C488.18,378.16 482.96,377.07 484.91,381.98C487.24,386.4 480.05,389.49 485.39,391.52C483.44,403.66 480.94,411.84 477.78,423.79C478.86,430.33 476.38,435.61 475.91,441.94C472.74,450.59 476.33,461.18 478.1,469.91C481.3,475 483.38,478.84 482.33,485.17C481.45,488.01 485.5,488.59 482.7,490.74C480.57,491.95 480.11,488.74 478.32,487.93C478.37,494.72 480.78,500.6 481.84,507.16L480.92,507.02C479.93,501.88 477.5,497.23 476.77,492.07C476.6,488.11 473.42,481.34 479.85,481.59C477.94,476.14 476.05,471.5 475.27,465.67C471.61,459.74 470.87,456.05 472.32,449.16C473.8,444.11 472.98,439.15 475.27,434.32C477.13,430.57 474.43,427.96 474.44,424.34C475.19,419.22 477.46,414.52 478.27,409.36C480.95,407.34 479.72,404.98 480,401.99C479.83,397.49 481.5,393.44 480.81,388.92C479.54,390.24 478.95,392.52 477.15,393.01C476.76,387.12 479.11,383.01 477.13,376.94C479.81,377.11 482.43,376.92 485.08,376.5Z" style="fill:rgb(184,164,143);fill-rule:nonzero;"/>
                <path d="M557.18,376.14L558.82,375.76C562.42,375.97 566.03,375.96 569.64,376.09C567.78,380.05 566.89,380.65 570.62,383.75C567.2,383.05 569.58,390.21 569.01,390.67C563.74,389.56 567.8,395.43 567.71,398C566.13,399.73 564.09,403.26 561.38,401.65C558.26,399.62 555.77,396.48 553.44,393.62C554.1,388.19 550.52,383.8 549.97,377.97C552.4,377.46 554.81,376.88 557.18,376.14Z" style="fill:rgb(224,199,178);fill-rule:nonzero;"/>
                <path d="M491.22,377.62C492.9,377.94 494.57,378.28 496.23,378.66C494.06,379.1 489.59,378.29 488.27,380.32C487.73,385.05 489.33,388.93 491.35,393.09C491.15,396.32 491.55,397.91 494.06,400.09C498.07,398.69 505.23,396.6 502.48,390.96C505.37,388.49 505.83,385.1 507.97,382.01C509.64,382.3 511.31,382.65 512.98,382.95C509.37,384.88 509.25,385.92 508.81,389.88C508.78,394.15 505.49,395.63 503.27,398.89C504.23,400.07 505.36,401.07 506.38,402.2C503.74,405.45 504.55,408.81 503.39,412.54C500.92,417.31 499.6,423.77 501.89,428.84C498.56,430.9 498.26,433.74 497.18,437.19C495.65,429.25 500.83,419.55 497.74,412.29C492.44,412.37 487.5,414.49 487.13,420.36C483.59,423.13 484.43,415.81 480.69,418.65C478.04,425.3 479.86,430.34 481.96,436.63C476.72,435.47 477.95,438.34 475.91,441.94C476.38,435.61 478.86,430.33 477.78,423.79C480.94,411.84 483.44,403.66 485.39,391.52C480.05,389.49 487.24,386.4 484.91,381.98C482.96,377.07 488.18,378.16 491.22,377.62Z" style="fill:rgb(202,181,158);fill-rule:nonzero;"/>
                <path d="M496.23,378.66C498.42,379.11 500.59,379.67 502.77,380.2C504.48,380.86 506.2,381.49 507.97,382.01C505.83,385.1 505.37,388.49 502.48,390.96C505.23,396.6 498.07,398.69 494.06,400.09C491.55,397.91 491.15,396.32 491.35,393.09C489.33,388.93 487.73,385.05 488.27,380.32C489.59,378.29 494.06,379.1 496.23,378.66Z" style="fill:rgb(214,193,175);fill-rule:nonzero;"/>
                <path d="M544.77,379.1C546.26,382.9 547.94,386.25 548.76,390.32C551.54,395.1 557.73,402.04 553.03,407.38C553.24,411.19 556.41,415.55 554.42,419.53C552.97,422.5 551.83,425.76 554.6,428.39C558.04,431.28 558.06,436.35 560.25,440.3C558.83,448.7 562.36,455.61 562.36,464.09C563,467.21 563.54,472.6 567.95,471.65C568.37,474.1 567.15,475.65 566.16,477.71C567.57,477.9 569,478.01 570.41,478.23C569.72,482.97 571.28,487.15 571.76,491.78C570.37,493.83 568.63,493.02 568.99,496.44C573.61,495.19 570.4,499.38 570.87,502.04C569.65,501.99 568.44,501.89 567.22,501.75C568.1,492.68 564.32,482.47 559.71,474.72C562.34,466.12 553.93,462.07 556.2,453.41C559.31,453.33 559.12,454.08 558.9,450.69C553.67,452.04 553.35,443.22 557.78,442.67C557.43,441.1 557.95,434.37 555.25,437.47C554.52,433.37 552.07,431.47 549.86,428.28C548.99,423.26 550.57,417.51 550.15,412.68C546.77,407.95 548.81,402.66 546.4,397.74C542.99,392.41 543.17,385.52 539.97,380.56C541.57,380.04 543.14,379.51 544.77,379.1Z" style="fill:rgb(189,166,143);fill-rule:nonzero;"/>
                <path d="M532.69,380.19C535.13,380.15 537.54,380.33 539.97,380.56C543.17,385.52 542.99,392.41 546.4,397.74C548.81,402.66 546.77,407.95 550.15,412.68C550.57,417.51 548.99,423.26 549.86,428.28C552.07,431.47 554.52,433.37 555.25,437.47C557.95,434.37 557.43,441.1 557.78,442.67C553.35,443.22 553.67,452.04 558.9,450.69C559.12,454.08 559.31,453.33 556.2,453.41C553.93,462.07 562.34,466.12 559.71,474.72C564.32,482.47 568.1,492.68 567.22,501.75C568.44,501.89 569.65,501.99 570.87,502.04L570.92,502.96C568.97,503.27 567.03,503.65 565.08,503.99C564.92,497.73 564.03,490.49 560.97,484.97C557.78,481.84 556.58,478.12 555.28,473.98C555.02,475.39 554.78,476.8 554.55,478.21C553.14,469.01 554.67,459.41 553.76,450.14C552.35,443.79 548.77,438.23 547.11,431.89C543.91,422.71 544.18,413.07 541.12,403.88C538.8,395.78 535.1,388.26 532.69,380.19Z" style="fill:rgb(163,145,129);fill-rule:nonzero;"/>
                <path d="M516.24,382.2C515.3,386.04 513.94,389.73 512.46,393.39C506.53,407.86 505.87,423.37 502.09,438.11C499.67,443.93 498.06,449.5 499.43,455.86C499.25,457.06 498.85,458.12 498.23,459.05C497.97,454.99 498.18,451.36 496.15,447.67C496.85,444.17 496.99,440.75 497.18,437.19C498.26,433.74 498.56,430.9 501.89,428.84C499.6,423.77 500.92,417.31 503.39,412.54C504.55,408.81 503.74,405.45 506.38,402.2C505.36,401.07 504.23,400.07 503.27,398.89C505.49,395.63 508.78,394.15 508.81,389.88C509.25,385.92 509.37,384.88 512.98,382.95C514.06,382.69 515.15,382.44 516.24,382.2Z" style="fill:rgb(180,164,147);fill-rule:nonzero;"/>
                <path d="M566.49,405.02C566.08,411.04 564.89,414.26 568.56,419.86C569.74,417.34 570.7,414.83 571.44,412.14C576.36,418.65 570,423.45 574.55,429.46C576.76,432.74 575.77,436.77 578.73,439.93L579.37,437.89C579.5,438.84 579.62,439.8 579.74,440.76C577.97,450.21 580.23,459.98 576.69,469.57C568.86,469.34 567.07,464.29 567.33,457.24C564.24,454.6 563.31,456.18 565.74,452.04C561.27,448.38 562.29,445.36 561.65,440.19C559.57,435.03 557.88,430.03 558.4,424.37C558.87,420.38 554.86,416.7 557.65,413.63C558.65,411.85 562.17,408.24 557.9,408.23C559.38,406.74 564.76,402.8 566.49,405.02Z" style="fill:rgb(230,203,174);fill-rule:nonzero;"/>
                <path d="M497.74,412.29C500.83,419.55 495.65,429.25 497.18,437.19C496.99,440.75 496.85,444.17 496.15,447.67C494.42,453.48 495.77,460.1 495.66,466.14C496.28,469.46 492.6,469.6 491.69,472.28C491.09,473.9 490.19,474.91 488.53,475.49C486.83,473.58 486.68,473.29 484.07,473.52C480.6,465.89 478.26,463.72 476.85,454.02C475.84,449.96 476.89,445.94 475.91,441.94C477.95,438.34 476.72,435.47 481.96,436.63C479.86,430.34 478.04,425.3 480.69,418.65C484.43,415.81 483.59,423.13 487.13,420.36C487.5,414.49 492.44,412.37 497.74,412.29Z" style="fill:rgb(219,193,164);fill-rule:nonzero;"/>
                <path d="M472.31,415.76C473.39,420.62 473.45,426.39 472.26,431.23C471.87,426.04 471.87,420.95 472.31,415.76Z" style="fill:rgb(200,189,181);fill-rule:nonzero;"/>
                <path d="M492.47,424.08C492.28,426.2 491.99,428.09 492.87,430.12C495.47,436.94 495.57,444.49 492.67,451.24C494.8,456.01 491.81,458.16 492.81,462.9C492.36,465.15 488.35,467.47 486.2,468C484.65,465.89 484.22,465.54 481.68,465.11C478.35,459.29 482.67,452.03 480.4,447.09C481.64,447.21 482.88,447.39 484.12,447.51C483.68,446.42 483.12,445.37 482.64,444.3C486.66,443.98 483.29,438.65 484.13,435.99C484.96,432.38 482.56,429.77 483.13,426.29C486.62,426.03 489.38,425.89 492.47,424.08Z" style="fill:rgb(234,207,175);fill-rule:nonzero;"/>
                <path d="M475.91,441.94C476.89,445.94 475.84,449.96 476.85,454.02C478.26,463.72 480.6,465.89 484.07,473.52C486.68,473.29 486.83,473.58 488.53,475.49C490.19,474.91 491.09,473.9 491.69,472.28C492.6,469.6 496.28,469.46 495.66,466.14C495.77,460.1 494.42,453.48 496.15,447.67C498.18,451.36 497.97,454.99 498.23,459.05C498.85,458.12 499.25,457.06 499.43,455.86C500.21,459.48 500.13,463.12 499.78,466.79C498.37,471.69 497.55,480.17 494.19,484.2C486.16,489.62 497.4,503.29 488.95,507.89C486.65,507.96 484.35,508.01 482.05,508L481.84,507.16C480.78,500.6 478.37,494.72 478.32,487.93C480.11,488.74 480.57,491.95 482.7,490.74C485.5,488.59 481.45,488.01 482.33,485.17C483.38,478.84 481.3,475 478.1,469.91C476.33,461.18 472.74,450.59 475.91,441.94Z" style="fill:rgb(202,177,159);fill-rule:nonzero;"/>
                <path d="M583.87,455.72C584.44,458.06 584.98,460.39 585.37,462.76C584.73,472.14 584.88,481.83 585.28,491.23C585.05,493.75 584.94,496.28 584.84,498.82C583.69,503.47 583.68,502.93 579.01,503.04C581.53,501.17 580.45,498.71 580.86,496C580.85,487.64 584.98,481.28 581.75,473.19C582.05,467.4 582.22,461.32 583.87,455.72Z" style="fill:rgb(171,155,148);fill-rule:nonzero;"/>
                <path d="M470.91,460.13C469.97,466.5 471.08,472.33 473.64,478.19C474.23,486.67 476.8,494.39 476.01,503.02C475.54,506.88 478.06,506.4 480.92,507.02L481.84,507.16L482.05,508C477.35,507.3 471.73,510.48 471.15,503.82C470.72,489.79 468.06,476.21 469,462.06C469.62,461.4 470.26,460.76 470.91,460.13Z" style="fill:rgb(146,135,132);fill-rule:nonzero;"/>
                <path d="M585.37,462.76C586.35,470.98 586.51,483.08 585.28,491.23C584.88,481.83 584.73,472.14 585.37,462.76Z" style="fill:rgb(216,209,206);fill-rule:nonzero;"/>
                <path d="M499.78,466.79C499.89,473.61 500.82,481.26 498.83,487.84C496.82,494.72 495.48,501.69 494.98,508.84C492.99,508.22 491.02,507.96 488.95,507.89C497.4,503.29 486.16,489.62 494.19,484.2C497.55,480.17 498.37,471.69 499.78,466.79Z" style="fill:rgb(170,154,146);fill-rule:nonzero;"/>
                <path d="M555.28,473.98C556.58,478.12 557.78,481.84 560.97,484.97C564.03,490.49 564.92,497.73 565.08,503.99C563.71,504.32 562.35,504.69 560.99,505.04C560.23,495.66 556.27,487.32 554.55,478.21C554.78,476.8 555.02,475.39 555.28,473.98Z" style="fill:rgb(136,126,123);fill-rule:nonzero;"/>
                <path d="M584.84,498.82C585.21,505.37 584.54,511.66 585.7,518.14L585.08,518.16C582.34,514.75 586.88,505.08 580.07,509.07C576.57,508.99 573.19,508.74 569.77,509.7C565.47,510.63 562.44,508.05 562.78,514.21C561.84,511.21 561.21,508.17 560.99,505.04C562.35,504.69 563.71,504.32 565.08,503.99C567.03,503.65 568.97,503.27 570.92,502.96C573.62,502.97 576.31,503.07 579.01,503.04C583.68,502.93 583.69,503.47 584.84,498.82Z" style="fill:rgb(210,216,224);fill-rule:nonzero;"/>
                <path d="M471.15,503.82C471.73,510.48 477.35,507.3 482.05,508C484.35,508.01 486.65,507.96 488.95,507.89C491.02,507.96 492.99,508.22 494.98,508.84C495.07,512.34 495.18,515.78 494.35,519.22C494.13,517.76 493.88,516.31 493.61,514.86C493.7,514.27 493.22,514.02 492.17,514.13C489.38,513.93 486.61,514.09 483.84,514.38L483.02,514.29L481.03,513.76C478.74,512.4 476.51,512.64 474.01,513.14C471.17,512.53 472.14,518.39 471.33,520.22C470.79,514.75 470.99,509.3 471.15,503.82Z" style="fill:rgb(213,216,226);fill-rule:nonzero;"/>
                <path d="M585.08,518.16C584.89,520.57 584.06,523.01 586.16,524.82C580.61,530.06 573.68,533.7 565.85,533.03C564.52,530.94 563.89,529.27 563.7,526.76L563.91,525.82C564.52,526.88 565.12,527.97 565.78,529C569.53,531.36 578.28,529.98 581.7,526.74C583.49,523.94 575.41,525.4 573.95,524.58C578.42,524.39 583.08,522.06 579.59,517.43C575.53,514.65 582.75,514.63 579.71,511.31C576.54,511.01 570.08,509.72 568.37,513.26C568.77,517.13 568.55,521.1 571.07,524.13C569.64,524.53 568.21,524.94 566.79,525.34C565.1,524.24 564.81,522.55 564.08,520.81L563.84,520.01C564.38,518.06 564.67,516.5 563.01,515.02L562.78,514.21C562.44,508.05 565.47,510.63 569.77,509.7C573.19,509.87 576.89,510.69 580.07,509.07C586.88,505.08 582.34,514.75 585.08,518.16Z" style="fill:rgb(31,53,54);fill-rule:nonzero;"/>
                <path d="M580.07,509.07C576.89,510.69 573.19,509.87 569.77,509.7C573.19,508.74 576.57,508.99 580.07,509.07Z" style="fill:rgb(140,163,171);fill-rule:nonzero;"/>
                <path d="M579.71,511.31C582.75,514.63 575.53,514.65 579.59,517.43C583.08,522.06 578.42,524.39 573.95,524.58C572.98,524.45 572.02,524.3 571.07,524.13C568.55,521.1 568.77,517.13 568.37,513.26C570.08,509.72 576.54,511.01 579.71,511.31Z" style="fill:rgb(52,88,86);fill-rule:nonzero;"/>
                <path d="M474.01,513.14C476.29,514.78 478.47,514.27 481.03,513.76L483.02,514.29C482.08,514.87 478.46,514.57 479.9,516.24C482.54,520.61 476.57,526.9 482.07,529.87C479.36,530.27 479.11,529.26 479.69,532.33C476.09,531.18 472.69,529.79 469.85,527.23C471.16,525.01 471.07,522.7 471.33,520.22C472.14,518.39 471.17,512.53 474.01,513.14Z" style="fill:rgb(21,41,42);fill-rule:nonzero;"/>
                <path d="M474.01,513.14C476.51,512.64 478.74,512.4 481.03,513.76C478.47,514.27 476.29,514.78 474.01,513.14Z" style="fill:rgb(139,149,159);fill-rule:nonzero;"/>
                <path d="M483.02,514.29L483.84,514.38C485.89,514.77 487.93,515 490.01,515.13C492.77,516.86 490.36,523.09 490.96,526.02C491.26,529.62 489.37,528.79 486.81,529.89C485.23,529.91 483.65,529.9 482.07,529.87C476.57,526.9 482.54,520.61 479.9,516.24C478.46,514.57 482.08,514.87 483.02,514.29Z" style="fill:rgb(43,77,75);fill-rule:nonzero;"/>
                <path d="M483.84,514.38C486.61,514.09 489.38,513.93 492.17,514.13C491.45,514.46 490.73,514.8 490.01,515.13C487.93,515 485.89,514.77 483.84,514.38Z" style="fill:rgb(105,124,132);fill-rule:nonzero;"/>
                <path d="M492.17,514.13C493.22,514.02 493.7,514.27 493.61,514.86C492.45,519.91 493.36,524.76 492.81,529.83C490.84,530 488.8,529.92 486.81,529.89C489.37,528.79 491.26,529.62 490.96,526.02C490.36,523.09 492.77,516.86 490.01,515.13C490.73,514.8 491.45,514.46 492.17,514.13Z" style="fill:rgb(18,43,49);fill-rule:nonzero;"/>
                <path d="M493.61,514.86C493.88,516.31 494.13,517.76 494.35,519.22C493.84,523.4 493.84,527.62 494.25,531.82L492.26,531.7C488.77,530.74 486.25,530.69 482.76,531.71C481.74,531.92 480.71,532.13 479.69,532.33C479.11,529.26 479.36,530.27 482.07,529.87C483.65,529.9 485.23,529.91 486.81,529.89C488.8,529.92 490.84,530 492.81,529.83C493.36,524.76 492.45,519.91 493.61,514.86Z" style="fill:rgb(138,149,154);fill-rule:nonzero;"/>
                <path d="M563.01,515.02C564.67,516.5 564.38,518.06 563.84,520.01C562.49,518.45 562.63,516.91 563.01,515.02Z" style="fill:rgb(146,164,175);fill-rule:nonzero;"/>
                <path d="M585.08,518.16L585.7,518.14C586.25,520.35 586.19,522.56 586.16,524.82C584.06,523.01 584.89,520.57 585.08,518.16Z" style="fill:rgb(113,118,125);fill-rule:nonzero;"/>
                <path d="M564.08,520.81C564.81,522.55 565.1,524.24 566.79,525.34C566.43,526.56 566.09,527.77 565.78,529C565.12,527.97 564.52,526.88 563.91,525.82C564.01,524.15 564.07,522.48 564.08,520.81Z" style="fill:rgb(149,157,172);fill-rule:nonzero;"/>
                <path d="M571.07,524.13C572.02,524.3 572.98,524.45 573.95,524.58C575.41,525.4 583.49,523.94 581.7,526.74C578.28,529.98 569.53,531.36 565.78,529C566.09,527.77 566.43,526.56 566.79,525.34C568.21,524.94 569.64,524.53 571.07,524.13Z" style="fill:rgb(206,211,219);fill-rule:nonzero;"/>
                <path d="M586.16,524.82C586.58,526.15 586.96,527.44 586.92,528.85C582.65,532.8 583.51,536.83 581.97,541.93C580.66,541.65 579.35,541.39 578.02,541.18C580.45,544.38 584.11,546.36 586.96,549.25C589.21,552.12 591.84,552.34 589.23,556.2C586.82,553.58 582.27,545.68 578.3,550.02C577.77,545.22 574.35,544.32 570.21,543.71C569.38,542.54 568.54,541.49 567.96,540.17C571.39,540.48 574.19,535.25 568.89,535.88C567.57,535 566.27,534.09 564.95,533.21L565.85,533.03C573.68,533.7 580.61,530.06 586.16,524.82Z" style="fill:rgb(220,206,129);fill-rule:nonzero;"/>
                <path d="M469.85,527.23C472.69,529.79 476.09,531.18 479.69,532.33C483.79,533.57 491.07,537.61 494.14,532.86C493.89,537.18 494.03,541.52 493.92,545.85C493.02,546.13 492.11,546.4 491.21,546.67C487.96,545.09 485.44,548.45 482.83,549.9C480.32,550.95 477.76,552.3 475.11,552.91C475.72,550.35 479.42,549.12 480.16,546.06C482.02,543.66 482.62,544.06 479.14,544.19C477.74,542.55 475.62,541.63 476.28,539.15C477.34,536.16 473.69,535.23 471.69,534.05C471.27,536.08 470.87,538.11 470.29,540.11C470.65,536.11 467.87,530.75 469.85,527.23Z" style="fill:rgb(200,187,108);fill-rule:nonzero;"/>
                <path d="M563.7,526.76C563.89,529.27 564.52,530.94 565.85,533.03L564.95,533.21C562.21,534.45 566.45,542.13 566.12,544.89C565.57,546.29 565.05,547.71 564.61,549.15C563.68,542.1 561.83,533.7 563.7,526.76Z" style="fill:rgb(184,181,154);fill-rule:nonzero;"/>
                <path d="M586.92,528.85C586.95,533.01 586.8,536.96 588.38,540.91C586.9,541.59 585.4,542.21 583.9,542.82C583.26,542.52 582.61,542.22 581.97,541.93C583.51,536.83 582.65,532.8 586.92,528.85Z" style="fill:rgb(141,139,118);fill-rule:nonzero;"/>
                <path d="M492.26,531.7C489.04,532.02 485.98,532 482.76,531.71C486.25,530.69 488.77,530.74 492.26,531.7Z" style="fill:rgb(226,225,230);fill-rule:nonzero;"/>
                <path d="M479.69,532.33C480.71,532.13 481.74,531.92 482.76,531.71C485.98,532 489.04,532.02 492.26,531.7L494.25,531.82L494.14,532.86C491.07,537.61 483.79,533.57 479.69,532.33Z" style="fill:rgb(30,26,22);fill-rule:nonzero;"/>
                <path d="M494.25,531.82C495.65,536.6 494.85,542.19 494.86,547.16L493.92,545.85C494.03,541.52 493.89,537.18 494.14,532.86L494.25,531.82Z" style="fill:rgb(215,212,187);fill-rule:nonzero;"/>
                <path d="M564.95,533.21C566.27,534.09 567.57,535 568.89,535.88C568.49,537.29 568.12,538.7 567.96,540.17C568.54,541.49 569.38,542.54 570.21,543.71L569,544.69C568.04,544.76 567.08,544.83 566.12,544.89C566.45,542.13 562.21,534.45 564.95,533.21Z" style="fill:rgb(182,168,93);fill-rule:nonzero;"/>
                <path d="M471.69,534.05C473.69,535.23 477.34,536.16 476.28,539.15C475.62,541.63 477.74,542.55 479.14,544.19C474.4,545.84 470.84,548.33 469.06,553.2C467.73,553.37 466.4,553.48 465.07,553.65C464.35,557.01 467.58,558.88 469.4,561.2C465.63,564.48 464.1,563.1 461.07,560.06C458.24,564.8 455.37,561.09 451.98,559.3C457.71,558.12 460.49,554.72 464.44,550.94C469.75,549.98 473.23,546.14 470.1,540.86L470.29,540.11C470.87,538.11 471.27,536.08 471.69,534.05Z" style="fill:rgb(127,129,107);fill-rule:nonzero;"/>
                <path d="M568.89,535.88C574.19,535.25 571.39,540.48 567.96,540.17C568.12,538.7 568.49,537.29 568.89,535.88Z" style="fill:rgb(137,120,32);fill-rule:nonzero;"/>
                <path d="M490.28,538.32C493.65,536.64 491.54,543.38 489.34,541.68C486.81,540.83 489.25,539.32 490.28,538.32Z" style="fill:rgb(155,131,43);fill-rule:nonzero;"/>
                <path d="M470.1,540.86C473.23,546.14 469.75,549.98 464.44,550.94C460.49,554.72 457.71,558.12 451.98,559.3C450.22,558.23 449.75,558.14 447.8,558.85C446.03,559.18 445.69,560.46 445.67,562.08C442.64,556.49 452.1,552.53 456.38,552.34C463.27,550.82 465.94,545.84 470.1,540.86Z" style="fill:rgb(198,196,150);fill-rule:nonzero;"/>
                <path d="M578.02,541.18C579.35,541.39 580.66,541.65 581.97,541.93C582.61,542.22 583.26,542.52 583.9,542.82C585.77,544.09 587.63,545.4 589.41,546.79C588.6,547.62 587.78,548.44 586.96,549.25C584.11,546.36 580.45,544.38 578.02,541.18Z" style="fill:rgb(87,82,50);fill-rule:nonzero;"/>
                <path d="M588.38,540.91C591.12,543.46 592.5,547.31 595.41,549.56C600.06,553.67 603.37,548.29 606.09,555.73C603.34,555.12 603.19,558.29 600.89,558.97C598.25,559.82 597.88,556.34 596.17,555.03C594.7,553.43 593.13,553.67 594.15,551.23C592.82,549.54 591.13,548.08 589.41,546.79C587.63,545.4 585.77,544.09 583.9,542.82C585.4,542.21 586.9,541.59 588.38,540.91Z" style="fill:rgb(185,182,154);fill-rule:nonzero;"/>
                <path d="M479.14,544.19C482.62,544.06 482.02,543.66 480.16,546.06C476.57,548.13 473.41,550.75 470,553.1L469.06,553.2C470.84,548.33 474.4,545.84 479.14,544.19Z" style="fill:rgb(38,40,23);fill-rule:nonzero;"/>
                <path d="M570.21,543.71C574.35,544.32 577.77,545.22 578.3,550.02C578.66,552.67 579.49,554.89 578.04,557.41C575.35,556.24 572.96,554.76 570.01,554.25C567.53,550.58 571.81,546.79 569,544.69L570.21,543.71Z" style="fill:rgb(211,209,205);fill-rule:nonzero;"/>
                <path d="M566.12,544.89C567.08,544.83 568.04,544.76 569,544.69C571.81,546.79 567.53,550.58 570.01,554.25C568.37,554.91 566.7,555.49 565.02,556.03C565.03,553.72 564.89,551.44 564.61,549.15C565.05,547.71 565.57,546.29 566.12,544.89Z" style="fill:rgb(110,118,125);fill-rule:nonzero;"/>
                <path d="M480.16,546.06C479.42,549.12 475.72,550.35 475.11,552.91C477.76,552.3 480.32,550.95 482.83,549.9C482.49,551.2 482.2,552.52 481.96,553.85C483.86,551.9 485.07,549.8 487.79,548.89C486.58,550.89 485.18,552.74 484.12,554.84C485.63,555.2 489.65,553.21 487.29,556.1C484.47,557.06 481.21,555.84 485.05,559.43C483.48,560.22 481.94,560.96 480.15,561.1C480.79,559.17 481.12,557.33 480.94,555.28C479.19,555.8 477.6,556.28 475.76,555.93C472.74,554.98 471,560.02 467.77,557.24C465.7,555.83 469.2,554.35 470,553.1C473.41,550.75 476.57,548.13 480.16,546.06Z" style="fill:rgb(152,151,129);fill-rule:nonzero;"/>
                <path d="M491.21,546.67C491.17,550.44 493.41,553.37 492.18,556.75C489.64,557.25 487.34,558.27 485.05,559.43C481.21,555.84 484.47,557.06 487.29,556.1C489.65,553.21 485.63,555.2 484.12,554.84C485.18,552.74 486.58,550.89 487.79,548.89C485.07,549.8 483.86,551.9 481.96,553.85C482.2,552.52 482.49,551.2 482.83,549.9C485.44,548.45 487.96,545.09 491.21,546.67Z" style="fill:rgb(211,211,201);fill-rule:nonzero;"/>
                <path d="M493.92,545.85L494.86,547.16C494.9,550.83 495.2,554.33 496.07,557.91C494.78,557.5 493.49,557.11 492.18,556.75C493.41,553.37 491.17,550.44 491.21,546.67C492.11,546.4 493.02,546.13 493.92,545.85Z" style="fill:rgb(138,142,142);fill-rule:nonzero;"/>
                <path d="M589.41,546.79C591.13,548.08 592.82,549.54 594.15,551.23C593.13,553.67 594.7,553.43 596.17,555.03C595.87,557.73 596.62,562.01 592.34,560.76C591.14,559.39 590.22,557.73 589.23,556.2C591.84,552.34 589.21,552.12 586.96,549.25C587.78,548.44 588.6,547.62 589.41,546.79Z" style="fill:rgb(139,134,101);fill-rule:nonzero;"/>
                <path d="M589.23,556.2C585.86,557.37 581.51,558.99 578.04,557.41C579.49,554.89 578.66,552.67 578.3,550.02C582.27,545.68 586.82,553.58 589.23,556.2Z" style="fill:rgb(126,125,117);fill-rule:nonzero;"/>
                <path d="M465.07,553.65C466.4,553.48 467.73,553.37 469.06,553.2L470,553.1C469.2,554.35 465.7,555.83 467.77,557.24C471,560.02 472.74,554.98 475.76,555.93C477.6,556.28 479.19,555.8 480.94,555.28C481.12,557.33 480.79,559.17 480.15,561.1C476.32,560.51 473.21,560.02 469.4,561.2C467.58,558.88 464.35,557.01 465.07,553.65Z" style="fill:rgb(82,86,87);fill-rule:nonzero;"/>
                <path d="M570.01,554.25C572.96,554.76 575.35,556.24 578.04,557.41C581.51,558.99 585.86,557.37 589.23,556.2C590.22,557.73 591.14,559.39 592.34,560.76C596.62,562.01 595.87,557.73 596.17,555.03C597.88,556.34 598.25,559.82 600.89,558.97C603.19,558.29 603.34,555.12 606.09,555.73C607.11,562.24 602.99,562.12 598.08,563.35C596.15,562.61 594.68,562.41 592.93,563.7C590.31,564.04 587.78,564.59 585.22,565.25C584.33,561.68 577.85,563.28 575,561.01C569.85,558.21 568.79,559.58 564.14,562.11C563.77,559.81 564.1,558.12 565.02,556.03C566.7,555.49 568.37,554.91 570.01,554.25Z" style="fill:rgb(37,39,40);fill-rule:nonzero;"/>
                <path d="M492.18,556.75C493.49,557.11 494.78,557.5 496.07,557.91C496.46,559.64 496.83,561.36 496.95,563.14C491.73,559.35 489.21,562.42 484.52,565.05C481.62,565.55 478.71,566.05 475.81,566.57C474.88,566.69 473.95,566.86 473.04,567.09L472.24,566.84C467.82,565.23 462.38,566.1 457.77,566.36C453.75,565.96 450,565.52 446.65,563.04C447.13,561.67 447.5,560.27 447.8,558.85C449.75,558.14 450.22,558.23 451.98,559.3C455.37,561.09 458.24,564.8 461.07,560.06C464.1,563.1 465.63,564.48 469.4,561.2C473.21,560.02 476.32,560.51 480.15,561.1C481.94,560.96 483.48,560.22 485.05,559.43C487.34,558.27 489.64,557.25 492.18,556.75Z" style="fill:rgb(26,27,28);fill-rule:nonzero;"/>
                <path d="M447.8,558.85C447.5,560.27 447.13,561.67 446.65,563.04L445.67,562.08C445.69,560.46 446.03,559.18 447.8,558.85Z" style="fill:rgb(94,94,96);fill-rule:nonzero;"/>
                <path d="M575,561.01C577.85,563.28 584.33,561.68 585.22,565.25C584.56,565.42 583.89,565.59 583.22,565.75C577.71,564.73 571,562.12 565.8,564.75C564.9,564.31 564.5,562.98 564.14,562.11C568.79,559.58 569.85,558.21 575,561.01Z" style="fill:rgb(119,117,82);fill-rule:nonzero;"/>
                <path d="M496.95,563.14C497.04,564.18 496.88,565.13 496.47,565.97C492.36,563.62 488.8,567.53 484.52,565.05C489.21,562.42 491.73,559.35 496.95,563.14Z" style="fill:rgb(143,136,92);fill-rule:nonzero;"/>
                <path d="M583.22,565.75L581.3,566.25C577.08,565.93 573.02,565.92 568.8,566.26C567.76,565.86 566.76,565.36 565.8,564.75C571,562.12 577.71,564.73 583.22,565.75Z" style="fill:rgb(56,54,33);fill-rule:nonzero;"/>
                <path d="M598.08,563.35C596.31,564.55 594.88,564.39 592.93,563.7C594.68,562.41 596.15,562.61 598.08,563.35Z" style="fill:rgb(133,132,134);fill-rule:nonzero;"/>
                <path d="M484.52,565.05C488.8,567.53 492.36,563.62 496.47,565.97C495.59,566.93 494.67,567.68 493.42,568.09C490.27,566.32 487.12,566.86 483.78,567.68C482.45,567.93 481.12,568.16 479.79,568.38C478.83,568.2 477.88,568.02 476.92,567.84L475.81,566.57C478.71,566.05 481.62,565.55 484.52,565.05Z" style="fill:rgb(75,77,62);fill-rule:nonzero;"/>
                <path d="M457.77,566.36C462.38,566.1 467.82,565.23 472.24,566.84C467.26,566.93 462.69,567.49 457.77,566.36Z" style="fill:rgb(131,136,138);fill-rule:nonzero;"/>
                <path d="M568.8,566.26C573.02,565.92 577.08,565.93 581.3,566.25C577.41,567.3 572.64,567.57 568.8,566.26Z" style="fill:rgb(165,163,160);fill-rule:nonzero;"/>
                <path d="M473.04,567.09C473.95,566.86 474.88,566.69 475.81,566.57L476.92,567.84C475.26,568.36 474.31,568.37 473.04,567.09Z" style="fill:rgb(161,163,169);fill-rule:nonzero;"/>
                <path d="M493.42,568.09C490.2,568.07 487,567.94 483.78,567.68C487.12,566.86 490.27,566.32 493.42,568.09Z" style="fill:rgb(1,3,0);fill-rule:nonzero;"/>
                <path d="M479.79,568.38C481.12,568.16 482.45,567.93 483.78,567.68C487,567.94 490.2,568.07 493.42,568.09C489.31,569.74 484.06,569.16 479.79,568.38Z" style="fill:rgb(200,203,204);fill-rule:nonzero;"/>
            </g>
        </g>
    </g>
</svg>
