<?xml version="1.0" encoding="UTF-8" standalone="no"?>
<!DOCTYPE svg PUBLIC "-//W3C//DTD SVG 1.1//EN" "http://www.w3.org/Graphics/SVG/1.1/DTD/svg11.dtd">
<svg width="100%" height="100%" viewBox="0 0 1728 1728" version="1.1" xmlns="http://www.w3.org/2000/svg" xmlns:xlink="http://www.w3.org/1999/xlink" xml:space="preserve" xmlns:serif="http://www.serif.com/" style="fill-rule:evenodd;clip-rule:evenodd;stroke-linejoin:round;stroke-miterlimit:2;">
    <g transform="matrix(1,0,0,1,0,-8090)">
        <g id="_29" serif:id="29" transform="matrix(1,0,0,1,0,8090)">
            <rect x="0" y="0" width="1728" height="1728" style="fill:none;"/>
            <g transform="matrix(-4.403796,-0,0,-4.403796,2664.602134,2113.777733)">
                <g>
                    <path d="M449.97,156.19C455.59,155.18 460.75,156.82 465.75,159.25C471.47,162.08 477.06,165.19 482.59,168.38C487.43,171.16 491.82,174.57 496.58,177.45C501.29,180.39 507.58,181.12 513,181.61C517.62,181.96 522.44,182.56 527.07,182.07C528.63,181.92 530.04,180.55 531.36,179.77C532.18,180.81 533,181.86 533.82,182.91C529.92,187.93 524.81,191.23 519.4,194.4C511.78,198.71 502.83,202.89 494,203.48C487.75,204.03 483.98,200.16 478.03,199.35C474.07,198.7 470.02,200.33 466.16,199.76C463.38,199.1 462.02,196.91 460.4,194.79C460.6,202.25 460.84,209.63 461.98,217.02C462.07,219.32 463.07,222.77 461.25,224.53C459.9,223.73 458.64,222.79 457.4,221.84C464.77,236.21 465.69,251.95 470.79,268.11C474.18,269.24 477.98,270.16 481.04,272.04C484.05,273.97 485.79,277.49 487.42,280.56C489.2,284.09 491.18,287.56 492.68,291.21C494.39,295.45 494.44,299.58 494.8,304.06C507.88,309.71 521.9,313.26 534.94,318.99C536.9,319.98 539.8,321.28 540.72,323.4C541.68,327.63 539.86,331.9 537.14,335.1C532.98,340.02 526.67,343.37 520.78,345.76C509.03,350.46 496.04,352.71 483.45,353.49C481.55,358.87 480.32,364.92 475.95,368.93C471.29,373.16 464.92,375.81 459.17,378.22C454.67,380.16 449.8,380.5 445.21,382.02C438.97,386.66 433.61,392.83 426.86,396.93C422.97,399.21 418.66,400.39 415.06,403.07C412.42,405.02 410.4,407.2 407.22,408.35C400.81,410.66 393.79,411.54 387,411.7C379.74,411.78 371.47,410.75 365.23,406.74C360.89,404.01 359.17,399.99 355.46,396.53C350.37,391.66 346.16,386.06 343.53,379.48C341.16,373.22 340.33,366.57 339.48,360C339.28,356.99 337.06,354.96 335.5,352.49C331.16,346.39 329.68,338.87 328.18,331.68C317.75,327.8 309.15,321.81 299.24,316.77C291,312.82 282.96,306.93 277.65,299.44C274.83,292.88 279.16,283.5 285.43,280.38C298.43,273.39 313.52,269.12 327.78,265.52C330.94,264.67 334.16,264.15 337.41,263.77C340.3,258.2 345.13,255.46 350.07,252.03C351.94,250.86 352.31,249.07 353.11,247.17C355.25,241.4 358.1,234.93 362.61,230.61C364.72,228.51 367.48,227.53 369.79,225.77C372.3,222.92 374.11,219.39 376.23,216.24C384.6,202.92 394.14,190.41 405.33,179.33C411.83,172.29 420.25,169.04 428.57,164.57C435.29,161.34 442.57,157.43 449.97,156.19Z" style="fill:rgb(0,28,61);fill-rule:nonzero;"/>
                    <clipPath id="_clip1">
                        <path d="M449.97,156.19C455.59,155.18 460.75,156.82 465.75,159.25C471.47,162.08 477.06,165.19 482.59,168.38C487.43,171.16 491.82,174.57 496.58,177.45C501.29,180.39 507.58,181.12 513,181.61C517.62,181.96 522.44,182.56 527.07,182.07C528.63,181.92 530.04,180.55 531.36,179.77C532.18,180.81 533,181.86 533.82,182.91C529.92,187.93 524.81,191.23 519.4,194.4C511.78,198.71 502.83,202.89 494,203.48C487.75,204.03 483.98,200.16 478.03,199.35C474.07,198.7 470.02,200.33 466.16,199.76C463.38,199.1 462.02,196.91 460.4,194.79C460.6,202.25 460.84,209.63 461.98,217.02C462.07,219.32 463.07,222.77 461.25,224.53C459.9,223.73 458.64,222.79 457.4,221.84C464.77,236.21 465.69,251.95 470.79,268.11C474.18,269.24 477.98,270.16 481.04,272.04C484.05,273.97 485.79,277.49 487.42,280.56C489.2,284.09 491.18,287.56 492.68,291.21C494.39,295.45 494.44,299.58 494.8,304.06C507.88,309.71 521.9,313.26 534.94,318.99C536.9,319.98 539.8,321.28 540.72,323.4C541.68,327.63 539.86,331.9 537.14,335.1C532.98,340.02 526.67,343.37 520.78,345.76C509.03,350.46 496.04,352.71 483.45,353.49C481.55,358.87 480.32,364.92 475.95,368.93C471.29,373.16 464.92,375.81 459.17,378.22C454.67,380.16 449.8,380.5 445.21,382.02C438.97,386.66 433.61,392.83 426.86,396.93C422.97,399.21 418.66,400.39 415.06,403.07C412.42,405.02 410.4,407.2 407.22,408.35C400.81,410.66 393.79,411.54 387,411.7C379.74,411.78 371.47,410.75 365.23,406.74C360.89,404.01 359.17,399.99 355.46,396.53C350.37,391.66 346.16,386.06 343.53,379.48C341.16,373.22 340.33,366.57 339.48,360C339.28,356.99 337.06,354.96 335.5,352.49C331.16,346.39 329.68,338.87 328.18,331.68C317.75,327.8 309.15,321.81 299.24,316.77C291,312.82 282.96,306.93 277.65,299.44C274.83,292.88 279.16,283.5 285.43,280.38C298.43,273.39 313.52,269.12 327.78,265.52C330.94,264.67 334.16,264.15 337.41,263.77C340.3,258.2 345.13,255.46 350.07,252.03C351.94,250.86 352.31,249.07 353.11,247.17C355.25,241.4 358.1,234.93 362.61,230.61C364.72,228.51 367.48,227.53 369.79,225.77C372.3,222.92 374.11,219.39 376.23,216.24C384.6,202.92 394.14,190.41 405.33,179.33C411.83,172.29 420.25,169.04 428.57,164.57C435.29,161.34 442.57,157.43 449.97,156.19Z" clip-rule="nonzero"/>
                    </clipPath>
                    <g clip-path="url(#_clip1)">
                        <path d="M449.03,162.94C454.91,161.7 460.69,163.99 464.79,168.21C471,174.48 478.67,178.53 486.4,182.63C491.78,185.36 496.79,188.06 502.98,188.19C509.38,188.31 515.79,187.23 522.2,187.15C515.55,192.52 506.35,194.24 498.04,192.98C490.49,191.49 483.43,188.7 476.22,186.61C472.38,185.47 468.24,184.94 464.53,183.43C461.26,181.99 458.96,179.31 456.51,176.8C454.76,181.8 453.08,186.66 452.52,191.97C452.14,195.87 451.82,199.72 450.57,203.46C445.07,199.44 440.5,194.52 434.39,191.28C436.04,197.51 438.4,203.42 439.56,209.78C440.99,216.26 441.09,222.85 442.79,229.27C444.24,234.91 443.9,240.36 443.46,246.09C436.55,242.28 430.82,236.75 423.91,233.01C417.92,230.25 411.27,228.76 404.94,226.97C397.56,224.69 390.2,226.79 382.24,226.05C384.15,219.45 388.36,214.67 391.9,208.95C396.56,201.97 400.91,194.66 406.13,188.08C411.24,181.66 418.57,177.75 425.43,173.43C432.68,169.19 440.73,164.56 449.03,162.94Z" style="fill:white;fill-rule:nonzero;"/>
                        <path d="M385.82,230.84C384.37,233.47 382.91,236.09 381.45,238.72C375.09,239.16 368.91,240.43 362.71,241.85C363.88,240.39 364.99,238.66 366.45,237.46C372.24,233.47 378.83,231.43 385.82,230.84Z" style="fill:white;fill-rule:nonzero;"/>
                        <path d="M394.03,231.14C400.31,231.35 406.51,232.59 412.27,235.15C405.24,243.47 400.4,253.05 395.88,262.9C394.78,265.22 393.48,267.43 392.16,269.64C385.68,268.73 379.39,267.62 373.3,265.12C374.33,260.91 376.23,257.18 378.54,253.54C382.53,247.18 386.34,240.7 390.39,234.38C391.24,233.34 392.52,231.01 394.03,231.14Z" style="fill:white;fill-rule:nonzero;"/>
                        <path d="M421.1,239.86C432.28,246.47 442.9,253.62 451.85,263.14C457.91,269.54 462.14,277.92 465.43,286.02C464.52,288.56 462.81,289.81 460.12,289.98C454.56,285.3 451.2,277.03 446.29,271.71C441.6,266.5 436.56,261.27 430.95,257.06C425.23,252.97 419.3,249.22 413,246.08C413.83,243.69 414.42,240.9 415.87,238.81C417.63,237.67 419.51,239.07 421.1,239.86Z" style="fill:white;fill-rule:nonzero;"/>
                        <path d="M377.98,244.24C376.76,246.7 375.45,249.1 374.07,251.47C370.54,251.47 367,251.44 363.47,251.28C367.86,246.91 371.86,245.16 377.98,244.24Z" style="fill:white;fill-rule:nonzero;"/>
                        <path d="M410.96,251.98C415.2,252.37 419.41,254.83 422.98,257.03C429.8,261.5 436.49,267.03 441.18,273.76C439.85,275.58 438.47,277.33 436.97,279.01C428.22,270.79 417.33,264.6 406.53,259.5C407.93,257.01 409.09,254.15 410.96,251.98Z" style="fill:white;fill-rule:nonzero;"/>
                        <path d="M371.02,256.87C370.08,259.37 369.13,261.87 368.16,264.36C360.76,264.12 353.44,265.15 346.06,265.14C347.58,263.28 349.25,261.61 351.19,260.18C356.03,255.8 364.88,257.54 371.02,256.87Z" style="fill:white;fill-rule:nonzero;"/>
                        <path d="M401.84,265.2C408.05,267.05 413.95,271.13 419.38,274.62C426.48,279.32 433.27,284.69 439.36,290.64C442.56,294.01 446.43,298.3 447.32,302.98C447.66,304.87 447.29,305.96 446.04,307.38C442.5,307.85 441.15,303.84 439.37,301.57C434.11,294.17 424.77,288.97 417.76,283.24C411.79,278.18 405.03,275.54 398.07,272.21C399.14,269.76 400.29,267.38 401.84,265.2Z" style="fill:white;fill-rule:nonzero;"/>
                        <path d="M368.27,269.83C373.94,271.69 379.33,271.68 384.45,275.08C372.36,276.25 360.14,276.1 348.01,276.79C344.37,277.03 340.92,277.97 337.42,278.94C349.77,280.36 361.79,283.83 373.14,288.86C388.79,296.08 405.14,301.86 421.23,308C420.88,309.7 420.53,311.4 420.18,313.1C394.96,304.03 368.89,293.07 342.79,287.66C333.8,285.82 324.19,283.7 315,283.78C306.38,283.79 298.43,286.45 289.8,286.94C296.42,282.81 303.81,279.17 311.5,277.68C319.54,275.87 327.79,273.81 336.01,273.17C346.77,272.14 357.97,270.08 368.78,270.64L368.27,269.83Z" style="fill:white;fill-rule:nonzero;"/>
                        <path d="M467.88,276.6C472.35,280.42 477.44,284.42 480.55,289.45C483.26,294.87 484.44,301.2 485.92,307.05C483.87,308.13 481.16,308.85 480.21,311.21C478.85,314.86 478.57,319.15 478.96,323C479.34,326.4 481.96,328.02 484.21,330.22C483.53,333.67 483.03,337.39 481.7,340.65C479.81,340.6 478,340.19 476.1,340.2C473.31,342.27 471.24,345.86 469.91,349.02C468.55,352.73 470.63,355.59 472.14,358.79C468.46,362.44 464.88,365.81 460.21,368.21C457.62,369.53 454.52,369.87 451.67,370.38C454.73,366.31 458.49,362.39 460.82,357.85C462.31,354.66 460.6,351.86 458.05,349.96C455.2,347.96 451.59,345.97 448.06,345.84C444.89,348.45 442.73,352.28 439.99,355.34C435.46,341.88 432.91,328.21 435.39,314.04C431.87,326.55 429.78,339 431.2,352.03C431.61,356.3 433.65,359.93 434.47,364.16C432.78,363.29 431.38,363.39 430.42,361.54C426.89,355.54 424.41,349.01 423.87,342.02C422.75,328.51 426.21,315.29 430.71,302.67C433.16,305.13 435.81,307.26 437.95,310.02C439.94,312.37 441.93,315.4 445.03,316.27C451.16,315.09 455.25,307.98 454.1,302C452.87,294.83 447.73,289.37 442.79,284.42C443.69,282.72 444.63,281.06 445.62,279.41C448.45,283.27 451.29,287.1 453.79,291.18C454.68,292.54 455.6,294.15 456.88,295.17C461.46,295.74 468.4,295.14 471.29,290.96C471,287.1 469.63,283.24 468.65,279.5C468.39,278.54 468.14,277.57 467.88,276.6Z" style="fill:white;fill-rule:nonzero;"/>
                        <path d="M344.49,299.66C343.02,309.01 340.99,319.03 342.01,328.99C343.22,337.28 348.18,343.91 351.97,351.09C353.45,353.71 355.59,356.06 357.4,358.48C349.42,356.09 342.99,350.13 339.33,342.75C334.86,332.05 334.97,321.38 335.14,310C335.23,306.91 335.59,303.04 337.43,300.45C339.18,298.24 342.16,299.41 344.49,299.66Z" style="fill:white;fill-rule:nonzero;"/>
                        <path d="M486.33,313.47C486.92,316.67 485.82,319.39 484.45,322.19C483.85,319.93 482.53,316.72 483.57,314.46C484.29,313.4 485.21,313.57 486.33,313.47Z" style="fill:white;fill-rule:nonzero;"/>
                        <path d="M493.72,313.02C497.53,314.89 500.99,317.39 504.85,319.18C509.52,321.51 514.39,322.6 519.4,323.9C510.62,325.19 501.54,324.83 492.71,324.37C493.07,320.59 493.27,316.79 493.72,313.02Z" style="fill:white;fill-rule:nonzero;"/>
                        <path d="M391.85,326.95C400.48,329.46 408.47,333.2 417.51,334.34C417.68,337.19 417.77,340.05 417.85,342.91C408.27,340.42 398.54,338.53 388.9,336.29C389.87,333.17 390.86,330.06 391.85,326.95Z" style="fill:white;fill-rule:nonzero;"/>
                        <path d="M477.32,345.26C478.09,346.46 478.84,347.65 479.33,348.98C478.52,350.68 477.17,351.76 475.86,353.04C475.26,351.62 474.66,350.2 474.11,348.76C475.08,347.51 476.19,346.37 477.32,345.26Z" style="fill:white;fill-rule:nonzero;"/>
                        <path d="M384.43,347.66C388.78,347.83 392.8,348.89 396.99,349.88C404.51,351.7 412.01,353.4 419.75,353.96C420.61,360.1 425.05,364.57 428.54,369.44C421.95,374.05 415.4,379.21 408.39,383.08C406.21,382.37 404.41,381.32 402.04,381.73C393.16,382.69 385.14,385.05 376.21,382.6C370.88,381.07 365.35,379.04 360.36,376.63C355.52,374.22 355.11,368.87 353.85,364.21C361.19,366.63 368.99,364.51 374.95,359.88C378.76,356.6 381.72,351.85 384.43,347.66Z" style="fill:white;fill-rule:nonzero;"/>
                        <path d="M449.99,351.31C451.42,352.34 453.3,352.96 453.28,355.04C453.24,358.59 449.85,362.1 447.79,364.79C443.3,369.96 440.33,375.74 435.44,380.42C430.17,385.58 424.33,388.97 418.35,393.34C414.82,395.69 410.24,398.63 405.87,398.49C402.83,396.63 403.76,393.83 403.5,390.8C412.53,387.33 420.77,382.27 428.37,376.32C433.4,372.29 438.03,368.09 441.78,362.8C444.54,359.02 446.81,354.66 449.99,351.31Z" style="fill:white;fill-rule:nonzero;"/>
                        <path d="M348.23,369.36C351.16,374.43 353.78,379.26 358.64,382.8C358.32,384.4 358,385.99 357.67,387.59C353.21,383.03 350.69,378.35 349.02,372.21C348.75,371.26 348.49,370.31 348.23,369.36Z" style="fill:white;fill-rule:nonzero;"/>
                        <path d="M366.87,385.07C370.56,386.53 373.94,388.32 377.97,388.75C384.75,390.02 391,388.51 397.78,388.54C397.19,389.85 396.6,391.16 396,392.47C397.07,395.87 397.92,399.28 398.46,402.81C392.47,404.58 386.16,405.01 379.96,404.29C375.38,403.68 370.55,402.15 367.23,398.78C364.17,395.77 362.92,391.16 363.81,387C364.05,385.51 365.4,384.38 366.87,385.07Z" style="fill:white;fill-rule:nonzero;"/>
                        <g transform="matrix(1,0,0,1,-3,-2)">
                            <path d="M463.522,307L465.508,306.988L468.644,316.049L467.609,318.938L463.522,307Z" style="fill:rgb(0,28,61);"/>
                            <path d="M463.514,309.44L465.82,316.027L465.833,331.459L463.562,338.047L463.514,309.44Z" style="fill:rgb(0,28,61);"/>
                            <path d="M463.586,340.026L465.87,340.006L469.239,329.672L468.217,326.531L463.586,340.026Z" style="fill:rgb(0,28,61);"/>
                            <path d="M467.837,327.578L468.228,326.549L469.333,326.531L471.102,331.483L471.132,337.641L468.931,330.681L467.837,327.578Z" style="fill:rgb(0,28,61);"/>
                            <path d="M471.77,340.024L474.073,340.016L473.99,306.959L471.753,306.995L471.77,340.024Z" style="fill:rgb(0,28,61);"/>
                            <path d="M470.849,309.672L470.84,316.141L469.293,320.517L468.19,320.516L467.607,318.939L470.849,309.672Z" style="fill:rgb(0,28,61);"/>
                        </g>
                    </g>
                </g>
            </g>
            <g id="down" transform="matrix(2.132618,0,0,2.132618,-346.007151,112.766509)">
                <path d="M578,669L580,664L581,651.04L590,641L601,641L607,645L610,661L611,664L613.95,671L603,674L585,674L578,669Z" style="fill:white;"/>
                <path d="M467.37,652.555C472.69,649.985 470.75,642.95 476.7,642.71C473.91,646.35 486.5,643.39 486.52,644.35C478.49,640.29 489.32,641.23 492.05,642.87C491.41,641.02 489.61,640.34 488.16,639.12C489.31,638.26 495.53,638.5 492.81,636.43C494.13,635.86 495.37,635.62 496.8,635.5C506.14,635.95 489.33,638.34 496.81,639.65C503.18,638.6 498.8,641.41 495.71,641.61C491.43,642.52 499.03,644.57 499.96,645.65C496.68,646.5 490.72,646.14 489.12,649.71C492.63,656.17 492.16,656.39 485.34,654.08C487.22,658.08 486.6,659.4 484.92,663.31C478.34,662.14 478.27,663.25 472.81,666.58C466.49,663.51 463.5,666.43 458.04,661.94L467.37,652.555Z" style="fill:rgb(246,247,246);fill-rule:nonzero;"/>
                <path d="M569.36,24.25C577.08,29.35 585.37,24.43 593.4,30.63C601.73,30.98 605.99,36.31 610.44,42.59C603.03,39.42 597.97,33.83 589.86,32.06C588.14,30.13 582.15,26.4 583.98,31.99C587.01,36.37 577.26,31.66 577.7,33.51C580.75,36.91 573.4,32.53 574.12,36.08C573.84,42.15 580.23,35.02 583.9,38.05C586.34,39.64 596.26,41.06 591.13,45.02C585.1,40.8 583.05,39.31 576.1,43.35C569.95,39.19 563.65,41.19 556.97,40.9C566.18,37.39 554.24,39.05 551.88,41.9C548.87,44.28 544.01,43.73 540.58,42.73C549.26,41.8 554.1,37.62 561.98,35.24C563.17,29.51 570.42,37.36 570.99,30.65C573.31,26.73 569.42,26.98 569.36,24.25Z" style="fill:rgb(215,205,182);fill-rule:nonzero;"/>
                <path d="M589.86,32.06C597.97,33.83 603.03,39.42 610.44,42.59C612.95,44.99 614.09,44.29 612.23,47.82C615.58,48.37 619.78,47.71 622.89,49.02C624.22,51.84 629.39,54.94 624.37,56.64C628.65,57.33 626.5,61.21 626.12,64.06C622.27,71.2 629.19,74.87 625.71,82.6C617.52,80.08 623,94.86 620.21,99.19C619.91,93.33 620.07,87.48 619.83,81.62C627.4,76.9 614.34,76.13 615.33,68.77C619.41,63.91 613.25,65.95 619.95,60.02C615.89,61.98 613.73,63.57 608.99,62.33C610.14,64.34 611.49,66.16 612.74,68.1C607.49,68.97 603.17,62.75 599.31,59.82C596.94,56.59 598.71,67.98 596.94,62.08C595.84,55.59 591.98,57.23 588.79,53.31C592.93,54.22 596.75,55.99 600.89,56.94C598.58,50.15 594.23,56.71 594.15,49.93C589.11,49.34 588.33,43.07 583.31,45.16C580.42,45.06 569.24,48.37 571.39,42.99C569.33,43.94 558.19,47.66 564.1,49.96C553.1,45.87 555.19,58.34 546.15,56.23C548.43,57.5 548.57,60.64 546.89,61.66C540.58,57.75 538.21,66.03 531.98,61.93C530.41,60.41 528.86,62.8 527.57,63.62C525.27,65.64 523.29,68.02 521.14,70.2C524.05,64.68 527.31,54.67 534.31,53.43C533.51,50.69 535.96,42.91 540.58,42.73C544.01,43.73 548.87,44.28 551.88,41.9C554.24,39.05 566.18,37.39 556.97,40.9C563.65,41.19 569.95,39.19 576.1,43.35C583.05,39.31 585.1,40.8 591.13,45.02C596.26,41.06 586.34,39.64 583.9,38.05C580.23,35.02 573.84,42.15 574.12,36.08C573.4,32.53 580.75,36.91 577.7,33.51C577.26,31.66 587.01,36.37 583.98,31.99C582.15,26.4 588.14,30.13 589.86,32.06Z" style="fill:rgb(199,174,127);fill-rule:nonzero;"/>
                <path d="M571.39,42.99C569.24,48.37 580.42,45.06 583.31,45.16C588.33,43.07 589.11,49.34 594.15,49.93C594.23,56.71 598.58,50.15 600.89,56.94C596.75,55.99 592.93,54.22 588.79,53.31C591.98,57.23 595.84,55.59 596.94,62.08C598.71,67.98 596.94,56.59 599.31,59.82C603.17,62.75 607.49,68.97 612.74,68.1C611.49,66.16 610.14,64.34 608.99,62.33C613.73,63.57 615.89,61.98 619.95,60.02C613.25,65.95 619.41,63.91 615.33,68.77C614.34,76.13 627.4,76.9 619.83,81.62L619.39,82.24C618.96,76.36 613.73,77.72 611.81,73.12C610.81,69.33 607.45,74.09 604.64,72.39C597.95,69.9 592.41,68.58 585.18,68.81C581.02,62.53 575,67.68 569.27,61.68C565.37,58.32 571.5,59.84 573.05,60.81C576.63,64.2 579.1,54.15 583.41,56.69C584.97,57.61 593.89,62.79 588.89,58.1C585,49.3 575.13,57.32 568.02,55.02C563.37,55.27 569.4,49.31 564.1,49.96C558.19,47.66 569.33,43.94 571.39,42.99Z" style="fill:rgb(134,105,68);fill-rule:nonzero;"/>
                <path d="M564.1,49.96C569.4,49.31 563.37,55.27 568.02,55.02C575.13,57.32 585,49.3 588.89,58.1C593.89,62.79 584.97,57.61 583.41,56.69C579.1,54.15 576.63,64.2 573.05,60.81C571.5,59.84 565.37,58.32 569.27,61.68C575,67.68 581.02,62.53 585.18,68.81C572.01,69.52 562.8,71.95 550.79,76.63C552.13,83.54 546.71,81.13 547.65,86C545.5,87.85 544.68,88.86 541.63,88.5C537.5,89.05 537.01,94.23 538.03,86.68C533.04,86.72 525.09,89.13 530.3,81.26C534.76,78.21 541.23,72.21 532.93,69.15C528.92,72.02 525.23,67.26 527.57,63.62C528.86,62.8 530.41,60.41 531.98,61.93C538.21,66.03 540.58,57.75 546.89,61.66C548.57,60.64 548.43,57.5 546.15,56.23C555.19,58.34 553.1,45.87 564.1,49.96Z" style="fill:rgb(100,72,36);fill-rule:nonzero;"/>
                <path d="M527.57,63.62C525.23,67.26 528.92,72.02 532.93,69.15C541.23,72.21 534.76,78.21 530.3,81.26C525.09,89.13 533.04,86.72 538.03,86.68C537.01,94.23 537.5,89.05 541.63,88.5C548.8,96.15 545.22,100.31 547.63,109.21C544.27,104.67 545.33,100.15 538.23,98.02C537.96,100.09 537.88,102.17 537.89,104.25C536.04,97.84 530.64,91.5 525.67,88.38C530.23,79.47 515.59,86.05 516.95,77.61C523.68,78.74 520.58,74.46 521.14,70.2C523.29,68.02 525.27,65.64 527.57,63.62Z" style="fill:rgb(160,137,99);fill-rule:nonzero;"/>
                <path d="M585.18,68.81C592.41,68.58 597.95,69.9 604.64,72.39C607.45,74.09 610.81,69.33 611.81,73.12C613.73,77.72 618.96,76.36 619.39,82.24C618.01,85.87 615.26,81.5 613.01,80.87C609.83,79.18 606.63,77.44 603.02,76.99C611.97,83.52 609.65,90.56 610.28,100.25C609.75,111.36 607.43,124.43 602.18,134.28C600.22,132.05 589.63,132.2 599,130.58C594.18,125.38 583.93,126.9 577.98,128.99C573.52,132.85 585.71,128.17 583.73,131.71C578.38,131.8 575.62,132.55 570.88,134.8C565.53,132.87 553.67,127.44 558.94,119.99C561.25,113.43 559.27,105.5 560.41,98.51C556.03,101.74 557.58,94.25 560.72,94.13C560.96,85.61 560.54,86.01 566.34,80.17C566.48,79.66 569.06,77.24 567,78.07C558.09,79.17 554.14,80.28 547.65,86C546.71,81.13 552.13,83.54 550.79,76.63C562.8,71.95 572.01,69.52 585.18,68.81Z" style="fill:rgb(227,186,161);fill-rule:nonzero;"/>
                <path d="M603.02,76.99C606.63,77.44 609.83,79.18 613.01,80.87C612.17,81.3 611.35,81.76 610.55,82.26C612.45,87.78 610.87,94.54 610.28,100.25C609.65,90.56 611.97,83.52 603.02,76.99Z" style="fill:rgb(143,116,93);fill-rule:nonzero;"/>
                <path d="M567,78.07C569.06,77.24 566.48,79.66 566.34,80.17C557.71,82.39 560.22,88.33 556.49,94.4C554.17,104.73 559.22,113.6 554.9,123.79C553.53,122.7 550.06,117.23 548.5,118.43C541.88,122.72 553.98,122.26 550.13,129.08C543.84,128.67 541.81,130.42 540.61,123.45C532.13,117.99 545.06,119.68 541.52,111.9L541.25,110.33C543.73,105.74 544.79,100.03 537.96,105.17L537.89,104.25C537.88,102.17 537.96,100.09 538.23,98.02C545.33,100.15 544.27,104.67 547.63,109.21C545.22,100.31 548.8,96.15 541.63,88.5C544.68,88.86 545.5,87.85 547.65,86C554.14,80.28 558.09,79.17 567,78.07Z" style="fill:rgb(46,36,28);fill-rule:nonzero;"/>
                <path d="M566.34,80.17C560.54,86.01 560.96,85.61 560.72,94.13C557.58,94.25 556.03,101.74 560.41,98.51C559.27,105.5 561.25,113.43 558.94,119.99C553.67,127.44 565.53,132.87 570.88,134.8C575.62,132.55 578.38,131.8 583.73,131.71C585.71,128.17 573.52,132.85 577.98,128.99C583.93,126.9 594.18,125.38 599,130.58C589.63,132.2 600.22,132.05 602.18,134.28C591.45,134.71 581.09,132.84 570.11,136.28C577.73,140.76 588.28,149.1 597.12,143.14C590.87,149.29 593.11,155.64 590.44,162.46C586.04,166.95 581.59,165.17 577.22,161.87C574.88,161.24 570.37,165.75 567.73,163.28C564.09,159.22 568.47,156.39 568.82,151.86C565.23,141.48 559.75,134.74 550.13,129.08C553.98,122.26 541.88,122.72 548.5,118.43C550.06,117.23 553.53,122.7 554.9,123.79C559.22,113.6 554.17,104.73 556.49,94.4C560.22,88.33 557.71,82.39 566.34,80.17Z" style="fill:rgb(158,118,87);fill-rule:nonzero;"/>
                <path d="M613.01,80.87C615.26,81.5 618.01,85.87 619.39,82.24L619.83,81.62C620.07,87.48 619.91,93.33 620.21,99.19C619.8,100.8 619.38,102.4 618.96,104.01C614.68,115.79 608.73,126.53 602.27,137.15C599.6,138.52 598.49,140.63 597.12,143.14C588.28,149.1 577.73,140.76 570.11,136.28C581.09,132.84 591.45,134.71 602.18,134.28C607.43,124.43 609.75,111.36 610.28,100.25C610.87,94.54 612.45,87.78 610.55,82.26C611.35,81.76 612.17,81.3 613.01,80.87Z" style="fill:rgb(38,32,28);fill-rule:nonzero;"/>
                <path d="M554.85,82.35C555.76,92.16 552.94,102.17 552.73,112.05C549.39,107.73 551.02,95.73 553.76,90.85C554.57,89.14 553.12,82.03 554.85,82.35Z" style="fill:rgb(112,106,102);fill-rule:nonzero;"/>
                <path d="M596.2,97.31C601.55,96.12 604.02,94.37 607.3,99.74C612.65,106.4 599.83,102.42 598.32,108.37C595.86,109.51 592.09,103.96 590.79,101.93C580.84,108.43 575.86,102.63 565.08,102.71C564.26,99.06 568.62,98.29 571.1,97.07C580.27,93.27 587.37,100.77 596.2,97.31Z" style="fill:rgb(134,91,70);fill-rule:nonzero;"/>
                <path d="M541.25,110.33C540.16,109.5 539.08,108.68 537.99,107.85C537.98,106.96 537.97,106.07 537.96,105.17C544.79,100.03 543.73,105.74 541.25,110.33Z" style="fill:rgb(149,139,113);fill-rule:nonzero;"/>
                <path d="M541.52,111.9C545.06,119.68 532.13,117.99 540.61,123.45C541.81,130.42 543.84,128.67 550.13,129.08C559.75,134.74 565.23,141.48 568.82,151.86C568.47,156.39 564.09,159.22 567.73,163.28C570.37,165.75 574.88,161.24 577.22,161.87C581.59,165.17 586.04,166.95 590.44,162.46C593.11,155.64 590.87,149.29 597.12,143.14C598.49,140.63 599.6,138.52 602.27,137.15C601.17,139.48 599.95,141.75 598.81,144.06C598.08,147.79 594.18,156.08 600.9,155.68C603.31,154.03 599.84,150.86 599.27,148.86C602.14,149.7 603.67,152.2 606.69,152.57C602.19,158.74 597.63,172.36 588.39,169.46C580.84,170.81 575.85,164.66 567.98,167.03C561.02,167.68 566.38,158.91 559,160.01C555.41,159.88 553.76,159.84 553.02,155.91C552.5,149.45 545.56,167.67 547.74,157.81C549.86,151.53 542,151.75 546.01,148.01C551.28,145.23 552.76,134.26 549.7,130.5C539.54,131.88 534.93,124.36 534.13,115.36C537.36,114.53 540.36,115.93 541.52,111.9Z" style="fill:rgb(203,165,136);fill-rule:nonzero;"/>
                <path d="M585.32,118.3C587.5,118.2 599.09,116.76 593.66,121.67C591.64,124.16 577.94,120.45 585.32,118.3Z" style="fill:rgb(144,93,75);fill-rule:nonzero;"/>
                <path d="M598.81,144.06C601.3,146.92 604.29,149.07 608.02,149.95C609.02,151.7 610.89,153.48 609.62,155.59C599.86,166.53 595.59,180.45 584.78,190.78C576.37,200.24 563.32,206.7 550.67,202.27C531.32,194.72 531.52,168.3 537.75,151.87C540.41,150.14 542.98,148.95 546.01,148.01C542,151.75 549.86,151.53 547.74,157.81C545.56,167.67 552.5,149.45 553.02,155.91C553.76,159.84 555.41,159.88 559,160.01C566.38,158.91 561.02,167.68 567.98,167.03C575.85,164.66 580.84,170.81 588.39,169.46C597.63,172.36 602.19,158.74 606.69,152.57C603.67,152.2 602.14,149.7 599.27,148.86C599.84,150.86 603.31,154.03 600.9,155.68C594.18,156.08 598.08,147.79 598.81,144.06Z" style="fill:rgb(241,213,187);fill-rule:nonzero;"/>
                <path d="M481.19,610.55C485.75,610.42 490.26,610.88 494.81,611.27C494.7,613.56 489.69,612.19 488.45,616C484.21,617.1 476.91,616.43 479.76,623.17C480.68,628.95 492.23,623.91 496.12,627.06C503.11,630.33 503.26,631.37 496.8,635.5C495.37,635.62 494.13,635.86 492.81,636.43C488.55,636.26 483.62,635.41 479.42,636.34C478.71,638.63 478.27,640.8 476.7,642.71C476.7,642.71 478.31,625.652 479.058,620.292C479.561,616.693 481.19,610.55 481.19,610.55Z" style="fill:rgb(250,250,249);fill-rule:nonzero;"/>
                <path d="M608.02,149.95C614.48,154.71 619.79,152.5 625.65,158.34C629.81,159.98 636.17,157.78 640.57,160.45C648.09,165.97 651.87,173.57 655.18,182.03C648.89,178.7 647.24,168.53 642.1,163.96C636.03,161.01 627.11,159.92 620.31,159.91C624.47,156.07 614.88,155.85 614.36,159.35C610.67,167.35 610.9,178.06 610.07,186.8C609.21,197.98 615.14,204.51 609.42,214.42C602.46,219.34 599.56,226.99 592.68,231.53C589.22,232.49 585.35,234.44 591.79,233.19C589.42,235.31 589.41,237.22 589.3,240.19C586.27,238.57 576.68,234.42 574.29,237.32C576.89,245.31 574.84,256.44 573.07,264.8C573.14,266.61 579.24,266.52 580.91,266.85C581.02,263.49 579.96,260.3 580.08,256.93C582.22,255.49 584.79,277.45 590.3,267.06C592.12,271.6 588.87,271.57 585.55,271.71C584.94,276.53 588.03,281.12 581.22,280.01C585.36,286.21 583.43,283.46 588.57,283.99C583.45,291.69 597.44,286.59 600.03,290C605.48,297.86 590.2,304.23 599.41,310.6C599.76,313.57 591.28,315.51 595.3,319.69C598.51,320.94 603.61,317.87 600.27,323.09C602.17,326.33 607.53,326.52 609.38,331.02C608.94,332 608.56,333 608.24,334.01C608.28,337.06 601.11,344.81 608.02,344C612.46,343.94 610.2,345.09 609.93,348.09C607.44,342.47 602.89,355.27 605.74,357.73C597.27,363.28 587.82,369.72 582.1,378.23C574.47,383.35 584.46,371.06 580.1,369.42C576.52,372.61 577.2,378.69 572.25,379.39C565.88,380.16 563.65,385.79 557.21,386.84C555.49,385.06 555.31,381.13 553.1,380.16C549.09,383.19 545.45,382.69 540.88,383.41C536.12,389.77 545.67,389.61 548.92,393.1C556.53,398.64 544.75,395.83 552.32,403.55C559.11,396.97 554.95,408.92 551.43,409.11C540.35,403.33 525.71,402.12 513.39,400.51C507.98,399.52 502.01,401.17 496.88,402.85L497.43,401.23C501.24,395.03 506.17,387.04 506.72,379.72C506.49,375.35 513.33,378.46 509.08,374.92C505.9,372.12 510.86,371.54 512.65,370.47C507.88,367.71 500.17,362.21 501.96,356C501.52,352.49 503.67,345.96 499.61,344.29C507.15,325.91 502.88,295.35 502.68,274.75C503.02,272.41 503.38,270.07 503.71,267.73C505.34,263.85 506.53,259.82 508.1,255.92C508.68,255.73 509.26,255.55 509.85,255.4C513.35,275.04 517.69,293.02 515.26,313.1C517.35,308.63 519.18,304.17 518.2,299.19C524.22,293.16 524.49,286.04 522.95,278.1C525.05,276.6 525.19,269.72 528.17,272.56C535.36,273.04 529.02,261.66 533.39,263.59C531.53,270.62 535.96,270.31 538.96,265.88C536.33,256.97 535.28,248.25 533.66,239.11C528.72,239.35 529.29,244.39 528.99,247.99C527.52,254.24 529.47,263.98 526.45,268.99C524.91,260.06 522.48,268.15 522.62,272.05C519.46,267.13 520.1,257.95 520.05,252.11C525.58,262.15 526.13,240.94 519.58,246.07C522.42,242.18 520.41,239.5 517.96,236.04C511.24,224.96 508.6,214.48 512.74,201.67C519.6,187.2 523.27,171.59 529.75,156.85C531.16,153.49 526.59,155.96 525.02,156.01C527.67,151.98 533.42,153.88 537.75,151.87C531.52,168.3 531.32,194.72 550.67,202.27C563.32,206.7 576.37,200.24 584.78,190.78C595.59,180.45 599.86,166.53 609.62,155.59C610.89,153.48 609.02,151.7 608.02,149.95Z" style="fill:rgb(236,236,231);fill-rule:nonzero;"/>
                <path d="M529.75,156.85C523.27,171.59 519.6,187.2 512.74,201.67C508.6,214.48 511.24,224.96 517.96,236.04C520.41,239.5 522.42,242.18 519.58,246.07C513.81,253.17 519.16,266.39 519.01,275.01C519.41,277.77 519.93,282.32 522.95,278.1C524.49,286.04 524.22,293.16 518.2,299.19C519.18,304.17 517.35,308.63 515.26,313.1C517.69,293.02 513.35,275.04 509.85,255.4C509.26,255.55 508.68,255.73 508.1,255.92C510.25,251.27 510.52,248.86 509.43,243.78C508.94,239.91 508.38,236.07 507.71,232.24C509.13,219.54 504.42,207.97 507.79,195.28C501.09,193.79 496.86,192.69 490.92,188.93C491.7,179.81 494.97,169.33 502.16,163.19C509.35,158.27 518.2,160.42 525.02,156.01C526.59,155.96 531.16,153.49 529.75,156.85Z" style="fill:rgb(224,206,184);fill-rule:nonzero;"/>
                <path d="M620.31,159.91C627.11,159.92 636.03,161.01 642.1,163.96C644.34,168.72 641.2,171.59 641.44,175.53C649.57,179.85 654.42,190.16 656.31,198.82C656.36,206.86 665.26,206.14 662.46,214.41C661.64,223.82 653.71,222.49 655.61,231.94C664.23,230.99 669.51,231.45 671.4,240.95C670.8,248.59 672.96,253.4 675.89,260.17C676.93,266.32 666.94,264.41 669.83,271.64C669.95,278.61 664.5,285.65 656.06,284.3C659.39,292.42 653.65,284.33 653.82,293.53C651.18,290.73 648.92,294.99 645.76,295.39C649.04,288.74 652.86,282.28 657.27,276.31C665.75,268.94 664.73,260.62 664.41,250.59C654.37,255.53 644.45,238.87 644.89,229.98C645.73,222.05 634.2,215.75 642.32,209.33C650.82,207.46 644.57,205.19 651.62,201.63C647.97,198.93 649.85,198.58 650.95,195.11C648.59,192.69 647.36,190.03 645.62,187.25C641.42,186.37 641.79,189.22 643.35,191.93C639.77,195.87 631.57,188.82 627.27,193.3C623.22,201.16 629.76,208.27 618.98,211.97C617.51,215.3 620.65,224.22 621.75,228.14C622.78,231.14 624.14,233.94 624.9,237.04C622.74,236.34 619.87,226.31 619.96,232.55L619.25,233.12C618.45,224.85 613.73,217.72 614.01,209.02C614.46,200.93 613.01,194.26 610.07,186.8C610.9,178.06 610.67,167.35 614.36,159.35C614.88,155.85 624.47,156.07 620.31,159.91Z" style="fill:rgb(232,196,168);fill-rule:nonzero;"/>
                <path d="M642.1,163.96C647.24,168.53 648.89,178.7 655.18,182.03C657.59,187.27 658.86,192.79 660.64,198.23C663.73,208.56 666.25,220.43 672.99,229C677.66,237.34 679.16,247.36 682.78,256.3C685.77,265.66 693.01,278.21 690.27,288C690.44,284.29 686.66,288.68 685.23,289.21C682.07,290.49 677.28,301.18 674.2,299.87C665.48,304.39 656.11,314.45 651.37,324.01C649.75,329.03 650.5,334.19 649.3,339.14C647.52,337.65 642.8,329.47 641.92,335.95C640.39,339 640.46,347.06 638.37,348.38C628.63,346.41 635.52,342.37 634.94,335.96C630.08,339.68 634.98,348.1 627.17,344.03C621.97,353.27 619.19,349.64 615.03,356.38C614.61,355.69 614.18,355 613.76,354.31C617.55,352.46 618.71,336.04 621.57,345.76C623.86,341.45 630.92,326.34 624.53,323.84C626.76,332.38 621.27,340.53 613.06,342.81C613.53,338.85 614.55,334.99 614.85,330.99C611.85,332.82 612.02,337.36 608.24,334.01C608.56,333 608.94,332 609.38,331.02C612.71,324.84 612.82,320.7 619.87,317.29C630.95,312.94 635.14,301.05 645.76,295.39C648.92,294.99 651.18,290.73 653.82,293.53C653.65,284.33 659.39,292.42 656.06,284.3C664.5,285.65 669.95,278.61 669.83,271.64C666.94,264.41 676.93,266.32 675.89,260.17C672.96,253.4 670.8,248.59 671.4,240.95C669.51,231.45 664.23,230.99 655.61,231.94C653.71,222.49 661.64,223.82 662.46,214.41C665.26,206.14 656.36,206.86 656.31,198.82C654.42,190.16 649.57,179.85 641.44,175.53C641.2,171.59 644.34,168.72 642.1,163.96Z" style="fill:rgb(238,206,189);fill-rule:nonzero;"/>
                <path d="M610.07,186.8C613.01,194.26 614.46,200.93 614.01,209.02C613.73,217.72 618.45,224.85 619.25,233.12C622.3,247 614.07,259.07 607.58,270.59C602.23,275.54 612.76,291.57 617.03,279.99C616.44,284.83 613.8,290.49 615.98,295.01C618.34,302.11 616.92,310.46 619.87,317.29C612.82,320.7 612.71,324.84 609.38,331.02C607.53,326.52 602.17,326.33 600.27,323.09C603.61,317.87 598.51,320.94 595.3,319.69C591.28,315.51 599.76,313.57 599.41,310.6C590.2,304.23 605.48,297.86 600.03,290C597.44,286.59 583.45,291.69 588.57,283.99C583.43,283.46 585.36,286.21 581.22,280.01C588.03,281.12 584.94,276.53 585.55,271.71C588.87,271.57 592.12,271.6 590.3,267.06C583.19,258.87 592.12,250.93 589.3,240.19C589.41,237.22 589.42,235.31 591.79,233.19C585.35,234.44 589.22,232.49 592.68,231.53C599.56,226.99 602.46,219.34 609.42,214.42C615.14,204.51 609.21,197.98 610.07,186.8Z" style="fill:rgb(215,215,211);fill-rule:nonzero;"/>
                <path d="M645.62,187.25C647.36,190.03 648.59,192.69 650.95,195.11C649.85,198.58 647.97,198.93 651.62,201.63C644.57,205.19 650.82,207.46 642.32,209.33C634.2,215.75 645.73,222.05 644.89,229.98C644.45,238.87 654.37,255.53 664.41,250.59C664.73,260.62 665.75,268.94 657.27,276.31L657.31,275.39C658.02,272.2 661.83,267.53 659.65,264.5C658.38,260.68 653.69,263.62 651.82,259.13C648.26,250.49 643.53,244.96 639.91,237.04C640.37,229.31 635.64,224.05 633.95,217.03C632.19,208.61 642.08,203.99 634.28,197.75C626.23,193.17 626.89,205.84 627.09,210.36C626.77,211.56 626.41,212.75 626.04,213.94C622.92,217.87 622.67,223.29 621.75,228.14C620.65,224.22 617.51,215.3 618.98,211.97C629.76,208.27 623.22,201.16 627.27,193.3C631.57,188.82 639.77,195.87 643.35,191.93C641.79,189.22 641.42,186.37 645.62,187.25Z" style="fill:rgb(218,171,137);fill-rule:nonzero;"/>
                <path d="M490.92,188.93C496.86,192.69 501.09,193.79 507.79,195.28C504.42,207.97 509.13,219.54 507.71,232.24C506.82,231.01 506.37,220 504.37,224.37C503.69,234.07 500.62,243.22 499.82,252.94C498.13,258.65 498.66,265.72 491.18,266.51C492.3,269.95 494.23,271.73 493.22,275.65C495.3,274.98 497.36,274.79 499.52,274.56C502.08,264.16 508.25,254.4 509.43,243.78C510.52,248.86 510.25,251.27 508.1,255.92C506.53,259.82 505.34,263.85 503.71,267.73C500.98,271.37 500.63,278.15 498.78,280.92C484.91,278.38 490.5,269.12 487.05,259.01C486.17,255.22 489.97,258.21 491.8,258.42C498.52,249.51 497.3,235.62 502.28,226.31C506.42,220.67 499.44,209.76 493.23,215.13C491.59,222.14 490.19,217.5 488.7,213.87C489.39,205.58 489.86,197.17 490.92,188.93Z" style="fill:rgb(200,158,121);fill-rule:nonzero;"/>
                <path d="M634.28,197.75C642.08,203.99 632.19,208.61 633.95,217.03C635.64,224.05 640.37,229.31 639.91,237.04C643.53,244.96 648.26,250.49 651.82,259.13C653.69,263.62 658.38,260.68 659.65,264.5C661.83,267.53 658.02,272.2 657.31,275.39C650.28,261.95 642.05,249.43 635.27,235.82C633.9,224.37 627.59,217.14 632.93,204.96C632.15,195.92 627.32,207.59 627.09,210.36C626.89,205.84 626.23,193.17 634.28,197.75Z" style="fill:rgb(178,138,108);fill-rule:nonzero;"/>
                <path d="M632.93,204.96C627.59,217.14 633.9,224.37 635.27,235.82C634.15,237.67 632.96,239.47 631.8,241.3C630.6,235.6 629.88,228.25 626.86,223.21C622.34,220.66 625.75,217.91 626.04,213.94C626.41,212.75 626.77,211.56 627.09,210.36C627.32,207.59 632.15,195.92 632.93,204.96Z" style="fill:rgb(91,55,30);fill-rule:nonzero;"/>
                <path d="M488.7,213.87C490.19,217.5 491.59,222.14 493.23,215.13C499.44,209.76 506.42,220.67 502.28,226.31C497.3,235.62 498.52,249.51 491.8,258.42C489.97,258.21 486.17,255.22 487.05,259.01C490.5,269.12 484.91,278.38 498.78,280.92C500.63,278.15 500.98,271.37 503.71,267.73C503.38,270.07 503.02,272.41 502.68,274.75C502.15,277.65 501.98,280.59 501.47,283.48C497.23,282.17 492.96,281.36 488.66,280.33C483.23,277.81 487.67,268.77 482.15,268.28C474.88,277.98 479.92,282.49 474.16,290.16C473.7,297.96 477.64,306.42 479.44,314.02C477.12,321.38 480.72,329.83 481.45,337.62C487.61,346.47 482.92,354.37 488.85,363.11C494.93,366.02 492.09,371.48 497.32,374.73C500.16,378.26 500.97,382.8 502.21,386.47C503.65,386.31 505.52,381.19 506.72,379.72C506.17,387.04 501.24,395.03 497.43,401.23C488.67,372.29 478.97,344.72 472.34,314.82C469.21,299.07 471.36,283.9 475.52,268.62C478.95,249.78 480.77,231.58 488.7,213.87Z" style="fill:rgb(218,178,150);fill-rule:nonzero;"/>
                <path d="M626.04,213.94C625.75,217.91 622.34,220.66 626.86,223.21C629.88,228.25 630.6,235.6 631.8,241.3C629.75,248.34 628.03,255.67 625,262.34C620.7,259.86 631.96,245.92 626.22,241.77C623.51,239.09 621.78,235.85 619.96,232.55C619.87,226.31 622.74,236.34 624.9,237.04C624.14,233.94 622.78,231.14 621.75,228.14C622.67,223.29 622.92,217.87 626.04,213.94Z" style="fill:rgb(167,137,110);fill-rule:nonzero;"/>
                <path d="M507.71,232.24C508.38,236.07 508.94,239.91 509.43,243.78C508.25,254.4 502.08,264.16 499.52,274.56C497.36,274.79 495.3,274.98 493.22,275.65C494.23,271.73 492.3,269.95 491.18,266.51C498.66,265.72 498.13,258.65 499.82,252.94C500.62,243.22 503.69,234.07 504.37,224.37C506.37,220 506.82,231.01 507.71,232.24Z" style="fill:rgb(165,120,88);fill-rule:nonzero;"/>
                <path d="M619.25,233.12L619.96,232.55C621.78,235.85 623.51,239.09 626.22,241.77C631.96,245.92 620.7,259.86 625,262.34C622.89,268.48 619.3,273.9 617.03,279.99C612.76,291.57 602.23,275.54 607.58,270.59C614.07,259.07 622.3,247 619.25,233.12Z" style="fill:rgb(186,180,173);fill-rule:nonzero;"/>
                <path d="M555.05,236.98C555.34,245.29 557.64,254.57 546.26,255.37C545.46,257.76 546.58,259.38 547.43,261.51C550.04,266.62 543.21,266.41 540.08,266.89C541.65,258.46 543.01,250.25 541.41,241.62C536.77,234.38 552.38,234.01 555.05,236.98Z" style="fill:rgb(170,190,204);fill-rule:nonzero;"/>
                <path d="M570.91,235.12C573.19,236.97 573.03,248.33 567.23,242.9C565.1,234.1 558.78,247.42 566.86,247.17C569.34,255.51 560.76,246.59 563.19,258.93C567.82,259.96 565.63,254.3 569.38,255.54C574.04,255.41 570.8,262.21 570.63,264.82C566.13,264.85 561.64,263.83 557.11,263.74C557.94,256.69 558.38,247.5 558.38,240.51C553.66,232.11 566.78,235.61 570.91,235.12Z" style="fill:rgb(161,183,198);fill-rule:nonzero;"/>
                <path d="M589.3,240.19C592.12,250.93 583.19,258.87 590.3,267.06C584.79,277.45 582.22,255.49 580.08,256.93C579.96,260.3 581.02,263.49 580.91,266.85C579.24,266.52 573.14,266.61 573.07,264.8C574.84,256.44 576.89,245.31 574.29,237.32C576.68,234.42 586.27,238.57 589.3,240.19Z" style="fill:rgb(150,175,193);fill-rule:nonzero;"/>
                <path d="M533.66,239.11C535.28,248.25 536.33,256.97 538.96,265.88C535.96,270.31 531.53,270.62 533.39,263.59C529.02,261.66 535.36,273.04 528.17,272.56C525.19,269.72 525.05,276.6 522.95,278.1C519.93,282.32 519.41,277.77 519.01,275.01C519.16,266.39 513.81,253.17 519.58,246.07C526.13,240.94 525.58,262.15 520.05,252.11C520.1,257.95 519.46,267.13 522.62,272.05C522.48,268.15 524.91,260.06 526.45,268.99C529.47,263.98 527.52,254.24 528.99,247.99C529.29,244.39 528.72,239.35 533.66,239.11Z" style="fill:rgb(134,157,173);fill-rule:nonzero;"/>
                <path d="M597.6,242.46C604.79,245.46 604.54,248.82 603.8,255.97C598.75,255.78 601.36,248.98 597.3,249.09C593.55,258.71 603.7,255.36 603.08,263.97C603.12,267.48 603.66,278.02 597.29,273.76C591.92,271.4 591.53,267.8 591.57,262.43C596.94,261.91 593.06,268.81 598.83,267.94C601.22,258.79 591.59,262.01 592.06,253.02C592.85,249.39 591.9,241.46 597.6,242.46Z" style="fill:rgb(123,145,166);fill-rule:nonzero;"/>
                <path d="M482.15,268.28C487.67,268.77 483.23,277.81 488.66,280.33C492.96,281.36 497.23,282.17 501.47,283.48C501.98,280.59 502.15,277.65 502.68,274.75C502.88,295.35 507.15,325.91 499.61,344.29C503.67,345.96 501.52,352.49 501.96,356C500.17,362.21 507.88,367.71 512.65,370.47C510.86,371.54 505.9,372.12 509.08,374.92C513.33,378.46 506.49,375.35 506.72,379.72C505.52,381.19 503.65,386.31 502.21,386.47C500.97,382.8 500.16,378.26 497.32,374.73C492.09,371.48 494.93,366.02 488.85,363.11C482.92,354.37 487.61,346.47 481.45,337.62C480.72,329.83 477.12,321.38 479.44,314.02C477.64,306.42 473.7,297.96 474.16,290.16C479.92,282.49 474.88,277.98 482.15,268.28Z" style="fill:rgb(241,204,181);fill-rule:nonzero;"/>
                <path d="M690.27,288C681.92,304.15 668.12,316.74 651.37,324.01C656.11,314.45 665.48,304.39 674.2,299.87C677.28,301.18 682.07,290.49 685.23,289.21C686.66,288.68 690.44,284.29 690.27,288Z" style="fill:rgb(189,158,140);fill-rule:nonzero;"/>
                <path d="M624.53,323.84C630.92,326.34 623.86,341.45 621.57,345.76C618.71,336.04 617.55,352.46 613.76,354.31C609.26,353.62 610.29,351.84 609.93,348.09C610.2,345.09 612.46,343.94 608.02,344C601.11,344.81 608.28,337.06 608.24,334.01C612.02,337.36 611.85,332.82 614.85,330.99C614.55,334.99 613.53,338.85 613.06,342.81C621.27,340.53 626.76,332.38 624.53,323.84Z" style="fill:rgb(194,154,141);fill-rule:nonzero;"/>
                <path d="M649.3,339.14C644.07,350.19 643.42,362.66 629.02,362.74C626.27,366.52 619.51,365.21 622.04,360.15C624.47,355.44 620,361.07 618.76,361.98C614.14,362.38 613.73,360.15 615.03,356.38C619.19,349.64 621.97,353.27 627.17,344.03C634.98,348.1 630.08,339.68 634.94,335.96C635.52,342.37 628.63,346.41 638.37,348.38C640.46,347.06 640.39,339 641.92,335.95C642.8,329.47 647.52,337.65 649.3,339.14Z" style="fill:rgb(192,152,139);fill-rule:nonzero;"/>
                <path d="M609.93,348.09C610.29,351.84 609.26,353.62 613.76,354.31C614.18,355 614.61,355.69 615.03,356.38C613.73,360.15 614.14,362.38 618.76,361.98C618.49,362.45 613.54,363.87 616,363.85C621.84,363.92 619.02,371.29 619.36,374.81C622.21,382.12 616.05,384.87 618.4,392.81C612.36,396.12 612.67,402.08 604.99,402.83C602.64,395.2 603.46,392.33 605.85,382.04C603.77,385.44 597.32,389.38 599.37,381.98C603.9,375.64 600.8,367.43 605.93,361.08C596.6,365.63 589.96,371.88 582.1,378.23C587.82,369.72 597.27,363.28 605.74,357.73C602.89,355.27 607.44,342.47 609.93,348.09Z" style="fill:rgb(202,201,196);fill-rule:nonzero;"/>
                <path d="M622.04,360.15C619.51,365.21 626.27,366.52 629.02,362.74C631.8,395.6 626.64,429.76 621.01,462.2C611.99,460.69 603.56,458.34 594.26,458.21C587.53,458.47 581.19,456.62 574.71,458.15C578.13,450.22 573.89,443.2 575.42,435.55C582.75,433.64 567.67,432.08 575.95,430.46C567.53,428.36 570.54,419.77 568.96,412.98C569.94,407.58 578.51,393.07 576.07,388.98L577.1,387.94C579.95,385.61 579.86,381.22 582.1,378.23C589.96,371.88 596.6,365.63 605.93,361.08C600.8,367.43 603.9,375.64 599.37,381.98C597.32,389.38 603.77,385.44 605.85,382.04C603.46,392.33 602.64,395.2 604.99,402.83C612.67,402.08 612.36,396.12 618.4,392.81C616.05,384.87 622.21,382.12 619.36,374.81C619.02,371.29 621.84,363.92 616,363.85C613.54,363.87 618.49,362.45 618.76,361.98C620,361.07 624.47,355.44 622.04,360.15Z" style="fill:rgb(226,226,222);fill-rule:nonzero;"/>
                <path d="M580.1,369.42C584.46,371.06 574.47,383.35 582.1,378.23C579.86,381.22 579.95,385.61 577.1,387.94C577.54,380.76 572.63,390.76 571.15,392.16C564.29,391.5 559.82,396.35 552.32,392.05C553.48,397.28 557.7,399.27 560.2,403.79C563.54,407.79 560.04,413.13 561.73,418.19C561.28,419.81 560.86,421.38 560.06,422.87C560.68,418.49 556.56,410.89 552.1,410.07C552.76,416.3 559.89,417.03 558.04,425.4C553.14,421.83 549.65,417.22 543.9,414.68C537,410.2 529,408.12 521.93,404.13C530.58,404.21 539.79,407.38 547.91,410.12C549.49,410.75 550.14,409.87 551.43,409.11C554.95,408.92 559.11,396.97 552.32,403.55C544.75,395.83 556.53,398.64 548.92,393.1C545.67,389.61 536.12,389.77 540.88,383.41C545.45,382.69 549.09,383.19 553.1,380.16C555.31,381.13 555.49,385.06 557.21,386.84C563.65,385.79 565.88,380.16 572.25,379.39C577.2,378.69 576.52,372.61 580.1,369.42Z" style="fill:rgb(196,194,184);fill-rule:nonzero;"/>
                <path d="M577.1,387.94L576.07,388.98C570.16,396.31 566.71,403.33 567.95,413.04C568.2,417.51 566.85,411.79 565.85,410.8C563.71,412.68 562.85,415.63 561.73,418.19C560.04,413.13 563.54,407.79 560.2,403.79C557.7,399.27 553.48,397.28 552.32,392.05C559.82,396.35 564.29,391.5 571.15,392.16C572.63,390.76 577.54,380.76 577.1,387.94Z" style="fill:rgb(127,129,122);fill-rule:nonzero;"/>
                <path d="M576.07,388.98C578.51,393.07 569.94,407.58 568.96,412.98C570.54,419.77 567.53,428.36 575.95,430.46C567.67,432.08 582.75,433.64 575.42,435.55C573.89,443.2 578.13,450.22 574.71,458.15C573.99,459.14 573.28,460.13 572.6,461.13C569.78,444.38 567.24,427.75 565.85,410.8C566.85,411.79 568.2,417.51 567.95,413.04C566.71,403.33 570.16,396.31 576.07,388.98Z" style="fill:rgb(175,175,169);fill-rule:nonzero;"/>
                <path d="M513.39,400.51C525.71,402.12 540.35,403.33 551.43,409.11C550.14,409.87 549.49,410.75 547.91,410.12C539.79,407.38 530.58,404.21 521.93,404.13C529,408.12 537,410.2 543.9,414.68C544.32,417.34 544.39,420.23 541.05,420.82C533.08,417.48 525.98,412.67 517,411.03C522.69,414.92 529.34,417.62 535.67,420.33C544.12,423.52 533.34,422.36 543.72,426.07C542,429.26 540.38,432.52 538.55,435.64C535.8,436.99 532.42,433.95 529.41,433.84C533.43,438.29 521.75,438.41 528.63,440.38C524.69,448.91 520.1,455.3 511.3,459.2C508.22,464.73 503.91,459.44 499.66,458.3C495.45,455.9 491.51,457.04 486.97,456.58C489.36,453.91 494.37,454.89 496.15,452.05C494.36,450.62 491.98,449.59 490.52,447.82C489.53,444.89 502.06,445.58 498.8,443.87C503.88,442.65 505.47,439.14 510.71,441.59C512.07,436.99 516.06,433.24 510.55,429.8C513.29,422.56 507.94,417.12 500.59,418.52C495.35,420.19 487.82,431.84 487.34,437.19C486.95,435.64 486.49,434.12 486.02,432.6C488.89,422.74 491.78,411.77 496.88,402.85C502.01,401.17 507.98,399.52 513.39,400.51Z" style="fill:rgb(74,74,74);fill-rule:nonzero;"/>
                <path d="M552.1,410.07C556.56,410.89 560.68,418.49 560.06,422.87C559.4,423.72 558.73,424.57 558.04,425.4C559.89,417.03 552.76,416.3 552.1,410.07Z" style="fill:rgb(56,53,42);fill-rule:nonzero;"/>
                <path d="M517,411.03C525.98,412.67 533.08,417.48 541.05,420.82C544.39,420.23 544.32,417.34 543.9,414.68C549.65,417.22 553.14,421.83 558.04,425.4C551.38,448.69 537.3,467.93 529.14,490.56C521.67,485.88 515.18,479.68 506.41,476.47C503.12,474.58 507.44,474.52 508.85,474.57C507.96,471.16 504.49,472.96 501.89,472.59C496.13,472.97 493.44,468.15 487.44,468.69C487.79,466.57 487.34,461.62 485.29,466.31C482.78,472.64 482.09,464.45 480.13,462.61C482,452.54 483.12,442.48 486.02,432.6C486.49,434.12 486.95,435.64 487.34,437.19C486.36,442.87 488.57,437.12 490.09,435.79C492.2,441.57 491.87,443.45 498.8,443.87C502.06,445.58 489.53,444.89 490.52,447.82C491.98,449.59 494.36,450.62 496.15,452.05C494.37,454.89 489.36,453.91 486.97,456.58C491.51,457.04 495.45,455.9 499.66,458.3C503.91,459.44 508.22,464.73 511.3,459.2C520.1,455.3 524.69,448.91 528.63,440.38C521.75,438.41 533.43,438.29 529.41,433.84C532.42,433.95 535.8,436.99 538.55,435.64C540.38,432.52 542,429.26 543.72,426.07C533.34,422.36 544.12,423.52 535.67,420.33C529.34,417.62 522.69,414.92 517,411.03Z" style="fill:rgb(51,52,52);fill-rule:nonzero;"/>
                <path d="M510.55,429.8C516.06,433.24 512.07,436.99 510.71,441.59C505.47,439.14 503.88,442.65 498.8,443.87C491.87,443.45 492.2,441.57 490.09,435.79C488.57,437.12 486.36,442.87 487.34,437.19C487.82,431.84 495.35,420.19 500.59,418.52C507.94,417.12 513.29,422.56 510.55,429.8Z" style="fill:rgb(168,163,139);fill-rule:nonzero;"/>
                <path d="M594.26,458.21C588.78,459.82 583.81,458.48 578.22,459.21C574.88,470.09 585.35,472.71 582.27,482.68C580.82,488.2 574.42,493.32 581.09,497.94C586.05,502.97 590.02,496.87 595.57,495.57C596.79,489.49 599.5,486.95 604.16,483.08C612.43,481.66 613.49,493.33 610.96,498.87C610.82,502.7 607.19,511.05 608.66,501.24C599.86,501.83 591.87,495.67 586.47,505.46C582.03,510.62 585.95,514.94 592.01,513.06C596.97,513.62 600.24,507.31 604.43,509.59C607.42,512.71 598.33,516.14 602.2,517.73C613.03,520 603.45,546.2 593.25,536.99C591.78,539.84 594,540.28 590.23,545.06C592.11,550.19 592.57,556.29 591.7,561.63C591.93,563.58 595.91,566.72 592.09,566.75C593.23,571.47 595.16,578.58 592.52,582.94C589.25,575.29 591.58,587.78 592.86,589.32C595,593.56 589.57,593.04 589.77,597.45C594.45,594.53 594.07,601.79 589.29,600.47C590.84,604.26 589.19,607.56 590.1,611.52C582.93,611.3 585.84,606.78 584.29,601.76C583.39,584.93 579.86,566.47 582.83,549.93C587.15,533.64 579.28,522.71 576.78,507.18C574.53,492 574.09,476.43 572.6,461.13C573.28,460.13 573.99,459.14 574.71,458.15C581.19,456.62 587.53,458.47 594.26,458.21Z" style="fill:rgb(180,144,122);fill-rule:nonzero;"/>
                <path d="M594.26,458.21C603.56,458.34 611.99,460.69 621.01,462.2C616.25,481.09 618.52,498.65 617.98,518.02C619.48,532.23 624.89,545.2 622.48,560.39C620.99,576.8 616.5,592.62 613.95,608.85C611.62,619.17 597.3,610.84 590.1,611.52C589.19,607.56 590.84,604.26 589.29,600.47C594.07,601.79 594.45,594.53 589.77,597.45C589.57,593.04 595,593.56 592.86,589.32C591.58,587.78 589.25,575.29 592.52,582.94C595.16,578.58 593.23,571.47 592.09,566.75C595.91,566.72 591.93,563.58 591.7,561.63C592.57,556.29 592.11,550.19 590.23,545.06C594,540.28 591.78,539.84 593.25,536.99C603.45,546.2 613.03,520 602.2,517.73C598.33,516.14 607.42,512.71 604.43,509.59C600.24,507.31 596.97,513.62 592.01,513.06C585.95,514.94 582.03,510.62 586.47,505.46C591.87,495.67 599.86,501.83 608.66,501.24C607.19,511.05 610.82,502.7 610.96,498.87C613.49,493.33 612.43,481.66 604.16,483.08C599.5,486.95 596.79,489.49 595.57,495.57C590.02,496.87 586.05,502.97 581.09,497.94C574.42,493.32 580.82,488.2 582.27,482.68C585.35,472.71 574.88,470.09 578.22,459.21C583.81,458.48 588.78,459.82 594.26,458.21Z" style="fill:rgb(209,172,146);fill-rule:nonzero;"/>
                <path d="M480.13,462.61C482.09,464.45 482.78,472.64 485.29,466.31C487.34,461.62 487.79,466.57 487.44,468.69C493.44,468.15 496.13,472.97 501.89,472.59C504.49,472.96 507.96,471.16 508.85,474.57C507.44,474.52 503.12,474.58 506.41,476.47C515.18,479.68 521.67,485.88 529.14,490.56C526.91,496.87 523.07,501.91 522.04,508.32C515.25,521.21 520.67,531.99 520.3,545.72C508.72,552.74 496.41,552.68 483.35,551.63C480.6,551.06 478.91,550.09 477.05,548C475.87,538.09 474.08,531 476.69,520.82C478.57,508.95 471.81,494.27 481.67,484.89C482.95,476.26 477.01,470.07 480.13,462.61Z" style="fill:rgb(19,22,26);fill-rule:nonzero;"/>
                <path d="M484.08,477.18C489.55,476.85 495.48,476.83 500.94,477.2C502.73,481.44 482.5,480.9 484.08,477.18Z" style="fill:rgb(127,122,106);fill-rule:nonzero;"/>
                <path d="M520.3,545.72C524.5,567.78 513.1,582.68 512.07,604.12C504.26,605.15 488.09,605.05 481.22,602.03C479.91,584.09 476.79,565.99 477.05,548C478.91,550.09 480.6,551.06 483.35,551.63C496.41,552.68 508.72,552.74 520.3,545.72Z" style="fill:rgb(206,175,152);fill-rule:nonzero;"/>
                <path d="M481.22,602.03C488.09,605.05 504.26,605.15 512.07,604.12C510.04,617.4 509.65,629.58 509.98,643.01C507.66,640.51 505.5,639.18 502,639.04C503.65,640.62 508.97,642.18 508.58,644.79C504.11,652.78 496.96,654.93 489.12,649.71C490.72,646.14 496.68,646.5 499.96,645.65C499.03,644.57 491.43,642.52 495.71,641.61C498.8,641.41 503.18,638.6 496.81,639.65C489.33,638.34 506.14,635.95 496.8,635.5C503.26,631.37 503.11,630.33 496.12,627.06C502.7,627.38 498.7,623.67 507.09,625.65C504.69,622.82 500.44,625.05 499.58,621.42C498.05,616.18 492.71,617.21 488.45,616C489.69,612.19 494.7,613.56 494.81,611.27C490.26,610.88 485.75,610.42 481.19,610.55C481.24,607.7 481.53,604.89 481.22,602.03Z" style="fill:rgb(222,221,212);fill-rule:nonzero;"/>
                <path d="M584.29,601.76C585.84,606.78 582.93,611.3 590.1,611.52C597.3,610.84 611.62,619.17 613.95,608.85C611.24,622.9 607.25,633.09 611.22,647.73C611.14,653.46 610.97,659.29 611.66,664.99C607.85,661.21 604.52,657.61 606.99,651.95C607.63,648.94 597.98,641.69 600.94,649.22C604.19,659.35 589.64,651.12 584.92,652.67C587.4,651.22 589.99,651.28 592.74,650.8C591.12,648.2 584.3,650.3 582.3,652.24C583.3,659.22 584.57,659.96 579.1,665.92C579.13,655.34 576.9,640.89 582.14,631.25C587.99,634.35 600.97,633.91 607.58,631.58C610.83,620.28 590.64,626.27 588.46,621.35C589.24,617.45 587.46,619.63 585.1,619.87C584.6,613.74 583.36,607.96 584.29,601.76Z" style="fill:rgb(226,222,209);fill-rule:nonzero;"/>
                <path d="M502.13,614.65C507.01,615.3 507.04,616.29 502.01,616.06C496.07,616.84 497.12,611.99 502.13,614.65Z" style="fill:rgb(65,65,62);fill-rule:nonzero;"/>
                <path d="M488.45,616C492.71,617.21 498.05,616.18 499.58,621.42C500.44,625.05 504.69,622.82 507.09,625.65C498.7,623.67 502.7,627.38 496.12,627.06C492.23,623.91 480.68,628.95 479.76,623.17C476.91,616.43 484.21,617.1 488.45,616Z" style="fill:rgb(208,192,144);fill-rule:nonzero;"/>
                <path d="M588.46,621.35C590.64,626.27 610.83,620.28 607.58,631.58C600.97,633.91 587.99,634.35 582.14,631.25C584.59,627.72 584.46,623.96 585.1,619.87C587.46,619.63 589.24,617.45 588.46,621.35Z" style="fill:rgb(195,180,135);fill-rule:nonzero;"/>
                <path d="M479.42,636.34C483.62,635.41 488.55,636.26 492.81,636.43C495.53,638.5 489.31,638.26 488.16,639.12C489.61,640.34 491.41,641.02 492.05,642.87C489.32,641.23 478.49,640.29 486.52,644.35C486.5,643.39 473.91,646.35 476.7,642.71C478.27,640.8 478.71,638.63 479.42,636.34Z" style="fill:rgb(211,204,176);fill-rule:nonzero;"/>
                <path d="M502,639.04C505.5,639.18 507.66,640.51 509.98,643.01C509.98,644.29 509.96,645.57 509.93,646.85C508.51,651.37 499.06,656.22 502.2,660.69C502.5,667.84 495.65,658.87 493.92,663.83C493.14,667.61 485.96,672.98 489.28,665.28C489.93,655.55 484.18,673.99 484.92,663.31C486.6,659.4 487.22,658.08 485.34,654.08C492.16,656.39 492.63,656.17 489.12,649.71C496.96,654.93 504.11,652.78 508.58,644.79C508.97,642.18 503.65,640.62 502,639.04Z" style="fill:rgb(194,180,134);fill-rule:nonzero;"/>
                <path d="M509.93,646.85C511.9,656.26 516.72,667.75 508.14,675.21C497.79,676.42 488.37,678.84 477.79,678.86C486.3,674.8 497.21,676.15 504.76,674.13C489.8,671.85 477.69,679.66 462.81,676.37C458.39,676.86 451.35,672.56 450.1,678.86C457.82,679.32 465.53,678.61 473.25,679.31C465.71,680.7 457.66,679.83 450,679.9C448.58,679.61 444.28,680.09 446.73,677.68C451.5,676.14 445.17,674.83 444.6,672.39C440.87,665.64 452.67,658.53 458.04,661.94C463.5,666.43 466.49,663.51 472.81,666.58C478.27,663.25 478.34,662.14 484.92,663.31C484.18,673.99 489.93,655.55 489.28,665.28C485.96,672.98 493.14,667.61 493.92,663.83C495.65,658.87 502.5,667.84 502.2,660.69C499.06,656.22 508.51,651.37 509.93,646.85Z" style="fill:rgb(209,209,200);fill-rule:nonzero;"/>
                <path d="M604.08,671.77C607.95,669.92 610.54,669.45 614.88,670.2C615.46,674.65 612.86,681.14 607.27,679.81C597.79,678.72 587.7,677.62 578.12,678.12C578.74,678.76 579.39,679.39 580.04,680C573.79,681.98 575.69,672.42 577.32,669.34C585.31,662.18 596.18,667.3 604.08,671.77Z" style="fill:rgb(212,212,207);fill-rule:nonzero;"/>
                <path d="M504.76,674.13C497.21,676.15 486.3,674.8 477.79,678.86C476.27,678.99 474.76,679.14 473.25,679.31C465.53,678.61 457.82,679.32 450.1,678.86C451.35,672.56 458.39,676.86 462.81,676.37C477.69,679.66 489.8,671.85 504.76,674.13Z" style="fill:rgb(63,63,60);fill-rule:nonzero;"/>
                <path d="M578.12,678.12C587.7,677.62 597.79,678.72 607.27,679.81C598.2,680.16 589.11,679.96 580.04,680C579.39,679.39 578.74,678.76 578.12,678.12Z" style="fill:rgb(73,73,72);fill-rule:nonzero;"/>
            </g>
        </g>
    </g>
</svg>
