<?xml version="1.0" encoding="UTF-8" standalone="no"?>
<!DOCTYPE svg PUBLIC "-//W3C//DTD SVG 1.1//EN" "http://www.w3.org/Graphics/SVG/1.1/DTD/svg11.dtd">
<svg width="100%" height="100%" viewBox="0 0 1729 1728" version="1.1" xmlns="http://www.w3.org/2000/svg" xmlns:xlink="http://www.w3.org/1999/xlink" xml:space="preserve" xmlns:serif="http://www.serif.com/" style="fill-rule:evenodd;clip-rule:evenodd;stroke-linejoin:round;stroke-miterlimit:2;">
    <g transform="matrix(1,0,0,1,-3676,0)">
        <g id="Artboard3" transform="matrix(1,0,0,1,20.834324,0)">
            <rect x="3656" y="0" width="1728" height="1728" style="fill:none;"/>
            <g transform="matrix(0.915641,1.585936,-1.585936,0.915641,4574.630692,-68.189422)">
                <g>
                    <path d="M449.97,156.19C455.59,155.18 460.75,156.82 465.75,159.25C471.47,162.08 477.06,165.19 482.59,168.38C487.43,171.16 491.82,174.57 496.58,177.45C501.29,180.39 507.58,181.12 513,181.61C517.62,181.96 522.44,182.56 527.07,182.07C528.63,181.92 530.04,180.55 531.36,179.77C532.18,180.81 533,181.86 533.82,182.91C529.92,187.93 524.81,191.23 519.4,194.4C511.78,198.71 502.83,202.89 494,203.48C487.75,204.03 483.98,200.16 478.03,199.35C474.07,198.7 470.02,200.33 466.16,199.76C463.38,199.1 462.02,196.91 460.4,194.79C460.6,202.25 460.84,209.63 461.98,217.02C462.07,219.32 463.07,222.77 461.25,224.53C459.9,223.73 458.64,222.79 457.4,221.84C464.77,236.21 465.69,251.95 470.79,268.11C474.18,269.24 477.98,270.16 481.04,272.04C484.05,273.97 485.79,277.49 487.42,280.56C489.2,284.09 491.18,287.56 492.68,291.21C494.39,295.45 494.44,299.58 494.8,304.06C507.88,309.71 521.9,313.26 534.94,318.99C536.9,319.98 539.8,321.28 540.72,323.4C541.68,327.63 539.86,331.9 537.14,335.1C532.98,340.02 526.67,343.37 520.78,345.76C509.03,350.46 496.04,352.71 483.45,353.49C481.55,358.87 480.32,364.92 475.95,368.93C471.29,373.16 464.92,375.81 459.17,378.22C454.67,380.16 449.8,380.5 445.21,382.02C438.97,386.66 433.61,392.83 426.86,396.93C422.97,399.21 418.66,400.39 415.06,403.07C412.42,405.02 410.4,407.2 407.22,408.35C400.81,410.66 393.79,411.54 387,411.7C379.74,411.78 371.47,410.75 365.23,406.74C360.89,404.01 359.17,399.99 355.46,396.53C350.37,391.66 346.16,386.06 343.53,379.48C341.16,373.22 340.33,366.57 339.48,360C339.28,356.99 337.06,354.96 335.5,352.49C331.16,346.39 329.68,338.87 328.18,331.68C317.75,327.8 309.15,321.81 299.24,316.77C291,312.82 282.96,306.93 277.65,299.44C274.83,292.88 279.16,283.5 285.43,280.38C298.43,273.39 313.52,269.12 327.78,265.52C330.94,264.67 334.16,264.15 337.41,263.77C340.3,258.2 345.13,255.46 350.07,252.03C351.94,250.86 352.31,249.07 353.11,247.17C355.25,241.4 358.1,234.93 362.61,230.61C364.72,228.51 367.48,227.53 369.79,225.77C372.3,222.92 374.11,219.39 376.23,216.24C384.6,202.92 394.14,190.41 405.33,179.33C411.83,172.29 420.25,169.04 428.57,164.57C435.29,161.34 442.57,157.43 449.97,156.19Z" style="fill:rgb(0,28,61);fill-rule:nonzero;"/>
                    <clipPath id="_clip1">
                        <path d="M449.97,156.19C455.59,155.18 460.75,156.82 465.75,159.25C471.47,162.08 477.06,165.19 482.59,168.38C487.43,171.16 491.82,174.57 496.58,177.45C501.29,180.39 507.58,181.12 513,181.61C517.62,181.96 522.44,182.56 527.07,182.07C528.63,181.92 530.04,180.55 531.36,179.77C532.18,180.81 533,181.86 533.82,182.91C529.92,187.93 524.81,191.23 519.4,194.4C511.78,198.71 502.83,202.89 494,203.48C487.75,204.03 483.98,200.16 478.03,199.35C474.07,198.7 470.02,200.33 466.16,199.76C463.38,199.1 462.02,196.91 460.4,194.79C460.6,202.25 460.84,209.63 461.98,217.02C462.07,219.32 463.07,222.77 461.25,224.53C459.9,223.73 458.64,222.79 457.4,221.84C464.77,236.21 465.69,251.95 470.79,268.11C474.18,269.24 477.98,270.16 481.04,272.04C484.05,273.97 485.79,277.49 487.42,280.56C489.2,284.09 491.18,287.56 492.68,291.21C494.39,295.45 494.44,299.58 494.8,304.06C507.88,309.71 521.9,313.26 534.94,318.99C536.9,319.98 539.8,321.28 540.72,323.4C541.68,327.63 539.86,331.9 537.14,335.1C532.98,340.02 526.67,343.37 520.78,345.76C509.03,350.46 496.04,352.71 483.45,353.49C481.55,358.87 480.32,364.92 475.95,368.93C471.29,373.16 464.92,375.81 459.17,378.22C454.67,380.16 449.8,380.5 445.21,382.02C438.97,386.66 433.61,392.83 426.86,396.93C422.97,399.21 418.66,400.39 415.06,403.07C412.42,405.02 410.4,407.2 407.22,408.35C400.81,410.66 393.79,411.54 387,411.7C379.74,411.78 371.47,410.75 365.23,406.74C360.89,404.01 359.17,399.99 355.46,396.53C350.37,391.66 346.16,386.06 343.53,379.48C341.16,373.22 340.33,366.57 339.48,360C339.28,356.99 337.06,354.96 335.5,352.49C331.16,346.39 329.68,338.87 328.18,331.68C317.75,327.8 309.15,321.81 299.24,316.77C291,312.82 282.96,306.93 277.65,299.44C274.83,292.88 279.16,283.5 285.43,280.38C298.43,273.39 313.52,269.12 327.78,265.52C330.94,264.67 334.16,264.15 337.41,263.77C340.3,258.2 345.13,255.46 350.07,252.03C351.94,250.86 352.31,249.07 353.11,247.17C355.25,241.4 358.1,234.93 362.61,230.61C364.72,228.51 367.48,227.53 369.79,225.77C372.3,222.92 374.11,219.39 376.23,216.24C384.6,202.92 394.14,190.41 405.33,179.33C411.83,172.29 420.25,169.04 428.57,164.57C435.29,161.34 442.57,157.43 449.97,156.19Z" clip-rule="nonzero"/>
                    </clipPath>
                    <g clip-path="url(#_clip1)">
                        <path d="M449.03,162.94C454.91,161.7 460.69,163.99 464.79,168.21C471,174.48 478.67,178.53 486.4,182.63C491.78,185.36 496.79,188.06 502.98,188.19C509.38,188.31 515.79,187.23 522.2,187.15C515.55,192.52 506.35,194.24 498.04,192.98C490.49,191.49 483.43,188.7 476.22,186.61C472.38,185.47 468.24,184.94 464.53,183.43C461.26,181.99 458.96,179.31 456.51,176.8C454.76,181.8 453.08,186.66 452.52,191.97C452.14,195.87 451.82,199.72 450.57,203.46C445.07,199.44 440.5,194.52 434.39,191.28C436.04,197.51 438.4,203.42 439.56,209.78C440.99,216.26 441.09,222.85 442.79,229.27C444.24,234.91 443.9,240.36 443.46,246.09C436.55,242.28 430.82,236.75 423.91,233.01C417.92,230.25 411.27,228.76 404.94,226.97C397.56,224.69 390.2,226.79 382.24,226.05C384.15,219.45 388.36,214.67 391.9,208.95C396.56,201.97 400.91,194.66 406.13,188.08C411.24,181.66 418.57,177.75 425.43,173.43C432.68,169.19 440.73,164.56 449.03,162.94Z" style="fill:white;fill-rule:nonzero;"/>
                        <path d="M385.82,230.84C384.37,233.47 382.91,236.09 381.45,238.72C375.09,239.16 368.91,240.43 362.71,241.85C363.88,240.39 364.99,238.66 366.45,237.46C372.24,233.47 378.83,231.43 385.82,230.84Z" style="fill:white;fill-rule:nonzero;"/>
                        <path d="M394.03,231.14C400.31,231.35 406.51,232.59 412.27,235.15C405.24,243.47 400.4,253.05 395.88,262.9C394.78,265.22 393.48,267.43 392.16,269.64C385.68,268.73 379.39,267.62 373.3,265.12C374.33,260.91 376.23,257.18 378.54,253.54C382.53,247.18 386.34,240.7 390.39,234.38C391.24,233.34 392.52,231.01 394.03,231.14Z" style="fill:white;fill-rule:nonzero;"/>
                        <path d="M421.1,239.86C432.28,246.47 442.9,253.62 451.85,263.14C457.91,269.54 462.14,277.92 465.43,286.02C464.52,288.56 462.81,289.81 460.12,289.98C454.56,285.3 451.2,277.03 446.29,271.71C441.6,266.5 436.56,261.27 430.95,257.06C425.23,252.97 419.3,249.22 413,246.08C413.83,243.69 414.42,240.9 415.87,238.81C417.63,237.67 419.51,239.07 421.1,239.86Z" style="fill:white;fill-rule:nonzero;"/>
                        <path d="M377.98,244.24C376.76,246.7 375.45,249.1 374.07,251.47C370.54,251.47 367,251.44 363.47,251.28C367.86,246.91 371.86,245.16 377.98,244.24Z" style="fill:white;fill-rule:nonzero;"/>
                        <path d="M410.96,251.98C415.2,252.37 419.41,254.83 422.98,257.03C429.8,261.5 436.49,267.03 441.18,273.76C439.85,275.58 438.47,277.33 436.97,279.01C428.22,270.79 417.33,264.6 406.53,259.5C407.93,257.01 409.09,254.15 410.96,251.98Z" style="fill:white;fill-rule:nonzero;"/>
                        <path d="M371.02,256.87C370.08,259.37 369.13,261.87 368.16,264.36C360.76,264.12 353.44,265.15 346.06,265.14C347.58,263.28 349.25,261.61 351.19,260.18C356.03,255.8 364.88,257.54 371.02,256.87Z" style="fill:white;fill-rule:nonzero;"/>
                        <path d="M401.84,265.2C408.05,267.05 413.95,271.13 419.38,274.62C426.48,279.32 433.27,284.69 439.36,290.64C442.56,294.01 446.43,298.3 447.32,302.98C447.66,304.87 447.29,305.96 446.04,307.38C442.5,307.85 441.15,303.84 439.37,301.57C434.11,294.17 424.77,288.97 417.76,283.24C411.79,278.18 405.03,275.54 398.07,272.21C399.14,269.76 400.29,267.38 401.84,265.2Z" style="fill:white;fill-rule:nonzero;"/>
                        <path d="M368.27,269.83C373.94,271.69 379.33,271.68 384.45,275.08C372.36,276.25 360.14,276.1 348.01,276.79C344.37,277.03 340.92,277.97 337.42,278.94C349.77,280.36 361.79,283.83 373.14,288.86C388.79,296.08 405.14,301.86 421.23,308C420.88,309.7 420.53,311.4 420.18,313.1C394.96,304.03 368.89,293.07 342.79,287.66C333.8,285.82 324.19,283.7 315,283.78C306.38,283.79 298.43,286.45 289.8,286.94C296.42,282.81 303.81,279.17 311.5,277.68C319.54,275.87 327.79,273.81 336.01,273.17C346.77,272.14 357.97,270.08 368.78,270.64L368.27,269.83Z" style="fill:white;fill-rule:nonzero;"/>
                        <path d="M467.88,276.6C472.35,280.42 477.44,284.42 480.55,289.45C483.26,294.87 484.44,301.2 485.92,307.05C483.87,308.13 481.16,308.85 480.21,311.21C478.85,314.86 478.57,319.15 478.96,323C479.34,326.4 481.96,328.02 484.21,330.22C483.53,333.67 483.03,337.39 481.7,340.65C479.81,340.6 478,340.19 476.1,340.2C473.31,342.27 471.24,345.86 469.91,349.02C468.55,352.73 470.63,355.59 472.14,358.79C468.46,362.44 464.88,365.81 460.21,368.21C457.62,369.53 454.52,369.87 451.67,370.38C454.73,366.31 458.49,362.39 460.82,357.85C462.31,354.66 460.6,351.86 458.05,349.96C455.2,347.96 451.59,345.97 448.06,345.84C444.89,348.45 442.73,352.28 439.99,355.34C435.46,341.88 432.91,328.21 435.39,314.04C431.87,326.55 429.78,339 431.2,352.03C431.61,356.3 433.65,359.93 434.47,364.16C432.78,363.29 431.38,363.39 430.42,361.54C426.89,355.54 424.41,349.01 423.87,342.02C422.75,328.51 426.21,315.29 430.71,302.67C433.16,305.13 435.81,307.26 437.95,310.02C439.94,312.37 441.93,315.4 445.03,316.27C451.16,315.09 455.25,307.98 454.1,302C452.87,294.83 447.73,289.37 442.79,284.42C443.69,282.72 444.63,281.06 445.62,279.41C448.45,283.27 451.29,287.1 453.79,291.18C454.68,292.54 455.6,294.15 456.88,295.17C461.46,295.74 468.4,295.14 471.29,290.96C471,287.1 469.63,283.24 468.65,279.5C468.39,278.54 468.14,277.57 467.88,276.6Z" style="fill:white;fill-rule:nonzero;"/>
                        <path d="M344.49,299.66C343.02,309.01 340.99,319.03 342.01,328.99C343.22,337.28 348.18,343.91 351.97,351.09C353.45,353.71 355.59,356.06 357.4,358.48C349.42,356.09 342.99,350.13 339.33,342.75C334.86,332.05 334.97,321.38 335.14,310C335.23,306.91 335.59,303.04 337.43,300.45C339.18,298.24 342.16,299.41 344.49,299.66Z" style="fill:white;fill-rule:nonzero;"/>
                        <path d="M486.33,313.47C486.92,316.67 485.82,319.39 484.45,322.19C483.85,319.93 482.53,316.72 483.57,314.46C484.29,313.4 485.21,313.57 486.33,313.47Z" style="fill:white;fill-rule:nonzero;"/>
                        <path d="M493.72,313.02C497.53,314.89 500.99,317.39 504.85,319.18C509.52,321.51 514.39,322.6 519.4,323.9C510.62,325.19 501.54,324.83 492.71,324.37C493.07,320.59 493.27,316.79 493.72,313.02Z" style="fill:white;fill-rule:nonzero;"/>
                        <path d="M391.85,326.95C400.48,329.46 408.47,333.2 417.51,334.34C417.68,337.19 417.77,340.05 417.85,342.91C408.27,340.42 398.54,338.53 388.9,336.29C389.87,333.17 390.86,330.06 391.85,326.95Z" style="fill:white;fill-rule:nonzero;"/>
                        <path d="M477.32,345.26C478.09,346.46 478.84,347.65 479.33,348.98C478.52,350.68 477.17,351.76 475.86,353.04C475.26,351.62 474.66,350.2 474.11,348.76C475.08,347.51 476.19,346.37 477.32,345.26Z" style="fill:white;fill-rule:nonzero;"/>
                        <path d="M384.43,347.66C388.78,347.83 392.8,348.89 396.99,349.88C404.51,351.7 412.01,353.4 419.75,353.96C420.61,360.1 425.05,364.57 428.54,369.44C421.95,374.05 415.4,379.21 408.39,383.08C406.21,382.37 404.41,381.32 402.04,381.73C393.16,382.69 385.14,385.05 376.21,382.6C370.88,381.07 365.35,379.04 360.36,376.63C355.52,374.22 355.11,368.87 353.85,364.21C361.19,366.63 368.99,364.51 374.95,359.88C378.76,356.6 381.72,351.85 384.43,347.66Z" style="fill:white;fill-rule:nonzero;"/>
                        <path d="M449.99,351.31C451.42,352.34 453.3,352.96 453.28,355.04C453.24,358.59 449.85,362.1 447.79,364.79C443.3,369.96 440.33,375.74 435.44,380.42C430.17,385.58 424.33,388.97 418.35,393.34C414.82,395.69 410.24,398.63 405.87,398.49C402.83,396.63 403.76,393.83 403.5,390.8C412.53,387.33 420.77,382.27 428.37,376.32C433.4,372.29 438.03,368.09 441.78,362.8C444.54,359.02 446.81,354.66 449.99,351.31Z" style="fill:white;fill-rule:nonzero;"/>
                        <path d="M348.23,369.36C351.16,374.43 353.78,379.26 358.64,382.8C358.32,384.4 358,385.99 357.67,387.59C353.21,383.03 350.69,378.35 349.02,372.21C348.75,371.26 348.49,370.31 348.23,369.36Z" style="fill:white;fill-rule:nonzero;"/>
                        <path d="M366.87,385.07C370.56,386.53 373.94,388.32 377.97,388.75C384.75,390.02 391,388.51 397.78,388.54C397.19,389.85 396.6,391.16 396,392.47C397.07,395.87 397.92,399.28 398.46,402.81C392.47,404.58 386.16,405.01 379.96,404.29C375.38,403.68 370.55,402.15 367.23,398.78C364.17,395.77 362.92,391.16 363.81,387C364.05,385.51 365.4,384.38 366.87,385.07Z" style="fill:white;fill-rule:nonzero;"/>
                        <g transform="matrix(1,0,0,1,-3,-2)">
                            <path d="M463.522,307L465.508,306.988L468.644,316.049L467.609,318.938L463.522,307Z" style="fill:rgb(0,28,61);"/>
                            <path d="M463.514,309.44L465.82,316.027L465.833,331.459L463.562,338.047L463.514,309.44Z" style="fill:rgb(0,28,61);"/>
                            <path d="M463.586,340.026L465.87,340.006L469.239,329.672L468.217,326.531L463.586,340.026Z" style="fill:rgb(0,28,61);"/>
                            <path d="M467.837,327.578L468.228,326.549L469.333,326.531L471.102,331.483L471.132,337.641L468.931,330.681L467.837,327.578Z" style="fill:rgb(0,28,61);"/>
                            <path d="M471.77,340.024L474.073,340.016L473.99,306.959L471.753,306.995L471.77,340.024Z" style="fill:rgb(0,28,61);"/>
                            <path d="M470.849,309.672L470.84,316.141L469.293,320.517L468.19,320.516L467.607,318.939L470.849,309.672Z" style="fill:rgb(0,28,61);"/>
                        </g>
                    </g>
                </g>
            </g>
            <g id="_1-2-up" serif:id="1/2 up" transform="matrix(0.855667,0,0,0.855667,4313.253233,240.462093)">
                <g transform="matrix(2,0,0,2,-512.220718,-46.92515)">
                    <path d="M529.87,47.05C534.13,50.98 537.77,54.57 543.01,57.57C533.28,57.67 553.72,60.79 547.5,65.95C554.85,68.47 551.48,72.04 549.26,77.21C550.26,72.54 549.13,65.22 543.89,71.83C540.99,76.81 533.26,68.74 530.59,66.42C524.84,63.33 531.83,58.94 525.85,56.11C522.69,56.36 513.39,60.27 518.05,63.93C526.26,64.68 527.13,68.93 530.39,75.39C533.5,75.52 536.04,75.92 538.9,77.24C548.41,79.29 534.73,85.9 531.39,86.5C523.88,87.92 530.63,79.56 525.23,77.82C522.16,76.87 514.26,69.51 515.78,77.11C511.07,68.26 510.26,60.22 518.14,53.22C524.06,52.7 524.46,45.93 529.87,47.05Z" style="fill:rgb(198,162,152);fill-rule:nonzero;"/>
                </g>
                <g transform="matrix(2,0,0,2,-512.220718,-46.92515)">
                    <path d="M525.85,56.11C531.83,58.94 524.84,63.33 530.59,66.42C533.26,68.74 540.99,76.81 543.89,71.83C553.37,68.89 542.8,79.05 538.9,77.24C536.04,75.92 533.5,75.52 530.39,75.39C527.13,68.93 526.26,64.68 518.05,63.93C513.39,60.27 522.69,56.36 525.85,56.11Z" style="fill:rgb(116,71,53);fill-rule:nonzero;"/>
                </g>
                <g transform="matrix(2,0,0,2,-512.220718,-46.92515)">
                    <path d="M549.26,77.21C547.37,84.54 541.25,86.73 537.85,92.81C531.32,104.86 527.97,118.41 521.68,130.67C514.1,146.34 504.51,160.77 491.12,172.09C478.74,181.44 471.23,194.91 458.44,203.46C449.52,212.22 434.24,211.82 428.21,222.4C421.11,224.21 427.97,217.78 421.88,217.12C413,215.1 413.23,223.13 407.7,227.1C402.34,227.51 405.83,233.47 400.65,235.7C396.4,239.4 397.45,231.8 398.85,229.86C404.1,221.88 409,213.36 414.79,205.8C416.85,203.1 416.76,208.2 418.03,209.06C423.01,203.19 431.94,201.45 438.58,197.62C442.05,195.31 437.3,203.37 440.25,201.24C450.31,194.24 458.98,199.16 468.7,190.69C470.98,182.49 477.86,174.87 483.29,168.27C486.75,163.42 493.38,167.8 495.31,161.17C497.63,156.06 510.58,151.25 504.3,145.03C512.16,136.37 519.19,128.44 524.58,118.13C523.18,108.45 530.6,104.42 531.74,95.32C530.29,94.13 528.49,93.26 526.9,92.24C529.94,85.64 519.2,88.44 516.96,79.99C516.56,79.03 516.16,78.08 515.78,77.11C514.26,69.51 522.16,76.87 525.23,77.82C530.63,79.56 523.88,87.92 531.39,86.5C534.73,85.9 548.41,79.29 538.9,77.24C542.8,79.05 553.37,68.89 543.89,71.83C549.13,65.22 550.26,72.54 549.26,77.21Z" style="fill:rgb(160,133,108);fill-rule:nonzero;"/>
                </g>
                <g transform="matrix(2,0,0,2,-512.220718,-46.92515)">
                    <path d="M516.96,79.99C519.2,88.44 529.94,85.64 526.9,92.24C528.49,93.26 530.29,94.13 531.74,95.32C530.6,104.42 523.18,108.45 524.58,118.13C519.19,128.44 512.16,136.37 504.3,145.03C510.58,151.25 497.63,156.06 495.31,161.17C493.38,167.8 486.75,163.42 483.29,168.27C477.86,174.87 470.98,182.49 468.7,190.69C458.98,199.16 450.31,194.24 440.25,201.24C437.3,203.37 442.05,195.31 438.58,197.62C431.94,201.45 423.01,203.19 418.03,209.06C416.76,208.2 416.85,203.1 414.79,205.8C409,213.36 404.1,221.88 398.85,229.86C397.45,231.8 396.4,239.4 400.65,235.7C405.83,233.47 402.34,227.51 407.7,227.1C413.23,223.13 413,215.1 421.88,217.12C427.97,217.78 421.11,224.21 428.21,222.4C424.83,229.35 424.15,236.7 421.97,244C417.57,257.33 411.17,268.7 410.13,283.01C405.02,265.26 394.33,249.71 393,230.25C399.39,223.03 401.86,219.16 407.44,211.41C409.21,206.01 416.95,194.66 422.93,195.1C423.14,203.01 418.11,195.81 419.11,202.97C431.48,199.19 433.18,188.69 443.54,182.51C448.35,177.77 455.55,181.54 461.12,176.21C462.3,174.14 463.61,166.65 467.32,169.64C469.65,172.75 472.9,171.53 473.93,168.07C471.9,166.54 469.47,167.75 467.16,167.87C468.51,165.82 469.96,163.7 471.78,162.04C473.72,163.92 476.4,166.93 478.83,163.86C489.64,155.81 496.91,140.96 508.19,132.27C508.03,125.67 514.71,124.54 516.2,118.16C519.57,112.29 513.85,111.38 518.63,106.07C515.6,100.39 517.17,97.28 519.67,92.09C516.67,88.58 515.73,102.57 512.98,95.95C514.43,90.79 517.92,87.65 516.94,81.75L516.96,79.99Z" style="fill:rgb(191,167,151);fill-rule:nonzero;"/>
                </g>
                <g transform="matrix(2,0,0,2,-512.220718,-46.92515)">
                    <path d="M516.94,81.75C517.92,87.65 514.43,90.79 512.98,95.95C515.73,102.57 516.67,88.58 519.67,92.09C517.17,97.28 515.6,100.39 518.63,106.07C513.85,111.38 519.57,112.29 516.2,118.16C514.71,124.54 508.03,125.67 508.19,132.27C496.91,140.96 489.64,155.81 478.83,163.86C476.4,166.93 473.72,163.92 471.78,162.04C469.96,163.7 468.51,165.82 467.16,167.87C469.47,167.75 471.9,166.54 473.93,168.07C472.9,171.53 469.65,172.75 467.32,169.64C463.61,166.65 462.3,174.14 461.12,176.21C455.55,181.54 448.35,177.77 443.54,182.51C433.18,188.69 431.48,199.19 419.11,202.97C418.11,195.81 423.14,203.01 422.93,195.1C416.95,194.66 409.21,206.01 407.44,211.41C401.86,219.16 399.39,223.03 393,230.25C390,221.02 386.3,211.53 385.11,201.91C385.79,197.87 385.14,198.15 382.06,195.97C389.89,199.71 392.84,189.12 399.18,186.17C409.2,180.42 421.94,176.26 433.39,175.37C447.99,170.49 455.09,158.06 468.56,150.53C480.74,143.47 481.96,131.07 491.6,121.61C502.52,109.86 511.77,97.11 516.94,81.75Z" style="fill:rgb(212,190,179);fill-rule:nonzero;"/>
                </g>
                <g transform="matrix(2,0,0,2,-512.220718,-46.92515)">
                    <path d="M355.21,100.73C360.58,102.89 364.24,107.34 370.19,108.89C373.93,117.77 381.65,122.05 382.98,131.05C382.71,135.19 379.8,139.36 378.18,143.16C378.62,138.67 380.51,135.59 375.86,132.71C376.1,125.15 363.62,122.52 363.03,113.46C370.38,114.15 360.95,110.44 359.69,108.29C354.74,107.61 349.89,107.22 345.09,108.9C340.54,106.06 329.93,108.63 325.99,112.42C317.81,111.16 314.51,115.96 308.27,120.13C303.99,123.9 289.01,128.5 295.73,136.24C298.26,141.01 292.86,139.97 295.81,145.17C290,141.62 291.8,138.27 291.46,132.63C288.01,124.22 294.22,120.67 300.2,116.32C311.16,113.62 315.42,103.49 325.94,99.89C333.57,92.71 346.1,99.01 355.21,100.73Z" style="fill:rgb(157,142,127);fill-rule:nonzero;"/>
                </g>
                <g transform="matrix(2,0,0,2,-512.220718,-46.92515)">
                    <path d="M345.09,108.9C344.09,112.12 353.11,108.16 355.39,109.41C360.72,109.89 351.79,110.94 353.11,112.93C356.53,113.36 364.37,109.39 358.64,115.48C359.2,119.44 361.8,122.99 361.95,128.78C356.67,128.13 356.84,124.64 354.17,121.06C351.58,129.75 357.31,132.84 364.09,133.07C366.53,129.9 365.52,125.47 368.56,131.48C372.37,131.88 374.96,138.87 375.86,132.71C380.51,135.59 378.62,138.67 378.18,143.16C376.24,152.34 371.12,159.29 366.75,167.32C364.65,164.96 364.96,163.2 365.22,160.24C366.23,156.4 368.06,143.51 360.49,146.48C354.66,152.92 349.36,147.42 345.1,152.35C341.78,149.87 339.8,146.75 335.8,145.36C335.32,137.85 328.23,141.48 329.62,147.83C323.54,148.8 319.97,146.18 315.35,142.91C320.02,152.44 301.26,149.21 296.74,146.33L295.81,145.17C292.86,139.97 298.26,141.01 295.73,136.24C289.01,128.5 303.99,123.9 308.27,120.13C314.51,115.96 317.81,111.16 325.99,112.42C329.93,108.63 340.54,106.06 345.09,108.9Z" style="fill:rgb(53,36,25);fill-rule:nonzero;"/>
                </g>
                <g transform="matrix(2,0,0,2,-512.220718,-46.92515)">
                    <path d="M359.69,108.29C360.95,110.44 370.38,114.15 363.03,113.46C363.62,122.52 376.1,125.15 375.86,132.71C374.96,138.87 372.37,131.88 368.56,131.48C365.52,125.47 366.53,129.9 364.09,133.07C357.31,132.84 351.58,129.75 354.17,121.06C356.84,124.64 356.67,128.13 361.95,128.78C361.8,122.99 359.2,119.44 358.64,115.48C364.37,109.39 356.53,113.36 353.11,112.93C351.79,110.94 360.72,109.89 355.39,109.41C353.11,108.16 344.09,112.12 345.09,108.9C349.89,107.22 354.74,107.61 359.69,108.29Z" style="fill:rgb(88,73,62);fill-rule:nonzero;"/>
                </g>
                <g transform="matrix(2,0,0,2,-512.220718,-46.92515)">
                    <path d="M327.22,136.41C333.89,138.05 326.39,146.59 322.28,144.76C319.76,141.96 324.2,136.62 327.22,136.41Z" style="fill:rgb(139,97,77);fill-rule:nonzero;"/>
                </g>
                <g transform="matrix(2,0,0,2,-512.220718,-46.92515)">
                    <path d="M335.8,145.36C339.8,146.75 341.78,149.87 345.1,152.35C349.36,147.42 354.66,152.92 360.49,146.48C368.06,143.51 366.23,156.4 365.22,160.24C365.11,157.33 365.06,154.41 364.96,151.5C362.27,153.37 363,151.05 361.56,149.24C357.36,151.45 361.02,152.78 362.1,155.79C356.52,152.73 350.47,150.97 351.14,158.17C349.65,161.73 345.53,154.79 343.08,153.93C338.27,146.64 332.83,148.26 326.64,152.52C319.27,155.84 332.47,152.79 331.67,156.32C336.01,164.44 317.15,154.98 324.4,163.45C322.66,165.93 316.68,160.85 313.76,159.22C310.78,157.37 310.53,151.47 306.12,154.16C310.32,155.99 312.97,169.35 306.14,162.95C304.3,156.93 300.54,151.3 296.74,146.33C301.26,149.21 320.02,152.44 315.35,142.91C319.97,146.18 323.54,148.8 329.62,147.83C328.23,141.48 335.32,137.85 335.8,145.36Z" style="fill:rgb(108,69,56);fill-rule:nonzero;"/>
                </g>
                <g transform="matrix(2,0,0,2,-512.220718,-46.92515)">
                    <path d="M241.22,144.82C243.19,150.69 240.93,158.05 240.06,164.05C236.14,174.38 248.15,172.86 243.24,185.21C242.47,182.46 244.85,175.71 240.35,176.33C238.06,175.33 238.12,171.86 234.92,171.42C232,173.77 232.76,182.21 230.13,184.18C228.06,181.14 226.33,177.93 224.01,175.05C223.77,177.66 228.02,183.66 223.4,183.46C219.23,185.89 218.5,174.23 214.33,176.27C212.32,179.45 213.09,179.84 215.32,182.34C215.17,185.21 214.47,187.79 215.21,190.66C206.07,192.44 213.27,203.62 219.97,202.16C229.61,202.94 215.75,208.66 223.96,213.05C226.6,215.12 229.68,208.67 231.1,207.02C229.93,215.28 229.83,223.13 230.01,231.46C229.71,237.77 225.67,248.88 229.6,253.92C231.46,246.34 231.51,245.71 240.09,246.17C232.46,248.2 236.2,252.34 237.69,258.27C244.92,261.58 243.45,253.27 247.46,250.49C253.12,252.23 260.22,247.68 267.15,247.04C271.79,244.12 274.91,247.41 278.62,241.85C276.41,234.13 286.61,235.13 290.75,237.26C297.24,240.9 302.56,242.17 305.78,249.25C308.25,264.08 302.84,276.89 301.79,291.2C300.78,285.87 299.17,280.68 298.17,275.36C299.74,271.12 296.93,267.77 297.35,263.3C299,260.19 304.79,261.42 304.07,257C302.97,248.53 296.7,244.25 289.04,241.89C287.46,241.19 279.67,237.72 283.17,242.1C280.88,251.43 261.44,251.85 255.14,258.56C257.37,261.3 266.59,259.97 265.9,262.87C261.36,267.35 253.89,274.61 246.98,272.13C240.59,272.54 236.49,276.22 230.35,271.67C230.39,267.84 232.88,262.96 231.61,259.35C230.25,254.72 226.18,266.49 225.17,260.88C225,258.35 217.14,261.03 218.9,257.78C221.2,253.84 210.71,249.13 213.97,256C214.2,263.48 205.12,245.7 207.68,253.36C211.19,261.75 205.41,261.74 202.48,267.13C199.72,244.95 206.72,227.49 209.59,204.62C211.93,193.25 205.43,183.19 211.79,173.77C217.28,168.02 223.28,169.2 227.33,161.36C238.66,159.52 231.72,149.06 237.76,142.74C239.45,140.74 240.71,143.29 241.22,144.82Z" style="fill:rgb(190,158,144);fill-rule:nonzero;"/>
                </g>
                <g transform="matrix(2,0,0,2,-512.220718,-46.92515)">
                    <path d="M343.08,153.93C345.53,154.79 349.65,161.73 351.14,158.17C350.53,160.4 352.83,171.78 355.35,166.09C362.39,164.64 360.67,171.61 354.18,170.29C356.6,177.73 355.39,184.47 362.73,188.84C360.65,192.35 359.65,192.94 361.47,196.95C360.25,198.83 354.9,193.75 353.25,197.32C352.87,200.11 353.91,203.19 354.34,205.95C355.8,203.19 359.93,198.79 362.72,202.33C363.99,208.62 356.14,207.49 353.93,212.96C349.92,218.21 346.98,213.66 345.57,209.3C339.3,208.6 338.46,215.56 331.36,211.63C326.12,209.39 326.99,211.04 324.49,215.17C323.19,210.36 326.94,206.71 325.91,201.65C331.99,198.71 331.46,208.36 337.15,207.29C340.36,206.72 344.24,208.86 346.92,206.95C342.94,202.44 341.11,200.25 346.86,195.98C350.94,195.71 351.35,183.02 345.85,187.88C339.12,193.75 332.81,198.66 323.31,198.01C323.69,188.64 329.23,195.03 332.04,187.96C329.55,185.51 325.54,181.07 321.71,182.89C318.39,182.95 315.13,182.9 311.86,183.62C308.82,176.55 304.71,171.06 306.14,162.95C312.97,169.35 310.32,155.99 306.12,154.16C310.53,151.47 310.78,157.37 313.76,159.22C316.68,160.85 322.66,165.93 324.4,163.45C317.15,154.98 336.01,164.44 331.67,156.32C332.47,152.79 319.27,155.84 326.64,152.52C332.83,148.26 338.27,146.64 343.08,153.93Z" style="fill:rgb(193,146,132);fill-rule:nonzero;"/>
                </g>
                <g transform="matrix(2,0,0,2,-512.220718,-46.92515)">
                    <path d="M361.56,149.24C363,151.05 362.27,153.37 364.96,151.5C365.06,154.41 365.11,157.33 365.22,160.24C364.96,163.2 364.65,164.96 366.75,167.32C364.45,173.98 372.05,191.41 378.8,193.76C376.76,194.9 376.62,196.8 375.9,198.81C370.01,213.26 370.52,228.14 358.87,237.89C353.86,243.29 346.75,244.39 339.95,242.07C329.8,236.61 325.61,226.15 324.49,215.17C326.99,211.04 326.12,209.39 331.36,211.63C338.46,215.56 339.3,208.6 345.57,209.3C346.98,213.66 349.92,218.21 353.93,212.96C356.14,207.49 363.99,208.62 362.72,202.33C359.93,198.79 355.8,203.19 354.34,205.95C353.91,203.19 352.87,200.11 353.25,197.32C354.9,193.75 360.25,198.83 361.47,196.95C359.65,192.94 360.65,192.35 362.73,188.84C355.39,184.47 356.6,177.73 354.18,170.29C360.67,171.61 362.39,164.64 355.35,166.09C352.83,171.78 350.53,160.4 351.14,158.17C350.47,150.97 356.52,152.73 362.1,155.79C361.02,152.78 357.36,151.45 361.56,149.24Z" style="fill:rgb(210,179,169);fill-rule:nonzero;"/>
                </g>
                <g transform="matrix(2,0,0,2,-512.220718,-46.92515)">
                    <path d="M234.92,171.42C238.12,171.86 238.06,175.33 240.35,176.33C244.85,175.71 242.47,182.46 243.24,185.21C240.53,194.01 232.31,197.45 231.1,207.02C229.68,208.67 226.6,215.12 223.96,213.05C215.75,208.66 229.61,202.94 219.97,202.16C213.27,203.62 206.07,192.44 215.21,190.66C214.47,187.79 215.17,185.21 215.32,182.34C213.09,179.84 212.32,179.45 214.33,176.27C218.5,174.23 219.23,185.89 223.4,183.46C228.02,183.66 223.77,177.66 224.01,175.05C226.33,177.93 228.06,181.14 230.13,184.18C232.76,182.21 232,173.77 234.92,171.42Z" style="fill:rgb(158,109,96);fill-rule:nonzero;"/>
                </g>
                <g transform="matrix(2,0,0,2,-512.220718,-46.92515)">
                    <path d="M332.04,187.96C329.23,195.03 323.69,188.64 323.31,198.01C332.81,198.66 339.12,193.75 345.85,187.88C351.35,183.02 350.94,195.71 346.86,195.98C341.11,200.25 342.94,202.44 346.92,206.95C344.24,208.86 340.36,206.72 337.15,207.29C331.46,208.36 331.99,198.71 325.91,201.65L325.16,201.84C319.44,198.51 318.28,193.37 315.09,188.1C317.61,188.8 329.47,184.55 321.71,182.89C325.54,181.07 329.55,185.51 332.04,187.96Z" style="fill:rgb(151,102,81);fill-rule:nonzero;"/>
                </g>
                <g transform="matrix(2,0,0,2,-512.220718,-46.92515)">
                    <path d="M321.71,182.89C329.47,184.55 317.61,188.8 315.09,188.1C313.99,186.61 312.88,185.16 311.86,183.62C315.13,182.9 318.39,182.95 321.71,182.89Z" style="fill:rgb(58,19,18);fill-rule:nonzero;"/>
                </g>
                <g transform="matrix(2,0,0,2,-512.220718,-46.92515)">
                    <path d="M378.8,193.76C379.91,194.47 380.97,195.23 382.06,195.97C385.14,198.15 385.79,197.87 385.11,201.91C384.32,205.24 377.91,201.1 375.9,198.81C376.62,196.8 376.76,194.9 378.8,193.76Z" style="fill:rgb(83,91,99);fill-rule:nonzero;"/>
                </g>
                <g transform="matrix(2,0,0,2,-512.220718,-46.92515)">
                    <path d="M375.9,198.81C377.91,201.1 384.32,205.24 385.11,201.91C386.3,211.53 390,221.02 393,230.25C394.33,249.71 405.02,265.26 410.13,283.01C408.76,288.06 407.97,295.59 408.29,300.82C411.48,314.83 403.43,325.69 405.02,339.89C388.16,335.6 368.29,339.33 350.99,339.13C338.31,341.48 326.37,338.05 313.94,341.88C311.27,342.42 308.77,342.99 306.08,342.21C307.03,335.57 302.86,330.53 304.09,323.99C306.7,312.32 303.17,302.78 301.79,291.2C302.84,276.89 308.25,264.08 305.78,249.25C308.19,235.37 307.26,221.96 314.02,208.97C318.22,207.11 322.2,205.54 325.16,201.84L325.91,201.65C326.94,206.71 323.19,210.36 324.49,215.17C325.61,226.15 329.8,236.61 339.95,242.07C346.75,244.39 353.86,243.29 358.87,237.89C370.52,228.14 370.01,213.26 375.9,198.81Z" style="fill:rgb(23,26,31);fill-rule:nonzero;"/>
                </g>
                <g transform="matrix(2,0,0,2,-512.220718,-46.92515)">
                    <path d="M314.02,208.97C307.26,221.96 308.19,235.37 305.78,249.25C302.56,242.17 297.24,240.9 290.75,237.26C286.61,235.13 276.41,234.13 278.62,241.85C274.91,247.41 271.79,244.12 267.15,247.04C260.22,247.68 253.12,252.23 247.46,250.49C243.45,253.27 244.92,261.58 237.69,258.27C236.2,252.34 232.46,248.2 240.09,246.17C231.51,245.71 231.46,246.34 229.6,253.92C225.67,248.88 229.71,237.77 230.01,231.46C231.93,234.32 229.65,245.26 234,244.95C241.2,241.74 249.08,239.72 255.97,235.96C262.91,228.73 268.67,221.17 278.26,217.17C288.51,208.5 302.5,213.61 314.02,208.97Z" style="fill:rgb(213,186,173);fill-rule:nonzero;"/>
                </g>
                <g transform="matrix(2,0,0,2,-512.220718,-46.92515)">
                    <path d="M289.04,241.89C296.7,244.25 302.97,248.53 304.07,257C304.79,261.42 299,260.19 297.35,263.3C296.93,267.77 299.74,271.12 298.17,275.36C296.19,270.31 294.04,265.37 291.43,260.62C288.2,253.5 284.4,255.96 280.05,260.28C274.03,261.17 280.84,249.27 285.05,250.06C289.42,249.55 284.74,243.53 283.17,242.1C279.67,237.72 287.46,241.19 289.04,241.89Z" style="fill:rgb(125,96,62);fill-rule:nonzero;"/>
                </g>
                <g transform="matrix(2,0,0,2,-512.220718,-46.92515)">
                    <path d="M283.17,242.1C284.74,243.53 289.42,249.55 285.05,250.06C280.84,249.27 274.03,261.17 280.05,260.28C263.78,278.34 241.7,280.15 218.98,284.08C206.39,283.97 203.86,278.62 202.48,267.13C205.41,261.74 211.19,261.75 207.68,253.36C205.12,245.7 214.2,263.48 213.97,256C210.71,249.13 221.2,253.84 218.9,257.78C217.14,261.03 225,258.35 225.17,260.88C226.18,266.49 230.25,254.72 231.61,259.35C232.88,262.96 230.39,267.84 230.35,271.67C236.49,276.22 240.59,272.54 246.98,272.13C253.89,274.61 261.36,267.35 265.9,262.87C266.59,259.97 257.37,261.3 255.14,258.56C261.44,251.85 280.88,251.43 283.17,242.1Z" style="fill:rgb(161,127,104);fill-rule:nonzero;"/>
                </g>
                <g transform="matrix(2,0,0,2,-512.220718,-46.92515)">
                    <path d="M321.39,248.47C322.26,247.49 325.04,250.38 326.11,250.81C333.92,253.46 323.94,265.13 319.29,260.84C310.88,256.84 316.98,252.32 321.39,248.47Z" style="fill:rgb(120,120,123);fill-rule:nonzero;"/>
                </g>
                <g transform="matrix(2,0,0,2,-512.220718,-46.92515)">
                    <path d="M368.12,277.19C367.67,282.7 367.96,281.52 372.85,282.39C374.15,289.08 366.84,283.06 368.61,290.45C373.04,291.12 376.29,287.5 374.7,294.66C370.81,296.37 361.14,300.15 364.41,291.38C368.02,284.82 358.65,270.44 369.98,272.71C376.45,271.34 375.78,280.46 368.12,277.19Z" style="fill:rgb(167,158,112);fill-rule:nonzero;"/>
                </g>
                <g transform="matrix(2,0,0,2,-512.220718,-46.92515)">
                    <path d="M381.88,272.13C389.59,272.94 384.26,289.92 386.89,295.9C376.31,297.94 387.89,284.52 380.07,286.13C379.17,290 384.27,297.72 377.05,295.95C374.69,295.87 377.46,288.02 377.04,286.02C378.89,280.29 371.13,269.28 381.88,272.13Z" style="fill:rgb(146,137,102);fill-rule:nonzero;"/>
                </g>
                <g transform="matrix(2,0,0,2,-512.220718,-46.92515)">
                    <path d="M361.9,273.09C360.8,281.81 360.76,288.15 361.92,296.87C353.16,298.71 359.28,291.97 357.88,287.05C351.46,286.35 355.33,292.4 354.95,295.88C354.68,299.05 349.32,298.55 350.34,295.18C351.82,287.97 350.65,281.27 350.09,274.11C358.67,272.84 354.15,278.16 354.05,282.87C363.88,285.19 350.82,271.21 361.9,273.09Z" style="fill:rgb(163,154,114);fill-rule:nonzero;"/>
                </g>
                <g transform="matrix(2,0,0,2,-512.220718,-46.92515)">
                    <path d="M394.82,284.1C395.28,280.74 394.43,277.6 394.25,274.29C395.83,271.75 398.24,273.53 397.8,275.94C396.36,282.95 397.42,289.87 396.79,296.9C391.93,298.31 394.36,289.2 392.16,287.02C391.65,289 393.16,300.85 388.74,295.28C388.28,288.58 389.78,282.33 388.58,274.12C392.26,269.31 393.05,282.47 394.82,284.1Z" style="fill:rgb(152,146,108);fill-rule:nonzero;"/>
                </g>
                <g transform="matrix(2,0,0,2,-512.220718,-46.92515)">
                    <path d="M346.18,275.34C350.74,274 349.92,285.38 344.83,280.35C340.79,285.28 349.68,301.23 340.1,297.87C339.81,292.22 344.57,280.33 337.05,280.85C335.49,273.49 341.5,276.77 346.18,275.34Z" style="fill:rgb(168,160,117);fill-rule:nonzero;"/>
                </g>
                <g transform="matrix(2,0,0,2,-512.220718,-46.92515)">
                    <path d="M334.89,277.1C332.86,284.02 336.16,294.4 331.71,299.76C319.94,303.66 327.21,288.72 324.53,282.36C323.05,278.86 326.67,275.9 328.36,279.63C328.57,285.01 327.32,290.46 328.22,295.98C336.51,295.08 324.23,273.95 334.89,277.1Z" style="fill:rgb(162,156,127);fill-rule:nonzero;"/>
                </g>
                <g transform="matrix(2,0,0,2,-512.220718,-46.92515)">
                    <path d="M323.07,291.01C323.65,295.52 323.97,304.46 316.68,301.34C315.28,295.01 316,286.92 316.3,280.32C325.45,275.64 322.35,285.79 323.07,291.01Z" style="fill:rgb(149,145,119);fill-rule:nonzero;"/>
                </g>
                <g transform="matrix(2,0,0,2,-512.220718,-46.92515)">
                    <path d="M312.69,282.25C315.92,284.83 312.51,289.15 309.03,286.2C308.67,291.02 309.98,289.38 313.65,290.46C315.56,292.87 315.1,297.1 314.98,300C315.15,304.9 306.19,304.06 308.07,298.38C313.93,300.33 313.3,293.53 308.31,293.51C308.45,289.42 305.25,279.36 312.69,282.25Z" style="fill:rgb(141,135,109);fill-rule:nonzero;"/>
                </g>
                <g transform="matrix(2,0,0,2,-512.220718,-46.92515)">
                    <path d="M318.09,284.12C324.36,284.36 318.1,307.24 318.72,293.07C318.45,290.04 317.75,287.19 318.09,284.12Z" style="fill:rgb(46,41,31);fill-rule:nonzero;"/>
                </g>
                <g transform="matrix(2,0,0,2,-512.220718,-46.92515)">
                    <path d="M405.02,339.89C403.56,349.37 403.82,356.35 405.26,365.79C371.37,365.38 337.47,367.98 303.25,367.03C304.81,358.8 305.18,350.53 306.08,342.21C308.77,342.99 311.27,342.42 313.94,341.88C326.37,338.05 338.31,341.48 350.99,339.13C368.29,339.33 388.16,335.6 405.02,339.89Z" style="fill:rgb(177,167,71);fill-rule:nonzero;"/>
                </g>
                <g transform="matrix(2,0,0,2,-512.220718,-46.92515)">
                    <path d="M386,340.99C390.2,340.61 404.23,340.6 400.38,348.01C399.85,351.76 401.67,359.82 397.23,361.24C388.71,364.8 378.23,361.69 369,363.87C348.52,363.99 327.75,364.3 307.3,363.72C305.05,359.24 309.29,352.05 308.34,346.35C315.09,342.6 326.14,342.8 334,343.04C351.27,342.21 368.69,340.75 386,340.99Z" style="fill:rgb(196,177,8);fill-rule:nonzero;"/>
                </g>
                <g transform="matrix(2,0,0,2,-512.220718,-46.92515)">
                    <path d="M405.26,365.79C409.84,389.13 417.43,416.7 419.47,438.83C419.48,444.04 416.04,439.66 413.02,439.98C396.33,439.77 385.47,448.99 371.14,455.36C363.89,456.35 370.62,450.84 371.71,447.76C376.05,447.47 383.85,446.6 385.51,441.64C386.04,439.3 372.79,446.44 377.64,440.9C375.41,441.12 373.19,441.5 370.95,441.67C372.7,436.49 382.72,435.98 386.07,432.25C380.99,432.73 376.26,434.52 371.21,435.1C375.14,428.12 380.44,430.91 386.07,427.17C383.36,427.28 380.7,427.68 378,427.9C388.66,420.71 395.77,418.88 406.8,414.92C397.66,413.32 381.27,425.43 371.06,423.87C375.63,418.31 388.01,419.44 394.06,415.1C384.38,415.59 374.16,418.76 365.02,421.89C354.95,423.84 346.8,421.94 336.83,422.32C329.5,421.05 321.72,415.03 313.96,415.07C324.67,421.05 331.85,422.99 340.04,430.92C332.83,431.39 327.39,426.71 319.96,428.13C322.77,430.06 338.45,431.14 331.54,433.87C334.39,438.64 342.46,432.91 339.27,438.35C337.89,440.44 340.8,440.77 341.93,442.06C336.88,441.27 333.36,437.84 328.03,437.97C335.8,442.07 331.82,440.76 325.94,440.38C329.1,444.11 336.3,443.1 336.22,448.4C341.98,444.89 345.39,449.92 338.67,453.24C324.47,449.48 307.59,441.02 293,444.83C293.04,441.07 293.34,437.42 294.01,433.71C296.64,437.25 298.67,436.02 301.87,433.86C300.76,429.54 297.43,431 294.06,430.18C296.41,406.2 299.1,390.75 303.25,367.03C337.47,367.98 371.37,365.38 405.26,365.79Z" style="fill:rgb(27,32,42);fill-rule:nonzero;"/>
                </g>
                <g transform="matrix(2,0,0,2,-512.220718,-46.92515)">
                    <path d="M406.8,414.92C395.77,418.88 388.66,420.71 378,427.9C380.7,427.68 383.36,427.28 386.07,427.17C380.44,430.91 375.14,428.12 371.21,435.1C376.26,434.52 380.99,432.73 386.07,432.25C382.72,435.98 372.7,436.49 370.95,441.67C373.19,441.5 375.41,441.12 377.64,440.9C372.79,446.44 386.04,439.3 385.51,441.64C383.85,446.6 376.05,447.47 371.71,447.76C370.62,450.84 363.89,456.35 371.14,455.36L370.36,455.88C367.1,456.58 364.15,459.86 363.19,454.8C360.42,447.65 359.3,441.79 358.68,434.16C350.42,431.06 356.08,445.26 351.94,449.95C350.18,455.67 352.15,457.01 345.05,455.31C342.93,454.58 340.81,453.89 338.67,453.24C345.39,449.92 341.98,444.89 336.22,448.4C336.3,443.1 329.1,444.11 325.94,440.38C331.82,440.76 335.8,442.07 328.03,437.97C333.36,437.84 336.88,441.27 341.93,442.06C340.8,440.77 337.89,440.44 339.27,438.35C342.46,432.91 334.39,438.64 331.54,433.87C338.45,431.14 322.77,430.06 319.96,428.13C327.39,426.71 332.83,431.39 340.04,430.92C331.85,422.99 324.67,421.05 313.96,415.07C321.72,415.03 329.5,421.05 336.83,422.32C346.8,421.94 354.95,423.84 365.02,421.89C374.16,418.76 384.38,415.59 394.06,415.1C388.01,419.44 375.63,418.31 371.06,423.87C381.27,425.43 397.66,413.32 406.8,414.92Z" style="fill:rgb(11,14,20);fill-rule:nonzero;"/>
                </g>
                <g transform="matrix(2,0,0,2,-512.220718,-46.92515)">
                    <path d="M294.06,430.18C297.43,431 300.76,429.54 301.87,433.86C298.67,436.02 296.64,437.25 294.01,433.71C294,432.54 294.01,431.36 294.06,430.18Z" style="fill:rgb(114,116,114);fill-rule:nonzero;"/>
                </g>
                <g transform="matrix(2,0,0,2,-512.220718,-46.92515)">
                    <path d="M419.47,438.83C420.72,460.93 424.16,480.19 418.24,502.25C419.21,488.95 420.01,476.28 413.21,464.22C408.3,468.47 403.04,464.33 403.07,472.8C409.91,471.19 410.99,473.34 406.02,478.02C398.15,480.62 396.4,488.08 390.42,492.05C391.56,483.28 385.85,490.49 388.45,494.28C382.65,493.5 386.18,482.74 382.44,478.66C379.8,473.41 383.58,464.18 376.54,462.43C374.14,460.32 371.65,458.79 370.36,455.88L371.14,455.36C385.47,448.99 396.33,439.77 413.02,439.98C416.04,439.66 419.48,444.04 419.47,438.83Z" style="fill:rgb(188,158,141);fill-rule:nonzero;"/>
                </g>
                <g transform="matrix(2,0,0,2,-512.220718,-46.92515)">
                    <path d="M338.67,453.24C340.81,453.89 342.93,454.58 345.05,455.31C345.63,459.95 339.24,456.73 336.81,458.85C333.38,461.89 329.96,464.2 328.9,468.97C327.18,473.19 329.47,477.63 325.28,479.91C325.14,470.28 320.37,478.95 316.53,481.27C312.58,478.83 309.93,479.67 305.72,479.31C302.48,474.74 295.18,473.45 294.21,467.99C294,470.41 293.8,472.82 293.62,475.24C292.27,465.27 293.31,454.9 293,444.83C307.59,441.02 324.47,449.48 338.67,453.24Z" style="fill:rgb(187,155,134);fill-rule:nonzero;"/>
                </g>
                <g transform="matrix(2,0,0,2,-512.220718,-46.92515)">
                    <path d="M351.94,449.95C352.41,458.82 351.98,466.95 348.21,475.14C342.09,491.03 339.94,506.96 338.7,523.83C336.45,535.98 329.21,543.93 332.67,557.19C335.2,576.17 330.6,592.18 326.12,610.27C317.77,610.97 307.64,613.57 299.73,610.16C298.26,596.17 295.47,582.06 295.98,568C295.29,553.65 301.76,540.62 301.32,526.17C302.37,509.08 294.48,492.51 293.62,475.24C293.8,472.82 294,470.41 294.21,467.99C295.18,473.45 302.48,474.74 305.72,479.31C309.93,479.67 312.58,478.83 316.53,481.27C320.37,478.95 325.14,470.28 325.28,479.91C329.47,477.63 327.18,473.19 328.9,468.97C329.96,464.2 333.38,461.89 336.81,458.85C339.24,456.73 345.63,459.95 345.05,455.31C352.15,457.01 350.18,455.67 351.94,449.95Z" style="fill:rgb(161,126,96);fill-rule:nonzero;"/>
                </g>
                <g transform="matrix(2,0,0,2,-512.220718,-46.92515)">
                    <path d="M363.19,454.8C364.15,459.86 367.1,456.58 370.36,455.88C371.65,458.79 374.14,460.32 376.54,462.43C383.58,464.18 379.8,473.41 382.44,478.66C386.18,482.74 382.65,493.5 388.45,494.28C385.85,490.49 391.56,483.28 390.42,492.05C396.4,488.08 398.15,480.62 406.02,478.02C410.99,473.34 409.91,471.19 403.07,472.8C403.04,464.33 408.3,468.47 413.21,464.22C420.01,476.28 419.21,488.95 418.24,502.25C411.84,524.86 421.3,542.37 423.69,564.18C424.36,577.53 422.65,591.42 421.84,604.79C420.79,607.92 421.47,610.83 417.42,611.45C411.08,612.31 401.08,612.55 394.87,611.18C393.84,599.76 387.35,590.38 386.81,579C384.07,565.59 389.31,553.41 385.95,540.07C389.63,543.63 387.35,550.89 388.07,555.64C394.56,551.5 394.76,560.56 400.01,554.99C402.77,550.82 401.59,550.59 398.15,547.85C403.25,549.09 408.61,548.68 411.2,554.02C416.7,554.18 412.31,541.72 413.97,538C416.1,526.62 400.7,531.43 396.1,525.9C396.88,521.6 402.67,516.31 405.9,513.29C397.68,509.7 396.91,516.51 389.16,516.87C386.54,515.55 386.95,507.72 383.1,507.9C377.37,512.11 384.65,515.59 378.55,520.17C377.64,512.35 377.33,504.6 375.03,496.99C371.74,483.54 361.55,468.76 363.19,454.8Z" style="fill:rgb(165,130,105);fill-rule:nonzero;"/>
                </g>
                <g transform="matrix(2,0,0,2,-512.220718,-46.92515)">
                    <path d="M337.25,498.73C339.13,508.18 331.97,516.7 334.66,525.01C332.31,530.79 331.28,531.91 326.12,534.21C331.02,540.16 325.05,540.18 329.52,546.36C329.52,553.04 318.71,561.35 314.72,552.4C307.2,549.93 300.19,541.84 305.35,534.43C312.22,534.66 315.62,528.91 321.65,525.62C320.38,522.03 314.36,520.12 315.07,516.21C319.36,515.52 324.96,516.98 328.73,514.72C329.16,510.28 325.14,507.94 329.18,504.19C330.62,501.68 333.89,494.46 337.25,498.73Z" style="fill:rgb(133,94,62);fill-rule:nonzero;"/>
                </g>
                <g transform="matrix(2,0,0,2,-512.220718,-46.92515)">
                    <path d="M383.1,507.9C386.95,507.72 386.54,515.55 389.16,516.87C396.91,516.51 397.68,509.7 405.9,513.29C402.67,516.31 396.88,521.6 396.1,525.9C400.7,531.43 416.1,526.62 413.97,538C412.31,541.72 416.7,554.18 411.2,554.02C408.61,548.68 403.25,549.09 398.15,547.85C401.59,550.59 402.77,550.82 400.01,554.99C394.76,560.56 394.56,551.5 388.07,555.64C387.35,550.89 389.63,543.63 385.95,540.07C382.51,534.1 379.96,526.91 378.55,520.17C384.65,515.59 377.37,512.11 383.1,507.9Z" style="fill:rgb(140,101,71);fill-rule:nonzero;"/>
                </g>
                <g transform="matrix(2,0,0,2,-512.220718,-46.92515)">
                    <path d="M421.84,604.79C422.15,611.77 418.86,620.85 422.8,627.08C417.21,627.94 404.77,623.76 404.09,632.11C403.86,634.62 398.99,634.01 397.07,634.85C397.46,627.12 395.48,618.96 394.87,611.18C401.08,612.55 411.08,612.31 417.42,611.45C421.47,610.83 420.79,607.92 421.84,604.79Z" style="fill:rgb(188,188,188);fill-rule:nonzero;"/>
                </g>
                <g transform="matrix(2,0,0,2,-512.220718,-46.92515)">
                    <path d="M299.73,610.16C307.64,613.57 317.77,610.97 326.12,610.27C327.03,619.2 323.26,626.43 325.9,635.11L325.34,634.96C319.93,633.61 320.58,633.96 319.23,628.71C314.64,625.3 306.26,627.54 300.9,627.97C301.51,621.89 300.31,616.16 299.73,610.16Z" style="fill:rgb(192,192,194);fill-rule:nonzero;"/>
                </g>
                <g transform="matrix(2,0,0,2,-512.220718,-46.92515)">
                    <path d="M319.23,628.71C320.58,633.96 319.93,633.61 325.34,634.96C322.21,637.17 305.14,638.06 299.95,638.02C299.93,634.59 299.82,631.27 300.9,627.97C306.26,627.54 314.64,625.3 319.23,628.71Z" style="fill:rgb(38,39,37);fill-rule:nonzero;"/>
                </g>
                <g transform="matrix(2,0,0,2,-512.220718,-46.92515)">
                    <path d="M422.8,627.08L423.16,627.84C422.66,631.62 424.76,637.61 418.74,636.28C418.03,634.45 422.05,631.3 420.88,628.2C417.02,625.65 417.43,633.28 416.07,636.11C410.36,637.17 398.54,633.09 397.09,642.17C397.05,639.72 396.94,637.3 397.07,634.85C398.99,634.01 403.86,634.62 404.09,632.11C404.77,623.76 417.21,627.94 422.8,627.08Z" style="fill:rgb(26,25,21);fill-rule:nonzero;"/>
                </g>
                <g transform="matrix(2,0,0,2,-512.220718,-46.92515)">
                    <path d="M420.88,628.2C422.05,631.3 418.03,634.45 418.74,636.28C424.76,637.61 422.66,631.62 423.16,627.84C424.92,632.36 423.68,638.13 423.89,642.93C415.62,640.44 409.88,647.49 400.94,645.14C399.3,645.03 398.27,644.51 397.02,645.91C397.04,644.67 397.07,643.42 397.09,642.17C398.54,633.09 410.36,637.17 416.07,636.11C417.43,633.28 417.02,625.65 420.88,628.2Z" style="fill:rgb(147,141,108);fill-rule:nonzero;"/>
                </g>
                <g transform="matrix(2,0,0,2,-512.220718,-46.92515)">
                    <path d="M325.34,634.96L325.9,635.11C325.9,639.45 326.53,643.78 326.46,648.11C325.28,642.77 315.4,646.86 311.01,643.96C307.69,642.63 300.15,644.4 299.07,648.12C299.25,644.74 299.5,641.37 299.95,638.02C305.14,638.06 322.21,637.17 325.34,634.96Z" style="fill:rgb(136,133,101);fill-rule:nonzero;"/>
                </g>
                <g transform="matrix(2,0,0,2,-512.220718,-46.92515)">
                    <path d="M423.89,642.93C424.37,644.39 424.85,645.84 425.35,647.3C422.97,646.82 421.5,644.96 419.06,645.07C419.56,649.27 424.26,650.97 427.95,651.16C431.2,655.59 434.37,659.52 439.22,662.32C435.8,662.65 432.46,662.27 429.04,662.22C430.76,663.21 432.54,664.07 434.23,665.1C432.19,668.08 427.15,667.75 423.96,668.4C431.7,672.04 437.55,665.43 446.01,670.72C434.85,669.78 429.46,679.7 420.32,673.75C418.58,672.44 418.53,674.91 417.62,675.93C411.14,672.81 402.75,673.13 396.76,669.24C393.87,664.55 395.33,659.82 396.08,654.77C398.52,655.23 405.67,663.4 403.05,666.63C406.56,661.41 412.12,670.11 408.38,661.76C411.38,661.17 411.31,669.2 416.87,668.91C414.97,663.98 415.12,662.93 416.85,658.01C413.94,657.83 413.93,659.73 412.5,661.64C409.52,661.16 415.81,654.52 411.23,656.4C405.33,659.68 400.21,655.57 396.87,650.8C396.92,649.17 396.97,647.54 397.02,645.91C398.27,644.51 399.3,645.03 400.94,645.14C409.88,647.49 415.62,640.44 423.89,642.93Z" style="fill:rgb(30,33,34);fill-rule:nonzero;"/>
                </g>
                <g transform="matrix(2,0,0,2,-512.220718,-46.92515)">
                    <path d="M311.01,643.96C315.4,646.86 325.28,642.77 326.46,648.11C326.36,649.32 326.23,650.53 326.09,651.74C322.88,658.68 319.46,657.89 313.19,655.88C314.33,657.16 318.16,663.82 313.56,659.37C309.06,655.32 314.04,665.79 313.11,667.05C312.78,672.75 315.39,661.3 316.58,664.81C315.77,669.53 319.68,665.32 320.39,663.54C320.76,665.58 327.08,669.23 323.83,665.13C320.41,664.06 325.33,654.42 327.06,659C328.42,670.51 324.12,670.49 315.03,673.92C310.3,671.97 308.67,677.39 304.12,674.93C298.19,672.58 287.19,668.87 283.04,675.84C291.89,676.33 299.74,675.77 308.36,678.95C300.8,681.44 292,682 284.36,679.61C278.68,677.95 279.26,671.26 282.74,667.74C290.61,662.77 296.23,657.25 299.07,648.12C300.15,644.4 307.69,642.63 311.01,643.96Z" style="fill:rgb(36,41,41);fill-rule:nonzero;"/>
                </g>
                <g transform="matrix(2,0,0,2,-512.220718,-46.92515)">
                    <path d="M419.06,645.07C421.5,644.96 422.97,646.82 425.35,647.3C426.26,648.56 427.11,649.86 427.95,651.16C424.26,650.97 419.56,649.27 419.06,645.07Z" style="fill:rgb(146,151,143);fill-rule:nonzero;"/>
                </g>
                <g transform="matrix(2,0,0,2,-512.220718,-46.92515)">
                    <path d="M396.87,650.8C400.21,655.57 405.33,659.68 411.23,656.4C415.81,654.52 409.52,661.16 412.5,661.64C413.93,659.73 413.94,657.83 416.85,658.01C415.12,662.93 414.97,663.98 416.87,668.91C411.31,669.2 411.38,661.17 408.38,661.76C412.12,670.11 406.56,661.41 403.05,666.63C405.67,663.4 398.52,655.23 396.08,654.77C396.31,653.44 396.6,652.12 396.87,650.8Z" style="fill:rgb(114,114,98);fill-rule:nonzero;"/>
                </g>
                <g transform="matrix(2,0,0,2,-512.220718,-46.92515)">
                    <path d="M326.09,651.74C326.68,654.14 327.07,656.52 327.06,659C325.33,654.42 320.41,664.06 323.83,665.13C327.08,669.23 320.76,665.58 320.39,663.54C319.68,665.32 315.77,669.53 316.58,664.81C315.39,661.3 312.78,672.75 313.11,667.05C314.04,665.79 309.06,655.32 313.56,659.37C318.16,663.82 314.33,657.16 313.19,655.88C319.46,657.89 322.88,658.68 326.09,651.74Z" style="fill:rgb(122,122,107);fill-rule:nonzero;"/>
                </g>
                <g transform="matrix(2,0,0,2,-512.220718,-46.92515)">
                    <path d="M429.04,662.22C432.46,662.27 435.8,662.65 439.22,662.32C444.01,664.35 456.61,672.81 447.66,677.65C439.82,680.9 424.29,681.7 417.62,675.93C418.53,674.91 418.58,672.44 420.32,673.75C429.46,679.7 434.85,669.78 446.01,670.72C437.55,665.43 431.7,672.04 423.96,668.4C427.15,667.75 432.19,668.08 434.23,665.1C432.54,664.07 430.76,663.21 429.04,662.22Z" style="fill:rgb(77,80,72);fill-rule:nonzero;"/>
                </g>
                <g transform="matrix(2,0,0,2,-512.220718,-46.92515)">
                    <path d="M304.12,674.93C308.67,677.39 310.3,671.97 315.03,673.92C312.89,675.9 311.31,678.24 308.36,678.95C299.74,675.77 291.89,676.33 283.04,675.84C287.19,668.87 298.19,672.58 304.12,674.93Z" style="fill:rgb(103,102,89);fill-rule:nonzero;"/>
                </g>
            </g>
            <g id="down">
            </g>
        </g>
    </g>
</svg>
