<?xml version="1.0" encoding="UTF-8" standalone="no"?>
<!DOCTYPE svg PUBLIC "-//W3C//DTD SVG 1.1//EN" "http://www.w3.org/Graphics/SVG/1.1/DTD/svg11.dtd">
<svg width="100%" height="100%" viewBox="0 0 1728 1728" version="1.1" xmlns="http://www.w3.org/2000/svg" xmlns:xlink="http://www.w3.org/1999/xlink" xml:space="preserve" xmlns:serif="http://www.serif.com/" style="fill-rule:evenodd;clip-rule:evenodd;stroke-linejoin:round;stroke-miterlimit:2;">
    <g transform="matrix(1,0,0,1,-5514,-8090)">
        <g id="_32" serif:id="32" transform="matrix(1,0,0,1,5514,8090)">
            <rect x="0" y="0" width="1728" height="1728" style="fill:none;"/>
            <g transform="matrix(0,-4.703559,4.703559,0,-470.849237,2787.167874)">
                <g>
                    <path d="M449.97,156.19C455.59,155.18 460.75,156.82 465.75,159.25C471.47,162.08 477.06,165.19 482.59,168.38C487.43,171.16 491.82,174.57 496.58,177.45C501.29,180.39 507.58,181.12 513,181.61C517.62,181.96 522.44,182.56 527.07,182.07C528.63,181.92 530.04,180.55 531.36,179.77C532.18,180.81 533,181.86 533.82,182.91C529.92,187.93 524.81,191.23 519.4,194.4C511.78,198.71 502.83,202.89 494,203.48C487.75,204.03 483.98,200.16 478.03,199.35C474.07,198.7 470.02,200.33 466.16,199.76C463.38,199.1 462.02,196.91 460.4,194.79C460.6,202.25 460.84,209.63 461.98,217.02C462.07,219.32 463.07,222.77 461.25,224.53C459.9,223.73 458.64,222.79 457.4,221.84C464.77,236.21 465.69,251.95 470.79,268.11C474.18,269.24 477.98,270.16 481.04,272.04C484.05,273.97 485.79,277.49 487.42,280.56C489.2,284.09 491.18,287.56 492.68,291.21C494.39,295.45 494.44,299.58 494.8,304.06C507.88,309.71 521.9,313.26 534.94,318.99C536.9,319.98 539.8,321.28 540.72,323.4C541.68,327.63 539.86,331.9 537.14,335.1C532.98,340.02 526.67,343.37 520.78,345.76C509.03,350.46 496.04,352.71 483.45,353.49C481.55,358.87 480.32,364.92 475.95,368.93C471.29,373.16 464.92,375.81 459.17,378.22C454.67,380.16 449.8,380.5 445.21,382.02C438.97,386.66 433.61,392.83 426.86,396.93C422.97,399.21 418.66,400.39 415.06,403.07C412.42,405.02 410.4,407.2 407.22,408.35C400.81,410.66 393.79,411.54 387,411.7C379.74,411.78 371.47,410.75 365.23,406.74C360.89,404.01 359.17,399.99 355.46,396.53C350.37,391.66 346.16,386.06 343.53,379.48C341.16,373.22 340.33,366.57 339.48,360C339.28,356.99 337.06,354.96 335.5,352.49C331.16,346.39 329.68,338.87 328.18,331.68C317.75,327.8 309.15,321.81 299.24,316.77C291,312.82 282.96,306.93 277.65,299.44C274.83,292.88 279.16,283.5 285.43,280.38C298.43,273.39 313.52,269.12 327.78,265.52C330.94,264.67 334.16,264.15 337.41,263.77C340.3,258.2 345.13,255.46 350.07,252.03C351.94,250.86 352.31,249.07 353.11,247.17C355.25,241.4 358.1,234.93 362.61,230.61C364.72,228.51 367.48,227.53 369.79,225.77C372.3,222.92 374.11,219.39 376.23,216.24C384.6,202.92 394.14,190.41 405.33,179.33C411.83,172.29 420.25,169.04 428.57,164.57C435.29,161.34 442.57,157.43 449.97,156.19Z" style="fill:rgb(0,28,61);fill-rule:nonzero;"/>
                    <clipPath id="_clip1">
                        <path d="M449.97,156.19C455.59,155.18 460.75,156.82 465.75,159.25C471.47,162.08 477.06,165.19 482.59,168.38C487.43,171.16 491.82,174.57 496.58,177.45C501.29,180.39 507.58,181.12 513,181.61C517.62,181.96 522.44,182.56 527.07,182.07C528.63,181.92 530.04,180.55 531.36,179.77C532.18,180.81 533,181.86 533.82,182.91C529.92,187.93 524.81,191.23 519.4,194.4C511.78,198.71 502.83,202.89 494,203.48C487.75,204.03 483.98,200.16 478.03,199.35C474.07,198.7 470.02,200.33 466.16,199.76C463.38,199.1 462.02,196.91 460.4,194.79C460.6,202.25 460.84,209.63 461.98,217.02C462.07,219.32 463.07,222.77 461.25,224.53C459.9,223.73 458.64,222.79 457.4,221.84C464.77,236.21 465.69,251.95 470.79,268.11C474.18,269.24 477.98,270.16 481.04,272.04C484.05,273.97 485.79,277.49 487.42,280.56C489.2,284.09 491.18,287.56 492.68,291.21C494.39,295.45 494.44,299.58 494.8,304.06C507.88,309.71 521.9,313.26 534.94,318.99C536.9,319.98 539.8,321.28 540.72,323.4C541.68,327.63 539.86,331.9 537.14,335.1C532.98,340.02 526.67,343.37 520.78,345.76C509.03,350.46 496.04,352.71 483.45,353.49C481.55,358.87 480.32,364.92 475.95,368.93C471.29,373.16 464.92,375.81 459.17,378.22C454.67,380.16 449.8,380.5 445.21,382.02C438.97,386.66 433.61,392.83 426.86,396.93C422.97,399.21 418.66,400.39 415.06,403.07C412.42,405.02 410.4,407.2 407.22,408.35C400.81,410.66 393.79,411.54 387,411.7C379.74,411.78 371.47,410.75 365.23,406.74C360.89,404.01 359.17,399.99 355.46,396.53C350.37,391.66 346.16,386.06 343.53,379.48C341.16,373.22 340.33,366.57 339.48,360C339.28,356.99 337.06,354.96 335.5,352.49C331.16,346.39 329.68,338.87 328.18,331.68C317.75,327.8 309.15,321.81 299.24,316.77C291,312.82 282.96,306.93 277.65,299.44C274.83,292.88 279.16,283.5 285.43,280.38C298.43,273.39 313.52,269.12 327.78,265.52C330.94,264.67 334.16,264.15 337.41,263.77C340.3,258.2 345.13,255.46 350.07,252.03C351.94,250.86 352.31,249.07 353.11,247.17C355.25,241.4 358.1,234.93 362.61,230.61C364.72,228.51 367.48,227.53 369.79,225.77C372.3,222.92 374.11,219.39 376.23,216.24C384.6,202.92 394.14,190.41 405.33,179.33C411.83,172.29 420.25,169.04 428.57,164.57C435.29,161.34 442.57,157.43 449.97,156.19Z" clip-rule="nonzero"/>
                    </clipPath>
                    <g clip-path="url(#_clip1)">
                        <path d="M449.03,162.94C454.91,161.7 460.69,163.99 464.79,168.21C471,174.48 478.67,178.53 486.4,182.63C491.78,185.36 496.79,188.06 502.98,188.19C509.38,188.31 515.79,187.23 522.2,187.15C515.55,192.52 506.35,194.24 498.04,192.98C490.49,191.49 483.43,188.7 476.22,186.61C472.38,185.47 468.24,184.94 464.53,183.43C461.26,181.99 458.96,179.31 456.51,176.8C454.76,181.8 453.08,186.66 452.52,191.97C452.14,195.87 451.82,199.72 450.57,203.46C445.07,199.44 440.5,194.52 434.39,191.28C436.04,197.51 438.4,203.42 439.56,209.78C440.99,216.26 441.09,222.85 442.79,229.27C444.24,234.91 443.9,240.36 443.46,246.09C436.55,242.28 430.82,236.75 423.91,233.01C417.92,230.25 411.27,228.76 404.94,226.97C397.56,224.69 390.2,226.79 382.24,226.05C384.15,219.45 388.36,214.67 391.9,208.95C396.56,201.97 400.91,194.66 406.13,188.08C411.24,181.66 418.57,177.75 425.43,173.43C432.68,169.19 440.73,164.56 449.03,162.94Z" style="fill:white;fill-rule:nonzero;"/>
                        <path d="M385.82,230.84C384.37,233.47 382.91,236.09 381.45,238.72C375.09,239.16 368.91,240.43 362.71,241.85C363.88,240.39 364.99,238.66 366.45,237.46C372.24,233.47 378.83,231.43 385.82,230.84Z" style="fill:white;fill-rule:nonzero;"/>
                        <path d="M394.03,231.14C400.31,231.35 406.51,232.59 412.27,235.15C405.24,243.47 400.4,253.05 395.88,262.9C394.78,265.22 393.48,267.43 392.16,269.64C385.68,268.73 379.39,267.62 373.3,265.12C374.33,260.91 376.23,257.18 378.54,253.54C382.53,247.18 386.34,240.7 390.39,234.38C391.24,233.34 392.52,231.01 394.03,231.14Z" style="fill:white;fill-rule:nonzero;"/>
                        <path d="M421.1,239.86C432.28,246.47 442.9,253.62 451.85,263.14C457.91,269.54 462.14,277.92 465.43,286.02C464.52,288.56 462.81,289.81 460.12,289.98C454.56,285.3 451.2,277.03 446.29,271.71C441.6,266.5 436.56,261.27 430.95,257.06C425.23,252.97 419.3,249.22 413,246.08C413.83,243.69 414.42,240.9 415.87,238.81C417.63,237.67 419.51,239.07 421.1,239.86Z" style="fill:white;fill-rule:nonzero;"/>
                        <path d="M377.98,244.24C376.76,246.7 375.45,249.1 374.07,251.47C370.54,251.47 367,251.44 363.47,251.28C367.86,246.91 371.86,245.16 377.98,244.24Z" style="fill:white;fill-rule:nonzero;"/>
                        <path d="M410.96,251.98C415.2,252.37 419.41,254.83 422.98,257.03C429.8,261.5 436.49,267.03 441.18,273.76C439.85,275.58 438.47,277.33 436.97,279.01C428.22,270.79 417.33,264.6 406.53,259.5C407.93,257.01 409.09,254.15 410.96,251.98Z" style="fill:white;fill-rule:nonzero;"/>
                        <path d="M371.02,256.87C370.08,259.37 369.13,261.87 368.16,264.36C360.76,264.12 353.44,265.15 346.06,265.14C347.58,263.28 349.25,261.61 351.19,260.18C356.03,255.8 364.88,257.54 371.02,256.87Z" style="fill:white;fill-rule:nonzero;"/>
                        <path d="M401.84,265.2C408.05,267.05 413.95,271.13 419.38,274.62C426.48,279.32 433.27,284.69 439.36,290.64C442.56,294.01 446.43,298.3 447.32,302.98C447.66,304.87 447.29,305.96 446.04,307.38C442.5,307.85 441.15,303.84 439.37,301.57C434.11,294.17 424.77,288.97 417.76,283.24C411.79,278.18 405.03,275.54 398.07,272.21C399.14,269.76 400.29,267.38 401.84,265.2Z" style="fill:white;fill-rule:nonzero;"/>
                        <path d="M368.27,269.83C373.94,271.69 379.33,271.68 384.45,275.08C372.36,276.25 360.14,276.1 348.01,276.79C344.37,277.03 340.92,277.97 337.42,278.94C349.77,280.36 361.79,283.83 373.14,288.86C388.79,296.08 405.14,301.86 421.23,308C420.88,309.7 420.53,311.4 420.18,313.1C394.96,304.03 368.89,293.07 342.79,287.66C333.8,285.82 324.19,283.7 315,283.78C306.38,283.79 298.43,286.45 289.8,286.94C296.42,282.81 303.81,279.17 311.5,277.68C319.54,275.87 327.79,273.81 336.01,273.17C346.77,272.14 357.97,270.08 368.78,270.64L368.27,269.83Z" style="fill:white;fill-rule:nonzero;"/>
                        <path d="M467.88,276.6C472.35,280.42 477.44,284.42 480.55,289.45C483.26,294.87 484.44,301.2 485.92,307.05C483.87,308.13 481.16,308.85 480.21,311.21C478.85,314.86 478.57,319.15 478.96,323C479.34,326.4 481.96,328.02 484.21,330.22C483.53,333.67 483.03,337.39 481.7,340.65C479.81,340.6 478,340.19 476.1,340.2C473.31,342.27 471.24,345.86 469.91,349.02C468.55,352.73 470.63,355.59 472.14,358.79C468.46,362.44 464.88,365.81 460.21,368.21C457.62,369.53 454.52,369.87 451.67,370.38C454.73,366.31 458.49,362.39 460.82,357.85C462.31,354.66 460.6,351.86 458.05,349.96C455.2,347.96 451.59,345.97 448.06,345.84C444.89,348.45 442.73,352.28 439.99,355.34C435.46,341.88 432.91,328.21 435.39,314.04C431.87,326.55 429.78,339 431.2,352.03C431.61,356.3 433.65,359.93 434.47,364.16C432.78,363.29 431.38,363.39 430.42,361.54C426.89,355.54 424.41,349.01 423.87,342.02C422.75,328.51 426.21,315.29 430.71,302.67C433.16,305.13 435.81,307.26 437.95,310.02C439.94,312.37 441.93,315.4 445.03,316.27C451.16,315.09 455.25,307.98 454.1,302C452.87,294.83 447.73,289.37 442.79,284.42C443.69,282.72 444.63,281.06 445.62,279.41C448.45,283.27 451.29,287.1 453.79,291.18C454.68,292.54 455.6,294.15 456.88,295.17C461.46,295.74 468.4,295.14 471.29,290.96C471,287.1 469.63,283.24 468.65,279.5C468.39,278.54 468.14,277.57 467.88,276.6Z" style="fill:white;fill-rule:nonzero;"/>
                        <path d="M344.49,299.66C343.02,309.01 340.99,319.03 342.01,328.99C343.22,337.28 348.18,343.91 351.97,351.09C353.45,353.71 355.59,356.06 357.4,358.48C349.42,356.09 342.99,350.13 339.33,342.75C334.86,332.05 334.97,321.38 335.14,310C335.23,306.91 335.59,303.04 337.43,300.45C339.18,298.24 342.16,299.41 344.49,299.66Z" style="fill:white;fill-rule:nonzero;"/>
                        <path d="M486.33,313.47C486.92,316.67 485.82,319.39 484.45,322.19C483.85,319.93 482.53,316.72 483.57,314.46C484.29,313.4 485.21,313.57 486.33,313.47Z" style="fill:white;fill-rule:nonzero;"/>
                        <path d="M493.72,313.02C497.53,314.89 500.99,317.39 504.85,319.18C509.52,321.51 514.39,322.6 519.4,323.9C510.62,325.19 501.54,324.83 492.71,324.37C493.07,320.59 493.27,316.79 493.72,313.02Z" style="fill:white;fill-rule:nonzero;"/>
                        <path d="M391.85,326.95C400.48,329.46 408.47,333.2 417.51,334.34C417.68,337.19 417.77,340.05 417.85,342.91C408.27,340.42 398.54,338.53 388.9,336.29C389.87,333.17 390.86,330.06 391.85,326.95Z" style="fill:white;fill-rule:nonzero;"/>
                        <path d="M477.32,345.26C478.09,346.46 478.84,347.65 479.33,348.98C478.52,350.68 477.17,351.76 475.86,353.04C475.26,351.62 474.66,350.2 474.11,348.76C475.08,347.51 476.19,346.37 477.32,345.26Z" style="fill:white;fill-rule:nonzero;"/>
                        <path d="M384.43,347.66C388.78,347.83 392.8,348.89 396.99,349.88C404.51,351.7 412.01,353.4 419.75,353.96C420.61,360.1 425.05,364.57 428.54,369.44C421.95,374.05 415.4,379.21 408.39,383.08C406.21,382.37 404.41,381.32 402.04,381.73C393.16,382.69 385.14,385.05 376.21,382.6C370.88,381.07 365.35,379.04 360.36,376.63C355.52,374.22 355.11,368.87 353.85,364.21C361.19,366.63 368.99,364.51 374.95,359.88C378.76,356.6 381.72,351.85 384.43,347.66Z" style="fill:white;fill-rule:nonzero;"/>
                        <path d="M449.99,351.31C451.42,352.34 453.3,352.96 453.28,355.04C453.24,358.59 449.85,362.1 447.79,364.79C443.3,369.96 440.33,375.74 435.44,380.42C430.17,385.58 424.33,388.97 418.35,393.34C414.82,395.69 410.24,398.63 405.87,398.49C402.83,396.63 403.76,393.83 403.5,390.8C412.53,387.33 420.77,382.27 428.37,376.32C433.4,372.29 438.03,368.09 441.78,362.8C444.54,359.02 446.81,354.66 449.99,351.31Z" style="fill:white;fill-rule:nonzero;"/>
                        <path d="M348.23,369.36C351.16,374.43 353.78,379.26 358.64,382.8C358.32,384.4 358,385.99 357.67,387.59C353.21,383.03 350.69,378.35 349.02,372.21C348.75,371.26 348.49,370.31 348.23,369.36Z" style="fill:white;fill-rule:nonzero;"/>
                        <path d="M366.87,385.07C370.56,386.53 373.94,388.32 377.97,388.75C384.75,390.02 391,388.51 397.78,388.54C397.19,389.85 396.6,391.16 396,392.47C397.07,395.87 397.92,399.28 398.46,402.81C392.47,404.58 386.16,405.01 379.96,404.29C375.38,403.68 370.55,402.15 367.23,398.78C364.17,395.77 362.92,391.16 363.81,387C364.05,385.51 365.4,384.38 366.87,385.07Z" style="fill:white;fill-rule:nonzero;"/>
                        <g transform="matrix(1,0,0,1,-3,-2)">
                            <path d="M463.522,307L465.508,306.988L468.644,316.049L467.609,318.938L463.522,307Z" style="fill:rgb(0,28,61);"/>
                            <path d="M463.514,309.44L465.82,316.027L465.833,331.459L463.562,338.047L463.514,309.44Z" style="fill:rgb(0,28,61);"/>
                            <path d="M463.586,340.026L465.87,340.006L469.239,329.672L468.217,326.531L463.586,340.026Z" style="fill:rgb(0,28,61);"/>
                            <path d="M467.837,327.578L468.228,326.549L469.333,326.531L471.102,331.483L471.132,337.641L468.931,330.681L467.837,327.578Z" style="fill:rgb(0,28,61);"/>
                            <path d="M471.77,340.024L474.073,340.016L473.99,306.959L471.753,306.995L471.77,340.024Z" style="fill:rgb(0,28,61);"/>
                            <path d="M470.849,309.672L470.84,316.141L469.293,320.517L468.19,320.516L467.607,318.939L470.849,309.672Z" style="fill:rgb(0,28,61);"/>
                        </g>
                    </g>
                </g>
            </g>
            <g id="up" transform="matrix(3.072106,0,0,3.072106,-778.215832,-21.025387)">
                <path d="M632.79,31.09C633.32,37.19 632.38,43.02 634.36,48.99C638.28,42.79 640.44,36.31 647.03,31.89C652.49,34.19 642.91,42.22 643.04,45.99C646.39,43.27 647.79,38.54 651.01,35.75C656.44,40.02 647.4,47.46 645.88,52.08C644.61,55.25 641.69,54.14 639.29,56.44C638.7,50.97 632.11,57.32 631.76,59.64C633.85,64.32 635.56,68.6 636.76,73.63C639.03,75.11 641.35,75.1 642.4,77.97L641.2,79.17C637.94,78.09 635.7,78.76 632.5,79.21C630.69,77.59 629.78,77.1 627.3,77.27C626.51,82.97 623.57,87.26 624.65,92.89C625.12,94 622.6,94.23 621.88,94.75C612.26,101.34 613.79,110.27 608.3,119.16C608.33,126.21 602.83,130.62 601.83,137.74C599.33,134.78 596.96,136.27 593.64,135.18C597.66,131.27 598.22,126.48 600.66,121.67C605.88,108.83 615.88,99.47 620.46,86.4C622.81,80.46 627.41,74.76 626.12,68.02C625.33,62.94 626.63,58.77 627.87,53.97C628.25,46.33 627.4,39.16 629.67,31.63C630.54,31.11 631.58,30.92 632.79,31.09Z" style="fill:rgb(198,168,153);fill-rule:nonzero;"/>
                <path d="M429.64,33.26C432.9,39.08 433.75,47.5 436.07,52.05C439.57,49.8 439.35,41.86 440.12,38.02C440.25,35.74 442.27,30.74 444.77,34.28C445.37,40.21 444,46.97 442.71,52.79C441.66,56.35 442.08,60.15 441.84,63.96C440.25,62.47 439.28,60.49 437.12,59.92C438.55,63.3 441.14,65.44 441.89,69.15C443.43,78.55 439.97,88.41 442.23,97.62C441.91,105.71 443.76,113.5 443.75,121.59C445.72,128.93 451.92,128.08 453.97,135.08C455.51,138.56 458.17,140.6 460.76,143.25C466.72,149.27 470.22,156.39 474.51,163.51C483.33,168.24 491.79,172.68 498.6,180.2C499.86,188.17 497.02,194.74 495.46,202.36C493.8,217.09 489.84,230.53 480.76,242.45C477.48,230.7 473.51,218.68 472.45,206.6C471.95,203.32 470.26,200.73 468.54,197.98C473.06,195.97 473.03,200.13 477.61,199.45C479.83,201.89 481.54,204.52 484.42,206.3C484.68,207.95 484.94,209.6 485.17,211.25C485.04,213.53 485.02,215.8 485.23,218.07C487.47,214.39 487.95,210.21 490.75,206.76C490.45,203.37 487.17,199.4 485.9,196.04C484.08,193.31 482.48,194.52 480.12,195.57C478.81,193.92 477.72,192.09 476.51,190.37C475.92,187.56 477.28,185.78 477.57,183.28C475.91,180.35 474.02,176.99 471.57,174.67C469.81,175.76 469.79,175.39 468.11,174.53C467.29,178.58 458.25,179.31 456.42,175.57C451.87,172.63 456.4,167.99 457.83,164.44C453.86,165.11 454.12,161.36 450.51,159.84C453.73,156.33 445.82,159.33 447.35,155.34C447.93,150.21 450.39,153.03 453.93,152.82C453.48,147.95 448.91,138.23 445.58,134.61C437.75,135.1 443.2,130.97 437.9,128.38C434.25,119.05 431.44,109.69 428.57,100.1C428.22,100.77 427.89,101.45 427.57,102.14C426.5,96.15 427.01,89.82 427.28,83.78C428.43,85.13 429.57,86.54 430.88,87.74C433.07,86.33 432.77,86.16 435.02,87.58C436.13,85.75 436.92,83.71 437.98,81.85C439.01,82.79 439.95,83.81 440.94,84.79C441.02,79.69 441.72,72.67 438.73,68.24C435.58,64.05 435.67,59.57 430.87,56.42C428.68,56.37 426.53,56.71 424.4,57.23C422.9,51.38 420.36,45.75 419.2,39.85C418.6,37.74 420.87,36.38 422.66,37.25C425.84,40.63 426.13,51.05 429.86,52.96C428.33,47.31 427.36,41.58 426.26,35.84C425.63,33.65 427.76,32.49 429.64,33.26Z" style="fill:rgb(215,186,169);fill-rule:nonzero;"/>
                <path d="M654.9,44.15C655.9,44.15 656.89,44.18 657.88,44.24C658.83,50.7 650.34,55.23 648.78,61.74C645.04,65.72 642.32,70.48 644.15,76.04C643.61,76.72 643.03,77.36 642.4,77.97C641.35,75.1 639.03,75.11 636.76,73.63C635.56,68.6 633.85,64.32 631.76,59.64C632.11,57.32 638.7,50.97 639.29,56.44C641.69,54.14 644.61,55.25 645.88,52.08L646.24,53.84C649.87,51.28 652.59,47.9 654.9,44.15Z" style="fill:rgb(224,189,171);fill-rule:nonzero;"/>
                <path d="M424.4,57.23C426.53,56.71 428.68,56.37 430.87,56.42C435.67,59.57 435.58,64.05 438.73,68.24C441.72,72.67 441.02,79.69 440.94,84.79C439.95,83.81 439.01,82.79 437.98,81.85C436.92,83.71 436.13,85.75 435.02,87.58C432.77,86.16 433.07,86.33 430.88,87.74C429.57,86.54 428.43,85.13 427.28,83.78C426.94,82.77 426.56,81.78 426.14,80.81C423.33,75.89 421.18,71.5 420.23,65.82C418.99,58.89 413.39,55.74 411.16,49.1C416.25,43.88 419.52,60.04 424.4,57.23Z" style="fill:rgb(203,172,154);fill-rule:nonzero;"/>
                <path d="M442.71,52.79C442.84,55.67 443.08,58.53 443.57,61.37C445.43,69.22 441.48,75.85 444.85,83.42C444.59,101.11 452.92,117.23 453.97,135.08C451.92,128.08 445.72,128.93 443.75,121.59C443.76,113.5 441.91,105.71 442.23,97.62C439.97,88.41 443.43,78.55 441.89,69.15C441.14,65.44 438.55,63.3 437.12,59.92C439.28,60.49 440.25,62.47 441.84,63.96C442.08,60.15 441.66,56.35 442.71,52.79Z" style="fill:rgb(232,213,200);fill-rule:nonzero;"/>
                <path d="M426.29,59.36C434.46,57.42 433.48,72.36 427.29,67.75C422.91,66.05 420.51,61.23 426.29,59.36Z" style="fill:rgb(158,113,83);fill-rule:nonzero;"/>
                <path d="M648.78,61.74C649.5,66.88 646.98,71.93 644.15,76.04C642.32,70.48 645.04,65.72 648.78,61.74Z" style="fill:rgb(239,217,206);fill-rule:nonzero;"/>
                <path d="M627.3,77.27C629.78,77.1 630.69,77.59 632.5,79.21C635.7,78.76 637.94,78.09 641.2,79.17L640.88,79.91C637.58,82.72 633.95,86.69 634.56,91.37C634.39,96.86 631.46,104.04 624.64,102.46C620.68,99.92 621.25,109.31 623.77,109.93C625.18,107.52 624.24,101.43 627.91,106.02C625.27,110.06 628,113.84 626.3,118.2C625.41,123.22 617.55,128.73 619.98,134.2C618.51,136.98 617.24,139.93 615.51,142.55C605.6,154 600.88,170.02 590.62,181.62C586.31,185.19 582.11,188.63 579.01,193.39C577.45,192.18 576.34,186.83 574.41,190.25C574.37,191.81 574.97,193.69 574.32,195.12C571.26,194.29 569.86,192.46 570.03,197.02C570.48,201.72 566.61,201.84 563.88,204.77C562.8,201.82 564.07,198.11 563.96,195.02C564.47,189.72 562.81,183.2 565.43,178.51C566.34,176.87 565.34,175.71 564.8,174.14C561.38,177.22 556.23,180.02 554.45,184.41C552.69,189.68 557.86,195.3 552.53,198.04C551.48,193.47 547.95,187.29 548.95,182.77C550.66,181.24 552.27,179.61 553.92,178.01C559.17,176.72 562.58,172.31 566.73,169.19C567.34,170.7 567.83,172.24 568.4,173.77C570.8,171.13 576.88,168.68 573.03,164.83C572.89,163.27 574.57,160.91 572.1,160.82C576.1,158.28 577.1,154.45 579.78,150.78C583.82,145.12 588.23,139.57 593.64,135.18C596.96,136.27 599.33,134.78 601.83,137.74C602.83,130.62 608.33,126.21 608.3,119.16C613.79,110.27 612.26,101.34 621.88,94.75C622.6,94.23 625.12,94 624.65,92.89C623.57,87.26 626.51,82.97 627.3,77.27Z" style="fill:rgb(217,189,172);fill-rule:nonzero;"/>
                <path d="M640.88,79.91C635.35,97.89 630.78,118.7 619.98,134.2C617.55,128.73 625.41,123.22 626.3,118.2C628,113.84 625.27,110.06 627.91,106.02C624.24,101.43 625.18,107.52 623.77,109.93C621.25,109.31 620.68,99.92 624.64,102.46C631.46,104.04 634.39,96.86 634.56,91.37C633.95,86.69 637.58,82.72 640.88,79.91Z" style="fill:rgb(228,210,199);fill-rule:nonzero;"/>
                <path d="M428.57,100.1C431.44,109.69 434.25,119.05 437.9,128.38C443.2,130.97 437.75,135.1 445.58,134.61C448.91,138.23 453.48,147.95 453.93,152.82C450.39,153.03 447.93,150.21 447.35,155.34C445.82,159.33 453.73,156.33 450.51,159.84C454.12,161.36 453.86,165.11 457.83,164.44C456.4,167.99 451.87,172.63 456.42,175.57C458.25,179.31 467.29,178.58 468.11,174.53C469.79,175.39 469.81,175.76 471.57,174.67C474.02,176.99 475.91,180.35 477.57,183.28C477.28,185.78 475.92,187.56 476.51,190.37C472.93,187.76 475.72,183.66 470.37,183.69C465.73,184.23 457.4,177.75 457.9,186.24C449.08,177.88 445.73,163.69 439.68,153.02C441.36,152.61 442.27,152.91 443.81,153.54C443.64,151.37 441.88,148.83 445.16,148.26C449.06,147.61 448.85,145.3 448.56,142.1C446.04,141.81 443.25,144.06 442.14,140.89C440.55,137.58 435.53,134.75 432.52,138.08C428.53,126.08 428.15,114.48 427.57,102.14C427.89,101.45 428.22,100.77 428.57,100.1Z" style="fill:rgb(205,175,157);fill-rule:nonzero;"/>
                <path d="M531.14,117.06C529.39,119.76 523.25,114.79 520.47,114.8C524.63,112.96 527.45,115.41 531.14,117.06Z" style="fill:rgb(83,82,79);fill-rule:nonzero;"/>
                <path d="M520.47,114.8C523.25,114.79 529.39,119.76 531.14,117.06C533.29,118.3 535.35,119.71 537.35,121.17C534.29,121.77 530.95,121.17 528,122.1C529.03,123.51 530.36,124.54 531.66,125.68C530.17,126.14 528.78,126.24 527.71,127.51L527.04,127.49C523.96,127.46 520.66,126.63 517.66,126.94L517.06,127.07C514.45,128.11 507.84,128.23 508.05,131.97C507.47,135.25 507.1,138.55 506.9,141.87C506.5,142.85 506.11,143.84 505.76,144.83C504.36,148.99 504.84,153.98 505.6,158.25C506.02,162.85 507.01,161.64 510.86,162.4C512.13,162.64 513.39,162.85 514.66,163.04L515.04,163.87C515.1,165.35 515.31,167 517.01,167.39C518.17,167.77 519.35,167.98 520.54,168.17C519.33,165.98 519.2,165.77 520.98,163.79C522.99,164.89 522.51,166.14 522.67,168.07C524.66,167.75 525.12,166.23 526.37,164.9C526.53,166.9 525.7,167.31 528.02,167.84C524.74,172.02 520.5,171.37 515.79,171.29C513.96,170.33 512.37,169.06 510.73,167.82C509.17,166.34 508.27,167.34 506.66,168.07C502.86,166.25 500.86,160.71 498.86,157.19C499.09,153.71 498.42,150.99 497.15,147.79C497.13,146.55 497.12,145.3 497.13,144.05C498.65,142.45 498.36,140.89 497.74,138.95C498.56,137.01 499.39,135.07 500.1,133.09C500.5,133.58 500.91,134.06 501.32,134.54C505.34,129.63 510.95,125.96 513.17,120.3C513.91,119.03 512.67,118.85 512,117.94C514.58,116.08 517.36,115.25 520.47,114.8Z" style="fill:rgb(43,37,33);fill-rule:nonzero;"/>
                <path d="M512,117.94C512.67,118.85 513.91,119.03 513.17,120.3C510.95,125.96 505.34,129.63 501.32,134.54C500.91,134.06 500.5,133.58 500.1,133.09C500.85,128.55 504.82,127.45 506.36,123.33C507.46,120.63 509.67,119.43 512,117.94Z" style="fill:rgb(78,76,73);fill-rule:nonzero;"/>
                <path d="M537.35,121.17C542.13,124.27 543.83,131.81 545.39,136.95C541.16,136.78 541.41,137.58 540.57,133.28C538.22,132.95 537.79,139.74 537.65,141.2C536.8,138.28 537.83,133.78 534.55,132.53C532.67,131.46 530.96,130.2 529.25,128.88L527.71,127.51C528.78,126.24 530.17,126.14 531.66,125.68C530.36,124.54 529.03,123.51 528,122.1C530.95,121.17 534.29,121.77 537.35,121.17Z" style="fill:rgb(91,78,73);fill-rule:nonzero;"/>
                <path d="M527.04,127.49C524.6,127.45 518.23,130.91 517.66,126.94C520.66,126.63 523.96,127.46 527.04,127.49Z" style="fill:rgb(100,78,68);fill-rule:nonzero;"/>
                <path d="M517.06,127.07C515.92,130.23 510.49,129.56 508.05,131.97C507.84,128.23 514.45,128.11 517.06,127.07Z" style="fill:rgb(110,86,76);fill-rule:nonzero;"/>
                <path d="M517.06,127.07L517.66,126.94C518.23,130.91 524.6,127.45 527.04,127.49L527.71,127.51L529.25,128.88C524.75,131.23 518.28,131.79 513.2,131.31C510.71,130.86 509.55,133.92 509.04,135.85C511.98,135.83 516.62,133.77 518.9,136.18C518.1,139.9 510.75,134.52 510.27,138.82C512.08,140.18 515.67,138.57 517.95,139.13C518.07,141.12 517.05,142.51 516.19,144.18C512.26,142.72 512.15,141.3 506.9,141.87C507.1,138.55 507.47,135.25 508.05,131.97C510.49,129.56 515.92,130.23 517.06,127.07Z" style="fill:rgb(161,128,119);fill-rule:nonzero;"/>
                <path d="M529.25,128.88C530.96,130.2 532.67,131.46 534.55,132.53C537.83,133.78 536.8,138.28 537.65,141.2C538.22,146.09 538.14,150.97 537.7,155.87C537.65,164.67 529.26,161.82 523.38,161.54C519.68,160.78 517.73,160.55 514.66,163.04C513.39,162.85 512.13,162.64 510.86,162.4C512.7,159.18 509.58,159.19 508.22,156.79C507.35,154.91 506.81,152.82 506.23,150.82C506.05,148.83 505.88,146.83 505.76,144.83C506.11,143.84 506.5,142.85 506.9,141.87C512.15,141.3 512.26,142.72 516.19,144.18C515.18,145.86 514.03,147.46 513,149.12C517.29,152.55 521.31,151.6 525.92,149.5C524.21,147.48 522.07,149.33 520.14,147.85C517.07,146.41 520.51,143.76 516.19,144.18C517.05,142.51 518.07,141.12 517.95,139.13C515.67,138.57 512.08,140.18 510.27,138.82C510.75,134.52 518.1,139.9 518.9,136.18C516.62,133.77 511.98,135.83 509.04,135.85C509.55,133.92 510.71,130.86 513.2,131.31C518.28,131.79 524.75,131.23 529.25,128.88Z" style="fill:rgb(209,169,163);fill-rule:nonzero;"/>
                <path d="M540.57,133.28C541.41,137.58 541.16,136.78 545.39,136.95C543.88,139.14 543.8,143.38 542.43,138.05C540.43,142.54 539.37,147.07 540.21,152.02C541.75,150.52 542.31,144.54 544.57,148.45C547.7,151.02 543.07,153.81 545.14,157.31C544.88,157.98 544.61,158.64 544.34,159.31C543.56,159.81 542.76,160.3 541.95,160.76C542.33,159.05 541.98,158.25 540.91,158.34C537.99,158.31 538.12,159.2 537.7,155.87C538.14,150.97 538.22,146.09 537.65,141.2C537.79,139.74 538.22,132.95 540.57,133.28Z" style="fill:rgb(45,37,35);fill-rule:nonzero;"/>
                <path d="M442.14,140.89C443.25,144.06 446.04,141.81 448.56,142.1C448.85,145.3 449.06,147.61 445.16,148.26C441.88,148.83 443.64,151.37 443.81,153.54C442.27,152.91 441.36,152.61 439.68,153.02C437,147.85 434.02,143.58 432.52,138.08C435.53,134.75 440.55,137.58 442.14,140.89Z" style="fill:rgb(194,158,142);fill-rule:nonzero;"/>
                <path d="M525.35,136.27C528.47,135.41 531.29,136.31 534.06,137.75C532.74,137.67 520.59,139.28 525.35,136.27Z" style="fill:rgb(167,132,124);fill-rule:nonzero;"/>
                <path d="M545.39,136.95C547.8,143.22 548.3,151.19 545.14,157.31C543.07,153.81 547.7,151.02 544.57,148.45C542.31,144.54 541.75,150.52 540.21,152.02C539.37,147.07 540.43,142.54 542.43,138.05C543.8,143.38 543.88,139.14 545.39,136.95Z" style="fill:rgb(111,110,109);fill-rule:nonzero;"/>
                <path d="M497.74,138.95C498.36,140.89 498.65,142.45 497.13,144.05C496.63,142.14 496.49,140.6 497.74,138.95Z" style="fill:rgb(154,154,154);fill-rule:nonzero;"/>
                <path d="M527.31,140.25C528.9,140.04 530.68,141.13 532.08,141.79C530.56,141.53 523.47,143.22 527.31,140.25Z" style="fill:rgb(119,86,79);fill-rule:nonzero;"/>
                <path d="M501.22,144.43C499.17,150.44 504.74,146.31 501.22,144.43Z" style="fill:rgb(123,123,121);fill-rule:nonzero;"/>
                <path d="M516.19,144.18C520.51,143.76 517.07,146.41 520.14,147.85C522.07,149.33 524.21,147.48 525.92,149.5C521.31,151.6 517.29,152.55 513,149.12C514.03,147.46 515.18,145.86 516.19,144.18Z" style="fill:rgb(162,111,109);fill-rule:nonzero;"/>
                <path d="M505.76,144.83C505.88,146.83 506.05,148.83 506.23,150.82C506.1,153.31 505.86,155.78 505.6,158.25C504.84,153.98 504.36,148.99 505.76,144.83Z" style="fill:rgb(110,91,87);fill-rule:nonzero;"/>
                <path d="M497.15,147.79C498.42,150.99 499.09,153.71 498.86,157.19C497.42,154.1 496.94,151.19 497.15,147.79Z" style="fill:rgb(132,132,132);fill-rule:nonzero;"/>
                <path d="M506.23,150.82C506.81,152.82 507.35,154.91 508.22,156.79C509.58,159.19 512.7,159.18 510.86,162.4C507.01,161.64 506.02,162.85 505.6,158.25C505.86,155.78 506.1,153.31 506.23,150.82Z" style="fill:rgb(171,145,140);fill-rule:nonzero;"/>
                <path d="M515.33,154.36C518.96,153.97 526.29,152.49 527.98,156.86C524.61,158.92 519.1,158.01 515.29,157.7C514.83,156.27 513.15,155.12 515.33,154.36Z" style="fill:rgb(144,102,99);fill-rule:nonzero;"/>
                <path d="M516.32,155.23C519.05,155.11 524.59,153.82 526.03,156.86C524.73,156.65 514.78,157.64 516.32,155.23Z" style="fill:rgb(208,166,164);fill-rule:nonzero;"/>
                <path d="M537.7,155.87C538.12,159.2 537.99,158.31 540.91,158.34C540.2,159.53 539.72,161.95 541.95,160.76C542.76,160.3 543.56,159.81 544.34,159.31C543.13,162.64 541.34,165.65 539.1,168.39C535.24,164.72 534.59,167.24 530.8,169.23C529.48,170.05 528.24,170.96 527.03,171.92C521.94,173.79 520.5,174.48 515.79,171.29C520.5,171.37 524.74,172.02 528.02,167.84C525.7,167.31 526.53,166.9 526.37,164.9C525.12,166.23 524.66,167.75 522.67,168.07C522.51,166.14 522.99,164.89 520.98,163.79C519.2,165.77 519.33,165.98 520.54,168.17C519.35,167.98 518.17,167.77 517.01,167.39C518.49,165.43 517.07,164.21 515.04,163.87L514.66,163.04C517.73,160.55 519.68,160.78 523.38,161.54C529.26,161.82 537.65,164.67 537.7,155.87Z" style="fill:rgb(78,64,58);fill-rule:nonzero;"/>
                <path d="M540.91,158.34C541.98,158.25 542.33,159.05 541.95,160.76C539.72,161.95 540.2,159.53 540.91,158.34Z" style="fill:rgb(156,150,147);fill-rule:nonzero;"/>
                <path d="M572.1,160.82C574.57,160.91 572.89,163.27 573.03,164.83C569.32,170.31 570.42,165.83 567.8,162.74C569.23,162.08 570.67,161.47 572.1,160.82Z" style="fill:rgb(150,126,107);fill-rule:nonzero;"/>
                <path d="M567.8,162.74C570.42,165.83 569.32,170.31 573.03,164.83C576.88,168.68 570.8,171.13 568.4,173.77C567.83,172.24 567.34,170.7 566.73,169.19C562.58,172.31 559.17,176.72 553.92,178.01C555.54,173.86 564.94,168.47 564.19,164.69C565.31,163.9 566.55,163.29 567.8,162.74Z" style="fill:rgb(203,168,142);fill-rule:nonzero;"/>
                <path d="M515.04,163.87C517.07,164.21 518.49,165.43 517.01,167.39C515.31,167 515.1,165.35 515.04,163.87Z" style="fill:rgb(150,148,145);fill-rule:nonzero;"/>
                <path d="M564.19,164.69C564.94,168.47 555.54,173.86 553.92,178.01C552.27,179.61 550.66,181.24 548.95,182.77C548.12,181.49 547.22,180.35 546.15,179.27C552.52,174.96 557.31,168.66 564.19,164.69Z" style="fill:rgb(158,133,118);fill-rule:nonzero;"/>
                <path d="M539.1,168.39C538.69,169.97 538.35,171.56 537.98,173.15C535.31,172.25 532.92,171.13 530.8,169.23C534.59,167.24 535.24,164.72 539.1,168.39Z" style="fill:rgb(234,215,205);fill-rule:nonzero;"/>
                <path d="M510.73,167.82C507.58,171.64 508.17,178.54 507.83,183.23C504.87,182.82 504.96,181.21 503.78,178.92C508.36,175.98 507.02,172.78 506.66,168.07C508.27,167.34 509.17,166.34 510.73,167.82Z" style="fill:rgb(111,90,80);fill-rule:nonzero;"/>
                <path d="M510.73,167.82C512.37,169.06 513.96,170.33 515.79,171.29C520.5,174.48 521.94,173.79 527.03,171.92C523.4,179.5 513.95,174.23 509.44,177.22C508.75,180.75 512.72,183.82 513.95,187.07C512.41,189.25 510.2,190.31 509.52,193.12C508.25,189.83 507.86,186.75 507.83,183.23C508.17,178.54 507.58,171.64 510.73,167.82Z" style="fill:rgb(189,152,135);fill-rule:nonzero;"/>
                <path d="M530.8,169.23C532.92,171.13 535.31,172.25 537.98,173.15C538.31,174.07 538.64,175 538.97,175.92C538.41,175.72 537.85,175.54 537.28,175.37C536.99,179.17 537.42,182.39 538.5,186.06C538.12,193.9 536.38,203.84 530.6,209.61C526.64,213.5 518.93,212.93 515.82,208.21C512.65,203.58 511.02,198.46 509.52,193.12C510.2,190.31 512.41,189.25 513.95,187.07C512.72,183.82 508.75,180.75 509.44,177.22C513.95,174.23 523.4,179.5 527.03,171.92C528.24,170.96 529.48,170.05 530.8,169.23Z" style="fill:rgb(224,184,167);fill-rule:nonzero;"/>
                <path d="M579.11,170.1C582.73,172.5 582.88,173.84 587.66,173.35C594.28,176.14 586.96,183.15 583.67,185.66C580.15,189.94 576.8,186.18 572.21,185.94C572.76,181.32 575.82,180.52 578.74,177.7C579.13,175.09 578.25,172.69 579.11,170.1Z" style="fill:rgb(209,180,154);fill-rule:nonzero;"/>
                <path d="M564.8,174.14C565.34,175.71 566.34,176.87 565.43,178.51C562.81,183.2 564.47,189.72 563.96,195.02C564.07,198.11 562.8,201.82 563.88,204.77C566.61,201.84 570.48,201.72 570.03,197.02C569.86,192.46 571.26,194.29 574.32,195.12C573.36,199.02 568.48,201.99 568.99,205.98C569.67,210.33 570.91,221.81 563.3,219.82C560.1,214.54 557.89,209.31 557.68,203.03C554.38,205.08 555.04,207.8 554.63,211.21C554.3,209.51 554.02,207.81 553.76,206.1C554.38,204.41 554.52,203.29 553.21,201.91C552.99,200.62 552.77,199.33 552.53,198.04C557.86,195.3 552.69,189.68 554.45,184.41C556.23,180.02 561.38,177.22 564.8,174.14Z" style="fill:rgb(235,208,190);fill-rule:nonzero;"/>
                <path d="M537.28,175.37C537.85,175.54 538.41,175.72 538.97,175.92C540.23,176.55 541.54,177.12 542.78,177.8C542.21,178.1 541.78,178.49 541.51,178.97C540.36,181.26 539.46,183.69 538.5,186.06C537.42,182.39 536.99,179.17 537.28,175.37Z" style="fill:rgb(188,160,145);fill-rule:nonzero;"/>
                <path d="M542.78,177.8L544.33,178.72C542.33,183.66 544.13,188.9 541.2,193.22C540.45,188.24 542.73,183.86 541.51,178.97C541.78,178.49 542.21,178.1 542.78,177.8Z" style="fill:rgb(88,87,81);fill-rule:nonzero;"/>
                <path d="M503.78,178.92C504.96,181.21 504.87,182.82 507.83,183.23C507.86,186.75 508.25,189.83 509.52,193.12C511.02,198.46 512.65,203.58 515.82,208.21C518.93,212.93 526.64,213.5 530.6,209.61C536.38,203.84 538.12,193.9 538.5,186.06C539.46,183.69 540.36,181.26 541.51,178.97C542.73,183.86 540.45,188.24 541.2,193.22C540.06,196.74 538.8,200.26 537.95,203.87C535.89,207.97 532.8,210.89 529.36,213.81C522.7,216.09 519.38,215.53 514.69,210.31C509.31,204.43 507.21,195.12 504.71,187.77C503.89,185.95 502.63,184.35 501.19,182.98C501.29,185.92 501.49,188.85 501.38,191.8C495.39,209.25 495.88,225.37 484.82,240.16C483.63,242.07 482.59,244.09 481.66,246.14C481.32,244.92 481.04,243.69 480.76,242.45C489.84,230.53 493.8,217.09 495.46,202.36C497.02,194.74 499.86,188.17 498.6,180.2C500.31,179.7 502.04,179.31 503.78,178.92Z" style="fill:rgb(42,41,30);fill-rule:nonzero;"/>
                <path d="M544.33,178.72L546.15,179.27C547.22,180.35 548.12,181.49 548.95,182.77C547.95,187.29 551.48,193.47 552.53,198.04C552.77,199.33 552.99,200.62 553.21,201.91C552.61,203.6 552.5,204.7 553.76,206.1C554.02,207.81 554.3,209.51 554.63,211.21C555.7,217.6 556.53,223.84 559.21,229.81C558.44,229.56 557.67,229.31 556.9,229.06C554.21,222.81 553.58,216.22 551.82,209.72C551.6,208.04 551.25,206.39 550.9,204.73C550.63,203.06 550.24,201.42 549.83,199.78C548.65,196.04 548.06,190.7 545.16,187.94C545.11,189.57 545.17,191.19 545.27,192.82C543.96,197.16 541.97,201.15 540.18,205.29C539.44,204.82 538.69,204.35 537.95,203.87C538.8,200.26 540.06,196.74 541.2,193.22C544.13,188.9 542.33,183.66 544.33,178.72Z" style="fill:rgb(50,60,48);fill-rule:nonzero;"/>
                <path d="M482.23,180.98C484.33,181.17 483.25,188.89 482.07,188.87C481.88,186.24 481.94,183.6 482.23,180.98Z" style="fill:rgb(164,134,113);fill-rule:nonzero;"/>
                <path d="M470.37,183.69C475.72,183.66 472.93,187.76 476.51,190.37C477.72,192.09 478.81,193.92 480.12,195.57C482.48,194.52 484.08,193.31 485.9,196.04C487.17,199.4 490.45,203.37 490.75,206.76C487.95,210.21 487.47,214.39 485.23,218.07C485.02,215.8 485.04,213.53 485.17,211.25C488.94,210.38 485.38,201.55 485.17,198.85C483.86,194.29 481.82,196.05 479.94,198.96C481.08,201.27 484.96,203.59 484.42,206.3C481.54,204.52 479.83,201.89 477.61,199.45C473.03,200.13 473.06,195.97 468.54,197.98C467.31,196.62 466.17,195.2 464.98,193.8C462.76,191.09 460.26,188.83 457.9,186.24C457.4,177.75 465.73,184.23 470.37,183.69Z" style="fill:rgb(191,164,143);fill-rule:nonzero;"/>
                <path d="M501.19,182.98C502.63,184.35 503.89,185.95 504.71,187.77C503.66,191.54 504.16,195.21 503.8,199.04C502.76,196.69 502.58,194.11 501.38,191.8C501.49,188.85 501.29,185.92 501.19,182.98Z" style="fill:rgb(64,87,71);fill-rule:nonzero;"/>
                <path d="M504.71,187.77C507.21,195.12 509.31,204.43 514.69,210.31C519.38,215.53 522.7,216.09 529.36,213.81C526.79,219.43 525.21,224.99 517.86,224.59C517.25,224.54 516.63,224.49 516.02,224.44C517.8,221.57 512.09,223.02 511.02,223.62L509.18,223.48C503.57,222.53 504.88,229.92 505.57,233.24C505.97,235.57 506.56,237.82 507.45,240.02C508.05,242.4 510.06,242.65 511.92,243.83C509.75,244.1 506.81,243.57 504.99,244.9C503.78,246.55 504.06,249.03 503.7,251.02C502.77,246.74 500.74,248.59 497.45,248.2C494.91,245.38 492.11,242.69 489.19,240.27C486.9,241.68 487.09,241.6 484.82,240.16C495.88,225.37 495.39,209.25 501.38,191.8C502.58,194.11 502.76,196.69 503.8,199.04C504.16,195.21 503.66,191.54 504.71,187.77Z" style="fill:rgb(86,141,108);fill-rule:nonzero;"/>
                <path d="M545.16,187.94C548.06,190.7 548.65,196.04 549.83,199.78C549.38,201.51 548.97,203.25 548.51,204.99C546.53,201.26 546.89,196.77 545.27,192.82C545.17,191.19 545.11,189.57 545.16,187.94Z" style="fill:rgb(81,114,94);fill-rule:nonzero;"/>
                <path d="M579.01,193.39C572.55,203.23 574.84,216.01 569.79,226.83C568.04,231.96 568.24,237.34 566.04,242.28C563.35,238.31 561.66,233.91 559.21,229.81C556.53,223.84 555.7,217.6 554.63,211.21C555.04,207.8 554.38,205.08 557.68,203.03C557.89,209.31 560.1,214.54 563.3,219.82C570.91,221.81 569.67,210.33 568.99,205.98C568.48,201.99 573.36,199.02 574.32,195.12C574.97,193.69 574.37,191.81 574.41,190.25C576.34,186.83 577.45,192.18 579.01,193.39Z" style="fill:rgb(243,228,215);fill-rule:nonzero;"/>
                <path d="M545.27,192.82C546.89,196.77 546.53,201.26 548.51,204.99C548.97,203.25 549.38,201.51 549.83,199.78C550.24,201.42 550.63,203.06 550.9,204.73C548.82,207.28 551.07,211.33 547.81,212.03C544.03,213.41 548.01,218.3 547.88,221.03C546.93,226.51 547.86,231.27 544.5,235.98C545.57,240.46 543.9,242.3 541.91,246.02L541.06,246.02C541.09,244.38 541.26,242.75 541.44,241.11C543.22,233.73 526.86,238.9 524.53,235.42C528.44,224.59 535.85,216.02 540.18,205.29C541.97,201.15 543.96,197.16 545.27,192.82Z" style="fill:rgb(91,155,120);fill-rule:nonzero;"/>
                <path d="M485.17,198.85C485.38,201.55 488.94,210.38 485.17,211.25C484.94,209.6 484.68,207.95 484.42,206.3C484.96,203.59 481.08,201.27 479.94,198.96C481.82,196.05 483.86,194.29 485.17,198.85Z" style="fill:rgb(162,134,111);fill-rule:nonzero;"/>
                <path d="M553.21,201.91C554.52,203.29 554.38,204.41 553.76,206.1C552.5,204.7 552.61,203.6 553.21,201.91Z" style="fill:rgb(137,131,121);fill-rule:nonzero;"/>
                <path d="M537.95,203.87C538.69,204.35 539.44,204.82 540.18,205.29C535.85,216.02 528.44,224.59 524.53,235.42C524.61,234.6 524.69,233.77 524.78,232.95C525.94,226.09 523.94,225.68 517.86,224.59C525.21,224.99 526.79,219.43 529.36,213.81C532.8,210.89 535.89,207.97 537.95,203.87Z" style="fill:rgb(62,82,76);fill-rule:nonzero;"/>
                <path d="M550.9,204.73C551.25,206.39 551.6,208.04 551.82,209.72C548.88,216.81 555.52,222.36 552.48,228.71C553.55,233.79 554.57,237.76 555.14,242.85C553.21,246.13 548.78,250.12 550.7,254.23C549.76,255.62 548.72,256.91 547.7,258.23C545.75,253.55 547.43,252.16 542.07,248.98C542.01,247.99 541.96,247 541.91,246.02C543.9,242.3 545.57,240.46 544.5,235.98C547.86,231.27 546.93,226.51 547.88,221.03C548.01,218.3 544.03,213.41 547.81,212.03C551.07,211.33 548.82,207.28 550.9,204.73Z" style="fill:rgb(102,177,137);fill-rule:nonzero;"/>
                <path d="M551.82,209.72C553.58,216.22 554.21,222.81 556.9,229.06C557.85,232.65 560.98,236.2 560.96,239.87C557.65,244.72 553.95,249.31 550.7,254.23C548.78,250.12 553.21,246.13 555.14,242.85C554.57,237.76 553.55,233.79 552.48,228.71C555.52,222.36 548.88,216.81 551.82,209.72Z" style="fill:rgb(125,185,152);fill-rule:nonzero;"/>
                <path d="M509.18,223.48C505.25,226.05 506.07,229.11 505.57,233.24C504.88,229.92 503.57,222.53 509.18,223.48Z" style="fill:rgb(55,81,71);fill-rule:nonzero;"/>
                <path d="M516.02,224.44C514.33,224.35 512.67,224.02 511.02,223.62C512.09,223.02 517.8,221.57 516.02,224.44Z" style="fill:rgb(35,63,48);fill-rule:nonzero;"/>
                <path d="M509.18,223.48L511.02,223.62C512.67,224.02 514.33,224.35 516.02,224.44C516.63,224.49 517.25,224.54 517.86,224.59C523.94,225.68 525.94,226.09 524.78,232.95L523.13,233.41C519.56,233.3 519.36,231.53 517.12,229.48C515.17,228.93 513.18,228.86 511.17,229.14C511.22,230.31 510.21,235.91 511.76,235.74C514.82,236.09 517.83,235.98 520.9,236.07C527.07,243.39 537.13,234.35 541.44,241.11C541.26,242.75 541.09,244.38 541.06,246.02C541.02,249.43 541.27,252.2 539.2,255.11L538.45,255.45C535.64,255.2 531.23,254.11 528.85,256.04C527.31,256.96 527.15,261.86 529.13,262.58C531.49,263.92 530.84,265.79 531.18,268.09C527.54,267.35 520.81,270.03 520.2,264.83L520.22,264.01C524.71,262.71 522.67,256.53 522.89,253C523.36,251.17 520.93,252.99 520.15,253.01C516.12,253.01 512.1,253.04 508.07,252.99C507.24,252.02 506.51,251 505.8,249.94C506.05,248.23 506.29,246.62 505.72,244.94C507.65,245.39 511.12,244.03 511,247C510.66,250.17 516.04,248.79 517.96,248.9C519.52,250.34 519.5,239.6 517.96,241.16C514.35,240.91 510.93,241.27 507.45,240.02C506.56,237.82 505.97,235.57 505.57,233.24C506.07,229.11 505.25,226.05 509.18,223.48Z" style="fill:rgb(228,235,241);fill-rule:nonzero;"/>
                <path d="M511.17,229.14C513.18,228.86 515.17,228.93 517.12,229.48C509.73,231.86 519.16,229.1 517.46,233.83C519.38,234.18 521.27,233.95 523.13,233.41L524.78,232.95C524.69,233.77 524.61,234.6 524.53,235.42C526.86,238.9 543.22,233.73 541.44,241.11C537.13,234.35 527.07,243.39 520.9,236.07C519.58,235 512.37,233.52 511.76,235.74C510.21,235.91 511.22,230.31 511.17,229.14Z" style="fill:rgb(101,123,117);fill-rule:nonzero;"/>
                <path d="M556.9,229.06C557.67,229.31 558.44,229.56 559.21,229.81C561.66,233.91 563.35,238.31 566.04,242.28C565.91,243.59 565.74,244.89 565.53,246.19C564.84,245.27 564.17,244.32 563.48,243.4C558.58,250.58 555.63,258.74 551.16,266.13C549.27,264.59 547.58,262.97 546.11,261.02C546.64,260.09 547.17,259.17 547.7,258.23C548.72,256.91 549.76,255.62 550.7,254.23C553.95,249.31 557.65,244.72 560.96,239.87C560.98,236.2 557.85,232.65 556.9,229.06Z" style="fill:rgb(89,111,103);fill-rule:nonzero;"/>
                <path d="M517.12,229.48C519.36,231.53 519.56,233.3 523.13,233.41C521.27,233.95 519.38,234.18 517.46,233.83C519.16,229.1 509.73,231.86 517.12,229.48Z" style="fill:rgb(57,69,70);fill-rule:nonzero;"/>
                <path d="M520.9,236.07C517.83,235.98 514.82,236.09 511.76,235.74C512.37,233.52 519.58,235 520.9,236.07Z" style="fill:rgb(51,63,65);fill-rule:nonzero;"/>
                <path d="M484.82,240.16C487.09,241.6 486.9,241.68 489.19,240.27C492.11,242.69 494.91,245.38 497.45,248.2C500.74,248.59 502.77,246.74 503.7,251.02C497.44,264.55 488.88,278.31 486.21,293.13C485.89,287.11 485.92,281.06 486.15,275.04C487.72,273.21 487.72,271.8 486.16,269.96C486.65,261.54 484.07,254.04 481.66,246.14C482.59,244.09 483.63,242.07 484.82,240.16Z" style="fill:rgb(76,123,95);fill-rule:nonzero;"/>
                <path d="M507.45,240.02C510.93,241.27 514.35,240.91 517.96,241.16C518,243.74 518,246.32 517.96,248.9C516.04,248.79 510.66,250.17 511,247C511.12,244.03 507.65,245.39 505.72,244.94L504.99,244.9C506.81,243.57 509.75,244.1 511.92,243.83C510.06,242.65 508.05,242.4 507.45,240.02Z" style="fill:rgb(59,78,74);fill-rule:nonzero;"/>
                <path d="M517.96,241.16C519.5,239.6 519.52,250.34 517.96,248.9C518,246.32 518,243.74 517.96,241.16Z" style="fill:rgb(148,155,165);fill-rule:nonzero;"/>
                <path d="M535.82,243.17C536.14,245.69 536.14,248.3 535.82,250.83C534.66,250.8 528.98,251.79 529.26,250.12C530.25,247.35 529.09,244.9 532.99,244.94C538.35,243.74 530.33,244.04 529.09,244.01C528.79,242.18 534.59,243.19 535.82,243.17Z" style="fill:rgb(126,139,140);fill-rule:nonzero;"/>
                <path d="M563.48,243.4C564.17,244.32 564.84,245.27 565.53,246.19C562.98,253.23 561.29,260.45 559.66,267.75C558.33,274.71 559.11,282.2 559.22,289.25C559.33,297.22 561.89,304.28 563.55,311.95C561.74,314.82 560.24,317.52 557.23,319.33C556.38,318.87 551.56,319.64 554.14,318C557.55,315.86 552.96,310.15 557.72,309.56C556.94,308.75 553.67,308.12 554.91,306.77C557,303.97 552.49,305.37 550.95,304.64C553.57,303.79 556.24,303.24 558.89,302.52C555.08,301.93 554.44,299.9 552.67,296.92C553.17,295.97 553.69,295.02 554.21,294.08C556.79,290.03 558.64,285.88 557.83,280.95C556.16,284.54 554.9,288.31 553.34,291.94C552.89,292.77 552.43,293.59 551.95,294.39C547.51,292.91 551.68,287.02 552.4,284.22C550.26,279.98 550.93,276.82 545.82,274.88C547.51,271.9 549.33,269.02 551.16,266.13C555.63,258.74 558.58,250.58 563.48,243.4Z" style="fill:rgb(120,174,145);fill-rule:nonzero;"/>
                <path d="M529.09,244.01C530.33,244.04 538.35,243.74 532.99,244.94C529.09,244.9 530.25,247.35 529.26,250.12C529.05,248.07 528.91,246.07 529.09,244.01Z" style="fill:rgb(22,34,35);fill-rule:nonzero;"/>
                <path d="M504.99,244.9C504.52,246.66 504.63,248.49 505.8,249.94C506.51,251 507.24,252.02 508.07,252.99C510.76,255.08 516.41,253.67 519.77,253.88C518.39,256.47 510.71,253.59 509.02,256C502.68,268.2 495.81,280.26 489.42,292.36C487.57,295.77 492.98,290.1 492.67,293.81C489,296.34 486.44,298.1 483.79,301.87C484.25,300.26 484.69,298.65 485.14,297.05C486.32,295.8 486.4,294.77 486.21,293.13C488.88,278.31 497.44,264.55 503.7,251.02C504.06,249.03 503.78,246.55 504.99,244.9Z" style="fill:rgb(48,64,59);fill-rule:nonzero;"/>
                <path d="M504.99,244.9L505.72,244.94C506.29,246.62 506.05,248.23 505.8,249.94C504.63,248.49 504.52,246.66 504.99,244.9Z" style="fill:rgb(134,159,154);fill-rule:nonzero;"/>
                <path d="M541.06,246.02L541.91,246.02C541.96,247 542.01,247.99 542.07,248.98C541.77,252.02 542.89,254.15 539.2,255.11C541.27,252.2 541.02,249.43 541.06,246.02Z" style="fill:rgb(47,77,63);fill-rule:nonzero;"/>
                <path d="M542.07,248.98C547.43,252.16 545.75,253.55 547.7,258.23C547.17,259.17 546.64,260.09 546.11,261.02C540.06,269.41 535.68,278.78 529.77,287.22C526.32,284.31 529.67,281.25 529.54,277.36C529.95,274.66 531.03,275.58 533.12,275.33C530.48,270.5 526.68,271.36 521.96,270.43C524.98,269.82 528.46,270.43 531.28,269.21C534.09,263.72 529.21,262.14 530.13,257.25C532.43,256.71 536.06,257.68 537.8,255.95L538.45,255.45L539.2,255.11C542.89,254.15 541.77,252.02 542.07,248.98Z" style="fill:rgb(92,150,119);fill-rule:nonzero;"/>
                <path d="M522.89,253C522.67,256.53 524.71,262.71 520.22,264.01C518.03,261.46 519.63,268.65 518.51,269.59C511.85,280.1 505.04,290.33 496.37,299.32C493.89,304.5 488.38,307.94 483.9,311.34C484.82,314.31 481.55,317.83 479.98,320.12C480.6,314.24 481.64,307.37 483.79,301.87C486.44,298.1 489,296.34 492.67,293.81C492.98,290.1 487.57,295.77 489.42,292.36C495.81,280.26 502.68,268.2 509.02,256C510.71,253.59 518.39,256.47 519.77,253.88L520.15,253.01C520.93,252.99 523.36,251.17 522.89,253Z" style="fill:rgb(81,132,104);fill-rule:nonzero;"/>
                <path d="M508.07,252.99C512.1,253.04 516.12,253.01 520.15,253.01L519.77,253.88C516.41,253.67 510.76,255.08 508.07,252.99Z" style="fill:rgb(172,188,190);fill-rule:nonzero;"/>
                <path d="M538.45,255.45L537.8,255.95C534.82,256.04 531.83,255.98 528.85,256.04C531.23,254.11 535.64,255.2 538.45,255.45Z" style="fill:rgb(172,188,188);fill-rule:nonzero;"/>
                <path d="M528.85,256.04C529.14,258.21 529.15,260.39 529.13,262.58C527.15,261.86 527.31,256.96 528.85,256.04Z" style="fill:rgb(165,180,181);fill-rule:nonzero;"/>
                <path d="M528.85,256.04C531.83,255.98 534.82,256.04 537.8,255.95C536.06,257.68 532.43,256.71 530.13,257.25C529.21,262.14 534.09,263.72 531.28,269.21L531.18,268.09C530.84,265.79 531.49,263.92 529.13,262.58C529.15,260.39 529.14,258.21 528.85,256.04Z" style="fill:rgb(34,61,50);fill-rule:nonzero;"/>
                <path d="M546.11,261.02C547.58,262.97 549.27,264.59 551.16,266.13C549.33,269.02 547.51,271.9 545.82,274.88C535.22,290.15 529.97,308.24 518.82,323.04L518.19,322.88C514.23,320.45 509.99,320.49 505.73,319.07L506.32,318.56C515.67,309.72 523.15,298.22 529.77,287.22C535.68,278.78 540.06,269.41 546.11,261.02Z" style="fill:rgb(60,76,75);fill-rule:nonzero;"/>
                <path d="M520.22,264.01L520.2,264.83C517.99,271.89 527.3,267.94 531.28,269.21C528.46,270.43 524.98,269.82 521.96,270.43C515.03,277.74 509.26,291 502.41,299.4C499.18,303.85 494.88,307.42 491.46,311.75L492.92,312.28C490.7,313.29 484.04,316.58 489.92,317.7C485.14,317.46 484.64,320.74 481.26,323.12C479.4,325.11 480.26,322.03 479.73,320.94L479.98,320.12C481.55,317.83 484.82,314.31 483.9,311.34C488.38,307.94 493.89,304.5 496.37,299.32C505.04,290.33 511.85,280.1 518.51,269.59C519.63,268.65 518.03,261.46 520.22,264.01Z" style="fill:rgb(45,72,59);fill-rule:nonzero;"/>
                <path d="M520.2,264.83C520.81,270.03 527.54,267.35 531.18,268.09L531.28,269.21C527.3,267.94 517.99,271.89 520.2,264.83Z" style="fill:rgb(152,174,168);fill-rule:nonzero;"/>
                <path d="M559.66,267.75C559.91,274.75 560.78,282.39 559.22,289.25C559.11,282.2 558.33,274.71 559.66,267.75Z" style="fill:rgb(199,217,208);fill-rule:nonzero;"/>
                <path d="M486.16,269.96C487.72,271.8 487.72,273.21 486.15,275.04C485.72,273.18 485.72,271.81 486.16,269.96Z" style="fill:rgb(169,191,181);fill-rule:nonzero;"/>
                <path d="M521.96,270.43C526.68,271.36 530.48,270.5 533.12,275.33C531.03,275.58 529.95,274.66 529.54,277.36C529.67,281.25 526.32,284.31 529.77,287.22C523.15,298.22 515.67,309.72 506.32,318.56C501.81,316.6 497.56,313.92 492.92,312.28L491.46,311.75C494.88,307.42 499.18,303.85 502.41,299.4C509.26,291 515.03,277.74 521.96,270.43Z" style="fill:rgb(79,139,107);fill-rule:nonzero;"/>
                <path d="M545.82,274.88C550.93,276.82 550.26,279.98 552.4,284.22C551.68,287.02 547.51,292.91 551.95,294.39C545.34,304.91 536.04,314.15 530.81,325.43C529.1,327.2 528.31,328.53 525.52,327.82C526.14,323.84 521.49,324.09 518.82,323.04C529.97,308.24 535.22,290.15 545.82,274.88Z" style="fill:rgb(87,151,117);fill-rule:nonzero;"/>
                <path d="M557.83,280.95C558.64,285.88 556.79,290.03 554.21,294.08C553.92,293.37 553.63,292.65 553.34,291.94C554.9,288.31 556.16,284.54 557.83,280.95Z" style="fill:rgb(94,134,112);fill-rule:nonzero;"/>
                <path d="M553.34,291.94C553.63,292.65 553.92,293.37 554.21,294.08C553.69,295.02 553.17,295.97 552.67,296.92C548.68,304.05 543.91,310.78 538.76,317.12C536.31,319.46 534.3,324.92 530.81,325.43C536.04,314.15 545.34,304.91 551.95,294.39C552.43,293.59 552.89,292.77 553.34,291.94Z" style="fill:rgb(48,93,69);fill-rule:nonzero;"/>
                <path d="M486.21,293.13C486.4,294.77 486.32,295.8 485.14,297.05C484.64,295.41 484.33,293.93 486.21,293.13Z" style="fill:rgb(160,166,163);fill-rule:nonzero;"/>
                <path d="M552.67,296.92C554.44,299.9 555.08,301.93 558.89,302.52C556.24,303.24 553.57,303.79 550.95,304.64C552.49,305.37 557,303.97 554.91,306.77C553.67,308.12 556.94,308.75 557.72,309.56C552.96,310.15 557.55,315.86 554.14,318C551.56,319.64 556.38,318.87 557.23,319.33C555.53,322.09 553.84,324.74 551.14,326.65C550,324.77 551.48,324.66 552.48,323.36C547.01,320.49 545.84,316.53 538.76,317.12C543.91,310.78 548.68,304.05 552.67,296.92Z" style="fill:rgb(91,156,121);fill-rule:nonzero;"/>
                <path d="M492.92,312.28C497.56,313.92 501.81,316.6 506.32,318.56L505.73,319.07C503.26,320.63 501.49,322.01 498.4,321.66C498.15,322.73 498.98,323.77 497.37,323.64C494.32,323.59 491.67,326.1 489.66,328.13C486.02,332.03 483.16,336.64 479.86,340.84C475.32,346.3 475.3,354.74 475.92,361.35C474.05,362.17 472.53,363.32 470.45,363.14C472.24,355.03 472.86,346.65 475.65,338.84C476.48,332.61 477.25,326.78 479.73,320.94C480.26,322.03 479.4,325.11 481.26,323.12C484.64,320.74 485.14,317.46 489.92,317.7C484.04,316.58 490.7,313.29 492.92,312.28Z" style="fill:rgb(80,118,98);fill-rule:nonzero;"/>
                <path d="M563.55,311.95C564.04,314.53 564.58,317.1 565.23,319.66C563.2,322.13 561.68,324.97 560.32,327.87C562.14,329.1 564.16,330.06 566.19,330.91C565.5,331.84 564.81,332.76 564.17,333.72C563.72,334.39 563.28,335.07 562.85,335.76L562.09,335.97C561.52,332.44 561.06,329.33 556.72,331.72C552.3,335.18 556.93,341.25 561.62,338.07C561.77,339.6 561.64,340.83 561.2,342.31C555.04,336.72 549.23,350.9 548.07,355.2C546.54,355.71 546.97,352.64 544.13,352.81L543.96,352.26C548.29,350.16 550.34,348.72 547.41,344C547.54,343.47 547.68,342.94 547.83,342.42C549.43,342.6 550.86,343.17 552.37,342.4C557.45,341.58 553.01,332.94 549.33,335.3C547.15,335.98 546.49,337.16 545.61,339.15C543.78,339.51 541.94,339.71 540.1,340.02C543.65,335.38 548.15,331.79 551.14,326.65C553.84,324.74 555.53,322.09 557.23,319.33C560.24,317.52 561.74,314.82 563.55,311.95Z" style="fill:rgb(79,89,89);fill-rule:nonzero;"/>
                <path d="M538.76,317.12C545.84,316.53 547.01,320.49 552.48,323.36C551.48,324.66 550,324.77 551.14,326.65C548.15,331.79 543.65,335.38 540.1,340.02C538.45,342.19 536.4,343.82 534.2,345.4C529.83,344.83 534.65,343.61 535.8,342.34C529.11,342.04 539.34,337.71 539.97,335.14C538,335.81 536.12,336.65 534.04,336.99C534.64,335.6 540.38,332.52 535.88,333.42C534.95,333.55 535.33,329.84 534.88,329.08C532.23,331.88 531.08,335.35 529.01,338.5C526.45,336.68 524.61,338.1 521.87,338.62C524.14,335.5 527.71,332.73 529.04,329.09C526.07,330.84 524.35,333.47 522.01,335.87C518.89,334.16 515.68,332.39 512.97,330.06C514.64,327.62 516.5,325.32 518.19,322.88L518.82,323.04C521.49,324.09 526.14,323.84 525.52,327.82C528.31,328.53 529.1,327.2 530.81,325.43C534.3,324.92 536.31,319.46 538.76,317.12Z" style="fill:rgb(70,122,95);fill-rule:nonzero;"/>
                <path d="M505.73,319.07C509.99,320.49 514.23,320.45 518.19,322.88C516.5,325.32 514.64,327.62 512.97,330.06C515.68,332.39 518.89,334.16 522.01,335.87C524.35,333.47 526.07,330.84 529.04,329.09C527.71,332.73 524.14,335.5 521.87,338.62C524.61,338.1 526.45,336.68 529.01,338.5C531.08,335.35 532.23,331.88 534.88,329.08C535.33,329.84 534.95,333.55 535.88,333.42C540.38,332.52 534.64,335.6 534.04,336.99C536.12,336.65 538,335.81 539.97,335.14C539.34,337.71 529.11,342.04 535.8,342.34C534.65,343.61 529.83,344.83 534.2,345.4C533.41,346.71 532.61,347.95 531.4,348.9C529.25,344.57 531.1,338.05 524.16,341.72L522.84,341.29C519.57,340.2 520.02,343.13 518.86,345.17C517.16,343.96 512.97,343.59 513.67,340.89C514.01,338.41 510.12,337.17 509.02,335.03C511.21,335.61 513.1,336.73 515.11,337.71C515,334.53 511.94,332.31 509.74,330.33C506.32,331.54 505.57,335 501.29,335.95C500.55,328.55 494.47,330.82 489.66,328.13C491.67,326.1 494.32,323.59 497.37,323.64C498.98,323.77 498.15,322.73 498.4,321.66C501.49,322.01 503.26,320.63 505.73,319.07Z" style="fill:rgb(48,70,62);fill-rule:nonzero;"/>
                <path d="M565.23,319.66C566.35,323.5 566.77,326.94 566.19,330.91C564.16,330.06 562.14,329.1 560.32,327.87C561.68,324.97 563.2,322.13 565.23,319.66Z" style="fill:rgb(135,157,150);fill-rule:nonzero;"/>
                <path d="M489.66,328.13C494.47,330.82 500.55,328.55 501.29,335.95C500.84,336.52 500.39,337.09 499.93,337.67C497.93,339.57 496.06,341.78 493.8,343.38C490.95,343.58 486.2,341.55 484.85,345C485.55,348.58 493.55,346.5 488.12,345.27C487.52,342.85 492.55,345.09 493.73,345.1C489.08,348.87 484.43,353.93 480.85,358.74C479.61,360.09 481.26,359.99 482.1,360.83C480.03,360.93 477.97,361.1 475.92,361.35C475.3,354.74 475.32,346.3 479.86,340.84C483.16,336.64 486.02,332.03 489.66,328.13Z" style="fill:rgb(67,78,81);fill-rule:nonzero;"/>
                <path d="M509.74,330.33C511.94,332.31 515,334.53 515.11,337.71C513.1,336.73 511.21,335.61 509.02,335.03C510.12,337.17 514.01,338.41 513.67,340.89C512.97,343.59 517.16,343.96 518.86,345.17C517.78,354.89 514.1,363.71 511.75,373.06C507.61,368.35 502.62,365.93 496.79,363.91C498.53,361.67 507.74,359.47 501.49,357.41C505.28,353.08 509.68,356.72 510.93,350.88C512.25,346.28 505.92,344.79 505.35,340.78C505.23,338.51 501.57,338.27 499.93,337.67C500.39,337.09 500.84,336.52 501.29,335.95C505.57,335 506.32,331.54 509.74,330.33Z" style="fill:rgb(79,123,99);fill-rule:nonzero;"/>
                <path d="M562.09,335.97C561.93,336.67 561.77,337.37 561.62,338.07C556.93,341.25 552.3,335.18 556.72,331.72C561.06,329.33 561.52,332.44 562.09,335.97Z" style="fill:rgb(227,224,230);fill-rule:nonzero;"/>
                <path d="M566.19,330.91C568.88,344.54 569.05,359.16 568.99,373.06C566.33,374.23 563.83,374.92 560.9,374.96C561.72,374.56 562.54,374.12 563.33,373.66C563.11,368.59 563.02,363.53 562.21,358.51C562.94,358.05 563.31,357.46 563.32,356.73C566.3,352.26 566.3,351.91 564.31,346.92C566.35,342.47 567.19,338.13 564.17,333.72C564.81,332.76 565.5,331.84 566.19,330.91Z" style="fill:rgb(136,168,152);fill-rule:nonzero;"/>
                <path d="M564.17,333.72C567.19,338.13 566.35,342.47 564.31,346.92C566.3,351.91 566.3,352.26 563.32,356.73C557.54,358.61 553.32,358.3 548.07,355.2C549.23,350.9 555.04,336.72 561.2,342.31C564.44,347.07 562.4,337.33 562.85,335.76C563.28,335.07 563.72,334.39 564.17,333.72Z" style="fill:rgb(232,236,239);fill-rule:nonzero;"/>
                <path d="M549.33,335.3C553.01,332.94 557.45,341.58 552.37,342.4C550.86,343.17 549.43,342.6 547.83,342.42C547.06,341.35 546.33,340.25 545.61,339.15C546.49,337.16 547.15,335.98 549.33,335.3Z" style="fill:rgb(225,227,231);fill-rule:nonzero;"/>
                <path d="M562.09,335.97L562.85,335.76C562.4,337.33 564.44,347.07 561.2,342.31C561.64,340.83 561.77,339.6 561.62,338.07C561.77,337.37 561.93,336.67 562.09,335.97Z" style="fill:rgb(166,164,167);fill-rule:nonzero;"/>
                <path d="M499.93,337.67C501.57,338.27 505.23,338.51 505.35,340.78C505.92,344.79 512.25,346.28 510.93,350.88C509.68,356.72 505.28,353.08 501.49,357.41C507.74,359.47 498.53,361.67 496.79,363.91C491.93,362.7 487.06,361.56 482.1,360.83C481.26,359.99 479.61,360.09 480.85,358.74C484.43,353.93 489.08,348.87 493.73,345.1C492.55,345.09 487.52,342.85 488.12,345.27C493.55,346.5 485.55,348.58 484.85,345C486.2,341.55 490.95,343.58 493.8,343.38C496.06,341.78 497.93,339.57 499.93,337.67Z" style="fill:rgb(91,148,119);fill-rule:nonzero;"/>
                <path d="M545.61,339.15C546.33,340.25 547.06,341.35 547.83,342.42C547.68,342.94 547.54,343.47 547.41,344C542.73,334.95 535.59,352.3 543.96,352.26L544.13,352.81C540.98,352.99 539.59,353.31 537.69,355.9C536.09,357.84 534.76,359.96 533.14,361.89C531.93,358.58 532.2,355.26 530.61,352.13C529.78,353.54 530.07,355.02 528.03,355.01C525.11,354.43 527.07,349.79 524.12,348.69C524.03,346.36 524.06,344.04 524.16,341.72C531.1,338.05 529.25,344.57 531.4,348.9C532.61,347.95 533.41,346.71 534.2,345.4C536.4,343.82 538.45,342.19 540.1,340.02C541.94,339.71 543.78,339.51 545.61,339.15Z" style="fill:rgb(37,49,45);fill-rule:nonzero;"/>
                <path d="M522.84,341.29L524.16,341.72C524.06,344.04 524.03,346.36 524.12,348.69C524.02,350.18 523.91,351.67 523.8,353.16C522.51,349.16 523.15,345.52 522.84,341.29Z" style="fill:rgb(198,207,204);fill-rule:nonzero;"/>
                <path d="M547.41,344C550.34,348.72 548.29,350.16 543.96,352.26C535.59,352.3 542.73,334.95 547.41,344Z" style="fill:rgb(213,213,224);fill-rule:nonzero;"/>
                <path d="M524.12,348.69C527.07,349.79 525.11,354.43 528.03,355.01C530.07,355.02 529.78,353.54 530.61,352.13C532.2,355.26 531.93,358.58 533.14,361.89C534.76,359.96 536.09,357.84 537.69,355.9C538.59,361.65 544.01,368.36 543.52,374.76C540.92,375.03 538.32,375.13 535.76,375.69C533.41,375.55 531.09,375.25 528.73,375.2C532.35,373.16 529.05,368.2 529.33,364.64C528.58,362.31 527.36,358.74 524.86,357.86C525.39,355.95 525.82,354.32 523.8,353.16C523.91,351.67 524.02,350.18 524.12,348.69Z" style="fill:rgb(56,85,67);fill-rule:nonzero;"/>
                <path d="M523.8,353.16C525.82,354.32 525.39,355.95 524.86,357.86C523.53,356.46 523.65,354.95 523.8,353.16Z" style="fill:rgb(150,162,158);fill-rule:nonzero;"/>
                <path d="M544.13,352.81C546.97,352.64 546.54,355.71 548.07,355.2C553.32,358.3 557.54,358.61 563.32,356.73C563.31,357.46 562.94,358.05 562.21,358.51C558.93,358.93 555.65,358.96 552.36,359.15C553.07,362.8 554.52,365.16 552.97,368.82C554.42,372.26 551.3,370.47 549.12,371.31C548.63,374.71 550.87,373.79 553.19,374.77C550.36,374.81 547.58,375.03 544.88,375.92C541.83,376.1 538.8,376 535.76,375.69C538.32,375.13 540.92,375.03 543.52,374.76C544.01,368.36 538.59,361.65 537.69,355.9C539.59,353.31 540.98,352.99 544.13,352.81Z" style="fill:rgb(75,121,95);fill-rule:nonzero;"/>
                <path d="M524.86,357.86C527.36,358.74 528.58,362.31 529.33,364.64C529.05,368.2 532.35,373.16 528.73,375.2C527.44,369.44 525.63,363.72 524.86,357.86Z" style="fill:rgb(94,115,105);fill-rule:nonzero;"/>
                <path d="M562.21,358.51C563.02,363.53 563.11,368.59 563.33,373.66C562.54,374.12 561.72,374.56 560.9,374.96C559.33,375.08 557.77,375.19 556.21,375.34C555.2,375.16 554.2,374.97 553.19,374.77C550.87,373.79 548.63,374.71 549.12,371.31C551.3,370.47 554.42,372.26 552.97,368.82C554.52,365.16 553.07,362.8 552.36,359.15C555.65,358.96 558.93,358.93 562.21,358.51Z" style="fill:rgb(90,149,119);fill-rule:nonzero;"/>
                <path d="M475.92,361.35C477.97,361.1 480.03,360.93 482.1,360.83C487.06,361.56 491.93,362.7 496.79,363.91C502.62,365.93 507.61,368.35 511.75,373.06C510.8,376.7 508.81,380.06 507.53,383.6C500.25,398.69 498.39,415.45 492.35,431.14C491.87,425.53 485.81,421.02 491.72,416.63C492.1,412.57 496.83,407.21 492.52,404.58C491.98,401.73 494.87,398.98 490.33,399.5C488.41,391.95 488.51,384.96 484.11,377.87C480.01,373.73 479.57,367.03 472.28,367.41C470.49,366.87 470.96,372.01 470.21,373.21C470.04,369.8 469.76,366.53 470.45,363.14C472.53,363.32 474.05,362.17 475.92,361.35Z" style="fill:rgb(226,202,186);fill-rule:nonzero;"/>
                <path d="M472.28,367.41C479.57,367.03 480.01,373.73 484.11,377.87C488.51,384.96 488.41,391.95 490.33,399.5C494.87,398.98 491.98,401.73 492.52,404.58C496.83,407.21 492.1,412.57 491.72,416.63C485.81,421.02 491.87,425.53 492.35,431.14C488.99,439.41 493.37,446.19 491.84,454.97C490.31,464.49 487.54,473.99 485.32,483.38C482.15,483.98 478.96,484.11 475.75,484.06C475.45,480.69 478.66,480.12 481.33,480.73C481.65,474.24 487.55,469.98 480.31,465.26C475.97,470.2 480.42,471.62 479.99,476.88C475.66,475.99 477.46,472.48 476.62,469.13C475.74,466 478.67,464.84 479.72,462.1C475.9,453.42 476.04,440.26 483.42,433.43C485.08,431.24 488.88,433 487.74,429.19C484.87,423.46 484.32,416.82 480.57,411.75C477.57,411.29 475.6,413.48 475.99,408.97C475.4,404.34 477.3,407.52 479.8,407.91C479.98,403.14 481.49,395.24 475.88,392.94C473.59,390.24 476.31,383.1 472.38,381.04C471.76,385.18 470.8,389.27 469.84,393.34C468.33,387.18 468.56,379.35 470.21,373.21C470.96,372.01 470.49,366.87 472.28,367.41Z" style="fill:rgb(218,190,170);fill-rule:nonzero;"/>
                <path d="M568.99,373.06C569.53,384.96 567.53,396.45 565.15,408.03C563.76,425.39 570.36,441.89 568.88,459.01C567.67,467.43 567.64,477.07 566.37,485.37C565.96,488.25 554,489.19 562.09,491.76L559.93,492C555.51,492.31 551.47,491.12 547.17,490.4C546.92,492.67 546.81,494.95 546.64,497.22C546,493.5 545.51,489.65 545.71,485.87C548.1,487.07 550.51,487.02 553.11,486.99C555.12,487.01 557.14,487 559.15,486.96C563.21,488.24 560.82,481.94 561.54,479.67C562.34,475.53 563.35,471.33 564.19,467.17C566.28,461.91 562.21,455.54 562.31,450.18C564.07,443.99 562.74,437.53 564.26,431.23C562.09,423.15 558.06,412.17 563.45,404.55C565.09,400.99 562.78,395.91 563.03,392.01C562.59,388.74 564.22,385.17 560.59,383.46C556.85,381.76 554.9,378.73 552,376.05C553.41,375.85 554.81,375.6 556.21,375.34C557.77,375.19 559.33,375.08 560.9,374.96C563.83,374.92 566.33,374.23 568.99,373.06Z" style="fill:rgb(224,206,196);fill-rule:nonzero;"/>
                <path d="M528.73,375.2C531.09,375.25 533.41,375.55 535.76,375.69C538.8,376 541.83,376.1 544.88,375.92C542.51,385.35 544.42,394.08 544.32,403.74C547.71,407.41 546.52,411.27 551.77,413.36C550.83,419.44 552.47,422.64 555.03,428.02C557.11,430.03 561.23,435.16 556.84,436.88C554.77,438.66 553.29,436.85 551.09,436.34C552.01,441.61 551,446.75 551.86,452.05C545.78,444.13 544.66,435.32 544.21,425.59C543.46,422.24 541.24,423.67 538.86,423.92C535.05,414.84 536.57,406.17 534.43,396.62C533.5,389.16 530.09,382.51 528.73,375.2Z" style="fill:rgb(178,149,130);fill-rule:nonzero;"/>
                <path d="M553.19,374.77C554.2,374.97 555.2,375.16 556.21,375.34C554.81,375.6 553.41,375.85 552,376.05C550.44,376.04 548.88,376.02 547.33,376.07C550.3,381.58 550.23,382.24 548.03,388.01C549.9,394.12 552.92,397.71 552.19,404.67C556.17,408.05 558.75,409.2 556.34,414.97C560.81,419.45 558.21,417.58 554.78,420.87C562.42,423.47 562.3,433.5 559.68,439.73C557.55,446.71 554.15,450.33 559.35,456.91C558.69,461.21 561.35,464.24 559.16,468.08C558.41,473.88 561.4,478.11 557.3,483.37C555.01,486.05 557.27,485.5 559.15,486.96C557.14,487 555.12,487.01 553.11,486.99C546.15,484.29 553.34,482.58 556,480.18C557.62,475.39 557.78,469.29 555,465.02C552.08,462.75 552.45,466.62 554.72,466.74C552.41,469.34 554.56,479.29 551.28,478.82C551.15,472.96 549.2,467.57 546.54,462.42C541.24,459.76 546.87,470.04 544.09,472.37C537.97,456.06 546.28,438.83 538.86,423.92C541.24,423.67 543.46,422.24 544.21,425.59C544.66,435.32 545.78,444.13 551.86,452.05C551,446.75 552.01,441.61 551.09,436.34C553.29,436.85 554.77,438.66 556.84,436.88C561.23,435.16 557.11,430.03 555.03,428.02C552.47,422.64 550.83,419.44 551.77,413.36C546.52,411.27 547.71,407.41 544.32,403.74C544.42,394.08 542.51,385.35 544.88,375.92C547.58,375.03 550.36,374.81 553.19,374.77Z" style="fill:rgb(195,167,147);fill-rule:nonzero;"/>
                <path d="M547.33,376.07C548.88,376.02 550.44,376.04 552,376.05C554.9,378.73 556.85,381.76 560.59,383.46C564.22,385.17 562.59,388.74 563.03,392.01C562.78,395.91 565.09,400.99 563.45,404.55C558.06,412.17 562.09,423.15 564.26,431.23C562.74,437.53 564.07,443.99 562.31,450.18C562.21,455.54 566.28,461.91 564.19,467.17C563.35,471.33 562.34,475.53 561.54,479.67C560.82,481.94 563.21,488.24 559.15,486.96C557.27,485.5 555.01,486.05 557.3,483.37C561.4,478.11 558.41,473.88 559.16,468.08C561.35,464.24 558.69,461.21 559.35,456.91C554.15,450.33 557.55,446.71 559.68,439.73C562.3,433.5 562.42,423.47 554.78,420.87C558.21,417.58 560.81,419.45 556.34,414.97C558.75,409.2 556.17,408.05 552.19,404.67C552.92,397.71 549.9,394.12 548.03,388.01C550.23,382.24 550.3,381.58 547.33,376.07Z" style="fill:rgb(216,185,167);fill-rule:nonzero;"/>
                <path d="M472.38,381.04C476.31,383.1 473.59,390.24 475.88,392.94C481.49,395.24 479.98,403.14 479.8,407.91C477.3,407.52 475.4,404.34 475.99,408.97C475.6,413.48 477.57,411.29 480.57,411.75C484.32,416.82 484.87,423.46 487.74,429.19C488.88,433 485.08,431.24 483.42,433.43C476.04,440.26 475.9,453.42 479.72,462.1C478.67,464.84 475.74,466 476.62,469.13C477.46,472.48 475.66,475.99 479.99,476.88C480.42,471.62 475.97,470.2 480.31,465.26C487.55,469.98 481.65,474.24 481.33,480.73C478.66,480.12 475.45,480.69 475.75,484.06C471.78,484.22 468.63,483.74 465.03,482.05C464.15,466.88 461.93,452.05 465.11,437.13C468.59,423.04 471.67,407.81 469.84,393.34C470.8,389.27 471.76,385.18 472.38,381.04Z" style="fill:rgb(201,175,156);fill-rule:nonzero;"/>
                <path d="M475.68,414.22C477.92,416.62 477.62,419.88 481.62,419.56C482.11,422.55 484.55,428.28 481.29,430.28C479.09,432.26 474.75,429.19 472.99,431.62C474.66,431.9 476.34,432.09 478.01,432.36C476.5,434.43 474.44,433.48 472.25,433.39C470.21,428.4 470.67,422.24 472.15,417.14C472.95,415.04 472.84,413.41 475.68,414.22Z" style="fill:rgb(188,154,134);fill-rule:nonzero;"/>
                <path d="M546.54,462.42C549.2,467.57 551.15,472.96 551.28,478.82C554.56,479.29 552.41,469.34 554.72,466.74C552.45,466.62 552.08,462.75 555,465.02C557.78,469.29 557.62,475.39 556,480.18C553.34,482.58 546.15,484.29 553.11,486.99C550.51,487.02 548.1,487.07 545.71,485.87C546.08,481.45 544.65,476.85 544.09,472.37C546.87,470.04 541.24,459.76 546.54,462.42Z" style="fill:rgb(176,152,135);fill-rule:nonzero;"/>
                <path d="M465.03,482.05C468.63,483.74 471.78,484.22 475.75,484.06C478.96,484.11 482.15,483.98 485.32,483.38C485.11,484.9 484.95,486.43 484.75,487.95C482.88,488 481,488.04 479.13,488.09C474.46,488.01 469.8,487.94 465.13,488.05C465.02,486.05 465.02,484.06 465.03,482.05Z" style="fill:rgb(217,218,220);fill-rule:nonzero;"/>
                <path d="M465.13,488.05C469.8,487.94 474.46,488.01 479.13,488.09C473.34,490.41 475.22,493.72 475.03,498.86C471.99,499 468.97,499.01 465.94,498.74L465.7,496.97C466.35,494.45 466.73,492.32 465.22,490L465.13,488.05Z" style="fill:rgb(68,91,89);fill-rule:nonzero;"/>
                <path d="M479.13,488.09C481,488.04 482.88,488 484.75,487.95C484.1,493.51 483.32,499.2 483.6,504.81C481.43,505.04 479.19,504.97 477.01,505.02C478.6,504.44 480.24,504.01 481.89,503.6C478.36,502.88 477.22,501.51 475.03,498.86C475.22,493.72 473.34,490.41 479.13,488.09Z" style="fill:rgb(109,134,133);fill-rule:nonzero;"/>
                <path d="M465.22,490C466.73,492.32 466.35,494.45 465.7,496.97C464.37,494.64 464.65,492.52 465.22,490Z" style="fill:rgb(148,164,160);fill-rule:nonzero;"/>
                <path d="M547.17,490.4C551.47,491.12 555.51,492.31 559.93,492C558.94,494.5 558.96,497.05 558.89,499.69C555.46,499.04 554.43,505.65 552.43,502.57C550.85,499.88 549.36,504.28 547.79,505.1C547.21,502.5 546.91,499.87 546.64,497.22C546.81,494.95 546.92,492.67 547.17,490.4Z" style="fill:rgb(57,79,76);fill-rule:nonzero;"/>
                <path d="M559.93,492L562.09,491.76L563.83,491.56C568.32,492.31 563.4,498.02 566.11,501.02C563.69,500.64 561.3,500.14 558.89,499.69C558.96,497.05 558.94,494.5 559.93,492Z" style="fill:rgb(107,131,128);fill-rule:nonzero;"/>
                <path d="M465.94,498.74C468.97,499.01 471.99,499 475.03,498.86C477.22,501.51 478.36,502.88 481.89,503.6C480.24,504.01 478.6,504.44 477.01,505.02C473.01,504.87 468.39,505.64 464.59,504.25C466.38,504.12 468.19,503.99 469.97,503.73C469.95,499.99 464.77,500.83 464.59,504.25C464.17,502.82 463.87,501.37 463.57,499.91C464.35,499.49 465.14,499.1 465.94,498.74Z" style="fill:rgb(32,38,36);fill-rule:nonzero;"/>
                <path d="M463.57,499.91C463.87,501.37 464.17,502.82 464.59,504.25C468.39,505.64 473.01,504.87 477.01,505.02C475.01,505.97 472.92,506.14 470.75,506.31C468.2,506.01 465.65,505.98 463.09,505.95C463.08,503.85 462.87,501.93 463.57,499.91Z" style="fill:rgb(186,186,187);fill-rule:nonzero;"/>
                <path d="M558.89,499.69C561.3,500.14 563.69,500.64 566.11,501.02C564.3,502.74 560.83,502.98 562.9,506.02C557.5,505.74 552.15,506.23 546.77,506.32L547.79,505.1C549.36,504.28 550.85,499.88 552.43,502.57C554.43,505.65 555.46,499.04 558.89,499.69Z" style="fill:rgb(28,35,34);fill-rule:nonzero;"/>
                <path d="M469.97,503.73C468.19,503.99 466.38,504.12 464.59,504.25C464.77,500.83 469.95,499.99 469.97,503.73Z" style="fill:rgb(157,158,153);fill-rule:nonzero;"/>
                <path d="M566.11,501.02C567.15,502.61 567.86,506.58 565.09,506.73C564.36,506.49 563.63,506.26 562.9,506.02C560.83,502.98 564.3,502.74 566.11,501.02Z" style="fill:rgb(127,129,126);fill-rule:nonzero;"/>
                <path d="M546.77,506.32C552.15,506.23 557.5,505.74 562.9,506.02C563.63,506.26 564.36,506.49 565.09,506.73C561.22,507.21 557.29,506.76 553.44,507.24C553.23,509.45 553.14,511.67 552.98,513.88C551.64,513.9 550.31,513.97 548.98,514.1C547.99,514.32 547.01,514.58 546.04,514.89C546.26,512.4 545.22,508.33 546.77,506.32Z" style="fill:rgb(195,195,197);fill-rule:nonzero;"/>
                <path d="M467.8,511.56C469.61,511.87 471.4,512.23 473.19,512.65C468.92,513.1 470.71,513.08 471.69,516.01C470.32,517.13 464.22,515.93 465.3,513.25C464.62,513.13 463.94,513.04 463.25,512.97C463.55,511.68 466.7,511.94 467.8,511.56Z" style="fill:rgb(133,144,138);fill-rule:nonzero;"/>
                <path d="M463.25,512.97C463.94,513.04 464.62,513.13 465.3,513.25C464.22,515.93 470.32,517.13 471.69,516.01C470.71,513.08 468.92,513.1 473.19,512.65L475.03,513.03C474.87,516.68 480.33,516.69 476.9,513.08L478.98,513.2L479.31,513.66L480.25,514.97C478.31,517.35 477.71,520.86 474.96,522.21C473.81,521.54 473.08,521.47 472.77,521.99C471.92,522.9 471.12,523.85 470.33,524.81L469.84,525.36C468.56,526.61 467.31,527.9 466.04,529.16C465.34,529.47 464.64,529.77 463.95,530.08C459.87,527.98 456.5,530.63 452.6,529.13C457,524.04 461.61,519.77 463.25,512.97Z" style="fill:rgb(36,46,41);fill-rule:nonzero;"/>
                <path d="M475.03,513.03L476.9,513.08C480.33,516.69 474.87,516.68 475.03,513.03Z" style="fill:rgb(169,171,170);fill-rule:nonzero;"/>
                <path d="M478.98,513.2C480.54,512.99 482.6,512.5 484.06,513.25C483.84,515.86 480.76,513.86 479.31,513.66L478.98,513.2Z" style="fill:rgb(125,135,127);fill-rule:nonzero;"/>
                <path d="M484.06,513.25C485.59,513.87 484.85,518.61 485.18,520.15L485.18,521.7C481.03,520.42 478.16,527.82 480.03,531.09C477.85,531.7 478,526.65 477.13,529.24C476.27,531.21 470.98,538.5 472,531.93C471.99,529.06 472.22,527.37 469.84,525.36L470.33,524.81C471.92,525.36 473.46,526.02 475.03,526.63C474.32,525.05 473.51,523.54 472.77,521.99C473.08,521.47 473.81,521.54 474.96,522.21C477.61,527.32 488.8,516.07 480.25,514.97L479.31,513.66C480.76,513.86 483.84,515.86 484.06,513.25Z" style="fill:rgb(187,197,192);fill-rule:nonzero;"/>
                <path d="M548.98,514.1C544.77,520.03 549.13,520.62 552.01,525.3C549.1,524.28 547.31,520.02 546.14,525.09C545.8,524.36 545.46,523.62 545.13,522.88L545.24,522.03C545.84,519.68 546.03,517.31 546.04,514.89C547.01,514.58 547.99,514.32 548.98,514.1Z" style="fill:rgb(124,141,132);fill-rule:nonzero;"/>
                <path d="M548.98,514.1C550.31,513.97 551.64,513.9 552.98,513.88C554.08,513.98 555.18,514.08 556.28,514.17C551.24,517.78 553.36,518.81 555.94,523.24C554.65,523.96 553.34,524.65 552.01,525.3C549.13,520.62 544.77,520.03 548.98,514.1Z" style="fill:rgb(60,78,67);fill-rule:nonzero;"/>
                <path d="M556.28,514.17C559.55,513.98 562.78,513.86 566.06,514.1L564.99,514.98C561.8,515.08 560.83,515.1 559.01,517.82C560.53,517.58 562.03,517.26 563.53,516.93C563.58,517.68 563.69,518.42 563.85,519.14C564.19,521.05 565.29,520.76 566.8,521.39L567.08,522.08C567.45,523.92 568.88,524.31 570.25,525.3C571.65,526.45 571.38,526.49 571.01,528.19L569.84,528.26C566.96,527.88 564.11,527.36 561.27,526.78C560.58,524.49 559.16,525.82 557.41,525.76C558.38,522.79 560.68,520.95 555.94,523.24C553.36,518.81 551.24,517.78 556.28,514.17Z" style="fill:rgb(32,38,32);fill-rule:nonzero;"/>
                <path d="M566.06,514.1C569.98,518.88 573.2,523.52 578.42,527.09C576.01,527.98 573.54,528.1 571.01,528.19C571.38,526.49 571.65,526.45 570.25,525.3C571.52,520.91 570.84,522.43 567.08,522.08L566.8,521.39C571.85,520.26 565.75,518.53 563.85,519.14C563.69,518.42 563.58,517.68 563.53,516.93C564.02,516.28 564.51,515.63 564.99,514.98L566.06,514.1Z" style="fill:rgb(68,78,70);fill-rule:nonzero;"/>
                <path d="M480.25,514.97C488.8,516.07 477.61,527.32 474.96,522.21C477.71,520.86 478.31,517.35 480.25,514.97Z" style="fill:rgb(107,132,119);fill-rule:nonzero;"/>
                <path d="M564.99,514.98C564.51,515.63 564.02,516.28 563.53,516.93C562.03,517.26 560.53,517.58 559.01,517.82C560.83,515.1 561.8,515.08 564.99,514.98Z" style="fill:rgb(148,158,149);fill-rule:nonzero;"/>
                <path d="M466.16,518.2C471.41,515.67 465.52,522.38 463.82,522.47C463.73,525.69 461.63,525.13 459.18,525.99C460.94,523.39 463.74,519.95 466.16,518.2Z" style="fill:rgb(134,145,139);fill-rule:nonzero;"/>
                <path d="M563.85,519.14C565.75,518.53 571.85,520.26 566.8,521.39C565.29,520.76 564.19,521.05 563.85,519.14Z" style="fill:rgb(148,155,146);fill-rule:nonzero;"/>
                <path d="M485.18,521.7C485.31,522.39 485.45,523.09 485.57,523.79C482.96,525.74 482.59,529.27 480.03,531.09C478.16,527.82 481.03,520.42 485.18,521.7Z" style="fill:rgb(109,123,116);fill-rule:nonzero;"/>
                <path d="M472.77,521.99C473.51,523.54 474.32,525.05 475.03,526.63C473.46,526.02 471.92,525.36 470.33,524.81C471.12,523.85 471.92,522.9 472.77,521.99Z" style="fill:rgb(96,98,97);fill-rule:nonzero;"/>
                <path d="M552.01,525.3C552.74,526.96 552.82,531.03 555.53,530.13C557.74,529 558.8,532.21 559.14,533.82C553.9,532.29 548.03,530.92 546.14,525.09C547.31,520.02 549.1,524.28 552.01,525.3Z" style="fill:rgb(67,80,74);fill-rule:nonzero;"/>
                <path d="M557.41,525.76C559.16,525.82 560.58,524.49 561.27,526.78C560.5,529.04 560.07,531.24 559.82,533.61L559.14,533.82C558.8,532.21 557.74,529 555.53,530.13C552.82,531.03 552.74,526.96 552.01,525.3C553.34,524.65 554.65,523.96 555.94,523.24C560.68,520.95 558.38,522.79 557.41,525.76Z" style="fill:rgb(137,144,140);fill-rule:nonzero;"/>
                <path d="M567.08,522.08C570.84,522.43 571.52,520.91 570.25,525.3C568.88,524.31 567.45,523.92 567.08,522.08Z" style="fill:rgb(145,152,140);fill-rule:nonzero;"/>
                <path d="M545.13,522.88C545.46,523.62 545.8,524.36 546.14,525.09C548.03,530.92 553.9,532.29 559.14,533.82L559.82,533.61C563.52,531.9 566.94,532.22 566.79,537.09C563.18,535.15 561.72,538.64 558.19,537.71C555.68,537.25 553.26,537.08 550.71,537.08L549.9,536.88C548.64,536.03 547.32,535.29 545.96,534.59C545.49,533.7 545,532.82 544.51,531.94L544.18,530.07C545.56,528.43 545.36,526.85 544.83,524.91L545.13,522.88Z" style="fill:rgb(34,38,37);fill-rule:nonzero;"/>
                <path d="M485.57,523.79C486.67,528.44 486.21,532.53 481.87,535.19C478.49,536.1 475.47,537.64 472.16,538.92C468.11,536.71 467.3,541.64 463.83,539.14C459.71,536.03 455.76,537.56 451.02,537.1C449.35,537.23 446.79,537.64 447.07,539.85C454.35,539.37 461.12,540.63 468.03,542.79C466.74,543.28 465.47,543.81 464.16,544.26C463.18,544.09 462.21,543.91 461.25,543.72C457.86,542.74 455.09,542.6 451.74,543.83C446.5,543.89 443.71,538.08 446.74,533.7C447.43,533.42 448.13,533.14 448.82,532.86C453.92,532.81 458.05,532.45 462.98,533.96C466,534.9 463.78,531.64 463.95,530.08C464.64,529.77 465.34,529.47 466.04,529.16C466.7,531.35 467.74,532.81 466.59,535.04C468.47,537.74 470.7,533.2 472,531.93C470.98,538.5 476.27,531.21 477.13,529.24C478,526.65 477.85,531.7 480.03,531.09C482.59,529.27 482.96,525.74 485.57,523.79Z" style="fill:rgb(76,84,83);fill-rule:nonzero;"/>
                <path d="M544.83,524.91C545.36,526.85 545.56,528.43 544.18,530.07C543.62,528.11 543.44,526.56 544.83,524.91Z" style="fill:rgb(112,113,114);fill-rule:nonzero;"/>
                <path d="M469.84,525.36C472.22,527.37 471.99,529.06 472,531.93C470.7,533.2 468.47,537.74 466.59,535.04C467.74,532.81 466.7,531.35 466.04,529.16C467.31,527.9 468.56,526.61 469.84,525.36Z" style="fill:rgb(100,129,114);fill-rule:nonzero;"/>
                <path d="M561.27,526.78C564.11,527.36 566.96,527.88 569.84,528.26C570.9,533.59 580.12,529.34 584.18,530.77C585.64,531.55 587.07,532.4 588.48,533.28L588.59,534.12C581.37,534.95 574.91,533.34 568.72,539.02C568.05,538.41 567.4,537.76 566.79,537.09C566.94,532.22 563.52,531.9 559.82,533.61C560.07,531.24 560.5,529.04 561.27,526.78Z" style="fill:rgb(65,79,75);fill-rule:nonzero;"/>
                <path d="M578.42,527.09C580.37,528.28 582.25,529.55 584.18,530.77C580.12,529.34 570.9,533.59 569.84,528.26L571.01,528.19C573.54,528.1 576.01,527.98 578.42,527.09Z" style="fill:rgb(110,135,123);fill-rule:nonzero;"/>
                <path d="M452.6,529.13C456.5,530.63 459.87,527.98 463.95,530.08C463.78,531.64 466,534.9 462.98,533.96C458.05,532.45 453.92,532.81 448.82,532.86C450.05,531.58 451.29,530.32 452.6,529.13Z" style="fill:rgb(98,130,112);fill-rule:nonzero;"/>
                <path d="M544.51,531.94C545,532.82 545.49,533.7 545.96,534.59C544.2,537.72 548.05,537.2 549.9,536.88L550.71,537.08C556.82,539.16 563.16,540.13 569.34,541.88C565.76,543.67 562.69,542.33 559,542.32C553.31,542.25 547.24,541.82 542.28,538.77C538.06,536.2 534.3,538.47 529,538.03C516.41,537.58 503.53,538.65 491.04,537.79C493.25,533.32 498.97,535.45 503,535C511.17,535.81 518.77,533.01 526.87,534.3C528.39,534.54 529.37,534.48 530.78,533.85C535.21,531.86 540.45,534.24 544.51,531.94Z" style="fill:rgb(222,223,225);fill-rule:nonzero;"/>
                <path d="M446.74,533.7C443.71,538.08 446.5,543.89 451.74,543.83C454.92,544.04 458.07,543.96 461.25,543.72C462.21,543.91 463.18,544.09 464.16,544.26C458.41,546.01 445.23,545.04 439.7,542.3C439.11,538.94 442.03,533.14 446.74,533.7Z" style="fill:rgb(209,211,211);fill-rule:nonzero;"/>
                <path d="M588.59,534.12C589.25,536.58 588.08,537.51 586.46,539.08C585.42,534.69 578.68,539.11 575.68,537.76C573.04,536.47 570.63,540.4 568.72,539.02C574.91,533.34 581.37,534.95 588.59,534.12Z" style="fill:rgb(164,169,174);fill-rule:nonzero;"/>
                <path d="M481.87,535.19C486.87,534.44 487.14,542.07 482.67,542.56C478.44,543.18 472.68,545.17 468.73,543.06C469.89,541.69 471.03,540.31 472.16,538.92C475.47,537.64 478.49,536.1 481.87,535.19Z" style="fill:rgb(208,214,216);fill-rule:nonzero;"/>
                <path d="M545.96,534.59C547.32,535.29 548.64,536.03 549.9,536.88C548.05,537.2 544.2,537.72 545.96,534.59Z" style="fill:rgb(135,136,138);fill-rule:nonzero;"/>
                <path d="M566.79,537.09C567.4,537.76 568.05,538.41 568.72,539.02C570.63,540.4 573.04,536.47 575.68,537.76C578.68,539.11 585.42,534.69 586.46,539.08C582.58,542.93 574.36,541.95 569.34,541.88C563.16,540.13 556.82,539.16 550.71,537.08C553.26,537.08 555.68,537.25 558.19,537.71C561.72,538.64 563.18,535.15 566.79,537.09Z" style="fill:rgb(112,117,120);fill-rule:nonzero;"/>
                <path d="M451.02,537.1C455.76,537.56 459.71,536.03 463.83,539.14C467.3,541.64 468.11,536.71 472.16,538.92C471.03,540.31 469.89,541.69 468.73,543.06L468.03,542.79C461.12,540.63 454.35,539.37 447.07,539.85C446.79,537.64 449.35,537.23 451.02,537.1Z" style="fill:rgb(170,172,175);fill-rule:nonzero;"/>
                <path d="M461.25,543.72C458.07,543.96 454.92,544.04 451.74,543.83C455.09,542.6 457.86,542.74 461.25,543.72Z" style="fill:rgb(25,29,33);fill-rule:nonzero;"/>
            </g>
        </g>
    </g>
</svg>
