<?xml version="1.0" encoding="UTF-8" standalone="no"?>
<!DOCTYPE svg PUBLIC "-//W3C//DTD SVG 1.1//EN" "http://www.w3.org/Graphics/SVG/1.1/DTD/svg11.dtd">
<svg width="100%" height="100%" viewBox="0 0 1728 1728" version="1.1" xmlns="http://www.w3.org/2000/svg" xmlns:xlink="http://www.w3.org/1999/xlink" xml:space="preserve" xmlns:serif="http://www.serif.com/" style="fill-rule:evenodd;clip-rule:evenodd;stroke-linejoin:round;stroke-miterlimit:2;">
    <g transform="matrix(1,0,0,1,-7352,-8090)">
        <g id="_33" serif:id="33" transform="matrix(1,0,0,1,7352,8090)">
            <rect x="0" y="0" width="1728" height="1728" style="fill:none;"/>
            <g transform="matrix(3.395289,-3.395289,3.395289,3.395289,-1575.910554,1389.426938)">
                <g>
                    <path d="M449.97,156.19C455.59,155.18 460.75,156.82 465.75,159.25C471.47,162.08 477.06,165.19 482.59,168.38C487.43,171.16 491.82,174.57 496.58,177.45C501.29,180.39 507.58,181.12 513,181.61C517.62,181.96 522.44,182.56 527.07,182.07C528.63,181.92 530.04,180.55 531.36,179.77C532.18,180.81 533,181.86 533.82,182.91C529.92,187.93 524.81,191.23 519.4,194.4C511.78,198.71 502.83,202.89 494,203.48C487.75,204.03 483.98,200.16 478.03,199.35C474.07,198.7 470.02,200.33 466.16,199.76C463.38,199.1 462.02,196.91 460.4,194.79C460.6,202.25 460.84,209.63 461.98,217.02C462.07,219.32 463.07,222.77 461.25,224.53C459.9,223.73 458.64,222.79 457.4,221.84C464.77,236.21 465.69,251.95 470.79,268.11C474.18,269.24 477.98,270.16 481.04,272.04C484.05,273.97 485.79,277.49 487.42,280.56C489.2,284.09 491.18,287.56 492.68,291.21C494.39,295.45 494.44,299.58 494.8,304.06C507.88,309.71 521.9,313.26 534.94,318.99C536.9,319.98 539.8,321.28 540.72,323.4C541.68,327.63 539.86,331.9 537.14,335.1C532.98,340.02 526.67,343.37 520.78,345.76C509.03,350.46 496.04,352.71 483.45,353.49C481.55,358.87 480.32,364.92 475.95,368.93C471.29,373.16 464.92,375.81 459.17,378.22C454.67,380.16 449.8,380.5 445.21,382.02C438.97,386.66 433.61,392.83 426.86,396.93C422.97,399.21 418.66,400.39 415.06,403.07C412.42,405.02 410.4,407.2 407.22,408.35C400.81,410.66 393.79,411.54 387,411.7C379.74,411.78 371.47,410.75 365.23,406.74C360.89,404.01 359.17,399.99 355.46,396.53C350.37,391.66 346.16,386.06 343.53,379.48C341.16,373.22 340.33,366.57 339.48,360C339.28,356.99 337.06,354.96 335.5,352.49C331.16,346.39 329.68,338.87 328.18,331.68C317.75,327.8 309.15,321.81 299.24,316.77C291,312.82 282.96,306.93 277.65,299.44C274.83,292.88 279.16,283.5 285.43,280.38C298.43,273.39 313.52,269.12 327.78,265.52C330.94,264.67 334.16,264.15 337.41,263.77C340.3,258.2 345.13,255.46 350.07,252.03C351.94,250.86 352.31,249.07 353.11,247.17C355.25,241.4 358.1,234.93 362.61,230.61C364.72,228.51 367.48,227.53 369.79,225.77C372.3,222.92 374.11,219.39 376.23,216.24C384.6,202.92 394.14,190.41 405.33,179.33C411.83,172.29 420.25,169.04 428.57,164.57C435.29,161.34 442.57,157.43 449.97,156.19Z" style="fill:rgb(0,28,61);fill-rule:nonzero;"/>
                    <clipPath id="_clip1">
                        <path d="M449.97,156.19C455.59,155.18 460.75,156.82 465.75,159.25C471.47,162.08 477.06,165.19 482.59,168.38C487.43,171.16 491.82,174.57 496.58,177.45C501.29,180.39 507.58,181.12 513,181.61C517.62,181.96 522.44,182.56 527.07,182.07C528.63,181.92 530.04,180.55 531.36,179.77C532.18,180.81 533,181.86 533.82,182.91C529.92,187.93 524.81,191.23 519.4,194.4C511.78,198.71 502.83,202.89 494,203.48C487.75,204.03 483.98,200.16 478.03,199.35C474.07,198.7 470.02,200.33 466.16,199.76C463.38,199.1 462.02,196.91 460.4,194.79C460.6,202.25 460.84,209.63 461.98,217.02C462.07,219.32 463.07,222.77 461.25,224.53C459.9,223.73 458.64,222.79 457.4,221.84C464.77,236.21 465.69,251.95 470.79,268.11C474.18,269.24 477.98,270.16 481.04,272.04C484.05,273.97 485.79,277.49 487.42,280.56C489.2,284.09 491.18,287.56 492.68,291.21C494.39,295.45 494.44,299.58 494.8,304.06C507.88,309.71 521.9,313.26 534.94,318.99C536.9,319.98 539.8,321.28 540.72,323.4C541.68,327.63 539.86,331.9 537.14,335.1C532.98,340.02 526.67,343.37 520.78,345.76C509.03,350.46 496.04,352.71 483.45,353.49C481.55,358.87 480.32,364.92 475.95,368.93C471.29,373.16 464.92,375.81 459.17,378.22C454.67,380.16 449.8,380.5 445.21,382.02C438.97,386.66 433.61,392.83 426.86,396.93C422.97,399.21 418.66,400.39 415.06,403.07C412.42,405.02 410.4,407.2 407.22,408.35C400.81,410.66 393.79,411.54 387,411.7C379.74,411.78 371.47,410.75 365.23,406.74C360.89,404.01 359.17,399.99 355.46,396.53C350.37,391.66 346.16,386.06 343.53,379.48C341.16,373.22 340.33,366.57 339.48,360C339.28,356.99 337.06,354.96 335.5,352.49C331.16,346.39 329.68,338.87 328.18,331.68C317.75,327.8 309.15,321.81 299.24,316.77C291,312.82 282.96,306.93 277.65,299.44C274.83,292.88 279.16,283.5 285.43,280.38C298.43,273.39 313.52,269.12 327.78,265.52C330.94,264.67 334.16,264.15 337.41,263.77C340.3,258.2 345.13,255.46 350.07,252.03C351.94,250.86 352.31,249.07 353.11,247.17C355.25,241.4 358.1,234.93 362.61,230.61C364.72,228.51 367.48,227.53 369.79,225.77C372.3,222.92 374.11,219.39 376.23,216.24C384.6,202.92 394.14,190.41 405.33,179.33C411.83,172.29 420.25,169.04 428.57,164.57C435.29,161.34 442.57,157.43 449.97,156.19Z" clip-rule="nonzero"/>
                    </clipPath>
                    <g clip-path="url(#_clip1)">
                        <path d="M449.03,162.94C454.91,161.7 460.69,163.99 464.79,168.21C471,174.48 478.67,178.53 486.4,182.63C491.78,185.36 496.79,188.06 502.98,188.19C509.38,188.31 515.79,187.23 522.2,187.15C515.55,192.52 506.35,194.24 498.04,192.98C490.49,191.49 483.43,188.7 476.22,186.61C472.38,185.47 468.24,184.94 464.53,183.43C461.26,181.99 458.96,179.31 456.51,176.8C454.76,181.8 453.08,186.66 452.52,191.97C452.14,195.87 451.82,199.72 450.57,203.46C445.07,199.44 440.5,194.52 434.39,191.28C436.04,197.51 438.4,203.42 439.56,209.78C440.99,216.26 441.09,222.85 442.79,229.27C444.24,234.91 443.9,240.36 443.46,246.09C436.55,242.28 430.82,236.75 423.91,233.01C417.92,230.25 411.27,228.76 404.94,226.97C397.56,224.69 390.2,226.79 382.24,226.05C384.15,219.45 388.36,214.67 391.9,208.95C396.56,201.97 400.91,194.66 406.13,188.08C411.24,181.66 418.57,177.75 425.43,173.43C432.68,169.19 440.73,164.56 449.03,162.94Z" style="fill:white;fill-rule:nonzero;"/>
                        <path d="M385.82,230.84C384.37,233.47 382.91,236.09 381.45,238.72C375.09,239.16 368.91,240.43 362.71,241.85C363.88,240.39 364.99,238.66 366.45,237.46C372.24,233.47 378.83,231.43 385.82,230.84Z" style="fill:white;fill-rule:nonzero;"/>
                        <path d="M394.03,231.14C400.31,231.35 406.51,232.59 412.27,235.15C405.24,243.47 400.4,253.05 395.88,262.9C394.78,265.22 393.48,267.43 392.16,269.64C385.68,268.73 379.39,267.62 373.3,265.12C374.33,260.91 376.23,257.18 378.54,253.54C382.53,247.18 386.34,240.7 390.39,234.38C391.24,233.34 392.52,231.01 394.03,231.14Z" style="fill:white;fill-rule:nonzero;"/>
                        <path d="M421.1,239.86C432.28,246.47 442.9,253.62 451.85,263.14C457.91,269.54 462.14,277.92 465.43,286.02C464.52,288.56 462.81,289.81 460.12,289.98C454.56,285.3 451.2,277.03 446.29,271.71C441.6,266.5 436.56,261.27 430.95,257.06C425.23,252.97 419.3,249.22 413,246.08C413.83,243.69 414.42,240.9 415.87,238.81C417.63,237.67 419.51,239.07 421.1,239.86Z" style="fill:white;fill-rule:nonzero;"/>
                        <path d="M377.98,244.24C376.76,246.7 375.45,249.1 374.07,251.47C370.54,251.47 367,251.44 363.47,251.28C367.86,246.91 371.86,245.16 377.98,244.24Z" style="fill:white;fill-rule:nonzero;"/>
                        <path d="M410.96,251.98C415.2,252.37 419.41,254.83 422.98,257.03C429.8,261.5 436.49,267.03 441.18,273.76C439.85,275.58 438.47,277.33 436.97,279.01C428.22,270.79 417.33,264.6 406.53,259.5C407.93,257.01 409.09,254.15 410.96,251.98Z" style="fill:white;fill-rule:nonzero;"/>
                        <path d="M371.02,256.87C370.08,259.37 369.13,261.87 368.16,264.36C360.76,264.12 353.44,265.15 346.06,265.14C347.58,263.28 349.25,261.61 351.19,260.18C356.03,255.8 364.88,257.54 371.02,256.87Z" style="fill:white;fill-rule:nonzero;"/>
                        <path d="M401.84,265.2C408.05,267.05 413.95,271.13 419.38,274.62C426.48,279.32 433.27,284.69 439.36,290.64C442.56,294.01 446.43,298.3 447.32,302.98C447.66,304.87 447.29,305.96 446.04,307.38C442.5,307.85 441.15,303.84 439.37,301.57C434.11,294.17 424.77,288.97 417.76,283.24C411.79,278.18 405.03,275.54 398.07,272.21C399.14,269.76 400.29,267.38 401.84,265.2Z" style="fill:white;fill-rule:nonzero;"/>
                        <path d="M368.27,269.83C373.94,271.69 379.33,271.68 384.45,275.08C372.36,276.25 360.14,276.1 348.01,276.79C344.37,277.03 340.92,277.97 337.42,278.94C349.77,280.36 361.79,283.83 373.14,288.86C388.79,296.08 405.14,301.86 421.23,308C420.88,309.7 420.53,311.4 420.18,313.1C394.96,304.03 368.89,293.07 342.79,287.66C333.8,285.82 324.19,283.7 315,283.78C306.38,283.79 298.43,286.45 289.8,286.94C296.42,282.81 303.81,279.17 311.5,277.68C319.54,275.87 327.79,273.81 336.01,273.17C346.77,272.14 357.97,270.08 368.78,270.64L368.27,269.83Z" style="fill:white;fill-rule:nonzero;"/>
                        <path d="M467.88,276.6C472.35,280.42 477.44,284.42 480.55,289.45C483.26,294.87 484.44,301.2 485.92,307.05C483.87,308.13 481.16,308.85 480.21,311.21C478.85,314.86 478.57,319.15 478.96,323C479.34,326.4 481.96,328.02 484.21,330.22C483.53,333.67 483.03,337.39 481.7,340.65C479.81,340.6 478,340.19 476.1,340.2C473.31,342.27 471.24,345.86 469.91,349.02C468.55,352.73 470.63,355.59 472.14,358.79C468.46,362.44 464.88,365.81 460.21,368.21C457.62,369.53 454.52,369.87 451.67,370.38C454.73,366.31 458.49,362.39 460.82,357.85C462.31,354.66 460.6,351.86 458.05,349.96C455.2,347.96 451.59,345.97 448.06,345.84C444.89,348.45 442.73,352.28 439.99,355.34C435.46,341.88 432.91,328.21 435.39,314.04C431.87,326.55 429.78,339 431.2,352.03C431.61,356.3 433.65,359.93 434.47,364.16C432.78,363.29 431.38,363.39 430.42,361.54C426.89,355.54 424.41,349.01 423.87,342.02C422.75,328.51 426.21,315.29 430.71,302.67C433.16,305.13 435.81,307.26 437.95,310.02C439.94,312.37 441.93,315.4 445.03,316.27C451.16,315.09 455.25,307.98 454.1,302C452.87,294.83 447.73,289.37 442.79,284.42C443.69,282.72 444.63,281.06 445.62,279.41C448.45,283.27 451.29,287.1 453.79,291.18C454.68,292.54 455.6,294.15 456.88,295.17C461.46,295.74 468.4,295.14 471.29,290.96C471,287.1 469.63,283.24 468.65,279.5C468.39,278.54 468.14,277.57 467.88,276.6Z" style="fill:white;fill-rule:nonzero;"/>
                        <path d="M344.49,299.66C343.02,309.01 340.99,319.03 342.01,328.99C343.22,337.28 348.18,343.91 351.97,351.09C353.45,353.71 355.59,356.06 357.4,358.48C349.42,356.09 342.99,350.13 339.33,342.75C334.86,332.05 334.97,321.38 335.14,310C335.23,306.91 335.59,303.04 337.43,300.45C339.18,298.24 342.16,299.41 344.49,299.66Z" style="fill:white;fill-rule:nonzero;"/>
                        <path d="M486.33,313.47C486.92,316.67 485.82,319.39 484.45,322.19C483.85,319.93 482.53,316.72 483.57,314.46C484.29,313.4 485.21,313.57 486.33,313.47Z" style="fill:white;fill-rule:nonzero;"/>
                        <path d="M493.72,313.02C497.53,314.89 500.99,317.39 504.85,319.18C509.52,321.51 514.39,322.6 519.4,323.9C510.62,325.19 501.54,324.83 492.71,324.37C493.07,320.59 493.27,316.79 493.72,313.02Z" style="fill:white;fill-rule:nonzero;"/>
                        <path d="M391.85,326.95C400.48,329.46 408.47,333.2 417.51,334.34C417.68,337.19 417.77,340.05 417.85,342.91C408.27,340.42 398.54,338.53 388.9,336.29C389.87,333.17 390.86,330.06 391.85,326.95Z" style="fill:white;fill-rule:nonzero;"/>
                        <path d="M477.32,345.26C478.09,346.46 478.84,347.65 479.33,348.98C478.52,350.68 477.17,351.76 475.86,353.04C475.26,351.62 474.66,350.2 474.11,348.76C475.08,347.51 476.19,346.37 477.32,345.26Z" style="fill:white;fill-rule:nonzero;"/>
                        <path d="M384.43,347.66C388.78,347.83 392.8,348.89 396.99,349.88C404.51,351.7 412.01,353.4 419.75,353.96C420.61,360.1 425.05,364.57 428.54,369.44C421.95,374.05 415.4,379.21 408.39,383.08C406.21,382.37 404.41,381.32 402.04,381.73C393.16,382.69 385.14,385.05 376.21,382.6C370.88,381.07 365.35,379.04 360.36,376.63C355.52,374.22 355.11,368.87 353.85,364.21C361.19,366.63 368.99,364.51 374.95,359.88C378.76,356.6 381.72,351.85 384.43,347.66Z" style="fill:white;fill-rule:nonzero;"/>
                        <path d="M449.99,351.31C451.42,352.34 453.3,352.96 453.28,355.04C453.24,358.59 449.85,362.1 447.79,364.79C443.3,369.96 440.33,375.74 435.44,380.42C430.17,385.58 424.33,388.97 418.35,393.34C414.82,395.69 410.24,398.63 405.87,398.49C402.83,396.63 403.76,393.83 403.5,390.8C412.53,387.33 420.77,382.27 428.37,376.32C433.4,372.29 438.03,368.09 441.78,362.8C444.54,359.02 446.81,354.66 449.99,351.31Z" style="fill:white;fill-rule:nonzero;"/>
                        <path d="M348.23,369.36C351.16,374.43 353.78,379.26 358.64,382.8C358.32,384.4 358,385.99 357.67,387.59C353.21,383.03 350.69,378.35 349.02,372.21C348.75,371.26 348.49,370.31 348.23,369.36Z" style="fill:white;fill-rule:nonzero;"/>
                        <path d="M366.87,385.07C370.56,386.53 373.94,388.32 377.97,388.75C384.75,390.02 391,388.51 397.78,388.54C397.19,389.85 396.6,391.16 396,392.47C397.07,395.87 397.92,399.28 398.46,402.81C392.47,404.58 386.16,405.01 379.96,404.29C375.38,403.68 370.55,402.15 367.23,398.78C364.17,395.77 362.92,391.16 363.81,387C364.05,385.51 365.4,384.38 366.87,385.07Z" style="fill:white;fill-rule:nonzero;"/>
                        <g transform="matrix(1,0,0,1,-3,-2)">
                            <path d="M463.522,307L465.508,306.988L468.644,316.049L467.609,318.938L463.522,307Z" style="fill:rgb(0,28,61);"/>
                            <path d="M463.514,309.44L465.82,316.027L465.833,331.459L463.562,338.047L463.514,309.44Z" style="fill:rgb(0,28,61);"/>
                            <path d="M463.586,340.026L465.87,340.006L469.239,329.672L468.217,326.531L463.586,340.026Z" style="fill:rgb(0,28,61);"/>
                            <path d="M467.837,327.578L468.228,326.549L469.333,326.531L471.102,331.483L471.132,337.641L468.931,330.681L467.837,327.578Z" style="fill:rgb(0,28,61);"/>
                            <path d="M471.77,340.024L474.073,340.016L473.99,306.959L471.753,306.995L471.77,340.024Z" style="fill:rgb(0,28,61);"/>
                            <path d="M470.849,309.672L470.84,316.141L469.293,320.517L468.19,320.516L467.607,318.939L470.849,309.672Z" style="fill:rgb(0,28,61);"/>
                        </g>
                    </g>
                </g>
            </g>
            <g id="half" transform="matrix(2,0,0,2,-41.646113,93.846491)">
                <path d="M640.35,19.49C645.15,19.01 647.44,21.23 646.39,26.08C643.8,30.01 642.9,31.3 637.94,30.4C640.18,35.29 645.31,37.61 647.31,32.62C645.34,27.39 653.27,32.87 650.2,34.18C647.53,36.71 641.64,39.14 642.37,43.65C643.13,47.2 639.65,41.38 638.07,42.06C638.89,44.79 640.96,45.93 640.21,49.08C634.67,51.77 633.89,45.03 630.8,41.94C630.02,39.68 633.32,35.59 629.01,37.06C623.61,39.97 628.02,33.98 627.85,31.37C630.22,26.54 631.04,21.14 633.37,16.35C637.43,10.44 640.3,13.45 640.35,19.49Z" style="fill:rgb(172,117,96);fill-rule:nonzero;"/>
                <path d="M536,668L536,706L550,715L564,711L563,705L564,694L569,663L562,653L538.99,653L536,668Z" style="fill:rgb(235,235,235);"/>
                <path d="M625,16.86C631.08,19.92 625.95,26.44 627.85,31.37C628.02,33.98 623.61,39.97 629.01,37.06C633.32,35.59 630.02,39.68 630.8,41.94C623.76,38.2 622.94,33.65 621.42,25.98C617.4,35.03 619.55,45.2 627.68,51.32C630.89,53.65 632.24,56.14 633.53,59.81C627.92,62.76 625.11,61.08 626.42,68.91C632.4,81.27 623.9,93.63 625.97,108.02C621.86,117.6 627.31,125.85 623.62,135.61C622.33,142.5 622.92,149.92 623.83,156.84C619.04,155.45 619.64,153.5 618.48,159.45C607.95,162.39 607.45,167.14 605.31,176.76C599.32,188.46 592.69,199.65 590.83,212.85C589.08,221.68 583.14,205.86 579.8,214.85C571.01,222.01 562.39,229.57 558.71,241.02C556.15,237.65 557.66,234.64 557.39,230.82C564.25,219.55 577.12,210.15 588.28,203.27C593.7,193.19 597.09,180.95 602.94,170.96C606.87,165.24 611.5,161.51 611.81,153.96C612.8,137.95 615.74,122.41 619.9,106.94C623.16,92.32 623.59,76.89 624.96,62.04C623.13,55.11 619.51,48.57 617.52,41.59C617.96,31.98 618.67,24.49 625,16.86Z" style="fill:rgb(189,160,142);fill-rule:nonzero;"/>
                <path d="M651.28,26.74C653.05,34.96 658.71,37.11 656.89,46.96C655.82,59.39 645.19,64.13 647.31,77.81C648.96,95.18 649.58,111.32 648.68,128.82C646.74,141.82 646.93,157.54 640.05,169.01C632.31,186.18 630.77,204.46 621.12,221.07C614.99,232.56 603.53,242.58 599.92,255.05C594.7,270.46 594.38,287.11 589.68,302.79C588.52,314.77 588.54,326.64 585,338.33C584.1,336.33 583.28,334.3 582.79,332.15C583.55,332.72 584.33,333.28 585.11,333.82C582.61,324.97 582.93,316.51 580.03,307.94C583.72,294.75 576.02,283.83 576.45,270.62C576.6,265.99 575.97,263.15 574.31,258.86C576.19,248.65 579.71,240.68 582.84,230.76C588.58,222.99 585.19,236.46 583.99,238.99C582.85,240.47 581.83,252.43 585.14,246.15C586.34,240.36 592.79,237.61 591.1,232.02C590.57,229.2 594.12,236.74 593.52,232.84C592.63,226.92 597.31,227.51 598.46,222.42C600.1,220.18 596.33,213.49 600.76,217.55C601.25,211.11 604.46,214.61 607.09,217.29C614.49,216.54 615.18,209.7 620.42,204.57C622.79,186.81 634.94,182.31 630,164.01C629.36,159.69 625.51,162.86 627.35,157.57C630.66,158.97 633.79,159.88 637.27,158.35C639.53,149.84 644.34,145.34 639.41,136.4C645.87,137.5 640.54,130.79 642.52,127.41C645.7,118.45 645.64,110.13 643.88,100.99C646.15,90.73 647.87,81.77 644.82,71.28C641.45,68.91 640.62,67.21 639.54,63.28C649.26,61.85 649.39,54.74 654.83,48.11C649.23,43.59 645.8,47.63 640.21,49.08C640.96,45.93 638.89,44.79 638.07,42.06C639.65,41.38 643.13,47.2 642.37,43.65C641.64,39.14 647.53,36.71 650.2,34.18C653.27,32.87 645.34,27.39 647.31,32.62C645.31,37.61 640.18,35.29 637.94,30.4C642.9,31.3 643.8,30.01 646.39,26.08C648.55,25.34 649.66,24.55 651.28,26.74Z" style="fill:rgb(196,165,143);fill-rule:nonzero;"/>
                <path d="M621.42,25.98C622.94,33.65 623.76,38.2 630.8,41.94C633.89,45.03 634.67,51.77 640.21,49.08C645.8,47.63 649.23,43.59 654.83,48.11C649.39,54.74 649.26,61.85 639.54,63.28C640.62,67.21 641.45,68.91 644.82,71.28C647.87,81.77 646.15,90.73 643.88,100.99C645.64,110.13 645.7,118.45 642.52,127.41C640.54,130.79 645.87,137.5 639.41,136.4C644.34,145.34 639.53,149.84 637.27,158.35C633.79,159.88 630.66,158.97 627.35,157.57C625.51,162.86 629.36,159.69 630,164.01C634.94,182.31 622.79,186.81 620.42,204.57C615.18,209.7 614.49,216.54 607.09,217.29C604.46,214.61 601.25,211.11 600.76,217.55C596.33,213.49 600.1,220.18 598.46,222.42C597.31,227.51 592.63,226.92 593.52,232.84C594.12,236.74 590.57,229.2 591.1,232.02C592.79,237.61 586.34,240.36 585.14,246.15C581.83,252.43 582.85,240.47 583.99,238.99C585.19,236.46 588.58,222.99 582.84,230.76C579.71,240.68 576.19,248.65 574.31,258.86C575.97,263.15 576.6,265.99 576.45,270.62C576.02,283.83 583.72,294.75 580.03,307.94C582.93,316.51 582.61,324.97 585.11,333.82C584.33,333.28 583.55,332.72 582.79,332.15C580.05,315.58 577.71,299.47 572.53,283.4C568.39,269.69 566.09,253.37 558.71,241.02C562.39,229.57 571.01,222.01 579.8,214.85C583.14,205.86 589.08,221.68 590.83,212.85C592.69,199.65 599.32,188.46 605.31,176.76C607.45,167.14 607.95,162.39 618.48,159.45C619.64,153.5 619.04,155.45 623.83,156.84C622.92,149.92 622.33,142.5 623.62,135.61C627.31,125.85 621.86,117.6 625.97,108.02C623.9,93.63 632.4,81.27 626.42,68.91C625.11,61.08 627.92,62.76 633.53,59.81C632.24,56.14 630.89,53.65 627.68,51.32C619.55,45.2 617.4,35.03 621.42,25.98Z" style="fill:rgb(221,191,171);fill-rule:nonzero;"/>
                <path d="M540.34,127.67C543.07,134.25 541.55,134.61 547.38,139.7C541.46,142.23 537.97,134.94 534.13,139.14C532.33,141.43 531.74,137.3 530.9,136.14C534.58,133.05 535.05,135.77 538.67,135.72C542.18,133.7 538.88,123.26 534.72,128.72C532.6,130.76 531.59,133.35 530.9,136.14C530.14,134.22 529.55,132.2 528.9,130.23C533.67,132.51 534.06,121.73 540.34,127.67Z" style="fill:rgb(114,112,115);fill-rule:nonzero;"/>
                <path d="M514.86,130.96C512.87,138.01 507.99,136.49 502,135.94C504.67,134.63 508.33,134.61 507.44,130.63C506.66,124.2 512.66,129.4 514.86,130.96Z" style="fill:rgb(160,159,162);fill-rule:nonzero;"/>
                <path d="M528.9,130.23C529.55,132.2 530.14,134.22 530.9,136.14C531.74,137.3 532.33,141.43 534.13,139.14C537.97,134.94 541.46,142.23 547.38,139.7C548.66,140.17 549.93,140.64 551.18,141.18C544.35,139.22 550.75,153.77 554,147.06C554.64,149.46 556.34,150.77 558.05,152.41C548.12,149.15 556.87,163.23 562.27,162.72C564.52,169.06 563.68,173.29 561.61,179.49C554.84,178.2 558.81,184.06 560.75,186.96C559.01,191.14 554.43,191.99 552.75,195.92C546.37,199.4 548.73,186.21 547.01,183.14C547.23,178.05 545.12,173.94 542.66,169.68C536.31,172.18 535.83,171.27 532.78,165.68C523.99,171.63 518.07,167.23 508.86,167.01C502.77,161.86 499.2,172.18 495.92,175.96C492.59,180.55 495.28,186.16 493.03,190.57C489.04,188.47 487.94,189.97 484.39,191.83C484.93,186.14 482.38,189.91 482.93,193C481.91,196.62 489.73,201.7 485.08,203.51C481.46,200.84 481.43,198.53 480.57,194.46C477.21,192.11 475.1,191.27 474.14,186.82C470.85,178 481.16,175.55 474.15,167.8C476.99,159.6 475.84,154.74 484.12,149.02C484.92,144.22 498.02,142.27 488.04,140.4C491.21,140.01 493,139.26 495.59,137.53C497.26,143.68 500.4,139.31 502,135.94C507.99,136.49 512.87,138.01 514.86,130.96C520.08,126.78 523.42,124.97 528.9,130.23Z" style="fill:rgb(29,25,23);fill-rule:nonzero;"/>
                <path d="M538.67,135.72C535.05,135.77 534.58,133.05 530.9,136.14C531.59,133.35 532.6,130.76 534.72,128.72C538.88,123.26 542.18,133.7 538.67,135.72Z" style="fill:rgb(210,208,213);fill-rule:nonzero;"/>
                <path d="M497.37,131.78C496.91,137.22 497.12,135.69 502,135.94C500.4,139.31 497.26,143.68 495.59,137.53C493,139.26 491.21,140.01 488.04,140.4C498.02,142.27 484.92,144.22 484.12,149.02C482.53,146.05 481.94,146.87 484.95,144.88C486.87,141.46 485.29,135.48 491.2,138.36C493.38,132.44 492.88,140.24 497.37,131.78Z" style="fill:rgb(152,150,151);fill-rule:nonzero;"/>
                <path d="M551.18,141.18C554.09,142.37 553.84,144.33 554,147.06C550.75,153.77 544.35,139.22 551.18,141.18Z" style="fill:rgb(148,146,145);fill-rule:nonzero;"/>
                <path d="M558.05,152.41C561.09,155.22 561.76,158.79 562.27,162.72C556.87,163.23 548.12,149.15 558.05,152.41Z" style="fill:rgb(162,160,162);fill-rule:nonzero;"/>
                <path d="M508.86,167.01C514.74,168.93 519.58,171.66 526.02,171.13C529.4,171.03 527.99,173.15 528.72,175.42C532.13,176.36 536.16,174.21 539.73,174.41C543.4,175.22 544.98,180.33 547.01,183.14C548.73,186.21 546.37,199.4 552.75,195.92C556.91,205.98 546.18,202.3 546.26,211.97C544.72,203.42 541.58,211.65 542.07,215.28C542.31,219.27 540.4,231.01 546.1,231.58C543.21,234.09 545.24,248.39 546.15,253.01C543.03,241.99 541.03,257.07 532.17,253.61C533.93,249.67 534.91,246.25 534.67,241.89C524.4,240.93 524.74,243.95 514.93,244.92C516.55,243.54 518.37,242.46 520.08,241.19C515.12,239.83 511.46,243.21 506.77,241.65C503.05,242.75 508.19,251.7 502.74,249.63C499.87,249.35 501.44,255.01 499.51,255.63C497.5,250.14 490.56,249.87 490.85,244.15C490.65,242.16 488.06,246.29 487.72,243.11C498.73,237.18 495.1,226.42 493.31,216.34C494.28,212.06 494.16,207.81 493.93,203.46C490.52,206.11 485.75,202.11 487.24,207.89C485.58,210.39 485.7,204.49 485.08,203.51C489.73,201.7 481.91,196.62 482.93,193C482.38,189.91 484.93,186.14 484.39,191.83C487.94,189.97 489.04,188.47 493.03,190.57C495.28,186.16 492.59,180.55 495.92,175.96C499.2,172.18 502.77,161.86 508.86,167.01Z" style="fill:rgb(200,154,133);fill-rule:nonzero;"/>
                <path d="M532.78,165.68C535.83,171.27 536.31,172.18 542.66,169.68C545.12,173.94 547.23,178.05 547.01,183.14C544.98,180.33 543.4,175.22 539.73,174.41C536.16,174.21 532.13,176.36 528.72,175.42C527.99,173.15 529.4,171.03 526.02,171.13C519.58,171.66 514.74,168.93 508.86,167.01C518.07,167.23 523.99,171.63 532.78,165.68Z" style="fill:rgb(96,69,60);fill-rule:nonzero;"/>
                <path d="M518.97,174.91C515.56,174.67 512.37,173.31 509,173.02C507.17,172.26 498.89,175.54 503.77,171.84C507.11,169.89 518.63,169.5 518.97,174.91Z" style="fill:rgb(96,62,48);fill-rule:nonzero;"/>
                <path d="M511.38,176.42C514.41,174.63 520.62,181.63 514.22,178.83C511.24,181.92 507.96,181.15 504.07,180.79C503.04,176.85 508.96,177.43 511.38,176.42Z" style="fill:rgb(107,71,61);fill-rule:nonzero;"/>
                <path d="M541.96,182.97C538.18,183.39 535.3,181.86 531.86,180.75C530.96,180.66 530.05,180.58 529.15,180.53C530.84,175.35 540.88,178.04 541.96,182.97Z" style="fill:rgb(90,56,45);fill-rule:nonzero;"/>
                <path d="M516.77,183.36C518.25,187.78 511.6,195.31 515.32,197.69C522.1,196.17 530.51,200.22 531.51,207.26C527.19,202.36 520.76,202.27 514.94,203.94C511.57,206.28 511.33,206.8 514.21,209.83C514.92,212.78 510.17,213.46 513.23,215.68C517.06,214.15 530.42,213.91 526.9,220.87C518.06,228.65 501,213.32 504.83,203.37C501.62,195.2 497.24,191.13 499.42,181.77C505.23,182.24 511,182.23 516.77,183.36Z" style="fill:rgb(226,178,161);fill-rule:nonzero;"/>
                <path d="M493.93,203.46C494.16,207.81 494.28,212.06 493.31,216.34C489.97,214.07 488.55,211.63 487.24,207.89C485.75,202.11 490.52,206.11 493.93,203.46Z" style="fill:rgb(52,38,36);fill-rule:nonzero;"/>
                <path d="M531.51,207.26C532.43,212.17 517.36,206.99 514.21,209.83C511.33,206.8 511.57,206.28 514.94,203.94C520.76,202.27 527.19,202.36 531.51,207.26Z" style="fill:rgb(108,50,46);fill-rule:nonzero;"/>
                <path d="M546.26,211.97C545.11,213.42 543.61,214.33 542.07,215.28C541.58,211.65 544.72,203.42 546.26,211.97Z" style="fill:rgb(67,52,47);fill-rule:nonzero;"/>
                <path d="M501.07,216.96C505.58,219.42 509.45,222.71 514.41,224.57C524.75,227.93 529.47,223.27 538.12,219.2C537.06,224.86 529.59,228.59 526.33,233.37C519.32,238.85 513.04,232.39 509.46,226.49C506.24,223.19 501.49,222.28 501.07,216.96Z" style="fill:rgb(163,111,84);fill-rule:nonzero;"/>
                <path d="M603.9,231.12C599.16,237.44 593.63,240.12 595.12,249.08C601.54,255.21 583.55,257.45 589.18,263.85C590.58,266.71 587.15,269.37 585.48,265.44C582.66,269.32 583.02,271.95 577.97,274.77C577.78,266.77 580.38,258.31 582.79,250.73C590.05,249.56 585.49,241.01 592.69,239.17C598.18,238.26 597.31,225.04 603.9,231.12Z" style="fill:rgb(126,100,80);fill-rule:nonzero;"/>
                <path d="M557.39,230.82C557.66,234.64 556.15,237.65 558.71,241.02C566.09,253.37 568.39,269.69 572.53,283.4C577.71,299.47 580.05,315.58 582.79,332.15C583.28,334.3 584.1,336.33 585,338.33C584.9,339.93 584.77,341.53 584.5,343.11C580.74,336.52 579.53,328.27 578.44,320.85C574.22,297.13 567.25,271.04 558.22,248.71C555.82,242.19 549.93,240.24 550.99,233.02C554.92,234.01 555.22,234.73 557.39,230.82Z" style="fill:rgb(63,66,76);fill-rule:nonzero;"/>
                <path d="M546.1,231.58L547.02,231.85C550.33,243.04 549.92,256.58 552.6,268.38C553.48,281.09 554.23,298.5 546.37,309.33C540.57,317.68 530.1,322.68 520.1,318.92C509.04,314.82 501.01,303.01 496.34,292.67C488.35,277.16 483.81,262.49 482.83,244.98C484.19,244.37 485.59,243.84 487,243.37C487.35,257.23 489.9,269.59 495.9,282.12C500.75,293.74 507.61,307.62 518.97,314.05C528.26,318.89 538.02,314.7 543.46,306.44C552.35,291.63 549.19,269.26 546.15,253.01C545.24,248.39 543.21,234.09 546.1,231.58Z" style="fill:rgb(59,66,80);fill-rule:nonzero;"/>
                <path d="M547.02,231.85C548.35,232.22 549.67,232.6 550.99,233.02C549.93,240.24 555.82,242.19 558.22,248.71C567.25,271.04 574.22,297.13 578.44,320.85C578.2,327.06 569.49,321.94 568.06,329.83C571,332.95 572.2,336.99 575.61,339.63C568.83,343.81 568.17,343.47 566.24,351.72C577.35,350.11 569.18,362.89 564.21,363.58C561.9,363.82 560.9,367.54 559.26,369.05C559.78,365.32 559.87,363.35 558.07,359.94C556.6,357.92 560.53,353.9 557.21,353.13C553.76,358.27 551.43,366.89 545.16,369.85C543.16,366.99 548.65,359.63 551.4,357.88C550.07,354.87 550.85,353.09 551.57,350.08C547.55,345.72 547.66,358.35 543.01,358.09C545.41,352.72 548.29,348.35 548.73,342.24C547.11,340.45 546.91,340.86 545.24,342.24C539.35,347.88 535.02,355.71 532.4,363.38C531.11,366.28 531.25,369.37 527.14,368.99C527.9,365.49 531.85,357.89 525.99,357.1C520.62,358.89 511.98,367.75 515.37,373.6C521.15,377.21 526.65,366.02 534.03,374.18C540.67,373.92 540.82,377.38 545.96,381.04C549,386.46 544.67,392.18 547.63,398.12C543.87,407.35 539.53,409.02 533.11,415.86C535.05,416.32 537.01,416.52 538.99,416.74C541.44,420.58 543.4,415.72 538.99,416.74C546.65,417.37 548.94,410.84 555.99,411.99C559.21,411.45 557.26,414.83 557.6,416.76C563.73,416.54 570.09,416.78 576.03,418.37C573.96,420.19 571.43,420.98 568.97,422.5C572.71,423.08 575.84,423.97 578.82,426.4C577.3,428.66 567.55,431.92 575.61,430.5C581.98,428.63 579.59,433.87 581.42,437.81C577.96,438.65 572.98,438.1 569.99,439.86C572.13,440.77 583.03,438.39 581.82,441.75C577.5,442.35 571.77,441.69 567.93,443.91C572.5,444.62 576.96,442.26 581.32,443.44C580.24,446.54 581.94,446.02 584.03,447.69C580.56,447.73 576.09,447.11 572.94,448.74C574.82,448.4 587.29,450.05 579,451.02C571.84,451.15 581.01,453.23 582.98,453.41C579.03,454.59 575.3,455.28 571.93,457.84C576.76,460.28 579.92,452.19 581.96,458.06C584.86,462.41 572.64,458.19 572.2,460.8C576.09,461.08 579.93,461.24 583.74,462.16C580.12,465.6 578.51,469.42 583.18,471.19C579.74,487.71 581.95,505.75 579.85,522.33C568,518.25 556.95,514.85 544.37,518.42C538.37,520.39 530.37,523.6 530.74,531.24C528.37,517.9 526.93,501.42 528.3,487.93C531.76,481.81 536.9,478.8 542.01,474.4C536.19,476.07 526.19,470.47 524.54,478.51C521.59,479.32 518.58,479.71 515.71,480.81C510.6,484.33 508.03,473.42 502.63,473.39C497.28,471.47 503.21,476.26 503.86,478.04C499.91,476.77 497.12,474.46 493.01,474C499.95,478.49 506.49,481.58 509.67,489.79C501.55,488.98 514.04,494.82 511.03,498.99C509.41,503 507.26,502.38 503.95,503.96C507.39,504.06 510.65,503.33 514.07,503.15C511.93,506.93 495.24,504.35 506.38,508.12C503.41,512.68 508.2,510.29 511.07,511.36C504.62,514.91 495.14,511.89 487.9,513.27C491.51,516.53 504.73,512.8 499.58,520.52C497.23,524.76 504.96,523.17 505.95,526.84C501.14,529.94 493.75,530.25 488.19,529.63C478.88,530.17 475.52,525.33 467.83,522.36C468.44,515.48 466.17,509.64 466.15,502.9C469.63,507.02 465.25,515.16 473.34,512.01C472.86,502 470.42,493.05 472.41,482.6C471.58,471.61 475.58,462.56 474.68,451.86C479.01,451.8 482.75,453.84 487.04,453.96C480.93,450.22 474.39,450.32 469.01,444.99C473.84,444.92 476.01,448.82 480.06,444.39C472.86,447.87 477.93,432.72 478.61,429.84C481.75,430.44 486.47,429.16 488.84,431.21C490.95,438.98 503.39,439.37 510.14,439.56C519.01,441.04 526.34,437.58 534.89,435.94C543.34,434.86 544.31,427.12 552.21,424.28C555.44,423.48 556.37,418.73 552.88,418.08C544.16,419.12 535.67,422.78 526.95,423.78C523.58,424.33 518.38,423.99 515.92,426.69C526.17,429.12 534.06,425.28 544.02,424.28C539.73,429.18 523.91,429.8 516.94,431.38C522.01,433.91 526.61,432.63 532.02,433.15C520.42,436.56 505.82,435.4 494.27,431.73C490.93,430.85 492.64,427.52 494.75,427.15C498.41,432.78 506.39,429.86 511.9,429.69C512.61,423.54 496.07,427.95 493.88,421.77C496.77,417.13 492.13,417.92 489.34,415.91C493.18,410.66 490.7,407.9 488.26,402.84C488.55,398.63 494.68,395.12 491.44,390.67C489.08,385.16 493.88,382.13 496.89,378.13C498.55,384.69 499.44,386.42 504.77,380.78C502.7,375.88 498.07,377 506.07,375.15C509.48,374.09 517.91,364.62 509.39,365.3C507.87,368.78 506.78,374.72 501.18,370.82C497.07,364.45 503.59,353.12 508.78,348.79C513.27,345.67 515.22,346.52 514.66,352.09C521.25,351.73 517.54,342.54 512.32,343.35C505.18,344.9 499.69,352.59 496.92,358.92C494.33,363.14 495.12,367.25 494.86,371.95C493.31,370.5 492.23,365.71 491.76,370.72C487.12,364.86 484.35,361.97 483.98,354.03C484,347.77 476.42,350.15 478.42,344.56C481.66,347.28 493.58,344.3 483.33,343.64C483.24,338.55 481.54,334.29 479.98,329.57C481.73,329.77 483.29,330.45 484.96,330.94C489.48,330.56 494.17,326.42 497.97,323.99C495.34,324.46 492.87,325.37 490.38,326.28C488.68,324.8 484.43,321.05 483.44,325.13C481.28,320.03 481.54,314.09 479.15,308.8C476.6,287.87 475.93,268.93 476.89,247.89C478.84,246.86 480.81,245.86 482.83,244.98C483.81,262.49 488.35,277.16 496.34,292.67C501.01,303.01 509.04,314.82 520.1,318.92C530.1,322.68 540.57,317.68 546.37,309.33C554.23,298.5 553.48,281.09 552.6,268.38C549.92,256.58 550.33,243.04 547.02,231.85Z" style="fill:rgb(226,229,236);fill-rule:nonzero;"/>
                <path d="M506.77,241.65C511.46,243.21 515.12,239.83 520.08,241.19C518.37,242.46 516.55,243.54 514.93,244.92C524.74,243.95 524.4,240.93 534.67,241.89C534.91,246.25 533.93,249.67 532.17,253.61C541.03,257.07 543.03,241.99 546.15,253.01C549.19,269.26 552.35,291.63 543.46,306.44C538.02,314.7 528.26,318.89 518.97,314.05C507.61,307.62 500.75,293.74 495.9,282.12C489.9,269.59 487.35,257.23 487,243.37L487.72,243.11C488.06,246.29 490.65,242.16 490.85,244.15C490.56,249.87 497.5,250.14 499.51,255.63C501.44,255.01 499.87,249.35 502.74,249.63C508.19,251.7 503.05,242.75 506.77,241.65Z" style="fill:rgb(229,197,176);fill-rule:nonzero;"/>
                <path d="M476.89,247.89C475.93,268.93 476.6,287.87 479.15,308.8C478.82,320.86 480.74,344.14 468.3,351.18C467.8,349.58 467.33,347.98 466.87,346.38C469.36,346.83 470.36,345.56 471.52,343.57C476.77,332.93 476.85,320.28 475.31,308.76C474.32,298.61 474.34,288.29 472.65,278.25C473.24,269.19 473.14,259.84 472.73,250.77C474.01,249.62 475.33,248.63 476.89,247.89Z" style="fill:rgb(57,61,71);fill-rule:nonzero;"/>
                <path d="M472.73,250.77C473.14,259.84 473.24,269.19 472.65,278.25C471.16,271.2 472.61,263.47 471.79,256.22C463.25,256.36 450.39,253.35 445.86,262.37C442.13,262.24 433.92,270.24 441.18,271.67C448.57,271.63 444.07,283.64 451.54,282.6C454.63,285.78 458.59,285.62 461.77,287.96C463.15,292.7 465.38,292.71 469.46,294.57C474.88,298.18 472.91,306.27 474.72,312.23C477.06,322.21 470.32,311 470.52,307.69C471.41,298.1 461.09,295.96 454.68,289.39C446.09,287.55 443.7,279.48 435.16,279.22C433.69,283.49 436.93,289.4 432,291.98C424.83,295.24 417.91,298.89 410.8,302.23C417.27,305.47 427.8,296.65 432.7,299.32C430.01,306.37 422.8,315.42 414.13,316.18C410.15,319.32 403.19,318.62 401.19,323.18C397.35,325.49 395.26,327.24 392.18,322.92C390.12,322.32 385.28,324.19 383.21,325.29C386.55,326.54 385.36,329.04 385.88,331.88C379.8,334.91 368.29,333.18 362.32,330.61C356.34,332.5 353.36,334.45 348.14,329.85C334.68,326.82 321.2,328.04 308,324.03C301.48,322.46 293.27,320.75 293.84,312.39C288.27,317.23 276.67,315.7 270.56,311.74C267.78,310.61 263.59,309.07 266.53,305.53C271.1,301.74 256.03,296.66 264.97,298.64C262.58,293.02 262.45,291.72 264.65,285.98C262.53,282.14 260.93,282.05 263.97,277.86C266.81,282.69 273.07,292.72 279.82,288.85C277.93,284.56 271.89,281.05 273.05,276.12C274.3,272.27 278.5,271.89 280.72,275.26C286.63,285.51 295.64,288.75 298.01,300.02C298.48,304.92 307.41,305.07 311.01,305.02C326.1,307.66 339.88,304.74 354.94,304.77C365.39,302.06 373.52,307.79 383.6,303.07C393.53,296.26 400.46,287.48 412.98,283.94C410.09,286.82 407.51,289.69 405.68,293.38C401.6,290.76 400.96,295.01 397.61,296.6C390.28,300.33 388.52,307.54 383.39,314.59C381.96,311.46 380.75,308.96 379.97,314.05C378.83,313.97 359.96,310.6 371.98,308.53C368.98,307.69 361.82,305.2 359.94,308.61C343.88,303.45 322.8,312.62 303.02,308.54C304.53,311.56 304.09,313.43 303.67,316.65C307.26,318.08 311.39,324.07 315.13,321.19C329.24,322.74 343.86,324.77 357.97,325.8C362.64,324.83 360.04,326.61 360.07,329.67C367.35,327.99 374.4,325.6 381.84,324.6C382.57,320.83 381.12,320.75 378.16,319.37C383.66,316.41 389.94,322.09 396.39,319.46C404.36,319.27 407.87,317 413.5,311.61C413.02,305.05 402.66,315.06 400.87,307.3C399.17,297.3 411.85,299.76 417.51,295.61C422.13,292.04 433.58,291.73 432.48,284.21C428.7,275.5 419.47,284.03 412.98,283.94C424.76,276.35 428.5,261.76 442.31,255.3C452.97,248.73 462.03,253.07 472.73,250.77Z" style="fill:rgb(212,173,154);fill-rule:nonzero;"/>
                <path d="M471.79,256.22C472.61,263.47 471.16,271.2 472.65,278.25C474.34,288.29 474.32,298.61 475.31,308.76C475.12,309.92 474.92,311.07 474.72,312.23C472.91,306.27 474.88,298.18 469.46,294.57C465.38,292.71 463.15,292.7 461.77,287.96C458.59,285.62 454.63,285.78 451.54,282.6C444.07,283.64 448.57,271.63 441.18,271.67C433.92,270.24 442.13,262.24 445.86,262.37C450.39,253.35 463.25,256.36 471.79,256.22Z" style="fill:rgb(227,197,176);fill-rule:nonzero;"/>
                <path d="M260.24,265.74C262.11,269.52 262.1,273.99 263.97,277.86C260.93,282.05 262.53,282.14 264.65,285.98C262.45,291.72 262.58,293.02 264.97,298.64C256.03,296.66 271.1,301.74 266.53,305.53C263.59,309.07 267.78,310.61 270.56,311.74C276.67,315.7 288.27,317.23 293.84,312.39C293.27,320.75 301.48,322.46 308,324.03C321.2,328.04 334.68,326.82 348.14,329.85C353.36,334.45 356.34,332.5 362.32,330.61C368.29,333.18 379.8,334.91 385.88,331.88C396.23,324.31 407.69,328.61 418.02,322.02C422.42,319.7 427.98,315.01 431.08,311.12C432.56,305.25 434.92,298.58 439,293.95C441.54,292.39 436.5,291.57 436.39,289.84C436.5,287.21 436.61,284.64 436.43,282C440.81,282.42 445.05,286.49 447.76,289.74C441.96,293.84 440.53,298.12 444.18,304.52C446.73,304.18 448.8,302.64 451.19,304.05C439.97,316.02 426.06,325.1 410.01,329.05C402.21,331.51 394.32,332.31 386.87,335.85C377.53,341.63 368.63,337.01 357.18,337.71C344.36,335.79 331.8,334.15 319.26,330.68C298.64,324.52 271.22,320.63 255.83,304.25C253.62,294.86 248.5,287.7 248.4,277.46C252.9,274.5 251.53,272.28 252.49,267.65C255.36,266.97 257.97,261.98 260.24,265.74Z" style="fill:rgb(172,131,114);fill-rule:nonzero;"/>
                <path d="M435.16,279.22C443.7,279.48 446.09,287.55 454.68,289.39C461.09,295.96 471.41,298.1 470.52,307.69C470.32,311 477.06,322.21 474.72,312.23C474.92,311.07 475.12,309.92 475.31,308.76C476.85,320.28 476.77,332.93 471.52,343.57C470.36,345.56 469.36,346.83 466.87,346.38C461.41,332.69 458.99,318.54 453.13,305C453.53,298 463.26,310.72 465.9,305.98C465.29,297.62 451.81,296.25 447.76,289.74C445.05,286.49 440.81,282.42 436.43,282C436.61,284.64 436.5,287.21 436.39,289.84C436.5,291.57 441.54,292.39 439,293.95C434.92,298.58 432.56,305.25 431.08,311.12C427.98,315.01 422.42,319.7 418.02,322.02C407.69,328.61 396.23,324.31 385.88,331.88C385.36,329.04 386.55,326.54 383.21,325.29C385.28,324.19 390.12,322.32 392.18,322.92C395.26,327.24 397.35,325.49 401.19,323.18C403.19,318.62 410.15,319.32 414.13,316.18C422.8,315.42 430.01,306.37 432.7,299.32C427.8,296.65 417.27,305.47 410.8,302.23C417.91,298.89 424.83,295.24 432,291.98C436.93,289.4 433.69,283.49 435.16,279.22Z" style="fill:rgb(195,156,128);fill-rule:nonzero;"/>
                <path d="M432.48,284.21C433.58,291.73 422.13,292.04 417.51,295.61C411.85,299.76 399.17,297.3 400.87,307.3C402.66,315.06 413.02,305.05 413.5,311.61C407.87,317 404.36,319.27 396.39,319.46C389.94,322.09 383.66,316.41 378.16,319.37C381.12,320.75 382.57,320.83 381.84,324.6C374.4,325.6 367.35,327.99 360.07,329.67C360.04,326.61 362.64,324.83 357.97,325.8C343.86,324.77 329.24,322.74 315.13,321.19C311.39,324.07 307.26,318.08 303.67,316.65C304.09,313.43 304.53,311.56 303.02,308.54C322.8,312.62 343.88,303.45 359.94,308.61C361.82,305.2 368.98,307.69 371.98,308.53C359.96,310.6 378.83,313.97 379.97,314.05C380.75,308.96 381.96,311.46 383.39,314.59C388.52,307.54 390.28,300.33 397.61,296.6C400.96,295.01 401.6,290.76 405.68,293.38C407.51,289.69 410.09,286.82 412.98,283.94C419.47,284.03 428.7,275.5 432.48,284.21Z" style="fill:rgb(223,193,174);fill-rule:nonzero;"/>
                <path d="M447.76,289.74C451.81,296.25 465.29,297.62 465.9,305.98C463.26,310.72 453.53,298 453.13,305C452.49,304.66 451.84,304.35 451.19,304.05C448.8,302.64 446.73,304.18 444.18,304.52C440.53,298.12 441.96,293.84 447.76,289.74Z" style="fill:rgb(89,59,39);fill-rule:nonzero;"/>
                <path d="M479.15,308.8C481.54,314.09 481.28,320.03 483.44,325.13C483.98,327.06 484.41,329.01 484.96,330.94C483.29,330.45 481.73,329.77 479.98,329.57C481.54,334.29 483.24,338.55 483.33,343.64C493.58,344.3 481.66,347.28 478.42,344.56C476.42,350.15 484,347.77 483.98,354.03C484.35,361.97 487.12,364.86 491.76,370.72C492.23,365.71 493.31,370.5 494.86,371.95C495.12,367.25 494.33,363.14 496.92,358.92C495.76,367.17 494.01,376.78 506.07,375.15C498.07,377 502.7,375.88 504.77,380.78C499.44,386.42 498.55,384.69 496.89,378.13C493.88,382.13 489.08,385.16 491.44,390.67C494.68,395.12 488.55,398.63 488.26,402.84C490.7,407.9 493.18,410.66 489.34,415.91C492.13,417.92 496.77,417.13 493.88,421.77C496.07,427.95 512.61,423.54 511.9,429.69C506.39,429.86 498.41,432.78 494.75,427.15C492.64,427.52 490.93,430.85 494.27,431.73C505.82,435.4 520.42,436.56 532.02,433.15C526.61,432.63 522.01,433.91 516.94,431.38C523.91,429.8 539.73,429.18 544.02,424.28C534.06,425.28 526.17,429.12 515.92,426.69C518.38,423.99 523.58,424.33 526.95,423.78C535.67,422.78 544.16,419.12 552.88,418.08C556.37,418.73 555.44,423.48 552.21,424.28C544.31,427.12 543.34,434.86 534.89,435.94C526.34,437.58 519.01,441.04 510.14,439.56C503.39,439.37 490.95,438.98 488.84,431.21C486.47,429.16 481.75,430.44 478.61,429.84C477.93,432.72 472.86,447.87 480.06,444.39C476.01,448.82 473.84,444.92 469.01,444.99C474.39,450.32 480.93,450.22 487.04,453.96C482.75,453.84 479.01,451.8 474.68,451.86C475.58,462.56 471.58,471.61 472.41,482.6C470.42,493.05 472.86,502 473.34,512.01C465.25,515.16 469.63,507.02 466.15,502.9C466.17,509.64 468.44,515.48 467.83,522.36C475.52,525.33 478.88,530.17 488.19,529.63C477.7,533.7 502.66,529.34 501.43,535.13C489.54,536.79 476.08,537.09 464.85,532.17C463.2,531.95 461.78,530.04 462.02,532.92C461.92,534.32 461.84,535.73 461.78,537.13L461.73,538.16C458.96,521.94 460.26,508.33 459.96,492C460.24,473.34 466.41,456.36 468.18,438.06C469.62,423.15 475.47,410.2 474.12,394.99C477.82,379.18 472.67,366.06 468.3,351.18C480.74,344.14 478.82,320.86 479.15,308.8Z" style="fill:rgb(209,212,222);fill-rule:nonzero;"/>
                <path d="M578.44,320.85C579.53,328.27 580.74,336.52 584.5,343.11C581.87,350.54 581.43,358.23 579.61,365.84C578.4,371.17 577.65,376.54 577.97,382.02C580.55,396.44 579.09,410.51 583.44,424.61C588.96,439.49 588.03,456.56 591.88,472.07C595.24,488.95 594,505.24 591.91,522.15C590.84,525.76 590.41,529.59 589.12,533.12C588.75,526.76 584.07,525.8 579.85,522.33C581.95,505.75 579.74,487.71 583.18,471.19C578.51,469.42 580.12,465.6 583.74,462.16C579.93,461.24 576.09,461.08 572.2,460.8C572.64,458.19 584.86,462.41 581.96,458.06C579.92,452.19 576.76,460.28 571.93,457.84C575.3,455.28 579.03,454.59 582.98,453.41C581.01,453.23 571.84,451.15 579,451.02C587.29,450.05 574.82,448.4 572.94,448.74C576.09,447.11 580.56,447.73 584.03,447.69C581.94,446.02 580.24,446.54 581.32,443.44C576.96,442.26 572.5,444.62 567.93,443.91C571.77,441.69 577.5,442.35 581.82,441.75C583.03,438.39 572.13,440.77 569.99,439.86C572.98,438.1 577.96,438.65 581.42,437.81C579.59,433.87 581.98,428.63 575.61,430.5C567.55,431.92 577.3,428.66 578.82,426.4C575.84,423.97 572.71,423.08 568.97,422.5C571.43,420.98 573.96,420.19 576.03,418.37C570.09,416.78 563.73,416.54 557.6,416.76C557.26,414.83 559.21,411.45 555.99,411.99C548.94,410.84 546.65,417.37 538.99,416.74C537.01,416.52 535.05,416.32 533.11,415.86C539.53,409.02 543.87,407.35 547.63,398.12C544.67,392.18 549,386.46 545.96,381.04C540.82,377.38 540.67,373.92 534.03,374.18C543.09,369.3 563.33,378.48 564.21,363.58C569.18,362.89 577.35,350.11 566.24,351.72C568.17,343.47 568.83,343.81 575.61,339.63C572.2,336.99 571,332.95 568.06,329.83C569.49,321.94 578.2,327.06 578.44,320.85Z" style="fill:rgb(209,212,220);fill-rule:nonzero;"/>
                <path d="M490.38,326.28C486.57,327.76 486.45,328.07 483.44,325.13C484.43,321.05 488.68,324.8 490.38,326.28Z" style="fill:rgb(193,197,210);fill-rule:nonzero;"/>
                <path d="M497.97,323.99C494.17,326.42 489.48,330.56 484.96,330.94C484.41,329.01 483.98,327.06 483.44,325.13C486.45,328.07 486.57,327.76 490.38,326.28C492.87,325.37 495.34,324.46 497.97,323.99Z" style="fill:rgb(40,44,58);fill-rule:nonzero;"/>
                <path d="M548.73,342.24C548.29,348.35 545.41,352.72 543.01,358.09C532.15,366.24 550.86,347.53 545.28,345.46C540.52,351.23 534.35,363.33 535.15,370.94C539.66,371.95 545.13,361.75 543.01,358.09C547.66,358.35 547.55,345.72 551.57,350.08C550.85,353.09 550.07,354.87 551.4,357.88C548.65,359.63 543.16,366.99 545.16,369.85C551.43,366.89 553.76,358.27 557.21,353.13C560.53,353.9 556.6,357.92 558.07,359.94C559.87,363.35 559.78,365.32 559.26,369.05C560.9,367.54 561.9,363.82 564.21,363.58C563.33,378.48 543.09,369.3 534.03,374.18C526.65,366.02 521.15,377.21 515.37,373.6C511.98,367.75 520.62,358.89 525.99,357.1C531.85,357.89 527.9,365.49 527.14,368.99C531.25,369.37 531.11,366.28 532.4,363.38C535.02,355.71 539.35,347.88 545.24,342.24C546.91,340.86 547.11,340.45 548.73,342.24Z" style="fill:rgb(48,66,93);fill-rule:nonzero;"/>
                <path d="M512.32,343.35C517.54,342.54 521.25,351.73 514.66,352.09C515.22,346.52 513.27,345.67 508.78,348.79C503.59,353.12 497.07,364.45 501.18,370.82C506.78,374.72 507.87,368.78 509.39,365.3C517.91,364.62 509.48,374.09 506.07,375.15C494.01,376.78 495.76,367.17 496.92,358.92C499.69,352.59 505.18,344.9 512.32,343.35Z" style="fill:rgb(48,64,89);fill-rule:nonzero;"/>
                <path d="M545.28,345.46C550.86,347.53 532.15,366.24 543.01,358.09C545.13,361.75 539.66,371.95 535.15,370.94C534.35,363.33 540.52,351.23 545.28,345.46Z" style="fill:rgb(188,204,226);fill-rule:nonzero;"/>
                <path d="M522.45,366C522.03,368.5 523.89,371.09 520.06,370.92C515.77,370.06 524.39,355.91 522.45,366Z" style="fill:rgb(174,195,222);fill-rule:nonzero;"/>
                <path d="M555.42,362.58C556.97,362.71 555.4,371.59 551.38,371.16C552.37,368.25 553.42,364.96 555.42,362.58Z" style="fill:rgb(186,203,227);fill-rule:nonzero;"/>
                <path d="M543.27,389.37C539.36,393.59 546.96,391.77 543.27,389.37Z" style="fill:rgb(217,220,227);fill-rule:nonzero;"/>
                <path d="M538.99,416.74C541.44,420.58 543.4,415.72 538.99,416.74Z" style="fill:rgb(215,218,227);fill-rule:nonzero;"/>
                <path d="M502.63,473.39C508.03,473.42 510.6,484.33 515.71,480.81C518.58,479.71 521.59,479.32 524.54,478.51C526.19,470.47 536.19,476.07 542.01,474.4C536.9,478.8 531.76,481.81 528.3,487.93C527.62,487.67 526.93,487.42 526.24,487.19C524.54,501.82 520.89,517.69 517.12,531.94C516.53,529.28 505.54,536.21 501.43,535.13C502.66,529.34 477.7,533.7 488.19,529.63C493.75,530.25 501.14,529.94 505.95,526.84C504.96,523.17 497.23,524.76 499.58,520.52C504.73,512.8 491.51,516.53 487.9,513.27C495.14,511.89 504.62,514.91 511.07,511.36C508.2,510.29 503.41,512.68 506.38,508.12C495.24,504.35 511.93,506.93 514.07,503.15C510.65,503.33 507.39,504.06 503.95,503.96C507.26,502.38 509.41,503 511.03,498.99C514.04,494.82 501.55,488.98 509.67,489.79C506.49,481.58 499.95,478.49 493.01,474C497.12,474.46 499.91,476.77 503.86,478.04C503.21,476.26 497.28,471.47 502.63,473.39Z" style="fill:rgb(165,167,179);fill-rule:nonzero;"/>
                <path d="M579.85,522.33C584.07,525.8 588.75,526.76 589.12,533.12C579.14,523.25 565.93,518.86 551.99,519.95C543.04,519.78 534.9,523.78 530.99,532.09L530.74,531.24C530.37,523.6 538.37,520.39 544.37,518.42C556.95,514.85 568,518.25 579.85,522.33Z" style="fill:rgb(40,58,83);fill-rule:nonzero;"/>
                <path d="M551.99,519.95C565.93,518.86 579.14,523.25 589.12,533.12C588.55,534.53 587.87,535.9 587.25,537.29C580.01,527.34 564.68,523.55 553,523.92C544.43,523.68 536.29,526.74 531.63,534.25C531.4,533.53 531.18,532.81 530.99,532.09C534.9,523.78 543.04,519.78 551.99,519.95Z" style="fill:rgb(133,160,196);fill-rule:nonzero;"/>
                <path d="M553,523.92C564.68,523.55 580.01,527.34 587.25,537.29C587.03,538.56 586.79,539.83 586.53,541.09C575.14,527.58 543.47,519.86 532.27,537.09C532.06,536.14 531.84,535.2 531.63,534.25C536.29,526.74 544.43,523.68 553,523.92Z" style="fill:rgb(25,53,85);fill-rule:nonzero;"/>
                <path d="M586.53,541.09C586,543.52 585.06,545.88 584.2,548.21C584.31,539.47 570.1,534.21 563.01,532.94C555.46,531.25 535.22,530.09 534.1,541.14C533.97,542.7 533.44,542.92 532.51,541.79C532.51,540.22 532.4,538.65 532.27,537.09C543.47,519.86 575.14,527.58 586.53,541.09Z" style="fill:rgb(133,158,191);fill-rule:nonzero;"/>
                <path d="M517.12,531.94C516.84,532.68 516.54,533.41 516.24,534.15C499.9,541.13 477.53,542.59 462.02,532.92C461.78,530.04 463.2,531.95 464.85,532.17C476.08,537.09 489.54,536.79 501.43,535.13C505.54,536.21 516.53,529.28 517.12,531.94Z" style="fill:rgb(24,37,60);fill-rule:nonzero;"/>
                <path d="M563.01,532.94C570.1,534.21 584.31,539.47 584.2,548.21L583.88,549.03C581.2,543.43 575.67,540.21 570.15,537.9C558.43,533.42 543.53,530.62 534.1,541.14C535.22,530.09 555.46,531.25 563.01,532.94Z" style="fill:rgb(38,44,58);fill-rule:nonzero;"/>
                <path d="M462.02,532.92C477.53,542.59 499.9,541.13 516.24,534.15C515.99,536.06 516,538.21 515.22,539.97L514.86,538.46C499.05,545.74 476.84,546.73 461.78,537.13C461.84,535.73 461.92,534.32 462.02,532.92Z" style="fill:rgb(104,131,167);fill-rule:nonzero;"/>
                <path d="M570.15,537.9C564.31,546.38 563.44,552.9 572.42,559.36C572.42,565.45 571.83,571.84 571.82,578.06C569.53,575.8 572.26,569.27 569.15,568.03C566.16,571.81 556.38,579.47 552.02,575.08C551.1,569.26 549.54,565.18 544.05,562.98C539.01,562.08 541.74,565.98 542.73,568.54C545.41,568.55 550.88,568.94 546.52,572.41C542.29,575.08 543.61,576.2 548.04,575.39C542.95,577.51 543.31,580 542.2,584.82C544.55,589.17 548.95,586.7 547.72,592.25C546.29,599.32 542.66,583.69 543.32,592.81C545.09,599.35 541.13,591.92 538.33,591.82C539.07,596.71 547.19,604.58 543.06,608.67C550.07,604.81 550.3,612.72 546.39,616.36C541.78,621.89 551.41,616.02 549.96,613.03C549.03,610.13 553.47,597.93 547.09,604.68C544.7,602.77 544.91,596.41 549.14,595.31C553.45,595.74 556.16,593.78 559.68,591.72C562.27,595.38 566.07,597.49 568.26,601.5C568.02,604.32 561.62,611.41 568.27,607.46C563.77,615.44 562.32,622.51 561.62,631.7C555.52,638.62 567.72,644.31 562.19,650.11C556.94,653.64 563.2,657.6 558.98,663.06C549.79,661.88 543.49,664.4 535.35,667.9C533.9,656.86 530.63,645.11 530.94,634C530.56,615.83 538.08,600.94 534.15,583.93C531.19,569.79 532.2,556 532.51,541.79C533.44,542.92 533.97,542.7 534.1,541.14C543.53,530.62 558.43,533.42 570.15,537.9Z" style="fill:rgb(194,160,138);fill-rule:nonzero;"/>
                <path d="M461.78,537.13C476.84,546.73 499.05,545.74 514.86,538.46L515.22,539.97C514.91,540.64 514.6,541.31 514.27,541.98C498.09,550.71 479.25,549.5 462.89,541.94C462.48,540.69 462.08,539.43 461.73,538.16L461.78,537.13Z" style="fill:rgb(13,31,63);fill-rule:nonzero;"/>
                <path d="M570.15,537.9C575.67,540.21 581.2,543.43 583.88,549.03C571.57,567.65 574.28,586.79 574,608C574.89,626.11 572.78,643 569.76,660.78C569.42,669.9 564.35,663.79 558.98,663.06C563.2,657.6 556.94,653.64 562.19,650.11C567.72,644.31 555.52,638.62 561.62,631.7C562.32,622.51 563.77,615.44 568.27,607.46C561.62,611.41 568.02,604.32 568.26,601.5C566.07,597.49 562.27,595.38 559.68,591.72C556.16,593.78 553.45,595.74 549.14,595.31C544.91,596.41 544.7,602.77 547.09,604.68C553.47,597.93 549.03,610.13 549.96,613.03C551.41,616.02 541.78,621.89 546.39,616.36C550.3,612.72 550.07,604.81 543.06,608.67C547.19,604.58 539.07,596.71 538.33,591.82C541.13,591.92 545.09,599.35 543.32,592.81C542.66,583.69 546.29,599.32 547.72,592.25C548.95,586.7 544.55,589.17 542.2,584.82C543.31,580 542.95,577.51 548.04,575.39C543.61,576.2 542.29,575.08 546.52,572.41C550.88,568.94 545.41,568.55 542.73,568.54C541.74,565.98 539.01,562.08 544.05,562.98C549.54,565.18 551.1,569.26 552.02,575.08C556.38,579.47 566.16,571.81 569.15,568.03C572.26,569.27 569.53,575.8 571.82,578.06C571.83,571.84 572.42,565.45 572.42,559.36C563.44,552.9 564.31,546.38 570.15,537.9Z" style="fill:rgb(168,135,117);fill-rule:nonzero;"/>
                <path d="M462.89,541.94C479.25,549.5 498.09,550.71 514.27,541.98C514.48,543.59 515.36,545.19 514.32,546.65C498.41,553.09 478.56,554.95 463.18,545.98C463.05,544.64 462.95,543.29 462.89,541.94Z" style="fill:rgb(106,131,164);fill-rule:nonzero;"/>
                <path d="M463.18,545.98C478.56,554.95 498.41,553.09 514.32,546.65C513.9,547.45 513.47,548.24 513.03,549.03C498.42,557.78 478.71,556.13 463.77,549.12C463.53,548.08 463.34,547.03 463.18,545.98Z" style="fill:rgb(29,33,48);fill-rule:nonzero;"/>
                <path d="M463.77,549.12C478.71,556.13 498.42,557.78 513.03,549.03C512.57,559.98 512.48,571.62 509.11,582.13C505.71,593.88 499.65,602.35 500.34,615.19C500.49,632.82 496.22,650.49 491.09,667.24C490.1,662.01 493.86,658.44 490.79,653.37C490.3,645.18 497.46,640.75 496.05,631.98C498.47,619.21 495.02,604.11 502.23,593.16C503.71,588.99 505.91,586.66 500.6,584.4C501.08,579.73 500.87,577.06 497.89,573.24C494.88,576.67 487.84,576.44 489.62,581.9C483.52,577.9 479.83,573.75 476.91,567.04C475.06,564.09 473.25,565.79 471.04,567.16C472.65,569.45 475.9,568.81 477.3,571.72C479.81,574.04 477.3,580.55 481.9,577.76C484.23,579.62 487.18,581.63 488.86,584.06C488.04,588.71 480.18,595.62 475.37,595.48C474.02,600.6 470.89,601.14 477.23,605.75C484.07,609 476.64,612.04 480.76,618.06C475.48,622.8 475.09,620.57 479.05,626.96C472.66,631.74 476.24,640.7 475.13,647.57C476.42,647.13 477.67,645.1 476.96,647.92C472.35,651.39 481.61,659.22 478.37,663.4C473.35,660.51 478.51,665.17 477.25,666.1C470,664.24 479.28,671.84 473.87,674.29C470.95,673.83 468.03,673.39 465.12,672.88C460.79,670.58 461.08,667.34 460.88,662.98C459.31,645.02 457.27,628.21 461.25,610.31C468.4,587.96 470.49,572.03 463.77,549.12Z" style="fill:rgb(163,132,116);fill-rule:nonzero;"/>
                <path d="M476.91,567.04C479.83,573.75 483.52,577.9 489.62,581.9C487.84,576.44 494.88,576.67 497.89,573.24C500.87,577.06 501.08,579.73 500.6,584.4C505.91,586.66 503.71,588.99 502.23,593.16C495.02,604.11 498.47,619.21 496.05,631.98C497.46,640.75 490.3,645.18 490.79,653.37C493.86,658.44 490.1,662.01 491.09,667.24C490.74,669.18 490.38,671.11 490.05,673.05C484.85,675.54 479.41,675.49 473.87,674.29C479.28,671.84 470,664.24 477.25,666.1C478.51,665.17 473.35,660.51 478.37,663.4C481.61,659.22 472.35,651.39 476.96,647.92C477.67,645.1 476.42,647.13 475.13,647.57C476.24,640.7 472.66,631.74 479.05,626.96C475.09,620.57 475.48,622.8 480.76,618.06C476.64,612.04 484.07,609 477.23,605.75C470.89,601.14 474.02,600.6 475.37,595.48C480.18,595.62 488.04,588.71 488.86,584.06C487.18,581.63 484.23,579.62 481.9,577.76C477.3,580.55 479.81,574.04 477.3,571.72C475.9,568.81 472.65,569.45 471.04,567.16C473.25,565.79 475.06,564.09 476.91,567.04Z" style="fill:rgb(120,90,75);fill-rule:nonzero;"/>
                <path d="M465.12,672.88C468.03,673.39 470.95,673.83 473.87,674.29C479.41,675.49 484.85,675.54 490.05,673.05C489.22,678.35 488.53,683.86 486.79,688.95C481.83,689.13 476.8,688.71 471.9,689.26C474.87,690.54 478.13,690.3 481.09,691.67C475.52,692.03 470.1,692.88 464.52,692.12C464.71,695.35 463.53,700.31 468.59,699.43C468.98,700.27 469.35,701.13 469.71,701.99C469.68,703.05 469.67,704.12 469.66,705.18C467.35,706.03 461.09,705.43 466.81,707.6C458.03,711.11 461.51,716.36 455.85,723.09C451.08,728.87 457.65,729.23 451.09,733.05C458.71,731.74 465.36,731.3 470.81,725.63C472.37,728.95 481.54,734.09 477.44,737.52C472.73,741.4 468.76,738.75 463.35,738.53C456.65,737.64 451.67,742.37 444.81,740.36C440.35,739.67 442.4,744.32 443.71,746.36C448.15,756.26 466.56,752.23 474.94,751.11C484.33,749.69 485.12,742.31 492.72,737.67C496.51,735.03 488.1,734.85 486.8,734.16C487.73,731.38 488.23,728.7 488.14,725.76C489.18,733.9 491.9,725.24 496.74,725.54C507.87,721.08 518.69,718.84 529.95,714.75C532.89,715.99 532.54,717.88 533.95,713.84C533.79,716.22 533.6,718.59 533.2,720.95C532.04,725.34 527.78,732.57 531.42,736.57C537.78,739.44 545.78,738.83 552.07,741.65C551.02,742.11 545.85,741.45 546.24,742.94C551.21,743.57 555.26,742.65 559.83,740.83C565.46,741.21 570.87,741.15 576.26,739.25C580.48,738.03 582.4,736.75 584.76,733.04C586.45,735.27 587.34,734.6 589.71,734C598.59,728.9 607.77,728.68 617.02,724.99C620.84,724.35 621.76,718.22 625.24,721.74C626.05,718.63 626.99,720.75 628.45,721.87C632.4,722.87 636.16,721.38 640.02,723.55C631.95,723.85 638.7,727.47 630.89,727.64C629.61,723.85 627.43,728.99 625.6,729.56C620.72,731.86 621.03,736.68 615.09,736.06C612.84,735.98 617.67,738.23 614.88,738.86C607.69,744.14 604.07,750.01 593.84,750.85C588.08,752.52 592.7,754.89 595.03,757L446.43,757C445.13,751.57 433.68,753.21 437.31,747.41C436.23,744.49 438.06,733.75 442.74,735.43C451.68,728.23 456.38,717.12 458.82,706.05C459.66,703.33 461.86,702.73 463.86,701.08C459.49,695.82 463.68,692.18 462.58,685.64C461.9,679.2 469.53,684.04 473.18,683.58C472.39,680.52 463.28,683.04 464,678.97C463.24,674.53 470.71,675.76 465.12,672.88Z" style="fill:rgb(217,217,222);fill-rule:nonzero;"/>
                <path d="M471.9,689.26C476.8,688.71 481.83,689.13 486.79,688.95C484.25,693.36 487.99,698.84 487.87,703.91C477.67,702.3 488.72,712 482.36,713.62C479.08,711.33 474.93,709.45 481.98,708.52C478.88,705.13 474.12,706.39 469.66,705.18C469.67,704.12 469.68,703.05 469.71,701.99C472.61,702.48 475.66,702.98 476.3,699.23C486.56,695.1 462.23,692.62 468.59,699.43C463.53,700.31 464.71,695.35 464.52,692.12C470.1,692.88 475.52,692.03 481.09,691.67C478.13,690.3 474.87,690.54 471.9,689.26Z" style="fill:rgb(185,187,189);fill-rule:nonzero;"/>
                <path d="M549.04,690.24C553.93,689.71 560.48,691.61 564.01,694.88C561.63,701.37 553.42,696.86 551.04,692.88C550.38,691.99 549.69,691.13 549.04,690.24Z" style="fill:rgb(47,49,53);fill-rule:nonzero;"/>
                <path d="M476.3,699.23C475.66,702.98 472.61,702.48 469.71,701.99C469.35,701.13 468.98,700.27 468.59,699.43C462.23,692.62 486.56,695.1 476.3,699.23Z" style="fill:rgb(31,33,31);fill-rule:nonzero;"/>
                <path d="M554.21,699.76C550.72,699.92 546.98,699.68 543.59,700.58C541.38,704.73 546.88,701.77 548.97,702.18C546.81,705.33 543.47,706.95 541.03,709.78C546.15,711.85 552.96,711.11 558.03,709.12C561.99,709.45 564.84,712.43 569.06,711.74C574.57,710.54 577.98,714.02 581.09,718C575.24,715.88 571.77,712.18 565.19,715.24C558.74,720.67 550.44,721.25 546.82,727.9C540.98,729.59 543.32,709.55 540.15,721.04C539.15,731.11 537.28,724.98 533.2,720.95C533.6,718.59 533.79,716.22 533.95,713.84C534.62,710.24 534.55,706.11 535.78,702.72C539.37,697.79 549.01,698.45 554.21,699.76Z" style="fill:rgb(166,168,169);fill-rule:nonzero;"/>
                <path d="M554.21,699.76C561.11,701.84 564.33,706.88 569.06,711.74C564.84,712.43 561.99,709.45 558.03,709.12C552.96,711.11 546.15,711.85 541.03,709.78C543.47,706.95 546.81,705.33 548.97,702.18C546.88,701.77 541.38,704.73 543.59,700.58C546.98,699.68 550.72,699.92 554.21,699.76Z" style="fill:rgb(52,54,57);fill-rule:nonzero;"/>
                <path d="M487.87,703.91C488.65,710.59 486.66,717.38 487.65,723.97C485.71,727.58 486.16,729.14 481.83,729.44C480.6,732.56 481.68,735.73 477.44,737.52C481.54,734.09 472.37,728.95 470.81,725.63C468.56,718.78 473.07,724.51 475.78,725.77C475.64,722.9 473.58,717.4 476.94,722.88C477.62,715.39 474.38,715.2 482.36,713.62C488.72,712 477.67,702.3 487.87,703.91Z" style="fill:rgb(142,144,143);fill-rule:nonzero;"/>
                <path d="M469.66,705.18C474.12,706.39 478.88,705.13 481.98,708.52C474.93,709.45 479.08,711.33 482.36,713.62C474.38,715.2 477.62,715.39 476.94,722.88C473.58,717.4 475.64,722.9 475.78,725.77C473.07,724.51 468.56,718.78 470.81,725.63C465.36,731.3 458.71,731.74 451.09,733.05C457.65,729.23 451.08,728.87 455.85,723.09C461.51,716.36 458.03,711.11 466.81,707.6C461.09,705.43 467.35,706.03 469.66,705.18Z" style="fill:rgb(45,48,51);fill-rule:nonzero;"/>
                <path d="M581.09,718C585.19,722.92 587.3,726.59 584.76,733.04C582.4,736.75 580.48,738.03 576.26,739.25C568.91,734.4 578.79,733.79 574.65,727.38C570.65,723.9 563.1,724.47 560.24,729.57C561.96,730.55 563.73,731.4 565.4,732.46C565.24,735.67 552.15,727.54 553.31,733.65C556.14,738.17 563.72,736.88 568.08,739.63C565.21,739.97 562.55,739.93 559.83,740.83C555.26,742.65 551.21,743.57 546.24,742.94C545.85,741.45 551.02,742.11 552.07,741.65C545.78,738.83 537.78,739.44 531.42,736.57C527.78,732.57 532.04,725.34 533.2,720.95C537.28,724.98 539.15,731.11 540.15,721.04C543.32,709.55 540.98,729.59 546.82,727.9C550.44,721.25 558.74,720.67 565.19,715.24C571.77,712.18 575.24,715.88 581.09,718Z" style="fill:rgb(47,54,60);fill-rule:nonzero;"/>
                <path d="M463.36,723.33C474.58,722.66 456.3,729.24 456.44,727.28C458.18,724.65 460.33,723.81 463.36,723.33Z" style="fill:rgb(186,189,194);fill-rule:nonzero;"/>
                <path d="M487.65,723.97L488.14,725.76C488.23,728.7 487.73,731.38 486.8,734.16C484.75,736.88 482.41,739.36 480.32,742.05C479.87,737.1 478.04,746.37 475,745.03C464.26,743.24 454.37,745.08 443.71,746.36C442.4,744.32 440.35,739.67 444.81,740.36C451.67,742.37 456.65,737.64 463.35,738.53C468.76,738.75 472.73,741.4 477.44,737.52C481.68,735.73 480.6,732.56 481.83,729.44C486.16,729.14 485.71,727.58 487.65,723.97Z" style="fill:rgb(89,93,96);fill-rule:nonzero;"/>
                <path d="M574.65,727.38C578.79,733.79 568.91,734.4 576.26,739.25C570.87,741.15 565.46,741.21 559.83,740.83C562.55,739.93 565.21,739.97 568.08,739.63C563.72,736.88 556.14,738.17 553.31,733.65C552.15,727.54 565.24,735.67 565.4,732.46C563.73,731.4 561.96,730.55 560.24,729.57C563.1,724.47 570.65,723.9 574.65,727.38Z" style="fill:rgb(170,173,169);fill-rule:nonzero;"/>
                <path d="M486.8,734.16C488.1,734.85 496.51,735.03 492.72,737.67C485.12,742.31 484.33,749.69 474.94,751.11C477.36,748.33 479.61,745.81 480.32,742.05C482.41,739.36 484.75,736.88 486.8,734.16Z" style="fill:rgb(158,160,165);fill-rule:nonzero;"/>
                <path d="M480.32,742.05C479.61,745.81 477.36,748.33 474.94,751.11C466.56,752.23 448.15,756.26 443.71,746.36C454.37,745.08 464.26,743.24 475,745.03C478.04,746.37 479.87,737.1 480.32,742.05Z" style="fill:rgb(39,47,55);fill-rule:nonzero;"/>
            </g>
        </g>
    </g>
</svg>
